<svg width="1280" height="720" xmlns="http://www.w3.org/2000/svg" xmlns:xlink="http://www.w3.org/1999/xlink" overflow="hidden"><defs><clipPath id="clip0"><rect x="0" y="0" width="1280" height="720"/></clipPath></defs><g clip-path="url(#clip0)"><rect x="0" y="0" width="1280" height="720" fill="#FFFFFF"/><path d="M142 392.333C142 388.836 144.836 386 148.333 386L173.667 386C177.164 386 180 388.836 180 392.333L180 423.667C180 427.164 177.164 430 173.667 430L148.333 430C144.836 430 142 427.164 142 423.667Z" fill="#FFF2CC" fill-rule="evenodd"/><text font-family="Cambria Math,Cambria Math_MSFontService,sans-serif" font-weight="400" font-size="32" transform="translate(29.7121 417)">1</text><text font-family="Cambria Math,Cambria Math_MSFontService,sans-serif" font-weight="400" font-size="32" transform="translate(47.3788 417)"></text><text font-family="Calibri,Calibri_MSFontService,sans-serif" font-weight="400" font-size="32" transform="translate(54.3788 417)">−</text><text font-family="Cambria Math,Cambria Math_MSFontService,sans-serif" font-weight="400" font-size="32" transform="translate(70.3788 417)"></text><text font-family="Cambria Math,Cambria Math_MSFontService,sans-serif" font-weight="400" font-size="32" transform="translate(77.3788 417)">P</text><text font-family="Cambria Math,Cambria Math_MSFontService,sans-serif" font-weight="400" font-size="32" transform="translate(95.5455 417)">(</text><text font-family="Cambria Math,Cambria Math_MSFontService,sans-serif" font-weight="400" font-size="32" transform="translate(108.879 417)">A</text><text font-family="Cambria Math,Cambria Math_MSFontService,sans-serif" font-weight="400" font-size="32" transform="translate(128.879 417)">)</text><text font-family="Cambria Math,Cambria Math_MSFontService,sans-serif" font-weight="400" font-size="32" transform="translate(151.099 417)">≥</text><text font-family="Cambria Math,Cambria Math_MSFontService,sans-serif" font-weight="400" font-size="32" transform="translate(183.985 417)">0</text><path d="M81 340.667C81 336.433 84.4325 333 88.6668 333L202.333 333C206.567 333 210 336.433 210 340.667L210 371.333C210 375.567 206.567 379 202.333 379L88.6668 379C84.4325 379 81 375.567 81 371.333Z" fill="#FFF2CC" fill-rule="evenodd"/><text font-family="Cambria Math,Cambria Math_MSFontService,sans-serif" font-weight="400" font-size="32" transform="translate(28.9523 365)">0</text><text font-family="Cambria Math,Cambria Math_MSFontService,sans-serif" font-weight="400" font-size="32" transform="translate(55.5057 365)">≤</text><text font-family="Cambria Math,Cambria Math_MSFontService,sans-serif" font-weight="400" font-size="32" transform="translate(88.3923 365)">1</text><text font-family="Cambria Math,Cambria Math_MSFontService,sans-serif" font-weight="400" font-size="32" transform="translate(106.059 365)"></text><text font-family="Calibri,Calibri_MSFontService,sans-serif" font-weight="400" font-size="32" transform="translate(113.059 365)">−</text><text font-family="Cambria Math,Cambria Math_MSFontService,sans-serif" font-weight="400" font-size="32" transform="translate(129.059 365)"></text><text font-family="Cambria Math,Cambria Math_MSFontService,sans-serif" font-weight="400" font-size="32" transform="translate(136.059 365)">P</text><text font-family="Cambria Math,Cambria Math_MSFontService,sans-serif" font-weight="400" font-size="32" transform="translate(154.226 365)">(</text><text font-family="Cambria Math,Cambria Math_MSFontService,sans-serif" font-weight="400" font-size="32" transform="translate(167.559 365)">A</text><text font-family="Cambria Math,Cambria Math_MSFontService,sans-serif" font-weight="400" font-size="32" transform="translate(187.559 365)">)</text><text font-family="Cambria Math,Cambria Math_MSFontService,sans-serif" font-weight="400" font-size="32" transform="translate(30.4897 315)">P</text><text font-family="Cambria Math,Cambria Math_MSFontService,sans-serif" font-weight="400" font-size="32" transform="translate(48.6563 315)">(</text><text font-family="Cambria Math,Cambria Math_MSFontService,sans-serif" font-weight="400" font-size="32" transform="translate(61.9897 315)">A</text><text font-family="Cambria Math,Cambria Math_MSFontService,sans-serif" font-weight="400" font-size="32" transform="translate(81.9897 315)">)</text><text font-family="Cambria Math,Cambria Math_MSFontService,sans-serif" font-weight="400" font-size="32" transform="translate(104.21 315)">≤</text><text font-family="Cambria Math,Cambria Math_MSFontService,sans-serif" font-weight="400" font-size="32" transform="translate(137.096 315)">1</text><text font-family="Calibri,Calibri_MSFontService,sans-serif" font-weight="700" font-size="27" transform="translate(29.6886 186)">Rule 1:</text><text font-family="Calibri,Calibri_MSFontService,sans-serif" font-weight="400" font-size="27" transform="translate(111.855 186)">adding or subtracting</text><text font-family="Calibri,Calibri_MSFontService,sans-serif" font-weight="400" font-size="27" transform="translate(29.6886 218)">from both sides does</text><text font-family="Calibri,Calibri_MSFontService,sans-serif" font-weight="400" font-size="27" transform="translate(263.429 218)">not</text><path d="M263.689 220.683 300.689 220.683 300.689 222.683 263.689 222.683Z" fill-rule="evenodd"/><text font-family="Calibri,Calibri_MSFontService,sans-serif" font-weight="400" font-size="27" transform="translate(29.6886 250)">change the inequality symbol</text><text font-family="Calibri,Calibri_MSFontService,sans-serif" font-weight="700" font-size="27" transform="translate(430.363 186)">Rule 2:</text><text font-family="Calibri,Calibri_MSFontService,sans-serif" font-weight="400" font-size="27" transform="translate(512.53 186)">multiplying or dividing by</text><text font-family="Calibri,Calibri_MSFontService,sans-serif" font-weight="400" font-size="27" transform="translate(430.363 218)">a positive number from both sides</text><text font-family="Calibri,Calibri_MSFontService,sans-serif" font-weight="400" font-size="27" transform="translate(430.363 250)">does</text><text font-family="Calibri,Calibri_MSFontService,sans-serif" font-weight="400" font-size="27" transform="translate(488.196 250)">not</text><text font-family="Calibri,Calibri_MSFontService,sans-serif" font-weight="400" font-size="27" transform="translate(531.196 250)">change the inequality</text><path d="M488.363 253.231 531.363 253.231 531.363 255.231 488.363 255.231Z" fill-rule="evenodd"/><text font-family="Calibri,Calibri_MSFontService,sans-serif" font-weight="400" font-size="27" transform="translate(430.363 282)">symbol</text><text font-family="Calibri,Calibri_MSFontService,sans-serif" font-weight="700" font-size="27" transform="translate(876.397 186)">Rule 3:</text><text font-family="Calibri,Calibri_MSFontService,sans-serif" font-weight="400" font-size="27" transform="translate(958.564 186)">multiplying or dividing by a</text><text font-family="Calibri,Calibri_MSFontService,sans-serif" font-weight="400" font-size="27" transform="translate(876.397 218)">negative number from both sides</text><text font-family="Calibri,Calibri_MSFontService,sans-serif" font-weight="400" font-size="27" transform="translate(876.397 250)">reverses the inequality symbol</text><path d="M500 367.667C500 363.433 503.433 360 507.667 360L591.333 360C595.567 360 599 363.433 599 367.667L599 398.333C599 402.567 595.567 406 591.333 406L507.667 406C503.433 406 500 402.567 500 398.333Z" fill="#FFF2CC" fill-rule="evenodd"/><path d="M636 367.667C636 363.433 639.433 360 643.667 360L697.333 360C701.567 360 705 363.433 705 367.667L705 398.333C705 402.567 701.567 406 697.333 406L643.667 406C639.433 406 636 402.567 636 398.333Z" fill="#FFF2CC" fill-rule="evenodd"/><text font-family="Cambria Math,Cambria Math_MSFontService,sans-serif" font-weight="400" font-size="32" transform="translate(430.013 348)">P</text><text font-family="Cambria Math,Cambria Math_MSFontService,sans-serif" font-weight="400" font-size="32" transform="translate(448.18 348)">(</text><text font-family="Cambria Math,Cambria Math_MSFontService,sans-serif" font-weight="400" font-size="32" transform="translate(461.513 348)">A</text><text font-family="Cambria Math,Cambria Math_MSFontService,sans-serif" font-weight="400" font-size="32" transform="translate(481.513 348)">)</text><text font-family="Cambria Math,Cambria Math_MSFontService,sans-serif" font-weight="400" font-size="32" transform="translate(503.733 348)">≤</text><text font-family="Cambria Math,Cambria Math_MSFontService,sans-serif" font-weight="400" font-size="32" transform="translate(536.62 348)">1</text><text font-family="Cambria Math,Cambria Math_MSFontService,sans-serif" font-weight="400" font-size="32" transform="translate(430.42 394)">P</text><path d="M482.882 369.561C485.924 370.363 488.26 372.095 489.89 374.757 491.52 377.418 492.335 380.629 492.335 384.389 492.335 388.16 491.523 391.371 489.898 394.022 488.273 396.673 485.934 398.4 482.882 399.202L482.507 397.999C484.913 397.197 486.702 395.613 487.874 393.249 489.046 390.884 489.632 387.879 489.632 384.233 489.632 380.712 489.049 377.788 487.882 375.46 486.715 373.132 484.908 371.567 482.46 370.764ZM460.852 369.561 461.274 370.764C458.836 371.567 457.032 373.132 455.86 375.46 454.688 377.788 454.102 380.712 454.102 384.233 454.102 387.879 454.688 390.884 455.86 393.249 457.032 395.613 458.821 397.197 461.227 397.999L460.852 399.202C457.8 398.4 455.461 396.673 453.836 394.022 452.211 391.371 451.399 388.16 451.399 384.389 451.399 380.629 452.214 377.418 453.844 374.757 455.474 372.095 457.81 370.363 460.852 369.561Z" fill-rule="evenodd"/><text font-family="Cambria Math,Cambria Math_MSFontService,sans-serif" font-weight="400" font-size="32" transform="translate(461.866 394)">A</text><text font-family="Cambria Math,Cambria Math_MSFontService,sans-serif" font-weight="400" font-size="32" transform="translate(502.26 394)">×</text><text font-family="Cambria Math,Cambria Math_MSFontService,sans-serif" font-weight="400" font-size="32" transform="translate(532.206 394)">P</text><path d="M584.169 369.561C587.21 370.363 589.546 372.095 591.177 374.757 592.807 377.418 593.622 380.629 593.622 384.389 593.622 388.16 592.809 391.371 591.184 394.022 589.559 396.673 587.221 398.4 584.169 399.202L583.794 397.999C586.2 397.197 587.989 395.613 589.161 393.249 590.333 390.884 590.919 387.879 590.919 384.233 590.919 380.712 590.335 377.788 589.169 375.46 588.002 373.132 586.195 371.567 583.747 370.764ZM562.639 369.561 563.061 370.764C560.623 371.567 558.818 373.132 557.647 375.46 556.475 377.788 555.889 380.712 555.889 384.233 555.889 387.879 556.475 390.884 557.647 393.249 558.818 395.613 560.607 397.197 563.014 397.999L562.639 399.202C559.587 398.4 557.248 396.673 555.623 394.022 553.998 391.371 553.186 388.16 553.186 384.389 553.186 380.629 554.001 377.418 555.631 374.757 557.261 372.095 559.597 370.363 562.639 369.561Z" fill-rule="evenodd"/><text font-family="Cambria Math,Cambria Math_MSFontService,sans-serif" font-weight="400" font-size="32" transform="translate(563.653 394)">B</text><text font-family="Cambria Math,Cambria Math_MSFontService,sans-serif" font-weight="400" font-size="32" transform="translate(605.32 394)">≤</text><text font-family="Cambria Math,Cambria Math_MSFontService,sans-serif" font-weight="400" font-size="32" transform="translate(638.206 394)">P</text><path d="M690.169 369.561C693.21 370.363 695.546 372.095 697.177 374.757 698.807 377.418 699.622 380.629 699.622 384.389 699.622 388.16 698.809 391.371 697.184 394.022 695.559 396.673 693.221 398.4 690.169 399.202L689.794 397.999C692.2 397.197 693.989 395.613 695.161 393.249 696.333 390.884 696.919 387.879 696.919 384.233 696.919 380.712 696.335 377.788 695.169 375.46 694.002 373.132 692.195 371.567 689.747 370.764ZM668.639 369.561 669.061 370.764C666.623 371.567 664.818 373.132 663.647 375.46 662.475 377.788 661.889 380.712 661.889 384.233 661.889 387.879 662.475 390.884 663.647 393.249 664.818 395.613 666.607 397.197 669.014 397.999L668.639 399.202C665.587 398.4 663.248 396.673 661.623 394.022 659.998 391.371 659.186 388.16 659.186 384.389 659.186 380.629 660.001 377.418 661.631 374.757 663.261 372.095 665.597 370.363 668.639 369.561Z" fill-rule="evenodd"/><text font-family="Cambria Math,Cambria Math_MSFontService,sans-serif" font-weight="400" font-size="32" transform="translate(669.653 394)">B</text><text font-family="Calibri,Calibri_MSFontService,sans-serif" font-weight="700" font-size="27" transform="translate(876.397 537)">Note:</text><text font-family="Cambria Math,Cambria Math_MSFontService,sans-serif" font-weight="400" font-size="27" transform="translate(943.904 537)">1</text><text font-family="Cambria Math,Cambria Math_MSFontService,sans-serif" font-weight="400" font-size="27" transform="translate(958.737 537)"></text><text font-family="Calibri,Calibri_MSFontService,sans-serif" font-weight="400" font-size="27" transform="translate(964.57 537)">−</text><text font-family="Calibri,Calibri_MSFontService,sans-serif" font-weight="400" font-size="27" transform="translate(977.904 537)"></text><text font-family="Cambria Math,Cambria Math_MSFontService,sans-serif" font-weight="400" font-size="27" transform="translate(983.904 537)">P</text><path d="M1027.66 516.513C1030.23 517.19 1032.2 518.651 1033.57 520.897 1034.95 523.143 1035.64 525.852 1035.64 529.025 1035.64 532.206 1034.95 534.916 1033.58 537.152 1032.21 539.389 1030.24 540.846 1027.66 541.523L1027.34 540.508C1029.37 539.831 1030.88 538.495 1031.87 536.5 1032.86 534.505 1033.36 531.969 1033.36 528.893 1033.36 525.922 1032.86 523.455 1031.88 521.49 1030.89 519.526 1029.37 518.205 1027.3 517.529ZM1009.42 516.513 1009.78 517.529C1007.72 518.205 1006.2 519.526 1005.21 521.49 1004.22 523.455 1003.72 525.922 1003.72 528.893 1003.72 531.969 1004.22 534.505 1005.21 536.5 1006.2 538.495 1007.71 539.831 1009.74 540.508L1009.42 541.523C1006.84 540.846 1004.87 539.389 1003.5 537.152 1002.13 534.916 1001.44 532.206 1001.44 529.025 1001.44 525.852 1002.13 523.143 1003.51 520.897 1004.88 518.651 1006.85 517.19 1009.42 516.513Z" fill-rule="evenodd"/><text font-family="Cambria Math,Cambria Math_MSFontService,sans-serif" font-weight="400" font-size="27" transform="translate(1010.14 537)">A</text><text font-family="Cambria Math,Cambria Math_MSFontService,sans-serif" font-weight="400" font-size="27" transform="translate(1045.28 537)">=</text><text font-family="Cambria Math,Cambria Math_MSFontService,sans-serif" font-weight="400" font-size="27" transform="translate(1072.68 537)">P</text><path d="M1116.44 516.513C1119.01 517.19 1120.98 518.651 1122.35 520.897 1123.73 523.143 1124.42 525.852 1124.42 529.025 1124.42 532.206 1123.73 534.916 1122.36 537.152 1120.99 539.389 1119.02 540.846 1116.44 541.523L1116.12 540.508C1118.15 539.831 1119.66 538.495 1120.65 536.5 1121.64 534.505 1122.14 531.969 1122.14 528.893 1122.14 525.922 1121.64 523.455 1120.66 521.49 1119.67 519.526 1118.15 518.205 1116.08 517.529ZM1098.2 516.513 1098.56 517.529C1096.5 518.205 1094.98 519.526 1093.99 521.49 1093 523.455 1092.5 525.922 1092.5 528.893 1092.5 531.969 1093 534.505 1093.99 536.5 1094.98 538.495 1096.49 539.831 1098.52 540.508L1098.2 541.523C1095.62 540.846 1093.65 539.389 1092.28 537.152 1090.91 534.916 1090.22 532.206 1090.22 529.025 1090.22 525.852 1090.91 523.143 1092.29 520.897 1093.66 518.651 1095.63 517.19 1098.2 516.513Z" fill-rule="evenodd"/><text font-family="Cambria Math,Cambria Math_MSFontService,sans-serif" font-weight="400" font-size="27" transform="translate(1098.92 537)">A</text><path d="M15.3062-15.7808 0-15.7808 0-17.1782 15.3062-17.1782Z" transform="translate(1099.69 531)"/><text fill="#000000" fill-opacity="0" font-family="Arial,Arial_MSFontService,sans-serif" font-size="1.39746" y="-15.9554">ഥ</text><path d="M977 341.667C977 337.433 980.433 334 984.667 334L1025.33 334C1029.57 334 1033 337.433 1033 341.667L1033 372.333C1033 376.567 1029.57 380 1025.33 380L984.667 380C980.433 380 977 376.567 977 372.333Z" fill="#FFF2CC" fill-rule="evenodd"/><path d="M880 337.167C880 335.418 881.418 334 883.167 334L895.833 334C897.582 334 899 335.418 899 337.167L899 375.833C899 377.582 897.582 379 895.833 379L883.167 379C881.418 379 880 377.582 880 375.833Z" fill="#FFF2CC" fill-rule="evenodd"/><text font-family="Cambria Math,Cambria Math_MSFontService,sans-serif" font-weight="400" font-size="32" transform="translate(879.63 314)">P</text><text font-family="Cambria Math,Cambria Math_MSFontService,sans-serif" font-weight="400" font-size="32" transform="translate(897.797 314)">(</text><text font-family="Cambria Math,Cambria Math_MSFontService,sans-serif" font-weight="400" font-size="32" transform="translate(911.13 314)">A</text><text font-family="Cambria Math,Cambria Math_MSFontService,sans-serif" font-weight="400" font-size="32" transform="translate(931.13 314)">)</text><text font-family="Cambria Math,Cambria Math_MSFontService,sans-serif" font-weight="400" font-size="32" transform="translate(953.351 314)">≤</text><text font-family="Cambria Math,Cambria Math_MSFontService,sans-serif" font-weight="400" font-size="32" transform="translate(986.237 314)">P</text><path d="M1038.2 289.59C1041.24 290.392 1043.58 292.124 1045.21 294.785 1046.84 297.446 1047.65 300.657 1047.65 304.418 1047.65 308.189 1046.84 311.4 1045.22 314.051 1043.59 316.702 1041.25 318.428 1038.2 319.23L1037.82 318.027C1040.23 317.225 1042.02 315.642 1043.19 313.277 1044.36 310.913 1044.95 307.907 1044.95 304.262 1044.95 300.741 1044.37 297.816 1043.2 295.488 1042.03 293.16 1040.23 291.595 1037.78 290.793ZM1016.67 289.59 1017.09 290.793C1014.65 291.595 1012.85 293.16 1011.68 295.488 1010.51 297.816 1009.92 300.741 1009.92 304.262 1009.92 307.907 1010.51 310.913 1011.68 313.277 1012.85 315.642 1014.64 317.225 1017.04 318.027L1016.67 319.23C1013.62 318.428 1011.28 316.702 1009.65 314.051 1008.03 311.4 1007.22 308.189 1007.22 304.418 1007.22 300.657 1008.03 297.446 1009.66 294.785 1011.29 292.124 1013.63 290.392 1016.67 289.59Z" fill-rule="evenodd"/><text font-family="Cambria Math,Cambria Math_MSFontService,sans-serif" font-weight="400" font-size="32" transform="translate(1017.68 314)">B</text><text font-family="Calibri,Calibri_MSFontService,sans-serif" font-weight="400" font-size="32" transform="translate(881.771 366)">−</text><text font-family="Cambria Math,Cambria Math_MSFontService,sans-serif" font-weight="400" font-size="32" transform="translate(897.771 366)"></text><text font-family="Cambria Math,Cambria Math_MSFontService,sans-serif" font-weight="400" font-size="32" transform="translate(904.771 366)">P</text><path d="M957.233 342.47C960.274 343.273 962.61 345.004 964.241 347.666 965.871 350.327 966.686 353.538 966.686 357.299 966.686 361.069 965.873 364.28 964.248 366.931 962.623 369.582 960.285 371.309 957.233 372.111L956.858 370.908C959.264 370.106 961.053 368.523 962.225 366.158 963.397 363.793 963.983 360.788 963.983 357.142 963.983 353.621 963.399 350.697 962.233 348.369 961.066 346.041 959.259 344.476 956.811 343.674ZM935.203 342.47 935.625 343.674C933.187 344.476 931.382 346.041 930.211 348.369 929.039 350.697 928.453 353.621 928.453 357.142 928.453 360.788 929.039 363.793 930.211 366.158 931.382 368.523 933.172 370.106 935.578 370.908L935.203 372.111C932.151 371.309 929.812 369.582 928.187 366.931 926.562 364.28 925.75 361.069 925.75 357.299 925.75 353.538 926.565 350.327 928.195 347.666 929.825 345.004 932.161 343.273 935.203 342.47Z" fill-rule="evenodd"/><text font-family="Cambria Math,Cambria Math_MSFontService,sans-serif" font-weight="400" font-size="32" transform="translate(936.217 366)">A</text><text font-family="Cambria Math,Cambria Math_MSFontService,sans-serif" font-weight="400" font-size="32" transform="translate(978.384 366)">≥</text><text font-family="Calibri,Calibri_MSFontService,sans-serif" font-weight="400" font-size="32" transform="translate(1011.27 366)">−</text><text font-family="Cambria Math,Cambria Math_MSFontService,sans-serif" font-weight="400" font-size="32" transform="translate(1027.27 366)"></text><text font-family="Cambria Math,Cambria Math_MSFontService,sans-serif" font-weight="400" font-size="32" transform="translate(1034.27 366)">P</text><path d="M1086.23 342.47C1089.27 343.273 1091.61 345.004 1093.24 347.666 1094.87 350.327 1095.69 353.538 1095.69 357.299 1095.69 361.069 1094.87 364.28 1093.25 366.931 1091.62 369.582 1089.28 371.309 1086.23 372.111L1085.86 370.908C1088.26 370.106 1090.05 368.523 1091.22 366.158 1092.4 363.793 1092.98 360.788 1092.98 357.142 1092.98 353.621 1092.4 350.697 1091.23 348.369 1090.07 346.041 1088.26 344.476 1085.81 343.674ZM1064.7 342.47 1065.12 343.674C1062.69 344.476 1060.88 346.041 1059.71 348.369 1058.54 350.697 1057.95 353.621 1057.95 357.142 1057.95 360.788 1058.54 363.793 1059.71 366.158 1060.88 368.523 1062.67 370.106 1065.08 370.908L1064.7 372.111C1061.65 371.309 1059.31 369.582 1057.69 366.931 1056.06 364.28 1055.25 361.069 1055.25 357.299 1055.25 353.538 1056.06 350.327 1057.69 347.666 1059.33 345.004 1061.66 343.273 1064.7 342.47Z" fill-rule="evenodd"/><text font-family="Cambria Math,Cambria Math_MSFontService,sans-serif" font-weight="400" font-size="32" transform="translate(1065.72 366)">B</text><text font-family="Cambria Math,Cambria Math_MSFontService,sans-serif" font-weight="400" font-size="32" transform="translate(876.822 467)">P</text><path d="M929.284 443.251C932.326 444.053 934.662 445.785 936.292 448.446 937.922 451.107 938.737 454.318 938.737 458.079 938.737 461.85 937.925 465.061 936.3 467.712 934.675 470.363 932.336 472.089 929.284 472.891L928.909 471.688C931.315 470.886 933.104 469.303 934.276 466.938 935.448 464.574 936.034 461.568 936.034 457.923 936.034 454.402 935.451 451.477 934.284 449.149 933.117 446.821 931.31 445.256 928.862 444.454ZM907.254 443.251 907.676 444.454C905.238 445.256 903.434 446.821 902.262 449.149 901.09 451.477 900.504 454.402 900.504 457.923 900.504 461.568 901.09 464.574 902.262 466.938 903.434 469.303 905.223 470.886 907.629 471.688L907.254 472.891C904.202 472.089 901.863 470.363 900.238 467.712 898.613 465.061 897.801 461.85 897.801 458.079 897.801 454.318 898.616 451.107 900.246 448.446 901.876 445.785 904.212 444.053 907.254 443.251Z" fill-rule="evenodd"/><text font-family="Cambria Math,Cambria Math_MSFontService,sans-serif" font-weight="400" font-size="32" transform="translate(908.268 467)">A</text><path d="M18.1406-18.7031 0-18.7031 0-20.3594 18.1406-20.3594Z" transform="translate(909.202 461)"/><text fill="#000000" fill-opacity="0" font-family="Arial,Arial_MSFontService,sans-serif" font-size="1.65625" y="-18.9102">ഥ</text><text font-family="Cambria Math,Cambria Math_MSFontService,sans-serif" font-weight="400" font-size="32" transform="translate(950.435 467)">≥</text><text font-family="Cambria Math,Cambria Math_MSFontService,sans-serif" font-weight="400" font-size="32" transform="translate(981.602 467)">P</text><path d="M1033.56 443.251C1036.61 444.053 1038.94 445.785 1040.57 448.446 1042.2 451.107 1043.02 454.318 1043.02 458.079 1043.02 461.85 1042.2 465.061 1040.58 467.712 1038.95 470.363 1036.62 472.089 1033.56 472.891L1033.19 471.688C1035.6 470.886 1037.38 469.303 1038.56 466.938 1039.73 464.574 1040.31 461.568 1040.31 457.923 1040.31 454.402 1039.73 451.477 1038.56 449.149 1037.4 446.821 1035.59 445.256 1033.14 444.454ZM1012.03 443.251 1012.46 444.454C1010.02 445.256 1008.21 446.821 1007.04 449.149 1005.87 451.477 1005.28 454.402 1005.28 457.923 1005.28 461.568 1005.87 464.574 1007.04 466.938 1008.21 469.303 1010 470.886 1012.41 471.688L1012.03 472.891C1008.98 472.089 1006.64 470.363 1005.02 467.712 1003.39 465.061 1002.58 461.85 1002.58 458.079 1002.58 454.318 1003.4 451.107 1005.03 448.446 1006.66 445.785 1008.99 444.053 1012.03 443.251Z" fill-rule="evenodd"/><text font-family="Cambria Math,Cambria Math_MSFontService,sans-serif" font-weight="400" font-size="32" transform="translate(1013.05 467)">B</text><path d="M18.1406-18.7031 0-18.7031 0-20.3594 18.1406-20.3594Z" transform="translate(1013.73 461)"/><text fill="#000000" fill-opacity="0" font-family="Arial,Arial_MSFontService,sans-serif" font-size="1.65625" y="-18.9102">ഥ</text><text font-family="Cambria Math,Cambria Math_MSFontService,sans-serif" font-weight="400" font-size="32" transform="translate(875.58 419)">1</text><text font-family="Calibri,Calibri_MSFontService,sans-serif" font-weight="400" font-size="32" transform="translate(893.246 419)">−</text><text font-family="Calibri,Calibri_MSFontService,sans-serif" font-weight="400" font-size="32" transform="translate(909.246 419)"></text><text font-family="Cambria Math,Cambria Math_MSFontService,sans-serif" font-weight="400" font-size="32" transform="translate(916.413 419)">P</text><path d="M968.875 395.351C971.917 396.153 974.253 397.885 975.883 400.546 977.513 403.208 978.328 406.419 978.328 410.179 978.328 413.95 977.516 417.161 975.891 419.812 974.266 422.463 971.927 424.19 968.875 424.992L968.5 423.789C970.907 422.987 972.696 421.403 973.868 419.039 975.039 416.674 975.625 413.669 975.625 410.023 975.625 406.502 975.042 403.578 973.875 401.25 972.709 398.921 970.901 397.356 968.453 396.554ZM946.845 395.351 947.267 396.554C944.83 397.356 943.025 398.921 941.853 401.25 940.681 403.578 940.095 406.502 940.095 410.023 940.095 413.669 940.681 416.674 941.853 419.039 943.025 421.403 944.814 422.987 947.22 423.789L946.845 424.992C943.793 424.19 941.455 422.463 939.83 419.812 938.205 417.161 937.392 413.95 937.392 410.179 937.392 406.419 938.207 403.208 939.838 400.546 941.468 397.885 943.804 396.153 946.845 395.351Z" fill-rule="evenodd"/><text font-family="Cambria Math,Cambria Math_MSFontService,sans-serif" font-weight="400" font-size="32" transform="translate(947.86 419)">A</text><text font-family="Cambria Math,Cambria Math_MSFontService,sans-serif" font-weight="400" font-size="32" transform="translate(990.026 419)">≥</text><text font-family="Cambria Math,Cambria Math_MSFontService,sans-serif" font-weight="400" font-size="32" transform="translate(1022.91 419)">1</text><text font-family="Cambria Math,Cambria Math_MSFontService,sans-serif" font-weight="400" font-size="32" transform="translate(1040.58 419)"></text><text font-family="Calibri,Calibri_MSFontService,sans-serif" font-weight="400" font-size="32" transform="translate(1047.58 419)">−</text><text font-family="Calibri,Calibri_MSFontService,sans-serif" font-weight="400" font-size="32" transform="translate(1063.58 419)"></text><text font-family="Cambria Math,Cambria Math_MSFontService,sans-serif" font-weight="400" font-size="32" transform="translate(1070.75 419)">P</text><path d="M1122.71 395.351C1125.75 396.153 1128.09 397.885 1129.72 400.546 1131.35 403.208 1132.16 406.419 1132.16 410.179 1132.16 413.95 1131.35 417.161 1129.72 419.812 1128.1 422.463 1125.76 424.19 1122.71 424.992L1122.33 423.789C1124.74 422.987 1126.53 421.403 1127.7 419.039 1128.87 416.674 1129.46 413.669 1129.46 410.023 1129.46 406.502 1128.88 403.578 1127.71 401.25 1126.54 398.921 1124.73 397.356 1122.29 396.554ZM1101.18 395.351 1101.6 396.554C1099.16 397.356 1097.36 398.921 1096.19 401.25 1095.01 403.578 1094.43 406.502 1094.43 410.023 1094.43 413.669 1095.01 416.674 1096.19 419.039 1097.36 421.403 1099.15 422.987 1101.55 423.789L1101.18 424.992C1098.13 424.19 1095.79 422.463 1094.16 419.812 1092.54 417.161 1091.73 413.95 1091.73 410.179 1091.73 406.419 1092.54 403.208 1094.17 400.546 1095.8 397.885 1098.14 396.153 1101.18 395.351Z" fill-rule="evenodd"/><text font-family="Cambria Math,Cambria Math_MSFontService,sans-serif" font-weight="400" font-size="32" transform="translate(1102.19 419)">B</text></g></svg>