<?xml version="1.0" encoding="UTF-8" standalone="no"?>
<svg
   width="1280"
   height="460"
   overflow="hidden"
   version="1.1"
   id="svg231"
   sodipodi:docname="algebra-inequality_rules.svg"
   inkscape:version="1.2 (dc2aedaf03, 2022-05-15)"
   xmlns:inkscape="http://www.inkscape.org/namespaces/inkscape"
   xmlns:sodipodi="http://sodipodi.sourceforge.net/DTD/sodipodi-0.dtd"
   xmlns="http://www.w3.org/2000/svg"
   xmlns:svg="http://www.w3.org/2000/svg">
  <sodipodi:namedview
     id="namedview233"
     pagecolor="#ffffff"
     bordercolor="#000000"
     borderopacity="0.25"
     inkscape:showpageshadow="2"
     inkscape:pageopacity="0.0"
     inkscape:pagecheckerboard="0"
     inkscape:deskcolor="#d1d1d1"
     showgrid="false"
     inkscape:zoom="0.92709556"
     inkscape:cx="631.54223"
     inkscape:cy="-99.234647"
     inkscape:window-width="2560"
     inkscape:window-height="1494"
     inkscape:window-x="-11"
     inkscape:window-y="-11"
     inkscape:window-maximized="1"
     inkscape:current-layer="svg231" />
  <defs
     id="defs5">
    <clipPath
       id="clip0">
      <rect
         x="0"
         y="0"
         width="1280"
         height="720"
         id="rect2" />
    </clipPath>
  </defs>
  <g
     clip-path="url(#clip0)"
     id="g229"
     transform="translate(-1.0786375,-129.4365)">
    <rect
       x="0"
       y="0"
       width="1280"
       height="720"
       fill="#ffffff"
       id="rect7" />
    <path
       d="m 861,442.667 c 0,-4.234 3.433,-7.667 7.667,-7.667 h 168.663 c 4.24,0 7.67,3.433 7.67,7.667 v 30.666 c 0,4.234 -3.43,7.667 -7.67,7.667 H 868.667 C 864.433,481 861,477.567 861,473.333 Z"
       fill="#fff2cc"
       fill-rule="evenodd"
       id="path9" />
    <path
       d="m 932,392.667 c 0,-4.234 3.433,-7.667 7.667,-7.667 h 43.666 c 4.234,0 7.667,3.433 7.667,7.667 v 30.666 c 0,4.234 -3.433,7.667 -7.667,7.667 H 939.667 C 935.433,431 932,427.567 932,423.333 Z"
       fill="#fff2cc"
       fill-rule="evenodd"
       id="path11" />
    <path
       d="m 846,388.167 c 0,-1.749 1.418,-3.167 3.167,-3.167 h 12.666 c 1.749,0 3.167,1.418 3.167,3.167 v 39.666 c 0,1.749 -1.418,3.167 -3.167,3.167 H 849.167 C 847.418,431 846,429.582 846,427.833 Z"
       fill="#fff2cc"
       fill-rule="evenodd"
       id="path13" />
    <path
       d="m 477,391.667 c 0,-4.234 3.433,-7.667 7.667,-7.667 h 84.666 c 4.234,0 7.667,3.433 7.667,7.667 v 30.666 c 0,4.234 -3.433,7.667 -7.667,7.667 H 484.667 C 480.433,430 477,426.567 477,422.333 Z"
       fill="#fff2cc"
       fill-rule="evenodd"
       id="path15" />
    <path
       d="m 614,391.667 c 0,-4.234 3.433,-7.667 7.667,-7.667 h 53.666 c 4.234,0 7.667,3.433 7.667,7.667 v 30.666 c 0,4.234 -3.433,7.667 -7.667,7.667 H 621.667 C 617.433,430 614,426.567 614,422.333 Z"
       fill="#fff2cc"
       fill-rule="evenodd"
       id="path17" />
    <path
       d="m 142,448.333 c 0,-3.497 2.836,-6.333 6.333,-6.333 h 25.334 c 3.497,0 6.333,2.836 6.333,6.333 v 33.334 c 0,3.497 -2.836,6.333 -6.333,6.333 H 148.333 C 144.836,488 142,485.164 142,481.667 Z"
       fill="#fff2cc"
       fill-rule="evenodd"
       id="path19" />
    <text
       font-family="'Cambria Math', 'Cambria Math_MSFontService', sans-serif"
       font-weight="400"
       font-size="32px"
       transform="translate(29.6886,475)"
       id="text21">1</text>
    <text
       font-family="'Cambria Math', 'Cambria Math_MSFontService', sans-serif"
       font-weight="400"
       font-size="32px"
       transform="translate(47.3553,475)"
       id="text23" />
    <text
       font-family="Calibri, Calibri_MSFontService, sans-serif"
       font-weight="400"
       font-size="32px"
       transform="translate(54.3553,475)"
       id="text25">−</text>
    <text
       font-family="'Cambria Math', 'Cambria Math_MSFontService', sans-serif"
       font-weight="400"
       font-size="32px"
       transform="translate(70.3553,475)"
       id="text27" />
    <text
       font-family="'Cambria Math', 'Cambria Math_MSFontService', sans-serif"
       font-weight="400"
       font-size="32px"
       transform="translate(77.3553,475)"
       id="text29">P</text>
    <text
       font-family="'Cambria Math', 'Cambria Math_MSFontService', sans-serif"
       font-weight="400"
       font-size="32px"
       transform="translate(95.5219,475)"
       id="text31">(</text>
    <text
       font-family="'Cambria Math', 'Cambria Math_MSFontService', sans-serif"
       font-weight="400"
       font-size="32px"
       transform="translate(108.855,475)"
       id="text33">A</text>
    <text
       font-family="'Cambria Math', 'Cambria Math_MSFontService', sans-serif"
       font-weight="400"
       font-size="32px"
       transform="translate(128.855,475)"
       id="text35">)</text>
    <text
       font-family="'Cambria Math', 'Cambria Math_MSFontService', sans-serif"
       font-weight="400"
       font-size="32px"
       transform="translate(151.075,475)"
       id="text37">≥</text>
    <text
       font-family="'Cambria Math', 'Cambria Math_MSFontService', sans-serif"
       font-weight="400"
       font-size="32px"
       transform="translate(183.962,475)"
       id="text39">0</text>
    <path
       d="M 81,398.667 C 81,394.433 84.4325,391 88.6668,391 H 202.333 c 4.234,0 7.667,3.433 7.667,7.667 v 30.666 c 0,4.234 -3.433,7.667 -7.667,7.667 H 88.6668 C 84.4325,437 81,433.567 81,429.333 Z"
       fill="#fff2cc"
       fill-rule="evenodd"
       id="path41" />
    <text
       font-family="'Cambria Math', 'Cambria Math_MSFontService', sans-serif"
       font-weight="400"
       font-size="32px"
       transform="translate(28.9288,423)"
       id="text43">0</text>
    <text
       font-family="'Cambria Math', 'Cambria Math_MSFontService', sans-serif"
       font-weight="400"
       font-size="32px"
       transform="translate(55.4822,423)"
       id="text45">≤</text>
    <text
       font-family="'Cambria Math', 'Cambria Math_MSFontService', sans-serif"
       font-weight="400"
       font-size="32px"
       transform="translate(88.3688,423)"
       id="text47">1</text>
    <text
       font-family="'Cambria Math', 'Cambria Math_MSFontService', sans-serif"
       font-weight="400"
       font-size="32px"
       transform="translate(106.035,423)"
       id="text49" />
    <text
       font-family="Calibri, Calibri_MSFontService, sans-serif"
       font-weight="400"
       font-size="32px"
       transform="translate(113.035,423)"
       id="text51">−</text>
    <text
       font-family="'Cambria Math', 'Cambria Math_MSFontService', sans-serif"
       font-weight="400"
       font-size="32px"
       transform="translate(129.035,423)"
       id="text53" />
    <text
       font-family="'Cambria Math', 'Cambria Math_MSFontService', sans-serif"
       font-weight="400"
       font-size="32px"
       transform="translate(136.035,423)"
       id="text55">P</text>
    <text
       font-family="'Cambria Math', 'Cambria Math_MSFontService', sans-serif"
       font-weight="400"
       font-size="32px"
       transform="translate(154.202,423)"
       id="text57">(</text>
    <text
       font-family="'Cambria Math', 'Cambria Math_MSFontService', sans-serif"
       font-weight="400"
       font-size="32px"
       transform="translate(167.535,423)"
       id="text59">A</text>
    <text
       font-family="'Cambria Math', 'Cambria Math_MSFontService', sans-serif"
       font-weight="400"
       font-size="32px"
       transform="translate(187.535,423)"
       id="text61">)</text>
    <text
       font-family="'Cambria Math', 'Cambria Math_MSFontService', sans-serif"
       font-weight="400"
       font-size="32px"
       transform="translate(30.4661,373)"
       id="text63">P</text>
    <text
       font-family="'Cambria Math', 'Cambria Math_MSFontService', sans-serif"
       font-weight="400"
       font-size="32px"
       transform="translate(48.6328,373)"
       id="text65">(</text>
    <text
       font-family="'Cambria Math', 'Cambria Math_MSFontService', sans-serif"
       font-weight="400"
       font-size="32px"
       transform="translate(61.9661,373)"
       id="text67">A</text>
    <text
       font-family="'Cambria Math', 'Cambria Math_MSFontService', sans-serif"
       font-weight="400"
       font-size="32px"
       transform="translate(81.9661,373)"
       id="text69">)</text>
    <text
       font-family="'Cambria Math', 'Cambria Math_MSFontService', sans-serif"
       font-weight="400"
       font-size="32px"
       transform="translate(104.186,373)"
       id="text71">≤</text>
    <text
       font-family="'Cambria Math', 'Cambria Math_MSFontService', sans-serif"
       font-weight="400"
       font-size="32px"
       transform="translate(137.073,373)"
       id="text73">1</text>
    <text
       font-family="Calibri, Calibri_MSFontService, sans-serif"
       font-weight="700"
       font-size="32px"
       transform="translate(29.6886,191)"
       id="text75">Rule 1:</text>
    <text
       font-family="Calibri, Calibri_MSFontService, sans-serif"
       font-weight="400"
       font-size="32px"
       transform="translate(128.189,191)"
       id="text77">adding or</text>
    <text
       font-family="Calibri, Calibri_MSFontService, sans-serif"
       font-weight="400"
       font-size="32px"
       transform="translate(29.6886,229)"
       id="text79">subtracting from both</text>
    <text
       font-family="Calibri, Calibri_MSFontService, sans-serif"
       font-weight="400"
       font-size="32px"
       transform="translate(29.6886,268)"
       id="text81">sides does</text>
    <text
       font-family="Calibri, Calibri_MSFontService, sans-serif"
       font-weight="400"
       font-size="32px"
       transform="translate(171.355,268)"
       id="text83">not</text>
    <text
       font-family="Calibri, Calibri_MSFontService, sans-serif"
       font-weight="400"
       font-size="32px"
       transform="translate(222.855,268)"
       id="text85">change</text>
    <path
       d="m 171.689,271.683 h 51 v 2 h -51 z"
       fill-rule="evenodd"
       id="path87" />
    <text
       font-family="Calibri, Calibri_MSFontService, sans-serif"
       font-weight="400"
       font-size="32px"
       transform="translate(29.6886,306)"
       id="text89">the inequality symbol</text>
    <text
       font-family="Calibri, Calibri_MSFontService, sans-serif"
       font-weight="700"
       font-size="32px"
       transform="translate(407.683,191)"
       id="text91">Rule 2:</text>
    <text
       font-family="Calibri, Calibri_MSFontService, sans-serif"
       font-weight="400"
       font-size="32px"
       transform="translate(506.183,191)"
       id="text93">multiplying or dividing</text>
    <text
       font-family="Calibri, Calibri_MSFontService, sans-serif"
       font-weight="400"
       font-size="32px"
       transform="translate(407.683,229)"
       id="text95">by a positive number from</text>
    <text
       font-family="Calibri, Calibri_MSFontService, sans-serif"
       font-weight="400"
       font-size="32px"
       transform="translate(407.683,268)"
       id="text97">both sides does</text>
    <text
       font-family="Calibri, Calibri_MSFontService, sans-serif"
       font-weight="400"
       font-size="32px"
       transform="translate(617.683,268)"
       id="text99">not</text>
    <text
       font-family="Calibri, Calibri_MSFontService, sans-serif"
       font-weight="400"
       font-size="32px"
       transform="translate(669.183,268)"
       id="text101">change</text>
    <path
       d="m 617.683,272.231 h 52 v 2 h -52 z"
       fill-rule="evenodd"
       id="path103" />
    <text
       font-family="Calibri, Calibri_MSFontService, sans-serif"
       font-weight="400"
       font-size="32px"
       transform="translate(407.683,306)"
       id="text105">the inequality symbol</text>
    <text
       font-family="Calibri, Calibri_MSFontService, sans-serif"
       font-weight="700"
       font-size="32px"
       transform="translate(868.837,191)"
       id="text107">Rule 3:</text>
    <text
       font-family="Calibri, Calibri_MSFontService, sans-serif"
       font-weight="400"
       font-size="32px"
       transform="translate(967.337,191)"
       id="text109">multiplying or dividing</text>
    <text
       font-family="Calibri, Calibri_MSFontService, sans-serif"
       font-weight="400"
       font-size="32px"
       transform="translate(868.837,229)"
       id="text111">by a negative number from</text>
    <text
       font-family="Calibri, Calibri_MSFontService, sans-serif"
       font-weight="400"
       font-size="32px"
       transform="translate(868.837,268)"
       id="text113">both sides reverses the</text>
    <text
       font-family="Calibri, Calibri_MSFontService, sans-serif"
       font-weight="400"
       font-size="32px"
       transform="translate(868.837,306)"
       id="text115">inequality symbol</text>
    <text
       font-family="'Cambria Math', 'Cambria Math_MSFontService', sans-serif"
       font-weight="400"
       font-size="32px"
       transform="translate(407.683,372)"
       id="text117">P</text>
    <text
       font-family="'Cambria Math', 'Cambria Math_MSFontService', sans-serif"
       font-weight="400"
       font-size="32px"
       transform="translate(425.85,372)"
       id="text119">(</text>
    <text
       font-family="'Cambria Math', 'Cambria Math_MSFontService', sans-serif"
       font-weight="400"
       font-size="32px"
       transform="translate(439.183,372)"
       id="text121">A</text>
    <text
       font-family="'Cambria Math', 'Cambria Math_MSFontService', sans-serif"
       font-weight="400"
       font-size="32px"
       transform="translate(459.183,372)"
       id="text123">)</text>
    <text
       font-family="'Cambria Math', 'Cambria Math_MSFontService', sans-serif"
       font-weight="400"
       font-size="32px"
       transform="translate(481.403,372)"
       id="text125">≤</text>
    <text
       font-family="'Cambria Math', 'Cambria Math_MSFontService', sans-serif"
       font-weight="400"
       font-size="32px"
       transform="translate(514.29,372)"
       id="text127">1</text>
    <text
       font-family="'Cambria Math', 'Cambria Math_MSFontService', sans-serif"
       font-weight="400"
       font-size="32px"
       transform="translate(408.09,418)"
       id="text129">P</text>
    <path
       d="m 460.552,394.07 c 3.042,0.802 5.378,2.534 7.008,5.195 1.63,2.662 2.445,5.873 2.445,9.633 0,3.771 -0.812,6.982 -2.437,9.633 -1.625,2.651 -3.964,4.378 -7.016,5.18 l -0.375,-1.203 c 2.407,-0.803 4.196,-2.386 5.367,-4.75 1.172,-2.365 1.758,-5.37 1.758,-9.016 0,-3.521 -0.583,-6.445 -1.75,-8.774 -1.166,-2.328 -2.974,-3.893 -5.422,-4.695 z m -22.03,0 0.422,1.203 c -2.437,0.802 -4.242,2.367 -5.414,4.695 -1.172,2.329 -1.758,5.253 -1.758,8.774 0,3.646 0.586,6.651 1.758,9.016 1.172,2.364 2.961,3.947 5.367,4.75 l -0.375,1.203 c -3.052,-0.802 -5.39,-2.529 -7.015,-5.18 -1.625,-2.651 -2.438,-5.862 -2.438,-9.633 0,-3.76 0.815,-6.971 2.445,-9.633 1.631,-2.661 3.967,-4.393 7.008,-5.195 z"
       fill-rule="evenodd"
       id="path131" />
    <text
       font-family="'Cambria Math', 'Cambria Math_MSFontService', sans-serif"
       font-weight="400"
       font-size="32px"
       transform="translate(439.537,418)"
       id="text133">A</text>
    <text
       font-family="'Cambria Math', 'Cambria Math_MSFontService', sans-serif"
       font-weight="400"
       font-size="32px"
       transform="translate(479.93,418)"
       id="text135">×</text>
    <text
       font-family="'Cambria Math', 'Cambria Math_MSFontService', sans-serif"
       font-weight="400"
       font-size="32px"
       transform="translate(509.877,418)"
       id="text137">P</text>
    <path
       d="m 561.839,394.07 c 3.042,0.802 5.378,2.534 7.008,5.195 1.63,2.662 2.445,5.873 2.445,9.633 0,3.771 -0.812,6.982 -2.437,9.633 -1.625,2.651 -3.964,4.378 -7.016,5.18 l -0.375,-1.203 c 2.406,-0.803 4.195,-2.386 5.367,-4.75 1.172,-2.365 1.758,-5.37 1.758,-9.016 0,-3.521 -0.583,-6.445 -1.75,-8.774 -1.167,-2.328 -2.974,-3.893 -5.422,-4.695 z m -21.53,0 0.422,1.203 c -2.438,0.802 -4.242,2.367 -5.414,4.695 -1.172,2.329 -1.758,5.253 -1.758,8.774 0,3.646 0.586,6.651 1.758,9.016 1.172,2.364 2.961,3.947 5.367,4.75 l -0.375,1.203 c -3.052,-0.802 -5.391,-2.529 -7.016,-5.18 -1.625,-2.651 -2.437,-5.862 -2.437,-9.633 0,-3.76 0.815,-6.971 2.445,-9.633 1.63,-2.661 3.966,-4.393 7.008,-5.195 z"
       fill-rule="evenodd"
       id="path139" />
    <text
       font-family="'Cambria Math', 'Cambria Math_MSFontService', sans-serif"
       font-weight="400"
       font-size="32px"
       transform="translate(541.323,418)"
       id="text141">B</text>
    <text
       font-family="'Cambria Math', 'Cambria Math_MSFontService', sans-serif"
       font-weight="400"
       font-size="32px"
       transform="translate(582.99,418)"
       id="text143">≤</text>
    <text
       font-family="'Cambria Math', 'Cambria Math_MSFontService', sans-serif"
       font-weight="400"
       font-size="32px"
       transform="translate(615.877,418)"
       id="text145">P</text>
    <path
       d="m 667.839,394.07 c 3.042,0.802 5.378,2.534 7.008,5.195 1.63,2.662 2.445,5.873 2.445,9.633 0,3.771 -0.812,6.982 -2.437,9.633 -1.625,2.651 -3.964,4.378 -7.016,5.18 l -0.375,-1.203 c 2.406,-0.803 4.195,-2.386 5.367,-4.75 1.172,-2.365 1.758,-5.37 1.758,-9.016 0,-3.521 -0.583,-6.445 -1.75,-8.774 -1.167,-2.328 -2.974,-3.893 -5.422,-4.695 z m -21.53,0 0.422,1.203 c -2.438,0.802 -4.242,2.367 -5.414,4.695 -1.172,2.329 -1.758,5.253 -1.758,8.774 0,3.646 0.586,6.651 1.758,9.016 1.172,2.364 2.961,3.947 5.367,4.75 l -0.375,1.203 c -3.052,-0.802 -5.391,-2.529 -7.016,-5.18 -1.625,-2.651 -2.437,-5.862 -2.437,-9.633 0,-3.76 0.815,-6.971 2.445,-9.633 1.63,-2.661 3.966,-4.393 7.008,-5.195 z"
       fill-rule="evenodd"
       id="path147" />
    <text
       font-family="'Cambria Math', 'Cambria Math_MSFontService', sans-serif"
       font-weight="400"
       font-size="32px"
       transform="translate(647.323,418)"
       id="text149">B</text>
    <text
       font-family="Calibri, Calibri_MSFontService, sans-serif"
       font-weight="700"
       font-size="32px"
       transform="translate(868.837,554)"
       id="text151">Note:</text>
    <text
       font-family="Calibri, Calibri_MSFontService, sans-serif"
       font-weight="400"
       font-size="32px"
       transform="translate(949.944,554)"
       id="text153">−</text>
    <text
       font-family="'Cambria Math', 'Cambria Math_MSFontService', sans-serif"
       font-weight="400"
       font-size="32px"
       transform="translate(965.944,554)"
       id="text155">P</text>
    <path
       d="m 1018.41,529.6 c 3.04,0.802 5.37,2.534 7,5.195 1.63,2.661 2.45,5.872 2.45,9.633 0,3.771 -0.81,6.982 -2.44,9.633 -1.62,2.651 -3.96,4.377 -7.01,5.179 l -0.38,-1.203 c 2.41,-0.802 4.2,-2.385 5.37,-4.75 1.17,-2.364 1.76,-5.37 1.76,-9.015 0,-3.521 -0.59,-6.446 -1.75,-8.774 -1.17,-2.328 -2.98,-3.893 -5.43,-4.695 z m -22.034,0 0.422,1.203 c -2.438,0.802 -4.242,2.367 -5.414,4.695 -1.172,2.328 -1.758,5.253 -1.758,8.774 0,3.645 0.586,6.651 1.758,9.015 1.172,2.365 2.961,3.948 5.367,4.75 l -0.375,1.203 c -3.052,-0.802 -5.391,-2.528 -7.016,-5.179 -1.625,-2.651 -2.437,-5.862 -2.437,-9.633 0,-3.761 0.815,-6.972 2.445,-9.633 1.63,-2.661 3.966,-4.393 7.008,-5.195 z"
       fill-rule="evenodd"
       id="path157" />
    <text
       font-family="'Cambria Math', 'Cambria Math_MSFontService', sans-serif"
       font-weight="400"
       font-size="32px"
       transform="translate(997.39,554)"
       id="text159">A</text>
    <text
       font-family="'Cambria Math', 'Cambria Math_MSFontService', sans-serif"
       font-weight="400"
       font-size="32px"
       transform="translate(1039.56,554)"
       id="text161">=</text>
    <text
       font-family="'Cambria Math', 'Cambria Math_MSFontService', sans-serif"
       font-weight="400"
       font-size="32px"
       transform="translate(1072.28,554)"
       id="text163">P</text>
    <path
       d="m 1124.74,529.6 c 3.04,0.802 5.38,2.534 7.01,5.195 1.63,2.661 2.44,5.872 2.44,9.633 0,3.771 -0.81,6.982 -2.44,9.633 -1.62,2.651 -3.96,4.377 -7.01,5.179 l -0.38,-1.203 c 2.41,-0.802 4.2,-2.385 5.37,-4.75 1.17,-2.364 1.76,-5.37 1.76,-9.015 0,-3.521 -0.58,-6.446 -1.75,-8.774 -1.17,-2.328 -2.97,-3.893 -5.42,-4.695 z m -22.03,0 0.42,1.203 c -2.44,0.802 -4.24,2.367 -5.41,4.695 -1.17,2.328 -1.76,5.253 -1.76,8.774 0,3.645 0.59,6.651 1.76,9.015 1.17,2.365 2.96,3.948 5.36,4.75 l -0.37,1.203 c -3.05,-0.802 -5.39,-2.528 -7.02,-5.179 -1.62,-2.651 -2.43,-5.862 -2.43,-9.633 0,-3.761 0.81,-6.972 2.44,-9.633 1.63,-2.661 3.97,-4.393 7.01,-5.195 z"
       fill-rule="evenodd"
       id="path165" />
    <text
       font-family="'Cambria Math', 'Cambria Math_MSFontService', sans-serif"
       font-weight="400"
       font-size="32px"
       transform="translate(1103.72,554)"
       id="text167">A</text>
    <path
       d="M 18.1406,-18.7031 H 0 v -1.6563 h 18.1406 z"
       transform="translate(1104.66,547)"
       id="path169" />
    <text
       fill="#000000"
       fill-opacity="0"
       font-family="Arial, Arial_MSFontService, sans-serif"
       font-size="1.65625px"
       y="-18.9102"
       id="text171">ഥ</text>
    <text
       font-family="'Cambria Math', 'Cambria Math_MSFontService', sans-serif"
       font-weight="400"
       font-size="32px"
       transform="translate(867.677,373)"
       id="text173">P</text>
    <text
       font-family="'Cambria Math', 'Cambria Math_MSFontService', sans-serif"
       font-weight="400"
       font-size="32px"
       transform="translate(885.843,373)"
       id="text175">(</text>
    <text
       font-family="'Cambria Math', 'Cambria Math_MSFontService', sans-serif"
       font-weight="400"
       font-size="32px"
       transform="translate(899.177,373)"
       id="text177">A</text>
    <text
       font-family="'Cambria Math', 'Cambria Math_MSFontService', sans-serif"
       font-weight="400"
       font-size="32px"
       transform="translate(919.177,373)"
       id="text179">)</text>
    <text
       font-family="'Cambria Math', 'Cambria Math_MSFontService', sans-serif"
       font-weight="400"
       font-size="32px"
       transform="translate(941.397,373)"
       id="text181">≤</text>
    <text
       font-family="'Cambria Math', 'Cambria Math_MSFontService', sans-serif"
       font-weight="400"
       font-size="32px"
       transform="translate(974.283,373)"
       id="text183">P</text>
    <path
       d="m 1026.25,348.711 c 3.04,0.802 5.37,2.534 7,5.195 1.63,2.661 2.45,5.872 2.45,9.633 0,3.771 -0.81,6.982 -2.44,9.633 -1.62,2.651 -3.96,4.377 -7.01,5.179 l -0.38,-1.203 c 2.41,-0.802 4.2,-2.385 5.37,-4.75 1.17,-2.364 1.76,-5.37 1.76,-9.015 0,-3.521 -0.59,-6.446 -1.75,-8.774 -1.17,-2.328 -2.98,-3.893 -5.43,-4.695 z m -21.53,0 0.42,1.203 c -2.44,0.802 -4.24,2.367 -5.417,4.695 -1.171,2.328 -1.757,5.253 -1.757,8.774 0,3.645 0.586,6.651 1.757,9.015 1.177,2.365 2.957,3.948 5.367,4.75 l -0.37,1.203 c -3.06,-0.802 -5.395,-2.528 -7.02,-5.179 -1.625,-2.651 -2.438,-5.862 -2.438,-9.633 0,-3.761 0.816,-6.972 2.446,-9.633 1.63,-2.661 3.962,-4.393 7.012,-5.195 z"
       fill-rule="evenodd"
       id="path185" />
    <text
       font-family="'Cambria Math', 'Cambria Math_MSFontService', sans-serif"
       font-weight="400"
       font-size="32px"
       transform="translate(1005.73,373)"
       id="text187">B</text>
    <text
       font-family="Calibri, Calibri_MSFontService, sans-serif"
       font-weight="400"
       font-size="32px"
       transform="translate(850.971,417)"
       id="text189">−</text>
    <text
       font-family="'Cambria Math', 'Cambria Math_MSFontService', sans-serif"
       font-weight="400"
       font-size="32px"
       transform="translate(866.971,417)"
       id="text191">P</text>
    <path
       d="m 919.433,393.522 c 3.042,0.802 5.378,2.533 7.008,5.195 1.63,2.661 2.445,5.872 2.445,9.633 0,3.771 -0.812,6.981 -2.437,9.632 -1.625,2.652 -3.964,4.378 -7.016,5.18 l -0.375,-1.203 c 2.407,-0.802 4.196,-2.385 5.367,-4.75 1.172,-2.365 1.758,-5.37 1.758,-9.016 0,-3.52 -0.583,-6.445 -1.75,-8.773 -1.166,-2.328 -2.974,-3.893 -5.422,-4.695 z m -22.03,0 0.422,1.203 c -2.437,0.802 -4.242,2.367 -5.414,4.695 -1.172,2.328 -1.758,5.253 -1.758,8.773 0,3.646 0.586,6.651 1.758,9.016 1.172,2.365 2.961,3.948 5.367,4.75 l -0.375,1.203 c -3.052,-0.802 -5.39,-2.528 -7.015,-5.18 -1.625,-2.651 -2.438,-5.861 -2.438,-9.632 0,-3.761 0.815,-6.972 2.446,-9.633 1.63,-2.662 3.966,-4.393 7.007,-5.195 z"
       fill-rule="evenodd"
       id="path193" />
    <text
       font-family="'Cambria Math', 'Cambria Math_MSFontService', sans-serif"
       font-weight="400"
       font-size="32px"
       transform="translate(898.418,417)"
       id="text195">A</text>
    <text
       font-family="'Cambria Math', 'Cambria Math_MSFontService', sans-serif"
       font-weight="400"
       font-size="32px"
       transform="translate(940.584,417)"
       id="text197">≥</text>
    <text
       font-family="Calibri, Calibri_MSFontService, sans-serif"
       font-weight="400"
       font-size="32px"
       transform="translate(973.471,417)"
       id="text199">−</text>
    <text
       font-family="'Cambria Math', 'Cambria Math_MSFontService', sans-serif"
       font-weight="400"
       font-size="32px"
       transform="translate(989.471,417)"
       id="text201">P</text>
    <path
       d="m 1041.43,393.522 c 3.04,0.802 5.38,2.533 7.01,5.195 1.63,2.661 2.45,5.872 2.45,9.633 0,3.771 -0.82,6.981 -2.44,9.632 -1.63,2.652 -3.96,4.378 -7.02,5.18 l -0.37,-1.203 c 2.4,-0.802 4.19,-2.385 5.37,-4.75 1.17,-2.365 1.75,-5.37 1.75,-9.016 0,-3.52 -0.58,-6.445 -1.75,-8.773 -1.16,-2.328 -2.97,-3.893 -5.42,-4.695 z m -21.53,0 0.43,1.203 c -2.44,0.802 -4.25,2.367 -5.42,4.695 -1.17,2.328 -1.76,5.253 -1.76,8.773 0,3.646 0.59,6.651 1.76,9.016 1.17,2.365 2.96,3.948 5.37,4.75 l -0.38,1.203 c -3.05,-0.802 -5.39,-2.528 -7.01,-5.18 -1.63,-2.651 -2.44,-5.861 -2.44,-9.632 0,-3.761 0.82,-6.972 2.45,-9.633 1.63,-2.662 3.96,-4.393 7,-5.195 z"
       fill-rule="evenodd"
       id="path203" />
    <text
       font-family="'Cambria Math', 'Cambria Math_MSFontService', sans-serif"
       font-weight="400"
       font-size="32px"
       transform="translate(1020.92,417)"
       id="text205">B</text>
    <text
       font-family="'Cambria Math', 'Cambria Math_MSFontService', sans-serif"
       font-weight="400"
       font-size="32px"
       transform="translate(868.837,467)"
       id="text207">P</text>
    <path
       d="m 921.299,443.251 c 3.042,0.802 5.378,2.534 7.008,5.195 1.63,2.661 2.445,5.872 2.445,9.633 0,3.771 -0.812,6.982 -2.437,9.633 -1.625,2.651 -3.964,4.377 -7.016,5.179 l -0.375,-1.203 c 2.407,-0.802 4.196,-2.385 5.367,-4.75 1.172,-2.364 1.758,-5.37 1.758,-9.015 0,-3.521 -0.583,-6.446 -1.75,-8.774 -1.166,-2.328 -2.974,-3.893 -5.422,-4.695 z m -22.03,0 0.422,1.203 c -2.437,0.802 -4.242,2.367 -5.414,4.695 -1.172,2.328 -1.758,5.253 -1.758,8.774 0,3.645 0.586,6.651 1.758,9.015 1.172,2.365 2.961,3.948 5.367,4.75 l -0.375,1.203 c -3.052,-0.802 -5.39,-2.528 -7.015,-5.179 -1.625,-2.651 -2.438,-5.862 -2.438,-9.633 0,-3.761 0.815,-6.972 2.445,-9.633 1.631,-2.661 3.967,-4.393 7.008,-5.195 z"
       fill-rule="evenodd"
       id="path209" />
    <text
       font-family="'Cambria Math', 'Cambria Math_MSFontService', sans-serif"
       font-weight="400"
       font-size="32px"
       transform="translate(900.284,467)"
       id="text211">A</text>
    <path
       d="M 18.1406,-18.7031 H 0 v -1.6563 h 18.1406 z"
       transform="translate(901.217,461)"
       id="path213" />
    <text
       fill="#000000"
       fill-opacity="0"
       font-family="Arial, Arial_MSFontService, sans-serif"
       font-size="1.65625px"
       y="-18.9102"
       id="text215">ഥ</text>
    <text
       font-family="'Cambria Math', 'Cambria Math_MSFontService', sans-serif"
       font-weight="400"
       font-size="32px"
       transform="translate(942.45,467)"
       id="text217">≥</text>
    <text
       font-family="'Cambria Math', 'Cambria Math_MSFontService', sans-serif"
       font-weight="400"
       font-size="32px"
       transform="translate(973.617,467)"
       id="text219">P</text>
    <path
       d="m 1025.58,443.251 c 3.04,0.802 5.38,2.534 7.01,5.195 1.63,2.661 2.44,5.872 2.44,9.633 0,3.771 -0.81,6.982 -2.44,9.633 -1.62,2.651 -3.96,4.377 -7.01,5.179 l -0.38,-1.203 c 2.41,-0.802 4.2,-2.385 5.37,-4.75 1.17,-2.364 1.76,-5.37 1.76,-9.015 0,-3.521 -0.58,-6.446 -1.75,-8.774 -1.17,-2.328 -2.97,-3.893 -5.42,-4.695 z m -21.53,0 0.42,1.203 c -2.44,0.802 -4.24,2.367 -5.413,4.695 -1.172,2.328 -1.758,5.253 -1.758,8.774 0,3.645 0.586,6.651 1.758,9.015 1.173,2.365 2.963,3.948 5.363,4.75 l -0.37,1.203 c -3.05,-0.802 -5.391,-2.528 -7.016,-5.179 -1.625,-2.651 -2.438,-5.862 -2.438,-9.633 0,-3.761 0.815,-6.972 2.445,-9.633 1.631,-2.661 3.969,-4.393 7.009,-5.195 z"
       fill-rule="evenodd"
       id="path221" />
    <text
       font-family="'Cambria Math', 'Cambria Math_MSFontService', sans-serif"
       font-weight="400"
       font-size="32px"
       transform="translate(1005.06,467)"
       id="text223">B</text>
    <path
       d="M 18.1406,-18.7031 H 0 v -1.6563 h 18.1406 z"
       transform="translate(1005.74,461)"
       id="path225" />
    <text
       fill="#000000"
       fill-opacity="0"
       font-family="Arial, Arial_MSFontService, sans-serif"
       font-size="1.65625px"
       y="-18.9102"
       id="text227">ഥ</text>
  </g>
</svg>
