<?xml version="1.0" encoding="UTF-8" standalone="no"?>
<svg
   width="1280"
   height="640"
   overflow="hidden"
   version="1.1"
   id="svg282"
   sodipodi:docname="combinatorics-permutations.svg"
   inkscape:version="1.2 (dc2aedaf03, 2022-05-15)"
   xmlns:inkscape="http://www.inkscape.org/namespaces/inkscape"
   xmlns:sodipodi="http://sodipodi.sourceforge.net/DTD/sodipodi-0.dtd"
   xmlns="http://www.w3.org/2000/svg"
   xmlns:svg="http://www.w3.org/2000/svg">
  <sodipodi:namedview
     id="namedview284"
     pagecolor="#ffffff"
     bordercolor="#000000"
     borderopacity="0.25"
     inkscape:showpageshadow="2"
     inkscape:pageopacity="0.0"
     inkscape:pagecheckerboard="0"
     inkscape:deskcolor="#d1d1d1"
     showgrid="false"
     inkscape:zoom="0.65555556"
     inkscape:cx="540"
     inkscape:cy="521.69492"
     inkscape:window-width="2560"
     inkscape:window-height="1494"
     inkscape:window-x="-11"
     inkscape:window-y="-11"
     inkscape:window-maximized="1"
     inkscape:current-layer="svg282" />
  <defs
     id="defs68">
    <clipPath
       id="clip0">
      <rect
         x="0"
         y="0"
         width="1280"
         height="720"
         id="rect2" />
    </clipPath>
    <clipPath
       id="clip1">
      <rect
         x="126"
         y="327"
         width="96"
         height="96"
         id="rect5" />
    </clipPath>
    <clipPath
       id="clip2">
      <rect
         x="126"
         y="327"
         width="96"
         height="96"
         id="rect8" />
    </clipPath>
    <clipPath
       id="clip3">
      <rect
         x="126"
         y="327"
         width="96"
         height="96"
         id="rect11" />
    </clipPath>
    <clipPath
       id="clip4">
      <rect
         x="126"
         y="224"
         width="96"
         height="96"
         id="rect14" />
    </clipPath>
    <clipPath
       id="clip5">
      <rect
         x="126"
         y="224"
         width="96"
         height="96"
         id="rect17" />
    </clipPath>
    <clipPath
       id="clip6">
      <rect
         x="126"
         y="224"
         width="96"
         height="96"
         id="rect20" />
    </clipPath>
    <clipPath
       id="clip7">
      <rect
         x="126"
         y="431"
         width="96"
         height="96"
         id="rect23" />
    </clipPath>
    <clipPath
       id="clip8">
      <rect
         x="126"
         y="431"
         width="96"
         height="96"
         id="rect26" />
    </clipPath>
    <clipPath
       id="clip9">
      <rect
         x="126"
         y="431"
         width="96"
         height="96"
         id="rect29" />
    </clipPath>
    <clipPath
       id="clip10">
      <rect
         x="126"
         y="536"
         width="96"
         height="96"
         id="rect32" />
    </clipPath>
    <clipPath
       id="clip11">
      <rect
         x="126"
         y="536"
         width="96"
         height="96"
         id="rect35" />
    </clipPath>
    <clipPath
       id="clip12">
      <rect
         x="126"
         y="536"
         width="96"
         height="96"
         id="rect38" />
    </clipPath>
    <clipPath
       id="clip13">
      <rect
         x="431"
         y="321"
         width="96"
         height="96"
         id="rect41" />
    </clipPath>
    <clipPath
       id="clip14">
      <rect
         x="431"
         y="321"
         width="96"
         height="96"
         id="rect44" />
    </clipPath>
    <clipPath
       id="clip15">
      <rect
         x="431"
         y="321"
         width="96"
         height="96"
         id="rect47" />
    </clipPath>
    <clipPath
       id="clip16">
      <rect
         x="430"
         y="421"
         width="96"
         height="96"
         id="rect50" />
    </clipPath>
    <clipPath
       id="clip17">
      <rect
         x="430"
         y="421"
         width="96"
         height="96"
         id="rect53" />
    </clipPath>
    <clipPath
       id="clip18">
      <rect
         x="430"
         y="421"
         width="96"
         height="96"
         id="rect56" />
    </clipPath>
    <clipPath
       id="clip19">
      <rect
         x="433"
         y="225"
         width="96"
         height="96"
         id="rect59" />
    </clipPath>
    <clipPath
       id="clip20">
      <rect
         x="433"
         y="225"
         width="96"
         height="96"
         id="rect62" />
    </clipPath>
    <clipPath
       id="clip21">
      <rect
         x="433"
         y="225"
         width="96"
         height="96"
         id="rect65" />
    </clipPath>
  </defs>
  <g
     clip-path="url(#clip0)"
     id="g280"
     transform="translate(10.677966,-61.016949)">
    <rect
       x="0"
       y="0"
       width="1280"
       height="720"
       fill="#ffffff"
       id="rect70" />
    <path
       d="M 428,242.667 C 428,232.91 435.91,225 445.667,225 h 70.666 C 526.09,225 534,232.91 534,242.667 V 495.333 C 534,505.09 526.09,513 516.333,513 H 445.667 C 435.91,513 428,505.09 428,495.333 Z"
       stroke="#2f528f"
       stroke-width="4"
       stroke-miterlimit="8"
       fill="#dae3f3"
       fill-rule="evenodd"
       id="path72" />
    <path
       d="m 123,243 c 0,-9.941 8.059,-18 18,-18 h 72 c 9.941,0 18,8.059 18,18 v 371 c 0,9.941 -8.059,18 -18,18 h -72 c -9.941,0 -18,-8.059 -18,-18 z"
       stroke="#2f528f"
       stroke-width="4"
       stroke-miterlimit="8"
       fill="#dae3f3"
       fill-rule="evenodd"
       id="path74" />
    <g
       clip-path="url(#clip1)"
       id="g82">
      <g
         clip-path="url(#clip2)"
         id="g80">
        <g
           clip-path="url(#clip3)"
           id="g78">
          <path
             d="m 214.447,362.276 -0.468,-0.469 c -0.149,-0.149 -0.226,-0.354 -0.212,-0.564 l 0.354,-5.19 c 0.105,-1.53 -0.403,-3.04 -1.412,-4.195 l -1.137,-1.3 1.787,-3.627 c 0.193,-0.391 0.032,-0.864 -0.359,-1.057 -0.108,-0.053 -0.227,-0.081 -0.348,-0.081 -0.169,10e-4 -0.334,0.058 -0.468,0.161 l -4.507,3.363 v -4.74 c 0.002,-0.426 -0.343,-0.773 -0.769,-0.775 -0.004,0 -0.007,0 -0.011,0 -0.218,0 -0.425,0.093 -0.569,0.257 l -3.157,3.506 c -0.319,0.353 -0.707,0.637 -1.141,0.834 l -2.08,0.941 c -2.584,1.169 -4.742,3.112 -6.175,5.56 l -4.375,7.483 c -0.733,1.254 -2.016,2.087 -3.46,2.247 l -5.781,0.64 c -3.801,0.479 -7.433,1.86 -10.591,4.03 l -3.284,2.257 c -2.842,1.956 -5.23,4.501 -7,7.462 l -3,5.019 c -1.087,1.901 -2.782,3.38 -4.812,4.2 -2.775,1.063 -5.73,1.574 -8.7,1.505 -2.426,-0.017 -4.846,-0.251 -7.231,-0.7 -0.177,-0.03 -0.356,-0.044 -0.536,-0.043 -1.657,-0.002 -3.002,1.34 -3.004,2.996 -0.001,1.452 1.037,2.697 2.466,2.956 2.764,0.517 5.568,0.784 8.38,0.8 4.008,0.09 7.988,-0.687 11.668,-2.279 l 0.286,-0.157 V 402 c 0,1.657 1.343,3 3,3 h 3 c 1.657,0 3,-1.343 3,-3 0,-1.657 -1.343,-3 -3,-3 v -0.281 h 5 V 402 c 0,1.657 1.343,3 3,3 h 12 c 1.657,0 3,-1.343 3,-3 0,-1.657 -1.343,-3 -3,-3 h -9 v -0.286 c 3.54,-0.021 6.979,-1.183 9.806,-3.314 l 0.991,-0.748 c 0.806,-0.609 1.682,-1.119 2.61,-1.519 l 3.7,-1.595 c 1.531,-0.656 3.127,-1.151 4.761,-1.477 l 7.479,7.333 c 1.2,1.143 3.098,1.097 4.241,-0.103 1.12,-1.175 1.102,-3.028 -0.041,-4.181 l -6.584,-6.456 0.618,-1.277 10.346,3.953 c 1.567,0.538 3.274,-0.295 3.812,-1.862 0.512,-1.491 -0.216,-3.124 -1.668,-3.738 l -9.737,-3.73 1.165,-2.081 c 0.708,-1.265 1.157,-2.659 1.32,-4.1 l 0.483,-4.276 c 0.102,-0.902 0.865,-1.584 1.773,-1.584 h 2.274 c 1.073,0 2.117,-0.343 2.981,-0.979 l 2.078,-1.53 c 0.933,-0.689 1.131,-2.004 0.442,-2.937 -0.062,-0.084 -0.13,-0.163 -0.204,-0.237 z m -12.406,7.638 -9.832,-6.391 1.516,-2.592 9.275,6.027 c -0.48,0.66 -0.782,1.433 -0.877,2.244 z"
             id="path76" />
        </g>
      </g>
    </g>
    <g
       clip-path="url(#clip4)"
       id="g94">
      <g
         clip-path="url(#clip5)"
         id="g92">
        <g
           clip-path="url(#clip6)"
           id="g90">
          <path
             d="m 211.206,277.981 -5.59,-1.969 c -0.518,-0.193 -1.094,0.07 -1.287,0.588 -0.193,0.517 0.07,1.093 0.588,1.286 0.011,0.004 0.023,0.008 0.035,0.012 l 5.565,1.96 c 1.029,0.401 1.538,1.561 1.137,2.59 -0.401,1.03 -1.561,1.539 -2.59,1.138 l -6.476,-2.293 c -0.521,-0.185 -1.092,0.088 -1.277,0.609 -0.184,0.52 0.088,1.092 0.609,1.276 l 6.452,2.285 c 2.065,0.785 4.376,-0.253 5.161,-2.318 0.785,-2.065 -0.253,-4.375 -2.318,-5.16 -0.003,-0.001 -0.005,-0.003 -0.009,-0.004 z"
             id="path84" />
          <path
             d="m 215.157,258.767 -0.382,-0.381 0.345,-5.067 c 0.128,-1.795 -0.468,-3.567 -1.656,-4.92 -0.995,-1.205 -2.306,-2.109 -3.785,-2.613 v -3.766 c 0,-1.105 -0.896,-2 -2,-2 -0.498,0 -0.977,0.185 -1.346,0.52 l -3.833,3.483 c -0.025,0.023 -0.049,0.046 -0.071,0.071 -0.226,0.252 -0.502,0.453 -0.81,0.592 l -2.08,0.941 c -2.777,1.251 -5.094,3.338 -6.627,5.97 l -4.372,7.479 c -0.576,0.98 -1.579,1.631 -2.708,1.759 l -5.797,0.641 c -3.959,0.504 -7.741,1.945 -11.032,4.202 l -3.782,2.601 c -2.791,1.899 -5.104,4.418 -6.759,7.36 -0.625,1.076 -1.076,2.244 -1.337,3.46 -3.837,5.569 -13.42,8.028 -23.94,6.116 -0.543,-0.1 -1.065,0.259 -1.165,0.802 -0.1,0.543 0.259,1.064 0.802,1.164 0.002,0.001 0.004,0.001 0.006,0.001 2.383,0.438 4.801,0.661 7.225,0.666 6.933,0 12.998,-1.927 16.761,-5.378 -0.004,0.233 -0.01,0.455 -0.01,0.705 0,4.855 2.12,6.92 3.99,8.742 1.614,1.573 3.009,2.932 3.009,6.083 0.002,2.208 1.792,3.997 4,4 h 13 c 2.209,0 4,-1.791 4,-4 0,-2.209 -1.791,-4 -4,-4 h -3.154 c 0.816,-0.662 1.511,-1.461 2.054,-2.361 2.063,-0.212 9.707,-1.132 13.441,-3.487 l 7.308,7.15 c 1.578,1.547 4.11,1.522 5.657,-0.056 0.066,-0.067 0.129,-0.136 0.19,-0.208 1.352,-1.664 1.194,-4.088 -0.362,-5.562 l -5.603,-5.494 c -0.321,-0.316 -0.392,-0.808 -0.172,-1.202 l 4.012,-7.175 c 0.775,-1.381 1.265,-2.904 1.441,-4.479 l 0.483,-4.276 c 0.044,-0.397 0.38,-0.696 0.779,-0.696 h 2.273 c 1.286,-0.003 2.537,-0.414 3.575,-1.174 l 2.078,-1.53 c 1.377,-1.014 1.671,-2.953 0.657,-4.33 -0.092,-0.125 -0.194,-0.243 -0.303,-0.352 z m -11.047,7.858 -0.167,1.477 -13.081,-9.035 0.812,-1.39 12.502,8.634 c -0.028,0.103 -0.05,0.208 -0.066,0.314 z m -1.682,8.004 -4.012,7.175 c -0.658,1.181 -0.446,2.657 0.518,3.606 l 5.602,5.493 c 0.796,0.743 0.901,1.969 0.241,2.836 -0.759,0.845 -2.059,0.914 -2.904,0.154 -0.007,-0.006 -0.015,-0.013 -0.022,-0.02 l -12.04,-11.779 c -0.395,-0.386 -1.028,-0.379 -1.414,0.016 -0.386,0.395 -0.379,1.028 0.016,1.414 l 3.247,3.177 c -2.753,1.524 -7.886,2.43 -11.021,2.819 0.719,-2.44 0.368,-5.071 -0.968,-7.236 -0.289,-0.47 -0.905,-0.617 -1.376,-0.327 -0.47,0.289 -0.616,0.905 -0.327,1.376 2.025,3.295 0.995,7.607 -2.3,9.631 -1.102,0.677 -2.37,1.036 -3.663,1.036 h -0.202 c -0.553,0 -1,0.448 -1,1 0,0.552 0.447,1 1,1 h 9 c 1.104,0 2,0.895 2,2 0,1.105 -0.896,2 -2,2 h -13 c -1.104,-10e-4 -1.999,-0.896 -2,-2 0,-3.995 -1.92,-5.865 -3.614,-7.515 -1.741,-1.697 -3.386,-3.299 -3.386,-7.31 0,-3.191 0.29,-4.541 1.41,-6.568 1.504,-2.671 3.605,-4.957 6.14,-6.68 l 3.783,-2.601 c 3.023,-2.074 6.497,-3.399 10.134,-3.864 l 5.782,-0.639 c 1.47,-0.168 2.814,-0.909 3.741,-2.063 l 13.896,9.597 -0.062,0.545 c -0.146,1.31 -0.554,2.577 -1.198,3.727 z m 11.189,-12.79 -2.078,1.53 c -0.692,0.51 -1.529,0.785 -2.389,0.785 h -2.273 c -0.566,0.002 -1.117,0.177 -1.58,0.502 l -12.61,-8.71 1.953,-3.34 c 1.327,-2.27 3.327,-4.072 5.723,-5.156 l 2.081,-0.942 c 0.544,-0.245 1.032,-0.598 1.436,-1.037 l 3.782,-3.436 c 0.004,-0.004 0.01,-0.003 0.014,0.001 0.001,0.002 0.002,0.004 0.002,0.007 v 4.47 c 0.001,0.443 0.293,0.833 0.718,0.959 1.393,0.34 2.638,1.122 3.55,2.229 0.84,0.958 1.264,2.211 1.179,3.482 l -0.354,5.191 c -0.034,0.498 0.149,0.986 0.502,1.338 l 0.469,0.469 c 0.428,0.428 0.428,1.122 0,1.551 -0.039,0.038 -0.081,0.074 -0.125,0.107 z"
             id="path86" />
          <path
             d="m 211.004,254.5 c 0,0.828 -0.672,1.5 -1.5,1.5 -0.829,0 -1.5,-0.672 -1.5,-1.5 0,-0.828 0.671,-1.5 1.5,-1.5 0.828,0 1.5,0.672 1.5,1.5 z"
             id="path88" />
        </g>
      </g>
    </g>
    <g
       clip-path="url(#clip7)"
       id="g102">
      <g
         clip-path="url(#clip8)"
         id="g100">
        <g
           clip-path="url(#clip9)"
           id="g98">
          <path
             d="m 214.447,466.276 -0.468,-0.469 c -0.149,-0.149 -0.226,-0.354 -0.212,-0.564 l 0.354,-5.19 c 0.105,-1.53 -0.403,-3.04 -1.412,-4.195 l -1.137,-1.3 1.787,-3.627 c 0.193,-0.391 0.032,-0.864 -0.359,-1.057 -0.108,-0.053 -0.227,-0.081 -0.348,-0.081 -0.169,10e-4 -0.334,0.058 -0.468,0.161 l -4.507,3.363 v -4.74 c 0.002,-0.426 -0.343,-0.773 -0.769,-0.775 -0.004,0 -0.007,0 -0.011,0 -0.218,0 -0.425,0.093 -0.569,0.257 l -3.157,3.506 c -0.319,0.353 -0.707,0.637 -1.141,0.834 l -2.08,0.941 c -2.584,1.169 -4.742,3.112 -6.175,5.56 l -4.375,7.483 c -0.733,1.254 -2.016,2.087 -3.46,2.247 l -5.781,0.64 c -3.801,0.479 -7.433,1.86 -10.591,4.03 l -3.284,2.257 c -2.842,1.956 -5.23,4.501 -7,7.462 l -3,5.019 c -1.087,1.901 -2.782,3.38 -4.812,4.2 -2.775,1.063 -5.73,1.574 -8.7,1.505 -2.426,-0.017 -4.846,-0.251 -7.231,-0.7 -0.177,-0.03 -0.356,-0.044 -0.536,-0.043 -1.657,-0.002 -3.002,1.34 -3.004,2.996 -0.001,1.452 1.037,2.697 2.466,2.956 2.764,0.517 5.568,0.784 8.38,0.8 4.008,0.09 7.988,-0.687 11.668,-2.279 l 0.286,-0.157 V 506 c 0,1.657 1.343,3 3,3 h 3 c 1.657,0 3,-1.343 3,-3 0,-1.657 -1.343,-3 -3,-3 v -0.281 h 5 V 506 c 0,1.657 1.343,3 3,3 h 12 c 1.657,0 3,-1.343 3,-3 0,-1.657 -1.343,-3 -3,-3 h -9 v -0.286 c 3.54,-0.021 6.979,-1.183 9.806,-3.314 l 0.991,-0.748 c 0.806,-0.609 1.682,-1.119 2.61,-1.519 l 3.7,-1.595 c 1.531,-0.656 3.127,-1.151 4.761,-1.477 l 7.479,7.333 c 1.2,1.143 3.098,1.097 4.241,-0.103 1.12,-1.175 1.102,-3.028 -0.041,-4.181 l -6.584,-6.456 0.618,-1.277 10.346,3.953 c 1.567,0.538 3.274,-0.295 3.812,-1.862 0.512,-1.491 -0.216,-3.124 -1.668,-3.738 l -9.737,-3.73 1.165,-2.081 c 0.708,-1.265 1.157,-2.659 1.32,-4.1 l 0.483,-4.276 c 0.102,-0.902 0.865,-1.584 1.773,-1.584 h 2.274 c 1.073,0 2.117,-0.343 2.981,-0.979 l 2.078,-1.53 c 0.933,-0.689 1.131,-2.004 0.442,-2.937 -0.062,-0.084 -0.13,-0.163 -0.204,-0.237 z m -12.406,7.638 -9.832,-6.391 1.516,-2.592 9.275,6.027 c -0.48,0.66 -0.782,1.433 -0.877,2.244 z"
             fill="#c55a11"
             id="path96" />
        </g>
      </g>
    </g>
    <g
       clip-path="url(#clip10)"
       id="g114">
      <g
         clip-path="url(#clip11)"
         id="g112">
        <g
           clip-path="url(#clip12)"
           id="g110">
          <path
             d="m 211.206,589.981 -5.59,-1.969 c -0.518,-0.193 -1.094,0.07 -1.287,0.588 -0.193,0.517 0.07,1.093 0.588,1.286 0.011,0.004 0.023,0.008 0.035,0.012 l 5.565,1.96 c 1.029,0.402 1.538,1.561 1.137,2.59 -0.401,1.03 -1.561,1.539 -2.59,1.138 l -6.476,-2.293 c -0.521,-0.184 -1.092,0.088 -1.277,0.609 -0.184,0.52 0.088,1.092 0.609,1.276 l 6.452,2.285 c 2.065,0.785 4.376,-0.253 5.161,-2.318 0.785,-2.065 -0.253,-4.375 -2.318,-5.16 -0.003,-10e-4 -0.005,-0.003 -0.009,-0.004 z"
             id="path104" />
          <path
             d="m 215.157,570.767 -0.382,-0.381 0.345,-5.067 c 0.128,-1.795 -0.468,-3.567 -1.656,-4.92 -0.995,-1.205 -2.306,-2.11 -3.785,-2.613 v -3.766 c 0,-1.105 -0.896,-2 -2,-2 -0.498,0 -0.977,0.185 -1.346,0.52 l -3.833,3.483 c -0.025,0.022 -0.049,0.046 -0.071,0.071 -0.226,0.252 -0.502,0.453 -0.81,0.592 l -2.08,0.941 c -2.777,1.251 -5.094,3.338 -6.627,5.97 l -4.372,7.479 c -0.576,0.98 -1.579,1.631 -2.708,1.759 l -5.797,0.641 c -3.959,0.504 -7.741,1.945 -11.032,4.202 l -3.782,2.601 c -2.791,1.899 -5.104,4.418 -6.759,7.36 -0.625,1.076 -1.076,2.244 -1.337,3.46 -3.837,5.568 -13.42,8.028 -23.94,6.116 -0.543,-0.1 -1.065,0.259 -1.165,0.802 -0.1,0.543 0.259,1.064 0.802,1.164 0.002,10e-4 0.004,10e-4 0.006,10e-4 2.383,0.438 4.801,0.661 7.225,0.666 6.933,0 12.998,-1.927 16.761,-5.378 -0.004,0.233 -0.01,0.455 -0.01,0.705 0,4.855 2.12,6.92 3.99,8.742 1.614,1.573 3.009,2.932 3.009,6.083 0.002,2.208 1.792,3.997 4,4 h 13 c 2.209,0 4,-1.791 4,-4 0,-2.209 -1.791,-4 -4,-4 h -3.154 c 0.816,-0.662 1.511,-1.461 2.054,-2.361 2.063,-0.212 9.707,-1.132 13.441,-3.487 l 7.308,7.15 c 1.578,1.547 4.11,1.522 5.657,-0.056 0.066,-0.067 0.129,-0.136 0.19,-0.208 1.352,-1.664 1.194,-4.088 -0.362,-5.562 l -5.603,-5.494 c -0.321,-0.316 -0.392,-0.808 -0.172,-1.202 l 4.012,-7.175 c 0.775,-1.381 1.265,-2.904 1.441,-4.479 l 0.483,-4.276 c 0.044,-0.397 0.38,-0.696 0.779,-0.696 h 2.273 c 1.286,-0.003 2.537,-0.414 3.575,-1.174 l 2.078,-1.53 c 1.377,-1.014 1.671,-2.953 0.657,-4.33 -0.092,-0.125 -0.194,-0.243 -0.303,-0.352 z m -11.047,7.858 -0.167,1.477 -13.081,-9.035 0.812,-1.39 12.502,8.634 c -0.028,0.103 -0.05,0.208 -0.066,0.314 z m -1.682,8.004 -4.012,7.175 c -0.658,1.181 -0.446,2.657 0.518,3.606 l 5.602,5.493 c 0.796,0.743 0.901,1.969 0.241,2.836 -0.759,0.845 -2.059,0.914 -2.904,0.154 -0.007,-0.007 -0.015,-0.013 -0.022,-0.02 l -12.04,-11.779 c -0.395,-0.386 -1.028,-0.379 -1.414,0.016 -0.386,0.395 -0.379,1.028 0.016,1.414 l 3.247,3.177 c -2.753,1.524 -7.886,2.43 -11.021,2.819 0.719,-2.44 0.368,-5.071 -0.968,-7.236 -0.289,-0.47 -0.905,-0.617 -1.376,-0.327 -0.47,0.289 -0.616,0.905 -0.327,1.376 2.025,3.295 0.995,7.607 -2.3,9.631 -1.102,0.677 -2.37,1.036 -3.663,1.036 h -0.202 c -0.553,0 -1,0.448 -1,1 0,0.552 0.447,1 1,1 h 9 c 1.104,0 2,0.895 2,2 0,1.105 -0.896,2 -2,2 h -13 c -1.104,-10e-4 -1.999,-0.896 -2,-2 0,-3.995 -1.92,-5.865 -3.614,-7.515 -1.741,-1.697 -3.386,-3.299 -3.386,-7.31 0,-3.191 0.29,-4.541 1.41,-6.568 1.504,-2.671 3.605,-4.958 6.14,-6.68 l 3.783,-2.601 c 3.023,-2.074 6.497,-3.399 10.134,-3.864 l 5.782,-0.639 c 1.47,-0.168 2.814,-0.909 3.741,-2.063 l 13.896,9.597 -0.062,0.545 c -0.146,1.31 -0.554,2.577 -1.198,3.727 z m 11.189,-12.79 -2.078,1.53 c -0.692,0.51 -1.529,0.785 -2.389,0.785 h -2.273 c -0.566,0.002 -1.117,0.177 -1.58,0.502 l -12.61,-8.71 1.953,-3.34 c 1.327,-2.27 3.327,-4.072 5.723,-5.156 l 2.081,-0.942 c 0.544,-0.245 1.032,-0.598 1.436,-1.037 l 3.782,-3.436 c 0.004,-0.004 0.01,-0.003 0.014,10e-4 0.001,0.002 0.002,0.004 0.002,0.007 v 4.47 c 0.001,0.443 0.293,0.833 0.718,0.959 1.393,0.34 2.638,1.122 3.55,2.229 0.84,0.958 1.264,2.211 1.179,3.482 l -0.354,5.191 c -0.034,0.498 0.149,0.986 0.502,1.338 l 0.469,0.469 c 0.428,0.428 0.428,1.123 0,1.551 -0.039,0.038 -0.081,0.074 -0.125,0.107 z"
             id="path106" />
          <path
             d="m 211.004,566.5 c 0,0.828 -0.672,1.5 -1.5,1.5 -0.829,0 -1.5,-0.672 -1.5,-1.5 0,-0.828 0.671,-1.5 1.5,-1.5 0.828,0 1.5,0.672 1.5,1.5 z"
             id="path108" />
        </g>
      </g>
    </g>
    <path
       d="m 165.214,586.696 c -1.027,-4.047 3.062,-8.577 9.132,-10.117 6.071,-1.54 11.824,0.491 12.851,4.538 1.027,4.047 -3.061,8.577 -9.132,10.117 -6.07,1.541 -11.824,-0.491 -12.851,-4.538 z"
       stroke="#2f528f"
       stroke-width="1.33333"
       stroke-miterlimit="8"
       fill-rule="evenodd"
       id="path116" />
    <path
       d="M 0.829875,-1.8197 4.46927,-0.159949 2.80952,3.47945 -0.829875,1.8197 Z M 8.10867,1.4998 11.7481,3.15955 10.0883,6.79895 6.44892,5.1392 Z m 7.27883,3.3195 3.6394,1.65975 -1.6598,3.63945 -3.6394,-1.6598 z m 7.2788,3.3195 3.6394,1.65975 -1.6598,3.63945 -3.6394,-1.6598 z m 7.2788,3.3195 3.6394,1.6598 -1.6598,3.6394 -3.6394,-1.6598 z m 7.2788,3.3195 3.6394,1.6598 -1.6598,3.6394 -3.6394,-1.6598 z m 7.2788,3.3195 3.6394,1.6598 -1.6598,3.6394 -3.6394,-1.6598 z m 7.2788,3.3195 3.6394,1.6598 -1.6598,3.6394 -3.6394,-1.6598 z m 7.2788,3.3195 3.6394,1.6598 -1.6598,3.6394 -3.6394,-1.6598 z m 7.2788,3.3195 3.6394,1.6598 -1.6598,3.6394 -3.6394,-1.6598 z m 7.2788,3.3195 3.6394,1.6598 -1.6598,3.6394 -3.6394,-1.6598 z m 7.2788,3.3195 3.6394,1.6598 -1.6598,3.6394 -3.6394,-1.6598 z m 7.2788,3.3195 3.6393,1.6598 -1.6597,3.6394 -3.6394,-1.6598 z m 7.2787,3.3195 3.6395,1.6598 -1.6598,3.6394 -3.6394,-1.6598 z m 7.2788,3.3195 3.639,1.6598 -1.659,3.6394 -3.64,-1.6598 z m 7.279,3.3195 3.639,1.6598 -1.66,3.6394 -3.639,-1.6598 z m 7.279,3.3195 3.639,1.6598 -1.66,3.6394 -3.639,-1.6598 z m 7.278,3.3195 3.64,1.6598 -1.66,3.6394 -3.639,-1.6598 z m 7.279,3.3195 3.64,1.6598 -1.66,3.6394 -3.64,-1.6598 z m 7.279,3.3195 3.639,1.6598 -1.659,3.6394 -3.64,-1.6598 z m 7.279,3.3195 3.639,1.6598 -1.66,3.6394 -3.639,-1.6598 z m 7.279,3.3195 3.639,1.6598 -1.66,3.6394 -3.639,-1.6598 z m 5.226,-2.0128 8.429,10.4384 -13.408,0.4798 z"
       fill="#0070c0"
       transform="matrix(1,0,0,-1,246,376.315)"
       id="path118" />
    <g
       clip-path="url(#clip13)"
       id="g126">
      <g
         clip-path="url(#clip14)"
         id="g124">
        <g
           clip-path="url(#clip15)"
           id="g122">
          <path
             d="m 519.447,356.276 -0.468,-0.469 c -0.149,-0.149 -0.226,-0.354 -0.212,-0.564 l 0.354,-5.19 c 0.105,-1.53 -0.403,-3.04 -1.412,-4.195 l -1.137,-1.3 1.787,-3.627 c 0.193,-0.391 0.032,-0.864 -0.359,-1.057 -0.108,-0.053 -0.227,-0.081 -0.348,-0.081 -0.169,10e-4 -0.334,0.058 -0.468,0.161 l -4.507,3.363 v -4.74 c 0.002,-0.426 -0.343,-0.773 -0.769,-0.775 -0.004,0 -0.007,0 -0.011,0 -0.218,0 -0.425,0.093 -0.569,0.257 l -3.157,3.506 c -0.319,0.353 -0.707,0.637 -1.141,0.834 l -2.08,0.941 c -2.584,1.169 -4.742,3.112 -6.175,5.56 l -4.375,7.483 c -0.733,1.254 -2.016,2.087 -3.46,2.247 l -5.781,0.64 c -3.801,0.479 -7.433,1.86 -10.591,4.03 l -3.284,2.257 c -2.842,1.956 -5.23,4.501 -7,7.462 l -3,5.019 c -1.087,1.901 -2.782,3.38 -4.812,4.2 -2.774,1.063 -5.73,1.574 -8.7,1.505 -2.426,-0.017 -4.846,-0.251 -7.231,-0.7 -0.177,-0.03 -0.356,-0.044 -0.536,-0.043 -1.657,-0.002 -3.002,1.34 -3.004,2.996 -10e-4,1.452 1.037,2.697 2.466,2.956 2.764,0.517 5.568,0.784 8.38,0.8 4.008,0.09 7.988,-0.687 11.668,-2.279 l 0.286,-0.157 V 396 c 0,1.657 1.343,3 3,3 h 3 c 1.657,0 3,-1.343 3,-3 0,-1.657 -1.343,-3 -3,-3 v -0.281 h 5 V 396 c 0,1.657 1.343,3 3,3 h 12 c 1.657,0 3,-1.343 3,-3 0,-1.657 -1.343,-3 -3,-3 h -9 v -0.286 c 3.54,-0.021 6.979,-1.183 9.806,-3.314 l 0.991,-0.748 c 0.806,-0.609 1.682,-1.119 2.61,-1.519 l 3.7,-1.595 c 1.531,-0.656 3.127,-1.151 4.761,-1.477 l 7.479,7.333 c 1.2,1.143 3.098,1.097 4.241,-0.103 1.12,-1.175 1.102,-3.028 -0.041,-4.181 l -6.584,-6.456 0.618,-1.277 10.346,3.953 c 1.567,0.538 3.274,-0.295 3.812,-1.862 0.512,-1.491 -0.216,-3.124 -1.668,-3.738 l -9.737,-3.73 1.165,-2.081 c 0.708,-1.265 1.157,-2.659 1.32,-4.1 l 0.483,-4.276 c 0.102,-0.902 0.865,-1.584 1.773,-1.584 h 2.274 c 1.073,0 2.117,-0.343 2.981,-0.979 l 2.078,-1.53 c 0.933,-0.689 1.131,-2.004 0.442,-2.937 -0.062,-0.084 -0.13,-0.163 -0.204,-0.237 z m -12.406,7.638 -9.832,-6.391 1.516,-2.592 9.275,6.027 c -0.48,0.66 -0.782,1.433 -0.877,2.244 z"
             fill="#c55a11"
             id="path120" />
        </g>
      </g>
    </g>
    <g
       clip-path="url(#clip16)"
       id="g138">
      <g
         clip-path="url(#clip17)"
         id="g136">
        <g
           clip-path="url(#clip18)"
           id="g134">
          <path
             d="m 515.206,474.981 -5.59,-1.969 c -0.518,-0.193 -1.094,0.07 -1.287,0.588 -0.193,0.517 0.07,1.093 0.588,1.286 0.011,0.004 0.023,0.008 0.035,0.012 l 5.565,1.96 c 1.029,0.401 1.538,1.561 1.137,2.59 -0.401,1.03 -1.561,1.539 -2.59,1.138 l -6.476,-2.293 c -0.521,-0.185 -1.092,0.088 -1.277,0.609 -0.184,0.52 0.088,1.092 0.609,1.276 l 6.452,2.285 c 2.065,0.785 4.376,-0.253 5.161,-2.318 0.785,-2.065 -0.253,-4.375 -2.318,-5.16 -0.003,-0.001 -0.006,-0.003 -0.009,-0.004 z"
             id="path128" />
          <path
             d="m 519.157,455.767 -0.382,-0.381 0.345,-5.067 c 0.128,-1.795 -0.468,-3.567 -1.656,-4.92 -0.995,-1.205 -2.306,-2.11 -3.785,-2.613 v -3.766 c 0,-1.105 -0.896,-2 -2,-2 -0.498,0 -0.977,0.185 -1.346,0.52 l -3.833,3.483 c -0.025,0.023 -0.049,0.046 -0.071,0.071 -0.226,0.252 -0.502,0.453 -0.81,0.592 l -2.08,0.941 c -2.777,1.251 -5.094,3.338 -6.627,5.97 l -4.372,7.479 c -0.576,0.98 -1.579,1.631 -2.708,1.759 l -5.797,0.641 c -3.959,0.504 -7.741,1.945 -11.032,4.202 l -3.782,2.601 c -2.791,1.899 -5.104,4.418 -6.759,7.36 -0.625,1.076 -1.076,2.244 -1.337,3.46 -3.837,5.569 -13.42,8.028 -23.94,6.116 -0.543,-0.1 -1.065,0.259 -1.165,0.802 -0.1,0.543 0.259,1.064 0.802,1.164 0.002,0.001 0.004,0.001 0.006,0.001 2.383,0.438 4.801,0.661 7.225,0.666 6.933,0 12.998,-1.927 16.761,-5.378 -0.004,0.233 -0.01,0.455 -0.01,0.705 0,4.855 2.12,6.92 3.99,8.742 1.614,1.573 3.009,2.932 3.009,6.083 0.002,2.208 1.792,3.997 4,4 h 13 c 2.209,0 4,-1.791 4,-4 0,-2.209 -1.791,-4 -4,-4 h -3.154 c 0.816,-0.662 1.511,-1.461 2.054,-2.361 2.064,-0.212 9.707,-1.132 13.441,-3.487 l 7.308,7.15 c 1.578,1.547 4.11,1.522 5.657,-0.056 0.066,-0.067 0.129,-0.136 0.19,-0.208 1.352,-1.664 1.194,-4.088 -0.362,-5.562 l -5.603,-5.494 c -0.321,-0.316 -0.392,-0.808 -0.172,-1.202 l 4.012,-7.175 c 0.775,-1.381 1.265,-2.904 1.441,-4.479 l 0.483,-4.276 c 0.044,-0.397 0.38,-0.696 0.779,-0.696 h 2.273 c 1.286,-0.003 2.537,-0.414 3.574,-1.174 l 2.079,-1.53 c 1.377,-1.014 1.671,-2.953 0.657,-4.33 -0.092,-0.125 -0.194,-0.243 -0.303,-0.352 z m -11.047,7.858 -0.167,1.477 -13.081,-9.035 0.812,-1.39 12.502,8.634 c -0.028,0.103 -0.05,0.208 -0.066,0.314 z m -1.682,8.004 -4.012,7.175 c -0.658,1.181 -0.446,2.657 0.518,3.606 l 5.602,5.493 c 0.796,0.743 0.901,1.969 0.241,2.836 -0.759,0.845 -2.059,0.914 -2.904,0.154 -0.007,-0.006 -0.015,-0.013 -0.022,-0.02 l -12.04,-11.779 c -0.395,-0.386 -1.028,-0.379 -1.414,0.016 -0.386,0.395 -0.379,1.028 0.016,1.414 l 3.247,3.177 c -2.753,1.524 -7.886,2.43 -11.021,2.819 0.719,-2.44 0.368,-5.071 -0.968,-7.236 -0.289,-0.47 -0.905,-0.617 -1.376,-0.327 -0.47,0.289 -0.616,0.905 -0.327,1.376 2.025,3.295 0.995,7.607 -2.3,9.631 -1.102,0.677 -2.37,1.036 -3.663,1.036 h -0.202 c -0.553,0 -1,0.448 -1,1 0,0.552 0.447,1 1,1 h 9 c 1.104,0 2,0.895 2,2 0,1.105 -0.896,2 -2,2 h -13 c -1.104,-10e-4 -1.999,-0.896 -2,-2 0,-3.995 -1.92,-5.865 -3.614,-7.515 -1.741,-1.697 -3.386,-3.299 -3.386,-7.31 0,-3.191 0.29,-4.541 1.41,-6.568 1.504,-2.671 3.605,-4.957 6.14,-6.68 l 3.783,-2.601 c 3.023,-2.074 6.497,-3.399 10.134,-3.864 l 5.782,-0.639 c 1.47,-0.168 2.814,-0.909 3.741,-2.063 l 13.896,9.597 -0.062,0.545 c -0.146,1.31 -0.554,2.577 -1.198,3.727 z m 11.189,-12.79 -2.078,1.53 c -0.692,0.51 -1.529,0.785 -2.389,0.785 h -2.273 c -0.566,0.002 -1.117,0.177 -1.58,0.502 l -12.61,-8.71 1.953,-3.34 c 1.327,-2.27 3.327,-4.072 5.722,-5.156 l 2.082,-0.942 c 0.544,-0.245 1.032,-0.598 1.436,-1.037 l 3.782,-3.436 c 0.004,-0.004 0.01,-0.003 0.014,10e-4 0.001,0.002 0.002,0.004 0.002,0.007 v 4.47 c 10e-4,0.443 0.293,0.833 0.718,0.959 1.393,0.34 2.638,1.123 3.55,2.229 0.84,0.958 1.264,2.211 1.179,3.482 l -0.354,5.191 c -0.034,0.498 0.149,0.986 0.502,1.338 l 0.469,0.469 c 0.428,0.428 0.428,1.122 0,1.551 -0.039,0.038 -0.081,0.074 -0.125,0.107 z"
             id="path130" />
          <path
             d="m 515.004,451.5 c 0,0.828 -0.672,1.5 -1.5,1.5 -0.829,0 -1.5,-0.672 -1.5,-1.5 0,-0.828 0.671,-1.5 1.5,-1.5 0.828,0 1.5,0.672 1.5,1.5 z"
             id="path132" />
        </g>
      </g>
    </g>
    <path
       d="m 469.629,471.611 c -1.027,-4.047 3.062,-8.576 9.132,-10.117 6.07,-1.54 11.824,0.492 12.851,4.539 1.027,4.047 -3.062,8.576 -9.132,10.117 -6.071,1.54 -11.824,-0.492 -12.851,-4.539 z"
       stroke="#2f528f"
       stroke-width="1.33333"
       stroke-miterlimit="8"
       fill-rule="evenodd"
       id="path140" />
    <path
       d="m 244,374 h 159.157 v 4 H 244 Z m 157.157,-4 12,6 -12,6 z"
       fill="#0070c0"
       id="path142" />
    <path
       d="m 244.81,374.171 3.657,1.619 -1.619,3.658 -3.658,-1.619 z m 7.315,3.239 3.657,1.619 -1.619,3.657 -3.657,-1.619 z m 7.315,3.238 3.658,1.619 -1.619,3.658 -3.658,-1.62 z m 7.315,3.238 3.658,1.619 -1.619,3.658 -3.658,-1.619 z m 7.316,3.239 3.657,1.619 -1.619,3.657 -3.657,-1.619 z m 7.315,3.238 3.658,1.619 -1.62,3.658 -3.657,-1.62 z m 7.315,3.238 3.658,1.619 -1.619,3.658 -3.658,-1.619 z m 7.316,3.238 3.657,1.62 -1.619,3.657 -3.658,-1.619 z m 7.315,3.239 3.657,1.619 -1.619,3.658 -3.657,-1.62 z m 7.315,3.238 3.658,1.619 -1.619,3.658 -3.658,-1.619 z m 7.315,3.238 3.658,1.62 -1.619,3.657 -3.658,-1.619 z m 7.316,3.239 3.657,1.619 -1.619,3.658 -3.658,-1.62 z m 7.315,3.238 3.658,1.619 -1.62,3.658 -3.657,-1.619 z m 7.315,3.238 3.658,1.62 -1.619,3.657 -3.658,-1.619 z m 7.315,3.239 3.658,1.619 -1.619,3.658 -3.658,-1.62 z m 7.316,3.238 3.657,1.619 -1.619,3.658 -3.657,-1.619 z m 7.315,3.238 3.658,1.62 -1.62,3.657 -3.657,-1.619 z m 7.315,3.239 3.658,1.619 -1.619,3.658 -3.658,-1.62 z m 7.316,3.238 3.657,1.619 -1.619,3.658 -3.658,-1.619 z m 7.315,3.238 3.657,1.62 -1.619,3.657 -3.657,-1.619 z m 7.315,3.239 3.658,1.619 -1.619,3.658 -3.658,-1.62 z m 7.315,3.238 3.658,1.619 -1.619,3.658 -3.658,-1.619 z m 6.183,-1.637 8.544,10.344 -13.402,0.628 z"
       fill="#0070c0"
       id="path144" />
    <g
       clip-path="url(#clip19)"
       id="g156">
      <g
         clip-path="url(#clip20)"
         id="g154">
        <g
           clip-path="url(#clip21)"
           id="g152">
          <path
             d="m 518.206,278.981 -5.59,-1.969 c -0.518,-0.193 -1.094,0.07 -1.287,0.588 -0.193,0.517 0.07,1.093 0.588,1.286 0.011,0.004 0.023,0.008 0.035,0.012 l 5.565,1.96 c 1.029,0.401 1.538,1.561 1.137,2.59 -0.401,1.03 -1.561,1.539 -2.59,1.138 l -6.476,-2.293 c -0.521,-0.185 -1.092,0.088 -1.277,0.609 -0.184,0.52 0.088,1.092 0.609,1.276 l 6.452,2.285 c 2.065,0.785 4.376,-0.253 5.161,-2.318 0.785,-2.065 -0.253,-4.375 -2.318,-5.16 -0.003,-0.001 -0.006,-0.003 -0.009,-0.004 z"
             id="path146" />
          <path
             d="m 522.157,259.767 -0.382,-0.381 0.345,-5.067 c 0.128,-1.795 -0.468,-3.567 -1.656,-4.92 -0.995,-1.205 -2.306,-2.109 -3.785,-2.613 v -3.766 c 0,-1.105 -0.896,-2 -2,-2 -0.498,0 -0.978,0.185 -1.346,0.52 l -3.833,3.483 c -0.025,0.023 -0.049,0.046 -0.071,0.071 -0.226,0.252 -0.502,0.453 -0.81,0.592 l -2.08,0.941 c -2.777,1.251 -5.094,3.338 -6.627,5.97 l -4.372,7.479 c -0.576,0.98 -1.579,1.631 -2.708,1.759 l -5.797,0.641 c -3.959,0.504 -7.741,1.945 -11.032,4.202 l -3.782,2.601 c -2.791,1.899 -5.104,4.418 -6.759,7.36 -0.625,1.076 -1.076,2.244 -1.337,3.46 -3.837,5.569 -13.42,8.028 -23.94,6.116 -0.543,-0.1 -1.065,0.259 -1.165,0.802 -0.1,0.543 0.259,1.064 0.802,1.164 0.002,0.001 0.004,0.001 0.006,0.001 2.383,0.438 4.801,0.661 7.225,0.666 6.933,0 12.998,-1.927 16.761,-5.378 -0.004,0.233 -0.01,0.455 -0.01,0.705 0,4.855 2.12,6.92 3.99,8.742 1.614,1.573 3.009,2.932 3.009,6.083 0.002,2.208 1.792,3.997 4,4 h 13 c 2.209,0 4,-1.791 4,-4 0,-2.209 -1.791,-4 -4,-4 h -3.154 c 0.816,-0.662 1.511,-1.461 2.054,-2.361 2.064,-0.212 9.707,-1.132 13.441,-3.487 l 7.308,7.15 c 1.578,1.547 4.11,1.522 5.657,-0.056 0.066,-0.067 0.129,-0.136 0.19,-0.208 1.352,-1.664 1.194,-4.088 -0.362,-5.562 l -5.603,-5.494 c -0.321,-0.316 -0.392,-0.808 -0.172,-1.202 l 4.012,-7.175 c 0.775,-1.381 1.264,-2.904 1.441,-4.479 l 0.483,-4.276 c 0.044,-0.397 0.38,-0.696 0.779,-0.696 h 2.273 c 1.286,-0.003 2.537,-0.414 3.574,-1.174 l 2.079,-1.53 c 1.377,-1.014 1.671,-2.953 0.657,-4.33 -0.092,-0.125 -0.194,-0.243 -0.303,-0.352 z m -11.047,7.858 -0.167,1.477 -13.081,-9.035 0.812,-1.39 12.502,8.634 c -0.028,0.103 -0.05,0.208 -0.066,0.314 z m -1.682,8.004 -4.012,7.175 c -0.658,1.181 -0.446,2.657 0.518,3.606 l 5.602,5.493 c 0.797,0.743 0.901,1.969 0.241,2.836 -0.759,0.845 -2.059,0.914 -2.904,0.154 -0.007,-0.006 -0.015,-0.013 -0.022,-0.02 l -12.04,-11.779 c -0.395,-0.386 -1.028,-0.379 -1.414,0.016 -0.386,0.395 -0.379,1.028 0.016,1.414 l 3.247,3.177 c -2.753,1.524 -7.886,2.43 -11.021,2.819 0.719,-2.44 0.368,-5.071 -0.968,-7.236 -0.289,-0.47 -0.905,-0.617 -1.376,-0.327 -0.47,0.289 -0.616,0.905 -0.327,1.376 2.025,3.295 0.995,7.607 -2.3,9.631 -1.102,0.677 -2.37,1.036 -3.663,1.036 h -0.202 c -0.553,0 -1,0.448 -1,1 0,0.552 0.447,1 1,1 h 9 c 1.104,0 2,0.895 2,2 0,1.105 -0.896,2 -2,2 h -13 c -1.104,-10e-4 -1.999,-0.896 -2,-2 0,-3.995 -1.92,-5.865 -3.614,-7.515 -1.741,-1.697 -3.386,-3.299 -3.386,-7.31 0,-3.191 0.29,-4.541 1.41,-6.568 1.504,-2.671 3.605,-4.957 6.14,-6.68 l 3.783,-2.601 c 3.023,-2.074 6.497,-3.399 10.134,-3.864 l 5.782,-0.639 c 1.47,-0.168 2.814,-0.909 3.741,-2.063 l 13.896,9.597 -0.062,0.545 c -0.146,1.31 -0.554,2.577 -1.198,3.727 z m 11.189,-12.79 -2.078,1.53 c -0.692,0.51 -1.529,0.785 -2.389,0.785 h -2.273 c -0.566,0.002 -1.117,0.177 -1.58,0.502 l -12.61,-8.71 1.953,-3.34 c 1.327,-2.27 3.327,-4.072 5.722,-5.156 l 2.082,-0.942 c 0.544,-0.245 1.032,-0.598 1.436,-1.037 l 3.782,-3.436 c 0.004,-0.004 0.01,-0.003 0.014,0.001 10e-4,0.002 0.002,0.004 0.002,0.007 v 4.47 c 10e-4,0.443 0.293,0.833 0.718,0.959 1.393,0.34 2.638,1.122 3.55,2.229 0.84,0.958 1.264,2.211 1.179,3.482 l -0.354,5.191 c -0.034,0.498 0.149,0.986 0.502,1.338 l 0.469,0.469 c 0.428,0.428 0.428,1.122 0,1.551 -0.039,0.038 -0.081,0.074 -0.125,0.107 z"
             id="path148" />
          <path
             d="m 518.004,255.5 c 0,0.828 -0.672,1.5 -1.5,1.5 -0.829,0 -1.5,-0.672 -1.5,-1.5 0,-0.828 0.671,-1.5 1.5,-1.5 0.828,0 1.5,0.672 1.5,1.5 z"
             id="path150" />
        </g>
      </g>
    </g>
    <text
       fill="#c00000"
       font-family="Calibri, Calibri_MSFontService, sans-serif"
       font-weight="400"
       font-size="27px"
       transform="translate(71.056,670)"
       id="text158">4</text>
    <text
       font-family="Calibri, Calibri_MSFontService, sans-serif"
       font-weight="400"
       font-size="27px"
       transform="translate(90.556,670)"
       id="text160">possible cat choices</text>
    <text
       font-family="Calibri, Calibri_MSFontService, sans-serif"
       font-weight="400"
       font-size="32px"
       transform="translate(106.393,209)"
       id="text162">1</text>
    <text
       font-family="Calibri, Calibri_MSFontService, sans-serif"
       font-weight="400"
       font-size="21px"
       transform="translate(122.559,199)"
       id="text164">st</text>
    <text
       font-family="Calibri, Calibri_MSFontService, sans-serif"
       font-weight="400"
       font-size="32px"
       transform="translate(144.986,209)"
       id="text166">position</text>
    <text
       font-family="Calibri, Calibri_MSFontService, sans-serif"
       font-weight="400"
       font-size="32px"
       transform="translate(404.37,208)"
       id="text168">2</text>
    <text
       font-family="Calibri, Calibri_MSFontService, sans-serif"
       font-weight="400"
       font-size="21px"
       transform="translate(420.537,198)"
       id="text170">nd</text>
    <text
       font-family="Calibri, Calibri_MSFontService, sans-serif"
       font-weight="400"
       font-size="32px"
       transform="translate(450.037,208)"
       id="text172">position</text>
    <text
       fill="#c00000"
       font-family="Calibri, Calibri_MSFontService, sans-serif"
       font-weight="400"
       font-size="27px"
       transform="translate(375.471,552)"
       id="text174">3</text>
    <text
       font-family="Calibri, Calibri_MSFontService, sans-serif"
       font-weight="400"
       font-size="27px"
       transform="translate(394.971,552)"
       id="text176">possible cat choices</text>
    <text
       font-family="'Cambria Math', 'Cambria Math_MSFontService', sans-serif"
       font-weight="400"
       font-size="37px"
       transform="translate(696.458,327)"
       id="text178">𝑃</text>
    <text
       font-family="'Cambria Math', 'Cambria Math_MSFontService', sans-serif"
       font-weight="400"
       font-size="27px"
       transform="translate(712.331,334)"
       id="text180">𝑟</text>
    <text
       font-family="'Cambria Math', 'Cambria Math_MSFontService', sans-serif"
       font-weight="400"
       font-size="27px"
       transform="translate(720.538,313)"
       id="text182">𝑛</text>
    <text
       font-family="Calibri, Calibri_MSFontService, sans-serif"
       font-weight="400"
       font-size="37px"
       transform="translate(748.718,327)"
       id="text184">=</text>
    <text
       font-family="'Cambria Math', 'Cambria Math_MSFontService', sans-serif"
       font-weight="400"
       font-size="22px"
       transform="translate(799.851,311)"
       id="text186">𝑛</text>
    <text
       font-family="'Cambria Math', 'Cambria Math_MSFontService', sans-serif"
       font-weight="400"
       font-size="22px"
       transform="translate(815.684,311)"
       id="text188">!</text>
    <path
       d="m 831.049,323.982 c 2.091,0.552 3.697,1.742 4.818,3.572 1.121,1.83 1.681,4.038 1.681,6.623 0,2.592 -0.558,4.8 -1.676,6.622 -1.117,1.823 -2.725,3.01 -4.823,3.561 l -0.258,-0.827 c 1.655,-0.551 2.885,-1.64 3.69,-3.265 0.806,-1.626 1.209,-3.692 1.209,-6.199 0,-2.42 -0.401,-4.431 -1.203,-6.031 -0.802,-1.601 -2.045,-2.677 -3.728,-3.228 z m -46.732,0 0.29,0.828 c -1.676,0.551 -2.917,1.627 -3.722,3.228 -0.806,1.6 -1.209,3.611 -1.209,6.031 0,2.507 0.403,4.573 1.209,6.199 0.805,1.625 2.035,2.714 3.69,3.265 l -0.258,0.827 c -2.098,-0.551 -3.706,-1.738 -4.823,-3.561 -1.118,-1.822 -1.676,-4.03 -1.676,-6.622 0,-2.585 0.56,-4.793 1.681,-6.623 1.121,-1.83 2.727,-3.02 4.818,-3.572 z"
       fill-rule="evenodd"
       id="path190" />
    <text
       font-family="'Cambria Math', 'Cambria Math_MSFontService', sans-serif"
       font-weight="400"
       font-size="22px"
       transform="translate(785.184,340)"
       id="text192">𝑛</text>
    <text
       font-family="'Cambria Math', 'Cambria Math_MSFontService', sans-serif"
       font-weight="400"
       font-size="22px"
       transform="translate(801.018,340)"
       id="text194">−</text>
    <text
       font-family="'Cambria Math', 'Cambria Math_MSFontService', sans-serif"
       font-weight="400"
       font-size="22px"
       transform="translate(817.684,340)"
       id="text196">𝑟</text>
    <text
       font-family="'Cambria Math', 'Cambria Math_MSFontService', sans-serif"
       font-weight="400"
       font-size="22px"
       transform="translate(839.651,340)"
       id="text198">!</text>
    <path
       d="m 775.458,317.792 h 35 35 v 2 h -35 -35 z"
       fill-rule="evenodd"
       id="path200" />
    <text
       font-family="'Cambria Math', 'Cambria Math_MSFontService', sans-serif"
       font-weight="400"
       font-size="37px"
       transform="translate(694.959,395)"
       id="text202">𝑃</text>
    <text
       font-family="'Cambria Math', 'Cambria Math_MSFontService', sans-serif"
       font-weight="400"
       font-size="27px"
       transform="translate(714.113,403)"
       id="text204">2</text>
    <text
       font-family="'Cambria Math', 'Cambria Math_MSFontService', sans-serif"
       font-weight="400"
       font-size="27px"
       transform="translate(719.039,380)"
       id="text206">4</text>
    <text
       font-family="Calibri, Calibri_MSFontService, sans-serif"
       font-weight="400"
       font-size="37px"
       transform="translate(744.919,395)"
       id="text208">=</text>
    <text
       font-family="'Cambria Math', 'Cambria Math_MSFontService', sans-serif"
       font-weight="400"
       font-size="22px"
       transform="translate(796.386,379)"
       id="text210">4</text>
    <text
       font-family="'Cambria Math', 'Cambria Math_MSFontService', sans-serif"
       font-weight="400"
       font-size="22px"
       transform="translate(809.719,379)"
       id="text212">!</text>
    <path
       d="m 825.418,391.808 c 2.091,0.552 3.697,1.742 4.817,3.572 1.121,1.83 1.682,4.037 1.682,6.622 0,2.593 -0.559,4.8 -1.676,6.623 -1.117,1.823 -2.725,3.01 -4.823,3.561 l -0.258,-0.827 c 1.654,-0.552 2.884,-1.64 3.69,-3.266 0.805,-1.625 1.208,-3.691 1.208,-6.198 0,-2.421 -0.401,-4.431 -1.203,-6.032 -0.802,-1.6 -2.045,-2.676 -3.727,-3.228 z m -44.899,0 0.29,0.827 c -1.676,0.552 -2.917,1.628 -3.723,3.228 -0.805,1.601 -1.208,3.611 -1.208,6.032 0,2.507 0.403,4.573 1.208,6.198 0.806,1.626 2.036,2.714 3.69,3.266 l -0.257,0.827 c -2.099,-0.551 -3.706,-1.738 -4.824,-3.561 -1.117,-1.823 -1.675,-4.03 -1.675,-6.623 0,-2.585 0.56,-4.792 1.681,-6.622 1.121,-1.83 2.726,-3.02 4.818,-3.572 z"
       fill-rule="evenodd"
       id="path214" />
    <text
       font-family="'Cambria Math', 'Cambria Math_MSFontService', sans-serif"
       font-weight="400"
       font-size="22px"
       transform="translate(781.386,408)"
       id="text216">4</text>
    <text
       font-family="'Cambria Math', 'Cambria Math_MSFontService', sans-serif"
       font-weight="400"
       font-size="22px"
       transform="translate(794.719,408)"
       id="text218">−</text>
    <text
       font-family="'Cambria Math', 'Cambria Math_MSFontService', sans-serif"
       font-weight="400"
       font-size="22px"
       transform="translate(811.386,408)"
       id="text220">2</text>
    <text
       font-family="'Cambria Math', 'Cambria Math_MSFontService', sans-serif"
       font-weight="400"
       font-size="22px"
       transform="translate(834.019,408)"
       id="text222">!</text>
    <path
       d="m 771.959,385.617 h 68 v 2 h -68 z"
       fill-rule="evenodd"
       id="path224" />
    <text
       font-family="'Cambria Math', 'Cambria Math_MSFontService', sans-serif"
       font-weight="400"
       font-size="27px"
       transform="translate(840.353,395)"
       id="text226" />
    <text
       font-family="Calibri, Calibri_MSFontService, sans-serif"
       font-weight="400"
       font-size="37px"
       transform="translate(846.353,395)"
       id="text228">=</text>
    <text
       font-family="'Cambria Math', 'Cambria Math_MSFontService', sans-serif"
       font-weight="400"
       font-size="22px"
       transform="translate(873.519,379)"
       id="text230">4</text>
    <text
       font-family="'Cambria Math', 'Cambria Math_MSFontService', sans-serif"
       font-weight="400"
       font-size="22px"
       transform="translate(886.853,379)"
       id="text232">×</text>
    <text
       font-family="'Cambria Math', 'Cambria Math_MSFontService', sans-serif"
       font-weight="400"
       font-size="22px"
       transform="translate(902.853,379)"
       id="text234">3</text>
    <text
       font-family="'Cambria Math', 'Cambria Math_MSFontService', sans-serif"
       font-weight="400"
       font-size="22px"
       transform="translate(916.186,379)"
       id="text236">×</text>
    <text
       font-family="'Cambria Math', 'Cambria Math_MSFontService', sans-serif"
       font-weight="400"
       font-size="22px"
       transform="translate(932.186,379)"
       id="text238">2</text>
    <text
       font-family="'Cambria Math', 'Cambria Math_MSFontService', sans-serif"
       font-weight="400"
       font-size="22px"
       transform="translate(945.519,379)"
       id="text240">×</text>
    <text
       font-family="'Cambria Math', 'Cambria Math_MSFontService', sans-serif"
       font-weight="400"
       font-size="22px"
       transform="translate(961.519,379)"
       id="text242">1</text>
    <text
       font-family="'Cambria Math', 'Cambria Math_MSFontService', sans-serif"
       font-weight="400"
       font-size="22px"
       transform="translate(902.853,408)"
       id="text244">2</text>
    <text
       font-family="'Cambria Math', 'Cambria Math_MSFontService', sans-serif"
       font-weight="400"
       font-size="22px"
       transform="translate(916.186,408)"
       id="text246">×</text>
    <text
       font-family="'Cambria Math', 'Cambria Math_MSFontService', sans-serif"
       font-weight="400"
       font-size="22px"
       transform="translate(932.186,408)"
       id="text248">1</text>
    <path
       d="m 873.959,385.617 h 101 v 2 h -101 z"
       fill-rule="evenodd"
       id="path250" />
    <text
       font-family="Calibri, Calibri_MSFontService, sans-serif"
       font-weight="400"
       font-size="37px"
       transform="translate(983.353,395)"
       id="text252">=</text>
    <text
       fill="#c00000"
       font-family="Calibri, Calibri_MSFontService, sans-serif"
       font-weight="400"
       font-size="37px"
       transform="translate(1010.52,395)"
       id="text254">4</text>
    <text
       font-family="'Cambria Math', 'Cambria Math_MSFontService', sans-serif"
       font-weight="400"
       font-size="37px"
       transform="translate(1038.02,395)"
       id="text256">×</text>
    <text
       fill="#c00000"
       font-family="Calibri, Calibri_MSFontService, sans-serif"
       font-weight="400"
       font-size="37px"
       transform="translate(1073.19,395)"
       id="text258">3</text>
    <text
       font-family="Calibri, Calibri_MSFontService, sans-serif"
       font-weight="400"
       font-size="37px"
       transform="translate(1100.69,395)"
       id="text260">= 12</text>
    <text
       font-family="Calibri, Calibri_MSFontService, sans-serif"
       font-weight="400"
       font-size="37px"
       transform="translate(43.8394,119)"
       id="text262">How</text>
    <text
       font-family="Calibri, Calibri_MSFontService, sans-serif"
       font-weight="400"
       font-size="37px"
       transform="translate(121.859,119)"
       id="text264">many</text>
    <text
       font-family="Calibri, Calibri_MSFontService, sans-serif"
       font-weight="400"
       font-size="37px"
       transform="translate(213.833,119)"
       id="text266">ordered</text>
    <text
       font-family="Calibri, Calibri_MSFontService, sans-serif"
       font-weight="400"
       font-size="37px"
       transform="translate(343.326,119)"
       id="text268">pairwise arrangements can</text>
    <text
       font-family="Calibri, Calibri_MSFontService, sans-serif"
       font-weight="400"
       font-size="37px"
       transform="translate(760.466,119)"
       id="text270">be</text>
    <text
       font-family="Calibri, Calibri_MSFontService, sans-serif"
       font-weight="400"
       font-size="37px"
       transform="translate(807.133,119)"
       id="text272">formed</text>
    <text
       font-family="Calibri, Calibri_MSFontService, sans-serif"
       font-weight="400"
       font-size="37px"
       transform="translate(926.846,119)"
       id="text274">wit</text>
    <text
       font-family="Calibri, Calibri_MSFontService, sans-serif"
       font-weight="400"
       font-size="37px"
       transform="translate(974.513,119)"
       id="text276">h</text>
    <text
       font-family="Calibri, Calibri_MSFontService, sans-serif"
       font-weight="400"
       font-size="37px"
       transform="translate(1002.68,119)"
       id="text278">4 distinct cats?</text>
  </g>
</svg>
