<?xml version="1.0" encoding="UTF-8" standalone="no"?>
<svg
   width="1280"
   height="580"
   overflow="hidden"
   version="1.1"
   id="svg257"
   sodipodi:docname="combinatorics-lattice_path.svg"
   inkscape:version="1.2 (dc2aedaf03, 2022-05-15)"
   xmlns:inkscape="http://www.inkscape.org/namespaces/inkscape"
   xmlns:sodipodi="http://sodipodi.sourceforge.net/DTD/sodipodi-0.dtd"
   xmlns="http://www.w3.org/2000/svg"
   xmlns:svg="http://www.w3.org/2000/svg">
  <sodipodi:namedview
     id="namedview259"
     pagecolor="#ffffff"
     bordercolor="#000000"
     borderopacity="0.25"
     inkscape:showpageshadow="2"
     inkscape:pageopacity="0.0"
     inkscape:pagecheckerboard="0"
     inkscape:deskcolor="#d1d1d1"
     showgrid="false"
     inkscape:zoom="0.92709556"
     inkscape:cx="910.37002"
     inkscape:cy="379.68039"
     inkscape:window-width="2560"
     inkscape:window-height="1494"
     inkscape:window-x="-11"
     inkscape:window-y="-11"
     inkscape:window-maximized="1"
     inkscape:current-layer="svg257" />
  <defs
     id="defs5">
    <clipPath
       id="clip0">
      <rect
         x="0"
         y="0"
         width="1280"
         height="720"
         id="rect2" />
    </clipPath>
  </defs>
  <g
     clip-path="url(#clip0)"
     id="g255"
     transform="translate(30.201849,-71.190072)">
    <rect
       x="0"
       y="0"
       width="1280"
       height="720"
       fill="#ffffff"
       id="rect7" />
    <text
       font-family="Calibri, Calibri_MSFontService, sans-serif"
       font-weight="400"
       font-size="37px"
       transform="translate(468.163,135)"
       id="text9">The lattice path</text>
    <rect
       x="119"
       y="360"
       width="75"
       height="76"
       stroke="#ededed"
       stroke-width="4"
       stroke-miterlimit="8"
       fill="none"
       id="rect11" />
    <rect
       x="194"
       y="360"
       width="76"
       height="76"
       stroke="#ededed"
       stroke-width="4"
       stroke-miterlimit="8"
       fill="none"
       id="rect13" />
    <rect
       x="194"
       y="284"
       width="76"
       height="76"
       stroke="#ededed"
       stroke-width="4"
       stroke-miterlimit="8"
       fill="none"
       id="rect15" />
    <rect
       x="194"
       y="209"
       width="76"
       height="75"
       stroke="#ededed"
       stroke-width="4"
       stroke-miterlimit="8"
       fill="none"
       id="rect17" />
    <rect
       x="118"
       y="284"
       width="76"
       height="76"
       stroke="#ededed"
       stroke-width="4"
       stroke-miterlimit="8"
       fill="none"
       id="rect19" />
    <rect
       x="118"
       y="209"
       width="76"
       height="75"
       stroke="#ededed"
       stroke-width="4"
       stroke-miterlimit="8"
       fill="none"
       id="rect21" />
    <rect
       x="269"
       y="360"
       width="76"
       height="76"
       stroke="#ededed"
       stroke-width="4"
       stroke-miterlimit="8"
       fill="none"
       id="rect23" />
    <rect
       x="344"
       y="360"
       width="76"
       height="76"
       stroke="#ededed"
       stroke-width="4"
       stroke-miterlimit="8"
       fill="none"
       id="rect25" />
    <rect
       x="344"
       y="284"
       width="76"
       height="76"
       stroke="#ededed"
       stroke-width="4"
       stroke-miterlimit="8"
       fill="none"
       id="rect27" />
    <rect
       x="344"
       y="209"
       width="76"
       height="75"
       stroke="#ededed"
       stroke-width="4"
       stroke-miterlimit="8"
       fill="none"
       id="rect29" />
    <rect
       x="269"
       y="284"
       width="75"
       height="76"
       stroke="#ededed"
       stroke-width="4"
       stroke-miterlimit="8"
       fill="none"
       id="rect31" />
    <rect
       x="269"
       y="209"
       width="75"
       height="75"
       stroke="#ededed"
       stroke-width="4"
       stroke-miterlimit="8"
       fill="none"
       id="rect33" />
    <rect
       x="467"
       y="360"
       width="75"
       height="76"
       stroke="#ededed"
       stroke-width="4"
       stroke-miterlimit="8"
       fill="none"
       id="rect35" />
    <rect
       x="542"
       y="360"
       width="75"
       height="76"
       stroke="#ededed"
       stroke-width="4"
       stroke-miterlimit="8"
       fill="none"
       id="rect37" />
    <rect
       x="542"
       y="284"
       width="75"
       height="76"
       stroke="#ededed"
       stroke-width="4"
       stroke-miterlimit="8"
       fill="none"
       id="rect39" />
    <rect
       x="542"
       y="209"
       width="75"
       height="75"
       stroke="#ededed"
       stroke-width="4"
       stroke-miterlimit="8"
       fill="none"
       id="rect41" />
    <rect
       x="466"
       y="284"
       width="76"
       height="76"
       stroke="#ededed"
       stroke-width="4"
       stroke-miterlimit="8"
       fill="none"
       id="rect43" />
    <rect
       x="466"
       y="209"
       width="76"
       height="75"
       stroke="#ededed"
       stroke-width="4"
       stroke-miterlimit="8"
       fill="none"
       id="rect45" />
    <rect
       x="617"
       y="360"
       width="76"
       height="76"
       stroke="#ededed"
       stroke-width="4"
       stroke-miterlimit="8"
       fill="none"
       id="rect47" />
    <rect
       x="692"
       y="360"
       width="76"
       height="76"
       stroke="#ededed"
       stroke-width="4"
       stroke-miterlimit="8"
       fill="none"
       id="rect49" />
    <rect
       x="692"
       y="284"
       width="76"
       height="76"
       stroke="#ededed"
       stroke-width="4"
       stroke-miterlimit="8"
       fill="none"
       id="rect51" />
    <rect
       x="692"
       y="209"
       width="76"
       height="75"
       stroke="#ededed"
       stroke-width="4"
       stroke-miterlimit="8"
       fill="none"
       id="rect53" />
    <rect
       x="617"
       y="284"
       width="75"
       height="76"
       stroke="#ededed"
       stroke-width="4"
       stroke-miterlimit="8"
       fill="none"
       id="rect55" />
    <rect
       x="617"
       y="209"
       width="75"
       height="75"
       stroke="#ededed"
       stroke-width="4"
       stroke-miterlimit="8"
       fill="none"
       id="rect57" />
    <rect
       x="814"
       y="360"
       width="76"
       height="76"
       stroke="#ededed"
       stroke-width="4"
       stroke-miterlimit="8"
       fill="none"
       id="rect59" />
    <rect
       x="890"
       y="360"
       width="75"
       height="76"
       stroke="#ededed"
       stroke-width="4"
       stroke-miterlimit="8"
       fill="none"
       id="rect61" />
    <rect
       x="889"
       y="284"
       width="76"
       height="76"
       stroke="#ededed"
       stroke-width="4"
       stroke-miterlimit="8"
       fill="none"
       id="rect63" />
    <rect
       x="890"
       y="209"
       width="75"
       height="75"
       stroke="#ededed"
       stroke-width="4"
       stroke-miterlimit="8"
       fill="none"
       id="rect65" />
    <rect
       x="814"
       y="284"
       width="75"
       height="76"
       stroke="#ededed"
       stroke-width="4"
       stroke-miterlimit="8"
       fill="none"
       id="rect67" />
    <rect
       x="814"
       y="209"
       width="76"
       height="75"
       stroke="#ededed"
       stroke-width="4"
       stroke-miterlimit="8"
       fill="none"
       id="rect69" />
    <rect
       x="965"
       y="360"
       width="75"
       height="76"
       stroke="#ededed"
       stroke-width="4"
       stroke-miterlimit="8"
       fill="none"
       id="rect71" />
    <rect
       x="1040"
       y="360"
       width="76"
       height="76"
       stroke="#ededed"
       stroke-width="4"
       stroke-miterlimit="8"
       fill="none"
       id="rect73" />
    <rect
       x="1040"
       y="284"
       width="75"
       height="76"
       stroke="#ededed"
       stroke-width="4"
       stroke-miterlimit="8"
       fill="none"
       id="rect75" />
    <rect
       x="1040"
       y="209"
       width="76"
       height="75"
       stroke="#ededed"
       stroke-width="4"
       stroke-miterlimit="8"
       fill="none"
       id="rect77" />
    <rect
       x="964"
       y="284"
       width="76"
       height="76"
       stroke="#ededed"
       stroke-width="4"
       stroke-miterlimit="8"
       fill="none"
       id="rect79" />
    <rect
       x="964"
       y="209"
       width="76"
       height="75"
       stroke="#ededed"
       stroke-width="4"
       stroke-miterlimit="8"
       fill="none"
       id="rect81" />
    <path
       d="M 118,436 H 420.086"
       stroke="#4472c4"
       stroke-width="4"
       stroke-miterlimit="8"
       fill="none"
       fill-rule="evenodd"
       id="path83" />
    <path
       d="m 186.5,436 c 0,-4.142 3.582,-7.5 8,-7.5 4.418,0 8,3.358 8,7.5 0,4.142 -3.582,7.5 -8,7.5 -4.418,0 -8,-3.358 -8,-7.5 z"
       stroke="#000000"
       stroke-width="1.33333"
       stroke-miterlimit="8"
       fill="#4472c4"
       fill-rule="evenodd"
       id="path85" />
    <path
       d="m 261.5,436 c 0,-4.142 3.582,-7.5 8,-7.5 4.418,0 8,3.358 8,7.5 0,4.142 -3.582,7.5 -8,7.5 -4.418,0 -8,-3.358 -8,-7.5 z"
       stroke="#000000"
       stroke-width="1.33333"
       stroke-miterlimit="8"
       fill="#4472c4"
       fill-rule="evenodd"
       id="path87" />
    <path
       d="m 338.5,435.5 c 0,-4.418 3.582,-8 8,-8 4.418,0 8,3.582 8,8 0,4.418 -3.582,8 -8,8 -4.418,0 -8,-3.582 -8,-8 z"
       stroke="#000000"
       stroke-width="1.33333"
       stroke-miterlimit="8"
       fill="#4472c4"
       fill-rule="evenodd"
       id="path89" />
    <path
       d="m 111.5,435.5 c 0,-4.418 3.582,-8 8,-8 4.418,0 8,3.582 8,8 0,4.418 -3.582,8 -8,8 -4.418,0 -8,-3.582 -8,-8 z"
       stroke="#000000"
       stroke-width="1.33333"
       stroke-miterlimit="8"
       fill="#4472c4"
       fill-rule="evenodd"
       id="path91" />
    <path
       d="m 413.5,435.5 c 0,-4.418 3.358,-8 7.5,-8 4.142,0 7.5,3.582 7.5,8 0,4.418 -3.358,8 -7.5,8 -4.142,0 -7.5,-3.582 -7.5,-8 z"
       stroke="#000000"
       stroke-width="1.33333"
       stroke-miterlimit="8"
       fill="#4472c4"
       fill-rule="evenodd"
       id="path93" />
    <path
       d="M 0,0 1.04987e-4,218.606"
       stroke="#c00000"
       stroke-width="4"
       stroke-miterlimit="8"
       fill="none"
       fill-rule="evenodd"
       transform="matrix(1,0,0,-1,420,427.606)"
       id="path95" />
    <text
       font-family="Calibri, Calibri_MSFontService, sans-serif"
       font-weight="400"
       font-size="27px"
       transform="translate(266.107,558)"
       id="text97">Each path can only go up (U) or right (R) to each the destination.</text>
    <text
       font-family="Calibri, Calibri_MSFontService, sans-serif"
       font-weight="400"
       font-size="27px"
       transform="translate(259.754,604)"
       id="text99">The</text>
    <text
       font-family="Calibri, Calibri_MSFontService, sans-serif"
       font-weight="400"
       font-size="27px"
       transform="translate(306.087,604)"
       id="text101">total</text>
    <text
       font-family="Calibri, Calibri_MSFontService, sans-serif"
       font-weight="400"
       font-size="27px"
       transform="translate(362.5,604)"
       id="text103">number</text>
    <text
       font-family="Calibri, Calibri_MSFontService, sans-serif"
       font-weight="400"
       font-size="27px"
       transform="translate(454.5,604)"
       id="text105">of</text>
    <text
       font-family="Calibri, Calibri_MSFontService, sans-serif"
       font-weight="400"
       font-size="27px"
       transform="translate(482.667,604)"
       id="text107">paths</text>
    <text
       font-family="Calibri, Calibri_MSFontService, sans-serif"
       font-weight="400"
       font-size="27px"
       transform="translate(548.754,604)"
       id="text109">is</text>
    <text
       font-family="Calibri, Calibri_MSFontService, sans-serif"
       font-weight="400"
       font-size="27px"
       transform="translate(571.42,604)"
       id="text111">therefore</text>
    <text
       font-family="'Cambria Math', 'Cambria Math_MSFontService', sans-serif"
       font-weight="400"
       font-size="27px"
       transform="translate(679.754,604)"
       id="text113">𝐶</text>
    <text
       font-family="'Cambria Math', 'Cambria Math_MSFontService', sans-serif"
       font-weight="400"
       font-size="20px"
       transform="translate(694.027,610)"
       id="text115">3</text>
    <text
       font-family="'Cambria Math', 'Cambria Math_MSFontService', sans-serif"
       font-weight="400"
       font-size="20px"
       transform="translate(697.154,593)"
       id="text117">7</text>
    <text
       font-family="Calibri, Calibri_MSFontService, sans-serif"
       font-weight="400"
       font-size="27px"
       transform="translate(715.594,604)"
       id="text119">=</text>
    <text
       font-family="'Cambria Math', 'Cambria Math_MSFontService', sans-serif"
       font-weight="400"
       font-size="16px"
       transform="translate(765.067,592)"
       id="text121">7</text>
    <text
       font-family="'Cambria Math', 'Cambria Math_MSFontService', sans-serif"
       font-weight="400"
       font-size="16px"
       transform="translate(774.567,592)"
       id="text123">!</text>
    <path
       d="m 773.075,601.388 c 1.521,0.401 2.689,1.267 3.504,2.598 0.815,1.331 1.222,2.936 1.222,4.816 0,1.886 -0.406,3.491 -1.218,4.817 -0.813,1.325 -1.982,2.188 -3.508,2.589 l -0.188,-0.601 c 1.203,-0.401 2.098,-1.193 2.684,-2.375 0.586,-1.182 0.879,-2.685 0.879,-4.508 0,-1.76 -0.292,-3.223 -0.875,-4.387 -0.583,-1.164 -1.487,-1.946 -2.711,-2.347 z m -32.015,0 0.211,0.602 c -1.219,0.401 -2.121,1.183 -2.707,2.347 -0.586,1.164 -0.879,2.627 -0.879,4.387 0,1.823 0.293,3.326 0.879,4.508 0.586,1.182 1.48,1.974 2.683,2.375 l -0.187,0.601 c -1.526,-0.401 -2.695,-1.264 -3.508,-2.589 -0.812,-1.326 -1.219,-2.931 -1.219,-4.817 0,-1.88 0.408,-3.485 1.223,-4.816 0.815,-1.331 1.983,-2.197 3.504,-2.598 z"
       fill-rule="evenodd"
       id="path125" />
    <text
       font-family="'Cambria Math', 'Cambria Math_MSFontService', sans-serif"
       font-weight="400"
       font-size="16px"
       transform="translate(741.567,613)"
       id="text127">7</text>
    <text
       font-family="'Cambria Math', 'Cambria Math_MSFontService', sans-serif"
       font-weight="400"
       font-size="16px"
       transform="translate(751.067,613)"
       id="text129">−</text>
    <text
       font-family="'Cambria Math', 'Cambria Math_MSFontService', sans-serif"
       font-weight="400"
       font-size="16px"
       transform="translate(763.067,613)"
       id="text131">3</text>
    <text
       font-family="'Cambria Math', 'Cambria Math_MSFontService', sans-serif"
       font-weight="400"
       font-size="16px"
       transform="translate(779.207,613)"
       id="text133">!</text>
    <text
       font-family="'Cambria Math', 'Cambria Math_MSFontService', sans-serif"
       font-weight="400"
       font-size="16px"
       transform="translate(783.707,613)"
       id="text135">×</text>
    <text
       font-family="'Cambria Math', 'Cambria Math_MSFontService', sans-serif"
       font-weight="400"
       font-size="16px"
       transform="translate(795.207,613)"
       id="text137">3</text>
    <text
       font-family="'Cambria Math', 'Cambria Math_MSFontService', sans-serif"
       font-weight="400"
       font-size="16px"
       transform="translate(804.707,613)"
       id="text139">!</text>
    <path
       d="m 734.54,597.577 h 74 v 1 h -74 z"
       fill-rule="evenodd"
       id="path141" />
    <text
       font-family="'Cambria Math', 'Cambria Math_MSFontService', sans-serif"
       font-weight="400"
       font-size="20px"
       transform="translate(809.207,604)"
       id="text143" />
    <text
       font-family="Calibri, Calibri_MSFontService, sans-serif"
       font-weight="400"
       font-size="27px"
       transform="translate(813.54,604)"
       id="text145">=</text>
    <text
       font-family="'Cambria Math', 'Cambria Math_MSFontService', sans-serif"
       font-weight="400"
       font-size="16px"
       transform="translate(863.014,592)"
       id="text147">7</text>
    <text
       font-family="'Cambria Math', 'Cambria Math_MSFontService', sans-serif"
       font-weight="400"
       font-size="16px"
       transform="translate(872.514,592)"
       id="text149">!</text>
    <path
       d="m 871.021,601.388 c 1.521,0.401 2.689,1.267 3.504,2.598 0.816,1.331 1.223,2.936 1.223,4.816 0,1.886 -0.406,3.491 -1.219,4.817 -0.812,1.325 -1.981,2.188 -3.508,2.589 l -0.187,-0.601 c 1.203,-0.401 2.098,-1.193 2.684,-2.375 0.586,-1.182 0.878,-2.685 0.878,-4.508 0,-1.76 -0.291,-3.223 -0.875,-4.387 -0.583,-1.164 -1.486,-1.946 -2.71,-2.347 z m -32.014,0 0.211,0.602 c -1.219,0.401 -2.122,1.183 -2.708,2.347 -0.585,1.164 -0.878,2.627 -0.878,4.387 0,1.823 0.293,3.326 0.878,4.508 0.586,1.182 1.481,1.974 2.684,2.375 l -0.187,0.601 c -1.527,-0.401 -2.696,-1.264 -3.508,-2.589 -0.813,-1.326 -1.219,-2.931 -1.219,-4.817 0,-1.88 0.408,-3.485 1.223,-4.816 0.815,-1.331 1.983,-2.197 3.504,-2.598 z"
       fill-rule="evenodd"
       id="path151" />
    <text
       font-family="'Cambria Math', 'Cambria Math_MSFontService', sans-serif"
       font-weight="400"
       font-size="16px"
       transform="translate(839.514,613)"
       id="text153">7</text>
    <text
       font-family="'Cambria Math', 'Cambria Math_MSFontService', sans-serif"
       font-weight="400"
       font-size="16px"
       transform="translate(849.014,613)"
       id="text155">−</text>
    <text
       font-family="'Cambria Math', 'Cambria Math_MSFontService', sans-serif"
       font-weight="400"
       font-size="16px"
       transform="translate(861.014,613)"
       id="text157">4</text>
    <text
       font-family="'Cambria Math', 'Cambria Math_MSFontService', sans-serif"
       font-weight="400"
       font-size="16px"
       transform="translate(877.154,613)"
       id="text159">!</text>
    <text
       font-family="'Cambria Math', 'Cambria Math_MSFontService', sans-serif"
       font-weight="400"
       font-size="16px"
       transform="translate(881.654,613)"
       id="text161">×</text>
    <text
       font-family="'Cambria Math', 'Cambria Math_MSFontService', sans-serif"
       font-weight="400"
       font-size="16px"
       transform="translate(893.154,613)"
       id="text163">4</text>
    <text
       font-family="'Cambria Math', 'Cambria Math_MSFontService', sans-serif"
       font-weight="400"
       font-size="16px"
       transform="translate(902.654,613)"
       id="text165">!</text>
    <path
       d="m 832.54,597.577 h 74 v 1 h -74 z"
       fill-rule="evenodd"
       id="path167" />
    <text
       font-family="'Cambria Math', 'Cambria Math_MSFontService', sans-serif"
       font-weight="400"
       font-size="20px"
       transform="translate(907.154,604)"
       id="text169" />
    <text
       font-family="Calibri, Calibri_MSFontService, sans-serif"
       font-weight="400"
       font-size="27px"
       transform="translate(911.487,604)"
       id="text171">=</text>
    <text
       font-family="'Cambria Math', 'Cambria Math_MSFontService', sans-serif"
       font-weight="400"
       font-size="27px"
       transform="translate(930.82,604)"
       id="text173">𝐶</text>
    <text
       font-family="'Cambria Math', 'Cambria Math_MSFontService', sans-serif"
       font-weight="400"
       font-size="20px"
       transform="translate(945.094,609)"
       id="text175">4</text>
    <text
       font-family="'Cambria Math', 'Cambria Math_MSFontService', sans-serif"
       font-weight="400"
       font-size="20px"
       transform="translate(948.22,593)"
       id="text177">7</text>
    <text
       font-family="Calibri, Calibri_MSFontService, sans-serif"
       font-weight="400"
       font-size="27px"
       transform="translate(960.66,604)"
       id="text179">.</text>
    <text
       font-family="Calibri, Calibri_MSFontService, sans-serif"
       font-weight="400"
       font-size="27px"
       transform="translate(87.6035,466)"
       id="text181">Start</text>
    <text
       font-family="Calibri, Calibri_MSFontService, sans-serif"
       font-weight="400"
       font-size="27px"
       transform="translate(399.688,197)"
       id="text183">En</text>
    <text
       font-family="Calibri, Calibri_MSFontService, sans-serif"
       font-weight="400"
       font-size="27px"
       transform="translate(426.688,197)"
       id="text185">d</text>
    <path
       d="m 413.5,360 c 0,-4.142 3.358,-7.5 7.5,-7.5 4.142,0 7.5,3.358 7.5,7.5 0,4.142 -3.358,7.5 -7.5,7.5 -4.142,0 -7.5,-3.358 -7.5,-7.5 z"
       stroke="#000000"
       stroke-width="1.33333"
       stroke-miterlimit="8"
       fill="#c00000"
       fill-rule="evenodd"
       id="path187" />
    <path
       d="m 412.5,284 c 0,-4.142 3.582,-7.5 8,-7.5 4.418,0 8,3.358 8,7.5 0,4.142 -3.582,7.5 -8,7.5 -4.418,0 -8,-3.358 -8,-7.5 z"
       stroke="#000000"
       stroke-width="1.33333"
       stroke-miterlimit="8"
       fill="#c00000"
       fill-rule="evenodd"
       id="path189" />
    <path
       d="m 412.5,211 c 0,-4.142 3.358,-7.5 7.5,-7.5 4.142,0 7.5,3.358 7.5,7.5 0,4.142 -3.358,7.5 -7.5,7.5 -4.142,0 -7.5,-3.358 -7.5,-7.5 z"
       stroke="#000000"
       stroke-width="1.33333"
       stroke-miterlimit="8"
       fill="#c00000"
       fill-rule="evenodd"
       id="path191" />
    <text
       fill="#4472c4"
       font-family="Calibri, Calibri_MSFontService, sans-serif"
       font-weight="700"
       font-size="24px"
       transform="translate(219.478,486)"
       id="text193">RRRR</text>
    <text
       fill="#c00000"
       font-family="Calibri, Calibri_MSFontService, sans-serif"
       font-weight="700"
       font-size="24px"
       transform="translate(273.478,486)"
       id="text195">UU</text>
    <text
       fill="#c00000"
       font-family="Calibri, Calibri_MSFontService, sans-serif"
       font-weight="700"
       font-size="24px"
       transform="translate(304.811,486)"
       id="text197">U</text>
    <path
       d="M 0,0 1.04987e-4,144.416"
       stroke="#c00000"
       stroke-width="4"
       stroke-miterlimit="8"
       fill="none"
       fill-rule="evenodd"
       transform="matrix(1,0,0,-1,542,436.416)"
       id="path199" />
    <path
       d="m 534.5,360.5 c 0,-4.418 3.358,-8 7.5,-8 4.142,0 7.5,3.582 7.5,8 0,4.418 -3.358,8 -7.5,8 -4.142,0 -7.5,-3.582 -7.5,-8 z"
       stroke="#000000"
       stroke-width="1.33333"
       stroke-miterlimit="8"
       fill="#c00000"
       fill-rule="evenodd"
       id="path201" />
    <path
       d="M 768.051,276.368 768,213"
       stroke="#c00000"
       stroke-width="4"
       stroke-miterlimit="8"
       fill="none"
       fill-rule="evenodd"
       id="path203" />
    <path
       d="m 761.5,211 c 0,-4.142 3.358,-7.5 7.5,-7.5 4.142,0 7.5,3.358 7.5,7.5 0,4.142 -3.358,7.5 -7.5,7.5 -4.142,0 -7.5,-3.358 -7.5,-7.5 z"
       stroke="#000000"
       stroke-width="1.33333"
       stroke-miterlimit="8"
       fill="#c00000"
       fill-rule="evenodd"
       id="path205" />
    <path
       d="M 0,0 67.8442,0.794856"
       stroke="#4472c4"
       stroke-width="4"
       stroke-miterlimit="8"
       fill="none"
       fill-rule="evenodd"
       transform="matrix(1,0,0,-1,466,436.795)"
       id="path207" />
    <path
       d="m 459.5,435.5 c 0,-4.418 3.358,-8 7.5,-8 4.142,0 7.5,3.582 7.5,8 0,4.418 -3.358,8 -7.5,8 -4.142,0 -7.5,-3.582 -7.5,-8 z"
       stroke="#000000"
       stroke-width="1.33333"
       stroke-miterlimit="8"
       fill="#4472c4"
       fill-rule="evenodd"
       id="path209" />
    <path
       d="m 534.5,436 c 0,-4.142 3.358,-7.5 7.5,-7.5 4.142,0 7.5,3.358 7.5,7.5 0,4.142 -3.358,7.5 -7.5,7.5 -4.142,0 -7.5,-3.358 -7.5,-7.5 z"
       stroke="#000000"
       stroke-width="1.33333"
       stroke-miterlimit="8"
       fill="#4472c4"
       fill-rule="evenodd"
       id="path211" />
    <path
       d="m 760.5,285 c 0,-4.142 3.358,-7.5 7.5,-7.5 4.142,0 7.5,3.358 7.5,7.5 0,4.142 -3.358,7.5 -7.5,7.5 -4.142,0 -7.5,-3.358 -7.5,-7.5 z"
       stroke="#000000"
       stroke-width="1.33333"
       stroke-miterlimit="8"
       fill="#4472c4"
       fill-rule="evenodd"
       id="path213" />
    <path
       d="M 0,0 218.576,0.249029"
       stroke="#4472c4"
       stroke-width="4"
       stroke-miterlimit="8"
       fill="none"
       fill-rule="evenodd"
       transform="matrix(1,0,0,-1,542,284.249)"
       id="path215" />
    <path
       d="m 534.5,285 c 0,-4.142 3.358,-7.5 7.5,-7.5 4.142,0 7.5,3.358 7.5,7.5 0,4.142 -3.358,7.5 -7.5,7.5 -4.142,0 -7.5,-3.358 -7.5,-7.5 z"
       stroke="#000000"
       stroke-width="1.33333"
       stroke-miterlimit="8"
       fill="#c00000"
       fill-rule="evenodd"
       id="path217" />
    <text
       fill="#4472c4"
       font-family="Calibri, Calibri_MSFontService, sans-serif"
       font-weight="700"
       font-size="24px"
       transform="translate(568.032,484)"
       id="text219">R</text>
    <text
       fill="#c00000"
       font-family="Calibri, Calibri_MSFontService, sans-serif"
       font-weight="700"
       font-size="24px"
       transform="translate(581.532,484)"
       id="text221">UU</text>
    <text
       fill="#4472c4"
       font-family="Calibri, Calibri_MSFontService, sans-serif"
       font-weight="700"
       font-size="24px"
       transform="translate(612.865,484)"
       id="text223">RRR</text>
    <text
       fill="#c00000"
       font-family="Calibri, Calibri_MSFontService, sans-serif"
       font-weight="700"
       font-size="24px"
       transform="translate(653.365,484)"
       id="text225">U</text>
    <path
       d="m 609.5,285 c 0,-4.142 3.358,-7.5 7.5,-7.5 4.142,0 7.5,3.358 7.5,7.5 0,4.142 -3.358,7.5 -7.5,7.5 -4.142,0 -7.5,-3.358 -7.5,-7.5 z"
       stroke="#000000"
       stroke-width="1.33333"
       stroke-miterlimit="8"
       fill="#4472c4"
       fill-rule="evenodd"
       id="path227" />
    <path
       d="m 685.5,285 c 0,-4.142 3.358,-7.5 7.5,-7.5 4.142,0 7.5,3.358 7.5,7.5 0,4.142 -3.358,7.5 -7.5,7.5 -4.142,0 -7.5,-3.358 -7.5,-7.5 z"
       stroke="#000000"
       stroke-width="1.33333"
       stroke-miterlimit="8"
       fill="#4472c4"
       fill-rule="evenodd"
       id="path229" />
    <path
       d="M 0,0 1.04987e-4,218.606"
       stroke="#c00000"
       stroke-width="4"
       stroke-miterlimit="8"
       fill="none"
       fill-rule="evenodd"
       transform="matrix(1,0,0,-1,815,427.606)"
       id="path231" />
    <path
       d="m 807.5,360 c 0,-4.142 3.358,-7.5 7.5,-7.5 4.142,0 7.5,3.358 7.5,7.5 0,4.142 -3.358,7.5 -7.5,7.5 -4.142,0 -7.5,-3.358 -7.5,-7.5 z"
       stroke="#000000"
       stroke-width="1.33333"
       stroke-miterlimit="8"
       fill="#c00000"
       fill-rule="evenodd"
       id="path233" />
    <path
       d="m 807.5,284 c 0,-4.142 3.358,-7.5 7.5,-7.5 4.142,0 7.5,3.358 7.5,7.5 0,4.142 -3.358,7.5 -7.5,7.5 -4.142,0 -7.5,-3.358 -7.5,-7.5 z"
       stroke="#000000"
       stroke-width="1.33333"
       stroke-miterlimit="8"
       fill="#c00000"
       fill-rule="evenodd"
       id="path235" />
    <path
       d="m 808.5,435.5 c 0,-4.418 3.358,-8 7.5,-8 4.142,0 7.5,3.582 7.5,8 0,4.418 -3.358,8 -7.5,8 -4.142,0 -7.5,-3.582 -7.5,-8 z"
       stroke="#000000"
       stroke-width="1.33333"
       stroke-miterlimit="8"
       fill="#c00000"
       fill-rule="evenodd"
       id="path237" />
    <path
       d="m 813,210 h 302.09"
       stroke="#4472c4"
       stroke-width="4"
       stroke-miterlimit="8"
       fill="none"
       fill-rule="evenodd"
       id="path239" />
    <path
       d="m 881.5,211 c 0,-4.142 3.358,-7.5 7.5,-7.5 4.142,0 7.5,3.358 7.5,7.5 0,4.142 -3.358,7.5 -7.5,7.5 -4.142,0 -7.5,-3.358 -7.5,-7.5 z"
       stroke="#000000"
       stroke-width="1.33333"
       stroke-miterlimit="8"
       fill="#4472c4"
       fill-rule="evenodd"
       id="path241" />
    <path
       d="m 956.5,211 c 0,-4.142 3.358,-7.5 7.5,-7.5 4.142,0 7.5,3.358 7.5,7.5 0,4.142 -3.358,7.5 -7.5,7.5 -4.142,0 -7.5,-3.358 -7.5,-7.5 z"
       stroke="#000000"
       stroke-width="1.33333"
       stroke-miterlimit="8"
       fill="#4472c4"
       fill-rule="evenodd"
       id="path243" />
    <path
       d="m 1033.5,210 c 0,-4.142 3.36,-7.5 7.5,-7.5 4.14,0 7.5,3.358 7.5,7.5 0,4.142 -3.36,7.5 -7.5,7.5 -4.14,0 -7.5,-3.358 -7.5,-7.5 z"
       stroke="#000000"
       stroke-width="1.33333"
       stroke-miterlimit="8"
       fill="#4472c4"
       fill-rule="evenodd"
       id="path245" />
    <path
       d="m 1108.5,210 c 0,-4.142 3.36,-7.5 7.5,-7.5 4.14,0 7.5,3.358 7.5,7.5 0,4.142 -3.36,7.5 -7.5,7.5 -4.14,0 -7.5,-3.358 -7.5,-7.5 z"
       stroke="#000000"
       stroke-width="1.33333"
       stroke-miterlimit="8"
       fill="#4472c4"
       fill-rule="evenodd"
       id="path247" />
    <path
       d="m 806.5,211 c 0,-4.142 3.358,-7.5 7.5,-7.5 4.142,0 7.5,3.358 7.5,7.5 0,4.142 -3.358,7.5 -7.5,7.5 -4.142,0 -7.5,-3.358 -7.5,-7.5 z"
       stroke="#000000"
       stroke-width="1.33333"
       stroke-miterlimit="8"
       fill="#c00000"
       fill-rule="evenodd"
       id="path249" />
    <text
       fill="#c00000"
       font-family="Calibri, Calibri_MSFontService, sans-serif"
       font-weight="700"
       font-size="24px"
       transform="translate(933.881,486)"
       id="text251">UUU</text>
    <text
       fill="#4472c4"
       font-family="Calibri, Calibri_MSFontService, sans-serif"
       font-weight="700"
       font-size="24px"
       transform="translate(980.881,486)"
       id="text253">RRRR</text>
  </g>
</svg>
