<?xml version="1.0" encoding="UTF-8" standalone="no"?>
<svg
   width="1280"
   height="620"
   overflow="hidden"
   version="1.1"
   id="svg421"
   sodipodi:docname="combinatorics-pascal_identity.svg"
   inkscape:version="1.2 (dc2aedaf03, 2022-05-15)"
   xmlns:inkscape="http://www.inkscape.org/namespaces/inkscape"
   xmlns:sodipodi="http://sodipodi.sourceforge.net/DTD/sodipodi-0.dtd"
   xmlns="http://www.w3.org/2000/svg"
   xmlns:svg="http://www.w3.org/2000/svg">
  <sodipodi:namedview
     id="namedview423"
     pagecolor="#ffffff"
     bordercolor="#000000"
     borderopacity="0.25"
     inkscape:showpageshadow="2"
     inkscape:pageopacity="0.0"
     inkscape:pagecheckerboard="0"
     inkscape:deskcolor="#d1d1d1"
     showgrid="false"
     inkscape:zoom="1.3111111"
     inkscape:cx="691.77966"
     inkscape:cy="318.05085"
     inkscape:window-width="2560"
     inkscape:window-height="1494"
     inkscape:window-x="-11"
     inkscape:window-y="-11"
     inkscape:window-maximized="1"
     inkscape:current-layer="svg421" />
  <defs
     id="defs149">
    <clipPath
       id="clip0">
      <rect
         x="0"
         y="0"
         width="1280"
         height="720"
         id="rect2" />
    </clipPath>
    <clipPath
       id="clip1">
      <rect
         x="623"
         y="146"
         width="75"
         height="76"
         id="rect5" />
    </clipPath>
    <clipPath
       id="clip2">
      <rect
         x="623"
         y="146"
         width="75"
         height="76"
         id="rect8" />
    </clipPath>
    <clipPath
       id="clip3">
      <rect
         x="623"
         y="146"
         width="75"
         height="76"
         id="rect11" />
    </clipPath>
    <clipPath
       id="clip4">
      <rect
         x="149"
         y="155"
         width="75"
         height="76"
         id="rect14" />
    </clipPath>
    <clipPath
       id="clip5">
      <rect
         x="149"
         y="155"
         width="75"
         height="76"
         id="rect17" />
    </clipPath>
    <clipPath
       id="clip6">
      <rect
         x="149"
         y="155"
         width="75"
         height="76"
         id="rect20" />
    </clipPath>
    <clipPath
       id="clip7">
      <rect
         x="195"
         y="415"
         width="76"
         height="75"
         id="rect23" />
    </clipPath>
    <clipPath
       id="clip8">
      <rect
         x="195"
         y="415"
         width="76"
         height="75"
         id="rect26" />
    </clipPath>
    <clipPath
       id="clip9">
      <rect
         x="195"
         y="415"
         width="76"
         height="75"
         id="rect29" />
    </clipPath>
    <clipPath
       id="clip10">
      <rect
         x="150"
         y="415"
         width="76"
         height="75"
         id="rect32" />
    </clipPath>
    <clipPath
       id="clip11">
      <rect
         x="150"
         y="415"
         width="76"
         height="75"
         id="rect35" />
    </clipPath>
    <clipPath
       id="clip12">
      <rect
         x="150"
         y="415"
         width="76"
         height="75"
         id="rect38" />
    </clipPath>
    <clipPath
       id="clip13">
      <rect
         x="105"
         y="415"
         width="76"
         height="75"
         id="rect41" />
    </clipPath>
    <clipPath
       id="clip14">
      <rect
         x="105"
         y="415"
         width="76"
         height="75"
         id="rect44" />
    </clipPath>
    <clipPath
       id="clip15">
      <rect
         x="105"
         y="415"
         width="76"
         height="75"
         id="rect47" />
    </clipPath>
    <clipPath
       id="clip16">
      <rect
         x="504"
         y="146"
         width="76"
         height="76"
         id="rect50" />
    </clipPath>
    <clipPath
       id="clip17">
      <rect
         x="504"
         y="146"
         width="76"
         height="76"
         id="rect53" />
    </clipPath>
    <clipPath
       id="clip18">
      <rect
         x="504"
         y="146"
         width="76"
         height="76"
         id="rect56" />
    </clipPath>
    <clipPath
       id="clip19">
      <rect
         x="563"
         y="146"
         width="76"
         height="76"
         id="rect59" />
    </clipPath>
    <clipPath
       id="clip20">
      <rect
         x="563"
         y="146"
         width="76"
         height="76"
         id="rect62" />
    </clipPath>
    <clipPath
       id="clip21">
      <rect
         x="563"
         y="146"
         width="76"
         height="76"
         id="rect65" />
    </clipPath>
    <clipPath
       id="clip22">
      <rect
         x="503"
         y="233"
         width="76"
         height="75"
         id="rect68" />
    </clipPath>
    <clipPath
       id="clip23">
      <rect
         x="503"
         y="233"
         width="76"
         height="75"
         id="rect71" />
    </clipPath>
    <clipPath
       id="clip24">
      <rect
         x="503"
         y="233"
         width="76"
         height="75"
         id="rect74" />
    </clipPath>
    <clipPath
       id="clip25">
      <rect
         x="564"
         y="233"
         width="75"
         height="75"
         id="rect77" />
    </clipPath>
    <clipPath
       id="clip26">
      <rect
         x="564"
         y="233"
         width="75"
         height="75"
         id="rect80" />
    </clipPath>
    <clipPath
       id="clip27">
      <rect
         x="564"
         y="233"
         width="75"
         height="75"
         id="rect83" />
    </clipPath>
    <clipPath
       id="clip28">
      <rect
         x="503"
         y="317"
         width="76"
         height="76"
         id="rect86" />
    </clipPath>
    <clipPath
       id="clip29">
      <rect
         x="503"
         y="317"
         width="76"
         height="76"
         id="rect89" />
    </clipPath>
    <clipPath
       id="clip30">
      <rect
         x="503"
         y="317"
         width="76"
         height="76"
         id="rect92" />
    </clipPath>
    <clipPath
       id="clip31">
      <rect
         x="564"
         y="317"
         width="76"
         height="76"
         id="rect95" />
    </clipPath>
    <clipPath
       id="clip32">
      <rect
         x="564"
         y="317"
         width="76"
         height="76"
         id="rect98" />
    </clipPath>
    <clipPath
       id="clip33">
      <rect
         x="564"
         y="317"
         width="76"
         height="76"
         id="rect101" />
    </clipPath>
    <clipPath
       id="clip34">
      <rect
         x="564"
         y="458"
         width="75"
         height="76"
         id="rect104" />
    </clipPath>
    <clipPath
       id="clip35">
      <rect
         x="564"
         y="458"
         width="75"
         height="76"
         id="rect107" />
    </clipPath>
    <clipPath
       id="clip36">
      <rect
         x="564"
         y="458"
         width="75"
         height="76"
         id="rect110" />
    </clipPath>
    <clipPath
       id="clip37">
      <rect
         x="623"
         y="458"
         width="76"
         height="76"
         id="rect113" />
    </clipPath>
    <clipPath
       id="clip38">
      <rect
         x="623"
         y="458"
         width="76"
         height="76"
         id="rect116" />
    </clipPath>
    <clipPath
       id="clip39">
      <rect
         x="623"
         y="458"
         width="76"
         height="76"
         id="rect119" />
    </clipPath>
    <clipPath
       id="clip40">
      <rect
         x="504"
         y="458"
         width="76"
         height="76"
         id="rect122" />
    </clipPath>
    <clipPath
       id="clip41">
      <rect
         x="504"
         y="458"
         width="76"
         height="76"
         id="rect125" />
    </clipPath>
    <clipPath
       id="clip42">
      <rect
         x="504"
         y="458"
         width="76"
         height="76"
         id="rect128" />
    </clipPath>
    <clipPath
       id="clip43">
      <rect
         x="622"
         y="232"
         width="76"
         height="76"
         id="rect131" />
    </clipPath>
    <clipPath
       id="clip44">
      <rect
         x="622"
         y="232"
         width="76"
         height="76"
         id="rect134" />
    </clipPath>
    <clipPath
       id="clip45">
      <rect
         x="622"
         y="232"
         width="76"
         height="76"
         id="rect137" />
    </clipPath>
    <clipPath
       id="clip46">
      <rect
         x="622"
         y="318"
         width="76"
         height="76"
         id="rect140" />
    </clipPath>
    <clipPath
       id="clip47">
      <rect
         x="622"
         y="318"
         width="76"
         height="76"
         id="rect143" />
    </clipPath>
    <clipPath
       id="clip48">
      <rect
         x="622"
         y="318"
         width="76"
         height="76"
         id="rect146" />
    </clipPath>
  </defs>
  <g
     clip-path="url(#clip0)"
     id="g419"
     transform="translate(17.542373,-41.949153)">
    <rect
       x="0"
       y="0"
       width="1280"
       height="720"
       fill="#ffffff"
       id="rect151" />
    <g
       clip-path="url(#clip1)"
       id="g163">
      <g
         clip-path="url(#clip2)"
         id="g161">
        <g
           clip-path="url(#clip3)"
           id="g159">
          <path
             d="m 44.3602,26.5625 v 0 c -0.4315,0 -0.7813,0.3498 -0.7813,0.7813 l 0.1711,43.75 H 38.2812 V 44.5312 H 36.7188 V 71.0938 H 31.25 v -43.75 c 0,-0.4315 -0.3498,-0.7813 -0.7812,-0.7813 -0.4315,0 -0.7813,0.3498 -0.7813,0.7813 v 45.3124 h 15.625 L 45.1383,27.3438 c 0,-0.4303 -0.3479,-0.7796 -0.7781,-0.7813 z"
             fill="#7030a0"
             transform="matrix(1,0,0,1.01333,623,146)"
             id="path153" />
          <path
             d="m 37.5,14.8438 c 3.4518,0 6.25,-2.7983 6.25,-6.25005 0,-3.45178 -2.7982,-6.25 -6.25,-6.25 -3.4518,0 -6.25,2.79822 -6.25,6.25 0.0039,3.45015 2.7998,6.24605 6.25,6.25005 z m 0,-10.93755 c 2.5888,0 4.6875,2.09866 4.6875,4.6875 0,2.58885 -2.0987,4.68745 -4.6875,4.68745 -2.5888,0 -4.6875,-2.0986 -4.6875,-4.68745 0.0026,-2.58777 2.0998,-4.68491 4.6875,-4.6875 z"
             fill="#7030a0"
             transform="matrix(1,0,0,1.01333,623,146)"
             id="path155" />
          <path
             d="M 52.3102,41.2062 49.8547,23.7977 c -0.0702,-0.588 -0.247,-1.1583 -0.5219,-1.6829 -0.1737,-0.3162 -0.3788,-0.6141 -0.6125,-0.889 -1.7165,-1.8287 -3.86,-3.2028 -6.2383,-3.9992 -1.5768,-0.5478 -3.2347,-0.8251 -4.9039,-0.8204 -0.0514,0.0219 -0.1095,0.0219 -0.1609,0 -1.6643,-0.0056 -3.3176,0.2705 -4.8899,0.8165 -2.3956,0.8029 -4.5531,2.1907 -6.2773,4.0375 -0.2213,0.2653 -0.4163,0.5515 -0.582,0.8546 -0.275,0.5248 -0.4518,1.0954 -0.5219,1.6836 l -2.4602,17.4438 c -0.2343,2.5086 0.9594,3.5641 2.0024,4.0078 0.0965,0.0414 0.2005,0.0627 0.3054,0.0625 0.4315,0 0.7813,-0.3497 0.7814,-0.7812 0,-0.3132 -0.187,-0.5961 -0.4751,-0.7188 -0.5305,-0.2258 -1.218,-0.7227 -1.0625,-2.3883 l 2.4547,-17.407 c 0.0449,-0.4015 0.1619,-0.7916 0.3453,-1.1516 0.1098,-0.2015 0.2377,-0.3926 0.382,-0.5711 1.5449,-1.645 3.4747,-2.88 5.6157,-3.5937 1.3827,-0.4854 2.8376,-0.7329 4.3031,-0.732 0.0258,0 0.0515,0 0.0781,0 0.0281,-0.0042 0.0561,-0.01 0.0836,-0.0172 0.0278,0.0072 0.0559,0.013 0.0844,0.0172 h 0.0047 c 1.4939,-0.0072 2.9779,0.2419 4.3875,0.7367 2.1226,0.7073 4.0375,1.9285 5.5742,3.5547 0.1563,0.1881 0.2942,0.3908 0.4117,0.6054 0.1834,0.3597 0.3003,0.7496 0.3453,1.1508 l 2.4508,17.3719 c 0.1562,1.7015 -0.5281,2.1984 -1.0586,2.4219 -0.3983,0.166 -0.5866,0.6234 -0.4205,1.0217 0.1221,0.2929 0.4093,0.4829 0.7268,0.4806 0.105,2e-4 0.2089,-0.0211 0.3054,-0.0625 1.043,-0.4437 2.2375,-1.5 1.9985,-4.0438 z"
             fill="#7030a0"
             transform="matrix(1,0,0,1.01333,623,146)"
             id="path157" />
        </g>
      </g>
    </g>
    <path
       d="m 506.5,157.834 c 0,-7.364 5.97,-13.334 13.334,-13.334 h 165.333 c 7.363,0 13.333,5.97 13.333,13.334 v 53.333 c 0,7.363 -5.97,13.333 -13.333,13.333 H 519.834 c -7.364,0 -13.334,-5.97 -13.334,-13.333 z"
       stroke="#2f528f"
       stroke-width="1.33333"
       stroke-miterlimit="8"
       stroke-dasharray="5.33333, 4"
       fill="none"
       fill-rule="evenodd"
       id="path165" />
    <text
       font-family="Calibri, Calibri_MSFontService, sans-serif"
       font-weight="400"
       font-size="37px"
       transform="translate(392.101,94)"
       id="text167">Example of Pascal’s identity</text>
    <g
       clip-path="url(#clip4)"
       id="g179">
      <g
         clip-path="url(#clip5)"
         id="g177">
        <g
           clip-path="url(#clip6)"
           id="g175">
          <path
             d="m 37.5,14.8438 c 3.4518,0 6.25,-2.7983 6.25,-6.25005 0,-3.45178 -2.7982,-6.25 -6.25,-6.25 -3.4518,0 -6.25,2.79822 -6.25,6.25 0.0039,3.45015 2.7998,6.24605 6.25,6.25005 z m 0,-10.93755 c 2.5888,0 4.6875,2.09866 4.6875,4.6875 0,2.58885 -2.0987,4.68745 -4.6875,4.68745 -2.5888,0 -4.6875,-2.0986 -4.6875,-4.68745 0.0026,-2.58777 2.0998,-4.68491 4.6875,-4.6875 z"
             fill="#5b9bd5"
             transform="matrix(1,0,0,1.01333,149,155)"
             id="path169" />
          <path
             d="M 60.4836,26.2703 C 59.7433,25.6881 58.7745,25.4829 57.8617,25.7148 L 51.143,27.3945 48.632,20.868 48.5625,20.7031 C 47.1094,17.382 44.6227,16.4141 37.5,16.4062 h -0.0781 c -7.1203,0.0071 -9.6094,0.975 -11.0664,4.3055 l -2.5782,6.682 -6.7187,-1.6796 c -1.6366,-0.41 -3.2956,0.5845 -3.7055,2.2211 -0.4099,1.6365 0.5846,3.2955 2.2211,3.7054 l 10.1172,2.5313 c 0.6258,0.156 1.2858,0.0983 1.875,-0.1641 0.3973,-0.1682 0.5831,-0.6266 0.4149,-1.024 -0.1682,-0.3973 -0.6267,-0.5831 -1.024,-0.4149 -0.0093,0.004 -0.0185,0.0081 -0.0276,0.0123 -0.2683,0.1214 -0.5696,0.1489 -0.8555,0.0782 L 15.9578,30.1281 c -0.8007,-0.1951 -1.2915,-1.0024 -1.0964,-1.8031 0.1952,-0.8006 1.0024,-1.2915 1.8031,-1.0964 0.0056,0.0014 0.0112,0.0028 0.0167,0.0042 l 8.0571,2.0156 2.9961,-7.7726 0.0617,-0.1461 c 1.0359,-2.3656 2.6125,-3.3594 9.6695,-3.3594 7.0571,0 8.6328,0.9953 9.6656,3.3524 l 3.054,7.925 8.0562,-2.0157 c 0.7995,-0.2002 1.6099,0.2857 1.8102,1.0852 0.2002,0.7995 -0.2857,1.6099 -1.0852,1.8101 l -10.1172,2.5289 c -0.2858,0.0709 -0.5872,0.0433 -0.8555,-0.0781 -0.3939,-0.1762 -0.8561,3e-4 -1.0324,0.3942 -0.1762,0.3939 3e-4,0.8561 0.3942,1.0324 0.5893,0.2617 1.2491,0.3194 1.875,0.1641 l 10.1148,-2.5282 c 1.6366,-0.4095 2.6313,-2.0683 2.2218,-3.7048 -0.1653,-0.6607 -0.5467,-1.2471 -1.0835,-1.6663 z"
             fill="#5b9bd5"
             transform="matrix(1,0,0,1.01333,149,155)"
             id="path171" />
          <path
             d="m 43.75,31.307 v -5.3625 c 0,-0.4315 -0.3498,-0.7812 -0.7812,-0.7812 -0.4315,0 -0.7813,0.3497 -0.7813,0.7812 v 5.4688 L 47.4055,50 H 27.5992 l 5.2625,-18.3695 0.0305,-5.686 c 0,-0.4315 -0.3498,-0.7812 -0.7813,-0.7812 -0.4314,0 -0.7812,0.3497 -0.7812,0.7812 v 5.361 l -5.8039,20.257 h 4.943 V 72.6562 H 44.5312 V 51.5625 h 4.9383 z M 32.0312,51.5625 h 4.6876 V 71.0938 H 32.0312 Z M 42.9688,71.0938 H 38.2812 V 51.5625 h 4.6876 z"
             fill="#5b9bd5"
             transform="matrix(1,0,0,1.01333,149,155)"
             id="path173" />
        </g>
      </g>
    </g>
    <g
       clip-path="url(#clip7)"
       id="g191">
      <g
         clip-path="url(#clip8)"
         id="g189">
        <g
           clip-path="url(#clip9)"
           id="g187">
          <path
             d="m 44.3602,26.5625 v 0 c -0.4315,0 -0.7813,0.3498 -0.7813,0.7813 l 0.1711,43.75 H 38.2812 V 44.5312 H 36.7188 V 71.0938 H 31.25 v -43.75 c 0,-0.4315 -0.3498,-0.7813 -0.7812,-0.7813 -0.4315,0 -0.7813,0.3498 -0.7813,0.7813 v 45.3124 h 15.625 L 45.1383,27.3438 c 0,-0.4303 -0.3479,-0.7796 -0.7781,-0.7813 z"
             fill="#c00000"
             transform="matrix(1.01333,0,0,1,195,415)"
             id="path181" />
          <path
             d="m 37.5,14.8438 c 3.4518,0 6.25,-2.7983 6.25,-6.25005 0,-3.45178 -2.7982,-6.25 -6.25,-6.25 -3.4518,0 -6.25,2.79822 -6.25,6.25 0.0039,3.45015 2.7998,6.24605 6.25,6.25005 z m 0,-10.93755 c 2.5888,0 4.6875,2.09866 4.6875,4.6875 0,2.58885 -2.0987,4.68745 -4.6875,4.68745 -2.5888,0 -4.6875,-2.0986 -4.6875,-4.68745 0.0026,-2.58777 2.0998,-4.68491 4.6875,-4.6875 z"
             fill="#c00000"
             transform="matrix(1.01333,0,0,1,195,415)"
             id="path183" />
          <path
             d="M 52.3102,41.2062 49.8547,23.7977 c -0.0702,-0.588 -0.247,-1.1583 -0.5219,-1.6829 -0.1737,-0.3162 -0.3788,-0.6141 -0.6125,-0.889 -1.7165,-1.8287 -3.86,-3.2028 -6.2383,-3.9992 -1.5768,-0.5478 -3.2347,-0.8251 -4.9039,-0.8204 -0.0514,0.0219 -0.1095,0.0219 -0.1609,0 -1.6643,-0.0056 -3.3176,0.2705 -4.8899,0.8165 -2.3956,0.8029 -4.5531,2.1907 -6.2773,4.0375 -0.2213,0.2653 -0.4163,0.5515 -0.582,0.8546 -0.275,0.5248 -0.4518,1.0954 -0.5219,1.6836 l -2.4602,17.4438 c -0.2343,2.5086 0.9594,3.5641 2.0024,4.0078 0.0965,0.0414 0.2005,0.0627 0.3054,0.0625 0.4315,0 0.7813,-0.3497 0.7814,-0.7812 0,-0.3132 -0.187,-0.5961 -0.4751,-0.7188 -0.5305,-0.2258 -1.218,-0.7227 -1.0625,-2.3883 l 2.4547,-17.407 c 0.0449,-0.4015 0.1619,-0.7916 0.3453,-1.1516 0.1098,-0.2015 0.2377,-0.3926 0.382,-0.5711 1.5449,-1.645 3.4747,-2.88 5.6157,-3.5937 1.3827,-0.4854 2.8376,-0.7329 4.3031,-0.732 0.0258,0 0.0515,0 0.0781,0 0.0281,-0.0042 0.0561,-0.01 0.0836,-0.0172 0.0278,0.0072 0.0559,0.013 0.0844,0.0172 h 0.0047 c 1.4939,-0.0072 2.9779,0.2419 4.3875,0.7367 2.1226,0.7073 4.0375,1.9285 5.5742,3.5547 0.1563,0.1881 0.2942,0.3908 0.4117,0.6054 0.1834,0.3597 0.3003,0.7496 0.3453,1.1508 l 2.4508,17.3719 c 0.1562,1.7015 -0.5281,2.1984 -1.0586,2.4219 -0.3983,0.166 -0.5866,0.6234 -0.4205,1.0217 0.1221,0.2929 0.4093,0.4829 0.7268,0.4806 0.105,2e-4 0.2089,-0.0211 0.3054,-0.0625 1.043,-0.4437 2.2375,-1.5 1.9985,-4.0438 z"
             fill="#c00000"
             transform="matrix(1.01333,0,0,1,195,415)"
             id="path185" />
        </g>
      </g>
    </g>
    <g
       clip-path="url(#clip10)"
       id="g203">
      <g
         clip-path="url(#clip11)"
         id="g201">
        <g
           clip-path="url(#clip12)"
           id="g199">
          <path
             d="m 44.3602,26.5625 v 0 c -0.4315,0 -0.7813,0.3498 -0.7813,0.7813 l 0.1711,43.75 H 38.2812 V 44.5312 H 36.7188 V 71.0938 H 31.25 v -43.75 c 0,-0.4315 -0.3498,-0.7813 -0.7812,-0.7813 -0.4315,0 -0.7813,0.3498 -0.7813,0.7813 v 45.3124 h 15.625 L 45.1383,27.3438 c 0,-0.4303 -0.3479,-0.7796 -0.7781,-0.7813 z"
             fill="#ffa7a7"
             transform="matrix(1.01333,0,0,1,150,415)"
             id="path193" />
          <path
             d="m 37.5,14.8438 c 3.4518,0 6.25,-2.7983 6.25,-6.25005 0,-3.45178 -2.7982,-6.25 -6.25,-6.25 -3.4518,0 -6.25,2.79822 -6.25,6.25 0.0039,3.45015 2.7998,6.24605 6.25,6.25005 z m 0,-10.93755 c 2.5888,0 4.6875,2.09866 4.6875,4.6875 0,2.58885 -2.0987,4.68745 -4.6875,4.68745 -2.5888,0 -4.6875,-2.0986 -4.6875,-4.68745 0.0026,-2.58777 2.0998,-4.68491 4.6875,-4.6875 z"
             fill="#ffa7a7"
             transform="matrix(1.01333,0,0,1,150,415)"
             id="path195" />
          <path
             d="M 52.3102,41.2062 49.8547,23.7977 c -0.0702,-0.588 -0.247,-1.1583 -0.5219,-1.6829 -0.1737,-0.3162 -0.3788,-0.6141 -0.6125,-0.889 -1.7165,-1.8287 -3.86,-3.2028 -6.2383,-3.9992 -1.5768,-0.5478 -3.2347,-0.8251 -4.9039,-0.8204 -0.0514,0.0219 -0.1095,0.0219 -0.1609,0 -1.6643,-0.0056 -3.3176,0.2705 -4.8899,0.8165 -2.3956,0.8029 -4.5531,2.1907 -6.2773,4.0375 -0.2213,0.2653 -0.4163,0.5515 -0.582,0.8546 -0.275,0.5248 -0.4518,1.0954 -0.5219,1.6836 l -2.4602,17.4438 c -0.2343,2.5086 0.9594,3.5641 2.0024,4.0078 0.0965,0.0414 0.2005,0.0627 0.3054,0.0625 0.4315,0 0.7813,-0.3497 0.7814,-0.7812 0,-0.3132 -0.187,-0.5961 -0.4751,-0.7188 -0.5305,-0.2258 -1.218,-0.7227 -1.0625,-2.3883 l 2.4547,-17.407 c 0.0449,-0.4015 0.1619,-0.7916 0.3453,-1.1516 0.1098,-0.2015 0.2377,-0.3926 0.382,-0.5711 1.5449,-1.645 3.4747,-2.88 5.6157,-3.5937 1.3827,-0.4854 2.8376,-0.7329 4.3031,-0.732 0.0258,0 0.0515,0 0.0781,0 0.0281,-0.0042 0.0561,-0.01 0.0836,-0.0172 0.0278,0.0072 0.0559,0.013 0.0844,0.0172 h 0.0047 c 1.4939,-0.0072 2.9779,0.2419 4.3875,0.7367 2.1226,0.7073 4.0375,1.9285 5.5742,3.5547 0.1563,0.1881 0.2942,0.3908 0.4117,0.6054 0.1834,0.3597 0.3003,0.7496 0.3453,1.1508 l 2.4508,17.3719 c 0.1562,1.7015 -0.5281,2.1984 -1.0586,2.4219 -0.3983,0.166 -0.5866,0.6234 -0.4205,1.0217 0.1221,0.2929 0.4093,0.4829 0.7268,0.4806 0.105,2e-4 0.2089,-0.0211 0.3054,-0.0625 1.043,-0.4437 2.2375,-1.5 1.9985,-4.0438 z"
             fill="#ffa7a7"
             transform="matrix(1.01333,0,0,1,150,415)"
             id="path197" />
        </g>
      </g>
    </g>
    <g
       clip-path="url(#clip13)"
       id="g215">
      <g
         clip-path="url(#clip14)"
         id="g213">
        <g
           clip-path="url(#clip15)"
           id="g211">
          <path
             d="m 44.3602,26.5625 v 0 c -0.4315,0 -0.7813,0.3498 -0.7813,0.7813 l 0.1711,43.75 H 38.2812 V 44.5312 H 36.7188 V 71.0938 H 31.25 v -43.75 c 0,-0.4315 -0.3498,-0.7813 -0.7812,-0.7813 -0.4315,0 -0.7813,0.3498 -0.7813,0.7813 v 45.3124 h 15.625 L 45.1383,27.3438 c 0,-0.4303 -0.3479,-0.7796 -0.7781,-0.7813 z"
             fill="#7030a0"
             transform="matrix(1.01333,0,0,1,105,415)"
             id="path205" />
          <path
             d="m 37.5,14.8438 c 3.4518,0 6.25,-2.7983 6.25,-6.25005 0,-3.45178 -2.7982,-6.25 -6.25,-6.25 -3.4518,0 -6.25,2.79822 -6.25,6.25 0.0039,3.45015 2.7998,6.24605 6.25,6.25005 z m 0,-10.93755 c 2.5888,0 4.6875,2.09866 4.6875,4.6875 0,2.58885 -2.0987,4.68745 -4.6875,4.68745 -2.5888,0 -4.6875,-2.0986 -4.6875,-4.68745 0.0026,-2.58777 2.0998,-4.68491 4.6875,-4.6875 z"
             fill="#7030a0"
             transform="matrix(1.01333,0,0,1,105,415)"
             id="path207" />
          <path
             d="M 52.3102,41.2062 49.8547,23.7977 c -0.0702,-0.588 -0.247,-1.1583 -0.5219,-1.6829 -0.1737,-0.3162 -0.3788,-0.6141 -0.6125,-0.889 -1.7165,-1.8287 -3.86,-3.2028 -6.2383,-3.9992 -1.5768,-0.5478 -3.2347,-0.8251 -4.9039,-0.8204 -0.0514,0.0219 -0.1095,0.0219 -0.1609,0 -1.6643,-0.0056 -3.3176,0.2705 -4.8899,0.8165 -2.3956,0.8029 -4.5531,2.1907 -6.2773,4.0375 -0.2213,0.2653 -0.4163,0.5515 -0.582,0.8546 -0.275,0.5248 -0.4518,1.0954 -0.5219,1.6836 l -2.4602,17.4438 c -0.2343,2.5086 0.9594,3.5641 2.0024,4.0078 0.0965,0.0414 0.2005,0.0627 0.3054,0.0625 0.4315,0 0.7813,-0.3497 0.7814,-0.7812 0,-0.3132 -0.187,-0.5961 -0.4751,-0.7188 -0.5305,-0.2258 -1.218,-0.7227 -1.0625,-2.3883 l 2.4547,-17.407 c 0.0449,-0.4015 0.1619,-0.7916 0.3453,-1.1516 0.1098,-0.2015 0.2377,-0.3926 0.382,-0.5711 1.5449,-1.645 3.4747,-2.88 5.6157,-3.5937 1.3827,-0.4854 2.8376,-0.7329 4.3031,-0.732 0.0258,0 0.0515,0 0.0781,0 0.0281,-0.0042 0.0561,-0.01 0.0836,-0.0172 0.0278,0.0072 0.0559,0.013 0.0844,0.0172 h 0.0047 c 1.4939,-0.0072 2.9779,0.2419 4.3875,0.7367 2.1226,0.7073 4.0375,1.9285 5.5742,3.5547 0.1563,0.1881 0.2942,0.3908 0.4117,0.6054 0.1834,0.3597 0.3003,0.7496 0.3453,1.1508 l 2.4508,17.3719 c 0.1562,1.7015 -0.5281,2.1984 -1.0586,2.4219 -0.3983,0.166 -0.5866,0.6234 -0.4205,1.0217 0.1221,0.2929 0.4093,0.4829 0.7268,0.4806 0.105,2e-4 0.2089,-0.0211 0.3054,-0.0625 1.043,-0.4437 2.2375,-1.5 1.9985,-4.0438 z"
             fill="#7030a0"
             transform="matrix(1.01333,0,0,1,105,415)"
             id="path209" />
        </g>
      </g>
    </g>
    <path
       d="m 291.882,211.205 3.59,1.765 -1.765,3.59 -3.589,-1.765 z m 7.18,3.53 3.589,1.764 -1.764,3.59 -3.59,-1.765 z m 7.179,3.529 3.59,1.765 -1.765,3.589 -3.59,-1.764 z m 7.179,3.529 3.59,1.765 -1.765,3.59 -3.589,-1.765 z m 7.18,3.53 3.589,1.765 -1.764,3.589 -3.59,-1.764 z m 7.179,3.529 3.59,1.765 -1.765,3.59 -3.59,-1.765 z m 7.179,3.53 3.59,1.764 -1.765,3.59 -3.589,-1.765 z m 7.18,3.529 3.59,1.765 -1.765,3.59 -3.59,-1.765 z m 7.179,3.53 3.59,1.764 -1.765,3.59 -3.59,-1.765 z m 7.18,3.529 3.589,1.765 -1.764,3.589 -3.59,-1.764 z m 7.179,3.529 3.59,1.765 -1.765,3.59 -3.59,-1.765 z m 7.179,3.53 3.59,1.765 -1.765,3.589 -3.589,-1.764 z m 7.18,3.529 3.589,1.765 -1.764,3.59 -3.59,-1.765 z m 7.179,3.53 3.59,1.764 -1.765,3.59 -3.59,-1.765 z m 7.179,3.529 3.59,1.765 -1.765,3.589 -3.589,-1.764 z m 7.18,3.53 3.589,1.764 -1.764,3.59 -3.59,-1.765 z m 7.179,3.529 3.59,1.765 -1.765,3.589 -3.59,-1.764 z m 7.179,3.529 3.59,1.765 -1.765,3.59 -3.589,-1.765 z m 7.18,3.53 3.589,1.765 -1.764,3.589 -3.59,-1.765 z m 7.179,3.529 3.59,1.765 -1.765,3.59 -3.59,-1.765 z m 7.179,3.53 3.59,1.764 -1.765,3.59 -3.589,-1.765 z m 7.18,3.529 3.59,1.765 -1.765,3.589 -3.59,-1.764 z m 7.179,3.53 2.237,1.099 -1.765,3.59 -2.237,-1.1 z m 2.207,-3.373 8.122,10.679 -13.416,0.09 z"
       id="path217" />
    <path
       d="M 0.90222,-1.78494 4.47209,0.0195027 2.66765,3.58938 -0.90222,1.78494 Z M 8.04197,1.82394 11.6118,3.62838 9.8074,7.19826 6.23753,5.39382 Z m 7.13973,3.60888 3.5699,1.80444 -1.8045,3.56984 -3.5698,-1.80441 z m 7.1398,3.60888 3.5698,1.8044 -1.8044,3.5699 -3.5699,-1.8044 z m 7.1397,3.6089 3.5699,1.8044 -1.8045,3.5699 -3.5698,-1.8044 z m 7.1398,3.6089 3.5698,1.8044 -1.8044,3.5699 -3.5699,-1.8045 z m 7.1397,3.6088 3.5699,1.8045 -1.8045,3.5698 -3.5698,-1.8044 z m 7.1398,3.6089 3.5698,1.8045 -1.8044,3.5698 -3.5699,-1.8044 z m 7.1397,3.6089 3.5699,1.8044 -1.8045,3.5699 -3.5698,-1.8044 z m 7.1398,3.6089 3.5698,1.8044 -1.8044,3.5699 -3.5699,-1.8045 z m 7.1397,3.6088 3.5699,1.8045 -1.8045,3.5699 -3.5698,-1.8045 z m 7.1398,3.6089 3.5698,1.8045 -1.8044,3.5698 -3.5699,-1.8044 z m 7.1397,3.6089 3.5699,1.8044 -1.8045,3.5699 -3.5698,-1.8044 z m 7.1398,3.6089 3.5698,1.8044 -1.8044,3.5699 -3.5699,-1.8044 z m 7.14,3.6089 3.57,1.8044 -1.805,3.5699 -3.5697,-1.8045 z m 7.139,3.6088 3.57,1.8045 -1.804,3.5698 -3.57,-1.8044 z m 7.14,3.6089 3.57,1.8045 -1.804,3.5698 -3.57,-1.8044 z m 7.14,3.6089 3.57,1.8044 -1.805,3.5699 -3.57,-1.8044 z m 7.14,3.6089 3.57,1.8044 -1.805,3.5699 -3.57,-1.8044 z m 7.139,3.6089 3.57,1.8044 -1.804,3.5699 -3.57,-1.8045 z m 7.14,3.6088 3.57,1.8045 -1.804,3.5699 -3.57,-1.8045 z m 7.14,3.6089 3.57,1.8045 -1.805,3.5698 -3.57,-1.8044 z m 7.14,3.6089 2.018,1.0203 -1.804,3.5699 -2.019,-1.0203 z m 2.038,-3.4517 8.003,10.7681 -13.416,-0.0585 z"
       transform="matrix(1,0,0,-1,292,452.927)"
       id="path219" />
    <text
       font-family="'Cambria Math', 'Cambria Math_MSFontService', sans-serif"
       font-weight="400"
       font-size="24px"
       transform="translate(160.688,524)"
       id="text221">𝑚</text>
    <text
       font-family="Calibri, Calibri_MSFontService, sans-serif"
       font-weight="400"
       font-size="24px"
       transform="translate(186.768,524)"
       id="text223">= 3</text>
    <text
       font-family="Calibri, Calibri_MSFontService, sans-serif"
       font-weight="400"
       font-size="24px"
       transform="translate(179.747,265)"
       id="text225">1</text>
    <g
       clip-path="url(#clip16)"
       id="g237">
      <g
         clip-path="url(#clip17)"
         id="g235">
        <g
           clip-path="url(#clip18)"
           id="g233">
          <path
             d="m 542,161.042 c 3.498,0 6.333,-2.836 6.333,-6.334 0,-3.497 -2.835,-6.333 -6.333,-6.333 -3.498,0 -6.333,2.836 -6.333,6.333 0.004,3.496 2.837,6.33 6.333,6.334 z m 0,-11.084 c 2.623,0 4.75,2.127 4.75,4.75 0,2.624 -2.127,4.75 -4.75,4.75 -2.623,0 -4.75,-2.126 -4.75,-4.75 0.003,-2.622 2.128,-4.747 4.75,-4.75 z"
             fill="#5b9bd5"
             id="path227" />
          <path
             d="m 565.29,172.621 c -0.75,-0.59 -1.732,-0.798 -2.657,-0.563 l -6.808,1.702 -2.545,-6.614 -0.07,-0.167 c -1.473,-3.365 -3.992,-4.346 -11.21,-4.354 h -0.079 c -7.215,0.007 -9.738,0.988 -11.214,4.363 l -2.613,6.771 -6.808,-1.702 c -1.658,-0.415 -3.339,0.592 -3.755,2.251 -0.415,1.658 0.592,3.339 2.251,3.754 l 10.252,2.566 c 0.634,0.158 1.303,0.099 1.9,-0.167 0.403,-0.17 0.591,-0.635 0.42,-1.037 -0.17,-0.403 -0.635,-0.591 -1.037,-0.421 -0.01,0.004 -0.019,0.008 -0.028,0.013 -0.272,0.123 -0.577,0.15 -0.867,0.079 l -10.251,-2.565 c -0.812,-0.198 -1.309,-1.016 -1.111,-1.827 0.197,-0.812 1.015,-1.309 1.827,-1.111 0.005,10e-4 0.011,0.002 0.017,0.004 l 8.164,2.042 3.036,-7.876 0.063,-0.148 c 1.049,-2.397 2.647,-3.404 9.798,-3.404 7.151,0 8.748,1.009 9.795,3.397 l 3.094,8.031 8.164,-2.043 c 0.81,-0.203 1.631,0.29 1.834,1.1 0.203,0.81 -0.289,1.631 -1.099,1.834 l -10.252,2.563 c -0.29,0.071 -0.595,0.044 -0.867,-0.08 -0.4,-0.178 -0.868,0.001 -1.047,0.4 -0.178,0.399 10e-4,0.867 0.4,1.046 0.597,0.265 1.266,0.324 1.9,0.166 l 10.25,-2.562 c 1.658,-0.414 2.666,-2.095 2.251,-3.754 -0.168,-0.669 -0.554,-1.263 -1.098,-1.688 z"
             fill="#5b9bd5"
             id="path229" />
          <path
             d="m 548.333,177.724 v -5.434 c 0,-0.437 -0.354,-0.791 -0.791,-0.791 -0.438,0 -0.792,0.354 -0.792,0.791 v 5.542 l 5.288,18.835 h -20.071 l 5.333,-18.615 0.031,-5.762 c 0,-0.437 -0.355,-0.791 -0.792,-0.791 -0.437,0 -0.792,0.354 -0.792,0.791 v 5.433 l -5.881,20.527 h 5.009 v 21.375 h 14.25 V 198.25 h 5.004 z m -11.875,20.526 h 4.75 v 19.792 h -4.75 z m 11.084,19.792 h -4.75 V 198.25 h 4.75 z"
             fill="#5b9bd5"
             id="path231" />
        </g>
      </g>
    </g>
    <g
       clip-path="url(#clip19)"
       id="g249">
      <g
         clip-path="url(#clip20)"
         id="g247">
        <g
           clip-path="url(#clip21)"
           id="g245">
          <path
             d="m 607.952,172.917 v 0 c -0.438,0 -0.792,0.354 -0.792,0.791 l 0.173,44.334 h -5.541 v -26.917 h -1.584 v 26.917 h -5.541 v -44.334 c 0,-0.437 -0.355,-0.791 -0.792,-0.791 -0.437,0 -0.792,0.354 -0.792,0.791 v 45.917 h 15.834 l -0.177,-45.917 c 0,-0.436 -0.352,-0.79 -0.788,-0.791 z"
             fill="#ffa7a7"
             id="path239" />
          <path
             d="m 601,161.042 c 3.498,0 6.333,-2.836 6.333,-6.334 0,-3.497 -2.835,-6.333 -6.333,-6.333 -3.498,0 -6.333,2.836 -6.333,6.333 0.004,3.496 2.837,6.33 6.333,6.334 z m 0,-11.084 c 2.623,0 4.75,2.127 4.75,4.75 0,2.624 -2.127,4.75 -4.75,4.75 -2.623,0 -4.75,-2.126 -4.75,-4.75 0.003,-2.622 2.128,-4.747 4.75,-4.75 z"
             fill="#ffa7a7"
             id="path241" />
          <path
             d="m 616.008,187.756 -2.489,-17.641 c -0.071,-0.596 -0.25,-1.174 -0.528,-1.705 -0.176,-0.321 -0.384,-0.623 -0.621,-0.901 -1.739,-1.853 -3.912,-3.246 -6.322,-4.053 -1.597,-0.555 -3.277,-0.836 -4.969,-0.831 -0.052,0.022 -0.111,0.022 -0.163,0 -1.686,-0.006 -3.362,0.274 -4.955,0.827 -2.428,0.814 -4.614,2.22 -6.361,4.092 -0.224,0.268 -0.422,0.559 -0.59,0.866 -0.278,0.531 -0.458,1.11 -0.529,1.706 l -2.493,17.676 c -0.237,2.542 0.973,3.612 2.029,4.061 0.098,0.042 0.204,0.064 0.31,0.064 0.437,0 0.792,-0.355 0.792,-0.792 0,-0.317 -0.19,-0.604 -0.482,-0.728 -0.537,-0.229 -1.234,-0.733 -1.076,-2.42 l 2.487,-17.64 c 0.046,-0.406 0.164,-0.802 0.35,-1.166 0.111,-0.205 0.241,-0.398 0.387,-0.579 1.566,-1.667 3.521,-2.919 5.691,-3.642 1.401,-0.492 2.875,-0.743 4.36,-0.742 0.026,0 0.052,0 0.079,0 0.029,-0.004 0.057,-0.01 0.085,-0.017 0.028,0.007 0.057,0.013 0.086,0.017 h 0.004 c 1.514,-0.007 3.018,0.246 4.446,0.747 2.151,0.717 4.092,1.954 5.649,3.602 0.158,0.191 0.298,0.396 0.417,0.614 0.186,0.364 0.304,0.759 0.35,1.166 l 2.483,17.603 c 0.159,1.724 -0.535,2.228 -1.072,2.454 -0.404,0.169 -0.595,0.632 -0.426,1.036 0.123,0.297 0.414,0.489 0.736,0.487 0.106,0 0.212,-0.022 0.31,-0.064 1.056,-0.449 2.267,-1.52 2.025,-4.097 z"
             fill="#ffa7a7"
             id="path243" />
        </g>
      </g>
    </g>
    <g
       clip-path="url(#clip22)"
       id="g261">
      <g
         clip-path="url(#clip23)"
         id="g259">
        <g
           clip-path="url(#clip24)"
           id="g257">
          <path
             d="m 37.5,14.8438 c 3.4518,0 6.25,-2.7983 6.25,-6.25005 0,-3.45178 -2.7982,-6.25 -6.25,-6.25 -3.4518,0 -6.25,2.79822 -6.25,6.25 0.0039,3.45015 2.7998,6.24605 6.25,6.25005 z m 0,-10.93755 c 2.5888,0 4.6875,2.09866 4.6875,4.6875 0,2.58885 -2.0987,4.68745 -4.6875,4.68745 -2.5888,0 -4.6875,-2.0986 -4.6875,-4.68745 0.0026,-2.58777 2.0998,-4.68491 4.6875,-4.6875 z"
             fill="#5b9bd5"
             transform="matrix(1.01333,0,0,1,503,233)"
             id="path251" />
          <path
             d="M 60.4836,26.2703 C 59.7433,25.6881 58.7745,25.4829 57.8617,25.7148 L 51.143,27.3945 48.632,20.868 48.5625,20.7031 C 47.1094,17.382 44.6227,16.4141 37.5,16.4062 h -0.0781 c -7.1203,0.0071 -9.6094,0.975 -11.0664,4.3055 l -2.5782,6.682 -6.7187,-1.6796 c -1.6366,-0.41 -3.2956,0.5845 -3.7055,2.2211 -0.4099,1.6365 0.5846,3.2955 2.2211,3.7054 l 10.1172,2.5313 c 0.6258,0.156 1.2858,0.0983 1.875,-0.1641 0.3973,-0.1682 0.5831,-0.6266 0.4149,-1.024 -0.1682,-0.3973 -0.6267,-0.5831 -1.024,-0.4149 -0.0093,0.004 -0.0185,0.0081 -0.0276,0.0123 -0.2683,0.1214 -0.5696,0.1489 -0.8555,0.0782 L 15.9578,30.1281 c -0.8007,-0.1951 -1.2915,-1.0024 -1.0964,-1.8031 0.1952,-0.8006 1.0024,-1.2915 1.8031,-1.0964 0.0056,0.0014 0.0112,0.0028 0.0167,0.0042 l 8.0571,2.0156 2.9961,-7.7726 0.0617,-0.1461 c 1.0359,-2.3656 2.6125,-3.3594 9.6695,-3.3594 7.0571,0 8.6328,0.9953 9.6656,3.3524 l 3.054,7.925 8.0562,-2.0157 c 0.7995,-0.2002 1.6099,0.2857 1.8102,1.0852 0.2002,0.7995 -0.2857,1.6099 -1.0852,1.8101 l -10.1172,2.5289 c -0.2858,0.0709 -0.5872,0.0433 -0.8555,-0.0781 -0.3939,-0.1762 -0.8561,3e-4 -1.0324,0.3942 -0.1762,0.3939 3e-4,0.8561 0.3942,1.0324 0.5893,0.2617 1.2491,0.3194 1.875,0.1641 l 10.1148,-2.5282 c 1.6366,-0.4095 2.6313,-2.0683 2.2218,-3.7048 -0.1653,-0.6607 -0.5467,-1.2471 -1.0835,-1.6663 z"
             fill="#5b9bd5"
             transform="matrix(1.01333,0,0,1,503,233)"
             id="path253" />
          <path
             d="m 43.75,31.307 v -5.3625 c 0,-0.4315 -0.3498,-0.7812 -0.7812,-0.7812 -0.4315,0 -0.7813,0.3497 -0.7813,0.7812 v 5.4688 L 47.4055,50 H 27.5992 l 5.2625,-18.3695 0.0305,-5.686 c 0,-0.4315 -0.3498,-0.7812 -0.7813,-0.7812 -0.4314,0 -0.7812,0.3497 -0.7812,0.7812 v 5.361 l -5.8039,20.257 h 4.943 V 72.6562 H 44.5312 V 51.5625 h 4.9383 z M 32.0312,51.5625 h 4.6876 V 71.0938 H 32.0312 Z M 42.9688,71.0938 H 38.2812 V 51.5625 h 4.6876 z"
             fill="#5b9bd5"
             transform="matrix(1.01333,0,0,1,503,233)"
             id="path255" />
        </g>
      </g>
    </g>
    <g
       clip-path="url(#clip25)"
       id="g273">
      <g
         clip-path="url(#clip26)"
         id="g271">
        <g
           clip-path="url(#clip27)"
           id="g269">
          <path
             d="m 608.36,259.562 v 0 c -0.431,0 -0.781,0.35 -0.781,0.782 l 0.171,43.75 h -5.469 v -26.563 h -1.562 v 26.563 h -5.469 v -43.75 c 0,-0.432 -0.35,-0.782 -0.781,-0.782 -0.432,0 -0.781,0.35 -0.781,0.782 v 45.312 h 15.624 l -0.174,-45.312 c 0,-0.43 -0.348,-0.78 -0.778,-0.782 z"
             fill="#ffa7a7"
             id="path263" />
          <path
             d="m 601.5,247.844 c 3.452,0 6.25,-2.798 6.25,-6.25 0,-3.452 -2.798,-6.25 -6.25,-6.25 -3.452,0 -6.25,2.798 -6.25,6.25 0.004,3.45 2.8,6.246 6.25,6.25 z m 0,-10.938 c 2.589,0 4.688,2.099 4.688,4.688 0,2.589 -2.099,4.687 -4.688,4.687 -2.589,0 -4.688,-2.098 -4.688,-4.687 0.003,-2.588 2.1,-4.685 4.688,-4.688 z"
             fill="#ffa7a7"
             id="path265" />
          <path
             d="m 616.31,274.206 -2.455,-17.408 c -0.07,-0.588 -0.247,-1.159 -0.522,-1.683 -0.174,-0.316 -0.379,-0.614 -0.613,-0.889 -1.716,-1.829 -3.86,-3.203 -6.238,-3.999 -1.577,-0.548 -3.235,-0.826 -4.904,-0.821 -0.051,0.022 -0.109,0.022 -0.161,0 -1.664,-0.005 -3.317,0.271 -4.89,0.817 -2.395,0.803 -4.553,2.19 -6.277,4.037 -0.221,0.265 -0.416,0.552 -0.582,0.855 -0.275,0.525 -0.452,1.095 -0.522,1.683 l -2.46,17.444 c -0.234,2.509 0.959,3.564 2.002,4.008 0.097,0.041 0.201,0.063 0.306,0.062 0.431,0 0.781,-0.349 0.781,-0.781 0,-0.313 -0.187,-0.596 -0.475,-0.719 -0.53,-0.225 -1.218,-0.722 -1.063,-2.388 l 2.455,-17.407 c 0.045,-0.401 0.162,-0.791 0.345,-1.151 0.11,-0.202 0.238,-0.393 0.383,-0.571 1.544,-1.646 3.474,-2.881 5.615,-3.594 1.383,-0.486 2.838,-0.733 4.303,-0.732 0.026,0 0.052,0 0.078,0 0.029,-0.004 0.056,-0.01 0.084,-0.017 0.028,0.007 0.056,0.013 0.084,0.017 h 0.005 c 1.494,-0.007 2.978,0.242 4.388,0.736 2.122,0.708 4.037,1.929 5.574,3.555 0.156,0.188 0.294,0.391 0.412,0.606 0.183,0.359 0.3,0.749 0.345,1.15 l 2.451,17.372 c 0.156,1.702 -0.529,2.199 -1.059,2.422 -0.398,0.166 -0.587,0.624 -0.421,1.022 0.123,0.293 0.41,0.483 0.727,0.48 0.105,10e-4 0.209,-0.021 0.306,-0.062 1.043,-0.444 2.237,-1.5 1.998,-4.044 z"
             fill="#ffa7a7"
             id="path267" />
        </g>
      </g>
    </g>
    <path
       d="m 506.5,243.834 c 0,-7.364 5.97,-13.334 13.334,-13.334 h 165.333 c 7.363,0 13.333,5.97 13.333,13.334 v 53.333 c 0,7.363 -5.97,13.333 -13.333,13.333 H 519.834 c -7.364,0 -13.334,-5.97 -13.334,-13.333 z"
       stroke="#2f528f"
       stroke-width="1.33333"
       stroke-miterlimit="8"
       stroke-dasharray="5.33333, 4"
       fill="none"
       fill-rule="evenodd"
       id="path275" />
    <g
       clip-path="url(#clip28)"
       id="g287">
      <g
         clip-path="url(#clip29)"
         id="g285">
        <g
           clip-path="url(#clip30)"
           id="g283">
          <path
             d="m 541,332.042 c 3.498,0 6.333,-2.836 6.333,-6.334 0,-3.497 -2.835,-6.333 -6.333,-6.333 -3.498,0 -6.333,2.836 -6.333,6.333 0.004,3.496 2.837,6.33 6.333,6.334 z m 0,-11.084 c 2.623,0 4.75,2.127 4.75,4.75 0,2.624 -2.127,4.75 -4.75,4.75 -2.623,0 -4.75,-2.126 -4.75,-4.75 0.003,-2.622 2.128,-4.747 4.75,-4.75 z"
             fill="#5b9bd5"
             id="path277" />
          <path
             d="m 564.29,343.621 c -0.75,-0.59 -1.732,-0.798 -2.657,-0.563 l -6.808,1.702 -2.545,-6.614 -0.07,-0.167 c -1.473,-3.365 -3.992,-4.346 -11.21,-4.354 h -0.079 c -7.215,0.007 -9.738,0.988 -11.214,4.363 l -2.613,6.771 -6.808,-1.702 c -1.658,-0.415 -3.339,0.592 -3.755,2.251 -0.415,1.658 0.592,3.339 2.251,3.754 l 10.252,2.566 c 0.634,0.158 1.303,0.099 1.9,-0.167 0.403,-0.17 0.591,-0.635 0.42,-1.037 -0.17,-0.403 -0.635,-0.591 -1.037,-0.421 -0.01,0.004 -0.019,0.008 -0.028,0.013 -0.272,0.123 -0.577,0.15 -0.867,0.079 l -10.251,-2.565 c -0.812,-0.198 -1.309,-1.016 -1.111,-1.827 0.197,-0.812 1.015,-1.309 1.827,-1.111 0.005,0.001 0.011,0.002 0.017,0.004 l 8.164,2.042 3.036,-7.876 0.063,-0.148 c 1.049,-2.397 2.647,-3.404 9.798,-3.404 7.151,0 8.748,1.009 9.795,3.397 l 3.094,8.031 8.164,-2.043 c 0.81,-0.203 1.631,0.29 1.834,1.1 0.203,0.81 -0.289,1.631 -1.099,1.834 l -10.252,2.563 c -0.29,0.071 -0.595,0.044 -0.867,-0.079 -0.4,-0.179 -0.868,0 -1.047,0.399 -0.178,0.399 10e-4,0.867 0.4,1.046 0.597,0.265 1.266,0.324 1.9,0.166 l 10.25,-2.562 c 1.658,-0.414 2.666,-2.095 2.251,-3.754 -0.168,-0.669 -0.554,-1.263 -1.098,-1.688 z"
             fill="#5b9bd5"
             id="path279" />
          <path
             d="m 547.333,348.724 v -5.434 c 0,-0.437 -0.354,-0.791 -0.791,-0.791 -0.438,0 -0.792,0.354 -0.792,0.791 v 5.542 l 5.288,18.835 h -20.071 l 5.333,-18.615 0.031,-5.762 c 0,-0.437 -0.355,-0.791 -0.792,-0.791 -0.437,0 -0.792,0.354 -0.792,0.791 v 5.433 l -5.881,20.527 h 5.009 v 21.375 h 14.25 V 369.25 h 5.004 z m -11.875,20.526 h 4.75 v 19.792 h -4.75 z m 11.084,19.792 h -4.75 V 369.25 h 4.75 z"
             fill="#5b9bd5"
             id="path281" />
        </g>
      </g>
    </g>
    <g
       clip-path="url(#clip31)"
       id="g299">
      <g
         clip-path="url(#clip32)"
         id="g297">
        <g
           clip-path="url(#clip33)"
           id="g295">
          <path
             d="m 608.952,343.917 v 0 c -0.438,0 -0.792,0.354 -0.792,0.791 l 0.173,44.334 h -5.541 v -26.917 h -1.584 v 26.917 h -5.541 v -44.334 c 0,-0.437 -0.355,-0.791 -0.792,-0.791 -0.437,0 -0.792,0.354 -0.792,0.791 v 45.917 h 15.834 l -0.177,-45.917 c 0,-0.436 -0.352,-0.79 -0.788,-0.791 z"
             fill="#7030a0"
             id="path289" />
          <path
             d="m 602,332.042 c 3.498,0 6.333,-2.836 6.333,-6.334 0,-3.497 -2.835,-6.333 -6.333,-6.333 -3.498,0 -6.333,2.836 -6.333,6.333 0.004,3.496 2.837,6.33 6.333,6.334 z m 0,-11.084 c 2.623,0 4.75,2.127 4.75,4.75 0,2.624 -2.127,4.75 -4.75,4.75 -2.623,0 -4.75,-2.126 -4.75,-4.75 0.003,-2.622 2.128,-4.747 4.75,-4.75 z"
             fill="#7030a0"
             id="path291" />
          <path
             d="m 617.008,358.756 -2.489,-17.641 c -0.071,-0.596 -0.25,-1.174 -0.528,-1.705 -0.176,-0.321 -0.384,-0.623 -0.621,-0.901 -1.739,-1.853 -3.912,-3.246 -6.322,-4.053 -1.597,-0.555 -3.277,-0.836 -4.969,-0.831 -0.052,0.022 -0.111,0.022 -0.163,0 -1.686,-0.006 -3.362,0.274 -4.955,0.827 -2.428,0.814 -4.614,2.22 -6.361,4.092 -0.224,0.268 -0.422,0.559 -0.59,0.866 -0.278,0.531 -0.458,1.11 -0.529,1.706 l -2.493,17.676 c -0.237,2.542 0.973,3.612 2.029,4.061 0.098,0.042 0.204,0.064 0.31,0.064 0.437,0 0.792,-0.355 0.792,-0.792 0,-0.317 -0.19,-0.604 -0.482,-0.728 -0.537,-0.229 -1.234,-0.733 -1.076,-2.42 l 2.487,-17.64 c 0.046,-0.406 0.164,-0.802 0.35,-1.166 0.111,-0.205 0.241,-0.398 0.387,-0.579 1.566,-1.667 3.521,-2.919 5.691,-3.642 1.401,-0.492 2.875,-0.743 4.36,-0.742 0.026,0 0.052,0 0.079,0 0.029,-0.004 0.057,-0.01 0.085,-0.017 0.028,0.007 0.057,0.013 0.086,0.017 h 0.004 c 1.514,-0.007 3.018,0.246 4.446,0.747 2.151,0.717 4.092,1.954 5.649,3.602 0.158,0.191 0.298,0.396 0.417,0.614 0.186,0.364 0.304,0.759 0.35,1.166 l 2.483,17.603 c 0.159,1.724 -0.535,2.228 -1.072,2.454 -0.404,0.169 -0.595,0.632 -0.426,1.036 0.123,0.297 0.414,0.489 0.736,0.487 0.106,0 0.212,-0.022 0.31,-0.064 1.056,-0.449 2.267,-1.52 2.025,-4.097 z"
             fill="#7030a0"
             id="path293" />
        </g>
      </g>
    </g>
    <g
       clip-path="url(#clip34)"
       id="g311">
      <g
         clip-path="url(#clip35)"
         id="g309">
        <g
           clip-path="url(#clip36)"
           id="g307">
          <path
             d="m 44.3602,26.5625 v 0 c -0.4315,0 -0.7813,0.3498 -0.7813,0.7813 l 0.1711,43.75 H 38.2812 V 44.5312 H 36.7188 V 71.0938 H 31.25 v -43.75 c 0,-0.4315 -0.3498,-0.7813 -0.7812,-0.7813 -0.4315,0 -0.7813,0.3498 -0.7813,0.7813 v 45.3124 h 15.625 L 45.1383,27.3438 c 0,-0.4303 -0.3479,-0.7796 -0.7781,-0.7813 z"
             fill="#ffa7a7"
             transform="matrix(1,0,0,1.01333,564,458)"
             id="path301" />
          <path
             d="m 37.5,14.8438 c 3.4518,0 6.25,-2.7983 6.25,-6.25005 0,-3.45178 -2.7982,-6.25 -6.25,-6.25 -3.4518,0 -6.25,2.79822 -6.25,6.25 0.0039,3.45015 2.7998,6.24605 6.25,6.25005 z m 0,-10.93755 c 2.5888,0 4.6875,2.09866 4.6875,4.6875 0,2.58885 -2.0987,4.68745 -4.6875,4.68745 -2.5888,0 -4.6875,-2.0986 -4.6875,-4.68745 0.0026,-2.58777 2.0998,-4.68491 4.6875,-4.6875 z"
             fill="#ffa7a7"
             transform="matrix(1,0,0,1.01333,564,458)"
             id="path303" />
          <path
             d="M 52.3102,41.2062 49.8547,23.7977 c -0.0702,-0.588 -0.247,-1.1583 -0.5219,-1.6829 -0.1737,-0.3162 -0.3788,-0.6141 -0.6125,-0.889 -1.7165,-1.8287 -3.86,-3.2028 -6.2383,-3.9992 -1.5768,-0.5478 -3.2347,-0.8251 -4.9039,-0.8204 -0.0514,0.0219 -0.1095,0.0219 -0.1609,0 -1.6643,-0.0056 -3.3176,0.2705 -4.8899,0.8165 -2.3956,0.8029 -4.5531,2.1907 -6.2773,4.0375 -0.2213,0.2653 -0.4163,0.5515 -0.582,0.8546 -0.275,0.5248 -0.4518,1.0954 -0.5219,1.6836 l -2.4602,17.4438 c -0.2343,2.5086 0.9594,3.5641 2.0024,4.0078 0.0965,0.0414 0.2005,0.0627 0.3054,0.0625 0.4315,0 0.7813,-0.3497 0.7814,-0.7812 0,-0.3132 -0.187,-0.5961 -0.4751,-0.7188 -0.5305,-0.2258 -1.218,-0.7227 -1.0625,-2.3883 l 2.4547,-17.407 c 0.0449,-0.4015 0.1619,-0.7916 0.3453,-1.1516 0.1098,-0.2015 0.2377,-0.3926 0.382,-0.5711 1.5449,-1.645 3.4747,-2.88 5.6157,-3.5937 1.3827,-0.4854 2.8376,-0.7329 4.3031,-0.732 0.0258,0 0.0515,0 0.0781,0 0.0281,-0.0042 0.0561,-0.01 0.0836,-0.0172 0.0278,0.0072 0.0559,0.013 0.0844,0.0172 h 0.0047 c 1.4939,-0.0072 2.9779,0.2419 4.3875,0.7367 2.1226,0.7073 4.0375,1.9285 5.5742,3.5547 0.1563,0.1881 0.2942,0.3908 0.4117,0.6054 0.1834,0.3597 0.3003,0.7496 0.3453,1.1508 l 2.4508,17.3719 c 0.1562,1.7015 -0.5281,2.1984 -1.0586,2.4219 -0.3983,0.166 -0.5866,0.6234 -0.4205,1.0217 0.1221,0.2929 0.4093,0.4829 0.7268,0.4806 0.105,2e-4 0.2089,-0.0211 0.3054,-0.0625 1.043,-0.4437 2.2375,-1.5 1.9985,-4.0438 z"
             fill="#ffa7a7"
             transform="matrix(1,0,0,1.01333,564,458)"
             id="path305" />
        </g>
      </g>
    </g>
    <g
       clip-path="url(#clip37)"
       id="g323">
      <g
         clip-path="url(#clip38)"
         id="g321">
        <g
           clip-path="url(#clip39)"
           id="g319">
          <path
             d="m 667.952,484.917 v 0 c -0.438,0 -0.792,0.354 -0.792,0.791 l 0.173,44.334 h -5.541 v -26.917 h -1.584 v 26.917 h -5.541 v -44.334 c 0,-0.437 -0.355,-0.791 -0.792,-0.791 -0.437,0 -0.792,0.354 -0.792,0.791 v 45.917 h 15.834 l -0.177,-45.917 c 0,-0.436 -0.352,-0.79 -0.788,-0.791 z"
             fill="#7030a0"
             id="path313" />
          <path
             d="m 661,473.042 c 3.498,0 6.333,-2.836 6.333,-6.334 0,-3.497 -2.835,-6.333 -6.333,-6.333 -3.498,0 -6.333,2.836 -6.333,6.333 0.004,3.496 2.837,6.33 6.333,6.334 z m 0,-11.084 c 2.623,0 4.75,2.127 4.75,4.75 0,2.624 -2.127,4.75 -4.75,4.75 -2.623,0 -4.75,-2.126 -4.75,-4.75 0.003,-2.622 2.128,-4.747 4.75,-4.75 z"
             fill="#7030a0"
             id="path315" />
          <path
             d="m 676.008,499.756 -2.489,-17.641 c -0.071,-0.596 -0.25,-1.174 -0.528,-1.705 -0.176,-0.321 -0.384,-0.623 -0.621,-0.901 -1.739,-1.853 -3.912,-3.246 -6.322,-4.053 -1.597,-0.555 -3.277,-0.836 -4.969,-0.831 -0.052,0.022 -0.111,0.022 -0.163,0 -1.686,-0.006 -3.362,0.274 -4.955,0.827 -2.428,0.814 -4.614,2.22 -6.361,4.092 -0.224,0.268 -0.422,0.559 -0.59,0.866 -0.278,0.531 -0.458,1.11 -0.529,1.706 l -2.493,17.676 c -0.237,2.542 0.973,3.612 2.029,4.061 0.098,0.042 0.204,0.064 0.31,0.064 0.437,0 0.792,-0.355 0.792,-0.792 0,-0.317 -0.19,-0.604 -0.482,-0.728 -0.537,-0.229 -1.234,-0.733 -1.076,-2.42 l 2.487,-17.64 c 0.046,-0.406 0.164,-0.802 0.35,-1.166 0.111,-0.205 0.241,-0.398 0.387,-0.579 1.566,-1.667 3.521,-2.919 5.691,-3.642 1.401,-0.492 2.875,-0.743 4.36,-0.742 0.026,0 0.052,0 0.079,0 0.029,-0.004 0.057,-0.01 0.085,-0.017 0.028,0.007 0.057,0.013 0.086,0.017 h 0.004 c 1.514,-0.007 3.018,0.246 4.446,0.747 2.151,0.717 4.092,1.954 5.649,3.602 0.158,0.191 0.298,0.396 0.417,0.614 0.186,0.364 0.304,0.759 0.35,1.166 l 2.483,17.603 c 0.159,1.724 -0.535,2.228 -1.072,2.454 -0.404,0.169 -0.595,0.632 -0.426,1.036 0.123,0.297 0.414,0.489 0.736,0.487 0.106,0 0.212,-0.022 0.31,-0.064 1.056,-0.449 2.267,-1.52 2.025,-4.097 z"
             fill="#7030a0"
             id="path317" />
        </g>
      </g>
    </g>
    <g
       clip-path="url(#clip40)"
       id="g335">
      <g
         clip-path="url(#clip41)"
         id="g333">
        <g
           clip-path="url(#clip42)"
           id="g331">
          <path
             d="m 548.952,484.917 v 0 c -0.438,0 -0.792,0.354 -0.792,0.791 l 0.173,44.334 h -5.541 v -26.917 h -1.584 v 26.917 h -5.541 v -44.334 c 0,-0.437 -0.355,-0.791 -0.792,-0.791 -0.437,0 -0.792,0.354 -0.792,0.791 v 45.917 h 15.834 l -0.177,-45.917 c 0,-0.436 -0.352,-0.79 -0.788,-0.791 z"
             fill="#c00000"
             id="path325" />
          <path
             d="m 542,473.042 c 3.498,0 6.333,-2.836 6.333,-6.334 0,-3.497 -2.835,-6.333 -6.333,-6.333 -3.498,0 -6.333,2.836 -6.333,6.333 0.004,3.496 2.837,6.33 6.333,6.334 z m 0,-11.084 c 2.623,0 4.75,2.127 4.75,4.75 0,2.624 -2.127,4.75 -4.75,4.75 -2.623,0 -4.75,-2.126 -4.75,-4.75 0.003,-2.622 2.128,-4.747 4.75,-4.75 z"
             fill="#c00000"
             id="path327" />
          <path
             d="m 557.008,499.756 -2.489,-17.641 c -0.071,-0.596 -0.25,-1.174 -0.528,-1.705 -0.176,-0.321 -0.384,-0.623 -0.621,-0.901 -1.739,-1.853 -3.912,-3.246 -6.322,-4.053 -1.597,-0.555 -3.277,-0.836 -4.969,-0.831 -0.052,0.022 -0.111,0.022 -0.163,0 -1.686,-0.006 -3.362,0.274 -4.955,0.827 -2.428,0.814 -4.614,2.22 -6.361,4.092 -0.224,0.268 -0.422,0.559 -0.59,0.866 -0.278,0.531 -0.458,1.11 -0.529,1.706 l -2.493,17.676 c -0.237,2.542 0.973,3.612 2.029,4.061 0.098,0.042 0.204,0.064 0.31,0.064 0.437,0 0.792,-0.355 0.792,-0.792 0,-0.317 -0.19,-0.604 -0.482,-0.728 -0.537,-0.229 -1.234,-0.733 -1.076,-2.42 l 2.487,-17.64 c 0.046,-0.406 0.164,-0.802 0.35,-1.166 0.111,-0.205 0.241,-0.398 0.387,-0.579 1.566,-1.667 3.521,-2.919 5.691,-3.642 1.401,-0.492 2.875,-0.743 4.36,-0.742 0.026,0 0.052,0 0.079,0 0.029,-0.004 0.057,-0.01 0.085,-0.017 0.028,0.007 0.057,0.013 0.086,0.017 h 0.004 c 1.514,-0.007 3.018,0.246 4.446,0.747 2.151,0.717 4.092,1.954 5.649,3.602 0.158,0.191 0.298,0.396 0.417,0.614 0.186,0.364 0.304,0.759 0.35,1.166 l 2.483,17.603 c 0.159,1.724 -0.535,2.228 -1.072,2.454 -0.404,0.169 -0.595,0.632 -0.426,1.036 0.123,0.297 0.414,0.489 0.736,0.487 0.106,0 0.212,-0.022 0.31,-0.064 1.056,-0.449 2.267,-1.52 2.025,-4.097 z"
             fill="#c00000"
             id="path329" />
        </g>
      </g>
    </g>
    <path
       d="m 506.5,329.834 c 0,-7.364 5.97,-13.334 13.334,-13.334 h 165.333 c 7.363,0 13.333,5.97 13.333,13.334 v 53.333 c 0,7.363 -5.97,13.333 -13.333,13.333 H 519.834 c -7.364,0 -13.334,-5.97 -13.334,-13.333 z"
       stroke="#2f528f"
       stroke-width="1.33333"
       stroke-miterlimit="8"
       stroke-dasharray="5.33333, 4"
       fill="none"
       fill-rule="evenodd"
       id="path337" />
    <path
       d="m 505.5,469.834 c 0,-7.364 5.97,-13.334 13.334,-13.334 h 165.333 c 7.363,0 13.333,5.97 13.333,13.334 v 53.333 c 0,7.363 -5.97,13.333 -13.333,13.333 H 518.834 c -7.364,0 -13.334,-5.97 -13.334,-13.333 z"
       stroke="#70ad47"
       stroke-width="1.33333"
       stroke-miterlimit="8"
       stroke-dasharray="5.33333, 4"
       fill="none"
       fill-rule="evenodd"
       id="path339" />
    <text
       font-family="'Cambria Math', 'Cambria Math_MSFontService', sans-serif"
       font-weight="400"
       font-size="37px"
       transform="translate(901.717,312)"
       id="text341">𝐶</text>
    <text
       font-family="'Cambria Math', 'Cambria Math_MSFontService', sans-serif"
       font-weight="400"
       font-size="27px"
       transform="translate(921.864,321)"
       id="text343">𝑘</text>
    <text
       font-family="'Cambria Math', 'Cambria Math_MSFontService', sans-serif"
       font-weight="400"
       font-size="27px"
       transform="translate(939.164,321)"
       id="text345">−</text>
    <text
       font-family="'Cambria Math', 'Cambria Math_MSFontService', sans-serif"
       font-weight="400"
       font-size="27px"
       transform="translate(958.997,321)"
       id="text347">1</text>
    <text
       font-family="'Cambria Math', 'Cambria Math_MSFontService', sans-serif"
       font-weight="400"
       font-size="27px"
       transform="translate(926.237,297)"
       id="text349">𝑚</text>
    <text
       font-family="Calibri, Calibri_MSFontService, sans-serif"
       font-weight="400"
       font-size="24px"
       transform="translate(771.406,236)"
       id="text351">All</text>
    <text
       font-family="Calibri, Calibri_MSFontService, sans-serif"
       font-weight="400"
       font-size="24px"
       transform="translate(801.739,236)"
       id="text353">u</text>
    <text
       font-family="Calibri, Calibri_MSFontService, sans-serif"
       font-weight="400"
       font-size="24px"
       transform="translate(814.406,236)"
       id="text355">nordered arrangements where 1</text>
    <text
       font-family="Calibri, Calibri_MSFontService, sans-serif"
       font-weight="400"
       font-size="24px"
       transform="translate(792.646,265)"
       id="text357">position is occupied by a woman</text>
    <path
       d="m 715.5,150.5 c 11.046,0 20,13.636 20,30.457 v 61.487 c 0,16.821 8.954,30.457 20,30.457 -11.046,0 -20,13.636 -20,30.457 v 63.685 c 0,16.821 -8.954,30.457 -20,30.457"
       stroke="#44546a"
       stroke-width="3"
       stroke-miterlimit="8"
       fill="none"
       fill-rule="evenodd"
       id="path359" />
    <path
       d="m 716.5,458.5 c 11.046,0 20,8.431 20,18.831 v 0 c 0,10.4 8.954,18.831 20,18.831 -11.046,0 -20,8.431 -20,18.831 v 0.676 c 0,10.4 -8.954,18.831 -20,18.831"
       stroke="#70ad47"
       stroke-width="3"
       stroke-miterlimit="8"
       fill="none"
       fill-rule="evenodd"
       id="path361" />
    <text
       font-family="'Cambria Math', 'Cambria Math_MSFontService', sans-serif"
       font-weight="400"
       font-size="37px"
       transform="translate(908.39,563)"
       id="text363">𝐶</text>
    <text
       font-family="'Cambria Math', 'Cambria Math_MSFontService', sans-serif"
       font-weight="400"
       font-size="27px"
       transform="translate(928.537,571)"
       id="text365">𝑘</text>
    <text
       font-family="'Cambria Math', 'Cambria Math_MSFontService', sans-serif"
       font-weight="400"
       font-size="27px"
       transform="translate(932.91,548)"
       id="text367">𝑚</text>
    <text
       font-family="'Cambria Math', 'Cambria Math_MSFontService', sans-serif"
       font-weight="400"
       font-size="37px"
       transform="translate(568.118,632)"
       id="text369">𝐶</text>
    <text
       font-family="'Cambria Math', 'Cambria Math_MSFontService', sans-serif"
       font-weight="400"
       font-size="27px"
       transform="translate(588.265,641)"
       id="text371">𝑘</text>
    <text
       font-family="'Cambria Math', 'Cambria Math_MSFontService', sans-serif"
       font-weight="400"
       font-size="27px"
       transform="translate(592.638,617)"
       id="text373">𝑚</text>
    <text
       font-family="'Cambria Math', 'Cambria Math_MSFontService', sans-serif"
       font-weight="400"
       font-size="27px"
       transform="translate(618.605,617)"
       id="text375">+</text>
    <text
       font-family="'Cambria Math', 'Cambria Math_MSFontService', sans-serif"
       font-weight="400"
       font-size="27px"
       transform="translate(638.438,617)"
       id="text377">1</text>
    <text
       font-family="Calibri, Calibri_MSFontService, sans-serif"
       font-weight="400"
       font-size="24px"
       transform="translate(774.993,490)"
       id="text379">All</text>
    <text
       font-family="Calibri, Calibri_MSFontService, sans-serif"
       font-weight="400"
       font-size="24px"
       transform="translate(805.327,490)"
       id="text381">u</text>
    <text
       font-family="Calibri, Calibri_MSFontService, sans-serif"
       font-weight="400"
       font-size="24px"
       transform="translate(817.993,490)"
       id="text383">nordered arrangements where</text>
    <text
       font-family="Calibri, Calibri_MSFontService, sans-serif"
       font-weight="400"
       font-size="24px"
       transform="translate(783.447,519)"
       id="text385">all</text>
    <text
       font-family="Calibri, Calibri_MSFontService, sans-serif"
       font-weight="400"
       font-size="24px"
       transform="translate(811.447,519)"
       id="text387">positions are occupied by men</text>
    <text
       font-family="'Cambria Math', 'Cambria Math_MSFontService', sans-serif"
       font-weight="400"
       font-size="43px"
       transform="translate(918.445,402)"
       id="text389">+</text>
    <g
       clip-path="url(#clip43)"
       id="g401">
      <g
         clip-path="url(#clip44)"
         id="g399">
        <g
           clip-path="url(#clip45)"
           id="g397">
          <path
             d="m 666.952,258.917 v 0 c -0.438,0 -0.792,0.354 -0.792,0.791 l 0.173,44.334 h -5.541 v -26.917 h -1.584 v 26.917 h -5.541 v -44.334 c 0,-0.437 -0.355,-0.791 -0.792,-0.791 -0.437,0 -0.792,0.354 -0.792,0.791 v 45.917 h 15.834 l -0.177,-45.917 c 0,-0.436 -0.352,-0.79 -0.788,-0.791 z"
             fill="#c00000"
             id="path391" />
          <path
             d="m 660,247.042 c 3.498,0 6.333,-2.836 6.333,-6.334 0,-3.497 -2.835,-6.333 -6.333,-6.333 -3.498,0 -6.333,2.836 -6.333,6.333 0.004,3.496 2.837,6.33 6.333,6.334 z m 0,-11.084 c 2.623,0 4.75,2.127 4.75,4.75 0,2.624 -2.127,4.75 -4.75,4.75 -2.623,0 -4.75,-2.126 -4.75,-4.75 0.003,-2.622 2.128,-4.747 4.75,-4.75 z"
             fill="#c00000"
             id="path393" />
          <path
             d="m 675.008,273.756 -2.489,-17.641 c -0.071,-0.596 -0.25,-1.174 -0.528,-1.705 -0.176,-0.321 -0.384,-0.623 -0.621,-0.901 -1.739,-1.853 -3.912,-3.246 -6.322,-4.053 -1.597,-0.555 -3.277,-0.836 -4.969,-0.831 -0.052,0.022 -0.111,0.022 -0.163,0 -1.686,-0.006 -3.362,0.274 -4.955,0.827 -2.428,0.814 -4.614,2.22 -6.361,4.092 -0.224,0.268 -0.422,0.559 -0.59,0.866 -0.278,0.531 -0.458,1.11 -0.529,1.706 l -2.493,17.676 c -0.237,2.542 0.973,3.612 2.029,4.061 0.098,0.042 0.204,0.064 0.31,0.064 0.437,0 0.792,-0.355 0.792,-0.792 0,-0.317 -0.19,-0.604 -0.482,-0.728 -0.537,-0.229 -1.234,-0.733 -1.076,-2.42 l 2.487,-17.64 c 0.046,-0.406 0.164,-0.802 0.35,-1.166 0.111,-0.205 0.241,-0.398 0.387,-0.579 1.566,-1.667 3.521,-2.919 5.691,-3.642 1.401,-0.492 2.875,-0.743 4.36,-0.742 0.026,0 0.052,0 0.079,0 0.029,-0.004 0.057,-0.01 0.085,-0.017 0.028,0.007 0.057,0.013 0.086,0.017 h 0.004 c 1.514,-0.007 3.018,0.246 4.446,0.747 2.151,0.717 4.092,1.954 5.649,3.602 0.158,0.191 0.298,0.396 0.417,0.614 0.186,0.364 0.304,0.759 0.35,1.166 l 2.483,17.603 c 0.159,1.724 -0.535,2.228 -1.072,2.454 -0.404,0.169 -0.595,0.632 -0.426,1.036 0.123,0.297 0.414,0.489 0.736,0.487 0.106,0 0.212,-0.022 0.31,-0.064 1.056,-0.449 2.267,-1.52 2.025,-4.097 z"
             fill="#c00000"
             id="path395" />
        </g>
      </g>
    </g>
    <g
       clip-path="url(#clip46)"
       id="g413">
      <g
         clip-path="url(#clip47)"
         id="g411">
        <g
           clip-path="url(#clip48)"
           id="g409">
          <path
             d="m 666.952,344.917 v 0 c -0.438,0 -0.792,0.354 -0.792,0.791 l 0.173,44.334 h -5.541 v -26.917 h -1.584 v 26.917 h -5.541 v -44.334 c 0,-0.437 -0.355,-0.791 -0.792,-0.791 -0.437,0 -0.792,0.354 -0.792,0.791 v 45.917 h 15.834 l -0.177,-45.917 c 0,-0.436 -0.352,-0.79 -0.788,-0.791 z"
             fill="#c00000"
             id="path403" />
          <path
             d="m 660,333.042 c 3.498,0 6.333,-2.836 6.333,-6.334 0,-3.497 -2.835,-6.333 -6.333,-6.333 -3.498,0 -6.333,2.836 -6.333,6.333 0.004,3.496 2.837,6.33 6.333,6.334 z m 0,-11.084 c 2.623,0 4.75,2.127 4.75,4.75 0,2.624 -2.127,4.75 -4.75,4.75 -2.623,0 -4.75,-2.126 -4.75,-4.75 0.003,-2.622 2.128,-4.747 4.75,-4.75 z"
             fill="#c00000"
             id="path405" />
          <path
             d="m 675.008,359.756 -2.489,-17.641 c -0.071,-0.596 -0.25,-1.174 -0.528,-1.705 -0.176,-0.321 -0.384,-0.623 -0.621,-0.901 -1.739,-1.853 -3.912,-3.246 -6.322,-4.053 -1.597,-0.555 -3.277,-0.836 -4.969,-0.831 -0.052,0.022 -0.111,0.022 -0.163,0 -1.686,-0.006 -3.362,0.274 -4.955,0.827 -2.428,0.814 -4.614,2.22 -6.361,4.092 -0.224,0.268 -0.422,0.559 -0.59,0.866 -0.278,0.531 -0.458,1.11 -0.529,1.706 l -2.493,17.676 c -0.237,2.542 0.973,3.612 2.029,4.061 0.098,0.042 0.204,0.064 0.31,0.064 0.437,0 0.792,-0.355 0.792,-0.792 0,-0.317 -0.19,-0.604 -0.482,-0.728 -0.537,-0.229 -1.234,-0.733 -1.076,-2.42 l 2.487,-17.64 c 0.046,-0.406 0.164,-0.802 0.35,-1.166 0.111,-0.205 0.241,-0.398 0.387,-0.579 1.566,-1.667 3.521,-2.919 5.691,-3.642 1.401,-0.492 2.875,-0.743 4.36,-0.742 0.026,0 0.052,0 0.079,0 0.029,-0.004 0.057,-0.01 0.085,-0.017 0.028,0.007 0.057,0.013 0.086,0.017 h 0.004 c 1.514,-0.007 3.018,0.246 4.446,0.747 2.151,0.717 4.092,1.954 5.649,3.602 0.158,0.191 0.298,0.396 0.417,0.614 0.186,0.364 0.304,0.759 0.35,1.166 l 2.483,17.603 c 0.159,1.724 -0.535,2.228 -1.072,2.454 -0.404,0.169 -0.595,0.632 -0.426,1.036 0.123,0.297 0.414,0.489 0.736,0.487 0.106,0 0.212,-0.022 0.31,-0.064 1.056,-0.449 2.267,-1.52 2.025,-4.097 z"
             fill="#c00000"
             id="path407" />
        </g>
      </g>
    </g>
    <text
       font-family="'Cambria Math', 'Cambria Math_MSFontService', sans-serif"
       font-weight="400"
       font-size="24px"
       transform="translate(577.477,568)"
       id="text415">𝑘</text>
    <text
       font-family="Calibri, Calibri_MSFontService, sans-serif"
       font-weight="400"
       font-size="24px"
       transform="translate(596.843,568)"
       id="text417">= 3</text>
  </g>
</svg>
