<?xml version="1.0" encoding="UTF-8" standalone="no"?>
<svg
   width="1280"
   height="580"
   overflow="hidden"
   version="1.1"
   id="svg367"
   sodipodi:docname="combinatorics-distinct_partitions.svg"
   inkscape:version="1.2 (dc2aedaf03, 2022-05-15)"
   xmlns:inkscape="http://www.inkscape.org/namespaces/inkscape"
   xmlns:sodipodi="http://sodipodi.sourceforge.net/DTD/sodipodi-0.dtd"
   xmlns="http://www.w3.org/2000/svg"
   xmlns:svg="http://www.w3.org/2000/svg">
  <sodipodi:namedview
     id="namedview369"
     pagecolor="#ffffff"
     bordercolor="#000000"
     borderopacity="0.25"
     inkscape:showpageshadow="2"
     inkscape:pageopacity="0.0"
     inkscape:pagecheckerboard="0"
     inkscape:deskcolor="#d1d1d1"
     showgrid="false"
     inkscape:zoom="0.92709556"
     inkscape:cx="756.12486"
     inkscape:cy="393.70267"
     inkscape:window-width="2560"
     inkscape:window-height="1494"
     inkscape:window-x="-11"
     inkscape:window-y="-11"
     inkscape:window-maximized="1"
     inkscape:current-layer="svg367" />
  <defs
     id="defs41">
    <clipPath
       id="clip0">
      <rect
         x="0"
         y="0"
         width="1280"
         height="720"
         id="rect2" />
    </clipPath>
    <clipPath
       id="clip1">
      <rect
         x="223"
         y="351"
         width="73"
         height="73"
         id="rect5" />
    </clipPath>
    <clipPath
       id="clip2">
      <rect
         x="223"
         y="351"
         width="73"
         height="73"
         id="rect8" />
    </clipPath>
    <clipPath
       id="clip3">
      <rect
         x="223"
         y="351"
         width="73"
         height="73"
         id="rect11" />
    </clipPath>
    <clipPath
       id="clip4">
      <rect
         x="201"
         y="420"
         width="73"
         height="73"
         id="rect14" />
    </clipPath>
    <clipPath
       id="clip5">
      <rect
         x="201"
         y="420"
         width="73"
         height="73"
         id="rect17" />
    </clipPath>
    <clipPath
       id="clip6">
      <rect
         x="201"
         y="420"
         width="73"
         height="73"
         id="rect20" />
    </clipPath>
    <clipPath
       id="clip7">
      <rect
         x="145"
         y="374"
         width="73"
         height="72"
         id="rect23" />
    </clipPath>
    <clipPath
       id="clip8">
      <rect
         x="145"
         y="374"
         width="73"
         height="72"
         id="rect26" />
    </clipPath>
    <clipPath
       id="clip9">
      <rect
         x="145"
         y="374"
         width="73"
         height="72"
         id="rect29" />
    </clipPath>
    <clipPath
       id="clip10">
      <rect
         x="334"
         y="436"
         width="73"
         height="73"
         id="rect32" />
    </clipPath>
    <clipPath
       id="clip11">
      <rect
         x="334"
         y="436"
         width="73"
         height="73"
         id="rect35" />
    </clipPath>
    <clipPath
       id="clip12">
      <rect
         x="334"
         y="436"
         width="73"
         height="73"
         id="rect38" />
    </clipPath>
  </defs>
  <g
     clip-path="url(#clip0)"
     id="g365"
     transform="translate(5.3931873,-32.359124)">
    <rect
       x="0"
       y="0"
       width="1280"
       height="720"
       fill="#ffffff"
       id="rect43" />
    <text
       font-family="Calibri, Calibri_MSFontService, sans-serif"
       font-weight="400"
       font-size="37px"
       transform="translate(377.444,101)"
       id="text45">Distinct object partitions</text>
    <path
       d="m 504.096,158.801 c 3.25,0.855 5.756,3.068 7.516,6.641 1.76,3.573 2.641,7.802 2.641,12.688 0,4.885 -0.881,9.114 -2.641,12.687 -1.76,3.573 -4.266,5.787 -7.516,6.641 l -0.39,-1.282 c 2.521,-0.947 4.429,-3.013 5.726,-6.195 1.297,-3.182 1.946,-7.127 1.946,-11.836 0,-4.719 -0.649,-8.672 -1.946,-11.859 -1.297,-3.188 -3.205,-5.255 -5.726,-6.203 z m -103.497,0 0.391,1.282 c -2.521,0.948 -4.43,3.015 -5.727,6.203 -1.297,3.187 -1.945,7.14 -1.945,11.859 0,4.709 0.648,8.654 1.945,11.836 1.297,3.182 3.206,5.248 5.727,6.195 l -0.391,1.282 c -3.25,-0.854 -5.755,-3.068 -7.516,-6.641 -1.76,-3.573 -2.64,-7.802 -2.64,-12.687 0,-4.886 0.88,-9.115 2.64,-12.688 1.761,-3.573 4.266,-5.786 7.516,-6.641 z"
       fill-rule="evenodd"
       id="path47" />
    <text
       font-family="'Cambria Math', 'Cambria Math_MSFontService', sans-serif"
       font-weight="400"
       font-size="23px"
       transform="translate(444.563,173)"
       id="text49">ğ‘›</text>
    <text
       font-family="'Cambria Math', 'Cambria Math_MSFontService', sans-serif"
       font-weight="400"
       font-size="23px"
       transform="translate(402.003,199)"
       id="text51">ğ‘Ÿ</text>
    <text
       font-family="'Cambria Math', 'Cambria Math_MSFontService', sans-serif"
       font-weight="400"
       font-size="15px"
       transform="translate(414.337,206)"
       id="text53">1</text>
    <text
       font-family="'Cambria Math', 'Cambria Math_MSFontService', sans-serif"
       font-weight="400"
       font-size="23px"
       transform="translate(423.337,199)"
       id="text55" />
    <text
       font-family="'Cambria Math', 'Cambria Math_MSFontService', sans-serif"
       font-weight="400"
       font-size="23px"
       transform="translate(428.503,199)"
       id="text57">ğ‘Ÿ</text>
    <text
       font-family="'Cambria Math', 'Cambria Math_MSFontService', sans-serif"
       font-weight="400"
       font-size="15px"
       transform="translate(440.837,206)"
       id="text59">2</text>
    <text
       font-family="'Cambria Math', 'Cambria Math_MSFontService', sans-serif"
       font-weight="400"
       font-size="23px"
       transform="translate(449.837,199)"
       id="text61" />
    <text
       font-family="'Cambria Math', 'Cambria Math_MSFontService', sans-serif"
       font-weight="400"
       font-size="23px"
       transform="translate(455.003,199)"
       id="text63">â‹¯</text>
    <text
       font-family="'Cambria Math', 'Cambria Math_MSFontService', sans-serif"
       font-weight="400"
       font-size="23px"
       transform="translate(475.003,199)"
       id="text65" />
    <text
       font-family="'Cambria Math', 'Cambria Math_MSFontService', sans-serif"
       font-weight="400"
       font-size="23px"
       transform="translate(480.17,199)"
       id="text67">ğ‘Ÿ</text>
    <text
       font-family="'Cambria Math', 'Cambria Math_MSFontService', sans-serif"
       font-weight="400"
       font-size="15px"
       transform="translate(492.503,206)"
       id="text69">ğ‘˜</text>
    <text
       font-family="Calibri, Calibri_MSFontService, sans-serif"
       font-weight="400"
       font-size="32px"
       transform="translate(524.23,187)"
       id="text71">=</text>
    <text
       font-family="'Cambria Math', 'Cambria Math_MSFontService', sans-serif"
       font-weight="400"
       font-size="23px"
       transform="translate(629.37,169)"
       id="text73">ğ‘›</text>
    <text
       font-family="'Cambria Math', 'Cambria Math_MSFontService', sans-serif"
       font-weight="400"
       font-size="23px"
       transform="translate(644.937,169)"
       id="text75">!</text>
    <text
       font-family="'Cambria Math', 'Cambria Math_MSFontService', sans-serif"
       font-weight="400"
       font-size="23px"
       transform="translate(547.397,203)"
       id="text77">ğ‘Ÿ</text>
    <text
       font-family="'Cambria Math', 'Cambria Math_MSFontService', sans-serif"
       font-weight="400"
       font-size="15px"
       transform="translate(559.73,210)"
       id="text79">1</text>
    <text
       font-family="'Cambria Math', 'Cambria Math_MSFontService', sans-serif"
       font-weight="400"
       font-size="23px"
       transform="translate(568.73,203)"
       id="text81">!</text>
    <text
       font-family="'Cambria Math', 'Cambria Math_MSFontService', sans-serif"
       font-weight="400"
       font-size="23px"
       transform="translate(575.397,203)"
       id="text83" />
    <text
       font-family="'Cambria Math', 'Cambria Math_MSFontService', sans-serif"
       font-weight="400"
       font-size="23px"
       transform="translate(580.563,203)"
       id="text85">Ã—</text>
    <text
       font-family="'Cambria Math', 'Cambria Math_MSFontService', sans-serif"
       font-weight="400"
       font-size="23px"
       transform="translate(597.23,203)"
       id="text87" />
    <text
       font-family="'Cambria Math', 'Cambria Math_MSFontService', sans-serif"
       font-weight="400"
       font-size="23px"
       transform="translate(602.397,203)"
       id="text89">ğ‘Ÿ</text>
    <text
       font-family="'Cambria Math', 'Cambria Math_MSFontService', sans-serif"
       font-weight="400"
       font-size="15px"
       transform="translate(614.73,210)"
       id="text91">2</text>
    <text
       font-family="'Cambria Math', 'Cambria Math_MSFontService', sans-serif"
       font-weight="400"
       font-size="23px"
       transform="translate(623.73,203)"
       id="text93">!</text>
    <text
       font-family="'Cambria Math', 'Cambria Math_MSFontService', sans-serif"
       font-weight="400"
       font-size="23px"
       transform="translate(630.397,203)"
       id="text95" />
    <text
       font-family="'Cambria Math', 'Cambria Math_MSFontService', sans-serif"
       font-weight="400"
       font-size="23px"
       transform="translate(635.563,203)"
       id="text97">Ã—</text>
    <text
       font-family="'Cambria Math', 'Cambria Math_MSFontService', sans-serif"
       font-weight="400"
       font-size="23px"
       transform="translate(652.23,203)"
       id="text99" />
    <text
       font-family="'Cambria Math', 'Cambria Math_MSFontService', sans-serif"
       font-weight="400"
       font-size="23px"
       transform="translate(657.397,203)"
       id="text101">â‹¯</text>
    <text
       font-family="'Cambria Math', 'Cambria Math_MSFontService', sans-serif"
       font-weight="400"
       font-size="23px"
       transform="translate(677.397,203)"
       id="text103" />
    <text
       font-family="'Cambria Math', 'Cambria Math_MSFontService', sans-serif"
       font-weight="400"
       font-size="23px"
       transform="translate(682.563,203)"
       id="text105">Ã—</text>
    <text
       font-family="'Cambria Math', 'Cambria Math_MSFontService', sans-serif"
       font-weight="400"
       font-size="23px"
       transform="translate(699.23,203)"
       id="text107" />
    <text
       font-family="'Cambria Math', 'Cambria Math_MSFontService', sans-serif"
       font-weight="400"
       font-size="23px"
       transform="translate(704.397,203)"
       id="text109">ğ‘Ÿ</text>
    <text
       font-family="'Cambria Math', 'Cambria Math_MSFontService', sans-serif"
       font-weight="400"
       font-size="15px"
       transform="translate(716.73,210)"
       id="text111">ğ‘˜</text>
    <text
       font-family="'Cambria Math', 'Cambria Math_MSFontService', sans-serif"
       font-weight="400"
       font-size="23px"
       transform="translate(726.917,203)"
       id="text113">!</text>
    <path
       d="m 547.63,177.27 h 62 62 62 v 2 h -62 -62 -62 z"
       fill-rule="evenodd"
       id="path115" />
    <rect
       x="111.5"
       y="284.5"
       width="332"
       height="242"
       stroke="#000000"
       stroke-width="3"
       stroke-miterlimit="8"
       fill="none"
       id="rect117" />
    <path
       d="m 133.5,410 c 0,-49.982 40.742,-90.5 91,-90.5 50.258,0 91,40.518 91,90.5 0,49.982 -40.742,90.5 -91,90.5 -50.258,0 -91,-40.518 -91,-90.5 z"
       stroke="#c00000"
       stroke-width="3"
       stroke-miterlimit="8"
       fill="none"
       fill-rule="evenodd"
       id="path119" />
    <text
       font-family="'Cambria Math', 'Cambria Math_MSFontService', sans-serif"
       font-weight="400"
       font-size="24px"
       transform="translate(218.224,347)"
       id="text121">ğ‘Ÿ</text>
    <g
       clip-path="url(#clip1)"
       id="g129">
      <g
         clip-path="url(#clip2)"
         id="g127">
        <g
           clip-path="url(#clip3)"
           id="g125">
          <path
             d="m 290.257,377.824 -0.356,-0.356 c -0.113,-0.113 -0.172,-0.27 -0.161,-0.429 l 0.269,-3.947 c 0.079,-1.163 -0.307,-2.311 -1.074,-3.19 l -0.865,-0.988 1.359,-2.758 c 0.147,-0.297 0.025,-0.657 -0.272,-0.804 -0.083,-0.04 -0.174,-0.061 -0.265,-0.062 -0.129,0.002 -0.254,0.044 -0.356,0.123 l -3.427,2.557 v -3.604 c 0.001,-0.324 -0.261,-0.588 -0.585,-0.589 -0.003,-10e-4 -0.006,0 -0.009,0 -0.165,-10e-4 -0.323,0.071 -0.432,0.195 l -2.401,2.666 c -0.243,0.269 -0.538,0.484 -0.868,0.634 l -1.581,0.716 c -1.965,0.889 -3.606,2.366 -4.696,4.228 l -3.327,5.69 c -0.557,0.953 -1.533,1.587 -2.631,1.708 l -4.396,0.487 c -2.89,0.364 -5.652,1.415 -8.053,3.065 l -2.497,1.716 c -2.162,1.487 -3.977,3.422 -5.323,5.674 l -2.282,3.817 c -0.826,1.445 -2.115,2.57 -3.659,3.193 -2.109,0.809 -4.357,1.197 -6.615,1.145 -1.845,-0.013 -3.686,-0.191 -5.499,-0.532 -0.135,-0.023 -0.271,-0.034 -0.407,-0.033 -1.26,-0.002 -2.283,1.018 -2.284,2.278 -0.002,1.105 0.788,2.051 1.874,2.248 2.102,0.393 4.235,0.596 6.373,0.608 3.048,0.069 6.074,-0.522 8.872,-1.733 l 0.218,-0.119 v 6.603 c 0,1.26 1.021,2.281 2.281,2.281 h 2.281 c 1.26,0 2.282,-1.021 2.282,-2.281 0,-1.26 -1.022,-2.281 -2.282,-2.281 v -0.214 h 3.802 v 2.495 c 0,1.26 1.022,2.281 2.282,2.281 h 9.125 c 1.26,0 2.281,-1.021 2.281,-2.281 0,-1.26 -1.021,-2.281 -2.281,-2.281 h -6.844 v -0.217 c 2.692,-0.017 5.307,-0.9 7.456,-2.52 l 0.754,-0.569 c 0.613,-0.463 1.279,-0.851 1.985,-1.155 l 2.813,-1.213 c 1.165,-0.499 2.378,-0.876 3.621,-1.123 l 5.687,5.576 c 0.912,0.869 2.356,0.834 3.225,-0.078 0.852,-0.894 0.838,-2.303 -0.031,-3.18 l -5.007,-4.909 0.47,-0.971 7.867,3.006 c 1.192,0.409 2.489,-0.225 2.899,-1.416 0.389,-1.134 -0.165,-2.375 -1.269,-2.843 l -7.404,-2.836 0.886,-1.582 c 0.539,-0.963 0.88,-2.022 1.004,-3.118 l 0.367,-3.252 c 0.078,-0.686 0.658,-1.204 1.348,-1.204 h 1.73 c 0.815,0 1.61,-0.261 2.266,-0.745 l 1.581,-1.163 c 0.709,-0.524 0.86,-1.524 0.336,-2.233 -0.047,-0.064 -0.099,-0.124 -0.155,-0.181 z m -9.434,5.809 -7.477,-4.86 1.153,-1.971 7.053,4.583 c -0.365,0.502 -0.595,1.089 -0.667,1.706 z"
             fill="#c55a11"
             id="path123" />
        </g>
      </g>
    </g>
    <g
       clip-path="url(#clip4)"
       id="g141">
      <g
         clip-path="url(#clip5)"
         id="g139">
        <g
           clip-path="url(#clip6)"
           id="g137">
          <path
             d="m 265.792,461.048 -4.251,-1.497 c -0.393,-0.147 -0.831,0.053 -0.978,0.447 -0.147,0.393 0.053,0.831 0.447,0.978 0.008,0.003 0.017,0.006 0.026,0.009 l 4.232,1.49 c 0.783,0.306 1.17,1.187 0.865,1.97 -0.305,0.783 -1.187,1.17 -1.97,0.865 l -4.924,-1.743 c -0.396,-0.141 -0.831,0.066 -0.971,0.462 -0.14,0.396 0.067,0.831 0.463,0.971 l 4.906,1.737 c 1.571,0.597 3.327,-0.192 3.924,-1.762 0.597,-1.57 -0.192,-3.327 -1.762,-3.924 -0.002,-10e-4 -0.004,-0.002 -0.007,-0.003 z"
             id="path131" />
          <path
             d="m 268.796,446.438 -0.29,-0.291 0.263,-3.852 c 0.097,-1.365 -0.357,-2.713 -1.26,-3.741 -0.757,-0.917 -1.753,-1.605 -2.878,-1.988 v -2.863 c 0,-0.84 -0.681,-1.521 -1.521,-1.521 -0.379,0 -0.743,0.141 -1.023,0.395 l -2.915,2.649 c -0.019,0.017 -0.037,0.035 -0.054,0.054 -0.172,0.191 -0.382,0.345 -0.616,0.45 l -1.582,0.716 c -2.112,0.951 -3.873,2.538 -5.039,4.54 l -3.325,5.687 c -0.437,0.745 -1.2,1.24 -2.058,1.337 l -4.409,0.487 c -3.01,0.384 -5.886,1.479 -8.389,3.196 l -2.876,1.977 c -2.122,1.444 -3.881,3.36 -5.14,5.597 -0.474,0.818 -0.817,1.706 -1.016,2.631 -2.918,4.235 -10.205,6.105 -18.204,4.651 -0.413,-0.077 -0.81,0.197 -0.886,0.61 -0.076,0.413 0.197,0.809 0.61,0.885 0.001,0 0.002,0.001 0.004,0.001 1.812,0.333 3.651,0.502 5.494,0.506 5.272,0 9.884,-1.465 12.745,-4.089 -0.003,0.177 -0.007,0.345 -0.007,0.535 0,3.692 1.612,5.263 3.034,6.648 1.227,1.196 2.288,2.229 2.288,4.626 0.002,1.679 1.362,3.04 3.041,3.041 h 9.886 c 1.68,0 3.042,-1.361 3.042,-3.041 0,-1.68 -1.362,-3.042 -3.042,-3.042 h -2.398 c 0.621,-0.503 1.149,-1.111 1.561,-1.795 1.57,-0.161 7.382,-0.861 10.221,-2.652 l 5.557,5.437 c 1.2,1.177 3.126,1.157 4.302,-0.042 0.05,-0.051 0.099,-0.104 0.145,-0.158 1.028,-1.266 0.908,-3.109 -0.276,-4.23 l -4.26,-4.178 c -0.244,-0.24 -0.298,-0.614 -0.131,-0.914 l 3.051,-5.455 c 0.589,-1.051 0.961,-2.209 1.095,-3.406 l 0.368,-3.252 c 0.034,-0.302 0.289,-0.53 0.592,-0.53 h 1.729 c 0.977,-0.002 1.929,-0.314 2.718,-0.892 l 1.58,-1.164 c 1.047,-0.771 1.271,-2.245 0.5,-3.292 -0.07,-0.095 -0.147,-0.185 -0.231,-0.268 z m -8.4,5.975 -0.127,1.123 -9.947,-6.87 0.618,-1.057 9.506,6.565 c -0.021,0.079 -0.038,0.158 -0.05,0.239 z m -1.279,6.086 -3.051,5.456 c -0.5,0.898 -0.339,2.021 0.394,2.742 l 4.26,4.177 c 0.606,0.566 0.685,1.497 0.184,2.157 -0.578,0.642 -1.567,0.694 -2.209,0.117 -0.006,-0.005 -0.011,-0.01 -0.017,-0.016 l -9.155,-8.956 c -0.3,-0.294 -0.782,-0.288 -1.075,0.012 -0.294,0.3 -0.289,0.782 0.012,1.075 l 2.469,2.416 c -2.094,1.158 -5.997,1.848 -8.381,2.144 0.547,-1.856 0.28,-3.856 -0.735,-5.503 -0.221,-0.358 -0.689,-0.469 -1.047,-0.249 -0.357,0.221 -0.469,0.689 -0.248,1.047 1.539,2.505 0.756,5.784 -1.749,7.323 -0.838,0.515 -1.803,0.788 -2.786,0.788 h -0.154 c -0.42,0 -0.76,0.341 -0.76,0.761 0,0.42 0.34,0.76 0.76,0.76 h 6.844 c 0.84,0 1.521,0.681 1.521,1.521 0,0.84 -0.681,1.521 -1.521,1.521 h -9.886 c -0.839,-10e-4 -1.519,-0.682 -1.52,-1.521 0,-3.038 -1.46,-4.46 -2.748,-5.715 -1.324,-1.29 -2.575,-2.508 -2.575,-5.559 0,-2.426 0.22,-3.453 1.072,-4.994 1.144,-2.031 2.742,-3.77 4.669,-5.08 l 2.877,-1.977 c 2.299,-1.578 4.94,-2.585 7.706,-2.939 l 4.396,-0.486 c 1.118,-0.127 2.141,-0.691 2.845,-1.568 l 10.567,7.297 -0.047,0.415 c -0.111,0.996 -0.421,1.96 -0.911,2.834 z m 8.508,-9.725 -1.58,1.163 c -0.526,0.388 -1.163,0.597 -1.816,0.597 H 262.5 c -0.43,0.001 -0.849,0.134 -1.201,0.381 l -9.589,-6.622 1.485,-2.54 c 1.009,-1.727 2.53,-3.097 4.351,-3.921 l 1.583,-0.716 c 0.414,-0.187 0.785,-0.455 1.092,-0.789 l 2.876,-2.613 c 0.003,-0.003 0.008,-0.002 0.011,10e-4 10e-4,0.001 0.002,0.003 0.002,0.005 v 3.399 c 0,0.337 0.222,0.634 0.545,0.73 1.059,0.258 2.006,0.853 2.7,1.695 0.638,0.728 0.961,1.681 0.896,2.647 l -0.269,3.947 c -0.026,0.379 0.114,0.75 0.382,1.018 l 0.356,0.357 c 0.326,0.325 0.326,0.853 0,1.179 -0.029,0.029 -0.061,0.056 -0.095,0.081 z"
             id="path133" />
          <path
             d="m 265.638,443.193 c 0,0.63 -0.51,1.14 -1.14,1.14 -0.63,0 -1.141,-0.51 -1.141,-1.14 0,-0.63 0.511,-1.141 1.141,-1.141 0.63,0 1.14,0.511 1.14,1.141 z"
             id="path135" />
        </g>
      </g>
    </g>
    <path
       d="m 230.757,458.571 c -0.775,-3.055 2.338,-6.481 6.954,-7.652 4.616,-1.172 8.987,0.355 9.762,3.41 0.775,3.055 -2.339,6.481 -6.954,7.653 -4.616,1.171 -8.987,-0.356 -9.762,-3.411 z"
       stroke="#2f528f"
       stroke-width="1.33333"
       stroke-miterlimit="8"
       fill-rule="evenodd"
       id="path143" />
    <g
       clip-path="url(#clip7)"
       id="g155">
      <g
         clip-path="url(#clip8)"
         id="g153">
        <g
           clip-path="url(#clip9)"
           id="g151">
          <path
             d="m 63.9049,40.486 -4.1932,-1.477 c -0.3881,-0.1447 -0.82,0.0526 -0.9647,0.4407 -0.1448,0.3881 0.0525,0.8201 0.4407,0.9648 0.0086,0.0032 0.0173,0.0062 0.026,0.0092 l 4.174,1.47 c 0.772,0.3009 1.1538,1.1706 0.8529,1.9426 -0.301,0.772 -1.1707,1.1538 -1.9427,0.8528 l -4.8571,-1.7194 c -0.3904,-0.1383 -0.819,0.0661 -0.9574,0.4565 -0.1384,0.3905 0.066,0.8191 0.4564,0.9575 l 4.8396,1.7133 c 1.5486,0.5887 3.2815,-0.1894 3.8703,-1.7382 0.5887,-1.5486 -0.1895,-3.2815 -1.7381,-3.8702 -0.0023,-9e-4 -0.0045,-0.0017 -0.0067,-0.0026 z"
             transform="matrix(1.01389,0,0,1,145,374)"
             id="path145" />
          <path
             d="m 66.8675,26.0753 -0.286,-0.286 0.2589,-3.7998 c 0.0956,-1.3466 -0.3517,-2.6754 -1.2422,-3.69 -0.7464,-0.9038 -1.7295,-1.5824 -2.8393,-1.96 V 13.515 c 0,-0.8284 -0.6716,-1.5 -1.5,-1.5 -0.3731,0 -0.7328,0.1391 -1.0089,0.39 l -2.875,2.6122 c -0.0187,0.0169 -0.0366,0.0347 -0.0535,0.0535 -0.1692,0.1886 -0.3762,0.3398 -0.6075,0.4438 l -1.56,0.7061 c -2.0827,0.938 -3.8203,2.5035 -4.9698,4.4775 l -3.2792,5.6092 c -0.4317,0.7346 -1.184,1.2232 -2.0307,1.3187 l -4.348,0.4808 c -2.9692,0.3783 -5.8055,1.4587 -8.2738,3.1517 l -2.837,1.9505 c -2.0931,1.4244 -3.828,3.3138 -5.0692,5.5205 -0.4683,0.8068 -0.8066,1.6824 -1.0025,2.5944 -2.8779,4.1767 -10.0651,6.0215 -17.95505,4.587 -0.40735,-0.075 -0.79845,0.1943 -0.87356,0.6016 -0.07511,0.4073 0.19423,0.7985 0.60158,0.8736 0.0013,3e-4 0.00262,5e-4 0.00393,7e-4 1.78768,0.3283 3.60128,0.4955 5.4188,0.4995 5.2,0 9.7484,-1.4453 12.5707,-4.0337 -0.0029,0.1746 -0.0075,0.3409 -0.0075,0.5285 0,3.6413 1.59,5.19 2.993,6.5568 1.2104,1.1796 2.2563,2.1986 2.2563,4.5621 0.0019,1.6561 1.3439,2.9981 3,3 h 9.75 c 1.6569,0 3,-1.3432 3,-3 0,-1.6568 -1.3431,-3 -3,-3 h -2.3652 c 0.6123,-0.4965 1.1334,-1.0958 1.5402,-1.771 1.5479,-0.1584 7.2807,-0.849 10.0808,-2.6148 l 5.4809,5.3625 c 1.1834,1.1601 3.0832,1.1412 4.2433,-0.0422 0.0493,-0.0503 0.0968,-0.1023 0.1424,-0.1559 1.0141,-1.2478 0.8956,-3.0662 -0.2717,-4.1719 L 55.7508,44.9864 C 55.5096,44.7493 55.4566,44.3803 55.6215,44.085 l 3.0092,-5.381 c 0.5808,-1.0364 0.9482,-2.1786 1.0803,-3.3593 l 0.3622,-3.2073 c 0.0335,-0.2975 0.2851,-0.5222 0.5845,-0.522 h 1.7048 c 0.9644,-0.0021 1.903,-0.3103 2.6809,-0.8804 l 1.5586,-1.1475 c 1.0328,-0.7607 1.2534,-2.2147 0.4927,-3.2475 -0.069,-0.0937 -0.145,-0.182 -0.2272,-0.2643 z m -8.285,5.8935 -0.1251,1.1074 -9.811,-6.7756 0.6094,-1.0426 9.3759,6.4754 c -0.0209,0.0774 -0.0373,0.156 -0.0492,0.2354 z m -1.2613,6.0031 -3.0091,5.3809 c -0.494,0.8863 -0.3349,1.9933 0.3885,2.7046 l 4.2016,4.1199 c 0.5972,0.5576 0.6753,1.4768 0.1808,2.1272 -0.5696,0.6334 -1.5447,0.685 -2.1781,0.1155 -0.0057,-0.0051 -0.0113,-0.0102 -0.0169,-0.0154 l -9.0298,-8.834 c -0.2961,-0.2896 -0.771,-0.2843 -1.0606,0.0119 -0.2897,0.2961 -0.2844,0.771 0.0118,1.0607 l 2.4356,2.3829 c -2.065,1.1423 -5.9144,1.8224 -8.266,2.1141 0.5396,-1.83 0.2759,-3.8031 -0.7255,-5.4273 -0.2171,-0.3527 -0.6792,-0.4625 -1.032,-0.2453 -0.3527,0.2172 -0.4625,0.6793 -0.2453,1.032 1.5183,2.471 0.746,5.705 -1.725,7.2233 -0.8265,0.5079 -1.7776,0.7768 -2.7476,0.7771 H 34.352 c -0.4142,0 -0.75,0.3358 -0.75,0.75 0,0.4142 0.3358,0.75 0.75,0.75 h 6.75 c 0.8285,0 1.5,0.6716 1.5,1.5 0,0.8284 -0.6715,1.5 -1.5,1.5 h -9.75 c -0.828,-9e-4 -1.4991,-0.6719 -1.5,-1.5 0,-2.9963 -1.44,-4.3989 -2.7103,-5.6366 -1.3059,-1.2722 -2.5397,-2.4739 -2.5397,-5.4824 0,-2.3931 0.2175,-3.4058 1.0575,-4.9261 1.128,-2.003 2.7043,-3.7178 4.6055,-5.01 l 2.837,-1.9505 c 2.2676,-1.5556 4.8729,-2.549 7.6005,-2.898 l 4.3363,-0.4795 c 1.1026,-0.126 2.1109,-0.6818 2.8059,-1.5469 l 10.422,7.1975 -0.0461,0.4087 c -0.1101,0.9826 -0.4159,1.9331 -0.8992,2.7957 z m 8.3914,-9.5925 -1.5585,1.1475 c -0.5191,0.3823 -1.1469,0.5885 -1.7916,0.5885 h -1.7048 c -0.4242,0.0013 -0.8378,0.1327 -1.185,0.3764 l -9.4577,-6.5321 1.4647,-2.505 c 0.9955,-1.7026 2.4953,-3.054 4.2922,-3.8672 l 1.561,-0.7064 c 0.4079,-0.1838 0.7743,-0.4483 1.0771,-0.7777 l 2.8362,-2.577 c 0.0031,-0.0028 0.0078,-0.0026 0.0106,5e-4 0.0012,0.0014 0.0019,0.0032 0.0019,0.005 v 3.3525 c 3e-4,0.3326 0.2193,0.6254 0.5383,0.7196 1.0447,0.2554 1.9787,0.8419 2.6625,1.6719 0.6298,0.7184 0.9481,1.6579 0.8844,2.6112 l -0.2655,3.8932 c -0.0255,0.3734 0.1118,0.7395 0.3765,1.0039 l 0.3515,0.3515 c 0.3211,0.3212 0.321,0.8419 -2e-4,1.163 -0.0291,0.0291 -0.0604,0.0559 -0.0935,0.0804 z"
             transform="matrix(1.01389,0,0,1,145,374)"
             id="path147" />
          <path
             d="m 63.7528,22.875 c 0,0.6213 -0.5036,1.125 -1.125,1.125 -0.6213,0 -1.125,-0.5037 -1.125,-1.125 0,-0.6213 0.5037,-1.125 1.125,-1.125 0.6214,0 1.125,0.5037 1.125,1.125 z"
             transform="matrix(1.01389,0,0,1,145,374)"
             id="path149" />
        </g>
      </g>
    </g>
    <g
       clip-path="url(#clip10)"
       id="g163">
      <g
         clip-path="url(#clip11)"
         id="g161">
        <g
           clip-path="url(#clip12)"
           id="g159">
          <path
             d="m 401.257,462.824 -0.356,-0.356 c -0.113,-0.113 -0.172,-0.27 -0.161,-0.429 l 0.269,-3.947 c 0.079,-1.163 -0.307,-2.311 -1.074,-3.19 l -0.865,-0.988 1.359,-2.758 c 0.147,-0.297 0.025,-0.657 -0.272,-0.804 -0.083,-0.04 -0.174,-0.061 -0.265,-0.062 -0.129,0.002 -0.254,0.044 -0.356,0.123 l -3.427,2.557 v -3.604 c 0.001,-0.324 -0.261,-0.588 -0.585,-0.589 -0.003,-10e-4 -0.006,0 -0.009,0 -0.165,-10e-4 -0.323,0.071 -0.432,0.195 l -2.401,2.666 c -0.243,0.269 -0.538,0.484 -0.868,0.634 l -1.581,0.716 c -1.965,0.889 -3.606,2.366 -4.696,4.228 l -3.327,5.69 c -0.557,0.953 -1.533,1.587 -2.631,1.708 l -4.396,0.487 c -2.89,0.364 -5.652,1.415 -8.053,3.065 l -2.497,1.716 c -2.162,1.487 -3.977,3.422 -5.323,5.674 l -2.282,3.817 c -0.826,1.445 -2.115,2.57 -3.659,3.193 -2.109,0.809 -4.357,1.197 -6.615,1.145 -1.845,-0.013 -3.686,-0.191 -5.499,-0.532 -0.135,-0.023 -0.271,-0.034 -0.407,-0.033 -1.26,-0.002 -2.283,1.018 -2.284,2.278 -0.002,1.105 0.788,2.051 1.874,2.248 2.102,0.393 4.235,0.596 6.373,0.608 3.048,0.069 6.074,-0.522 8.872,-1.733 l 0.218,-0.119 v 6.603 c 0,1.26 1.021,2.281 2.281,2.281 h 2.281 c 1.26,0 2.282,-1.021 2.282,-2.281 0,-1.26 -1.022,-2.281 -2.282,-2.281 v -0.214 h 3.802 v 2.495 c 0,1.26 1.022,2.281 2.282,2.281 h 9.125 c 1.26,0 2.281,-1.021 2.281,-2.281 0,-1.26 -1.021,-2.281 -2.281,-2.281 h -6.844 v -0.217 c 2.692,-0.017 5.307,-0.9 7.456,-2.52 l 0.754,-0.569 c 0.613,-0.463 1.279,-0.851 1.985,-1.155 l 2.813,-1.213 c 1.165,-0.499 2.378,-0.876 3.621,-1.123 l 5.687,5.576 c 0.912,0.869 2.356,0.834 3.225,-0.078 0.852,-0.894 0.838,-2.303 -0.031,-3.18 l -5.007,-4.909 0.47,-0.971 7.867,3.006 c 1.192,0.409 2.489,-0.225 2.899,-1.416 0.389,-1.134 -0.165,-2.375 -1.269,-2.843 l -7.404,-2.836 0.886,-1.582 c 0.539,-0.963 0.88,-2.022 1.004,-3.118 l 0.367,-3.252 c 0.078,-0.686 0.658,-1.204 1.348,-1.204 h 1.73 c 0.815,0 1.61,-0.261 2.266,-0.745 l 1.581,-1.163 c 0.709,-0.524 0.86,-1.524 0.336,-2.233 -0.047,-0.064 -0.099,-0.124 -0.155,-0.181 z m -9.434,5.809 -7.477,-4.86 1.153,-1.971 7.053,4.583 c -0.365,0.502 -0.595,1.089 -0.667,1.706 z"
             id="path157" />
        </g>
      </g>
    </g>
    <text
       font-family="'Cambria Math', 'Cambria Math_MSFontService', sans-serif"
       font-weight="400"
       font-size="24px"
       transform="translate(279.547,275)"
       id="text165">ğ‘›</text>
    <text
       font-family="'Cambria Math', 'Cambria Math_MSFontService', sans-serif"
       font-weight="400"
       font-size="24px"
       transform="translate(398.391,311)"
       id="text167">ğ‘›</text>
    <text
       font-family="Calibri, Calibri_MSFontService, sans-serif"
       font-weight="400"
       font-size="24px"
       transform="translate(412.637,311)"
       id="text169">-</text>
    <text
       font-family="'Cambria Math', 'Cambria Math_MSFontService', sans-serif"
       font-weight="400"
       font-size="24px"
       transform="translate(419.971,311)"
       id="text171">ğ‘Ÿ</text>
    <text
       font-family="Calibri, Calibri_MSFontService, sans-serif"
       font-weight="400"
       font-size="27px"
       transform="translate(498.402,307)"
       id="text173">In the simplest case, we have</text>
    <text
       font-family="'Cambria Math', 'Cambria Math_MSFontService', sans-serif"
       font-weight="400"
       font-size="27px"
       transform="translate(820.115,307)"
       id="text175">ğ‘›</text>
    <text
       font-family="Calibri, Calibri_MSFontService, sans-serif"
       font-weight="400"
       font-size="27px"
       transform="translate(841.902,307)"
       id="text177">distinct and arrange them into</text>
    <text
       font-family="Calibri, Calibri_MSFontService, sans-serif"
       font-weight="400"
       font-size="27px"
       transform="translate(498.402,339)"
       id="text179">combinations of</text>
    <text
       font-family="'Cambria Math', 'Cambria Math_MSFontService', sans-serif"
       font-weight="400"
       font-size="27px"
       transform="translate(679.435,339)"
       id="text181">ğ‘Ÿ</text>
    <text
       font-family="'Cambria Math', 'Cambria Math_MSFontService', sans-serif"
       font-weight="400"
       font-size="27px"
       transform="translate(692.689,339)"
       id="text183" />
    <text
       font-family="Calibri, Calibri_MSFontService, sans-serif"
       font-weight="400"
       font-size="27px"
       transform="translate(698.522,339)"
       id="text185">objects.</text>
    <path
       d="m 598.833,371.948 c 3.49,1.771 6.263,5.021 8.321,9.75 2.057,4.729 3.086,10.271 3.086,16.625 0,6.313 -1.029,11.854 -3.086,16.625 -2.058,4.771 -4.831,8.031 -8.321,9.781 l -0.5,-1.25 c 2.792,-1.812 4.977,-4.927 6.555,-9.343 1.578,-4.417 2.367,-9.677 2.367,-15.782 0,-6.218 -0.794,-11.513 -2.383,-15.882 -1.588,-4.37 -3.768,-7.461 -6.539,-9.274 z m -86.29,0 0.515,1.25 c -2.77,1.813 -4.95,4.904 -6.539,9.274 -1.588,4.369 -2.383,9.664 -2.383,15.882 0,6.105 0.787,11.365 2.36,15.782 1.573,4.416 3.76,7.531 6.562,9.343 l -0.515,1.25 c -3.479,-1.75 -6.248,-5.01 -8.305,-9.781 -2.057,-4.771 -3.086,-10.312 -3.086,-16.625 0,-6.354 1.029,-11.896 3.086,-16.625 2.057,-4.729 4.826,-7.979 8.305,-9.75 z"
       fill-rule="evenodd"
       id="path187" />
    <text
       font-family="'Cambria Math', 'Cambria Math_MSFontService', sans-serif"
       font-weight="400"
       font-size="23px"
       transform="translate(547.909,393)"
       id="text189">ğ‘›</text>
    <text
       font-family="'Cambria Math', 'Cambria Math_MSFontService', sans-serif"
       font-weight="400"
       font-size="23px"
       transform="translate(514.089,420)"
       id="text191">ğ‘Ÿ</text>
    <text
       font-family="'Cambria Math', 'Cambria Math_MSFontService', sans-serif"
       font-weight="400"
       font-size="23px"
       transform="translate(527.162,420)"
       id="text193" />
    <text
       font-family="'Cambria Math', 'Cambria Math_MSFontService', sans-serif"
       font-weight="400"
       font-size="23px"
       transform="translate(532.329,420)"
       id="text195">(</text>
    <text
       font-family="'Cambria Math', 'Cambria Math_MSFontService', sans-serif"
       font-weight="400"
       font-size="23px"
       transform="translate(541.995,420)"
       id="text197">ğ‘›</text>
    <text
       font-family="'Cambria Math', 'Cambria Math_MSFontService', sans-serif"
       font-weight="400"
       font-size="23px"
       transform="translate(557.562,420)"
       id="text199">âˆ’</text>
    <text
       font-family="'Cambria Math', 'Cambria Math_MSFontService', sans-serif"
       font-weight="400"
       font-size="23px"
       transform="translate(574.562,420)"
       id="text201">ğ‘Ÿ</text>
    <text
       font-family="'Cambria Math', 'Cambria Math_MSFontService', sans-serif"
       font-weight="400"
       font-size="23px"
       transform="translate(587.635,420)"
       id="text203">)</text>
    <text
       font-family="Calibri, Calibri_MSFontService, sans-serif"
       font-weight="400"
       font-size="32px"
       transform="translate(620.155,407)"
       id="text205">=</text>
    <text
       font-family="'Cambria Math', 'Cambria Math_MSFontService', sans-serif"
       font-weight="400"
       font-size="23px"
       transform="translate(691.422,389)"
       id="text207">ğ‘›</text>
    <text
       font-family="'Cambria Math', 'Cambria Math_MSFontService', sans-serif"
       font-weight="400"
       font-size="23px"
       transform="translate(706.989,389)"
       id="text209">!</text>
    <text
       font-family="'Cambria Math', 'Cambria Math_MSFontService', sans-serif"
       font-weight="400"
       font-size="23px"
       transform="translate(643.322,424)"
       id="text211">ğ‘Ÿ</text>
    <text
       font-family="'Cambria Math', 'Cambria Math_MSFontService', sans-serif"
       font-weight="400"
       font-size="23px"
       transform="translate(656.395,424)"
       id="text213">!</text>
    <text
       font-family="'Cambria Math', 'Cambria Math_MSFontService', sans-serif"
       font-weight="400"
       font-size="23px"
       transform="translate(663.062,424)"
       id="text215" />
    <text
       font-family="'Cambria Math', 'Cambria Math_MSFontService', sans-serif"
       font-weight="400"
       font-size="23px"
       transform="translate(668.229,424)"
       id="text217">Ã—</text>
    <text
       font-family="'Cambria Math', 'Cambria Math_MSFontService', sans-serif"
       font-weight="400"
       font-size="23px"
       transform="translate(684.895,424)"
       id="text219" />
    <path
       d="m 746.125,406.334 c 2.187,0.576 3.866,1.821 5.037,3.734 1.172,1.913 1.758,4.221 1.758,6.923 0,2.711 -0.584,5.019 -1.752,6.924 -1.168,1.905 -2.849,3.146 -5.043,3.723 l -0.269,-0.865 c 1.729,-0.576 3.015,-1.714 3.858,-3.414 0.842,-1.699 1.263,-3.859 1.263,-6.48 0,-2.53 -0.419,-4.632 -1.258,-6.306 -0.838,-1.673 -2.137,-2.798 -3.897,-3.375 z m -47.247,0 0.303,0.864 c -1.752,0.577 -3.049,1.702 -3.891,3.375 -0.842,1.674 -1.264,3.776 -1.264,6.306 0,2.621 0.422,4.781 1.264,6.48 0.842,1.7 2.128,2.838 3.858,3.414 l -0.27,0.865 c -2.194,-0.577 -3.874,-1.818 -5.042,-3.723 -1.168,-1.905 -1.752,-4.213 -1.752,-6.924 0,-2.702 0.585,-5.01 1.757,-6.923 1.172,-1.913 2.851,-3.158 5.037,-3.734 z"
       fill-rule="evenodd"
       id="path221" />
    <text
       font-family="'Cambria Math', 'Cambria Math_MSFontService', sans-serif"
       font-weight="400"
       font-size="23px"
       transform="translate(699.755,424)"
       id="text223">ğ‘›</text>
    <text
       font-family="'Cambria Math', 'Cambria Math_MSFontService', sans-serif"
       font-weight="400"
       font-size="23px"
       transform="translate(715.322,424)"
       id="text225">âˆ’</text>
    <text
       font-family="'Cambria Math', 'Cambria Math_MSFontService', sans-serif"
       font-weight="400"
       font-size="23px"
       transform="translate(732.322,424)"
       id="text227">ğ‘Ÿ</text>
    <text
       font-family="'Cambria Math', 'Cambria Math_MSFontService', sans-serif"
       font-weight="400"
       font-size="23px"
       transform="translate(755.089,424)"
       id="text229">!</text>
    <path
       d="m 643.402,397.475 h 59 59 v 2 h -59 -59 z"
       fill-rule="evenodd"
       id="path231" />
    <text
       font-family="Calibri, Calibri_MSFontService, sans-serif"
       font-weight="400"
       font-size="32px"
       transform="translate(768.922,407)"
       id="text233">=</text>
    <text
       font-family="'Cambria Math', 'Cambria Math_MSFontService', sans-serif"
       font-weight="400"
       font-size="32px"
       transform="translate(792.089,407)"
       id="text235">ğ¶</text>
    <text
       font-family="'Cambria Math', 'Cambria Math_MSFontService', sans-serif"
       font-weight="400"
       font-size="23px"
       transform="translate(809.382,414)"
       id="text237">ğ‘Ÿ</text>
    <text
       font-family="'Cambria Math', 'Cambria Math_MSFontService', sans-serif"
       font-weight="400"
       font-size="23px"
       transform="translate(813.129,396)"
       id="text239">ğ‘›</text>
    <path
       d="m 598.887,447.344 c 3.489,1.771 6.263,5.021 8.32,9.75 2.057,4.729 3.086,10.271 3.086,16.625 0,6.312 -1.029,11.854 -3.086,16.625 -2.057,4.771 -4.831,8.031 -8.32,9.781 l -0.5,-1.25 c 2.791,-1.812 4.976,-4.927 6.554,-9.344 1.579,-4.416 2.368,-9.677 2.368,-15.781 0,-6.219 -0.795,-11.513 -2.383,-15.883 -1.589,-4.37 -3.768,-7.461 -6.539,-9.273 z m -86.344,0 0.515,1.25 c -2.77,1.812 -4.95,4.903 -6.539,9.273 -1.588,4.37 -2.383,9.664 -2.383,15.883 0,6.104 0.787,11.365 2.36,15.781 1.573,4.417 3.76,7.532 6.562,9.344 l -0.515,1.25 c -3.479,-1.75 -6.248,-5.01 -8.305,-9.781 -2.057,-4.771 -3.086,-10.313 -3.086,-16.625 0,-6.354 1.029,-11.896 3.086,-16.625 2.057,-4.729 4.826,-7.979 8.305,-9.75 z"
       fill-rule="evenodd"
       id="path241" />
    <text
       font-family="'Cambria Math', 'Cambria Math_MSFontService', sans-serif"
       font-weight="400"
       font-size="23px"
       transform="translate(547.935,468)"
       id="text243">ğ‘›</text>
    <path
       d="m 570.152,477.669 c 2.186,0.577 3.865,1.822 5.037,3.734 1.172,1.913 1.758,4.221 1.758,6.924 0,2.71 -0.584,5.018 -1.752,6.924 -1.168,1.905 -2.849,3.146 -5.043,3.723 l -0.269,-0.865 c 1.729,-0.577 3.015,-1.715 3.857,-3.414 0.843,-1.7 1.264,-3.86 1.264,-6.48 0,-2.531 -0.42,-4.633 -1.258,-6.306 -0.839,-1.674 -2.138,-2.798 -3.897,-3.375 z m -47.247,0 0.303,0.865 c -1.752,0.577 -3.049,1.701 -3.891,3.375 -0.843,1.673 -1.264,3.775 -1.264,6.306 0,2.62 0.421,4.78 1.264,6.48 0.842,1.699 2.128,2.837 3.857,3.414 l -0.269,0.865 c -2.194,-0.577 -3.875,-1.818 -5.043,-3.723 -1.168,-1.906 -1.752,-4.214 -1.752,-6.924 0,-2.703 0.586,-5.011 1.758,-6.924 1.172,-1.912 2.851,-3.157 5.037,-3.734 z"
       fill-rule="evenodd"
       id="path245" />
    <text
       font-family="'Cambria Math', 'Cambria Math_MSFontService', sans-serif"
       font-weight="400"
       font-size="23px"
       transform="translate(523.782,495)"
       id="text247">ğ‘›</text>
    <text
       font-family="'Cambria Math', 'Cambria Math_MSFontService', sans-serif"
       font-weight="400"
       font-size="23px"
       transform="translate(539.349,495)"
       id="text249">âˆ’</text>
    <text
       font-family="'Cambria Math', 'Cambria Math_MSFontService', sans-serif"
       font-weight="400"
       font-size="23px"
       transform="translate(556.349,495)"
       id="text251">ğ‘Ÿ</text>
    <text
       font-family="'Cambria Math', 'Cambria Math_MSFontService', sans-serif"
       font-weight="400"
       font-size="23px"
       transform="translate(579.115,495)"
       id="text253" />
    <text
       font-family="'Cambria Math', 'Cambria Math_MSFontService', sans-serif"
       font-weight="400"
       font-size="23px"
       transform="translate(584.282,495)"
       id="text255">ğ‘Ÿ</text>
    <text
       font-family="Calibri, Calibri_MSFontService, sans-serif"
       font-weight="400"
       font-size="32px"
       transform="translate(620.209,483)"
       id="text257">=</text>
    <text
       font-family="'Cambria Math', 'Cambria Math_MSFontService', sans-serif"
       font-weight="400"
       font-size="23px"
       transform="translate(743.375,464)"
       id="text259">ğ‘›</text>
    <text
       font-family="'Cambria Math', 'Cambria Math_MSFontService', sans-serif"
       font-weight="400"
       font-size="23px"
       transform="translate(758.942,464)"
       id="text261">!</text>
    <text
       font-family="'Cambria Math', 'Cambria Math_MSFontService', sans-serif"
       font-weight="400"
       font-size="23px"
       transform="translate(643.375,499)"
       id="text263">(</text>
    <text
       font-family="'Cambria Math', 'Cambria Math_MSFontService', sans-serif"
       font-weight="400"
       font-size="23px"
       transform="translate(653.042,499)"
       id="text265">ğ‘›</text>
    <text
       font-family="'Cambria Math', 'Cambria Math_MSFontService', sans-serif"
       font-weight="400"
       font-size="23px"
       transform="translate(668.609,499)"
       id="text267">âˆ’</text>
    <text
       font-family="'Cambria Math', 'Cambria Math_MSFontService', sans-serif"
       font-weight="400"
       font-size="23px"
       transform="translate(685.609,499)"
       id="text269">ğ‘Ÿ</text>
    <text
       font-family="'Cambria Math', 'Cambria Math_MSFontService', sans-serif"
       font-weight="400"
       font-size="23px"
       transform="translate(698.682,499)"
       id="text271">)</text>
    <text
       font-family="'Cambria Math', 'Cambria Math_MSFontService', sans-serif"
       font-weight="400"
       font-size="23px"
       transform="translate(708.349,499)"
       id="text273">!</text>
    <text
       font-family="'Cambria Math', 'Cambria Math_MSFontService', sans-serif"
       font-weight="400"
       font-size="23px"
       transform="translate(715.015,499)"
       id="text275" />
    <text
       font-family="'Cambria Math', 'Cambria Math_MSFontService', sans-serif"
       font-weight="400"
       font-size="23px"
       transform="translate(720.182,499)"
       id="text277">Ã—</text>
    <text
       font-family="'Cambria Math', 'Cambria Math_MSFontService', sans-serif"
       font-weight="400"
       font-size="23px"
       transform="translate(736.849,499)"
       id="text279" />
    <path
       d="m 849.979,481.729 c 2.186,0.577 3.865,1.822 5.037,3.734 1.171,1.913 1.757,4.221 1.757,6.924 0,2.71 -0.584,5.018 -1.752,6.924 -1.168,1.905 -2.849,3.146 -5.042,3.723 l -0.27,-0.865 c 1.73,-0.577 3.016,-1.715 3.858,-3.414 0.842,-1.7 1.263,-3.86 1.263,-6.48 0,-2.531 -0.419,-4.633 -1.257,-6.306 -0.839,-1.674 -2.138,-2.798 -3.897,-3.375 z m -99.148,0 0.304,0.865 c -1.752,0.577 -3.049,1.701 -3.892,3.375 -0.842,1.673 -1.263,3.775 -1.263,6.306 0,2.62 0.421,4.78 1.263,6.48 0.843,1.699 2.128,2.837 3.858,3.414 l -0.27,0.865 c -2.193,-0.577 -3.874,-1.818 -5.042,-3.723 -1.168,-1.906 -1.752,-4.214 -1.752,-6.924 0,-2.703 0.586,-5.011 1.757,-6.924 1.172,-1.912 2.851,-3.157 5.037,-3.734 z"
       fill-rule="evenodd"
       id="path281" />
    <text
       font-family="'Cambria Math', 'Cambria Math_MSFontService', sans-serif"
       font-weight="400"
       font-size="23px"
       transform="translate(751.709,499)"
       id="text283">ğ‘›</text>
    <text
       font-family="'Cambria Math', 'Cambria Math_MSFontService', sans-serif"
       font-weight="400"
       font-size="23px"
       transform="translate(767.275,499)"
       id="text285">âˆ’</text>
    <text
       font-family="'Cambria Math', 'Cambria Math_MSFontService', sans-serif"
       font-weight="400"
       font-size="23px"
       transform="translate(784.275,499)"
       id="text287">(</text>
    <text
       font-family="'Cambria Math', 'Cambria Math_MSFontService', sans-serif"
       font-weight="400"
       font-size="23px"
       transform="translate(793.942,499)"
       id="text289">ğ‘›</text>
    <text
       font-family="'Cambria Math', 'Cambria Math_MSFontService', sans-serif"
       font-weight="400"
       font-size="23px"
       transform="translate(809.509,499)"
       id="text291">âˆ’</text>
    <text
       font-family="'Cambria Math', 'Cambria Math_MSFontService', sans-serif"
       font-weight="400"
       font-size="23px"
       transform="translate(826.509,499)"
       id="text293">ğ‘Ÿ</text>
    <text
       font-family="'Cambria Math', 'Cambria Math_MSFontService', sans-serif"
       font-weight="400"
       font-size="23px"
       transform="translate(839.582,499)"
       id="text295">)</text>
    <text
       font-family="'Cambria Math', 'Cambria Math_MSFontService', sans-serif"
       font-weight="400"
       font-size="23px"
       transform="translate(858.942,499)"
       id="text297">!</text>
    <path
       d="m 643.402,472.871 h 111 111 v 2 h -111 -111 z"
       fill-rule="evenodd"
       id="path299" />
    <text
       font-family="Calibri, Calibri_MSFontService, sans-serif"
       font-weight="400"
       font-size="32px"
       transform="translate(872.775,483)"
       id="text301">=</text>
    <text
       font-family="'Cambria Math', 'Cambria Math_MSFontService', sans-serif"
       font-weight="400"
       font-size="23px"
       transform="translate(944.042,464)"
       id="text303">ğ‘›</text>
    <text
       font-family="'Cambria Math', 'Cambria Math_MSFontService', sans-serif"
       font-weight="400"
       font-size="23px"
       transform="translate(959.609,464)"
       id="text305">!</text>
    <path
       d="m 952.005,481.729 c 2.187,0.577 3.866,1.822 5.037,3.734 1.172,1.913 1.758,4.221 1.758,6.924 0,2.71 -0.584,5.018 -1.752,6.924 -1.168,1.905 -2.849,3.146 -5.043,3.723 l -0.269,-0.865 c 1.729,-0.577 3.015,-1.715 3.858,-3.414 0.842,-1.7 1.263,-3.86 1.263,-6.48 0,-2.531 -0.419,-4.633 -1.258,-6.306 -0.838,-1.674 -2.137,-2.798 -3.897,-3.375 z m -47.247,0 0.303,0.865 c -1.752,0.577 -3.049,1.701 -3.891,3.375 -0.842,1.673 -1.264,3.775 -1.264,6.306 0,2.62 0.422,4.78 1.264,6.48 0.842,1.699 2.128,2.837 3.858,3.414 l -0.27,0.865 c -2.194,-0.577 -3.874,-1.818 -5.042,-3.723 -1.168,-1.906 -1.752,-4.214 -1.752,-6.924 0,-2.703 0.585,-5.011 1.757,-6.924 1.172,-1.912 2.851,-3.157 5.037,-3.734 z"
       fill-rule="evenodd"
       id="path307" />
    <text
       font-family="'Cambria Math', 'Cambria Math_MSFontService', sans-serif"
       font-weight="400"
       font-size="23px"
       transform="translate(905.635,499)"
       id="text309">ğ‘›</text>
    <text
       font-family="'Cambria Math', 'Cambria Math_MSFontService', sans-serif"
       font-weight="400"
       font-size="23px"
       transform="translate(921.202,499)"
       id="text311">âˆ’</text>
    <text
       font-family="'Cambria Math', 'Cambria Math_MSFontService', sans-serif"
       font-weight="400"
       font-size="23px"
       transform="translate(938.202,499)"
       id="text313">ğ‘Ÿ</text>
    <text
       font-family="'Cambria Math', 'Cambria Math_MSFontService', sans-serif"
       font-weight="400"
       font-size="23px"
       transform="translate(960.969,499)"
       id="text315">!</text>
    <text
       font-family="'Cambria Math', 'Cambria Math_MSFontService', sans-serif"
       font-weight="400"
       font-size="23px"
       transform="translate(967.635,499)"
       id="text317" />
    <text
       font-family="'Cambria Math', 'Cambria Math_MSFontService', sans-serif"
       font-weight="400"
       font-size="23px"
       transform="translate(972.802,499)"
       id="text319">Ã—</text>
    <text
       font-family="'Cambria Math', 'Cambria Math_MSFontService', sans-serif"
       font-weight="400"
       font-size="23px"
       transform="translate(989.469,499)"
       id="text321" />
    <text
       font-family="'Cambria Math', 'Cambria Math_MSFontService', sans-serif"
       font-weight="400"
       font-size="23px"
       transform="translate(994.635,499)"
       id="text323">ğ‘Ÿ</text>
    <text
       font-family="'Cambria Math', 'Cambria Math_MSFontService', sans-serif"
       font-weight="400"
       font-size="23px"
       transform="translate(1007.71,499)"
       id="text325">!</text>
    <path
       d="M 896.402,472.871 H 1014.4 v 2 H 896.402 Z"
       fill-rule="evenodd"
       id="path327" />
    <text
       font-family="'Cambria Math', 'Cambria Math_MSFontService', sans-serif"
       font-weight="400"
       font-size="32px"
       transform="translate(1019.71,483)"
       id="text329" />
    <text
       font-family="Calibri, Calibri_MSFontService, sans-serif"
       font-weight="400"
       font-size="32px"
       transform="translate(1026.71,483)"
       id="text331">=</text>
    <text
       font-family="Calibri, Calibri_MSFontService, sans-serif"
       font-weight="400"
       font-size="32px"
       transform="translate(1042.71,483)"
       id="text333" />
    <text
       font-family="'Cambria Math', 'Cambria Math_MSFontService', sans-serif"
       font-weight="400"
       font-size="32px"
       transform="translate(1049.88,483)"
       id="text335">ğ¶</text>
    <text
       font-family="'Cambria Math', 'Cambria Math_MSFontService', sans-serif"
       font-weight="400"
       font-size="23px"
       transform="translate(1067.17,489)"
       id="text337">ğ‘›</text>
    <text
       font-family="'Cambria Math', 'Cambria Math_MSFontService', sans-serif"
       font-weight="400"
       font-size="23px"
       transform="translate(1082.74,489)"
       id="text339">âˆ’</text>
    <text
       font-family="'Cambria Math', 'Cambria Math_MSFontService', sans-serif"
       font-weight="400"
       font-size="23px"
       transform="translate(1099.74,489)"
       id="text341">ğ‘Ÿ</text>
    <text
       font-family="'Cambria Math', 'Cambria Math_MSFontService', sans-serif"
       font-weight="400"
       font-size="23px"
       transform="translate(1070.92,471)"
       id="text343">ğ‘›</text>
    <text
       font-family="Calibri, Calibri_MSFontService, sans-serif"
       font-weight="400"
       font-size="27px"
       transform="translate(672.28,569)"
       id="text345">Therefore</text>
    <text
       font-family="'Cambria Math', 'Cambria Math_MSFontService', sans-serif"
       font-weight="400"
       font-size="32px"
       transform="translate(785.78,569)"
       id="text347">ğ¶</text>
    <text
       font-family="'Cambria Math', 'Cambria Math_MSFontService', sans-serif"
       font-weight="400"
       font-size="23px"
       transform="translate(803.073,575)"
       id="text349">ğ‘Ÿ</text>
    <text
       font-family="'Cambria Math', 'Cambria Math_MSFontService', sans-serif"
       font-weight="400"
       font-size="23px"
       transform="translate(806.82,557)"
       id="text351">ğ‘›</text>
    <text
       font-family="Calibri, Calibri_MSFontService, sans-serif"
       font-weight="400"
       font-size="32px"
       transform="translate(830.88,569)"
       id="text353">=</text>
    <text
       font-family="'Cambria Math', 'Cambria Math_MSFontService', sans-serif"
       font-weight="400"
       font-size="32px"
       transform="translate(854.046,569)"
       id="text355">ğ¶</text>
    <text
       font-family="'Cambria Math', 'Cambria Math_MSFontService', sans-serif"
       font-weight="400"
       font-size="23px"
       transform="translate(871.34,575)"
       id="text357">ğ‘›</text>
    <text
       font-family="'Cambria Math', 'Cambria Math_MSFontService', sans-serif"
       font-weight="400"
       font-size="23px"
       transform="translate(886.906,575)"
       id="text359">âˆ’</text>
    <text
       font-family="'Cambria Math', 'Cambria Math_MSFontService', sans-serif"
       font-weight="400"
       font-size="23px"
       transform="translate(903.906,575)"
       id="text361">ğ‘Ÿ</text>
    <text
       font-family="'Cambria Math', 'Cambria Math_MSFontService', sans-serif"
       font-weight="400"
       font-size="23px"
       transform="translate(875.086,557)"
       id="text363">ğ‘›</text>
  </g>
</svg>
