<?xml version="1.0" encoding="UTF-8" standalone="no"?>
<svg
   width="1280"
   height="320"
   overflow="hidden"
   version="1.1"
   id="svg107"
   sodipodi:docname="functions-limit_types.svg"
   inkscape:version="1.2 (dc2aedaf03, 2022-05-15)"
   xmlns:inkscape="http://www.inkscape.org/namespaces/inkscape"
   xmlns:sodipodi="http://sodipodi.sourceforge.net/DTD/sodipodi-0.dtd"
   xmlns="http://www.w3.org/2000/svg"
   xmlns:svg="http://www.w3.org/2000/svg">
  <sodipodi:namedview
     id="namedview109"
     pagecolor="#ffffff"
     bordercolor="#000000"
     borderopacity="0.25"
     inkscape:showpageshadow="2"
     inkscape:pageopacity="0.0"
     inkscape:pagecheckerboard="0"
     inkscape:deskcolor="#d1d1d1"
     showgrid="false"
     inkscape:zoom="1.3111111"
     inkscape:cx="575.4661"
     inkscape:cy="367.62712"
     inkscape:window-width="2880"
     inkscape:window-height="1514"
     inkscape:window-x="3829"
     inkscape:window-y="-11"
     inkscape:window-maximized="1"
     inkscape:current-layer="svg107" />
  <defs
     id="defs5">
    <clipPath
       id="clip0">
      <rect
         x="0"
         y="0"
         width="1280"
         height="720"
         id="rect2" />
    </clipPath>
  </defs>
  <g
     clip-path="url(#clip0)"
     id="g105"
     transform="translate(28.220339,-97.627119)">
    <rect
       x="0"
       y="0"
       width="1280"
       height="720"
       fill="#ffffff"
       id="rect7" />
    <path
       d="m 189.947,358 h 12 v 4 h -12 z m 16,0 h 12 v 4 h -12 z m 16,0 h 12 v 4 h -12 z m 16,0 h 12 v 4 h -12 z m 16,0 h 12 v 4 h -12 z m 16,0 h 12 v 4 h -12 z m 16,0 h 12 v 4 h -12 z m 16,0 h 12 v 4 h -12 z m 16,0 h 12 v 4 h -12 z m 16,0 h 12 v 4 h -12 z m 16,0 h 12 v 4 h -12 z m 16,0 h 12 v 4 h -12 z m 16,0 h 12 v 4 h -12 z m 16,0 h 12 v 4 h -12 z m 16,0 h 12 v 4 h -12 z m 16,0 h 12 v 4 h -12 z m 16,0 h 12 v 4 h -12 z m 16,0 h 12 v 4 h -12 z m 16,0 h 12 v 4 h -12 z m 16,0 h 12 v 4 h -12 z m 16,0 h 12 v 4 h -12 z m 16,0 h 12 v 4 h -12 z m 16,0 h 12 v 4 h -12 z m 16,0 h 12 v 4 h -12 z m 16,0 h 12 v 4 h -12 z m 16,0 h 12 v 4 h -12 z m 16,0 h 12 v 4 h -12 z m 16,0 h 12 v 4 h -12 z m 16,0 h 12 v 4 h -12 z m 16,0 h 12 v 4 h -12 z m 16,0 h 12 v 4 h -12 z m 16,0 h 12 v 4 h -12 z m 16,0 h 12 v 4 h -12 z m 16,0 h 12 v 4 h -12 z m 16,0 h 12 v 4 h -12 z m 16,0 h 12 v 4 h -12 z m 16,0 h 12 v 4 h -12 z m 16,0 h 12 v 4 h -12 z m 16,0 h 12 v 4 h -12 z m 16,0 h 12 v 4 h -12 z m 16,0 h 12 v 4 h -12 z m 16,0 h 12 v 4 h -12 z m 16,0 h 12 v 4 h -12 z m 16,0 h 12 v 4 h -12 z m 16,0 h 12 v 4 h -12 z m 16,0 h 12 v 4 h -12 z m 16,0 h 12 v 4 h -12 z m 16,0 h 12 v 4 h -12 z m 16,0 h 12 v 4 h -12 z m 16,0 h 12 v 4 h -12 z m 16,0 h 12.003 v 4 h -12.003 z m 16.003,0 h 7.69 v 4 h -7.69 z M 200.952,368.728 185.991,360 l 14.961,-8.728 c 0.954,-0.556 2.179,-0.234 2.736,0.72 0.556,0.954 0.234,2.179 -0.72,2.736 l -12,7 v -3.456 l 12,7 c 0.954,0.557 1.276,1.782 0.72,2.736 -0.557,0.954 -1.782,1.276 -2.736,0.72 z m 801.688,-17.455 14.96,8.727 -14.96,8.728 c -0.96,0.556 -2.18,0.234 -2.739,-0.72 -0.557,-0.954 -0.234,-2.179 0.719,-2.735 l 12,-7 v 3.455 l -12,-7 c -0.953,-0.557 -1.276,-1.782 -0.719,-2.736 0.559,-0.954 1.779,-1.276 2.739,-0.719 z"
       fill="#bfbfbf"
       id="path9" />
    <path
       d="m 595.5,360 c 0,-4.142 3.358,-7.5 7.5,-7.5 4.142,0 7.5,3.358 7.5,7.5 0,4.142 -3.358,7.5 -7.5,7.5 -4.142,0 -7.5,-3.358 -7.5,-7.5 z"
       stroke="#000000"
       stroke-width="3"
       stroke-miterlimit="8"
       fill="#44546a"
       fill-rule="evenodd"
       id="path11" />
    <text
       fill="#bfbfbf"
       font-family="Calibri, Calibri_MSFontService, sans-serif"
       font-weight="400"
       font-size="32px"
       transform="translate(480.546,395)"
       id="text13">0</text>
    <path
       d="m 489,352 v 15.312"
       stroke="#bfbfbf"
       stroke-width="4"
       stroke-miterlimit="8"
       fill="none"
       fill-rule="evenodd"
       id="path15" />
    <path
       d="m 414,352 v 15.312"
       stroke="#bfbfbf"
       stroke-width="4"
       stroke-miterlimit="8"
       fill="none"
       fill-rule="evenodd"
       id="path17" />
    <path
       d="m 565,352 v 15.312"
       stroke="#bfbfbf"
       stroke-width="4"
       stroke-miterlimit="8"
       fill="none"
       fill-rule="evenodd"
       id="path19" />
    <path
       d="m 641,352 v 15.312"
       stroke="#bfbfbf"
       stroke-width="4"
       stroke-miterlimit="8"
       fill="none"
       fill-rule="evenodd"
       id="path21" />
    <path
       d="m 716,352 v 15.312"
       stroke="#bfbfbf"
       stroke-width="4"
       stroke-miterlimit="8"
       fill="none"
       fill-rule="evenodd"
       id="path23" />
    <text
       font-family="Calibri, Calibri_MSFontService, sans-serif"
       font-weight="400"
       font-size="43px"
       transform="translate(505.962,155)"
       id="text25">Limit types</text>
    <path
       d="m 791,353 v 15.312"
       stroke="#bfbfbf"
       stroke-width="4"
       stroke-miterlimit="8"
       fill="none"
       fill-rule="evenodd"
       id="path27" />
    <path
       d="m 867,353 v 15.312"
       stroke="#bfbfbf"
       stroke-width="4"
       stroke-miterlimit="8"
       fill="none"
       fill-rule="evenodd"
       id="path29" />
    <path
       d="m 262,353 v 15.312"
       stroke="#bfbfbf"
       stroke-width="4"
       stroke-miterlimit="8"
       fill="none"
       fill-rule="evenodd"
       id="path31" />
    <path
       d="m 338,353 v 15.312"
       stroke="#bfbfbf"
       stroke-width="4"
       stroke-miterlimit="8"
       fill="none"
       fill-rule="evenodd"
       id="path33" />
    <text
       font-family="Calibri, Calibri_MSFontService, sans-serif"
       font-weight="400"
       font-size="32px"
       transform="translate(593.944,395)"
       id="text35">a</text>
    <path
       d="m 434,343 c 0,-7.18 5.117,-13 11.429,-13 h 57.642 c 6.312,0 11.429,-5.82 11.429,-13 0,7.18 5.117,13 11.429,13 h 57.642 c 6.312,0 11.429,5.82 11.429,13"
       stroke="#000000"
       stroke-width="2"
       stroke-miterlimit="8"
       fill="none"
       fill-rule="evenodd"
       id="path37" />
    <text
       font-family="'Cambria Math', 'Cambria Math_MSFontService', sans-serif"
       font-weight="400"
       font-size="24px"
       transform="translate(473.065,294)"
       id="text69">lim<tspan
   font-size="18px"
   x="-8.1933298"
   y="14"
   id="tspan39">ğ‘¥</tspan><tspan
   font-size="18px"
   x="2.6066599"
   y="14"
   id="tspan41">â†’</tspan><tspan
   font-size="18px"
   x="17.2733"
   y="14"
   id="tspan43">ğ‘</tspan><tspan
   font-size="18px"
   x="28.700001"
   y="14"
   id="tspan45">âˆ’</tspan><tspan
   font-size="24px"
   x="45.366699"
   y="0"
   id="tspan47">ğ‘“</tspan><tspan
   font-size="24px"
   x="59.233299"
   y="0"
   id="tspan49">(</tspan>ğ‘¥<tspan
   font-size="24px"
   x="82.793297"
   y="0"
   id="tspan51">)</tspan><tspan
   font-size="24px"
   x="175.59399"
   y="0"
   id="tspan53">lim</tspan><tspan
   font-size="18px"
   x="167.39999"
   y="14"
   id="tspan55">ğ‘¥</tspan><tspan
   font-size="18px"
   x="178.201"
   y="14"
   id="tspan57">â†’</tspan><tspan
   font-size="18px"
   x="192.867"
   y="14"
   id="tspan59">ğ‘</tspan><tspan
   font-size="18px"
   x="204.29401"
   y="14"
   id="tspan61">+</tspan><tspan
   font-size="24px"
   x="220.96001"
   y="0"
   id="tspan63">ğ‘“</tspan><tspan
   font-size="24px"
   x="234.827"
   y="0"
   id="tspan65">(</tspan>ğ‘¥<tspan
   font-size="24px"
   x="258.38699"
   y="0"
   id="tspan67">)</tspan></text>
    <path
       d="m 610,343 c 0,-7.18 5.117,-13 11.429,-13 h 57.142 c 6.312,0 11.429,-5.82 11.429,-13 0,7.18 5.117,13 11.429,13 h 57.142 c 6.312,0 11.429,5.82 11.429,13"
       stroke="#000000"
       stroke-width="2"
       stroke-miterlimit="8"
       fill="none"
       fill-rule="evenodd"
       id="path71" />
    <path
       d="m 942,352 v 15.312"
       stroke="#bfbfbf"
       stroke-width="4"
       stroke-miterlimit="8"
       fill="none"
       fill-rule="evenodd"
       id="path73" />
    <text
       font-family="'Cambria Math', 'Cambria Math_MSFontService', sans-serif"
       font-weight="400"
       font-size="24px"
       transform="translate(163.909,296)"
       id="text103">lim<tspan
   font-size="18px"
   x="-10.5667"
   y="15"
   id="tspan75">ğ‘¥</tspan><tspan
   font-size="18px"
   x="0.233337"
   y="15"
   id="tspan77">â†’</tspan><tspan
   font-size="18px"
   x="14.9"
   y="15"
   id="tspan79">âˆ’</tspan><tspan
   font-size="18px"
   x="27.5667"
   y="15"
   id="tspan81">âˆ</tspan><tspan
   font-size="24px"
   x="47.733299"
   y="0"
   id="tspan83">ğ‘“</tspan><tspan
   font-size="24px"
   x="61.599998"
   y="0"
   id="tspan85">(</tspan>ğ‘¥<tspan
   font-size="24px"
   x="85.160004"
   y="0"
   id="tspan87">)</tspan><tspan
   font-size="24px"
   x="811.75403"
   y="0"
   id="tspan89">lim</tspan><tspan
   font-size="18px"
   x="807.521"
   y="15"
   id="tspan91">ğ‘¥</tspan><tspan
   font-size="18px"
   x="818.32098"
   y="15"
   id="tspan93">â†’</tspan><tspan
   font-size="18px"
   x="832.98798"
   y="15"
   id="tspan95">âˆ</tspan><tspan
   font-size="24px"
   x="853.15399"
   y="0"
   id="tspan97">ğ‘“</tspan><tspan
   font-size="24px"
   x="867.021"
   y="0"
   id="tspan99">(</tspan>ğ‘¥<tspan
   font-size="24px"
   x="890.58099"
   y="0"
   id="tspan101">)</tspan></text>
  </g>
</svg>
