<?xml version="1.0" encoding="UTF-8" standalone="no"?>
<svg
   width="1280"
   height="640"
   overflow="hidden"
   version="1.1"
   id="svg215"
   sodipodi:docname="functions-simple_function_example.svg"
   inkscape:version="1.2 (dc2aedaf03, 2022-05-15)"
   xmlns:inkscape="http://www.inkscape.org/namespaces/inkscape"
   xmlns:sodipodi="http://sodipodi.sourceforge.net/DTD/sodipodi-0.dtd"
   xmlns="http://www.w3.org/2000/svg"
   xmlns:svg="http://www.w3.org/2000/svg">
  <sodipodi:namedview
     id="namedview217"
     pagecolor="#ffffff"
     bordercolor="#000000"
     borderopacity="0.25"
     inkscape:showpageshadow="2"
     inkscape:pageopacity="0.0"
     inkscape:pagecheckerboard="0"
     inkscape:deskcolor="#d1d1d1"
     showgrid="false"
     inkscape:zoom="0.65555556"
     inkscape:cx="388.22034"
     inkscape:cy="360"
     inkscape:window-width="2880"
     inkscape:window-height="1514"
     inkscape:window-x="3829"
     inkscape:window-y="-11"
     inkscape:window-maximized="1"
     inkscape:current-layer="svg215" />
  <defs
     id="defs5">
    <clipPath
       id="clip0">
      <rect
         x="0"
         y="0"
         width="1280"
         height="720"
         id="rect2" />
    </clipPath>
  </defs>
  <g
     clip-path="url(#clip0)"
     id="g213"
     transform="translate(112.88135,-19.830509)">
    <rect
       x="0"
       y="0"
       width="1280"
       height="720"
       fill="#ffffff"
       id="rect7" />
    <text
       font-family="Calibri, Calibri_MSFontService, sans-serif"
       font-weight="400"
       font-size="32px"
       transform="translate(152.379,633)"
       id="text19">Is function <tspan
   font-family="'Cambria Math', 'Cambria Math_MSFontService', sans-serif"
   font-size="32px"
   x="143.5"
   y="0"
   id="tspan9">ğ‘“</tspan><tspan
   font-size="32px"
   x="162.10699"
   y="0"
   id="tspan11">(x)</tspan><tspan
   font-size="32px"
   x="542.52399"
   y="0"
   id="tspan13">Not</tspan><tspan
   font-size="32px"
   x="597.85699"
   y="0"
   id="tspan15">a</tspan><tspan
   font-size="32px"
   x="620.35699"
   y="0"
   id="tspan17">function</tspan></text>
    <rect
       x="690"
       y="498"
       width="50"
       height="44"
       stroke="#ededed"
       stroke-width="4"
       stroke-miterlimit="8"
       fill="none"
       id="rect21" />
    <rect
       x="640"
       y="498"
       width="50"
       height="44"
       stroke="#ededed"
       stroke-width="4"
       stroke-miterlimit="8"
       fill="none"
       id="rect23" />
    <rect
       x="740"
       y="498"
       width="50"
       height="44"
       stroke="#ededed"
       stroke-width="4"
       stroke-miterlimit="8"
       fill="none"
       id="rect25" />
    <rect
       x="740"
       y="453"
       width="50"
       height="45"
       stroke="#ededed"
       stroke-width="4"
       stroke-miterlimit="8"
       fill="none"
       id="rect27" />
    <rect
       x="790"
       y="498"
       width="51"
       height="44"
       stroke="#ededed"
       stroke-width="4"
       stroke-miterlimit="8"
       fill="none"
       id="rect29" />
    <rect
       x="790"
       y="453"
       width="51"
       height="45"
       stroke="#ededed"
       stroke-width="4"
       stroke-miterlimit="8"
       fill="none"
       id="rect31" />
    <rect
       x="790"
       y="408"
       width="51"
       height="45"
       stroke="#ededed"
       stroke-width="4"
       stroke-miterlimit="8"
       fill="none"
       id="rect33" />
    <rect
       x="790"
       y="363"
       width="51"
       height="45"
       stroke="#ededed"
       stroke-width="4"
       stroke-miterlimit="8"
       fill="none"
       id="rect35" />
    <rect
       x="740"
       y="408"
       width="50"
       height="45"
       stroke="#ededed"
       stroke-width="4"
       stroke-miterlimit="8"
       fill="none"
       id="rect37" />
    <rect
       x="740"
       y="363"
       width="50"
       height="45"
       stroke="#ededed"
       stroke-width="4"
       stroke-miterlimit="8"
       fill="none"
       id="rect39" />
    <rect
       x="690"
       y="453"
       width="50"
       height="45"
       stroke="#ededed"
       stroke-width="4"
       stroke-miterlimit="8"
       fill="none"
       id="rect41" />
    <rect
       x="690"
       y="408"
       width="50"
       height="45"
       stroke="#ededed"
       stroke-width="4"
       stroke-miterlimit="8"
       fill="none"
       id="rect43" />
    <rect
       x="640"
       y="453"
       width="50"
       height="45"
       stroke="#ededed"
       stroke-width="4"
       stroke-miterlimit="8"
       fill="none"
       id="rect45" />
    <rect
       x="640"
       y="408"
       width="50"
       height="45"
       stroke="#ededed"
       stroke-width="4"
       stroke-miterlimit="8"
       fill="none"
       id="rect47" />
    <rect
       x="690"
       y="363"
       width="50"
       height="45"
       stroke="#ededed"
       stroke-width="4"
       stroke-miterlimit="8"
       fill="none"
       id="rect49" />
    <rect
       x="640"
       y="363"
       width="50"
       height="45"
       stroke="#ededed"
       stroke-width="4"
       stroke-miterlimit="8"
       fill="none"
       id="rect51" />
    <rect
       x="840"
       y="498"
       width="51"
       height="44"
       stroke="#ededed"
       stroke-width="4"
       stroke-miterlimit="8"
       fill="none"
       id="rect53" />
    <rect
       x="840"
       y="453"
       width="51"
       height="45"
       stroke="#ededed"
       stroke-width="4"
       stroke-miterlimit="8"
       fill="none"
       id="rect55" />
    <rect
       x="890"
       y="498"
       width="51"
       height="44"
       stroke="#ededed"
       stroke-width="4"
       stroke-miterlimit="8"
       fill="none"
       id="rect57" />
    <rect
       x="890"
       y="453"
       width="51"
       height="45"
       stroke="#ededed"
       stroke-width="4"
       stroke-miterlimit="8"
       fill="none"
       id="rect59" />
    <rect
       x="890"
       y="408"
       width="51"
       height="45"
       stroke="#ededed"
       stroke-width="4"
       stroke-miterlimit="8"
       fill="none"
       id="rect61" />
    <rect
       x="890"
       y="363"
       width="51"
       height="45"
       stroke="#ededed"
       stroke-width="4"
       stroke-miterlimit="8"
       fill="none"
       id="rect63" />
    <rect
       x="840"
       y="408"
       width="50"
       height="45"
       stroke="#ededed"
       stroke-width="4"
       stroke-miterlimit="8"
       fill="none"
       id="rect65" />
    <rect
       x="840"
       y="363"
       width="50"
       height="45"
       stroke="#ededed"
       stroke-width="4"
       stroke-miterlimit="8"
       fill="none"
       id="rect67" />
    <path
       d="M 640,498 H 941.2"
       stroke="#bfbfbf"
       stroke-width="4"
       stroke-miterlimit="8"
       stroke-dasharray="12, 4"
       fill="none"
       fill-rule="evenodd"
       id="path69" />
    <rect
       x="690"
       y="542"
       width="50"
       height="45"
       stroke="#ededed"
       stroke-width="4"
       stroke-miterlimit="8"
       fill="none"
       id="rect71" />
    <rect
       x="639"
       y="542"
       width="51"
       height="45"
       stroke="#ededed"
       stroke-width="4"
       stroke-miterlimit="8"
       fill="none"
       id="rect73" />
    <rect
       x="740"
       y="542"
       width="50"
       height="45"
       stroke="#ededed"
       stroke-width="4"
       stroke-miterlimit="8"
       fill="none"
       id="rect75" />
    <rect
       x="790"
       y="542"
       width="50"
       height="45"
       stroke="#ededed"
       stroke-width="4"
       stroke-miterlimit="8"
       fill="none"
       id="rect77" />
    <rect
       x="840"
       y="542"
       width="51"
       height="45"
       stroke="#ededed"
       stroke-width="4"
       stroke-miterlimit="8"
       fill="none"
       id="rect79" />
    <rect
       x="890"
       y="542"
       width="51"
       height="45"
       stroke="#ededed"
       stroke-width="4"
       stroke-miterlimit="8"
       fill="none"
       id="rect81" />
    <path
       d="M 0,0 1.04987e-4,223.812"
       stroke="#bfbfbf"
       stroke-width="4"
       stroke-miterlimit="8"
       stroke-dasharray="12, 4"
       fill="none"
       fill-rule="evenodd"
       transform="matrix(1,0,0,-1,790,586.812)"
       id="path83" />
    <path
       d="m 949,408 c 4.418,0 8,3.149 8,7.033 v 28.434 c 0,3.884 3.582,7.033 8,7.033 -4.418,0 -8,3.149 -8,7.033 v 28.434 c 0,3.884 -3.582,7.033 -8,7.033"
       stroke="#000000"
       stroke-width="2"
       stroke-miterlimit="8"
       fill="none"
       fill-rule="evenodd"
       id="path85" />
    <path
       d="m 949,502 c 5.247,0 9.5,3.739 9.5,8.352 v 25.796 c 0,4.613 4.253,8.352 9.5,8.352 -5.247,0 -9.5,3.739 -9.5,8.352 v 25.796 c 0,4.613 -4.253,8.352 -9.5,8.352"
       stroke="#000000"
       stroke-width="2"
       stroke-miterlimit="8"
       fill="none"
       fill-rule="evenodd"
       id="path87" />
    <rect
       x="162"
       y="498"
       width="50"
       height="45"
       stroke="#ededed"
       stroke-width="4"
       stroke-miterlimit="8"
       fill="none"
       id="rect89" />
    <rect
       x="112"
       y="498"
       width="50"
       height="45"
       stroke="#ededed"
       stroke-width="4"
       stroke-miterlimit="8"
       fill="none"
       id="rect91" />
    <rect
       x="212"
       y="498"
       width="51"
       height="45"
       stroke="#ededed"
       stroke-width="4"
       stroke-miterlimit="8"
       fill="none"
       id="rect93" />
    <rect
       x="212"
       y="453"
       width="51"
       height="45"
       stroke="#ededed"
       stroke-width="4"
       stroke-miterlimit="8"
       fill="none"
       id="rect95" />
    <rect
       x="262"
       y="498"
       width="51"
       height="45"
       stroke="#ededed"
       stroke-width="4"
       stroke-miterlimit="8"
       fill="none"
       id="rect97" />
    <rect
       x="262"
       y="453"
       width="51"
       height="45"
       stroke="#ededed"
       stroke-width="4"
       stroke-miterlimit="8"
       fill="none"
       id="rect99" />
    <rect
       x="262"
       y="408"
       width="51"
       height="45"
       stroke="#ededed"
       stroke-width="4"
       stroke-miterlimit="8"
       fill="none"
       id="rect101" />
    <rect
       x="262"
       y="363"
       width="51"
       height="45"
       stroke="#ededed"
       stroke-width="4"
       stroke-miterlimit="8"
       fill="none"
       id="rect103" />
    <rect
       x="212"
       y="408"
       width="50"
       height="45"
       stroke="#ededed"
       stroke-width="4"
       stroke-miterlimit="8"
       fill="none"
       id="rect105" />
    <rect
       x="212"
       y="363"
       width="50"
       height="45"
       stroke="#ededed"
       stroke-width="4"
       stroke-miterlimit="8"
       fill="none"
       id="rect107" />
    <rect
       x="162"
       y="453"
       width="50"
       height="45"
       stroke="#ededed"
       stroke-width="4"
       stroke-miterlimit="8"
       fill="none"
       id="rect109" />
    <rect
       x="162"
       y="408"
       width="50"
       height="45"
       stroke="#ededed"
       stroke-width="4"
       stroke-miterlimit="8"
       fill="none"
       id="rect111" />
    <rect
       x="112"
       y="453"
       width="50"
       height="45"
       stroke="#ededed"
       stroke-width="4"
       stroke-miterlimit="8"
       fill="none"
       id="rect113" />
    <rect
       x="112"
       y="408"
       width="50"
       height="45"
       stroke="#ededed"
       stroke-width="4"
       stroke-miterlimit="8"
       fill="none"
       id="rect115" />
    <rect
       x="162"
       y="363"
       width="50"
       height="45"
       stroke="#ededed"
       stroke-width="4"
       stroke-miterlimit="8"
       fill="none"
       id="rect117" />
    <rect
       x="112"
       y="363"
       width="50"
       height="45"
       stroke="#ededed"
       stroke-width="4"
       stroke-miterlimit="8"
       fill="none"
       id="rect119" />
    <rect
       x="312"
       y="498"
       width="51"
       height="45"
       stroke="#ededed"
       stroke-width="4"
       stroke-miterlimit="8"
       fill="none"
       id="rect121" />
    <rect
       x="312"
       y="453"
       width="51"
       height="45"
       stroke="#ededed"
       stroke-width="4"
       stroke-miterlimit="8"
       fill="none"
       id="rect123" />
    <rect
       x="362"
       y="498"
       width="51"
       height="45"
       stroke="#ededed"
       stroke-width="4"
       stroke-miterlimit="8"
       fill="none"
       id="rect125" />
    <rect
       x="362"
       y="453"
       width="51"
       height="45"
       stroke="#ededed"
       stroke-width="4"
       stroke-miterlimit="8"
       fill="none"
       id="rect127" />
    <rect
       x="362"
       y="408"
       width="51"
       height="45"
       stroke="#ededed"
       stroke-width="4"
       stroke-miterlimit="8"
       fill="none"
       id="rect129" />
    <rect
       x="362"
       y="363"
       width="51"
       height="45"
       stroke="#ededed"
       stroke-width="4"
       stroke-miterlimit="8"
       fill="none"
       id="rect131" />
    <rect
       x="312"
       y="363"
       width="50"
       height="45"
       stroke="#ededed"
       stroke-width="4"
       stroke-miterlimit="8"
       fill="none"
       id="rect133" />
    <path
       d="M 112,498 H 412.963"
       stroke="#bfbfbf"
       stroke-width="4"
       stroke-miterlimit="8"
       stroke-dasharray="12, 4"
       fill="none"
       fill-rule="evenodd"
       id="path135" />
    <rect
       x="162"
       y="543"
       width="50"
       height="45"
       stroke="#ededed"
       stroke-width="4"
       stroke-miterlimit="8"
       fill="none"
       id="rect137" />
    <rect
       x="112"
       y="543"
       width="50"
       height="45"
       stroke="#ededed"
       stroke-width="4"
       stroke-miterlimit="8"
       fill="none"
       id="rect139" />
    <rect
       x="212"
       y="543"
       width="50"
       height="45"
       stroke="#ededed"
       stroke-width="4"
       stroke-miterlimit="8"
       fill="none"
       id="rect141" />
    <rect
       x="262"
       y="543"
       width="51"
       height="45"
       stroke="#ededed"
       stroke-width="4"
       stroke-miterlimit="8"
       fill="none"
       id="rect143" />
    <rect
       x="312"
       y="543"
       width="51"
       height="45"
       stroke="#ededed"
       stroke-width="4"
       stroke-miterlimit="8"
       fill="none"
       id="rect145" />
    <rect
       x="362"
       y="543"
       width="51"
       height="45"
       stroke="#ededed"
       stroke-width="4"
       stroke-miterlimit="8"
       fill="none"
       id="rect147" />
    <path
       d="M 0,0 1.04987e-4,224.507"
       stroke="#bfbfbf"
       stroke-width="4"
       stroke-miterlimit="8"
       stroke-dasharray="12, 4"
       fill="none"
       fill-rule="evenodd"
       transform="matrix(1,0,0,-1,262,587.507)"
       id="path149" />
    <text
       fill="#bfbfbf"
       font-family="Calibri, Calibri_MSFontService, sans-serif"
       font-weight="400"
       font-size="32px"
       transform="translate(418.867,506)"
       id="text173">x<tspan
   font-size="32px"
   x="-162.382"
   y="-156"
   id="tspan151">y</tspan><tspan
   fill="#000000"
   font-family="'Cambria Math', 'Cambria Math_MSFontService', sans-serif"
   font-size="24px"
   x="558.552"
   y="-48"
   id="tspan153">ğ‘“</tspan><tspan
   fill="#000000"
   font-family="'Cambria Math', 'Cambria Math_MSFontService', sans-serif"
   font-size="24px"
   x="572.41901"
   y="-48"
   id="tspan155">(</tspan><tspan
   fill="#000000"
   font-family="'Cambria Math', 'Cambria Math_MSFontService', sans-serif"
   font-size="24px"
   x="582.41901"
   y="-48"
   id="tspan157">ğ‘¥</tspan><tspan
   fill="#000000"
   font-family="'Cambria Math', 'Cambria Math_MSFontService', sans-serif"
   font-size="16px"
   x="595.25201"
   y="-43"
   id="tspan159">1</tspan><tspan
   fill="#000000"
   font-family="'Cambria Math', 'Cambria Math_MSFontService', sans-serif"
   font-size="24px"
   x="604.086"
   y="-48"
   id="tspan161">)</tspan><tspan
   fill="#000000"
   font-family="'Cambria Math', 'Cambria Math_MSFontService', sans-serif"
   font-size="24px"
   x="558.88202"
   y="45"
   id="tspan163">ğ‘“</tspan><tspan
   fill="#000000"
   font-family="'Cambria Math', 'Cambria Math_MSFontService', sans-serif"
   font-size="24px"
   x="572.74799"
   y="45"
   id="tspan165">(</tspan><tspan
   fill="#000000"
   font-family="'Cambria Math', 'Cambria Math_MSFontService', sans-serif"
   font-size="24px"
   x="582.74799"
   y="45"
   id="tspan167">ğ‘¥</tspan><tspan
   fill="#000000"
   font-family="'Cambria Math', 'Cambria Math_MSFontService', sans-serif"
   font-size="16px"
   x="595.58197"
   y="50"
   id="tspan169">2</tspan><tspan
   fill="#000000"
   font-family="'Cambria Math', 'Cambria Math_MSFontService', sans-serif"
   font-size="24px"
   x="604.41498"
   y="45"
   id="tspan171">)</tspan></text>
    <path
       d="m 98.636,-1.99537 8.373,0.5709 8.312,1.610833 8.106,2.701787 7.895,3.65868 7.618,4.67367 7.283,5.4938 6.951,6.4415 6.55,7.2493 6.157,7.998 5.768,8.8093 5.32,9.5005 4.742,10.1803 4.295,10.7373 3.724,11.4237 3.218,11.9278 1.695,8.525 -3.923,0.78 -1.682,-8.46 0.031,0.132 -3.187,-11.813 0.029,0.0988 -3.688,-11.3125 0.045,0.123 -4.25,-10.625 0.044,0.1017 -4.687,-10.0625 0.067,0.1327 -5.25,-9.375 0.072,0.1183 -5.687,-8.6875 0.088,0.1245 -6.062,-7.875 0.1,0.1208 -6.437,-7.125 0.125,0.1262 -6.813,-6.3125 0.155,0.1296 -7.125,-5.375 0.159,0.1082 -7.438,-4.5625 0.205,0.1098 -7.687,-3.56248 0.208,0.08275 -7.875,-2.625 0.252,0.0661 -8.063,-1.5625 0.245,0.0319 -8.2501,-0.5625 z M 199.099,97.4144 193.455,113.79 181.978,100.817 c -0.731,-0.8272 -0.654,-2.0912 0.173,-2.8231 0.828,-0.7318 2.091,-0.6545 2.823,0.1728 l 9.205,10.4053 -3.388,0.673 4.526,-13.1339 c 0.36,-1.0443 1.498,-1.5991 2.542,-1.2392 1.045,0.3599 1.6,1.4982 1.24,2.5425 z"
       fill="#2f5597"
       transform="matrix(1,0,0,-1,161,476)"
       id="path175" />
    <path
       d="m 261.366,477.996 -8.495,-0.571 -8.489,-1.608 -8.229,-2.636 -8.023,-3.658 -7.68,-4.608 -7.405,-5.49 -7.075,-6.374 -6.679,-7.188 -6.282,-7.995 -5.895,-8.684 -5.386,-9.441 -4.868,-10.115 -4.422,-10.741 -3.79,-11.307 -3.218,-11.859 -1.8,-8.436 3.912,-0.835 1.789,8.382 -0.026,-0.106 3.188,11.75 -0.034,-0.112 3.75,11.188 -0.047,-0.126 4.375,10.625 -0.047,-0.106 4.812,10 -0.065,-0.124 5.313,9.313 -0.083,-0.132 5.813,8.562 -0.082,-0.112 6.187,7.875 -0.107,-0.126 6.562,7.063 -0.126,-0.125 6.937,6.25 -0.147,-0.121 7.25,5.375 -0.162,-0.108 7.5,4.5 -0.2,-0.105 7.813,3.563 -0.22,-0.085 8,2.562 -0.238,-0.06 8.25,1.562 -0.238,-0.03 8.375,0.562 z m -102.021,-98.556 5.412,-16.454 11.659,12.81 c 0.743,0.817 0.684,2.082 -0.133,2.825 -0.817,0.744 -2.082,0.684 -2.825,-0.133 l -9.351,-10.274 3.379,-0.721 -4.341,13.197 c -0.345,1.049 -1.476,1.62 -2.525,1.275 -1.049,-0.346 -1.62,-1.476 -1.275,-2.525 z"
       fill="#2f5597"
       id="path177" />
    <rect
       x="567.5"
       y="123.5"
       width="224"
       height="162"
       stroke="#000000"
       stroke-width="3"
       stroke-miterlimit="8"
       fill="none"
       id="rect179" />
    <rect
       x="258.5"
       y="123.5"
       width="224"
       height="162"
       stroke="#000000"
       stroke-width="3"
       stroke-miterlimit="8"
       fill="none"
       id="rect181" />
    <text
       font-family="Calibri, Calibri_MSFontService, sans-serif"
       font-weight="400"
       font-size="43px"
       transform="translate(362.28,111)"
       id="text185">x<tspan
   font-size="43px"
   x="309.20999"
   y="0"
   id="tspan183">y</tspan></text>
    <path
       d="m 324.5,206.5 c 0,-15.464 12.536,-28 28,-28 15.464,0 28,12.536 28,28 0,15.464 -12.536,28 -28,28 -15.464,0 -28,-12.536 -28,-28 z"
       stroke="#000000"
       stroke-width="3"
       stroke-miterlimit="8"
       fill="#d6dce5"
       fill-rule="evenodd"
       id="path187" />
    <path
       d="m 633.5,207 c 0,-21.815 18.356,-39.5 41,-39.5 22.644,0 41,17.685 41,39.5 0,21.815 -18.356,39.5 -41,39.5 -22.644,0 -41,-17.685 -41,-39.5 z"
       stroke="#000000"
       stroke-width="3"
       stroke-miterlimit="8"
       fill="#fbe5d6"
       fill-rule="evenodd"
       id="path189" />
    <path
       d="m 380.501,205 238.872,0.111 -0.001,3 L 380.499,208 Z m 237.375,-5.889 14.997,7.507 -15.004,7.493 z"
       id="path191" />
    <text
       font-family="'Cambria Math', 'Cambria Math_MSFontService', sans-serif"
       font-weight="400"
       font-size="43px"
       transform="translate(430.363,71)"
       id="text207">ğ‘“<tspan
   font-family="Calibri, Calibri_MSFontService, sans-serif"
   font-size="43px"
   x="24.7533"
   y="0"
   id="tspan193">(x)</tspan><tspan
   font-family="Calibri, Calibri_MSFontService, sans-serif"
   font-size="43px"
   x="78.919998"
   y="0"
   id="tspan195">:</tspan><tspan
   font-family="Calibri, Calibri_MSFontService, sans-serif"
   font-size="43px"
   x="100.087"
   y="0"
   id="tspan197">x</tspan><tspan
   font-size="43px"
   x="127.92"
   y="0"
   id="tspan199">â†’</tspan><tspan
   font-family="Calibri, Calibri_MSFontService, sans-serif"
   font-size="43px"
   x="173.42"
   y="0"
   id="tspan201">y</tspan><tspan
   font-family="Calibri, Calibri_MSFontService, sans-serif"
   font-size="43px"
   x="-90.600304"
   y="147"
   id="tspan203">A</tspan><tspan
   font-family="Calibri, Calibri_MSFontService, sans-serif"
   font-size="43px"
   x="230.291"
   y="148"
   id="tspan205">B</tspan></text>
    <path
       d="m 81.1763,-1.99221 7.2295,0.63978 7.2499,1.894118 7.0313,3.059692 6.792,4.2697 6.491,5.26972 6.21,6.2743 5.865,7.2677 5.53,8.1354 5.136,9.0671 4.742,9.8633 4.358,10.6123 3.85,11.3582 3.401,12.0309 2.961,12.662 2.329,13.286 1.275,9.755 -3.966,0.518 -1.269,-9.712 0.013,0.086 -2.312,-13.187 0.022,0.11 -2.937,-12.5626 0.022,0.0887 -3.375,-11.9375 0.031,0.0978 -3.813,-11.25 0.044,0.1179 -4.312,-10.5 0.047,0.1068 -4.687,-9.75 0.062,0.1191 -5.062,-8.9375 0.086,0.1386 -5.438,-8 0.098,0.1317 -5.75,-7.125 0.135,0.1509 -6.062,-6.125 0.16,0.1458 -6.312,-5.125 0.196,0.1406 -6.562,-4.12503 0.266,0.1406 -6.7501,-2.9375 0.2925,0.10118 -6.9375,-1.8125 0.3293,0.05716 -7.0625,-0.625 z m 85.6977,113.67321 -6.716,15.966 -10.592,-13.704 c -0.676,-0.874 -0.515,-2.13 0.359,-2.806 0.874,-0.675 2.13,-0.514 2.806,0.36 l 8.495,10.992 -3.426,0.447 5.387,-12.806 c 0.428,-1.018 1.601,-1.496 2.619,-1.068 1.018,0.429 1.496,1.601 1.068,2.619 z"
       fill="#2f5597"
       transform="matrix(0,1,1,0,815,415)"
       id="path209" />
    <path
       d="m 813.007,497.327 0.64,-7.352 1.891,-7.37 3.055,-7.151 4.2,-6.849 5.208,-6.622 6.278,-6.277 7.263,-5.99 8.07,-5.591 9.004,-5.263 9.808,-4.81 10.609,-4.42 11.294,-3.975 11.978,-3.467 12.6,-2.961 13.218,-2.392 9.713,-1.334 0.544,3.962 -9.67,1.329 0.084,-0.013 -13.125,2.375 0.101,-0.021 -12.5,2.937 0.099,-0.026 -11.875,3.438 0.107,-0.035 -11.187,3.938 0.105,-0.041 -10.5,4.375 0.111,-0.05 -9.687,4.75 0.129,-0.069 -8.875,5.187 0.13,-0.083 -7.938,5.5 0.133,-0.1 -7.125,5.875 0.142,-0.129 -6.125,6.125 0.158,-0.178 -5.062,6.437 0.132,-0.19 -4.062,6.625 0.134,-0.26 -2.937,6.875 0.098,-0.289 -1.813,7.063 0.055,-0.324 -0.625,7.187 z m 113.023,-86.993 16.011,6.61 -13.635,10.682 c -0.869,0.682 -2.126,0.529 -2.808,-0.34 -0.681,-0.87 -0.528,-2.127 0.341,-2.808 l 10.936,-8.568 0.47,3.423 -12.841,-5.302 c -1.021,-0.422 -1.507,-1.591 -1.086,-2.612 0.422,-1.021 1.591,-1.507 2.612,-1.085 z"
       fill="#2f5597"
       id="path211" />
  </g>
</svg>
