<?xml version="1.0" encoding="UTF-8" standalone="no"?>
<svg
   width="1280"
   height="540"
   overflow="hidden"
   version="1.1"
   id="svg283"
   sodipodi:docname="functions-limit_laws.svg"
   inkscape:version="1.2 (dc2aedaf03, 2022-05-15)"
   xmlns:inkscape="http://www.inkscape.org/namespaces/inkscape"
   xmlns:sodipodi="http://sodipodi.sourceforge.net/DTD/sodipodi-0.dtd"
   xmlns="http://www.w3.org/2000/svg"
   xmlns:svg="http://www.w3.org/2000/svg">
  <sodipodi:namedview
     id="namedview285"
     pagecolor="#ffffff"
     bordercolor="#000000"
     borderopacity="0.25"
     inkscape:showpageshadow="2"
     inkscape:pageopacity="0.0"
     inkscape:pagecheckerboard="0"
     inkscape:deskcolor="#d1d1d1"
     showgrid="false"
     inkscape:zoom="0.92709556"
     inkscape:cx="387.77017"
     inkscape:cy="360.26491"
     inkscape:window-width="2880"
     inkscape:window-height="1514"
     inkscape:window-x="3829"
     inkscape:window-y="-11"
     inkscape:window-maximized="1"
     inkscape:current-layer="svg283" />
  <defs
     id="defs5">
    <clipPath
       id="clip0">
      <rect
         x="0"
         y="0"
         width="1280"
         height="720"
         id="rect2" />
    </clipPath>
  </defs>
  <g
     clip-path="url(#clip0)"
     id="g281"
     transform="translate(28.808662,-39.909586)">
    <rect
       x="0"
       y="0"
       width="1280"
       height="720"
       fill="#ffffff"
       id="rect7" />
    <path
       d="m 247,171 c 0,-7.732 6.268,-14 14,-14 h 683 c 7.732,0 14,6.268 14,14 v 56 c 0,7.732 -6.268,14 -14,14 H 261 c -7.732,0 -14,-6.268 -14,-14 z"
       fill="#fff2cc"
       fill-rule="evenodd"
       id="path9" />
    <text
       font-family="'Cambria Math', 'Cambria Math_MSFontService', sans-serif"
       font-weight="400"
       font-size="32px"
       transform="translate(264.045,207)"
       id="text17">lim<tspan
   font-size="23px"
   x="44.166698"
   y="6"
   id="tspan11">ğ‘¥</tspan><tspan
   font-size="23px"
   x="58.626701"
   y="6"
   id="tspan13">â†’</tspan><tspan
   font-size="23px"
   x="78.126701"
   y="6"
   id="tspan15">ğ‘</tspan></text>
    <path
       d="m 573.445,178.334 c 3.25,0.854 5.755,3.068 7.516,6.641 1.76,3.572 2.64,7.802 2.64,12.687 0,4.885 -0.88,9.115 -2.64,12.688 -1.761,3.572 -4.266,5.786 -7.516,6.64 l -0.391,-1.281 c 2.521,-0.948 4.43,-3.013 5.727,-6.195 1.297,-3.183 1.945,-7.128 1.945,-11.836 0,-4.719 -0.648,-8.672 -1.945,-11.86 -1.297,-3.187 -3.206,-5.255 -5.727,-6.203 z m -201.744,0 0.39,1.281 c -2.52,0.948 -4.429,3.016 -5.726,6.203 -1.297,3.188 -1.945,7.141 -1.945,11.86 0,4.708 0.648,8.653 1.945,11.836 1.297,3.182 3.206,5.247 5.726,6.195 l -0.39,1.281 c -3.25,-0.854 -5.755,-3.068 -7.516,-6.64 -1.76,-3.573 -2.64,-7.803 -2.64,-12.688 0,-4.885 0.88,-9.115 2.64,-12.687 1.761,-3.573 4.266,-5.787 7.516,-6.641 z"
       fill-rule="evenodd"
       id="path19" />
    <text
       font-family="'Cambria Math', 'Cambria Math_MSFontService', sans-serif"
       font-weight="400"
       font-size="32px"
       transform="translate(373.105,207)"
       id="text21">ğ‘ğ‘“</text>
    <path
       d="m 438.641,182.844 c 3.042,0.803 5.378,2.534 7.008,5.196 1.63,2.661 2.445,5.872 2.445,9.633 0,3.77 -0.812,6.981 -2.437,9.632 -1.625,2.651 -3.964,4.378 -7.016,5.18 l -0.375,-1.203 c 2.406,-0.802 4.195,-2.385 5.367,-4.75 1.172,-2.365 1.758,-5.37 1.758,-9.016 0,-3.52 -0.583,-6.445 -1.75,-8.773 -1.167,-2.328 -2.974,-3.893 -5.422,-4.695 z m -19.997,0 0.422,1.204 c -2.437,0.802 -4.242,2.367 -5.414,4.695 -1.172,2.328 -1.758,5.253 -1.758,8.773 0,3.646 0.586,6.651 1.758,9.016 1.172,2.365 2.961,3.948 5.367,4.75 l -0.375,1.203 c -3.052,-0.802 -5.39,-2.529 -7.015,-5.18 -1.625,-2.651 -2.438,-5.862 -2.438,-9.632 0,-3.761 0.815,-6.972 2.446,-9.633 1.63,-2.662 3.966,-4.393 7.007,-5.196 z"
       fill-rule="evenodd"
       id="path23" />
    <text
       font-family="'Cambria Math', 'Cambria Math_MSFontService', sans-serif"
       font-weight="400"
       font-size="32px"
       transform="translate(419.659,207)"
       id="text29">ğ‘¥<tspan
   font-size="32px"
   x="38.360001"
   y="0"
   id="tspan25">+</tspan><tspan
   font-size="32px"
   x="69.306702"
   y="0"
   id="tspan27">ğ‘‘ğ‘”</tspan></text>
    <path
       d="m 559.774,182.844 c 3.042,0.803 5.378,2.534 7.008,5.196 1.63,2.661 2.445,5.872 2.445,9.633 0,3.77 -0.812,6.981 -2.437,9.632 -1.625,2.651 -3.964,4.378 -7.016,5.18 l -0.375,-1.203 c 2.407,-0.802 4.196,-2.385 5.367,-4.75 1.172,-2.365 1.758,-5.37 1.758,-9.016 0,-3.52 -0.583,-6.445 -1.75,-8.773 -1.166,-2.328 -2.974,-3.893 -5.422,-4.695 z m -19.996,0 0.422,1.204 c -2.438,0.802 -4.243,2.367 -5.415,4.695 -1.171,2.328 -1.757,5.253 -1.757,8.773 0,3.646 0.586,6.651 1.757,9.016 1.172,2.365 2.961,3.948 5.368,4.75 l -0.375,1.203 c -3.052,-0.802 -5.391,-2.529 -7.016,-5.18 -1.625,-2.651 -2.437,-5.862 -2.437,-9.632 0,-3.761 0.815,-6.972 2.445,-9.633 1.63,-2.662 3.966,-4.393 7.008,-5.196 z"
       fill-rule="evenodd"
       id="path31" />
    <text
       font-family="'Cambria Math', 'Cambria Math_MSFontService', sans-serif"
       font-weight="400"
       font-size="32px"
       transform="translate(540.792,207)"
       id="text81">ğ‘¥<tspan
   font-size="32px"
   x="54.506699"
   y="0"
   id="tspan33">=</tspan><tspan
   font-size="32px"
   x="78.339996"
   y="0"
   id="tspan35" /><tspan
   font-size="32px"
   x="92.339996"
   y="0"
   id="tspan37">c</tspan><tspan
   font-size="32px"
   x="106.507"
   y="0"
   id="tspan39" /><tspan
   font-size="32px"
   x="116.02"
   y="0"
   id="tspan41">lim</tspan><tspan
   font-size="23px"
   x="113.507"
   y="19"
   id="tspan43">ğ‘¥</tspan><tspan
   font-size="23px"
   x="127.967"
   y="19"
   id="tspan45">â†’</tspan><tspan
   font-size="23px"
   x="147.467"
   y="19"
   id="tspan47">ğ‘</tspan><tspan
   font-size="32px"
   x="162.7"
   y="0"
   id="tspan49">ğ‘“</tspan><tspan
   font-size="32px"
   x="181.30701"
   y="0"
   id="tspan51">(</tspan><tspan
   font-size="32px"
   x="194.64"
   y="0"
   id="tspan53">ğ‘¥</tspan><tspan
   font-size="32px"
   x="212.60699"
   y="0"
   id="tspan55">)</tspan><tspan
   font-family="Cambria, Cambria_MSFontService, sans-serif"
   font-size="32px"
   x="232.94"
   y="0"
   id="tspan57">+</tspan><tspan
   font-size="32px"
   x="257.60699"
   y="0"
   id="tspan59">d</tspan><tspan
   font-size="32px"
   x="275.44"
   y="0"
   id="tspan61" /><tspan
   font-size="32px"
   x="284.953"
   y="0"
   id="tspan63">lim</tspan><tspan
   font-size="23px"
   x="282.44"
   y="19"
   id="tspan65">ğ‘¥</tspan><tspan
   font-size="23px"
   x="296.89999"
   y="19"
   id="tspan67">â†’</tspan><tspan
   font-size="23px"
   x="316.39999"
   y="19"
   id="tspan69">ğ‘</tspan><tspan
   font-size="32px"
   x="331.633"
   y="0"
   id="tspan71">ğ‘”</tspan><tspan
   font-size="32px"
   x="351.67999"
   y="0"
   id="tspan73">(</tspan><tspan
   font-size="32px"
   x="365.013"
   y="0"
   id="tspan75">ğ‘¥</tspan><tspan
   font-size="32px"
   x="382.98001"
   y="0"
   id="tspan77">)</tspan><tspan
   font-family="Calibri, Calibri_MSFontService, sans-serif"
   font-size="43px"
   x="-42.389999"
   y="-120"
   id="tspan79">Limit laws</tspan></text>
    <path
       d="m 247,276 c 0,-7.732 6.268,-14 14,-14 h 683 c 7.732,0 14,6.268 14,14 v 56 c 0,7.732 -6.268,14 -14,14 H 261 c -7.732,0 -14,-6.268 -14,-14 z"
       fill="#fff2cc"
       fill-rule="evenodd"
       id="path83" />
    <text
       font-family="'Cambria Math', 'Cambria Math_MSFontService', sans-serif"
       font-weight="400"
       font-size="32px"
       transform="translate(264.045,313)"
       id="text91">lim<tspan
   font-size="23px"
   x="44.166698"
   y="6"
   id="tspan85">ğ‘¥</tspan><tspan
   font-size="23px"
   x="58.626701"
   y="6"
   id="tspan87">â†’</tspan><tspan
   font-size="23px"
   x="78.126701"
   y="6"
   id="tspan89">ğ‘</tspan></text>
    <path
       d="m 539.278,284.483 c 3.25,0.854 5.755,3.068 7.516,6.641 1.76,3.573 2.641,7.802 2.641,12.687 0,4.886 -0.881,9.115 -2.641,12.688 -1.761,3.573 -4.266,5.786 -7.516,6.64 l -0.39,-1.281 c 2.52,-0.948 4.429,-3.013 5.726,-6.195 1.297,-3.183 1.946,-7.128 1.946,-11.836 0,-4.719 -0.649,-8.672 -1.946,-11.86 -1.297,-3.187 -3.206,-5.255 -5.726,-6.203 z m -167.577,0 0.39,1.281 c -2.52,0.948 -4.429,3.016 -5.726,6.203 -1.297,3.188 -1.945,7.141 -1.945,11.86 0,4.708 0.648,8.653 1.945,11.836 1.297,3.182 3.206,5.247 5.726,6.195 l -0.39,1.281 c -3.25,-0.854 -5.755,-3.067 -7.516,-6.64 -1.76,-3.573 -2.64,-7.802 -2.64,-12.688 0,-4.885 0.88,-9.114 2.64,-12.687 1.761,-3.573 4.266,-5.787 7.516,-6.641 z"
       fill-rule="evenodd"
       id="path93" />
    <text
       font-family="'Cambria Math', 'Cambria Math_MSFontService', sans-serif"
       font-weight="400"
       font-size="32px"
       transform="translate(373.105,313)"
       id="text95">ğ‘“</text>
    <path
       d="m 423.974,288.994 c 3.042,0.802 5.378,2.533 7.008,5.195 1.63,2.661 2.445,5.872 2.445,9.633 0,3.771 -0.812,6.981 -2.437,9.633 -1.625,2.651 -3.964,4.377 -7.016,5.179 l -0.375,-1.203 c 2.407,-0.802 4.196,-2.385 5.367,-4.75 1.172,-2.364 1.758,-5.37 1.758,-9.016 0,-3.52 -0.583,-6.445 -1.75,-8.773 -1.166,-2.328 -2.974,-3.893 -5.422,-4.695 z m -19.996,0 0.422,1.203 c -2.438,0.802 -4.243,2.367 -5.415,4.695 -1.171,2.328 -1.757,5.253 -1.757,8.773 0,3.646 0.586,6.652 1.757,9.016 1.172,2.365 2.961,3.948 5.368,4.75 l -0.375,1.203 c -3.052,-0.802 -5.391,-2.528 -7.016,-5.179 -1.625,-2.652 -2.437,-5.862 -2.437,-9.633 0,-3.761 0.815,-6.972 2.445,-9.633 1.63,-2.662 3.966,-4.393 7.008,-5.195 z"
       fill-rule="evenodd"
       id="path97" />
    <text
       font-family="'Cambria Math', 'Cambria Math_MSFontService', sans-serif"
       font-weight="400"
       font-size="32px"
       transform="translate(404.992,313)"
       id="text103">ğ‘¥<tspan
   font-size="32px"
   x="38.360001"
   y="0"
   id="tspan99">Ã—</tspan><tspan
   font-size="32px"
   x="68.306702"
   y="0"
   id="tspan101">ğ‘”</tspan></text>
    <path
       d="m 525.608,288.994 c 3.041,0.802 5.377,2.533 7.007,5.195 1.631,2.661 2.446,5.872 2.446,9.633 0,3.771 -0.813,6.981 -2.438,9.633 -1.625,2.651 -3.963,4.377 -7.015,5.179 l -0.375,-1.203 c 2.406,-0.802 4.195,-2.385 5.367,-4.75 1.172,-2.364 1.758,-5.37 1.758,-9.016 0,-3.52 -0.584,-6.445 -1.75,-8.773 -1.167,-2.328 -2.974,-3.893 -5.422,-4.695 z m -19.997,0 0.422,1.203 c -2.438,0.802 -4.242,2.367 -5.414,4.695 -1.172,2.328 -1.758,5.253 -1.758,8.773 0,3.646 0.586,6.652 1.758,9.016 1.172,2.365 2.961,3.948 5.367,4.75 l -0.375,1.203 c -3.052,-0.802 -5.391,-2.528 -7.016,-5.179 -1.625,-2.652 -2.437,-5.862 -2.437,-9.633 0,-3.761 0.815,-6.972 2.445,-9.633 1.63,-2.662 3.966,-4.393 7.008,-5.195 z"
       fill-rule="evenodd"
       id="path105" />
    <text
       font-family="'Cambria Math', 'Cambria Math_MSFontService', sans-serif"
       font-weight="400"
       font-size="32px"
       transform="translate(506.625,313)"
       id="text145">ğ‘¥<tspan
   font-size="32px"
   x="54.506699"
   y="0"
   id="tspan107">=</tspan><tspan
   font-size="32px"
   x="78.339996"
   y="0"
   id="tspan109" /><tspan
   font-size="32px"
   x="94.853302"
   y="0"
   id="tspan111">lim</tspan><tspan
   font-size="23px"
   x="92.339996"
   y="19"
   id="tspan113">ğ‘¥</tspan><tspan
   font-size="23px"
   x="106.8"
   y="19"
   id="tspan115">â†’</tspan><tspan
   font-size="23px"
   x="126.3"
   y="19"
   id="tspan117">ğ‘</tspan><tspan
   font-size="32px"
   x="141.533"
   y="0"
   id="tspan119">ğ‘“</tspan><tspan
   font-size="32px"
   x="160.14"
   y="0"
   id="tspan121">(</tspan><tspan
   font-size="32px"
   x="173.47301"
   y="0"
   id="tspan123">ğ‘¥</tspan><tspan
   font-size="32px"
   x="191.44"
   y="0"
   id="tspan125">)</tspan><tspan
   font-size="32px"
   x="211.77299"
   y="0"
   id="tspan127">Ã—</tspan><tspan
   font-size="32px"
   x="244.12"
   y="0"
   id="tspan129">lim</tspan><tspan
   font-size="23px"
   x="241.60699"
   y="19"
   id="tspan131">ğ‘¥</tspan><tspan
   font-size="23px"
   x="256.06699"
   y="19"
   id="tspan133">â†’</tspan><tspan
   font-size="23px"
   x="275.56699"
   y="19"
   id="tspan135">ğ‘</tspan><tspan
   font-size="32px"
   x="290.79999"
   y="0"
   id="tspan137">ğ‘”</tspan><tspan
   font-size="32px"
   x="310.84698"
   y="0"
   id="tspan139">(</tspan><tspan
   font-size="32px"
   x="324.17999"
   y="0"
   id="tspan141">ğ‘¥</tspan><tspan
   font-size="32px"
   x="342.147"
   y="0"
   id="tspan143">)</tspan></text>
    <path
       d="m 247,380 c 0,-7.732 6.268,-14 14,-14 h 683 c 7.732,0 14,6.268 14,14 v 56 c 0,7.732 -6.268,14 -14,14 H 261 c -7.732,0 -14,-6.268 -14,-14 z"
       fill="#fff2cc"
       fill-rule="evenodd"
       id="path147" />
    <text
       font-family="'Cambria Math', 'Cambria Math_MSFontService', sans-serif"
       font-weight="400"
       font-size="32px"
       transform="translate(264.045,416)"
       id="text157">lim<tspan
   font-size="23px"
   x="44.166698"
   y="6"
   id="tspan149">ğ‘¥</tspan><tspan
   font-size="23px"
   x="58.626701"
   y="6"
   id="tspan151">â†’</tspan><tspan
   font-size="23px"
   x="78.126701"
   y="6"
   id="tspan153">ğ‘</tspan><tspan
   font-size="19px"
   x="100.6"
   y="-14"
   id="tspan155">ğ‘“</tspan></text>
    <path
       d="m 397.548,387.987 c 1.806,0.476 3.193,1.504 4.161,3.085 0.968,1.58 1.452,3.486 1.452,5.719 0,2.239 -0.482,4.146 -1.447,5.72 -0.965,1.574 -2.353,2.599 -4.166,3.075 l -0.222,-0.714 c 1.428,-0.476 2.491,-1.417 3.187,-2.821 0.695,-1.404 1.043,-3.188 1.043,-5.353 0,-2.09 -0.346,-3.826 -1.039,-5.209 -0.693,-1.382 -1.766,-2.311 -3.219,-2.788 z m -13.453,0 0.25,0.714 c -1.447,0.477 -2.519,1.406 -3.214,2.788 -0.696,1.383 -1.044,3.119 -1.044,5.209 0,2.165 0.348,3.949 1.044,5.353 0.695,1.404 1.758,2.345 3.186,2.821 l -0.222,0.714 c -1.812,-0.476 -3.201,-1.501 -4.166,-3.075 -0.965,-1.574 -1.447,-3.481 -1.447,-5.72 0,-2.233 0.484,-4.139 1.452,-5.719 0.968,-1.581 2.355,-2.609 4.161,-3.085 z"
       fill-rule="evenodd"
       id="path159" />
    <text
       font-family="'Cambria Math', 'Cambria Math_MSFontService', sans-serif"
       font-weight="400"
       font-size="19px"
       transform="translate(384.779,402)"
       id="text163">ğ‘¥<tspan
   font-size="19px"
   x="-20.713301"
   y="26"
   id="tspan161">ğ‘”</tspan></text>
    <path
       d="m 398.135,413.394 c 1.806,0.476 3.193,1.504 4.161,3.084 0.968,1.581 1.452,3.487 1.452,5.72 0,2.239 -0.483,4.145 -1.447,5.719 -0.965,1.574 -2.354,2.6 -4.166,3.076 l -0.223,-0.715 c 1.429,-0.476 2.491,-1.416 3.187,-2.82 0.696,-1.404 1.044,-3.188 1.044,-5.353 0,-2.09 -0.346,-3.827 -1.039,-5.209 -0.693,-1.382 -1.766,-2.312 -3.219,-2.788 z m -13.454,0 0.251,0.714 c -1.447,0.476 -2.519,1.406 -3.215,2.788 -0.696,1.382 -1.043,3.119 -1.043,5.209 0,2.165 0.347,3.949 1.043,5.353 0.696,1.404 1.758,2.344 3.187,2.82 l -0.223,0.715 c -1.812,-0.476 -3.2,-1.502 -4.165,-3.076 -0.965,-1.574 -1.447,-3.48 -1.447,-5.719 0,-2.233 0.484,-4.139 1.452,-5.72 0.967,-1.58 2.354,-2.608 4.16,-3.084 z"
       fill-rule="evenodd"
       id="path165" />
    <text
       font-family="'Cambria Math', 'Cambria Math_MSFontService', sans-serif"
       font-weight="400"
       font-size="19px"
       transform="translate(385.365,428)"
       id="text167">ğ‘¥</text>
    <path
       d="m 364.045,408.899 h 41 v 2 h -41 z"
       fill-rule="evenodd"
       id="path169" />
    <text
       font-family="'Cambria Math', 'Cambria Math_MSFontService', sans-serif"
       font-weight="400"
       font-size="32px"
       transform="translate(414.385,416)"
       id="text205">=<tspan
   font-size="32px"
   x="23.8333"
   y="0"
   id="tspan171" /><tspan
   font-size="23px"
   x="40.880001"
   y="-27"
   id="tspan173">lim</tspan><tspan
   font-size="19px"
   x="38.466702"
   y="-13"
   id="tspan175">ğ‘¥</tspan><tspan
   font-size="19px"
   x="50.6334"
   y="-13"
   id="tspan177">â†’</tspan><tspan
   font-size="19px"
   x="66.800003"
   y="-13"
   id="tspan179">ğ‘</tspan><tspan
   font-size="23px"
   x="79.800003"
   y="-27"
   id="tspan181">ğ‘“</tspan><tspan
   font-size="23px"
   x="94.426697"
   y="-27"
   id="tspan183">(</tspan><tspan
   font-size="23px"
   x="104.093"
   y="-27"
   id="tspan185">ğ‘¥</tspan><tspan
   font-size="23px"
   x="118.553"
   y="-27"
   id="tspan187">)</tspan><tspan
   font-size="23px"
   x="40.2467"
   y="16"
   id="tspan189">lim</tspan><tspan
   font-size="19px"
   x="37.833302"
   y="30"
   id="tspan191">ğ‘¥</tspan><tspan
   font-size="19px"
   x="50"
   y="30"
   id="tspan193">â†’</tspan><tspan
   font-size="19px"
   x="66.166702"
   y="30"
   id="tspan195">ğ‘</tspan><tspan
   font-size="23px"
   x="79.166702"
   y="16"
   id="tspan197">ğ‘”</tspan><tspan
   font-size="23px"
   x="95.066704"
   y="16"
   id="tspan199">(</tspan><tspan
   font-size="23px"
   x="104.733"
   y="16"
   id="tspan201">ğ‘¥</tspan><tspan
   font-size="23px"
   x="119.193"
   y="16"
   id="tspan203">)</tspan></text>
    <path
       d="m 452.045,405.899 h 91 v 2 h -91 z"
       fill-rule="evenodd"
       id="path207" />
    <text
       font-family="Cambria, Cambria_MSFontService, sans-serif"
       font-weight="400"
       font-size="32px"
       transform="translate(557.245,416)"
       id="text229">if <tspan
   font-family="'Cambria Math', 'Cambria Math_MSFontService', sans-serif"
   font-size="32px"
   x="28.0133"
   y="0"
   id="tspan209">lim</tspan><tspan
   font-family="'Cambria Math', 'Cambria Math_MSFontService', sans-serif"
   font-size="23px"
   x="25.5"
   y="19"
   id="tspan211">ğ‘¥</tspan><tspan
   font-family="'Cambria Math', 'Cambria Math_MSFontService', sans-serif"
   font-size="23px"
   x="39.959999"
   y="19"
   id="tspan213">â†’</tspan><tspan
   font-family="'Cambria Math', 'Cambria Math_MSFontService', sans-serif"
   font-size="23px"
   x="59.459999"
   y="19"
   id="tspan215">ğ‘</tspan><tspan
   font-family="'Cambria Math', 'Cambria Math_MSFontService', sans-serif"
   font-size="32px"
   x="74.693398"
   y="0"
   id="tspan217">ğ‘”</tspan><tspan
   font-family="'Cambria Math', 'Cambria Math_MSFontService', sans-serif"
   font-size="32px"
   x="94.739998"
   y="0"
   id="tspan219">(</tspan><tspan
   font-family="'Cambria Math', 'Cambria Math_MSFontService', sans-serif"
   font-size="32px"
   x="108.073"
   y="0"
   id="tspan221">ğ‘¥</tspan><tspan
   font-family="'Cambria Math', 'Cambria Math_MSFontService', sans-serif"
   font-size="32px"
   x="126.04"
   y="0"
   id="tspan223">)</tspan><tspan
   font-family="'Cambria Math', 'Cambria Math_MSFontService', sans-serif"
   font-size="32px"
   x="146.373"
   y="0"
   id="tspan225">â‰ </tspan><tspan
   font-family="'Cambria Math', 'Cambria Math_MSFontService', sans-serif"
   font-size="32px"
   x="179.093"
   y="0"
   id="tspan227">0</tspan></text>
    <path
       d="m 247,486 c 0,-7.732 6.268,-14 14,-14 h 683 c 7.732,0 14,6.268 14,14 v 56 c 0,7.732 -6.268,14 -14,14 H 261 c -7.732,0 -14,-6.268 -14,-14 z"
       fill="#fff2cc"
       fill-rule="evenodd"
       id="path231" />
    <text
       font-family="'Cambria Math', 'Cambria Math_MSFontService', sans-serif"
       font-weight="400"
       font-size="32px"
       transform="translate(264.045,524)"
       id="text279">lim<tspan
   font-size="23px"
   x="44.166698"
   y="7"
   id="tspan233">ğ‘¥</tspan><tspan
   font-size="23px"
   x="58.626701"
   y="7"
   id="tspan235">â†’</tspan><tspan
   font-size="23px"
   x="78.126701"
   y="7"
   id="tspan237">ğ‘</tspan><tspan
   font-size="32px"
   x="100.02"
   y="0"
   id="tspan239">c</tspan><tspan
   font-size="32px"
   x="123.073"
   y="0"
   id="tspan241">=</tspan><tspan
   font-size="32px"
   x="146.907"
   y="0"
   id="tspan243" /><tspan
   font-family="Cambria, Cambria_MSFontService, sans-serif"
   font-size="32px"
   x="153.907"
   y="0"
   id="tspan245">c</tspan><tspan
   font-family="Calibri, Calibri_MSFontService, sans-serif"
   font-size="24px"
   x="166.31799"
   y="-401"
   id="tspan247">I</tspan><tspan
   font-family="Calibri, Calibri_MSFontService, sans-serif"
   font-size="24px"
   x="172.31799"
   y="-401"
   id="tspan249">f</tspan><tspan
   font-size="24px"
   x="185.151"
   y="-401"
   id="tspan251">ğ‘“</tspan><tspan
   font-family="Calibri, Calibri_MSFontService, sans-serif"
   font-size="24px"
   x="199.01801"
   y="-401"
   id="tspan253">(x) and</tspan><tspan
   font-size="24px"
   x="271.85101"
   y="-401"
   id="tspan255">ğ‘”</tspan><tspan
   font-family="Calibri, Calibri_MSFontService, sans-serif"
   font-size="24px"
   x="286.931"
   y="-401"
   id="tspan257">(x) exist and c, d</tspan><tspan
   font-size="24px"
   x="449.638"
   y="-401"
   id="tspan259">âˆˆ</tspan><tspan
   font-family="Cambria, Cambria_MSFontService, sans-serif"
   font-size="24px"
   x="470.138"
   y="-401"
   id="tspan261">R</tspan><tspan
   font-size="32px"
   x="294.836"
   y="2"
   id="tspan263">lim</tspan><tspan
   font-size="23px"
   x="339.00299"
   y="8"
   id="tspan265">ğ‘¥</tspan><tspan
   font-size="23px"
   x="353.46301"
   y="8"
   id="tspan267">â†’</tspan><tspan
   font-size="23px"
   x="372.96301"
   y="8"
   id="tspan269">ğ‘</tspan><tspan
   font-size="32px"
   x="394.85599"
   y="2"
   id="tspan271">ğ‘¥</tspan><tspan
   font-size="32px"
   x="421.70901"
   y="2"
   id="tspan273">=</tspan><tspan
   font-size="32px"
   x="445.543"
   y="2"
   id="tspan275" /><tspan
   font-family="Cambria, Cambria_MSFontService, sans-serif"
   font-size="32px"
   x="452.543"
   y="2"
   id="tspan277">a</tspan></text>
  </g>
</svg>
