<?xml version="1.0" encoding="UTF-8" standalone="no"?>
<svg
   width="980"
   height="720"
   overflow="hidden"
   version="1.1"
   id="svg337"
   sodipodi:docname="linear_systems-echelon_solutions.svg"
   inkscape:version="1.2 (dc2aedaf03, 2022-05-15)"
   xmlns:inkscape="http://www.inkscape.org/namespaces/inkscape"
   xmlns:sodipodi="http://sodipodi.sourceforge.net/DTD/sodipodi-0.dtd"
   xmlns="http://www.w3.org/2000/svg"
   xmlns:svg="http://www.w3.org/2000/svg">
  <sodipodi:namedview
     id="namedview339"
     pagecolor="#ffffff"
     bordercolor="#000000"
     borderopacity="0.25"
     inkscape:showpageshadow="2"
     inkscape:pageopacity="0.0"
     inkscape:pagecheckerboard="0"
     inkscape:deskcolor="#d1d1d1"
     showgrid="false"
     inkscape:zoom="0.32777778"
     inkscape:cx="385.9322"
     inkscape:cy="360"
     inkscape:window-width="2560"
     inkscape:window-height="1494"
     inkscape:window-x="-11"
     inkscape:window-y="-11"
     inkscape:window-maximized="1"
     inkscape:current-layer="svg337" />
  <defs
     id="defs5">
    <clipPath
       id="clip0">
      <rect
         x="0"
         y="0"
         width="1280"
         height="720"
         id="rect2" />
    </clipPath>
  </defs>
  <g
     clip-path="url(#clip0)"
     id="g335"
     transform="translate(-73.22034,18.305085)">
    <rect
       x="0"
       y="0"
       width="1280"
       height="720"
       fill="#ffffff"
       id="rect7" />
    <text
       font-family="Calibri, Calibri_MSFontService, sans-serif"
       font-weight="700"
       font-size="43px"
       transform="translate(581.561,49)"
       id="text11">M<tspan
   font-size="28px"
   x="37.333302"
   y="10"
   id="tspan9">2</tspan></text>
    <path
       d="M 757,355.552 C 757,345.306 765.306,337 775.552,337 H 965.448 C 975.694,337 984,345.306 984,355.552 V 462.448 C 984,472.694 975.694,481 965.448,481 H 775.552 C 765.306,481 757,472.694 757,462.448 Z"
       fill="#e2f0d9"
       fill-rule="evenodd"
       id="path13" />
    <path
       d="M 916,337 V 480.638"
       stroke="#385723"
       stroke-width="4"
       stroke-miterlimit="8"
       fill="none"
       fill-rule="evenodd"
       id="path15" />
    <path
       d="m 766,367.5 c 0,-11.322 9.626,-20.5 21.5,-20.5 11.874,0 21.5,9.178 21.5,20.5 0,11.322 -9.626,20.5 -21.5,20.5 -11.874,0 -21.5,-9.178 -21.5,-20.5 z"
       fill="#bdd7ee"
       fill-rule="evenodd"
       fill-opacity="0.501961"
       id="path17" />
    <path
       d="m 815,413.5 c 0,-11.322 9.626,-20.5 21.5,-20.5 11.874,0 21.5,9.178 21.5,20.5 0,11.322 -9.626,20.5 -21.5,20.5 -11.874,0 -21.5,-9.178 -21.5,-20.5 z"
       fill="#bdd7ee"
       fill-rule="evenodd"
       fill-opacity="0.501961"
       id="path19" />
    <path
       d="m 865,454.5 c 0,-11.322 9.626,-20.5 21.5,-20.5 11.874,0 21.5,9.178 21.5,20.5 0,11.322 -9.626,20.5 -21.5,20.5 -11.874,0 -21.5,-9.178 -21.5,-20.5 z"
       fill="#bdd7ee"
       fill-rule="evenodd"
       fill-opacity="0.501961"
       id="path21" />
    <path
       d="m 787.992,353.214 h 0.859 c -0.062,1 -0.094,2.386 -0.094,4.157 v 13.343 c 0,0.605 0.034,1.06 0.102,1.368 0.068,0.307 0.188,0.557 0.359,0.75 0.172,0.192 0.42,0.343 0.743,0.453 0.323,0.109 0.729,0.192 1.218,0.25 0.49,0.057 1.136,0.096 1.938,0.117 v 1.14 H 781.57 v -1.14 c 1.156,-0.052 1.982,-0.123 2.477,-0.211 0.494,-0.089 0.872,-0.221 1.132,-0.399 0.261,-0.177 0.451,-0.427 0.571,-0.75 0.119,-0.322 0.179,-0.848 0.179,-1.578 v -12.672 c 0,-0.416 -0.073,-0.721 -0.218,-0.914 -0.146,-0.192 -0.36,-0.289 -0.641,-0.289 -0.333,0 -0.807,0.172 -1.422,0.516 -0.614,0.344 -1.375,0.818 -2.281,1.422 l -0.688,-1.203 z"
       fill-rule="evenodd"
       id="path23" />
    <text
       fill="#000000"
       fill-opacity="0"
       font-family="Arial, Arial_MSFontService, sans-serif"
       font-size="21.5781px"
       x="780.67902"
       y="372.095"
       id="text25">1</text>
    <path
       d="m 836.424,354.542 c -0.719,0 -1.32,0.214 -1.805,0.641 -0.484,0.427 -0.875,1.042 -1.171,1.844 -0.297,0.802 -0.508,1.779 -0.633,2.93 -0.125,1.151 -0.188,2.45 -0.188,3.898 0,3.396 0.315,5.888 0.946,7.477 0.63,1.588 1.606,2.382 2.929,2.382 1.261,0 2.196,-0.747 2.805,-2.242 0.609,-1.495 0.914,-3.81 0.914,-6.945 0,-2.396 -0.156,-4.336 -0.469,-5.82 -0.312,-1.485 -0.747,-2.55 -1.304,-3.196 -0.558,-0.646 -1.232,-0.969 -2.024,-0.969 z m 0.078,-1.328 c 2.281,0 3.979,0.881 5.094,2.641 1.115,1.76 1.672,4.422 1.672,7.984 0,3.688 -0.597,6.477 -1.789,8.368 -1.193,1.89 -2.935,2.835 -5.227,2.835 -2.25,0 -3.924,-0.885 -5.023,-2.656 -1.099,-1.771 -1.649,-4.458 -1.649,-8.062 0,-1.917 0.17,-3.573 0.508,-4.969 0.339,-1.396 0.813,-2.549 1.422,-3.461 0.609,-0.911 1.341,-1.586 2.195,-2.023 0.855,-0.438 1.787,-0.657 2.797,-0.657 z"
       fill-rule="evenodd"
       id="path27" />
    <text
       fill="#000000"
       fill-opacity="0"
       font-family="Arial, Arial_MSFontService, sans-serif"
       font-size="21.8281px"
       x="829.58002"
       y="372.314"
       id="text29">0</text>
    <path
       d="m 886.091,354.542 c -0.719,0 -1.321,0.214 -1.805,0.641 -0.484,0.427 -0.875,1.042 -1.172,1.844 -0.297,0.802 -0.508,1.779 -0.633,2.93 -0.125,1.151 -0.187,2.45 -0.187,3.898 0,3.396 0.315,5.888 0.945,7.477 0.63,1.588 1.607,2.382 2.93,2.382 1.26,0 2.195,-0.747 2.805,-2.242 0.609,-1.495 0.914,-3.81 0.914,-6.945 0,-2.396 -0.157,-4.336 -0.469,-5.82 -0.313,-1.485 -0.747,-2.55 -1.305,-3.196 -0.557,-0.646 -1.232,-0.969 -2.023,-0.969 z m 0.078,-1.328 c 2.281,0 3.979,0.881 5.094,2.641 1.114,1.76 1.672,4.422 1.672,7.984 0,3.688 -0.597,6.477 -1.79,8.368 -1.192,1.89 -2.934,2.835 -5.226,2.835 -2.25,0 -3.925,-0.885 -5.024,-2.656 -1.098,-1.771 -1.648,-4.458 -1.648,-8.062 0,-1.917 0.169,-3.573 0.508,-4.969 0.338,-1.396 0.812,-2.549 1.422,-3.461 0.609,-0.911 1.341,-1.586 2.195,-2.023 0.854,-0.438 1.786,-0.657 2.797,-0.657 z"
       fill-rule="evenodd"
       id="path31" />
    <text
       fill="#000000"
       fill-opacity="0"
       font-family="Arial, Arial_MSFontService, sans-serif"
       font-size="21.8281px"
       x="879.24701"
       y="372.314"
       id="text33">0</text>
    <path
       d="m 935.877,349.361 c -0.719,1.041 -1.435,2.074 -2.15,3.099 -0.716,1.026 -1.436,2.056 -2.162,3.089 v 0.135 h 4.312 v -2.258 c 0,-0.254 0.004,-0.569 0.011,-0.943 0.008,-0.374 0.017,-0.754 0.028,-1.14 0.012,-0.386 0.025,-0.752 0.04,-1.101 0.015,-0.348 0.03,-0.642 0.045,-0.881 z m 0.326,-2.628 h 1.785 v 8.951 h 0.203 c 0.307,0 0.556,-0.015 0.746,-0.045 0.191,-0.03 0.345,-0.092 0.461,-0.186 0.116,-0.093 0.213,-0.224 0.292,-0.393 0.078,-0.168 0.163,-0.387 0.253,-0.657 h 0.954 c -0.022,0.412 -0.047,0.82 -0.073,1.224 -0.026,0.405 -0.05,0.817 -0.073,1.236 h -2.763 v 1.471 c 0,0.434 0.01,0.771 0.029,1.011 0.018,0.239 0.074,0.427 0.168,0.561 0.094,0.135 0.232,0.236 0.416,0.304 0.183,0.067 0.439,0.145 0.769,0.235 v 0.674 h -4.852 v -0.674 c 0.225,-0.06 0.416,-0.114 0.573,-0.162 0.157,-0.049 0.288,-0.105 0.393,-0.169 0.105,-0.064 0.182,-0.138 0.23,-0.225 0.049,-0.086 0.086,-0.194 0.113,-0.325 0.026,-0.131 0.041,-0.296 0.045,-0.494 0.003,-0.199 0.005,-0.444 0.005,-0.736 v -1.471 h -6.323 v -0.887 c 1.116,-1.55 2.224,-3.091 3.325,-4.622 1.1,-1.531 2.208,-3.071 3.324,-4.621 z m 13.124,-0.157 c 0.599,0 1.158,0.063 1.679,0.191 0.52,0.127 0.971,0.32 1.353,0.578 0.382,0.258 0.68,0.58 0.893,0.966 0.213,0.385 0.32,0.833 0.32,1.342 0,0.479 -0.067,0.902 -0.202,1.269 -0.135,0.367 -0.343,0.7 -0.623,0.999 -0.281,0.3 -0.626,0.571 -1.034,0.815 -0.408,0.243 -0.878,0.477 -1.409,0.702 v 0.134 c 0.502,0.09 0.969,0.234 1.404,0.433 0.434,0.198 0.814,0.449 1.14,0.752 0.325,0.303 0.582,0.653 0.769,1.05 0.187,0.397 0.281,0.835 0.281,1.314 0,0.599 -0.113,1.155 -0.337,1.668 -0.225,0.513 -0.562,0.956 -1.011,1.331 -0.449,0.374 -1.003,0.666 -1.662,0.876 -0.659,0.209 -1.43,0.314 -2.314,0.314 -0.696,0 -1.403,-0.069 -2.122,-0.208 -0.719,-0.138 -1.4,-0.32 -2.044,-0.544 v -2.426 h 1.449 c 0.119,0.374 0.262,0.694 0.426,0.96 0.165,0.266 0.358,0.483 0.579,0.651 0.221,0.169 0.475,0.291 0.763,0.365 0.289,0.075 0.616,0.113 0.983,0.113 0.966,0 1.698,-0.23 2.196,-0.691 0.498,-0.46 0.746,-1.159 0.746,-2.094 0,-0.996 -0.327,-1.751 -0.982,-2.263 -0.655,-0.513 -1.627,-0.77 -2.914,-0.77 h -0.989 v -1.078 c 0.786,-0.037 1.466,-0.148 2.039,-0.331 0.572,-0.184 1.05,-0.421 1.431,-0.713 0.382,-0.292 0.667,-0.633 0.854,-1.022 0.187,-0.389 0.281,-0.805 0.281,-1.247 0,-0.719 -0.214,-1.286 -0.64,-1.701 -0.427,-0.416 -1.045,-0.623 -1.853,-0.623 -0.682,0 -1.253,0.187 -1.713,0.561 -0.461,0.374 -0.814,0.932 -1.061,1.673 h -1.427 v -2.212 c 0.884,-0.374 1.717,-0.657 2.499,-0.848 0.783,-0.191 1.533,-0.286 2.252,-0.286 z"
       fill-rule="evenodd"
       id="path35" />
    <text
       fill="#000000"
       fill-opacity="0"
       font-family="Arial, Arial_MSFontService, sans-serif"
       font-size="14.7344px"
       x="929.55402"
       y="359.46799"
       id="text37">43</text>
    <path
       d="m 942.096,371.982 c 0.779,0 1.443,0.088 1.993,0.264 0.551,0.176 0.998,0.414 1.342,0.713 0.345,0.3 0.594,0.659 0.747,1.079 0.154,0.419 0.231,0.872 0.231,1.358 0,0.292 -0.021,0.564 -0.062,0.815 -0.041,0.25 -0.113,0.498 -0.214,0.741 -0.101,0.243 -0.234,0.488 -0.398,0.735 -0.165,0.248 -0.371,0.51 -0.618,0.787 -0.187,0.239 -0.43,0.516 -0.73,0.831 -0.299,0.314 -0.627,0.651 -0.983,1.01 -0.355,0.36 -0.728,0.734 -1.117,1.123 -0.389,0.39 -0.767,0.775 -1.134,1.157 -0.367,0.382 -0.704,0.753 -1.011,1.112 -0.307,0.359 -0.558,0.689 -0.753,0.988 h 4.156 c 0.352,0 0.632,-0.013 0.842,-0.039 0.21,-0.026 0.384,-0.084 0.522,-0.174 0.139,-0.09 0.257,-0.227 0.354,-0.41 0.097,-0.183 0.21,-0.436 0.337,-0.758 h 1.044 c -0.037,0.531 -0.073,1.067 -0.106,1.606 -0.034,0.539 -0.07,1.074 -0.107,1.606 h -9.512 v -0.584 c 0.179,-0.404 0.389,-0.803 0.629,-1.196 0.239,-0.393 0.509,-0.792 0.808,-1.196 0.3,-0.405 0.64,-0.822 1.022,-1.252 0.382,-0.431 0.805,-0.878 1.269,-1.342 0.704,-0.704 1.277,-1.305 1.719,-1.803 0.441,-0.498 0.789,-0.941 1.044,-1.331 0.255,-0.389 0.429,-0.748 0.522,-1.078 0.094,-0.329 0.141,-0.681 0.141,-1.056 0,-0.381 -0.055,-0.733 -0.163,-1.055 -0.109,-0.322 -0.264,-0.595 -0.466,-0.82 -0.202,-0.225 -0.459,-0.401 -0.77,-0.528 -0.31,-0.127 -0.668,-0.191 -1.072,-0.191 -0.696,0 -1.28,0.189 -1.752,0.567 -0.472,0.378 -0.839,0.927 -1.101,1.646 h -1.471 v -2.19 c 0.958,-0.397 1.84,-0.685 2.645,-0.865 0.805,-0.18 1.529,-0.27 2.173,-0.27 z"
       fill-rule="evenodd"
       id="path39" />
    <text
       fill="#000000"
       fill-opacity="0"
       font-family="Arial, Arial_MSFontService, sans-serif"
       font-size="14.5435px"
       x="936.91901"
       y="384.70801"
       id="text41">2</text>
    <path
       d="m 928.485,367.052 h 27 v 2 h -27 z"
       fill-rule="evenodd"
       id="path43" />
    <path
       d="m 786.757,405.469 c -0.718,0 -1.32,0.214 -1.804,0.641 -0.485,0.427 -0.875,1.041 -1.172,1.844 -0.297,0.802 -0.508,1.778 -0.633,2.929 -0.125,1.151 -0.187,2.451 -0.187,3.899 0,3.396 0.315,5.888 0.945,7.476 0.63,1.589 1.607,2.383 2.93,2.383 1.26,0 2.195,-0.747 2.804,-2.242 0.61,-1.495 0.914,-3.81 0.914,-6.945 0,-2.396 -0.156,-4.336 -0.468,-5.821 -0.313,-1.484 -0.748,-2.549 -1.305,-3.195 -0.557,-0.646 -1.232,-0.969 -2.024,-0.969 z m 0.079,-1.328 c 2.281,0 3.979,0.88 5.093,2.641 1.115,1.76 1.672,4.422 1.672,7.984 0,3.688 -0.596,6.477 -1.789,8.367 -1.193,1.891 -2.935,2.836 -5.226,2.836 -2.25,0 -3.925,-0.885 -5.024,-2.656 -1.099,-1.771 -1.648,-4.458 -1.648,-8.063 0,-1.916 0.169,-3.572 0.508,-4.968 0.338,-1.396 0.812,-2.55 1.421,-3.461 0.61,-0.912 1.342,-1.586 2.196,-2.024 0.854,-0.437 1.786,-0.656 2.797,-0.656 z"
       fill-rule="evenodd"
       id="path45" />
    <text
       fill="#000000"
       fill-opacity="0"
       font-family="Arial, Arial_MSFontService, sans-serif"
       font-size="21.8281px"
       x="779.914"
       y="423.241"
       id="text47">0</text>
    <path
       d="m 837.658,404.141 h 0.86 c -0.063,1 -0.094,2.385 -0.094,4.156 v 13.344 c 0,0.604 0.034,1.06 0.102,1.367 0.067,0.308 0.187,0.558 0.359,0.75 0.172,0.193 0.419,0.344 0.742,0.453 0.323,0.11 0.729,0.193 1.219,0.25 0.49,0.058 1.135,0.097 1.937,0.118 v 1.14 h -11.546 v -1.14 c 1.156,-0.053 1.981,-0.123 2.476,-0.211 0.495,-0.089 0.873,-0.222 1.133,-0.399 0.26,-0.177 0.45,-0.427 0.57,-0.75 0.12,-0.323 0.18,-0.849 0.18,-1.578 v -12.672 c 0,-0.416 -0.073,-0.721 -0.219,-0.914 -0.146,-0.193 -0.359,-0.289 -0.64,-0.289 -0.334,0 -0.808,0.172 -1.422,0.516 -0.615,0.343 -1.375,0.817 -2.282,1.422 l -0.687,-1.204 z"
       fill-rule="evenodd"
       id="path49" />
    <text
       fill="#000000"
       fill-opacity="0"
       font-family="Arial, Arial_MSFontService, sans-serif"
       font-size="21.5781px"
       x="830.34601"
       y="423.022"
       id="text51">1</text>
    <path
       d="m 886.091,405.469 c -0.719,0 -1.321,0.214 -1.805,0.641 -0.484,0.427 -0.875,1.041 -1.172,1.844 -0.297,0.802 -0.508,1.778 -0.633,2.929 -0.125,1.151 -0.187,2.451 -0.187,3.899 0,3.396 0.315,5.888 0.945,7.476 0.63,1.589 1.607,2.383 2.93,2.383 1.26,0 2.195,-0.747 2.805,-2.242 0.609,-1.495 0.914,-3.81 0.914,-6.945 0,-2.396 -0.157,-4.336 -0.469,-5.821 -0.313,-1.484 -0.747,-2.549 -1.305,-3.195 -0.557,-0.646 -1.232,-0.969 -2.023,-0.969 z m 0.078,-1.328 c 2.281,0 3.979,0.88 5.094,2.641 1.114,1.76 1.672,4.422 1.672,7.984 0,3.688 -0.597,6.477 -1.79,8.367 -1.192,1.891 -2.934,2.836 -5.226,2.836 -2.25,0 -3.925,-0.885 -5.024,-2.656 -1.098,-1.771 -1.648,-4.458 -1.648,-8.063 0,-1.916 0.169,-3.572 0.508,-4.968 0.338,-1.396 0.812,-2.55 1.422,-3.461 0.609,-0.912 1.341,-1.586 2.195,-2.024 0.854,-0.437 1.786,-0.656 2.797,-0.656 z"
       fill-rule="evenodd"
       id="path53" />
    <text
       fill="#000000"
       fill-opacity="0"
       font-family="Arial, Arial_MSFontService, sans-serif"
       font-size="21.8281px"
       x="879.24701"
       y="423.241"
       id="text55">0</text>
    <path
       d="m 928.796,404.611 h 12.938 v 1.719 h -12.938 z"
       fill-rule="evenodd"
       id="path57" />
    <text
       fill="#000000"
       fill-opacity="0"
       font-family="Arial, Arial_MSFontService, sans-serif"
       font-size="1.71826px"
       x="928.79602"
       y="406.11499"
       id="text59">âˆ’</text>
    <path
       d="m 953.815,396.963 h 1.01 l -0.157,2.718 h -6.581 v 4.391 c 0.397,-0.135 0.831,-0.243 1.303,-0.325 0.471,-0.083 0.947,-0.124 1.426,-0.124 0.689,0 1.312,0.095 1.87,0.286 0.558,0.191 1.037,0.465 1.437,0.82 0.401,0.356 0.712,0.786 0.933,1.292 0.22,0.505 0.331,1.072 0.331,1.701 0,0.719 -0.124,1.359 -0.371,1.921 -0.247,0.561 -0.601,1.038 -1.061,1.431 -0.46,0.393 -1.022,0.693 -1.685,0.899 -0.662,0.206 -1.409,0.309 -2.24,0.309 -0.659,0 -1.333,-0.064 -2.022,-0.191 -0.688,-0.128 -1.403,-0.315 -2.145,-0.562 v -2.493 h 1.438 c 0.225,0.756 0.561,1.297 1.011,1.623 0.449,0.326 1.04,0.488 1.774,0.488 0.981,0 1.722,-0.254 2.224,-0.763 0.501,-0.509 0.752,-1.307 0.752,-2.392 0,-1.041 -0.266,-1.814 -0.797,-2.319 -0.532,-0.506 -1.277,-0.759 -2.235,-0.759 -0.255,0 -0.485,0.004 -0.691,0.012 -0.206,0.007 -0.41,0.026 -0.612,0.056 -0.202,0.03 -0.402,0.071 -0.601,0.123 -0.198,0.053 -0.421,0.113 -0.668,0.18 l -0.921,-0.505 v -7.064 h 6.222 c 0.18,-0.008 0.324,-0.019 0.432,-0.034 0.109,-0.015 0.197,-0.049 0.264,-0.101 0.068,-0.052 0.127,-0.125 0.18,-0.219 0.052,-0.094 0.112,-0.226 0.18,-0.399 z"
       fill-rule="evenodd"
       id="path61" />
    <text
       fill="#000000"
       fill-opacity="0"
       font-family="Arial, Arial_MSFontService, sans-serif"
       font-size="15.3184px"
       x="945.86298"
       y="410.367"
       id="text63">5</text>
    <path
       d="m 942.103,422.909 c 0.778,0 1.443,0.088 1.993,0.264 0.55,0.176 0.998,0.414 1.342,0.713 0.345,0.3 0.593,0.659 0.747,1.078 0.153,0.419 0.23,0.872 0.23,1.359 0,0.292 -0.02,0.563 -0.062,0.814 -0.041,0.251 -0.112,0.498 -0.213,0.742 -0.101,0.243 -0.234,0.488 -0.399,0.735 -0.164,0.247 -0.37,0.509 -0.617,0.786 -0.188,0.24 -0.431,0.517 -0.73,0.831 -0.3,0.315 -0.627,0.652 -0.983,1.011 -0.356,0.359 -0.728,0.734 -1.117,1.123 -0.39,0.389 -0.768,0.775 -1.135,1.157 -0.367,0.382 -0.703,0.752 -1.01,1.112 -0.307,0.359 -0.558,0.688 -0.753,0.988 h 4.155 c 0.352,0 0.633,-0.013 0.843,-0.039 0.209,-0.027 0.383,-0.085 0.522,-0.174 0.138,-0.09 0.256,-0.227 0.354,-0.41 0.097,-0.184 0.209,-0.437 0.337,-0.758 h 1.044 c -0.037,0.531 -0.073,1.066 -0.107,1.606 -0.033,0.539 -0.069,1.074 -0.106,1.605 h -9.513 v -0.584 c 0.18,-0.404 0.39,-0.802 0.629,-1.196 0.24,-0.393 0.509,-0.791 0.809,-1.196 0.299,-0.404 0.64,-0.821 1.022,-1.252 0.382,-0.43 0.805,-0.878 1.269,-1.342 0.704,-0.704 1.276,-1.304 1.718,-1.802 0.442,-0.498 0.79,-0.942 1.045,-1.331 0.254,-0.389 0.428,-0.749 0.522,-1.078 0.093,-0.33 0.14,-0.682 0.14,-1.056 0,-0.382 -0.054,-0.734 -0.163,-1.056 -0.108,-0.322 -0.264,-0.595 -0.466,-0.819 -0.202,-0.225 -0.458,-0.401 -0.769,-0.528 -0.311,-0.128 -0.668,-0.191 -1.072,-0.191 -0.697,0 -1.281,0.189 -1.752,0.567 -0.472,0.378 -0.839,0.926 -1.101,1.645 h -1.471 v -2.19 c 0.958,-0.397 1.84,-0.685 2.645,-0.864 0.804,-0.18 1.529,-0.27 2.173,-0.27 z"
       fill-rule="evenodd"
       id="path65" />
    <text
       fill="#000000"
       fill-opacity="0"
       font-family="Arial, Arial_MSFontService, sans-serif"
       font-size="14.5435px"
       x="936.92499"
       y="435.63501"
       id="text67">2</text>
    <path
       d="m 926.485,418.052 h 31 v 2 h -31 z"
       fill-rule="evenodd"
       id="path69" />
    <path
       d="m 786.757,448.982 c -0.718,0 -1.32,0.214 -1.804,0.641 -0.485,0.427 -0.875,1.042 -1.172,1.844 -0.297,0.802 -0.508,1.779 -0.633,2.93 -0.125,1.151 -0.187,2.45 -0.187,3.898 0,3.396 0.315,5.888 0.945,7.477 0.63,1.588 1.607,2.382 2.93,2.382 1.26,0 2.195,-0.747 2.804,-2.242 0.61,-1.495 0.914,-3.81 0.914,-6.945 0,-2.396 -0.156,-4.336 -0.468,-5.82 -0.313,-1.485 -0.748,-2.55 -1.305,-3.196 -0.557,-0.646 -1.232,-0.969 -2.024,-0.969 z m 0.079,-1.328 c 2.281,0 3.979,0.881 5.093,2.641 1.115,1.76 1.672,4.422 1.672,7.984 0,3.688 -0.596,6.477 -1.789,8.368 -1.193,1.89 -2.935,2.835 -5.226,2.835 -2.25,0 -3.925,-0.885 -5.024,-2.656 -1.099,-1.771 -1.648,-4.458 -1.648,-8.062 0,-1.917 0.169,-3.573 0.508,-4.969 0.338,-1.396 0.812,-2.549 1.421,-3.461 0.61,-0.911 1.342,-1.586 2.196,-2.023 0.854,-0.438 1.786,-0.657 2.797,-0.657 z"
       fill-rule="evenodd"
       id="path71" />
    <text
       fill="#000000"
       fill-opacity="0"
       font-family="Arial, Arial_MSFontService, sans-serif"
       font-size="21.8281px"
       x="779.914"
       y="466.754"
       id="text73">0</text>
    <path
       d="m 836.424,448.982 c -0.719,0 -1.32,0.214 -1.805,0.641 -0.484,0.427 -0.875,1.042 -1.171,1.844 -0.297,0.802 -0.508,1.779 -0.633,2.93 -0.125,1.151 -0.188,2.45 -0.188,3.898 0,3.396 0.315,5.888 0.946,7.477 0.63,1.588 1.606,2.382 2.929,2.382 1.261,0 2.196,-0.747 2.805,-2.242 0.609,-1.495 0.914,-3.81 0.914,-6.945 0,-2.396 -0.156,-4.336 -0.469,-5.82 -0.312,-1.485 -0.747,-2.55 -1.304,-3.196 -0.558,-0.646 -1.232,-0.969 -2.024,-0.969 z m 0.078,-1.328 c 2.281,0 3.979,0.881 5.094,2.641 1.115,1.76 1.672,4.422 1.672,7.984 0,3.688 -0.597,6.477 -1.789,8.368 -1.193,1.89 -2.935,2.835 -5.227,2.835 -2.25,0 -3.924,-0.885 -5.023,-2.656 -1.099,-1.771 -1.649,-4.458 -1.649,-8.062 0,-1.917 0.17,-3.573 0.508,-4.969 0.339,-1.396 0.813,-2.549 1.422,-3.461 0.609,-0.911 1.341,-1.586 2.195,-2.023 0.855,-0.438 1.787,-0.657 2.797,-0.657 z"
       fill-rule="evenodd"
       id="path75" />
    <text
       fill="#000000"
       fill-opacity="0"
       font-family="Arial, Arial_MSFontService, sans-serif"
       font-size="21.8281px"
       x="829.58002"
       y="466.754"
       id="text77">0</text>
    <path
       d="m 887.325,447.654 h 0.86 c -0.063,1 -0.094,2.386 -0.094,4.157 v 13.343 c 0,0.605 0.034,1.06 0.101,1.368 0.068,0.307 0.188,0.557 0.36,0.75 0.172,0.192 0.419,0.343 0.742,0.453 0.323,0.109 0.729,0.192 1.219,0.25 0.489,0.057 1.135,0.096 1.937,0.117 v 1.14 h -11.547 v -1.14 c 1.157,-0.052 1.982,-0.123 2.477,-0.211 0.495,-0.089 0.872,-0.221 1.133,-0.399 0.26,-0.177 0.45,-0.427 0.57,-0.75 0.12,-0.322 0.18,-0.848 0.18,-1.578 v -12.672 c 0,-0.416 -0.073,-0.721 -0.219,-0.914 -0.146,-0.192 -0.359,-0.289 -0.641,-0.289 -0.333,0 -0.807,0.172 -1.422,0.516 -0.614,0.344 -1.375,0.818 -2.281,1.422 l -0.687,-1.203 z"
       fill-rule="evenodd"
       id="path79" />
    <text
       fill="#000000"
       fill-opacity="0"
       font-family="Arial, Arial_MSFontService, sans-serif"
       font-size="21.5781px"
       x="880.013"
       y="466.535"
       id="text81">1</text>
    <path
       d="m 938.716,447.654 c 1.937,0 3.401,0.425 4.39,1.274 0.99,0.849 1.485,2.081 1.485,3.695 0,0.552 -0.055,1.06 -0.164,1.524 -0.11,0.463 -0.282,0.921 -0.516,1.375 -0.234,0.453 -0.549,0.94 -0.945,1.46 -0.396,0.521 -0.834,1.05 -1.313,1.586 -0.479,0.537 -1.307,1.43 -2.484,2.68 -1.979,2.094 -3.432,3.922 -4.359,5.484 h 5.89 c 0.511,0 0.922,-0.031 1.235,-0.093 0.312,-0.063 0.562,-0.167 0.75,-0.313 0.187,-0.146 0.335,-0.336 0.445,-0.57 0.109,-0.234 0.247,-0.596 0.414,-1.086 h 1.328 l -0.266,4.562 h -12.859 v -0.75 c 0.448,-1.093 1.052,-2.213 1.813,-3.359 0.76,-1.146 1.838,-2.495 3.234,-4.047 1.208,-1.333 2.078,-2.344 2.609,-3.031 0.584,-0.75 1.019,-1.398 1.305,-1.945 0.286,-0.547 0.492,-1.063 0.617,-1.547 0.125,-0.485 0.188,-0.972 0.188,-1.461 0,-0.781 -0.125,-1.471 -0.375,-2.07 -0.25,-0.599 -0.633,-1.071 -1.149,-1.415 -0.515,-0.343 -1.164,-0.515 -1.945,-0.515 -1.948,0 -3.261,1.083 -3.938,3.25 h -1.89 v -3 c 1.26,-0.594 2.44,-1.024 3.539,-1.289 1.099,-0.266 2.086,-0.399 2.961,-0.399 z"
       fill-rule="evenodd"
       id="path83" />
    <text
       fill="#000000"
       fill-opacity="0"
       font-family="Arial, Arial_MSFontService, sans-serif"
       font-size="21.5781px"
       x="931.74701"
       y="466.535"
       id="text85">2</text>
    <path
       d="M 341,236 H 869"
       stroke="#000000"
       stroke-width="4"
       stroke-miterlimit="8"
       fill="none"
       fill-rule="evenodd"
       id="path87" />
    <path
       d="m 343,236 v 52.062 h -4 V 236 Z m 6.728,41.069 -8.728,14.962 -8.727,-14.962 c -0.557,-0.954 -0.235,-2.178 0.719,-2.735 0.954,-0.556 2.179,-0.234 2.736,0.72 l 7,12 h -3.455 l 7,-12 c 0.556,-0.954 1.781,-1.276 2.735,-0.72 0.954,0.557 1.276,1.781 0.72,2.735 z"
       id="path89" />
    <path
       d="m 869,236 v 52.062 h -4 V 236 Z m 6.728,41.069 -8.728,14.962 -8.727,-14.962 c -0.557,-0.954 -0.235,-2.178 0.719,-2.735 0.954,-0.556 2.179,-0.234 2.736,0.72 l 7,12 h -3.455 l 7,-12 c 0.556,-0.954 1.781,-1.276 2.735,-0.72 0.954,0.557 1.276,1.781 0.72,2.735 z"
       id="path91" />
    <text
       font-family="Calibri, Calibri_MSFontService, sans-serif"
       font-weight="400"
       font-size="27px"
       transform="translate(705.877,322)"
       id="text97">Find reduced <tspan
   font-size="27px"
   x="147.48"
   y="0"
   id="tspan93">echelon form</tspan><tspan
   font-size="27px"
   x="-525.854"
   y="0"
   id="tspan95">Directly use back substitution</tspan></text>
    <path
       d="m 136.02,409.081 c 3.75,0 8.218,1.641 13.406,4.922 5.187,3.281 9.125,4.922 11.812,4.922 2.657,0 4.875,-0.703 6.657,-2.11 1.781,-1.406 3.578,-3.593 5.39,-6.562 l 3.75,2.531 c -1.344,2.781 -3.469,5.586 -6.375,8.414 -2.906,2.828 -6.437,4.242 -10.594,4.242 -4,0 -8.57,-1.64 -13.711,-4.922 -5.14,-3.281 -9.07,-4.921 -11.789,-4.921 -2.281,0 -4.281,0.718 -6,2.156 -1.718,1.437 -3.234,3.531 -4.546,6.281 l -3.657,-2.062 c 1.594,-3.688 3.703,-6.758 6.328,-9.211 2.625,-2.454 5.735,-3.68 9.329,-3.68 z"
       fill-rule="evenodd"
       id="path99" />
    <text
       fill="#000000"
       fill-opacity="0"
       font-family="Arial, Arial_MSFontService, sans-serif"
       font-size="16.3594px"
       x="120.363"
       y="423.39499"
       id="text101">~</text>
    <path
       d="m 231,480 c -7.456,0 -13.5,-5.314 -13.5,-11.869 V 428.869 C 217.5,422.314 211.456,417 204,417 c 7.456,0 13.5,-5.314 13.5,-11.869 V 365.869 C 217.5,359.314 223.544,354 231,354"
       stroke="#000000"
       stroke-width="4"
       stroke-miterlimit="8"
       fill="none"
       fill-rule="evenodd"
       id="path103" />
    <text
       font-family="'Cambria Math', 'Cambria Math_MSFontService', sans-serif"
       font-weight="400"
       font-size="32px"
       transform="translate(235.136,387)"
       id="text155">ğ‘¥<tspan
   font-size="23px"
   x="15.9467"
   y="7"
   id="tspan105">1</tspan><tspan
   font-size="32px"
   x="30.7733"
   y="0"
   id="tspan107" />+<tspan
   font-size="32px"
   x="61.606701"
   y="0"
   id="tspan109" />3<tspan
   font-size="32px"
   x="86.2733"
   y="0"
   id="tspan111">ğ‘¥</tspan><tspan
   font-size="23px"
   x="102.96"
   y="7"
   id="tspan113">2</tspan><tspan
   font-size="32px"
   x="124.9"
   y="0"
   id="tspan115">âˆ’</tspan><tspan
   font-size="32px"
   x="155.847"
   y="0"
   id="tspan117">8</tspan><tspan
   font-size="32px"
   x="173.513"
   y="0"
   id="tspan119">ğ‘¥</tspan><tspan
   font-size="23px"
   x="190.2"
   y="7"
   id="tspan121">3</tspan><tspan
   font-family="Calibri, Calibri_MSFontService, sans-serif"
   font-size="32px"
   x="205.02699"
   y="0"
   id="tspan123">=</tspan><tspan
   font-family="Calibri, Calibri_MSFontService, sans-serif"
   font-size="32px"
   x="228.19299"
   y="0"
   id="tspan125">-</tspan><tspan
   font-family="Calibri, Calibri_MSFontService, sans-serif"
   font-size="32px"
   x="238.02699"
   y="0"
   id="tspan127">2</tspan><tspan
   font-family="Calibri, Calibri_MSFontService, sans-serif"
   font-size="32px"
   x="61.8559"
   y="42"
   id="tspan129">-</tspan><tspan
   font-size="32px"
   x="71.689201"
   y="42"
   id="tspan131">2</tspan><tspan
   font-size="32px"
   x="89.355904"
   y="42"
   id="tspan133">ğ‘¥</tspan><tspan
   font-size="23px"
   x="106.043"
   y="49"
   id="tspan135">2</tspan><tspan
   font-size="32px"
   x="120.869"
   y="42"
   id="tspan137" /><tspan
   font-family="Calibri, Calibri_MSFontService, sans-serif"
   font-size="32px"
   x="204.869"
   y="42"
   id="tspan139">=</tspan><tspan
   font-family="Calibri, Calibri_MSFontService, sans-serif"
   font-size="32px"
   x="228.036"
   y="42"
   id="tspan141">5</tspan><tspan
   font-family="Calibri, Calibri_MSFontService, sans-serif"
   font-size="32px"
   x="149.561"
   y="83"
   id="tspan143">7</tspan><tspan
   font-size="32px"
   x="165.72701"
   y="83"
   id="tspan145">ğ‘¥</tspan><tspan
   font-size="23px"
   x="182.414"
   y="90"
   id="tspan147">3</tspan><tspan
   font-size="32px"
   x="197.241"
   y="83"
   id="tspan149" /><tspan
   font-family="Calibri, Calibri_MSFontService, sans-serif"
   font-size="32px"
   x="204.241"
   y="83"
   id="tspan151">=</tspan><tspan
   font-family="Calibri, Calibri_MSFontService, sans-serif"
   font-size="32px"
   x="227.407"
   y="83"
   id="tspan153">14</tspan></text>
    <path
       d="m 135.46,559.335 c 3.75,0 8.219,1.641 13.406,4.922 5.188,3.281 9.125,4.922 11.813,4.922 2.656,0 4.875,-0.703 6.656,-2.109 1.781,-1.407 3.578,-3.594 5.391,-6.563 l 3.75,2.531 c -1.344,2.782 -3.469,5.586 -6.375,8.414 -2.907,2.829 -6.438,4.243 -10.594,4.243 -4,0 -8.57,-1.641 -13.711,-4.922 -5.141,-3.282 -9.07,-4.922 -11.789,-4.922 -2.281,0 -4.281,0.719 -6,2.156 -1.719,1.438 -3.234,3.531 -4.547,6.281 l -3.656,-2.062 c 1.594,-3.688 3.703,-6.758 6.328,-9.211 2.625,-2.453 5.734,-3.68 9.328,-3.68 z"
       fill-rule="evenodd"
       id="path157" />
    <text
       fill="#000000"
       fill-opacity="0"
       font-family="Arial, Arial_MSFontService, sans-serif"
       font-size="16.3594px"
       x="119.804"
       y="573.65002"
       id="text159">~</text>
    <path
       d="m 230,630 c -7.456,0 -13.5,-5.314 -13.5,-11.869 V 578.869 C 216.5,572.314 210.456,567 203,567 c 7.456,0 13.5,-5.314 13.5,-11.869 V 515.869 C 216.5,509.314 222.544,504 230,504"
       stroke="#000000"
       stroke-width="4"
       stroke-miterlimit="8"
       fill="none"
       fill-rule="evenodd"
       id="path161" />
    <text
       font-family="'Cambria Math', 'Cambria Math_MSFontService', sans-serif"
       font-weight="400"
       font-size="32px"
       transform="translate(234.576,535)"
       id="text201">ğ‘¥<tspan
   font-size="23px"
   x="15.9467"
   y="7"
   id="tspan163">1</tspan><tspan
   font-size="32px"
   x="30.7733"
   y="0"
   id="tspan165" /><tspan
   font-family="Calibri, Calibri_MSFontService, sans-serif"
   font-size="32px"
   x="37.7733"
   y="0"
   id="tspan167">=</tspan><tspan
   font-family="Calibri, Calibri_MSFontService, sans-serif"
   font-size="32px"
   x="53.7733"
   y="0"
   id="tspan169" /><tspan
   font-family="Calibri, Calibri_MSFontService, sans-serif"
   font-size="32px"
   x="60.939999"
   y="0"
   id="tspan171">-</tspan><tspan
   font-family="Calibri, Calibri_MSFontService, sans-serif"
   font-size="32px"
   x="70.7733"
   y="0"
   id="tspan173">2</tspan><tspan
   font-size="32px"
   x="94.106697"
   y="0"
   id="tspan175">âˆ’</tspan><tspan
   font-size="32px"
   x="117.94"
   y="0"
   id="tspan177" />3ğ‘¥<tspan
   font-size="23px"
   x="159.293"
   y="7"
   id="tspan179">2</tspan><tspan
   font-family="Calibri, Calibri_MSFontService, sans-serif"
   font-size="32px"
   x="181.287"
   y="0"
   id="tspan181">+</tspan><tspan
   font-size="32px"
   x="204.453"
   y="0"
   id="tspan183">8ğ‘¥</tspan><tspan
   font-size="23px"
   x="238.80701"
   y="7"
   id="tspan185">3</tspan><tspan
   font-size="32px"
   x="0"
   y="45"
   id="tspan187">ğ‘¥</tspan><tspan
   font-size="23px"
   x="16.686701"
   y="52"
   id="tspan189">2</tspan><tspan
   font-size="32px"
   x="31.5133"
   y="45"
   id="tspan191" /><tspan
   font-family="Calibri, Calibri_MSFontService, sans-serif"
   font-size="32px"
   x="38.513302"
   y="45"
   id="tspan193">=</tspan><tspan
   font-family="Calibri, Calibri_MSFontService, sans-serif"
   font-size="32px"
   x="61.68"
   y="27"
   id="tspan195">âˆ’</tspan><tspan
   font-size="23px"
   x="77.68"
   y="27"
   id="tspan197">5</tspan><tspan
   font-size="23px"
   x="69.68"
   y="61"
   id="tspan199">2</tspan></text>
    <path
       d="m 296.576,570.38 h 15 15 v 2 h -15 -15 z"
       fill-rule="evenodd"
       id="path203" />
    <text
       font-family="'Cambria Math', 'Cambria Math_MSFontService', sans-serif"
       font-weight="400"
       font-size="32px"
       transform="translate(234.893,624)"
       id="text213">ğ‘¥<tspan
   font-size="23px"
   x="16.686701"
   y="7"
   id="tspan205">3</tspan><tspan
   font-size="32px"
   x="31.5133"
   y="0"
   id="tspan207" /><tspan
   font-family="Calibri, Calibri_MSFontService, sans-serif"
   font-size="32px"
   x="38.513302"
   y="0"
   id="tspan209">=</tspan><tspan
   font-family="Calibri, Calibri_MSFontService, sans-serif"
   font-size="32px"
   x="61.68"
   y="0"
   id="tspan211">2</tspan></text>
    <path
       d="M 468,91.5515 C 468,81.3058 476.306,73 486.551,73 H 711.449 C 721.694,73 730,81.3058 730,91.5515 V 198.449 C 730,208.694 721.694,217 711.449,217 H 486.551 C 476.306,217 468,208.694 468,198.449 Z"
       fill="#e2f0d9"
       fill-rule="evenodd"
       id="path215" />
    <path
       d="M 661,73 V 216.638"
       stroke="#385723"
       stroke-width="4"
       stroke-miterlimit="8"
       fill="none"
       fill-rule="evenodd"
       id="path217" />
    <path
       d="m 490,107.5 c 0,-11.3218 9.626,-20.5 21.5,-20.5 11.874,0 21.5,9.1782 21.5,20.5 0,11.322 -9.626,20.5 -21.5,20.5 -11.874,0 -21.5,-9.178 -21.5,-20.5 z"
       fill="#bdd7ee"
       fill-rule="evenodd"
       fill-opacity="0.501961"
       id="path219" />
    <path
       d="m 545,144.5 c 0,-11.322 9.626,-20.5 21.5,-20.5 11.874,0 21.5,9.178 21.5,20.5 0,11.322 -9.626,20.5 -21.5,20.5 -11.874,0 -21.5,-9.178 -21.5,-20.5 z"
       fill="#bdd7ee"
       fill-rule="evenodd"
       fill-opacity="0.501961"
       id="path221" />
    <path
       d="m 604,183.5 c 0,-11.322 9.626,-20.5 21.5,-20.5 11.874,0 21.5,9.178 21.5,20.5 0,11.322 -9.626,20.5 -21.5,20.5 -11.874,0 -21.5,-9.178 -21.5,-20.5 z"
       fill="#bdd7ee"
       fill-rule="evenodd"
       fill-opacity="0.501961"
       id="path223" />
    <path
       d="m 512.973,96.1705 h 0.859 c -0.062,1 -0.094,2.3855 -0.094,4.1565 v 13.344 c 0,0.604 0.034,1.059 0.102,1.367 0.068,0.307 0.187,0.557 0.359,0.75 0.172,0.192 0.42,0.343 0.742,0.453 0.323,0.109 0.73,0.193 1.219,0.25 0.49,0.057 1.136,0.096 1.938,0.117 v 1.141 h -11.547 v -1.141 c 1.156,-0.052 1.982,-0.122 2.476,-0.211 0.495,-0.088 0.873,-0.221 1.133,-0.398 0.261,-0.177 0.451,-0.427 0.57,-0.75 0.12,-0.323 0.18,-0.849 0.18,-1.578 v -12.672 c 0,-0.417 -0.073,-0.722 -0.219,-0.914 -0.145,-0.1931 -0.359,-0.2895 -0.64,-0.2895 -0.334,0 -0.807,0.1719 -1.422,0.5155 -0.615,0.344 -1.375,0.818 -2.281,1.422 l -0.688,-1.203 z"
       fill-rule="evenodd"
       id="path225" />
    <text
       fill="#000000"
       fill-opacity="0"
       font-family="Arial, Arial_MSFontService, sans-serif"
       font-size="21.5781px"
       x="505.66"
       y="115.051"
       id="text227">1</text>
    <path
       d="m 566.381,96.1705 c 1.177,0 2.208,0.1823 3.094,0.5469 0.885,0.3646 1.562,0.888 2.031,1.5703 0.469,0.6823 0.703,1.4974 0.703,2.4453 0,0.885 -0.177,1.664 -0.531,2.336 -0.355,0.672 -0.852,1.258 -1.493,1.758 -0.64,0.5 -1.471,0.989 -2.492,1.469 v 0.14 c 0.636,0.115 1.248,0.31 1.836,0.586 0.589,0.276 1.112,0.633 1.571,1.07 0.458,0.438 0.825,0.961 1.101,1.571 0.276,0.609 0.414,1.304 0.414,2.086 0,1.208 -0.263,2.281 -0.789,3.218 -0.526,0.938 -1.331,1.678 -2.414,2.219 -1.083,0.542 -2.401,0.813 -3.953,0.813 -0.896,0 -1.862,-0.102 -2.899,-0.305 -1.036,-0.203 -1.987,-0.471 -2.851,-0.805 v -3.312 h 1.875 c 0.364,1.083 0.846,1.87 1.445,2.359 0.599,0.49 1.414,0.735 2.446,0.735 1.354,0 2.377,-0.37 3.07,-1.11 0.693,-0.739 1.039,-1.833 1.039,-3.281 0,-1.521 -0.458,-2.682 -1.375,-3.484 -0.917,-0.803 -2.261,-1.204 -4.031,-1.204 h -1.407 v -1.375 c 1.407,-0.083 2.592,-0.354 3.555,-0.812 0.964,-0.458 1.68,-1.047 2.149,-1.766 0.468,-0.718 0.703,-1.526 0.703,-2.422 0,-1.156 -0.308,-2.0465 -0.922,-2.6715 -0.615,-0.625 -1.511,-0.9375 -2.688,-0.9375 -0.979,0 -1.776,0.2657 -2.39,0.7969 -0.615,0.5313 -1.068,1.3438 -1.36,2.4371 h -1.875 v -2.9683 c 1.209,-0.5729 2.339,-1 3.391,-1.2813 1.052,-0.2812 2.068,-0.4219 3.047,-0.4219 z"
       fill-rule="evenodd"
       id="path229" />
    <text
       fill="#000000"
       fill-opacity="0"
       font-family="Arial, Arial_MSFontService, sans-serif"
       font-size="21.8281px"
       x="559.70898"
       y="115.27"
       id="text231">3</text>
    <path
       d="m 613.686,108.796 h 6.531 c 0.084,0 0.159,0.015 0.227,0.046 0.068,0.032 0.125,0.092 0.172,0.18 0.047,0.089 0.083,0.201 0.109,0.336 0.026,0.135 0.039,0.302 0.039,0.5 0,0.406 -0.047,0.688 -0.14,0.844 -0.094,0.156 -0.229,0.234 -0.407,0.234 h -6.531 c -0.187,0 -0.328,-0.081 -0.422,-0.242 -0.093,-0.161 -0.14,-0.44 -0.14,-0.836 0,-0.396 0.047,-0.672 0.14,-0.828 0.094,-0.156 0.235,-0.234 0.422,-0.234 z"
       fill-rule="evenodd"
       id="path233" />
    <text
       fill="#000000"
       fill-opacity="0"
       font-family="Arial, Arial_MSFontService, sans-serif"
       font-size="2.14062px"
       x="613.12402"
       y="110.669"
       id="text235">-</text>
    <path
       d="m 630.738,107.342 c -0.77,0 -1.419,0.12 -1.945,0.36 -0.526,0.239 -0.953,0.562 -1.281,0.969 -0.328,0.406 -0.563,0.882 -0.703,1.429 -0.141,0.547 -0.211,1.133 -0.211,1.758 0,0.677 0.078,1.31 0.234,1.898 0.156,0.589 0.404,1.097 0.742,1.524 0.339,0.427 0.774,0.766 1.305,1.016 0.531,0.25 1.177,0.375 1.937,0.375 0.855,0 1.586,-0.175 2.196,-0.524 0.609,-0.349 1.073,-0.867 1.39,-1.555 0.318,-0.687 0.477,-1.5 0.477,-2.437 0,-1 -0.172,-1.862 -0.516,-2.586 -0.343,-0.724 -0.828,-1.276 -1.453,-1.656 -0.625,-0.38 -1.349,-0.571 -2.172,-0.571 z m 0.078,-9.8433 c -1.312,0 -2.315,0.3567 -3.007,1.0703 -0.693,0.7135 -1.039,1.727 -1.039,3.039 0,0.615 0.073,1.193 0.218,1.734 0.146,0.542 0.381,1.011 0.703,1.407 0.323,0.396 0.743,0.711 1.258,0.945 0.516,0.234 1.149,0.352 1.899,0.352 0.864,0 1.591,-0.17 2.179,-0.508 0.589,-0.339 1.026,-0.834 1.313,-1.485 0.286,-0.651 0.43,-1.403 0.43,-2.257 0,-0.938 -0.17,-1.732 -0.508,-2.3833 -0.339,-0.651 -0.805,-1.1328 -1.399,-1.4453 -0.593,-0.3125 -1.276,-0.4687 -2.047,-0.4687 z m 0.032,-1.3282 c 1.5,0 2.76,0.211 3.781,0.6329 1.021,0.4218 1.789,1.0312 2.305,1.8281 0.515,0.7969 0.773,1.7525 0.773,2.8675 0,1.146 -0.281,2.132 -0.844,2.961 -0.562,0.828 -1.432,1.502 -2.609,2.023 l 0.031,0.203 c 1.177,0.459 2.068,1.128 2.672,2.008 0.604,0.88 0.906,1.94 0.906,3.18 0,1.218 -0.291,2.291 -0.875,3.218 -0.583,0.928 -1.429,1.644 -2.539,2.149 -1.109,0.505 -2.403,0.758 -3.883,0.758 -1.385,0 -2.601,-0.232 -3.648,-0.696 -1.047,-0.463 -1.859,-1.14 -2.437,-2.031 -0.579,-0.891 -0.868,-1.94 -0.868,-3.148 0,-0.907 0.157,-1.693 0.469,-2.36 0.313,-0.666 0.721,-1.216 1.227,-1.648 0.505,-0.432 1.143,-0.826 1.914,-1.18 l -0.032,-0.203 c -2.239,-0.969 -3.359,-2.63 -3.359,-4.984 0,-1.073 0.294,-2.0316 0.883,-2.8753 0.588,-0.8438 1.427,-1.5052 2.516,-1.9844 1.088,-0.4792 2.294,-0.7188 3.617,-0.7188 z"
       fill-rule="evenodd"
       id="path237" />
    <text
       fill="#000000"
       fill-opacity="0"
       font-family="Arial, Arial_MSFontService, sans-serif"
       font-size="21.8281px"
       x="623.61298"
       y="115.27"
       id="text239">8</text>
    <path
       d="m 680.686,108.796 h 6.531 c 0.084,0 0.159,0.015 0.227,0.046 0.068,0.032 0.125,0.092 0.172,0.18 0.047,0.089 0.083,0.201 0.109,0.336 0.026,0.135 0.039,0.302 0.039,0.5 0,0.406 -0.047,0.688 -0.14,0.844 -0.094,0.156 -0.229,0.234 -0.407,0.234 h -6.531 c -0.187,0 -0.328,-0.081 -0.422,-0.242 -0.093,-0.161 -0.14,-0.44 -0.14,-0.836 0,-0.396 0.047,-0.672 0.14,-0.828 0.094,-0.156 0.235,-0.234 0.422,-0.234 z"
       fill-rule="evenodd"
       id="path241" />
    <text
       fill="#000000"
       fill-opacity="0"
       font-family="Arial, Arial_MSFontService, sans-serif"
       font-size="2.14062px"
       x="680.12402"
       y="110.669"
       id="text243">-</text>
    <path
       d="m 697.863,96.1705 c 1.938,0 3.401,0.4245 4.391,1.2735 0.99,0.8489 1.484,2.0807 1.484,3.695 0,0.552 -0.054,1.06 -0.164,1.524 -0.109,0.463 -0.281,0.922 -0.515,1.375 -0.235,0.453 -0.55,0.94 -0.946,1.461 -0.395,0.521 -0.833,1.049 -1.312,1.586 -0.479,0.536 -1.307,1.429 -2.485,2.679 -1.979,2.094 -3.432,3.922 -4.359,5.485 h 5.891 c 0.51,0 0.922,-0.032 1.234,-0.094 0.313,-0.063 0.563,-0.167 0.75,-0.313 0.188,-0.145 0.336,-0.336 0.445,-0.57 0.11,-0.234 0.248,-0.596 0.414,-1.086 h 1.329 l -0.266,4.563 h -12.859 v -0.75 c 0.448,-1.094 1.052,-2.214 1.812,-3.36 0.761,-1.146 1.839,-2.494 3.234,-4.047 1.209,-1.333 2.079,-2.343 2.61,-3.031 0.583,-0.75 1.018,-1.398 1.305,-1.945 0.286,-0.547 0.492,-1.063 0.617,-1.547 0.125,-0.484 0.187,-0.971 0.187,-1.461 0,-0.781 -0.125,-1.471 -0.375,-2.0703 -0.25,-0.5989 -0.633,-1.0703 -1.148,-1.414 -0.516,-0.3438 -1.164,-0.5157 -1.946,-0.5157 -1.947,0 -3.26,1.0834 -3.937,3.25 h -1.891 v -3 c 1.261,-0.5937 2.44,-1.0234 3.539,-1.289 1.099,-0.2656 2.086,-0.3985 2.961,-0.3985 z"
       fill-rule="evenodd"
       id="path245" />
    <text
       fill="#000000"
       fill-opacity="0"
       font-family="Arial, Arial_MSFontService, sans-serif"
       font-size="21.5781px"
       x="690.89502"
       y="115.051"
       id="text247">2</text>
    <path
       d="m 511.738,135.012 c -0.718,0 -1.32,0.214 -1.804,0.641 -0.485,0.427 -0.875,1.041 -1.172,1.843 -0.297,0.802 -0.508,1.779 -0.633,2.93 -0.125,1.151 -0.188,2.451 -0.188,3.898 0,3.396 0.316,5.889 0.946,7.477 0.63,1.589 1.607,2.383 2.929,2.383 1.261,0 2.196,-0.748 2.805,-2.242 0.609,-1.495 0.914,-3.81 0.914,-6.946 0,-2.395 -0.156,-4.336 -0.469,-5.82 -0.312,-1.484 -0.747,-2.549 -1.304,-3.195 -0.558,-0.646 -1.232,-0.969 -2.024,-0.969 z m 0.078,-1.328 c 2.282,0 3.98,0.88 5.094,2.64 1.115,1.761 1.672,4.422 1.672,7.985 0,3.687 -0.596,6.476 -1.789,8.367 -1.193,1.891 -2.935,2.836 -5.227,2.836 -2.25,0 -3.924,-0.885 -5.023,-2.656 -1.099,-1.771 -1.648,-4.459 -1.648,-8.063 0,-1.916 0.169,-3.573 0.507,-4.969 0.339,-1.395 0.813,-2.549 1.422,-3.46 0.61,-0.912 1.341,-1.586 2.196,-2.024 0.854,-0.437 1.786,-0.656 2.796,-0.656 z"
       fill-rule="evenodd"
       id="path249" />
    <text
       fill="#000000"
       fill-opacity="0"
       font-family="Arial, Arial_MSFontService, sans-serif"
       font-size="21.8281px"
       x="504.89499"
       y="152.783"
       id="text251">0</text>
    <path
       d="m 554.186,146.309 h 6.531 c 0.084,0 0.159,0.015 0.227,0.047 0.068,0.031 0.125,0.091 0.172,0.179 0.047,0.089 0.083,0.201 0.109,0.336 0.026,0.136 0.039,0.302 0.039,0.5 0,0.407 -0.047,0.688 -0.14,0.844 -0.094,0.156 -0.229,0.234 -0.407,0.234 h -6.531 c -0.187,0 -0.328,-0.08 -0.422,-0.242 -0.093,-0.161 -0.14,-0.44 -0.14,-0.836 0,-0.395 0.047,-0.672 0.14,-0.828 0.094,-0.156 0.235,-0.234 0.422,-0.234 z"
       fill-rule="evenodd"
       id="path253" />
    <text
       fill="#000000"
       fill-opacity="0"
       font-family="Arial, Arial_MSFontService, sans-serif"
       font-size="2.14062px"
       x="553.62402"
       y="148.18201"
       id="text255">-</text>
    <path
       d="m 571.363,133.684 c 1.938,0 3.401,0.424 4.391,1.273 0.99,0.849 1.484,2.081 1.484,3.696 0,0.552 -0.054,1.06 -0.164,1.523 -0.109,0.464 -0.281,0.922 -0.515,1.375 -0.235,0.453 -0.55,0.94 -0.946,1.461 -0.395,0.521 -0.833,1.049 -1.312,1.586 -0.479,0.536 -1.307,1.43 -2.485,2.68 -1.979,2.093 -3.432,3.921 -4.359,5.484 h 5.891 c 0.51,0 0.922,-0.031 1.234,-0.094 0.313,-0.062 0.563,-0.166 0.75,-0.312 0.188,-0.146 0.336,-0.336 0.445,-0.571 0.11,-0.234 0.248,-0.596 0.414,-1.086 h 1.329 l -0.266,4.563 h -12.859 v -0.75 c 0.448,-1.094 1.052,-2.214 1.812,-3.359 0.761,-1.146 1.839,-2.495 3.234,-4.047 1.209,-1.334 2.079,-2.344 2.61,-3.032 0.583,-0.75 1.018,-1.398 1.305,-1.945 0.286,-0.547 0.492,-1.062 0.617,-1.547 0.125,-0.484 0.187,-0.971 0.187,-1.461 0,-0.781 -0.125,-1.471 -0.375,-2.07 -0.25,-0.599 -0.633,-1.07 -1.148,-1.414 -0.516,-0.344 -1.164,-0.516 -1.946,-0.516 -1.947,0 -3.26,1.084 -3.937,3.25 h -1.891 v -3 c 1.261,-0.593 2.44,-1.023 3.539,-1.289 1.099,-0.265 2.086,-0.398 2.961,-0.398 z"
       fill-rule="evenodd"
       id="path257" />
    <text
       fill="#000000"
       fill-opacity="0"
       font-family="Arial, Arial_MSFontService, sans-serif"
       font-size="21.5781px"
       x="564.39502"
       y="152.565"
       id="text259">2</text>
    <path
       d="m 625.818,135.012 c -0.718,0 -1.32,0.214 -1.804,0.641 -0.485,0.427 -0.875,1.041 -1.172,1.843 -0.297,0.802 -0.508,1.779 -0.633,2.93 -0.125,1.151 -0.188,2.451 -0.188,3.898 0,3.396 0.316,5.889 0.946,7.477 0.63,1.589 1.607,2.383 2.929,2.383 1.261,0 2.196,-0.748 2.805,-2.242 0.61,-1.495 0.914,-3.81 0.914,-6.946 0,-2.395 -0.156,-4.336 -0.469,-5.82 -0.312,-1.484 -0.747,-2.549 -1.304,-3.195 -0.558,-0.646 -1.232,-0.969 -2.024,-0.969 z m 0.078,-1.328 c 2.282,0 3.98,0.88 5.094,2.64 1.115,1.761 1.672,4.422 1.672,7.985 0,3.687 -0.596,6.476 -1.789,8.367 -1.193,1.891 -2.935,2.836 -5.227,2.836 -2.25,0 -3.924,-0.885 -5.023,-2.656 -1.099,-1.771 -1.648,-4.459 -1.648,-8.063 0,-1.916 0.169,-3.573 0.507,-4.969 0.339,-1.395 0.813,-2.549 1.422,-3.46 0.61,-0.912 1.341,-1.586 2.196,-2.024 0.854,-0.437 1.786,-0.656 2.796,-0.656 z"
       fill-rule="evenodd"
       id="path261" />
    <text
       fill="#000000"
       fill-opacity="0"
       font-family="Arial, Arial_MSFontService, sans-serif"
       font-size="21.8281px"
       x="618.97498"
       y="152.783"
       id="text263">0</text>
    <path
       d="m 697.318,132.903 h 1.219 l -0.234,3.625 h -8.985 v 6.859 c 0.542,-0.229 1.131,-0.401 1.766,-0.516 0.635,-0.114 1.271,-0.172 1.906,-0.172 1.24,0 2.339,0.253 3.297,0.758 0.958,0.506 1.698,1.224 2.219,2.157 0.521,0.932 0.781,2.013 0.781,3.242 0,1.396 -0.292,2.593 -0.875,3.593 -0.583,1 -1.427,1.761 -2.531,2.282 -1.104,0.521 -2.412,0.781 -3.922,0.781 -1.802,0 -3.688,-0.37 -5.656,-1.109 v -3.313 h 1.89 c 0.313,1.063 0.784,1.844 1.414,2.344 0.631,0.5 1.446,0.75 2.446,0.75 1.385,0 2.432,-0.417 3.14,-1.25 0.709,-0.833 1.063,-2.078 1.063,-3.735 0,-1.104 -0.188,-2.018 -0.563,-2.742 -0.375,-0.724 -0.88,-1.247 -1.515,-1.57 -0.636,-0.323 -1.375,-0.484 -2.219,-0.484 -0.708,0 -1.318,0.044 -1.828,0.132 -0.511,0.089 -1.057,0.227 -1.641,0.414 l -1.25,-0.734 v -10.281 h 8.61 c 0.354,0 0.609,-0.029 0.765,-0.086 0.156,-0.057 0.281,-0.146 0.375,-0.266 0.094,-0.119 0.203,-0.346 0.328,-0.679 z"
       fill-rule="evenodd"
       id="path265" />
    <text
       fill="#000000"
       fill-opacity="0"
       font-family="Arial, Arial_MSFontService, sans-serif"
       font-size="22.6094px"
       x="686.30298"
       y="152.686"
       id="text267">5</text>
    <path
       d="m 511.738,172.525 c -0.718,0 -1.32,0.214 -1.804,0.641 -0.485,0.427 -0.875,1.042 -1.172,1.844 -0.297,0.802 -0.508,1.778 -0.633,2.929 -0.125,1.151 -0.188,2.451 -0.188,3.899 0,3.396 0.316,5.888 0.946,7.476 0.63,1.589 1.607,2.383 2.929,2.383 1.261,0 2.196,-0.747 2.805,-2.242 0.609,-1.495 0.914,-3.81 0.914,-6.945 0,-2.396 -0.156,-4.336 -0.469,-5.821 -0.312,-1.484 -0.747,-2.549 -1.304,-3.195 -0.558,-0.646 -1.232,-0.969 -2.024,-0.969 z m 0.078,-1.328 c 2.282,0 3.98,0.88 5.094,2.641 1.115,1.76 1.672,4.422 1.672,7.984 0,3.688 -0.596,6.477 -1.789,8.367 -1.193,1.891 -2.935,2.836 -5.227,2.836 -2.25,0 -3.924,-0.885 -5.023,-2.656 -1.099,-1.771 -1.648,-4.458 -1.648,-8.062 0,-1.917 0.169,-3.573 0.507,-4.969 0.339,-1.396 0.813,-2.55 1.422,-3.461 0.61,-0.912 1.341,-1.586 2.196,-2.024 0.854,-0.437 1.786,-0.656 2.796,-0.656 z"
       fill-rule="evenodd"
       id="path269" />
    <text
       fill="#000000"
       fill-opacity="0"
       font-family="Arial, Arial_MSFontService, sans-serif"
       font-size="21.8281px"
       x="504.89499"
       y="190.297"
       id="text271">0</text>
    <path
       d="m 562.738,172.525 c -0.718,0 -1.32,0.214 -1.804,0.641 -0.485,0.427 -0.875,1.042 -1.172,1.844 -0.297,0.802 -0.508,1.778 -0.633,2.929 -0.125,1.151 -0.188,2.451 -0.188,3.899 0,3.396 0.316,5.888 0.946,7.476 0.63,1.589 1.607,2.383 2.929,2.383 1.261,0 2.196,-0.747 2.805,-2.242 0.61,-1.495 0.914,-3.81 0.914,-6.945 0,-2.396 -0.156,-4.336 -0.469,-5.821 -0.312,-1.484 -0.747,-2.549 -1.304,-3.195 -0.558,-0.646 -1.232,-0.969 -2.024,-0.969 z m 0.078,-1.328 c 2.282,0 3.98,0.88 5.094,2.641 1.115,1.76 1.672,4.422 1.672,7.984 0,3.688 -0.596,6.477 -1.789,8.367 -1.193,1.891 -2.935,2.836 -5.227,2.836 -2.25,0 -3.924,-0.885 -5.023,-2.656 -1.099,-1.771 -1.648,-4.458 -1.648,-8.062 0,-1.917 0.169,-3.573 0.507,-4.969 0.339,-1.396 0.813,-2.55 1.422,-3.461 0.61,-0.912 1.341,-1.586 2.196,-2.024 0.854,-0.437 1.786,-0.656 2.796,-0.656 z"
       fill-rule="evenodd"
       id="path273" />
    <text
       fill="#000000"
       fill-opacity="0"
       font-family="Arial, Arial_MSFontService, sans-serif"
       font-size="21.8281px"
       x="555.89502"
       y="190.297"
       id="text275">0</text>
    <path
       d="m 619.584,171.447 h 13.406 v 0.75 l -9.094,20.688 h -2.265 v -0.766 l 8.422,-17.828 v -0.234 h -6.875 c -0.427,0 -0.769,0.039 -1.024,0.117 -0.255,0.078 -0.468,0.19 -0.64,0.336 -0.172,0.146 -0.315,0.338 -0.43,0.578 -0.115,0.239 -0.271,0.713 -0.469,1.422 h -1.344 z"
       fill-rule="evenodd"
       id="path277" />
    <text
       fill="#000000"
       fill-opacity="0"
       font-family="Arial, Arial_MSFontService, sans-serif"
       font-size="21.4375px"
       x="619.271"
       y="190.205"
       id="text279">7</text>
    <path
       d="m 699.436,174.869 -6.109,9.703 v 0.219 h 6.109 V 180.9 c 0,-0.979 0.016,-2.075 0.047,-3.289 0.031,-1.213 0.068,-2.127 0.109,-2.742 z m 0.453,-3.531 h 2.235 v 13.453 h 0.328 c 0.604,0 1.036,-0.044 1.297,-0.133 0.26,-0.088 0.476,-0.245 0.648,-0.469 0.172,-0.224 0.331,-0.591 0.477,-1.101 h 1.187 l -0.187,3.219 h -3.75 v 2.562 c 0,0.698 0.023,1.208 0.07,1.531 0.047,0.323 0.125,0.578 0.234,0.766 0.11,0.187 0.271,0.344 0.485,0.469 0.213,0.125 0.56,0.25 1.039,0.375 v 0.765 h -6.344 v -0.765 c 0.646,-0.167 1.078,-0.352 1.297,-0.555 0.219,-0.203 0.362,-0.492 0.43,-0.867 0.067,-0.375 0.101,-0.948 0.101,-1.719 v -2.562 h -8.687 v -1.172 z m -18.25,-0.141 h 0.86 c -0.063,1 -0.094,2.386 -0.094,4.156 v 13.344 c 0,0.604 0.034,1.06 0.102,1.367 0.067,0.308 0.187,0.558 0.359,0.75 0.172,0.193 0.419,0.344 0.742,0.454 0.323,0.109 0.729,0.192 1.219,0.25 0.489,0.057 1.135,0.096 1.937,0.117 v 1.14 h -11.547 v -1.14 c 1.157,-0.052 1.982,-0.123 2.477,-0.211 0.495,-0.089 0.872,-0.222 1.133,-0.399 0.26,-0.177 0.45,-0.427 0.57,-0.75 0.12,-0.323 0.18,-0.849 0.18,-1.578 v -12.672 c 0,-0.416 -0.073,-0.721 -0.219,-0.914 -0.146,-0.192 -0.359,-0.289 -0.641,-0.289 -0.333,0 -0.807,0.172 -1.421,0.516 -0.615,0.344 -1.375,0.818 -2.282,1.422 l -0.687,-1.203 z"
       fill-rule="evenodd"
       id="path281" />
    <text
       fill="#000000"
       fill-opacity="0"
       font-family="Arial, Arial_MSFontService, sans-serif"
       font-size="21.5781px"
       x="674.32703"
       y="190.078"
       id="text283">14</text>
    <path
       d="m 683.828,413.776 c 3.75,0 8.219,1.641 13.406,4.922 5.188,3.281 9.125,4.922 11.813,4.922 2.656,0 4.875,-0.703 6.656,-2.109 1.781,-1.407 3.578,-3.594 5.391,-6.563 l 3.75,2.531 c -1.344,2.782 -3.469,5.586 -6.375,8.414 -2.907,2.828 -6.438,4.243 -10.594,4.243 -4,0 -8.57,-1.641 -13.711,-4.922 -5.141,-3.282 -9.07,-4.922 -11.789,-4.922 -2.281,0 -4.281,0.719 -6,2.156 -1.719,1.438 -3.234,3.531 -4.547,6.281 l -3.656,-2.062 c 1.594,-3.688 3.703,-6.758 6.328,-9.211 2.625,-2.453 5.734,-3.68 9.328,-3.68 z"
       fill-rule="evenodd"
       id="path285" />
    <text
       fill="#000000"
       fill-opacity="0"
       font-family="Arial, Arial_MSFontService, sans-serif"
       font-size="16.3594px"
       x="668.172"
       y="428.091"
       id="text287">~</text>
    <path
       d="m 683.18,576.351 c 3.75,0 8.219,1.641 13.406,4.922 5.188,3.281 9.125,4.922 11.813,4.922 2.656,0 4.875,-0.703 6.656,-2.11 1.781,-1.406 3.578,-3.593 5.39,-6.562 l 3.75,2.531 c -1.343,2.781 -3.468,5.586 -6.375,8.414 -2.906,2.828 -6.437,4.242 -10.593,4.242 -4,0 -8.571,-1.64 -13.711,-4.922 -5.141,-3.281 -9.071,-4.921 -11.789,-4.921 -2.282,0 -4.282,0.718 -6,2.156 -1.719,1.437 -3.235,3.531 -4.547,6.281 l -3.656,-2.062 c 1.593,-3.688 3.703,-6.758 6.328,-9.211 2.625,-2.453 5.734,-3.68 9.328,-3.68 z"
       fill-rule="evenodd"
       id="path289" />
    <text
       fill="#000000"
       fill-opacity="0"
       font-family="Arial, Arial_MSFontService, sans-serif"
       font-size="16.3594px"
       x="667.52399"
       y="590.66498"
       id="text291">~</text>
    <path
       d="m 769,655 c -4.971,0 -9,-3.543 -9,-7.912 v -58.676 c 0,-4.369 -4.029,-7.912 -9,-7.912 4.971,0 9,-3.543 9,-7.912 v -58.676 c 0,-4.369 4.029,-7.912 9,-7.912"
       stroke="#000000"
       stroke-width="4"
       stroke-miterlimit="8"
       fill="none"
       fill-rule="evenodd"
       id="path293" />
    <text
       font-family="'Cambria Math', 'Cambria Math_MSFontService', sans-serif"
       font-weight="400"
       font-size="32px"
       transform="translate(782.507,535)"
       id="text305">ğ‘¥<tspan
   font-size="23px"
   x="15.9467"
   y="6"
   id="tspan295">1</tspan><tspan
   font-size="32px"
   x="30.7733"
   y="0"
   id="tspan297" /><tspan
   font-family="Calibri, Calibri_MSFontService, sans-serif"
   font-size="32px"
   x="121.773"
   y="0"
   id="tspan299">=</tspan><tspan
   font-size="23px"
   x="144.94"
   y="-19"
   id="tspan301">43</tspan><tspan
   font-size="23px"
   x="151.687"
   y="16"
   id="tspan303">2</tspan></text>
    <path
       d="m 927.507,524.573 h 27 v 2 h -27 z"
       fill-rule="evenodd"
       id="path307" />
    <text
       font-family="'Cambria Math', 'Cambria Math_MSFontService', sans-serif"
       font-weight="400"
       font-size="32px"
       transform="translate(823.181,595)"
       id="text321">ğ‘¥<tspan
   font-size="23px"
   x="16.6866"
   y="7"
   id="tspan309">2</tspan><tspan
   font-size="32px"
   x="31.5133"
   y="0"
   id="tspan311" /><tspan
   font-family="Calibri, Calibri_MSFontService, sans-serif"
   font-size="32px"
   x="80.513298"
   y="0"
   id="tspan313">=</tspan><tspan
   font-size="23px"
   x="103.68"
   y="-18"
   id="tspan315">âˆ’</tspan><tspan
   font-size="23px"
   x="120.68"
   y="-18"
   id="tspan317">5</tspan><tspan
   font-size="23px"
   x="112.18"
   y="17"
   id="tspan319">2</tspan></text>
    <path
       d="m 926.515,585.5 h 31 v 2 h -31 z"
       fill-rule="evenodd"
       id="path323" />
    <text
       font-family="'Cambria Math', 'Cambria Math_MSFontService', sans-serif"
       font-weight="400"
       font-size="32px"
       transform="translate(865.107,644)"
       id="text333">ğ‘¥<tspan
   font-size="23px"
   x="16.6866"
   y="7"
   id="tspan325">3</tspan><tspan
   font-size="32px"
   x="31.5133"
   y="0"
   id="tspan327" /><tspan
   font-family="Calibri, Calibri_MSFontService, sans-serif"
   font-size="32px"
   x="38.513302"
   y="0"
   id="tspan329">=</tspan><tspan
   font-family="Calibri, Calibri_MSFontService, sans-serif"
   font-size="32px"
   x="61.68"
   y="0"
   id="tspan331">2</tspan></text>
  </g>
</svg>
