<?xml version="1.0" encoding="UTF-8" standalone="no"?>
<svg
   width="1220"
   height="700"
   overflow="hidden"
   version="1.1"
   id="svg399"
   sodipodi:docname="linear_systems-vector_addition.svg"
   inkscape:version="1.2 (dc2aedaf03, 2022-05-15)"
   xmlns:inkscape="http://www.inkscape.org/namespaces/inkscape"
   xmlns:sodipodi="http://sodipodi.sourceforge.net/DTD/sodipodi-0.dtd"
   xmlns="http://www.w3.org/2000/svg"
   xmlns:svg="http://www.w3.org/2000/svg">
  <sodipodi:namedview
     id="namedview401"
     pagecolor="#ffffff"
     bordercolor="#000000"
     borderopacity="0.25"
     inkscape:showpageshadow="2"
     inkscape:pageopacity="0.0"
     inkscape:pagecheckerboard="0"
     inkscape:deskcolor="#d1d1d1"
     showgrid="false"
     inkscape:zoom="0.92709556"
     inkscape:cx="705.96822"
     inkscape:cy="432.53362"
     inkscape:window-width="2560"
     inkscape:window-height="1494"
     inkscape:window-x="-11"
     inkscape:window-y="-11"
     inkscape:window-maximized="1"
     inkscape:current-layer="svg399" />
  <defs
     id="defs5">
    <clipPath
       id="clip0">
      <rect
         x="0"
         y="0"
         width="1280"
         height="720"
         id="rect2" />
    </clipPath>
  </defs>
  <g
     clip-path="url(#clip0)"
     id="g397"
     transform="translate(2.157275,-10.786375)">
    <rect
       x="0"
       y="0"
       width="1280"
       height="720"
       fill="#ffffff"
       id="rect7" />
    <text
       font-family="Calibri, Calibri_MSFontService, sans-serif"
       font-weight="400"
       font-size="43px"
       transform="translate(473.034,86)"
       id="text9">Vector addition</text>
    <rect
       x="239"
       y="395"
       width="75"
       height="75"
       stroke="#ededed"
       stroke-width="4"
       stroke-miterlimit="8"
       fill="none"
       id="rect11" />
    <rect
       x="239"
       y="319"
       width="75"
       height="76"
       stroke="#ededed"
       stroke-width="4"
       stroke-miterlimit="8"
       fill="none"
       id="rect13" />
    <rect
       x="467"
       y="395"
       width="75"
       height="75"
       stroke="#ededed"
       stroke-width="4"
       stroke-miterlimit="8"
       fill="none"
       id="rect15" />
    <rect
       x="467"
       y="319"
       width="75"
       height="76"
       stroke="#ededed"
       stroke-width="4"
       stroke-miterlimit="8"
       fill="none"
       id="rect17" />
    <rect
       x="467"
       y="243"
       width="75"
       height="76"
       stroke="#ededed"
       stroke-width="4"
       stroke-miterlimit="8"
       fill="none"
       id="rect19" />
    <text
       fill="#ffffff"
       font-family="Calibri, Calibri_MSFontService, sans-serif"
       font-weight="400"
       font-size="24px"
       transform="translate(487.948,274)"
       id="text27">(<tspan
   font-size="24px"
   x="7.3333402"
   y="0"
   id="tspan21">-</tspan><tspan
   font-size="24px"
   x="14.6667"
   y="0"
   id="tspan23">2,</tspan><tspan
   font-size="24px"
   x="6.6666899"
   y="29"
   id="tspan25">1)</tspan></text>
    <rect
       x="467"
       y="168"
       width="75"
       height="75"
       stroke="#ededed"
       stroke-width="4"
       stroke-miterlimit="8"
       fill="none"
       id="rect29" />
    <rect
       x="88"
       y="395"
       width="76"
       height="75"
       stroke="#ededed"
       stroke-width="4"
       stroke-miterlimit="8"
       fill="none"
       id="rect31" />
    <rect
       x="88"
       y="319"
       width="76"
       height="76"
       stroke="#ededed"
       stroke-width="4"
       stroke-miterlimit="8"
       fill="none"
       id="rect33" />
    <rect
       x="88"
       y="168"
       width="76"
       height="75"
       stroke="#ededed"
       stroke-width="4"
       stroke-miterlimit="8"
       fill="none"
       id="rect35" />
    <rect
       x="163"
       y="395"
       width="76"
       height="75"
       stroke="#ededed"
       stroke-width="4"
       stroke-miterlimit="8"
       fill="none"
       id="rect37" />
    <rect
       x="163"
       y="319"
       width="76"
       height="76"
       stroke="#ededed"
       stroke-width="4"
       stroke-miterlimit="8"
       fill="none"
       id="rect39" />
    <rect
       x="239"
       y="243"
       width="75"
       height="76"
       stroke="#ededed"
       stroke-width="4"
       stroke-miterlimit="8"
       fill="none"
       id="rect41" />
    <rect
       x="239"
       y="168"
       width="75"
       height="75"
       stroke="#ededed"
       stroke-width="4"
       stroke-miterlimit="8"
       fill="none"
       id="rect43" />
    <rect
       x="163"
       y="168"
       width="76"
       height="75"
       stroke="#ededed"
       stroke-width="4"
       stroke-miterlimit="8"
       fill="none"
       id="rect45" />
    <rect
       x="315"
       y="395"
       width="76"
       height="75"
       stroke="#ededed"
       stroke-width="4"
       stroke-miterlimit="8"
       fill="none"
       id="rect47" />
    <rect
       x="315"
       y="319"
       width="76"
       height="76"
       stroke="#ededed"
       stroke-width="4"
       stroke-miterlimit="8"
       fill="none"
       id="rect49" />
    <rect
       x="390"
       y="395"
       width="76"
       height="75"
       stroke="#ededed"
       stroke-width="4"
       stroke-miterlimit="8"
       fill="none"
       id="rect51" />
    <rect
       x="390"
       y="319"
       width="76"
       height="76"
       stroke="#ededed"
       stroke-width="4"
       stroke-miterlimit="8"
       fill="none"
       id="rect53" />
    <rect
       x="390"
       y="243"
       width="76"
       height="76"
       stroke="#ededed"
       stroke-width="4"
       stroke-miterlimit="8"
       fill="none"
       id="rect55" />
    <rect
       x="390"
       y="168"
       width="76"
       height="75"
       stroke="#ededed"
       stroke-width="4"
       stroke-miterlimit="8"
       fill="none"
       id="rect57" />
    <rect
       x="315"
       y="243"
       width="75"
       height="76"
       stroke="#ededed"
       stroke-width="4"
       stroke-miterlimit="8"
       fill="none"
       id="rect59" />
    <rect
       x="315"
       y="168"
       width="75"
       height="75"
       stroke="#ededed"
       stroke-width="4"
       stroke-miterlimit="8"
       fill="none"
       id="rect61" />
    <path
       d="M 314.79,470.362 313,168"
       stroke="#000000"
       stroke-width="4"
       stroke-miterlimit="8"
       stroke-dasharray="12, 4"
       fill="none"
       fill-rule="evenodd"
       id="path63" />
    <rect
       x="88"
       y="243"
       width="76"
       height="76"
       stroke="#ededed"
       stroke-width="4"
       stroke-miterlimit="8"
       fill="none"
       id="rect65" />
    <rect
       x="163"
       y="243"
       width="76"
       height="76"
       stroke="#ededed"
       stroke-width="4"
       stroke-miterlimit="8"
       fill="none"
       id="rect67" />
    <path
       d="m 88,392 454.032,2.771"
       stroke="#000000"
       stroke-width="4"
       stroke-miterlimit="8"
       stroke-dasharray="12, 4"
       fill="none"
       fill-rule="evenodd"
       id="path69" />
    <path
       d="M 1.39769,-1.43055 149.063,142.843 146.268,145.704 -1.39769,1.43055 Z M 145.903,130.35 l 4.602,16.698 -16.801,-4.213 c -1.071,-0.269 -1.722,-1.355 -1.453,-2.427 0.269,-1.071 1.355,-1.722 2.426,-1.453 l 13.475,3.379 -2.414,2.471 -3.692,-13.393 c -0.293,-1.064 0.332,-2.166 1.397,-2.459 1.065,-0.294 2.166,0.332 2.46,1.397 z"
       fill="#44546a"
       transform="matrix(1,0,0,-1,316,391.041)"
       id="path71" />
    <text
       font-family="Calibri, Calibri_MSFontService, sans-serif"
       font-weight="400"
       font-size="32px"
       transform="translate(162.248,306)"
       id="text77">(<tspan
   font-size="32px"
   x="9.6666603"
   y="0"
   id="tspan73">-</tspan><tspan
   font-size="32px"
   x="19.5"
   y="0"
   id="tspan75">1, 1)</tspan></text>
    <path
       d="m 311.956,391.656 -71.509,-69.462 2.787,-2.869 71.509,69.461 z m -68.312,-56.978 -4.651,-16.684 16.813,4.164 c 1.072,0.266 1.726,1.35 1.461,2.422 -0.266,1.072 -1.35,1.726 -2.422,1.461 l -13.485,-3.34 2.407,-2.479 3.73,13.382 c 0.297,1.064 -0.325,2.167 -1.389,2.464 -1.064,0.297 -2.167,-0.326 -2.464,-1.39 z"
       fill="#44546a"
       id="path79" />
    <text
       font-family="Calibri, Calibri_MSFontService, sans-serif"
       font-weight="400"
       font-size="32px"
       transform="translate(433.417,232)"
       id="text85">(2, <tspan
   font-size="32px"
   x="41"
   y="0"
   id="tspan81">2</tspan><tspan
   font-size="32px"
   x="57.166698"
   y="0"
   id="tspan83">)</tspan></text>
    <path
       d="m 384.5,168 c 0,-4.142 3.358,-7.5 7.5,-7.5 4.142,0 7.5,3.358 7.5,7.5 0,4.142 -3.358,7.5 -7.5,7.5 -4.142,0 -7.5,-3.358 -7.5,-7.5 z"
       stroke="#000000"
       stroke-width="3"
       stroke-miterlimit="8"
       fill="#44546a"
       fill-rule="evenodd"
       id="path87" />
    <text
       fill="#c00000"
       font-family="Calibri, Calibri_MSFontService, sans-serif"
       font-weight="400"
       font-size="32px"
       transform="translate(357.936,149)"
       id="text93">(1, <tspan
   font-size="32px"
   x="41"
   y="0"
   id="tspan89">3</tspan><tspan
   font-size="32px"
   x="57.166698"
   y="0"
   id="tspan91">)</tspan></text>
    <path
       d="M 1.39185,-1.43623 10.0092,6.91488 7.22552,9.78733 -1.39185,1.43623 Z M 12.8817,9.69858 21.499,18.0497 18.7153,20.9221 10.098,12.571 Z m 11.4898,11.13482 8.6174,8.3511 -2.7837,2.8724 -8.6174,-8.3511 z m 11.4898,11.1348 8.6174,8.3511 -2.7837,2.8725 -8.6174,-8.3511 z m 11.4898,11.1348 8.6174,8.3511 -2.7837,2.8725 -8.6174,-8.3511 z m 11.4899,11.1348 8.6173,8.3511 -2.7837,2.8725 -8.6173,-8.3511 z m 11.4898,11.1348 8.6174,8.3511 -2.7837,2.8725 -8.6174,-8.3511 z m 11.4898,11.1348 8.6174,8.3511 -2.7837,2.8725 -8.6174,-8.3511 z m 11.4898,11.1348 8.6176,8.3511 -2.7839,2.8725 -8.6174,-8.3511 z m 11.4896,11.1349 8.618,8.3509 -2.784,2.873 -8.617,-8.351 z m 11.49,11.1349 8.617,8.351 -2.783,2.872 -8.618,-8.351 z m 11.49,11.135 8.617,8.351 -2.783,2.872 -8.618,-8.351 z m 11.49,11.134 8.617,8.352 -2.784,2.872 -8.617,-8.351 z m 11.49,11.135 3.457,3.351 -2.783,2.873 -3.458,-3.351 z m 0.245,-9.131 4.67,16.68 -16.818,-4.145 c -1.072,-0.264 -1.727,-1.348 -1.463,-2.42 0.264,-1.073 1.348,-1.728 2.42,-1.464 l 13.489,3.325 -2.404,2.481 -3.746,-13.378 c -0.298,-1.064 0.323,-2.167 1.386,-2.465 1.064,-0.298 2.168,0.323 2.466,1.386 z"
       fill="#c00000"
       transform="matrix(1,0,0,-1,239,318.858)"
       id="path95" />
    <path
       d="m 102.775,589.011 c 0.666,0 1.192,0.224 1.578,0.671 0.385,0.448 0.578,1.053 0.578,1.813 0,0.823 -0.162,1.849 -0.485,3.078 l -0.687,2.703 c -0.177,0.688 -0.305,1.224 -0.383,1.61 -0.078,0.385 -0.135,0.718 -0.172,1 -0.036,0.281 -0.054,0.515 -0.054,0.703 0,0.718 0.119,1.237 0.359,1.554 0.239,0.318 0.63,0.477 1.172,0.477 0.437,0 0.909,-0.175 1.414,-0.523 0.505,-0.349 1.042,-0.875 1.609,-1.579 0.568,-0.703 1.024,-1.385 1.367,-2.046 0.344,-0.662 0.625,-1.477 0.844,-2.446 l 1.485,-6.765 h 2.703 l -2.282,9.906 c -0.229,1 -0.343,1.771 -0.343,2.312 0,0.417 0.067,0.719 0.203,0.907 0.135,0.187 0.349,0.281 0.64,0.281 0.313,0 0.646,-0.128 1,-0.383 0.355,-0.255 0.855,-0.742 1.5,-1.461 l 0.891,0.875 c -0.948,1.011 -1.755,1.724 -2.422,2.141 -0.667,0.416 -1.375,0.625 -2.125,0.625 -0.646,0 -1.161,-0.214 -1.547,-0.641 -0.385,-0.427 -0.578,-0.995 -0.578,-1.703 0,-0.563 0.125,-1.177 0.375,-1.844 l -0.187,-0.062 c -1.032,1.448 -2.008,2.515 -2.93,3.203 -0.922,0.687 -1.867,1.031 -2.836,1.031 -0.969,0 -1.714,-0.279 -2.234,-0.836 -0.521,-0.557 -0.782,-1.331 -0.782,-2.32 0,-0.656 0.151,-1.589 0.454,-2.797 l 1.015,-4.094 c 0.281,-1.135 0.422,-1.937 0.422,-2.406 0,-0.417 -0.068,-0.719 -0.203,-0.906 -0.136,-0.188 -0.349,-0.282 -0.641,-0.282 -0.323,0 -0.664,0.133 -1.023,0.399 -0.36,0.266 -0.8517,0.747 -1.4767,1.445 l -0.8906,-0.875 c 0.8854,-0.896 1.552,-1.51 2.0003,-1.844 0.448,-0.333 0.877,-0.57 1.289,-0.71 0.411,-0.141 0.872,-0.211 1.383,-0.211 z"
       fill-rule="evenodd"
       id="path97" />
    <text
       fill="#000000"
       fill-opacity="0"
       font-family="Arial, Arial_MSFontService, sans-serif"
       font-size="15.4531px"
       x="98.102699"
       y="602.53198"
       id="text99">­ЮЉб</text>
    <path
       d="m 112.134,579.026 3.922,3.391 v 0.906 l -3.922,3.391 -0.828,-0.938 2.5,-2.172 h -5.023 -4.509 -4.8663 v -1.468 h 4.8663 4.509 5.023 l -2.5,-2.172 z"
       fill-rule="evenodd"
       id="path101" />
    <path
       d="m 134.718,585.026 h 2.219 v 9 h 8.515 v 2.078 h -8.515 v 9 h -2.219 v -9 h -8.516 v -2.078 h 8.516 z"
       fill-rule="evenodd"
       id="path103" />
    <text
       fill="#000000"
       fill-opacity="0"
       font-family="Arial, Arial_MSFontService, sans-serif"
       font-size="20.0781px"
       x="126.202"
       y="602.59497"
       id="text105">+</text>
    <path
       d="m 169.505,588.948 c 0.75,0 1.291,0.195 1.625,0.586 0.333,0.391 0.5,0.914 0.5,1.57 0,0.5 -0.089,1.073 -0.266,1.719 -0.177,0.646 -0.427,1.328 -0.75,2.047 -0.323,0.719 -0.708,1.456 -1.156,2.211 -0.448,0.755 -0.943,1.489 -1.485,2.203 -0.541,0.714 -1.119,1.385 -1.734,2.016 -0.615,0.63 -1.253,1.179 -1.914,1.648 -0.662,0.469 -1.333,0.841 -2.016,1.117 -0.682,0.276 -1.362,0.414 -2.039,0.414 -0.302,0 -0.555,-0.075 -0.758,-0.226 -0.203,-0.151 -0.367,-0.365 -0.492,-0.641 -0.125,-0.276 -0.213,-0.601 -0.265,-0.976 -0.053,-0.375 -0.079,-0.787 -0.079,-1.235 0,-0.594 0.037,-1.229 0.11,-1.906 0.073,-0.677 0.166,-1.359 0.281,-2.047 l 0.656,-4.328 c 0.042,-0.25 0.076,-0.487 0.102,-0.711 0.026,-0.224 0.039,-0.388 0.039,-0.492 0,-0.323 -0.052,-0.589 -0.156,-0.797 -0.104,-0.208 -0.282,-0.313 -0.532,-0.313 -0.197,0 -0.411,0.06 -0.64,0.18 -0.229,0.12 -0.461,0.274 -0.696,0.461 -0.234,0.188 -0.46,0.388 -0.679,0.602 -0.219,0.213 -0.422,0.414 -0.61,0.601 l -0.75,-0.875 c 0.323,-0.333 0.667,-0.664 1.032,-0.992 0.364,-0.328 0.75,-0.625 1.156,-0.891 0.406,-0.265 0.833,-0.479 1.281,-0.64 0.448,-0.162 0.906,-0.242 1.375,-0.242 0.396,0 0.719,0.065 0.969,0.195 0.25,0.13 0.445,0.302 0.586,0.516 0.14,0.213 0.237,0.447 0.289,0.703 0.052,0.255 0.078,0.507 0.078,0.757 0,0.146 -0.005,0.287 -0.016,0.422 -0.01,0.136 -0.026,0.261 -0.046,0.375 l -0.875,5.657 c -0.094,0.593 -0.172,1.174 -0.235,1.742 -0.062,0.567 -0.094,1.07 -0.094,1.508 0,0.437 0.026,0.791 0.079,1.062 0.052,0.271 0.151,0.406 0.296,0.406 0.344,0 0.776,-0.138 1.297,-0.414 0.521,-0.276 1.068,-0.656 1.641,-1.14 0.573,-0.485 1.146,-1.058 1.719,-1.719 0.573,-0.662 1.088,-1.378 1.547,-2.149 0.458,-0.77 0.83,-1.583 1.117,-2.437 0.286,-0.854 0.429,-1.714 0.429,-2.578 0,-0.375 -0.08,-0.664 -0.242,-0.867 -0.161,-0.203 -0.414,-0.305 -0.758,-0.305 -0.437,0 -0.841,0.169 -1.211,0.508 -0.369,0.338 -0.752,0.784 -1.148,1.336 l -0.891,-0.797 c 0.25,-0.375 0.545,-0.735 0.883,-1.078 0.339,-0.344 0.698,-0.646 1.078,-0.907 0.381,-0.26 0.774,-0.468 1.18,-0.625 0.406,-0.156 0.802,-0.234 1.188,-0.234 z"
       fill-rule="evenodd"
       id="path107" />
    <text
       fill="#000000"
       fill-opacity="0"
       font-family="Arial, Arial_MSFontService, sans-serif"
       font-size="15.5312px"
       x="155.80099"
       y="602.53802"
       id="text109">­ЮЉБ</text>
    <path
       d="m 168.007,579.013 3.922,3.391 v 0.906 l -3.922,3.39 -0.828,-0.937 2.5,-2.172 h -9.531 v -1.469 h 9.531 l -2.5,-2.172 z"
       fill-rule="evenodd"
       id="path111" />
    <text
       fill="#000000"
       fill-opacity="0"
       font-family="Arial, Arial_MSFontService, sans-serif"
       font-size="7.6875px"
       x="160.14799"
       y="585.73999"
       id="text113">нд</text>
    <path
       d="m 182.028,597.136 h 11.812 c 0.188,0 0.334,0.088 0.438,0.265 0.104,0.177 0.156,0.459 0.156,0.844 0,0.417 -0.06,0.703 -0.18,0.859 -0.119,0.157 -0.257,0.235 -0.414,0.235 h -11.812 c -0.156,0 -0.292,-0.078 -0.406,-0.235 -0.115,-0.156 -0.172,-0.442 -0.172,-0.859 0,-0.385 0.052,-0.667 0.156,-0.844 0.104,-0.177 0.245,-0.265 0.422,-0.265 z m 0,-6.063 h 11.812 c 0.188,0 0.334,0.089 0.438,0.266 0.104,0.177 0.156,0.453 0.156,0.828 0,0.417 -0.06,0.706 -0.18,0.867 -0.119,0.161 -0.257,0.242 -0.414,0.242 h -11.812 c -0.156,0 -0.292,-0.081 -0.406,-0.242 -0.115,-0.161 -0.172,-0.45 -0.172,-0.867 0,-0.375 0.052,-0.651 0.156,-0.828 0.104,-0.177 0.245,-0.266 0.422,-0.266 z"
       fill-rule="evenodd"
       id="path115" />
    <text
       fill="#000000"
       fill-opacity="0"
       font-family="Arial, Arial_MSFontService, sans-serif"
       font-size="8.26562px"
       x="181.45"
       y="598.30603"
       id="text117">=</text>
    <path
       d="m 259.217,526.689 h 9.219 V 663.47 h -9.219 v -1.781 h 5.782 V 528.47 h -5.782 z m -47.34,0 h 9.219 v 1.781 h -5.782 v 133.219 h 5.782 v 1.781 h -9.219 z"
       fill-rule="evenodd"
       id="path119" />
    <path
       d="m 230.121,531.077 c 0.667,0 1.193,0.224 1.578,0.672 0.386,0.448 0.578,1.052 0.578,1.813 0,0.823 -0.161,1.849 -0.484,3.078 l -0.687,2.703 c -0.177,0.687 -0.305,1.224 -0.383,1.609 -0.078,0.386 -0.136,0.719 -0.172,1 -0.037,0.282 -0.055,0.516 -0.055,0.703 0,0.719 0.12,1.237 0.36,1.555 0.239,0.318 0.63,0.477 1.171,0.477 0.438,0 0.909,-0.175 1.415,-0.524 0.505,-0.349 1.041,-0.875 1.609,-1.578 0.568,-0.703 1.023,-1.385 1.367,-2.047 0.344,-0.661 0.625,-1.476 0.844,-2.445 l 1.484,-6.766 h 2.703 l -2.281,9.907 c -0.229,1 -0.344,1.77 -0.344,2.312 0,0.417 0.068,0.719 0.203,0.906 0.136,0.188 0.349,0.282 0.641,0.282 0.313,0 0.646,-0.128 1,-0.383 0.354,-0.255 0.854,-0.742 1.5,-1.461 l 0.891,0.875 c -0.948,1.01 -1.755,1.724 -2.422,2.14 -0.667,0.417 -1.375,0.625 -2.125,0.625 -0.646,0 -1.162,-0.213 -1.547,-0.64 -0.385,-0.427 -0.578,-0.995 -0.578,-1.703 0,-0.563 0.125,-1.177 0.375,-1.844 l -0.188,-0.063 c -1.031,1.448 -2.007,2.516 -2.929,3.204 -0.922,0.687 -1.868,1.031 -2.836,1.031 -0.969,0 -1.714,-0.279 -2.235,-0.836 -0.52,-0.557 -0.781,-1.331 -0.781,-2.32 0,-0.657 0.151,-1.589 0.453,-2.797 l 1.016,-4.094 c 0.281,-1.136 0.422,-1.938 0.422,-2.406 0,-0.417 -0.068,-0.719 -0.203,-0.907 -0.136,-0.187 -0.349,-0.281 -0.641,-0.281 -0.323,0 -0.664,0.133 -1.023,0.399 -0.36,0.265 -0.852,0.747 -1.477,1.445 l -0.891,-0.875 c 0.886,-0.896 1.552,-1.511 2,-1.844 0.448,-0.333 0.878,-0.57 1.289,-0.711 0.412,-0.14 0.873,-0.211 1.383,-0.211 z"
       fill-rule="evenodd"
       id="path121" />
    <text
       fill="#000000"
       fill-opacity="0"
       font-family="Arial, Arial_MSFontService, sans-serif"
       font-size="15.4531px"
       x="225.44901"
       y="544.599"
       id="text123">­ЮЉб</text>
    <path
       d="m 250.032,539.12 h 0.564 c -0.041,0.656 -0.062,1.565 -0.062,2.727 v 8.757 c 0,0.397 0.022,0.696 0.067,0.897 0.044,0.202 0.123,0.366 0.236,0.493 0.112,0.126 0.275,0.225 0.487,0.297 0.212,0.072 0.478,0.126 0.799,0.164 0.322,0.038 0.746,0.063 1.272,0.077 v 0.748 h -7.578 v -0.748 c 0.759,-0.034 1.301,-0.08 1.626,-0.139 0.324,-0.058 0.572,-0.145 0.743,-0.261 0.171,-0.116 0.296,-0.28 0.374,-0.492 0.079,-0.212 0.118,-0.557 0.118,-1.036 v -8.316 c 0,-0.273 -0.048,-0.473 -0.143,-0.6 -0.096,-0.126 -0.236,-0.189 -0.421,-0.189 -0.219,0 -0.53,0.112 -0.933,0.338 -0.403,0.226 -0.902,0.537 -1.497,0.933 l -0.451,-0.789 z"
       fill-rule="evenodd"
       id="path125" />
    <text
       fill="#000000"
       fill-opacity="0"
       font-family="Arial, Arial_MSFontService, sans-serif"
       font-size="14.1606px"
       x="245.233"
       y="551.51001"
       id="text127">1</text>
    <path
       d="m 230.121,568.591 c 0.667,0 1.193,0.224 1.578,0.672 0.386,0.447 0.578,1.052 0.578,1.812 0,0.823 -0.161,1.849 -0.484,3.078 l -0.687,2.703 c -0.177,0.688 -0.305,1.224 -0.383,1.61 -0.078,0.385 -0.136,0.718 -0.172,1 -0.037,0.281 -0.055,0.515 -0.055,0.703 0,0.719 0.12,1.237 0.36,1.554 0.239,0.318 0.63,0.477 1.171,0.477 0.438,0 0.909,-0.174 1.415,-0.523 0.505,-0.349 1.041,-0.875 1.609,-1.579 0.568,-0.703 1.023,-1.385 1.367,-2.046 0.344,-0.662 0.625,-1.477 0.844,-2.446 l 1.484,-6.765 h 2.703 l -2.281,9.906 c -0.229,1 -0.344,1.771 -0.344,2.312 0,0.417 0.068,0.719 0.203,0.907 0.136,0.187 0.349,0.281 0.641,0.281 0.313,0 0.646,-0.128 1,-0.383 0.354,-0.255 0.854,-0.742 1.5,-1.461 l 0.891,0.875 c -0.948,1.011 -1.755,1.724 -2.422,2.141 -0.667,0.416 -1.375,0.625 -2.125,0.625 -0.646,0 -1.162,-0.214 -1.547,-0.641 -0.385,-0.427 -0.578,-0.995 -0.578,-1.703 0,-0.562 0.125,-1.177 0.375,-1.844 l -0.188,-0.062 c -1.031,1.448 -2.007,2.515 -2.929,3.203 -0.922,0.687 -1.868,1.031 -2.836,1.031 -0.969,0 -1.714,-0.278 -2.235,-0.836 -0.52,-0.557 -0.781,-1.331 -0.781,-2.32 0,-0.656 0.151,-1.589 0.453,-2.797 l 1.016,-4.094 c 0.281,-1.135 0.422,-1.937 0.422,-2.406 0,-0.417 -0.068,-0.719 -0.203,-0.906 -0.136,-0.188 -0.349,-0.281 -0.641,-0.281 -0.323,0 -0.664,0.132 -1.023,0.398 -0.36,0.266 -0.852,0.747 -1.477,1.445 l -0.891,-0.875 c 0.886,-0.896 1.552,-1.51 2,-1.843 0.448,-0.334 0.878,-0.571 1.289,-0.711 0.412,-0.141 0.873,-0.211 1.383,-0.211 z"
       fill-rule="evenodd"
       id="path129" />
    <text
       fill="#000000"
       fill-opacity="0"
       font-family="Arial, Arial_MSFontService, sans-serif"
       font-size="15.4531px"
       x="225.44901"
       y="582.112"
       id="text131">­ЮЉб</text>
    <path
       d="m 249.304,576.633 c 1.271,0 2.232,0.279 2.881,0.836 0.649,0.557 0.974,1.365 0.974,2.425 0,0.362 -0.036,0.695 -0.108,1 -0.071,0.304 -0.184,0.605 -0.338,0.902 -0.154,0.297 -0.361,0.617 -0.62,0.959 -0.26,0.341 -0.547,0.688 -0.862,1.04 -0.314,0.353 -0.858,0.939 -1.63,1.759 -1.299,1.374 -2.252,2.574 -2.861,3.599 h 3.866 c 0.335,0 0.605,-0.02 0.81,-0.061 0.205,-0.041 0.369,-0.11 0.492,-0.205 0.123,-0.096 0.221,-0.221 0.292,-0.375 0.072,-0.154 0.163,-0.391 0.272,-0.712 h 0.872 l -0.175,2.994 h -8.439 v -0.492 c 0.294,-0.718 0.691,-1.453 1.19,-2.205 0.499,-0.752 1.206,-1.637 2.122,-2.656 0.793,-0.875 1.364,-1.538 1.713,-1.989 0.383,-0.492 0.668,-0.918 0.856,-1.277 0.188,-0.359 0.323,-0.697 0.405,-1.015 0.082,-0.318 0.123,-0.637 0.123,-0.959 0,-0.512 -0.082,-0.965 -0.246,-1.358 -0.164,-0.393 -0.415,-0.703 -0.754,-0.928 -0.338,-0.226 -0.764,-0.339 -1.276,-0.339 -1.279,0 -2.14,0.711 -2.584,2.133 h -1.241 v -1.968 c 0.827,-0.39 1.601,-0.672 2.323,-0.846 0.721,-0.175 1.368,-0.262 1.943,-0.262 z"
       fill-rule="evenodd"
       id="path133" />
    <text
       fill="#000000"
       fill-opacity="0"
       font-family="Arial, Arial_MSFontService, sans-serif"
       font-size="14.1606px"
       x="244.73"
       y="589.02399"
       id="text135">2</text>
    <path
       d="m 240.123,617.526 c 0.542,0 0.995,0.19 1.359,0.57 0.365,0.38 0.547,0.862 0.547,1.445 0,0.584 -0.182,1.066 -0.547,1.446 -0.364,0.38 -0.817,0.57 -1.359,0.57 -0.542,0 -0.995,-0.19 -1.359,-0.57 -0.365,-0.38 -0.547,-0.862 -0.547,-1.446 0,-0.583 0.182,-1.065 0.547,-1.445 0.364,-0.38 0.817,-0.57 1.359,-0.57 z m 0,-8.313 c 0.542,0 0.995,0.19 1.359,0.571 0.365,0.38 0.547,0.862 0.547,1.445 0,0.583 -0.182,1.065 -0.547,1.445 -0.364,0.38 -0.817,0.571 -1.359,0.571 -0.542,0 -0.995,-0.191 -1.359,-0.571 -0.365,-0.38 -0.547,-0.862 -0.547,-1.445 0,-0.583 0.182,-1.065 0.547,-1.445 0.364,-0.381 0.817,-0.571 1.359,-0.571 z m 0,-8.312 c 0.542,0 0.995,0.19 1.359,0.57 0.365,0.38 0.547,0.862 0.547,1.445 0,0.584 -0.182,1.066 -0.547,1.446 -0.364,0.38 -0.817,0.57 -1.359,0.57 -0.542,0 -0.995,-0.19 -1.359,-0.57 -0.365,-0.38 -0.547,-0.862 -0.547,-1.446 0,-0.583 0.182,-1.065 0.547,-1.445 0.364,-0.38 0.817,-0.57 1.359,-0.57 z"
       fill-rule="evenodd"
       id="path137" />
    <text
       fill="#000000"
       fill-opacity="0"
       font-family="Arial, Arial_MSFontService, sans-serif"
       font-size="20.6562px"
       x="238.217"
       y="618.97498"
       id="text139">РІ«</text>
    <path
       d="m 226.848,643.617 c 0.667,0 1.193,0.224 1.578,0.672 0.385,0.448 0.578,1.052 0.578,1.813 0,0.823 -0.161,1.849 -0.484,3.078 l -0.688,2.703 c -0.177,0.687 -0.304,1.224 -0.383,1.609 -0.078,0.386 -0.135,0.719 -0.171,1 -0.037,0.282 -0.055,0.516 -0.055,0.703 0,0.719 0.12,1.237 0.359,1.555 0.24,0.318 0.63,0.477 1.172,0.477 0.438,0 0.909,-0.175 1.414,-0.524 0.505,-0.349 1.042,-0.875 1.61,-1.578 0.567,-0.703 1.023,-1.385 1.367,-2.047 0.343,-0.661 0.625,-1.476 0.843,-2.445 l 1.485,-6.766 h 2.703 l -2.281,9.907 c -0.229,1 -0.344,1.77 -0.344,2.312 0,0.417 0.068,0.719 0.203,0.906 0.136,0.188 0.349,0.282 0.641,0.282 0.312,0 0.646,-0.128 1,-0.383 0.354,-0.255 0.854,-0.742 1.5,-1.461 l 0.89,0.875 c -0.948,1.01 -1.755,1.724 -2.422,2.14 -0.666,0.417 -1.375,0.625 -2.125,0.625 -0.645,0 -1.161,-0.213 -1.546,-0.64 -0.386,-0.427 -0.579,-0.995 -0.579,-1.703 0,-0.563 0.125,-1.177 0.375,-1.844 l -0.187,-0.063 c -1.031,1.448 -2.008,2.516 -2.93,3.204 -0.922,0.687 -1.867,1.031 -2.836,1.031 -0.968,0 -1.713,-0.279 -2.234,-0.836 -0.521,-0.557 -0.781,-1.331 -0.781,-2.32 0,-0.657 0.151,-1.589 0.453,-2.797 l 1.015,-4.094 c 0.282,-1.136 0.422,-1.938 0.422,-2.406 0,-0.417 -0.067,-0.719 -0.203,-0.907 -0.135,-0.187 -0.349,-0.281 -0.64,-0.281 -0.323,0 -0.664,0.133 -1.024,0.399 -0.359,0.265 -0.851,0.747 -1.476,1.445 l -0.891,-0.875 c 0.885,-0.896 1.552,-1.511 2,-1.844 0.448,-0.333 0.878,-0.57 1.289,-0.711 0.412,-0.14 0.872,-0.211 1.383,-0.211 z"
       fill-rule="evenodd"
       id="path141" />
    <text
       fill="#000000"
       fill-opacity="0"
       font-family="Arial, Arial_MSFontService, sans-serif"
       font-size="15.4531px"
       x="222.17599"
       y="657.13898"
       id="text143">­ЮЉб</text>
    <path
       d="m 243.364,655.843 c 0.431,0 0.771,0.142 1.021,0.426 0.249,0.284 0.374,0.654 0.374,1.112 0,0.376 -0.079,0.776 -0.236,1.2 l 0.123,0.041 c 0.629,-0.936 1.254,-1.632 1.877,-2.086 0.622,-0.455 1.25,-0.682 1.886,-0.682 0.656,0 1.156,0.186 1.497,0.558 0.342,0.373 0.513,0.911 0.513,1.615 v 0.144 c 0,0.048 -0.003,0.099 -0.01,0.154 0.588,-0.834 1.174,-1.455 1.758,-1.861 0.585,-0.407 1.191,-0.61 1.82,-0.61 0.629,0 1.115,0.181 1.456,0.543 0.342,0.362 0.513,0.872 0.513,1.528 0,0.431 -0.099,1.042 -0.297,1.835 l -0.667,2.687 c -0.184,0.745 -0.277,1.271 -0.277,1.579 0,0.273 0.045,0.472 0.134,0.595 0.089,0.123 0.229,0.184 0.42,0.184 0.205,0 0.424,-0.083 0.656,-0.251 0.233,-0.167 0.561,-0.487 0.985,-0.959 l 0.584,0.575 c -0.588,0.622 -1.1,1.08 -1.538,1.374 -0.437,0.294 -0.936,0.44 -1.497,0.44 -0.444,0 -0.8,-0.158 -1.066,-0.476 -0.267,-0.318 -0.4,-0.723 -0.4,-1.215 0,-0.445 0.113,-1.098 0.338,-1.959 l 0.451,-1.774 c 0.164,-0.642 0.272,-1.117 0.323,-1.425 0.052,-0.308 0.077,-0.557 0.077,-0.749 0,-0.471 -0.078,-0.811 -0.236,-1.02 -0.157,-0.208 -0.413,-0.313 -0.769,-0.313 -0.287,0 -0.594,0.108 -0.923,0.323 -0.328,0.216 -0.673,0.551 -1.035,1.005 -0.362,0.455 -0.658,0.903 -0.887,1.343 -0.229,0.441 -0.412,0.98 -0.549,1.615 l -0.933,4.481 h -1.774 l 1.179,-5.209 c 0.144,-0.635 0.241,-1.105 0.293,-1.409 0.051,-0.305 0.077,-0.566 0.077,-0.785 0,-0.492 -0.088,-0.842 -0.262,-1.051 -0.174,-0.208 -0.446,-0.313 -0.815,-0.313 -0.26,0 -0.556,0.108 -0.887,0.323 -0.332,0.216 -0.685,0.561 -1.061,1.036 -0.376,0.475 -0.67,0.931 -0.882,1.369 -0.212,0.437 -0.39,0.971 -0.533,1.599 l -0.974,4.44 h -1.774 l 1.497,-6.501 c 0.15,-0.656 0.225,-1.162 0.225,-1.517 0,-0.274 -0.044,-0.472 -0.133,-0.595 -0.089,-0.123 -0.229,-0.184 -0.42,-0.184 -0.212,0 -0.436,0.087 -0.672,0.261 -0.236,0.174 -0.559,0.491 -0.969,0.949 l -0.585,-0.575 c 0.602,-0.629 1.12,-1.088 1.554,-1.379 0.434,-0.29 0.911,-0.436 1.43,-0.436 z"
       fill-rule="evenodd"
       id="path145" />
    <text
       fill="#000000"
       fill-opacity="0"
       font-family="Arial, Arial_MSFontService, sans-serif"
       font-size="10.1411px"
       x="240.38"
       y="664.71698"
       id="text147">­ЮЉџ</text>
    <text
       font-family="Calibri, Calibri_MSFontService, sans-serif"
       font-weight="400"
       font-size="32px"
       transform="translate(279.168,604)"
       id="text149">+</text>
    <path
       d="m 352.237,526.689 h 9.219 V 663.47 h -9.219 v -1.781 h 5.782 V 528.47 h -5.782 z m -46.34,0 h 9.219 v 1.781 h -5.782 v 133.219 h 5.782 v 1.781 h -9.219 z"
       fill-rule="evenodd"
       id="path151" />
    <path
       d="m 333.891,531.041 c 0.75,0 1.292,0.196 1.625,0.586 0.334,0.391 0.5,0.914 0.5,1.571 0,0.5 -0.088,1.073 -0.265,1.718 -0.178,0.646 -0.428,1.329 -0.75,2.047 -0.323,0.719 -0.709,1.456 -1.157,2.211 -0.448,0.755 -0.942,1.49 -1.484,2.203 -0.542,0.714 -1.12,1.386 -1.734,2.016 -0.615,0.63 -1.253,1.18 -1.914,1.648 -0.662,0.469 -1.334,0.842 -2.016,1.118 -0.682,0.276 -1.362,0.414 -2.039,0.414 -0.302,0 -0.555,-0.076 -0.758,-0.227 -0.203,-0.151 -0.367,-0.364 -0.492,-0.64 -0.125,-0.277 -0.214,-0.602 -0.266,-0.977 -0.052,-0.375 -0.078,-0.786 -0.078,-1.234 0,-0.594 0.037,-1.23 0.109,-1.907 0.073,-0.677 0.167,-1.359 0.282,-2.047 l 0.656,-4.328 c 0.042,-0.25 0.075,-0.487 0.102,-0.711 0.026,-0.224 0.039,-0.388 0.039,-0.492 0,-0.323 -0.053,-0.588 -0.157,-0.797 -0.104,-0.208 -0.281,-0.312 -0.531,-0.312 -0.198,0 -0.411,0.06 -0.641,0.18 -0.229,0.119 -0.46,0.273 -0.695,0.46 -0.234,0.188 -0.461,0.388 -0.68,0.602 -0.218,0.214 -0.421,0.414 -0.609,0.602 l -0.75,-0.875 c 0.323,-0.334 0.667,-0.664 1.031,-0.993 0.365,-0.328 0.75,-0.625 1.157,-0.89 0.406,-0.266 0.833,-0.479 1.281,-0.641 0.448,-0.161 0.906,-0.242 1.375,-0.242 0.396,0 0.719,0.065 0.969,0.195 0.25,0.13 0.445,0.302 0.586,0.516 0.14,0.213 0.236,0.448 0.289,0.703 0.052,0.255 0.078,0.508 0.078,0.758 0,0.146 -0.006,0.286 -0.016,0.422 -0.01,0.135 -0.026,0.26 -0.047,0.375 l -0.875,5.656 c -0.094,0.594 -0.172,1.174 -0.234,1.742 -0.063,0.568 -0.094,1.07 -0.094,1.508 0,0.437 0.026,0.792 0.078,1.062 0.052,0.271 0.151,0.407 0.297,0.407 0.344,0 0.776,-0.138 1.297,-0.414 0.521,-0.276 1.068,-0.657 1.641,-1.141 0.572,-0.484 1.145,-1.057 1.718,-1.719 0.573,-0.661 1.089,-1.377 1.547,-2.148 0.459,-0.771 0.831,-1.583 1.117,-2.438 0.287,-0.854 0.43,-1.713 0.43,-2.578 0,-0.375 -0.081,-0.664 -0.242,-0.867 -0.162,-0.203 -0.414,-0.305 -0.758,-0.305 -0.437,0 -0.841,0.17 -1.211,0.508 -0.37,0.339 -0.752,0.784 -1.148,1.336 l -0.891,-0.797 c 0.25,-0.375 0.544,-0.734 0.883,-1.078 0.338,-0.344 0.698,-0.646 1.078,-0.906 0.38,-0.261 0.773,-0.469 1.18,-0.625 0.406,-0.156 0.802,-0.235 1.187,-0.235 z"
       fill-rule="evenodd"
       id="path153" />
    <text
       fill="#000000"
       fill-opacity="0"
       font-family="Arial, Arial_MSFontService, sans-serif"
       font-size="15.5312px"
       x="320.18799"
       y="544.63098"
       id="text155">­ЮЉБ</text>
    <path
       d="m 343.052,539.146 h 0.564 c -0.041,0.657 -0.062,1.566 -0.062,2.728 v 8.757 c 0,0.396 0.022,0.695 0.067,0.897 0.044,0.202 0.123,0.366 0.236,0.492 0.112,0.127 0.275,0.226 0.487,0.298 0.212,0.071 0.478,0.126 0.799,0.164 0.322,0.037 0.746,0.063 1.272,0.077 v 0.748 h -7.578 v -0.748 c 0.759,-0.035 1.301,-0.081 1.626,-0.139 0.324,-0.058 0.572,-0.145 0.743,-0.261 0.171,-0.117 0.296,-0.281 0.374,-0.493 0.079,-0.211 0.118,-0.557 0.118,-1.035 v -8.316 c 0,-0.274 -0.048,-0.474 -0.143,-0.6 -0.096,-0.126 -0.236,-0.19 -0.421,-0.19 -0.219,0 -0.53,0.113 -0.933,0.339 -0.403,0.225 -0.902,0.536 -1.497,0.933 l -0.451,-0.79 z"
       fill-rule="evenodd"
       id="path157" />
    <text
       fill="#000000"
       fill-opacity="0"
       font-family="Arial, Arial_MSFontService, sans-serif"
       font-size="14.1606px"
       x="338.25299"
       y="551.53699"
       id="text159">1</text>
    <path
       d="m 333.891,568.555 c 0.75,0 1.292,0.195 1.625,0.586 0.334,0.39 0.5,0.914 0.5,1.57 0,0.5 -0.088,1.073 -0.265,1.719 -0.178,0.646 -0.428,1.328 -0.75,2.047 -0.323,0.718 -0.709,1.455 -1.157,2.211 -0.448,0.755 -0.942,1.489 -1.484,2.203 -0.542,0.713 -1.12,1.385 -1.734,2.015 -0.615,0.631 -1.253,1.18 -1.914,1.649 -0.662,0.469 -1.334,0.841 -2.016,1.117 -0.682,0.276 -1.362,0.414 -2.039,0.414 -0.302,0 -0.555,-0.075 -0.758,-0.227 -0.203,-0.151 -0.367,-0.364 -0.492,-0.64 -0.125,-0.276 -0.214,-0.602 -0.266,-0.977 -0.052,-0.375 -0.078,-0.786 -0.078,-1.234 0,-0.594 0.037,-1.229 0.109,-1.906 0.073,-0.677 0.167,-1.36 0.282,-2.047 l 0.656,-4.328 c 0.042,-0.25 0.075,-0.487 0.102,-0.711 0.026,-0.224 0.039,-0.388 0.039,-0.492 0,-0.323 -0.053,-0.589 -0.157,-0.797 -0.104,-0.209 -0.281,-0.313 -0.531,-0.313 -0.198,0 -0.411,0.06 -0.641,0.18 -0.229,0.12 -0.46,0.273 -0.695,0.461 -0.234,0.187 -0.461,0.388 -0.68,0.601 -0.218,0.214 -0.421,0.414 -0.609,0.602 l -0.75,-0.875 c 0.323,-0.333 0.667,-0.664 1.031,-0.992 0.365,-0.328 0.75,-0.625 1.157,-0.891 0.406,-0.266 0.833,-0.479 1.281,-0.641 0.448,-0.161 0.906,-0.242 1.375,-0.242 0.396,0 0.719,0.065 0.969,0.196 0.25,0.13 0.445,0.302 0.586,0.515 0.14,0.214 0.236,0.448 0.289,0.703 0.052,0.256 0.078,0.508 0.078,0.758 0,0.146 -0.006,0.287 -0.016,0.422 -0.01,0.135 -0.026,0.26 -0.047,0.375 l -0.875,5.656 c -0.094,0.594 -0.172,1.175 -0.234,1.742 -0.063,0.568 -0.094,1.071 -0.094,1.508 0,0.438 0.026,0.792 0.078,1.063 0.052,0.271 0.151,0.406 0.297,0.406 0.344,0 0.776,-0.138 1.297,-0.414 0.521,-0.276 1.068,-0.656 1.641,-1.141 0.572,-0.484 1.145,-1.057 1.718,-1.718 0.573,-0.662 1.089,-1.378 1.547,-2.149 0.459,-0.771 0.831,-1.583 1.117,-2.437 0.287,-0.855 0.43,-1.714 0.43,-2.578 0,-0.375 -0.081,-0.665 -0.242,-0.868 -0.162,-0.203 -0.414,-0.304 -0.758,-0.304 -0.437,0 -0.841,0.169 -1.211,0.507 -0.37,0.339 -0.752,0.784 -1.148,1.336 l -0.891,-0.796 c 0.25,-0.375 0.544,-0.735 0.883,-1.079 0.338,-0.343 0.698,-0.645 1.078,-0.906 0.38,-0.26 0.773,-0.469 1.18,-0.625 0.406,-0.156 0.802,-0.234 1.187,-0.234 z"
       fill-rule="evenodd"
       id="path161" />
    <text
       fill="#000000"
       fill-opacity="0"
       font-family="Arial, Arial_MSFontService, sans-serif"
       font-size="15.5312px"
       x="320.18799"
       y="582.14502"
       id="text163">­ЮЉБ</text>
    <path
       d="m 342.324,576.66 c 1.271,0 2.232,0.278 2.881,0.835 0.649,0.558 0.974,1.366 0.974,2.426 0,0.362 -0.036,0.695 -0.108,0.999 -0.071,0.304 -0.184,0.605 -0.338,0.903 -0.154,0.297 -0.361,0.617 -0.62,0.958 -0.26,0.342 -0.547,0.689 -0.862,1.041 -0.314,0.352 -0.858,0.938 -1.63,1.759 -1.299,1.374 -2.252,2.573 -2.861,3.599 h 3.866 c 0.335,0 0.605,-0.021 0.81,-0.062 0.205,-0.041 0.369,-0.109 0.492,-0.205 0.123,-0.095 0.221,-0.22 0.292,-0.374 0.072,-0.154 0.163,-0.391 0.272,-0.713 h 0.872 l -0.175,2.994 h -8.439 v -0.492 c 0.294,-0.718 0.691,-1.452 1.19,-2.204 0.499,-0.752 1.206,-1.638 2.122,-2.656 0.793,-0.875 1.364,-1.538 1.713,-1.989 0.383,-0.493 0.668,-0.918 0.856,-1.277 0.188,-0.359 0.323,-0.697 0.405,-1.015 0.082,-0.318 0.123,-0.638 0.123,-0.959 0,-0.513 -0.082,-0.965 -0.246,-1.358 -0.164,-0.394 -0.415,-0.703 -0.754,-0.928 -0.338,-0.226 -0.764,-0.339 -1.276,-0.339 -1.279,0 -2.14,0.711 -2.584,2.133 h -1.241 v -1.969 c 0.827,-0.389 1.601,-0.671 2.323,-0.846 0.721,-0.174 1.368,-0.261 1.943,-0.261 z"
       fill-rule="evenodd"
       id="path165" />
    <text
       fill="#000000"
       fill-opacity="0"
       font-family="Arial, Arial_MSFontService, sans-serif"
       font-size="14.1606px"
       x="337.75"
       y="589.04999"
       id="text167">2</text>
    <path
       d="m 333.643,617.552 c 0.542,0 0.995,0.191 1.359,0.571 0.365,0.38 0.547,0.862 0.547,1.445 0,0.583 -0.182,1.065 -0.547,1.445 -0.364,0.381 -0.817,0.571 -1.359,0.571 -0.542,0 -0.995,-0.19 -1.359,-0.571 -0.365,-0.38 -0.547,-0.862 -0.547,-1.445 0,-0.583 0.182,-1.065 0.547,-1.445 0.364,-0.38 0.817,-0.571 1.359,-0.571 z m 0,-8.312 c 0.542,0 0.995,0.19 1.359,0.57 0.365,0.38 0.547,0.862 0.547,1.446 0,0.583 -0.182,1.065 -0.547,1.445 -0.364,0.38 -0.817,0.57 -1.359,0.57 -0.542,0 -0.995,-0.19 -1.359,-0.57 -0.365,-0.38 -0.547,-0.862 -0.547,-1.445 0,-0.584 0.182,-1.066 0.547,-1.446 0.364,-0.38 0.817,-0.57 1.359,-0.57 z m 0,-8.313 c 0.542,0 0.995,0.191 1.359,0.571 0.365,0.38 0.547,0.862 0.547,1.445 0,0.583 -0.182,1.065 -0.547,1.445 -0.364,0.381 -0.817,0.571 -1.359,0.571 -0.542,0 -0.995,-0.19 -1.359,-0.571 -0.365,-0.38 -0.547,-0.862 -0.547,-1.445 0,-0.583 0.182,-1.065 0.547,-1.445 0.364,-0.38 0.817,-0.571 1.359,-0.571 z"
       fill-rule="evenodd"
       id="path169" />
    <text
       fill="#000000"
       fill-opacity="0"
       font-family="Arial, Arial_MSFontService, sans-serif"
       font-size="20.6562px"
       x="331.737"
       y="619.00201"
       id="text171">РІ«</text>
    <path
       d="m 330.618,643.581 c 0.75,0 1.292,0.196 1.625,0.586 0.333,0.391 0.5,0.914 0.5,1.571 0,0.5 -0.089,1.073 -0.266,1.718 -0.177,0.646 -0.427,1.329 -0.75,2.047 -0.323,0.719 -0.708,1.456 -1.156,2.211 -0.448,0.755 -0.943,1.49 -1.484,2.203 -0.542,0.714 -1.12,1.386 -1.735,2.016 -0.614,0.63 -1.252,1.18 -1.914,1.648 -0.661,0.469 -1.333,0.842 -2.015,1.118 -0.683,0.276 -1.362,0.414 -2.039,0.414 -0.303,0 -0.555,-0.076 -0.758,-0.227 -0.203,-0.151 -0.367,-0.364 -0.492,-0.64 -0.125,-0.277 -0.214,-0.602 -0.266,-0.977 -0.052,-0.375 -0.078,-0.786 -0.078,-1.234 0,-0.594 0.036,-1.23 0.109,-1.907 0.073,-0.677 0.167,-1.359 0.281,-2.047 l 0.657,-4.328 c 0.041,-0.25 0.075,-0.487 0.101,-0.711 0.026,-0.224 0.039,-0.388 0.039,-0.492 0,-0.323 -0.052,-0.588 -0.156,-0.797 -0.104,-0.208 -0.281,-0.312 -0.531,-0.312 -0.198,0 -0.412,0.06 -0.641,0.18 -0.229,0.119 -0.461,0.273 -0.695,0.46 -0.235,0.188 -0.461,0.388 -0.68,0.602 -0.219,0.214 -0.422,0.414 -0.609,0.602 l -0.75,-0.875 c 0.323,-0.334 0.666,-0.664 1.031,-0.993 0.365,-0.328 0.75,-0.625 1.156,-0.89 0.407,-0.266 0.834,-0.479 1.282,-0.641 0.447,-0.161 0.906,-0.242 1.375,-0.242 0.395,0 0.718,0.065 0.968,0.195 0.25,0.13 0.446,0.302 0.586,0.516 0.141,0.213 0.237,0.448 0.289,0.703 0.052,0.255 0.078,0.508 0.078,0.758 0,0.146 -0.005,0.286 -0.015,0.422 -0.011,0.135 -0.026,0.26 -0.047,0.375 l -0.875,5.656 c -0.094,0.594 -0.172,1.174 -0.234,1.742 -0.063,0.568 -0.094,1.07 -0.094,1.508 0,0.437 0.026,0.792 0.078,1.062 0.052,0.271 0.151,0.407 0.297,0.407 0.344,0 0.776,-0.138 1.297,-0.414 0.52,-0.276 1.067,-0.657 1.64,-1.141 0.573,-0.484 1.146,-1.057 1.719,-1.719 0.573,-0.661 1.089,-1.377 1.547,-2.148 0.458,-0.771 0.831,-1.583 1.117,-2.438 0.287,-0.854 0.43,-1.713 0.43,-2.578 0,-0.375 -0.081,-0.664 -0.242,-0.867 -0.162,-0.203 -0.414,-0.305 -0.758,-0.305 -0.438,0 -0.841,0.17 -1.211,0.508 -0.37,0.339 -0.753,0.784 -1.149,1.336 l -0.89,-0.797 c 0.25,-0.375 0.544,-0.734 0.883,-1.078 0.338,-0.344 0.697,-0.646 1.078,-0.906 0.38,-0.261 0.773,-0.469 1.179,-0.625 0.407,-0.156 0.802,-0.235 1.188,-0.235 z"
       fill-rule="evenodd"
       id="path173" />
    <text
       fill="#000000"
       fill-opacity="0"
       font-family="Arial, Arial_MSFontService, sans-serif"
       font-size="15.5312px"
       x="316.91501"
       y="657.17102"
       id="text175">­ЮЉБ</text>
    <path
       d="m 336.384,655.87 c 0.431,0 0.771,0.142 1.021,0.426 0.249,0.283 0.374,0.654 0.374,1.112 0,0.376 -0.079,0.776 -0.236,1.2 l 0.123,0.041 c 0.629,-0.937 1.254,-1.632 1.877,-2.087 0.622,-0.454 1.25,-0.682 1.886,-0.682 0.656,0 1.156,0.187 1.497,0.559 0.342,0.373 0.513,0.911 0.513,1.615 v 0.144 c 0,0.048 -0.003,0.099 -0.01,0.154 0.588,-0.834 1.174,-1.455 1.758,-1.862 0.585,-0.406 1.191,-0.61 1.82,-0.61 0.629,0 1.115,0.181 1.456,0.544 0.342,0.362 0.513,0.871 0.513,1.528 0,0.43 -0.099,1.042 -0.297,1.835 l -0.667,2.687 c -0.184,0.745 -0.277,1.271 -0.277,1.579 0,0.273 0.045,0.471 0.134,0.594 0.089,0.123 0.229,0.185 0.42,0.185 0.205,0 0.424,-0.084 0.656,-0.251 0.233,-0.168 0.561,-0.487 0.985,-0.959 l 0.584,0.574 c -0.588,0.622 -1.1,1.08 -1.538,1.374 -0.437,0.294 -0.936,0.441 -1.497,0.441 -0.444,0 -0.8,-0.159 -1.066,-0.477 -0.267,-0.318 -0.4,-0.723 -0.4,-1.215 0,-0.444 0.113,-1.097 0.338,-1.958 l 0.451,-1.774 c 0.164,-0.643 0.272,-1.118 0.323,-1.425 0.052,-0.308 0.077,-0.558 0.077,-0.749 0,-0.472 -0.078,-0.812 -0.236,-1.02 -0.157,-0.209 -0.413,-0.313 -0.769,-0.313 -0.287,0 -0.594,0.108 -0.923,0.323 -0.328,0.215 -0.673,0.55 -1.035,1.005 -0.363,0.454 -0.658,0.902 -0.887,1.343 -0.229,0.441 -0.412,0.979 -0.549,1.615 l -0.933,4.481 h -1.774 l 1.179,-5.209 c 0.144,-0.636 0.241,-1.106 0.293,-1.41 0.051,-0.304 0.077,-0.565 0.077,-0.784 0,-0.492 -0.088,-0.843 -0.262,-1.051 -0.174,-0.209 -0.446,-0.313 -0.815,-0.313 -0.26,0 -0.556,0.108 -0.887,0.323 -0.332,0.215 -0.685,0.561 -1.061,1.036 -0.376,0.475 -0.67,0.931 -0.882,1.369 -0.212,0.437 -0.39,0.97 -0.533,1.599 l -0.975,4.44 h -1.773 l 1.497,-6.501 c 0.15,-0.656 0.225,-1.162 0.225,-1.517 0,-0.274 -0.044,-0.472 -0.133,-0.595 -0.089,-0.123 -0.229,-0.185 -0.42,-0.185 -0.212,0 -0.436,0.087 -0.672,0.262 -0.236,0.174 -0.559,0.49 -0.969,0.948 l -0.585,-0.574 c 0.602,-0.629 1.12,-1.089 1.554,-1.379 0.434,-0.291 0.911,-0.436 1.43,-0.436 z"
       fill-rule="evenodd"
       id="path177" />
    <text
       fill="#000000"
       fill-opacity="0"
       font-family="Arial, Arial_MSFontService, sans-serif"
       font-size="10.1411px"
       x="333.39999"
       y="664.74402"
       id="text179">­ЮЉџ</text>
    <text
       font-family="Calibri, Calibri_MSFontService, sans-serif"
       font-weight="400"
       font-size="32px"
       transform="translate(372.188,604)"
       id="text181">=</text>
    <path
       d="m 520.031,526.689 h 9.219 V 663.47 h -9.219 v -1.781 h 5.781 V 528.47 h -5.781 z m -121.114,0 h 9.219 v 1.781 h -5.782 v 133.219 h 5.782 v 1.781 h -9.219 z"
       fill-rule="evenodd"
       id="path183" />
    <path
       d="m 420.435,532.751 c 0.666,0 1.192,0.224 1.578,0.671 0.385,0.448 0.578,1.053 0.578,1.813 0,0.823 -0.162,1.849 -0.485,3.078 l -0.687,2.703 c -0.177,0.688 -0.305,1.224 -0.383,1.61 -0.078,0.385 -0.135,0.718 -0.172,1 -0.036,0.281 -0.054,0.515 -0.054,0.703 0,0.718 0.119,1.237 0.359,1.554 0.24,0.318 0.63,0.477 1.172,0.477 0.437,0 0.909,-0.175 1.414,-0.523 0.505,-0.349 1.042,-0.875 1.609,-1.579 0.568,-0.703 1.024,-1.385 1.367,-2.046 0.344,-0.662 0.625,-1.477 0.844,-2.446 l 1.485,-6.765 h 2.703 l -2.282,9.906 c -0.229,1 -0.343,1.771 -0.343,2.312 0,0.417 0.067,0.719 0.203,0.907 0.135,0.187 0.349,0.281 0.64,0.281 0.313,0 0.646,-0.128 1,-0.383 0.355,-0.255 0.855,-0.742 1.5,-1.461 l 0.891,0.875 c -0.948,1.011 -1.755,1.724 -2.422,2.141 -0.666,0.416 -1.375,0.625 -2.125,0.625 -0.646,0 -1.161,-0.214 -1.547,-0.641 -0.385,-0.427 -0.578,-0.995 -0.578,-1.703 0,-0.563 0.125,-1.177 0.375,-1.844 l -0.187,-0.062 c -1.032,1.448 -2.008,2.515 -2.93,3.203 -0.922,0.687 -1.867,1.031 -2.836,1.031 -0.969,0 -1.713,-0.279 -2.234,-0.836 -0.521,-0.557 -0.782,-1.331 -0.782,-2.32 0,-0.656 0.151,-1.589 0.454,-2.797 l 1.015,-4.094 c 0.281,-1.135 0.422,-1.937 0.422,-2.406 0,-0.417 -0.068,-0.719 -0.203,-0.906 -0.135,-0.188 -0.349,-0.282 -0.641,-0.282 -0.323,0 -0.664,0.133 -1.023,0.399 -0.36,0.266 -0.852,0.747 -1.477,1.445 l -0.89,-0.875 c 0.885,-0.896 1.552,-1.51 2,-1.844 0.448,-0.333 0.877,-0.57 1.289,-0.71 0.411,-0.141 0.872,-0.211 1.383,-0.211 z"
       fill-rule="evenodd"
       id="path185" />
    <text
       fill="#000000"
       fill-opacity="0"
       font-family="Arial, Arial_MSFontService, sans-serif"
       font-size="15.4531px"
       x="415.763"
       y="546.27197"
       id="text187">­ЮЉб</text>
    <path
       d="m 440.345,540.793 h 0.564 c -0.041,0.656 -0.062,1.566 -0.062,2.728 v 8.756 c 0,0.397 0.023,0.696 0.067,0.898 0.045,0.201 0.123,0.365 0.236,0.492 0.113,0.126 0.275,0.225 0.487,0.297 0.212,0.072 0.479,0.127 0.8,0.164 0.321,0.038 0.745,0.064 1.271,0.077 v 0.749 h -7.577 v -0.749 c 0.758,-0.034 1.3,-0.08 1.625,-0.138 0.325,-0.058 0.572,-0.145 0.743,-0.262 0.171,-0.116 0.296,-0.28 0.375,-0.492 0.078,-0.212 0.118,-0.557 0.118,-1.036 v -8.315 c 0,-0.274 -0.048,-0.474 -0.144,-0.6 -0.096,-0.127 -0.236,-0.19 -0.42,-0.19 -0.219,0 -0.53,0.113 -0.934,0.338 -0.403,0.226 -0.902,0.537 -1.497,0.933 l -0.451,-0.789 z"
       fill-rule="evenodd"
       id="path189" />
    <text
       fill="#000000"
       fill-opacity="0"
       font-family="Arial, Arial_MSFontService, sans-serif"
       font-size="14.1606px"
       x="435.54599"
       y="553.18402"
       id="text191">1</text>
    <path
       d="m 463.511,528.766 h 2.219 v 9 h 8.516 v 2.078 h -8.516 v 9 h -2.219 v -9 h -8.515 v -2.078 h 8.515 z"
       fill-rule="evenodd"
       id="path193" />
    <text
       fill="#000000"
       fill-opacity="0"
       font-family="Arial, Arial_MSFontService, sans-serif"
       font-size="20.0781px"
       x="454.996"
       y="546.33502"
       id="text195">+</text>
    <path
       d="m 498.411,532.688 c 0.75,0 1.292,0.195 1.625,0.586 0.334,0.391 0.5,0.914 0.5,1.57 0,0.5 -0.088,1.073 -0.265,1.719 -0.177,0.646 -0.427,1.328 -0.75,2.047 -0.323,0.719 -0.709,1.456 -1.157,2.211 -0.448,0.755 -0.942,1.489 -1.484,2.203 -0.542,0.714 -1.12,1.385 -1.734,2.016 -0.615,0.63 -1.253,1.179 -1.914,1.648 -0.662,0.469 -1.334,0.841 -2.016,1.117 -0.682,0.276 -1.362,0.414 -2.039,0.414 -0.302,0 -0.555,-0.075 -0.758,-0.226 -0.203,-0.151 -0.367,-0.365 -0.492,-0.641 -0.125,-0.276 -0.214,-0.601 -0.266,-0.976 -0.052,-0.375 -0.078,-0.787 -0.078,-1.235 0,-0.594 0.037,-1.229 0.109,-1.906 0.073,-0.677 0.167,-1.359 0.282,-2.047 l 0.656,-4.328 c 0.042,-0.25 0.076,-0.487 0.102,-0.711 0.026,-0.224 0.039,-0.388 0.039,-0.492 0,-0.323 -0.052,-0.589 -0.157,-0.797 -0.104,-0.208 -0.281,-0.313 -0.531,-0.313 -0.198,0 -0.411,0.06 -0.641,0.18 -0.229,0.12 -0.46,0.274 -0.695,0.461 -0.234,0.188 -0.461,0.388 -0.68,0.602 -0.218,0.213 -0.421,0.414 -0.609,0.601 l -0.75,-0.875 c 0.323,-0.333 0.667,-0.664 1.031,-0.992 0.365,-0.328 0.75,-0.625 1.157,-0.891 0.406,-0.265 0.833,-0.479 1.281,-0.64 0.448,-0.162 0.906,-0.242 1.375,-0.242 0.396,0 0.719,0.065 0.969,0.195 0.25,0.13 0.445,0.302 0.586,0.516 0.14,0.213 0.237,0.447 0.289,0.703 0.052,0.255 0.078,0.507 0.078,0.757 0,0.146 -0.005,0.287 -0.016,0.422 -0.01,0.136 -0.026,0.261 -0.047,0.375 l -0.875,5.657 c -0.094,0.593 -0.172,1.174 -0.234,1.742 -0.063,0.567 -0.094,1.07 -0.094,1.508 0,0.437 0.026,0.791 0.078,1.062 0.052,0.271 0.151,0.406 0.297,0.406 0.344,0 0.776,-0.138 1.297,-0.414 0.521,-0.276 1.068,-0.656 1.641,-1.14 0.573,-0.485 1.145,-1.058 1.718,-1.719 0.573,-0.662 1.089,-1.378 1.547,-2.149 0.459,-0.77 0.831,-1.583 1.117,-2.437 0.287,-0.854 0.43,-1.714 0.43,-2.578 0,-0.375 -0.081,-0.664 -0.242,-0.867 -0.162,-0.203 -0.414,-0.305 -0.758,-0.305 -0.437,0 -0.841,0.169 -1.211,0.508 -0.37,0.338 -0.752,0.784 -1.148,1.336 l -0.891,-0.797 c 0.25,-0.375 0.544,-0.735 0.883,-1.078 0.338,-0.344 0.698,-0.646 1.078,-0.907 0.38,-0.26 0.773,-0.468 1.18,-0.625 0.406,-0.156 0.802,-0.234 1.187,-0.234 z"
       fill-rule="evenodd"
       id="path197" />
    <text
       fill="#000000"
       fill-opacity="0"
       font-family="Arial, Arial_MSFontService, sans-serif"
       font-size="15.5312px"
       x="484.70801"
       y="546.27802"
       id="text199">­ЮЉБ</text>
    <path
       d="m 507.572,540.793 h 0.564 c -0.041,0.656 -0.062,1.566 -0.062,2.728 v 8.756 c 0,0.397 0.022,0.696 0.067,0.898 0.044,0.201 0.123,0.365 0.236,0.492 0.112,0.126 0.275,0.225 0.487,0.297 0.212,0.072 0.478,0.127 0.799,0.164 0.322,0.038 0.746,0.064 1.272,0.077 v 0.749 h -7.578 v -0.749 c 0.759,-0.034 1.301,-0.08 1.626,-0.138 0.324,-0.058 0.572,-0.145 0.743,-0.262 0.171,-0.116 0.296,-0.28 0.374,-0.492 0.079,-0.212 0.118,-0.557 0.118,-1.036 v -8.315 c 0,-0.274 -0.048,-0.474 -0.143,-0.6 -0.096,-0.127 -0.236,-0.19 -0.421,-0.19 -0.219,0 -0.53,0.113 -0.933,0.338 -0.403,0.226 -0.902,0.537 -1.497,0.933 l -0.451,-0.789 z"
       fill-rule="evenodd"
       id="path201" />
    <text
       fill="#000000"
       fill-opacity="0"
       font-family="Arial, Arial_MSFontService, sans-serif"
       font-size="14.1606px"
       x="502.77301"
       y="553.18402"
       id="text203">1</text>
    <path
       d="m 420.435,570.264 c 0.666,0 1.192,0.224 1.578,0.672 0.385,0.448 0.578,1.052 0.578,1.812 0,0.823 -0.162,1.849 -0.485,3.078 l -0.687,2.704 c -0.177,0.687 -0.305,1.224 -0.383,1.609 -0.078,0.385 -0.135,0.719 -0.172,1 -0.036,0.281 -0.054,0.516 -0.054,0.703 0,0.719 0.119,1.237 0.359,1.555 0.24,0.317 0.63,0.476 1.172,0.476 0.437,0 0.909,-0.174 1.414,-0.523 0.505,-0.349 1.042,-0.875 1.609,-1.578 0.568,-0.703 1.024,-1.386 1.367,-2.047 0.344,-0.662 0.625,-1.477 0.844,-2.445 l 1.485,-6.766 h 2.703 l -2.282,9.906 c -0.229,1 -0.343,1.771 -0.343,2.313 0,0.416 0.067,0.718 0.203,0.906 0.135,0.187 0.349,0.281 0.64,0.281 0.313,0 0.646,-0.127 1,-0.383 0.355,-0.255 0.855,-0.742 1.5,-1.461 l 0.891,0.875 c -0.948,1.011 -1.755,1.724 -2.422,2.141 -0.666,0.417 -1.375,0.625 -2.125,0.625 -0.646,0 -1.161,-0.213 -1.547,-0.641 -0.385,-0.427 -0.578,-0.994 -0.578,-1.703 0,-0.562 0.125,-1.177 0.375,-1.843 l -0.187,-0.063 c -1.032,1.448 -2.008,2.516 -2.93,3.203 -0.922,0.688 -1.867,1.031 -2.836,1.031 -0.969,0 -1.713,-0.278 -2.234,-0.835 -0.521,-0.558 -0.782,-1.331 -0.782,-2.321 0,-0.656 0.151,-1.588 0.454,-2.797 l 1.015,-4.093 c 0.281,-1.136 0.422,-1.938 0.422,-2.407 0,-0.416 -0.068,-0.718 -0.203,-0.906 -0.135,-0.187 -0.349,-0.281 -0.641,-0.281 -0.323,0 -0.664,0.133 -1.023,0.398 -0.36,0.266 -0.852,0.748 -1.477,1.446 l -0.89,-0.875 c 0.885,-0.896 1.552,-1.511 2,-1.844 0.448,-0.333 0.877,-0.57 1.289,-0.711 0.411,-0.141 0.872,-0.211 1.383,-0.211 z"
       fill-rule="evenodd"
       id="path205" />
    <text
       fill="#000000"
       fill-opacity="0"
       font-family="Arial, Arial_MSFontService, sans-serif"
       font-size="15.4531px"
       x="415.763"
       y="583.78497"
       id="text207">­ЮЉб</text>
    <path
       d="m 439.617,578.306 c 1.271,0 2.232,0.279 2.881,0.836 0.65,0.557 0.974,1.366 0.974,2.425 0,0.363 -0.035,0.696 -0.107,1 -0.072,0.304 -0.185,0.605 -0.339,0.902 -0.153,0.298 -0.36,0.617 -0.62,0.959 -0.26,0.342 -0.547,0.689 -0.861,1.041 -0.315,0.352 -0.858,0.938 -1.631,1.758 -1.298,1.374 -2.252,2.574 -2.86,3.599 h 3.865 c 0.335,0 0.605,-0.02 0.81,-0.061 0.205,-0.041 0.369,-0.109 0.492,-0.205 0.124,-0.096 0.221,-0.221 0.293,-0.374 0.072,-0.154 0.162,-0.392 0.271,-0.713 h 0.872 l -0.174,2.994 h -8.439 v -0.492 c 0.294,-0.718 0.69,-1.453 1.189,-2.205 0.499,-0.752 1.207,-1.637 2.123,-2.655 0.793,-0.875 1.364,-1.539 1.712,-1.99 0.383,-0.492 0.668,-0.917 0.856,-1.276 0.188,-0.359 0.323,-0.698 0.405,-1.015 0.082,-0.318 0.123,-0.638 0.123,-0.959 0,-0.513 -0.082,-0.966 -0.246,-1.359 -0.164,-0.393 -0.415,-0.702 -0.753,-0.928 -0.339,-0.225 -0.764,-0.338 -1.277,-0.338 -1.278,0 -2.14,0.711 -2.584,2.133 h -1.241 v -1.969 c 0.828,-0.39 1.602,-0.672 2.323,-0.846 0.721,-0.174 1.369,-0.262 1.943,-0.262 z"
       fill-rule="evenodd"
       id="path209" />
    <text
       fill="#000000"
       fill-opacity="0"
       font-family="Arial, Arial_MSFontService, sans-serif"
       font-size="14.1606px"
       x="435.04401"
       y="590.69702"
       id="text211">2</text>
    <path
       d="m 463.511,566.28 h 2.219 v 9 h 8.516 v 2.078 h -8.516 v 9 h -2.219 v -9 h -8.515 v -2.078 h 8.515 z"
       fill-rule="evenodd"
       id="path213" />
    <text
       fill="#000000"
       fill-opacity="0"
       font-family="Arial, Arial_MSFontService, sans-serif"
       font-size="20.0781px"
       x="454.996"
       y="583.84802"
       id="text215">+</text>
    <path
       d="m 498.411,570.201 c 0.75,0 1.292,0.196 1.625,0.586 0.334,0.391 0.5,0.914 0.5,1.571 0,0.5 -0.088,1.073 -0.265,1.718 -0.177,0.646 -0.427,1.329 -0.75,2.047 -0.323,0.719 -0.709,1.456 -1.157,2.211 -0.448,0.755 -0.942,1.49 -1.484,2.203 -0.542,0.714 -1.12,1.386 -1.734,2.016 -0.615,0.63 -1.253,1.18 -1.914,1.648 -0.662,0.469 -1.334,0.842 -2.016,1.118 -0.682,0.276 -1.362,0.414 -2.039,0.414 -0.302,0 -0.555,-0.076 -0.758,-0.227 -0.203,-0.151 -0.367,-0.364 -0.492,-0.64 -0.125,-0.277 -0.214,-0.602 -0.266,-0.977 -0.052,-0.375 -0.078,-0.786 -0.078,-1.234 0,-0.594 0.037,-1.23 0.109,-1.907 0.073,-0.677 0.167,-1.359 0.282,-2.047 l 0.656,-4.328 c 0.042,-0.25 0.076,-0.487 0.102,-0.711 0.026,-0.224 0.039,-0.388 0.039,-0.492 0,-0.323 -0.052,-0.588 -0.157,-0.797 -0.104,-0.208 -0.281,-0.312 -0.531,-0.312 -0.198,0 -0.411,0.06 -0.641,0.18 -0.229,0.119 -0.46,0.273 -0.695,0.46 -0.234,0.188 -0.461,0.388 -0.68,0.602 -0.218,0.214 -0.421,0.414 -0.609,0.602 l -0.75,-0.875 c 0.323,-0.334 0.667,-0.664 1.031,-0.993 0.365,-0.328 0.75,-0.625 1.157,-0.89 0.406,-0.266 0.833,-0.479 1.281,-0.641 0.448,-0.161 0.906,-0.242 1.375,-0.242 0.396,0 0.719,0.065 0.969,0.195 0.25,0.13 0.445,0.302 0.586,0.516 0.14,0.213 0.237,0.448 0.289,0.703 0.052,0.255 0.078,0.508 0.078,0.758 0,0.146 -0.005,0.286 -0.016,0.422 -0.01,0.135 -0.026,0.26 -0.047,0.375 l -0.875,5.656 c -0.094,0.594 -0.172,1.174 -0.234,1.742 -0.063,0.568 -0.094,1.07 -0.094,1.508 0,0.437 0.026,0.792 0.078,1.062 0.052,0.271 0.151,0.407 0.297,0.407 0.344,0 0.776,-0.138 1.297,-0.414 0.521,-0.276 1.068,-0.657 1.641,-1.141 0.573,-0.484 1.145,-1.057 1.718,-1.719 0.573,-0.661 1.089,-1.377 1.547,-2.148 0.459,-0.771 0.831,-1.583 1.117,-2.438 0.287,-0.854 0.43,-1.713 0.43,-2.578 0,-0.375 -0.081,-0.664 -0.242,-0.867 -0.162,-0.203 -0.414,-0.305 -0.758,-0.305 -0.437,0 -0.841,0.17 -1.211,0.508 -0.37,0.339 -0.752,0.784 -1.148,1.336 l -0.891,-0.797 c 0.25,-0.375 0.544,-0.734 0.883,-1.078 0.338,-0.344 0.698,-0.646 1.078,-0.906 0.38,-0.261 0.773,-0.469 1.18,-0.625 0.406,-0.156 0.802,-0.235 1.187,-0.235 z"
       fill-rule="evenodd"
       id="path217" />
    <text
       fill="#000000"
       fill-opacity="0"
       font-family="Arial, Arial_MSFontService, sans-serif"
       font-size="15.5312px"
       x="484.70801"
       y="583.79102"
       id="text219">­ЮЉБ</text>
    <path
       d="m 506.844,578.306 c 1.271,0 2.232,0.279 2.881,0.836 0.649,0.557 0.974,1.366 0.974,2.425 0,0.363 -0.036,0.696 -0.108,1 -0.071,0.304 -0.184,0.605 -0.338,0.902 -0.154,0.298 -0.361,0.617 -0.62,0.959 -0.26,0.342 -0.547,0.689 -0.862,1.041 -0.314,0.352 -0.858,0.938 -1.63,1.758 -1.299,1.374 -2.252,2.574 -2.861,3.599 h 3.866 c 0.335,0 0.605,-0.02 0.81,-0.061 0.205,-0.041 0.369,-0.109 0.492,-0.205 0.123,-0.096 0.221,-0.221 0.292,-0.374 0.072,-0.154 0.163,-0.392 0.272,-0.713 h 0.872 l -0.175,2.994 h -8.439 v -0.492 c 0.294,-0.718 0.691,-1.453 1.19,-2.205 0.499,-0.752 1.206,-1.637 2.122,-2.655 0.793,-0.875 1.364,-1.539 1.713,-1.99 0.383,-0.492 0.668,-0.917 0.856,-1.276 0.188,-0.359 0.323,-0.698 0.405,-1.015 0.082,-0.318 0.123,-0.638 0.123,-0.959 0,-0.513 -0.082,-0.966 -0.246,-1.359 -0.164,-0.393 -0.415,-0.702 -0.754,-0.928 -0.338,-0.225 -0.764,-0.338 -1.276,-0.338 -1.279,0 -2.14,0.711 -2.584,2.133 h -1.241 v -1.969 c 0.827,-0.39 1.601,-0.672 2.323,-0.846 0.721,-0.174 1.368,-0.262 1.943,-0.262 z"
       fill-rule="evenodd"
       id="path221" />
    <text
       fill="#000000"
       fill-opacity="0"
       font-family="Arial, Arial_MSFontService, sans-serif"
       font-size="14.1606px"
       x="502.26999"
       y="590.69702"
       id="text223">2</text>
    <path
       d="m 464.05,619.199 c 0.541,0 0.995,0.19 1.359,0.57 0.365,0.381 0.547,0.862 0.547,1.446 0,0.583 -0.182,1.065 -0.547,1.445 -0.364,0.38 -0.818,0.57 -1.359,0.57 -0.542,0 -0.995,-0.19 -1.36,-0.57 -0.364,-0.38 -0.547,-0.862 -0.547,-1.445 0,-0.584 0.183,-1.065 0.547,-1.446 0.365,-0.38 0.818,-0.57 1.36,-0.57 z m 0,-8.312 c 0.541,0 0.995,0.19 1.359,0.57 0.365,0.38 0.547,0.862 0.547,1.445 0,0.584 -0.182,1.065 -0.547,1.446 -0.364,0.38 -0.818,0.57 -1.359,0.57 -0.542,0 -0.995,-0.19 -1.36,-0.57 -0.364,-0.381 -0.547,-0.862 -0.547,-1.446 0,-0.583 0.183,-1.065 0.547,-1.445 0.365,-0.38 0.818,-0.57 1.36,-0.57 z m 0,-8.313 c 0.541,0 0.995,0.19 1.359,0.57 0.365,0.381 0.547,0.862 0.547,1.446 0,0.583 -0.182,1.065 -0.547,1.445 -0.364,0.38 -0.818,0.57 -1.359,0.57 -0.542,0 -0.995,-0.19 -1.36,-0.57 -0.364,-0.38 -0.547,-0.862 -0.547,-1.445 0,-0.584 0.183,-1.065 0.547,-1.446 0.365,-0.38 0.818,-0.57 1.36,-0.57 z"
       fill-rule="evenodd"
       id="path225" />
    <text
       fill="#000000"
       fill-opacity="0"
       font-family="Arial, Arial_MSFontService, sans-serif"
       font-size="20.6562px"
       x="462.14301"
       y="620.64801"
       id="text227">РІ«</text>
    <path
       d="m 413.888,645.291 c 0.667,0 1.193,0.224 1.578,0.672 0.385,0.447 0.578,1.052 0.578,1.812 0,0.823 -0.161,1.849 -0.484,3.078 l -0.688,2.703 c -0.177,0.688 -0.304,1.224 -0.383,1.61 -0.078,0.385 -0.135,0.718 -0.171,1 -0.037,0.281 -0.055,0.515 -0.055,0.703 0,0.719 0.12,1.237 0.359,1.554 0.24,0.318 0.63,0.477 1.172,0.477 0.438,0 0.909,-0.174 1.414,-0.523 0.505,-0.349 1.042,-0.875 1.61,-1.579 0.567,-0.703 1.023,-1.385 1.367,-2.046 0.344,-0.662 0.625,-1.477 0.844,-2.446 l 1.484,-6.765 h 2.703 l -2.281,9.906 c -0.229,1 -0.344,1.771 -0.344,2.312 0,0.417 0.068,0.719 0.203,0.907 0.136,0.187 0.349,0.281 0.641,0.281 0.312,0 0.646,-0.128 1,-0.383 0.354,-0.255 0.854,-0.742 1.5,-1.461 l 0.89,0.875 c -0.948,1.011 -1.755,1.724 -2.421,2.141 -0.667,0.416 -1.375,0.625 -2.125,0.625 -0.646,0 -1.162,-0.214 -1.547,-0.641 -0.386,-0.427 -0.578,-0.995 -0.578,-1.703 0,-0.562 0.125,-1.177 0.375,-1.844 l -0.188,-0.062 c -1.031,1.448 -2.008,2.515 -2.93,3.203 -0.922,0.687 -1.867,1.031 -2.836,1.031 -0.968,0 -1.713,-0.278 -2.234,-0.836 -0.521,-0.557 -0.781,-1.331 -0.781,-2.32 0,-0.656 0.151,-1.589 0.453,-2.797 l 1.016,-4.094 c 0.281,-1.135 0.421,-1.937 0.421,-2.406 0,-0.417 -0.067,-0.719 -0.203,-0.906 -0.135,-0.188 -0.349,-0.281 -0.64,-0.281 -0.323,0 -0.664,0.132 -1.024,0.398 -0.359,0.266 -0.851,0.747 -1.476,1.445 l -0.891,-0.875 c 0.885,-0.896 1.552,-1.51 2,-1.843 0.448,-0.334 0.878,-0.571 1.289,-0.711 0.412,-0.141 0.872,-0.211 1.383,-0.211 z"
       fill-rule="evenodd"
       id="path229" />
    <text
       fill="#000000"
       fill-opacity="0"
       font-family="Arial, Arial_MSFontService, sans-serif"
       font-size="15.4531px"
       x="409.216"
       y="658.81201"
       id="text231">­ЮЉб</text>
    <path
       d="m 430.404,657.517 c 0.431,0 0.771,0.142 1.021,0.425 0.249,0.284 0.374,0.655 0.374,1.113 0,0.376 -0.079,0.776 -0.236,1.2 l 0.123,0.041 c 0.629,-0.937 1.254,-1.633 1.877,-2.087 0.622,-0.455 1.251,-0.682 1.886,-0.682 0.656,0 1.156,0.186 1.497,0.559 0.342,0.372 0.513,0.911 0.513,1.615 v 0.143 c 0,0.048 -0.003,0.099 -0.01,0.154 0.588,-0.834 1.174,-1.454 1.758,-1.861 0.585,-0.407 1.191,-0.61 1.82,-0.61 0.629,0 1.115,0.181 1.456,0.543 0.342,0.363 0.513,0.872 0.513,1.528 0,0.431 -0.099,1.043 -0.297,1.836 l -0.667,2.686 c -0.184,0.745 -0.277,1.272 -0.277,1.579 0,0.274 0.045,0.472 0.134,0.595 0.089,0.123 0.229,0.185 0.42,0.185 0.205,0 0.424,-0.084 0.656,-0.252 0.233,-0.167 0.561,-0.487 0.985,-0.958 l 0.584,0.574 c -0.588,0.622 -1.1,1.08 -1.538,1.374 -0.437,0.294 -0.936,0.441 -1.497,0.441 -0.444,0 -0.8,-0.159 -1.066,-0.477 -0.267,-0.318 -0.4,-0.723 -0.4,-1.215 0,-0.444 0.113,-1.097 0.338,-1.959 l 0.451,-1.773 c 0.164,-0.643 0.272,-1.118 0.323,-1.426 0.052,-0.307 0.077,-0.557 0.077,-0.748 0,-0.472 -0.078,-0.812 -0.236,-1.021 -0.157,-0.208 -0.413,-0.312 -0.769,-0.312 -0.287,0 -0.594,0.107 -0.923,0.323 -0.328,0.215 -0.673,0.55 -1.035,1.005 -0.362,0.454 -0.658,0.902 -0.887,1.343 -0.229,0.441 -0.412,0.979 -0.549,1.615 l -0.933,4.481 h -1.774 l 1.179,-5.209 c 0.144,-0.636 0.241,-1.106 0.293,-1.41 0.051,-0.304 0.077,-0.566 0.077,-0.785 0,-0.492 -0.088,-0.842 -0.262,-1.051 -0.174,-0.208 -0.446,-0.312 -0.815,-0.312 -0.26,0 -0.555,0.107 -0.887,0.323 -0.332,0.215 -0.685,0.56 -1.061,1.035 -0.376,0.475 -0.67,0.932 -0.882,1.369 -0.212,0.438 -0.39,0.971 -0.533,1.6 l -0.974,4.44 h -1.774 l 1.497,-6.501 c 0.15,-0.656 0.225,-1.162 0.225,-1.518 0,-0.273 -0.044,-0.471 -0.133,-0.595 -0.089,-0.123 -0.229,-0.184 -0.42,-0.184 -0.212,0 -0.436,0.087 -0.672,0.261 -0.236,0.175 -0.559,0.491 -0.969,0.949 l -0.585,-0.574 c 0.602,-0.629 1.12,-1.089 1.554,-1.379 0.434,-0.291 0.911,-0.436 1.43,-0.436 z"
       fill-rule="evenodd"
       id="path233" />
    <text
       fill="#000000"
       fill-opacity="0"
       font-family="Arial, Arial_MSFontService, sans-serif"
       font-size="10.1411px"
       x="427.42001"
       y="666.39001"
       id="text235">­ЮЉџ</text>
    <path
       d="m 463.511,641.306 h 2.219 v 9 h 8.516 v 2.078 h -8.516 v 9 h -2.219 v -9 h -8.515 v -2.078 h 8.515 z"
       fill-rule="evenodd"
       id="path237" />
    <text
       fill="#000000"
       fill-opacity="0"
       font-family="Arial, Arial_MSFontService, sans-serif"
       font-size="20.0781px"
       x="454.996"
       y="658.875"
       id="text239">+</text>
    <path
       d="m 498.411,645.228 c 0.75,0 1.292,0.195 1.625,0.586 0.334,0.391 0.5,0.914 0.5,1.57 0,0.5 -0.088,1.073 -0.265,1.719 -0.177,0.646 -0.427,1.328 -0.75,2.047 -0.323,0.719 -0.709,1.456 -1.157,2.211 -0.448,0.755 -0.942,1.49 -1.484,2.203 -0.542,0.714 -1.12,1.386 -1.734,2.016 -0.615,0.63 -1.253,1.179 -1.914,1.648 -0.662,0.469 -1.334,0.841 -2.016,1.117 -0.682,0.276 -1.362,0.414 -2.039,0.414 -0.302,0 -0.555,-0.075 -0.758,-0.226 -0.203,-0.151 -0.367,-0.365 -0.492,-0.641 -0.125,-0.276 -0.214,-0.601 -0.266,-0.976 -0.052,-0.375 -0.078,-0.787 -0.078,-1.235 0,-0.593 0.037,-1.229 0.109,-1.906 0.073,-0.677 0.167,-1.359 0.282,-2.047 l 0.656,-4.328 c 0.042,-0.25 0.076,-0.487 0.102,-0.711 0.026,-0.224 0.039,-0.388 0.039,-0.492 0,-0.323 -0.052,-0.589 -0.157,-0.797 -0.104,-0.208 -0.281,-0.312 -0.531,-0.312 -0.198,0 -0.411,0.059 -0.641,0.179 -0.229,0.12 -0.46,0.274 -0.695,0.461 -0.234,0.188 -0.461,0.388 -0.68,0.602 -0.218,0.213 -0.421,0.414 -0.609,0.601 l -0.75,-0.875 c 0.323,-0.333 0.667,-0.664 1.031,-0.992 0.365,-0.328 0.75,-0.625 1.157,-0.891 0.406,-0.265 0.833,-0.479 1.281,-0.64 0.448,-0.162 0.906,-0.242 1.375,-0.242 0.396,0 0.719,0.065 0.969,0.195 0.25,0.13 0.445,0.302 0.586,0.516 0.14,0.213 0.237,0.448 0.289,0.703 0.052,0.255 0.078,0.508 0.078,0.758 0,0.145 -0.005,0.286 -0.016,0.421 -0.01,0.136 -0.026,0.261 -0.047,0.375 l -0.875,5.657 c -0.094,0.593 -0.172,1.174 -0.234,1.742 -0.063,0.568 -0.094,1.07 -0.094,1.508 0,0.437 0.026,0.791 0.078,1.062 0.052,0.271 0.151,0.406 0.297,0.406 0.344,0 0.776,-0.138 1.297,-0.414 0.521,-0.276 1.068,-0.656 1.641,-1.14 0.573,-0.485 1.145,-1.058 1.718,-1.719 0.573,-0.661 1.089,-1.378 1.547,-2.148 0.459,-0.771 0.831,-1.584 1.117,-2.438 0.287,-0.854 0.43,-1.714 0.43,-2.578 0,-0.375 -0.081,-0.664 -0.242,-0.867 -0.162,-0.203 -0.414,-0.305 -0.758,-0.305 -0.437,0 -0.841,0.169 -1.211,0.508 -0.37,0.338 -0.752,0.784 -1.148,1.336 l -0.891,-0.797 c 0.25,-0.375 0.544,-0.734 0.883,-1.078 0.338,-0.344 0.698,-0.646 1.078,-0.906 0.38,-0.261 0.773,-0.469 1.18,-0.625 0.406,-0.157 0.802,-0.235 1.187,-0.235 z"
       fill-rule="evenodd"
       id="path241" />
    <text
       fill="#000000"
       fill-opacity="0"
       font-family="Arial, Arial_MSFontService, sans-serif"
       font-size="15.5312px"
       x="484.70801"
       y="658.81799"
       id="text243">­ЮЉБ</text>
    <path
       d="m 504.178,657.517 c 0.43,0 0.77,0.142 1.02,0.425 0.249,0.284 0.374,0.655 0.374,1.113 0,0.376 -0.078,0.776 -0.236,1.2 l 0.123,0.041 c 0.629,-0.937 1.255,-1.633 1.877,-2.087 0.622,-0.455 1.251,-0.682 1.887,-0.682 0.656,0 1.155,0.186 1.497,0.559 0.341,0.372 0.512,0.911 0.512,1.615 v 0.143 c 0,0.048 -0.003,0.099 -0.01,0.154 0.588,-0.834 1.174,-1.454 1.759,-1.861 0.584,-0.407 1.191,-0.61 1.82,-0.61 0.629,0 1.114,0.181 1.456,0.543 0.342,0.363 0.512,0.872 0.512,1.528 0,0.431 -0.099,1.043 -0.297,1.836 l -0.666,2.686 c -0.185,0.745 -0.277,1.272 -0.277,1.579 0,0.274 0.044,0.472 0.133,0.595 0.089,0.123 0.229,0.185 0.42,0.185 0.205,0 0.424,-0.084 0.657,-0.252 0.232,-0.167 0.56,-0.487 0.984,-0.958 l 0.584,0.574 c -0.587,0.622 -1.1,1.08 -1.538,1.374 -0.437,0.294 -0.936,0.441 -1.497,0.441 -0.444,0 -0.799,-0.159 -1.066,-0.477 -0.267,-0.318 -0.4,-0.723 -0.4,-1.215 0,-0.444 0.113,-1.097 0.338,-1.959 l 0.452,-1.773 c 0.164,-0.643 0.271,-1.118 0.323,-1.426 0.051,-0.307 0.076,-0.557 0.076,-0.748 0,-0.472 -0.078,-0.812 -0.235,-1.021 -0.158,-0.208 -0.414,-0.312 -0.769,-0.312 -0.288,0 -0.595,0.107 -0.923,0.323 -0.328,0.215 -0.674,0.55 -1.036,1.005 -0.362,0.454 -0.658,0.902 -0.887,1.343 -0.229,0.441 -0.412,0.979 -0.548,1.615 l -0.934,4.481 h -1.773 l 1.179,-5.209 c 0.143,-0.636 0.241,-1.106 0.292,-1.41 0.051,-0.304 0.077,-0.566 0.077,-0.785 0,-0.492 -0.087,-0.842 -0.262,-1.051 -0.174,-0.208 -0.446,-0.312 -0.815,-0.312 -0.26,0 -0.555,0.107 -0.887,0.323 -0.331,0.215 -0.685,0.56 -1.061,1.035 -0.376,0.475 -0.67,0.932 -0.882,1.369 -0.212,0.438 -0.389,0.971 -0.533,1.6 l -0.974,4.44 h -1.774 l 1.497,-6.501 c 0.15,-0.656 0.226,-1.162 0.226,-1.518 0,-0.273 -0.045,-0.471 -0.134,-0.595 -0.089,-0.123 -0.229,-0.184 -0.42,-0.184 -0.212,0 -0.436,0.087 -0.672,0.261 -0.236,0.175 -0.559,0.491 -0.969,0.949 l -0.584,-0.574 c 0.601,-0.629 1.119,-1.089 1.553,-1.379 0.434,-0.291 0.911,-0.436 1.431,-0.436 z"
       fill-rule="evenodd"
       id="path245" />
    <text
       fill="#000000"
       fill-opacity="0"
       font-family="Arial, Arial_MSFontService, sans-serif"
       font-size="10.1411px"
       x="501.194"
       y="666.39001"
       id="text247">­ЮЉџ</text>
    <rect
       x="831"
       y="395"
       width="75"
       height="75"
       stroke="#ededed"
       stroke-width="4"
       stroke-miterlimit="8"
       fill="none"
       id="rect249" />
    <rect
       x="831"
       y="319"
       width="75"
       height="76"
       stroke="#ededed"
       stroke-width="4"
       stroke-miterlimit="8"
       fill="none"
       id="rect251" />
    <rect
       x="1059"
       y="395"
       width="75"
       height="75"
       stroke="#ededed"
       stroke-width="4"
       stroke-miterlimit="8"
       fill="none"
       id="rect253" />
    <rect
       x="1059"
       y="319"
       width="75"
       height="76"
       stroke="#ededed"
       stroke-width="4"
       stroke-miterlimit="8"
       fill="none"
       id="rect255" />
    <rect
       x="1059"
       y="243"
       width="75"
       height="76"
       stroke="#ededed"
       stroke-width="4"
       stroke-miterlimit="8"
       fill="none"
       id="rect257" />
    <text
       fill="#ffffff"
       font-family="Calibri, Calibri_MSFontService, sans-serif"
       font-weight="400"
       font-size="24px"
       transform="translate(1080.03,274)"
       id="text265">(<tspan
   font-size="24px"
   x="7.33325"
   y="0"
   id="tspan259">-</tspan><tspan
   font-size="24px"
   x="14.6666"
   y="0"
   id="tspan261">2,</tspan><tspan
   font-size="24px"
   x="6.6666298"
   y="29"
   id="tspan263">1)</tspan></text>
    <rect
       x="1059"
       y="168"
       width="75"
       height="75"
       stroke="#ededed"
       stroke-width="4"
       stroke-miterlimit="8"
       fill="none"
       id="rect267" />
    <rect
       x="680"
       y="395"
       width="76"
       height="75"
       stroke="#ededed"
       stroke-width="4"
       stroke-miterlimit="8"
       fill="none"
       id="rect269" />
    <rect
       x="680"
       y="319"
       width="76"
       height="76"
       stroke="#ededed"
       stroke-width="4"
       stroke-miterlimit="8"
       fill="none"
       id="rect271" />
    <rect
       x="680"
       y="168"
       width="76"
       height="75"
       stroke="#ededed"
       stroke-width="4"
       stroke-miterlimit="8"
       fill="none"
       id="rect273" />
    <rect
       x="755"
       y="395"
       width="76"
       height="75"
       stroke="#ededed"
       stroke-width="4"
       stroke-miterlimit="8"
       fill="none"
       id="rect275" />
    <rect
       x="755"
       y="319"
       width="76"
       height="76"
       stroke="#ededed"
       stroke-width="4"
       stroke-miterlimit="8"
       fill="none"
       id="rect277" />
    <rect
       x="831"
       y="243"
       width="75"
       height="76"
       stroke="#ededed"
       stroke-width="4"
       stroke-miterlimit="8"
       fill="none"
       id="rect279" />
    <rect
       x="831"
       y="168"
       width="75"
       height="75"
       stroke="#ededed"
       stroke-width="4"
       stroke-miterlimit="8"
       fill="none"
       id="rect281" />
    <rect
       x="755"
       y="168"
       width="76"
       height="75"
       stroke="#ededed"
       stroke-width="4"
       stroke-miterlimit="8"
       fill="none"
       id="rect283" />
    <rect
       x="907"
       y="395"
       width="76"
       height="75"
       stroke="#ededed"
       stroke-width="4"
       stroke-miterlimit="8"
       fill="none"
       id="rect285" />
    <rect
       x="907"
       y="319"
       width="76"
       height="76"
       stroke="#ededed"
       stroke-width="4"
       stroke-miterlimit="8"
       fill="none"
       id="rect287" />
    <rect
       x="983"
       y="395"
       width="75"
       height="75"
       stroke="#ededed"
       stroke-width="4"
       stroke-miterlimit="8"
       fill="none"
       id="rect289" />
    <rect
       x="983"
       y="319"
       width="75"
       height="76"
       stroke="#ededed"
       stroke-width="4"
       stroke-miterlimit="8"
       fill="none"
       id="rect291" />
    <rect
       x="982"
       y="243"
       width="76"
       height="76"
       stroke="#ededed"
       stroke-width="4"
       stroke-miterlimit="8"
       fill="none"
       id="rect293" />
    <rect
       x="983"
       y="168"
       width="75"
       height="75"
       stroke="#ededed"
       stroke-width="4"
       stroke-miterlimit="8"
       fill="none"
       id="rect295" />
    <rect
       x="907"
       y="243"
       width="75"
       height="76"
       stroke="#ededed"
       stroke-width="4"
       stroke-miterlimit="8"
       fill="none"
       id="rect297" />
    <rect
       x="907"
       y="168"
       width="76"
       height="75"
       stroke="#ededed"
       stroke-width="4"
       stroke-miterlimit="8"
       fill="none"
       id="rect299" />
    <path
       d="M 906.79,470.362 905,168"
       stroke="#000000"
       stroke-width="4"
       stroke-miterlimit="8"
       stroke-dasharray="12, 4"
       fill="none"
       fill-rule="evenodd"
       id="path301" />
    <rect
       x="680"
       y="243"
       width="76"
       height="76"
       stroke="#ededed"
       stroke-width="4"
       stroke-miterlimit="8"
       fill="none"
       id="rect303" />
    <rect
       x="755"
       y="243"
       width="76"
       height="76"
       stroke="#ededed"
       stroke-width="4"
       stroke-miterlimit="8"
       fill="none"
       id="rect305" />
    <path
       d="m 680,242 454.03,2.771"
       stroke="#000000"
       stroke-width="4"
       stroke-miterlimit="8"
       stroke-dasharray="12, 4"
       fill="none"
       fill-rule="evenodd"
       id="path307" />
    <path
       d="M 4.21269,1.39071 152.423,149.942 149.591,152.768 1.38101,4.21588 Z M 4.38226,16.7492 -0.00654733,-0.00656188 16.7391,4.42079 c 1.0679,0.28233 1.7047,1.3769 1.4223,2.44477 -0.2823,1.06788 -1.3769,1.70469 -2.4447,1.42236 L 2.28571,4.73692 4.73165,2.2966 8.25173,15.7357 C 8.5316,16.8042 7.89228,17.8973 6.82375,18.1772 5.75523,18.4571 4.66214,17.8177 4.38226,16.7492 Z"
       fill="#44546a"
       transform="matrix(1,0,0,-1,756,396.355)"
       id="path309" />
    <text
       font-family="Calibri, Calibri_MSFontService, sans-serif"
       font-weight="400"
       font-size="32px"
       transform="translate(785.191,153)"
       id="text315">(<tspan
   font-size="32px"
   x="9.6666899"
   y="0"
   id="tspan311">-</tspan><tspan
   font-size="32px"
   x="19.5"
   y="0"
   id="tspan313">1, 1)</tspan></text>
    <path
       d="m 905.012,245.213 -70.693,-72.977 2.873,-2.783 70.693,72.977 z m -67.877,-60.401 -4.141,-16.819 16.678,4.674 c 1.064,0.298 1.684,1.402 1.386,2.466 -0.298,1.063 -1.402,1.684 -2.465,1.386 l -13.377,-3.749 2.481,-2.404 3.322,13.49 c 0.264,1.072 -0.392,2.156 -1.464,2.42 -1.073,0.264 -2.156,-0.391 -2.42,-1.464 z"
       fill="#44546a"
       id="path317" />
    <text
       font-family="Calibri, Calibri_MSFontService, sans-serif"
       font-weight="400"
       font-size="32px"
       transform="translate(711.448,422)"
       id="text327">(<tspan
   font-size="32px"
   x="9.6666899"
   y="0"
   id="tspan319">-</tspan><tspan
   font-size="32px"
   x="19.5"
   y="0"
   id="tspan321">2,</tspan><tspan
   font-size="32px"
   x="50.833302"
   y="0"
   id="tspan323">-</tspan><tspan
   font-size="32px"
   x="60.666698"
   y="0"
   id="tspan325">2)</tspan></text>
    <path
       d="m 673.5,319 c 0,-4.142 3.358,-7.5 7.5,-7.5 4.142,0 7.5,3.358 7.5,7.5 0,4.142 -3.358,7.5 -7.5,7.5 -4.142,0 -7.5,-3.358 -7.5,-7.5 z"
       stroke="#000000"
       stroke-width="3"
       stroke-miterlimit="8"
       fill="#44546a"
       fill-rule="evenodd"
       id="path329" />
    <text
       fill="#c00000"
       font-family="Calibri, Calibri_MSFontService, sans-serif"
       font-weight="400"
       font-size="32px"
       transform="translate(631.792,354)"
       id="text339">(<tspan
   font-size="32px"
   x="9.6666899"
   y="0"
   id="tspan331">-</tspan><tspan
   font-size="32px"
   x="19.5"
   y="0"
   id="tspan333">3,</tspan><tspan
   font-size="32px"
   x="50.833302"
   y="0"
   id="tspan335">-</tspan><tspan
   font-size="32px"
   x="60.666698"
   y="0"
   id="tspan337">1)</tspan></text>
    <path
       d="M 4.23475,1.31884 12.8521,9.66994 10.0684,12.5424 1.45105,4.19129 Z m 11.48985,11.13476 8.6173,8.3512 -2.7837,2.8724 -8.6173,-8.3511 z m 11.4898,11.1349 8.6174,8.3511 -2.7837,2.8724 -8.6174,-8.3511 z m 11.4898,11.1348 8.6174,8.3511 -2.7837,2.8724 -8.6174,-8.3511 z m 11.4898,11.1348 8.6174,8.3511 -2.7837,2.8724 -8.6174,-8.3511 z m 11.4899,11.1348 8.6173,8.3511 -2.7837,2.8724 -8.6173,-8.3511 z m 11.4898,11.1348 8.6174,8.3511 -2.7837,2.8724 -8.6174,-8.3511 z m 11.4898,11.1348 8.6174,8.3511 -2.7837,2.8725 -8.6174,-8.3512 z m 11.4898,11.1348 8.6177,8.3511 -2.784,2.8726 -8.6174,-8.3512 z m 11.4897,11.1347 8.618,8.351 -2.784,2.873 -8.618,-8.351 z m 11.49,11.135 8.617,8.351 -2.783,2.872 -8.618,-8.351 z m 11.49,11.135 8.617,8.351 -2.784,2.872 -8.617,-8.351 z m 11.49,11.135 8.617,8.351 -2.784,2.872 -8.617,-8.351 z m 11.489,11.134 3.458,3.351 -2.784,2.873 -3.457,-3.351 z M 4.66368,16.673 -0.00665641,-0.00645095 16.8112,4.13829 c 1.0724,0.26432 1.7276,1.348 1.4633,2.42048 -0.2643,1.07248 -1.348,1.72763 -2.4205,1.46332 L 2.36515,4.69776 4.76965,2.2166 8.51553,15.5945 c 0.29783,1.0637 -0.323,2.1674 -1.38666,2.4652 -1.06366,0.2978 -2.16736,-0.323 -2.46519,-1.3867 z"
       fill="#c00000"
       transform="matrix(1,0,0,-1,679,318.858)"
       id="path341" />
    <text
       font-family="'Cambria Math', 'Cambria Math_MSFontService', sans-serif"
       font-weight="400"
       font-size="32px"
       transform="translate(789.383,604)"
       id="text345">­ЮЉб<tspan
   font-size="32px"
   x="19.1467"
   y="0"
   id="tspan343" /></text>
    <path
       d="m 811.603,579.063 3.921,3.39 v 0.907 l -3.921,3.39 -0.829,-0.937 2.5,-2.172 h -6.422 -3.109 -0.931 -4.041 -1.294 -4.04 -4.041 v -1.469 h 4.041 4.04 1.294 4.041 0.931 3.109 6.422 l -2.5,-2.172 z"
       fill-rule="evenodd"
       id="path347" />
    <text
       font-family="Calibri, Calibri_MSFontService, sans-serif"
       font-weight="400"
       font-size="32px"
       transform="translate(815.53,604)"
       id="text353">Рѕњ<tspan
   font-family="'Cambria Math', 'Cambria Math_MSFontService', sans-serif"
   font-size="32px"
   x="16"
   y="0"
   id="tspan349" /><tspan
   font-family="'Cambria Math', 'Cambria Math_MSFontService', sans-serif"
   font-size="32px"
   x="23"
   y="0"
   id="tspan351">­ЮЉБ</tspan></text>
    <path
       d="m 11.7812,-20.8906 -3.92182,3.3906 -0.82813,-0.9375 2.5,-2.1719 H 0 v -1.4687 h 9.53125 l -2.5,-2.1719 0.82813,-0.9375 3.92182,3.3906 z"
       transform="translate(843.97,604)"
       id="path355" />
    <text
       font-family="'Cambria Math', 'Cambria Math_MSFontService', sans-serif"
       font-weight="400"
       font-size="32px"
       transform="translate(856.803,604)"
       id="text359"><tspan
   font-family="Calibri, Calibri_MSFontService, sans-serif"
   font-size="32px"
   x="7"
   y="0"
   id="tspan357">=</tspan> ­ЮЉб</text>
    <path
       d="m 901.209,579.063 3.922,3.39 v 0.907 l -3.922,3.39 -0.828,-0.937 2.5,-2.172 h -5.023 -4.508 -4.867 v -1.469 h 4.867 4.508 5.023 l -2.5,-2.172 z"
       fill-rule="evenodd"
       id="path361" />
    <text
       font-family="'Cambria Math', 'Cambria Math_MSFontService', sans-serif"
       font-weight="400"
       font-size="32px"
       transform="translate(913.063,604)"
       id="text371">+<tspan
   font-size="32px"
   x="30.946699"
   y="0"
   id="tspan363">(</tspan><tspan
   font-family="Calibri, Calibri_MSFontService, sans-serif"
   font-size="32px"
   x="44.279999"
   y="0"
   id="tspan365">Рѕњ</tspan>1<tspan
   font-size="32px"
   x="77.946701"
   y="0"
   id="tspan367">)</tspan><tspan
   font-size="32px"
   x="91.279999"
   y="0"
   id="tspan369">­ЮЉБ</tspan></text>
    <path
       d="m 11.7812,-20.8906 -3.92182,3.3906 -0.82813,-0.9375 2.5,-2.1719 H 0 v -1.4687 h 9.53125 l -2.5,-2.1719 0.82813,-0.9375 3.92182,3.3906 z"
       transform="translate(1009.78,604)"
       id="path373" />
    <text
       font-family="'Cambria Math', 'Cambria Math_MSFontService', sans-serif"
       font-weight="400"
       font-size="24px"
       transform="translate(254.906,377)"
       id="text375">­ЮЉб</text>
    <path
       d="m 265.793,357.812 2.942,2.543 v 0.68 l -2.942,2.543 -0.621,-0.703 1.875,-1.629 h -3.937 -3.211 -3.82 v -1.102 h 3.82 3.211 3.937 l -1.875,-1.629 z"
       fill-rule="evenodd"
       id="path377" />
    <text
       font-family="'Cambria Math', 'Cambria Math_MSFontService', sans-serif"
       font-weight="400"
       font-size="24px"
       transform="translate(269.346,377)"
       id="text381"><tspan
         font-size="24px"
         x="130.834"
         y="-36"
         id="tspan379">­ЮЉБ</tspan></text>
    <path
       d="m 8.83594,-15.668 -2.94141,2.543 -0.62109,-0.7031 1.875,-1.6289 H 0 v -1.1016 h 7.14844 l -1.875,-1.6289 0.62109,-0.7031 2.94141,2.5429 z"
       transform="translate(404.253,341)"
       id="path383" />
    <text
       font-family="Calibri, Calibri_MSFontService, sans-serif"
       font-weight="400"
       font-size="24px"
       transform="translate(826.258,355)"
       id="text387">Рѕњ<tspan
   font-family="'Cambria Math', 'Cambria Math_MSFontService', sans-serif"
   font-size="24px"
   x="12"
   y="0"
   id="tspan385">­ЮЉБ</tspan></text>
    <path
       d="m 8.83594,-15.668 -2.94141,2.543 -0.62109,-0.7031 1.875,-1.6289 H 0 v -1.1016 h 7.14844 l -1.875,-1.6289 0.62109,-0.7031 2.94141,2.5429 z"
       transform="translate(842.331,355)"
       id="path389" />
    <text
       font-family="'Cambria Math', 'Cambria Math_MSFontService', sans-serif"
       font-weight="400"
       font-size="24px"
       transform="translate(848.261,227)"
       id="text391">­ЮЉб</text>
    <path
       d="m 859.148,208.088 2.942,2.543 v 0.68 l -2.942,2.543 -0.621,-0.703 1.875,-1.629 h -3.937 -3.211 -3.82 v -1.102 h 3.82 3.211 3.937 l -1.875,-1.628 z"
       fill-rule="evenodd"
       id="path393" />
    <text
       font-family="'Cambria Math', 'Cambria Math_MSFontService', sans-serif"
       font-weight="400"
       font-size="24px"
       transform="translate(862.701,227)"
       id="text395" />
  </g>
</svg>
