<?xml version="1.0" encoding="UTF-8" standalone="no"?>
<svg
   width="1280"
   height="480"
   overflow="hidden"
   version="1.1"
   id="svg205"
   sodipodi:docname="linear_systems-injective_transformations.svg"
   inkscape:version="1.2 (dc2aedaf03, 2022-05-15)"
   xmlns:inkscape="http://www.inkscape.org/namespaces/inkscape"
   xmlns:sodipodi="http://sodipodi.sourceforge.net/DTD/sodipodi-0.dtd"
   xmlns="http://www.w3.org/2000/svg"
   xmlns:svg="http://www.w3.org/2000/svg">
  <sodipodi:namedview
     id="namedview207"
     pagecolor="#ffffff"
     bordercolor="#000000"
     borderopacity="0.25"
     inkscape:showpageshadow="2"
     inkscape:pageopacity="0.0"
     inkscape:pagecheckerboard="0"
     inkscape:deskcolor="#d1d1d1"
     showgrid="false"
     inkscape:zoom="0.92709556"
     inkscape:cx="389.92744"
     inkscape:cy="360.26491"
     inkscape:window-width="2880"
     inkscape:window-height="1514"
     inkscape:window-x="3829"
     inkscape:window-y="-11"
     inkscape:window-maximized="1"
     inkscape:current-layer="svg205" />
  <defs
     id="defs5">
    <clipPath
       id="clip0">
      <rect
         x="0"
         y="0"
         width="1280"
         height="720"
         id="rect2" />
    </clipPath>
  </defs>
  <g
     clip-path="url(#clip0)"
     id="g203"
     transform="translate(-1.0786375,-29.123212)">
    <rect
       x="0"
       y="0"
       width="1280"
       height="720"
       fill="#ffffff"
       id="rect7" />
    <path
       d="M 783,259.178 C 783,253.557 787.557,249 793.178,249 h 71.644 c 5.621,0 10.178,4.557 10.178,10.178 v 58.644 C 875,323.443 870.443,328 864.822,328 H 793.178 C 787.557,328 783,323.443 783,317.822 Z"
       fill="#e2f0d9"
       fill-rule="evenodd"
       id="path9" />
    <path
       d="m 883,260.333 c 0,-3.497 2.836,-6.333 6.333,-6.333 h 25.334 c 3.497,0 6.333,2.836 6.333,6.333 v 55.334 c 0,3.497 -2.836,6.333 -6.333,6.333 H 889.333 C 885.836,322 883,319.164 883,315.667 Z"
       fill="#385723"
       fill-rule="evenodd"
       fill-opacity="0.4"
       id="path11" />
    <text
       fill="#385723"
       font-family="'Cambria Math', 'Cambria Math_MSFontService', sans-serif"
       font-weight="400"
       font-size="24px"
       transform="translate(794.78,236)"
       id="text15">ğ‘£<tspan
   font-size="16px"
   x="13"
   y="5"
   id="tspan13">1</tspan></text>
    <path
       d="m 813.662,216.657 2.941,2.543 v 0.68 l -2.941,2.543 -0.622,-0.703 1.875,-1.629 h -4.81 -2.338 -1.802 -2.891 -1.256 -2.884 -4.147 v -1.102 h 4.147 2.884 1.256 2.891 1.802 2.338 4.81 l -1.875,-1.628 z"
       fill="#385723"
       fill-rule="evenodd"
       id="path17" />
    <text
       fill="#385723"
       font-family="'Cambria Math', 'Cambria Math_MSFontService', sans-serif"
       font-weight="400"
       font-size="24px"
       transform="translate(845.31,236)"
       id="text21">ğ‘£<tspan
   font-size="16px"
   x="13"
   y="5"
   id="tspan19">2</tspan></text>
    <path
       d="m 864.191,216.657 2.942,2.543 v 0.68 l -2.942,2.543 -0.621,-0.703 1.875,-1.629 h -4.81 -2.338 -1.802 -2.891 -1.256 -2.884 -4.147 v -1.102 h 4.147 2.884 1.256 2.891 1.802 2.338 4.81 l -1.875,-1.628 z"
       fill="#385723"
       fill-rule="evenodd"
       id="path23" />
    <path
       d="M 229,260.981 C 229,254.364 234.364,249 240.981,249 h 69.038 c 6.617,0 11.981,5.364 11.981,11.981 v 83.038 C 322,350.636 316.636,356 310.019,356 H 240.981 C 234.364,356 229,350.636 229,344.019 Z"
       fill="#e2f0d9"
       fill-rule="evenodd"
       id="path25" />
    <text
       font-family="Calibri, Calibri_MSFontService, sans-serif"
       font-weight="400"
       font-size="43px"
       transform="translate(366.104,94)"
       id="text31">Injective<tspan
   font-size="43px"
   x="156.58"
   y="0"
   id="tspan27">linear</tspan><tspan
   font-size="43px"
   x="264.91299"
   y="0"
   id="tspan29">transformation</tspan>s</text>
    <path
       d="m 312.08,253.768 h 8.5 v 94.906 h -8.5 v -1.531 h 5.282 v -91.844 h -5.282 z m -77.24,0 h 8.5 v 1.531 h -5.281 v 91.844 h 5.281 v 1.531 h -8.5 z"
       fill-rule="evenodd"
       id="path33" />
    <path
       d="m 254.138,252.797 h 0.859 c -0.062,1 -0.094,2.385 -0.094,4.156 v 13.344 c 0,0.604 0.034,1.059 0.102,1.367 0.068,0.307 0.187,0.557 0.359,0.75 0.172,0.192 0.42,0.344 0.742,0.453 0.323,0.109 0.73,0.193 1.219,0.25 0.49,0.057 1.136,0.096 1.938,0.117 v 1.141 h -11.547 v -1.141 c 1.156,-0.052 1.982,-0.122 2.476,-0.211 0.495,-0.088 0.873,-0.221 1.133,-0.398 0.261,-0.177 0.451,-0.427 0.57,-0.75 0.12,-0.323 0.18,-0.849 0.18,-1.578 v -12.672 c 0,-0.417 -0.073,-0.722 -0.219,-0.914 -0.145,-0.193 -0.359,-0.289 -0.64,-0.289 -0.334,0 -0.807,0.171 -1.422,0.515 -0.615,0.344 -1.375,0.818 -2.281,1.422 l -0.688,-1.203 z"
       fill-rule="evenodd"
       id="path35" />
    <text
       fill="#000000"
       fill-opacity="0"
       font-family="Arial, Arial_MSFontService, sans-serif"
       font-size="21.5781px"
       x="246.825"
       y="271.677"
       id="text37">1</text>
    <path
       d="m 302.57,254.125 c -0.719,0 -1.32,0.213 -1.805,0.64 -0.484,0.427 -0.875,1.042 -1.172,1.844 -0.296,0.802 -0.507,1.779 -0.632,2.93 -0.125,1.151 -0.188,2.45 -0.188,3.898 0,3.396 0.315,5.888 0.945,7.477 0.631,1.588 1.607,2.383 2.93,2.383 1.261,0 2.195,-0.748 2.805,-2.243 0.609,-1.494 0.914,-3.81 0.914,-6.945 0,-2.396 -0.156,-4.336 -0.469,-5.82 -0.312,-1.485 -0.747,-2.55 -1.305,-3.196 -0.557,-0.645 -1.231,-0.968 -2.023,-0.968 z m 0.078,-1.328 c 2.281,0 3.979,0.88 5.094,2.64 1.114,1.761 1.672,4.422 1.672,7.985 0,3.687 -0.597,6.476 -1.789,8.367 -1.193,1.89 -2.935,2.836 -5.227,2.836 -2.25,0 -3.924,-0.886 -5.023,-2.657 -1.099,-1.77 -1.649,-4.458 -1.649,-8.062 0,-1.917 0.17,-3.573 0.508,-4.969 0.339,-1.396 0.813,-2.549 1.422,-3.461 0.609,-0.911 1.341,-1.586 2.195,-2.023 0.854,-0.438 1.787,-0.656 2.797,-0.656 z"
       fill-rule="evenodd"
       id="path39" />
    <text
       fill="#000000"
       fill-opacity="0"
       font-family="Arial, Arial_MSFontService, sans-serif"
       font-size="21.8281px"
       x="295.72601"
       y="271.896"
       id="text41">0</text>
    <path
       d="m 252.903,291.638 c -0.718,0 -1.32,0.214 -1.804,0.641 -0.485,0.427 -0.875,1.041 -1.172,1.843 -0.297,0.802 -0.508,1.779 -0.633,2.93 -0.125,1.151 -0.188,2.451 -0.188,3.899 0,3.395 0.316,5.888 0.946,7.476 0.63,1.589 1.607,2.383 2.929,2.383 1.261,0 2.196,-0.748 2.805,-2.242 0.61,-1.495 0.914,-3.81 0.914,-6.946 0,-2.395 -0.156,-4.336 -0.469,-5.82 -0.312,-1.484 -0.747,-2.549 -1.304,-3.195 -0.558,-0.646 -1.232,-0.969 -2.024,-0.969 z m 0.078,-1.328 c 2.282,0 3.98,0.88 5.094,2.641 1.115,1.76 1.672,4.421 1.672,7.984 0,3.687 -0.596,6.476 -1.789,8.367 -1.193,1.891 -2.935,2.836 -5.227,2.836 -2.25,0 -3.924,-0.885 -5.023,-2.656 -1.099,-1.771 -1.648,-4.459 -1.648,-8.063 0,-1.916 0.169,-3.573 0.507,-4.968 0.339,-1.396 0.813,-2.55 1.422,-3.461 0.61,-0.912 1.341,-1.586 2.196,-2.024 0.854,-0.437 1.786,-0.656 2.796,-0.656 z"
       fill-rule="evenodd"
       id="path43" />
    <text
       fill="#000000"
       fill-opacity="0"
       font-family="Arial, Arial_MSFontService, sans-serif"
       font-size="21.8281px"
       x="246.06"
       y="309.41"
       id="text45">0</text>
    <path
       d="m 303.804,290.31 h 0.86 c -0.063,1 -0.094,2.385 -0.094,4.156 v 13.344 c 0,0.604 0.034,1.06 0.102,1.367 0.067,0.307 0.187,0.557 0.359,0.75 0.172,0.193 0.419,0.344 0.742,0.453 0.323,0.11 0.729,0.193 1.219,0.25 0.489,0.058 1.135,0.097 1.937,0.117 v 1.141 h -11.547 v -1.141 c 1.157,-0.052 1.982,-0.122 2.477,-0.211 0.495,-0.088 0.872,-0.221 1.133,-0.398 0.26,-0.177 0.45,-0.427 0.57,-0.75 0.12,-0.323 0.18,-0.849 0.18,-1.578 v -12.672 c 0,-0.417 -0.073,-0.721 -0.219,-0.914 -0.146,-0.193 -0.359,-0.289 -0.641,-0.289 -0.333,0 -0.807,0.172 -1.421,0.516 -0.615,0.343 -1.375,0.817 -2.282,1.421 l -0.687,-1.203 z"
       fill-rule="evenodd"
       id="path47" />
    <text
       fill="#000000"
       fill-opacity="0"
       font-family="Arial, Arial_MSFontService, sans-serif"
       font-size="21.5781px"
       x="296.492"
       y="309.19101"
       id="text49">1</text>
    <path
       d="m 252.903,329.151 c -0.718,0 -1.32,0.214 -1.804,0.641 -0.485,0.427 -0.875,1.042 -1.172,1.844 -0.297,0.802 -0.508,1.778 -0.633,2.929 -0.125,1.151 -0.188,2.451 -0.188,3.899 0,3.396 0.316,5.888 0.946,7.476 0.63,1.589 1.607,2.383 2.929,2.383 1.261,0 2.196,-0.747 2.805,-2.242 0.61,-1.495 0.914,-3.81 0.914,-6.945 0,-2.396 -0.156,-4.336 -0.469,-5.821 -0.312,-1.484 -0.747,-2.549 -1.304,-3.195 -0.558,-0.646 -1.232,-0.969 -2.024,-0.969 z m 0.078,-1.328 c 2.282,0 3.98,0.88 5.094,2.641 1.115,1.76 1.672,4.422 1.672,7.984 0,3.688 -0.596,6.477 -1.789,8.367 -1.193,1.891 -2.935,2.836 -5.227,2.836 -2.25,0 -3.924,-0.885 -5.023,-2.656 -1.099,-1.771 -1.648,-4.458 -1.648,-8.062 0,-1.917 0.169,-3.573 0.507,-4.969 0.339,-1.396 0.813,-2.55 1.422,-3.461 0.61,-0.912 1.341,-1.586 2.196,-2.024 0.854,-0.437 1.786,-0.656 2.796,-0.656 z"
       fill-rule="evenodd"
       id="path51" />
    <text
       fill="#000000"
       fill-opacity="0"
       font-family="Arial, Arial_MSFontService, sans-serif"
       font-size="21.8281px"
       x="246.06"
       y="346.923"
       id="text53">0</text>
    <path
       d="m 302.57,329.151 c -0.719,0 -1.32,0.214 -1.805,0.641 -0.484,0.427 -0.875,1.042 -1.172,1.844 -0.296,0.802 -0.507,1.778 -0.632,2.929 -0.125,1.151 -0.188,2.451 -0.188,3.899 0,3.396 0.315,5.888 0.945,7.476 0.631,1.589 1.607,2.383 2.93,2.383 1.261,0 2.195,-0.747 2.805,-2.242 0.609,-1.495 0.914,-3.81 0.914,-6.945 0,-2.396 -0.156,-4.336 -0.469,-5.821 -0.312,-1.484 -0.747,-2.549 -1.305,-3.195 -0.557,-0.646 -1.231,-0.969 -2.023,-0.969 z m 0.078,-1.328 c 2.281,0 3.979,0.88 5.094,2.641 1.114,1.76 1.672,4.422 1.672,7.984 0,3.688 -0.597,6.477 -1.789,8.367 -1.193,1.891 -2.935,2.836 -5.227,2.836 -2.25,0 -3.924,-0.885 -5.023,-2.656 -1.099,-1.771 -1.649,-4.458 -1.649,-8.062 0,-1.917 0.17,-3.573 0.508,-4.969 0.339,-1.396 0.813,-2.55 1.422,-3.461 0.609,-0.912 1.341,-1.586 2.195,-2.024 0.854,-0.437 1.787,-0.656 2.797,-0.656 z"
       fill-rule="evenodd"
       id="path55" />
    <text
       fill="#000000"
       fill-opacity="0"
       font-family="Arial, Arial_MSFontService, sans-serif"
       font-size="21.8281px"
       x="295.72601"
       y="346.923"
       id="text57">0</text>
    <path
       d="m 360.48,274.975 h 7.438 v 52.5 h -7.438 v -1.359 h 4.547 v -49.782 h -4.547 z m -27.456,0 h 7.438 v 1.359 h -4.547 v 49.782 h 4.547 v 1.359 h -7.438 z"
       fill-rule="evenodd"
       id="path59" />
    <path
       d="m 351.18,275.973 c -1.073,0 -2.037,0.432 -2.891,1.297 -0.854,0.864 -1.521,2.023 -2,3.476 -0.479,1.453 -0.719,2.904 -0.719,4.352 0,1.083 0.149,1.893 0.446,2.429 0.296,0.537 0.794,0.805 1.492,0.805 0.687,0 1.362,-0.297 2.023,-0.891 0.662,-0.593 1.344,-1.44 2.047,-2.539 0.703,-1.099 1.201,-2.367 1.492,-3.804 l 0.141,-0.672 c 0.094,-0.427 0.156,-0.797 0.187,-1.11 0.032,-0.312 0.047,-0.651 0.047,-1.015 0,-0.802 -0.172,-1.391 -0.515,-1.766 -0.344,-0.375 -0.928,-0.562 -1.75,-0.562 z m -0.313,-1.235 c 0.677,0 1.31,0.076 1.899,0.227 0.588,0.151 1.195,0.419 1.82,0.805 l 1.437,-1.032 1,0.25 -2.297,9.907 c -0.229,0.989 -0.343,1.76 -0.343,2.312 0,0.417 0.067,0.719 0.203,0.906 0.135,0.188 0.349,0.282 0.64,0.282 0.313,0 0.646,-0.128 1,-0.383 0.355,-0.256 0.855,-0.742 1.5,-1.461 l 0.891,0.875 c -0.937,1 -1.737,1.711 -2.398,2.133 -0.662,0.421 -1.378,0.632 -2.149,0.632 -0.646,0 -1.161,-0.213 -1.547,-0.64 -0.385,-0.427 -0.578,-0.995 -0.578,-1.703 0,-0.573 0.12,-1.183 0.36,-1.828 l -0.204,-0.063 c -1,1.458 -1.947,2.526 -2.843,3.203 -0.896,0.677 -1.844,1.016 -2.844,1.016 -1.146,0 -2.034,-0.433 -2.664,-1.297 -0.63,-0.865 -0.945,-2.078 -0.945,-3.641 0,-1.791 0.351,-3.513 1.054,-5.164 0.703,-1.651 1.67,-2.953 2.899,-3.906 1.229,-0.953 2.599,-1.43 4.109,-1.43 z"
       fill-rule="evenodd"
       id="path61" />
    <text
       fill="#000000"
       fill-opacity="0"
       font-family="Arial, Arial_MSFontService, sans-serif"
       font-size="15.4531px"
       x="342.80499"
       y="288.26001"
       id="text63">ğ‘</text>
    <path
       d="m 352.341,314.095 c -0.5,0 -0.992,0.159 -1.476,0.477 -0.485,0.318 -1.024,0.844 -1.618,1.578 -0.593,0.734 -1.078,1.487 -1.453,2.258 -0.375,0.771 -0.692,1.755 -0.953,2.953 l -0.14,0.656 c -0.157,0.729 -0.235,1.438 -0.235,2.125 0,0.823 0.18,1.417 0.539,1.781 0.36,0.365 0.956,0.547 1.789,0.547 0.427,0 0.834,-0.07 1.219,-0.211 0.385,-0.14 0.779,-0.372 1.18,-0.695 0.401,-0.323 0.781,-0.747 1.14,-1.273 0.36,-0.526 0.69,-1.175 0.993,-1.946 0.302,-0.771 0.536,-1.596 0.703,-2.476 0.166,-0.88 0.25,-1.722 0.25,-2.524 0,-1.083 -0.154,-1.896 -0.461,-2.437 -0.308,-0.542 -0.8,-0.813 -1.477,-0.813 z m -2.734,-8.984 h 0.906 l -2.75,10.937 0.203,0.063 c 1.011,-1.354 1.959,-2.333 2.844,-2.938 0.885,-0.604 1.771,-0.906 2.656,-0.906 1.136,0 2.018,0.432 2.649,1.297 0.63,0.865 0.945,2.083 0.945,3.656 0,1.719 -0.346,3.409 -1.039,5.071 -0.693,1.661 -1.654,2.979 -2.883,3.953 -1.229,0.974 -2.604,1.461 -4.125,1.461 -1.385,0 -2.615,-0.339 -3.687,-1.016 l -1.438,1.016 -1,-0.25 4.047,-17.86 c 0.24,-1.062 0.359,-1.833 0.359,-2.312 0,-0.438 -0.132,-0.745 -0.398,-0.922 -0.266,-0.177 -0.742,-0.276 -1.43,-0.297 l 0.188,-0.812 z"
       fill-rule="evenodd"
       id="path65" />
    <text
       fill="#000000"
       fill-opacity="0"
       font-family="Arial, Arial_MSFontService, sans-serif"
       font-size="22.5938px"
       x="342.888"
       y="324.88"
       id="text67">ğ‘</text>
    <text
       font-family="Calibri, Calibri_MSFontService, sans-serif"
       font-weight="400"
       font-size="32px"
       transform="translate(378.631,310)"
       id="text69">=</text>
    <path
       d="m 433.3,253.768 h 8.5 v 94.906 h -8.5 v -1.531 h 5.282 V 255.299 H 433.3 Z m -27.94,0 h 8.5 v 1.531 h -5.281 v 91.844 h 5.281 v 1.531 h -8.5 z"
       fill-rule="evenodd"
       id="path71" />
    <path
       d="m 426.025,264.063 c -2.114,0.021 -3.698,0.302 -4.75,0.844 -1.052,0.541 -1.578,1.359 -1.578,2.453 0,0.594 0.12,1.062 0.359,1.406 0.24,0.344 0.542,0.581 0.907,0.711 0.364,0.13 0.797,0.195 1.297,0.195 0.708,0 1.351,-0.171 1.929,-0.515 0.578,-0.344 1.029,-0.781 1.352,-1.313 0.323,-0.531 0.484,-1.057 0.484,-1.578 z m -1.687,-8.078 c 1.031,0 1.859,0.164 2.484,0.492 0.625,0.328 1.094,0.831 1.406,1.508 0.313,0.677 0.469,1.698 0.469,3.062 v 5.438 c 0,0.771 0.005,1.315 0.016,1.633 0.01,0.317 0.041,0.612 0.093,0.883 0.053,0.27 0.131,0.486 0.235,0.648 0.104,0.161 0.258,0.299 0.461,0.414 0.203,0.115 0.534,0.234 0.992,0.359 v 0.766 h -4.281 l 0.078,-2.234 -0.235,-0.063 c -0.906,0.927 -1.757,1.583 -2.554,1.969 -0.797,0.385 -1.643,0.578 -2.539,0.578 -0.792,0 -1.49,-0.154 -2.094,-0.461 -0.604,-0.307 -1.068,-0.74 -1.391,-1.297 -0.323,-0.557 -0.484,-1.2 -0.484,-1.929 0,-1.521 0.753,-2.696 2.258,-3.524 1.505,-0.828 3.763,-1.31 6.773,-1.445 v -1.016 c 0,-1.083 -0.104,-1.937 -0.312,-2.562 -0.209,-0.625 -0.537,-1.084 -0.985,-1.375 -0.448,-0.292 -1.047,-0.438 -1.797,-0.438 -0.812,0 -1.466,0.214 -1.961,0.641 -0.494,0.427 -0.867,1.067 -1.117,1.922 h -2.047 v -2.032 c 1,-0.52 1.834,-0.903 2.5,-1.148 0.667,-0.245 1.334,-0.438 2,-0.578 0.667,-0.141 1.344,-0.211 2.032,-0.211 z"
       fill-rule="evenodd"
       id="path73" />
    <text
       fill="#000000"
       fill-opacity="0"
       font-family="Arial, Arial_MSFontService, sans-serif"
       font-size="15.4531px"
       x="416.99399"
       y="269.50601"
       id="text75">a</text>
    <path
       d="m 425.455,295.342 c -0.5,0 -0.993,0.159 -1.477,0.477 -0.484,0.317 -1.023,0.843 -1.617,1.578 -0.594,0.734 -1.078,1.487 -1.453,2.257 -0.375,0.771 -0.693,1.756 -0.953,2.954 l -0.141,0.656 c -0.156,0.729 -0.234,1.437 -0.234,2.125 0,0.823 0.179,1.417 0.539,1.781 0.359,0.365 0.955,0.547 1.789,0.547 0.427,0 0.833,-0.07 1.218,-0.211 0.386,-0.141 0.779,-0.372 1.18,-0.695 0.401,-0.323 0.781,-0.748 1.141,-1.274 0.359,-0.526 0.69,-1.174 0.992,-1.945 0.302,-0.771 0.536,-1.596 0.703,-2.477 0.167,-0.88 0.25,-1.721 0.25,-2.523 0,-1.083 -0.154,-1.896 -0.461,-2.438 -0.307,-0.541 -0.799,-0.812 -1.476,-0.812 z m -2.735,-8.984 h 0.906 l -2.75,10.937 0.204,0.063 c 1.01,-1.355 1.958,-2.334 2.843,-2.938 0.886,-0.604 1.771,-0.906 2.657,-0.906 1.135,0 2.018,0.432 2.648,1.297 0.63,0.864 0.945,2.083 0.945,3.656 0,1.719 -0.346,3.409 -1.039,5.07 -0.692,1.662 -1.653,2.979 -2.883,3.953 -1.229,0.974 -2.604,1.461 -4.125,1.461 -1.385,0 -2.614,-0.338 -3.687,-1.015 l -1.438,1.015 -1,-0.25 4.047,-17.859 c 0.24,-1.063 0.36,-1.833 0.36,-2.313 0,-0.437 -0.133,-0.744 -0.399,-0.921 -0.265,-0.177 -0.742,-0.276 -1.429,-0.297 l 0.187,-0.813 z"
       fill-rule="evenodd"
       id="path77" />
    <text
       fill="#000000"
       fill-opacity="0"
       font-family="Arial, Arial_MSFontService, sans-serif"
       font-size="22.5938px"
       x="416.00101"
       y="306.12701"
       id="text79">ğ‘</text>
    <path
       d="m 423.603,325.965 c -0.718,0 -1.32,0.213 -1.804,0.64 -0.485,0.427 -0.875,1.042 -1.172,1.844 -0.297,0.802 -0.508,1.779 -0.633,2.93 -0.125,1.151 -0.188,2.45 -0.188,3.898 0,3.396 0.316,5.888 0.946,7.477 0.63,1.588 1.607,2.383 2.929,2.383 1.261,0 2.196,-0.748 2.805,-2.243 0.609,-1.494 0.914,-3.81 0.914,-6.945 0,-2.396 -0.156,-4.336 -0.469,-5.82 -0.312,-1.485 -0.747,-2.55 -1.304,-3.196 -0.558,-0.645 -1.232,-0.968 -2.024,-0.968 z m 0.078,-1.328 c 2.282,0 3.98,0.88 5.094,2.64 1.115,1.761 1.672,4.422 1.672,7.985 0,3.687 -0.596,6.476 -1.789,8.367 -1.193,1.89 -2.935,2.836 -5.227,2.836 -2.25,0 -3.924,-0.886 -5.023,-2.657 -1.099,-1.77 -1.648,-4.458 -1.648,-8.062 0,-1.917 0.169,-3.573 0.507,-4.969 0.339,-1.396 0.813,-2.549 1.422,-3.461 0.61,-0.911 1.341,-1.586 2.196,-2.023 0.854,-0.438 1.786,-0.656 2.796,-0.656 z"
       fill-rule="evenodd"
       id="path81" />
    <text
       fill="#000000"
       fill-opacity="0"
       font-family="Arial, Arial_MSFontService, sans-serif"
       font-size="21.8281px"
       x="416.76001"
       y="343.73599"
       id="text83">0</text>
    <text
       font-family="Calibri, Calibri_MSFontService, sans-serif"
       font-weight="400"
       font-size="43px"
       transform="translate(248.925,178)"
       id="text107">T: <tspan
   font-family="Cambria, Cambria_MSFontService, sans-serif"
   font-size="43px"
   x="39.206699"
   y="0"
   id="tspan85">R</tspan><tspan
   font-family="Cambria, Cambria_MSFontService, sans-serif"
   font-size="28px"
   x="65.706703"
   y="-13"
   id="tspan87">n</tspan><tspan
   font-family="'Cambria Math', 'Cambria Math_MSFontService', sans-serif"
   font-size="43px"
   x="91.206703"
   y="0"
   id="tspan89">â†’</tspan><tspan
   font-family="Cambria, Cambria_MSFontService, sans-serif"
   font-size="43px"
   x="136.707"
   y="0"
   id="tspan91">R</tspan><tspan
   font-family="Cambria, Cambria_MSFontService, sans-serif"
   font-size="28px"
   x="163.207"
   y="-13"
   id="tspan93">m</tspan><tspan
   font-size="43px"
   x="551.87299"
   y="0"
   id="tspan95">T:</tspan><tspan
   font-family="Cambria, Cambria_MSFontService, sans-serif"
   font-size="43px"
   x="591.07898"
   y="0"
   id="tspan97">R</tspan><tspan
   font-family="Cambria, Cambria_MSFontService, sans-serif"
   font-size="28px"
   x="617.57898"
   y="-13"
   id="tspan99">n</tspan><tspan
   font-family="'Cambria Math', 'Cambria Math_MSFontService', sans-serif"
   font-size="43px"
   x="643.07898"
   y="0"
   id="tspan101">â†’</tspan><tspan
   font-family="Cambria, Cambria_MSFontService, sans-serif"
   font-size="43px"
   x="688.57898"
   y="0"
   id="tspan103">R</tspan><tspan
   font-family="Cambria, Cambria_MSFontService, sans-serif"
   font-size="28px"
   x="715.07898"
   y="-13"
   id="tspan105">n</tspan></text>
    <path
       d="m 406,253.167 c 0,-3.406 2.761,-6.167 6.167,-6.167 h 24.666 c 3.406,0 6.167,2.761 6.167,6.167 v 96.666 c 0,3.406 -2.761,6.167 -6.167,6.167 H 412.167 C 408.761,356 406,353.239 406,349.833 Z"
       fill="#385723"
       fill-rule="evenodd"
       fill-opacity="0.4"
       id="path109" />
    <path
       d="m 332,275.333 c 0,-3.497 2.836,-6.333 6.333,-6.333 h 25.334 c 3.497,0 6.333,2.836 6.333,6.333 v 55.334 c 0,3.497 -2.836,6.333 -6.333,6.333 H 338.333 C 334.836,337 332,334.164 332,330.667 Z"
       fill="#385723"
       fill-rule="evenodd"
       fill-opacity="0.4"
       id="path111" />
    <text
       fill="#385723"
       font-family="'Cambria Math', 'Cambria Math_MSFontService', sans-serif"
       font-weight="400"
       font-size="24px"
       transform="translate(244.374,236)"
       id="text115">ğ‘£<tspan
   font-size="16px"
   x="13"
   y="5"
   id="tspan113">1</tspan></text>
    <path
       d="m 263.255,216.641 2.942,2.543 v 0.68 l -2.942,2.542 -0.621,-0.703 1.875,-1.629 h -4.81 -2.338 -1.802 -2.892 -1.255 -2.885 -4.146 v -1.101 h 4.146 2.885 1.255 2.892 1.802 2.338 4.81 l -1.875,-1.629 z"
       fill="#385723"
       fill-rule="evenodd"
       id="path117" />
    <text
       fill="#385723"
       font-family="'Cambria Math', 'Cambria Math_MSFontService', sans-serif"
       font-weight="400"
       font-size="24px"
       transform="translate(291.723,236)"
       id="text121">ğ‘£<tspan
   font-size="16px"
   x="13"
   y="5"
   id="tspan119">2</tspan></text>
    <path
       d="m 310.604,216.641 2.942,2.543 v 0.68 l -2.942,2.542 -0.621,-0.703 1.875,-1.629 h -4.81 -2.338 -1.802 -2.892 -1.255 -2.885 -4.146 v -1.101 h 4.146 2.885 1.255 2.892 1.802 2.338 4.81 l -1.875,-1.629 z"
       fill="#385723"
       fill-rule="evenodd"
       id="path123" />
    <text
       font-family="Calibri, Calibri_MSFontService, sans-serif"
       font-weight="400"
       font-size="24px"
       transform="translate(163.785,441)"
       id="text127">The set of vectors {<tspan
   font-family="'Cambria Math', 'Cambria Math_MSFontService', sans-serif"
   font-size="24px"
   x="185.493"
   y="0"
   id="tspan125">ğ‘£</tspan></text>
    <path
       d="m 8.83594,-15.668 -2.94141,2.543 -0.62109,-0.7031 1.875,-1.6289 H 0 v -1.1016 h 7.14844 l -1.875,-1.6289 0.62109,-0.7031 2.94141,2.5429 z"
       transform="translate(353.352,441)"
       id="path129" />
    <text
       font-family="'Cambria Math', 'Cambria Math_MSFontService', sans-serif"
       font-weight="400"
       font-size="16px"
       transform="translate(362.978,446)"
       id="text135">1<tspan
   font-family="Calibri, Calibri_MSFontService, sans-serif"
   font-size="24px"
   x="8.8333101"
   y="-5"
   id="tspan131">,</tspan><tspan
   font-size="24px"
   x="20.3333"
   y="-5"
   id="tspan133">ğ‘£</tspan></text>
    <path
       d="m 8.83594,-15.668 -2.94141,2.543 -0.62109,-0.7031 1.875,-1.6289 H 0 v -1.1016 h 7.14844 l -1.875,-1.6289 0.62109,-0.7031 2.94141,2.5429 z"
       transform="translate(387.385,441)"
       id="path137" />
    <text
       font-family="'Cambria Math', 'Cambria Math_MSFontService', sans-serif"
       font-weight="400"
       font-size="16px"
       transform="translate(397.012,446)"
       id="text149">2<tspan
   font-family="Calibri, Calibri_MSFontService, sans-serif"
   font-size="24px"
   x="12.5"
   y="-5"
   id="tspan139">} is linearly</tspan><tspan
   font-family="Calibri, Calibri_MSFontService, sans-serif"
   font-size="24px"
   x="-233.22701"
   y="23"
   id="tspan141">independent and spans a 2D plane in</tspan><tspan
   font-family="Calibri, Calibri_MSFontService, sans-serif"
   font-size="24px"
   x="133.88699"
   y="23"
   id="tspan143">R</tspan><tspan
   font-family="Calibri, Calibri_MSFontService, sans-serif"
   font-size="16px"
   x="146.88699"
   y="16"
   id="tspan145">3</tspan><tspan
   font-family="Calibri, Calibri_MSFontService, sans-serif"
   font-size="24px"
   x="155.05299"
   y="23"
   id="tspan147">.</tspan></text>
    <path
       d="m 953,260.333 c 0,-3.497 2.836,-6.333 6.333,-6.333 h 25.334 c 3.497,0 6.333,2.836 6.333,6.333 v 55.334 c 0,3.497 -2.836,6.333 -6.333,6.333 H 959.333 C 955.836,322 953,319.164 953,315.667 Z"
       fill="#385723"
       fill-rule="evenodd"
       fill-opacity="0.4"
       id="path151" />
    <path
       d="m 863.927,256.951 h 7.859 v 63.656 h -7.859 v -1.437 h 4.797 v -60.781 h -4.797 z m -76.601,0 h 7.86 v 1.438 h -4.797 v 60.781 h 4.797 v 1.437 h -7.86 z"
       fill-rule="evenodd"
       id="path153" />
    <text
       font-family="'Cambria Math', 'Cambria Math_MSFontService', sans-serif"
       font-weight="400"
       font-size="32px"
       transform="translate(795.891,281)"
       id="text161">1<tspan
   font-size="32px"
   x="49.666599"
   y="0"
   id="tspan155">0</tspan><tspan
   font-size="32px"
   x="0"
   y="37"
   id="tspan157">0</tspan><tspan
   font-size="32px"
   x="49.666599"
   y="37"
   id="tspan159">1</tspan></text>
    <path
       d="m 911.687,262.534 h 7.438 v 52.5 h -7.438 v -1.36 h 4.547 v -49.781 h -4.547 z m -27.456,0 h 7.437 v 1.359 h -4.547 v 49.781 h 4.547 v 1.36 h -7.437 z"
       fill-rule="evenodd"
       id="path163" />
    <text
       font-family="'Cambria Math', 'Cambria Math_MSFontService', sans-serif"
       font-weight="400"
       font-size="32px"
       transform="translate(892.371,277)"
       id="text169">ğ‘<tspan
   font-size="32px"
   x="0.28668201"
   y="38"
   id="tspan165">ğ‘</tspan><tspan
   font-family="Calibri, Calibri_MSFontService, sans-serif"
   font-size="32px"
   x="37.466702"
   y="21"
   id="tspan167">=</tspan></text>
    <path
       d="m 983.427,262.534 h 7.438 v 52.5 h -7.438 v -1.36 h 4.547 v -49.781 h -4.547 z m -26.876,0 h 7.437 v 1.359 h -4.547 v 49.781 h 4.547 v 1.36 h -7.437 z"
       fill-rule="evenodd"
       id="path171" />
    <text
       font-family="'Cambria Math', 'Cambria Math_MSFontService', sans-serif"
       font-weight="400"
       font-size="32px"
       transform="translate(965.871,277)"
       id="text179">a<tspan
   font-size="32px"
   x="-1.1799901"
   y="38"
   id="tspan173">ğ‘</tspan><tspan
   font-family="Calibri, Calibri_MSFontService, sans-serif"
   font-size="24px"
   x="-269.82001"
   y="164"
   id="tspan175">The set of vectors {</tspan><tspan
   font-size="24px"
   x="-84.326797"
   y="164"
   id="tspan177">ğ‘£</tspan></text>
    <path
       d="m 8.83594,-15.668 -2.94141,2.543 -0.62109,-0.7031 1.875,-1.6289 H 0 v -1.1016 h 7.14844 l -1.875,-1.6289 0.62109,-0.7031 2.94141,2.5429 z"
       transform="translate(885.617,441)"
       id="path181" />
    <text
       font-family="'Cambria Math', 'Cambria Math_MSFontService', sans-serif"
       font-weight="400"
       font-size="16px"
       transform="translate(895.244,446)"
       id="text187">1<tspan
   font-family="Calibri, Calibri_MSFontService, sans-serif"
   font-size="24px"
   x="8.8333702"
   y="-5"
   id="tspan183">,</tspan><tspan
   font-size="24px"
   x="20.333401"
   y="-5"
   id="tspan185">ğ‘£</tspan></text>
    <path
       d="m 8.83594,-15.668 -2.94141,2.543 -0.62109,-0.7031 1.875,-1.6289 H 0 v -1.1016 h 7.14844 l -1.875,-1.6289 0.62109,-0.7031 2.94141,2.5429 z"
       transform="translate(919.65,441)"
       id="path189" />
    <text
       font-family="'Cambria Math', 'Cambria Math_MSFontService', sans-serif"
       font-weight="400"
       font-size="16px"
       transform="translate(929.277,446)"
       id="text201">2<tspan
   font-family="Calibri, Calibri_MSFontService, sans-serif"
   font-size="24px"
   x="12.5"
   y="-5"
   id="tspan191">} is</tspan><tspan
   font-family="Calibri, Calibri_MSFontService, sans-serif"
   font-size="24px"
   x="45.833401"
   y="-5"
   id="tspan193">a basis for</tspan><tspan
   font-family="Calibri, Calibri_MSFontService, sans-serif"
   font-size="24px"
   x="149.993"
   y="-5"
   id="tspan195">R</tspan><tspan
   font-family="Calibri, Calibri_MSFontService, sans-serif"
   font-size="16px"
   x="162.993"
   y="-12"
   id="tspan197">2</tspan><tspan
   font-family="Calibri, Calibri_MSFontService, sans-serif"
   font-size="24px"
   x="171.16"
   y="-5"
   id="tspan199">.</tspan></text>
  </g>
</svg>
