<svg width="1280" height="720" xmlns="http://www.w3.org/2000/svg" xmlns:xlink="http://www.w3.org/1999/xlink" overflow="hidden"><defs><clipPath id="clip0"><rect x="0" y="0" width="1280" height="720"/></clipPath></defs><g clip-path="url(#clip0)"><rect x="0" y="0" width="1280" height="720" fill="#FFFFFF"/><rect x="181" y="436" width="76" height="75" stroke="#EDEDED" stroke-width="4" stroke-miterlimit="8" fill="none"/><rect x="256" y="436" width="76" height="75" stroke="#EDEDED" stroke-width="4" stroke-miterlimit="8" fill="none"/><rect x="256" y="360" width="76" height="76" stroke="#EDEDED" stroke-width="4" stroke-miterlimit="8" fill="none"/><rect x="256" y="284" width="76" height="76" stroke="#EDEDED" stroke-width="4" stroke-miterlimit="8" fill="none"/><rect x="181" y="284" width="75" height="76" stroke="#EDEDED" stroke-width="4" stroke-miterlimit="8" fill="none"/><rect x="333" y="435" width="76" height="76" stroke="#EDEDED" stroke-width="4" stroke-miterlimit="8" fill="none"/><rect x="333" y="360" width="75" height="75" stroke="#EDEDED" stroke-width="4" stroke-miterlimit="8" fill="none"/><rect x="333" y="284" width="75" height="76" stroke="#EDEDED" stroke-width="4" stroke-miterlimit="8" fill="none"/><rect x="181" y="360" width="75" height="76" stroke="#EDEDED" stroke-width="4" stroke-miterlimit="8" fill="none"/><text font-family="Calibri,Calibri_MSFontService,sans-serif" font-weight="400" font-size="43" transform="translate(462.555 117)">Basis vectors</text><rect x="106" y="435" width="75" height="76" stroke="#EDEDED" stroke-width="4" stroke-miterlimit="8" fill="none"/><rect x="105" y="284" width="76" height="76" stroke="#EDEDED" stroke-width="4" stroke-miterlimit="8" fill="none"/><rect x="105" y="360" width="76" height="75" stroke="#EDEDED" stroke-width="4" stroke-miterlimit="8" fill="none"/><rect x="181" y="511" width="76" height="75" stroke="#EDEDED" stroke-width="4" stroke-miterlimit="8" fill="none"/><rect x="256" y="511" width="76" height="75" stroke="#EDEDED" stroke-width="4" stroke-miterlimit="8" fill="none"/><rect x="333" y="511" width="76" height="75" stroke="#EDEDED" stroke-width="4" stroke-miterlimit="8" fill="none"/><rect x="106" y="511" width="75" height="75" stroke="#EDEDED" stroke-width="4" stroke-miterlimit="8" fill="none"/><path d="M104 435 407.919 435" stroke="#BFBFBF" stroke-width="4" stroke-miterlimit="8" stroke-dasharray="12 4" fill="none" fill-rule="evenodd"/><path d="M0 0 1.39265 301.928" stroke="#BFBFBF" stroke-width="4" stroke-miterlimit="8" stroke-dasharray="12 4" fill="none" fill-rule="evenodd" transform="matrix(1 0 0 -1 256 585.928)"/><text font-family="Calibri,Calibri_MSFontService,sans-serif" font-weight="400" font-size="32" transform="translate(262.23 482)">(1, 0)</text><path d="M1.9997-0.0349248 3.29065 73.8815-0.708741 73.9513-1.9997 0.0349248ZM9.82523 62.7734 1.36027 77.8851-7.62722 63.0782C-8.20036 62.134-7.89952 60.9039-6.95528 60.3308-6.01104 59.7576-4.78097 60.0585-4.20783 61.0027L3.00065 72.8786-0.453938 72.939 6.33545 60.8186C6.87526 59.8549 8.09408 59.5113 9.05776 60.0511 10.0214 60.5909 10.365 61.8097 9.82523 62.7734Z" fill="#A6A6A6" transform="matrix(1 0 0 -1 257 435.876)"/><path d="M255 433 328.34 433 328.34 437 255 437ZM317.348 426.273 332.309 435 317.348 443.728C316.394 444.284 315.169 443.962 314.612 443.008 314.056 442.054 314.378 440.829 315.332 440.273L327.332 433.273 327.332 436.728 315.332 429.728C314.378 429.171 314.056 427.946 314.612 426.992 315.169 426.038 316.394 425.716 317.348 426.273Z" fill="#A6A6A6"/><text font-family="Calibri,Calibri_MSFontService,sans-serif" font-weight="400" font-size="32" transform="translate(182.462 406)">(0, 1)<tspan font-size="32" x="-75.222" y="-155">The set of regular basis vectors which span </tspan><tspan font-family="Cambria,Cambria_MSFontService,sans-serif" font-size="32" x="486.011" y="-155">R</tspan><tspan font-family="Cambria,Cambria_MSFontService,sans-serif" font-size="21" x="505.845" y="-165">2</tspan><tspan font-size="32" x="524.845" y="-155">is </tspan><tspan font-family="Cambria,Cambria_MSFontService,sans-serif" font-size="32" x="551.845" y="-155">B</tspan><tspan font-size="32" x="578.511" y="-155">=</tspan></text><path d="M1.51562-9.82812C2.67188-9.84896 3.55208-10.2708 4.15625-11.0938 4.76042-11.9167 5.0625-13.0573 5.0625-14.5156 5.0625-15.1406 4.90365-16.4896 4.58594-18.5625 4.26823-20.6354 4.10938-22.3698 4.10938-23.7656 4.10938-27.651 4.83333-30.5208 6.28125-32.375 7.72917-34.2292 9.83333-35.224 12.5938-35.3594L12.5938-34.1094C11.7188-34.0469 10.9271-33.8307 10.2188-33.4609 9.51042-33.0911 8.90885-32.5312 8.41406-31.7812 7.91927-31.0312 7.53906-30.0703 7.27344-28.8984 7.00781-27.7266 6.875-26.3125 6.875-24.6562 6.875-23.5 7.01562-21.888 7.29688-19.8203 7.57812-17.7526 7.71875-16.3229 7.71875-15.5312 7.71875-13.75 7.33594-12.3255 6.57031-11.2578 5.80469-10.1901 5.10938-9.54167 4.48438-9.3125L4.48438-9C5.10938-8.75 5.80469-8.10417 6.57031-7.0625 7.33594-6.02083 7.71875-4.60417 7.71875-2.8125 7.71875-2.29167 7.57812-0.835937 7.29688 1.55469 7.01562 3.94531 6.875 5.51042 6.875 6.25 6.875 7.91667 6.99479 9.34375 7.23438 10.5312 7.47396 11.7188 7.84375 12.6875 8.34375 13.4375 8.86458 14.2083 9.47396 14.7839 10.1719 15.1641 10.8698 15.5443 11.6771 15.7656 12.5938 15.8281L12.5938 17.0781C9.67708 16.9948 7.53385 15.9792 6.16406 14.0312 4.79427 12.0833 4.10938 9.29167 4.10938 5.65625 4.10938 4.45833 4.26823 2.72396 4.58594 0.453125 4.90365-1.81771 5.0625-3.23958 5.0625-3.8125 5.0625-5.23958 4.76302-6.36719 4.16406-7.19531 3.5651-8.02344 2.68229-8.45312 1.51562-8.48438Z" transform="translate(784.14 251)"/><path d="M827.756 215.158 835.194 215.158 835.194 267.658 827.756 267.658 827.756 266.299 832.303 266.299 832.303 216.518 827.756 216.518ZM801.247 215.158 808.684 215.158 808.684 216.518 804.137 216.518 804.137 266.299 808.684 266.299 808.684 267.658 801.247 267.658Z" fill-rule="evenodd"/><text font-family="Calibri,Calibri_MSFontService,sans-serif" font-weight="400" font-size="32" transform="translate(810.133 233)">1<tspan font-family="Cambria Math,Cambria Math_MSFontService,sans-serif" font-size="32" x="-0.746643" y="37">0</tspan><tspan font-size="32" x="28.6067" y="18">,</tspan></text><path d="M876.796 215.158 884.234 215.158 884.234 267.658 876.796 267.658 876.796 266.299 881.343 266.299 881.343 216.518 876.796 216.518ZM850.287 215.158 857.724 215.158 857.724 216.518 853.177 216.518 853.177 266.299 857.724 266.299 857.724 267.658 850.287 267.658Z" fill-rule="evenodd"/><text font-family="Cambria Math,Cambria Math_MSFontService,sans-serif" font-weight="400" font-size="32" transform="translate(858.427 233)">0<tspan font-size="32" x="0" y="38">1</tspan></text><path d="M12.0469-8.48438C10.8802-8.45312 9.9974-8.02344 9.39844-7.19531 8.79948-6.36719 8.5-5.23958 8.5-3.8125 8.5-3.23958 8.65885-1.81771 8.97656 0.453125 9.29427 2.72396 9.45312 4.45833 9.45312 5.65625 9.45312 9.29167 8.76562 12.0833 7.39062 14.0312 6.01562 15.9792 3.875 16.9948 0.96875 17.0781L0.96875 15.8281C1.88542 15.7656 2.69271 15.5443 3.39062 15.1641 4.08854 14.7839 4.69271 14.2083 5.20312 13.4375 5.71354 12.6875 6.08854 11.7188 6.32812 10.5312 6.56771 9.34375 6.6875 7.91667 6.6875 6.25 6.6875 5.51042 6.54688 3.94531 6.26562 1.55469 5.98438-0.835937 5.84375-2.29167 5.84375-2.8125 5.84375-4.60417 6.22396-6.02083 6.98438-7.0625 7.74479-8.10417 8.44271-8.75 9.07812-9L9.07812-9.3125C8.44271-9.54167 7.74479-10.1901 6.98438-11.2578 6.22396-12.3255 5.84375-13.75 5.84375-15.5312 5.84375-16.3229 5.98438-17.7526 6.26562-19.8203 6.54688-21.888 6.6875-23.5 6.6875-24.6562 6.6875-26.3125 6.55469-27.7266 6.28906-28.8984 6.02344-30.0703 5.64062-31.0312 5.14062-31.7812 4.64062-32.5312 4.03906-33.0911 3.33594-33.4609 2.63281-33.8307 1.84375-34.0469 0.96875-34.1094L0.96875-35.3594C3.71875-35.224 5.82031-34.2292 7.27344-32.375 8.72656-30.5208 9.45312-27.651 9.45312-23.7656 9.45312-22.3698 9.29427-20.6354 8.97656-18.5625 8.65885-16.4896 8.5-15.1406 8.5-14.5156 8.5-13.0573 8.80208-11.9167 9.40625-11.0938 10.0104-10.2708 10.8906-9.84896 12.0469-9.82812Z" transform="translate(887.78 251)"/><text font-family="Calibri,Calibri_MSFontService,sans-serif" font-weight="400" font-size="32" transform="translate(901.34 251)">.</text><path d="M763 206C763 197.716 768.154 191 774.512 191L802.089 191C808.447 191 813.601 184.284 813.601 176 813.601 184.284 818.755 191 825.113 191L853.488 191C859.846 191 865 197.716 865 206" stroke="#C00000" stroke-width="4" stroke-miterlimit="8" fill="none" fill-rule="evenodd"/><text fill="#C00000" font-family="Calibri,Calibri_MSFontService,sans-serif" font-weight="400" font-size="24" transform="translate(672.28 168)">subspace with 2 dimensions<tspan fill="#000000" font-size="27" x="-239.964" y="222">A unique combination of </tspan><tspan fill="#000000" font-family="Cambria Math,Cambria Math_MSFontService,sans-serif" font-size="27" x="33.569" y="222">c</tspan><tspan fill="#000000" font-family="Cambria Math,Cambria Math_MSFontService,sans-serif" font-size="18" x="45.4024" y="228">1</tspan></text><path d="M757.129 360.191 763.404 360.191 763.404 404.488 757.129 404.488 757.129 403.341 760.965 403.341 760.965 361.338 757.129 361.338ZM734.955 360.191 741.23 360.191 741.23 361.338 737.394 361.338 737.394 403.341 741.23 403.341 741.23 404.488 734.955 404.488Z" fill-rule="evenodd"/><text font-family="Calibri,Calibri_MSFontService,sans-serif" font-weight="400" font-size="27" transform="translate(742.369 375)">1<tspan font-family="Cambria Math,Cambria Math_MSFontService,sans-serif" font-size="27" x="-0.666687" y="31">0</tspan><tspan font-size="27" x="29.9067" y="15">+ </tspan><tspan font-family="Cambria Math,Cambria Math_MSFontService,sans-serif" font-size="27" x="49.24" y="15">c</tspan><tspan font-family="Cambria Math,Cambria Math_MSFontService,sans-serif" font-size="18" x="61.0734" y="21">2</tspan></text><path d="M842.889 360.191 849.164 360.191 849.164 404.488 842.889 404.488 842.889 403.341 846.725 403.341 846.725 361.338 842.889 361.338ZM820.715 360.191 826.99 360.191 826.99 361.338 823.154 361.338 823.154 403.341 826.99 403.341 826.99 404.488 820.715 404.488Z" fill-rule="evenodd"/><text font-family="Cambria Math,Cambria Math_MSFontService,sans-serif" font-weight="400" font-size="27" transform="translate(827.462 376)">0<tspan font-size="27" x="0" y="31">1</tspan><tspan font-family="Calibri,Calibri_MSFontService,sans-serif" font-size="27" x="30.5734" y="14">exists to form any vector </tspan><tspan font-size="27" x="302.7" y="14">ğ‘£</tspan></text><path d="M9.94043-17.6265 6.63135-14.7656 5.93262-15.5566 8.04199-17.3892 0-17.3892 0-18.6284 8.04199-18.6284 5.93262-20.4609 6.63135-21.252 9.94043-18.3911Z" transform="translate(1134.7 390)"/><text font-family="Calibri,Calibri_MSFontService,sans-serif" font-weight="400" font-size="27" transform="translate(1151.44 390)">in <tspan font-family="Cambria,Cambria_MSFontService,sans-serif" font-size="27" x="26.1667" y="0">R</tspan><tspan font-family="Cambria,Cambria_MSFontService,sans-serif" font-size="18" x="42.6667" y="-8">2</tspan><tspan font-size="27" x="52.5" y="0">.</tspan><tspan font-family="Cambria Math,Cambria Math_MSFontService,sans-serif" font-size="27" x="-719.232" y="63">{</tspan><tspan font-family="Cambria Math,Cambria Math_MSFontService,sans-serif" font-size="27" x="-708.899" y="63">c</tspan><tspan font-family="Cambria Math,Cambria Math_MSFontService,sans-serif" font-size="18" x="-697.065" y="69">1</tspan><tspan font-size="27" x="-687.232" y="63">, </tspan><tspan font-family="Cambria Math,Cambria Math_MSFontService,sans-serif" font-size="27" x="-674.565" y="63">c</tspan><tspan font-family="Cambria Math,Cambria Math_MSFontService,sans-serif" font-size="18" x="-662.732" y="69">2</tspan><tspan font-family="Cambria Math,Cambria Math_MSFontService,sans-serif" font-size="27" x="-652.899" y="63">}</tspan><tspan font-size="27" x="-636.565" y="63">acts as the coordinates of the regular basis vectors</tspan></text><path d="M1.27881-8.29248C2.25439-8.31006 2.99707-8.66602 3.50684-9.36035 4.0166-10.0547 4.27148-11.0171 4.27148-12.2476 4.27148-12.7749 4.13745-13.9131 3.86938-15.6621 3.60132-17.4111 3.46728-18.8745 3.46729-20.0522 3.46728-23.3306 4.07812-25.752 5.2998-27.3164 6.52148-28.8809 8.29688-29.7202 10.626-29.8345L10.626-28.7798C9.8877-28.727 9.21973-28.5447 8.62207-28.2327 8.02441-27.9207 7.51685-27.4482 7.09937-26.8154 6.68188-26.1826 6.36108-25.3718 6.13696-24.3831 5.91284-23.3943 5.80078-22.2012 5.80078-20.8037 5.80078-19.8281 5.91943-18.468 6.15674-16.7234 6.39404-14.9788 6.51269-13.7725 6.5127-13.1045 6.51269-11.6016 6.1897-10.3997 5.5437-9.49878 4.89771-8.5979 4.31104-8.05078 3.78369-7.85742L3.78369-7.59375C4.31104-7.38281 4.89771-6.83789 5.5437-5.95898 6.1897-5.08008 6.51269-3.88477 6.5127-2.37305 6.51269-1.93359 6.39404-0.705322 6.15674 1.31177 5.91943 3.32886 5.80078 4.64941 5.80078 5.27344 5.80078 6.67969 5.90186 7.88379 6.104 8.88574 6.30615 9.8877 6.61816 10.7051 7.04004 11.3379 7.47949 11.9883 7.99365 12.4739 8.58252 12.7947 9.17139 13.1155 9.85254 13.3022 10.626 13.355L10.626 14.4097C8.16504 14.3394 6.35669 13.4824 5.20093 11.8389 4.04517 10.1953 3.46728 7.83984 3.46729 4.77246 3.46728 3.76172 3.60132 2.29834 3.86938 0.382324 4.13745-1.53369 4.27148-2.7334 4.27148-3.2168 4.27148-4.4209 4.0188-5.37231 3.51343-6.07104 3.00806-6.76977 2.26318-7.13232 1.27881-7.15869Z" transform="translate(1067.76 453)"/><path d="M1104.23 423.551 1110.51 423.551 1110.51 467.848 1104.23 467.848 1104.23 466.701 1108.07 466.701 1108.07 424.698 1104.23 424.698ZM1082.06 423.551 1088.33 423.551 1088.33 424.698 1084.49 424.698 1084.49 466.701 1088.33 466.701 1088.33 467.848 1082.06 467.848Z" fill-rule="evenodd"/><text font-family="Calibri,Calibri_MSFontService,sans-serif" font-weight="400" font-size="27" transform="translate(1089.47 439)">1<tspan font-family="Cambria Math,Cambria Math_MSFontService,sans-serif" font-size="27" x="-0.666626" y="31">0</tspan><tspan font-size="27" x="23.9067" y="14">,</tspan></text><path d="M1145.21 423.551 1151.49 423.551 1151.49 467.848 1145.21 467.848 1145.21 466.701 1149.05 466.701 1149.05 424.698 1145.21 424.698ZM1123.04 423.551 1129.31 423.551 1129.31 424.698 1125.47 424.698 1125.47 466.701 1129.31 466.701 1129.31 467.848 1123.04 467.848Z" fill-rule="evenodd"/><text font-family="Cambria Math,Cambria Math_MSFontService,sans-serif" font-weight="400" font-size="27" transform="translate(1129.78 439)">0<tspan font-size="27" x="0" y="31">1</tspan></text><path d="M10.1646-7.15869C9.18018-7.13232 8.4353-6.76977 7.92993-6.07104 7.42456-5.37231 7.17187-4.4209 7.17188-3.2168 7.17187-2.7334 7.30591-1.53369 7.57397 0.382324 7.84204 2.29834 7.97607 3.76172 7.97607 4.77246 7.97607 7.83984 7.396 10.1953 6.23584 11.8389 5.07568 13.4824 3.26953 14.3394 0.817383 14.4097L0.817383 13.355C1.59082 13.3022 2.27197 13.1155 2.86084 12.7947 3.44971 12.4739 3.95947 11.9883 4.39014 11.3379 4.8208 10.7051 5.13721 9.8877 5.33936 8.88574 5.5415 7.88379 5.64258 6.67969 5.64258 5.27344 5.64258 4.64941 5.52393 3.32886 5.28662 1.31177 5.04932-0.705322 4.93066-1.93359 4.93066-2.37305 4.93066-3.88477 5.25146-5.08008 5.89307-5.95898 6.53467-6.83789 7.12353-7.38281 7.65967-7.59375L7.65967-7.85742C7.12353-8.05078 6.53467-8.5979 5.89307-9.49878 5.25146-10.3997 4.93066-11.6016 4.93066-13.1045 4.93066-13.7725 5.04932-14.9788 5.28662-16.7234 5.52393-18.468 5.64258-19.8281 5.64258-20.8037 5.64258-22.2012 5.53052-23.3943 5.3064-24.3831 5.08228-25.3718 4.75928-26.1826 4.3374-26.8154 3.91553-27.4482 3.40796-27.9207 2.8147-28.2327 2.22144-28.5447 1.55566-28.727 0.817383-28.7798L0.817383-29.8345C3.1377-29.7202 4.91089-28.8809 6.13696-27.3164 7.36304-25.752 7.97607-23.3306 7.97607-20.0522 7.97607-18.8745 7.84204-17.4111 7.57397-15.6621 7.30591-13.9131 7.17187-12.7749 7.17188-12.2476 7.17187-11.0171 7.42676-10.0547 7.93652-9.36035 8.44629-8.66602 9.18896-8.31006 10.1646-8.29248Z" transform="translate(1154.36 453)"/><text font-family="Calibri,Calibri_MSFontService,sans-serif" font-weight="400" font-size="27" transform="translate(1165.66 453)">.</text><path d="M4.20139 1.4245 150.328 150.26 147.474 153.063 1.34711 4.22684ZM4.24761 16.7839-0.00649442-0.0066152 16.703 4.55508C17.7686 4.84598 18.3966 5.94562 18.1057 7.01119 17.8148 8.07677 16.7152 8.70477 15.6496 8.41386L2.24759 4.75513 4.71306 2.33453 8.12509 15.8014C8.39637 16.8722 7.74829 17.9601 6.67755 18.2314 5.60682 18.5027 4.51889 17.8546 4.24761 16.7839Z" fill="#C00000" transform="matrix(1 0 0 -1 106 587.662)"/><text fill="#C00000" font-family="Calibri,Calibri_MSFontService,sans-serif" font-weight="400" font-size="27" transform="translate(432.21 520)">If<tspan font-family="Cambria Math,Cambria Math_MSFontService,sans-serif" font-size="27" x="14.8333" y="0"> </tspan><tspan font-family="Cambria Math,Cambria Math_MSFontService,sans-serif" font-size="27" x="20.6667" y="0">ğ‘£</tspan></text><path d="M9.94043-17.6265 6.63135-14.7656 5.93262-15.5566 8.04199-17.3892 0-17.3892 0-18.6284 8.04199-18.6284 5.93262-20.4609 6.63135-21.252 9.94043-18.3911Z" fill="#C00000" transform="translate(457.41 520)"/><text fill="#C00000" font-family="Cambria Math,Cambria Math_MSFontService,sans-serif" font-weight="400" font-size="27" transform="translate(475.563 520)">=</text><path d="M541.47 489.893 547.745 489.893 547.745 534.19 541.47 534.19 541.47 533.043 545.306 533.043 545.306 491.04 541.47 491.04ZM505.963 489.893 512.238 489.893 512.238 491.04 508.402 491.04 508.402 533.043 512.238 533.043 512.238 534.19 505.963 534.19Z" fill="#C00000" fill-rule="evenodd"/><text fill="#C00000" font-family="Calibri,Calibri_MSFontService,sans-serif" font-weight="400" font-size="27" transform="translate(512.71 505)">âˆ’<tspan font-family="Cambria Math,Cambria Math_MSFontService,sans-serif" font-size="27" x="13.3334" y="0">2</tspan><tspan font-size="27" x="0" y="32">âˆ’</tspan><tspan font-family="Cambria Math,Cambria Math_MSFontService,sans-serif" font-size="27" x="13.3334" y="32">2</tspan><tspan font-size="27" x="42.3533" y="15">,</tspan><tspan font-size="27" x="49.02" y="15"> </tspan><tspan font-family="Cambria Math,Cambria Math_MSFontService,sans-serif" font-size="27" x="55.02" y="15"></tspan><tspan font-family="Cambria Math,Cambria Math_MSFontService,sans-serif" font-size="27" x="60.8533" y="15">{</tspan><tspan font-family="Cambria Math,Cambria Math_MSFontService,sans-serif" font-size="27" x="71.1867" y="15">c</tspan><tspan font-family="Cambria Math,Cambria Math_MSFontService,sans-serif" font-size="18" x="83.02" y="21">1</tspan><tspan font-size="27" x="92.8533" y="15">,</tspan><tspan font-size="27" x="99.52" y="15"> </tspan><tspan font-family="Cambria Math,Cambria Math_MSFontService,sans-serif" font-size="27" x="105.52" y="15">c</tspan><tspan font-family="Cambria Math,Cambria Math_MSFontService,sans-serif" font-size="18" x="117.353" y="21">2</tspan><tspan font-family="Cambria Math,Cambria Math_MSFontService,sans-serif" font-size="27" x="127.187" y="15">}</tspan><tspan font-family="Cambria Math,Cambria Math_MSFontService,sans-serif" font-size="27" x="137.52" y="15"> </tspan><tspan font-family="Cambria Math,Cambria Math_MSFontService,sans-serif" font-size="27" x="143.353" y="15">=</tspan><tspan font-family="Cambria Math,Cambria Math_MSFontService,sans-serif" font-size="27" x="163.353" y="15"> </tspan><tspan font-family="Cambria Math,Cambria Math_MSFontService,sans-serif" font-size="27" x="169.187" y="15">{</tspan><tspan font-size="27" x="179.52" y="15">âˆ’</tspan><tspan font-family="Cambria Math,Cambria Math_MSFontService,sans-serif" font-size="27" x="192.853" y="15">2,</tspan><tspan font-size="27" x="213.187" y="15">âˆ’</tspan><tspan font-family="Cambria Math,Cambria Math_MSFontService,sans-serif" font-size="27" x="226.52" y="15">2}</tspan><tspan font-family="Cambria Math,Cambria Math_MSFontService,sans-serif" font-size="27" x="251.687" y="15"> </tspan><tspan font-size="27" x="257.52" y="15">as</tspan><tspan font-size="27" x="280.853" y="15"> </tspan>âˆ’<tspan font-family="Cambria Math,Cambria Math_MSFontService,sans-serif" font-size="27" x="300.187" y="15">2</tspan></text><path d="M857.343 489.893 863.619 489.893 863.619 534.19 857.343 534.19 857.343 533.043 861.18 533.043 861.18 491.04 857.343 491.04ZM835.169 489.893 841.445 489.893 841.445 491.04 837.608 491.04 837.608 533.043 841.445 533.043 841.445 534.19 835.169 534.19Z" fill="#C00000" fill-rule="evenodd"/><text fill="#C00000" font-family="Calibri,Calibri_MSFontService,sans-serif" font-weight="400" font-size="27" transform="translate(842.583 505)">1<tspan font-family="Cambria Math,Cambria Math_MSFontService,sans-serif" font-size="27" x="-0.666687" y="31">0</tspan><tspan font-size="27" x="29.9067" y="15">+ (</tspan>âˆ’<tspan font-size="27" x="70.74" y="15">2)</tspan></text><path d="M960.157 489.893 966.432 489.893 966.432 534.19 960.157 534.19 960.157 533.043 963.993 533.043 963.993 491.04 960.157 491.04ZM937.983 489.893 944.258 489.893 944.258 491.04 940.422 491.04 940.422 533.043 944.258 533.043 944.258 534.19 937.983 534.19Z" fill="#C00000" fill-rule="evenodd"/><text fill="#C00000" font-family="Cambria Math,Cambria Math_MSFontService,sans-serif" font-weight="400" font-size="27" transform="translate(944.73 505)">0<tspan font-size="27" x="0" y="32">1</tspan><tspan font-family="Calibri,Calibri_MSFontService,sans-serif" font-size="27" x="30.5734" y="15">=</tspan></text><path d="M1033.14 489.893 1039.41 489.893 1039.41 534.19 1033.14 534.19 1033.14 533.043 1036.97 533.043 1036.97 491.04 1033.14 491.04ZM997.629 489.893 1003.9 489.893 1003.9 491.04 1000.07 491.04 1000.07 533.043 1003.9 533.043 1003.9 534.19 997.629 534.19Z" fill="#C00000" fill-rule="evenodd"/><text fill="#C00000" font-family="Calibri,Calibri_MSFontService,sans-serif" font-weight="400" font-size="27" transform="translate(1004.38 505)">âˆ’<tspan font-family="Cambria Math,Cambria Math_MSFontService,sans-serif" font-size="27" x="13.3333" y="0">2</tspan><tspan font-size="27" x="0" y="32">âˆ’</tspan><tspan font-family="Cambria Math,Cambria Math_MSFontService,sans-serif" font-size="27" x="13.3333" y="32">2</tspan><tspan fill="#000000" font-size="32" x="-958.66" y="114">(</tspan><tspan fill="#000000" font-size="32" x="-948.993" y="114">âˆ’</tspan><tspan fill="#000000" font-size="32" x="-932.993" y="114">2, </tspan><tspan fill="#000000" font-size="32" x="-901.66" y="114">âˆ’</tspan><tspan fill="#000000" font-size="32" x="-885.66" y="114">2)</tspan><tspan fill="#000000" font-family="Cambria Math,Cambria Math_MSFontService,sans-serif" font-size="24" x="-816.949" y="34">ğ‘£</tspan><tspan fill="#000000" font-family="Cambria Math,Cambria Math_MSFontService,sans-serif" font-size="16" x="-803.949" y="39">1</tspan></text><path d="M206.309 519.92 209.25 522.463 209.25 523.143 206.309 525.686 205.688 524.982 207.563 523.354 202.752 523.354 200.414 523.354 198.612 523.354 195.721 523.354 194.465 523.354 191.581 523.354 187.434 523.354 187.434 522.252 191.581 522.252 194.465 522.252 195.721 522.252 198.612 522.252 200.414 522.252 202.752 522.252 207.563 522.252 205.688 520.623Z" fill-rule="evenodd"/><text font-family="Cambria Math,Cambria Math_MSFontService,sans-serif" font-weight="400" font-size="24" transform="translate(209.261 539)"></text></g></svg>