<?xml version="1.0" encoding="UTF-8" standalone="no"?>
<svg
   width="1280"
   height="600"
   overflow="hidden"
   version="1.1"
   id="svg293"
   sodipodi:docname="linear_systems-basis_vectors.svg"
   inkscape:version="1.2 (dc2aedaf03, 2022-05-15)"
   xmlns:inkscape="http://www.inkscape.org/namespaces/inkscape"
   xmlns:sodipodi="http://sodipodi.sourceforge.net/DTD/sodipodi-0.dtd"
   xmlns="http://www.w3.org/2000/svg"
   xmlns:svg="http://www.w3.org/2000/svg">
  <sodipodi:namedview
     id="namedview295"
     pagecolor="#ffffff"
     bordercolor="#000000"
     borderopacity="0.25"
     inkscape:showpageshadow="2"
     inkscape:pageopacity="0.0"
     inkscape:pagecheckerboard="0"
     inkscape:deskcolor="#d1d1d1"
     showgrid="false"
     inkscape:zoom="1.3111111"
     inkscape:cx="619.70339"
     inkscape:cy="353.89831"
     inkscape:window-width="2560"
     inkscape:window-height="1494"
     inkscape:window-x="-11"
     inkscape:window-y="-11"
     inkscape:window-maximized="1"
     inkscape:current-layer="g291" />
  <defs
     id="defs5">
    <clipPath
       id="clip0">
      <rect
         x="0"
         y="0"
         width="1280"
         height="720"
         id="rect2" />
    </clipPath>
  </defs>
  <g
     clip-path="url(#clip0)"
     id="g291"
     transform="translate(21.355932)">
    <rect
       x="-2.2881355"
       y="-49.576271"
       width="1280"
       height="720"
       fill="#ffffff"
       id="rect7" />
    <rect
       x="178.71187"
       y="386.42371"
       width="76"
       height="75"
       stroke="#ededed"
       stroke-width="4"
       stroke-miterlimit="8"
       fill="none"
       id="rect9" />
    <rect
       x="253.71187"
       y="386.42371"
       width="76"
       height="75"
       stroke="#ededed"
       stroke-width="4"
       stroke-miterlimit="8"
       fill="none"
       id="rect11" />
    <rect
       x="253.71187"
       y="310.42371"
       width="76"
       height="76"
       stroke="#ededed"
       stroke-width="4"
       stroke-miterlimit="8"
       fill="none"
       id="rect13" />
    <rect
       x="253.71187"
       y="234.42374"
       width="76"
       height="76"
       stroke="#ededed"
       stroke-width="4"
       stroke-miterlimit="8"
       fill="none"
       id="rect15" />
    <rect
       x="178.71187"
       y="234.42374"
       width="75"
       height="76"
       stroke="#ededed"
       stroke-width="4"
       stroke-miterlimit="8"
       fill="none"
       id="rect17" />
    <rect
       x="330.71185"
       y="385.42371"
       width="76"
       height="76"
       stroke="#ededed"
       stroke-width="4"
       stroke-miterlimit="8"
       fill="none"
       id="rect19" />
    <rect
       x="330.71185"
       y="310.42371"
       width="75"
       height="75"
       stroke="#ededed"
       stroke-width="4"
       stroke-miterlimit="8"
       fill="none"
       id="rect21" />
    <rect
       x="330.71185"
       y="234.42374"
       width="75"
       height="76"
       stroke="#ededed"
       stroke-width="4"
       stroke-miterlimit="8"
       fill="none"
       id="rect23" />
    <rect
       x="178.71187"
       y="310.42371"
       width="75"
       height="76"
       stroke="#ededed"
       stroke-width="4"
       stroke-miterlimit="8"
       fill="none"
       id="rect25" />
    <text
       font-family="Calibri, Calibri_MSFontService, sans-serif"
       font-weight="400"
       font-size="32px"
       id="text41"
       x="104.95186"
       y="150.42374">The plane <tspan
   font-family="Cambria, Cambria_MSFontService, sans-serif"
   font-size="32px"
   x="240.11888"
   y="150.42374"
   id="tspan27">R</tspan><tspan
   font-family="Cambria, Cambria_MSFontService, sans-serif"
   font-size="21px"
   x="259.95184"
   y="140.42374"
   id="tspan29">2</tspan><tspan
   font-size="32px"
   x="278.78485"
   y="150.42374"
   id="tspan31">is a subspace of</tspan><tspan
   font-family="Cambria, Cambria_MSFontService, sans-serif"
   font-size="32px"
   x="489.46484"
   y="150.42374"
   id="tspan33">R</tspan><tspan
   font-family="Cambria, Cambria_MSFontService, sans-serif"
   font-size="21px"
   x="509.29883"
   y="140.42374"
   id="tspan35">n</tspan><tspan
   font-size="32px"
   x="521.13184"
   y="150.42374"
   id="tspan37">.</tspan><tspan
   font-size="43px"
   x="460.26685"
   y="60.423729"
   id="tspan39">Basis vectors</tspan></text>
    <rect
       x="103.71186"
       y="385.42371"
       width="75"
       height="76"
       stroke="#ededed"
       stroke-width="4"
       stroke-miterlimit="8"
       fill="none"
       id="rect43" />
    <rect
       x="102.71186"
       y="234.42374"
       width="76"
       height="76"
       stroke="#ededed"
       stroke-width="4"
       stroke-miterlimit="8"
       fill="none"
       id="rect45" />
    <rect
       x="102.71186"
       y="310.42371"
       width="76"
       height="75"
       stroke="#ededed"
       stroke-width="4"
       stroke-miterlimit="8"
       fill="none"
       id="rect47" />
    <rect
       x="178.71187"
       y="461.42371"
       width="76"
       height="75"
       stroke="#ededed"
       stroke-width="4"
       stroke-miterlimit="8"
       fill="none"
       id="rect49" />
    <rect
       x="253.71187"
       y="461.42371"
       width="76"
       height="75"
       stroke="#ededed"
       stroke-width="4"
       stroke-miterlimit="8"
       fill="none"
       id="rect51" />
    <rect
       x="330.71185"
       y="461.42371"
       width="76"
       height="75"
       stroke="#ededed"
       stroke-width="4"
       stroke-miterlimit="8"
       fill="none"
       id="rect53" />
    <rect
       x="103.71186"
       y="461.42371"
       width="75"
       height="75"
       stroke="#ededed"
       stroke-width="4"
       stroke-miterlimit="8"
       fill="none"
       id="rect55" />
    <path
       d="m 101.71186,385.42373 h 303.919"
       stroke="#bfbfbf"
       stroke-width="4"
       stroke-miterlimit="8"
       stroke-dasharray="12, 4"
       fill="none"
       fill-rule="evenodd"
       id="path57" />
    <path
       d="m 253.71186,536.35173 1.39265,-301.928"
       stroke="#bfbfbf"
       stroke-width="4"
       stroke-miterlimit="8"
       stroke-dasharray="12, 4"
       fill="none"
       fill-rule="evenodd"
       id="path59" />
    <text
       font-family="Calibri, Calibri_MSFontService, sans-serif"
       font-weight="400"
       font-size="32px"
       id="text61"
       x="259.94186"
       y="432.42371">(1, 0)</text>
    <path
       d="m 256.71156,386.33465 1.29095,-73.91642 -3.99939,-0.0698 -1.29096,73.91637 z m 7.82553,-62.80832 -8.46496,-15.1117 -8.98749,14.8069 c -0.57314,0.9442 -0.2723,2.1743 0.67194,2.7474 0.94424,0.5732 2.17431,0.2723 2.74745,-0.6719 l 7.20848,-11.8759 -3.45459,-0.0604 6.78939,12.1204 c 0.53981,0.9637 1.75863,1.3073 2.72231,0.7675 0.96364,-0.5398 1.30724,-1.7586 0.76747,-2.7223 z"
       fill="#a6a6a6"
       id="path63" />
    <path
       d="m 252.71186,383.42373 h 73.34 v 4 h -73.34 z m 62.348,-6.727 14.961,8.727 -14.961,8.728 c -0.954,0.556 -2.179,0.234 -2.736,-0.72 -0.556,-0.954 -0.234,-2.179 0.72,-2.735 l 12,-7 v 3.455 l -12,-7 c -0.954,-0.557 -1.276,-1.782 -0.72,-2.736 0.557,-0.954 1.782,-1.276 2.736,-0.719 z"
       fill="#a6a6a6"
       id="path65" />
    <text
       font-family="Calibri, Calibri_MSFontService, sans-serif"
       font-weight="400"
       font-size="32px"
       id="text75"
       x="180.17387"
       y="356.42371">(0, 1)<tspan
   font-size="32px"
   x="104.95186"
   y="193.42374"
   id="tspan67">The set of regular basis vectors which span</tspan><tspan
   font-family="Cambria, Cambria_MSFontService, sans-serif"
   font-size="32px"
   x="666.18481"
   y="193.42374"
   id="tspan69">R</tspan><tspan
   font-family="Cambria, Cambria_MSFontService, sans-serif"
   font-size="21px"
   x="686.01886"
   y="183.42374"
   id="tspan71">2</tspan><tspan
   font-size="32px"
   x="705.0188"
   y="193.42374"
   id="tspan73">are</tspan></text>
    <path
       d="m 755.78048,183.59561 c 1.15626,-0.0208 2.03646,-0.44268 2.64063,-1.26568 0.60417,-0.8229 0.90625,-1.9635 0.90625,-3.4218 0,-0.625 -0.15885,-1.974 -0.47656,-4.0469 -0.31771,-2.0729 -0.47656,-3.8073 -0.47656,-5.2031 0,-3.8854 0.72395,-6.7552 2.17187,-8.6094 1.44792,-1.8542 3.55208,-2.849 6.31255,-2.9844 v 1.25 c -0.875,0.0625 -1.6667,0.2787 -2.375,0.6485 -0.70838,0.3698 -1.30995,0.9297 -1.80474,1.6797 -0.49479,0.75 -0.875,1.7109 -1.14062,2.8828 -0.26563,1.1718 -0.39844,2.5859 -0.39844,4.2422 0,1.1562 0.14062,2.7682 0.42188,4.8359 0.28124,2.0677 0.42187,3.4974 0.42187,4.2891 0,1.7812 -0.38281,3.2057 -1.14844,4.2734 -0.76562,1.0677 -1.46093,1.71613 -2.08593,1.9453 v 0.3125 c 0.625,0.25 1.32031,0.89583 2.08593,1.9375 0.76563,1.04167 1.14844,2.45833 1.14844,4.25 0,0.52083 -0.14063,1.97656 -0.42187,4.36719 -0.28126,2.39062 -0.42188,3.95573 -0.42188,4.69531 0,1.66667 0.11979,3.09375 0.35938,4.2812 0.23958,1.1876 0.60937,2.1563 1.10937,2.9063 0.52083,0.7708 1.13021,1.3464 1.82815,1.7266 0.6979,0.3802 1.5052,0.6015 2.4219,0.664 v 1.25 c -2.91672,-0.0833 -5.05995,-1.0989 -6.42974,-3.0469 -1.36979,-1.9479 -2.05468,-4.73953 -2.05468,-8.37495 0,-1.19792 0.15885,-2.93229 0.47656,-5.20313 0.31771,-2.27083 0.47656,-3.6927 0.47656,-4.26562 0,-1.42708 -0.29948,-2.55469 -0.89844,-3.38281 -0.59896,-0.82813 -1.48177,-1.25781 -2.64844,-1.28907 z"
       id="path77" />
    <path
       d="m 797.88186,157.63873 h 7.437 v 52.5 h -7.437 v -1.36 h 4.547 v -49.781 h -4.547 z m -26.51,0 h 7.438 v 1.359 h -4.547 v 49.781 h 4.547 v 1.36 h -7.438 z"
       fill-rule="evenodd"
       id="path79" />
    <text
       font-family="Calibri, Calibri_MSFontService, sans-serif"
       font-weight="400"
       font-size="32px"
       id="text85"
       x="780.25885"
       y="175.42374">1<tspan
   font-family="'Cambria Math', 'Cambria Math_MSFontService', sans-serif"
   font-size="32px"
   x="779.51221"
   y="212.42374"
   id="tspan81">0</tspan><tspan
   font-size="32px"
   x="808.86554"
   y="193.42374"
   id="tspan83">,</tspan></text>
    <path
       d="m 846.92186,157.63873 h 7.437 v 52.5 h -7.437 v -1.36 h 4.547 v -49.781 h -4.547 z m -26.51,0 h 7.438 v 1.359 h -4.547 v 49.781 h 4.547 v 1.36 h -7.438 z"
       fill-rule="evenodd"
       id="path87" />
    <text
       font-family="'Cambria Math', 'Cambria Math_MSFontService', sans-serif"
       font-weight="400"
       font-size="32px"
       id="text91"
       x="828.55188"
       y="175.42374">0<tspan
   font-size="32px"
   x="828.55188"
   y="213.42374"
   id="tspan89">1</tspan></text>
    <path
       d="m 869.95176,184.93935 c -1.1667,0.0313 -2.0495,0.46094 -2.64846,1.28907 -0.59896,0.82812 -0.89844,1.95573 -0.89844,3.38281 0,0.57292 0.15885,1.99479 0.47656,4.26562 0.31771,2.27084 0.47656,4.00521 0.47656,5.20313 0,3.63542 -0.6875,6.42705 -2.0625,8.37495 -1.375,1.948 -3.51562,2.9636 -6.42187,3.0469 v -1.25 c 0.91667,-0.0625 1.72396,-0.2838 2.42187,-0.664 0.69792,-0.3802 1.30209,-0.9558 1.8125,-1.7266 0.51042,-0.75 0.88542,-1.7187 1.125,-2.9063 0.23959,-1.18745 0.35938,-2.61453 0.35938,-4.2812 0,-0.73958 -0.14062,-2.30469 -0.42188,-4.69531 -0.28124,-2.39063 -0.42187,-3.84636 -0.42187,-4.36719 0,-1.79167 0.38021,-3.20833 1.14063,-4.25 0.76041,-1.04167 1.45833,-1.6875 2.09374,-1.9375 v -0.3125 c -0.63541,-0.22917 -1.33333,-0.8776 -2.09374,-1.9453 -0.76042,-1.0677 -1.14063,-2.4922 -1.14063,-4.2734 0,-0.7917 0.14063,-2.2214 0.42187,-4.2891 0.28126,-2.0677 0.42188,-3.6797 0.42188,-4.8359 0,-1.6563 -0.13281,-3.0704 -0.39844,-4.2422 -0.26562,-1.1719 -0.64844,-2.1328 -1.14844,-2.8828 -0.5,-0.75 -1.10156,-1.3099 -1.80468,-1.6797 -0.70313,-0.3698 -1.49219,-0.586 -2.36719,-0.6485 v -1.25 c 2.75,0.1354 4.85156,1.1302 6.30469,2.9844 1.45312,1.8542 2.17968,4.724 2.17968,8.6094 0,1.3958 -0.15885,3.1302 -0.47656,5.2031 -0.31771,2.0729 -0.47656,3.4219 -0.47656,4.0469 0,1.4583 0.30208,2.5989 0.90625,3.4218 0.60415,0.823 1.48435,1.24484 2.64065,1.26568 z"
       id="path93" />
    <text
       font-family="Calibri, Calibri_MSFontService, sans-serif"
       font-weight="400"
       font-size="32px"
       id="text95"
       x="871.46484"
       y="193.42374">.</text>
    <path
       d="m 760.71186,148.42373 c 0,-8.284 5.154,-15 11.512,-15 h 27.577 c 6.358,0 11.512,-6.716 11.512,-15 0,8.284 5.154,15 11.512,15 h 28.375 c 6.358,0 11.512,6.716 11.512,15"
       stroke="#c00000"
       stroke-width="4"
       stroke-miterlimit="8"
       fill="none"
       fill-rule="evenodd"
       id="path97" />
    <text
       fill="#c00000"
       font-family="Calibri, Calibri_MSFontService, sans-serif"
       font-weight="400"
       font-size="24px"
       id="text105"
       x="669.99188"
       y="110.42373">subspace with 2 dimensions<tspan
   fill="#000000"
   font-size="27px"
   x="430.02786"
   y="340.42371"
   id="tspan99">A unique combination of</tspan><tspan
   fill="#000000"
   font-family="'Cambria Math', 'Cambria Math_MSFontService', sans-serif"
   font-size="27px"
   x="703.56085"
   y="340.42371"
   id="tspan101">c</tspan><tspan
   fill="#000000"
   font-family="'Cambria Math', 'Cambria Math_MSFontService', sans-serif"
   font-size="18px"
   x="715.39423"
   y="346.42371"
   id="tspan103">1</tspan></text>
    <path
       d="m 754.84086,310.61473 h 6.275 v 44.297 h -6.275 v -1.147 h 3.836 v -42.003 h -3.836 z m -22.174,0 h 6.275 v 1.147 h -3.836 v 42.003 h 3.836 v 1.147 h -6.275 z"
       fill-rule="evenodd"
       id="path107" />
    <text
       font-family="Calibri, Calibri_MSFontService, sans-serif"
       font-weight="400"
       font-size="27px"
       id="text117"
       x="740.08087"
       y="325.42371">1<tspan
   font-family="'Cambria Math', 'Cambria Math_MSFontService', sans-serif"
   font-size="27px"
   x="739.41418"
   y="356.42371"
   id="tspan109">0</tspan><tspan
   font-size="27px"
   x="769.98755"
   y="340.42371"
   id="tspan111">+</tspan><tspan
   font-family="'Cambria Math', 'Cambria Math_MSFontService', sans-serif"
   font-size="27px"
   x="789.32086"
   y="340.42371"
   id="tspan113">c</tspan><tspan
   font-family="'Cambria Math', 'Cambria Math_MSFontService', sans-serif"
   font-size="18px"
   x="801.15424"
   y="346.42371"
   id="tspan115">2</tspan></text>
    <path
       d="m 840.60086,310.61473 h 6.275 v 44.297 h -6.275 v -1.147 h 3.836 v -42.003 h -3.836 z m -22.174,0 h 6.275 v 1.147 h -3.836 v 42.003 h 3.836 v 1.147 h -6.275 z"
       fill-rule="evenodd"
       id="path119" />
    <text
       font-family="'Cambria Math', 'Cambria Math_MSFontService', sans-serif"
       font-weight="400"
       font-size="27px"
       id="text127"
       x="825.17383"
       y="326.42371">0<tspan
   font-size="27px"
   x="825.17383"
   y="357.42371"
   id="tspan121">1</tspan><tspan
   font-family="Calibri, Calibri_MSFontService, sans-serif"
   font-size="27px"
   x="855.74725"
   y="340.42371"
   id="tspan123">exists to form any vector</tspan><tspan
   font-size="27px"
   x="1127.8739"
   y="340.42371"
   id="tspan125">ğ‘£</tspan></text>
    <path
       d="m 1142.3523,322.79723 -3.309,2.8609 -0.6988,-0.791 2.1094,-1.8326 h -8.042 v -1.2392 h 8.042 l -2.1094,-1.8325 0.6988,-0.7911 3.309,2.8609 z"
       id="path129" />
    <text
       font-family="Calibri, Calibri_MSFontService, sans-serif"
       font-weight="400"
       font-size="27px"
       id="text153"
       x="1149.1519"
       y="340.42371">in <tspan
   font-family="Cambria, Cambria_MSFontService, sans-serif"
   font-size="27px"
   x="1175.3186"
   y="340.42371"
   id="tspan131">R</tspan><tspan
   font-family="Cambria, Cambria_MSFontService, sans-serif"
   font-size="18px"
   x="1191.8186"
   y="332.42371"
   id="tspan133">2</tspan><tspan
   font-size="27px"
   x="1201.6519"
   y="340.42371"
   id="tspan135">.</tspan><tspan
   font-family="'Cambria Math', 'Cambria Math_MSFontService', sans-serif"
   font-size="27px"
   x="429.91986"
   y="403.42371"
   id="tspan137">{</tspan><tspan
   font-family="'Cambria Math', 'Cambria Math_MSFontService', sans-serif"
   font-size="27px"
   x="440.25287"
   y="403.42371"
   id="tspan139">c</tspan><tspan
   font-family="'Cambria Math', 'Cambria Math_MSFontService', sans-serif"
   font-size="18px"
   x="452.08685"
   y="409.42371"
   id="tspan141">1</tspan><tspan
   font-size="27px"
   x="461.91986"
   y="403.42371"
   id="tspan143">,</tspan><tspan
   font-family="'Cambria Math', 'Cambria Math_MSFontService', sans-serif"
   font-size="27px"
   x="474.58685"
   y="403.42371"
   id="tspan145">c</tspan><tspan
   font-family="'Cambria Math', 'Cambria Math_MSFontService', sans-serif"
   font-size="18px"
   x="486.41986"
   y="409.42371"
   id="tspan147">2</tspan><tspan
   font-family="'Cambria Math', 'Cambria Math_MSFontService', sans-serif"
   font-size="27px"
   x="496.25287"
   y="403.42371"
   id="tspan149">}</tspan><tspan
   font-size="27px"
   x="512.58685"
   y="403.42371"
   id="tspan151">acts as the coordinates of the regular basis vectors</tspan></text>
    <path
       d="m 1066.7507,395.13125 c 0.9756,-0.0176 1.7183,-0.37354 2.228,-1.06787 0.5098,-0.69435 0.7647,-1.65675 0.7647,-2.88725 0,-0.5273 -0.134,-1.6655 -0.4021,-3.4145 -0.2681,-1.749 -0.4021,-3.2124 -0.4021,-4.3901 0,-3.2784 0.6108,-5.6998 1.8325,-7.2642 1.2217,-1.5645 2.9971,-2.4038 5.3262,-2.5181 v 1.0547 c -0.7383,0.0528 -1.4063,0.2351 -2.0039,0.5471 -0.5977,0.312 -1.1052,0.7845 -1.5227,1.4173 -0.4175,0.6328 -0.7383,1.4436 -0.9624,2.4323 -0.2242,0.9888 -0.3362,2.1819 -0.3362,3.5794 0,0.9756 0.1186,2.3357 0.3559,4.0803 0.2373,1.7446 0.356,2.9509 0.356,3.6189 0,1.5029 -0.323,2.7048 -0.969,3.60572 -0.646,0.90088 -1.2327,1.448 -1.76,1.64136 v 0.26367 c 0.5273,0.21094 1.114,0.75586 1.76,1.63477 0.646,0.8789 0.969,2.07421 0.969,3.58593 0,0.43946 -0.1187,1.66773 -0.356,3.68482 -0.2373,2.01709 -0.3559,3.33764 -0.3559,3.96167 0,1.40625 0.1011,2.61035 0.3032,3.6123 0.2021,1.00196 0.5142,1.81936 0.936,2.45216 0.4395,0.6504 0.9536,1.136 1.5425,1.4568 0.5889,0.3208 1.27,0.5075 2.0435,0.5603 v 1.0547 c -2.461,-0.0703 -4.2693,-0.9273 -5.4251,-2.5708 -1.1557,-1.6436 -1.7336,-3.99906 -1.7336,-7.06644 0,-1.01074 0.134,-2.47412 0.4021,-4.39014 0.2681,-1.91601 0.4021,-3.11572 0.4021,-3.59912 0,-1.2041 -0.2527,-2.15551 -0.7581,-2.85424 -0.5053,-0.69873 -1.2502,-1.06128 -2.2346,-1.08765 z"
       id="path155" />
    <path
       d="m 1101.9419,373.97473 h 6.28 v 44.297 h -6.28 v -1.147 h 3.84 v -42.003 h -3.84 z m -22.17,0 h 6.27 v 1.147 h -3.84 v 42.003 h 3.84 v 1.147 h -6.27 z"
       fill-rule="evenodd"
       id="path157" />
    <text
       font-family="Calibri, Calibri_MSFontService, sans-serif"
       font-weight="400"
       font-size="27px"
       id="text163"
       x="1087.1819"
       y="389.42371">1<tspan
   font-family="'Cambria Math', 'Cambria Math_MSFontService', sans-serif"
   font-size="27px"
   x="1086.5153"
   y="420.42371"
   id="tspan159">0</tspan><tspan
   font-size="27px"
   x="1111.0886"
   y="403.42371"
   id="tspan161">,</tspan></text>
    <path
       d="m 1142.9219,373.97473 h 6.28 v 44.297 h -6.28 v -1.147 h 3.84 v -42.003 h -3.84 z m -22.17,0 h 6.27 v 1.147 h -3.84 v 42.003 h 3.84 v 1.147 h -6.27 z"
       fill-rule="evenodd"
       id="path165" />
    <text
       font-family="'Cambria Math', 'Cambria Math_MSFontService', sans-serif"
       font-weight="400"
       font-size="27px"
       id="text169"
       x="1127.4919"
       y="389.42371">0<tspan
   font-size="27px"
   x="1127.4919"
   y="420.42371"
   id="tspan167">1</tspan></text>
    <path
       d="m 1162.2365,396.26504 c -0.9844,0.0264 -1.7293,0.38892 -2.2347,1.08765 -0.5053,0.69873 -0.758,1.65014 -0.758,2.85424 0,0.4834 0.134,1.68311 0.4021,3.59912 0.268,1.91602 0.4021,3.3794 0.4021,4.39014 0,3.06738 -0.5801,5.42284 -1.7403,7.06644 -1.1601,1.6435 -2.9663,2.5005 -5.4184,2.5708 v -1.0547 c 0.7734,-0.0528 1.4546,-0.2395 2.0434,-0.5603 0.5889,-0.3208 1.0987,-0.8064 1.5293,-1.4568 0.4307,-0.6328 0.7471,-1.4502 0.9493,-2.45216 0.2021,-1.00195 0.3032,-2.20605 0.3032,-3.6123 0,-0.62403 -0.1187,-1.94458 -0.356,-3.96167 -0.2373,-2.01709 -0.3559,-3.24536 -0.3559,-3.68482 0,-1.51172 0.3208,-2.70703 0.9624,-3.58593 0.6416,-0.87891 1.2304,-1.42383 1.7666,-1.63477 v -0.26367 c -0.5362,-0.19336 -1.125,-0.74048 -1.7666,-1.64136 -0.6416,-0.90092 -0.9624,-2.10282 -0.9624,-3.60572 0,-0.668 0.1186,-1.8743 0.3559,-3.6189 0.2373,-1.7446 0.356,-3.1047 0.356,-4.0803 0,-1.3975 -0.1121,-2.5906 -0.3362,-3.5794 -0.2241,-0.9887 -0.5471,-1.7995 -0.969,-2.4323 -0.4219,-0.6328 -0.9294,-1.1053 -1.5227,-1.4173 -0.5933,-0.312 -1.259,-0.4943 -1.9973,-0.5471 v -1.0547 c 2.3203,0.1143 4.0935,0.9536 5.3196,2.5181 1.226,1.5644 1.8391,3.9858 1.8391,7.2642 0,1.1777 -0.1341,2.6411 -0.4021,4.3901 -0.2681,1.749 -0.4021,2.8872 -0.4021,3.4145 0,1.2305 0.2549,2.1929 0.7646,2.88725 0.5098,0.69433 1.2525,1.05029 2.2281,1.06787 z"
       id="path171" />
    <text
       font-family="Calibri, Calibri_MSFontService, sans-serif"
       font-weight="400"
       font-size="27px"
       id="text173"
       x="1163.3719"
       y="403.42371">.</text>
    <path
       d="m 107.91325,536.66123 146.12661,-148.8355 -2.854,-2.803 -146.12689,148.83616 z m 0.0462,-15.3594 -4.2541,16.79051 16.70949,-4.56169 c 1.0656,-0.2909 1.6936,-1.39054 1.4027,-2.45611 -0.2909,-1.06558 -1.3905,-1.69358 -2.4561,-1.40267 l -13.40201,3.65873 2.46547,2.4206 3.41203,-13.46687 c 0.27128,-1.0708 -0.3768,-2.1587 -1.44754,-2.43 -1.07073,-0.2713 -2.15866,0.3768 -2.42994,1.4475 z"
       fill="#c00000"
       id="path175" />
    <text
       fill="#c00000"
       font-family="Calibri, Calibri_MSFontService, sans-serif"
       font-weight="400"
       font-size="27px"
       id="text181"
       x="429.92184"
       y="470.42371">If<tspan
   font-family="'Cambria Math', 'Cambria Math_MSFontService', sans-serif"
   font-size="27px"
   x="444.75516"
   y="470.42371"
   id="tspan177" /><tspan
   font-family="'Cambria Math', 'Cambria Math_MSFontService', sans-serif"
   font-size="27px"
   x="450.58856"
   y="470.42371"
   id="tspan179">ğ‘£</tspan></text>
    <path
       d="m 465.06229,452.79723 -3.30908,2.8609 -0.69873,-0.791 2.10937,-1.8326 h -8.04199 v -1.2392 h 8.04199 l -2.10937,-1.8325 0.69873,-0.7911 3.30908,2.8609 z"
       fill="#c00000"
       id="path183" />
    <text
       fill="#c00000"
       font-family="'Cambria Math', 'Cambria Math_MSFontService', sans-serif"
       font-weight="400"
       font-size="27px"
       id="text185"
       x="473.27484"
       y="470.42371">=</text>
    <path
       d="m 539.18186,440.31673 h 6.275 v 44.297 h -6.275 v -1.147 h 3.836 v -42.003 h -3.836 z m -35.507,0 h 6.275 v 1.147 h -3.836 v 42.003 h 3.836 v 1.147 h -6.275 z"
       fill="#c00000"
       fill-rule="evenodd"
       id="path187" />
    <text
       fill="#c00000"
       font-family="Calibri, Calibri_MSFontService, sans-serif"
       font-weight="400"
       font-size="27px"
       id="text241"
       x="510.42188"
       y="455.42371">âˆ’<tspan
   font-family="'Cambria Math', 'Cambria Math_MSFontService', sans-serif"
   font-size="27px"
   x="523.75525"
   y="455.42371"
   id="tspan189">2</tspan><tspan
   font-size="27px"
   x="510.42188"
   y="487.42371"
   id="tspan191">âˆ’</tspan><tspan
   font-family="'Cambria Math', 'Cambria Math_MSFontService', sans-serif"
   font-size="27px"
   x="523.75525"
   y="487.42371"
   id="tspan193">2</tspan><tspan
   font-size="27px"
   x="552.77515"
   y="470.42371"
   id="tspan195">,</tspan><tspan
   font-size="27px"
   x="559.44183"
   y="470.42371"
   id="tspan197" /><tspan
   font-family="'Cambria Math', 'Cambria Math_MSFontService', sans-serif"
   font-size="27px"
   x="565.44183"
   y="470.42371"
   id="tspan199" /><tspan
   font-family="'Cambria Math', 'Cambria Math_MSFontService', sans-serif"
   font-size="27px"
   x="571.27515"
   y="470.42371"
   id="tspan201">{</tspan><tspan
   font-family="'Cambria Math', 'Cambria Math_MSFontService', sans-serif"
   font-size="27px"
   x="581.60858"
   y="470.42371"
   id="tspan203">c</tspan><tspan
   font-family="'Cambria Math', 'Cambria Math_MSFontService', sans-serif"
   font-size="18px"
   x="593.44183"
   y="476.42371"
   id="tspan205">1</tspan><tspan
   font-size="27px"
   x="603.27515"
   y="470.42371"
   id="tspan207">,</tspan><tspan
   font-size="27px"
   x="609.94183"
   y="470.42371"
   id="tspan209" /><tspan
   font-family="'Cambria Math', 'Cambria Math_MSFontService', sans-serif"
   font-size="27px"
   x="615.94183"
   y="470.42371"
   id="tspan211">c</tspan><tspan
   font-family="'Cambria Math', 'Cambria Math_MSFontService', sans-serif"
   font-size="18px"
   x="627.77484"
   y="476.42371"
   id="tspan213">2</tspan><tspan
   font-family="'Cambria Math', 'Cambria Math_MSFontService', sans-serif"
   font-size="27px"
   x="637.60883"
   y="470.42371"
   id="tspan215">}</tspan><tspan
   font-family="'Cambria Math', 'Cambria Math_MSFontService', sans-serif"
   font-size="27px"
   x="647.94183"
   y="470.42371"
   id="tspan217" /><tspan
   font-family="'Cambria Math', 'Cambria Math_MSFontService', sans-serif"
   font-size="27px"
   x="653.77484"
   y="470.42371"
   id="tspan219">=</tspan><tspan
   font-family="'Cambria Math', 'Cambria Math_MSFontService', sans-serif"
   font-size="27px"
   x="673.77484"
   y="470.42371"
   id="tspan221" /><tspan
   font-family="'Cambria Math', 'Cambria Math_MSFontService', sans-serif"
   font-size="27px"
   x="679.60883"
   y="470.42371"
   id="tspan223">{</tspan><tspan
   font-size="27px"
   x="689.94183"
   y="470.42371"
   id="tspan225">âˆ’</tspan><tspan
   font-family="'Cambria Math', 'Cambria Math_MSFontService', sans-serif"
   font-size="27px"
   x="703.27484"
   y="470.42371"
   id="tspan227">2,</tspan><tspan
   font-size="27px"
   x="723.60883"
   y="470.42371"
   id="tspan229">âˆ’</tspan><tspan
   font-family="'Cambria Math', 'Cambria Math_MSFontService', sans-serif"
   font-size="27px"
   x="736.94183"
   y="470.42371"
   id="tspan231">2}</tspan><tspan
   font-family="'Cambria Math', 'Cambria Math_MSFontService', sans-serif"
   font-size="27px"
   x="762.10883"
   y="470.42371"
   id="tspan233" /><tspan
   font-size="27px"
   x="767.94183"
   y="470.42371"
   id="tspan235">as</tspan><tspan
   font-size="27px"
   x="791.27484"
   y="470.42371"
   id="tspan237" />âˆ’<tspan
   font-family="'Cambria Math', 'Cambria Math_MSFontService', sans-serif"
   font-size="27px"
   x="810.60889"
   y="470.42371"
   id="tspan239">2</tspan></text>
    <path
       d="m 855.05486,440.31673 h 6.276 v 44.297 h -6.276 v -1.147 h 3.837 v -42.003 h -3.837 z m -22.174,0 h 6.276 v 1.147 h -3.837 v 42.003 h 3.837 v 1.147 h -6.276 z"
       fill="#c00000"
       fill-rule="evenodd"
       id="path243" />
    <text
       fill="#c00000"
       font-family="Calibri, Calibri_MSFontService, sans-serif"
       font-weight="400"
       font-size="27px"
       id="text251"
       x="840.29486"
       y="455.42371">1<tspan
   font-family="'Cambria Math', 'Cambria Math_MSFontService', sans-serif"
   font-size="27px"
   x="839.62817"
   y="486.42371"
   id="tspan245">0</tspan><tspan
   font-size="27px"
   x="870.20154"
   y="470.42371"
   id="tspan247">+ (</tspan>âˆ’<tspan
   font-size="27px"
   x="911.03485"
   y="470.42371"
   id="tspan249">2)</tspan></text>
    <path
       d="m 957.86886,440.31673 h 6.275 v 44.297 h -6.275 v -1.147 h 3.836 v -42.003 h -3.836 z m -22.174,0 h 6.275 v 1.147 h -3.836 v 42.003 h 3.836 v 1.147 h -6.275 z"
       fill="#c00000"
       fill-rule="evenodd"
       id="path253" />
    <text
       fill="#c00000"
       font-family="'Cambria Math', 'Cambria Math_MSFontService', sans-serif"
       font-weight="400"
       font-size="27px"
       id="text259"
       x="942.44183"
       y="455.42371">0<tspan
   font-size="27px"
   x="942.44183"
   y="487.42371"
   id="tspan255">1</tspan><tspan
   font-family="Calibri, Calibri_MSFontService, sans-serif"
   font-size="27px"
   x="973.01526"
   y="470.42371"
   id="tspan257">=</tspan></text>
    <path
       d="m 1030.8519,440.31673 h 6.27 v 44.297 h -6.27 v -1.147 h 3.83 v -42.003 h -3.83 z m -35.51104,0 h 6.27104 v 1.147 h -3.83004 v 42.003 h 3.83004 v 1.147 h -6.27104 z"
       fill="#c00000"
       fill-rule="evenodd"
       id="path261" />
    <text
       fill="#c00000"
       font-family="Calibri, Calibri_MSFontService, sans-serif"
       font-weight="400"
       font-size="27px"
       id="text285"
       x="1002.0919"
       y="455.42371">âˆ’<tspan
   font-family="'Cambria Math', 'Cambria Math_MSFontService', sans-serif"
   font-size="27px"
   x="1015.4252"
   y="455.42371"
   id="tspan263">2</tspan><tspan
   font-size="27px"
   x="1002.0919"
   y="487.42371"
   id="tspan265">âˆ’</tspan><tspan
   font-family="'Cambria Math', 'Cambria Math_MSFontService', sans-serif"
   font-size="27px"
   x="1015.4252"
   y="487.42371"
   id="tspan267">2</tspan><tspan
   fill="#000000"
   font-size="32px"
   x="43.431892"
   y="569.42377"
   id="tspan269">(</tspan><tspan
   fill="#000000"
   font-size="32px"
   x="53.098885"
   y="569.42377"
   id="tspan271">âˆ’</tspan><tspan
   fill="#000000"
   font-size="32px"
   x="69.098877"
   y="569.42377"
   id="tspan273">2</tspan><tspan
   fill="#000000"
   font-size="32px"
   x="85.264832"
   y="569.42377"
   id="tspan275">,</tspan><tspan
   fill="#000000"
   font-size="32px"
   x="100.43188"
   y="569.42377"
   id="tspan277">âˆ’</tspan><tspan
   fill="#000000"
   font-size="32px"
   x="116.43188"
   y="569.42377"
   id="tspan279">2)</tspan><tspan
   fill="#000000"
   font-family="'Cambria Math', 'Cambria Math_MSFontService', sans-serif"
   font-size="24px"
   x="185.1429"
   y="489.42371"
   id="tspan281">ğ‘£</tspan><tspan
   fill="#000000"
   font-family="'Cambria Math', 'Cambria Math_MSFontService', sans-serif"
   font-size="16px"
   x="198.1429"
   y="494.42371"
   id="tspan283">1</tspan></text>
    <path
       d="m 204.02086,470.34373 2.941,2.543 v 0.68 l -2.941,2.543 -0.621,-0.704 1.875,-1.628 h -4.811 -2.338 -1.802 -2.891 -1.256 -2.884 -4.147 v -1.102 h 4.147 2.884 1.256 2.891 1.802 2.338 4.811 l -1.875,-1.629 z"
       fill-rule="evenodd"
       id="path287" />
    <text
       font-family="'Cambria Math', 'Cambria Math_MSFontService', sans-serif"
       font-weight="400"
       font-size="24px"
       transform="translate(209.261,539)"
       id="text289" />
  </g>
</svg>
