<?xml version="1.0" encoding="UTF-8" standalone="no"?>
<svg
   width="1220"
   height="680"
   overflow="hidden"
   version="1.1"
   id="svg169"
   sodipodi:docname="linear_systems-parametric_solution_example.svg"
   xmlns:inkscape="http://www.inkscape.org/namespaces/inkscape"
   xmlns:sodipodi="http://sodipodi.sourceforge.net/DTD/sodipodi-0.dtd"
   xmlns="http://www.w3.org/2000/svg"
   xmlns:svg="http://www.w3.org/2000/svg">
  <sodipodi:namedview
     id="namedview171"
     pagecolor="#ffffff"
     bordercolor="#000000"
     borderopacity="0.25"
     inkscape:showpageshadow="2"
     inkscape:pageopacity="0.0"
     inkscape:pagecheckerboard="0"
     inkscape:deskcolor="#d1d1d1"
     showgrid="false" />
  <defs
     id="defs5">
    <clipPath
       clipPathUnits="userSpaceOnUse"
       id="clipPath649">
      <rect
         x="-543.48401"
         y="-149"
         width="1280"
         height="720"
         id="rect651" />
    </clipPath>
    <clipPath
       clipPathUnits="userSpaceOnUse"
       id="clipPath653">
      <rect
         x="-332.39099"
         y="-149"
         width="1280"
         height="720"
         id="rect655" />
    </clipPath>
  </defs>
  <rect
     x="-12.20339"
     y="-1.5254236"
     width="1280"
     height="720"
     fill="#ffffff"
     id="rect7" />
  <text
     font-family="Calibri, Calibri_MSFontService, sans-serif"
     font-weight="400"
     font-size="32px"
     id="text9"
     x="87.298409"
     y="79.474579">The solution set contains the parametric vector form:</text>
  <path
     d="M 3.8125,-9.28125 V -9 c 1.40625,0.61458 2.40885,1.55729 3.00781,2.82812 0.59896,1.27084 0.89844,2.92188 0.89844,4.95313 0,0.6875 -0.28646,2.52865 -0.85937,5.52344 C 6.28646,7.29948 6,9.52604 6,10.9844 c 0,3.4375 0.55208,5.9844 1.65625,7.6406 1.10417,1.6562 2.36975,2.5833 3.79685,2.7812 V 22.75 C 9.22396,22.5417 7.26562,21.3854 5.57812,19.2812 3.89062,17.1771 3.04687,13.9427 3.04688,9.57812 3.04687,7.94271 3.34896,5.70052 3.95312,2.85156 4.55729,0.00260425 4.85938,-1.94271 4.85938,-2.98438 4.85938,-4.68229 4.51302,-5.99219 3.82031,-6.91406 3.1276,-7.83594 2.24479,-8.33333 1.17188,-8.40625 V -9.875 c 1.07291,-0.07292 1.95572,-0.5703 2.64843,-1.4922 0.69271,-0.9219 1.03907,-2.2318 1.03907,-3.9297 0,-1.0416 -0.30209,-2.987 -0.90626,-5.8359 -0.60416,-2.849 -0.90625,-5.0912 -0.90624,-6.7266 -10e-6,-4.3646 0.84374,-7.5989 2.53124,-9.7031 1.6875,-2.1042 3.64584,-3.2604 5.87498,-3.4687 v 1.3437 c -1.4271,0.1979 -2.69268,1.125 -3.79685,2.7813 C 6.55208,-35.25 6,-32.7031 6,-29.2656 c 0,1.4583 0.28646,3.6849 0.85938,6.6797 0.57291,2.9948 0.85937,4.8359 0.85937,5.5234 0,2.0313 -0.29948,3.6823 -0.89844,4.9531 -0.59896,1.2709 -1.60156,2.21357 -3.00781,2.82815 z"
     transform="translate(320.18761,147.47458)"
     id="path11"
     clip-path="url(#clipPath653)" />
  <path
     d="m 379.07661,106.95858 h 7.86 v 63.656 h -7.86 v -1.437 h 4.797 v -60.781 h -4.797 z m -42.934,0 h 7.86 v 1.438 h -4.797 v 60.781 h 4.797 v 1.437 h -7.86 z"
     fill-rule="evenodd"
     id="path13" />
  <text
     font-family="Calibri, Calibri_MSFontService, sans-serif"
     font-weight="400"
     font-size="32px"
     id="text27"
     x="344.70761"
     y="130.47458">âˆ’<tspan
   font-family="'Cambria Math', 'Cambria Math_MSFontService', sans-serif"
   font-size="32px"
   x="360.70761"
   y="130.47458"
   id="tspan15">2</tspan><tspan
   font-family="'Cambria Math', 'Cambria Math_MSFontService', sans-serif"
   font-size="32px"
   x="352.70761"
   y="168.47458"
   id="tspan17">0</tspan><tspan
   font-family="'Cambria Math', 'Cambria Math_MSFontService', sans-serif"
   font-size="32px"
   x="397.61432"
   y="147.47458"
   id="tspan19">+</tspan><tspan
   font-family="'Cambria Math', 'Cambria Math_MSFontService', sans-serif"
   font-size="32px"
   x="425.00092"
   y="147.47458"
   id="tspan21" /><tspan
   font-family="'Cambria Math', 'Cambria Math_MSFontService', sans-serif"
   font-size="32px"
   x="435.56091"
   y="147.47458"
   id="tspan23">ğ‘¥</tspan><tspan
   font-family="'Cambria Math', 'Cambria Math_MSFontService', sans-serif"
   font-size="23px"
   x="452.24762"
   y="154.47458"
   id="tspan25">2</tspan></text>
  <path
     d="m 520.29661,112.54158 h 7.438 v 52.5 h -7.438 v -1.36 h 4.547 v -49.781 h -4.547 z m -42.509,0 h 7.437 v 1.359 h -4.547 v 49.781 h 4.547 v 1.36 h -7.437 z"
     fill-rule="evenodd"
     id="path29" />
  <text
     font-family="Calibri, Calibri_MSFontService, sans-serif"
     font-weight="400"
     font-size="32px"
     id="text35"
     x="485.92761"
     y="130.47458">âˆ’<tspan
   font-family="'Cambria Math', 'Cambria Math_MSFontService', sans-serif"
   font-size="32px"
   x="501.92761"
   y="130.47458"
   id="tspan31">4</tspan><tspan
   font-family="'Cambria Math', 'Cambria Math_MSFontService', sans-serif"
   font-size="32px"
   x="493.92761"
   y="168.47458"
   id="tspan33">1</tspan></text>
  <path
     d="M 12.0469,-8.48438 C 10.8802,-8.45312 9.9974,-8.02344 9.39844,-7.19531 8.79948,-6.36719 8.5,-5.23958 8.5,-3.8125 c 0,0.57292 0.15885,1.99479 0.47656,4.265625 0.31771,2.270835 0.47656,4.005205 0.47656,5.203125 0,3.63542 -0.6875,6.42705 -2.0625,8.37495 -1.375,1.948 -3.51562,2.9636 -6.42187,3.0469 v -1.25 c 0.91667,-0.0625 1.72396,-0.2838 2.42187,-0.664 0.69792,-0.3802 1.30209,-0.9558 1.8125,-1.7266 0.51042,-0.75 0.88542,-1.7187 1.125,-2.9063 C 6.56771,9.34375 6.6875,7.91667 6.6875,6.25 6.6875,5.51042 6.54688,3.94531 6.26562,1.55469 5.98438,-0.835937 5.84375,-2.29167 5.84375,-2.8125 c 0,-1.79167 0.38021,-3.20833 1.14063,-4.25 C 7.74479,-8.10417 8.44271,-8.75 9.07812,-9 V -9.3125 C 8.44271,-9.54167 7.74479,-10.1901 6.98438,-11.2578 6.22396,-12.3255 5.84375,-13.75 5.84375,-15.5312 c 0,-0.7917 0.14063,-2.2214 0.42187,-4.2891 0.28126,-2.0677 0.42188,-3.6797 0.42188,-4.8359 0,-1.6563 -0.13281,-3.0704 -0.39844,-4.2422 -0.26562,-1.1719 -0.64844,-2.1328 -1.14844,-2.8828 -0.5,-0.75 -1.10156,-1.3099 -1.80468,-1.6797 -0.70313,-0.3698 -1.49219,-0.586 -2.36719,-0.6485 v -1.25 c 2.75,0.1354 4.85156,1.1302 6.30469,2.9844 1.45312,1.8542 2.17968,4.724 2.17968,8.6094 0,1.3958 -0.15885,3.1302 -0.47656,5.2031 C 8.65885,-16.4896 8.5,-15.1406 8.5,-14.5156 c 0,1.4583 0.30208,2.5989 0.90625,3.4218 0.60415,0.823 1.48435,1.24484 2.64065,1.26568 z"
     transform="translate(531.28061,147.47458)"
     id="path37"
     clip-path="url(#clipPath649)" />
  <text
     font-family="Calibri, Calibri_MSFontService, sans-serif"
     font-weight="400"
     font-size="32px"
     id="text39"
     x="87.298409"
     y="559.47461">The vector</text>
  <path
     d="m 278.66861,518.28858 h 7.859 v 63.656 h -7.859 v -1.437 h 4.797 v -60.781 h -4.797 z m -42.934,0 h 7.859 v 1.438 h -4.797 v 60.781 h 4.797 v 1.437 h -7.859 z"
     fill="#44546a"
     fill-rule="evenodd"
     id="path41" />
  <text
     fill="#44546a"
     font-family="Calibri, Calibri_MSFontService, sans-serif"
     font-weight="400"
     font-size="32px"
     id="text57"
     x="244.29863"
     y="542.47455">âˆ’<tspan
   font-family="'Cambria Math', 'Cambria Math_MSFontService', sans-serif"
   font-size="32px"
   x="260.29861"
   y="542.47455"
   id="tspan43">2</tspan><tspan
   font-family="'Cambria Math', 'Cambria Math_MSFontService', sans-serif"
   font-size="32px"
   x="252.29863"
   y="579.47455"
   id="tspan45">0</tspan><tspan
   fill="#000000"
   font-size="32px"
   x="297.25861"
   y="559.47455"
   id="tspan47">represents a point in 2D</tspan><tspan
   fill="#000000"
   font-size="32px"
   x="615.15161"
   y="559.47455"
   id="tspan49">space.</tspan><tspan
   fill="#000000"
   font-size="32px"
   x="87.298607"
   y="634.47455"
   id="tspan51">The vector</tspan><tspan
   fill="#000000"
   font-family="'Cambria Math', 'Cambria Math_MSFontService', sans-serif"
   font-size="32px"
   x="232.17192"
   y="634.47455"
   id="tspan53">ğ‘¥</tspan><tspan
   fill="#000000"
   font-family="'Cambria Math', 'Cambria Math_MSFontService', sans-serif"
   font-size="23px"
   x="248.85863"
   y="641.47455"
   id="tspan55">2</tspan></text>
  <path
     d="m 322.90861,599.19658 h 7.437 v 52.5 h -7.437 v -1.36 h 4.547 v -49.781 h -4.547 z m -50.343,0 h 7.437 v 1.359 h -4.547 v 49.781 h 4.547 v 1.36 h -7.437 z"
     fill="#c00000"
     fill-rule="evenodd"
     id="path59" />
  <text
     fill="#c00000"
     font-family="'Cambria Math', 'Cambria Math_MSFontService', sans-serif"
     font-weight="400"
     font-size="32px"
     id="text67"
     x="280.7056"
     y="617.47461">âˆ’<tspan
   font-size="32px"
   x="304.53891"
   y="617.47461"
   id="tspan61">4</tspan><tspan
   font-size="32px"
   x="292.6189"
   y="654.47461"
   id="tspan63">1</tspan><tspan
   fill="#000000"
   font-family="Calibri, Calibri_MSFontService, sans-serif"
   font-size="32px"
   x="341.0589"
   y="634.47461"
   id="tspan65">represents the slope of the line which intersects the point</tspan></text>
  <path
     d="m 1143.4166,593.61358 h 7.86 v 63.656 h -7.86 v -1.437 h 4.8 v -60.781 h -4.8 z m -42.93,0 h 7.86 v 1.438 h -4.8 v 60.781 h 4.8 v 1.437 h -7.86 z"
     fill-rule="evenodd"
     id="path69" />
  <text
     font-family="Calibri, Calibri_MSFontService, sans-serif"
     font-weight="400"
     font-size="32px"
     id="text77"
     x="1109.0566"
     y="617.47461">âˆ’<tspan
   font-family="'Cambria Math', 'Cambria Math_MSFontService', sans-serif"
   font-size="32px"
   x="1125.0566"
   y="617.47461"
   id="tspan71">2</tspan><tspan
   font-family="'Cambria Math', 'Cambria Math_MSFontService', sans-serif"
   font-size="32px"
   x="1117.0566"
   y="654.47461"
   id="tspan73">0</tspan><tspan
   font-size="32px"
   x="1154.8499"
   y="634.47461"
   id="tspan75">.</tspan></text>
  <rect
     x="703.79663"
     y="415.47458"
     width="76"
     height="76"
     stroke="#ededed"
     stroke-width="4"
     stroke-miterlimit="8"
     fill="none"
     id="rect79" />
  <rect
     x="703.79663"
     y="340.47458"
     width="76"
     height="75"
     stroke="#ededed"
     stroke-width="4"
     stroke-miterlimit="8"
     fill="none"
     id="rect81" />
  <rect
     x="703.79663"
     y="264.47458"
     width="76"
     height="76"
     stroke="#ededed"
     stroke-width="4"
     stroke-miterlimit="8"
     fill="none"
     id="rect83" />
  <rect
     x="703.79663"
     y="188.47458"
     width="76"
     height="76"
     stroke="#ededed"
     stroke-width="4"
     stroke-miterlimit="8"
     fill="none"
     id="rect85" />
  <rect
     x="174.79662"
     y="415.47458"
     width="76"
     height="76"
     stroke="#ededed"
     stroke-width="4"
     stroke-miterlimit="8"
     fill="none"
     id="rect87" />
  <rect
     x="99.796608"
     y="415.47458"
     width="75"
     height="76"
     stroke="#ededed"
     stroke-width="4"
     stroke-miterlimit="8"
     fill="none"
     id="rect89" />
  <rect
     x="250.79662"
     y="415.47458"
     width="75"
     height="76"
     stroke="#ededed"
     stroke-width="4"
     stroke-miterlimit="8"
     fill="none"
     id="rect91" />
  <rect
     x="250.79662"
     y="340.47458"
     width="75"
     height="75"
     stroke="#ededed"
     stroke-width="4"
     stroke-miterlimit="8"
     fill="none"
     id="rect93" />
  <rect
     x="325.7966"
     y="415.47458"
     width="75"
     height="76"
     stroke="#ededed"
     stroke-width="4"
     stroke-miterlimit="8"
     fill="none"
     id="rect95" />
  <rect
     x="325.7966"
     y="340.47458"
     width="75"
     height="75"
     stroke="#ededed"
     stroke-width="4"
     stroke-miterlimit="8"
     fill="none"
     id="rect97" />
  <rect
     x="325.7966"
     y="189.47458"
     width="75"
     height="75"
     stroke="#ededed"
     stroke-width="4"
     stroke-miterlimit="8"
     fill="none"
     id="rect99" />
  <rect
     x="249.79662"
     y="189.47458"
     width="76"
     height="75"
     stroke="#ededed"
     stroke-width="4"
     stroke-miterlimit="8"
     fill="none"
     id="rect101" />
  <rect
     x="174.79662"
     y="340.47458"
     width="76"
     height="75"
     stroke="#ededed"
     stroke-width="4"
     stroke-miterlimit="8"
     fill="none"
     id="rect103" />
  <rect
     x="99.796608"
     y="340.47458"
     width="75"
     height="75"
     stroke="#ededed"
     stroke-width="4"
     stroke-miterlimit="8"
     fill="none"
     id="rect105" />
  <rect
     x="174.79662"
     y="189.47458"
     width="76"
     height="75"
     stroke="#ededed"
     stroke-width="4"
     stroke-miterlimit="8"
     fill="none"
     id="rect107" />
  <rect
     x="99.796608"
     y="189.47458"
     width="75"
     height="75"
     stroke="#ededed"
     stroke-width="4"
     stroke-miterlimit="8"
     fill="none"
     id="rect109" />
  <rect
     x="400.7966"
     y="415.47458"
     width="76"
     height="76"
     stroke="#ededed"
     stroke-width="4"
     stroke-miterlimit="8"
     fill="none"
     id="rect111" />
  <rect
     x="400.7966"
     y="340.47458"
     width="76"
     height="75"
     stroke="#ededed"
     stroke-width="4"
     stroke-miterlimit="8"
     fill="none"
     id="rect113" />
  <rect
     x="475.7966"
     y="415.47458"
     width="76"
     height="76"
     stroke="#ededed"
     stroke-width="4"
     stroke-miterlimit="8"
     fill="none"
     id="rect115" />
  <rect
     x="475.7966"
     y="340.47458"
     width="76"
     height="75"
     stroke="#ededed"
     stroke-width="4"
     stroke-miterlimit="8"
     fill="none"
     id="rect117" />
  <rect
     x="475.7966"
     y="264.47458"
     width="76"
     height="76"
     stroke="#ededed"
     stroke-width="4"
     stroke-miterlimit="8"
     fill="none"
     id="rect119" />
  <rect
     x="475.7966"
     y="189.47458"
     width="76"
     height="75"
     stroke="#ededed"
     stroke-width="4"
     stroke-miterlimit="8"
     fill="none"
     id="rect121" />
  <rect
     x="400.7966"
     y="189.47458"
     width="75"
     height="75"
     stroke="#ededed"
     stroke-width="4"
     stroke-miterlimit="8"
     fill="none"
     id="rect123" />
  <rect
     x="552.79663"
     y="415.47458"
     width="75"
     height="76"
     stroke="#ededed"
     stroke-width="4"
     stroke-miterlimit="8"
     fill="none"
     id="rect125" />
  <rect
     x="552.79663"
     y="340.47458"
     width="75"
     height="75"
     stroke="#ededed"
     stroke-width="4"
     stroke-miterlimit="8"
     fill="none"
     id="rect127" />
  <rect
     x="627.79663"
     y="415.47458"
     width="76"
     height="76"
     stroke="#ededed"
     stroke-width="4"
     stroke-miterlimit="8"
     fill="none"
     id="rect129" />
  <rect
     x="627.79663"
     y="340.47458"
     width="76"
     height="75"
     stroke="#ededed"
     stroke-width="4"
     stroke-miterlimit="8"
     fill="none"
     id="rect131" />
  <rect
     x="627.79663"
     y="264.47458"
     width="76"
     height="76"
     stroke="#ededed"
     stroke-width="4"
     stroke-miterlimit="8"
     fill="none"
     id="rect133" />
  <rect
     x="627.79663"
     y="188.47458"
     width="76"
     height="76"
     stroke="#ededed"
     stroke-width="4"
     stroke-miterlimit="8"
     fill="none"
     id="rect135" />
  <rect
     x="551.79663"
     y="264.47458"
     width="76"
     height="76"
     stroke="#ededed"
     stroke-width="4"
     stroke-miterlimit="8"
     fill="none"
     id="rect137" />
  <rect
     x="552.79663"
     y="188.47458"
     width="75"
     height="76"
     stroke="#ededed"
     stroke-width="4"
     stroke-miterlimit="8"
     fill="none"
     id="rect139" />
  <path
     d="m 553.58661,489.83658 -1.79,-302.362"
     stroke="#bfbfbf"
     stroke-width="4"
     stroke-miterlimit="8"
     stroke-dasharray="12, 4"
     fill="none"
     fill-rule="evenodd"
     id="path141" />
  <rect
     x="325.7966"
     y="264.47458"
     width="75"
     height="76"
     stroke="#ededed"
     stroke-width="4"
     stroke-miterlimit="8"
     fill="none"
     id="rect143" />
  <rect
     x="249.79662"
     y="264.47458"
     width="76"
     height="76"
     stroke="#ededed"
     stroke-width="4"
     stroke-miterlimit="8"
     fill="none"
     id="rect145" />
  <rect
     x="250.79662"
     y="264.47458"
     width="75"
     height="76"
     stroke="#ededed"
     stroke-width="4"
     stroke-miterlimit="8"
     fill="none"
     id="rect147" />
  <rect
     x="174.79662"
     y="264.47458"
     width="76"
     height="76"
     stroke="#ededed"
     stroke-width="4"
     stroke-miterlimit="8"
     fill="none"
     id="rect149" />
  <rect
     x="400.7966"
     y="264.47458"
     width="75"
     height="76"
     stroke="#ededed"
     stroke-width="4"
     stroke-miterlimit="8"
     fill="none"
     id="rect151" />
  <rect
     x="99.796608"
     y="264.47458"
     width="76"
     height="75"
     stroke="#ededed"
     stroke-width="4"
     stroke-miterlimit="8"
     fill="none"
     id="rect153" />
  <path
     d="m 99.79661,267.47458 v 71.569 l 300,1.431 z"
     fill="#c00000"
     fill-rule="evenodd"
     fill-opacity="0.2"
     id="path155" />
  <path
     d="m 99.79661,267.47458 679.44,168.325"
     stroke="#44546a"
     stroke-width="4"
     stroke-miterlimit="8"
     fill="none"
     fill-rule="evenodd"
     id="path157" />
  <path
     d="m 99.79661,340.47458 681.016,0.921"
     stroke="#bfbfbf"
     stroke-width="4"
     stroke-miterlimit="8"
     stroke-dasharray="12, 4"
     fill="none"
     fill-rule="evenodd"
     id="path159" />
  <path
     d="m 393.29661,341.47458 c 0,-4.142 3.358,-7.5 7.5,-7.5 4.142,0 7.5,3.358 7.5,7.5 0,4.142 -3.358,7.5 -7.5,7.5 -4.142,0 -7.5,-3.358 -7.5,-7.5 z"
     stroke="#000000"
     stroke-width="3"
     stroke-miterlimit="8"
     fill="#44546a"
     fill-rule="evenodd"
     id="path161" />
  <path
     d="m 101.79661,341.10558 1e-4,-72.6709 h -4 l -1e-4,72.6709 z m 6.72764,-61.6786 -8.727534,-14.9615 -8.727576,14.9615 c -0.55656,0.9541 -0.23429,2.1787 0.71981,2.7353 0.9541,0.5565 2.17874,0.2343 2.7353,-0.7198 l 7.00002,-12 h -3.45512 l 6.99998,12 c 0.55656,0.9541 1.7812,1.2764 2.7353,0.7198 0.95411,-0.5566 1.27638,-1.7812 0.71982,-2.7353 z"
     fill="#c00000"
     id="path163" />
  <path
     d="m 98.80461,339.47458 288.49,1.178 -0.017,4 -288.489,-1.178 z m 277.527,-5.594 14.926,8.789 -14.997,8.666 c -0.956,0.553 -2.18,0.225 -2.732,-0.731 -0.553,-0.956 -0.226,-2.18 0.731,-2.732 l 12.028,-6.951 -0.014,3.455 -11.971,-7.049 c -0.952,-0.561 -1.269,-1.787 -0.709,-2.738 0.56,-0.952 1.786,-1.269 2.738,-0.709 z"
     fill="#c00000"
     id="path165" />
</svg>
