<?xml version="1.0" encoding="UTF-8" standalone="no"?>
<svg
   width="1280"
   height="640"
   overflow="hidden"
   version="1.1"
   id="svg155"
   sodipodi:docname="linear_systems-complex_eigenvalues.svg"
   inkscape:version="1.2 (dc2aedaf03, 2022-05-15)"
   xmlns:inkscape="http://www.inkscape.org/namespaces/inkscape"
   xmlns:sodipodi="http://sodipodi.sourceforge.net/DTD/sodipodi-0.dtd"
   xmlns="http://www.w3.org/2000/svg"
   xmlns:svg="http://www.w3.org/2000/svg">
  <sodipodi:namedview
     id="namedview157"
     pagecolor="#ffffff"
     bordercolor="#000000"
     borderopacity="0.25"
     inkscape:showpageshadow="2"
     inkscape:pageopacity="0.0"
     inkscape:pagecheckerboard="0"
     inkscape:deskcolor="#d1d1d1"
     showgrid="false"
     inkscape:zoom="0.92709556"
     inkscape:cx="388.84881"
     inkscape:cy="360.26491"
     inkscape:window-width="2560"
     inkscape:window-height="1494"
     inkscape:window-x="-11"
     inkscape:window-y="-11"
     inkscape:window-maximized="1"
     inkscape:current-layer="svg155" />
  <defs
     id="defs5">
    <clipPath
       id="clip0">
      <rect
         x="0"
         y="0"
         width="1280"
         height="720"
         id="rect2" />
    </clipPath>
  </defs>
  <g
     clip-path="url(#clip0)"
     id="g153"
     transform="translate(32.359124,-28.044574)">
    <rect
       x="0"
       y="0"
       width="1280"
       height="720"
       fill="#ffffff"
       id="rect7" />
    <text
       font-family="Calibri, Calibri_MSFontService, sans-serif"
       font-weight="400"
       font-size="43px"
       transform="translate(400.123,87)"
       id="text41">Complex eigenvalues<tspan
   font-size="32px"
   x="-185.599"
   y="75"
   id="tspan9">When</tspan><tspan
   font-family="'Cambria Math', 'Cambria Math_MSFontService', sans-serif"
   font-size="32px"
   x="-100.265"
   y="75"
   id="tspan11">Î»</tspan><tspan
   font-size="32px"
   x="-77.432098"
   y="75"
   id="tspan13">= a</tspan><tspan
   font-size="32px"
   x="-31.7654"
   y="75"
   id="tspan15">Â±</tspan><tspan
   font-size="32px"
   x="-8.5987501"
   y="75"
   id="tspan17">bi (</tspan><tspan
   font-family="'Cambria Math', 'Cambria Math_MSFontService', sans-serif"
   font-size="32px"
   x="32.401199"
   y="75"
   id="tspan19">Î»</tspan><tspan
   font-family="'Cambria Math', 'Cambria Math_MSFontService', sans-serif"
   font-size="32px"
   x="48.067902"
   y="75"
   id="tspan21" /><tspan
   font-size="32px"
   x="55.067902"
   y="75"
   id="tspan23">exists in conjugate pairs), A =</tspan><tspan
   font-size="32px"
   x="436.168"
   y="75"
   id="tspan25">PCP</tspan><tspan
   font-size="21px"
   x="486.168"
   y="65"
   id="tspan27">-</tspan><tspan
   font-size="21px"
   x="492.668"
   y="65"
   id="tspan29">1</tspan><tspan
   font-size="32px"
   x="-185.599"
   y="116"
   id="tspan31">A is not</tspan><tspan
   font-size="32px"
   x="-81.432098"
   y="116"
   id="tspan33">diagonalisable</tspan><tspan
   font-size="32px"
   x="111.681"
   y="116"
   id="tspan35">and C is a rotational</tspan><tspan
   font-size="32px"
   x="375.80801"
   y="116"
   id="tspan37">transformation.</tspan><tspan
   font-size="43px"
   x="-56.651299"
   y="322"
   id="tspan39">A =</tspan></text>
    <path
       d="M 538,365.208 C 538,359.018 543.018,354 549.208,354 h 82.584 c 6.19,0 11.208,5.018 11.208,11.208 v 64.584 C 643,435.982 637.982,441 631.792,441 H 549.208 C 543.018,441 538,435.982 538,429.792 Z"
       fill="#e2f0d9"
       fill-rule="evenodd"
       id="path43" />
    <text
       font-family="'Cambria Math', 'Cambria Math_MSFontService', sans-serif"
       font-weight="400"
       font-size="32px"
       transform="translate(549.844,389)"
       id="text53">ğ‘<tspan
   font-family="Calibri, Calibri_MSFontService, sans-serif"
   font-size="32px"
   x="50.6133"
   y="0"
   id="tspan45">âˆ’</tspan>ğ‘<tspan
   font-size="32px"
   x="0.28668201"
   y="38"
   id="tspan47">ğ‘</tspan><tspan
   font-size="32px"
   x="59.793301"
   y="38"
   id="tspan49">a</tspan><tspan
   font-family="Calibri, Calibri_MSFontService, sans-serif"
   font-size="32px"
   x="31.930599"
   y="-44"
   id="tspan51">C</tspan></text>
    <path
       d="M 415,365.208 C 415,359.018 420.018,354 426.208,354 h 79.584 c 6.19,0 11.208,5.018 11.208,11.208 v 64.584 C 517,435.982 511.982,441 505.792,441 H 426.208 C 420.018,441 415,435.982 415,429.792 Z"
       fill="#e2f0d9"
       fill-rule="evenodd"
       id="path55" />
    <text
       font-family="'Cambria Math', 'Cambria Math_MSFontService', sans-serif"
       font-weight="400"
       font-size="32px"
       transform="translate(432.357,388)"
       id="text79">ğ‘<tspan
   font-size="32px"
   x="48.106701"
   y="0"
   id="tspan57">ğ‘‘</tspan><tspan
   font-size="32px"
   x="-0.42666599"
   y="37"
   id="tspan59">ğ‘’</tspan><tspan
   font-size="32px"
   x="49.026699"
   y="37"
   id="tspan61">0</tspan><tspan
   font-family="Calibri, Calibri_MSFontService, sans-serif"
   font-size="32px"
   x="26.9543"
   y="-43"
   id="tspan63">P</tspan><tspan
   font-family="Calibri, Calibri_MSFontService, sans-serif"
   font-size="32px"
   x="264.64801"
   y="-43"
   id="tspan65">P</tspan><tspan
   font-family="Calibri, Calibri_MSFontService, sans-serif"
   font-size="21px"
   x="281.14801"
   y="-53"
   id="tspan67">-</tspan><tspan
   font-family="Calibri, Calibri_MSFontService, sans-serif"
   font-size="21px"
   x="287.64801"
   y="-53"
   id="tspan69">1</tspan><tspan
   font-family="Calibri, Calibri_MSFontService, sans-serif"
   font-size="24px"
   x="-217.83299"
   y="-126"
   id="tspan71">Assume</tspan><tspan
   font-size="24px"
   x="-135.99899"
   y="-126"
   id="tspan73">Î»</tspan><tspan
   font-family="Calibri, Calibri_MSFontService, sans-serif"
   font-size="24px"
   x="-118.833"
   y="-126"
   id="tspan75">= a</tspan><tspan
   font-family="Calibri, Calibri_MSFontService, sans-serif"
   font-size="24px"
   x="-84.332603"
   y="-126"
   id="tspan77">+ bi and its associated eigenvector is</tspan></text>
    <path
       d="m 781.554,233.018 h 5.894 v 47.742 h -5.894 v -1.078 h 3.598 v -45.586 h -3.598 z m -69.635,0 h 5.894 v 1.078 h -3.598 v 45.586 h 3.598 v 1.078 h -5.894 z"
       fill-rule="evenodd"
       id="path81" />
    <text
       font-family="'Cambria Math', 'Cambria Math_MSFontService', sans-serif"
       font-weight="400"
       font-size="24px"
       transform="translate(718.34,251)"
       id="text89">ğ‘<tspan
   font-size="24px"
   x="17.0933"
   y="0"
   id="tspan83">+</tspan><tspan
   font-size="24px"
   x="40.426601"
   y="0"
   id="tspan85">ğ‘‘ğ‘–</tspan><tspan
   font-size="24px"
   x="25.16"
   y="28"
   id="tspan87">ğ‘’</tspan></text>
    <path
       d="M 665,364.208 C 665,358.018 670.018,353 676.208,353 h 79.584 c 6.19,0 11.208,5.018 11.208,11.208 v 64.584 C 767,434.982 761.982,440 755.792,440 H 676.208 C 670.018,440 665,434.982 665,428.792 Z"
       fill="#e2f0d9"
       fill-rule="evenodd"
       id="path91" />
    <text
       font-family="'Cambria Math', 'Cambria Math_MSFontService', sans-serif"
       font-weight="400"
       font-size="32px"
       transform="translate(680.423,387)"
       id="text99">ğ‘“<tspan
   font-size="32px"
   x="50.606701"
   y="0"
   id="tspan93">ğ‘”</tspan><tspan
   font-size="32px"
   x="0.113342"
   y="39"
   id="tspan95">â„</tspan><tspan
   font-size="32px"
   x="55.040001"
   y="39"
   id="tspan97">ğ‘–</tspan></text>
    <path
       d="M 1.14015,-0.974707 42.8677,47.8355 40.5874,49.785 -1.14015,0.974707 Z M 41.3458,38.2904 43.6619,51.073 31.395,46.7972 c -0.7822,-0.2727 -1.1954,-1.1279 -0.9227,-1.9101 0.2727,-0.7823 1.1279,-1.1954 1.9101,-0.9227 l 9.8388,3.4294 -1.9697,1.6839 -1.8577,-10.2524 c -0.1477,-0.8152 0.3934,-1.5957 1.2086,-1.7434 0.8151,-0.1477 1.5957,0.3933 1.7434,1.2085 z"
       fill="#385723"
       transform="matrix(-1,0,0,1,569.157,459.5)"
       id="path101" />
    <path
       d="m 614.576,458.455 47.493,48.937 -2.153,2.089 -47.492,-48.936 z m 45.372,39.507 3.118,12.611 -12.512,-3.494 c -0.798,-0.223 -1.265,-1.05 -1.042,-1.848 0.223,-0.798 1.05,-1.264 1.848,-1.042 l 10.036,2.803 -1.86,1.804 -2.5,-10.114 c -0.199,-0.805 0.292,-1.618 1.096,-1.817 0.804,-0.198 1.617,0.292 1.816,1.097 z"
       fill="#385723"
       id="path103" />
    <path
       d="M 451,534.337 C 451,528.076 456.076,523 462.337,523 h 82.326 c 6.261,0 11.337,5.076 11.337,11.337 v 65.326 C 556,605.924 550.924,611 544.663,611 H 462.337 C 456.076,611 451,605.924 451,599.663 Z"
       fill="#e2f0d9"
       fill-rule="evenodd"
       id="path105" />
    <text
       font-family="'Cambria Math', 'Cambria Math_MSFontService', sans-serif"
       font-weight="400"
       font-size="32px"
       transform="translate(469.957,557)"
       id="text113">ğ‘Ÿ<tspan
   font-size="32px"
   x="48.766701"
   y="0"
   id="tspan107">0</tspan><tspan
   font-size="32px"
   x="-0.89999402"
   y="38"
   id="tspan109">0</tspan><tspan
   font-size="32px"
   x="51.013401"
   y="38"
   id="tspan111">r</tspan></text>
    <path
       d="M 577,535.208 C 577,529.018 582.018,524 588.208,524 h 184.584 c 6.19,0 11.208,5.018 11.208,11.208 v 64.584 C 784,605.982 778.982,611 772.792,611 H 588.208 C 582.018,611 577,605.982 577,599.792 Z"
       fill="#e2f0d9"
       fill-rule="evenodd"
       id="path115" />
    <text
       font-family="'Cambria Math', 'Cambria Math_MSFontService', sans-serif"
       font-weight="400"
       font-size="32px"
       transform="translate(592.694,557)"
       id="text133">ğ‘ğ‘œğ‘ ğœ™<tspan
   font-family="Calibri, Calibri_MSFontService, sans-serif"
   font-size="32px"
   x="101.02"
   y="0"
   id="tspan117">âˆ’</tspan>ğ‘ ğ‘–ğ‘›<tspan
   font-size="32px"
   x="160.353"
   y="0"
   id="tspan119">ğœ™</tspan><tspan
   font-size="32px"
   x="1.58002"
   y="39"
   id="tspan121">ğ‘ ğ‘–ğ‘›</tspan><tspan
   font-size="32px"
   x="44.913399"
   y="39"
   id="tspan123">ğœ™</tspan><tspan
   font-size="32px"
   x="108.187"
   y="39"
   id="tspan125">cos</tspan>ğœ™<tspan
   font-family="Calibri, Calibri_MSFontService, sans-serif"
   font-size="24px"
   x="-287.45001"
   y="86"
   id="tspan127">A counter</tspan><tspan
   font-family="Calibri, Calibri_MSFontService, sans-serif"
   font-size="24px"
   x="-192.297"
   y="86"
   id="tspan129">-</tspan><tspan
   font-family="Calibri, Calibri_MSFontService, sans-serif"
   font-size="24px"
   x="-184.964"
   y="86"
   id="tspan131">clockwise rotation followed by a scaling transformation</tspan></text>
    <path
       d="m 859,427 h 226.8"
       stroke="#bfbfbf"
       stroke-width="4"
       stroke-miterlimit="8"
       stroke-dasharray="12, 4"
       fill="none"
       fill-rule="evenodd"
       id="path135" />
    <path
       d="M 0,0 1.04987e-4,228.802"
       stroke="#bfbfbf"
       stroke-width="4"
       stroke-miterlimit="8"
       stroke-dasharray="12, 4"
       fill="none"
       fill-rule="evenodd"
       transform="matrix(1,0,0,-1,973,543.802)"
       id="path137" />
    <path
       d="m 975,426 h 77.7"
       stroke="#4472c4"
       stroke-width="4"
       stroke-miterlimit="8"
       fill="none"
       fill-rule="evenodd"
       id="path139" />
    <path
       d="M 0,0 73.9415,72.5816"
       stroke="#4472c4"
       stroke-width="4"
       stroke-miterlimit="8"
       fill="none"
       fill-rule="evenodd"
       transform="matrix(1,0,0,-1,976,425.582)"
       id="path141" />
    <path
       d="m 1050,351 v 74.19"
       stroke="#4472c4"
       stroke-width="4"
       stroke-miterlimit="8"
       fill="none"
       fill-rule="evenodd"
       id="path143" />
    <text
       font-family="'Cambria Math', 'Cambria Math_MSFontService', sans-serif"
       font-weight="400"
       font-size="24px"
       transform="translate(1001.2,417)"
       id="text151">ğœ™<tspan
   font-size="24px"
   x="5.3340502"
   y="37"
   id="tspan145">ğ‘</tspan><tspan
   font-size="24px"
   x="64.741096"
   y="-18"
   id="tspan147">ğ‘</tspan><tspan
   font-size="24px"
   x="-8.4970102"
   y="-35"
   id="tspan149">ğ‘Ÿ</tspan></text>
  </g>
</svg>
