<?xml version="1.0" encoding="UTF-8" standalone="no"?>
<svg
   width="1280"
   height="580"
   overflow="hidden"
   version="1.1"
   id="svg261"
   sodipodi:docname="linear_systems-matrix_types.svg"
   inkscape:version="1.2 (dc2aedaf03, 2022-05-15)"
   xmlns:inkscape="http://www.inkscape.org/namespaces/inkscape"
   xmlns:sodipodi="http://sodipodi.sourceforge.net/DTD/sodipodi-0.dtd"
   xmlns="http://www.w3.org/2000/svg"
   xmlns:svg="http://www.w3.org/2000/svg">
  <sodipodi:namedview
     id="namedview263"
     pagecolor="#ffffff"
     bordercolor="#000000"
     borderopacity="0.25"
     inkscape:showpageshadow="2"
     inkscape:pageopacity="0.0"
     inkscape:pagecheckerboard="0"
     inkscape:deskcolor="#d1d1d1"
     showgrid="false"
     inkscape:zoom="0.32777778"
     inkscape:cx="385.9322"
     inkscape:cy="360"
     inkscape:window-width="2560"
     inkscape:window-height="1494"
     inkscape:window-x="-11"
     inkscape:window-y="-11"
     inkscape:window-maximized="1"
     inkscape:current-layer="svg261" />
  <defs
     id="defs5">
    <clipPath
       id="clip0">
      <rect
         x="0"
         y="0"
         width="1280"
         height="720"
         id="rect2" />
    </clipPath>
  </defs>
  <g
     clip-path="url(#clip0)"
     id="g259"
     transform="translate(109.83051)">
    <rect
       x="0"
       y="0"
       width="1280"
       height="720"
       fill="#ffffff"
       id="rect7" />
    <path
       d="M 610,148.717 C 610,140.037 617.037,133 625.717,133 h 103.566 c 8.68,0 15.717,7.037 15.717,15.717 v 90.562 c 0,8.68 -7.037,15.716 -15.717,15.716 H 625.717 c -8.68,0 -15.717,-7.036 -15.717,-15.716 z"
       fill="#e2f0d9"
       fill-rule="evenodd"
       id="path9" />
    <text
       font-family="Calibri, Calibri_MSFontService, sans-serif"
       font-weight="400"
       font-size="43px"
       transform="translate(400.123,87)"
       id="text11">Types of matrices</text>
    <path
       d="M 111,375.717 C 111,367.037 118.037,360 126.717,360 h 103.566 c 8.68,0 15.717,7.037 15.717,15.717 v 90.562 c 0,8.68 -7.037,15.716 -15.717,15.716 H 126.717 c -8.68,0 -15.717,-7.036 -15.717,-15.716 z"
       fill="#e2f0d9"
       fill-rule="evenodd"
       id="path13" />
    <path
       d="m 129.267,370.775 c -0.719,0 -1.32,0.213 -1.805,0.64 -0.484,0.427 -0.875,1.042 -1.172,1.844 -0.297,0.802 -0.508,1.779 -0.633,2.93 -0.125,1.151 -0.187,2.45 -0.187,3.898 0,3.396 0.315,5.888 0.945,7.477 0.63,1.588 1.607,2.383 2.93,2.383 1.26,0 2.195,-0.748 2.805,-2.243 0.609,-1.494 0.914,-3.81 0.914,-6.945 0,-2.396 -0.157,-4.336 -0.469,-5.82 -0.313,-1.485 -0.747,-2.55 -1.305,-3.196 -0.557,-0.645 -1.231,-0.968 -2.023,-0.968 z m 0.078,-1.328 c 2.281,0 3.979,0.88 5.094,2.64 1.114,1.761 1.672,4.422 1.672,7.985 0,3.687 -0.597,6.476 -1.789,8.367 -1.193,1.89 -2.935,2.836 -5.227,2.836 -2.25,0 -3.925,-0.886 -5.023,-2.657 -1.099,-1.77 -1.649,-4.458 -1.649,-8.062 0,-1.917 0.169,-3.573 0.508,-4.969 0.338,-1.396 0.812,-2.549 1.422,-3.461 0.609,-0.911 1.341,-1.586 2.195,-2.023 0.854,-0.438 1.787,-0.656 2.797,-0.656 z"
       fill-rule="evenodd"
       id="path15" />
    <text
       fill="#000000"
       fill-opacity="0"
       font-family="Arial, Arial_MSFontService, sans-serif"
       font-size="21.8281px"
       x="122.423"
       y="388.54599"
       id="text17">0</text>
    <path
       d="m 178.934,370.775 c -0.719,0 -1.321,0.213 -1.805,0.64 -0.485,0.427 -0.875,1.042 -1.172,1.844 -0.297,0.802 -0.508,1.779 -0.633,2.93 -0.125,1.151 -0.187,2.45 -0.187,3.898 0,3.396 0.315,5.888 0.945,7.477 0.63,1.588 1.607,2.383 2.93,2.383 1.26,0 2.195,-0.748 2.804,-2.243 0.61,-1.494 0.914,-3.81 0.914,-6.945 0,-2.396 -0.156,-4.336 -0.468,-5.82 -0.313,-1.485 -0.748,-2.55 -1.305,-3.196 -0.557,-0.645 -1.232,-0.968 -2.023,-0.968 z m 0.078,-1.328 c 2.281,0 3.979,0.88 5.093,2.64 1.115,1.761 1.672,4.422 1.672,7.985 0,3.687 -0.596,6.476 -1.789,8.367 -1.193,1.89 -2.935,2.836 -5.226,2.836 -2.25,0 -3.925,-0.886 -5.024,-2.657 -1.099,-1.77 -1.648,-4.458 -1.648,-8.062 0,-1.917 0.169,-3.573 0.508,-4.969 0.338,-1.396 0.812,-2.549 1.421,-3.461 0.61,-0.911 1.342,-1.586 2.196,-2.023 0.854,-0.438 1.786,-0.656 2.797,-0.656 z"
       fill-rule="evenodd"
       id="path19" />
    <text
       fill="#000000"
       fill-opacity="0"
       font-family="Arial, Arial_MSFontService, sans-serif"
       font-size="21.8281px"
       x="172.09"
       y="388.54599"
       id="text21">0</text>
    <path
       d="m 228.6,370.775 c -0.719,0 -1.32,0.213 -1.805,0.64 -0.484,0.427 -0.875,1.042 -1.171,1.844 -0.297,0.802 -0.508,1.779 -0.633,2.93 -0.125,1.151 -0.188,2.45 -0.188,3.898 0,3.396 0.315,5.888 0.946,7.477 0.63,1.588 1.606,2.383 2.929,2.383 1.261,0 2.196,-0.748 2.805,-2.243 0.609,-1.494 0.914,-3.81 0.914,-6.945 0,-2.396 -0.156,-4.336 -0.469,-5.82 -0.312,-1.485 -0.747,-2.55 -1.304,-3.196 -0.558,-0.645 -1.232,-0.968 -2.024,-0.968 z m 0.078,-1.328 c 2.282,0 3.979,0.88 5.094,2.64 1.115,1.761 1.672,4.422 1.672,7.985 0,3.687 -0.596,6.476 -1.789,8.367 -1.193,1.89 -2.935,2.836 -5.227,2.836 -2.25,0 -3.924,-0.886 -5.023,-2.657 -1.099,-1.77 -1.649,-4.458 -1.649,-8.062 0,-1.917 0.17,-3.573 0.508,-4.969 0.339,-1.396 0.813,-2.549 1.422,-3.461 0.609,-0.911 1.341,-1.586 2.195,-2.023 0.855,-0.438 1.787,-0.656 2.797,-0.656 z"
       fill-rule="evenodd"
       id="path23" />
    <text
       fill="#000000"
       fill-opacity="0"
       font-family="Arial, Arial_MSFontService, sans-serif"
       font-size="21.8281px"
       x="221.756"
       y="388.54599"
       id="text25">0</text>
    <path
       d="m 129.267,408.288 c -0.719,0 -1.32,0.214 -1.805,0.641 -0.484,0.427 -0.875,1.041 -1.172,1.843 -0.297,0.802 -0.508,1.779 -0.633,2.93 -0.125,1.151 -0.187,2.451 -0.187,3.898 0,3.396 0.315,5.889 0.945,7.477 0.63,1.589 1.607,2.383 2.93,2.383 1.26,0 2.195,-0.748 2.805,-2.242 0.609,-1.495 0.914,-3.81 0.914,-6.946 0,-2.395 -0.157,-4.336 -0.469,-5.82 -0.313,-1.484 -0.747,-2.549 -1.305,-3.195 -0.557,-0.646 -1.231,-0.969 -2.023,-0.969 z m 0.078,-1.328 c 2.281,0 3.979,0.88 5.094,2.64 1.114,1.761 1.672,4.422 1.672,7.985 0,3.687 -0.597,6.476 -1.789,8.367 -1.193,1.891 -2.935,2.836 -5.227,2.836 -2.25,0 -3.925,-0.885 -5.023,-2.656 -1.099,-1.771 -1.649,-4.459 -1.649,-8.063 0,-1.916 0.169,-3.573 0.508,-4.969 0.338,-1.395 0.812,-2.549 1.422,-3.46 0.609,-0.912 1.341,-1.586 2.195,-2.024 0.854,-0.437 1.787,-0.656 2.797,-0.656 z"
       fill-rule="evenodd"
       id="path27" />
    <text
       fill="#000000"
       fill-opacity="0"
       font-family="Arial, Arial_MSFontService, sans-serif"
       font-size="21.8281px"
       x="122.423"
       y="426.05899"
       id="text29">0</text>
    <path
       d="m 178.934,408.288 c -0.719,0 -1.321,0.214 -1.805,0.641 -0.485,0.427 -0.875,1.041 -1.172,1.843 -0.297,0.802 -0.508,1.779 -0.633,2.93 -0.125,1.151 -0.187,2.451 -0.187,3.898 0,3.396 0.315,5.889 0.945,7.477 0.63,1.589 1.607,2.383 2.93,2.383 1.26,0 2.195,-0.748 2.804,-2.242 0.61,-1.495 0.914,-3.81 0.914,-6.946 0,-2.395 -0.156,-4.336 -0.468,-5.82 -0.313,-1.484 -0.748,-2.549 -1.305,-3.195 -0.557,-0.646 -1.232,-0.969 -2.023,-0.969 z m 0.078,-1.328 c 2.281,0 3.979,0.88 5.093,2.64 1.115,1.761 1.672,4.422 1.672,7.985 0,3.687 -0.596,6.476 -1.789,8.367 -1.193,1.891 -2.935,2.836 -5.226,2.836 -2.25,0 -3.925,-0.885 -5.024,-2.656 -1.099,-1.771 -1.648,-4.459 -1.648,-8.063 0,-1.916 0.169,-3.573 0.508,-4.969 0.338,-1.395 0.812,-2.549 1.421,-3.46 0.61,-0.912 1.342,-1.586 2.196,-2.024 0.854,-0.437 1.786,-0.656 2.797,-0.656 z"
       fill-rule="evenodd"
       id="path31" />
    <text
       fill="#000000"
       fill-opacity="0"
       font-family="Arial, Arial_MSFontService, sans-serif"
       font-size="21.8281px"
       x="172.09"
       y="426.05899"
       id="text33">0</text>
    <path
       d="m 228.6,408.288 c -0.719,0 -1.32,0.214 -1.805,0.641 -0.484,0.427 -0.875,1.041 -1.171,1.843 -0.297,0.802 -0.508,1.779 -0.633,2.93 -0.125,1.151 -0.188,2.451 -0.188,3.898 0,3.396 0.315,5.889 0.946,7.477 0.63,1.589 1.606,2.383 2.929,2.383 1.261,0 2.196,-0.748 2.805,-2.242 0.609,-1.495 0.914,-3.81 0.914,-6.946 0,-2.395 -0.156,-4.336 -0.469,-5.82 -0.312,-1.484 -0.747,-2.549 -1.304,-3.195 -0.558,-0.646 -1.232,-0.969 -2.024,-0.969 z m 0.078,-1.328 c 2.282,0 3.979,0.88 5.094,2.64 1.115,1.761 1.672,4.422 1.672,7.985 0,3.687 -0.596,6.476 -1.789,8.367 -1.193,1.891 -2.935,2.836 -5.227,2.836 -2.25,0 -3.924,-0.885 -5.023,-2.656 -1.099,-1.771 -1.649,-4.459 -1.649,-8.063 0,-1.916 0.17,-3.573 0.508,-4.969 0.339,-1.395 0.813,-2.549 1.422,-3.46 0.609,-0.912 1.341,-1.586 2.195,-2.024 0.855,-0.437 1.787,-0.656 2.797,-0.656 z"
       fill-rule="evenodd"
       id="path35" />
    <text
       fill="#000000"
       fill-opacity="0"
       font-family="Arial, Arial_MSFontService, sans-serif"
       font-size="21.8281px"
       x="221.756"
       y="426.05899"
       id="text37">0</text>
    <path
       d="m 129.267,445.801 c -0.719,0 -1.32,0.214 -1.805,0.641 -0.484,0.427 -0.875,1.042 -1.172,1.844 -0.297,0.802 -0.508,1.778 -0.633,2.929 -0.125,1.151 -0.187,2.451 -0.187,3.899 0,3.396 0.315,5.888 0.945,7.476 0.63,1.589 1.607,2.383 2.93,2.383 1.26,0 2.195,-0.747 2.805,-2.242 0.609,-1.495 0.914,-3.81 0.914,-6.945 0,-2.396 -0.157,-4.336 -0.469,-5.821 -0.313,-1.484 -0.747,-2.549 -1.305,-3.195 -0.557,-0.646 -1.231,-0.969 -2.023,-0.969 z m 0.078,-1.328 c 2.281,0 3.979,0.88 5.094,2.641 1.114,1.76 1.672,4.422 1.672,7.984 0,3.688 -0.597,6.477 -1.789,8.367 -1.193,1.891 -2.935,2.836 -5.227,2.836 -2.25,0 -3.925,-0.885 -5.023,-2.656 -1.099,-1.771 -1.649,-4.458 -1.649,-8.062 0,-1.917 0.169,-3.573 0.508,-4.969 0.338,-1.396 0.812,-2.55 1.422,-3.461 0.609,-0.912 1.341,-1.586 2.195,-2.024 0.854,-0.437 1.787,-0.656 2.797,-0.656 z"
       fill-rule="evenodd"
       id="path39" />
    <text
       fill="#000000"
       fill-opacity="0"
       font-family="Arial, Arial_MSFontService, sans-serif"
       font-size="21.8281px"
       x="122.423"
       y="463.573"
       id="text41">0</text>
    <path
       d="m 178.934,445.801 c -0.719,0 -1.321,0.214 -1.805,0.641 -0.485,0.427 -0.875,1.042 -1.172,1.844 -0.297,0.802 -0.508,1.778 -0.633,2.929 -0.125,1.151 -0.187,2.451 -0.187,3.899 0,3.396 0.315,5.888 0.945,7.476 0.63,1.589 1.607,2.383 2.93,2.383 1.26,0 2.195,-0.747 2.804,-2.242 0.61,-1.495 0.914,-3.81 0.914,-6.945 0,-2.396 -0.156,-4.336 -0.468,-5.821 -0.313,-1.484 -0.748,-2.549 -1.305,-3.195 -0.557,-0.646 -1.232,-0.969 -2.023,-0.969 z m 0.078,-1.328 c 2.281,0 3.979,0.88 5.093,2.641 1.115,1.76 1.672,4.422 1.672,7.984 0,3.688 -0.596,6.477 -1.789,8.367 -1.193,1.891 -2.935,2.836 -5.226,2.836 -2.25,0 -3.925,-0.885 -5.024,-2.656 -1.099,-1.771 -1.648,-4.458 -1.648,-8.062 0,-1.917 0.169,-3.573 0.508,-4.969 0.338,-1.396 0.812,-2.55 1.421,-3.461 0.61,-0.912 1.342,-1.586 2.196,-2.024 0.854,-0.437 1.786,-0.656 2.797,-0.656 z"
       fill-rule="evenodd"
       id="path43" />
    <text
       fill="#000000"
       fill-opacity="0"
       font-family="Arial, Arial_MSFontService, sans-serif"
       font-size="21.8281px"
       x="172.09"
       y="463.573"
       id="text45">0</text>
    <path
       d="m 228.6,445.801 c -0.719,0 -1.32,0.214 -1.805,0.641 -0.484,0.427 -0.875,1.042 -1.171,1.844 -0.297,0.802 -0.508,1.778 -0.633,2.929 -0.125,1.151 -0.188,2.451 -0.188,3.899 0,3.396 0.315,5.888 0.946,7.476 0.63,1.589 1.606,2.383 2.929,2.383 1.261,0 2.196,-0.747 2.805,-2.242 0.609,-1.495 0.914,-3.81 0.914,-6.945 0,-2.396 -0.156,-4.336 -0.469,-5.821 -0.312,-1.484 -0.747,-2.549 -1.304,-3.195 -0.558,-0.646 -1.232,-0.969 -2.024,-0.969 z m 0.078,-1.328 c 2.282,0 3.979,0.88 5.094,2.641 1.115,1.76 1.672,4.422 1.672,7.984 0,3.688 -0.596,6.477 -1.789,8.367 -1.193,1.891 -2.935,2.836 -5.227,2.836 -2.25,0 -3.924,-0.885 -5.023,-2.656 -1.099,-1.771 -1.649,-4.458 -1.649,-8.062 0,-1.917 0.17,-3.573 0.508,-4.969 0.339,-1.396 0.813,-2.55 1.422,-3.461 0.609,-0.912 1.341,-1.586 2.195,-2.024 0.855,-0.437 1.787,-0.656 2.797,-0.656 z"
       fill-rule="evenodd"
       id="path47" />
    <text
       fill="#000000"
       fill-opacity="0"
       font-family="Arial, Arial_MSFontService, sans-serif"
       font-size="21.8281px"
       x="221.756"
       y="463.573"
       id="text49">0</text>
    <text
       font-family="Calibri, Calibri_MSFontService, sans-serif"
       font-weight="400"
       font-size="32px"
       transform="translate(105.288,527)"
       id="text51">Zero matrix</text>
    <path
       d="M 111,148.717 C 111,140.037 118.037,133 126.717,133 h 103.566 c 8.68,0 15.717,7.037 15.717,15.717 v 90.562 c 0,8.68 -7.037,15.716 -15.717,15.716 H 126.717 c -8.68,0 -15.717,-7.036 -15.717,-15.716 z"
       fill="#e2f0d9"
       fill-rule="evenodd"
       id="path53" />
    <path
       d="m 130.501,142.583 h 0.86 c -0.063,1 -0.094,2.385 -0.094,4.156 v 13.344 c 0,0.604 0.034,1.06 0.101,1.367 0.068,0.307 0.188,0.557 0.36,0.75 0.172,0.193 0.419,0.344 0.742,0.453 0.323,0.11 0.729,0.193 1.219,0.25 0.489,0.058 1.135,0.097 1.937,0.117 v 1.141 h -11.547 v -1.141 c 1.157,-0.052 1.982,-0.122 2.477,-0.211 0.495,-0.088 0.872,-0.221 1.133,-0.398 0.26,-0.177 0.45,-0.427 0.57,-0.75 0.12,-0.323 0.18,-0.849 0.18,-1.578 v -12.672 c 0,-0.417 -0.073,-0.721 -0.219,-0.914 -0.146,-0.193 -0.359,-0.289 -0.641,-0.289 -0.333,0 -0.807,0.172 -1.422,0.516 -0.614,0.343 -1.375,0.817 -2.281,1.421 l -0.687,-1.203 z"
       fill-rule="evenodd"
       id="path55" />
    <text
       fill="#000000"
       fill-opacity="0"
       font-family="Arial, Arial_MSFontService, sans-serif"
       font-size="21.5781px"
       x="123.189"
       y="161.464"
       id="text57">1</text>
    <path
       d="m 179.059,142.583 c 1.937,0 3.401,0.424 4.39,1.273 0.99,0.849 1.485,2.081 1.485,3.696 0,0.552 -0.055,1.06 -0.165,1.523 -0.109,0.464 -0.281,0.922 -0.515,1.375 -0.235,0.453 -0.55,0.94 -0.945,1.461 -0.396,0.521 -0.834,1.05 -1.313,1.586 -0.479,0.536 -1.307,1.43 -2.484,2.68 -1.98,2.093 -3.433,3.922 -4.36,5.484 h 5.891 c 0.51,0 0.922,-0.031 1.234,-0.094 0.313,-0.062 0.563,-0.166 0.75,-0.312 0.188,-0.146 0.336,-0.336 0.446,-0.571 0.109,-0.234 0.247,-0.596 0.414,-1.085 h 1.328 l -0.266,4.562 H 172.09 v -0.75 c 0.448,-1.094 1.052,-2.213 1.812,-3.359 0.761,-1.146 1.839,-2.495 3.235,-4.047 1.208,-1.334 2.078,-2.344 2.609,-3.031 0.583,-0.75 1.018,-1.399 1.305,-1.946 0.286,-0.547 0.492,-1.062 0.617,-1.547 0.125,-0.484 0.187,-0.971 0.187,-1.461 0,-0.781 -0.125,-1.471 -0.375,-2.07 -0.25,-0.599 -0.632,-1.07 -1.148,-1.414 -0.516,-0.344 -1.164,-0.516 -1.945,-0.516 -1.948,0 -3.261,1.084 -3.938,3.25 h -1.89 v -3 c 1.26,-0.593 2.44,-1.023 3.539,-1.289 1.099,-0.265 2.086,-0.398 2.961,-0.398 z"
       fill-rule="evenodd"
       id="path59" />
    <text
       fill="#000000"
       fill-opacity="0"
       font-family="Arial, Arial_MSFontService, sans-serif"
       font-size="21.5781px"
       x="172.09"
       y="161.464"
       id="text61">2</text>
    <path
       d="m 228.663,142.583 c 1.177,0 2.208,0.182 3.093,0.547 0.886,0.364 1.563,0.888 2.032,1.57 0.468,0.682 0.703,1.498 0.703,2.445 0,0.886 -0.177,1.664 -0.531,2.336 -0.355,0.672 -0.852,1.258 -1.493,1.758 -0.64,0.5 -1.471,0.99 -2.492,1.469 v 0.141 c 0.636,0.114 1.248,0.309 1.836,0.585 0.589,0.277 1.112,0.633 1.57,1.071 0.459,0.437 0.826,0.961 1.102,1.57 0.276,0.609 0.414,1.305 0.414,2.086 0,1.208 -0.263,2.281 -0.789,3.219 -0.526,0.937 -1.331,1.677 -2.414,2.219 -1.083,0.541 -2.401,0.812 -3.953,0.812 -0.896,0 -1.862,-0.102 -2.899,-0.305 -1.036,-0.203 -1.987,-0.471 -2.851,-0.804 v -3.313 h 1.875 c 0.364,1.084 0.846,1.87 1.445,2.36 0.599,0.489 1.414,0.734 2.445,0.734 1.355,0 2.378,-0.37 3.071,-1.109 0.692,-0.74 1.039,-1.834 1.039,-3.282 0,-1.521 -0.459,-2.682 -1.375,-3.484 -0.917,-0.802 -2.261,-1.203 -4.031,-1.203 h -1.407 v -1.375 c 1.407,-0.084 2.591,-0.354 3.555,-0.813 0.964,-0.458 1.68,-1.047 2.148,-1.765 0.469,-0.719 0.704,-1.526 0.704,-2.422 0,-1.156 -0.308,-2.047 -0.922,-2.672 -0.615,-0.625 -1.511,-0.938 -2.688,-0.938 -0.979,0 -1.776,0.266 -2.39,0.797 -0.615,0.532 -1.068,1.344 -1.36,2.438 h -1.875 v -2.969 c 1.208,-0.573 2.339,-1 3.391,-1.281 1.052,-0.281 2.067,-0.422 3.047,-0.422 z"
       fill-rule="evenodd"
       id="path63" />
    <text
       fill="#000000"
       fill-opacity="0"
       font-family="Arial, Arial_MSFontService, sans-serif"
       font-size="21.8281px"
       x="221.991"
       y="161.683"
       id="text65">3</text>
    <path
       d="m 129.267,181.424 c -0.719,0 -1.32,0.214 -1.805,0.641 -0.484,0.427 -0.875,1.042 -1.172,1.844 -0.297,0.802 -0.508,1.778 -0.633,2.929 -0.125,1.151 -0.187,2.451 -0.187,3.899 0,3.396 0.315,5.888 0.945,7.476 0.63,1.589 1.607,2.383 2.93,2.383 1.26,0 2.195,-0.747 2.805,-2.242 0.609,-1.495 0.914,-3.81 0.914,-6.945 0,-2.396 -0.157,-4.336 -0.469,-5.821 -0.313,-1.484 -0.747,-2.549 -1.305,-3.195 -0.557,-0.646 -1.231,-0.969 -2.023,-0.969 z m 0.078,-1.328 c 2.281,0 3.979,0.88 5.094,2.641 1.114,1.76 1.672,4.422 1.672,7.984 0,3.688 -0.597,6.477 -1.789,8.367 -1.193,1.891 -2.935,2.836 -5.227,2.836 -2.25,0 -3.925,-0.885 -5.023,-2.656 -1.099,-1.771 -1.649,-4.458 -1.649,-8.062 0,-1.917 0.169,-3.573 0.508,-4.969 0.338,-1.396 0.812,-2.55 1.422,-3.461 0.609,-0.912 1.341,-1.586 2.195,-2.023 0.854,-0.438 1.787,-0.657 2.797,-0.657 z"
       fill-rule="evenodd"
       id="path67" />
    <text
       fill="#000000"
       fill-opacity="0"
       font-family="Arial, Arial_MSFontService, sans-serif"
       font-size="21.8281px"
       x="122.423"
       y="199.196"
       id="text69">0</text>
    <path
       d="m 178.934,181.424 c -0.719,0 -1.321,0.214 -1.805,0.641 -0.485,0.427 -0.875,1.042 -1.172,1.844 -0.297,0.802 -0.508,1.778 -0.633,2.929 -0.125,1.151 -0.187,2.451 -0.187,3.899 0,3.396 0.315,5.888 0.945,7.476 0.63,1.589 1.607,2.383 2.93,2.383 1.26,0 2.195,-0.747 2.804,-2.242 0.61,-1.495 0.914,-3.81 0.914,-6.945 0,-2.396 -0.156,-4.336 -0.468,-5.821 -0.313,-1.484 -0.748,-2.549 -1.305,-3.195 -0.557,-0.646 -1.232,-0.969 -2.023,-0.969 z m 0.078,-1.328 c 2.281,0 3.979,0.88 5.093,2.641 1.115,1.76 1.672,4.422 1.672,7.984 0,3.688 -0.596,6.477 -1.789,8.367 -1.193,1.891 -2.935,2.836 -5.226,2.836 -2.25,0 -3.925,-0.885 -5.024,-2.656 -1.099,-1.771 -1.648,-4.458 -1.648,-8.062 0,-1.917 0.169,-3.573 0.508,-4.969 0.338,-1.396 0.812,-2.55 1.421,-3.461 0.61,-0.912 1.342,-1.586 2.196,-2.023 0.854,-0.438 1.786,-0.657 2.797,-0.657 z"
       fill-rule="evenodd"
       id="path71" />
    <text
       fill="#000000"
       fill-opacity="0"
       font-family="Arial, Arial_MSFontService, sans-serif"
       font-size="21.8281px"
       x="172.09"
       y="199.196"
       id="text73">0</text>
    <path
       d="m 228.6,181.424 c -0.719,0 -1.32,0.214 -1.805,0.641 -0.484,0.427 -0.875,1.042 -1.171,1.844 -0.297,0.802 -0.508,1.778 -0.633,2.929 -0.125,1.151 -0.188,2.451 -0.188,3.899 0,3.396 0.315,5.888 0.946,7.476 0.63,1.589 1.606,2.383 2.929,2.383 1.261,0 2.196,-0.747 2.805,-2.242 0.609,-1.495 0.914,-3.81 0.914,-6.945 0,-2.396 -0.156,-4.336 -0.469,-5.821 -0.312,-1.484 -0.747,-2.549 -1.304,-3.195 -0.558,-0.646 -1.232,-0.969 -2.024,-0.969 z m 0.078,-1.328 c 2.282,0 3.979,0.88 5.094,2.641 1.115,1.76 1.672,4.422 1.672,7.984 0,3.688 -0.596,6.477 -1.789,8.367 -1.193,1.891 -2.935,2.836 -5.227,2.836 -2.25,0 -3.924,-0.885 -5.023,-2.656 -1.099,-1.771 -1.649,-4.458 -1.649,-8.062 0,-1.917 0.17,-3.573 0.508,-4.969 0.339,-1.396 0.813,-2.55 1.422,-3.461 0.609,-0.912 1.341,-1.586 2.195,-2.023 0.855,-0.438 1.787,-0.657 2.797,-0.657 z"
       fill-rule="evenodd"
       id="path75" />
    <text
       fill="#000000"
       fill-opacity="0"
       font-family="Arial, Arial_MSFontService, sans-serif"
       font-size="21.8281px"
       x="221.756"
       y="199.196"
       id="text77">0</text>
    <path
       d="m 130.298,221.281 -6.109,9.704 v 0.218 h 6.109 v -3.89 c 0,-0.979 0.016,-2.076 0.047,-3.289 0.031,-1.214 0.068,-2.128 0.109,-2.743 z m 0.453,-3.531 h 2.235 v 13.453 h 0.328 c 0.604,0 1.036,-0.044 1.297,-0.132 0.26,-0.089 0.476,-0.245 0.648,-0.469 0.172,-0.224 0.331,-0.591 0.477,-1.102 h 1.187 l -0.187,3.219 h -3.75 v 2.562 c 0,0.698 0.023,1.209 0.07,1.532 0.047,0.323 0.125,0.578 0.234,0.765 0.11,0.188 0.271,0.344 0.485,0.469 0.213,0.125 0.56,0.25 1.039,0.375 v 0.766 h -6.344 v -0.766 c 0.646,-0.167 1.078,-0.351 1.297,-0.555 0.219,-0.203 0.362,-0.492 0.43,-0.867 0.067,-0.375 0.101,-0.948 0.101,-1.719 v -2.562 h -8.687 v -1.172 z"
       fill-rule="evenodd"
       id="path79" />
    <text
       fill="#000000"
       fill-opacity="0"
       font-family="Arial, Arial_MSFontService, sans-serif"
       font-size="21.4375px"
       x="121.611"
       y="236.508"
       id="text81">4</text>
    <path
       d="m 183.434,216.828 h 1.218 l -0.234,3.625 h -8.984 v 6.86 c 0.541,-0.229 1.13,-0.401 1.765,-0.516 0.636,-0.114 1.271,-0.172 1.906,-0.172 1.24,0 2.339,0.253 3.297,0.758 0.959,0.505 1.698,1.224 2.219,2.156 0.521,0.933 0.781,2.013 0.781,3.242 0,1.396 -0.291,2.594 -0.875,3.594 -0.583,1 -1.427,1.761 -2.531,2.281 -1.104,0.521 -2.411,0.782 -3.922,0.782 -1.802,0 -3.687,-0.37 -5.656,-1.11 v -3.312 h 1.891 c 0.312,1.062 0.783,1.844 1.414,2.344 0.63,0.5 1.445,0.75 2.445,0.75 1.385,0 2.432,-0.417 3.141,-1.25 0.708,-0.834 1.062,-2.079 1.062,-3.735 0,-1.104 -0.187,-2.018 -0.562,-2.742 -0.375,-0.724 -0.881,-1.247 -1.516,-1.57 -0.636,-0.323 -1.375,-0.485 -2.219,-0.485 -0.708,0 -1.318,0.045 -1.828,0.133 -0.51,0.089 -1.057,0.227 -1.641,0.414 l -1.25,-0.734 V 217.86 h 8.61 c 0.354,0 0.609,-0.029 0.765,-0.086 0.157,-0.058 0.282,-0.146 0.375,-0.266 0.094,-0.12 0.204,-0.346 0.329,-0.68 z"
       fill-rule="evenodd"
       id="path83" />
    <text
       fill="#000000"
       fill-opacity="0"
       font-family="Arial, Arial_MSFontService, sans-serif"
       font-size="22.6094px"
       x="172.418"
       y="236.612"
       id="text85">5</text>
    <path
       d="m 229.319,227.938 c -0.511,0 -1.003,0.057 -1.477,0.172 -0.474,0.114 -0.919,0.281 -1.336,0.5 -0.416,0.218 -0.823,0.494 -1.218,0.828 -0.125,0.114 -0.219,0.234 -0.282,0.359 -0.104,0.198 -0.171,0.443 -0.203,0.734 -0.031,0.292 -0.047,0.782 -0.047,1.469 0,1.99 0.334,3.505 1,4.547 0.667,1.042 1.677,1.563 3.032,1.563 0.781,0 1.437,-0.136 1.968,-0.407 0.532,-0.27 0.961,-0.643 1.289,-1.117 0.329,-0.474 0.563,-1.031 0.704,-1.672 0.14,-0.64 0.211,-1.336 0.211,-2.086 0,-1.541 -0.318,-2.742 -0.954,-3.601 -0.635,-0.86 -1.531,-1.289 -2.687,-1.289 z m 4.016,-10.328 0.64,0.859 v 0.766 c -1.604,0 -3.026,0.343 -4.265,1.031 -1.24,0.687 -2.269,1.698 -3.086,3.031 -0.818,1.333 -1.394,2.917 -1.727,4.75 l 0.156,0.063 c 0.875,-0.625 1.737,-1.084 2.586,-1.375 0.849,-0.292 1.768,-0.438 2.758,-0.438 1.177,0 2.18,0.258 3.008,0.774 0.828,0.515 1.45,1.239 1.867,2.171 0.417,0.933 0.625,2.024 0.625,3.274 0,1.354 -0.26,2.549 -0.781,3.586 -0.521,1.036 -1.326,1.851 -2.414,2.445 -1.089,0.594 -2.43,0.891 -4.024,0.891 -2.281,0 -4.002,-0.709 -5.164,-2.125 -1.161,-1.417 -1.742,-3.505 -1.742,-6.266 0,-1.854 0.292,-3.588 0.875,-5.203 0.583,-1.615 1.411,-3.023 2.484,-4.227 1.073,-1.203 2.318,-2.151 3.735,-2.843 1.416,-0.693 2.906,-1.081 4.469,-1.164 z"
       fill-rule="evenodd"
       id="path87" />
    <text
       fill="#000000"
       fill-opacity="0"
       font-family="Arial, Arial_MSFontService, sans-serif"
       font-size="21.8281px"
       x="221.772"
       y="236.709"
       id="text89">6</text>
    <text
       font-family="Calibri, Calibri_MSFontService, sans-serif"
       font-weight="400"
       font-size="32px"
       transform="translate(120.407,300)"
       id="text91">Matrix A</text>
    <path
       d="M 330,148.717 C 330,140.037 337.037,133 345.717,133 h 104.566 c 8.68,0 15.717,7.037 15.717,15.717 v 90.566 C 466,247.963 458.963,255 450.283,255 H 345.717 C 337.037,255 330,247.963 330,239.283 Z"
       fill="#e2f0d9"
       fill-rule="evenodd"
       id="path93" />
    <path
       d="m 349.738,142.583 h 0.86 c -0.063,1 -0.094,2.385 -0.094,4.156 v 13.344 c 0,0.604 0.034,1.06 0.101,1.367 0.068,0.307 0.188,0.557 0.36,0.75 0.172,0.193 0.419,0.344 0.742,0.453 0.323,0.11 0.729,0.193 1.219,0.25 0.489,0.058 1.135,0.097 1.937,0.117 v 1.141 h -11.547 v -1.141 c 1.157,-0.052 1.982,-0.122 2.477,-0.211 0.495,-0.088 0.872,-0.221 1.133,-0.398 0.26,-0.177 0.45,-0.427 0.57,-0.75 0.12,-0.323 0.18,-0.849 0.18,-1.578 v -12.672 c 0,-0.417 -0.073,-0.721 -0.219,-0.914 -0.146,-0.193 -0.359,-0.289 -0.641,-0.289 -0.333,0 -0.807,0.172 -1.422,0.516 -0.614,0.343 -1.375,0.817 -2.281,1.421 l -0.687,-1.203 z"
       fill-rule="evenodd"
       id="path95" />
    <text
       fill="#000000"
       fill-opacity="0"
       font-family="Arial, Arial_MSFontService, sans-serif"
       font-size="21.5781px"
       x="342.42599"
       y="161.464"
       id="text97">1</text>
    <path
       d="m 398.17,143.911 c -0.718,0 -1.32,0.214 -1.804,0.641 -0.485,0.427 -0.875,1.041 -1.172,1.843 -0.297,0.803 -0.508,1.779 -0.633,2.93 -0.125,1.151 -0.187,2.451 -0.187,3.899 0,3.395 0.315,5.888 0.945,7.476 0.63,1.589 1.607,2.383 2.93,2.383 1.26,0 2.195,-0.747 2.804,-2.242 0.61,-1.495 0.914,-3.81 0.914,-6.946 0,-2.395 -0.156,-4.336 -0.468,-5.82 -0.313,-1.484 -0.748,-2.549 -1.305,-3.195 -0.557,-0.646 -1.232,-0.969 -2.024,-0.969 z m 0.079,-1.328 c 2.281,0 3.979,0.88 5.093,2.641 1.115,1.76 1.672,4.421 1.672,7.984 0,3.687 -0.596,6.476 -1.789,8.367 -1.193,1.891 -2.935,2.836 -5.226,2.836 -2.25,0 -3.925,-0.885 -5.024,-2.656 -1.099,-1.771 -1.648,-4.459 -1.648,-8.063 0,-1.916 0.169,-3.573 0.508,-4.968 0.338,-1.396 0.812,-2.55 1.421,-3.461 0.61,-0.912 1.342,-1.586 2.196,-2.024 0.854,-0.437 1.786,-0.656 2.797,-0.656 z"
       fill-rule="evenodd"
       id="path99" />
    <text
       fill="#000000"
       fill-opacity="0"
       font-family="Arial, Arial_MSFontService, sans-serif"
       font-size="21.8281px"
       x="391.327"
       y="161.683"
       id="text101">0</text>
    <path
       d="m 448.868,146.255 -6.109,9.703 v 0.219 h 6.109 v -3.891 c 0,-0.979 0.016,-2.075 0.047,-3.289 0.032,-1.214 0.068,-2.128 0.11,-2.742 z m 0.454,-3.531 h 2.234 v 13.453 h 0.328 c 0.604,0 1.036,-0.045 1.297,-0.133 0.26,-0.089 0.476,-0.245 0.648,-0.469 0.172,-0.224 0.331,-0.591 0.477,-1.101 h 1.187 l -0.187,3.218 h -3.75 v 2.563 c 0,0.698 0.023,1.208 0.07,1.531 0.047,0.323 0.125,0.578 0.235,0.766 0.109,0.187 0.27,0.343 0.484,0.468 0.213,0.125 0.56,0.25 1.039,0.375 v 0.766 h -6.344 v -0.766 c 0.646,-0.166 1.078,-0.351 1.297,-0.554 0.219,-0.203 0.362,-0.492 0.43,-0.867 0.068,-0.375 0.101,-0.948 0.101,-1.719 v -2.563 h -8.687 v -1.172 z"
       fill-rule="evenodd"
       id="path103" />
    <text
       fill="#000000"
       fill-opacity="0"
       font-family="Arial, Arial_MSFontService, sans-serif"
       font-size="21.4375px"
       x="440.181"
       y="161.481"
       id="text105">4</text>
    <path
       d="m 348.629,180.096 c 1.937,0 3.401,0.425 4.39,1.274 0.99,0.849 1.485,2.08 1.485,3.695 0,0.552 -0.055,1.06 -0.164,1.523 -0.11,0.464 -0.282,0.922 -0.516,1.375 -0.234,0.454 -0.549,0.941 -0.945,1.461 -0.396,0.521 -0.834,1.05 -1.313,1.586 -0.479,0.537 -1.307,1.43 -2.484,2.68 -1.979,2.094 -3.432,3.922 -4.359,5.484 h 5.89 c 0.511,0 0.922,-0.031 1.235,-0.093 0.312,-0.063 0.562,-0.167 0.75,-0.313 0.187,-0.146 0.335,-0.336 0.445,-0.57 0.109,-0.235 0.247,-0.597 0.414,-1.086 h 1.328 l -0.266,4.562 H 341.66 v -0.75 c 0.448,-1.093 1.052,-2.213 1.813,-3.359 0.76,-1.146 1.838,-2.495 3.234,-4.047 1.208,-1.333 2.078,-2.344 2.609,-3.031 0.584,-0.75 1.019,-1.399 1.305,-1.945 0.286,-0.547 0.492,-1.063 0.617,-1.547 0.125,-0.485 0.188,-0.972 0.188,-1.461 0,-0.781 -0.125,-1.472 -0.375,-2.071 -0.25,-0.599 -0.633,-1.07 -1.149,-1.414 -0.515,-0.343 -1.164,-0.515 -1.945,-0.515 -1.948,0 -3.26,1.083 -3.938,3.25 h -1.89 v -3 c 1.26,-0.594 2.44,-1.024 3.539,-1.289 1.099,-0.266 2.086,-0.399 2.961,-0.399 z"
       fill-rule="evenodd"
       id="path107" />
    <text
       fill="#000000"
       fill-opacity="0"
       font-family="Arial, Arial_MSFontService, sans-serif"
       font-size="21.5781px"
       x="341.66"
       y="198.97701"
       id="text109">2</text>
    <path
       d="m 398.17,181.424 c -0.718,0 -1.32,0.214 -1.804,0.641 -0.485,0.427 -0.875,1.042 -1.172,1.844 -0.297,0.802 -0.508,1.778 -0.633,2.929 -0.125,1.151 -0.187,2.451 -0.187,3.899 0,3.396 0.315,5.888 0.945,7.476 0.63,1.589 1.607,2.383 2.93,2.383 1.26,0 2.195,-0.747 2.804,-2.242 0.61,-1.495 0.914,-3.81 0.914,-6.945 0,-2.396 -0.156,-4.336 -0.468,-5.821 -0.313,-1.484 -0.748,-2.549 -1.305,-3.195 -0.557,-0.646 -1.232,-0.969 -2.024,-0.969 z m 0.079,-1.328 c 2.281,0 3.979,0.88 5.093,2.641 1.115,1.76 1.672,4.422 1.672,7.984 0,3.688 -0.596,6.477 -1.789,8.367 -1.193,1.891 -2.935,2.836 -5.226,2.836 -2.25,0 -3.925,-0.885 -5.024,-2.656 -1.099,-1.771 -1.648,-4.458 -1.648,-8.062 0,-1.917 0.169,-3.573 0.508,-4.969 0.338,-1.396 0.812,-2.55 1.421,-3.461 0.61,-0.912 1.342,-1.586 2.196,-2.023 0.854,-0.438 1.786,-0.657 2.797,-0.657 z"
       fill-rule="evenodd"
       id="path111" />
    <text
       fill="#000000"
       fill-opacity="0"
       font-family="Arial, Arial_MSFontService, sans-serif"
       font-size="21.8281px"
       x="391.327"
       y="199.196"
       id="text113">0</text>
    <path
       d="m 452.337,179.315 h 1.219 l -0.234,3.625 h -8.985 v 6.859 c 0.542,-0.229 1.13,-0.401 1.766,-0.515 0.635,-0.115 1.271,-0.172 1.906,-0.172 1.24,0 2.339,0.252 3.297,0.758 0.958,0.505 1.698,1.224 2.219,2.156 0.52,0.932 0.781,2.013 0.781,3.242 0,1.396 -0.292,2.594 -0.875,3.594 -0.583,1 -1.427,1.76 -2.531,2.281 -1.105,0.521 -2.412,0.781 -3.922,0.781 -1.802,0 -3.688,-0.369 -5.656,-1.109 v -3.312 h 1.89 c 0.313,1.062 0.784,1.843 1.414,2.343 0.63,0.5 1.446,0.75 2.446,0.75 1.385,0 2.432,-0.416 3.14,-1.25 0.708,-0.833 1.063,-2.078 1.063,-3.734 0,-1.104 -0.188,-2.018 -0.563,-2.742 -0.375,-0.724 -0.88,-1.248 -1.515,-1.571 -0.636,-0.323 -1.375,-0.484 -2.219,-0.484 -0.709,0 -1.318,0.044 -1.828,0.133 -0.511,0.088 -1.058,0.226 -1.641,0.414 l -1.25,-0.734 v -10.282 h 8.609 c 0.355,0 0.61,-0.028 0.766,-0.086 0.156,-0.057 0.281,-0.146 0.375,-0.265 0.094,-0.12 0.203,-0.347 0.328,-0.68 z"
       fill-rule="evenodd"
       id="path115" />
    <text
       fill="#000000"
       fill-opacity="0"
       font-family="Arial, Arial_MSFontService, sans-serif"
       font-size="22.6094px"
       x="441.32199"
       y="199.09801"
       id="text117">5</text>
    <path
       d="m 348.566,217.61 c 1.177,0 2.209,0.182 3.094,0.546 0.885,0.365 1.563,0.888 2.031,1.571 0.469,0.682 0.703,1.497 0.703,2.445 0,0.886 -0.177,1.664 -0.531,2.336 -0.354,0.672 -0.851,1.258 -1.492,1.758 -0.641,0.5 -1.471,0.989 -2.492,1.469 v 0.14 c 0.635,0.115 1.247,0.31 1.836,0.586 0.588,0.276 1.112,0.633 1.57,1.07 0.458,0.438 0.826,0.961 1.102,1.571 0.276,0.609 0.414,1.304 0.414,2.086 0,1.208 -0.263,2.281 -0.789,3.218 -0.526,0.938 -1.331,1.678 -2.414,2.219 -1.084,0.542 -2.401,0.813 -3.954,0.813 -0.895,0 -1.862,-0.102 -2.898,-0.305 -1.036,-0.203 -1.987,-0.471 -2.852,-0.805 v -3.312 h 1.875 c 0.365,1.083 0.847,1.87 1.446,2.359 0.599,0.49 1.414,0.735 2.445,0.735 1.354,0 2.378,-0.37 3.07,-1.11 0.693,-0.739 1.039,-1.833 1.039,-3.281 0,-1.521 -0.458,-2.682 -1.375,-3.484 -0.916,-0.802 -2.26,-1.204 -4.031,-1.204 h -1.406 v -1.375 c 1.406,-0.083 2.591,-0.354 3.555,-0.812 0.963,-0.458 1.679,-1.047 2.148,-1.766 0.469,-0.718 0.703,-1.526 0.703,-2.422 0,-1.156 -0.307,-2.046 -0.922,-2.671 -0.614,-0.625 -1.51,-0.938 -2.687,-0.938 -0.979,0 -1.776,0.266 -2.391,0.797 -0.614,0.531 -1.068,1.344 -1.359,2.437 h -1.875 v -2.968 c 1.208,-0.573 2.338,-1 3.39,-1.282 1.053,-0.281 2.068,-0.421 3.047,-0.421 z"
       fill-rule="evenodd"
       id="path119" />
    <text
       fill="#000000"
       fill-opacity="0"
       font-family="Arial, Arial_MSFontService, sans-serif"
       font-size="21.8281px"
       x="341.89401"
       y="236.709"
       id="text121">3</text>
    <path
       d="m 398.17,218.938 c -0.718,0 -1.32,0.213 -1.804,0.64 -0.485,0.427 -0.875,1.042 -1.172,1.844 -0.297,0.802 -0.508,1.779 -0.633,2.93 -0.125,1.151 -0.187,2.45 -0.187,3.898 0,3.396 0.315,5.888 0.945,7.477 0.63,1.588 1.607,2.383 2.93,2.383 1.26,0 2.195,-0.748 2.804,-2.243 0.61,-1.494 0.914,-3.809 0.914,-6.945 0,-2.396 -0.156,-4.336 -0.468,-5.82 -0.313,-1.485 -0.748,-2.55 -1.305,-3.196 -0.557,-0.645 -1.232,-0.968 -2.024,-0.968 z m 0.079,-1.328 c 2.281,0 3.979,0.88 5.093,2.64 1.115,1.761 1.672,4.422 1.672,7.985 0,3.687 -0.596,6.476 -1.789,8.367 -1.193,1.89 -2.935,2.836 -5.226,2.836 -2.25,0 -3.925,-0.886 -5.024,-2.657 -1.099,-1.77 -1.648,-4.458 -1.648,-8.062 0,-1.917 0.169,-3.573 0.508,-4.969 0.338,-1.396 0.812,-2.549 1.421,-3.461 0.61,-0.911 1.342,-1.586 2.196,-2.023 0.854,-0.438 1.786,-0.656 2.797,-0.656 z"
       fill-rule="evenodd"
       id="path123" />
    <text
       fill="#000000"
       fill-opacity="0"
       font-family="Arial, Arial_MSFontService, sans-serif"
       font-size="21.8281px"
       x="391.327"
       y="236.709"
       id="text125">0</text>
    <path
       d="m 448.556,227.938 c -0.511,0 -1.003,0.057 -1.477,0.172 -0.474,0.114 -0.919,0.281 -1.336,0.5 -0.416,0.218 -0.823,0.494 -1.218,0.828 -0.125,0.114 -0.219,0.234 -0.282,0.359 -0.104,0.198 -0.171,0.443 -0.203,0.734 -0.031,0.292 -0.047,0.782 -0.047,1.469 0,1.99 0.334,3.505 1,4.547 0.667,1.042 1.677,1.563 3.032,1.563 0.781,0 1.437,-0.136 1.968,-0.407 0.532,-0.27 0.961,-0.643 1.289,-1.117 0.329,-0.474 0.563,-1.031 0.704,-1.672 0.14,-0.64 0.211,-1.336 0.211,-2.086 0,-1.541 -0.318,-2.742 -0.954,-3.601 -0.635,-0.86 -1.531,-1.289 -2.687,-1.289 z m 4.016,-10.328 0.64,0.859 v 0.766 c -1.604,0 -3.026,0.343 -4.265,1.031 -1.24,0.687 -2.269,1.698 -3.086,3.031 -0.818,1.333 -1.394,2.917 -1.727,4.75 l 0.156,0.063 c 0.875,-0.625 1.737,-1.084 2.586,-1.375 0.849,-0.292 1.768,-0.438 2.758,-0.438 1.177,0 2.18,0.258 3.008,0.774 0.828,0.515 1.45,1.239 1.867,2.171 0.417,0.933 0.625,2.024 0.625,3.274 0,1.354 -0.26,2.549 -0.781,3.586 -0.521,1.036 -1.326,1.851 -2.414,2.445 -1.089,0.594 -2.43,0.891 -4.024,0.891 -2.281,0 -4.002,-0.709 -5.164,-2.125 -1.161,-1.417 -1.742,-3.505 -1.742,-6.266 0,-1.854 0.292,-3.588 0.875,-5.203 0.583,-1.615 1.411,-3.023 2.484,-4.227 1.073,-1.203 2.318,-2.151 3.735,-2.843 1.416,-0.693 2.906,-1.081 4.469,-1.164 z"
       fill-rule="evenodd"
       id="path127" />
    <text
       fill="#000000"
       fill-opacity="0"
       font-family="Arial, Arial_MSFontService, sans-serif"
       font-size="21.8281px"
       x="441.009"
       y="236.709"
       id="text129">6</text>
    <text
       font-family="Calibri, Calibri_MSFontService, sans-serif"
       font-weight="400"
       font-size="32px"
       transform="translate(301.845,300)"
       id="text135">Transpose of A <tspan
   font-size="32px"
   x="295.31699"
   y="0"
   id="tspan131">Symmetrical</tspan><tspan
   font-size="32px"
   x="321.63101"
   y="38"
   id="tspan133">matrix B</tspan></text>
    <path
       d="M 829,148.717 C 829,140.037 836.037,133 844.717,133 h 103.566 c 8.68,0 15.717,7.037 15.717,15.717 v 90.562 c 0,8.68 -7.037,15.716 -15.717,15.716 H 844.717 c -8.68,0 -15.717,-7.036 -15.717,-15.716 z"
       fill="#e2f0d9"
       fill-rule="evenodd"
       id="path137" />
    <path
       d="m 848.691,142.583 h 0.86 c -0.063,1 -0.094,2.385 -0.094,4.156 v 13.344 c 0,0.604 0.034,1.06 0.101,1.367 0.068,0.307 0.188,0.557 0.36,0.75 0.172,0.193 0.419,0.344 0.742,0.453 0.323,0.11 0.729,0.193 1.219,0.25 0.489,0.058 1.135,0.097 1.937,0.117 v 1.141 h -11.547 v -1.141 c 1.157,-0.052 1.982,-0.122 2.477,-0.211 0.495,-0.088 0.872,-0.221 1.133,-0.398 0.26,-0.177 0.45,-0.427 0.57,-0.75 0.12,-0.323 0.18,-0.849 0.18,-1.578 v -12.672 c 0,-0.417 -0.073,-0.721 -0.219,-0.914 -0.146,-0.193 -0.359,-0.289 -0.641,-0.289 -0.333,0 -0.807,0.172 -1.422,0.516 -0.614,0.343 -1.375,0.817 -2.281,1.421 l -0.687,-1.203 z"
       fill-rule="evenodd"
       id="path139" />
    <text
       fill="#000000"
       fill-opacity="0"
       font-family="Arial, Arial_MSFontService, sans-serif"
       font-size="21.5781px"
       x="841.37903"
       y="161.464"
       id="text141">1</text>
    <path
       d="m 897.249,142.583 c 1.937,0 3.401,0.424 4.39,1.273 0.99,0.849 1.485,2.081 1.485,3.696 0,0.552 -0.055,1.06 -0.165,1.523 -0.109,0.464 -0.281,0.922 -0.515,1.375 -0.235,0.453 -0.55,0.94 -0.945,1.461 -0.396,0.521 -0.834,1.05 -1.313,1.586 -0.479,0.536 -1.307,1.43 -2.484,2.68 -1.98,2.093 -3.433,3.922 -4.36,5.484 h 5.891 c 0.51,0 0.922,-0.031 1.234,-0.094 0.313,-0.062 0.563,-0.166 0.75,-0.312 0.188,-0.146 0.336,-0.336 0.446,-0.571 0.109,-0.234 0.247,-0.596 0.414,-1.085 h 1.328 l -0.266,4.562 H 890.28 v -0.75 c 0.448,-1.094 1.052,-2.213 1.812,-3.359 0.761,-1.146 1.839,-2.495 3.235,-4.047 1.208,-1.334 2.078,-2.344 2.609,-3.031 0.583,-0.75 1.018,-1.399 1.305,-1.946 0.286,-0.547 0.492,-1.062 0.617,-1.547 0.125,-0.484 0.187,-0.971 0.187,-1.461 0,-0.781 -0.125,-1.471 -0.375,-2.07 -0.25,-0.599 -0.632,-1.07 -1.148,-1.414 -0.516,-0.344 -1.164,-0.516 -1.945,-0.516 -1.948,0 -3.261,1.084 -3.938,3.25 h -1.89 v -3 c 1.26,-0.593 2.44,-1.023 3.539,-1.289 1.099,-0.265 2.086,-0.398 2.961,-0.398 z"
       fill-rule="evenodd"
       id="path143" />
    <text
       fill="#000000"
       fill-opacity="0"
       font-family="Arial, Arial_MSFontService, sans-serif"
       font-size="21.5781px"
       x="890.28003"
       y="161.464"
       id="text145">2</text>
    <path
       d="m 946.853,142.583 c 1.177,0 2.208,0.182 3.093,0.547 0.886,0.364 1.563,0.888 2.032,1.57 0.468,0.682 0.703,1.498 0.703,2.445 0,0.886 -0.177,1.664 -0.531,2.336 -0.355,0.672 -0.852,1.258 -1.493,1.758 -0.64,0.5 -1.471,0.99 -2.492,1.469 v 0.141 c 0.636,0.114 1.248,0.309 1.836,0.585 0.589,0.277 1.112,0.633 1.57,1.071 0.459,0.437 0.826,0.961 1.102,1.57 0.276,0.609 0.414,1.305 0.414,2.086 0,1.208 -0.263,2.281 -0.789,3.219 -0.526,0.937 -1.331,1.677 -2.414,2.219 -1.083,0.541 -2.401,0.812 -3.953,0.812 -0.896,0 -1.862,-0.102 -2.899,-0.305 -1.036,-0.203 -1.987,-0.471 -2.851,-0.804 v -3.313 h 1.875 c 0.364,1.084 0.846,1.87 1.445,2.36 0.599,0.489 1.414,0.734 2.445,0.734 1.355,0 2.378,-0.37 3.071,-1.109 0.692,-0.74 1.039,-1.834 1.039,-3.282 0,-1.521 -0.459,-2.682 -1.375,-3.484 -0.917,-0.802 -2.261,-1.203 -4.031,-1.203 h -1.407 v -1.375 c 1.407,-0.084 2.591,-0.354 3.555,-0.813 0.964,-0.458 1.68,-1.047 2.148,-1.765 0.469,-0.719 0.704,-1.526 0.704,-2.422 0,-1.156 -0.308,-2.047 -0.922,-2.672 -0.615,-0.625 -1.511,-0.938 -2.688,-0.938 -0.979,0 -1.776,0.266 -2.39,0.797 -0.615,0.532 -1.068,1.344 -1.36,2.438 h -1.875 v -2.969 c 1.208,-0.573 2.339,-1 3.391,-1.281 1.052,-0.281 2.067,-0.422 3.047,-0.422 z"
       fill-rule="evenodd"
       id="path147" />
    <text
       fill="#000000"
       fill-opacity="0"
       font-family="Arial, Arial_MSFontService, sans-serif"
       font-size="21.8281px"
       x="940.18103"
       y="161.683"
       id="text149">3</text>
    <path
       d="m 847.582,180.096 c 1.937,0 3.401,0.425 4.39,1.274 0.99,0.849 1.485,2.08 1.485,3.695 0,0.552 -0.055,1.06 -0.164,1.523 -0.11,0.464 -0.281,0.922 -0.516,1.375 -0.234,0.454 -0.549,0.941 -0.945,1.461 -0.396,0.521 -0.833,1.05 -1.313,1.586 -0.479,0.537 -1.307,1.43 -2.484,2.68 -1.979,2.094 -3.432,3.922 -4.359,5.484 h 5.89 c 0.511,0 0.922,-0.031 1.235,-0.093 0.312,-0.063 0.562,-0.167 0.75,-0.313 0.187,-0.146 0.336,-0.336 0.445,-0.57 0.109,-0.235 0.247,-0.597 0.414,-1.086 h 1.328 l -0.266,4.562 h -12.859 v -0.75 c 0.448,-1.093 1.052,-2.213 1.813,-3.359 0.76,-1.146 1.838,-2.495 3.234,-4.047 1.208,-1.333 2.078,-2.344 2.609,-3.031 0.584,-0.75 1.019,-1.399 1.305,-1.945 0.286,-0.547 0.492,-1.063 0.617,-1.547 0.125,-0.485 0.188,-0.972 0.188,-1.461 0,-0.781 -0.125,-1.472 -0.375,-2.071 -0.25,-0.599 -0.633,-1.07 -1.149,-1.414 -0.515,-0.343 -1.164,-0.515 -1.945,-0.515 -1.948,0 -3.26,1.083 -3.938,3.25 h -1.89 v -3 c 1.26,-0.594 2.44,-1.024 3.539,-1.289 1.099,-0.266 2.086,-0.399 2.961,-0.399 z"
       fill-rule="evenodd"
       id="path151" />
    <text
       fill="#000000"
       fill-opacity="0"
       font-family="Arial, Arial_MSFontService, sans-serif"
       font-size="21.5781px"
       x="840.61298"
       y="198.97701"
       id="text153">2</text>
    <path
       d="m 897.124,181.424 c -0.719,0 -1.321,0.214 -1.805,0.641 -0.485,0.427 -0.875,1.042 -1.172,1.844 -0.297,0.802 -0.508,1.778 -0.633,2.929 -0.125,1.151 -0.187,2.451 -0.187,3.899 0,3.396 0.315,5.888 0.945,7.476 0.63,1.589 1.607,2.383 2.93,2.383 1.26,0 2.195,-0.747 2.804,-2.242 0.61,-1.495 0.914,-3.81 0.914,-6.945 0,-2.396 -0.156,-4.336 -0.468,-5.821 -0.313,-1.484 -0.748,-2.549 -1.305,-3.195 -0.557,-0.646 -1.232,-0.969 -2.023,-0.969 z m 0.078,-1.328 c 2.281,0 3.979,0.88 5.093,2.641 1.115,1.76 1.672,4.422 1.672,7.984 0,3.688 -0.596,6.477 -1.789,8.367 -1.192,1.891 -2.935,2.836 -5.226,2.836 -2.25,0 -3.925,-0.885 -5.024,-2.656 -1.099,-1.771 -1.648,-4.458 -1.648,-8.062 0,-1.917 0.169,-3.573 0.508,-4.969 0.338,-1.396 0.812,-2.55 1.421,-3.461 0.61,-0.912 1.342,-1.586 2.196,-2.023 0.854,-0.438 1.786,-0.657 2.797,-0.657 z"
       fill-rule="evenodd"
       id="path155" />
    <text
       fill="#000000"
       fill-opacity="0"
       font-family="Arial, Arial_MSFontService, sans-serif"
       font-size="21.8281px"
       x="890.28003"
       y="199.196"
       id="text157">0</text>
    <path
       d="m 951.29,179.315 h 1.219 l -0.234,3.625 h -8.985 v 6.859 c 0.542,-0.229 1.13,-0.401 1.766,-0.515 0.635,-0.115 1.271,-0.172 1.906,-0.172 1.24,0 2.339,0.252 3.297,0.758 0.958,0.505 1.698,1.224 2.219,2.156 0.52,0.932 0.781,2.013 0.781,3.242 0,1.396 -0.292,2.594 -0.875,3.594 -0.583,1 -1.427,1.76 -2.531,2.281 -1.105,0.521 -2.412,0.781 -3.922,0.781 -1.802,0 -3.688,-0.369 -5.656,-1.109 v -3.312 h 1.89 c 0.313,1.062 0.784,1.843 1.414,2.343 0.63,0.5 1.446,0.75 2.446,0.75 1.385,0 2.432,-0.416 3.14,-1.25 0.708,-0.833 1.063,-2.078 1.063,-3.734 0,-1.104 -0.188,-2.018 -0.563,-2.742 -0.375,-0.724 -0.88,-1.248 -1.515,-1.571 -0.636,-0.323 -1.375,-0.484 -2.219,-0.484 -0.709,0 -1.318,0.044 -1.828,0.133 -0.511,0.088 -1.058,0.226 -1.641,0.414 l -1.25,-0.734 v -10.282 h 8.609 c 0.355,0 0.61,-0.028 0.766,-0.086 0.156,-0.057 0.281,-0.146 0.375,-0.265 0.094,-0.12 0.203,-0.347 0.328,-0.68 z"
       fill-rule="evenodd"
       id="path159" />
    <text
       fill="#000000"
       fill-opacity="0"
       font-family="Arial, Arial_MSFontService, sans-serif"
       font-size="22.6094px"
       x="940.27502"
       y="199.09801"
       id="text161">5</text>
    <path
       d="m 847.519,217.61 c 1.177,0 2.209,0.182 3.094,0.546 0.886,0.365 1.563,0.888 2.031,1.571 0.469,0.682 0.703,1.497 0.703,2.445 0,0.886 -0.177,1.664 -0.531,2.336 -0.354,0.672 -0.851,1.258 -1.492,1.758 -0.641,0.5 -1.471,0.989 -2.492,1.469 v 0.14 c 0.635,0.115 1.247,0.31 1.836,0.586 0.588,0.276 1.112,0.633 1.57,1.07 0.458,0.438 0.826,0.961 1.102,1.571 0.276,0.609 0.414,1.304 0.414,2.086 0,1.208 -0.263,2.281 -0.789,3.218 -0.526,0.938 -1.331,1.678 -2.414,2.219 -1.084,0.542 -2.401,0.813 -3.954,0.813 -0.895,0 -1.862,-0.102 -2.898,-0.305 -1.036,-0.203 -1.987,-0.471 -2.852,-0.805 v -3.312 h 1.875 c 0.365,1.083 0.847,1.87 1.446,2.359 0.599,0.49 1.414,0.735 2.445,0.735 1.354,0 2.378,-0.37 3.07,-1.11 0.693,-0.739 1.039,-1.833 1.039,-3.281 0,-1.521 -0.458,-2.682 -1.375,-3.484 -0.916,-0.802 -2.26,-1.204 -4.031,-1.204 h -1.406 v -1.375 c 1.406,-0.083 2.591,-0.354 3.555,-0.812 0.963,-0.458 1.679,-1.047 2.148,-1.766 0.469,-0.718 0.703,-1.526 0.703,-2.422 0,-1.156 -0.307,-2.046 -0.922,-2.671 -0.614,-0.625 -1.51,-0.938 -2.687,-0.938 -0.979,0 -1.776,0.266 -2.391,0.797 -0.614,0.531 -1.067,1.344 -1.359,2.437 h -1.875 v -2.968 c 1.208,-0.573 2.338,-1 3.39,-1.282 1.053,-0.281 2.068,-0.421 3.047,-0.421 z"
       fill-rule="evenodd"
       id="path163" />
    <text
       fill="#000000"
       fill-opacity="0"
       font-family="Arial, Arial_MSFontService, sans-serif"
       font-size="21.8281px"
       x="840.84698"
       y="236.709"
       id="text165">3</text>
    <path
       d="m 901.624,216.828 h 1.218 l -0.234,3.625 h -8.984 v 6.86 c 0.541,-0.229 1.13,-0.401 1.765,-0.516 0.636,-0.114 1.271,-0.172 1.906,-0.172 1.24,0 2.339,0.253 3.297,0.758 0.959,0.505 1.698,1.224 2.219,2.156 0.521,0.933 0.781,2.013 0.781,3.242 0,1.396 -0.291,2.594 -0.875,3.594 -0.583,1 -1.427,1.761 -2.531,2.281 -1.104,0.521 -2.411,0.782 -3.922,0.782 -1.802,0 -3.687,-0.37 -5.656,-1.11 v -3.312 h 1.891 c 0.312,1.062 0.783,1.844 1.414,2.344 0.63,0.5 1.445,0.75 2.445,0.75 1.385,0 2.432,-0.417 3.141,-1.25 0.708,-0.834 1.062,-2.079 1.062,-3.735 0,-1.104 -0.187,-2.018 -0.562,-2.742 -0.375,-0.724 -0.881,-1.247 -1.516,-1.57 -0.636,-0.323 -1.375,-0.485 -2.219,-0.485 -0.708,0 -1.318,0.045 -1.828,0.133 -0.51,0.089 -1.057,0.227 -1.641,0.414 l -1.25,-0.734 V 217.86 h 8.61 c 0.354,0 0.609,-0.029 0.765,-0.086 0.157,-0.058 0.282,-0.146 0.375,-0.266 0.094,-0.12 0.204,-0.346 0.329,-0.68 z"
       fill-rule="evenodd"
       id="path167" />
    <text
       fill="#000000"
       fill-opacity="0"
       font-family="Arial, Arial_MSFontService, sans-serif"
       font-size="22.6094px"
       x="890.60797"
       y="236.612"
       id="text169">5</text>
    <path
       d="m 947.509,227.938 c -0.511,0 -1.003,0.057 -1.477,0.172 -0.474,0.114 -0.919,0.281 -1.336,0.5 -0.416,0.218 -0.823,0.494 -1.218,0.828 -0.125,0.114 -0.219,0.234 -0.282,0.359 -0.104,0.198 -0.171,0.443 -0.203,0.734 -0.031,0.292 -0.047,0.782 -0.047,1.469 0,1.99 0.334,3.505 1,4.547 0.667,1.042 1.677,1.563 3.032,1.563 0.781,0 1.437,-0.136 1.968,-0.407 0.532,-0.27 0.961,-0.643 1.289,-1.117 0.329,-0.474 0.563,-1.031 0.704,-1.672 0.14,-0.64 0.211,-1.336 0.211,-2.086 0,-1.541 -0.318,-2.742 -0.954,-3.601 -0.635,-0.86 -1.531,-1.289 -2.687,-1.289 z m 4.016,-10.328 0.64,0.859 v 0.766 c -1.604,0 -3.026,0.343 -4.265,1.031 -1.24,0.687 -2.269,1.698 -3.086,3.031 -0.818,1.333 -1.394,2.917 -1.727,4.75 l 0.156,0.063 c 0.875,-0.625 1.737,-1.084 2.586,-1.375 0.849,-0.292 1.768,-0.438 2.758,-0.438 1.177,0 2.18,0.258 3.008,0.774 0.828,0.515 1.45,1.239 1.867,2.171 0.417,0.933 0.625,2.024 0.625,3.274 0,1.354 -0.26,2.549 -0.781,3.586 -0.521,1.036 -1.326,1.851 -2.414,2.445 -1.089,0.594 -2.43,0.891 -4.024,0.891 -2.281,0 -4.002,-0.709 -5.164,-2.125 -1.161,-1.417 -1.742,-3.505 -1.742,-6.266 0,-1.854 0.292,-3.588 0.875,-5.203 0.583,-1.615 1.411,-3.023 2.484,-4.227 1.073,-1.203 2.318,-2.151 3.735,-2.843 1.416,-0.693 2.906,-1.081 4.469,-1.164 z"
       fill-rule="evenodd"
       id="path171" />
    <text
       fill="#000000"
       fill-opacity="0"
       font-family="Arial, Arial_MSFontService, sans-serif"
       font-size="21.8281px"
       x="939.96198"
       y="236.709"
       id="text173">6</text>
    <text
       font-family="Calibri, Calibri_MSFontService, sans-serif"
       font-weight="400"
       font-size="32px"
       transform="translate(808.358,300)"
       id="text175">Transpose of B</text>
    <path
       d="M 330,375.717 C 330,367.037 337.037,360 345.717,360 h 104.566 c 8.68,0 15.717,7.037 15.717,15.717 v 90.566 C 466,474.963 458.963,482 450.283,482 H 345.717 C 337.037,482 330,474.963 330,466.283 Z"
       fill="#e2f0d9"
       fill-rule="evenodd"
       id="path177" />
    <path
       d="m 349.738,369.447 h 0.86 c -0.063,1 -0.094,2.385 -0.094,4.156 v 13.344 c 0,0.604 0.034,1.059 0.101,1.367 0.068,0.307 0.188,0.557 0.36,0.75 0.172,0.192 0.419,0.343 0.742,0.453 0.323,0.109 0.729,0.193 1.219,0.25 0.489,0.057 1.135,0.096 1.937,0.117 v 1.141 h -11.547 v -1.141 c 1.157,-0.052 1.982,-0.122 2.477,-0.211 0.495,-0.088 0.872,-0.221 1.133,-0.398 0.26,-0.177 0.45,-0.427 0.57,-0.75 0.12,-0.323 0.18,-0.849 0.18,-1.578 v -12.672 c 0,-0.417 -0.073,-0.722 -0.219,-0.914 -0.146,-0.193 -0.359,-0.289 -0.641,-0.289 -0.333,0 -0.807,0.171 -1.422,0.515 -0.614,0.344 -1.375,0.818 -2.281,1.422 l -0.687,-1.203 z"
       fill-rule="evenodd"
       id="path179" />
    <text
       fill="#000000"
       fill-opacity="0"
       font-family="Arial, Arial_MSFontService, sans-serif"
       font-size="21.5781px"
       x="342.42599"
       y="388.327"
       id="text181">1</text>
    <path
       d="m 398.17,370.775 c -0.718,0 -1.32,0.213 -1.804,0.64 -0.485,0.427 -0.875,1.042 -1.172,1.844 -0.297,0.802 -0.508,1.779 -0.633,2.93 -0.125,1.151 -0.187,2.45 -0.187,3.898 0,3.396 0.315,5.888 0.945,7.477 0.63,1.588 1.607,2.383 2.93,2.383 1.26,0 2.195,-0.748 2.804,-2.243 0.61,-1.494 0.914,-3.81 0.914,-6.945 0,-2.396 -0.156,-4.336 -0.468,-5.82 -0.313,-1.485 -0.748,-2.55 -1.305,-3.196 -0.557,-0.645 -1.232,-0.968 -2.024,-0.968 z m 0.079,-1.328 c 2.281,0 3.979,0.88 5.093,2.64 1.115,1.761 1.672,4.422 1.672,7.985 0,3.687 -0.596,6.476 -1.789,8.367 -1.193,1.89 -2.935,2.836 -5.226,2.836 -2.25,0 -3.925,-0.886 -5.024,-2.657 -1.099,-1.77 -1.648,-4.458 -1.648,-8.062 0,-1.917 0.169,-3.573 0.508,-4.969 0.338,-1.396 0.812,-2.549 1.421,-3.461 0.61,-0.911 1.342,-1.586 2.196,-2.023 0.854,-0.438 1.786,-0.656 2.797,-0.656 z"
       fill-rule="evenodd"
       id="path183" />
    <text
       fill="#000000"
       fill-opacity="0"
       font-family="Arial, Arial_MSFontService, sans-serif"
       font-size="21.8281px"
       x="391.327"
       y="388.54599"
       id="text185">0</text>
    <path
       d="m 447.837,370.775 c -0.719,0 -1.32,0.213 -1.805,0.64 -0.484,0.427 -0.875,1.042 -1.171,1.844 -0.297,0.802 -0.508,1.779 -0.633,2.93 -0.125,1.151 -0.188,2.45 -0.188,3.898 0,3.396 0.315,5.888 0.946,7.477 0.63,1.588 1.606,2.383 2.929,2.383 1.261,0 2.196,-0.748 2.805,-2.243 0.609,-1.494 0.914,-3.81 0.914,-6.945 0,-2.396 -0.156,-4.336 -0.469,-5.82 -0.312,-1.485 -0.747,-2.55 -1.304,-3.196 -0.558,-0.645 -1.232,-0.968 -2.024,-0.968 z m 0.078,-1.328 c 2.282,0 3.979,0.88 5.094,2.64 1.115,1.761 1.672,4.422 1.672,7.985 0,3.687 -0.596,6.476 -1.789,8.367 -1.193,1.89 -2.935,2.836 -5.227,2.836 -2.25,0 -3.924,-0.886 -5.023,-2.657 -1.099,-1.77 -1.649,-4.458 -1.649,-8.062 0,-1.917 0.17,-3.573 0.508,-4.969 0.339,-1.396 0.813,-2.549 1.422,-3.461 0.609,-0.911 1.341,-1.586 2.195,-2.023 0.855,-0.438 1.787,-0.656 2.797,-0.656 z"
       fill-rule="evenodd"
       id="path187" />
    <text
       fill="#000000"
       fill-opacity="0"
       font-family="Arial, Arial_MSFontService, sans-serif"
       font-size="21.8281px"
       x="440.99301"
       y="388.54599"
       id="text189">0</text>
    <path
       d="m 348.504,408.288 c -0.719,0 -1.321,0.214 -1.805,0.641 -0.484,0.427 -0.875,1.041 -1.172,1.843 -0.297,0.802 -0.508,1.779 -0.633,2.93 -0.125,1.151 -0.187,2.451 -0.187,3.898 0,3.396 0.315,5.889 0.945,7.477 0.63,1.589 1.607,2.383 2.93,2.383 1.26,0 2.195,-0.748 2.805,-2.242 0.609,-1.495 0.914,-3.81 0.914,-6.946 0,-2.395 -0.157,-4.336 -0.469,-5.82 -0.313,-1.484 -0.747,-2.549 -1.305,-3.195 -0.557,-0.646 -1.232,-0.969 -2.023,-0.969 z m 0.078,-1.328 c 2.281,0 3.979,0.88 5.094,2.64 1.114,1.761 1.672,4.422 1.672,7.985 0,3.687 -0.597,6.476 -1.79,8.367 -1.192,1.891 -2.934,2.836 -5.226,2.836 -2.25,0 -3.925,-0.885 -5.024,-2.656 -1.098,-1.771 -1.648,-4.459 -1.648,-8.063 0,-1.916 0.169,-3.573 0.508,-4.969 0.338,-1.395 0.812,-2.549 1.422,-3.46 0.609,-0.912 1.341,-1.586 2.195,-2.024 0.854,-0.437 1.787,-0.656 2.797,-0.656 z"
       fill-rule="evenodd"
       id="path191" />
    <text
       fill="#000000"
       fill-opacity="0"
       font-family="Arial, Arial_MSFontService, sans-serif"
       font-size="21.8281px"
       x="341.66"
       y="426.05899"
       id="text193">0</text>
    <path
       d="m 399.405,406.96 h 0.859 c -0.062,1 -0.094,2.385 -0.094,4.156 v 13.344 c 0,0.604 0.034,1.06 0.102,1.367 0.068,0.307 0.188,0.557 0.359,0.75 0.172,0.193 0.42,0.344 0.743,0.453 0.322,0.11 0.729,0.193 1.218,0.25 0.49,0.057 1.136,0.097 1.938,0.117 v 1.141 h -11.547 v -1.141 c 1.156,-0.052 1.982,-0.122 2.477,-0.211 0.494,-0.088 0.872,-0.221 1.132,-0.398 0.261,-0.177 0.451,-0.427 0.571,-0.75 0.119,-0.323 0.179,-0.849 0.179,-1.578 v -12.672 c 0,-0.417 -0.073,-0.721 -0.218,-0.914 -0.146,-0.193 -0.36,-0.289 -0.641,-0.289 -0.333,0 -0.807,0.172 -1.422,0.515 -0.615,0.344 -1.375,0.818 -2.281,1.422 l -0.688,-1.203 z"
       fill-rule="evenodd"
       id="path195" />
    <text
       fill="#000000"
       fill-opacity="0"
       font-family="Arial, Arial_MSFontService, sans-serif"
       font-size="21.5781px"
       x="392.09201"
       y="425.841"
       id="text197">1</text>
    <path
       d="m 447.837,408.288 c -0.719,0 -1.32,0.214 -1.805,0.641 -0.484,0.427 -0.875,1.041 -1.171,1.843 -0.297,0.802 -0.508,1.779 -0.633,2.93 -0.125,1.151 -0.188,2.451 -0.188,3.898 0,3.396 0.315,5.889 0.946,7.477 0.63,1.589 1.606,2.383 2.929,2.383 1.261,0 2.196,-0.748 2.805,-2.242 0.609,-1.495 0.914,-3.81 0.914,-6.946 0,-2.395 -0.156,-4.336 -0.469,-5.82 -0.312,-1.484 -0.747,-2.549 -1.304,-3.195 -0.558,-0.646 -1.232,-0.969 -2.024,-0.969 z m 0.078,-1.328 c 2.282,0 3.979,0.88 5.094,2.64 1.115,1.761 1.672,4.422 1.672,7.985 0,3.687 -0.596,6.476 -1.789,8.367 -1.193,1.891 -2.935,2.836 -5.227,2.836 -2.25,0 -3.924,-0.885 -5.023,-2.656 -1.099,-1.771 -1.649,-4.459 -1.649,-8.063 0,-1.916 0.17,-3.573 0.508,-4.969 0.339,-1.395 0.813,-2.549 1.422,-3.46 0.609,-0.912 1.341,-1.586 2.195,-2.024 0.855,-0.437 1.787,-0.656 2.797,-0.656 z"
       fill-rule="evenodd"
       id="path199" />
    <text
       fill="#000000"
       fill-opacity="0"
       font-family="Arial, Arial_MSFontService, sans-serif"
       font-size="21.8281px"
       x="440.99301"
       y="426.05899"
       id="text201">0</text>
    <path
       d="m 348.504,445.801 c -0.719,0 -1.321,0.214 -1.805,0.641 -0.484,0.427 -0.875,1.042 -1.172,1.844 -0.297,0.802 -0.508,1.778 -0.633,2.929 -0.125,1.151 -0.187,2.451 -0.187,3.899 0,3.396 0.315,5.888 0.945,7.476 0.63,1.589 1.607,2.383 2.93,2.383 1.26,0 2.195,-0.747 2.805,-2.242 0.609,-1.495 0.914,-3.81 0.914,-6.945 0,-2.396 -0.157,-4.336 -0.469,-5.821 -0.313,-1.484 -0.747,-2.549 -1.305,-3.195 -0.557,-0.646 -1.232,-0.969 -2.023,-0.969 z m 0.078,-1.328 c 2.281,0 3.979,0.88 5.094,2.641 1.114,1.76 1.672,4.422 1.672,7.984 0,3.688 -0.597,6.477 -1.79,8.367 -1.192,1.891 -2.934,2.836 -5.226,2.836 -2.25,0 -3.925,-0.885 -5.024,-2.656 -1.098,-1.771 -1.648,-4.458 -1.648,-8.062 0,-1.917 0.169,-3.573 0.508,-4.969 0.338,-1.396 0.812,-2.55 1.422,-3.461 0.609,-0.912 1.341,-1.586 2.195,-2.024 0.854,-0.437 1.787,-0.656 2.797,-0.656 z"
       fill-rule="evenodd"
       id="path203" />
    <text
       fill="#000000"
       fill-opacity="0"
       font-family="Arial, Arial_MSFontService, sans-serif"
       font-size="21.8281px"
       x="341.66"
       y="463.573"
       id="text205">0</text>
    <path
       d="m 398.17,445.801 c -0.718,0 -1.32,0.214 -1.804,0.641 -0.485,0.427 -0.875,1.042 -1.172,1.844 -0.297,0.802 -0.508,1.778 -0.633,2.929 -0.125,1.151 -0.187,2.451 -0.187,3.899 0,3.396 0.315,5.888 0.945,7.476 0.63,1.589 1.607,2.383 2.93,2.383 1.26,0 2.195,-0.747 2.804,-2.242 0.61,-1.495 0.914,-3.81 0.914,-6.945 0,-2.396 -0.156,-4.336 -0.468,-5.821 -0.313,-1.484 -0.748,-2.549 -1.305,-3.195 -0.557,-0.646 -1.232,-0.969 -2.024,-0.969 z m 0.079,-1.328 c 2.281,0 3.979,0.88 5.093,2.641 1.115,1.76 1.672,4.422 1.672,7.984 0,3.688 -0.596,6.477 -1.789,8.367 -1.193,1.891 -2.935,2.836 -5.226,2.836 -2.25,0 -3.925,-0.885 -5.024,-2.656 -1.099,-1.771 -1.648,-4.458 -1.648,-8.062 0,-1.917 0.169,-3.573 0.508,-4.969 0.338,-1.396 0.812,-2.55 1.421,-3.461 0.61,-0.912 1.342,-1.586 2.196,-2.024 0.854,-0.437 1.786,-0.656 2.797,-0.656 z"
       fill-rule="evenodd"
       id="path207" />
    <text
       fill="#000000"
       fill-opacity="0"
       font-family="Arial, Arial_MSFontService, sans-serif"
       font-size="21.8281px"
       x="391.327"
       y="463.573"
       id="text209">0</text>
    <path
       d="m 449.072,444.473 h 0.859 c -0.063,1 -0.094,2.386 -0.094,4.156 v 13.344 c 0,0.604 0.034,1.06 0.102,1.367 0.067,0.308 0.187,0.558 0.359,0.75 0.172,0.193 0.419,0.344 0.742,0.454 0.323,0.109 0.729,0.192 1.219,0.25 0.49,0.057 1.135,0.096 1.938,0.117 v 1.14 H 442.65 v -1.14 c 1.156,-0.052 1.981,-0.123 2.476,-0.211 0.495,-0.089 0.873,-0.222 1.133,-0.399 0.26,-0.177 0.451,-0.427 0.57,-0.75 0.12,-0.323 0.18,-0.849 0.18,-1.578 v -12.672 c 0,-0.416 -0.073,-0.721 -0.219,-0.914 -0.146,-0.192 -0.359,-0.289 -0.64,-0.289 -0.334,0 -0.808,0.172 -1.422,0.516 -0.615,0.344 -1.375,0.818 -2.281,1.422 l -0.688,-1.203 z"
       fill-rule="evenodd"
       id="path211" />
    <text
       fill="#000000"
       fill-opacity="0"
       font-family="Arial, Arial_MSFontService, sans-serif"
       font-size="21.5781px"
       x="441.759"
       y="463.354"
       id="text213">1</text>
    <text
       font-family="Calibri, Calibri_MSFontService, sans-serif"
       font-weight="400"
       font-size="32px"
       transform="translate(301.845,527)"
       id="text219">Identit<tspan
   font-size="32px"
   x="86.033401"
   y="0"
   id="tspan215">y</tspan><tspan
   font-size="32px"
   x="107.7"
   y="0"
   id="tspan217">matrix</tspan></text>
    <path
       d="m 613.756,165.211 c -6.382,-5.152 -7.379,-14.502 -2.228,-20.883 l 2.79,-3.455 c 5.151,-6.382 14.501,-7.379 20.882,-2.228 l 104.751,84.56 c 6.382,5.152 7.379,14.502 2.227,20.883 l -2.789,3.455 c -5.152,6.382 -14.501,7.379 -20.883,2.228 z"
       fill="#a9d18e"
       fill-rule="evenodd"
       fill-opacity="0.4"
       id="path221" />
    <path
       d="m 629.454,142.583 h 0.86 c -0.063,1 -0.094,2.385 -0.094,4.156 v 13.344 c 0,0.604 0.034,1.06 0.102,1.367 0.067,0.307 0.187,0.557 0.359,0.75 0.172,0.193 0.419,0.344 0.742,0.453 0.323,0.11 0.729,0.193 1.219,0.25 0.489,0.058 1.135,0.097 1.937,0.117 v 1.141 h -11.546 v -1.141 c 1.156,-0.052 1.981,-0.122 2.476,-0.211 0.495,-0.088 0.872,-0.221 1.133,-0.398 0.26,-0.177 0.45,-0.427 0.57,-0.75 0.12,-0.323 0.18,-0.849 0.18,-1.578 v -12.672 c 0,-0.417 -0.073,-0.721 -0.219,-0.914 -0.146,-0.193 -0.359,-0.289 -0.64,-0.289 -0.334,0 -0.808,0.172 -1.422,0.516 -0.615,0.343 -1.375,0.817 -2.282,1.421 l -0.687,-1.203 z"
       fill-rule="evenodd"
       id="path223" />
    <text
       fill="#000000"
       fill-opacity="0"
       font-family="Arial, Arial_MSFontService, sans-serif"
       font-size="21.5781px"
       x="622.14203"
       y="161.464"
       id="text225">1</text>
    <path
       d="m 678.012,142.583 c 1.937,0 3.401,0.424 4.39,1.273 0.99,0.849 1.485,2.081 1.485,3.696 0,0.552 -0.055,1.06 -0.164,1.523 -0.11,0.464 -0.282,0.922 -0.516,1.375 -0.234,0.453 -0.55,0.94 -0.945,1.461 -0.396,0.521 -0.834,1.05 -1.313,1.586 -0.479,0.536 -1.307,1.43 -2.484,2.68 -1.979,2.093 -3.433,3.922 -4.36,5.484 h 5.891 c 0.51,0 0.922,-0.031 1.234,-0.094 0.313,-0.062 0.563,-0.166 0.75,-0.312 0.188,-0.146 0.336,-0.336 0.446,-0.571 0.109,-0.234 0.247,-0.596 0.414,-1.085 h 1.328 l -0.266,4.562 h -12.859 v -0.75 c 0.448,-1.094 1.052,-2.213 1.812,-3.359 0.761,-1.146 1.839,-2.495 3.235,-4.047 1.208,-1.334 2.078,-2.344 2.609,-3.031 0.583,-0.75 1.018,-1.399 1.305,-1.946 0.286,-0.547 0.492,-1.062 0.617,-1.547 0.125,-0.484 0.188,-0.971 0.188,-1.461 0,-0.781 -0.125,-1.471 -0.375,-2.07 -0.25,-0.599 -0.633,-1.07 -1.149,-1.414 -0.516,-0.344 -1.164,-0.516 -1.945,-0.516 -1.948,0 -3.261,1.084 -3.938,3.25 h -1.89 v -3 c 1.26,-0.593 2.44,-1.023 3.539,-1.289 1.099,-0.265 2.086,-0.398 2.961,-0.398 z"
       fill-rule="evenodd"
       id="path227" />
    <text
       fill="#000000"
       fill-opacity="0"
       font-family="Arial, Arial_MSFontService, sans-serif"
       font-size="21.5781px"
       x="671.04303"
       y="161.464"
       id="text229">2</text>
    <path
       d="m 727.616,142.583 c 1.177,0 2.208,0.182 3.094,0.547 0.885,0.364 1.562,0.888 2.031,1.57 0.469,0.682 0.703,1.498 0.703,2.445 0,0.886 -0.177,1.664 -0.531,2.336 -0.354,0.672 -0.852,1.258 -1.492,1.758 -0.641,0.5 -1.472,0.99 -2.493,1.469 v 0.141 c 0.636,0.114 1.248,0.309 1.836,0.585 0.589,0.277 1.112,0.633 1.571,1.071 0.458,0.437 0.825,0.961 1.101,1.57 0.276,0.609 0.414,1.305 0.414,2.086 0,1.208 -0.263,2.281 -0.789,3.219 -0.526,0.937 -1.331,1.677 -2.414,2.219 -1.083,0.541 -2.401,0.812 -3.953,0.812 -0.896,0 -1.862,-0.102 -2.898,-0.305 -1.037,-0.203 -1.987,-0.471 -2.852,-0.804 v -3.313 h 1.875 c 0.365,1.084 0.846,1.87 1.445,2.36 0.599,0.489 1.414,0.734 2.446,0.734 1.354,0 2.377,-0.37 3.07,-1.109 0.693,-0.74 1.039,-1.834 1.039,-3.282 0,-1.521 -0.458,-2.682 -1.375,-3.484 -0.917,-0.802 -2.26,-1.203 -4.031,-1.203 h -1.407 v -1.375 c 1.407,-0.084 2.592,-0.354 3.555,-0.813 0.964,-0.458 1.68,-1.047 2.149,-1.765 0.468,-0.719 0.703,-1.526 0.703,-2.422 0,-1.156 -0.308,-2.047 -0.922,-2.672 -0.615,-0.625 -1.511,-0.938 -2.688,-0.938 -0.979,0 -1.776,0.266 -2.39,0.797 -0.615,0.532 -1.068,1.344 -1.36,2.438 h -1.875 v -2.969 c 1.209,-0.573 2.339,-1 3.391,-1.281 1.052,-0.281 2.068,-0.422 3.047,-0.422 z"
       fill-rule="evenodd"
       id="path231" />
    <text
       fill="#000000"
       fill-opacity="0"
       font-family="Arial, Arial_MSFontService, sans-serif"
       font-size="21.8281px"
       x="720.94397"
       y="161.683"
       id="text233">3</text>
    <path
       d="m 628.345,180.096 c 1.938,0 3.401,0.425 4.391,1.274 0.989,0.849 1.484,2.08 1.484,3.695 0,0.552 -0.055,1.06 -0.164,1.523 -0.109,0.464 -0.281,0.922 -0.516,1.375 -0.234,0.454 -0.549,0.941 -0.945,1.461 -0.396,0.521 -0.833,1.05 -1.312,1.586 -0.48,0.537 -1.308,1.43 -2.485,2.68 -1.979,2.094 -3.432,3.922 -4.359,5.484 h 5.89 c 0.511,0 0.922,-0.031 1.235,-0.093 0.312,-0.063 0.562,-0.167 0.75,-0.313 0.187,-0.146 0.336,-0.336 0.445,-0.57 0.109,-0.235 0.247,-0.597 0.414,-1.086 h 1.328 l -0.265,4.562 h -12.86 v -0.75 c 0.448,-1.093 1.052,-2.213 1.813,-3.359 0.76,-1.146 1.838,-2.495 3.234,-4.047 1.208,-1.333 2.078,-2.344 2.61,-3.031 0.583,-0.75 1.018,-1.399 1.304,-1.945 0.287,-0.547 0.492,-1.063 0.617,-1.547 0.125,-0.485 0.188,-0.972 0.188,-1.461 0,-0.781 -0.125,-1.472 -0.375,-2.071 -0.25,-0.599 -0.633,-1.07 -1.149,-1.414 -0.515,-0.343 -1.164,-0.515 -1.945,-0.515 -1.948,0 -3.26,1.083 -3.937,3.25 h -1.891 v -3 c 1.26,-0.594 2.44,-1.024 3.539,-1.289 1.099,-0.266 2.086,-0.399 2.961,-0.399 z"
       fill-rule="evenodd"
       id="path235" />
    <text
       fill="#000000"
       fill-opacity="0"
       font-family="Arial, Arial_MSFontService, sans-serif"
       font-size="21.5781px"
       x="621.37598"
       y="198.97701"
       id="text237">2</text>
    <path
       d="m 677.887,181.424 c -0.719,0 -1.321,0.214 -1.805,0.641 -0.484,0.427 -0.875,1.042 -1.172,1.844 -0.297,0.802 -0.508,1.778 -0.633,2.929 -0.125,1.151 -0.187,2.451 -0.187,3.899 0,3.396 0.315,5.888 0.945,7.476 0.63,1.589 1.607,2.383 2.93,2.383 1.26,0 2.195,-0.747 2.804,-2.242 0.61,-1.495 0.915,-3.81 0.915,-6.945 0,-2.396 -0.157,-4.336 -0.469,-5.821 -0.313,-1.484 -0.748,-2.549 -1.305,-3.195 -0.557,-0.646 -1.232,-0.969 -2.023,-0.969 z m 0.078,-1.328 c 2.281,0 3.979,0.88 5.094,2.641 1.114,1.76 1.671,4.422 1.671,7.984 0,3.688 -0.596,6.477 -1.789,8.367 -1.192,1.891 -2.935,2.836 -5.226,2.836 -2.25,0 -3.925,-0.885 -5.024,-2.656 -1.099,-1.771 -1.648,-4.458 -1.648,-8.062 0,-1.917 0.169,-3.573 0.508,-4.969 0.338,-1.396 0.812,-2.55 1.422,-3.461 0.609,-0.912 1.341,-1.586 2.195,-2.023 0.854,-0.438 1.786,-0.657 2.797,-0.657 z"
       fill-rule="evenodd"
       id="path239" />
    <text
       fill="#000000"
       fill-opacity="0"
       font-family="Arial, Arial_MSFontService, sans-serif"
       font-size="21.8281px"
       x="671.04303"
       y="199.196"
       id="text241">0</text>
    <path
       d="m 732.053,179.315 h 1.219 l -0.234,3.625 h -8.985 v 6.859 c 0.542,-0.229 1.131,-0.401 1.766,-0.515 0.635,-0.115 1.271,-0.172 1.906,-0.172 1.24,0 2.339,0.252 3.297,0.758 0.958,0.505 1.698,1.224 2.219,2.156 0.521,0.932 0.781,2.013 0.781,3.242 0,1.396 -0.292,2.594 -0.875,3.594 -0.583,1 -1.427,1.76 -2.531,2.281 -1.104,0.521 -2.412,0.781 -3.922,0.781 -1.802,0 -3.688,-0.369 -5.656,-1.109 v -3.312 h 1.89 c 0.313,1.062 0.784,1.843 1.414,2.343 0.631,0.5 1.446,0.75 2.446,0.75 1.385,0 2.432,-0.416 3.14,-1.25 0.709,-0.833 1.063,-2.078 1.063,-3.734 0,-1.104 -0.188,-2.018 -0.563,-2.742 -0.375,-0.724 -0.88,-1.248 -1.515,-1.571 -0.636,-0.323 -1.375,-0.484 -2.219,-0.484 -0.708,0 -1.318,0.044 -1.828,0.133 -0.511,0.088 -1.057,0.226 -1.641,0.414 l -1.25,-0.734 v -10.282 h 8.61 c 0.354,0 0.609,-0.028 0.765,-0.086 0.156,-0.057 0.281,-0.146 0.375,-0.265 0.094,-0.12 0.203,-0.347 0.328,-0.68 z"
       fill-rule="evenodd"
       id="path243" />
    <text
       fill="#000000"
       fill-opacity="0"
       font-family="Arial, Arial_MSFontService, sans-serif"
       font-size="22.6094px"
       x="721.03802"
       y="199.09801"
       id="text245">5</text>
    <path
       d="m 628.283,217.61 c 1.177,0 2.208,0.182 3.093,0.546 0.886,0.365 1.563,0.888 2.032,1.571 0.468,0.682 0.703,1.497 0.703,2.445 0,0.886 -0.177,1.664 -0.532,2.336 -0.354,0.672 -0.851,1.258 -1.492,1.758 -0.64,0.5 -1.471,0.989 -2.492,1.469 v 0.14 c 0.635,0.115 1.247,0.31 1.836,0.586 0.589,0.276 1.112,0.633 1.57,1.07 0.459,0.438 0.826,0.961 1.102,1.571 0.276,0.609 0.414,1.304 0.414,2.086 0,1.208 -0.263,2.281 -0.789,3.218 -0.526,0.938 -1.331,1.678 -2.414,2.219 -1.084,0.542 -2.401,0.813 -3.953,0.813 -0.896,0 -1.862,-0.102 -2.899,-0.305 -1.036,-0.203 -1.987,-0.471 -2.851,-0.805 v -3.312 h 1.875 c 0.364,1.083 0.846,1.87 1.445,2.359 0.599,0.49 1.414,0.735 2.445,0.735 1.354,0 2.378,-0.37 3.071,-1.11 0.692,-0.739 1.039,-1.833 1.039,-3.281 0,-1.521 -0.459,-2.682 -1.375,-3.484 -0.917,-0.802 -2.261,-1.204 -4.032,-1.204 h -1.406 v -1.375 c 1.406,-0.083 2.591,-0.354 3.555,-0.812 0.963,-0.458 1.68,-1.047 2.148,-1.766 0.469,-0.718 0.703,-1.526 0.703,-2.422 0,-1.156 -0.307,-2.046 -0.921,-2.671 -0.615,-0.625 -1.511,-0.938 -2.688,-0.938 -0.979,0 -1.776,0.266 -2.391,0.797 -0.614,0.531 -1.067,1.344 -1.359,2.437 h -1.875 v -2.968 c 1.208,-0.573 2.339,-1 3.391,-1.282 1.052,-0.281 2.067,-0.421 3.047,-0.421 z"
       fill-rule="evenodd"
       id="path247" />
    <text
       fill="#000000"
       fill-opacity="0"
       font-family="Arial, Arial_MSFontService, sans-serif"
       font-size="21.8281px"
       x="621.61102"
       y="236.709"
       id="text249">3</text>
    <path
       d="m 682.387,216.828 h 1.218 l -0.234,3.625 h -8.984 v 6.86 c 0.541,-0.229 1.13,-0.401 1.765,-0.516 0.636,-0.114 1.271,-0.172 1.907,-0.172 1.239,0 2.338,0.253 3.296,0.758 0.959,0.505 1.698,1.224 2.219,2.156 0.521,0.933 0.781,2.013 0.781,3.242 0,1.396 -0.291,2.594 -0.875,3.594 -0.583,1 -1.427,1.761 -2.531,2.281 -1.104,0.521 -2.411,0.782 -3.922,0.782 -1.802,0 -3.687,-0.37 -5.656,-1.11 v -3.312 h 1.891 c 0.312,1.062 0.784,1.844 1.414,2.344 0.63,0.5 1.445,0.75 2.445,0.75 1.385,0 2.432,-0.417 3.141,-1.25 0.708,-0.834 1.062,-2.079 1.062,-3.735 0,-1.104 -0.187,-2.018 -0.562,-2.742 -0.375,-0.724 -0.881,-1.247 -1.516,-1.57 -0.635,-0.323 -1.375,-0.485 -2.219,-0.485 -0.708,0 -1.317,0.045 -1.828,0.133 -0.51,0.089 -1.057,0.227 -1.64,0.414 l -1.25,-0.734 V 217.86 h 8.609 c 0.354,0 0.609,-0.029 0.766,-0.086 0.156,-0.058 0.281,-0.146 0.375,-0.266 0.093,-0.12 0.203,-0.346 0.328,-0.68 z"
       fill-rule="evenodd"
       id="path251" />
    <text
       fill="#000000"
       fill-opacity="0"
       font-family="Arial, Arial_MSFontService, sans-serif"
       font-size="22.6094px"
       x="671.37097"
       y="236.612"
       id="text253">5</text>
    <path
       d="m 728.272,227.938 c -0.51,0 -1.003,0.057 -1.476,0.172 -0.474,0.114 -0.92,0.281 -1.336,0.5 -0.417,0.218 -0.823,0.494 -1.219,0.828 -0.125,0.114 -0.219,0.234 -0.281,0.359 -0.105,0.198 -0.172,0.443 -0.204,0.734 -0.031,0.292 -0.046,0.782 -0.046,1.469 0,1.99 0.333,3.505 1,4.547 0.666,1.042 1.677,1.563 3.031,1.563 0.781,0 1.437,-0.136 1.969,-0.407 0.531,-0.27 0.961,-0.643 1.289,-1.117 0.328,-0.474 0.562,-1.031 0.703,-1.672 0.14,-0.64 0.211,-1.336 0.211,-2.086 0,-1.541 -0.318,-2.742 -0.953,-3.601 -0.636,-0.86 -1.532,-1.289 -2.688,-1.289 z m 4.016,-10.328 0.64,0.859 v 0.766 c -1.604,0 -3.026,0.343 -4.265,1.031 -1.24,0.687 -2.269,1.698 -3.086,3.031 -0.818,1.333 -1.393,2.917 -1.727,4.75 l 0.156,0.063 c 0.875,-0.625 1.737,-1.084 2.586,-1.375 0.849,-0.292 1.769,-0.438 2.758,-0.438 1.177,0 2.18,0.258 3.008,0.774 0.828,0.515 1.451,1.239 1.867,2.171 0.417,0.933 0.625,2.024 0.625,3.274 0,1.354 -0.26,2.549 -0.781,3.586 -0.521,1.036 -1.326,1.851 -2.414,2.445 -1.089,0.594 -2.43,0.891 -4.024,0.891 -2.281,0 -4.002,-0.709 -5.164,-2.125 -1.161,-1.417 -1.742,-3.505 -1.742,-6.266 0,-1.854 0.292,-3.588 0.875,-5.203 0.584,-1.615 1.412,-3.023 2.485,-4.227 1.073,-1.203 2.317,-2.151 3.734,-2.843 1.417,-0.693 2.906,-1.081 4.469,-1.164 z"
       fill-rule="evenodd"
       id="path255" />
    <text
       fill="#000000"
       fill-opacity="0"
       font-family="Arial, Arial_MSFontService, sans-serif"
       font-size="21.8281px"
       x="720.72498"
       y="236.709"
       id="text257">6</text>
  </g>
</svg>
