<?xml version="1.0" encoding="UTF-8" standalone="no"?>
<svg
   width="1280"
   height="460"
   overflow="hidden"
   version="1.1"
   id="svg241"
   sodipodi:docname="linear_systems-echelon_forms.svg"
   inkscape:version="1.2 (dc2aedaf03, 2022-05-15)"
   xmlns:inkscape="http://www.inkscape.org/namespaces/inkscape"
   xmlns:sodipodi="http://sodipodi.sourceforge.net/DTD/sodipodi-0.dtd"
   xmlns="http://www.w3.org/2000/svg"
   xmlns:svg="http://www.w3.org/2000/svg">
  <sodipodi:namedview
     id="namedview243"
     pagecolor="#ffffff"
     bordercolor="#000000"
     borderopacity="0.25"
     inkscape:showpageshadow="2"
     inkscape:pageopacity="0.0"
     inkscape:pagecheckerboard="0"
     inkscape:deskcolor="#d1d1d1"
     showgrid="false"
     inkscape:zoom="0.92709556"
     inkscape:cx="498.86983"
     inkscape:cy="364.57946"
     inkscape:window-width="2560"
     inkscape:window-height="1494"
     inkscape:window-x="-11"
     inkscape:window-y="-11"
     inkscape:window-maximized="1"
     inkscape:current-layer="svg241" />
  <defs
     id="defs5">
    <clipPath
       id="clip0">
      <rect
         x="0"
         y="0"
         width="1280"
         height="720"
         id="rect2" />
    </clipPath>
  </defs>
  <g
     clip-path="url(#clip0)"
     id="g239"
     transform="translate(28.044574,-97.077372)">
    <rect
       x="0"
       y="0"
       width="1280"
       height="720"
       fill="#ffffff"
       id="rect7" />
    <path
       d="M 829,239.552 C 829,229.306 837.306,221 847.552,221 h 196.898 c 10.24,0 18.55,8.306 18.55,18.552 v 106.896 c 0,10.246 -8.31,18.552 -18.55,18.552 H 847.552 C 837.306,365 829,356.694 829,346.448 Z"
       fill="#e2f0d9"
       fill-rule="evenodd"
       id="path9" />
    <path
       d="M 492,239.551 C 492,229.306 500.306,221 510.551,221 H 735.449 C 745.694,221 754,229.306 754,239.551 V 346.449 C 754,356.694 745.694,365 735.449,365 H 510.551 C 500.306,365 492,356.694 492,346.449 Z"
       fill="#e2f0d9"
       fill-rule="evenodd"
       id="path11" />
    <path
       d="M 152,239.552 C 152,229.306 160.306,221 170.552,221 H 390.448 C 400.694,221 409,229.306 409,239.552 V 346.448 C 409,356.694 400.694,365 390.448,365 H 170.552 C 160.306,365 152,356.694 152,346.448 Z"
       fill="#e2f0d9"
       fill-rule="evenodd"
       id="path13" />
    <path
       d="M 685,221 V 364.638"
       stroke="#385723"
       stroke-width="4"
       stroke-miterlimit="8"
       fill="none"
       fill-rule="evenodd"
       id="path15" />
    <path
       d="M 341,221 V 364.638"
       stroke="#385723"
       stroke-width="4"
       stroke-miterlimit="8"
       fill="none"
       fill-rule="evenodd"
       id="path17" />
    <text
       font-family="Calibri, Calibri_MSFontService, sans-serif"
       font-weight="400"
       font-size="43px"
       transform="translate(266.881,191)"
       id="text25">M<tspan
   font-size="28px"
   x="36.5"
   y="10"
   id="tspan19">1</tspan><tspan
   font-size="43px"
   x="341.13901"
   y="1"
   id="tspan21">M</tspan><tspan
   font-size="28px"
   x="377.63901"
   y="11"
   id="tspan23">2</tspan></text>
    <path
       d="M 995,221 V 364.638"
       stroke="#385723"
       stroke-width="4"
       stroke-miterlimit="8"
       fill="none"
       fill-rule="evenodd"
       id="path27" />
    <text
       font-family="Calibri, Calibri_MSFontService, sans-serif"
       font-weight="400"
       font-size="43px"
       transform="translate(930.26,191)"
       id="text37">M<tspan
   font-size="28px"
   x="36.5"
   y="10"
   id="tspan29">3</tspan><tspan
   font-size="32px"
   x="-386.49899"
   y="232"
   id="tspan31">Echelon form</tspan><tspan
   font-size="32px"
   x="-121.902"
   y="232"
   id="tspan33">Reduced echelon form</tspan><tspan
   font-size="32px"
   x="-832.53302"
   y="232"
   id="tspan35">Original augmented matrix</tspan></text>
    <path
       d="m 514,256.5 c 0,-11.322 9.626,-20.5 21.5,-20.5 11.874,0 21.5,9.178 21.5,20.5 0,11.322 -9.626,20.5 -21.5,20.5 -11.874,0 -21.5,-9.178 -21.5,-20.5 z"
       fill="#bdd7ee"
       fill-rule="evenodd"
       fill-opacity="0.501961"
       id="path39" />
    <path
       d="m 569,292.5 c 0,-11.322 9.626,-20.5 21.5,-20.5 11.874,0 21.5,9.178 21.5,20.5 0,11.322 -9.626,20.5 -21.5,20.5 -11.874,0 -21.5,-9.178 -21.5,-20.5 z"
       fill="#bdd7ee"
       fill-rule="evenodd"
       fill-opacity="0.501961"
       id="path41" />
    <path
       d="m 628,331.5 c 0,-11.322 9.626,-20.5 21.5,-20.5 11.874,0 21.5,9.178 21.5,20.5 0,11.322 -9.626,20.5 -21.5,20.5 -11.874,0 -21.5,-9.178 -21.5,-20.5 z"
       fill="#bdd7ee"
       fill-rule="evenodd"
       fill-opacity="0.501961"
       id="path43" />
    <path
       d="m 846,251.5 c 0,-11.322 9.626,-20.5 21.5,-20.5 11.874,0 21.5,9.178 21.5,20.5 0,11.322 -9.626,20.5 -21.5,20.5 -11.874,0 -21.5,-9.178 -21.5,-20.5 z"
       fill="#bdd7ee"
       fill-rule="evenodd"
       fill-opacity="0.501961"
       id="path45" />
    <path
       d="m 895,297.5 c 0,-11.322 9.626,-20.5 21.5,-20.5 11.874,0 21.5,9.178 21.5,20.5 0,11.322 -9.626,20.5 -21.5,20.5 -11.874,0 -21.5,-9.178 -21.5,-20.5 z"
       fill="#bdd7ee"
       fill-rule="evenodd"
       fill-opacity="0.501961"
       id="path47" />
    <path
       d="m 945,338.5 c 0,-11.322 9.626,-20.5 21.5,-20.5 11.874,0 21.5,9.178 21.5,20.5 0,11.322 -9.626,20.5 -21.5,20.5 -11.874,0 -21.5,-9.178 -21.5,-20.5 z"
       fill="#bdd7ee"
       fill-rule="evenodd"
       fill-opacity="0.501961"
       id="path49" />
    <path
       d="m 695,498.5 c 0,-11.322 9.626,-20.5 21.5,-20.5 11.874,0 21.5,9.178 21.5,20.5 0,11.322 -9.626,20.5 -21.5,20.5 -11.874,0 -21.5,-9.178 -21.5,-20.5 z"
       fill="#bdd7ee"
       fill-rule="evenodd"
       fill-opacity="0.501961"
       id="path51" />
    <text
       font-family="Calibri, Calibri_MSFontService, sans-serif"
       font-weight="400"
       font-size="27px"
       transform="translate(748.088,508)"
       id="text53">Leading entries or pivot columns</text>
    <path
       d="m 185.506,246.493 c -0.718,0 -1.32,0.214 -1.804,0.641 -0.485,0.427 -0.875,1.041 -1.172,1.844 -0.297,0.802 -0.508,1.778 -0.633,2.929 -0.125,1.151 -0.188,2.451 -0.188,3.899 0,3.396 0.316,5.888 0.946,7.476 0.63,1.589 1.607,2.383 2.929,2.383 1.261,0 2.196,-0.747 2.805,-2.242 0.609,-1.495 0.914,-3.81 0.914,-6.945 0,-2.396 -0.156,-4.336 -0.469,-5.821 -0.312,-1.484 -0.747,-2.549 -1.304,-3.195 -0.558,-0.646 -1.232,-0.969 -2.024,-0.969 z m 0.078,-1.328 c 2.282,0 3.98,0.88 5.094,2.641 1.115,1.76 1.672,4.422 1.672,7.984 0,3.688 -0.596,6.477 -1.789,8.367 -1.193,1.891 -2.935,2.836 -5.227,2.836 -2.25,0 -3.924,-0.885 -5.023,-2.656 -1.099,-1.771 -1.648,-4.458 -1.648,-8.063 0,-1.916 0.169,-3.573 0.507,-4.968 0.339,-1.396 0.813,-2.55 1.422,-3.461 0.61,-0.912 1.341,-1.586 2.196,-2.024 0.854,-0.437 1.786,-0.656 2.796,-0.656 z"
       fill-rule="evenodd"
       id="path55" />
    <text
       fill="#000000"
       fill-opacity="0"
       font-family="Arial, Arial_MSFontService, sans-serif"
       font-size="21.8281px"
       x="178.66299"
       y="264.26501"
       id="text57">0</text>
    <path
       d="m 228.095,256.649 h 12.312 c 0.188,0 0.331,0.089 0.43,0.266 0.099,0.177 0.148,0.458 0.148,0.844 0,0.385 -0.049,0.666 -0.148,0.844 -0.099,0.177 -0.242,0.265 -0.43,0.265 h -12.312 c -0.198,0 -0.347,-0.088 -0.445,-0.265 -0.099,-0.178 -0.149,-0.459 -0.149,-0.844 0,-0.375 0.05,-0.654 0.149,-0.836 0.098,-0.182 0.247,-0.274 0.445,-0.274 z"
       fill-rule="evenodd"
       id="path59" />
    <text
       fill="#000000"
       fill-opacity="0"
       font-family="Arial, Arial_MSFontService, sans-serif"
       font-size="2.21875px"
       x="227.50101"
       y="258.591"
       id="text61">−</text>
    <path
       d="m 251.298,245.165 c 1.937,0 3.401,0.425 4.391,1.273 0.989,0.849 1.484,2.081 1.484,3.696 0,0.552 -0.055,1.06 -0.164,1.523 -0.109,0.464 -0.281,0.922 -0.516,1.375 -0.234,0.453 -0.549,0.94 -0.945,1.461 -0.396,0.521 -0.833,1.05 -1.313,1.586 -0.479,0.537 -1.307,1.43 -2.484,2.68 -1.979,2.094 -3.432,3.922 -4.359,5.484 h 5.89 c 0.511,0 0.922,-0.031 1.235,-0.094 0.312,-0.062 0.562,-0.166 0.75,-0.312 0.187,-0.146 0.336,-0.336 0.445,-0.57 0.109,-0.235 0.247,-0.597 0.414,-1.086 h 1.328 l -0.265,4.562 h -12.86 v -0.75 c 0.448,-1.094 1.052,-2.213 1.813,-3.359 0.76,-1.146 1.838,-2.495 3.234,-4.047 1.208,-1.333 2.078,-2.344 2.609,-3.031 0.584,-0.75 1.019,-1.399 1.305,-1.946 0.287,-0.547 0.492,-1.062 0.617,-1.547 0.125,-0.484 0.188,-0.971 0.188,-1.46 0,-0.782 -0.125,-1.472 -0.375,-2.071 -0.25,-0.599 -0.633,-1.07 -1.149,-1.414 -0.515,-0.344 -1.164,-0.515 -1.945,-0.515 -1.948,0 -3.26,1.083 -3.937,3.25 h -1.891 v -3 c 1.26,-0.594 2.44,-1.024 3.539,-1.29 1.099,-0.265 2.086,-0.398 2.961,-0.398 z"
       fill-rule="evenodd"
       id="path63" />
    <text
       fill="#000000"
       fill-opacity="0"
       font-family="Arial, Arial_MSFontService, sans-serif"
       font-size="21.5781px"
       x="244.32899"
       y="264.04599"
       id="text65">2</text>
    <path
       d="m 308.84,246.493 c -0.719,0 -1.321,0.214 -1.805,0.641 -0.484,0.427 -0.875,1.041 -1.172,1.844 -0.297,0.802 -0.508,1.778 -0.633,2.929 -0.125,1.151 -0.187,2.451 -0.187,3.899 0,3.396 0.315,5.888 0.945,7.476 0.63,1.589 1.607,2.383 2.93,2.383 1.26,0 2.195,-0.747 2.804,-2.242 0.61,-1.495 0.915,-3.81 0.915,-6.945 0,-2.396 -0.157,-4.336 -0.469,-5.821 -0.313,-1.484 -0.748,-2.549 -1.305,-3.195 -0.557,-0.646 -1.232,-0.969 -2.023,-0.969 z m 0.078,-1.328 c 2.281,0 3.979,0.88 5.094,2.641 1.114,1.76 1.671,4.422 1.671,7.984 0,3.688 -0.596,6.477 -1.789,8.367 -1.192,1.891 -2.935,2.836 -5.226,2.836 -2.25,0 -3.925,-0.885 -5.024,-2.656 -1.099,-1.771 -1.648,-4.458 -1.648,-8.063 0,-1.916 0.169,-3.573 0.508,-4.968 0.338,-1.396 0.812,-2.55 1.422,-3.461 0.609,-0.912 1.341,-1.586 2.195,-2.024 0.854,-0.437 1.786,-0.656 2.797,-0.656 z"
       fill-rule="evenodd"
       id="path67" />
    <text
       fill="#000000"
       fill-opacity="0"
       font-family="Arial, Arial_MSFontService, sans-serif"
       font-size="21.8281px"
       x="301.996"
       y="264.26501"
       id="text69">0</text>
    <path
       d="m 383.42,244.384 h 1.218 l -0.234,3.625 h -8.984 v 6.859 c 0.541,-0.229 1.13,-0.401 1.765,-0.515 0.636,-0.115 1.271,-0.172 1.907,-0.172 1.239,0 2.338,0.252 3.296,0.757 0.959,0.506 1.698,1.224 2.219,2.157 0.521,0.932 0.781,2.013 0.781,3.242 0,1.396 -0.291,2.594 -0.875,3.594 -0.583,1 -1.427,1.76 -2.531,2.281 -1.104,0.521 -2.411,0.781 -3.922,0.781 -1.802,0 -3.687,-0.37 -5.656,-1.109 v -3.313 h 1.891 c 0.312,1.063 0.783,1.844 1.414,2.344 0.63,0.5 1.445,0.75 2.445,0.75 1.385,0 2.432,-0.417 3.141,-1.25 0.708,-0.833 1.062,-2.078 1.062,-3.734 0,-1.104 -0.187,-2.019 -0.562,-2.743 -0.375,-0.723 -0.881,-1.247 -1.516,-1.57 -0.635,-0.323 -1.375,-0.484 -2.219,-0.484 -0.708,0 -1.317,0.044 -1.828,0.133 -0.51,0.088 -1.057,0.226 -1.64,0.414 l -1.25,-0.735 v -10.281 h 8.609 c 0.354,0 0.609,-0.029 0.766,-0.086 0.156,-0.057 0.281,-0.146 0.375,-0.266 0.093,-0.119 0.203,-0.346 0.328,-0.679 z"
       fill-rule="evenodd"
       id="path71" />
    <text
       fill="#000000"
       fill-opacity="0"
       font-family="Arial, Arial_MSFontService, sans-serif"
       font-size="22.6094px"
       x="372.40399"
       y="264.16699"
       id="text73">5</text>
    <path
       d="m 186.741,282.678 h 0.859 c -0.062,1 -0.094,2.386 -0.094,4.157 v 13.343 c 0,0.605 0.034,1.06 0.102,1.368 0.068,0.307 0.187,0.557 0.359,0.75 0.172,0.192 0.42,0.343 0.742,0.453 0.323,0.109 0.73,0.192 1.219,0.25 0.49,0.057 1.136,0.096 1.938,0.117 v 1.14 h -11.547 v -1.14 c 1.156,-0.052 1.982,-0.123 2.476,-0.211 0.495,-0.089 0.873,-0.221 1.133,-0.399 0.261,-0.177 0.451,-0.427 0.57,-0.75 0.12,-0.322 0.18,-0.848 0.18,-1.578 v -12.672 c 0,-0.416 -0.073,-0.721 -0.219,-0.914 -0.145,-0.192 -0.359,-0.289 -0.64,-0.289 -0.334,0 -0.807,0.172 -1.422,0.516 -0.615,0.344 -1.375,0.818 -2.281,1.422 l -0.688,-1.203 z"
       fill-rule="evenodd"
       id="path75" />
    <text
       fill="#000000"
       fill-opacity="0"
       font-family="Arial, Arial_MSFontService, sans-serif"
       font-size="21.5781px"
       x="179.42799"
       y="301.55899"
       id="text77">1</text>
    <path
       d="m 243.235,282.678 c 1.178,0 2.209,0.183 3.094,0.547 0.886,0.365 1.563,0.888 2.031,1.571 0.469,0.682 0.704,1.497 0.704,2.445 0,0.885 -0.177,1.664 -0.532,2.336 -0.354,0.672 -0.851,1.258 -1.492,1.758 -0.64,0.5 -1.471,0.989 -2.492,1.468 v 0.141 c 0.635,0.115 1.247,0.31 1.836,0.586 0.588,0.276 1.112,0.633 1.57,1.07 0.459,0.438 0.826,0.961 1.102,1.571 0.276,0.609 0.414,1.304 0.414,2.085 0,1.209 -0.263,2.282 -0.789,3.219 -0.526,0.938 -1.331,1.677 -2.414,2.219 -1.084,0.542 -2.401,0.812 -3.953,0.812 -0.896,0 -1.862,-0.101 -2.899,-0.304 -1.036,-0.203 -1.987,-0.472 -2.851,-0.805 v -3.312 h 1.875 c 0.364,1.083 0.846,1.869 1.445,2.359 0.599,0.49 1.414,0.734 2.445,0.734 1.354,0 2.378,-0.369 3.071,-1.109 0.692,-0.74 1.039,-1.833 1.039,-3.281 0,-1.521 -0.459,-2.683 -1.375,-3.485 -0.917,-0.802 -2.261,-1.203 -4.032,-1.203 h -1.406 v -1.375 c 1.406,-0.083 2.591,-0.354 3.555,-0.812 0.963,-0.459 1.679,-1.047 2.148,-1.766 0.469,-0.719 0.703,-1.526 0.703,-2.422 0,-1.156 -0.307,-2.047 -0.922,-2.672 -0.614,-0.625 -1.51,-0.937 -2.687,-0.937 -0.979,0 -1.776,0.265 -2.391,0.797 -0.614,0.531 -1.067,1.343 -1.359,2.437 h -1.875 v -2.969 c 1.208,-0.572 2.339,-1 3.391,-1.281 1.052,-0.281 2.067,-0.422 3.046,-0.422 z"
       fill-rule="evenodd"
       id="path79" />
    <text
       fill="#000000"
       fill-opacity="0"
       font-family="Arial, Arial_MSFontService, sans-serif"
       font-size="21.8281px"
       x="236.564"
       y="301.77802"
       id="text81">3</text>
    <path
       d="m 293.762,294.163 h 12.312 c 0.188,0 0.331,0.088 0.43,0.265 0.099,0.177 0.148,0.459 0.148,0.844 0,0.386 -0.049,0.667 -0.148,0.844 -0.099,0.177 -0.242,0.265 -0.43,0.265 h -12.312 c -0.198,0 -0.347,-0.088 -0.446,-0.265 -0.099,-0.177 -0.148,-0.458 -0.148,-0.844 0,-0.375 0.049,-0.654 0.148,-0.836 0.099,-0.182 0.248,-0.273 0.446,-0.273 z"
       fill-rule="evenodd"
       id="path83" />
    <text
       fill="#000000"
       fill-opacity="0"
       font-family="Arial, Arial_MSFontService, sans-serif"
       font-size="2.21875px"
       x="293.168"
       y="296.104"
       id="text85">−</text>
    <path
       d="m 316.84,293.85 c -0.771,0 -1.42,0.12 -1.946,0.36 -0.526,0.239 -0.953,0.562 -1.281,0.968 -0.328,0.407 -0.562,0.883 -0.703,1.43 -0.141,0.547 -0.211,1.133 -0.211,1.758 0,0.677 0.078,1.31 0.234,1.898 0.157,0.589 0.404,1.097 0.743,1.524 0.338,0.427 0.773,0.765 1.304,1.015 0.532,0.25 1.177,0.375 1.938,0.375 0.854,0 1.586,-0.174 2.195,-0.523 0.609,-0.349 1.073,-0.867 1.391,-1.555 0.317,-0.687 0.476,-1.5 0.476,-2.437 0,-1 -0.172,-1.862 -0.515,-2.586 -0.344,-0.724 -0.828,-1.276 -1.453,-1.656 -0.625,-0.381 -1.349,-0.571 -2.172,-0.571 z m 0.078,-9.844 c -1.313,0 -2.315,0.357 -3.008,1.071 -0.693,0.713 -1.039,1.726 -1.039,3.039 0,0.614 0.073,1.193 0.219,1.734 0.145,0.542 0.38,1.011 0.703,1.406 0.323,0.396 0.742,0.711 1.258,0.946 0.515,0.234 1.148,0.351 1.898,0.351 0.865,0 1.591,-0.169 2.18,-0.507 0.588,-0.339 1.026,-0.834 1.312,-1.485 0.287,-0.651 0.43,-1.403 0.43,-2.258 0,-0.937 -0.169,-1.731 -0.508,-2.382 -0.338,-0.651 -0.805,-1.133 -1.398,-1.446 -0.594,-0.312 -1.276,-0.469 -2.047,-0.469 z m 0.031,-1.328 c 1.5,0 2.76,0.211 3.781,0.633 1.021,0.422 1.789,1.031 2.305,1.828 0.516,0.797 0.773,1.753 0.773,2.867 0,1.146 -0.281,2.133 -0.843,2.961 -0.563,0.829 -1.433,1.503 -2.61,2.024 l 0.032,0.203 c 1.177,0.458 2.067,1.128 2.671,2.008 0.605,0.88 0.907,1.94 0.907,3.179 0,1.219 -0.292,2.292 -0.875,3.219 -0.584,0.927 -1.43,1.643 -2.539,2.149 -1.11,0.505 -2.404,0.757 -3.883,0.757 -1.386,0 -2.602,-0.231 -3.649,-0.695 -1.047,-0.463 -1.859,-1.14 -2.437,-2.031 -0.578,-0.891 -0.867,-1.94 -0.867,-3.149 0,-0.906 0.156,-1.692 0.468,-2.359 0.313,-0.667 0.722,-1.216 1.227,-1.648 0.505,-0.433 1.143,-0.826 1.914,-1.18 l -0.031,-0.203 c -2.24,-0.969 -3.36,-2.63 -3.36,-4.985 0,-1.072 0.295,-2.031 0.883,-2.875 0.589,-0.843 1.427,-1.505 2.516,-1.984 1.088,-0.479 2.294,-0.719 3.617,-0.719 z"
       fill-rule="evenodd"
       id="path87" />
    <text
       fill="#000000"
       fill-opacity="0"
       font-family="Arial, Arial_MSFontService, sans-serif"
       font-size="21.8281px"
       x="309.715"
       y="301.77802"
       id="text89">8</text>
    <path
       d="m 363.842,294.163 h 12.312 c 0.188,0 0.331,0.088 0.43,0.265 0.099,0.177 0.148,0.459 0.148,0.844 0,0.386 -0.049,0.667 -0.148,0.844 -0.099,0.177 -0.242,0.265 -0.43,0.265 h -12.312 c -0.198,0 -0.347,-0.088 -0.446,-0.265 -0.099,-0.177 -0.148,-0.458 -0.148,-0.844 0,-0.375 0.049,-0.654 0.148,-0.836 0.099,-0.182 0.248,-0.273 0.446,-0.273 z"
       fill-rule="evenodd"
       id="path91" />
    <text
       fill="#000000"
       fill-opacity="0"
       font-family="Arial, Arial_MSFontService, sans-serif"
       font-size="2.21875px"
       x="363.24799"
       y="296.104"
       id="text93">−</text>
    <path
       d="m 387.045,282.678 c 1.937,0 3.401,0.425 4.39,1.274 0.99,0.849 1.485,2.081 1.485,3.695 0,0.552 -0.055,1.06 -0.164,1.524 -0.11,0.463 -0.282,0.921 -0.516,1.375 -0.234,0.453 -0.55,0.94 -0.945,1.46 -0.396,0.521 -0.834,1.05 -1.313,1.586 -0.479,0.537 -1.307,1.43 -2.484,2.68 -1.979,2.094 -3.433,3.922 -4.36,5.484 h 5.891 c 0.51,0 0.922,-0.031 1.234,-0.093 0.313,-0.063 0.563,-0.167 0.75,-0.313 0.188,-0.146 0.336,-0.336 0.446,-0.57 0.109,-0.234 0.247,-0.596 0.414,-1.086 h 1.328 l -0.266,4.562 h -12.859 v -0.75 c 0.448,-1.093 1.052,-2.213 1.812,-3.359 0.761,-1.146 1.839,-2.495 3.235,-4.047 1.208,-1.333 2.078,-2.344 2.609,-3.031 0.583,-0.75 1.018,-1.398 1.305,-1.945 0.286,-0.547 0.492,-1.063 0.617,-1.547 0.125,-0.485 0.188,-0.972 0.188,-1.461 0,-0.781 -0.125,-1.471 -0.375,-2.07 -0.25,-0.599 -0.633,-1.071 -1.149,-1.415 -0.516,-0.343 -1.164,-0.515 -1.945,-0.515 -1.948,0 -3.261,1.083 -3.938,3.25 h -1.89 v -3 c 1.26,-0.594 2.44,-1.024 3.539,-1.289 1.099,-0.266 2.086,-0.399 2.961,-0.399 z"
       fill-rule="evenodd"
       id="path95" />
    <text
       fill="#000000"
       fill-opacity="0"
       font-family="Arial, Arial_MSFontService, sans-serif"
       font-size="21.5781px"
       x="380.07599"
       y="301.55899"
       id="text97">2</text>
    <path
       d="m 185.506,321.52 c -0.718,0 -1.32,0.213 -1.804,0.64 -0.485,0.428 -0.875,1.042 -1.172,1.844 -0.297,0.802 -0.508,1.779 -0.633,2.93 -0.125,1.151 -0.188,2.45 -0.188,3.898 0,3.396 0.316,5.888 0.946,7.477 0.63,1.588 1.607,2.383 2.929,2.383 1.261,0 2.196,-0.748 2.805,-2.243 0.609,-1.494 0.914,-3.809 0.914,-6.945 0,-2.396 -0.156,-4.336 -0.469,-5.82 -0.312,-1.485 -0.747,-2.55 -1.304,-3.195 -0.558,-0.646 -1.232,-0.969 -2.024,-0.969 z m 0.078,-1.328 c 2.282,0 3.98,0.88 5.094,2.64 1.115,1.761 1.672,4.422 1.672,7.985 0,3.687 -0.596,6.476 -1.789,8.367 -1.193,1.89 -2.935,2.836 -5.227,2.836 -2.25,0 -3.924,-0.886 -5.023,-2.656 -1.099,-1.771 -1.648,-4.459 -1.648,-8.063 0,-1.917 0.169,-3.573 0.507,-4.969 0.339,-1.396 0.813,-2.549 1.422,-3.461 0.61,-0.911 1.341,-1.586 2.196,-2.023 0.854,-0.438 1.786,-0.656 2.796,-0.656 z"
       fill-rule="evenodd"
       id="path99" />
    <text
       fill="#000000"
       fill-opacity="0"
       font-family="Arial, Arial_MSFontService, sans-serif"
       font-size="21.8281px"
       x="178.66299"
       y="339.29099"
       id="text101">0</text>
    <path
       d="m 239.586,321.52 c -0.718,0 -1.32,0.213 -1.804,0.64 -0.485,0.428 -0.875,1.042 -1.172,1.844 -0.297,0.802 -0.508,1.779 -0.633,2.93 -0.125,1.151 -0.188,2.45 -0.188,3.898 0,3.396 0.316,5.888 0.946,7.477 0.63,1.588 1.607,2.383 2.929,2.383 1.261,0 2.196,-0.748 2.805,-2.243 0.609,-1.494 0.914,-3.809 0.914,-6.945 0,-2.396 -0.156,-4.336 -0.469,-5.82 -0.312,-1.485 -0.747,-2.55 -1.304,-3.195 -0.558,-0.646 -1.232,-0.969 -2.024,-0.969 z m 0.078,-1.328 c 2.282,0 3.98,0.88 5.094,2.64 1.115,1.761 1.672,4.422 1.672,7.985 0,3.687 -0.596,6.476 -1.789,8.367 -1.193,1.89 -2.935,2.836 -5.227,2.836 -2.25,0 -3.924,-0.886 -5.023,-2.656 -1.099,-1.771 -1.648,-4.459 -1.648,-8.063 0,-1.917 0.169,-3.573 0.507,-4.969 0.339,-1.396 0.813,-2.549 1.422,-3.461 0.61,-0.911 1.341,-1.586 2.196,-2.023 0.854,-0.438 1.786,-0.656 2.796,-0.656 z"
       fill-rule="evenodd"
       id="path103" />
    <text
       fill="#000000"
       fill-opacity="0"
       font-family="Arial, Arial_MSFontService, sans-serif"
       font-size="21.8281px"
       x="232.743"
       y="339.29099"
       id="text105">0</text>
    <path
       d="m 302.605,320.442 h 13.407 v 0.75 l -9.094,20.687 h -2.266 v -0.765 l 8.422,-17.829 v -0.234 h -6.875 c -0.427,0 -0.768,0.039 -1.023,0.117 -0.256,0.078 -0.469,0.19 -0.641,0.336 -0.172,0.146 -0.315,0.339 -0.43,0.578 -0.114,0.24 -0.271,0.714 -0.468,1.422 h -1.344 z"
       fill-rule="evenodd"
       id="path107" />
    <text
       fill="#000000"
       fill-opacity="0"
       font-family="Arial, Arial_MSFontService, sans-serif"
       font-size="21.4375px"
       x="302.293"
       y="339.19901"
       id="text109">7</text>
    <path
       d="m 385.538,323.864 -6.11,9.703 v 0.218 h 6.11 v -3.89 c 0,-0.979 0.015,-2.076 0.046,-3.289 0.032,-1.214 0.068,-2.128 0.11,-2.742 z m 0.453,-3.532 h 2.234 v 13.453 h 0.328 c 0.604,0 1.037,-0.044 1.297,-0.132 0.26,-0.089 0.477,-0.245 0.649,-0.469 0.171,-0.224 0.33,-0.591 0.476,-1.102 h 1.188 l -0.188,3.219 h -3.75 v 2.563 c 0,0.697 0.024,1.208 0.07,1.531 0.047,0.323 0.125,0.578 0.235,0.765 0.109,0.188 0.271,0.344 0.484,0.469 0.214,0.125 0.56,0.25 1.039,0.375 v 0.766 h -6.344 v -0.766 c 0.646,-0.166 1.079,-0.351 1.297,-0.555 0.219,-0.203 0.362,-0.492 0.43,-0.867 0.068,-0.375 0.102,-0.948 0.102,-1.718 v -2.563 h -8.688 v -1.172 z m -18.25,-0.14 h 0.859 c -0.062,1 -0.094,2.385 -0.094,4.156 v 13.344 c 0,0.604 0.034,1.06 0.102,1.367 0.068,0.307 0.187,0.557 0.359,0.75 0.172,0.193 0.42,0.344 0.742,0.453 0.323,0.109 0.73,0.193 1.219,0.25 0.49,0.057 1.136,0.096 1.938,0.117 v 1.141 h -11.547 v -1.141 c 1.156,-0.052 1.982,-0.122 2.476,-0.211 0.495,-0.088 0.873,-0.221 1.133,-0.398 0.261,-0.177 0.451,-0.427 0.571,-0.75 0.119,-0.323 0.179,-0.849 0.179,-1.578 V 325.02 c 0,-0.417 -0.073,-0.722 -0.219,-0.914 -0.145,-0.193 -0.359,-0.289 -0.64,-0.289 -0.334,0 -0.807,0.172 -1.422,0.515 -0.615,0.344 -1.375,0.818 -2.281,1.422 l -0.688,-1.203 z"
       fill-rule="evenodd"
       id="path111" />
    <text
       fill="#000000"
       fill-opacity="0"
       font-family="Arial, Arial_MSFontService, sans-serif"
       font-size="21.5781px"
       x="360.42801"
       y="339.073"
       id="text113">14</text>
    <path
       d="m 530.729,244.559 h 0.86 c -0.063,1 -0.094,2.386 -0.094,4.157 v 13.343 c 0,0.604 0.034,1.06 0.102,1.367 0.067,0.308 0.187,0.558 0.359,0.75 0.172,0.193 0.419,0.344 0.742,0.454 0.323,0.109 0.729,0.192 1.219,0.25 0.49,0.057 1.135,0.096 1.937,0.117 v 1.14 h -11.546 v -1.14 c 1.156,-0.052 1.981,-0.123 2.476,-0.211 0.495,-0.089 0.873,-0.221 1.133,-0.399 0.26,-0.177 0.45,-0.427 0.57,-0.75 0.12,-0.322 0.18,-0.849 0.18,-1.578 v -12.672 c 0,-0.416 -0.073,-0.721 -0.219,-0.914 -0.146,-0.192 -0.359,-0.289 -0.64,-0.289 -0.334,0 -0.808,0.172 -1.422,0.516 -0.615,0.344 -1.375,0.818 -2.282,1.422 l -0.687,-1.203 z"
       fill-rule="evenodd"
       id="path115" />
    <text
       fill="#000000"
       fill-opacity="0"
       font-family="Arial, Arial_MSFontService, sans-serif"
       font-size="21.5781px"
       x="523.41699"
       y="263.44"
       id="text117">1</text>
    <path
       d="m 587.224,244.559 c 1.177,0 2.209,0.183 3.094,0.547 0.885,0.365 1.563,0.888 2.031,1.57 0.469,0.683 0.703,1.498 0.703,2.446 0,0.885 -0.177,1.664 -0.531,2.336 -0.354,0.672 -0.851,1.258 -1.492,1.758 -0.641,0.5 -1.471,0.989 -2.492,1.468 v 0.141 c 0.635,0.114 1.247,0.31 1.836,0.586 0.588,0.276 1.112,0.633 1.57,1.07 0.458,0.438 0.826,0.961 1.102,1.57 0.276,0.61 0.414,1.305 0.414,2.086 0,1.209 -0.263,2.282 -0.789,3.219 -0.526,0.938 -1.331,1.677 -2.414,2.219 -1.084,0.542 -2.402,0.812 -3.954,0.812 -0.895,0 -1.862,-0.101 -2.898,-0.304 -1.036,-0.203 -1.987,-0.472 -2.852,-0.805 v -3.312 h 1.875 c 0.365,1.083 0.847,1.869 1.446,2.359 0.599,0.49 1.414,0.734 2.445,0.734 1.354,0 2.378,-0.369 3.07,-1.109 0.693,-0.74 1.039,-1.833 1.039,-3.281 0,-1.521 -0.458,-2.683 -1.375,-3.485 -0.916,-0.802 -2.26,-1.203 -4.031,-1.203 h -1.406 v -1.375 c 1.406,-0.083 2.591,-0.354 3.555,-0.812 0.963,-0.459 1.679,-1.047 2.148,-1.766 0.469,-0.719 0.703,-1.526 0.703,-2.422 0,-1.156 -0.307,-2.047 -0.922,-2.672 -0.614,-0.625 -1.51,-0.937 -2.687,-0.937 -0.979,0 -1.776,0.265 -2.391,0.797 -0.614,0.531 -1.068,1.343 -1.359,2.437 h -1.875 v -2.969 c 1.208,-0.573 2.338,-1 3.39,-1.281 1.052,-0.281 2.068,-0.422 3.047,-0.422 z"
       fill-rule="evenodd"
       id="path119" />
    <text
       fill="#000000"
       fill-opacity="0"
       font-family="Arial, Arial_MSFontService, sans-serif"
       font-size="21.8281px"
       x="580.552"
       y="263.659"
       id="text121">3</text>
    <path
       d="m 637.75,256.044 h 12.313 c 0.187,0 0.331,0.088 0.429,0.265 0.099,0.177 0.149,0.459 0.149,0.844 0,0.385 -0.05,0.667 -0.149,0.844 -0.098,0.177 -0.242,0.265 -0.429,0.265 H 637.75 c -0.198,0 -0.346,-0.088 -0.445,-0.265 -0.099,-0.177 -0.148,-0.459 -0.148,-0.844 0,-0.375 0.049,-0.654 0.148,-0.836 0.099,-0.182 0.247,-0.273 0.445,-0.273 z"
       fill-rule="evenodd"
       id="path123" />
    <text
       fill="#000000"
       fill-opacity="0"
       font-family="Arial, Arial_MSFontService, sans-serif"
       font-size="2.21875px"
       x="637.15698"
       y="257.98499"
       id="text125">−</text>
    <path
       d="m 660.828,255.731 c -0.77,0 -1.419,0.12 -1.945,0.36 -0.526,0.239 -0.953,0.562 -1.281,0.968 -0.328,0.407 -0.563,0.883 -0.703,1.43 -0.141,0.547 -0.211,1.133 -0.211,1.758 0,0.677 0.078,1.31 0.234,1.898 0.156,0.589 0.404,1.097 0.742,1.524 0.339,0.427 0.774,0.765 1.305,1.015 0.531,0.25 1.177,0.375 1.938,0.375 0.854,0 1.585,-0.174 2.195,-0.523 0.609,-0.349 1.073,-0.867 1.39,-1.555 0.318,-0.687 0.477,-1.5 0.477,-2.437 0,-1 -0.172,-1.862 -0.516,-2.586 -0.343,-0.724 -0.828,-1.276 -1.453,-1.657 -0.625,-0.38 -1.349,-0.57 -2.172,-0.57 z m 0.079,-9.844 c -1.313,0 -2.316,0.357 -3.008,1.071 -0.693,0.713 -1.039,1.726 -1.039,3.039 0,0.614 0.073,1.192 0.218,1.734 0.146,0.542 0.381,1.011 0.704,1.406 0.322,0.396 0.742,0.711 1.257,0.946 0.516,0.234 1.149,0.351 1.899,0.351 0.864,0 1.591,-0.169 2.179,-0.508 0.589,-0.338 1.027,-0.833 1.313,-1.484 0.286,-0.651 0.43,-1.404 0.43,-2.258 0,-0.937 -0.17,-1.731 -0.508,-2.383 -0.339,-0.651 -0.805,-1.132 -1.399,-1.445 -0.593,-0.312 -1.276,-0.469 -2.046,-0.469 z m 0.031,-1.328 c 1.5,0 2.76,0.211 3.781,0.633 1.021,0.422 1.789,1.031 2.305,1.828 0.515,0.797 0.773,1.753 0.773,2.867 0,1.146 -0.281,2.133 -0.844,2.961 -0.562,0.828 -1.432,1.503 -2.609,2.024 l 0.031,0.203 c 1.177,0.458 2.068,1.128 2.672,2.008 0.604,0.88 0.906,1.94 0.906,3.179 0,1.219 -0.291,2.292 -0.875,3.219 -0.583,0.927 -1.429,1.643 -2.539,2.149 -1.109,0.505 -2.403,0.757 -3.882,0.757 -1.386,0 -2.602,-0.231 -3.649,-0.695 -1.047,-0.463 -1.859,-1.141 -2.437,-2.031 -0.579,-0.891 -0.868,-1.94 -0.868,-3.149 0,-0.906 0.157,-1.692 0.469,-2.359 0.313,-0.667 0.722,-1.216 1.227,-1.648 0.505,-0.433 1.143,-0.826 1.914,-1.18 l -0.031,-0.203 c -2.24,-0.969 -3.36,-2.63 -3.36,-4.985 0,-1.073 0.294,-2.031 0.883,-2.875 0.589,-0.843 1.427,-1.505 2.516,-1.984 1.088,-0.479 2.294,-0.719 3.617,-0.719 z"
       fill-rule="evenodd"
       id="path127" />
    <text
       fill="#000000"
       fill-opacity="0"
       font-family="Arial, Arial_MSFontService, sans-serif"
       font-size="21.8281px"
       x="653.703"
       y="263.659"
       id="text129">8</text>
    <path
       d="m 707.83,256.044 h 12.313 c 0.187,0 0.331,0.088 0.43,0.265 0.098,0.177 0.148,0.459 0.148,0.844 0,0.385 -0.05,0.667 -0.148,0.844 -0.099,0.177 -0.243,0.265 -0.43,0.265 H 707.83 c -0.198,0 -0.346,-0.088 -0.445,-0.265 -0.099,-0.177 -0.148,-0.459 -0.148,-0.844 0,-0.375 0.049,-0.654 0.148,-0.836 0.099,-0.182 0.247,-0.273 0.445,-0.273 z"
       fill-rule="evenodd"
       id="path131" />
    <text
       fill="#000000"
       fill-opacity="0"
       font-family="Arial, Arial_MSFontService, sans-serif"
       font-size="2.21875px"
       x="707.237"
       y="257.98499"
       id="text133">−</text>
    <path
       d="m 731.033,244.559 c 1.938,0 3.402,0.425 4.391,1.274 0.99,0.849 1.484,2.08 1.484,3.695 0,0.552 -0.054,1.06 -0.164,1.523 -0.109,0.464 -0.281,0.922 -0.515,1.375 -0.235,0.454 -0.55,0.941 -0.946,1.461 -0.395,0.521 -0.833,1.05 -1.312,1.586 -0.479,0.537 -1.307,1.43 -2.484,2.68 -1.98,2.094 -3.433,3.922 -4.36,5.484 h 5.891 c 0.51,0 0.922,-0.031 1.234,-0.093 0.313,-0.063 0.563,-0.167 0.75,-0.313 0.188,-0.146 0.336,-0.336 0.446,-0.57 0.109,-0.235 0.247,-0.596 0.414,-1.086 h 1.328 l -0.266,4.562 h -12.859 v -0.75 c 0.448,-1.093 1.052,-2.213 1.812,-3.359 0.761,-1.146 1.839,-2.495 3.235,-4.047 1.208,-1.333 2.078,-2.344 2.609,-3.031 0.583,-0.75 1.018,-1.399 1.305,-1.945 0.286,-0.547 0.492,-1.063 0.617,-1.547 0.125,-0.485 0.187,-0.972 0.187,-1.461 0,-0.781 -0.125,-1.472 -0.375,-2.071 -0.25,-0.598 -0.632,-1.07 -1.148,-1.414 -0.516,-0.343 -1.164,-0.515 -1.945,-0.515 -1.948,0 -3.261,1.083 -3.938,3.25 h -1.891 v -3 c 1.261,-0.594 2.441,-1.024 3.54,-1.289 1.098,-0.266 2.085,-0.399 2.96,-0.399 z"
       fill-rule="evenodd"
       id="path135" />
    <text
       fill="#000000"
       fill-opacity="0"
       font-family="Arial, Arial_MSFontService, sans-serif"
       font-size="21.5781px"
       x="724.065"
       y="263.44"
       id="text137">2</text>
    <path
       d="m 529.495,283.401 c -0.719,0 -1.32,0.213 -1.805,0.64 -0.484,0.427 -0.875,1.042 -1.171,1.844 -0.297,0.802 -0.508,1.779 -0.633,2.93 -0.125,1.151 -0.188,2.45 -0.188,3.898 0,3.396 0.315,5.888 0.946,7.477 0.63,1.588 1.606,2.383 2.929,2.383 1.261,0 2.196,-0.748 2.805,-2.243 0.609,-1.494 0.914,-3.809 0.914,-6.945 0,-2.396 -0.156,-4.336 -0.469,-5.82 -0.312,-1.485 -0.747,-2.55 -1.304,-3.195 -0.558,-0.646 -1.232,-0.969 -2.024,-0.969 z m 0.078,-1.328 c 2.281,0 3.979,0.88 5.094,2.64 1.115,1.761 1.672,4.422 1.672,7.985 0,3.687 -0.597,6.476 -1.789,8.367 -1.193,1.89 -2.935,2.836 -5.227,2.836 -2.25,0 -3.924,-0.886 -5.023,-2.656 -1.099,-1.771 -1.649,-4.459 -1.649,-8.063 0,-1.917 0.17,-3.573 0.508,-4.969 0.339,-1.396 0.813,-2.549 1.422,-3.461 0.609,-0.911 1.341,-1.586 2.195,-2.023 0.855,-0.438 1.787,-0.656 2.797,-0.656 z"
       fill-rule="evenodd"
       id="path139" />
    <text
       fill="#000000"
       fill-opacity="0"
       font-family="Arial, Arial_MSFontService, sans-serif"
       font-size="21.8281px"
       x="522.651"
       y="301.172"
       id="text141">0</text>
    <path
       d="m 572.084,293.557 h 12.312 c 0.188,0 0.331,0.089 0.43,0.266 0.099,0.177 0.148,0.458 0.148,0.843 0,0.386 -0.049,0.667 -0.148,0.844 -0.099,0.177 -0.242,0.266 -0.43,0.266 h -12.312 c -0.198,0 -0.347,-0.089 -0.446,-0.266 -0.099,-0.177 -0.148,-0.458 -0.148,-0.844 0,-0.375 0.049,-0.653 0.148,-0.836 0.099,-0.182 0.248,-0.273 0.446,-0.273 z"
       fill-rule="evenodd"
       id="path143" />
    <text
       fill="#000000"
       fill-opacity="0"
       font-family="Arial, Arial_MSFontService, sans-serif"
       font-size="2.21875px"
       x="571.48999"
       y="295.49799"
       id="text145">−</text>
    <path
       d="m 595.287,282.073 c 1.937,0 3.401,0.424 4.39,1.273 0.99,0.849 1.485,2.081 1.485,3.695 0,0.552 -0.055,1.06 -0.164,1.524 -0.11,0.463 -0.282,0.922 -0.516,1.375 -0.234,0.453 -0.549,0.94 -0.945,1.461 -0.396,0.521 -0.834,1.049 -1.313,1.586 -0.479,0.536 -1.307,1.429 -2.484,2.679 -1.979,2.094 -3.432,3.922 -4.359,5.485 h 5.89 c 0.511,0 0.922,-0.031 1.235,-0.094 0.312,-0.062 0.562,-0.167 0.75,-0.312 0.187,-0.146 0.335,-0.336 0.445,-0.571 0.109,-0.234 0.247,-0.596 0.414,-1.086 h 1.328 l -0.266,4.563 h -12.859 v -0.75 c 0.448,-1.094 1.052,-2.214 1.813,-3.36 0.76,-1.145 1.838,-2.494 3.234,-4.046 1.208,-1.334 2.078,-2.344 2.609,-3.032 0.584,-0.75 1.019,-1.398 1.305,-1.945 0.286,-0.547 0.492,-1.063 0.617,-1.547 0.125,-0.484 0.188,-0.971 0.188,-1.461 0,-0.781 -0.125,-1.471 -0.375,-2.07 -0.25,-0.599 -0.633,-1.07 -1.149,-1.414 -0.515,-0.344 -1.164,-0.516 -1.945,-0.516 -1.948,0 -3.261,1.083 -3.938,3.25 h -1.89 v -3 c 1.26,-0.594 2.44,-1.023 3.539,-1.289 1.099,-0.266 2.086,-0.398 2.961,-0.398 z"
       fill-rule="evenodd"
       id="path147" />
    <text
       fill="#000000"
       fill-opacity="0"
       font-family="Arial, Arial_MSFontService, sans-serif"
       font-size="21.5781px"
       x="588.31799"
       y="300.953"
       id="text149">2</text>
    <path
       d="m 652.828,283.401 c -0.718,0 -1.32,0.213 -1.804,0.64 -0.485,0.427 -0.875,1.042 -1.172,1.844 -0.297,0.802 -0.508,1.779 -0.633,2.93 -0.125,1.151 -0.187,2.45 -0.187,3.898 0,3.396 0.315,5.888 0.945,7.477 0.63,1.588 1.607,2.383 2.93,2.383 1.26,0 2.195,-0.748 2.804,-2.243 0.61,-1.494 0.914,-3.809 0.914,-6.945 0,-2.396 -0.156,-4.336 -0.468,-5.82 -0.313,-1.485 -0.748,-2.55 -1.305,-3.195 -0.557,-0.646 -1.232,-0.969 -2.024,-0.969 z m 0.079,-1.328 c 2.281,0 3.979,0.88 5.093,2.64 1.115,1.761 1.672,4.422 1.672,7.985 0,3.687 -0.596,6.476 -1.789,8.367 -1.193,1.89 -2.935,2.836 -5.226,2.836 -2.25,0 -3.925,-0.886 -5.024,-2.656 -1.099,-1.771 -1.648,-4.459 -1.648,-8.063 0,-1.917 0.169,-3.573 0.507,-4.969 0.339,-1.396 0.813,-2.549 1.422,-3.461 0.61,-0.911 1.341,-1.586 2.196,-2.023 0.854,-0.438 1.786,-0.656 2.797,-0.656 z"
       fill-rule="evenodd"
       id="path151" />
    <text
       fill="#000000"
       fill-opacity="0"
       font-family="Arial, Arial_MSFontService, sans-serif"
       font-size="21.8281px"
       x="645.98499"
       y="301.172"
       id="text153">0</text>
    <path
       d="m 727.408,281.291 h 1.219 l -0.234,3.625 h -8.985 v 6.86 c 0.542,-0.229 1.131,-0.401 1.766,-0.516 0.636,-0.114 1.271,-0.172 1.906,-0.172 1.24,0 2.339,0.253 3.297,0.758 0.959,0.505 1.698,1.224 2.219,2.156 0.521,0.933 0.781,2.013 0.781,3.243 0,1.395 -0.291,2.593 -0.875,3.593 -0.583,1 -1.427,1.761 -2.531,2.282 -1.104,0.52 -2.411,0.781 -3.922,0.781 -1.802,0 -3.687,-0.37 -5.656,-1.11 v -3.312 h 1.89 c 0.313,1.062 0.784,1.844 1.415,2.344 0.63,0.5 1.445,0.75 2.445,0.75 1.385,0 2.432,-0.417 3.14,-1.25 0.709,-0.834 1.063,-2.078 1.063,-3.735 0,-1.104 -0.188,-2.018 -0.563,-2.742 -0.375,-0.724 -0.88,-1.247 -1.515,-1.57 -0.636,-0.323 -1.375,-0.485 -2.219,-0.485 -0.708,0 -1.318,0.045 -1.828,0.133 -0.51,0.089 -1.057,0.227 -1.641,0.414 l -1.25,-0.734 v -10.281 h 8.61 c 0.354,0 0.609,-0.029 0.765,-0.086 0.157,-0.058 0.282,-0.146 0.375,-0.266 0.094,-0.12 0.203,-0.346 0.328,-0.68 z"
       fill-rule="evenodd"
       id="path155" />
    <text
       fill="#000000"
       fill-opacity="0"
       font-family="Arial, Arial_MSFontService, sans-serif"
       font-size="22.6094px"
       x="716.39301"
       y="301.07501"
       id="text157">5</text>
    <path
       d="m 529.495,320.914 c -0.719,0 -1.32,0.214 -1.805,0.641 -0.484,0.427 -0.875,1.041 -1.171,1.843 -0.297,0.803 -0.508,1.779 -0.633,2.93 -0.125,1.151 -0.188,2.451 -0.188,3.899 0,3.395 0.315,5.888 0.946,7.476 0.63,1.589 1.606,2.383 2.929,2.383 1.261,0 2.196,-0.747 2.805,-2.242 0.609,-1.495 0.914,-3.81 0.914,-6.946 0,-2.395 -0.156,-4.335 -0.469,-5.82 -0.312,-1.484 -0.747,-2.549 -1.304,-3.195 -0.558,-0.646 -1.232,-0.969 -2.024,-0.969 z m 0.078,-1.328 c 2.281,0 3.979,0.88 5.094,2.641 1.115,1.76 1.672,4.421 1.672,7.984 0,3.687 -0.597,6.477 -1.789,8.367 -1.193,1.891 -2.935,2.836 -5.227,2.836 -2.25,0 -3.924,-0.885 -5.023,-2.656 -1.099,-1.771 -1.649,-4.459 -1.649,-8.063 0,-1.916 0.17,-3.573 0.508,-4.968 0.339,-1.396 0.813,-2.55 1.422,-3.461 0.609,-0.912 1.341,-1.586 2.195,-2.024 0.855,-0.437 1.787,-0.656 2.797,-0.656 z"
       fill-rule="evenodd"
       id="path159" />
    <text
       fill="#000000"
       fill-opacity="0"
       font-family="Arial, Arial_MSFontService, sans-serif"
       font-size="21.8281px"
       x="522.651"
       y="338.686"
       id="text161">0</text>
    <path
       d="m 583.575,320.914 c -0.719,0 -1.32,0.214 -1.805,0.641 -0.484,0.427 -0.875,1.041 -1.171,1.843 -0.297,0.803 -0.508,1.779 -0.633,2.93 -0.125,1.151 -0.188,2.451 -0.188,3.899 0,3.395 0.315,5.888 0.946,7.476 0.63,1.589 1.606,2.383 2.929,2.383 1.261,0 2.196,-0.747 2.805,-2.242 0.609,-1.495 0.914,-3.81 0.914,-6.946 0,-2.395 -0.156,-4.335 -0.469,-5.82 -0.312,-1.484 -0.747,-2.549 -1.304,-3.195 -0.558,-0.646 -1.232,-0.969 -2.024,-0.969 z m 0.078,-1.328 c 2.282,0 3.979,0.88 5.094,2.641 1.115,1.76 1.672,4.421 1.672,7.984 0,3.687 -0.596,6.477 -1.789,8.367 -1.193,1.891 -2.935,2.836 -5.227,2.836 -2.25,0 -3.924,-0.885 -5.023,-2.656 -1.099,-1.771 -1.649,-4.459 -1.649,-8.063 0,-1.916 0.17,-3.573 0.508,-4.968 0.339,-1.396 0.813,-2.55 1.422,-3.461 0.609,-0.912 1.341,-1.586 2.195,-2.024 0.855,-0.437 1.787,-0.656 2.797,-0.656 z"
       fill-rule="evenodd"
       id="path163" />
    <text
       fill="#000000"
       fill-opacity="0"
       font-family="Arial, Arial_MSFontService, sans-serif"
       font-size="21.8281px"
       x="576.73102"
       y="338.686"
       id="text165">0</text>
    <path
       d="M 646.594,319.836 H 660 v 0.75 l -9.093,20.687 h -2.266 v -0.765 l 8.422,-17.828 v -0.235 h -6.875 c -0.427,0 -0.768,0.039 -1.024,0.118 -0.255,0.078 -0.468,0.19 -0.64,0.335 -0.172,0.146 -0.315,0.339 -0.43,0.579 -0.115,0.239 -0.271,0.713 -0.469,1.421 h -1.343 z"
       fill-rule="evenodd"
       id="path167" />
    <text
       fill="#000000"
       fill-opacity="0"
       font-family="Arial, Arial_MSFontService, sans-serif"
       font-size="21.4375px"
       x="646.28198"
       y="338.59399"
       id="text169">7</text>
    <path
       d="m 729.526,323.258 -6.109,9.703 v 0.219 h 6.109 v -3.891 c 0,-0.979 0.016,-2.075 0.047,-3.289 0.031,-1.214 0.068,-2.128 0.11,-2.742 z m 0.453,-3.531 h 2.235 v 13.453 h 0.328 c 0.604,0 1.036,-0.045 1.297,-0.133 0.26,-0.089 0.476,-0.245 0.648,-0.469 0.172,-0.224 0.331,-0.591 0.477,-1.101 h 1.187 l -0.187,3.218 h -3.75 v 2.563 c 0,0.698 0.023,1.208 0.07,1.531 0.047,0.323 0.125,0.578 0.235,0.766 0.109,0.187 0.27,0.343 0.484,0.468 0.213,0.125 0.56,0.25 1.039,0.375 v 0.766 h -6.344 v -0.766 c 0.646,-0.166 1.078,-0.351 1.297,-0.554 0.219,-0.203 0.362,-0.492 0.43,-0.867 0.067,-0.375 0.101,-0.948 0.101,-1.719 v -2.563 h -8.687 v -1.172 z m -18.25,-0.141 h 0.86 c -0.063,1 -0.094,2.385 -0.094,4.156 v 13.344 c 0,0.604 0.034,1.06 0.102,1.367 0.067,0.307 0.187,0.557 0.359,0.75 0.172,0.193 0.419,0.344 0.742,0.453 0.323,0.11 0.729,0.193 1.219,0.25 0.49,0.058 1.135,0.097 1.937,0.117 v 1.141 h -11.546 v -1.141 c 1.156,-0.052 1.981,-0.122 2.476,-0.21 0.495,-0.089 0.873,-0.222 1.133,-0.399 0.26,-0.177 0.45,-0.427 0.57,-0.75 0.12,-0.323 0.18,-0.849 0.18,-1.578 v -12.672 c 0,-0.417 -0.073,-0.721 -0.219,-0.914 -0.146,-0.193 -0.359,-0.289 -0.64,-0.289 -0.334,0 -0.808,0.172 -1.422,0.516 -0.615,0.343 -1.375,0.817 -2.282,1.421 l -0.687,-1.203 z"
       fill-rule="evenodd"
       id="path171" />
    <text
       fill="#000000"
       fill-opacity="0"
       font-family="Arial, Arial_MSFontService, sans-serif"
       font-size="21.5781px"
       x="704.41699"
       y="338.46701"
       id="text173">14</text>
    <path
       d="m 868.203,237.289 h 0.859 c -0.062,1 -0.093,2.385 -0.093,4.156 v 13.344 c 0,0.604 0.033,1.059 0.101,1.367 0.068,0.307 0.188,0.557 0.359,0.75 0.172,0.193 0.42,0.344 0.743,0.453 0.323,0.109 0.729,0.193 1.218,0.25 0.49,0.057 1.136,0.096 1.938,0.117 v 1.141 h -11.547 v -1.141 c 1.156,-0.052 1.982,-0.122 2.477,-0.211 0.494,-0.088 0.872,-0.221 1.132,-0.398 0.261,-0.177 0.451,-0.427 0.571,-0.75 0.12,-0.323 0.179,-0.849 0.179,-1.578 v -12.672 c 0,-0.417 -0.073,-0.722 -0.218,-0.914 -0.146,-0.193 -0.36,-0.289 -0.641,-0.289 -0.333,0 -0.807,0.171 -1.422,0.515 -0.614,0.344 -1.375,0.818 -2.281,1.422 l -0.688,-1.203 z"
       fill-rule="evenodd"
       id="path175" />
    <text
       fill="#000000"
       fill-opacity="0"
       font-family="Arial, Arial_MSFontService, sans-serif"
       font-size="21.5781px"
       x="860.89001"
       y="256.16901"
       id="text177">1</text>
    <path
       d="m 916.635,238.617 c -0.719,0 -1.32,0.213 -1.804,0.64 -0.485,0.427 -0.875,1.042 -1.172,1.844 -0.297,0.802 -0.508,1.779 -0.633,2.93 -0.125,1.151 -0.188,2.45 -0.188,3.898 0,3.396 0.315,5.888 0.946,7.477 0.63,1.588 1.606,2.383 2.929,2.383 1.261,0 2.196,-0.748 2.805,-2.243 0.609,-1.494 0.914,-3.809 0.914,-6.945 0,-2.396 -0.156,-4.336 -0.469,-5.82 -0.312,-1.485 -0.747,-2.55 -1.304,-3.196 -0.558,-0.645 -1.232,-0.968 -2.024,-0.968 z m 0.078,-1.328 c 2.282,0 3.98,0.88 5.094,2.64 1.115,1.761 1.672,4.422 1.672,7.985 0,3.687 -0.596,6.476 -1.789,8.367 -1.193,1.89 -2.935,2.836 -5.227,2.836 -2.25,0 -3.924,-0.886 -5.023,-2.657 -1.099,-1.77 -1.649,-4.458 -1.649,-8.062 0,-1.917 0.17,-3.573 0.508,-4.969 0.339,-1.396 0.813,-2.549 1.422,-3.461 0.61,-0.911 1.341,-1.586 2.195,-2.023 0.855,-0.438 1.787,-0.656 2.797,-0.656 z"
       fill-rule="evenodd"
       id="path179" />
    <text
       fill="#000000"
       fill-opacity="0"
       font-family="Arial, Arial_MSFontService, sans-serif"
       font-size="21.8281px"
       x="909.79102"
       y="256.388"
       id="text181">0</text>
    <path
       d="m 966.302,238.617 c -0.719,0 -1.32,0.213 -1.805,0.64 -0.484,0.427 -0.875,1.042 -1.172,1.844 -0.297,0.802 -0.508,1.779 -0.633,2.93 -0.125,1.151 -0.187,2.45 -0.187,3.898 0,3.396 0.315,5.888 0.945,7.477 0.63,1.588 1.607,2.383 2.93,2.383 1.26,0 2.195,-0.748 2.805,-2.243 0.609,-1.494 0.914,-3.809 0.914,-6.945 0,-2.396 -0.157,-4.336 -0.469,-5.82 -0.313,-1.485 -0.747,-2.55 -1.305,-3.196 -0.557,-0.645 -1.231,-0.968 -2.023,-0.968 z m 0.078,-1.328 c 2.281,0 3.979,0.88 5.094,2.64 1.114,1.761 1.672,4.422 1.672,7.985 0,3.687 -0.597,6.476 -1.789,8.367 -1.193,1.89 -2.935,2.836 -5.227,2.836 -2.25,0 -3.925,-0.886 -5.023,-2.657 -1.099,-1.77 -1.649,-4.458 -1.649,-8.062 0,-1.917 0.169,-3.573 0.508,-4.969 0.338,-1.396 0.812,-2.549 1.422,-3.461 0.609,-0.911 1.341,-1.586 2.195,-2.023 0.854,-0.438 1.787,-0.656 2.797,-0.656 z"
       fill-rule="evenodd"
       id="path183" />
    <text
       fill="#000000"
       fill-opacity="0"
       font-family="Arial, Arial_MSFontService, sans-serif"
       font-size="21.8281px"
       x="959.45801"
       y="256.388"
       id="text185">0</text>
    <path
       d="m 1015.59,233.435 c -0.72,1.041 -1.44,2.074 -2.15,3.1 -0.72,1.025 -1.44,2.055 -2.16,3.088 v 0.135 h 4.31 v -2.257 c 0,-0.255 0,-0.569 0.01,-0.944 0.01,-0.374 0.02,-0.754 0.03,-1.14 0.01,-0.385 0.02,-0.752 0.04,-1.1 0.01,-0.348 0.03,-0.642 0.04,-0.882 z m 0.32,-2.628 h 1.79 v 8.951 h 0.2 c 0.31,0 0.56,-0.015 0.75,-0.045 0.19,-0.03 0.34,-0.092 0.46,-0.185 0.12,-0.094 0.21,-0.225 0.29,-0.393 0.08,-0.169 0.16,-0.388 0.25,-0.657 h 0.96 c -0.02,0.411 -0.05,0.819 -0.07,1.224 -0.03,0.404 -0.06,0.816 -0.08,1.235 h -2.76 v 1.471 c 0,0.434 0.01,0.771 0.03,1.011 0.02,0.24 0.07,0.427 0.17,0.561 0.09,0.135 0.23,0.236 0.41,0.304 0.19,0.067 0.44,0.146 0.77,0.236 v 0.673 h -4.85 v -0.673 c 0.22,-0.06 0.41,-0.115 0.57,-0.163 0.16,-0.049 0.29,-0.105 0.4,-0.169 0.1,-0.063 0.18,-0.138 0.23,-0.224 0.04,-0.086 0.08,-0.195 0.11,-0.326 0.02,-0.131 0.04,-0.296 0.04,-0.494 0.01,-0.199 0.01,-0.444 0.01,-0.736 v -1.471 h -6.32 v -0.887 c 1.11,-1.55 2.22,-3.09 3.32,-4.622 1.1,-1.531 2.21,-3.071 3.32,-4.621 z m 13.13,-0.157 c 0.6,0 1.16,0.064 1.68,0.191 0.52,0.127 0.97,0.32 1.35,0.578 0.38,0.259 0.68,0.58 0.89,0.966 0.22,0.386 0.32,0.833 0.32,1.342 0,0.479 -0.06,0.902 -0.2,1.269 -0.13,0.367 -0.34,0.7 -0.62,1 -0.28,0.299 -0.63,0.571 -1.04,0.814 -0.4,0.243 -0.87,0.477 -1.4,0.702 v 0.135 c 0.5,0.089 0.96,0.233 1.4,0.432 0.43,0.198 0.81,0.449 1.14,0.752 0.32,0.304 0.58,0.654 0.77,1.05 0.19,0.397 0.28,0.835 0.28,1.314 0,0.599 -0.11,1.155 -0.34,1.668 -0.22,0.513 -0.56,0.957 -1.01,1.331 -0.45,0.374 -1,0.666 -1.66,0.876 -0.66,0.209 -1.43,0.314 -2.31,0.314 -0.7,0 -1.41,-0.069 -2.13,-0.207 -0.72,-0.139 -1.4,-0.321 -2.04,-0.545 v -2.426 h 1.45 c 0.12,0.374 0.26,0.694 0.42,0.96 0.17,0.266 0.36,0.483 0.58,0.652 0.22,0.168 0.48,0.29 0.77,0.365 0.28,0.075 0.61,0.112 0.98,0.112 0.97,0 1.7,-0.23 2.19,-0.691 0.5,-0.46 0.75,-1.158 0.75,-2.094 0,-0.996 -0.33,-1.75 -0.98,-2.263 -0.66,-0.513 -1.63,-0.769 -2.92,-0.769 h -0.98 v -1.079 c 0.78,-0.037 1.46,-0.147 2.03,-0.331 0.58,-0.183 1.05,-0.421 1.44,-0.713 0.38,-0.292 0.66,-0.633 0.85,-1.022 0.19,-0.389 0.28,-0.805 0.28,-1.247 0,-0.718 -0.21,-1.285 -0.64,-1.701 -0.43,-0.415 -1.04,-0.623 -1.85,-0.623 -0.68,0 -1.25,0.187 -1.71,0.561 -0.47,0.375 -0.82,0.932 -1.07,1.674 h -1.42 v -2.213 c 0.88,-0.374 1.71,-0.657 2.5,-0.848 0.78,-0.191 1.53,-0.286 2.25,-0.286 z"
       fill-rule="evenodd"
       id="path187" />
    <text
       fill="#000000"
       fill-opacity="0"
       font-family="Arial, Arial_MSFontService, sans-serif"
       font-size="14.7344px"
       x="1009.27"
       y="243.543"
       id="text189">43</text>
    <path
       d="m 1021.81,256.057 c 0.78,0 1.44,0.088 1.99,0.264 0.55,0.175 1,0.413 1.34,0.713 0.35,0.299 0.6,0.659 0.75,1.078 0.15,0.419 0.23,0.872 0.23,1.359 0,0.292 -0.02,0.563 -0.06,0.814 -0.04,0.251 -0.11,0.498 -0.22,0.741 -0.1,0.243 -0.23,0.489 -0.39,0.736 -0.17,0.247 -0.37,0.509 -0.62,0.786 -0.19,0.239 -0.43,0.516 -0.73,0.831 -0.3,0.314 -0.63,0.651 -0.98,1.011 -0.36,0.359 -0.73,0.733 -1.12,1.123 -0.39,0.389 -0.77,0.775 -1.14,1.156 -0.36,0.382 -0.7,0.753 -1.01,1.112 -0.3,0.36 -0.55,0.689 -0.75,0.989 h 4.16 c 0.35,0 0.63,-0.014 0.84,-0.04 0.21,-0.026 0.38,-0.084 0.52,-0.174 0.14,-0.09 0.26,-0.226 0.35,-0.41 0.1,-0.183 0.21,-0.436 0.34,-0.758 h 1.05 c -0.04,0.532 -0.08,1.067 -0.11,1.606 -0.03,0.539 -0.07,1.074 -0.11,1.606 h -9.51 v -0.584 c 0.18,-0.404 0.39,-0.803 0.63,-1.196 0.24,-0.393 0.51,-0.792 0.81,-1.196 0.3,-0.404 0.64,-0.822 1.02,-1.252 0.38,-0.431 0.8,-0.878 1.27,-1.342 0.7,-0.704 1.27,-1.305 1.72,-1.803 0.44,-0.498 0.79,-0.941 1.04,-1.331 0.26,-0.389 0.43,-0.748 0.52,-1.078 0.1,-0.329 0.14,-0.681 0.14,-1.055 0,-0.382 -0.05,-0.734 -0.16,-1.056 -0.11,-0.322 -0.26,-0.595 -0.47,-0.82 -0.2,-0.224 -0.45,-0.4 -0.76,-0.528 -0.32,-0.127 -0.67,-0.191 -1.08,-0.191 -0.69,0 -1.28,0.189 -1.75,0.568 -0.47,0.378 -0.84,0.926 -1.1,1.645 h -1.47 v -2.19 c 0.96,-0.397 1.84,-0.685 2.64,-0.865 0.81,-0.18 1.53,-0.269 2.18,-0.269 z"
       fill-rule="evenodd"
       id="path191" />
    <text
       fill="#000000"
       fill-opacity="0"
       font-family="Arial, Arial_MSFontService, sans-serif"
       font-size="14.5435px"
       x="1016.63"
       y="268.78201"
       id="text193">2</text>
    <path
       d="m 1008.2,251.127 h 27 v 2 h -27 z"
       fill-rule="evenodd"
       id="path195" />
    <path
       d="m 866.969,289.543 c -0.719,0 -1.321,0.214 -1.805,0.641 -0.485,0.427 -0.875,1.042 -1.172,1.844 -0.297,0.802 -0.508,1.778 -0.633,2.929 -0.125,1.151 -0.187,2.451 -0.187,3.899 0,3.396 0.315,5.888 0.945,7.476 0.63,1.589 1.607,2.383 2.93,2.383 1.26,0 2.195,-0.747 2.804,-2.242 0.61,-1.495 0.914,-3.81 0.914,-6.945 0,-2.396 -0.156,-4.336 -0.468,-5.821 -0.313,-1.484 -0.748,-2.549 -1.305,-3.195 -0.557,-0.646 -1.232,-0.969 -2.023,-0.969 z m 0.078,-1.328 c 2.281,0 3.979,0.88 5.093,2.641 1.115,1.76 1.672,4.422 1.672,7.984 0,3.688 -0.596,6.477 -1.789,8.367 -1.192,1.891 -2.935,2.836 -5.226,2.836 -2.25,0 -3.925,-0.885 -5.024,-2.656 -1.099,-1.771 -1.648,-4.458 -1.648,-8.062 0,-1.917 0.169,-3.573 0.508,-4.969 0.338,-1.396 0.812,-2.55 1.421,-3.461 0.61,-0.912 1.342,-1.586 2.196,-2.023 0.854,-0.438 1.786,-0.657 2.797,-0.657 z"
       fill-rule="evenodd"
       id="path197" />
    <text
       fill="#000000"
       fill-opacity="0"
       font-family="Arial, Arial_MSFontService, sans-serif"
       font-size="21.8281px"
       x="860.125"
       y="307.315"
       id="text199">0</text>
    <path
       d="m 917.87,288.215 h 0.859 c -0.063,1 -0.094,2.386 -0.094,4.157 v 13.343 c 0,0.604 0.034,1.06 0.102,1.367 0.067,0.308 0.187,0.558 0.359,0.75 0.172,0.193 0.419,0.344 0.742,0.454 0.323,0.109 0.73,0.192 1.219,0.25 0.49,0.057 1.136,0.096 1.938,0.117 v 1.14 h -11.547 v -1.14 c 1.156,-0.052 1.981,-0.123 2.476,-0.211 0.495,-0.089 0.873,-0.222 1.133,-0.399 0.261,-0.177 0.451,-0.427 0.57,-0.75 0.12,-0.323 0.18,-0.849 0.18,-1.578 v -12.672 c 0,-0.416 -0.073,-0.721 -0.219,-0.914 -0.145,-0.192 -0.359,-0.289 -0.64,-0.289 -0.334,0 -0.808,0.172 -1.422,0.516 -0.615,0.344 -1.375,0.818 -2.281,1.422 l -0.688,-1.203 z"
       fill-rule="evenodd"
       id="path201" />
    <text
       fill="#000000"
       fill-opacity="0"
       font-family="Arial, Arial_MSFontService, sans-serif"
       font-size="21.5781px"
       x="910.55701"
       y="307.09601"
       id="text203">1</text>
    <path
       d="m 966.302,289.543 c -0.719,0 -1.32,0.214 -1.805,0.641 -0.484,0.427 -0.875,1.042 -1.172,1.844 -0.297,0.802 -0.508,1.778 -0.633,2.929 -0.125,1.151 -0.187,2.451 -0.187,3.899 0,3.396 0.315,5.888 0.945,7.476 0.63,1.589 1.607,2.383 2.93,2.383 1.26,0 2.195,-0.747 2.805,-2.242 0.609,-1.495 0.914,-3.81 0.914,-6.945 0,-2.396 -0.157,-4.336 -0.469,-5.821 -0.313,-1.484 -0.747,-2.549 -1.305,-3.195 -0.557,-0.646 -1.231,-0.969 -2.023,-0.969 z m 0.078,-1.328 c 2.281,0 3.979,0.88 5.094,2.641 1.114,1.76 1.672,4.422 1.672,7.984 0,3.688 -0.597,6.477 -1.789,8.367 -1.193,1.891 -2.935,2.836 -5.227,2.836 -2.25,0 -3.925,-0.885 -5.023,-2.656 -1.099,-1.771 -1.649,-4.458 -1.649,-8.062 0,-1.917 0.169,-3.573 0.508,-4.969 0.338,-1.396 0.812,-2.55 1.422,-3.461 0.609,-0.912 1.341,-1.586 2.195,-2.023 0.854,-0.438 1.787,-0.657 2.797,-0.657 z"
       fill-rule="evenodd"
       id="path205" />
    <text
       fill="#000000"
       fill-opacity="0"
       font-family="Arial, Arial_MSFontService, sans-serif"
       font-size="21.8281px"
       x="959.45801"
       y="307.315"
       id="text207">0</text>
    <path
       d="m 1008.89,286.026 h 12.31 c 0.19,0 0.33,0.089 0.43,0.266 0.1,0.177 0.15,0.458 0.15,0.844 0,0.385 -0.05,0.666 -0.15,0.843 -0.1,0.178 -0.24,0.266 -0.43,0.266 h -12.31 c -0.2,0 -0.35,-0.088 -0.44,-0.266 -0.1,-0.177 -0.15,-0.458 -0.15,-0.843 0,-0.375 0.05,-0.654 0.15,-0.836 0.09,-0.183 0.24,-0.274 0.44,-0.274 z"
       fill-rule="evenodd"
       id="path209" />
    <text
       fill="#000000"
       fill-opacity="0"
       font-family="Arial, Arial_MSFontService, sans-serif"
       font-size="2.21875px"
       x="1008.3"
       y="287.96799"
       id="text211">−</text>
    <path
       d="m 1033.03,281.038 h 1.01 l -0.16,2.717 h -6.58 v 4.391 c 0.39,-0.134 0.83,-0.243 1.3,-0.325 0.47,-0.083 0.95,-0.124 1.43,-0.124 0.69,0 1.31,0.096 1.87,0.287 0.55,0.19 1.03,0.464 1.43,0.819 0.4,0.356 0.72,0.787 0.94,1.292 0.22,0.505 0.33,1.072 0.33,1.701 0,0.719 -0.13,1.359 -0.37,1.921 -0.25,0.561 -0.6,1.039 -1.06,1.432 -0.46,0.393 -1.03,0.692 -1.69,0.898 -0.66,0.206 -1.41,0.309 -2.24,0.309 -0.66,0 -1.33,-0.064 -2.02,-0.191 -0.69,-0.127 -1.4,-0.314 -2.15,-0.562 v -2.493 h 1.44 c 0.23,0.756 0.56,1.297 1.01,1.623 0.45,0.326 1.04,0.489 1.78,0.489 0.98,0 1.72,-0.255 2.22,-0.764 0.5,-0.509 0.75,-1.307 0.75,-2.392 0,-1.041 -0.26,-1.814 -0.79,-2.319 -0.54,-0.506 -1.28,-0.758 -2.24,-0.758 -0.25,0 -0.48,0.003 -0.69,0.011 -0.21,0.007 -0.41,0.026 -0.61,0.056 -0.2,0.03 -0.4,0.071 -0.6,0.124 -0.2,0.052 -0.42,0.112 -0.67,0.179 l -0.92,-0.505 v -7.064 h 6.22 c 0.18,-0.007 0.32,-0.019 0.43,-0.034 0.11,-0.015 0.2,-0.048 0.27,-0.101 0.06,-0.052 0.12,-0.125 0.18,-0.219 0.05,-0.093 0.11,-0.226 0.18,-0.398 z"
       fill-rule="evenodd"
       id="path213" />
    <text
       fill="#000000"
       fill-opacity="0"
       font-family="Arial, Arial_MSFontService, sans-serif"
       font-size="15.3184px"
       x="1025.0699"
       y="294.44101"
       id="text215">5</text>
    <path
       d="m 1021.81,306.983 c 0.78,0 1.45,0.088 2,0.264 0.55,0.176 0.99,0.414 1.34,0.713 0.34,0.3 0.59,0.659 0.75,1.078 0.15,0.42 0.23,0.873 0.23,1.359 0,0.292 -0.02,0.564 -0.07,0.815 -0.04,0.25 -0.11,0.497 -0.21,0.741 -0.1,0.243 -0.23,0.488 -0.4,0.735 -0.16,0.247 -0.37,0.509 -0.62,0.786 -0.18,0.24 -0.43,0.517 -0.73,0.832 -0.29,0.314 -0.62,0.651 -0.98,1.01 -0.35,0.36 -0.73,0.734 -1.12,1.123 -0.38,0.39 -0.76,0.775 -1.13,1.157 -0.37,0.382 -0.7,0.753 -1.01,1.112 -0.31,0.359 -0.56,0.689 -0.75,0.988 h 4.15 c 0.35,0 0.64,-0.013 0.84,-0.039 0.21,-0.026 0.39,-0.084 0.53,-0.174 0.14,-0.09 0.25,-0.227 0.35,-0.41 0.1,-0.184 0.21,-0.436 0.34,-0.758 h 1.04 c -0.04,0.531 -0.07,1.067 -0.1,1.606 -0.04,0.539 -0.07,1.074 -0.11,1.606 h -9.51 v -0.584 c 0.18,-0.405 0.39,-0.803 0.63,-1.196 0.23,-0.393 0.5,-0.792 0.8,-1.196 0.3,-0.405 0.64,-0.822 1.03,-1.253 0.38,-0.43 0.8,-0.877 1.26,-1.342 0.71,-0.703 1.28,-1.304 1.72,-1.802 0.44,-0.498 0.79,-0.942 1.05,-1.331 0.25,-0.389 0.43,-0.749 0.52,-1.078 0.09,-0.329 0.14,-0.681 0.14,-1.056 0,-0.382 -0.05,-0.733 -0.16,-1.055 -0.11,-0.322 -0.27,-0.596 -0.47,-0.82 -0.2,-0.225 -0.46,-0.401 -0.77,-0.528 -0.31,-0.127 -0.67,-0.191 -1.07,-0.191 -0.7,0 -1.28,0.189 -1.75,0.567 -0.47,0.378 -0.84,0.927 -1.1,1.645 H 1017 v -2.189 c 0.95,-0.397 1.84,-0.686 2.64,-0.865 0.81,-0.18 1.53,-0.27 2.17,-0.27 z"
       fill-rule="evenodd"
       id="path217" />
    <text
       fill="#000000"
       fill-opacity="0"
       font-family="Arial, Arial_MSFontService, sans-serif"
       font-size="14.5435px"
       x="1016.64"
       y="319.70901"
       id="text219">2</text>
    <path
       d="m 1007.2,302.127 h 30 v 2 h -30 z"
       fill-rule="evenodd"
       id="path221" />
    <path
       d="m 866.969,333.057 c -0.719,0 -1.321,0.213 -1.805,0.64 -0.485,0.427 -0.875,1.042 -1.172,1.844 -0.297,0.802 -0.508,1.779 -0.633,2.93 -0.125,1.151 -0.187,2.45 -0.187,3.898 0,3.396 0.315,5.888 0.945,7.477 0.63,1.588 1.607,2.383 2.93,2.383 1.26,0 2.195,-0.748 2.804,-2.243 0.61,-1.494 0.914,-3.809 0.914,-6.945 0,-2.396 -0.156,-4.336 -0.468,-5.82 -0.313,-1.485 -0.748,-2.55 -1.305,-3.196 -0.557,-0.645 -1.232,-0.968 -2.023,-0.968 z m 0.078,-1.328 c 2.281,0 3.979,0.88 5.093,2.64 1.115,1.761 1.672,4.422 1.672,7.985 0,3.687 -0.596,6.476 -1.789,8.367 -1.192,1.89 -2.935,2.836 -5.226,2.836 -2.25,0 -3.925,-0.886 -5.024,-2.657 -1.099,-1.77 -1.648,-4.458 -1.648,-8.062 0,-1.917 0.169,-3.573 0.508,-4.969 0.338,-1.396 0.812,-2.549 1.421,-3.461 0.61,-0.911 1.342,-1.586 2.196,-2.023 0.854,-0.438 1.786,-0.656 2.797,-0.656 z"
       fill-rule="evenodd"
       id="path223" />
    <text
       fill="#000000"
       fill-opacity="0"
       font-family="Arial, Arial_MSFontService, sans-serif"
       font-size="21.8281px"
       x="860.125"
       y="350.828"
       id="text225">0</text>
    <path
       d="m 916.635,333.057 c -0.719,0 -1.32,0.213 -1.804,0.64 -0.485,0.427 -0.875,1.042 -1.172,1.844 -0.297,0.802 -0.508,1.779 -0.633,2.93 -0.125,1.151 -0.188,2.45 -0.188,3.898 0,3.396 0.315,5.888 0.946,7.477 0.63,1.588 1.606,2.383 2.929,2.383 1.261,0 2.196,-0.748 2.805,-2.243 0.609,-1.494 0.914,-3.809 0.914,-6.945 0,-2.396 -0.156,-4.336 -0.469,-5.82 -0.312,-1.485 -0.747,-2.55 -1.304,-3.196 -0.558,-0.645 -1.232,-0.968 -2.024,-0.968 z m 0.078,-1.328 c 2.282,0 3.98,0.88 5.094,2.64 1.115,1.761 1.672,4.422 1.672,7.985 0,3.687 -0.596,6.476 -1.789,8.367 -1.193,1.89 -2.935,2.836 -5.227,2.836 -2.25,0 -3.924,-0.886 -5.023,-2.657 -1.099,-1.77 -1.649,-4.458 -1.649,-8.062 0,-1.917 0.17,-3.573 0.508,-4.969 0.339,-1.396 0.813,-2.549 1.422,-3.461 0.61,-0.911 1.341,-1.586 2.195,-2.023 0.855,-0.438 1.787,-0.656 2.797,-0.656 z"
       fill-rule="evenodd"
       id="path227" />
    <text
       fill="#000000"
       fill-opacity="0"
       font-family="Arial, Arial_MSFontService, sans-serif"
       font-size="21.8281px"
       x="909.79102"
       y="350.828"
       id="text229">0</text>
    <path
       d="m 967.536,331.729 h 0.86 c -0.063,1 -0.094,2.385 -0.094,4.156 v 13.344 c 0,0.604 0.034,1.06 0.101,1.367 0.068,0.307 0.188,0.557 0.36,0.75 0.172,0.193 0.419,0.344 0.742,0.453 0.323,0.109 0.729,0.193 1.219,0.25 0.489,0.057 1.135,0.096 1.937,0.117 v 1.141 h -11.547 v -1.141 c 1.157,-0.052 1.982,-0.122 2.477,-0.211 0.495,-0.088 0.872,-0.221 1.133,-0.398 0.26,-0.177 0.45,-0.427 0.57,-0.75 0.12,-0.323 0.18,-0.849 0.18,-1.578 v -12.672 c 0,-0.417 -0.073,-0.722 -0.219,-0.914 -0.146,-0.193 -0.359,-0.289 -0.641,-0.289 -0.333,0 -0.807,0.171 -1.422,0.515 -0.614,0.344 -1.375,0.818 -2.281,1.422 l -0.687,-1.203 z"
       fill-rule="evenodd"
       id="path231" />
    <text
       fill="#000000"
       fill-opacity="0"
       font-family="Arial, Arial_MSFontService, sans-serif"
       font-size="21.5781px"
       x="960.224"
       y="350.60901"
       id="text233">1</text>
    <path
       d="m 1018.43,331.729 c 1.93,0 3.4,0.424 4.39,1.273 0.99,0.849 1.48,2.081 1.48,3.695 0,0.552 -0.05,1.06 -0.16,1.524 -0.11,0.463 -0.28,0.922 -0.52,1.375 -0.23,0.453 -0.55,0.94 -0.94,1.461 -0.4,0.521 -0.84,1.049 -1.32,1.586 -0.47,0.536 -1.3,1.429 -2.48,2.679 -1.98,2.094 -3.43,3.922 -4.36,5.485 h 5.89 c 0.51,0 0.92,-0.032 1.24,-0.094 0.31,-0.063 0.56,-0.167 0.75,-0.313 0.18,-0.145 0.33,-0.335 0.44,-0.57 0.11,-0.234 0.25,-0.596 0.41,-1.086 h 1.33 l -0.26,4.563 h -12.86 v -0.75 c 0.45,-1.094 1.05,-2.214 1.81,-3.36 0.76,-1.145 1.84,-2.494 3.23,-4.047 1.21,-1.333 2.08,-2.343 2.61,-3.031 0.59,-0.75 1.02,-1.398 1.31,-1.945 0.29,-0.547 0.49,-1.063 0.62,-1.547 0.12,-0.484 0.18,-0.971 0.18,-1.461 0,-0.781 -0.12,-1.471 -0.37,-2.07 -0.25,-0.599 -0.63,-1.071 -1.15,-1.414 -0.52,-0.344 -1.16,-0.516 -1.95,-0.516 -1.94,0 -3.26,1.083 -3.93,3.25 h -1.89 v -3 c 1.26,-0.594 2.44,-1.023 3.54,-1.289 1.09,-0.266 2.08,-0.398 2.96,-0.398 z"
       fill-rule="evenodd"
       id="path235" />
    <text
       fill="#000000"
       fill-opacity="0"
       font-family="Arial, Arial_MSFontService, sans-serif"
       font-size="21.5781px"
       x="1011.46"
       y="350.60901"
       id="text237">2</text>
  </g>
</svg>
