<?xml version="1.0" encoding="UTF-8" standalone="no"?>
<svg
   width="1280"
   height="620"
   overflow="hidden"
   version="1.1"
   id="svg335"
   sodipodi:docname="linear_systems-matrix_addition.svg"
   inkscape:version="1.2 (dc2aedaf03, 2022-05-15)"
   xmlns:inkscape="http://www.inkscape.org/namespaces/inkscape"
   xmlns:sodipodi="http://sodipodi.sourceforge.net/DTD/sodipodi-0.dtd"
   xmlns="http://www.w3.org/2000/svg"
   xmlns:svg="http://www.w3.org/2000/svg">
  <sodipodi:namedview
     id="namedview337"
     pagecolor="#ffffff"
     bordercolor="#000000"
     borderopacity="0.25"
     inkscape:showpageshadow="2"
     inkscape:pageopacity="0.0"
     inkscape:pagecheckerboard="0"
     inkscape:deskcolor="#d1d1d1"
     showgrid="false"
     inkscape:zoom="0.92709556"
     inkscape:cx="565.74535"
     inkscape:cy="496.17323"
     inkscape:window-width="2560"
     inkscape:window-height="1494"
     inkscape:window-x="-11"
     inkscape:window-y="-11"
     inkscape:window-maximized="1"
     inkscape:current-layer="g333" />
  <defs
     id="defs5">
    <clipPath
       id="clip0">
      <rect
         x="0"
         y="0"
         width="1280"
         height="720"
         id="rect2" />
    </clipPath>
  </defs>
  <g
     clip-path="url(#clip0)"
     id="g333"
     transform="translate(93.191009,-32.142307)">
    <rect
       x="0"
       y="0"
       width="1280"
       height="720"
       fill="#ffffff"
       id="rect7" />
    <text
       font-family="Calibri, Calibri_MSFontService, sans-serif"
       font-weight="400"
       font-size="43px"
       transform="translate(422.259,90)"
       id="text9">Matrix addition</text>
    <path
       d="M 154,194.717 C 154,186.037 161.037,179 169.717,179 h 103.566 c 8.68,0 15.717,7.037 15.717,15.717 v 90.562 c 0,8.68 -7.037,15.716 -15.717,15.716 H 169.717 c -8.68,0 -15.717,-7.036 -15.717,-15.716 z"
       fill="#e2f0d9"
       fill-rule="evenodd"
       id="path11" />
    <path
       d="m 173.647,187.798 h 0.86 c -0.063,1 -0.094,2.385 -0.094,4.156 v 13.344 c 0,0.604 0.034,1.06 0.101,1.367 0.068,0.307 0.188,0.557 0.36,0.75 0.172,0.193 0.419,0.344 0.742,0.453 0.323,0.109 0.729,0.193 1.219,0.25 0.489,0.057 1.135,0.096 1.937,0.117 v 1.141 h -11.547 v -1.141 c 1.157,-0.052 1.982,-0.122 2.477,-0.211 0.495,-0.088 0.872,-0.221 1.133,-0.398 0.26,-0.177 0.45,-0.427 0.57,-0.75 0.12,-0.323 0.18,-0.849 0.18,-1.578 v -12.672 c 0,-0.417 -0.073,-0.722 -0.219,-0.914 -0.146,-0.193 -0.359,-0.289 -0.641,-0.289 -0.333,0 -0.807,0.172 -1.422,0.515 -0.614,0.344 -1.375,0.818 -2.281,1.422 l -0.687,-1.203 z"
       fill-rule="evenodd"
       id="path13" />
    <text
       fill="#000000"
       fill-opacity="0"
       font-family="Arial, Arial_MSFontService, sans-serif"
       font-size="21.5781px"
       x="166.33501"
       y="206.679"
       id="text15">1</text>
    <path
       d="m 222.08,189.126 c -0.719,0 -1.321,0.213 -1.805,0.64 -0.485,0.428 -0.875,1.042 -1.172,1.844 -0.297,0.802 -0.508,1.779 -0.633,2.93 -0.125,1.151 -0.187,2.45 -0.187,3.898 0,3.396 0.315,5.888 0.945,7.477 0.63,1.588 1.607,2.383 2.93,2.383 1.26,0 2.195,-0.748 2.804,-2.242 0.61,-1.495 0.914,-3.81 0.914,-6.946 0,-2.396 -0.156,-4.336 -0.468,-5.82 -0.313,-1.484 -0.748,-2.55 -1.305,-3.195 -0.557,-0.646 -1.232,-0.969 -2.023,-0.969 z m 0.078,-1.328 c 2.281,0 3.979,0.88 5.093,2.64 1.115,1.761 1.672,4.422 1.672,7.985 0,3.687 -0.596,6.476 -1.789,8.367 -1.192,1.891 -2.935,2.836 -5.226,2.836 -2.25,0 -3.925,-0.886 -5.024,-2.656 -1.099,-1.771 -1.648,-4.459 -1.648,-8.063 0,-1.917 0.169,-3.573 0.508,-4.969 0.338,-1.395 0.812,-2.549 1.421,-3.461 0.61,-0.911 1.342,-1.586 2.196,-2.023 0.854,-0.438 1.786,-0.656 2.797,-0.656 z"
       fill-rule="evenodd"
       id="path17" />
    <text
       fill="#000000"
       fill-opacity="0"
       font-family="Arial, Arial_MSFontService, sans-serif"
       font-size="21.8281px"
       x="215.23599"
       y="206.897"
       id="text19">0</text>
    <path
       d="m 272.777,191.47 -6.109,9.703 v 0.218 h 6.109 v -3.89 c 0,-0.979 0.016,-2.076 0.047,-3.289 0.032,-1.214 0.068,-2.128 0.11,-2.742 z m 0.454,-3.532 h 2.234 v 13.453 h 0.328 c 0.604,0 1.037,-0.044 1.297,-0.132 0.26,-0.089 0.477,-0.245 0.648,-0.469 0.172,-0.224 0.331,-0.591 0.477,-1.102 h 1.187 l -0.187,3.219 h -3.75 v 2.563 c 0,0.698 0.023,1.208 0.07,1.531 0.047,0.323 0.125,0.578 0.235,0.765 0.109,0.188 0.27,0.344 0.484,0.469 0.214,0.125 0.56,0.25 1.039,0.375 v 0.766 h -6.344 v -0.766 c 0.646,-0.166 1.078,-0.351 1.297,-0.554 0.219,-0.204 0.362,-0.493 0.43,-0.868 0.068,-0.375 0.101,-0.948 0.101,-1.718 v -2.563 h -8.687 v -1.172 z"
       fill-rule="evenodd"
       id="path21" />
    <text
       fill="#000000"
       fill-opacity="0"
       font-family="Arial, Arial_MSFontService, sans-serif"
       font-size="21.4375px"
       x="264.09"
       y="206.696"
       id="text23">4</text>
    <path
       d="m 172.538,225.311 c 1.937,0 3.401,0.425 4.39,1.274 0.99,0.848 1.485,2.08 1.485,3.695 0,0.552 -0.055,1.06 -0.164,1.523 -0.11,0.464 -0.281,0.922 -0.516,1.375 -0.234,0.453 -0.549,0.94 -0.945,1.461 -0.396,0.521 -0.833,1.05 -1.313,1.586 -0.479,0.537 -1.307,1.43 -2.484,2.68 -1.979,2.094 -3.432,3.922 -4.359,5.484 h 5.89 c 0.511,0 0.922,-0.031 1.235,-0.094 0.312,-0.062 0.562,-0.166 0.75,-0.312 0.187,-0.146 0.336,-0.336 0.445,-0.57 0.109,-0.235 0.247,-0.597 0.414,-1.086 h 1.328 l -0.266,4.562 h -12.859 v -0.75 c 0.448,-1.094 1.052,-2.213 1.813,-3.359 0.76,-1.146 1.838,-2.495 3.234,-4.047 1.208,-1.333 2.078,-2.344 2.609,-3.031 0.584,-0.75 1.019,-1.399 1.305,-1.946 0.287,-0.546 0.492,-1.062 0.617,-1.546 0.125,-0.485 0.188,-0.972 0.188,-1.461 0,-0.782 -0.125,-1.472 -0.375,-2.071 -0.25,-0.599 -0.633,-1.07 -1.149,-1.414 -0.515,-0.344 -1.164,-0.515 -1.945,-0.515 -1.948,0 -3.26,1.083 -3.938,3.25 h -1.89 v -3 c 1.26,-0.594 2.44,-1.024 3.539,-1.289 1.099,-0.266 2.086,-0.399 2.961,-0.399 z"
       fill-rule="evenodd"
       id="path25" />
    <text
       fill="#000000"
       fill-opacity="0"
       font-family="Arial, Arial_MSFontService, sans-serif"
       font-size="21.5781px"
       x="165.569"
       y="244.192"
       id="text27">2</text>
    <path
       d="m 222.08,226.639 c -0.719,0 -1.321,0.214 -1.805,0.641 -0.485,0.427 -0.875,1.041 -1.172,1.844 -0.297,0.802 -0.508,1.778 -0.633,2.929 -0.125,1.151 -0.187,2.451 -0.187,3.899 0,3.396 0.315,5.888 0.945,7.476 0.63,1.589 1.607,2.383 2.93,2.383 1.26,0 2.195,-0.747 2.804,-2.242 0.61,-1.495 0.914,-3.81 0.914,-6.945 0,-2.396 -0.156,-4.336 -0.468,-5.821 -0.313,-1.484 -0.748,-2.549 -1.305,-3.195 -0.557,-0.646 -1.232,-0.969 -2.023,-0.969 z m 0.078,-1.328 c 2.281,0 3.979,0.88 5.093,2.641 1.115,1.76 1.672,4.422 1.672,7.984 0,3.688 -0.596,6.477 -1.789,8.367 -1.192,1.891 -2.935,2.836 -5.226,2.836 -2.25,0 -3.925,-0.885 -5.024,-2.656 -1.099,-1.771 -1.648,-4.458 -1.648,-8.063 0,-1.916 0.169,-3.572 0.508,-4.968 0.338,-1.396 0.812,-2.55 1.421,-3.461 0.61,-0.912 1.342,-1.586 2.196,-2.024 0.854,-0.437 1.786,-0.656 2.797,-0.656 z"
       fill-rule="evenodd"
       id="path29" />
    <text
       fill="#000000"
       fill-opacity="0"
       font-family="Arial, Arial_MSFontService, sans-serif"
       font-size="21.8281px"
       x="215.23599"
       y="244.411"
       id="text31">0</text>
    <path
       d="m 276.246,224.53 h 1.219 l -0.234,3.625 h -8.985 v 6.859 c 0.542,-0.229 1.13,-0.401 1.766,-0.515 0.635,-0.115 1.271,-0.172 1.906,-0.172 1.24,0 2.339,0.252 3.297,0.758 0.958,0.505 1.698,1.223 2.219,2.156 0.521,0.932 0.781,2.013 0.781,3.242 0,1.396 -0.292,2.594 -0.875,3.594 -0.583,1 -1.427,1.76 -2.531,2.281 -1.104,0.521 -2.412,0.781 -3.922,0.781 -1.802,0 -3.688,-0.37 -5.656,-1.109 v -3.313 h 1.89 c 0.313,1.063 0.784,1.844 1.414,2.344 0.63,0.5 1.446,0.75 2.446,0.75 1.385,0 2.432,-0.417 3.14,-1.25 0.709,-0.833 1.063,-2.078 1.063,-3.734 0,-1.104 -0.188,-2.019 -0.563,-2.742 -0.375,-0.724 -0.88,-1.248 -1.515,-1.571 -0.636,-0.323 -1.375,-0.484 -2.219,-0.484 -0.709,0 -1.318,0.044 -1.828,0.133 -0.511,0.088 -1.058,0.226 -1.641,0.414 l -1.25,-0.735 v -10.281 h 8.609 c 0.355,0 0.61,-0.029 0.766,-0.086 0.156,-0.057 0.281,-0.146 0.375,-0.265 0.094,-0.12 0.203,-0.347 0.328,-0.68 z"
       fill-rule="evenodd"
       id="path33" />
    <text
       fill="#000000"
       fill-opacity="0"
       font-family="Arial, Arial_MSFontService, sans-serif"
       font-size="22.6094px"
       x="265.23099"
       y="244.313"
       id="text35">5</text>
    <path
       d="m 172.475,262.824 c 1.177,0 2.209,0.183 3.094,0.547 0.886,0.365 1.563,0.888 2.031,1.571 0.469,0.682 0.703,1.497 0.703,2.445 0,0.885 -0.177,1.664 -0.531,2.336 -0.354,0.672 -0.851,1.258 -1.492,1.758 -0.641,0.5 -1.471,0.989 -2.492,1.468 v 0.141 c 0.635,0.115 1.247,0.31 1.836,0.586 0.588,0.276 1.112,0.633 1.57,1.07 0.458,0.438 0.826,0.961 1.102,1.571 0.276,0.609 0.414,1.304 0.414,2.086 0,1.208 -0.263,2.281 -0.789,3.218 -0.526,0.938 -1.331,1.677 -2.414,2.219 -1.084,0.542 -2.401,0.813 -3.954,0.813 -0.895,0 -1.861,-0.102 -2.898,-0.305 -1.036,-0.203 -1.987,-0.472 -2.852,-0.805 v -3.312 h 1.875 c 0.365,1.083 0.847,1.869 1.446,2.359 0.599,0.49 1.414,0.734 2.445,0.734 1.354,0 2.378,-0.369 3.07,-1.109 0.693,-0.74 1.039,-1.833 1.039,-3.281 0,-1.521 -0.458,-2.683 -1.375,-3.485 -0.916,-0.802 -2.26,-1.203 -4.031,-1.203 h -1.406 v -1.375 c 1.406,-0.083 2.591,-0.354 3.555,-0.812 0.963,-0.459 1.679,-1.047 2.148,-1.766 0.469,-0.719 0.703,-1.526 0.703,-2.422 0,-1.156 -0.307,-2.047 -0.922,-2.672 -0.614,-0.625 -1.51,-0.937 -2.687,-0.937 -0.979,0 -1.776,0.266 -2.391,0.797 -0.614,0.531 -1.067,1.344 -1.359,2.437 h -1.875 v -2.968 c 1.208,-0.573 2.338,-1 3.39,-1.282 1.053,-0.281 2.068,-0.422 3.047,-0.422 z"
       fill-rule="evenodd"
       id="path37" />
    <text
       fill="#000000"
       fill-opacity="0"
       font-family="Arial, Arial_MSFontService, sans-serif"
       font-size="21.8281px"
       x="165.80299"
       y="281.92401"
       id="text39">3</text>
    <path
       d="m 222.08,264.153 c -0.719,0 -1.321,0.213 -1.805,0.64 -0.485,0.427 -0.875,1.042 -1.172,1.844 -0.297,0.802 -0.508,1.779 -0.633,2.93 -0.125,1.151 -0.187,2.45 -0.187,3.898 0,3.396 0.315,5.888 0.945,7.477 0.63,1.588 1.607,2.382 2.93,2.382 1.26,0 2.195,-0.747 2.804,-2.242 0.61,-1.495 0.914,-3.81 0.914,-6.945 0,-2.396 -0.156,-4.336 -0.468,-5.82 -0.313,-1.485 -0.748,-2.55 -1.305,-3.196 -0.557,-0.646 -1.232,-0.968 -2.023,-0.968 z m 0.078,-1.329 c 2.281,0 3.979,0.881 5.093,2.641 1.115,1.76 1.672,4.422 1.672,7.984 0,3.688 -0.596,6.477 -1.789,8.368 -1.192,1.89 -2.935,2.836 -5.226,2.836 -2.25,0 -3.925,-0.886 -5.024,-2.657 -1.099,-1.771 -1.648,-4.458 -1.648,-8.062 0,-1.917 0.169,-3.573 0.508,-4.969 0.338,-1.396 0.812,-2.549 1.421,-3.461 0.61,-0.911 1.342,-1.586 2.196,-2.023 0.854,-0.438 1.786,-0.657 2.797,-0.657 z"
       fill-rule="evenodd"
       id="path41" />
    <text
       fill="#000000"
       fill-opacity="0"
       font-family="Arial, Arial_MSFontService, sans-serif"
       font-size="21.8281px"
       x="215.23599"
       y="281.92401"
       id="text43">0</text>
    <path
       d="m 272.465,273.153 c -0.51,0 -1.003,0.057 -1.477,0.171 -0.474,0.115 -0.919,0.282 -1.336,0.5 -0.416,0.219 -0.822,0.495 -1.218,0.829 -0.125,0.114 -0.219,0.234 -0.282,0.359 -0.104,0.198 -0.171,0.443 -0.203,0.734 -0.031,0.292 -0.047,0.782 -0.047,1.469 0,1.99 0.334,3.505 1,4.547 0.667,1.042 1.678,1.562 3.032,1.562 0.781,0 1.437,-0.135 1.968,-0.406 0.532,-0.271 0.961,-0.643 1.29,-1.117 0.328,-0.474 0.562,-1.031 0.703,-1.672 0.14,-0.641 0.211,-1.336 0.211,-2.086 0,-1.542 -0.318,-2.742 -0.954,-3.601 -0.635,-0.86 -1.531,-1.289 -2.687,-1.289 z m 4.016,-10.329 0.64,0.86 v 0.765 c -1.604,0 -3.026,0.344 -4.265,1.032 -1.24,0.687 -2.269,1.698 -3.086,3.031 -0.818,1.333 -1.394,2.917 -1.727,4.75 l 0.156,0.062 c 0.875,-0.625 1.737,-1.083 2.586,-1.375 0.849,-0.291 1.768,-0.437 2.758,-0.437 1.177,0 2.18,0.258 3.008,0.773 0.828,0.516 1.45,1.24 1.867,2.172 0.417,0.932 0.625,2.024 0.625,3.274 0,1.354 -0.26,2.549 -0.781,3.586 -0.521,1.036 -1.326,1.851 -2.414,2.445 -1.089,0.594 -2.43,0.891 -4.024,0.891 -2.281,0 -4.002,-0.709 -5.164,-2.125 -1.161,-1.417 -1.742,-3.506 -1.742,-6.266 0,-1.854 0.292,-3.589 0.875,-5.203 0.583,-1.615 1.412,-3.024 2.484,-4.227 1.073,-1.203 2.318,-2.151 3.735,-2.844 1.416,-0.692 2.906,-1.08 4.469,-1.164 z"
       fill-rule="evenodd"
       id="path45" />
    <text
       fill="#000000"
       fill-opacity="0"
       font-family="Arial, Arial_MSFontService, sans-serif"
       font-size="21.8281px"
       x="264.918"
       y="281.92401"
       id="text47">6</text>
    <path
       d="M 357,194.717 C 357,186.037 364.037,179 372.717,179 h 103.566 c 8.68,0 15.717,7.037 15.717,15.717 v 90.562 c 0,8.68 -7.037,15.716 -15.717,15.716 H 372.717 c -8.68,0 -15.717,-7.036 -15.717,-15.716 z"
       fill="#e2f0d9"
       fill-rule="evenodd"
       id="path49" />
    <path
       d="m 376.338,187.798 h 0.859 c -0.062,1 -0.094,2.385 -0.094,4.156 v 13.344 c 0,0.604 0.034,1.06 0.102,1.367 0.068,0.307 0.187,0.557 0.359,0.75 0.172,0.193 0.419,0.344 0.742,0.453 0.323,0.109 0.73,0.193 1.219,0.25 0.49,0.057 1.136,0.096 1.938,0.117 v 1.141 h -11.547 v -1.141 c 1.156,-0.052 1.982,-0.122 2.476,-0.211 0.495,-0.088 0.873,-0.221 1.133,-0.398 0.261,-0.177 0.451,-0.427 0.57,-0.75 0.12,-0.323 0.18,-0.849 0.18,-1.578 v -12.672 c 0,-0.417 -0.073,-0.722 -0.219,-0.914 -0.145,-0.193 -0.359,-0.289 -0.64,-0.289 -0.334,0 -0.808,0.172 -1.422,0.515 -0.615,0.344 -1.375,0.818 -2.281,1.422 l -0.688,-1.203 z"
       fill-rule="evenodd"
       id="path51" />
    <text
       fill="#000000"
       fill-opacity="0"
       font-family="Arial, Arial_MSFontService, sans-serif"
       font-size="21.5781px"
       x="369.02499"
       y="206.679"
       id="text53">1</text>
    <path
       d="m 424.77,189.126 c -0.719,0 -1.32,0.213 -1.805,0.64 -0.484,0.428 -0.875,1.042 -1.172,1.844 -0.297,0.802 -0.507,1.779 -0.632,2.93 -0.125,1.151 -0.188,2.45 -0.188,3.898 0,3.396 0.315,5.888 0.945,7.477 0.631,1.588 1.607,2.383 2.93,2.383 1.26,0 2.195,-0.748 2.805,-2.242 0.609,-1.495 0.914,-3.81 0.914,-6.946 0,-2.396 -0.156,-4.336 -0.469,-5.82 -0.312,-1.484 -0.747,-2.55 -1.305,-3.195 -0.557,-0.646 -1.231,-0.969 -2.023,-0.969 z m 0.078,-1.328 c 2.281,0 3.979,0.88 5.094,2.64 1.114,1.761 1.672,4.422 1.672,7.985 0,3.687 -0.597,6.476 -1.789,8.367 -1.193,1.891 -2.935,2.836 -5.227,2.836 -2.25,0 -3.924,-0.886 -5.023,-2.656 -1.099,-1.771 -1.649,-4.459 -1.649,-8.063 0,-1.917 0.169,-3.573 0.508,-4.969 0.339,-1.395 0.812,-2.549 1.422,-3.461 0.609,-0.911 1.341,-1.586 2.195,-2.023 0.854,-0.438 1.787,-0.656 2.797,-0.656 z"
       fill-rule="evenodd"
       id="path55" />
    <text
       fill="#000000"
       fill-opacity="0"
       font-family="Arial, Arial_MSFontService, sans-serif"
       font-size="21.8281px"
       x="417.92599"
       y="206.897"
       id="text57">0</text>
    <path
       d="m 474.437,189.126 c -0.719,0 -1.321,0.213 -1.805,0.64 -0.484,0.428 -0.875,1.042 -1.172,1.844 -0.297,0.802 -0.508,1.779 -0.633,2.93 -0.125,1.151 -0.187,2.45 -0.187,3.898 0,3.396 0.315,5.888 0.945,7.477 0.63,1.588 1.607,2.383 2.93,2.383 1.26,0 2.195,-0.748 2.804,-2.242 0.61,-1.495 0.914,-3.81 0.914,-6.946 0,-2.396 -0.156,-4.336 -0.468,-5.82 -0.313,-1.484 -0.748,-2.55 -1.305,-3.195 -0.557,-0.646 -1.232,-0.969 -2.023,-0.969 z m 0.078,-1.328 c 2.281,0 3.979,0.88 5.093,2.64 1.115,1.761 1.672,4.422 1.672,7.985 0,3.687 -0.596,6.476 -1.789,8.367 -1.192,1.891 -2.935,2.836 -5.226,2.836 -2.25,0 -3.925,-0.886 -5.024,-2.656 -1.099,-1.771 -1.648,-4.459 -1.648,-8.063 0,-1.917 0.169,-3.573 0.508,-4.969 0.338,-1.395 0.812,-2.549 1.422,-3.461 0.609,-0.911 1.341,-1.586 2.195,-2.023 0.854,-0.438 1.786,-0.656 2.797,-0.656 z"
       fill-rule="evenodd"
       id="path59" />
    <text
       fill="#000000"
       fill-opacity="0"
       font-family="Arial, Arial_MSFontService, sans-serif"
       font-size="21.8281px"
       x="467.59299"
       y="206.897"
       id="text61">0</text>
    <path
       d="m 375.103,226.639 c -0.718,0 -1.32,0.214 -1.804,0.641 -0.485,0.427 -0.875,1.041 -1.172,1.844 -0.297,0.802 -0.508,1.778 -0.633,2.929 -0.125,1.151 -0.188,2.451 -0.188,3.899 0,3.396 0.315,5.888 0.946,7.476 0.63,1.589 1.606,2.383 2.929,2.383 1.261,0 2.196,-0.747 2.805,-2.242 0.609,-1.495 0.914,-3.81 0.914,-6.945 0,-2.396 -0.156,-4.336 -0.469,-5.821 -0.312,-1.484 -0.747,-2.549 -1.304,-3.195 -0.558,-0.646 -1.232,-0.969 -2.024,-0.969 z m 0.078,-1.328 c 2.282,0 3.98,0.88 5.094,2.641 1.115,1.76 1.672,4.422 1.672,7.984 0,3.688 -0.596,6.477 -1.789,8.367 -1.193,1.891 -2.935,2.836 -5.227,2.836 -2.25,0 -3.924,-0.885 -5.023,-2.656 -1.099,-1.771 -1.648,-4.458 -1.648,-8.063 0,-1.916 0.169,-3.572 0.507,-4.968 0.339,-1.396 0.813,-2.55 1.422,-3.461 0.61,-0.912 1.341,-1.586 2.196,-2.024 0.854,-0.437 1.786,-0.656 2.796,-0.656 z"
       fill-rule="evenodd"
       id="path63" />
    <text
       fill="#000000"
       fill-opacity="0"
       font-family="Arial, Arial_MSFontService, sans-serif"
       font-size="21.8281px"
       x="368.26001"
       y="244.411"
       id="text65">0</text>
    <path
       d="m 426.004,225.311 h 0.86 c -0.063,1 -0.094,2.385 -0.094,4.156 v 13.344 c 0,0.604 0.034,1.06 0.101,1.367 0.068,0.308 0.188,0.558 0.36,0.75 0.172,0.193 0.419,0.344 0.742,0.453 0.323,0.11 0.729,0.193 1.219,0.25 0.489,0.058 1.135,0.097 1.937,0.118 v 1.14 h -11.547 v -1.14 c 1.157,-0.053 1.982,-0.123 2.477,-0.211 0.495,-0.089 0.872,-0.222 1.133,-0.399 0.26,-0.177 0.45,-0.427 0.57,-0.75 0.12,-0.323 0.18,-0.849 0.18,-1.578 v -12.672 c 0,-0.416 -0.073,-0.721 -0.219,-0.914 -0.146,-0.193 -0.359,-0.289 -0.641,-0.289 -0.333,0 -0.807,0.172 -1.421,0.516 -0.615,0.343 -1.375,0.817 -2.282,1.422 l -0.687,-1.204 z"
       fill-rule="evenodd"
       id="path67" />
    <text
       fill="#000000"
       fill-opacity="0"
       font-family="Arial, Arial_MSFontService, sans-serif"
       font-size="21.5781px"
       x="418.69199"
       y="244.192"
       id="text69">1</text>
    <path
       d="m 474.437,226.639 c -0.719,0 -1.321,0.214 -1.805,0.641 -0.484,0.427 -0.875,1.041 -1.172,1.844 -0.297,0.802 -0.508,1.778 -0.633,2.929 -0.125,1.151 -0.187,2.451 -0.187,3.899 0,3.396 0.315,5.888 0.945,7.476 0.63,1.589 1.607,2.383 2.93,2.383 1.26,0 2.195,-0.747 2.804,-2.242 0.61,-1.495 0.914,-3.81 0.914,-6.945 0,-2.396 -0.156,-4.336 -0.468,-5.821 -0.313,-1.484 -0.748,-2.549 -1.305,-3.195 -0.557,-0.646 -1.232,-0.969 -2.023,-0.969 z m 0.078,-1.328 c 2.281,0 3.979,0.88 5.093,2.641 1.115,1.76 1.672,4.422 1.672,7.984 0,3.688 -0.596,6.477 -1.789,8.367 -1.192,1.891 -2.935,2.836 -5.226,2.836 -2.25,0 -3.925,-0.885 -5.024,-2.656 -1.099,-1.771 -1.648,-4.458 -1.648,-8.063 0,-1.916 0.169,-3.572 0.508,-4.968 0.338,-1.396 0.812,-2.55 1.422,-3.461 0.609,-0.912 1.341,-1.586 2.195,-2.024 0.854,-0.437 1.786,-0.656 2.797,-0.656 z"
       fill-rule="evenodd"
       id="path71" />
    <text
       fill="#000000"
       fill-opacity="0"
       font-family="Arial, Arial_MSFontService, sans-serif"
       font-size="21.8281px"
       x="467.59299"
       y="244.411"
       id="text73">0</text>
    <path
       d="m 375.103,264.153 c -0.718,0 -1.32,0.213 -1.804,0.64 -0.485,0.427 -0.875,1.042 -1.172,1.844 -0.297,0.802 -0.508,1.779 -0.633,2.93 -0.125,1.151 -0.188,2.45 -0.188,3.898 0,3.396 0.315,5.888 0.946,7.477 0.63,1.588 1.606,2.382 2.929,2.382 1.261,0 2.196,-0.747 2.805,-2.242 0.609,-1.495 0.914,-3.81 0.914,-6.945 0,-2.396 -0.156,-4.336 -0.469,-5.82 -0.312,-1.485 -0.747,-2.55 -1.304,-3.196 -0.558,-0.646 -1.232,-0.968 -2.024,-0.968 z m 0.078,-1.329 c 2.282,0 3.98,0.881 5.094,2.641 1.115,1.76 1.672,4.422 1.672,7.984 0,3.688 -0.596,6.477 -1.789,8.368 -1.193,1.89 -2.935,2.836 -5.227,2.836 -2.25,0 -3.924,-0.886 -5.023,-2.657 -1.099,-1.771 -1.648,-4.458 -1.648,-8.062 0,-1.917 0.169,-3.573 0.507,-4.969 0.339,-1.396 0.813,-2.549 1.422,-3.461 0.61,-0.911 1.341,-1.586 2.196,-2.023 0.854,-0.438 1.786,-0.657 2.796,-0.657 z"
       fill-rule="evenodd"
       id="path75" />
    <text
       fill="#000000"
       fill-opacity="0"
       font-family="Arial, Arial_MSFontService, sans-serif"
       font-size="21.8281px"
       x="368.26001"
       y="281.92401"
       id="text77">0</text>
    <path
       d="m 424.77,264.153 c -0.719,0 -1.32,0.213 -1.805,0.64 -0.484,0.427 -0.875,1.042 -1.172,1.844 -0.297,0.802 -0.507,1.779 -0.632,2.93 -0.125,1.151 -0.188,2.45 -0.188,3.898 0,3.396 0.315,5.888 0.945,7.477 0.631,1.588 1.607,2.382 2.93,2.382 1.26,0 2.195,-0.747 2.805,-2.242 0.609,-1.495 0.914,-3.81 0.914,-6.945 0,-2.396 -0.156,-4.336 -0.469,-5.82 -0.312,-1.485 -0.747,-2.55 -1.305,-3.196 -0.557,-0.646 -1.231,-0.968 -2.023,-0.968 z m 0.078,-1.329 c 2.281,0 3.979,0.881 5.094,2.641 1.114,1.76 1.672,4.422 1.672,7.984 0,3.688 -0.597,6.477 -1.789,8.368 -1.193,1.89 -2.935,2.836 -5.227,2.836 -2.25,0 -3.924,-0.886 -5.023,-2.657 -1.099,-1.771 -1.649,-4.458 -1.649,-8.062 0,-1.917 0.169,-3.573 0.508,-4.969 0.339,-1.396 0.812,-2.549 1.422,-3.461 0.609,-0.911 1.341,-1.586 2.195,-2.023 0.854,-0.438 1.787,-0.657 2.797,-0.657 z"
       fill-rule="evenodd"
       id="path79" />
    <text
       fill="#000000"
       fill-opacity="0"
       font-family="Arial, Arial_MSFontService, sans-serif"
       font-size="21.8281px"
       x="417.92599"
       y="281.92401"
       id="text81">0</text>
    <path
       d="m 475.671,262.824 h 0.859 c -0.062,1 -0.093,2.386 -0.093,4.157 v 13.343 c 0,0.605 0.033,1.06 0.101,1.368 0.068,0.307 0.188,0.557 0.36,0.75 0.171,0.192 0.419,0.343 0.742,0.453 0.323,0.109 0.729,0.192 1.218,0.25 0.49,0.057 1.136,0.096 1.938,0.117 v 1.141 h -11.547 v -1.141 c 1.156,-0.052 1.982,-0.123 2.477,-0.211 0.494,-0.089 0.872,-0.221 1.132,-0.398 0.261,-0.178 0.451,-0.428 0.571,-0.75 0.12,-0.323 0.179,-0.849 0.179,-1.579 v -12.671 c 0,-0.417 -0.072,-0.722 -0.218,-0.915 -0.146,-0.192 -0.36,-0.289 -0.641,-0.289 -0.333,0 -0.807,0.172 -1.422,0.516 -0.614,0.344 -1.375,0.818 -2.281,1.422 l -0.688,-1.203 z"
       fill-rule="evenodd"
       id="path83" />
    <text
       fill="#000000"
       fill-opacity="0"
       font-family="Arial, Arial_MSFontService, sans-serif"
       font-size="21.5781px"
       x="468.358"
       y="281.70499"
       id="text85">1</text>
    <text
       font-family="Calibri, Calibri_MSFontService, sans-serif"
       font-weight="400"
       font-size="43px"
       transform="translate(211.172,163)"
       id="text109">A<tspan
   font-size="43px"
   x="202.69"
   y="0"
   id="tspan87">B</tspan><tspan
   font-size="43px"
   x="-46.325901"
   y="314"
   id="tspan89">[c</tspan><tspan
   font-size="28px"
   x="-15.1592"
   y="324"
   id="tspan91">i, j</tspan><tspan
   font-size="43px"
   x="11.8408"
   y="314"
   id="tspan93">] = [a</tspan><tspan
   font-size="28px"
   x="99.340797"
   y="324"
   id="tspan95">i, j</tspan><tspan
   font-size="43px"
   x="126.341"
   y="314"
   id="tspan97">]</tspan><tspan
   font-size="43px"
   x="146.007"
   y="314"
   id="tspan99">+ [b</tspan><tspan
   font-size="28px"
   x="212.674"
   y="324"
   id="tspan101">i, j</tspan><tspan
   font-size="43px"
   x="239.674"
   y="314"
   id="tspan103">]</tspan><tspan
   font-size="43px"
   x="101.294"
   y="87"
   id="tspan105">+</tspan><tspan
   font-size="43px"
   x="302.638"
   y="87"
   id="tspan107">=</tspan></text>
    <path
       d="M 557,194.717 C 557,186.037 564.037,179 572.717,179 h 361.566 c 8.68,0 15.717,7.037 15.717,15.717 v 90.566 C 950,293.963 942.963,301 934.283,301 H 572.717 C 564.037,301 557,293.963 557,285.283 Z"
       fill="#e2f0d9"
       fill-rule="evenodd"
       id="path111" />
    <path
       d="m 582.489,185.42 0.422,1.203 c -2.437,0.803 -4.242,2.368 -5.414,4.696 -1.172,2.328 -1.758,5.252 -1.758,8.773 0,3.646 0.586,6.651 1.758,9.016 1.172,2.364 2.961,3.948 5.367,4.75 l -0.375,1.203 c -3.052,-0.802 -5.39,-2.529 -7.015,-5.18 -1.625,-2.651 -2.438,-5.862 -2.438,-9.633 0,-3.76 0.815,-6.971 2.446,-9.632 1.63,-2.662 3.966,-4.394 7.007,-5.196 z"
       fill-rule="evenodd"
       id="path113" />
    <text
       fill="#000000"
       fill-opacity="0"
       font-family="Arial, Arial_MSFontService, sans-serif"
       font-size="29.6406px"
       x="573.03601"
       y="211.356"
       id="text115">(</text>
    <path
       d="m 593.651,186.42 h 0.859 c -0.062,1 -0.094,2.386 -0.094,4.157 v 13.343 c 0,0.605 0.034,1.06 0.102,1.368 0.068,0.307 0.188,0.557 0.359,0.75 0.172,0.192 0.42,0.343 0.743,0.453 0.323,0.109 0.729,0.192 1.218,0.25 0.49,0.057 1.136,0.096 1.938,0.117 v 1.14 h -11.547 v -1.14 c 1.156,-0.052 1.982,-0.123 2.477,-0.211 0.494,-0.089 0.872,-0.221 1.132,-0.399 0.261,-0.177 0.451,-0.427 0.571,-0.75 0.119,-0.322 0.179,-0.848 0.179,-1.578 v -12.672 c 0,-0.416 -0.073,-0.721 -0.218,-0.914 -0.146,-0.192 -0.36,-0.289 -0.641,-0.289 -0.333,0 -0.807,0.172 -1.422,0.516 -0.614,0.344 -1.375,0.818 -2.281,1.422 l -0.688,-1.203 z"
       fill-rule="evenodd"
       id="path117" />
    <text
       fill="#000000"
       fill-opacity="0"
       font-family="Arial, Arial_MSFontService, sans-serif"
       font-size="21.5781px"
       x="586.33801"
       y="205.30099"
       id="text119">1</text>
    <path
       d="m 619.181,188.811 h 2.219 v 9 h 8.515 v 2.078 H 621.4 v 9 h -2.219 v -9 h -8.516 v -2.078 h 8.516 z"
       fill-rule="evenodd"
       id="path121" />
    <text
       fill="#000000"
       fill-opacity="0"
       font-family="Arial, Arial_MSFontService, sans-serif"
       font-size="20.0781px"
       x="610.66498"
       y="206.379"
       id="text123">+</text>
    <path
       d="m 649.378,186.42 h 0.859 c -0.063,1 -0.094,2.386 -0.094,4.157 v 13.343 c 0,0.605 0.034,1.06 0.102,1.368 0.067,0.307 0.187,0.557 0.359,0.75 0.172,0.192 0.419,0.343 0.742,0.453 0.323,0.109 0.729,0.192 1.219,0.25 0.49,0.057 1.135,0.096 1.938,0.117 v 1.14 h -11.547 v -1.14 c 1.156,-0.052 1.981,-0.123 2.476,-0.211 0.495,-0.089 0.873,-0.221 1.133,-0.399 0.26,-0.177 0.451,-0.427 0.57,-0.75 0.12,-0.322 0.18,-0.848 0.18,-1.578 v -12.672 c 0,-0.416 -0.073,-0.721 -0.219,-0.914 -0.146,-0.192 -0.359,-0.289 -0.64,-0.289 -0.334,0 -0.808,0.172 -1.422,0.516 -0.615,0.344 -1.375,0.818 -2.281,1.422 l -0.688,-1.203 z"
       fill-rule="evenodd"
       id="path125" />
    <text
       fill="#000000"
       fill-opacity="0"
       font-family="Arial, Arial_MSFontService, sans-serif"
       font-size="21.5781px"
       x="642.065"
       y="205.30099"
       id="text127">1</text>
    <path
       d="m 657.966,185.42 c 3.042,0.802 5.378,2.534 7.008,5.196 1.63,2.661 2.445,5.872 2.445,9.632 0,3.771 -0.812,6.982 -2.437,9.633 -1.625,2.651 -3.964,4.378 -7.016,5.18 l -0.375,-1.203 c 2.406,-0.802 4.195,-2.386 5.367,-4.75 1.172,-2.365 1.758,-5.37 1.758,-9.016 0,-3.521 -0.583,-6.445 -1.75,-8.773 -1.167,-2.328 -2.974,-3.893 -5.422,-4.696 z"
       fill-rule="evenodd"
       id="path129" />
    <text
       fill="#000000"
       fill-opacity="0"
       font-family="Arial, Arial_MSFontService, sans-serif"
       font-size="29.6406px"
       x="657.54401"
       y="211.356"
       id="text131">)</text>
    <path
       d="m 724.256,187.748 c -0.718,0 -1.32,0.214 -1.804,0.641 -0.485,0.427 -0.875,1.042 -1.172,1.844 -0.297,0.802 -0.508,1.778 -0.633,2.93 -0.125,1.151 -0.187,2.45 -0.187,3.898 0,3.396 0.315,5.888 0.945,7.477 0.63,1.588 1.607,2.382 2.93,2.382 1.26,0 2.195,-0.747 2.804,-2.242 0.61,-1.495 0.914,-3.81 0.914,-6.945 0,-2.396 -0.156,-4.336 -0.468,-5.82 -0.313,-1.485 -0.748,-2.55 -1.305,-3.196 -0.557,-0.646 -1.232,-0.969 -2.024,-0.969 z m 0.079,-1.328 c 2.281,0 3.979,0.881 5.093,2.641 1.115,1.76 1.672,4.422 1.672,7.984 0,3.688 -0.596,6.477 -1.789,8.368 -1.193,1.89 -2.935,2.835 -5.226,2.835 -2.25,0 -3.925,-0.885 -5.024,-2.656 -1.099,-1.771 -1.648,-4.458 -1.648,-8.062 0,-1.917 0.169,-3.573 0.507,-4.969 0.339,-1.396 0.813,-2.55 1.422,-3.461 0.61,-0.911 1.341,-1.586 2.196,-2.023 0.854,-0.438 1.786,-0.657 2.797,-0.657 z m -9.672,-1 0.422,1.203 c -2.438,0.803 -4.243,2.368 -5.415,4.696 -1.171,2.328 -1.757,5.252 -1.757,8.773 0,3.646 0.586,6.651 1.757,9.016 1.172,2.364 2.961,3.948 5.368,4.75 l -0.375,1.203 c -3.052,-0.802 -5.391,-2.529 -7.016,-5.18 -1.625,-2.651 -2.437,-5.862 -2.437,-9.633 0,-3.76 0.815,-6.971 2.445,-9.632 1.63,-2.662 3.966,-4.394 7.008,-5.196 z"
       fill-rule="evenodd"
       id="path133" />
    <text
       fill="#000000"
       fill-opacity="0"
       font-family="Arial, Arial_MSFontService, sans-serif"
       font-size="29.6406px"
       x="705.21002"
       y="211.356"
       id="text135">(0</text>
    <path
       d="m 751.241,188.811 h 2.219 v 9 h 8.515 v 2.078 h -8.515 v 9 h -2.219 v -9 h -8.516 v -2.078 h 8.516 z"
       fill-rule="evenodd"
       id="path137" />
    <text
       fill="#000000"
       fill-opacity="0"
       font-family="Arial, Arial_MSFontService, sans-serif"
       font-size="20.0781px"
       x="742.72498"
       y="206.379"
       id="text139">+</text>
    <path
       d="m 780.09,187.748 c -0.719,0 -1.321,0.214 -1.805,0.641 -0.484,0.427 -0.875,1.042 -1.172,1.844 -0.297,0.802 -0.508,1.778 -0.633,2.93 -0.125,1.151 -0.187,2.45 -0.187,3.898 0,3.396 0.315,5.888 0.945,7.477 0.63,1.588 1.607,2.382 2.93,2.382 1.26,0 2.195,-0.747 2.805,-2.242 0.609,-1.495 0.914,-3.81 0.914,-6.945 0,-2.396 -0.157,-4.336 -0.469,-5.82 -0.313,-1.485 -0.747,-2.55 -1.305,-3.196 -0.557,-0.646 -1.232,-0.969 -2.023,-0.969 z m 0.078,-1.328 c 2.281,0 3.979,0.881 5.094,2.641 1.114,1.76 1.672,4.422 1.672,7.984 0,3.688 -0.597,6.477 -1.79,8.368 -1.192,1.89 -2.934,2.835 -5.226,2.835 -2.25,0 -3.925,-0.885 -5.024,-2.656 -1.098,-1.771 -1.648,-4.458 -1.648,-8.062 0,-1.917 0.169,-3.573 0.508,-4.969 0.338,-1.396 0.812,-2.55 1.422,-3.461 0.609,-0.911 1.341,-1.586 2.195,-2.023 0.854,-0.438 1.786,-0.657 2.797,-0.657 z m 10.078,-1 c 3.042,0.802 5.378,2.534 7.008,5.196 1.63,2.661 2.445,5.872 2.445,9.632 0,3.771 -0.812,6.982 -2.437,9.633 -1.625,2.651 -3.964,4.378 -7.016,5.18 l -0.375,-1.203 c 2.406,-0.802 4.195,-2.386 5.367,-4.75 1.172,-2.365 1.758,-5.37 1.758,-9.016 0,-3.521 -0.583,-6.445 -1.75,-8.773 -1.167,-2.328 -2.974,-3.893 -5.422,-4.696 z"
       fill-rule="evenodd"
       id="path141" />
    <text
       fill="#000000"
       fill-opacity="0"
       font-family="Arial, Arial_MSFontService, sans-serif"
       font-size="29.6406px"
       x="773.24597"
       y="211.356"
       id="text143">0)</text>
    <path
       d="m 846.609,185.42 0.422,1.203 c -2.437,0.803 -4.242,2.368 -5.414,4.696 -1.172,2.328 -1.758,5.252 -1.758,8.773 0,3.646 0.586,6.651 1.758,9.016 1.172,2.364 2.961,3.948 5.367,4.75 l -0.375,1.203 c -3.052,-0.802 -5.39,-2.529 -7.015,-5.18 -1.625,-2.651 -2.438,-5.862 -2.438,-9.633 0,-3.76 0.815,-6.971 2.446,-9.632 1.63,-2.662 3.966,-4.394 7.007,-5.196 z"
       fill-rule="evenodd"
       id="path145" />
    <text
       fill="#000000"
       fill-opacity="0"
       font-family="Arial, Arial_MSFontService, sans-serif"
       font-size="29.6406px"
       x="837.15601"
       y="211.356"
       id="text147">(</text>
    <path
       d="m 857.568,190.092 -6.11,9.703 v 0.219 h 6.11 v -3.891 c 0,-0.979 0.015,-2.075 0.047,-3.289 0.031,-1.213 0.067,-2.127 0.109,-2.742 z m 0.453,-3.531 h 2.234 v 13.453 h 0.328 c 0.605,0 1.037,-0.044 1.297,-0.133 0.261,-0.088 0.477,-0.245 0.649,-0.468 0.172,-0.224 0.33,-0.592 0.476,-1.102 h 1.188 l -0.188,3.219 h -3.75 v 2.562 c 0,0.698 0.024,1.209 0.071,1.531 0.046,0.323 0.125,0.579 0.234,0.766 0.109,0.188 0.271,0.344 0.484,0.469 0.214,0.125 0.56,0.25 1.039,0.375 v 0.765 h -6.343 v -0.765 c 0.645,-0.167 1.078,-0.352 1.296,-0.555 0.219,-0.203 0.362,-0.492 0.43,-0.867 0.068,-0.375 0.102,-0.948 0.102,-1.719 v -2.562 h -8.688 v -1.172 z"
       fill-rule="evenodd"
       id="path149" />
    <text
       fill="#000000"
       fill-opacity="0"
       font-family="Arial, Arial_MSFontService, sans-serif"
       font-size="21.4375px"
       x="848.88"
       y="205.319"
       id="text151">4</text>
    <path
       d="m 883.301,188.811 h 2.219 v 9 h 8.515 v 2.078 h -8.515 v 9 h -2.219 v -9 h -8.516 v -2.078 h 8.516 z"
       fill-rule="evenodd"
       id="path153" />
    <text
       fill="#000000"
       fill-opacity="0"
       font-family="Arial, Arial_MSFontService, sans-serif"
       font-size="20.0781px"
       x="874.78497"
       y="206.379"
       id="text155">+</text>
    <path
       d="m 912.263,187.748 c -0.719,0 -1.32,0.214 -1.805,0.641 -0.484,0.427 -0.875,1.042 -1.171,1.844 -0.297,0.802 -0.508,1.778 -0.633,2.93 -0.125,1.151 -0.188,2.45 -0.188,3.898 0,3.396 0.315,5.888 0.946,7.477 0.63,1.588 1.606,2.382 2.929,2.382 1.261,0 2.196,-0.747 2.805,-2.242 0.609,-1.495 0.914,-3.81 0.914,-6.945 0,-2.396 -0.156,-4.336 -0.469,-5.82 -0.312,-1.485 -0.747,-2.55 -1.304,-3.196 -0.558,-0.646 -1.232,-0.969 -2.024,-0.969 z m 0.078,-1.328 c 2.281,0 3.979,0.881 5.094,2.641 1.115,1.76 1.672,4.422 1.672,7.984 0,3.688 -0.597,6.477 -1.789,8.368 -1.193,1.89 -2.935,2.835 -5.227,2.835 -2.25,0 -3.924,-0.885 -5.023,-2.656 -1.099,-1.771 -1.649,-4.458 -1.649,-8.062 0,-1.917 0.17,-3.573 0.508,-4.969 0.339,-1.396 0.813,-2.55 1.422,-3.461 0.609,-0.911 1.341,-1.586 2.195,-2.023 0.855,-0.438 1.787,-0.657 2.797,-0.657 z"
       fill-rule="evenodd"
       id="path157" />
    <text
       fill="#000000"
       fill-opacity="0"
       font-family="Arial, Arial_MSFontService, sans-serif"
       font-size="21.8281px"
       x="905.41901"
       y="205.52"
       id="text159">0</text>
    <path
       d="m 922.086,185.42 c 3.042,0.802 5.378,2.534 7.008,5.196 1.63,2.661 2.445,5.872 2.445,9.632 0,3.771 -0.812,6.982 -2.437,9.633 -1.625,2.651 -3.964,4.378 -7.016,5.18 l -0.375,-1.203 c 2.406,-0.802 4.195,-2.386 5.367,-4.75 1.172,-2.365 1.758,-5.37 1.758,-9.016 0,-3.521 -0.583,-6.445 -1.75,-8.773 -1.167,-2.328 -2.974,-3.893 -5.422,-4.696 z"
       fill-rule="evenodd"
       id="path161" />
    <text
       fill="#000000"
       fill-opacity="0"
       font-family="Arial, Arial_MSFontService, sans-serif"
       font-size="29.6406px"
       x="921.664"
       y="211.356"
       id="text163">)</text>
    <path
       d="m 582.489,225.26 0.422,1.203 c -2.437,0.803 -4.242,2.368 -5.414,4.696 -1.172,2.328 -1.758,5.252 -1.758,8.773 0,3.646 0.586,6.651 1.758,9.016 1.172,2.364 2.961,3.948 5.367,4.75 l -0.375,1.203 c -3.052,-0.802 -5.39,-2.529 -7.015,-5.18 -1.625,-2.651 -2.438,-5.862 -2.438,-9.633 0,-3.76 0.815,-6.971 2.446,-9.632 1.63,-2.662 3.966,-4.394 7.007,-5.196 z"
       fill-rule="evenodd"
       id="path165" />
    <text
       fill="#000000"
       fill-opacity="0"
       font-family="Arial, Arial_MSFontService, sans-serif"
       font-size="29.6406px"
       x="573.03601"
       y="251.196"
       id="text167">(</text>
    <path
       d="m 592.541,226.26 c 1.938,0 3.402,0.425 4.391,1.274 0.99,0.849 1.484,2.081 1.484,3.695 0,0.552 -0.054,1.06 -0.164,1.524 -0.109,0.463 -0.281,0.921 -0.515,1.375 -0.235,0.453 -0.55,0.94 -0.946,1.46 -0.395,0.521 -0.833,1.05 -1.312,1.586 -0.479,0.537 -1.307,1.43 -2.484,2.68 -1.98,2.094 -3.433,3.922 -4.36,5.484 h 5.891 c 0.51,0 0.922,-0.031 1.234,-0.093 0.313,-0.063 0.563,-0.167 0.75,-0.313 0.188,-0.146 0.336,-0.336 0.446,-0.57 0.109,-0.234 0.247,-0.596 0.414,-1.086 h 1.328 l -0.266,4.562 h -12.859 v -0.75 c 0.448,-1.093 1.052,-2.213 1.812,-3.359 0.761,-1.146 1.839,-2.495 3.235,-4.047 1.208,-1.333 2.078,-2.344 2.609,-3.031 0.583,-0.75 1.018,-1.398 1.305,-1.945 0.286,-0.547 0.492,-1.063 0.617,-1.547 0.125,-0.485 0.187,-0.972 0.187,-1.461 0,-0.781 -0.125,-1.471 -0.375,-2.07 -0.25,-0.599 -0.632,-1.071 -1.148,-1.415 -0.516,-0.343 -1.164,-0.515 -1.945,-0.515 -1.948,0 -3.261,1.083 -3.938,3.25 h -1.891 v -3 c 1.261,-0.594 2.441,-1.024 3.54,-1.289 1.098,-0.266 2.085,-0.399 2.96,-0.399 z"
       fill-rule="evenodd"
       id="path169" />
    <text
       fill="#000000"
       fill-opacity="0"
       font-family="Arial, Arial_MSFontService, sans-serif"
       font-size="21.5781px"
       x="585.573"
       y="245.14101"
       id="text171">2</text>
    <path
       d="m 619.181,228.651 h 2.219 v 9 h 8.515 v 2.078 H 621.4 v 9 h -2.219 v -9 h -8.516 v -2.078 h 8.516 z"
       fill-rule="evenodd"
       id="path173" />
    <text
       fill="#000000"
       fill-opacity="0"
       font-family="Arial, Arial_MSFontService, sans-serif"
       font-size="20.0781px"
       x="610.66498"
       y="246.21899"
       id="text175">+</text>
    <path
       d="m 648.143,227.588 c -0.719,0 -1.32,0.214 -1.805,0.641 -0.484,0.427 -0.875,1.042 -1.171,1.844 -0.297,0.802 -0.508,1.779 -0.633,2.93 -0.125,1.151 -0.188,2.45 -0.188,3.898 0,3.396 0.315,5.888 0.946,7.477 0.63,1.588 1.606,2.382 2.929,2.382 1.261,0 2.196,-0.747 2.805,-2.242 0.609,-1.495 0.914,-3.81 0.914,-6.945 0,-2.396 -0.156,-4.336 -0.469,-5.82 -0.312,-1.485 -0.747,-2.55 -1.304,-3.196 -0.558,-0.646 -1.232,-0.969 -2.024,-0.969 z m 0.078,-1.328 c 2.282,0 3.979,0.881 5.094,2.641 1.115,1.76 1.672,4.422 1.672,7.984 0,3.688 -0.596,6.477 -1.789,8.368 -1.193,1.89 -2.935,2.835 -5.227,2.835 -2.25,0 -3.924,-0.885 -5.023,-2.656 -1.099,-1.771 -1.649,-4.458 -1.649,-8.062 0,-1.917 0.17,-3.573 0.508,-4.969 0.339,-1.396 0.813,-2.549 1.422,-3.461 0.609,-0.911 1.341,-1.586 2.195,-2.023 0.855,-0.438 1.787,-0.657 2.797,-0.657 z"
       fill-rule="evenodd"
       id="path177" />
    <text
       fill="#000000"
       fill-opacity="0"
       font-family="Arial, Arial_MSFontService, sans-serif"
       font-size="21.8281px"
       x="641.29901"
       y="245.36"
       id="text179">0</text>
    <path
       d="m 657.966,225.26 c 3.042,0.802 5.378,2.534 7.008,5.196 1.63,2.661 2.445,5.872 2.445,9.632 0,3.771 -0.812,6.982 -2.437,9.633 -1.625,2.651 -3.964,4.378 -7.016,5.18 l -0.375,-1.203 c 2.406,-0.802 4.195,-2.386 5.367,-4.75 1.172,-2.365 1.758,-5.37 1.758,-9.016 0,-3.521 -0.583,-6.445 -1.75,-8.773 -1.167,-2.328 -2.974,-3.893 -5.422,-4.696 z"
       fill-rule="evenodd"
       id="path181" />
    <text
       fill="#000000"
       fill-opacity="0"
       font-family="Arial, Arial_MSFontService, sans-serif"
       font-size="29.6406px"
       x="657.54401"
       y="251.196"
       id="text183">)</text>
    <path
       d="m 714.549,225.26 0.422,1.203 c -2.437,0.803 -4.242,2.368 -5.414,4.696 -1.172,2.328 -1.758,5.252 -1.758,8.773 0,3.646 0.586,6.651 1.758,9.016 1.172,2.364 2.961,3.948 5.367,4.75 l -0.375,1.203 c -3.052,-0.802 -5.39,-2.529 -7.015,-5.18 -1.625,-2.651 -2.438,-5.862 -2.438,-9.633 0,-3.76 0.815,-6.971 2.446,-9.632 1.63,-2.662 3.966,-4.394 7.007,-5.196 z"
       fill-rule="evenodd"
       id="path185" />
    <text
       fill="#000000"
       fill-opacity="0"
       font-family="Arial, Arial_MSFontService, sans-serif"
       font-size="29.6406px"
       x="705.09601"
       y="251.196"
       id="text187">(</text>
    <path
       d="m 724.476,227.588 c -0.718,0 -1.32,0.214 -1.804,0.641 -0.485,0.427 -0.875,1.042 -1.172,1.844 -0.297,0.802 -0.508,1.779 -0.633,2.93 -0.125,1.151 -0.187,2.45 -0.187,3.898 0,3.396 0.315,5.888 0.945,7.477 0.63,1.588 1.607,2.382 2.93,2.382 1.26,0 2.195,-0.747 2.804,-2.242 0.61,-1.495 0.914,-3.81 0.914,-6.945 0,-2.396 -0.156,-4.336 -0.468,-5.82 -0.313,-1.485 -0.748,-2.55 -1.305,-3.196 -0.557,-0.646 -1.232,-0.969 -2.024,-0.969 z m 0.079,-1.328 c 2.281,0 3.979,0.881 5.093,2.641 1.115,1.76 1.672,4.422 1.672,7.984 0,3.688 -0.596,6.477 -1.789,8.368 -1.193,1.89 -2.935,2.835 -5.226,2.835 -2.25,0 -3.925,-0.885 -5.024,-2.656 -1.099,-1.771 -1.648,-4.458 -1.648,-8.062 0,-1.917 0.169,-3.573 0.508,-4.969 0.338,-1.396 0.812,-2.549 1.421,-3.461 0.61,-0.911 1.342,-1.586 2.196,-2.023 0.854,-0.438 1.786,-0.657 2.797,-0.657 z"
       fill-rule="evenodd"
       id="path189" />
    <text
       fill="#000000"
       fill-opacity="0"
       font-family="Arial, Arial_MSFontService, sans-serif"
       font-size="21.8281px"
       x="717.633"
       y="245.36"
       id="text191">0</text>
    <path
       d="m 751.241,228.651 h 2.219 v 9 h 8.515 v 2.078 h -8.515 v 9 h -2.219 v -9 h -8.516 v -2.078 h 8.516 z"
       fill-rule="evenodd"
       id="path193" />
    <text
       fill="#000000"
       fill-opacity="0"
       font-family="Arial, Arial_MSFontService, sans-serif"
       font-size="20.0781px"
       x="742.72498"
       y="246.21899"
       id="text195">+</text>
    <path
       d="m 781.438,226.26 h 0.859 c -0.063,1 -0.094,2.386 -0.094,4.157 v 13.343 c 0,0.605 0.034,1.06 0.102,1.368 0.067,0.307 0.187,0.557 0.359,0.75 0.172,0.192 0.419,0.343 0.742,0.453 0.323,0.109 0.729,0.192 1.219,0.25 0.49,0.057 1.135,0.096 1.937,0.117 v 1.14 h -11.546 v -1.14 c 1.156,-0.052 1.981,-0.123 2.476,-0.211 0.495,-0.089 0.873,-0.221 1.133,-0.399 0.26,-0.177 0.451,-0.427 0.57,-0.75 0.12,-0.322 0.18,-0.848 0.18,-1.578 v -12.672 c 0,-0.416 -0.073,-0.721 -0.219,-0.914 -0.146,-0.192 -0.359,-0.289 -0.64,-0.289 -0.334,0 -0.808,0.172 -1.422,0.516 -0.615,0.344 -1.375,0.818 -2.282,1.422 l -0.687,-1.203 z"
       fill-rule="evenodd"
       id="path197" />
    <text
       fill="#000000"
       fill-opacity="0"
       font-family="Arial, Arial_MSFontService, sans-serif"
       font-size="21.5781px"
       x="774.125"
       y="245.14101"
       id="text199">1</text>
    <path
       d="m 790.026,225.26 c 3.042,0.802 5.378,2.534 7.008,5.196 1.63,2.661 2.445,5.872 2.445,9.632 0,3.771 -0.812,6.982 -2.437,9.633 -1.625,2.651 -3.964,4.378 -7.016,5.18 l -0.375,-1.203 c 2.406,-0.802 4.195,-2.386 5.367,-4.75 1.172,-2.365 1.758,-5.37 1.758,-9.016 0,-3.521 -0.583,-6.445 -1.75,-8.773 -1.167,-2.328 -2.974,-3.893 -5.422,-4.696 z"
       fill-rule="evenodd"
       id="path201" />
    <text
       fill="#000000"
       fill-opacity="0"
       font-family="Arial, Arial_MSFontService, sans-serif"
       font-size="29.6406px"
       x="789.604"
       y="251.196"
       id="text203">)</text>
    <path
       d="m 846.609,225.26 0.422,1.203 c -2.437,0.803 -4.242,2.368 -5.414,4.696 -1.172,2.328 -1.758,5.252 -1.758,8.773 0,3.646 0.586,6.651 1.758,9.016 1.172,2.364 2.961,3.948 5.367,4.75 l -0.375,1.203 c -3.052,-0.802 -5.39,-2.529 -7.015,-5.18 -1.625,-2.651 -2.438,-5.862 -2.438,-9.633 0,-3.76 0.815,-6.971 2.446,-9.632 1.63,-2.662 3.966,-4.394 7.007,-5.196 z"
       fill-rule="evenodd"
       id="path205" />
    <text
       fill="#000000"
       fill-opacity="0"
       font-family="Arial, Arial_MSFontService, sans-serif"
       font-size="29.6406px"
       x="837.15601"
       y="251.196"
       id="text207">(</text>
    <path
       d="m 861.036,225.479 h 1.219 l -0.234,3.625 h -8.985 v 6.859 c 0.542,-0.229 1.131,-0.401 1.766,-0.515 0.636,-0.115 1.271,-0.172 1.906,-0.172 1.24,0 2.339,0.253 3.297,0.758 0.959,0.505 1.698,1.224 2.219,2.156 0.521,0.932 0.781,2.013 0.781,3.242 0,1.396 -0.291,2.594 -0.875,3.594 -0.583,1 -1.427,1.76 -2.531,2.281 -1.104,0.521 -2.411,0.781 -3.922,0.781 -1.802,0 -3.687,-0.369 -5.656,-1.109 v -3.312 h 1.89 c 0.313,1.062 0.784,1.843 1.415,2.343 0.63,0.5 1.445,0.75 2.445,0.75 1.385,0 2.432,-0.416 3.14,-1.25 0.709,-0.833 1.063,-2.078 1.063,-3.734 0,-1.104 -0.188,-2.018 -0.563,-2.742 -0.375,-0.724 -0.88,-1.248 -1.515,-1.571 -0.636,-0.322 -1.375,-0.484 -2.219,-0.484 -0.708,0 -1.318,0.044 -1.828,0.133 -0.51,0.088 -1.057,0.226 -1.641,0.414 l -1.25,-0.734 V 226.51 h 8.61 c 0.354,0 0.609,-0.028 0.765,-0.086 0.157,-0.057 0.282,-0.145 0.375,-0.265 0.094,-0.12 0.203,-0.347 0.328,-0.68 z"
       fill-rule="evenodd"
       id="path209" />
    <text
       fill="#000000"
       fill-opacity="0"
       font-family="Arial, Arial_MSFontService, sans-serif"
       font-size="22.6094px"
       x="850.021"
       y="245.26199"
       id="text211">5</text>
    <path
       d="m 883.301,228.651 h 2.219 v 9 h 8.515 v 2.078 h -8.515 v 9 h -2.219 v -9 h -8.516 v -2.078 h 8.516 z"
       fill-rule="evenodd"
       id="path213" />
    <text
       fill="#000000"
       fill-opacity="0"
       font-family="Arial, Arial_MSFontService, sans-serif"
       font-size="20.0781px"
       x="874.78497"
       y="246.21899"
       id="text215">+</text>
    <path
       d="m 912.263,227.588 c -0.719,0 -1.32,0.214 -1.805,0.641 -0.484,0.427 -0.875,1.042 -1.171,1.844 -0.297,0.802 -0.508,1.779 -0.633,2.93 -0.125,1.151 -0.188,2.45 -0.188,3.898 0,3.396 0.315,5.888 0.946,7.477 0.63,1.588 1.606,2.382 2.929,2.382 1.261,0 2.196,-0.747 2.805,-2.242 0.609,-1.495 0.914,-3.81 0.914,-6.945 0,-2.396 -0.156,-4.336 -0.469,-5.82 -0.312,-1.485 -0.747,-2.55 -1.304,-3.196 -0.558,-0.646 -1.232,-0.969 -2.024,-0.969 z m 0.078,-1.328 c 2.281,0 3.979,0.881 5.094,2.641 1.115,1.76 1.672,4.422 1.672,7.984 0,3.688 -0.597,6.477 -1.789,8.368 -1.193,1.89 -2.935,2.835 -5.227,2.835 -2.25,0 -3.924,-0.885 -5.023,-2.656 -1.099,-1.771 -1.649,-4.458 -1.649,-8.062 0,-1.917 0.17,-3.573 0.508,-4.969 0.339,-1.396 0.813,-2.549 1.422,-3.461 0.609,-0.911 1.341,-1.586 2.195,-2.023 0.855,-0.438 1.787,-0.657 2.797,-0.657 z m 10.078,-1 c 3.042,0.802 5.378,2.534 7.008,5.196 1.63,2.661 2.445,5.872 2.445,9.632 0,3.771 -0.812,6.982 -2.437,9.633 -1.625,2.651 -3.964,4.378 -7.016,5.18 l -0.375,-1.203 c 2.407,-0.802 4.196,-2.386 5.368,-4.75 1.171,-2.365 1.757,-5.37 1.757,-9.016 0,-3.521 -0.583,-6.445 -1.75,-8.773 -1.166,-2.328 -2.974,-3.893 -5.422,-4.696 z"
       fill-rule="evenodd"
       id="path217" />
    <text
       fill="#000000"
       fill-opacity="0"
       font-family="Arial, Arial_MSFontService, sans-serif"
       font-size="29.6406px"
       x="905.41901"
       y="251.196"
       id="text219">0)</text>
    <path
       d="m 582.489,265.1 0.422,1.203 c -2.437,0.803 -4.242,2.368 -5.414,4.696 -1.172,2.328 -1.758,5.252 -1.758,8.773 0,3.646 0.586,6.651 1.758,9.016 1.172,2.364 2.961,3.948 5.367,4.75 l -0.375,1.203 c -3.052,-0.802 -5.39,-2.529 -7.015,-5.18 -1.625,-2.651 -2.438,-5.862 -2.438,-9.633 0,-3.76 0.815,-6.971 2.446,-9.632 1.63,-2.662 3.966,-4.394 7.007,-5.196 z"
       fill-rule="evenodd"
       id="path221" />
    <text
       fill="#000000"
       fill-opacity="0"
       font-family="Arial, Arial_MSFontService, sans-serif"
       font-size="29.6406px"
       x="573.03601"
       y="291.03601"
       id="text223">(</text>
    <path
       d="m 592.479,266.1 c 1.177,0 2.208,0.183 3.094,0.547 0.885,0.365 1.562,0.888 2.031,1.571 0.469,0.682 0.703,1.497 0.703,2.445 0,0.885 -0.177,1.664 -0.531,2.336 -0.354,0.672 -0.852,1.258 -1.492,1.758 -0.641,0.5 -1.472,0.989 -2.493,1.468 v 0.141 c 0.636,0.115 1.248,0.31 1.836,0.586 0.589,0.276 1.112,0.633 1.571,1.07 0.458,0.438 0.825,0.961 1.101,1.571 0.276,0.609 0.414,1.304 0.414,2.085 0,1.209 -0.263,2.282 -0.789,3.219 -0.526,0.938 -1.33,1.677 -2.414,2.219 -1.083,0.542 -2.401,0.812 -3.953,0.812 -0.896,0 -1.862,-0.101 -2.898,-0.304 -1.037,-0.203 -1.987,-0.472 -2.852,-0.805 v -3.312 h 1.875 c 0.365,1.083 0.846,1.869 1.445,2.359 0.599,0.49 1.414,0.734 2.446,0.734 1.354,0 2.377,-0.369 3.07,-1.109 0.693,-0.74 1.039,-1.833 1.039,-3.281 0,-1.521 -0.458,-2.683 -1.375,-3.485 -0.917,-0.802 -2.26,-1.203 -4.031,-1.203 h -1.406 v -1.375 c 1.406,-0.083 2.591,-0.354 3.554,-0.812 0.964,-0.459 1.68,-1.047 2.149,-1.766 0.468,-0.719 0.703,-1.526 0.703,-2.422 0,-1.156 -0.307,-2.047 -0.922,-2.672 -0.615,-0.625 -1.51,-0.937 -2.688,-0.937 -0.979,0 -1.776,0.265 -2.39,0.797 -0.615,0.531 -1.068,1.343 -1.36,2.437 h -1.875 v -2.969 c 1.209,-0.572 2.339,-1 3.391,-1.281 1.052,-0.281 2.068,-0.422 3.047,-0.422 z"
       fill-rule="evenodd"
       id="path225" />
    <text
       fill="#000000"
       fill-opacity="0"
       font-family="Arial, Arial_MSFontService, sans-serif"
       font-size="21.8281px"
       x="585.80701"
       y="285.20001"
       id="text227">3</text>
    <path
       d="m 619.181,268.491 h 2.219 v 9 h 8.515 v 2.078 H 621.4 v 9 h -2.219 v -9 h -8.516 v -2.078 h 8.516 z"
       fill-rule="evenodd"
       id="path229" />
    <text
       fill="#000000"
       fill-opacity="0"
       font-family="Arial, Arial_MSFontService, sans-serif"
       font-size="20.0781px"
       x="610.66498"
       y="286.05899"
       id="text231">+</text>
    <path
       d="m 648.143,267.428 c -0.719,0 -1.32,0.214 -1.805,0.641 -0.484,0.427 -0.875,1.042 -1.171,1.844 -0.297,0.802 -0.508,1.778 -0.633,2.93 -0.125,1.151 -0.188,2.45 -0.188,3.898 0,3.396 0.315,5.888 0.946,7.477 0.63,1.588 1.606,2.382 2.929,2.382 1.261,0 2.196,-0.747 2.805,-2.242 0.609,-1.495 0.914,-3.81 0.914,-6.945 0,-2.396 -0.156,-4.336 -0.469,-5.82 -0.312,-1.485 -0.747,-2.55 -1.304,-3.196 -0.558,-0.646 -1.232,-0.969 -2.024,-0.969 z m 0.078,-1.328 c 2.282,0 3.979,0.881 5.094,2.641 1.115,1.76 1.672,4.422 1.672,7.984 0,3.688 -0.596,6.477 -1.789,8.368 -1.193,1.89 -2.935,2.835 -5.227,2.835 -2.25,0 -3.924,-0.885 -5.023,-2.656 -1.099,-1.771 -1.649,-4.458 -1.649,-8.062 0,-1.917 0.17,-3.573 0.508,-4.969 0.339,-1.396 0.813,-2.55 1.422,-3.461 0.609,-0.911 1.341,-1.586 2.195,-2.023 0.855,-0.438 1.787,-0.657 2.797,-0.657 z"
       fill-rule="evenodd"
       id="path233" />
    <text
       fill="#000000"
       fill-opacity="0"
       font-family="Arial, Arial_MSFontService, sans-serif"
       font-size="21.8281px"
       x="641.29901"
       y="285.20001"
       id="text235">0</text>
    <path
       d="m 657.966,265.1 c 3.042,0.802 5.378,2.534 7.008,5.196 1.63,2.661 2.445,5.872 2.445,9.632 0,3.771 -0.812,6.982 -2.437,9.633 -1.625,2.651 -3.964,4.378 -7.016,5.18 l -0.375,-1.203 c 2.406,-0.802 4.195,-2.386 5.367,-4.75 1.172,-2.365 1.758,-5.37 1.758,-9.016 0,-3.521 -0.583,-6.445 -1.75,-8.773 -1.167,-2.328 -2.974,-3.893 -5.422,-4.696 z"
       fill-rule="evenodd"
       id="path237" />
    <text
       fill="#000000"
       fill-opacity="0"
       font-family="Arial, Arial_MSFontService, sans-serif"
       font-size="29.6406px"
       x="657.54401"
       y="291.03601"
       id="text239">)</text>
    <path
       d="m 724.256,267.428 c -0.718,0 -1.32,0.214 -1.804,0.641 -0.485,0.427 -0.875,1.042 -1.172,1.844 -0.297,0.802 -0.508,1.778 -0.633,2.93 -0.125,1.151 -0.187,2.45 -0.187,3.898 0,3.396 0.315,5.888 0.945,7.477 0.63,1.588 1.607,2.382 2.93,2.382 1.26,0 2.195,-0.747 2.804,-2.242 0.61,-1.495 0.914,-3.81 0.914,-6.945 0,-2.396 -0.156,-4.336 -0.468,-5.82 -0.313,-1.485 -0.748,-2.55 -1.305,-3.196 -0.557,-0.646 -1.232,-0.969 -2.024,-0.969 z m 0.079,-1.328 c 2.281,0 3.979,0.881 5.093,2.641 1.115,1.76 1.672,4.422 1.672,7.984 0,3.688 -0.596,6.477 -1.789,8.368 -1.193,1.89 -2.935,2.835 -5.226,2.835 -2.25,0 -3.925,-0.885 -5.024,-2.656 -1.099,-1.771 -1.648,-4.458 -1.648,-8.062 0,-1.917 0.169,-3.573 0.507,-4.969 0.339,-1.396 0.813,-2.55 1.422,-3.461 0.61,-0.911 1.341,-1.586 2.196,-2.023 0.854,-0.438 1.786,-0.657 2.797,-0.657 z m -9.672,-1 0.422,1.203 c -2.438,0.803 -4.243,2.368 -5.415,4.696 -1.171,2.328 -1.757,5.252 -1.757,8.773 0,3.646 0.586,6.651 1.757,9.016 1.172,2.364 2.961,3.948 5.368,4.75 l -0.375,1.203 c -3.052,-0.802 -5.391,-2.529 -7.016,-5.18 -1.625,-2.651 -2.437,-5.862 -2.437,-9.633 0,-3.76 0.815,-6.971 2.445,-9.632 1.63,-2.662 3.966,-4.394 7.008,-5.196 z"
       fill-rule="evenodd"
       id="path241" />
    <text
       fill="#000000"
       fill-opacity="0"
       font-family="Arial, Arial_MSFontService, sans-serif"
       font-size="29.6406px"
       x="705.21002"
       y="291.03601"
       id="text243">(0</text>
    <path
       d="m 751.241,268.491 h 2.219 v 9 h 8.515 v 2.078 h -8.515 v 9 h -2.219 v -9 h -8.516 v -2.078 h 8.516 z"
       fill-rule="evenodd"
       id="path245" />
    <text
       fill="#000000"
       fill-opacity="0"
       font-family="Arial, Arial_MSFontService, sans-serif"
       font-size="20.0781px"
       x="742.72498"
       y="286.05899"
       id="text247">+</text>
    <path
       d="m 780.09,267.428 c -0.719,0 -1.321,0.214 -1.805,0.641 -0.484,0.427 -0.875,1.042 -1.172,1.844 -0.297,0.802 -0.508,1.778 -0.633,2.93 -0.125,1.151 -0.187,2.45 -0.187,3.898 0,3.396 0.315,5.888 0.945,7.477 0.63,1.588 1.607,2.382 2.93,2.382 1.26,0 2.195,-0.747 2.805,-2.242 0.609,-1.495 0.914,-3.81 0.914,-6.945 0,-2.396 -0.157,-4.336 -0.469,-5.82 -0.313,-1.485 -0.747,-2.55 -1.305,-3.196 -0.557,-0.646 -1.232,-0.969 -2.023,-0.969 z m 0.078,-1.328 c 2.281,0 3.979,0.881 5.094,2.641 1.114,1.76 1.672,4.422 1.672,7.984 0,3.688 -0.597,6.477 -1.79,8.368 -1.192,1.89 -2.934,2.835 -5.226,2.835 -2.25,0 -3.925,-0.885 -5.024,-2.656 -1.098,-1.771 -1.648,-4.458 -1.648,-8.062 0,-1.917 0.169,-3.573 0.508,-4.969 0.338,-1.396 0.812,-2.55 1.422,-3.461 0.609,-0.911 1.341,-1.586 2.195,-2.023 0.854,-0.438 1.786,-0.657 2.797,-0.657 z m 10.078,-1 c 3.042,0.802 5.378,2.534 7.008,5.196 1.63,2.661 2.445,5.872 2.445,9.632 0,3.771 -0.812,6.982 -2.437,9.633 -1.625,2.651 -3.964,4.378 -7.016,5.18 l -0.375,-1.203 c 2.406,-0.802 4.195,-2.386 5.367,-4.75 1.172,-2.365 1.758,-5.37 1.758,-9.016 0,-3.521 -0.583,-6.445 -1.75,-8.773 -1.167,-2.328 -2.974,-3.893 -5.422,-4.696 z"
       fill-rule="evenodd"
       id="path249" />
    <text
       fill="#000000"
       fill-opacity="0"
       font-family="Arial, Arial_MSFontService, sans-serif"
       font-size="29.6406px"
       x="773.24597"
       y="291.03601"
       id="text251">0)</text>
    <path
       d="m 846.609,265.1 0.422,1.203 c -2.437,0.803 -4.242,2.368 -5.414,4.696 -1.172,2.328 -1.758,5.252 -1.758,8.773 0,3.646 0.586,6.651 1.758,9.016 1.172,2.364 2.961,3.948 5.367,4.75 l -0.375,1.203 c -3.052,-0.802 -5.39,-2.529 -7.015,-5.18 -1.625,-2.651 -2.438,-5.862 -2.438,-9.633 0,-3.76 0.815,-6.971 2.446,-9.632 1.63,-2.662 3.966,-4.394 7.007,-5.196 z"
       fill-rule="evenodd"
       id="path253" />
    <text
       fill="#000000"
       fill-opacity="0"
       font-family="Arial, Arial_MSFontService, sans-serif"
       font-size="29.6406px"
       x="837.15601"
       y="291.03601"
       id="text255">(</text>
    <path
       d="m 857.255,276.428 c -0.51,0 -1.002,0.058 -1.476,0.172 -0.474,0.115 -0.92,0.282 -1.336,0.5 -0.417,0.219 -0.823,0.495 -1.219,0.828 -0.125,0.115 -0.219,0.235 -0.281,0.36 -0.104,0.198 -0.172,0.443 -0.203,0.734 -0.032,0.292 -0.047,0.781 -0.047,1.469 0,1.99 0.333,3.505 1,4.547 0.666,1.041 1.677,1.562 3.031,1.562 0.781,0 1.437,-0.135 1.969,-0.406 0.531,-0.271 0.961,-0.643 1.289,-1.117 0.328,-0.474 0.562,-1.031 0.703,-1.672 0.141,-0.641 0.211,-1.336 0.211,-2.086 0,-1.542 -0.318,-2.742 -0.953,-3.601 -0.636,-0.86 -1.532,-1.29 -2.688,-1.29 z m 4.016,-10.328 0.64,0.86 v 0.765 c -1.604,0 -3.026,0.344 -4.265,1.032 -1.24,0.687 -2.268,1.697 -3.086,3.031 -0.818,1.333 -1.393,2.916 -1.727,4.75 l 0.157,0.062 c 0.875,-0.625 1.737,-1.083 2.586,-1.375 0.848,-0.291 1.768,-0.437 2.757,-0.437 1.177,0 2.18,0.258 3.008,0.773 0.828,0.516 1.451,1.24 1.867,2.172 0.417,0.932 0.625,2.024 0.625,3.274 0,1.354 -0.26,2.549 -0.781,3.586 -0.521,1.036 -1.325,1.851 -2.414,2.445 -1.089,0.594 -2.43,0.89 -4.023,0.89 -2.282,0 -4.003,-0.708 -5.164,-2.125 -1.162,-1.416 -1.743,-3.505 -1.743,-6.265 0,-1.854 0.292,-3.589 0.875,-5.203 0.584,-1.615 1.412,-3.024 2.485,-4.227 1.073,-1.203 2.317,-2.151 3.734,-2.844 1.417,-0.692 2.906,-1.08 4.469,-1.164 z"
       fill-rule="evenodd"
       id="path257" />
    <text
       fill="#000000"
       fill-opacity="0"
       font-family="Arial, Arial_MSFontService, sans-serif"
       font-size="21.8281px"
       x="849.70801"
       y="285.20001"
       id="text259">6</text>
    <path
       d="m 883.301,268.491 h 2.219 v 9 h 8.515 v 2.078 h -8.515 v 9 h -2.219 v -9 h -8.516 v -2.078 h 8.516 z"
       fill-rule="evenodd"
       id="path261" />
    <text
       fill="#000000"
       fill-opacity="0"
       font-family="Arial, Arial_MSFontService, sans-serif"
       font-size="20.0781px"
       x="874.78497"
       y="286.05899"
       id="text263">+</text>
    <path
       d="m 913.497,266.1 h 0.86 c -0.063,1 -0.094,2.386 -0.094,4.157 V 283.6 c 0,0.604 0.034,1.06 0.102,1.368 0.067,0.307 0.187,0.557 0.359,0.75 0.172,0.192 0.419,0.343 0.742,0.453 0.323,0.109 0.729,0.192 1.219,0.25 0.49,0.057 1.135,0.096 1.937,0.117 v 1.14 h -11.546 v -1.14 c 1.156,-0.052 1.981,-0.123 2.476,-0.211 0.495,-0.089 0.873,-0.221 1.133,-0.399 0.26,-0.177 0.45,-0.427 0.57,-0.75 0.12,-0.322 0.18,-0.849 0.18,-1.578 v -12.672 c 0,-0.416 -0.073,-0.721 -0.219,-0.914 -0.146,-0.192 -0.359,-0.289 -0.64,-0.289 -0.334,0 -0.808,0.172 -1.422,0.516 -0.615,0.344 -1.375,0.818 -2.282,1.422 l -0.687,-1.203 z"
       fill-rule="evenodd"
       id="path265" />
    <text
       fill="#000000"
       fill-opacity="0"
       font-family="Arial, Arial_MSFontService, sans-serif"
       font-size="21.5781px"
       x="906.185"
       y="284.98099"
       id="text267">1</text>
    <path
       d="m 922.086,265.1 c 3.042,0.802 5.378,2.534 7.008,5.196 1.63,2.661 2.445,5.872 2.445,9.632 0,3.771 -0.812,6.982 -2.437,9.633 -1.625,2.651 -3.964,4.378 -7.016,5.18 l -0.375,-1.203 c 2.406,-0.802 4.195,-2.386 5.367,-4.75 1.172,-2.365 1.758,-5.37 1.758,-9.016 0,-3.521 -0.583,-6.445 -1.75,-8.773 -1.167,-2.328 -2.974,-3.893 -5.422,-4.696 z"
       fill-rule="evenodd"
       id="path269" />
    <text
       fill="#000000"
       fill-opacity="0"
       font-family="Arial, Arial_MSFontService, sans-serif"
       font-size="29.6406px"
       x="921.664"
       y="291.03601"
       id="text271">)</text>
    <text
       font-family="Calibri, Calibri_MSFontService, sans-serif"
       font-weight="400"
       font-size="43px"
       transform="translate(738.105,163)"
       id="text331">C<tspan
   font-size="43px"
   x="-141.425"
   y="223"
   id="tspan273">A + B = [a</tspan><tspan
   font-size="28px"
   x="21.408701"
   y="233"
   id="tspan275">i, j</tspan><tspan
   font-size="43px"
   x="48.408699"
   y="223"
   id="tspan277">]</tspan><tspan
   font-size="43px"
   x="68.075302"
   y="223"
   id="tspan279">+ [b</tspan><tspan
   font-size="28px"
   x="134.742"
   y="233"
   id="tspan281">i, j</tspan><tspan
   font-size="43px"
   x="161.742"
   y="223"
   id="tspan283">]</tspan><tspan
   font-size="43px"
   x="-44.235401"
   y="284"
   id="tspan285">= [a</tspan><tspan
   font-size="28px"
   x="20.431299"
   y="294"
   id="tspan287">i,</tspan><tspan
   font-size="28px"
   x="40.598"
   y="294"
   id="tspan289">j</tspan><tspan
   font-size="43px"
   x="53.931301"
   y="284"
   id="tspan291">+ </tspan>b<tspan
   font-size="28px"
   x="107.431"
   y="294"
   id="tspan293">i</tspan><tspan
   font-size="28px"
   x="113.931"
   y="294"
   id="tspan295">, j</tspan><tspan
   font-size="43px"
   x="134.431"
   y="284"
   id="tspan297">]</tspan><tspan
   font-size="43px"
   x="-44.279999"
   y="345"
   id="tspan299">=</tspan>[b<tspan
   font-size="28px"
   x="22.3867"
   y="355"
   id="tspan301">i</tspan><tspan
   font-size="28px"
   x="28.8867"
   y="355"
   id="tspan303">,</tspan><tspan
   font-size="28px"
   x="42.553299"
   y="355"
   id="tspan305">j</tspan><tspan
   font-size="43px"
   x="59.053299"
   y="345"
   id="tspan307">+ a</tspan><tspan
   font-size="28px"
   x="110.553"
   y="355"
   id="tspan309">i, j</tspan><tspan
   font-size="43px"
   x="137.55299"
   y="345"
   id="tspan311">]</tspan><tspan
   font-size="43px"
   x="-45.7747"
   y="404"
   id="tspan313">=</tspan>[b<tspan
   font-size="28px"
   x="20.892"
   y="414"
   id="tspan315">i</tspan><tspan
   font-size="28px"
   x="27.392"
   y="414"
   id="tspan317">,</tspan><tspan
   font-size="28px"
   x="41.058701"
   y="414"
   id="tspan319">j</tspan><tspan
   font-size="43px"
   x="47.891998"
   y="404"
   id="tspan321">] + [a</tspan><tspan
   font-size="28px"
   x="135.392"
   y="414"
   id="tspan323">i, j</tspan><tspan
   font-size="43px"
   x="162.392"
   y="404"
   id="tspan325">]</tspan><tspan
   font-size="43px"
   x="-47.269402"
   y="464"
   id="tspan327">= B</tspan><tspan
   font-size="43px"
   x="16.563999"
   y="464"
   id="tspan329">+ A</tspan></text>
  </g>
</svg>
