<?xml version="1.0" encoding="UTF-8" standalone="no"?>
<svg
   width="1280"
   height="600"
   overflow="hidden"
   version="1.1"
   id="svg279"
   sodipodi:docname="linear_systems-elementary_matrix.svg"
   inkscape:version="1.2 (dc2aedaf03, 2022-05-15)"
   xmlns:inkscape="http://www.inkscape.org/namespaces/inkscape"
   xmlns:sodipodi="http://sodipodi.sourceforge.net/DTD/sodipodi-0.dtd"
   xmlns="http://www.w3.org/2000/svg"
   xmlns:svg="http://www.w3.org/2000/svg">
  <sodipodi:namedview
     id="namedview281"
     pagecolor="#ffffff"
     bordercolor="#000000"
     borderopacity="0.25"
     inkscape:showpageshadow="2"
     inkscape:pageopacity="0.0"
     inkscape:pagecheckerboard="0"
     inkscape:deskcolor="#d1d1d1"
     showgrid="false"
     inkscape:zoom="0.92709556"
     inkscape:cx="526.9144"
     inkscape:cy="181.21109"
     inkscape:window-width="2560"
     inkscape:window-height="1494"
     inkscape:window-x="-11"
     inkscape:window-y="-11"
     inkscape:window-maximized="1"
     inkscape:current-layer="svg279" />
  <defs
     id="defs5">
    <clipPath
       id="clip0">
      <rect
         x="0"
         y="0"
         width="1280"
         height="720"
         id="rect2" />
    </clipPath>
  </defs>
  <g
     clip-path="url(#clip0)"
     id="g277"
     transform="translate(59.325061,-43.145498)">
    <rect
       x="0"
       y="0"
       width="1280"
       height="720"
       fill="#ffffff"
       id="rect7" />
    <text
       font-family="Calibri, Calibri_MSFontService, sans-serif"
       font-weight="400"
       font-size="43px"
       transform="translate(391.956,110)"
       id="text9">Elementary matrices</text>
    <path
       d="M 268,213.717 C 268,205.037 275.037,198 283.717,198 h 104.566 c 8.68,0 15.717,7.037 15.717,15.717 v 90.566 C 404,312.963 396.963,320 388.283,320 H 283.717 C 275.037,320 268,312.963 268,304.283 Z"
       fill="#e2f0d9"
       fill-rule="evenodd"
       id="path11" />
    <path
       d="m 288.043,207.285 h 0.86 c -0.063,1 -0.094,2.386 -0.094,4.156 v 13.344 c 0,0.604 0.034,1.06 0.102,1.367 0.067,0.308 0.187,0.558 0.359,0.75 0.172,0.193 0.419,0.344 0.742,0.453 0.323,0.11 0.729,0.193 1.219,0.25 0.489,0.058 1.135,0.097 1.937,0.118 v 1.14 h -11.547 v -1.14 c 1.157,-0.052 1.982,-0.123 2.477,-0.211 0.495,-0.089 0.872,-0.222 1.133,-0.399 0.26,-0.177 0.45,-0.427 0.57,-0.75 0.12,-0.323 0.18,-0.849 0.18,-1.578 v -12.672 c 0,-0.416 -0.073,-0.721 -0.219,-0.914 -0.146,-0.192 -0.359,-0.289 -0.641,-0.289 -0.333,0 -0.807,0.172 -1.421,0.516 -0.615,0.344 -1.375,0.818 -2.282,1.422 l -0.687,-1.203 z"
       fill-rule="evenodd"
       id="path13" />
    <text
       fill="#000000"
       fill-opacity="0"
       font-family="Arial, Arial_MSFontService, sans-serif"
       font-size="21.5781px"
       x="280.73099"
       y="226.166"
       id="text15">1</text>
    <path
       d="m 336.476,208.613 c -0.719,0 -1.321,0.214 -1.805,0.641 -0.484,0.427 -0.875,1.042 -1.172,1.844 -0.297,0.802 -0.508,1.778 -0.633,2.929 -0.125,1.151 -0.187,2.451 -0.187,3.899 0,3.396 0.315,5.888 0.945,7.476 0.63,1.589 1.607,2.383 2.93,2.383 1.26,0 2.195,-0.747 2.804,-2.242 0.61,-1.495 0.915,-3.81 0.915,-6.945 0,-2.396 -0.157,-4.336 -0.469,-5.821 -0.313,-1.484 -0.748,-2.549 -1.305,-3.195 -0.557,-0.646 -1.232,-0.969 -2.023,-0.969 z m 0.078,-1.328 c 2.281,0 3.979,0.88 5.094,2.641 1.114,1.76 1.671,4.422 1.671,7.984 0,3.688 -0.596,6.477 -1.789,8.367 -1.192,1.891 -2.935,2.836 -5.226,2.836 -2.25,0 -3.925,-0.885 -5.024,-2.656 -1.099,-1.771 -1.648,-4.458 -1.648,-8.062 0,-1.917 0.169,-3.573 0.508,-4.969 0.338,-1.396 0.812,-2.55 1.422,-3.461 0.609,-0.912 1.341,-1.586 2.195,-2.024 0.854,-0.437 1.786,-0.656 2.797,-0.656 z"
       fill-rule="evenodd"
       id="path17" />
    <text
       fill="#000000"
       fill-opacity="0"
       font-family="Arial, Arial_MSFontService, sans-serif"
       font-size="21.8281px"
       x="329.63199"
       y="226.38499"
       id="text19">0</text>
    <path
       d="m 386.142,208.613 c -0.718,0 -1.32,0.214 -1.804,0.641 -0.485,0.427 -0.875,1.042 -1.172,1.844 -0.297,0.802 -0.508,1.778 -0.633,2.929 -0.125,1.151 -0.188,2.451 -0.188,3.899 0,3.396 0.316,5.888 0.946,7.476 0.63,1.589 1.607,2.383 2.929,2.383 1.261,0 2.196,-0.747 2.805,-2.242 0.609,-1.495 0.914,-3.81 0.914,-6.945 0,-2.396 -0.156,-4.336 -0.469,-5.821 -0.312,-1.484 -0.747,-2.549 -1.304,-3.195 -0.558,-0.646 -1.232,-0.969 -2.024,-0.969 z m 0.078,-1.328 c 2.282,0 3.98,0.88 5.094,2.641 1.115,1.76 1.672,4.422 1.672,7.984 0,3.688 -0.596,6.477 -1.789,8.367 -1.193,1.891 -2.935,2.836 -5.227,2.836 -2.25,0 -3.924,-0.885 -5.023,-2.656 -1.099,-1.771 -1.648,-4.458 -1.648,-8.062 0,-1.917 0.169,-3.573 0.507,-4.969 0.339,-1.396 0.813,-2.55 1.422,-3.461 0.61,-0.912 1.341,-1.586 2.196,-2.024 0.854,-0.437 1.786,-0.656 2.796,-0.656 z"
       fill-rule="evenodd"
       id="path21" />
    <text
       fill="#000000"
       fill-opacity="0"
       font-family="Arial, Arial_MSFontService, sans-serif"
       font-size="21.8281px"
       x="379.29901"
       y="226.38499"
       id="text23">0</text>
    <path
       d="m 286.809,246.127 c -0.719,0 -1.32,0.213 -1.805,0.64 -0.484,0.427 -0.875,1.042 -1.172,1.844 -0.296,0.802 -0.507,1.779 -0.632,2.93 -0.125,1.151 -0.188,2.45 -0.188,3.898 0,3.396 0.315,5.888 0.945,7.477 0.631,1.588 1.607,2.383 2.93,2.383 1.261,0 2.195,-0.748 2.805,-2.243 0.609,-1.494 0.914,-3.81 0.914,-6.945 0,-2.396 -0.156,-4.336 -0.469,-5.82 -0.312,-1.485 -0.747,-2.55 -1.305,-3.196 -0.557,-0.645 -1.231,-0.968 -2.023,-0.968 z m 0.078,-1.328 c 2.281,0 3.979,0.88 5.094,2.64 1.114,1.761 1.672,4.422 1.672,7.985 0,3.687 -0.597,6.476 -1.789,8.367 -1.193,1.89 -2.935,2.836 -5.227,2.836 -2.25,0 -3.924,-0.886 -5.023,-2.657 -1.099,-1.77 -1.649,-4.458 -1.649,-8.062 0,-1.917 0.17,-3.573 0.508,-4.969 0.339,-1.396 0.813,-2.549 1.422,-3.461 0.609,-0.911 1.341,-1.586 2.195,-2.023 0.854,-0.438 1.787,-0.656 2.797,-0.656 z"
       fill-rule="evenodd"
       id="path25" />
    <text
       fill="#000000"
       fill-opacity="0"
       font-family="Arial, Arial_MSFontService, sans-serif"
       font-size="21.8281px"
       x="279.965"
       y="263.89801"
       id="text27">0</text>
    <path
       d="m 337.71,244.799 h 0.859 c -0.062,1 -0.093,2.385 -0.093,4.156 v 13.344 c 0,0.604 0.033,1.059 0.101,1.367 0.068,0.307 0.188,0.557 0.36,0.75 0.171,0.192 0.419,0.343 0.742,0.453 0.323,0.109 0.729,0.193 1.219,0.25 0.489,0.057 1.135,0.096 1.937,0.117 v 1.141 h -11.547 v -1.141 c 1.156,-0.052 1.982,-0.122 2.477,-0.211 0.494,-0.088 0.872,-0.221 1.133,-0.398 0.26,-0.177 0.45,-0.427 0.57,-0.75 0.12,-0.323 0.18,-0.849 0.18,-1.578 v -12.672 c 0,-0.417 -0.073,-0.722 -0.219,-0.914 -0.146,-0.193 -0.36,-0.289 -0.641,-0.289 -0.333,0 -0.807,0.171 -1.422,0.515 -0.614,0.344 -1.375,0.818 -2.281,1.422 l -0.687,-1.203 z"
       fill-rule="evenodd"
       id="path29" />
    <text
       fill="#000000"
       fill-opacity="0"
       font-family="Arial, Arial_MSFontService, sans-serif"
       font-size="21.5781px"
       x="330.39801"
       y="263.67899"
       id="text31">1</text>
    <path
       d="m 386.142,246.127 c -0.718,0 -1.32,0.213 -1.804,0.64 -0.485,0.427 -0.875,1.042 -1.172,1.844 -0.297,0.802 -0.508,1.779 -0.633,2.93 -0.125,1.151 -0.188,2.45 -0.188,3.898 0,3.396 0.316,5.888 0.946,7.477 0.63,1.588 1.607,2.383 2.929,2.383 1.261,0 2.196,-0.748 2.805,-2.243 0.609,-1.494 0.914,-3.81 0.914,-6.945 0,-2.396 -0.156,-4.336 -0.469,-5.82 -0.312,-1.485 -0.747,-2.55 -1.304,-3.196 -0.558,-0.645 -1.232,-0.968 -2.024,-0.968 z m 0.078,-1.328 c 2.282,0 3.98,0.88 5.094,2.64 1.115,1.761 1.672,4.422 1.672,7.985 0,3.687 -0.596,6.476 -1.789,8.367 -1.193,1.89 -2.935,2.836 -5.227,2.836 -2.25,0 -3.924,-0.886 -5.023,-2.657 -1.099,-1.77 -1.648,-4.458 -1.648,-8.062 0,-1.917 0.169,-3.573 0.507,-4.969 0.339,-1.396 0.813,-2.549 1.422,-3.461 0.61,-0.911 1.341,-1.586 2.196,-2.023 0.854,-0.438 1.786,-0.656 2.796,-0.656 z"
       fill-rule="evenodd"
       id="path33" />
    <text
       fill="#000000"
       fill-opacity="0"
       font-family="Arial, Arial_MSFontService, sans-serif"
       font-size="21.8281px"
       x="379.29901"
       y="263.89801"
       id="text35">0</text>
    <path
       d="m 286.809,283.64 c -0.719,0 -1.32,0.214 -1.805,0.641 -0.484,0.427 -0.875,1.041 -1.172,1.843 -0.296,0.802 -0.507,1.779 -0.632,2.93 -0.125,1.151 -0.188,2.451 -0.188,3.898 0,3.396 0.315,5.889 0.945,7.477 0.631,1.589 1.607,2.383 2.93,2.383 1.261,0 2.195,-0.748 2.805,-2.242 0.609,-1.495 0.914,-3.81 0.914,-6.946 0,-2.395 -0.156,-4.336 -0.469,-5.82 -0.312,-1.484 -0.747,-2.549 -1.305,-3.195 -0.557,-0.646 -1.231,-0.969 -2.023,-0.969 z m 0.078,-1.328 c 2.281,0 3.979,0.88 5.094,2.64 1.114,1.761 1.672,4.422 1.672,7.985 0,3.687 -0.597,6.476 -1.789,8.367 -1.193,1.891 -2.935,2.836 -5.227,2.836 -2.25,0 -3.924,-0.885 -5.023,-2.656 -1.099,-1.771 -1.649,-4.459 -1.649,-8.063 0,-1.916 0.17,-3.573 0.508,-4.969 0.339,-1.395 0.813,-2.549 1.422,-3.46 0.609,-0.912 1.341,-1.586 2.195,-2.024 0.854,-0.437 1.787,-0.656 2.797,-0.656 z"
       fill-rule="evenodd"
       id="path37" />
    <text
       fill="#000000"
       fill-opacity="0"
       font-family="Arial, Arial_MSFontService, sans-serif"
       font-size="21.8281px"
       x="279.965"
       y="301.41101"
       id="text39">0</text>
    <path
       d="m 336.476,283.64 c -0.719,0 -1.321,0.214 -1.805,0.641 -0.484,0.427 -0.875,1.041 -1.172,1.843 -0.297,0.802 -0.508,1.779 -0.633,2.93 -0.125,1.151 -0.187,2.451 -0.187,3.898 0,3.396 0.315,5.889 0.945,7.477 0.63,1.589 1.607,2.383 2.93,2.383 1.26,0 2.195,-0.748 2.804,-2.242 0.61,-1.495 0.915,-3.81 0.915,-6.946 0,-2.395 -0.157,-4.336 -0.469,-5.82 -0.313,-1.484 -0.748,-2.549 -1.305,-3.195 -0.557,-0.646 -1.232,-0.969 -2.023,-0.969 z m 0.078,-1.328 c 2.281,0 3.979,0.88 5.094,2.64 1.114,1.761 1.671,4.422 1.671,7.985 0,3.687 -0.596,6.476 -1.789,8.367 -1.192,1.891 -2.935,2.836 -5.226,2.836 -2.25,0 -3.925,-0.885 -5.024,-2.656 -1.099,-1.771 -1.648,-4.459 -1.648,-8.063 0,-1.916 0.169,-3.573 0.508,-4.969 0.338,-1.395 0.812,-2.549 1.422,-3.46 0.609,-0.912 1.341,-1.586 2.195,-2.024 0.854,-0.437 1.786,-0.656 2.797,-0.656 z"
       fill-rule="evenodd"
       id="path41" />
    <text
       fill="#000000"
       fill-opacity="0"
       font-family="Arial, Arial_MSFontService, sans-serif"
       font-size="21.8281px"
       x="329.63199"
       y="301.41101"
       id="text43">0</text>
    <path
       d="m 387.377,282.312 h 0.859 c -0.062,1 -0.094,2.385 -0.094,4.156 v 13.344 c 0,0.604 0.034,1.06 0.102,1.367 0.068,0.307 0.187,0.557 0.359,0.75 0.172,0.193 0.42,0.344 0.742,0.453 0.323,0.11 0.73,0.193 1.219,0.25 0.49,0.057 1.136,0.097 1.938,0.117 v 1.141 h -11.547 v -1.141 c 1.156,-0.052 1.982,-0.122 2.476,-0.211 0.495,-0.088 0.873,-0.221 1.133,-0.398 0.261,-0.177 0.451,-0.427 0.57,-0.75 0.12,-0.323 0.18,-0.849 0.18,-1.578 V 287.14 c 0,-0.417 -0.073,-0.721 -0.219,-0.914 -0.145,-0.193 -0.359,-0.289 -0.64,-0.289 -0.334,0 -0.807,0.172 -1.422,0.515 -0.615,0.344 -1.375,0.818 -2.281,1.422 l -0.688,-1.203 z"
       fill-rule="evenodd"
       id="path45" />
    <text
       fill="#000000"
       fill-opacity="0"
       font-family="Arial, Arial_MSFontService, sans-serif"
       font-size="21.5781px"
       x="380.064"
       y="301.19299"
       id="text47">1</text>
    <text
       font-family="Cambria, Cambria_MSFontService, sans-serif"
       font-weight="400"
       font-size="43px"
       transform="translate(331.337,175)"
       id="text49">I</text>
    <path
       d="m 463.426,241.379 c 3.75,0 8.219,1.641 13.406,4.922 5.188,3.281 9.125,4.922 11.813,4.922 2.656,0 4.875,-0.703 6.656,-2.11 1.781,-1.406 3.578,-3.593 5.391,-6.562 l 3.75,2.531 c -1.344,2.781 -3.469,5.586 -6.375,8.414 -2.906,2.828 -6.438,4.242 -10.594,4.242 -4,0 -8.57,-1.64 -13.711,-4.922 -5.141,-3.281 -9.07,-4.921 -11.789,-4.921 -2.281,0 -4.281,0.718 -6,2.156 -1.719,1.437 -3.234,3.531 -4.547,6.281 l -3.656,-2.062 c 1.594,-3.688 3.703,-6.758 6.328,-9.211 2.625,-2.453 5.734,-3.68 9.328,-3.68 z"
       fill-rule="evenodd"
       id="path51" />
    <text
       fill="#000000"
       fill-opacity="0"
       font-family="Arial, Arial_MSFontService, sans-serif"
       font-size="16.3594px"
       x="447.76999"
       y="255.69299"
       id="text53">~</text>
    <path
       d="M 549,213.717 C 549,205.037 556.037,198 564.717,198 h 103.566 c 8.68,0 15.717,7.037 15.717,15.717 v 90.566 C 684,312.963 676.963,320 668.283,320 H 564.717 C 556.037,320 549,312.963 549,304.283 Z"
       fill="#e2f0d9"
       fill-rule="evenodd"
       id="path55" />
    <path
       d="m 567.133,208.613 c -0.719,0 -1.32,0.214 -1.805,0.641 -0.484,0.427 -0.875,1.042 -1.172,1.844 -0.296,0.802 -0.507,1.778 -0.632,2.929 -0.125,1.151 -0.188,2.451 -0.188,3.899 0,3.396 0.315,5.888 0.945,7.476 0.631,1.589 1.607,2.383 2.93,2.383 1.261,0 2.195,-0.747 2.805,-2.242 0.609,-1.495 0.914,-3.81 0.914,-6.945 0,-2.396 -0.156,-4.336 -0.469,-5.821 -0.312,-1.484 -0.747,-2.549 -1.305,-3.195 -0.557,-0.646 -1.231,-0.969 -2.023,-0.969 z m 0.078,-1.328 c 2.281,0 3.979,0.88 5.094,2.641 1.114,1.76 1.672,4.422 1.672,7.984 0,3.688 -0.597,6.477 -1.789,8.367 -1.193,1.891 -2.935,2.836 -5.227,2.836 -2.25,0 -3.924,-0.885 -5.023,-2.656 -1.099,-1.771 -1.649,-4.458 -1.649,-8.062 0,-1.917 0.169,-3.573 0.508,-4.969 0.339,-1.396 0.813,-2.55 1.422,-3.461 0.609,-0.912 1.341,-1.586 2.195,-2.024 0.854,-0.437 1.787,-0.656 2.797,-0.656 z"
       fill-rule="evenodd"
       id="path57" />
    <text
       fill="#000000"
       fill-opacity="0"
       font-family="Arial, Arial_MSFontService, sans-serif"
       font-size="21.8281px"
       x="560.289"
       y="226.38499"
       id="text59">0</text>
    <path
       d="m 618.034,207.285 h 0.859 c -0.062,1 -0.093,2.386 -0.093,4.156 v 13.344 c 0,0.604 0.033,1.06 0.101,1.367 0.068,0.308 0.188,0.558 0.36,0.75 0.171,0.193 0.419,0.344 0.742,0.453 0.323,0.11 0.729,0.193 1.218,0.25 0.49,0.058 1.136,0.097 1.938,0.118 v 1.14 h -11.547 v -1.14 c 1.156,-0.052 1.982,-0.123 2.477,-0.211 0.494,-0.089 0.872,-0.222 1.132,-0.399 0.261,-0.177 0.451,-0.427 0.571,-0.75 0.12,-0.323 0.179,-0.849 0.179,-1.578 v -12.672 c 0,-0.416 -0.072,-0.721 -0.218,-0.914 -0.146,-0.192 -0.36,-0.289 -0.641,-0.289 -0.333,0 -0.807,0.172 -1.422,0.516 -0.614,0.344 -1.375,0.818 -2.281,1.422 l -0.688,-1.203 z"
       fill-rule="evenodd"
       id="path61" />
    <text
       fill="#000000"
       fill-opacity="0"
       font-family="Arial, Arial_MSFontService, sans-serif"
       font-size="21.5781px"
       x="610.72101"
       y="226.166"
       id="text63">1</text>
    <path
       d="m 666.466,208.613 c -0.718,0 -1.32,0.214 -1.804,0.641 -0.485,0.427 -0.875,1.042 -1.172,1.844 -0.297,0.802 -0.508,1.778 -0.633,2.929 -0.125,1.151 -0.188,2.451 -0.188,3.899 0,3.396 0.316,5.888 0.946,7.476 0.63,1.589 1.606,2.383 2.929,2.383 1.261,0 2.196,-0.747 2.805,-2.242 0.609,-1.495 0.914,-3.81 0.914,-6.945 0,-2.396 -0.156,-4.336 -0.469,-5.821 -0.312,-1.484 -0.747,-2.549 -1.304,-3.195 -0.558,-0.646 -1.232,-0.969 -2.024,-0.969 z m 0.078,-1.328 c 2.282,0 3.98,0.88 5.094,2.641 1.115,1.76 1.672,4.422 1.672,7.984 0,3.688 -0.596,6.477 -1.789,8.367 -1.193,1.891 -2.935,2.836 -5.227,2.836 -2.25,0 -3.924,-0.885 -5.023,-2.656 -1.099,-1.771 -1.648,-4.458 -1.648,-8.062 0,-1.917 0.169,-3.573 0.507,-4.969 0.339,-1.396 0.813,-2.55 1.422,-3.461 0.61,-0.912 1.341,-1.586 2.196,-2.024 0.854,-0.437 1.786,-0.656 2.796,-0.656 z"
       fill-rule="evenodd"
       id="path65" />
    <text
       fill="#000000"
       fill-opacity="0"
       font-family="Arial, Arial_MSFontService, sans-serif"
       font-size="21.8281px"
       x="659.62299"
       y="226.38499"
       id="text67">0</text>
    <path
       d="m 568.367,244.799 h 0.86 c -0.063,1 -0.094,2.385 -0.094,4.156 v 13.344 c 0,0.604 0.034,1.059 0.102,1.367 0.067,0.307 0.187,0.557 0.359,0.75 0.172,0.192 0.419,0.343 0.742,0.453 0.323,0.109 0.729,0.193 1.219,0.25 0.489,0.057 1.135,0.096 1.937,0.117 v 1.141 h -11.547 v -1.141 c 1.157,-0.052 1.982,-0.122 2.477,-0.211 0.495,-0.088 0.872,-0.221 1.133,-0.398 0.26,-0.177 0.45,-0.427 0.57,-0.75 0.12,-0.323 0.18,-0.849 0.18,-1.578 v -12.672 c 0,-0.417 -0.073,-0.722 -0.219,-0.914 -0.146,-0.193 -0.359,-0.289 -0.641,-0.289 -0.333,0 -0.807,0.171 -1.421,0.515 -0.615,0.344 -1.375,0.818 -2.282,1.422 l -0.687,-1.203 z"
       fill-rule="evenodd"
       id="path69" />
    <text
       fill="#000000"
       fill-opacity="0"
       font-family="Arial, Arial_MSFontService, sans-serif"
       font-size="21.5781px"
       x="561.05499"
       y="263.67899"
       id="text71">1</text>
    <path
       d="m 616.8,246.127 c -0.719,0 -1.321,0.213 -1.805,0.64 -0.484,0.427 -0.875,1.042 -1.172,1.844 -0.297,0.802 -0.508,1.779 -0.633,2.93 -0.125,1.151 -0.187,2.45 -0.187,3.898 0,3.396 0.315,5.888 0.945,7.477 0.63,1.588 1.607,2.383 2.93,2.383 1.26,0 2.195,-0.748 2.804,-2.243 0.61,-1.494 0.914,-3.81 0.914,-6.945 0,-2.396 -0.156,-4.336 -0.468,-5.82 -0.313,-1.485 -0.748,-2.55 -1.305,-3.196 -0.557,-0.645 -1.232,-0.968 -2.023,-0.968 z m 0.078,-1.328 c 2.281,0 3.979,0.88 5.093,2.64 1.115,1.761 1.672,4.422 1.672,7.985 0,3.687 -0.596,6.476 -1.789,8.367 -1.192,1.89 -2.935,2.836 -5.226,2.836 -2.25,0 -3.925,-0.886 -5.024,-2.657 -1.099,-1.77 -1.648,-4.458 -1.648,-8.062 0,-1.917 0.169,-3.573 0.508,-4.969 0.338,-1.396 0.812,-2.549 1.422,-3.461 0.609,-0.911 1.341,-1.586 2.195,-2.023 0.854,-0.438 1.786,-0.656 2.797,-0.656 z"
       fill-rule="evenodd"
       id="path73" />
    <text
       fill="#000000"
       fill-opacity="0"
       font-family="Arial, Arial_MSFontService, sans-serif"
       font-size="21.8281px"
       x="609.95599"
       y="263.89801"
       id="text75">0</text>
    <path
       d="m 666.466,246.127 c -0.718,0 -1.32,0.213 -1.804,0.64 -0.485,0.427 -0.875,1.042 -1.172,1.844 -0.297,0.802 -0.508,1.779 -0.633,2.93 -0.125,1.151 -0.188,2.45 -0.188,3.898 0,3.396 0.316,5.888 0.946,7.477 0.63,1.588 1.606,2.383 2.929,2.383 1.261,0 2.196,-0.748 2.805,-2.243 0.609,-1.494 0.914,-3.81 0.914,-6.945 0,-2.396 -0.156,-4.336 -0.469,-5.82 -0.312,-1.485 -0.747,-2.55 -1.304,-3.196 -0.558,-0.645 -1.232,-0.968 -2.024,-0.968 z m 0.078,-1.328 c 2.282,0 3.98,0.88 5.094,2.64 1.115,1.761 1.672,4.422 1.672,7.985 0,3.687 -0.596,6.476 -1.789,8.367 -1.193,1.89 -2.935,2.836 -5.227,2.836 -2.25,0 -3.924,-0.886 -5.023,-2.657 -1.099,-1.77 -1.648,-4.458 -1.648,-8.062 0,-1.917 0.169,-3.573 0.507,-4.969 0.339,-1.396 0.813,-2.549 1.422,-3.461 0.61,-0.911 1.341,-1.586 2.196,-2.023 0.854,-0.438 1.786,-0.656 2.796,-0.656 z"
       fill-rule="evenodd"
       id="path77" />
    <text
       fill="#000000"
       fill-opacity="0"
       font-family="Arial, Arial_MSFontService, sans-serif"
       font-size="21.8281px"
       x="659.62299"
       y="263.89801"
       id="text79">0</text>
    <path
       d="m 567.133,283.64 c -0.719,0 -1.32,0.214 -1.805,0.641 -0.484,0.427 -0.875,1.041 -1.172,1.843 -0.296,0.802 -0.507,1.779 -0.632,2.93 -0.125,1.151 -0.188,2.451 -0.188,3.898 0,3.396 0.315,5.889 0.945,7.477 0.631,1.589 1.607,2.383 2.93,2.383 1.261,0 2.195,-0.748 2.805,-2.242 0.609,-1.495 0.914,-3.81 0.914,-6.946 0,-2.395 -0.156,-4.336 -0.469,-5.82 -0.312,-1.484 -0.747,-2.549 -1.305,-3.195 -0.557,-0.646 -1.231,-0.969 -2.023,-0.969 z m 0.078,-1.328 c 2.281,0 3.979,0.88 5.094,2.64 1.114,1.761 1.672,4.422 1.672,7.985 0,3.687 -0.597,6.476 -1.789,8.367 -1.193,1.891 -2.935,2.836 -5.227,2.836 -2.25,0 -3.924,-0.885 -5.023,-2.656 -1.099,-1.771 -1.649,-4.459 -1.649,-8.063 0,-1.916 0.169,-3.573 0.508,-4.969 0.339,-1.395 0.813,-2.549 1.422,-3.46 0.609,-0.912 1.341,-1.586 2.195,-2.024 0.854,-0.437 1.787,-0.656 2.797,-0.656 z"
       fill-rule="evenodd"
       id="path81" />
    <text
       fill="#000000"
       fill-opacity="0"
       font-family="Arial, Arial_MSFontService, sans-serif"
       font-size="21.8281px"
       x="560.289"
       y="301.41101"
       id="text83">0</text>
    <path
       d="m 616.8,283.64 c -0.719,0 -1.321,0.214 -1.805,0.641 -0.484,0.427 -0.875,1.041 -1.172,1.843 -0.297,0.802 -0.508,1.779 -0.633,2.93 -0.125,1.151 -0.187,2.451 -0.187,3.898 0,3.396 0.315,5.889 0.945,7.477 0.63,1.589 1.607,2.383 2.93,2.383 1.26,0 2.195,-0.748 2.804,-2.242 0.61,-1.495 0.914,-3.81 0.914,-6.946 0,-2.395 -0.156,-4.336 -0.468,-5.82 -0.313,-1.484 -0.748,-2.549 -1.305,-3.195 -0.557,-0.646 -1.232,-0.969 -2.023,-0.969 z m 0.078,-1.328 c 2.281,0 3.979,0.88 5.093,2.64 1.115,1.761 1.672,4.422 1.672,7.985 0,3.687 -0.596,6.476 -1.789,8.367 -1.192,1.891 -2.935,2.836 -5.226,2.836 -2.25,0 -3.925,-0.885 -5.024,-2.656 -1.099,-1.771 -1.648,-4.459 -1.648,-8.063 0,-1.916 0.169,-3.573 0.508,-4.969 0.338,-1.395 0.812,-2.549 1.422,-3.46 0.609,-0.912 1.341,-1.586 2.195,-2.024 0.854,-0.437 1.786,-0.656 2.797,-0.656 z"
       fill-rule="evenodd"
       id="path85" />
    <text
       fill="#000000"
       fill-opacity="0"
       font-family="Arial, Arial_MSFontService, sans-serif"
       font-size="21.8281px"
       x="609.95599"
       y="301.41101"
       id="text87">0</text>
    <path
       d="m 667.701,282.312 h 0.859 c -0.062,1 -0.094,2.385 -0.094,4.156 v 13.344 c 0,0.604 0.034,1.06 0.102,1.367 0.068,0.307 0.187,0.557 0.359,0.75 0.172,0.193 0.419,0.344 0.742,0.453 0.323,0.11 0.73,0.193 1.219,0.25 0.49,0.057 1.136,0.097 1.938,0.117 v 1.141 h -11.547 v -1.141 c 1.156,-0.052 1.982,-0.122 2.476,-0.211 0.495,-0.088 0.873,-0.221 1.133,-0.398 0.261,-0.177 0.451,-0.427 0.57,-0.75 0.12,-0.323 0.18,-0.849 0.18,-1.578 V 287.14 c 0,-0.417 -0.073,-0.721 -0.219,-0.914 -0.145,-0.193 -0.359,-0.289 -0.64,-0.289 -0.334,0 -0.808,0.172 -1.422,0.515 -0.615,0.344 -1.375,0.818 -2.281,1.422 l -0.688,-1.203 z"
       fill-rule="evenodd"
       id="path89" />
    <text
       fill="#000000"
       fill-opacity="0"
       font-family="Arial, Arial_MSFontService, sans-serif"
       font-size="21.5781px"
       x="660.388"
       y="301.19299"
       id="text91">1</text>
    <text
       font-family="Calibri, Calibri_MSFontService, sans-serif"
       font-weight="400"
       font-size="43px"
       transform="translate(605.892,174)"
       id="text131">E<tspan
   font-size="28px"
   x="20.8333"
   y="10"
   id="tspan93">1</tspan><tspan
   font-size="24px"
   x="-169.315"
   y="114"
   id="tspan95">R1</tspan><tspan
   font-family="'Cambria Math', 'Cambria Math_MSFontService', sans-serif"
   font-size="24px"
   x="-138.649"
   y="114"
   id="tspan97">â†’</tspan><tspan
   font-size="24px"
   x="-112.982"
   y="114"
   id="tspan99">R2</tspan><tspan
   font-family="Cambria, Cambria_MSFontService, sans-serif"
   font-size="32px"
   x="104.187"
   y="72"
   id="tspan101">E</tspan><tspan
   font-size="21px"
   x="122.52"
   y="79"
   id="tspan103">1</tspan><tspan
   font-family="Cambria, Cambria_MSFontService, sans-serif"
   font-size="32px"
   x="133.353"
   y="72"
   id="tspan105">I</tspan><tspan
   font-size="32px"
   x="150.853"
   y="72"
   id="tspan107">=</tspan><tspan
   font-family="Cambria, Cambria_MSFontService, sans-serif"
   font-size="32px"
   x="174.02"
   y="72"
   id="tspan109">E</tspan><tspan
   font-size="21px"
   x="192.353"
   y="79"
   id="tspan111">1</tspan><tspan
   font-family="Cambria, Cambria_MSFontService, sans-serif"
   font-size="32px"
   x="104.966"
   y="117"
   id="tspan113">E</tspan><tspan
   font-size="21px"
   x="123.3"
   y="124"
   id="tspan115">1</tspan><tspan
   font-family="Cambria, Cambria_MSFontService, sans-serif"
   font-size="32px"
   x="141.133"
   y="117"
   id="tspan117">(E</tspan><tspan
   font-size="21px"
   x="171.633"
   y="124"
   id="tspan119">1</tspan><tspan
   font-size="32px"
   x="182.466"
   y="117"
   id="tspan121">)</tspan><tspan
   font-size="21px"
   x="192.133"
   y="107"
   id="tspan123">-</tspan><tspan
   font-size="21px"
   x="198.633"
   y="107"
   id="tspan125">1</tspan><tspan
   font-size="32px"
   x="216.633"
   y="117"
   id="tspan127">=</tspan><tspan
   font-family="Cambria, Cambria_MSFontService, sans-serif"
   font-size="32px"
   x="239.8"
   y="117"
   id="tspan129">I</tspan></text>
    <path
       d="M 268,455.717 C 268,447.037 275.037,440 283.717,440 h 104.566 c 8.68,0 15.717,7.037 15.717,15.717 v 90.566 C 404,554.963 396.963,562 388.283,562 H 283.717 C 275.037,562 268,554.963 268,546.283 Z"
       fill="#e2f0d9"
       fill-rule="evenodd"
       id="path133" />
    <path
       d="m 286.809,450.53 c -0.719,0 -1.32,0.213 -1.805,0.641 -0.484,0.427 -0.875,1.041 -1.172,1.843 -0.296,0.802 -0.507,1.779 -0.632,2.93 -0.125,1.151 -0.188,2.451 -0.188,3.898 0,3.396 0.315,5.888 0.945,7.477 0.631,1.589 1.607,2.383 2.93,2.383 1.261,0 2.195,-0.748 2.805,-2.242 0.609,-1.495 0.914,-3.81 0.914,-6.946 0,-2.396 -0.156,-4.336 -0.469,-5.82 -0.312,-1.484 -0.747,-2.549 -1.305,-3.195 -0.557,-0.646 -1.231,-0.969 -2.023,-0.969 z m 0.078,-1.328 c 2.281,0 3.979,0.88 5.094,2.64 1.114,1.761 1.672,4.422 1.672,7.985 0,3.687 -0.597,6.476 -1.789,8.367 -1.193,1.891 -2.935,2.836 -5.227,2.836 -2.25,0 -3.924,-0.885 -5.023,-2.656 -1.099,-1.771 -1.649,-4.459 -1.649,-8.063 0,-1.916 0.17,-3.573 0.508,-4.969 0.339,-1.395 0.813,-2.549 1.422,-3.46 0.609,-0.912 1.341,-1.586 2.195,-2.024 0.854,-0.437 1.787,-0.656 2.797,-0.656 z"
       fill-rule="evenodd"
       id="path135" />
    <text
       fill="#000000"
       fill-opacity="0"
       font-family="Arial, Arial_MSFontService, sans-serif"
       font-size="21.8281px"
       x="279.965"
       y="468.30099"
       id="text137">0</text>
    <path
       d="m 337.71,449.202 h 0.859 c -0.062,1 -0.093,2.385 -0.093,4.156 v 13.344 c 0,0.604 0.033,1.06 0.101,1.367 0.068,0.307 0.188,0.557 0.36,0.75 0.171,0.193 0.419,0.344 0.742,0.453 0.323,0.11 0.729,0.193 1.219,0.25 0.489,0.057 1.135,0.096 1.937,0.117 v 1.141 h -11.547 v -1.141 c 1.156,-0.052 1.982,-0.122 2.477,-0.211 0.494,-0.088 0.872,-0.221 1.133,-0.398 0.26,-0.177 0.45,-0.427 0.57,-0.75 0.12,-0.323 0.18,-0.849 0.18,-1.578 V 454.03 c 0,-0.417 -0.073,-0.721 -0.219,-0.914 -0.146,-0.193 -0.36,-0.289 -0.641,-0.289 -0.333,0 -0.807,0.172 -1.422,0.515 -0.614,0.344 -1.375,0.818 -2.281,1.422 l -0.687,-1.203 z"
       fill-rule="evenodd"
       id="path139" />
    <text
       fill="#000000"
       fill-opacity="0"
       font-family="Arial, Arial_MSFontService, sans-serif"
       font-size="21.5781px"
       x="330.39801"
       y="468.08301"
       id="text141">1</text>
    <path
       d="m 386.142,450.53 c -0.718,0 -1.32,0.213 -1.804,0.641 -0.485,0.427 -0.875,1.041 -1.172,1.843 -0.297,0.802 -0.508,1.779 -0.633,2.93 -0.125,1.151 -0.188,2.451 -0.188,3.898 0,3.396 0.316,5.888 0.946,7.477 0.63,1.589 1.607,2.383 2.929,2.383 1.261,0 2.196,-0.748 2.805,-2.242 0.609,-1.495 0.914,-3.81 0.914,-6.946 0,-2.396 -0.156,-4.336 -0.469,-5.82 -0.312,-1.484 -0.747,-2.549 -1.304,-3.195 -0.558,-0.646 -1.232,-0.969 -2.024,-0.969 z m 0.078,-1.328 c 2.282,0 3.98,0.88 5.094,2.64 1.115,1.761 1.672,4.422 1.672,7.985 0,3.687 -0.596,6.476 -1.789,8.367 -1.193,1.891 -2.935,2.836 -5.227,2.836 -2.25,0 -3.924,-0.885 -5.023,-2.656 -1.099,-1.771 -1.648,-4.459 -1.648,-8.063 0,-1.916 0.169,-3.573 0.507,-4.969 0.339,-1.395 0.813,-2.549 1.422,-3.46 0.61,-0.912 1.341,-1.586 2.196,-2.024 0.854,-0.437 1.786,-0.656 2.796,-0.656 z"
       fill-rule="evenodd"
       id="path143" />
    <text
       fill="#000000"
       fill-opacity="0"
       font-family="Arial, Arial_MSFontService, sans-serif"
       font-size="21.8281px"
       x="379.29901"
       y="468.30099"
       id="text145">0</text>
    <path
       d="m 288.043,486.715 h 0.86 c -0.063,1 -0.094,2.386 -0.094,4.156 v 13.344 c 0,0.604 0.034,1.06 0.102,1.367 0.067,0.308 0.187,0.558 0.359,0.75 0.172,0.193 0.419,0.344 0.742,0.453 0.323,0.11 0.729,0.193 1.219,0.25 0.489,0.058 1.135,0.097 1.937,0.118 v 1.14 h -11.547 v -1.14 c 1.157,-0.052 1.982,-0.123 2.477,-0.211 0.495,-0.089 0.872,-0.222 1.133,-0.399 0.26,-0.177 0.45,-0.427 0.57,-0.75 0.12,-0.323 0.18,-0.849 0.18,-1.578 v -12.672 c 0,-0.416 -0.073,-0.721 -0.219,-0.914 -0.146,-0.193 -0.359,-0.289 -0.641,-0.289 -0.333,0 -0.807,0.172 -1.421,0.516 -0.615,0.344 -1.375,0.817 -2.282,1.422 l -0.687,-1.203 z"
       fill-rule="evenodd"
       id="path147" />
    <text
       fill="#000000"
       fill-opacity="0"
       font-family="Arial, Arial_MSFontService, sans-serif"
       font-size="21.5781px"
       x="280.73099"
       y="505.59601"
       id="text149">1</text>
    <path
       d="m 336.476,488.043 c -0.719,0 -1.321,0.214 -1.805,0.641 -0.484,0.427 -0.875,1.042 -1.172,1.844 -0.297,0.802 -0.508,1.778 -0.633,2.929 -0.125,1.151 -0.187,2.451 -0.187,3.899 0,3.396 0.315,5.888 0.945,7.476 0.63,1.589 1.607,2.383 2.93,2.383 1.26,0 2.195,-0.747 2.804,-2.242 0.61,-1.495 0.915,-3.81 0.915,-6.945 0,-2.396 -0.157,-4.336 -0.469,-5.821 -0.313,-1.484 -0.748,-2.549 -1.305,-3.195 -0.557,-0.646 -1.232,-0.969 -2.023,-0.969 z m 0.078,-1.328 c 2.281,0 3.979,0.88 5.094,2.641 1.114,1.76 1.671,4.422 1.671,7.984 0,3.688 -0.596,6.477 -1.789,8.367 -1.192,1.891 -2.935,2.836 -5.226,2.836 -2.25,0 -3.925,-0.885 -5.024,-2.656 -1.099,-1.771 -1.648,-4.458 -1.648,-8.062 0,-1.917 0.169,-3.573 0.508,-4.969 0.338,-1.396 0.812,-2.55 1.422,-3.461 0.609,-0.912 1.341,-1.586 2.195,-2.024 0.854,-0.437 1.786,-0.656 2.797,-0.656 z"
       fill-rule="evenodd"
       id="path151" />
    <text
       fill="#000000"
       fill-opacity="0"
       font-family="Arial, Arial_MSFontService, sans-serif"
       font-size="21.8281px"
       x="329.63199"
       y="505.815"
       id="text153">0</text>
    <path
       d="m 386.142,488.043 c -0.718,0 -1.32,0.214 -1.804,0.641 -0.485,0.427 -0.875,1.042 -1.172,1.844 -0.297,0.802 -0.508,1.778 -0.633,2.929 -0.125,1.151 -0.188,2.451 -0.188,3.899 0,3.396 0.316,5.888 0.946,7.476 0.63,1.589 1.607,2.383 2.929,2.383 1.261,0 2.196,-0.747 2.805,-2.242 0.609,-1.495 0.914,-3.81 0.914,-6.945 0,-2.396 -0.156,-4.336 -0.469,-5.821 -0.312,-1.484 -0.747,-2.549 -1.304,-3.195 -0.558,-0.646 -1.232,-0.969 -2.024,-0.969 z m 0.078,-1.328 c 2.282,0 3.98,0.88 5.094,2.641 1.115,1.76 1.672,4.422 1.672,7.984 0,3.688 -0.596,6.477 -1.789,8.367 -1.193,1.891 -2.935,2.836 -5.227,2.836 -2.25,0 -3.924,-0.885 -5.023,-2.656 -1.099,-1.771 -1.648,-4.458 -1.648,-8.062 0,-1.917 0.169,-3.573 0.507,-4.969 0.339,-1.396 0.813,-2.55 1.422,-3.461 0.61,-0.912 1.341,-1.586 2.196,-2.024 0.854,-0.437 1.786,-0.656 2.796,-0.656 z"
       fill-rule="evenodd"
       id="path155" />
    <text
       fill="#000000"
       fill-opacity="0"
       font-family="Arial, Arial_MSFontService, sans-serif"
       font-size="21.8281px"
       x="379.29901"
       y="505.815"
       id="text157">0</text>
    <path
       d="m 286.809,525.557 c -0.719,0 -1.32,0.213 -1.805,0.64 -0.484,0.427 -0.875,1.042 -1.172,1.844 -0.296,0.802 -0.507,1.779 -0.632,2.93 -0.125,1.151 -0.188,2.45 -0.188,3.898 0,3.396 0.315,5.888 0.945,7.477 0.631,1.588 1.607,2.383 2.93,2.383 1.261,0 2.195,-0.748 2.805,-2.243 0.609,-1.494 0.914,-3.81 0.914,-6.945 0,-2.396 -0.156,-4.336 -0.469,-5.82 -0.312,-1.485 -0.747,-2.55 -1.305,-3.196 -0.557,-0.645 -1.231,-0.968 -2.023,-0.968 z m 0.078,-1.328 c 2.281,0 3.979,0.88 5.094,2.64 1.114,1.761 1.672,4.422 1.672,7.985 0,3.687 -0.597,6.476 -1.789,8.367 -1.193,1.89 -2.935,2.836 -5.227,2.836 -2.25,0 -3.924,-0.886 -5.023,-2.657 -1.099,-1.77 -1.649,-4.458 -1.649,-8.062 0,-1.917 0.17,-3.573 0.508,-4.969 0.339,-1.396 0.813,-2.549 1.422,-3.461 0.609,-0.911 1.341,-1.586 2.195,-2.023 0.854,-0.438 1.787,-0.656 2.797,-0.656 z"
       fill-rule="evenodd"
       id="path159" />
    <text
       fill="#000000"
       fill-opacity="0"
       font-family="Arial, Arial_MSFontService, sans-serif"
       font-size="21.8281px"
       x="279.965"
       y="543.328"
       id="text161">0</text>
    <path
       d="m 336.476,525.557 c -0.719,0 -1.321,0.213 -1.805,0.64 -0.484,0.427 -0.875,1.042 -1.172,1.844 -0.297,0.802 -0.508,1.779 -0.633,2.93 -0.125,1.151 -0.187,2.45 -0.187,3.898 0,3.396 0.315,5.888 0.945,7.477 0.63,1.588 1.607,2.383 2.93,2.383 1.26,0 2.195,-0.748 2.804,-2.243 0.61,-1.494 0.915,-3.81 0.915,-6.945 0,-2.396 -0.157,-4.336 -0.469,-5.82 -0.313,-1.485 -0.748,-2.55 -1.305,-3.196 -0.557,-0.645 -1.232,-0.968 -2.023,-0.968 z m 0.078,-1.328 c 2.281,0 3.979,0.88 5.094,2.64 1.114,1.761 1.671,4.422 1.671,7.985 0,3.687 -0.596,6.476 -1.789,8.367 -1.192,1.89 -2.935,2.836 -5.226,2.836 -2.25,0 -3.925,-0.886 -5.024,-2.657 -1.099,-1.77 -1.648,-4.458 -1.648,-8.062 0,-1.917 0.169,-3.573 0.508,-4.969 0.338,-1.396 0.812,-2.549 1.422,-3.461 0.609,-0.911 1.341,-1.586 2.195,-2.023 0.854,-0.438 1.786,-0.656 2.797,-0.656 z"
       fill-rule="evenodd"
       id="path163" />
    <text
       fill="#000000"
       fill-opacity="0"
       font-family="Arial, Arial_MSFontService, sans-serif"
       font-size="21.8281px"
       x="329.63199"
       y="543.328"
       id="text165">0</text>
    <path
       d="m 387.377,524.229 h 0.859 c -0.062,1 -0.094,2.385 -0.094,4.156 v 13.344 c 0,0.604 0.034,1.059 0.102,1.367 0.068,0.307 0.187,0.557 0.359,0.75 0.172,0.192 0.42,0.343 0.742,0.453 0.323,0.109 0.73,0.193 1.219,0.25 0.49,0.057 1.136,0.096 1.938,0.117 v 1.141 h -11.547 v -1.141 c 1.156,-0.052 1.982,-0.122 2.476,-0.211 0.495,-0.088 0.873,-0.221 1.133,-0.398 0.261,-0.177 0.451,-0.427 0.57,-0.75 0.12,-0.323 0.18,-0.849 0.18,-1.578 v -12.672 c 0,-0.417 -0.073,-0.722 -0.219,-0.914 -0.145,-0.193 -0.359,-0.289 -0.64,-0.289 -0.334,0 -0.807,0.171 -1.422,0.515 -0.615,0.344 -1.375,0.818 -2.281,1.422 l -0.688,-1.203 z"
       fill-rule="evenodd"
       id="path167" />
    <text
       fill="#000000"
       fill-opacity="0"
       font-family="Arial, Arial_MSFontService, sans-serif"
       font-size="21.5781px"
       x="380.064"
       y="543.10901"
       id="text169">1</text>
    <text
       font-family="Calibri, Calibri_MSFontService, sans-serif"
       font-weight="400"
       font-size="43px"
       transform="translate(325.568,416)"
       id="text173">E<tspan
   font-size="28px"
   x="20.8333"
   y="10"
   id="tspan171">1</tspan></text>
    <path
       d="M 420,455.717 C 420,447.037 427.037,440 435.717,440 h 103.566 c 8.68,0 15.717,7.037 15.717,15.717 v 90.566 C 555,554.963 547.963,562 539.283,562 H 435.717 C 427.037,562 420,554.963 420,546.283 Z"
       fill="#e2f0d9"
       fill-rule="evenodd"
       id="path175" />
    <path
       d="m 440.18,457.818 c -1.073,0 -2.036,0.432 -2.89,1.297 -0.854,0.864 -1.521,2.023 -2,3.476 -0.479,1.453 -0.719,2.904 -0.719,4.352 0,1.083 0.148,1.893 0.445,2.43 0.297,0.536 0.795,0.804 1.492,0.804 0.688,0 1.362,-0.297 2.024,-0.89 0.661,-0.594 1.344,-1.44 2.047,-2.539 0.703,-1.099 1.2,-2.368 1.492,-3.805 l 0.141,-0.672 c 0.093,-0.427 0.156,-0.797 0.187,-1.109 0.031,-0.313 0.047,-0.651 0.047,-1.016 0,-0.802 -0.172,-1.391 -0.516,-1.766 -0.343,-0.375 -0.927,-0.562 -1.75,-0.562 z m -0.312,-1.235 c 0.677,0 1.31,0.076 1.898,0.227 0.589,0.151 1.196,0.419 1.821,0.805 l 1.437,-1.032 1,0.25 -2.297,9.907 c -0.229,0.989 -0.344,1.76 -0.344,2.312 0,0.417 0.068,0.719 0.204,0.906 0.135,0.188 0.349,0.282 0.64,0.282 0.313,0 0.646,-0.128 1,-0.383 0.354,-0.255 0.854,-0.742 1.5,-1.461 l 0.891,0.875 c -0.938,1 -1.737,1.711 -2.399,2.133 -0.661,0.422 -1.377,0.633 -2.148,0.633 -0.646,0 -1.162,-0.214 -1.547,-0.641 -0.385,-0.427 -0.578,-0.995 -0.578,-1.703 0,-0.573 0.12,-1.182 0.359,-1.828 l -0.203,-0.063 c -1,1.459 -1.948,2.526 -2.844,3.203 -0.895,0.677 -1.843,1.016 -2.843,1.016 -1.146,0 -2.034,-0.432 -2.664,-1.297 -0.631,-0.864 -0.946,-2.078 -0.946,-3.641 0,-1.791 0.352,-3.513 1.055,-5.164 0.703,-1.651 1.669,-2.953 2.898,-3.906 1.23,-0.953 2.599,-1.43 4.11,-1.43 z"
       fill-rule="evenodd"
       id="path177" />
    <text
       fill="#000000"
       fill-opacity="0"
       font-family="Arial, Arial_MSFontService, sans-serif"
       font-size="15.4531px"
       x="431.80499"
       y="470.10501"
       id="text179">ğ‘</text>
    <path
       d="m 492.562,458.427 c -0.5,0 -0.992,0.159 -1.477,0.477 -0.484,0.318 -1.023,0.844 -1.617,1.578 -0.594,0.734 -1.078,1.487 -1.453,2.258 -0.375,0.771 -0.693,1.755 -0.953,2.953 l -0.141,0.656 c -0.156,0.729 -0.234,1.438 -0.234,2.125 0,0.823 0.18,1.417 0.539,1.781 0.359,0.365 0.956,0.547 1.789,0.547 0.427,0 0.833,-0.07 1.219,-0.211 0.385,-0.14 0.778,-0.372 1.18,-0.695 0.401,-0.323 0.781,-0.747 1.14,-1.273 0.36,-0.526 0.69,-1.175 0.992,-1.946 0.302,-0.771 0.537,-1.596 0.703,-2.476 0.167,-0.881 0.25,-1.722 0.25,-2.524 0,-1.083 -0.153,-1.896 -0.46,-2.437 -0.308,-0.542 -0.8,-0.813 -1.477,-0.813 z m -2.734,-8.984 h 0.906 l -2.75,10.937 0.203,0.063 c 1.01,-1.354 1.958,-2.333 2.844,-2.938 0.885,-0.604 1.771,-0.906 2.656,-0.906 1.135,0 2.018,0.432 2.648,1.297 0.631,0.865 0.946,2.083 0.946,3.656 0,1.719 -0.347,3.409 -1.039,5.071 -0.693,1.661 -1.654,2.979 -2.883,3.953 -1.229,0.974 -2.604,1.461 -4.125,1.461 -1.386,0 -2.615,-0.339 -3.688,-1.016 l -1.437,1.016 -1,-0.25 4.047,-17.86 c 0.239,-1.062 0.359,-1.833 0.359,-2.312 0,-0.438 -0.133,-0.745 -0.398,-0.922 -0.266,-0.177 -0.743,-0.276 -1.43,-0.297 l 0.187,-0.813 z"
       fill-rule="evenodd"
       id="path181" />
    <text
       fill="#000000"
       fill-opacity="0"
       font-family="Arial, Arial_MSFontService, sans-serif"
       font-size="22.5938px"
       x="483.10901"
       y="469.21201"
       id="text183">ğ‘</text>
    <path
       d="m 543.682,456.599 c 1.385,0 2.661,0.156 3.828,0.469 l -0.766,3.531 h -1.64 c -0.021,-0.792 -0.086,-1.364 -0.196,-1.719 -0.109,-0.354 -0.286,-0.619 -0.531,-0.797 -0.245,-0.177 -0.591,-0.265 -1.039,-0.265 -1.052,0 -1.997,0.419 -2.836,1.258 -0.838,0.838 -1.523,2.026 -2.055,3.562 -0.531,1.537 -0.796,3.013 -0.796,4.43 0,1.062 0.208,1.851 0.625,2.367 0.416,0.516 1.041,0.773 1.875,0.773 0.947,0 1.768,-0.179 2.46,-0.539 0.693,-0.359 1.425,-0.924 2.196,-1.695 l 0.953,0.953 c -0.979,1.084 -1.966,1.875 -2.961,2.375 -0.995,0.5 -2.065,0.75 -3.211,0.75 -1.51,0 -2.656,-0.448 -3.437,-1.344 -0.782,-0.895 -1.172,-2.197 -1.172,-3.906 0,-1.114 0.208,-2.338 0.625,-3.672 0.416,-1.333 1.026,-2.505 1.828,-3.515 0.802,-1.011 1.739,-1.766 2.812,-2.266 1.073,-0.5 2.219,-0.75 3.438,-0.75 z"
       fill-rule="evenodd"
       id="path185" />
    <text
       fill="#000000"
       fill-opacity="0"
       font-family="Arial, Arial_MSFontService, sans-serif"
       font-size="15.4531px"
       x="534.979"
       y="470.121"
       id="text187">ğ‘</text>
    <path
       d="m 439.702,495.331 c -1.062,0 -2.015,0.43 -2.859,1.289 -0.844,0.86 -1.508,2.018 -1.992,3.477 -0.485,1.458 -0.727,2.911 -0.727,4.359 0,1.084 0.149,1.893 0.446,2.43 0.296,0.536 0.794,0.805 1.492,0.805 0.323,0 0.651,-0.071 0.984,-0.211 0.333,-0.141 0.68,-0.368 1.039,-0.68 0.36,-0.313 0.714,-0.693 1.063,-1.141 0.349,-0.448 0.669,-0.898 0.961,-1.351 0.291,-0.453 0.562,-0.99 0.812,-1.61 0.25,-0.619 0.464,-1.367 0.641,-2.242 l 0.14,-0.672 c 0.157,-0.75 0.235,-1.458 0.235,-2.125 0,-0.812 -0.172,-1.403 -0.516,-1.773 -0.344,-0.37 -0.917,-0.555 -1.719,-0.555 z m 6.547,-8.375 h 0.922 l -3.89,17.297 c -0.23,1.021 -0.344,1.792 -0.344,2.313 0,0.416 0.067,0.718 0.203,0.906 0.135,0.187 0.349,0.281 0.641,0.281 0.312,0 0.645,-0.128 1,-0.383 0.354,-0.255 0.854,-0.742 1.5,-1.461 l 0.89,0.875 c -0.958,1.011 -1.765,1.724 -2.422,2.141 -0.656,0.417 -1.364,0.625 -2.125,0.625 -0.646,0 -1.161,-0.214 -1.547,-0.641 -0.385,-0.427 -0.578,-0.994 -0.578,-1.703 0,-0.573 0.12,-1.182 0.36,-1.828 l -0.203,-0.062 c -1,1.458 -1.948,2.526 -2.844,3.203 -0.896,0.677 -1.844,1.015 -2.844,1.015 -1.146,0 -2.034,-0.432 -2.664,-1.297 -0.63,-0.864 -0.945,-2.078 -0.945,-3.64 0,-1.792 0.351,-3.513 1.054,-5.164 0.703,-1.651 1.67,-2.953 2.899,-3.906 1.229,-0.954 2.599,-1.43 4.109,-1.43 0.636,0 1.221,0.065 1.758,0.195 0.536,0.13 1.086,0.357 1.648,0.68 l 0.813,-3.61 c 0.083,-0.343 0.156,-0.724 0.219,-1.14 0.062,-0.417 0.093,-0.781 0.093,-1.094 0,-0.312 -0.057,-0.549 -0.171,-0.711 -0.115,-0.161 -0.279,-0.279 -0.493,-0.351 -0.213,-0.073 -0.596,-0.125 -1.148,-0.157 l 0.187,-0.812 z"
       fill-rule="evenodd"
       id="path189" />
    <text
       fill="#000000"
       fill-opacity="0"
       font-family="Arial, Arial_MSFontService, sans-serif"
       font-size="22.5938px"
       x="431.35901"
       y="506.72601"
       id="text191">ğ‘‘</text>
    <path
       d="m 492.465,495.331 c -1.052,0 -2.065,0.531 -3.039,1.594 -0.974,1.062 -1.722,2.5 -2.242,4.312 1.468,-0.01 2.729,-0.143 3.781,-0.398 1.052,-0.255 1.859,-0.661 2.422,-1.219 0.562,-0.557 0.843,-1.31 0.843,-2.258 0,-0.635 -0.148,-1.132 -0.445,-1.492 -0.297,-0.359 -0.737,-0.539 -1.32,-0.539 z m 0.562,-1.234 c 1.261,0 2.206,0.255 2.836,0.765 0.631,0.511 0.946,1.308 0.946,2.391 0,1.771 -0.831,3.099 -2.493,3.984 -1.661,0.886 -4.127,1.329 -7.398,1.329 -0.125,0.625 -0.188,1.302 -0.188,2.031 0,1.094 0.214,1.888 0.641,2.383 0.427,0.494 1.125,0.742 2.094,0.742 0.958,0 1.825,-0.209 2.601,-0.625 0.776,-0.417 1.597,-1.057 2.461,-1.922 l 0.969,1.016 c -1.01,1.114 -2.034,1.953 -3.07,2.515 -1.037,0.563 -2.242,0.844 -3.617,0.844 -1.511,0 -2.68,-0.461 -3.508,-1.383 -0.828,-0.922 -1.242,-2.206 -1.242,-3.851 0,-1.115 0.2,-2.31 0.601,-3.586 0.401,-1.276 1.008,-2.422 1.82,-3.438 0.813,-1.015 1.787,-1.802 2.922,-2.359 1.136,-0.558 2.344,-0.836 3.625,-0.836 z"
       fill-rule="evenodd"
       id="path193" />
    <text
       fill="#000000"
       fill-opacity="0"
       font-family="Arial, Arial_MSFontService, sans-serif"
       font-size="15.4531px"
       x="484.05899"
       y="507.61801"
       id="text195">ğ‘’</text>
    <path
       d="m 546.597,486.862 c 1.021,0 1.901,0.084 2.64,0.25 l -0.609,2.657 h -1.375 c -0.146,-0.594 -0.336,-1.021 -0.57,-1.282 -0.235,-0.26 -0.581,-0.39 -1.039,-0.39 -0.594,0 -1.097,0.164 -1.508,0.492 -0.412,0.328 -0.763,0.815 -1.055,1.461 -0.292,0.646 -0.562,1.516 -0.812,2.609 l -0.391,1.703 h 4.016 l -0.344,1.579 h -4.031 l -2.907,13.625 c -0.479,2.26 -1.213,3.945 -2.203,5.054 -0.989,1.11 -2.234,1.664 -3.734,1.664 -0.438,0 -0.781,-0.026 -1.031,-0.078 l 0.265,-1.375 c 0.104,0.031 0.349,0.047 0.735,0.047 0.468,0 0.869,-0.12 1.203,-0.359 0.333,-0.24 0.643,-0.657 0.929,-1.25 0.287,-0.594 0.55,-1.417 0.789,-2.469 l 3.36,-14.859 h -2.641 l 0.235,-1.079 c 0.698,-0.041 1.2,-0.099 1.507,-0.171 0.308,-0.073 0.547,-0.183 0.719,-0.329 0.172,-0.145 0.318,-0.335 0.438,-0.57 0.119,-0.234 0.273,-0.664 0.461,-1.289 0.552,-1.875 1.403,-3.284 2.554,-4.226 1.151,-0.943 2.617,-1.415 4.399,-1.415 z"
       fill-rule="evenodd"
       id="path197" />
    <text
       fill="#000000"
       fill-opacity="0"
       font-family="Arial, Arial_MSFontService, sans-serif"
       font-size="29.4218px"
       x="531.64398"
       y="512.60699"
       id="text199">ğ‘“</text>
    <path
       d="m 441.404,534.858 c -1.062,0 -2.015,0.43 -2.859,1.289 -0.844,0.859 -1.508,2.018 -1.992,3.476 -0.484,1.459 -0.727,2.912 -0.727,4.36 0,1.083 0.157,1.893 0.469,2.43 0.313,0.536 0.802,0.804 1.469,0.804 0.531,0 1.06,-0.182 1.586,-0.547 0.526,-0.364 1.088,-0.942 1.687,-1.734 0.599,-0.792 1.065,-1.547 1.399,-2.266 0.333,-0.718 0.617,-1.614 0.851,-2.687 0.235,-1.073 0.352,-2.005 0.352,-2.797 0,-0.813 -0.172,-1.404 -0.516,-1.773 -0.344,-0.37 -0.916,-0.555 -1.719,-0.555 z m -0.25,-1.235 c 0.657,0 1.276,0.079 1.86,0.235 0.583,0.156 1.172,0.422 1.765,0.797 l 1.438,-1.032 1,0.25 -1.609,7.282 c -0.115,0.51 -0.375,1.797 -0.782,3.859 -0.427,2.188 -0.773,3.734 -1.039,4.641 -0.265,0.906 -0.596,1.731 -0.992,2.476 -0.396,0.745 -0.906,1.394 -1.531,1.946 -0.625,0.552 -1.383,0.979 -2.274,1.281 -0.89,0.302 -1.945,0.453 -3.164,0.453 -3.937,0 -5.906,-1.146 -5.906,-3.438 0,-0.583 0.177,-1.114 0.531,-1.593 0.354,-0.479 0.922,-0.985 1.703,-1.516 l 1.125,0.906 c -0.197,0.24 -0.364,0.477 -0.5,0.711 -0.135,0.235 -0.231,0.461 -0.289,0.68 -0.057,0.219 -0.086,0.479 -0.086,0.781 0,0.781 0.282,1.352 0.844,1.711 0.563,0.36 1.412,0.539 2.547,0.539 1.281,0 2.31,-0.289 3.086,-0.867 0.776,-0.578 1.44,-1.508 1.992,-2.789 0.552,-1.281 1.089,-3.219 1.61,-5.813 l -0.219,-0.046 c -1.011,1.385 -1.948,2.395 -2.813,3.031 -0.864,0.635 -1.797,0.953 -2.797,0.953 -1.135,0 -2.018,-0.427 -2.648,-1.281 -0.63,-0.854 -0.945,-2.073 -0.945,-3.657 0,-1.781 0.349,-3.492 1.047,-5.132 0.697,-1.641 1.666,-2.946 2.906,-3.914 1.239,-0.969 2.62,-1.454 4.14,-1.454 z"
       fill-rule="evenodd"
       id="path201" />
    <text
       fill="#000000"
       fill-opacity="0"
       font-family="Arial, Arial_MSFontService, sans-serif"
       font-size="22.1875px"
       x="429.92001"
       y="553.03802"
       id="text203">ğ‘”</text>
    <path
       d="m 489.639,526.483 h 0.906 l -2.688,10.828 0.188,0.062 c 0.989,-1.312 1.924,-2.263 2.805,-2.851 0.88,-0.589 1.768,-0.883 2.664,-0.883 0.968,0 1.713,0.279 2.234,0.836 0.521,0.557 0.781,1.331 0.781,2.32 0,0.657 -0.151,1.589 -0.453,2.797 l -1.015,4.094 c -0.282,1.135 -0.422,1.937 -0.422,2.406 0,0.417 0.067,0.719 0.203,0.906 0.135,0.188 0.349,0.282 0.64,0.282 0.313,0 0.646,-0.128 1,-0.383 0.355,-0.255 0.855,-0.742 1.5,-1.461 l 0.891,0.875 c -1,1.052 -1.82,1.776 -2.461,2.172 -0.641,0.396 -1.362,0.594 -2.164,0.594 -0.677,0 -1.216,-0.24 -1.617,-0.719 -0.401,-0.479 -0.602,-1.099 -0.602,-1.86 0,-0.677 0.172,-1.671 0.516,-2.984 l 0.672,-2.703 c 0.239,-0.969 0.401,-1.695 0.484,-2.18 0.083,-0.484 0.125,-0.862 0.125,-1.133 0,-0.739 -0.12,-1.263 -0.359,-1.57 -0.24,-0.307 -0.63,-0.461 -1.172,-0.461 -0.427,0 -0.901,0.177 -1.422,0.531 -0.521,0.355 -1.068,0.894 -1.641,1.618 -0.573,0.724 -1.028,1.416 -1.367,2.078 -0.338,0.661 -0.607,1.45 -0.804,2.367 l -1.422,6.766 h -2.703 l 4.015,-17.86 c 0.25,-1.114 0.375,-1.885 0.375,-2.312 0,-0.438 -0.133,-0.745 -0.398,-0.922 -0.266,-0.177 -0.742,-0.276 -1.43,-0.297 l 0.188,-0.813 z"
       fill-rule="evenodd"
       id="path205" />
    <text
       fill="#000000"
       fill-opacity="0"
       font-family="Arial, Arial_MSFontService, sans-serif"
       font-size="22.5938px"
       x="482.936"
       y="546.25201"
       id="text207">â„</text>
    <path
       d="m 542.076,533.748 h 0.922 l -2.25,10.032 c -0.23,1.021 -0.344,1.791 -0.344,2.312 0,0.417 0.068,0.719 0.203,0.906 0.135,0.188 0.349,0.282 0.641,0.282 0.312,0 0.645,-0.128 1,-0.383 0.354,-0.255 0.854,-0.742 1.5,-1.461 l 0.89,0.875 c -1.021,1.073 -1.849,1.802 -2.484,2.187 -0.636,0.386 -1.349,0.579 -2.141,0.579 -0.677,0 -1.219,-0.248 -1.625,-0.743 -0.406,-0.494 -0.609,-1.127 -0.609,-1.898 0,-0.792 0.146,-1.802 0.437,-3.031 l 1.172,-5.11 c 0.24,-1.041 0.36,-1.823 0.36,-2.343 0,-0.469 -0.112,-0.787 -0.336,-0.954 -0.224,-0.166 -0.664,-0.26 -1.321,-0.281 l 0.172,-0.828 z m -0.422,-5.984 h 2.765 l -0.718,3.031 h -2.766 z"
       fill-rule="evenodd"
       id="path209" />
    <text
       fill="#000000"
       fill-opacity="0"
       font-family="Arial, Arial_MSFontService, sans-serif"
       font-size="21.3125px"
       x="537.77899"
       y="546.41302"
       id="text211">ğ‘–</text>
    <text
       font-family="Calibri, Calibri_MSFontService, sans-serif"
       font-weight="400"
       font-size="43px"
       transform="translate(477.07,416)"
       id="text215">A<tspan
   font-size="43px"
   x="103.883"
   y="96"
   id="tspan213">=</tspan></text>
    <path
       d="M 624,455.717 C 624,447.037 631.037,440 639.717,440 h 103.566 c 8.68,0 15.717,7.037 15.717,15.717 v 90.566 C 759,554.963 751.963,562 743.283,562 H 639.717 C 631.037,562 624,554.963 624,546.283 Z"
       fill="#e2f0d9"
       fill-rule="evenodd"
       id="path217" />
    <path
       d="m 643.527,457.865 c -1.062,0 -2.015,0.429 -2.859,1.289 -0.844,0.859 -1.508,2.018 -1.992,3.476 -0.484,1.459 -0.727,2.912 -0.727,4.36 0,1.083 0.149,1.893 0.446,2.429 0.297,0.537 0.794,0.805 1.492,0.805 0.323,0 0.651,-0.07 0.984,-0.211 0.334,-0.141 0.68,-0.367 1.039,-0.68 0.36,-0.312 0.714,-0.692 1.063,-1.14 0.349,-0.448 0.669,-0.899 0.961,-1.352 0.291,-0.453 0.562,-0.989 0.812,-1.609 0.25,-0.62 0.464,-1.367 0.641,-2.242 l 0.14,-0.672 c 0.157,-0.75 0.235,-1.459 0.235,-2.125 0,-0.813 -0.172,-1.404 -0.516,-1.774 -0.344,-0.37 -0.916,-0.554 -1.719,-0.554 z m 6.547,-8.375 h 0.922 l -3.89,17.296 c -0.23,1.021 -0.344,1.792 -0.344,2.313 0,0.417 0.068,0.719 0.203,0.906 0.135,0.188 0.349,0.281 0.641,0.281 0.312,0 0.645,-0.127 1,-0.382 0.354,-0.256 0.854,-0.743 1.5,-1.461 l 0.89,0.875 c -0.958,1.01 -1.765,1.724 -2.422,2.14 -0.656,0.417 -1.364,0.625 -2.125,0.625 -0.645,0 -1.161,-0.213 -1.547,-0.64 -0.385,-0.427 -0.578,-0.995 -0.578,-1.703 0,-0.573 0.12,-1.183 0.36,-1.829 l -0.203,-0.062 c -1,1.458 -1.948,2.526 -2.844,3.203 -0.896,0.677 -1.844,1.016 -2.844,1.016 -1.146,0 -2.034,-0.433 -2.664,-1.297 -0.63,-0.865 -0.945,-2.078 -0.945,-3.641 0,-1.791 0.351,-3.513 1.054,-5.164 0.704,-1.651 1.67,-2.953 2.899,-3.906 1.229,-0.953 2.599,-1.43 4.109,-1.43 0.636,0 1.222,0.065 1.758,0.195 0.536,0.131 1.086,0.357 1.648,0.68 l 0.813,-3.609 c 0.083,-0.344 0.156,-0.724 0.219,-1.141 0.062,-0.416 0.093,-0.781 0.093,-1.094 0,-0.312 -0.057,-0.549 -0.171,-0.711 -0.115,-0.161 -0.279,-0.278 -0.493,-0.351 -0.213,-0.073 -0.596,-0.125 -1.148,-0.156 l 0.187,-0.813 z"
       fill-rule="evenodd"
       id="path219" />
    <text
       fill="#000000"
       fill-opacity="0"
       font-family="Arial, Arial_MSFontService, sans-serif"
       font-size="22.5938px"
       x="635.18402"
       y="469.259"
       id="text221">ğ‘‘</text>
    <path
       d="m 696.29,457.865 c -1.052,0 -2.065,0.531 -3.039,1.593 -0.974,1.063 -1.721,2.5 -2.242,4.313 1.468,-0.011 2.729,-0.143 3.781,-0.399 1.052,-0.255 1.859,-0.661 2.422,-1.218 0.562,-0.558 0.844,-1.31 0.844,-2.258 0,-0.636 -0.149,-1.133 -0.446,-1.492 -0.297,-0.36 -0.737,-0.539 -1.32,-0.539 z m 0.562,-1.235 c 1.261,0 2.206,0.255 2.836,0.766 0.631,0.51 0.946,1.307 0.946,2.39 0,1.771 -0.831,3.099 -2.492,3.985 -1.662,0.885 -4.128,1.328 -7.399,1.328 -0.125,0.625 -0.187,1.302 -0.187,2.031 0,1.094 0.213,1.888 0.64,2.383 0.427,0.495 1.125,0.742 2.094,0.742 0.958,0 1.825,-0.208 2.602,-0.625 0.776,-0.416 1.596,-1.057 2.46,-1.922 l 0.969,1.016 c -1.01,1.115 -2.034,1.953 -3.07,2.516 -1.037,0.562 -2.242,0.843 -3.617,0.843 -1.511,0 -2.68,-0.461 -3.508,-1.383 -0.828,-0.921 -1.242,-2.205 -1.242,-3.851 0,-1.115 0.2,-2.31 0.601,-3.586 0.401,-1.276 1.008,-2.422 1.821,-3.438 0.812,-1.015 1.786,-1.802 2.921,-2.359 1.136,-0.557 2.344,-0.836 3.625,-0.836 z"
       fill-rule="evenodd"
       id="path223" />
    <text
       fill="#000000"
       fill-opacity="0"
       font-family="Arial, Arial_MSFontService, sans-serif"
       font-size="15.4531px"
       x="687.88397"
       y="470.15201"
       id="text225">ğ‘’</text>
    <path
       d="m 750.422,449.396 c 1.021,0 1.901,0.083 2.64,0.25 l -0.609,2.656 h -1.375 c -0.146,-0.594 -0.336,-1.021 -0.57,-1.281 -0.235,-0.261 -0.581,-0.391 -1.039,-0.391 -0.594,0 -1.097,0.164 -1.508,0.492 -0.412,0.328 -0.763,0.815 -1.055,1.461 -0.291,0.646 -0.562,1.516 -0.812,2.61 l -0.391,1.703 h 4.016 l -0.344,1.578 h -4.031 l -2.906,13.625 c -0.48,2.26 -1.214,3.945 -2.204,5.055 -0.989,1.109 -2.234,1.664 -3.734,1.664 -0.438,0 -0.781,-0.026 -1.031,-0.078 l 0.265,-1.375 c 0.105,0.031 0.349,0.046 0.735,0.046 0.469,0 0.87,-0.119 1.203,-0.359 0.333,-0.24 0.643,-0.656 0.93,-1.25 0.286,-0.594 0.549,-1.417 0.789,-2.469 l 3.359,-14.859 h -2.641 l 0.235,-1.078 c 0.698,-0.042 1.2,-0.099 1.508,-0.172 0.307,-0.073 0.546,-0.182 0.718,-0.328 0.172,-0.146 0.318,-0.336 0.438,-0.571 0.12,-0.234 0.273,-0.664 0.461,-1.289 0.552,-1.875 1.403,-3.283 2.554,-4.226 1.151,-0.943 2.618,-1.414 4.399,-1.414 z"
       fill-rule="evenodd"
       id="path227" />
    <text
       fill="#000000"
       fill-opacity="0"
       font-family="Arial, Arial_MSFontService, sans-serif"
       font-size="29.4219px"
       x="735.46899"
       y="475.14001"
       id="text229">ğ‘“</text>
    <path
       d="m 644.005,497.391 c -1.073,0 -2.036,0.432 -2.89,1.297 -0.854,0.865 -1.521,2.024 -2,3.477 -0.479,1.453 -0.719,2.903 -0.719,4.351 0,1.084 0.148,1.893 0.445,2.43 0.297,0.536 0.795,0.805 1.492,0.805 0.688,0 1.362,-0.297 2.024,-0.891 0.661,-0.594 1.344,-1.44 2.047,-2.539 0.703,-1.099 1.2,-2.367 1.492,-3.805 l 0.141,-0.672 c 0.093,-0.427 0.156,-0.797 0.187,-1.109 0.031,-0.313 0.047,-0.651 0.047,-1.016 0,-0.802 -0.172,-1.39 -0.516,-1.765 -0.343,-0.375 -0.927,-0.563 -1.75,-0.563 z m -0.312,-1.234 c 0.677,0 1.31,0.075 1.898,0.226 0.589,0.151 1.196,0.42 1.821,0.805 l 1.437,-1.031 1,0.25 -2.297,9.906 c -0.229,0.99 -0.344,1.76 -0.344,2.313 0,0.416 0.068,0.718 0.204,0.906 0.135,0.187 0.349,0.281 0.64,0.281 0.313,0 0.646,-0.128 1,-0.383 0.354,-0.255 0.854,-0.742 1.5,-1.461 l 0.891,0.875 c -0.938,1 -1.737,1.711 -2.399,2.133 -0.661,0.422 -1.377,0.633 -2.148,0.633 -0.646,0 -1.161,-0.214 -1.547,-0.641 -0.385,-0.427 -0.578,-0.994 -0.578,-1.703 0,-0.573 0.12,-1.182 0.359,-1.828 l -0.203,-0.062 c -1,1.458 -1.948,2.526 -2.844,3.203 -0.895,0.677 -1.843,1.015 -2.843,1.015 -1.146,0 -2.034,-0.432 -2.664,-1.297 -0.631,-0.864 -0.946,-2.078 -0.946,-3.64 0,-1.792 0.352,-3.513 1.055,-5.164 0.703,-1.651 1.669,-2.953 2.898,-3.906 1.23,-0.954 2.599,-1.43 4.11,-1.43 z"
       fill-rule="evenodd"
       id="path231" />
    <text
       fill="#000000"
       fill-opacity="0"
       font-family="Arial, Arial_MSFontService, sans-serif"
       font-size="15.4531px"
       x="635.63"
       y="509.67801"
       id="text233">ğ‘</text>
    <path
       d="m 696.387,498.001 c -0.5,0 -0.992,0.158 -1.476,0.476 -0.485,0.318 -1.024,0.844 -1.618,1.578 -0.593,0.735 -1.078,1.487 -1.453,2.258 -0.375,0.771 -0.692,1.755 -0.953,2.953 l -0.141,0.656 c -0.156,0.73 -0.234,1.438 -0.234,2.125 0,0.823 0.18,1.417 0.539,1.782 0.36,0.364 0.956,0.547 1.789,0.547 0.427,0 0.834,-0.071 1.219,-0.211 0.385,-0.141 0.779,-0.373 1.18,-0.696 0.401,-0.323 0.781,-0.747 1.14,-1.273 0.36,-0.526 0.69,-1.175 0.992,-1.945 0.303,-0.771 0.537,-1.597 0.704,-2.477 0.166,-0.88 0.25,-1.721 0.25,-2.523 0,-1.084 -0.154,-1.896 -0.461,-2.438 -0.308,-0.542 -0.8,-0.812 -1.477,-0.812 z m -2.734,-8.985 h 0.906 l -2.75,10.938 0.203,0.062 c 1.011,-1.354 1.958,-2.333 2.844,-2.937 0.885,-0.604 1.771,-0.907 2.656,-0.907 1.136,0 2.018,0.433 2.649,1.297 0.63,0.865 0.945,2.084 0.945,3.657 0,1.718 -0.347,3.408 -1.039,5.07 -0.693,1.661 -1.654,2.979 -2.883,3.953 -1.229,0.974 -2.604,1.461 -4.125,1.461 -1.385,0 -2.615,-0.339 -3.688,-1.016 l -1.437,1.016 -1,-0.25 4.047,-17.859 c 0.239,-1.063 0.359,-1.834 0.359,-2.313 0,-0.437 -0.133,-0.745 -0.398,-0.922 -0.266,-0.177 -0.742,-0.276 -1.43,-0.297 l 0.188,-0.812 z"
       fill-rule="evenodd"
       id="path235" />
    <text
       fill="#000000"
       fill-opacity="0"
       font-family="Arial, Arial_MSFontService, sans-serif"
       font-size="22.5938px"
       x="686.93402"
       y="508.78601"
       id="text237">ğ‘</text>
    <path
       d="m 747.507,496.172 c 1.385,0 2.661,0.157 3.828,0.469 l -0.766,3.531 h -1.64 c -0.021,-0.791 -0.086,-1.364 -0.196,-1.718 -0.109,-0.354 -0.286,-0.62 -0.531,-0.797 -0.245,-0.177 -0.591,-0.266 -1.039,-0.266 -1.052,0 -1.997,0.419 -2.836,1.258 -0.838,0.839 -1.523,2.026 -2.055,3.563 -0.531,1.536 -0.796,3.013 -0.796,4.429 0,1.063 0.208,1.852 0.625,2.367 0.416,0.516 1.041,0.774 1.875,0.774 0.948,0 1.768,-0.18 2.461,-0.539 0.692,-0.36 1.424,-0.925 2.195,-1.696 l 0.953,0.954 c -0.979,1.083 -1.966,1.875 -2.961,2.375 -0.995,0.5 -2.065,0.75 -3.211,0.75 -1.51,0 -2.656,-0.448 -3.437,-1.344 -0.782,-0.896 -1.172,-2.198 -1.172,-3.906 0,-1.115 0.208,-2.339 0.625,-3.672 0.416,-1.334 1.026,-2.506 1.828,-3.516 0.802,-1.01 1.739,-1.766 2.812,-2.266 1.073,-0.5 2.219,-0.75 3.438,-0.75 z"
       fill-rule="evenodd"
       id="path239" />
    <text
       fill="#000000"
       fill-opacity="0"
       font-family="Arial, Arial_MSFontService, sans-serif"
       font-size="15.4531px"
       x="738.80402"
       y="509.694"
       id="text241">ğ‘</text>
    <path
       d="m 645.23,534.905 c -1.063,0 -2.016,0.429 -2.86,1.289 -0.844,0.859 -1.508,2.018 -1.992,3.476 -0.484,1.458 -0.727,2.912 -0.727,4.36 0,1.083 0.157,1.893 0.469,2.429 0.313,0.537 0.802,0.805 1.469,0.805 0.531,0 1.06,-0.182 1.586,-0.547 0.526,-0.365 1.088,-0.943 1.687,-1.734 0.599,-0.792 1.065,-1.547 1.399,-2.266 0.333,-0.719 0.617,-1.615 0.851,-2.687 0.235,-1.073 0.352,-2.006 0.352,-2.797 0,-0.813 -0.172,-1.404 -0.516,-1.774 -0.343,-0.37 -0.916,-0.554 -1.718,-0.554 z m -0.25,-1.235 c 0.656,0 1.276,0.078 1.859,0.235 0.583,0.156 1.172,0.421 1.766,0.796 l 1.437,-1.031 1,0.25 -1.609,7.281 c -0.115,0.511 -0.375,1.797 -0.782,3.86 -0.427,2.187 -0.773,3.734 -1.039,4.64 -0.265,0.907 -0.596,1.732 -0.992,2.477 -0.396,0.745 -0.906,1.393 -1.531,1.945 -0.625,0.552 -1.383,0.979 -2.274,1.282 -0.89,0.302 -1.945,0.453 -3.164,0.453 -3.937,0 -5.906,-1.146 -5.906,-3.438 0,-0.583 0.177,-1.114 0.531,-1.594 0.355,-0.479 0.922,-0.984 1.704,-1.515 l 1.125,0.906 c -0.198,0.24 -0.365,0.477 -0.5,0.711 -0.136,0.234 -0.232,0.461 -0.29,0.68 -0.057,0.218 -0.085,0.479 -0.085,0.781 0,0.781 0.281,1.351 0.843,1.711 0.563,0.359 1.412,0.539 2.547,0.539 1.281,0 2.31,-0.289 3.086,-0.867 0.776,-0.578 1.44,-1.508 1.992,-2.789 0.552,-1.282 1.089,-3.219 1.61,-5.813 l -0.219,-0.047 c -1.011,1.386 -1.948,2.396 -2.813,3.032 -0.864,0.635 -1.796,0.953 -2.796,0.953 -1.136,0 -2.019,-0.427 -2.649,-1.282 -0.63,-0.854 -0.945,-2.073 -0.945,-3.656 0,-1.781 0.349,-3.492 1.047,-5.133 0.698,-1.64 1.666,-2.945 2.906,-3.914 1.239,-0.968 2.62,-1.453 4.141,-1.453 z"
       fill-rule="evenodd"
       id="path243" />
    <text
       fill="#000000"
       fill-opacity="0"
       font-family="Arial, Arial_MSFontService, sans-serif"
       font-size="22.1875px"
       x="633.745"
       y="553.08398"
       id="text245">ğ‘”</text>
    <path
       d="m 693.464,526.53 h 0.906 l -2.688,10.828 0.188,0.062 c 0.99,-1.312 1.924,-2.263 2.805,-2.851 0.88,-0.589 1.768,-0.883 2.664,-0.883 0.968,0 1.713,0.278 2.234,0.836 0.521,0.557 0.781,1.33 0.781,2.32 0,0.656 -0.151,1.589 -0.453,2.797 l -1.015,4.094 c -0.282,1.135 -0.422,1.937 -0.422,2.406 0,0.417 0.067,0.719 0.203,0.906 0.135,0.188 0.349,0.281 0.64,0.281 0.313,0 0.646,-0.127 1,-0.382 0.355,-0.256 0.855,-0.743 1.5,-1.461 l 0.891,0.875 c -1,1.052 -1.82,1.776 -2.461,2.172 -0.64,0.395 -1.362,0.593 -2.164,0.593 -0.677,0 -1.216,-0.239 -1.617,-0.718 -0.401,-0.48 -0.602,-1.099 -0.602,-1.86 0,-0.677 0.172,-1.672 0.516,-2.984 l 0.672,-2.703 c 0.239,-0.969 0.401,-1.696 0.484,-2.18 0.084,-0.484 0.125,-0.862 0.125,-1.133 0,-0.739 -0.12,-1.263 -0.359,-1.57 -0.24,-0.307 -0.63,-0.461 -1.172,-0.461 -0.427,0 -0.901,0.177 -1.422,0.531 -0.521,0.354 -1.068,0.893 -1.641,1.617 -0.572,0.724 -1.028,1.417 -1.367,2.078 -0.338,0.662 -0.606,1.451 -0.804,2.368 l -1.422,6.765 h -2.703 l 4.015,-17.859 c 0.25,-1.115 0.375,-1.886 0.375,-2.313 0,-0.437 -0.133,-0.744 -0.398,-0.921 -0.266,-0.178 -0.742,-0.277 -1.43,-0.297 l 0.188,-0.813 z"
       fill-rule="evenodd"
       id="path247" />
    <text
       fill="#000000"
       fill-opacity="0"
       font-family="Arial, Arial_MSFontService, sans-serif"
       font-size="22.5938px"
       x="686.76099"
       y="546.29901"
       id="text249">â„</text>
    <path
       d="m 745.901,533.795 h 0.922 l -2.25,10.031 c -0.229,1.021 -0.344,1.792 -0.344,2.313 0,0.417 0.068,0.719 0.203,0.906 0.136,0.188 0.349,0.281 0.641,0.281 0.312,0 0.646,-0.127 1,-0.382 0.354,-0.256 0.854,-0.743 1.5,-1.461 l 0.89,0.875 c -1.02,1.073 -1.849,1.802 -2.484,2.187 -0.635,0.386 -1.349,0.578 -2.141,0.578 -0.677,0 -1.218,-0.247 -1.625,-0.742 -0.406,-0.495 -0.609,-1.128 -0.609,-1.898 0,-0.792 0.146,-1.802 0.437,-3.032 l 1.172,-5.109 c 0.24,-1.042 0.36,-1.823 0.36,-2.344 0,-0.468 -0.112,-0.786 -0.336,-0.953 -0.224,-0.167 -0.664,-0.26 -1.321,-0.281 l 0.172,-0.828 z m -0.422,-5.984 h 2.766 l -0.719,3.031 h -2.766 z"
       fill-rule="evenodd"
       id="path251" />
    <text
       fill="#000000"
       fill-opacity="0"
       font-family="Arial, Arial_MSFontService, sans-serif"
       font-size="21.3125px"
       x="741.604"
       y="546.45898"
       id="text253">ğ‘–</text>
    <text
       font-family="Calibri, Calibri_MSFontService, sans-serif"
       font-weight="400"
       font-size="43px"
       transform="translate(684.749,416)"
       id="text275">B<tspan
   font-family="Cambria, Cambria_MSFontService, sans-serif"
   font-size="32px"
   x="101.623"
   y="92"
   id="tspan255">E</tspan><tspan
   font-size="21px"
   x="119.957"
   y="99"
   id="tspan257">1</tspan><tspan
   font-family="Cambria, Cambria_MSFontService, sans-serif"
   font-size="32px"
   x="137.78999"
   y="92"
   id="tspan259">A</tspan><tspan
   font-size="32px"
   x="164.78999"
   y="92"
   id="tspan261">=</tspan><tspan
   font-family="Cambria, Cambria_MSFontService, sans-serif"
   font-size="32px"
   x="187.957"
   y="92"
   id="tspan263">B</tspan><tspan
   font-size="24px"
   x="-407.26901"
   y="186"
   id="tspan265">where</tspan><tspan
   font-size="24px"
   x="-339.91599"
   y="186"
   id="tspan267">A can be transformed into B using</tspan><tspan
   font-size="24px"
   x="-5.12219"
   y="186"
   id="tspan269">R1</tspan><tspan
   font-family="'Cambria Math', 'Cambria Math_MSFontService', sans-serif"
   font-size="24px"
   x="25.544399"
   y="186"
   id="tspan271">â†’</tspan><tspan
   font-size="24px"
   x="51.211102"
   y="186"
   id="tspan273">R2</tspan></text>
  </g>
</svg>
