<?xml version="1.0" encoding="UTF-8" standalone="no"?>
<svg
   width="1280"
   height="720"
   overflow="hidden"
   version="1.1"
   id="svg309"
   sodipodi:docname="linear_systems-coordinates.svg"
   inkscape:version="1.2 (dc2aedaf03, 2022-05-15)"
   xmlns:inkscape="http://www.inkscape.org/namespaces/inkscape"
   xmlns:sodipodi="http://sodipodi.sourceforge.net/DTD/sodipodi-0.dtd"
   xmlns="http://www.w3.org/2000/svg"
   xmlns:svg="http://www.w3.org/2000/svg">
  <sodipodi:namedview
     id="namedview311"
     pagecolor="#ffffff"
     bordercolor="#000000"
     borderopacity="0.25"
     inkscape:showpageshadow="2"
     inkscape:pageopacity="0.0"
     inkscape:pagecheckerboard="0"
     inkscape:deskcolor="#d1d1d1"
     showgrid="false"
     inkscape:zoom="0.92709556"
     inkscape:cx="547.40851"
     inkscape:cy="415.27542"
     inkscape:window-width="2560"
     inkscape:window-height="1494"
     inkscape:window-x="-11"
     inkscape:window-y="-11"
     inkscape:window-maximized="1"
     inkscape:current-layer="svg309" />
  <defs
     id="defs5">
    <clipPath
       id="clip0">
      <rect
         x="0"
         y="0"
         width="1280"
         height="720"
         id="rect2" />
    </clipPath>
  </defs>
  <g
     clip-path="url(#clip0)"
     id="g307"
     transform="translate(39.909586,-6.4718248)">
    <rect
       x="0"
       y="0"
       width="1280"
       height="720"
       fill="#ffffff"
       id="rect7" />
    <path
       d="M 0,0 1.39265,301.928"
       stroke="#ededed"
       stroke-width="4"
       stroke-miterlimit="8"
       fill="none"
       fill-rule="evenodd"
       transform="matrix(1,0,0,-1,868,544.928)"
       id="path9" />
    <path
       d="M 0,0 299.869,297.097"
       stroke="#ededed"
       stroke-width="4"
       stroke-miterlimit="8"
       fill="none"
       fill-rule="evenodd"
       transform="matrix(1,0,0,-1,717,541.097)"
       id="path11" />
    <rect
       x="264"
       y="397"
       width="75"
       height="75"
       stroke="#ededed"
       stroke-width="4"
       stroke-miterlimit="8"
       fill="none"
       id="rect13" />
    <rect
       x="339"
       y="397"
       width="76"
       height="75"
       stroke="#ededed"
       stroke-width="4"
       stroke-miterlimit="8"
       fill="none"
       id="rect15" />
    <rect
       x="339"
       y="321"
       width="76"
       height="76"
       stroke="#ededed"
       stroke-width="4"
       stroke-miterlimit="8"
       fill="none"
       id="rect17" />
    <rect
       x="339"
       y="246"
       width="76"
       height="75"
       stroke="#ededed"
       stroke-width="4"
       stroke-miterlimit="8"
       fill="none"
       id="rect19" />
    <rect
       x="264"
       y="246"
       width="75"
       height="75"
       stroke="#ededed"
       stroke-width="4"
       stroke-miterlimit="8"
       fill="none"
       id="rect21" />
    <rect
       x="416"
       y="397"
       width="75"
       height="75"
       stroke="#ededed"
       stroke-width="4"
       stroke-miterlimit="8"
       fill="none"
       id="rect23" />
    <rect
       x="415"
       y="321"
       width="76"
       height="76"
       stroke="#ededed"
       stroke-width="4"
       stroke-miterlimit="8"
       fill="none"
       id="rect25" />
    <rect
       x="415"
       y="246"
       width="76"
       height="75"
       stroke="#ededed"
       stroke-width="4"
       stroke-miterlimit="8"
       fill="none"
       id="rect27" />
    <rect
       x="263"
       y="321"
       width="76"
       height="76"
       stroke="#ededed"
       stroke-width="4"
       stroke-miterlimit="8"
       fill="none"
       id="rect29" />
    <text
       font-family="Calibri, Calibri_MSFontService, sans-serif"
       font-weight="400"
       font-size="43px"
       transform="translate(392.564,80)"
       id="text31">Basis vector coordinates</text>
    <rect
       x="188"
       y="397"
       width="76"
       height="75"
       stroke="#ededed"
       stroke-width="4"
       stroke-miterlimit="8"
       fill="none"
       id="rect33" />
    <rect
       x="188"
       y="246"
       width="76"
       height="75"
       stroke="#ededed"
       stroke-width="4"
       stroke-miterlimit="8"
       fill="none"
       id="rect35" />
    <rect
       x="188"
       y="321"
       width="76"
       height="76"
       stroke="#ededed"
       stroke-width="4"
       stroke-miterlimit="8"
       fill="none"
       id="rect37" />
    <rect
       x="264"
       y="472"
       width="75"
       height="76"
       stroke="#ededed"
       stroke-width="4"
       stroke-miterlimit="8"
       fill="none"
       id="rect39" />
    <rect
       x="339"
       y="472"
       width="76"
       height="76"
       stroke="#ededed"
       stroke-width="4"
       stroke-miterlimit="8"
       fill="none"
       id="rect41" />
    <rect
       x="416"
       y="472"
       width="75"
       height="75"
       stroke="#ededed"
       stroke-width="4"
       stroke-miterlimit="8"
       fill="none"
       id="rect43" />
    <rect
       x="188"
       y="472"
       width="76"
       height="75"
       stroke="#ededed"
       stroke-width="4"
       stroke-miterlimit="8"
       fill="none"
       id="rect45" />
    <path
       d="M 187,397 H 490.919"
       stroke="#bfbfbf"
       stroke-width="4"
       stroke-miterlimit="8"
       stroke-dasharray="12, 4"
       fill="none"
       fill-rule="evenodd"
       id="path47" />
    <path
       d="M 0,0 1.39265,301.928"
       stroke="#bfbfbf"
       stroke-width="4"
       stroke-miterlimit="8"
       stroke-dasharray="12, 4"
       fill="none"
       fill-rule="evenodd"
       transform="matrix(1,0,0,-1,338,547.928)"
       id="path49" />
    <text
       font-family="Calibri, Calibri_MSFontService, sans-serif"
       font-weight="400"
       font-size="32px"
       transform="translate(344.942,443)"
       id="text51">(1, 0)</text>
    <path
       d="M 1.9997,-0.0349248 3.29065,73.8815 -0.708741,73.9513 -1.9997,0.0349248 Z M 9.82523,62.7734 1.36027,77.8851 -7.62722,63.0782 c -0.57314,-0.9442 -0.2723,-2.1743 0.67194,-2.7474 0.94424,-0.5732 2.17431,-0.2723 2.74745,0.6719 L 3.00065,72.8786 -0.453938,72.939 6.33545,60.8186 c 0.53981,-0.9637 1.75863,-1.3073 2.72231,-0.7675 0.96364,0.5398 1.30724,1.7586 0.76747,2.7223 z"
       fill="#a6a6a6"
       transform="matrix(1,0,0,-1,339,396.876)"
       id="path53" />
    <path
       d="m 338,394 h 73.34 v 4 H 338 Z m 62.348,-6.727 14.961,8.727 -14.961,8.728 c -0.954,0.556 -2.179,0.234 -2.736,-0.72 -0.556,-0.954 -0.234,-2.179 0.72,-2.735 l 12,-7 v 3.455 l -12,-7 c -0.954,-0.557 -1.276,-1.782 -0.72,-2.736 0.557,-0.954 1.782,-1.276 2.736,-0.719 z"
       fill="#a6a6a6"
       id="path55" />
    <text
       font-family="Calibri, Calibri_MSFontService, sans-serif"
       font-weight="400"
       font-size="32px"
       transform="translate(265.174,368)"
       id="text61">(0, 1)<tspan
   font-family="'Dreaming Outloud Script Pro', 'Dreaming Outloud Script Pro_MSFontService', sans-serif"
   font-size="32px"
   x="-23.080799"
   y="-166"
   id="tspan57">B</tspan><tspan
   font-size="32px"
   x="6.4191599"
   y="-166"
   id="tspan59">=</tspan></text>
    <path
       d="m 1.51562,-9.82812 c 1.15626,-0.02084 2.03646,-0.44268 2.64063,-1.26568 0.60417,-0.8229 0.90625,-1.9635 0.90625,-3.4218 0,-0.625 -0.15885,-1.974 -0.47656,-4.0469 -0.31771,-2.0729 -0.47656,-3.8073 -0.47656,-5.2031 0,-3.8854 0.72395,-6.7552 2.17187,-8.6094 1.44792,-1.8542 3.55208,-2.849 6.31255,-2.9844 v 1.25 c -0.875,0.0625 -1.6667,0.2787 -2.375,0.6485 -0.70838,0.3698 -1.30995,0.9297 -1.80474,1.6797 -0.49479,0.75 -0.875,1.7109 -1.14062,2.8828 -0.26563,1.1718 -0.39844,2.5859 -0.39844,4.2422 0,1.1562 0.14062,2.7682 0.42188,4.8359 0.28124,2.0677 0.42187,3.4974 0.42187,4.2891 0,1.7812 -0.38281,3.2057 -1.14844,4.2734 -0.76562,1.0677 -1.46093,1.71613 -2.08593,1.9453 V -9 c 0.625,0.25 1.32031,0.89583 2.08593,1.9375 0.76563,1.04167 1.14844,2.45833 1.14844,4.25 0,0.52083 -0.14063,1.976563 -0.42187,4.36719 C 7.01562,3.94531 6.875,5.51042 6.875,6.25 c 0,1.66667 0.11979,3.09375 0.35938,4.2812 0.23958,1.1876 0.60937,2.1563 1.10937,2.9063 0.52083,0.7708 1.13021,1.3464 1.82815,1.7266 0.6979,0.3802 1.5052,0.6015 2.4219,0.664 v 1.25 C 9.67708,16.9948 7.53385,15.9792 6.16406,14.0312 4.79427,12.0833 4.10938,9.29167 4.10938,5.65625 4.10938,4.45833 4.26823,2.72396 4.58594,0.453125 4.90365,-1.81771 5.0625,-3.23958 5.0625,-3.8125 5.0625,-5.23958 4.76302,-6.36719 4.16406,-7.19531 3.5651,-8.02344 2.68229,-8.45312 1.51562,-8.48438 Z"
       transform="translate(294.76,202)"
       id="path63" />
    <path
       d="m 338.376,166.923 h 7.438 v 52.5 h -7.438 v -1.359 h 4.547 v -49.782 h -4.547 z m -26.509,0 h 7.437 v 1.359 h -4.547 v 49.782 h 4.547 v 1.359 h -7.437 z"
       fill-rule="evenodd"
       id="path65" />
    <text
       font-family="Calibri, Calibri_MSFontService, sans-serif"
       font-weight="400"
       font-size="32px"
       transform="translate(320.753,184)"
       id="text71">1<tspan
   font-family="'Cambria Math', 'Cambria Math_MSFontService', sans-serif"
   font-size="32px"
   x="-0.74664301"
   y="38"
   id="tspan67">0</tspan><tspan
   font-size="32px"
   x="28.606701"
   y="18"
   id="tspan69">,</tspan></text>
    <path
       d="m 387.416,166.923 h 7.438 v 52.5 h -7.438 v -1.359 h 4.547 v -49.782 h -4.547 z m -26.509,0 h 7.437 v 1.359 h -4.547 v 49.782 h 4.547 v 1.359 h -7.437 z"
       fill-rule="evenodd"
       id="path73" />
    <text
       font-family="'Cambria Math', 'Cambria Math_MSFontService', sans-serif"
       font-weight="400"
       font-size="32px"
       transform="translate(369.046,185)"
       id="text77">0<tspan
   font-size="32px"
   x="0"
   y="38"
   id="tspan75">1</tspan></text>
    <path
       d="M 12.0469,-8.48438 C 10.8802,-8.45312 9.9974,-8.02344 9.39844,-7.19531 8.79948,-6.36719 8.5,-5.23958 8.5,-3.8125 c 0,0.57292 0.15885,1.99479 0.47656,4.265625 0.31771,2.270835 0.47656,4.005205 0.47656,5.203125 0,3.63542 -0.6875,6.42705 -2.0625,8.37495 -1.375,1.948 -3.51562,2.9636 -6.42187,3.0469 v -1.25 c 0.91667,-0.0625 1.72396,-0.2838 2.42187,-0.664 0.69792,-0.3802 1.30209,-0.9558 1.8125,-1.7266 0.51042,-0.75 0.88542,-1.7187 1.125,-2.9063 C 6.56771,9.34375 6.6875,7.91667 6.6875,6.25 6.6875,5.51042 6.54688,3.94531 6.26562,1.55469 5.98438,-0.835937 5.84375,-2.29167 5.84375,-2.8125 c 0,-1.79167 0.38021,-3.20833 1.14063,-4.25 C 7.74479,-8.10417 8.44271,-8.75 9.07812,-9 V -9.3125 C 8.44271,-9.54167 7.74479,-10.1901 6.98438,-11.2578 6.22396,-12.3255 5.84375,-13.75 5.84375,-15.5312 c 0,-0.7917 0.14063,-2.2214 0.42187,-4.2891 0.28126,-2.0677 0.42188,-3.6797 0.42188,-4.8359 0,-1.6563 -0.13281,-3.0704 -0.39844,-4.2422 -0.26562,-1.1719 -0.64844,-2.1328 -1.14844,-2.8828 -0.5,-0.75 -1.10156,-1.3099 -1.80468,-1.6797 -0.70313,-0.3698 -1.49219,-0.586 -2.36719,-0.6485 v -1.25 c 2.75,0.1354 4.85156,1.1302 6.30469,2.9844 1.45312,1.8542 2.17968,4.724 2.17968,8.6094 0,1.3958 -0.15885,3.1302 -0.47656,5.2031 C 8.65885,-16.4896 8.5,-15.1406 8.5,-14.5156 c 0,1.4583 0.30208,2.5989 0.90625,3.4218 0.60415,0.823 1.48435,1.24484 2.64065,1.26568 z"
       transform="translate(398.4,202)"
       id="path79" />
    <text
       font-family="'Dreaming Outloud Script Pro', 'Dreaming Outloud Script Pro_MSFontService', sans-serif"
       font-weight="400"
       font-size="32px"
       transform="translate(779.962,199)"
       id="text83">B<tspan
   font-family="Calibri, Calibri_MSFontService, sans-serif"
   font-size="32px"
   x="29.5"
   y="0"
   id="tspan81">=</tspan></text>
    <path
       d="m 1.51562,-9.82812 c 1.15626,-0.02084 2.03646,-0.44268 2.64063,-1.26568 0.60417,-0.8229 0.90625,-1.9635 0.90625,-3.4218 0,-0.625 -0.15885,-1.974 -0.47656,-4.0469 -0.31771,-2.0729 -0.47656,-3.8073 -0.47656,-5.2031 0,-3.8854 0.72395,-6.7552 2.17187,-8.6094 1.44792,-1.8542 3.55208,-2.849 6.31255,-2.9844 v 1.25 c -0.875,0.0625 -1.6667,0.2787 -2.375,0.6485 -0.70838,0.3698 -1.30995,0.9297 -1.80474,1.6797 -0.49479,0.75 -0.875,1.7109 -1.14062,2.8828 -0.26563,1.1718 -0.39844,2.5859 -0.39844,4.2422 0,1.1562 0.14062,2.7682 0.42188,4.8359 0.28124,2.0677 0.42187,3.4974 0.42187,4.2891 0,1.7812 -0.38281,3.2057 -1.14844,4.2734 -0.76562,1.0677 -1.46093,1.71613 -2.08593,1.9453 V -9 c 0.625,0.25 1.32031,0.89583 2.08593,1.9375 0.76563,1.04167 1.14844,2.45833 1.14844,4.25 0,0.52083 -0.14063,1.976563 -0.42187,4.36719 C 7.01562,3.94531 6.875,5.51042 6.875,6.25 c 0,1.66667 0.11979,3.09375 0.35938,4.2812 0.23958,1.1876 0.60937,2.1563 1.10937,2.9063 0.52083,0.7708 1.13021,1.3464 1.82815,1.7266 0.6979,0.3802 1.5052,0.6015 2.4219,0.664 v 1.25 C 9.67708,16.9948 7.53385,15.9792 6.16406,14.0312 4.79427,12.0833 4.10938,9.29167 4.10938,5.65625 4.10938,4.45833 4.26823,2.72396 4.58594,0.453125 4.90365,-1.81771 5.0625,-3.23958 5.0625,-3.8125 5.0625,-5.23958 4.76302,-6.36719 4.16406,-7.19531 3.5651,-8.02344 2.68229,-8.45312 1.51562,-8.48438 Z"
       transform="translate(832.628,199)"
       id="path85" />
    <path
       d="m 876.245,163.528 h 7.437 v 52.5 h -7.437 v -1.359 h 4.547 v -49.781 h -4.547 z m -26.51,0 h 7.438 v 1.36 h -4.547 v 49.781 h 4.547 v 1.359 h -7.438 z"
       fill-rule="evenodd"
       id="path87" />
    <text
       font-family="Calibri, Calibri_MSFontService, sans-serif"
       font-weight="400"
       font-size="32px"
       transform="translate(858.622,181)"
       id="text93">1<tspan
   font-family="'Cambria Math', 'Cambria Math_MSFontService', sans-serif"
   font-size="32px"
   x="-0.74664301"
   y="38"
   id="tspan89">1</tspan><tspan
   font-size="32px"
   x="28.606701"
   y="18"
   id="tspan91">,</tspan></text>
    <path
       d="m 925.285,163.528 h 7.437 v 52.5 h -7.437 v -1.359 h 4.547 v -49.781 h -4.547 z m -26.51,0 h 7.438 v 1.36 h -4.547 v 49.781 h 4.547 v 1.359 h -7.438 z"
       fill-rule="evenodd"
       id="path95" />
    <text
       font-family="'Cambria Math', 'Cambria Math_MSFontService', sans-serif"
       font-weight="400"
       font-size="32px"
       transform="translate(906.915,182)"
       id="text99">0<tspan
   font-size="32px"
   x="0"
   y="37"
   id="tspan97">1</tspan></text>
    <path
       d="M 12.0469,-8.48438 C 10.8802,-8.45312 9.9974,-8.02344 9.39844,-7.19531 8.79948,-6.36719 8.5,-5.23958 8.5,-3.8125 c 0,0.57292 0.15885,1.99479 0.47656,4.265625 0.31771,2.270835 0.47656,4.005205 0.47656,5.203125 0,3.63542 -0.6875,6.42705 -2.0625,8.37495 -1.375,1.948 -3.51562,2.9636 -6.42187,3.0469 v -1.25 c 0.91667,-0.0625 1.72396,-0.2838 2.42187,-0.664 0.69792,-0.3802 1.30209,-0.9558 1.8125,-1.7266 0.51042,-0.75 0.88542,-1.7187 1.125,-2.9063 C 6.56771,9.34375 6.6875,7.91667 6.6875,6.25 6.6875,5.51042 6.54688,3.94531 6.26562,1.55469 5.98438,-0.835937 5.84375,-2.29167 5.84375,-2.8125 c 0,-1.79167 0.38021,-3.20833 1.14063,-4.25 C 7.74479,-8.10417 8.44271,-8.75 9.07812,-9 V -9.3125 C 8.44271,-9.54167 7.74479,-10.1901 6.98438,-11.2578 6.22396,-12.3255 5.84375,-13.75 5.84375,-15.5312 c 0,-0.7917 0.14063,-2.2214 0.42187,-4.2891 0.28126,-2.0677 0.42188,-3.6797 0.42188,-4.8359 0,-1.6563 -0.13281,-3.0704 -0.39844,-4.2422 -0.26562,-1.1719 -0.64844,-2.1328 -1.14844,-2.8828 -0.5,-0.75 -1.10156,-1.3099 -1.80468,-1.6797 -0.70313,-0.3698 -1.49219,-0.586 -2.36719,-0.6485 v -1.25 c 2.75,0.1354 4.85156,1.1302 6.30469,2.9844 1.45312,1.8542 2.17968,4.724 2.17968,8.6094 0,1.3958 -0.15885,3.1302 -0.47656,5.2031 C 8.65885,-16.4896 8.5,-15.1406 8.5,-14.5156 c 0,1.4583 0.30208,2.5989 0.90625,3.4218 0.60415,0.823 1.48435,1.24484 2.64065,1.26568 z"
       transform="translate(936.268,199)"
       id="path101" />
    <path
       d="M 0,0 1.39265,301.928"
       stroke="#ededed"
       stroke-width="4"
       stroke-miterlimit="8"
       fill="none"
       fill-rule="evenodd"
       transform="matrix(1,0,0,-1,1019,543.928)"
       id="path103" />
    <path
       d="M 0,0 1.39265,301.928"
       stroke="#ededed"
       stroke-width="4"
       stroke-miterlimit="8"
       fill="none"
       fill-rule="evenodd"
       transform="matrix(1,0,0,-1,715,543.928)"
       id="path105" />
    <path
       d="M 0,0 148.293,151.948"
       stroke="#ededed"
       stroke-width="4"
       stroke-miterlimit="8"
       fill="none"
       fill-rule="evenodd"
       transform="matrix(1,0,0,-1,719,393.948)"
       id="path107" />
    <path
       d="M 0,0 77.0688,76.4267"
       stroke="#ededed"
       stroke-width="4"
       stroke-miterlimit="8"
       fill="none"
       fill-rule="evenodd"
       transform="matrix(1,0,0,-1,716,321.427)"
       id="path109" />
    <path
       d="M 0,0 148.293,151.948"
       stroke="#ededed"
       stroke-width="4"
       stroke-miterlimit="8"
       fill="none"
       fill-rule="evenodd"
       transform="matrix(1,0,0,-1,871,543.948)"
       id="path111" />
    <path
       d="M 0,0 77.0688,76.4267"
       stroke="#ededed"
       stroke-width="4"
       stroke-miterlimit="8"
       fill="none"
       fill-rule="evenodd"
       transform="matrix(1,0,0,-1,943,544.427)"
       id="path113" />
    <path
       d="M 0,0 223.163,222.156"
       stroke="#ededed"
       stroke-width="4"
       stroke-miterlimit="8"
       fill="none"
       fill-rule="evenodd"
       transform="matrix(1,0,0,-1,795,543.156)"
       id="path115" />
    <path
       d="M 0,0 225.173,225.906"
       stroke="#ededed"
       stroke-width="4"
       stroke-miterlimit="8"
       fill="none"
       fill-rule="evenodd"
       transform="matrix(1,0,0,-1,718,469.906)"
       id="path117" />
    <path
       d="M 0,0 1.39265,301.928"
       stroke="#ededed"
       stroke-width="4"
       stroke-miterlimit="8"
       fill="none"
       fill-rule="evenodd"
       transform="matrix(1,0,0,-1,792,543.928)"
       id="path119" />
    <path
       d="M 0,0 1.39265,301.928"
       stroke="#ededed"
       stroke-width="4"
       stroke-miterlimit="8"
       fill="none"
       fill-rule="evenodd"
       transform="matrix(1,0,0,-1,943,543.928)"
       id="path121" />
    <path
       d="M 0,0 302.791,298.83"
       stroke="#bfbfbf"
       stroke-width="4"
       stroke-miterlimit="8"
       stroke-dasharray="12, 4"
       fill="none"
       fill-rule="evenodd"
       transform="matrix(1,0,0,-1,717,540.83)"
       id="path123" />
    <path
       d="M 0,0 1.39265,301.928"
       stroke="#bfbfbf"
       stroke-width="4"
       stroke-miterlimit="8"
       stroke-dasharray="12, 4"
       fill="none"
       fill-rule="evenodd"
       transform="matrix(1,0,0,-1,867,543.928)"
       id="path125" />
    <path
       d="M 1.9997,-0.0349248 3.29065,73.8815 -0.708741,73.9513 -1.9997,0.0349248 Z M 9.82523,62.7734 1.36027,77.8851 -7.62722,63.0782 c -0.57314,-0.9442 -0.2723,-2.1743 0.67194,-2.7474 0.94424,-0.5732 2.17431,-0.2723 2.74745,0.6719 L 3.00065,72.8786 -0.453938,72.939 6.33545,60.8186 c 0.53981,-0.9637 1.75863,-1.3073 2.72231,-0.7675 0.96364,0.5398 1.30724,1.7586 0.76747,2.7223 z"
       fill="#a6a6a6"
       transform="matrix(1,0,0,-1,868,392.876)"
       id="path127" />
    <path
       d="M 1.39419,-1.43395 75.8007,70.9093 73.0123,73.7772 -1.39419,1.43395 Z M 72.6093,58.4232 77.2524,75.1103 60.4414,70.9381 c -1.0721,-0.266 -1.7254,-1.3508 -1.4594,-2.4228 0.2661,-1.0721 1.3508,-1.7255 2.4229,-1.4594 l 13.4834,3.3463 -2.4086,2.4773 -3.724,-13.384 c -0.2961,-1.0642 0.3265,-2.1669 1.3906,-2.463 1.0642,-0.2961 2.1669,0.3266 2.463,1.3907 z"
       fill="#a6a6a6"
       transform="matrix(1,0,0,-1,867,393.104)"
       id="path129" />
    <text
       font-family="Calibri, Calibri_MSFontService, sans-serif"
       font-weight="400"
       font-size="32px"
       transform="translate(794.319,364)"
       id="text135">(0, 1)<tspan
   font-size="32px"
   x="156.02"
   y="-10"
   id="tspan131">(1,</tspan><tspan
   font-size="32px"
   x="197.02"
   y="-10"
   id="tspan133">1)</tspan></text>
    <path
       d="M 4.23367,1.326 77.9762,73.0034 75.1883,75.8717 1.4457,4.19431 Z M 4.63886,16.68 -0.00664719,-0.006461 16.805,4.16331 c 1.0721,0.26591 1.7256,1.35057 1.4597,2.42265 -0.2659,1.07209 -1.3506,1.72562 -2.4227,1.45971 L 2.35815,4.70128 4.76635,2.2237 8.49231,15.6072 C 8.78856,16.6713 8.16609,17.774 7.10198,18.0703 6.03788,18.3665 4.9351,17.7441 4.63886,16.68 Z"
       fill="#c00000"
       transform="matrix(1,0,0,-1,260,472.438)"
       id="path137" />
    <text
       font-family="'Cambria Math', 'Cambria Math_MSFontService', sans-serif"
       font-weight="400"
       font-size="24px"
       transform="translate(302.08,463)"
       id="text141">ğ‘¤<tspan
   font-size="16px"
   x="17.6667"
   y="5"
   id="tspan139">1</tspan></text>
    <path
       d="m 325.628,443.894 2.942,2.543 v 0.68 l -2.942,2.543 -0.621,-0.703 1.875,-1.629 h -4.81 -2.338 -1.976 -2.718 -1.602 -2.711 -1.609 -2.711 -4.32 v -1.102 h 4.32 2.711 1.609 2.711 1.602 2.718 1.976 2.338 4.81 l -1.875,-1.629 z"
       fill-rule="evenodd"
       id="path143" />
    <text
       font-family="'Cambria Math', 'Cambria Math_MSFontService', sans-serif"
       font-weight="400"
       font-size="24px"
       transform="translate(328.58,463)"
       id="text203"><tspan
         font-family="Calibri, Calibri_MSFontService, sans-serif"
         font-size="32px"
         x="-171.38901"
         y="41"
         id="tspan145">(</tspan><tspan
         font-family="Calibri, Calibri_MSFontService, sans-serif"
         font-size="32px"
         x="-161.722"
         y="41"
         id="tspan147">âˆ’</tspan><tspan
         font-family="Calibri, Calibri_MSFontService, sans-serif"
         font-size="32px"
         x="-145.722"
         y="41"
         id="tspan149">1</tspan><tspan
         font-family="Calibri, Calibri_MSFontService, sans-serif"
         font-size="32px"
         x="-129.55499"
         y="41"
         id="tspan151">,</tspan><tspan
         font-family="Calibri, Calibri_MSFontService, sans-serif"
         font-size="32px"
         x="-114.389"
         y="41"
         id="tspan153">âˆ’</tspan><tspan
         font-family="Calibri, Calibri_MSFontService, sans-serif"
         font-size="32px"
         x="-98.388702"
         y="41"
         id="tspan155">1)</tspan><tspan
         font-family="Calibri, Calibri_MSFontService, sans-serif"
         font-size="32px"
         x="-109.894"
         y="-324"
         id="tspan157">The</tspan><tspan
         font-family="Calibri, Calibri_MSFontService, sans-serif"
         font-size="32px"
         x="-61.394402"
         y="-324"
         id="tspan159" /><tspan
         font-family="Calibri, Calibri_MSFontService, sans-serif"
         font-size="32px"
         x="-54.227699"
         y="-324"
         id="tspan161">coordinates</tspan><tspan
         font-family="Calibri, Calibri_MSFontService, sans-serif"
         font-size="32px"
         x="99.605598"
         y="-324"
         id="tspan163" /><tspan
         font-family="Calibri, Calibri_MSFontService, sans-serif"
         font-size="32px"
         x="106.772"
         y="-324"
         id="tspan165">(c</tspan><tspan
         font-family="Calibri, Calibri_MSFontService, sans-serif"
         font-size="21px"
         x="129.939"
         y="-317"
         id="tspan167">1</tspan><tspan
         font-size="32px"
         x="140.772"
         y="-324"
         id="tspan169">,</tspan><tspan
         font-size="32px"
         x="147.272"
         y="-324"
         id="tspan171" /><tspan
         font-size="32px"
         x="154.272"
         y="-324"
         id="tspan173">c</tspan><tspan
         font-size="21px"
         x="168.439"
         y="-317"
         id="tspan175">2</tspan><tspan
         font-size="32px"
         x="180.272"
         y="-324"
         id="tspan177">)</tspan><tspan
         font-size="32px"
         x="193.606"
         y="-324"
         id="tspan179" /><tspan
         font-family="Calibri, Calibri_MSFontService, sans-serif"
         font-size="32px"
         x="200.606"
         y="-324"
         id="tspan181">scale</tspan><tspan
         font-family="Calibri, Calibri_MSFontService, sans-serif"
         font-size="32px"
         x="265.272"
         y="-324"
         id="tspan183" /><tspan
         font-family="Calibri, Calibri_MSFontService, sans-serif"
         font-size="32px"
         x="272.439"
         y="-324"
         id="tspan185">the</tspan><tspan
         font-family="Calibri, Calibri_MSFontService, sans-serif"
         font-size="32px"
         x="315.939"
         y="-324"
         id="tspan187" /><tspan
         font-family="Calibri, Calibri_MSFontService, sans-serif"
         font-size="32px"
         x="323.10599"
         y="-324"
         id="tspan189">basis</tspan><tspan
         font-family="Calibri, Calibri_MSFontService, sans-serif"
         font-size="32px"
         x="387.60599"
         y="-324"
         id="tspan191" /><tspan
         font-family="Calibri, Calibri_MSFontService, sans-serif"
         font-size="32px"
         x="394.772"
         y="-324"
         id="tspan193">vectors</tspan><tspan
         font-family="Calibri, Calibri_MSFontService, sans-serif"
         font-size="32px"
         x="489.939"
         y="-324"
         id="tspan195" /><tspan
         font-family="Calibri, Calibri_MSFontService, sans-serif"
         font-size="32px"
         x="497.10599"
         y="-324"
         id="tspan197">to form</tspan><tspan
         font-size="32px"
         x="601.28601"
         y="-324"
         id="tspan199">ğ‘¤</tspan><tspan
         font-size="21px"
         x="624.95203"
         y="-317"
         id="tspan201">1</tspan></text>
    <path
       d="m 961.432,113.928 3.922,3.391 v 0.906 l -3.922,3.39 -0.828,-0.937 2.5,-2.172 h -6.423 -3.108 -2.699 -3.568 -2.238 -3.569 -2.245 -3.561 -5.814 v -1.469 h 5.814 3.561 2.245 3.569 2.238 3.568 2.699 3.108 6.423 l -2.5,-2.172 z"
       fill-rule="evenodd"
       id="path205" />
    <text
       font-family="Calibri, Calibri_MSFontService, sans-serif"
       font-weight="400"
       font-size="32px"
       transform="translate(972.533,139)"
       id="text211">.<tspan
   fill="#c00000"
   font-size="32px"
   x="-790.85602"
   y="520"
   id="tspan207">âˆ’</tspan><tspan
   fill="#c00000"
   font-family="'Cambria Math', 'Cambria Math_MSFontService', sans-serif"
   font-size="32px"
   x="-774.85602"
   y="520"
   id="tspan209">1</tspan></text>
    <path
       d="m 250.733,623.392 h 7.438 v 52.5 h -7.438 v -1.359 h 4.547 v -49.781 h -4.547 z m -26.509,0 h 7.437 v 1.36 h -4.547 v 49.781 h 4.547 v 1.359 h -7.437 z"
       fill-rule="evenodd"
       id="path213" />
    <text
       font-family="Calibri, Calibri_MSFontService, sans-serif"
       font-weight="400"
       font-size="32px"
       transform="translate(233.11,641)"
       id="text227">1<tspan
   font-family="'Cambria Math', 'Cambria Math_MSFontService', sans-serif"
   font-size="32px"
   x="-0.74665803"
   y="37"
   id="tspan215">0</tspan><tspan
   font-size="32px"
   x="35.7733"
   y="18"
   id="tspan217">+</tspan><tspan
   fill="#c00000"
   font-size="32px"
   x="58.939999"
   y="18"
   id="tspan219">(</tspan><tspan
   fill="#c00000"
   font-size="32px"
   x="68.606697"
   y="18"
   id="tspan221">âˆ’</tspan><tspan
   fill="#c00000"
   font-size="32px"
   x="84.606697"
   y="18"
   id="tspan223">1</tspan><tspan
   fill="#c00000"
   font-size="32px"
   x="100.773"
   y="18"
   id="tspan225">)</tspan></text>
    <path
       d="m 373.606,623.392 h 7.438 v 52.5 h -7.438 v -1.359 h 4.547 v -49.781 h -4.547 z m -26.509,0 h 7.437 v 1.36 h -4.547 v 49.781 h 4.547 v 1.359 h -7.437 z"
       fill-rule="evenodd"
       id="path229" />
    <text
       font-family="'Cambria Math', 'Cambria Math_MSFontService', sans-serif"
       font-weight="400"
       font-size="32px"
       transform="translate(355.237,642)"
       id="text235">0<tspan
   font-size="32px"
   x="0"
   y="37"
   id="tspan231">1</tspan><tspan
   font-family="Calibri, Calibri_MSFontService, sans-serif"
   font-size="32px"
   x="36.52"
   y="17"
   id="tspan233">=</tspan></text>
    <path
       d="m 460.98,623.392 h 7.437 v 52.5 h -7.437 v -1.359 h 4.547 v -49.781 h -4.547 z m -42.51,0 h 7.438 v 1.36 h -4.547 v 49.781 h 4.547 v 1.359 h -7.438 z"
       fill-rule="evenodd"
       id="path237" />
    <text
       font-family="Calibri, Calibri_MSFontService, sans-serif"
       font-weight="400"
       font-size="32px"
       transform="translate(426.61,642)"
       id="text249">âˆ’<tspan
   font-family="'Cambria Math', 'Cambria Math_MSFontService', sans-serif"
   font-size="32px"
   x="16"
   y="0"
   id="tspan239">1</tspan><tspan
   font-size="32px"
   x="0"
   y="37"
   id="tspan241">âˆ’</tspan><tspan
   font-family="'Cambria Math', 'Cambria Math_MSFontService', sans-serif"
   font-size="32px"
   x="16"
   y="37"
   id="tspan243">1</tspan><tspan
   fill="#c00000"
   font-size="32px"
   x="282.923"
   y="17"
   id="tspan245">âˆ’</tspan><tspan
   fill="#c00000"
   font-family="'Cambria Math', 'Cambria Math_MSFontService', sans-serif"
   font-size="32px"
   x="298.923"
   y="17"
   id="tspan247">1</tspan></text>
    <path
       d="m 778.589,623.393 h 7.438 v 52.5 h -7.438 v -1.36 h 4.547 v -49.781 h -4.547 z m -26.51,0 h 7.438 v 1.359 h -4.547 v 49.781 h 4.547 v 1.36 h -7.438 z"
       fill-rule="evenodd"
       id="path251" />
    <text
       font-family="Calibri, Calibri_MSFontService, sans-serif"
       font-weight="400"
       font-size="32px"
       transform="translate(760.966,641)"
       id="text265">1<tspan
   font-family="'Cambria Math', 'Cambria Math_MSFontService', sans-serif"
   font-size="32px"
   x="-0.74670398"
   y="38"
   id="tspan253">1</tspan><tspan
   font-size="32px"
   x="35.7733"
   y="18"
   id="tspan255">+</tspan><tspan
   fill="#c00000"
   font-size="32px"
   x="58.939999"
   y="18"
   id="tspan257">(</tspan><tspan
   fill="#c00000"
   font-size="32px"
   x="68.606697"
   y="18"
   id="tspan259">âˆ’</tspan><tspan
   fill="#c00000"
   font-size="32px"
   x="84.606697"
   y="18"
   id="tspan261">1</tspan><tspan
   fill="#c00000"
   font-size="32px"
   x="100.773"
   y="18"
   id="tspan263">)</tspan></text>
    <path
       d="m 901.462,623.393 h 7.438 v 52.5 h -7.438 v -1.36 h 4.547 v -49.781 h -4.547 z m -26.509,0 h 7.437 v 1.359 h -4.547 v 49.781 h 4.547 v 1.36 h -7.437 z"
       fill-rule="evenodd"
       id="path267" />
    <text
       font-family="'Cambria Math', 'Cambria Math_MSFontService', sans-serif"
       font-weight="400"
       font-size="32px"
       transform="translate(883.093,642)"
       id="text273">0<tspan
   font-size="32px"
   x="0"
   y="37"
   id="tspan269">1</tspan><tspan
   font-family="Calibri, Calibri_MSFontService, sans-serif"
   font-size="32px"
   x="36.52"
   y="17"
   id="tspan271">=</tspan></text>
    <path
       d="m 988.836,623.393 h 7.437 v 52.5 h -7.437 v -1.36 h 4.547 v -49.781 h -4.547 z m -42.51,0 h 7.438 v 1.359 h -4.547 v 49.781 h 4.547 v 1.36 h -7.438 z"
       fill-rule="evenodd"
       id="path275" />
    <text
       font-family="Calibri, Calibri_MSFontService, sans-serif"
       font-weight="400"
       font-size="32px"
       transform="translate(954.466,642)"
       id="text283">âˆ’<tspan
   font-family="'Cambria Math', 'Cambria Math_MSFontService', sans-serif"
   font-size="32px"
   x="16"
   y="0"
   id="tspan277">1</tspan><tspan
   font-size="32px"
   x="0"
   y="37"
   id="tspan279">âˆ’</tspan><tspan
   font-family="'Cambria Math', 'Cambria Math_MSFontService', sans-serif"
   font-size="32px"
   x="16"
   y="37"
   id="tspan281">2</tspan></text>
    <path
       d="M 3.53217,2.68415 78.0987,155.76 74.5027,157.512 -0.0638743,4.43585 Z M -1.29819,17.2643 -0.00405922,-0.00833374 14.3942,9.62022 c 0.9181,0.61398 1.1647,1.85608 0.5507,2.77428 -0.614,0.9182 -1.8561,1.1648 -2.7743,0.5507 L 0.622411,5.2226 3.7286,3.70951 2.69063,17.5631 C 2.60811,18.6646 1.64828,19.4906 0.546796,19.4081 -0.554686,19.3256 -1.38071,18.3658 -1.29819,17.2643 Z"
       fill="#c00000"
       transform="matrix(1,0,0,-1,790,551.636)"
       id="path285" />
    <text
       font-family="'Cambria Math', 'Cambria Math_MSFontService', sans-serif"
       font-weight="400"
       font-size="24px"
       transform="translate(832.849,503)"
       id="text289">ğ‘¤<tspan
   font-size="16px"
   x="17.666599"
   y="5"
   id="tspan287">1</tspan></text>
    <path
       d="m 856.397,483.848 2.942,2.543 v 0.679 l -2.942,2.543 -0.621,-0.703 1.875,-1.629 h -4.81 -2.338 -1.976 -2.718 -1.602 -2.711 -1.609 -2.711 -4.32 v -1.101 h 4.32 2.711 1.609 2.711 1.602 2.718 1.976 2.338 4.81 l -1.875,-1.629 z"
       fill-rule="evenodd"
       id="path291" />
    <text
       font-family="'Cambria Math', 'Cambria Math_MSFontService', sans-serif"
       font-weight="400"
       font-size="24px"
       transform="translate(859.349,503)"
       id="text305"><tspan
         font-family="Calibri, Calibri_MSFontService, sans-serif"
         font-size="32px"
         x="-173.73"
         y="78"
         id="tspan293">(</tspan><tspan
         font-family="Calibri, Calibri_MSFontService, sans-serif"
         font-size="32px"
         x="-164.064"
         y="78"
         id="tspan295">âˆ’</tspan><tspan
         font-family="Calibri, Calibri_MSFontService, sans-serif"
         font-size="32px"
         x="-148.064"
         y="78"
         id="tspan297">1</tspan><tspan
         font-family="Calibri, Calibri_MSFontService, sans-serif"
         font-size="32px"
         x="-131.897"
         y="78"
         id="tspan299">,</tspan><tspan
         font-family="Calibri, Calibri_MSFontService, sans-serif"
         font-size="32px"
         x="-116.73"
         y="78"
         id="tspan301">âˆ’</tspan><tspan
         font-family="Calibri, Calibri_MSFontService, sans-serif"
         font-size="32px"
         x="-100.73"
         y="78"
         id="tspan303">1)</tspan></text>
  </g>
</svg>
