<?xml version="1.0" encoding="UTF-8" standalone="no"?>
<svg
   width="1280"
   height="600"
   overflow="hidden"
   version="1.1"
   id="svg175"
   sodipodi:docname="linear_systems-determinant_cramer.svg"
   inkscape:version="1.2 (dc2aedaf03, 2022-05-15)"
   xmlns:inkscape="http://www.inkscape.org/namespaces/inkscape"
   xmlns:sodipodi="http://sodipodi.sourceforge.net/DTD/sodipodi-0.dtd"
   xmlns="http://www.w3.org/2000/svg"
   xmlns:svg="http://www.w3.org/2000/svg">
  <sodipodi:namedview
     id="namedview177"
     pagecolor="#ffffff"
     bordercolor="#000000"
     borderopacity="0.25"
     inkscape:showpageshadow="2"
     inkscape:pageopacity="0.0"
     inkscape:pagecheckerboard="0"
     inkscape:deskcolor="#d1d1d1"
     showgrid="false"
     inkscape:zoom="0.92709556"
     inkscape:cx="387.77017"
     inkscape:cy="360.26491"
     inkscape:window-width="2560"
     inkscape:window-height="1494"
     inkscape:window-x="-11"
     inkscape:window-y="-11"
     inkscape:window-maximized="1"
     inkscape:current-layer="svg175" />
  <defs
     id="defs5">
    <clipPath
       id="clip0">
      <rect
         x="0"
         y="0"
         width="1280"
         height="720"
         id="rect2" />
    </clipPath>
  </defs>
  <g
     clip-path="url(#clip0)"
     id="g173"
     transform="translate(33.437761,-42.066861)">
    <rect
       x="0"
       y="0"
       width="1280"
       height="720"
       fill="#ffffff"
       id="rect7" />
    <path
       d="m 556,177.53 c 0,-5.815 4.715,-10.53 10.53,-10.53 h 23.94 c 5.815,0 10.53,4.715 10.53,10.53 v 68.94 c 0,5.815 -4.715,10.53 -10.53,10.53 H 566.53 C 560.715,257 556,252.285 556,246.47 Z"
       fill="#385723"
       fill-rule="evenodd"
       fill-opacity="0.4"
       id="path9" />
    <path
       d="M 239,327.001 C 239,313.745 249.745,303 263.001,303 h 95.998 C 372.255,303 383,313.745 383,327.001 V 592.999 C 383,606.255 372.255,617 358.999,617 H 263.001 C 249.745,617 239,606.255 239,592.999 Z"
       fill="#385723"
       fill-rule="evenodd"
       fill-opacity="0.4"
       id="path11" />
    <text
       font-family="Calibri, Calibri_MSFontService, sans-serif"
       font-weight="400"
       font-size="43px"
       transform="translate(316.965,102)"
       id="text13">Finding det(A) using CramerРђЎs rule</text>
    <path
       d="m 173.965,449.926 c 0.434,0 0.816,0.049 1.145,0.147 0.329,0.098 0.619,0.249 0.871,0.451 0.252,0.203 0.476,0.466 0.672,0.788 0.196,0.322 0.385,0.759 0.567,1.312 0.182,0.553 0.353,1.239 0.514,2.058 0.161,0.819 0.305,1.669 0.431,2.551 h 0.21 c 1.343,-1.89 2.362,-3.272 3.054,-4.147 0.693,-0.875 1.278,-1.526 1.754,-1.953 0.476,-0.427 0.934,-0.728 1.375,-0.902 0.441,-0.175 1.025,-0.263 1.753,-0.263 0.658,0 1.197,0.084 1.617,0.252 l -0.84,3.8 h -1.47 c -0.084,-0.588 -0.329,-0.882 -0.735,-0.882 -0.126,0 -0.259,0.021 -0.399,0.063 -0.14,0.042 -0.311,0.133 -0.514,0.273 -0.203,0.14 -0.5,0.413 -0.892,0.819 -0.392,0.406 -0.833,0.903 -1.323,1.491 -0.49,0.588 -0.994,1.204 -1.512,1.848 l -1.428,1.784 c 0.252,1.344 0.49,2.506 0.714,3.486 0.224,0.98 0.424,1.795 0.599,2.446 0.175,0.651 0.329,1.165 0.462,1.543 0.133,0.378 0.276,0.661 0.43,0.85 0.154,0.189 0.312,0.322 0.472,0.399 0.161,0.077 0.347,0.116 0.557,0.116 0.378,0 0.745,-0.147 1.102,-0.441 0.357,-0.294 0.872,-0.959 1.543,-1.995 l 1.365,0.903 c -0.98,1.456 -1.865,2.481 -2.656,3.076 -0.791,0.595 -1.732,0.892 -2.824,0.892 -0.602,0 -1.113,-0.108 -1.533,-0.325 -0.419,-0.217 -0.783,-0.564 -1.091,-1.04 -0.308,-0.475 -0.581,-1.217 -0.819,-2.225 -0.434,-1.792 -0.7,-3.164 -0.798,-4.115 h -0.21 c -1.484,2.085 -2.586,3.583 -3.307,4.493 -0.721,0.91 -1.316,1.582 -1.785,2.015 -0.468,0.434 -0.923,0.739 -1.364,0.914 -0.441,0.175 -1.026,0.262 -1.753,0.262 -0.658,0 -1.197,-0.084 -1.617,-0.252 l 0.84,-3.8 h 1.469 c 0.084,0.588 0.329,0.882 0.735,0.882 0.196,0 0.403,-0.053 0.62,-0.158 0.217,-0.105 0.528,-0.357 0.934,-0.756 0.406,-0.398 0.966,-1.025 1.68,-1.879 0.714,-0.854 1.749,-2.134 3.107,-3.842 -0.21,-1.106 -0.427,-2.17 -0.651,-3.191 -0.224,-1.022 -0.455,-1.974 -0.693,-2.856 -0.238,-0.882 -0.434,-1.459 -0.588,-1.732 -0.154,-0.273 -0.318,-0.462 -0.493,-0.567 -0.175,-0.105 -0.395,-0.157 -0.661,-0.157 -0.294,0 -0.56,0.066 -0.798,0.199 -0.238,0.133 -0.497,0.364 -0.777,0.693 -0.28,0.329 -0.651,0.843 -1.113,1.543 l -1.365,-0.903 c 0.882,-1.329 1.729,-2.323 2.541,-2.981 0.812,-0.658 1.771,-0.987 2.876,-0.987 z"
       fill-rule="evenodd"
       id="path15" />
    <text
       fill="#000000"
       fill-opacity="0"
       font-family="Arial, Arial_MSFontService, sans-serif"
       font-size="20.7651px"
       x="166.302"
       y="468.09601"
       id="text17">­ЮЉЦ</text>
    <path
       d="m 182.98,436.51 5.27,4.556 v 1.218 l -5.27,4.556 -1.113,-1.26 3.359,-2.919 h -12.807 v -1.973 h 12.807 l -3.359,-2.919 z"
       fill-rule="evenodd"
       id="path19" />
    <text
       fill="#000000"
       fill-opacity="0"
       font-family="Arial, Arial_MSFontService, sans-serif"
       font-size="10.3301px"
       x="172.41901"
       y="445.548"
       id="text21">нд</text>
    <text
       font-family="Calibri, Calibri_MSFontService, sans-serif"
       font-weight="400"
       font-size="43px"
       transform="translate(199.299,470)"
       id="text23">=</text>
    <path
       d="m 231.936,311.021 h 12.64 v 1.89 h -8.231 v 40.794 9.324 29.683 13.483 25.523 13.484 25.523 13.484 25.523 13.483 29.693 9.314 40.804 h 8.231 v 1.889 h -12.64 v -42.693 -9.314 -29.693 -13.483 -25.523 -13.484 -25.523 -13.484 -25.523 -13.483 -29.683 -9.324 z m 146.599,0 h 12.64 v 42.684 9.324 29.683 13.483 25.523 13.484 25.523 13.484 25.523 13.483 29.693 9.314 42.693 h -12.64 v -1.889 h 8.231 v -40.804 -9.314 -29.693 -13.483 -25.523 -13.484 -25.523 -13.484 -25.523 -13.483 -29.683 -9.324 -40.794 h -8.231 z"
       fill-rule="evenodd"
       id="path25" />
    <path
       d="m 277.029,323.453 c -0.555,0 -1.102,0.136 -1.642,0.408 -0.54,0.273 -1.05,0.659 -1.529,1.158 -0.479,0.5 -0.916,1.105 -1.309,1.817 -0.394,0.711 -0.722,1.506 -0.984,2.384 1.281,-0.01 2.384,-0.111 3.307,-0.303 0.924,-0.192 1.68,-0.454 2.271,-0.787 0.59,-0.333 1.024,-0.727 1.302,-1.181 0.277,-0.454 0.416,-0.953 0.416,-1.498 0,-0.626 -0.157,-1.115 -0.469,-1.469 -0.313,-0.353 -0.767,-0.529 -1.363,-0.529 z m -20.106,0 c -0.595,0 -1.148,0.128 -1.657,0.386 -0.51,0.257 -0.976,0.61 -1.4,1.059 -0.424,0.449 -0.803,0.969 -1.136,1.559 -0.333,0.591 -0.613,1.221 -0.84,1.892 -0.227,0.671 -0.398,1.358 -0.514,2.059 -0.116,0.701 -0.174,1.385 -0.174,2.051 0,1.09 0.154,1.9 0.461,2.429 0.308,0.53 0.805,0.795 1.491,0.795 0.464,0 0.979,-0.156 1.544,-0.469 0.565,-0.313 1.113,-0.765 1.643,-1.355 0.529,-0.59 1.016,-1.309 1.46,-2.157 0.444,-0.848 0.777,-1.801 0.999,-2.861 0.111,-0.545 0.212,-1.09 0.303,-1.635 0.091,-0.544 0.136,-1.044 0.136,-1.498 0,-0.817 -0.184,-1.398 -0.552,-1.741 -0.369,-0.343 -0.956,-0.514 -1.764,-0.514 z m 20.757,-1.499 c 1.292,0 2.273,0.283 2.944,0.848 0.671,0.565 1.007,1.367 1.007,2.406 0,3.653 -3.456,5.48 -10.369,5.48 -0.05,0.262 -0.091,0.547 -0.121,0.855 -0.03,0.308 -0.045,0.643 -0.045,1.007 0,1.1 0.224,1.902 0.673,2.406 0.449,0.505 1.148,0.757 2.097,0.757 0.494,0 0.963,-0.053 1.407,-0.159 0.444,-0.106 0.881,-0.27 1.31,-0.492 0.429,-0.222 0.86,-0.507 1.294,-0.855 0.434,-0.348 0.888,-0.764 1.362,-1.249 l 1.135,1.226 c -1.17,1.161 -2.338,2.034 -3.504,2.619 -1.165,0.585 -2.419,0.878 -3.761,0.878 -0.787,0 -1.486,-0.119 -2.097,-0.356 -0.61,-0.237 -1.125,-0.582 -1.544,-1.037 -0.418,-0.454 -0.736,-1.006 -0.953,-1.657 -0.217,-0.651 -0.326,-1.385 -0.326,-2.202 0,-0.576 0.051,-1.173 0.152,-1.794 0.101,-0.621 0.257,-1.241 0.469,-1.862 0.212,-0.621 0.474,-1.226 0.787,-1.816 0.313,-0.591 0.681,-1.143 1.105,-1.658 0.848,-1.049 1.87,-1.869 3.065,-2.459 1.196,-0.591 2.5,-0.886 3.913,-0.886 z m 31.862,-1.12 c -0.878,1.433 -1.748,2.868 -2.611,4.306 -0.863,1.438 -1.733,2.879 -2.611,4.322 h 5.827 c -0.05,-0.646 -0.1,-1.279 -0.151,-1.9 -0.05,-0.62 -0.091,-1.274 -0.121,-1.96 -0.03,-0.686 -0.058,-1.418 -0.083,-2.195 -0.026,-0.777 -0.038,-1.635 -0.038,-2.573 z m -19.781,-2.407 h 2.361 l -0.863,3.845 h 5.147 l -0.348,1.68 h -5.132 l -1.544,6.342 c -0.101,0.424 -0.184,0.805 -0.249,1.143 -0.066,0.338 -0.119,0.643 -0.159,0.916 -0.041,0.272 -0.069,0.52 -0.084,0.742 -0.015,0.222 -0.022,0.428 -0.022,0.62 0,0.606 0.126,1.08 0.378,1.423 0.252,0.343 0.666,0.515 1.241,0.515 0.485,0 0.999,-0.179 1.544,-0.538 0.545,-0.358 1.166,-0.92 1.862,-1.687 l 1.044,1.059 c -0.514,0.575 -1.004,1.065 -1.468,1.468 -0.464,0.404 -0.918,0.735 -1.362,0.992 -0.444,0.257 -0.883,0.444 -1.317,0.56 -0.434,0.116 -0.878,0.174 -1.332,0.174 -1.201,0 -2.096,-0.283 -2.687,-0.848 -0.59,-0.565 -0.885,-1.397 -0.885,-2.497 0,-0.374 0.027,-0.785 0.083,-1.234 0.055,-0.449 0.134,-0.885 0.235,-1.309 l 1.801,-7.841 h -2.604 l 0.303,-1.165 c 0.606,0 1.077,-0.058 1.415,-0.175 0.338,-0.116 0.623,-0.275 0.856,-0.476 0.151,-0.142 0.297,-0.316 0.439,-0.523 0.141,-0.206 0.282,-0.456 0.423,-0.749 0.142,-0.292 0.285,-0.638 0.432,-1.037 0.146,-0.398 0.31,-0.865 0.492,-1.4 z m 19.72,-0.908 h 2.498 l 1.377,15.999 c 0.041,0.515 0.104,0.949 0.19,1.302 0.085,0.353 0.204,0.646 0.355,0.878 0.152,0.232 0.341,0.409 0.568,0.53 0.227,0.121 0.512,0.207 0.855,0.257 l -0.227,0.924 h -6.599 l 0.227,-0.924 c 0.282,-0.05 0.532,-0.113 0.749,-0.189 0.217,-0.076 0.396,-0.202 0.537,-0.378 0.141,-0.177 0.25,-0.417 0.326,-0.719 0.075,-0.303 0.113,-0.697 0.113,-1.181 0,-0.182 -0.005,-0.391 -0.015,-0.628 -0.01,-0.237 -0.023,-0.487 -0.038,-0.749 -0.015,-0.263 -0.035,-0.533 -0.06,-0.81 -0.026,-0.278 -0.048,-0.548 -0.068,-0.81 h -6.782 c -0.232,0.343 -0.461,0.696 -0.688,1.059 -0.227,0.364 -0.434,0.719 -0.621,1.068 -0.187,0.348 -0.336,0.693 -0.447,1.036 -0.111,0.344 -0.166,0.682 -0.166,1.015 0,0.736 0.54,1.165 1.62,1.286 l -0.197,0.924 h -6.615 l 0.167,-0.924 c 0.272,-0.05 0.517,-0.128 0.734,-0.234 0.217,-0.106 0.444,-0.273 0.681,-0.5 0.237,-0.227 0.494,-0.535 0.772,-0.923 0.277,-0.389 0.613,-0.901 1.006,-1.537 z m -45.898,-0.772 h 0.772 l -3.511,15.439 c -0.142,0.596 -0.235,1.07 -0.28,1.423 -0.046,0.353 -0.068,0.671 -0.068,0.954 0,0.383 0.078,0.661 0.234,0.832 0.157,0.172 0.381,0.258 0.674,0.258 0.181,0 0.361,-0.036 0.537,-0.106 0.177,-0.071 0.368,-0.182 0.575,-0.333 0.207,-0.152 0.434,-0.346 0.681,-0.583 0.248,-0.237 0.528,-0.522 0.841,-0.855 0.161,0.171 0.328,0.34 0.499,0.507 0.172,0.166 0.338,0.33 0.5,0.492 -0.505,0.514 -0.964,0.956 -1.378,1.324 -0.414,0.369 -0.815,0.671 -1.203,0.908 -0.389,0.238 -0.77,0.409 -1.143,0.515 -0.373,0.106 -0.762,0.159 -1.166,0.159 -0.726,0 -1.291,-0.235 -1.695,-0.704 -0.404,-0.469 -0.605,-1.112 -0.605,-1.93 0,-0.454 0.07,-0.888 0.212,-1.301 l -0.212,-0.091 c -0.515,0.716 -1.015,1.327 -1.499,1.831 -0.484,0.505 -0.964,0.921 -1.438,1.249 -0.474,0.328 -0.953,0.568 -1.438,0.719 -0.484,0.151 -0.989,0.227 -1.514,0.227 -1.2,0 -2.129,-0.431 -2.785,-1.294 -0.656,-0.863 -0.984,-2.117 -0.984,-3.762 0,-0.978 0.104,-1.919 0.311,-2.823 0.207,-0.903 0.499,-1.75 0.878,-2.543 0.378,-0.792 0.83,-1.513 1.354,-2.164 0.525,-0.651 1.1,-1.209 1.726,-1.673 0.626,-0.464 1.292,-0.825 1.998,-1.082 0.706,-0.257 1.438,-0.386 2.195,-0.386 0.666,0 1.276,0.066 1.831,0.197 0.555,0.131 1.085,0.393 1.59,0.787 0.171,-0.636 0.308,-1.178 0.408,-1.627 0.101,-0.449 0.185,-0.863 0.25,-1.242 0.066,-0.378 0.099,-0.693 0.099,-0.946 0,-0.211 -0.028,-0.388 -0.084,-0.529 -0.055,-0.142 -0.154,-0.258 -0.295,-0.348 -0.141,-0.091 -0.34,-0.157 -0.598,-0.197 -0.257,-0.041 -0.582,-0.071 -0.976,-0.091 l 0.197,-1.029 z"
       fill-rule="evenodd"
       id="path27" />
    <text
       fill="#000000"
       fill-opacity="0"
       font-family="Arial, Arial_MSFontService, sans-serif"
       font-size="20.9341px"
       x="248.189"
       y="335.064"
       id="text29">­ЮЉЉ­ЮЉњ­ЮЉА­Юљ┤</text>
    <path
       d="m 323.844,334.83 h 0.595 c -0.013,0.359 -0.022,0.679 -0.029,0.962 -0.006,0.284 -0.011,0.559 -0.015,0.826 -0.003,0.267 -0.004,0.53 -0.004,0.791 v 7.421 c 0,0.202 0.006,0.376 0.019,0.523 0.013,0.146 0.034,0.27 0.064,0.371 0.029,0.101 0.068,0.187 0.117,0.259 0.049,0.071 0.106,0.133 0.171,0.185 0.078,0.078 0.182,0.139 0.312,0.181 0.13,0.042 0.296,0.078 0.498,0.107 0.202,0.03 0.445,0.053 0.728,0.069 0.283,0.016 0.623,0.027 1.02,0.034 v 0.85 h -7.744 v -0.85 c 0.384,-0.013 0.71,-0.028 0.977,-0.044 0.267,-0.016 0.494,-0.039 0.683,-0.068 0.189,-0.03 0.34,-0.062 0.454,-0.098 0.114,-0.036 0.214,-0.08 0.298,-0.132 0.091,-0.058 0.17,-0.122 0.235,-0.19 0.065,-0.069 0.117,-0.155 0.156,-0.259 0.039,-0.104 0.07,-0.231 0.093,-0.381 0.022,-0.15 0.034,-0.335 0.034,-0.557 v -7.001 c 0,-0.254 -0.049,-0.433 -0.147,-0.538 -0.097,-0.104 -0.237,-0.156 -0.42,-0.156 -0.201,0 -0.501,0.104 -0.898,0.313 -0.397,0.208 -0.911,0.517 -1.543,0.927 -0.085,-0.149 -0.163,-0.299 -0.234,-0.449 -0.072,-0.15 -0.147,-0.303 -0.225,-0.459 0.807,-0.443 1.606,-0.884 2.397,-1.323 0.792,-0.44 1.594,-0.877 2.408,-1.314 z"
       fill-rule="evenodd"
       id="path31" />
    <text
       fill="#000000"
       fill-opacity="0"
       font-family="Arial, Arial_MSFontService, sans-serif"
       font-size="12.5781px"
       x="319.039"
       y="345.836"
       id="text33">1</text>
    <path
       d="m 364.108,309.83 c 3.148,0.827 5.575,2.971 7.28,6.433 1.706,3.461 2.558,7.558 2.558,12.291 0,4.732 -0.852,8.829 -2.558,12.291 -1.705,3.461 -4.132,5.605 -7.28,6.433 l -0.379,-1.241 c 2.442,-0.919 4.291,-2.919 5.548,-6.002 1.256,-3.083 1.884,-6.905 1.884,-11.466 0,-4.572 -0.628,-8.401 -1.884,-11.489 -1.257,-3.088 -3.106,-5.091 -5.548,-6.009 z m -22.293,0 0.379,1.241 c -2.442,0.918 -4.291,2.921 -5.548,6.009 -1.256,3.088 -1.884,6.917 -1.884,11.489 0,4.561 0.628,8.383 1.884,11.466 1.257,3.083 3.106,5.083 5.548,6.002 l -0.379,1.241 c -3.148,-0.828 -5.575,-2.972 -7.28,-6.433 -1.706,-3.462 -2.558,-7.559 -2.558,-12.291 0,-4.733 0.852,-8.83 2.558,-12.291 1.705,-3.462 4.132,-5.606 7.28,-6.433 z"
       fill-rule="evenodd"
       id="path35" />
    <path
       d="m 354.931,323.982 c -0.454,0 -0.954,0.149 -1.499,0.447 -0.545,0.298 -1.082,0.739 -1.612,1.324 -0.53,0.586 -1.019,1.31 -1.468,2.172 -0.449,0.863 -0.805,1.855 -1.067,2.975 -0.081,0.545 -0.172,1.08 -0.273,1.604 -0.101,0.525 -0.151,1.014 -0.151,1.469 0,0.817 0.184,1.395 0.552,1.733 0.369,0.338 0.962,0.507 1.779,0.507 0.828,0 1.589,-0.265 2.286,-0.795 0.696,-0.53 1.294,-1.223 1.793,-2.081 0.5,-0.858 0.891,-1.822 1.173,-2.891 0.283,-1.07 0.424,-2.15 0.424,-3.24 0,-1.079 -0.154,-1.887 -0.461,-2.421 -0.308,-0.535 -0.8,-0.803 -1.476,-0.803 z m -3.542,-7.235 h 1.09 l -2.12,8.643 0.212,0.106 c 0.515,-0.605 1.007,-1.133 1.476,-1.582 0.469,-0.449 0.929,-0.817 1.378,-1.105 0.449,-0.287 0.895,-0.502 1.339,-0.643 0.444,-0.141 0.903,-0.212 1.378,-0.212 1.19,0 2.109,0.434 2.755,1.302 0.645,0.868 0.968,2.134 0.968,3.799 0,1.453 -0.224,2.823 -0.673,4.11 -0.449,1.286 -1.057,2.414 -1.824,3.383 -0.767,0.969 -1.658,1.733 -2.672,2.293 -1.014,0.56 -2.086,0.84 -3.216,0.84 -0.727,0 -1.398,-0.073 -2.014,-0.219 -0.615,-0.147 -1.216,-0.391 -1.801,-0.735 -0.252,0.142 -0.509,0.298 -0.772,0.47 -0.262,0.171 -0.509,0.333 -0.742,0.484 -0.181,-0.05 -0.373,-0.098 -0.575,-0.144 -0.202,-0.045 -0.393,-0.098 -0.575,-0.159 l 3.633,-16.226 c 0.111,-0.505 0.194,-0.919 0.25,-1.241 0.055,-0.323 0.083,-0.606 0.083,-0.848 0,-0.192 -0.03,-0.358 -0.091,-0.5 -0.06,-0.141 -0.166,-0.254 -0.318,-0.34 -0.151,-0.086 -0.353,-0.149 -0.605,-0.189 -0.253,-0.041 -0.57,-0.066 -0.954,-0.076 l 0.227,-1.029 z"
       fill-rule="evenodd"
       id="path37" />
    <text
       fill="#000000"
       fill-opacity="0"
       font-family="Arial, Arial_MSFontService, sans-serif"
       font-size="20.9341px"
       x="345.00101"
       y="335.064"
       id="text39">­ЮЉЈ</text>
    <path
       d="m 358.052,307.088 3.8,3.285 v 0.878 l -3.8,3.284 -0.802,-0.908 2.422,-2.104 h -5.031 -4.202 -4.88 V 310.1 h 4.88 4.202 5.031 l -2.422,-2.104 z"
       fill-rule="evenodd"
       id="path41" />
    <path
       d="m 306.616,371.179 c -0.555,0 -1.103,0.136 -1.642,0.409 -0.54,0.272 -1.05,0.658 -1.529,1.158 -0.48,0.499 -0.916,1.105 -1.31,1.816 -0.393,0.712 -0.721,1.506 -0.983,2.384 1.281,-0.01 2.384,-0.111 3.307,-0.302 0.923,-0.192 1.68,-0.455 2.27,-0.788 0.591,-0.333 1.025,-0.726 1.302,-1.18 0.278,-0.454 0.416,-0.954 0.416,-1.499 0,-0.625 -0.156,-1.115 -0.469,-1.468 -0.313,-0.353 -0.767,-0.53 -1.362,-0.53 z m -20.106,0 c -0.595,0 -1.148,0.129 -1.657,0.386 -0.51,0.258 -0.977,0.611 -1.401,1.06 -0.423,0.449 -0.802,0.969 -1.135,1.559 -0.333,0.59 -0.613,1.221 -0.84,1.892 -0.227,0.671 -0.399,1.357 -0.515,2.059 -0.116,0.701 -0.174,1.385 -0.174,2.051 0,1.089 0.154,1.899 0.462,2.429 0.308,0.53 0.805,0.795 1.491,0.795 0.464,0 0.979,-0.157 1.544,-0.47 0.565,-0.312 1.112,-0.764 1.642,-1.354 0.53,-0.591 1.017,-1.31 1.461,-2.157 0.444,-0.848 0.777,-1.802 0.999,-2.861 0.111,-0.545 0.212,-1.09 0.303,-1.635 0.09,-0.545 0.136,-1.044 0.136,-1.498 0,-0.818 -0.184,-1.398 -0.553,-1.741 -0.368,-0.343 -0.956,-0.515 -1.763,-0.515 z m 20.757,-1.498 c 1.291,0 2.273,0.282 2.944,0.847 0.671,0.565 1.006,1.368 1.006,2.407 0,3.653 -3.456,5.48 -10.368,5.48 -0.051,0.262 -0.091,0.547 -0.121,0.855 -0.031,0.308 -0.046,0.643 -0.046,1.006 0,1.1 0.225,1.903 0.674,2.407 0.449,0.505 1.148,0.757 2.096,0.757 0.495,0 0.964,-0.053 1.408,-0.159 0.444,-0.106 0.881,-0.27 1.309,-0.492 0.429,-0.222 0.861,-0.507 1.295,-0.855 0.434,-0.348 0.888,-0.765 1.362,-1.249 l 1.135,1.226 c -1.17,1.161 -2.338,2.034 -3.504,2.619 -1.166,0.585 -2.419,0.878 -3.761,0.878 -0.788,0 -1.486,-0.119 -2.097,-0.356 -0.61,-0.237 -1.125,-0.583 -1.544,-1.037 -0.419,-0.454 -0.737,-1.006 -0.953,-1.657 -0.217,-0.651 -0.326,-1.385 -0.326,-2.203 0,-0.575 0.051,-1.173 0.151,-1.793 0.101,-0.621 0.258,-1.242 0.47,-1.862 0.212,-0.621 0.474,-1.226 0.787,-1.817 0.313,-0.59 0.681,-1.142 1.105,-1.657 0.847,-1.05 1.869,-1.869 3.065,-2.46 1.196,-0.59 2.5,-0.885 3.913,-0.885 z m 31.862,-1.12 c -0.878,1.433 -1.749,2.868 -2.611,4.306 -0.863,1.438 -1.734,2.878 -2.612,4.322 h 5.828 c -0.05,-0.646 -0.101,-1.28 -0.151,-1.9 -0.051,-0.621 -0.091,-1.274 -0.121,-1.96 -0.031,-0.687 -0.058,-1.418 -0.084,-2.195 -0.025,-0.777 -0.037,-1.635 -0.037,-2.573 z m -19.782,-2.407 h 2.362 l -0.863,3.845 h 5.146 l -0.348,1.68 h -5.131 l -1.544,6.342 c -0.101,0.424 -0.184,0.805 -0.25,1.143 -0.065,0.338 -0.118,0.643 -0.159,0.916 -0.04,0.272 -0.068,0.519 -0.083,0.741 -0.015,0.222 -0.023,0.429 -0.023,0.621 0,0.605 0.126,1.08 0.379,1.423 0.252,0.343 0.666,0.514 1.241,0.514 0.484,0 0.999,-0.179 1.544,-0.537 0.545,-0.358 1.165,-0.921 1.862,-1.688 l 1.044,1.06 c -0.515,0.575 -1.004,1.065 -1.468,1.468 -0.464,0.404 -0.918,0.734 -1.362,0.992 -0.444,0.257 -0.883,0.444 -1.317,0.56 -0.434,0.116 -0.878,0.174 -1.332,0.174 -1.201,0 -2.097,-0.283 -2.687,-0.848 -0.59,-0.565 -0.886,-1.398 -0.886,-2.497 0,-0.374 0.028,-0.785 0.084,-1.234 0.055,-0.449 0.133,-0.886 0.234,-1.309 l 1.802,-7.841 h -2.604 l 0.303,-1.166 c 0.605,0 1.077,-0.058 1.415,-0.174 0.338,-0.116 0.623,-0.275 0.855,-0.477 0.152,-0.141 0.298,-0.315 0.439,-0.522 0.141,-0.207 0.283,-0.457 0.424,-0.749 0.141,-0.293 0.285,-0.638 0.431,-1.037 0.147,-0.399 0.311,-0.865 0.492,-1.4 z m 19.721,-0.908 h 2.498 l 1.377,15.999 c 0.04,0.515 0.104,0.949 0.189,1.302 0.086,0.353 0.205,0.646 0.356,0.878 0.151,0.232 0.341,0.409 0.568,0.53 0.227,0.121 0.512,0.206 0.855,0.257 l -0.227,0.923 h -6.6 l 0.227,-0.923 c 0.283,-0.051 0.533,-0.114 0.75,-0.189 0.216,-0.076 0.396,-0.202 0.537,-0.379 0.141,-0.176 0.25,-0.416 0.325,-0.719 0.076,-0.302 0.114,-0.696 0.114,-1.18 0,-0.182 -0.005,-0.391 -0.015,-0.629 -0.01,-0.237 -0.023,-0.486 -0.038,-0.749 -0.015,-0.262 -0.035,-0.532 -0.061,-0.81 -0.025,-0.277 -0.048,-0.547 -0.068,-0.809 h -6.781 c -0.232,0.343 -0.462,0.696 -0.689,1.059 -0.227,0.363 -0.434,0.719 -0.62,1.067 -0.187,0.348 -0.336,0.694 -0.447,1.037 -0.111,0.343 -0.166,0.681 -0.166,1.014 0,0.737 0.539,1.166 1.619,1.287 l -0.197,0.923 h -6.614 l 0.166,-0.923 c 0.273,-0.051 0.517,-0.129 0.734,-0.235 0.217,-0.106 0.444,-0.272 0.681,-0.499 0.238,-0.227 0.495,-0.535 0.772,-0.924 0.278,-0.388 0.613,-0.9 1.007,-1.536 z m -45.898,-0.772 h 0.772 l -3.512,15.439 c -0.141,0.595 -0.234,1.07 -0.28,1.423 -0.045,0.353 -0.068,0.671 -0.068,0.954 0,0.383 0.078,0.661 0.235,0.832 0.156,0.172 0.381,0.257 0.673,0.257 0.182,0 0.361,-0.035 0.538,-0.106 0.176,-0.07 0.368,-0.181 0.575,-0.333 0.207,-0.151 0.434,-0.345 0.681,-0.582 0.247,-0.237 0.527,-0.523 0.84,-0.856 0.162,0.172 0.328,0.341 0.5,0.508 0.171,0.166 0.338,0.33 0.499,0.491 -0.504,0.515 -0.963,0.957 -1.377,1.325 -0.414,0.368 -0.815,0.671 -1.204,0.908 -0.388,0.237 -0.769,0.409 -1.142,0.515 -0.374,0.106 -0.762,0.159 -1.166,0.159 -0.726,0 -1.292,-0.235 -1.695,-0.704 -0.404,-0.469 -0.606,-1.113 -0.606,-1.93 0,-0.454 0.071,-0.888 0.212,-1.302 l -0.212,-0.091 c -0.514,0.717 -1.014,1.327 -1.498,1.832 -0.485,0.504 -0.964,0.921 -1.438,1.249 -0.474,0.328 -0.954,0.567 -1.438,0.719 -0.485,0.151 -0.989,0.227 -1.514,0.227 -1.201,0 -2.129,-0.432 -2.785,-1.294 -0.656,-0.863 -0.984,-2.117 -0.984,-3.762 0,-0.979 0.104,-1.92 0.31,-2.823 0.207,-0.903 0.5,-1.751 0.878,-2.543 0.379,-0.792 0.83,-1.514 1.355,-2.164 0.525,-0.651 1.1,-1.209 1.726,-1.673 0.625,-0.464 1.291,-0.825 1.998,-1.082 0.706,-0.258 1.438,-0.386 2.195,-0.386 0.666,0 1.276,0.065 1.831,0.196 0.555,0.132 1.085,0.394 1.589,0.788 0.172,-0.636 0.308,-1.179 0.409,-1.628 0.101,-0.449 0.184,-0.862 0.25,-1.241 0.065,-0.378 0.098,-0.694 0.098,-0.946 0,-0.212 -0.027,-0.388 -0.083,-0.53 -0.056,-0.141 -0.154,-0.257 -0.295,-0.348 -0.141,-0.091 -0.341,-0.156 -0.598,-0.197 -0.257,-0.04 -0.583,-0.07 -0.976,-0.09 l 0.196,-1.03 z"
       fill-rule="evenodd"
       id="path43" />
    <text
       fill="#000000"
       fill-opacity="0"
       font-family="Arial, Arial_MSFontService, sans-serif"
       font-size="20.9341px"
       x="277.776"
       y="382.79099"
       id="text45">­ЮЉЉ­ЮЉњ­ЮЉА­Юљ┤</text>
    <path
       d="m 246.672,350.355 h 43.333 43.334 43.333 v 3 h -43.333 -43.334 -43.333 z"
       fill-rule="evenodd"
       id="path47" />
    <path
       d="m 278.023,415.493 c -0.555,0 -1.103,0.136 -1.643,0.408 -0.54,0.273 -1.049,0.659 -1.529,1.158 -0.479,0.5 -0.915,1.105 -1.309,1.817 -0.393,0.711 -0.721,1.506 -0.984,2.384 1.282,-0.01 2.384,-0.111 3.308,-0.303 0.923,-0.192 1.68,-0.454 2.27,-0.787 0.59,-0.333 1.024,-0.727 1.302,-1.181 0.277,-0.454 0.416,-0.953 0.416,-1.498 0,-0.626 -0.156,-1.115 -0.469,-1.469 -0.313,-0.353 -0.767,-0.529 -1.362,-0.529 z m -20.106,0 c -0.596,0 -1.148,0.128 -1.658,0.386 -0.509,0.257 -0.976,0.61 -1.4,1.059 -0.424,0.449 -0.802,0.969 -1.135,1.559 -0.333,0.591 -0.613,1.221 -0.84,1.892 -0.227,0.671 -0.399,1.358 -0.515,2.059 -0.116,0.701 -0.174,1.385 -0.174,2.051 0,1.09 0.154,1.9 0.462,2.429 0.307,0.53 0.804,0.795 1.491,0.795 0.464,0 0.978,-0.156 1.544,-0.469 0.565,-0.313 1.112,-0.765 1.642,-1.355 0.53,-0.59 1.017,-1.309 1.461,-2.157 0.444,-0.848 0.777,-1.801 0.999,-2.861 0.111,-0.545 0.212,-1.09 0.302,-1.635 0.091,-0.544 0.137,-1.044 0.137,-1.498 0,-0.817 -0.185,-1.398 -0.553,-1.741 -0.368,-0.343 -0.956,-0.514 -1.763,-0.514 z m 20.756,-1.499 c 1.292,0 2.274,0.283 2.945,0.848 0.671,0.565 1.006,1.367 1.006,2.406 0,3.653 -3.456,5.48 -10.368,5.48 -0.051,0.262 -0.091,0.547 -0.122,0.855 -0.03,0.308 -0.045,0.643 -0.045,1.007 0,1.1 0.225,1.902 0.674,2.406 0.449,0.505 1.147,0.757 2.096,0.757 0.494,0 0.964,-0.053 1.408,-0.159 0.444,-0.106 0.88,-0.27 1.309,-0.492 0.429,-0.222 0.86,-0.507 1.294,-0.855 0.434,-0.348 0.888,-0.764 1.363,-1.249 l 1.135,1.226 c -1.171,1.161 -2.339,2.034 -3.504,2.619 -1.166,0.585 -2.42,0.878 -3.762,0.878 -0.787,0 -1.486,-0.118 -2.096,-0.356 -0.611,-0.237 -1.125,-0.582 -1.544,-1.037 -0.419,-0.454 -0.737,-1.006 -0.954,-1.657 -0.217,-0.651 -0.325,-1.385 -0.325,-2.202 0,-0.576 0.05,-1.173 0.151,-1.794 0.101,-0.621 0.257,-1.241 0.469,-1.862 0.212,-0.62 0.475,-1.226 0.787,-1.816 0.313,-0.591 0.682,-1.143 1.105,-1.658 0.848,-1.049 1.87,-1.869 3.066,-2.459 1.195,-0.591 2.5,-0.886 3.912,-0.886 z m 31.862,-1.12 c -0.878,1.433 -1.748,2.868 -2.611,4.306 -0.863,1.438 -1.733,2.879 -2.611,4.322 h 5.828 c -0.051,-0.646 -0.101,-1.279 -0.152,-1.9 -0.05,-0.62 -0.09,-1.274 -0.121,-1.96 -0.03,-0.686 -0.058,-1.418 -0.083,-2.195 -0.025,-0.777 -0.038,-1.635 -0.038,-2.573 z m -19.781,-2.407 h 2.361 l -0.862,3.845 h 5.146 l -0.348,1.68 h -5.131 l -1.544,6.342 c -0.101,0.424 -0.185,0.805 -0.25,1.143 -0.066,0.338 -0.119,0.643 -0.159,0.916 -0.04,0.272 -0.068,0.52 -0.083,0.742 -0.015,0.222 -0.023,0.429 -0.023,0.62 0,0.606 0.126,1.08 0.378,1.423 0.253,0.343 0.666,0.515 1.242,0.515 0.484,0 0.999,-0.179 1.544,-0.538 0.544,-0.358 1.165,-0.92 1.861,-1.687 l 1.045,1.059 c -0.515,0.575 -1.004,1.065 -1.468,1.468 -0.465,0.404 -0.919,0.735 -1.363,0.992 -0.444,0.257 -0.883,0.444 -1.317,0.56 -0.434,0.116 -0.878,0.174 -1.332,0.174 -1.201,0 -2.096,-0.282 -2.686,-0.848 -0.591,-0.565 -0.886,-1.397 -0.886,-2.497 0,-0.374 0.028,-0.785 0.083,-1.234 0.056,-0.449 0.134,-0.885 0.235,-1.309 l 1.801,-7.841 h -2.603 l 0.302,-1.165 c 0.606,0 1.078,-0.058 1.416,-0.175 0.338,-0.116 0.623,-0.275 0.855,-0.476 0.151,-0.142 0.298,-0.316 0.439,-0.523 0.141,-0.206 0.282,-0.456 0.424,-0.749 0.141,-0.292 0.285,-0.638 0.431,-1.037 0.146,-0.398 0.31,-0.865 0.492,-1.4 z m 19.721,-0.908 h 2.497 l 1.378,15.999 c 0.04,0.515 0.103,0.949 0.189,1.302 0.086,0.353 0.204,0.646 0.356,0.878 0.151,0.232 0.34,0.409 0.567,0.53 0.227,0.121 0.512,0.207 0.856,0.257 l -0.228,0.924 h -6.599 l 0.227,-0.924 c 0.282,-0.05 0.532,-0.113 0.749,-0.189 0.217,-0.076 0.396,-0.202 0.538,-0.378 0.141,-0.177 0.249,-0.417 0.325,-0.719 0.076,-0.303 0.113,-0.697 0.113,-1.181 0,-0.182 -0.005,-0.391 -0.015,-0.628 -0.01,-0.237 -0.022,-0.487 -0.037,-0.749 -0.016,-0.263 -0.036,-0.533 -0.061,-0.81 -0.025,-0.278 -0.048,-0.548 -0.068,-0.81 h -6.781 c -0.232,0.343 -0.462,0.696 -0.689,1.059 -0.227,0.364 -0.434,0.719 -0.621,1.068 -0.186,0.348 -0.335,0.693 -0.446,1.036 -0.111,0.344 -0.167,0.682 -0.167,1.015 0,0.736 0.54,1.165 1.62,1.286 l -0.197,0.924 h -6.615 l 0.167,-0.924 c 0.272,-0.05 0.517,-0.128 0.734,-0.234 0.217,-0.106 0.444,-0.273 0.681,-0.5 0.237,-0.227 0.495,-0.535 0.772,-0.923 0.278,-0.389 0.613,-0.901 1.007,-1.537 z m -45.898,-0.772 h 0.772 l -3.512,15.439 c -0.141,0.596 -0.235,1.07 -0.28,1.423 -0.045,0.353 -0.068,0.671 -0.068,0.954 0,0.383 0.078,0.661 0.235,0.832 0.156,0.172 0.38,0.258 0.673,0.258 0.182,0 0.361,-0.036 0.537,-0.106 0.177,-0.071 0.369,-0.182 0.576,-0.333 0.207,-0.152 0.434,-0.346 0.681,-0.583 0.247,-0.237 0.527,-0.522 0.84,-0.855 0.161,0.171 0.328,0.34 0.499,0.507 0.172,0.166 0.338,0.33 0.5,0.492 -0.505,0.514 -0.964,0.956 -1.378,1.324 -0.413,0.369 -0.814,0.671 -1.203,0.908 -0.388,0.238 -0.769,0.409 -1.143,0.515 -0.373,0.106 -0.762,0.159 -1.165,0.159 -0.727,0 -1.292,-0.235 -1.696,-0.704 -0.403,-0.469 -0.605,-1.112 -0.605,-1.93 0,-0.454 0.071,-0.888 0.212,-1.301 l -0.212,-0.091 c -0.515,0.716 -1.014,1.327 -1.499,1.831 -0.484,0.505 -0.963,0.921 -1.438,1.249 -0.474,0.328 -0.953,0.568 -1.438,0.719 -0.484,0.151 -0.988,0.227 -1.513,0.227 -1.201,0 -2.129,-0.431 -2.785,-1.294 -0.656,-0.863 -0.984,-2.117 -0.984,-3.762 0,-0.978 0.103,-1.919 0.31,-2.823 0.207,-0.903 0.5,-1.75 0.878,-2.543 0.378,-0.792 0.83,-1.513 1.355,-2.164 0.524,-0.651 1.1,-1.209 1.725,-1.673 0.626,-0.464 1.292,-0.825 1.998,-1.082 0.707,-0.257 1.438,-0.386 2.195,-0.386 0.666,0 1.277,0.066 1.832,0.197 0.555,0.131 1.085,0.393 1.589,0.787 0.172,-0.636 0.308,-1.178 0.409,-1.627 0.101,-0.449 0.184,-0.863 0.25,-1.242 0.065,-0.378 0.098,-0.693 0.098,-0.946 0,-0.211 -0.028,-0.388 -0.083,-0.529 -0.056,-0.142 -0.154,-0.258 -0.295,-0.348 -0.142,-0.091 -0.341,-0.157 -0.598,-0.197 -0.258,-0.041 -0.583,-0.071 -0.977,-0.091 l 0.197,-1.029 z"
       fill-rule="evenodd"
       id="path49" />
    <text
       fill="#000000"
       fill-opacity="0"
       font-family="Arial, Arial_MSFontService, sans-serif"
       font-size="20.9341px"
       x="249.183"
       y="427.104"
       id="text51">­ЮЉЉ­ЮЉњ­ЮЉА­Юљ┤</text>
    <path
       d="m 324.075,426.802 c 0.677,0 1.255,0.077 1.734,0.23 0.478,0.153 0.867,0.359 1.167,0.62 0.299,0.26 0.516,0.573 0.649,0.937 0.134,0.365 0.2,0.759 0.2,1.182 0,0.254 -0.018,0.49 -0.053,0.708 -0.036,0.218 -0.098,0.433 -0.186,0.644 -0.088,0.212 -0.203,0.425 -0.347,0.64 -0.143,0.215 -0.322,0.443 -0.537,0.684 -0.162,0.208 -0.374,0.449 -0.634,0.722 -0.261,0.274 -0.546,0.567 -0.855,0.879 -0.309,0.313 -0.633,0.638 -0.972,0.977 -0.338,0.338 -0.667,0.674 -0.986,1.006 -0.319,0.332 -0.612,0.654 -0.879,0.966 -0.267,0.313 -0.485,0.599 -0.654,0.86 h 3.613 c 0.306,0 0.55,-0.012 0.733,-0.034 0.182,-0.023 0.333,-0.074 0.454,-0.152 0.12,-0.078 0.223,-0.197 0.307,-0.356 0.085,-0.16 0.183,-0.379 0.293,-0.659 h 0.908 c -0.032,0.462 -0.063,0.927 -0.092,1.396 -0.03,0.469 -0.061,0.934 -0.093,1.397 h -8.272 v -0.508 c 0.157,-0.352 0.339,-0.698 0.547,-1.04 0.209,-0.342 0.443,-0.689 0.703,-1.04 0.261,-0.352 0.557,-0.715 0.889,-1.089 0.332,-0.375 0.7,-0.763 1.104,-1.167 0.612,-0.612 1.11,-1.135 1.494,-1.568 0.384,-0.432 0.687,-0.818 0.908,-1.157 0.221,-0.338 0.373,-0.651 0.454,-0.937 0.081,-0.287 0.122,-0.593 0.122,-0.918 0,-0.332 -0.047,-0.638 -0.142,-0.918 -0.094,-0.28 -0.229,-0.518 -0.405,-0.713 -0.176,-0.195 -0.399,-0.348 -0.669,-0.459 -0.27,-0.111 -0.581,-0.166 -0.932,-0.166 -0.606,0 -1.114,0.164 -1.524,0.493 -0.41,0.329 -0.729,0.806 -0.957,1.431 h -1.279 v -1.905 c 0.833,-0.345 1.6,-0.595 2.3,-0.752 0.7,-0.156 1.329,-0.234 1.889,-0.234 z"
       fill-rule="evenodd"
       id="path53" />
    <text
       fill="#000000"
       fill-opacity="0"
       font-family="Arial, Arial_MSFontService, sans-serif"
       font-size="12.6465px"
       x="319.573"
       y="437.86801"
       id="text55">2</text>
    <path
       d="m 342.128,407.576 0.408,1.166 c -2.361,0.777 -4.109,2.293 -5.245,4.548 -1.135,2.256 -1.702,5.089 -1.702,8.499 0,3.532 0.567,6.444 1.702,8.734 1.136,2.291 2.869,3.825 5.2,4.602 l -0.363,1.165 c -2.957,-0.777 -5.223,-2.449 -6.797,-5.017 -1.574,-2.569 -2.361,-5.679 -2.361,-9.332 0,-3.643 0.789,-6.754 2.369,-9.332 1.579,-2.578 3.842,-4.256 6.789,-5.033 z"
       fill-rule="evenodd"
       id="path57" />
    <text
       fill="#000000"
       fill-opacity="0"
       font-family="Arial, Arial_MSFontService, sans-serif"
       font-size="28.7144px"
       x="332.97"
       y="432.70099"
       id="text59">(</text>
    <path
       d="m 354.931,416.022 c -0.454,0 -0.954,0.149 -1.499,0.447 -0.545,0.298 -1.082,0.739 -1.612,1.324 -0.53,0.586 -1.019,1.31 -1.468,2.172 -0.449,0.863 -0.805,1.855 -1.067,2.975 -0.081,0.545 -0.172,1.08 -0.273,1.604 -0.101,0.525 -0.151,1.014 -0.151,1.469 0,0.817 0.184,1.395 0.552,1.733 0.369,0.338 0.962,0.507 1.779,0.507 0.828,0 1.589,-0.265 2.286,-0.795 0.696,-0.53 1.294,-1.223 1.793,-2.081 0.5,-0.858 0.891,-1.822 1.173,-2.891 0.283,-1.07 0.424,-2.15 0.424,-3.24 0,-1.079 -0.154,-1.887 -0.461,-2.421 -0.308,-0.535 -0.8,-0.803 -1.476,-0.803 z m -3.542,-7.235 h 1.09 l -2.12,8.643 0.212,0.106 c 0.515,-0.605 1.007,-1.133 1.476,-1.582 0.469,-0.449 0.929,-0.817 1.378,-1.105 0.449,-0.287 0.895,-0.502 1.339,-0.643 0.444,-0.141 0.903,-0.212 1.378,-0.212 1.19,0 2.109,0.434 2.755,1.302 0.645,0.868 0.968,2.134 0.968,3.799 0,1.453 -0.224,2.823 -0.673,4.11 -0.449,1.286 -1.057,2.414 -1.824,3.383 -0.767,0.969 -1.658,1.733 -2.672,2.293 -1.014,0.56 -2.086,0.84 -3.216,0.84 -0.727,0 -1.398,-0.073 -2.014,-0.219 -0.615,-0.147 -1.216,-0.391 -1.801,-0.735 -0.252,0.142 -0.509,0.298 -0.772,0.47 -0.262,0.171 -0.509,0.333 -0.742,0.484 -0.181,-0.05 -0.373,-0.098 -0.575,-0.144 -0.202,-0.045 -0.393,-0.098 -0.575,-0.159 l 3.633,-16.226 c 0.111,-0.505 0.194,-0.919 0.25,-1.241 0.055,-0.323 0.083,-0.606 0.083,-0.848 0,-0.192 -0.03,-0.358 -0.091,-0.5 -0.06,-0.141 -0.166,-0.254 -0.318,-0.34 -0.151,-0.086 -0.353,-0.149 -0.605,-0.189 -0.253,-0.041 -0.57,-0.066 -0.954,-0.076 l 0.227,-1.029 z"
       fill-rule="evenodd"
       id="path61" />
    <text
       fill="#000000"
       fill-opacity="0"
       font-family="Arial, Arial_MSFontService, sans-serif"
       font-size="20.9341px"
       x="345.00101"
       y="427.104"
       id="text63">­ЮЉЈ</text>
    <path
       d="m 358.052,399.128 3.8,3.285 v 0.878 l -3.8,3.285 -0.802,-0.909 2.422,-2.104 h -5.031 -4.202 -4.88 v -1.423 h 4.88 4.202 5.031 l -2.422,-2.104 z"
       fill-rule="evenodd"
       id="path65" />
    <path
       d="m 363.729,407.576 c 2.947,0.777 5.21,2.455 6.789,5.033 1.579,2.578 2.369,5.689 2.369,9.332 0,3.653 -0.787,6.763 -2.361,9.332 -1.575,2.568 -3.84,4.24 -6.797,5.017 l -0.363,-1.165 c 2.331,-0.777 4.064,-2.311 5.199,-4.602 1.136,-2.29 1.703,-5.202 1.703,-8.734 0,-3.41 -0.565,-6.243 -1.695,-8.499 -1.13,-2.255 -2.881,-3.771 -5.253,-4.548 z"
       fill-rule="evenodd"
       id="path67" />
    <text
       fill="#000000"
       fill-opacity="0"
       font-family="Arial, Arial_MSFontService, sans-serif"
       font-size="28.7144px"
       x="363.32001"
       y="432.70099"
       id="text69">)</text>
    <path
       d="m 306.616,461.953 c -0.555,0 -1.103,0.136 -1.642,0.408 -0.54,0.273 -1.05,0.659 -1.529,1.158 -0.48,0.5 -0.916,1.105 -1.31,1.817 -0.393,0.711 -0.721,1.506 -0.983,2.384 1.281,-0.01 2.384,-0.111 3.307,-0.303 0.923,-0.192 1.68,-0.454 2.27,-0.787 0.591,-0.333 1.025,-0.727 1.302,-1.181 0.278,-0.454 0.416,-0.953 0.416,-1.498 0,-0.626 -0.156,-1.115 -0.469,-1.469 -0.313,-0.353 -0.767,-0.529 -1.362,-0.529 z m -20.106,0 c -0.595,0 -1.148,0.128 -1.657,0.386 -0.51,0.257 -0.977,0.61 -1.401,1.059 -0.423,0.449 -0.802,0.969 -1.135,1.559 -0.333,0.591 -0.613,1.221 -0.84,1.892 -0.227,0.671 -0.399,1.358 -0.515,2.059 -0.116,0.701 -0.174,1.385 -0.174,2.051 0,1.09 0.154,1.9 0.462,2.429 0.308,0.53 0.805,0.795 1.491,0.795 0.464,0 0.979,-0.156 1.544,-0.469 0.565,-0.313 1.112,-0.765 1.642,-1.355 0.53,-0.59 1.017,-1.309 1.461,-2.157 0.444,-0.848 0.777,-1.801 0.999,-2.861 0.111,-0.545 0.212,-1.09 0.303,-1.635 0.09,-0.544 0.136,-1.044 0.136,-1.498 0,-0.817 -0.184,-1.398 -0.553,-1.741 -0.368,-0.343 -0.956,-0.514 -1.763,-0.514 z m 20.757,-1.499 c 1.291,0 2.273,0.283 2.944,0.848 0.671,0.565 1.006,1.367 1.006,2.406 0,3.653 -3.456,5.48 -10.368,5.48 -0.051,0.262 -0.091,0.547 -0.121,0.855 -0.031,0.308 -0.046,0.643 -0.046,1.007 0,1.1 0.225,1.902 0.674,2.406 0.449,0.505 1.148,0.757 2.096,0.757 0.495,0 0.964,-0.053 1.408,-0.159 0.444,-0.106 0.881,-0.27 1.309,-0.492 0.429,-0.222 0.861,-0.507 1.295,-0.855 0.434,-0.348 0.888,-0.764 1.362,-1.249 l 1.135,1.226 c -1.17,1.161 -2.338,2.034 -3.504,2.619 -1.166,0.585 -2.419,0.878 -3.761,0.878 -0.788,0 -1.486,-0.119 -2.097,-0.356 -0.61,-0.237 -1.125,-0.582 -1.544,-1.037 -0.419,-0.454 -0.737,-1.006 -0.953,-1.657 -0.217,-0.651 -0.326,-1.385 -0.326,-2.202 0,-0.576 0.051,-1.173 0.151,-1.794 0.101,-0.621 0.258,-1.241 0.47,-1.862 0.212,-0.621 0.474,-1.226 0.787,-1.816 0.313,-0.591 0.681,-1.143 1.105,-1.658 0.847,-1.049 1.869,-1.869 3.065,-2.459 1.196,-0.591 2.5,-0.886 3.913,-0.886 z m 31.862,-1.12 c -0.878,1.433 -1.749,2.868 -2.611,4.306 -0.863,1.438 -1.734,2.879 -2.612,4.322 h 5.828 c -0.05,-0.646 -0.101,-1.279 -0.151,-1.9 -0.051,-0.62 -0.091,-1.274 -0.121,-1.96 -0.031,-0.686 -0.058,-1.418 -0.084,-2.195 -0.025,-0.777 -0.037,-1.635 -0.037,-2.573 z m -19.782,-2.407 h 2.362 l -0.863,3.845 h 5.146 l -0.348,1.68 h -5.131 l -1.544,6.342 c -0.101,0.424 -0.184,0.805 -0.25,1.143 -0.065,0.338 -0.118,0.643 -0.159,0.916 -0.04,0.272 -0.068,0.52 -0.083,0.742 -0.015,0.222 -0.023,0.428 -0.023,0.62 0,0.606 0.126,1.08 0.379,1.423 0.252,0.343 0.666,0.515 1.241,0.515 0.484,0 0.999,-0.179 1.544,-0.538 0.545,-0.358 1.165,-0.92 1.862,-1.687 l 1.044,1.059 c -0.515,0.575 -1.004,1.065 -1.468,1.468 -0.464,0.404 -0.918,0.735 -1.362,0.992 -0.444,0.257 -0.883,0.444 -1.317,0.56 -0.434,0.116 -0.878,0.174 -1.332,0.174 -1.201,0 -2.097,-0.283 -2.687,-0.848 -0.59,-0.565 -0.886,-1.397 -0.886,-2.497 0,-0.374 0.028,-0.785 0.084,-1.234 0.055,-0.449 0.133,-0.885 0.234,-1.309 l 1.802,-7.841 h -2.604 l 0.303,-1.165 c 0.605,0 1.077,-0.058 1.415,-0.175 0.338,-0.116 0.623,-0.275 0.855,-0.476 0.152,-0.142 0.298,-0.316 0.439,-0.523 0.141,-0.206 0.283,-0.456 0.424,-0.749 0.141,-0.292 0.285,-0.638 0.431,-1.037 0.147,-0.398 0.311,-0.865 0.492,-1.4 z m 19.721,-0.908 h 2.498 l 1.377,15.999 c 0.04,0.515 0.104,0.949 0.189,1.302 0.086,0.353 0.205,0.646 0.356,0.878 0.151,0.232 0.341,0.409 0.568,0.53 0.227,0.121 0.512,0.207 0.855,0.257 l -0.227,0.924 h -6.6 l 0.227,-0.924 c 0.283,-0.05 0.533,-0.113 0.75,-0.189 0.216,-0.076 0.396,-0.202 0.537,-0.378 0.141,-0.177 0.25,-0.417 0.325,-0.719 0.076,-0.303 0.114,-0.697 0.114,-1.181 0,-0.182 -0.005,-0.391 -0.015,-0.628 -0.01,-0.237 -0.023,-0.487 -0.038,-0.749 -0.015,-0.263 -0.035,-0.533 -0.061,-0.81 -0.025,-0.278 -0.048,-0.548 -0.068,-0.81 h -6.781 c -0.232,0.343 -0.462,0.696 -0.689,1.059 -0.227,0.364 -0.434,0.719 -0.62,1.068 -0.187,0.348 -0.336,0.693 -0.447,1.036 -0.111,0.344 -0.166,0.682 -0.166,1.015 0,0.736 0.539,1.165 1.619,1.286 l -0.197,0.924 h -6.614 l 0.166,-0.924 c 0.273,-0.05 0.517,-0.128 0.734,-0.234 0.217,-0.106 0.444,-0.273 0.681,-0.5 0.238,-0.227 0.495,-0.535 0.772,-0.923 0.278,-0.389 0.613,-0.901 1.007,-1.537 z m -45.898,-0.772 h 0.772 l -3.512,15.439 c -0.141,0.596 -0.234,1.07 -0.28,1.423 -0.045,0.353 -0.068,0.671 -0.068,0.954 0,0.383 0.078,0.661 0.235,0.832 0.156,0.172 0.381,0.258 0.673,0.258 0.182,0 0.361,-0.036 0.538,-0.106 0.176,-0.071 0.368,-0.182 0.575,-0.333 0.207,-0.152 0.434,-0.346 0.681,-0.583 0.247,-0.237 0.527,-0.522 0.84,-0.855 0.162,0.171 0.328,0.34 0.5,0.507 0.171,0.166 0.338,0.33 0.499,0.492 -0.504,0.514 -0.963,0.956 -1.377,1.324 -0.414,0.369 -0.815,0.671 -1.204,0.908 -0.388,0.238 -0.769,0.409 -1.142,0.515 -0.374,0.106 -0.762,0.159 -1.166,0.159 -0.726,0 -1.292,-0.235 -1.695,-0.704 -0.404,-0.469 -0.606,-1.112 -0.606,-1.93 0,-0.454 0.071,-0.888 0.212,-1.301 l -0.212,-0.091 c -0.514,0.716 -1.014,1.327 -1.498,1.831 -0.485,0.505 -0.964,0.921 -1.438,1.249 -0.474,0.328 -0.954,0.568 -1.438,0.719 -0.485,0.151 -0.989,0.227 -1.514,0.227 -1.201,0 -2.129,-0.431 -2.785,-1.294 -0.656,-0.863 -0.984,-2.117 -0.984,-3.762 0,-0.978 0.104,-1.919 0.31,-2.823 0.207,-0.903 0.5,-1.75 0.878,-2.543 0.379,-0.792 0.83,-1.513 1.355,-2.164 0.525,-0.651 1.1,-1.209 1.726,-1.673 0.625,-0.464 1.291,-0.825 1.998,-1.082 0.706,-0.257 1.438,-0.386 2.195,-0.386 0.666,0 1.276,0.066 1.831,0.197 0.555,0.131 1.085,0.393 1.589,0.787 0.172,-0.636 0.308,-1.178 0.409,-1.627 0.101,-0.449 0.184,-0.863 0.25,-1.242 0.065,-0.378 0.098,-0.693 0.098,-0.946 0,-0.211 -0.027,-0.388 -0.083,-0.529 -0.056,-0.142 -0.154,-0.258 -0.295,-0.348 -0.141,-0.091 -0.341,-0.157 -0.598,-0.197 -0.257,-0.041 -0.583,-0.071 -0.976,-0.091 l 0.196,-1.029 z"
       fill-rule="evenodd"
       id="path71" />
    <text
       fill="#000000"
       fill-opacity="0"
       font-family="Arial, Arial_MSFontService, sans-serif"
       font-size="20.9341px"
       x="277.776"
       y="473.564"
       id="text73">­ЮЉЉ­ЮЉњ­ЮЉА­Юљ┤</text>
    <path
       d="m 247.672,441.355 h 43 43 43 v 3 h -43 -43 -43 z"
       fill-rule="evenodd"
       id="path75" />
    <path
       d="m 311.509,511.914 c 0.728,0 1.336,0.256 1.826,0.767 0.49,0.511 0.735,1.158 0.735,1.942 0,0.784 -0.245,1.431 -0.735,1.942 -0.49,0.511 -1.098,0.766 -1.826,0.766 -0.728,0 -1.337,-0.255 -1.827,-0.766 -0.49,-0.511 -0.735,-1.158 -0.735,-1.942 0,-0.784 0.245,-1.431 0.735,-1.942 0.49,-0.511 1.099,-0.767 1.827,-0.767 z m 0,-11.17 c 0.728,0 1.336,0.256 1.826,0.767 0.49,0.511 0.735,1.158 0.735,1.942 0,0.784 -0.245,1.431 -0.735,1.942 -0.49,0.511 -1.098,0.766 -1.826,0.766 -0.728,0 -1.337,-0.255 -1.827,-0.766 -0.49,-0.511 -0.735,-1.158 -0.735,-1.942 0,-0.784 0.245,-1.431 0.735,-1.942 0.49,-0.511 1.099,-0.767 1.827,-0.767 z m 0,-11.17 c 0.728,0 1.336,0.256 1.826,0.767 0.49,0.511 0.735,1.158 0.735,1.942 0,0.784 -0.245,1.431 -0.735,1.942 -0.49,0.511 -1.098,0.766 -1.826,0.766 -0.728,0 -1.337,-0.255 -1.827,-0.766 -0.49,-0.511 -0.735,-1.158 -0.735,-1.942 0,-0.784 0.245,-1.431 0.735,-1.942 0.49,-0.511 1.099,-0.767 1.827,-0.767 z"
       fill-rule="evenodd"
       id="path77" />
    <text
       fill="#000000"
       fill-opacity="0"
       font-family="Arial, Arial_MSFontService, sans-serif"
       font-size="27.7568px"
       x="308.94699"
       y="513.862"
       id="text79">РІ«</text>
    <path
       d="m 276.016,547.413 c -0.555,0 -1.103,0.136 -1.642,0.408 -0.54,0.273 -1.05,0.659 -1.529,1.158 -0.48,0.5 -0.916,1.105 -1.31,1.817 -0.393,0.711 -0.721,1.506 -0.983,2.384 1.281,-0.01 2.384,-0.111 3.307,-0.303 0.923,-0.192 1.68,-0.454 2.27,-0.787 0.591,-0.333 1.025,-0.727 1.302,-1.181 0.278,-0.454 0.416,-0.953 0.416,-1.498 0,-0.626 -0.156,-1.115 -0.469,-1.469 -0.313,-0.353 -0.767,-0.529 -1.362,-0.529 z m -20.106,0 c -0.595,0 -1.148,0.128 -1.657,0.386 -0.51,0.257 -0.977,0.61 -1.401,1.059 -0.423,0.449 -0.802,0.969 -1.135,1.559 -0.333,0.591 -0.613,1.221 -0.84,1.892 -0.227,0.671 -0.399,1.358 -0.515,2.059 -0.116,0.701 -0.174,1.385 -0.174,2.051 0,1.09 0.154,1.9 0.462,2.429 0.308,0.53 0.805,0.795 1.491,0.795 0.464,0 0.979,-0.156 1.544,-0.469 0.565,-0.313 1.112,-0.765 1.642,-1.355 0.53,-0.59 1.017,-1.309 1.461,-2.157 0.444,-0.848 0.777,-1.801 0.999,-2.861 0.111,-0.545 0.212,-1.09 0.303,-1.635 0.09,-0.544 0.136,-1.044 0.136,-1.498 0,-0.817 -0.184,-1.398 -0.553,-1.741 -0.368,-0.343 -0.956,-0.514 -1.763,-0.514 z m 20.757,-1.499 c 1.291,0 2.273,0.283 2.944,0.848 0.671,0.565 1.006,1.367 1.006,2.406 0,3.653 -3.456,5.48 -10.368,5.48 -0.051,0.262 -0.091,0.547 -0.121,0.855 -0.031,0.308 -0.046,0.643 -0.046,1.007 0,1.1 0.225,1.902 0.674,2.406 0.449,0.505 1.148,0.757 2.096,0.757 0.495,0 0.964,-0.053 1.408,-0.159 0.444,-0.106 0.881,-0.27 1.309,-0.492 0.429,-0.222 0.861,-0.507 1.295,-0.855 0.434,-0.348 0.888,-0.764 1.362,-1.249 l 1.135,1.226 c -1.17,1.161 -2.338,2.034 -3.504,2.619 -1.166,0.585 -2.419,0.878 -3.761,0.878 -0.788,0 -1.486,-0.119 -2.097,-0.356 -0.61,-0.237 -1.125,-0.582 -1.544,-1.037 -0.419,-0.454 -0.737,-1.006 -0.953,-1.657 -0.217,-0.651 -0.326,-1.385 -0.326,-2.202 0,-0.576 0.051,-1.173 0.151,-1.794 0.101,-0.621 0.258,-1.241 0.47,-1.862 0.212,-0.621 0.474,-1.226 0.787,-1.816 0.313,-0.591 0.681,-1.143 1.105,-1.658 0.847,-1.049 1.869,-1.869 3.065,-2.46 1.196,-0.59 2.5,-0.885 3.913,-0.885 z m 31.862,-1.12 c -0.878,1.433 -1.749,2.868 -2.611,4.306 -0.863,1.438 -1.734,2.879 -2.612,4.322 h 5.828 c -0.05,-0.646 -0.101,-1.279 -0.151,-1.9 -0.051,-0.62 -0.091,-1.274 -0.121,-1.96 -0.031,-0.686 -0.058,-1.418 -0.084,-2.195 -0.025,-0.777 -0.037,-1.635 -0.037,-2.573 z m -19.782,-2.407 h 2.362 l -0.863,3.845 h 5.146 l -0.348,1.68 h -5.131 l -1.544,6.342 c -0.101,0.424 -0.184,0.805 -0.25,1.143 -0.065,0.338 -0.118,0.643 -0.159,0.916 -0.04,0.272 -0.068,0.52 -0.083,0.742 -0.015,0.222 -0.023,0.429 -0.023,0.62 0,0.606 0.126,1.08 0.379,1.423 0.252,0.343 0.666,0.515 1.241,0.515 0.484,0 0.999,-0.179 1.544,-0.538 0.545,-0.358 1.165,-0.92 1.862,-1.687 l 1.044,1.059 c -0.515,0.575 -1.004,1.065 -1.468,1.468 -0.464,0.404 -0.918,0.735 -1.362,0.992 -0.444,0.257 -0.883,0.444 -1.317,0.56 -0.434,0.116 -0.878,0.174 -1.332,0.174 -1.201,0 -2.097,-0.282 -2.687,-0.848 -0.59,-0.565 -0.886,-1.397 -0.886,-2.497 0,-0.374 0.028,-0.785 0.084,-1.234 0.055,-0.449 0.133,-0.885 0.234,-1.309 l 1.802,-7.841 h -2.604 l 0.303,-1.165 c 0.605,0 1.077,-0.059 1.415,-0.175 0.338,-0.116 0.623,-0.275 0.855,-0.476 0.152,-0.142 0.298,-0.316 0.439,-0.523 0.141,-0.206 0.283,-0.456 0.424,-0.749 0.141,-0.293 0.285,-0.638 0.431,-1.037 0.147,-0.398 0.311,-0.865 0.492,-1.4 z m 19.721,-0.908 h 2.498 l 1.377,15.999 c 0.04,0.515 0.104,0.949 0.189,1.302 0.086,0.353 0.205,0.646 0.356,0.878 0.151,0.232 0.341,0.409 0.568,0.53 0.227,0.121 0.512,0.207 0.855,0.257 l -0.227,0.924 h -6.6 l 0.227,-0.924 c 0.283,-0.05 0.533,-0.113 0.75,-0.189 0.216,-0.076 0.396,-0.202 0.537,-0.378 0.141,-0.177 0.25,-0.417 0.325,-0.719 0.076,-0.303 0.114,-0.697 0.114,-1.181 0,-0.182 -0.005,-0.391 -0.015,-0.628 -0.01,-0.237 -0.023,-0.487 -0.038,-0.749 -0.015,-0.263 -0.035,-0.533 -0.061,-0.81 -0.025,-0.278 -0.048,-0.548 -0.068,-0.81 h -6.781 c -0.232,0.343 -0.462,0.696 -0.689,1.059 -0.227,0.364 -0.434,0.719 -0.62,1.068 -0.187,0.348 -0.336,0.693 -0.447,1.036 -0.111,0.344 -0.166,0.682 -0.166,1.015 0,0.736 0.539,1.165 1.619,1.286 l -0.197,0.924 h -6.614 l 0.166,-0.924 c 0.273,-0.05 0.517,-0.128 0.734,-0.234 0.217,-0.106 0.444,-0.273 0.681,-0.5 0.238,-0.227 0.495,-0.535 0.772,-0.923 0.278,-0.389 0.613,-0.901 1.007,-1.537 z m -45.898,-0.772 h 0.772 l -3.512,15.439 c -0.141,0.596 -0.234,1.07 -0.28,1.423 -0.045,0.353 -0.068,0.671 -0.068,0.954 0,0.383 0.078,0.661 0.235,0.832 0.156,0.172 0.381,0.258 0.673,0.258 0.182,0 0.361,-0.036 0.538,-0.106 0.176,-0.071 0.368,-0.182 0.575,-0.333 0.207,-0.152 0.434,-0.346 0.681,-0.583 0.247,-0.237 0.527,-0.522 0.84,-0.855 0.162,0.171 0.328,0.34 0.5,0.507 0.171,0.166 0.338,0.33 0.499,0.492 -0.504,0.514 -0.963,0.956 -1.377,1.324 -0.414,0.369 -0.815,0.671 -1.204,0.908 -0.388,0.238 -0.769,0.409 -1.142,0.515 -0.374,0.106 -0.762,0.159 -1.166,0.159 -0.726,0 -1.292,-0.235 -1.695,-0.704 -0.404,-0.469 -0.606,-1.112 -0.606,-1.93 0,-0.454 0.071,-0.888 0.212,-1.301 l -0.212,-0.091 c -0.514,0.716 -1.014,1.327 -1.498,1.831 -0.485,0.505 -0.964,0.921 -1.438,1.249 -0.474,0.328 -0.954,0.568 -1.438,0.719 -0.485,0.151 -0.989,0.227 -1.514,0.227 -1.201,0 -2.129,-0.431 -2.785,-1.294 -0.656,-0.863 -0.984,-2.117 -0.984,-3.762 0,-0.978 0.104,-1.919 0.31,-2.823 0.207,-0.903 0.5,-1.75 0.878,-2.543 0.379,-0.792 0.83,-1.513 1.355,-2.164 0.525,-0.651 1.1,-1.209 1.726,-1.673 0.625,-0.464 1.291,-0.825 1.998,-1.082 0.706,-0.257 1.438,-0.386 2.195,-0.386 0.666,0 1.276,0.066 1.831,0.197 0.555,0.131 1.085,0.393 1.589,0.787 0.172,-0.636 0.308,-1.178 0.409,-1.627 0.101,-0.449 0.184,-0.863 0.25,-1.242 0.065,-0.378 0.098,-0.693 0.098,-0.946 0,-0.211 -0.027,-0.388 -0.083,-0.529 -0.056,-0.142 -0.154,-0.258 -0.295,-0.348 -0.141,-0.091 -0.341,-0.157 -0.598,-0.197 -0.257,-0.041 -0.583,-0.071 -0.976,-0.091 l 0.196,-1.029 z"
       fill-rule="evenodd"
       id="path81" />
    <text
       fill="#000000"
       fill-opacity="0"
       font-family="Arial, Arial_MSFontService, sans-serif"
       font-size="20.9341px"
       x="247.17599"
       y="559.02399"
       id="text83">­ЮЉЉ­ЮЉњ­ЮЉА­Юљ┤</text>
    <path
       d="m 319.793,561.398 c 0.482,0 0.855,0.158 1.118,0.474 0.264,0.315 0.396,0.73 0.396,1.245 0,0.13 -0.011,0.267 -0.034,0.41 -0.023,0.143 -0.064,0.28 -0.122,0.41 l 0.136,0.049 c 0.632,-0.866 1.255,-1.514 1.871,-1.944 0.615,-0.429 1.251,-0.644 1.909,-0.644 0.69,0 1.206,0.185 1.548,0.557 0.341,0.371 0.512,0.891 0.512,1.562 0,0.202 -0.029,0.482 -0.088,0.84 -0.058,0.358 -0.133,0.749 -0.224,1.172 -0.091,0.423 -0.189,0.857 -0.293,1.303 -0.104,0.446 -0.202,0.858 -0.293,1.236 -0.091,0.377 -0.166,0.7 -0.225,0.967 -0.058,0.267 -0.088,0.433 -0.088,0.498 0,0.247 0.046,0.426 0.137,0.537 0.091,0.11 0.238,0.166 0.439,0.166 0.124,0 0.246,-0.023 0.367,-0.069 0.12,-0.045 0.245,-0.117 0.376,-0.214 0.13,-0.098 0.273,-0.223 0.429,-0.376 0.157,-0.153 0.332,-0.337 0.528,-0.552 l 0.674,0.644 c -0.319,0.326 -0.612,0.606 -0.879,0.84 -0.267,0.235 -0.526,0.428 -0.777,0.581 -0.25,0.153 -0.499,0.267 -0.747,0.342 -0.247,0.075 -0.511,0.112 -0.791,0.112 -0.234,0 -0.451,-0.045 -0.649,-0.136 -0.199,-0.091 -0.37,-0.217 -0.513,-0.376 -0.143,-0.16 -0.254,-0.349 -0.332,-0.567 -0.078,-0.218 -0.117,-0.457 -0.117,-0.718 0,-0.26 0.028,-0.564 0.083,-0.913 0.055,-0.348 0.138,-0.73 0.249,-1.147 0.117,-0.423 0.226,-0.828 0.327,-1.216 0.101,-0.387 0.189,-0.745 0.264,-1.074 0.075,-0.329 0.133,-0.622 0.175,-0.879 0.043,-0.257 0.064,-0.47 0.064,-0.64 0,-0.403 -0.077,-0.7 -0.23,-0.888 -0.153,-0.189 -0.398,-0.284 -0.737,-0.284 -0.195,0 -0.405,0.051 -0.63,0.152 -0.224,0.101 -0.451,0.241 -0.678,0.42 -0.228,0.179 -0.451,0.39 -0.669,0.635 -0.218,0.244 -0.419,0.504 -0.601,0.781 -0.182,0.276 -0.343,0.566 -0.483,0.869 -0.14,0.303 -0.243,0.604 -0.308,0.903 l -1.094,4.903 h -1.914 l 1.465,-6.368 c 0.085,-0.338 0.147,-0.641 0.186,-0.908 0.039,-0.267 0.058,-0.485 0.058,-0.654 0,-0.475 -0.192,-0.713 -0.576,-0.713 -0.117,0 -0.236,0.024 -0.356,0.073 -0.121,0.049 -0.248,0.122 -0.381,0.22 -0.134,0.098 -0.279,0.221 -0.435,0.371 -0.156,0.15 -0.332,0.326 -0.527,0.527 l -0.674,-0.634 c 0.326,-0.332 0.623,-0.617 0.894,-0.855 0.27,-0.237 0.527,-0.433 0.771,-0.586 0.244,-0.153 0.487,-0.265 0.728,-0.337 0.24,-0.071 0.494,-0.107 0.761,-0.107 z"
       fill-rule="evenodd"
       id="path85" />
    <text
       fill="#000000"
       fill-opacity="0"
       font-family="Arial, Arial_MSFontService, sans-serif"
       font-size="10.1465px"
       x="316.63901"
       y="570.276"
       id="text87">­ЮЉЏ</text>
    <path
       d="m 365.128,533.79 c 3.148,0.827 5.575,2.971 7.28,6.433 1.706,3.461 2.558,7.558 2.558,12.291 0,4.732 -0.852,8.829 -2.558,12.291 -1.705,3.461 -4.132,5.605 -7.28,6.433 l -0.379,-1.241 c 2.442,-0.919 4.291,-2.919 5.548,-6.002 1.256,-3.083 1.884,-6.905 1.884,-11.466 0,-4.571 -0.628,-8.401 -1.884,-11.489 -1.257,-3.088 -3.106,-5.091 -5.548,-6.009 z m -22.293,0 0.379,1.241 c -2.442,0.918 -4.291,2.921 -5.548,6.009 -1.256,3.088 -1.884,6.918 -1.884,11.489 0,4.561 0.628,8.383 1.884,11.466 1.257,3.083 3.106,5.083 5.548,6.002 l -0.379,1.241 c -3.148,-0.828 -5.575,-2.972 -7.28,-6.433 -1.706,-3.462 -2.558,-7.559 -2.558,-12.291 0,-4.733 0.852,-8.83 2.558,-12.291 1.705,-3.462 4.132,-5.606 7.28,-6.433 z"
       fill-rule="evenodd"
       id="path89" />
    <path
       d="m 355.951,547.942 c -0.454,0 -0.954,0.149 -1.499,0.447 -0.545,0.298 -1.082,0.739 -1.612,1.324 -0.53,0.586 -1.019,1.31 -1.468,2.172 -0.449,0.863 -0.805,1.855 -1.067,2.975 -0.081,0.545 -0.172,1.08 -0.273,1.604 -0.101,0.525 -0.151,1.014 -0.151,1.469 0,0.817 0.184,1.395 0.552,1.733 0.369,0.338 0.962,0.507 1.779,0.507 0.828,0 1.589,-0.265 2.286,-0.795 0.696,-0.53 1.294,-1.223 1.793,-2.081 0.5,-0.858 0.891,-1.822 1.173,-2.891 0.283,-1.07 0.424,-2.15 0.424,-3.24 0,-1.079 -0.154,-1.887 -0.461,-2.421 -0.308,-0.535 -0.8,-0.803 -1.476,-0.803 z m -3.542,-7.235 h 1.09 l -2.119,8.643 0.211,0.106 c 0.515,-0.605 1.007,-1.133 1.476,-1.582 0.469,-0.449 0.929,-0.817 1.378,-1.105 0.449,-0.287 0.895,-0.502 1.339,-0.643 0.444,-0.141 0.903,-0.212 1.378,-0.212 1.191,0 2.109,0.434 2.755,1.302 0.645,0.868 0.968,2.134 0.968,3.799 0,1.453 -0.224,2.823 -0.673,4.11 -0.449,1.286 -1.057,2.414 -1.824,3.383 -0.767,0.969 -1.658,1.733 -2.672,2.293 -1.014,0.56 -2.086,0.84 -3.216,0.84 -0.727,0 -1.398,-0.073 -2.014,-0.219 -0.615,-0.147 -1.216,-0.391 -1.801,-0.735 -0.252,0.142 -0.509,0.298 -0.772,0.47 -0.262,0.171 -0.509,0.333 -0.741,0.484 -0.182,-0.05 -0.374,-0.098 -0.576,-0.144 -0.201,-0.045 -0.393,-0.098 -0.575,-0.159 l 3.633,-16.226 c 0.111,-0.505 0.194,-0.919 0.25,-1.241 0.055,-0.323 0.083,-0.606 0.083,-0.848 0,-0.192 -0.03,-0.358 -0.091,-0.5 -0.06,-0.141 -0.166,-0.254 -0.318,-0.34 -0.151,-0.086 -0.353,-0.149 -0.605,-0.189 -0.253,-0.041 -0.57,-0.066 -0.954,-0.076 l 0.227,-1.029 z"
       fill-rule="evenodd"
       id="path91" />
    <text
       fill="#000000"
       fill-opacity="0"
       font-family="Arial, Arial_MSFontService, sans-serif"
       font-size="20.9341px"
       x="346.021"
       y="559.02399"
       id="text93">­ЮЉЈ</text>
    <path
       d="m 359.072,531.048 3.8,3.285 v 0.878 l -3.8,3.284 -0.802,-0.908 2.422,-2.104 h -5.031 -4.202 -4.88 v -1.423 h 4.88 4.202 5.031 l -2.422,-2.104 z"
       fill-rule="evenodd"
       id="path95" />
    <path
       d="m 306.623,595.139 c -0.555,0 -1.103,0.136 -1.643,0.409 -0.54,0.272 -1.049,0.658 -1.529,1.158 -0.479,0.499 -0.915,1.105 -1.309,1.816 -0.393,0.712 -0.721,1.506 -0.984,2.384 1.282,-0.01 2.384,-0.111 3.308,-0.302 0.923,-0.192 1.68,-0.455 2.27,-0.788 0.59,-0.333 1.024,-0.726 1.302,-1.18 0.277,-0.454 0.416,-0.954 0.416,-1.499 0,-0.625 -0.156,-1.115 -0.469,-1.468 -0.313,-0.353 -0.767,-0.53 -1.362,-0.53 z m -20.106,0 c -0.596,0 -1.148,0.129 -1.658,0.386 -0.509,0.258 -0.976,0.611 -1.4,1.06 -0.424,0.449 -0.802,0.969 -1.135,1.559 -0.333,0.59 -0.613,1.221 -0.84,1.892 -0.227,0.671 -0.399,1.357 -0.515,2.059 -0.116,0.701 -0.174,1.385 -0.174,2.051 0,1.089 0.154,1.899 0.462,2.429 0.307,0.53 0.804,0.795 1.491,0.795 0.464,0 0.978,-0.157 1.544,-0.47 0.565,-0.312 1.112,-0.764 1.642,-1.354 0.53,-0.591 1.017,-1.31 1.461,-2.157 0.444,-0.848 0.777,-1.802 0.999,-2.861 0.111,-0.545 0.211,-1.09 0.302,-1.635 0.091,-0.545 0.137,-1.044 0.137,-1.498 0,-0.818 -0.185,-1.398 -0.553,-1.741 -0.368,-0.343 -0.956,-0.515 -1.763,-0.515 z m 20.756,-1.498 c 1.292,0 2.274,0.282 2.945,0.847 0.671,0.565 1.006,1.368 1.006,2.407 0,3.653 -3.456,5.48 -10.369,5.48 -0.05,0.262 -0.09,0.547 -0.121,0.855 -0.03,0.308 -0.045,0.643 -0.045,1.006 0,1.1 0.225,1.903 0.674,2.407 0.449,0.505 1.147,0.757 2.096,0.757 0.494,0 0.964,-0.053 1.408,-0.159 0.444,-0.106 0.88,-0.27 1.309,-0.492 0.429,-0.222 0.86,-0.507 1.294,-0.855 0.434,-0.348 0.888,-0.765 1.363,-1.249 l 1.135,1.226 c -1.171,1.161 -2.339,2.034 -3.504,2.619 -1.166,0.585 -2.42,0.878 -3.762,0.878 -0.787,0 -1.486,-0.119 -2.096,-0.356 -0.611,-0.237 -1.125,-0.583 -1.544,-1.037 -0.419,-0.454 -0.737,-1.006 -0.954,-1.657 -0.217,-0.651 -0.325,-1.385 -0.325,-2.203 0,-0.575 0.05,-1.173 0.151,-1.793 0.101,-0.621 0.257,-1.242 0.469,-1.862 0.212,-0.621 0.475,-1.226 0.787,-1.817 0.313,-0.59 0.682,-1.142 1.105,-1.657 0.848,-1.05 1.87,-1.869 3.066,-2.46 1.195,-0.59 2.5,-0.885 3.912,-0.885 z m 31.862,-1.12 c -0.878,1.432 -1.748,2.868 -2.611,4.306 -0.863,1.438 -1.733,2.878 -2.611,4.321 h 5.828 c -0.051,-0.645 -0.101,-1.279 -0.152,-1.899 -0.05,-0.621 -0.09,-1.274 -0.121,-1.96 -0.03,-0.687 -0.058,-1.418 -0.083,-2.195 -0.025,-0.777 -0.038,-1.635 -0.038,-2.573 z m -19.781,-2.407 h 2.361 l -0.862,3.845 h 5.146 l -0.348,1.68 h -5.131 l -1.544,6.342 c -0.101,0.424 -0.185,0.805 -0.25,1.143 -0.066,0.338 -0.119,0.643 -0.159,0.916 -0.04,0.272 -0.068,0.519 -0.083,0.741 -0.015,0.222 -0.023,0.429 -0.023,0.621 0,0.605 0.126,1.08 0.378,1.423 0.253,0.343 0.666,0.514 1.242,0.514 0.484,0 0.999,-0.179 1.544,-0.537 0.544,-0.358 1.165,-0.921 1.861,-1.688 l 1.045,1.06 c -0.515,0.575 -1.004,1.065 -1.468,1.468 -0.465,0.404 -0.919,0.734 -1.363,0.992 -0.444,0.257 -0.883,0.444 -1.317,0.56 -0.434,0.116 -0.878,0.174 -1.332,0.174 -1.201,0 -2.096,-0.283 -2.686,-0.848 -0.591,-0.565 -0.886,-1.398 -0.886,-2.497 0,-0.374 0.028,-0.785 0.083,-1.234 0.056,-0.449 0.134,-0.886 0.235,-1.309 l 1.801,-7.841 h -2.603 l 0.302,-1.166 c 0.606,0 1.078,-0.058 1.416,-0.174 0.338,-0.116 0.623,-0.275 0.855,-0.477 0.151,-0.141 0.298,-0.315 0.439,-0.522 0.141,-0.207 0.282,-0.456 0.424,-0.749 0.141,-0.293 0.285,-0.638 0.431,-1.037 0.146,-0.399 0.31,-0.865 0.492,-1.4 z m 19.721,-0.908 h 2.497 l 1.378,15.999 c 0.04,0.515 0.103,0.949 0.189,1.302 0.086,0.353 0.204,0.646 0.356,0.878 0.151,0.232 0.34,0.409 0.567,0.53 0.227,0.121 0.512,0.206 0.856,0.257 l -0.228,0.923 h -6.599 l 0.227,-0.923 c 0.282,-0.051 0.532,-0.114 0.749,-0.189 0.217,-0.076 0.396,-0.202 0.538,-0.379 0.141,-0.176 0.249,-0.416 0.325,-0.719 0.076,-0.302 0.113,-0.696 0.113,-1.18 0,-0.182 -0.005,-0.391 -0.015,-0.629 -0.01,-0.237 -0.022,-0.486 -0.037,-0.749 -0.016,-0.262 -0.036,-0.532 -0.061,-0.81 -0.025,-0.277 -0.048,-0.547 -0.068,-0.809 h -6.781 c -0.232,0.343 -0.462,0.696 -0.689,1.059 -0.227,0.363 -0.434,0.719 -0.621,1.067 -0.186,0.348 -0.335,0.694 -0.446,1.037 -0.111,0.343 -0.167,0.681 -0.167,1.014 0,0.737 0.54,1.166 1.62,1.287 l -0.197,0.923 h -6.615 l 0.167,-0.923 c 0.272,-0.051 0.517,-0.129 0.734,-0.235 0.217,-0.106 0.444,-0.272 0.681,-0.499 0.237,-0.227 0.495,-0.535 0.772,-0.924 0.278,-0.388 0.613,-0.9 1.007,-1.536 z m -45.898,-0.772 h 0.772 l -3.512,15.439 c -0.141,0.596 -0.235,1.07 -0.28,1.423 -0.045,0.353 -0.068,0.671 -0.068,0.954 0,0.383 0.078,0.661 0.235,0.832 0.156,0.172 0.38,0.257 0.673,0.257 0.182,0 0.361,-0.035 0.537,-0.106 0.177,-0.07 0.369,-0.181 0.576,-0.333 0.207,-0.151 0.434,-0.345 0.681,-0.582 0.247,-0.237 0.527,-0.523 0.84,-0.856 0.161,0.172 0.328,0.341 0.499,0.508 0.172,0.166 0.338,0.33 0.5,0.491 -0.505,0.515 -0.964,0.957 -1.378,1.325 -0.413,0.368 -0.814,0.671 -1.203,0.908 -0.388,0.237 -0.769,0.409 -1.143,0.515 -0.373,0.106 -0.762,0.159 -1.165,0.159 -0.727,0 -1.292,-0.235 -1.696,-0.704 -0.403,-0.469 -0.605,-1.113 -0.605,-1.93 0,-0.454 0.071,-0.888 0.212,-1.302 l -0.212,-0.091 c -0.515,0.717 -1.014,1.327 -1.499,1.832 -0.484,0.504 -0.963,0.921 -1.438,1.249 -0.474,0.328 -0.953,0.567 -1.438,0.719 -0.484,0.151 -0.988,0.227 -1.513,0.227 -1.201,0 -2.129,-0.432 -2.785,-1.294 -0.656,-0.863 -0.984,-2.117 -0.984,-3.762 0,-0.979 0.103,-1.92 0.31,-2.823 0.207,-0.903 0.5,-1.751 0.878,-2.543 0.378,-0.792 0.83,-1.514 1.355,-2.164 0.524,-0.651 1.1,-1.209 1.725,-1.673 0.626,-0.464 1.292,-0.825 1.998,-1.082 0.707,-0.258 1.438,-0.386 2.195,-0.386 0.666,0 1.277,0.065 1.832,0.196 0.555,0.132 1.085,0.394 1.589,0.788 0.172,-0.636 0.308,-1.179 0.409,-1.628 0.101,-0.449 0.184,-0.862 0.25,-1.241 0.065,-0.378 0.098,-0.694 0.098,-0.946 0,-0.212 -0.028,-0.388 -0.083,-0.53 -0.056,-0.141 -0.154,-0.257 -0.296,-0.348 -0.141,-0.091 -0.34,-0.156 -0.597,-0.197 -0.258,-0.04 -0.583,-0.07 -0.977,-0.09 l 0.197,-1.03 z"
       fill-rule="evenodd"
       id="path97" />
    <text
       fill="#000000"
       fill-opacity="0"
       font-family="Arial, Arial_MSFontService, sans-serif"
       font-size="20.9341px"
       x="277.78299"
       y="606.75098"
       id="text99">­ЮЉЉ­ЮЉњ­ЮЉА­Юљ┤</text>
    <path
       d="m 245.672,574.355 h 44.333 44.334 44.333 v 3 h -44.333 -44.334 -44.333 z"
       fill-rule="evenodd"
       id="path101" />
    <text
       font-family="'Cambria Math', 'Cambria Math_MSFontService', sans-serif"
       font-weight="400"
       font-size="32px"
       transform="translate(452.948,445)"
       id="text111">­ЮЉЉ­ЮЉњ­ЮЉА­Юљ┤<tspan
   font-size="32px"
   x="76.533302"
   y="0"
   id="tspan103">РЅа</tspan><tspan
   font-size="32px"
   x="109.253"
   y="0"
   id="tspan105">0</tspan><tspan
   font-family="Calibri, Calibri_MSFontService, sans-serif"
   font-size="32px"
   x="134.08701"
   y="0"
   id="tspan107">and A is therefore an invertible matrix</tspan><tspan
   font-family="Calibri, Calibri_MSFontService, sans-serif"
   font-size="32px"
   x="0"
   y="44"
   id="tspan109">A</tspan>­ЮЉЦ</text>
    <path
       d="m 11.7812,-20.8906 -3.92182,3.3906 -0.82813,-0.9375 2.5,-2.1719 H 0 v -1.4687 h 9.53125 l -2.5,-2.1719 0.82813,-0.9375 3.92182,3.3906 z"
       transform="translate(476.508,489)"
       id="path113" />
    <text
       font-family="Calibri, Calibri_MSFontService, sans-serif"
       font-weight="400"
       font-size="32px"
       transform="translate(496.581,489)"
       id="text117">= <tspan
   font-family="'Cambria Math', 'Cambria Math_MSFontService', sans-serif"
   font-size="32px"
   x="23.1667"
   y="0"
   id="tspan115">­ЮЉЈ</tspan></text>
    <path
       d="m 533.154,456.265 3.922,3.391 v 0.906 l -3.922,3.391 -0.828,-0.938 2.5,-2.171 h -3.65 -5.881 -3.494 v -1.469 h 3.494 5.881 3.65 l -2.5,-2.172 z"
       fill-rule="evenodd"
       id="path119" />
    <text
       font-family="Calibri, Calibri_MSFontService, sans-serif"
       font-weight="400"
       font-size="32px"
       transform="translate(544.948,489)"
       id="text121">therefore has a unique solution</text>
    <path
       d="M 346,178.595 C 346,172.191 351.191,167 357.595,167 h 73.81 c 6.404,0 11.595,5.191 11.595,11.595 v 66.81 C 443,251.809 437.809,257 431.405,257 h -73.81 C 351.191,257 346,251.809 346,245.405 Z"
       fill="#e2f0d9"
       fill-rule="evenodd"
       id="path123" />
    <text
       font-family="'Cambria Math', 'Cambria Math_MSFontService', sans-serif"
       font-weight="400"
       font-size="32px"
       transform="translate(570.525,204)"
       id="text131">­ЮЉњ<tspan
   font-size="32px"
   x="-1.03333"
   y="37"
   id="tspan125">­ЮЉЊ</tspan><tspan
   font-family="Calibri, Calibri_MSFontService, sans-serif"
   font-size="43px"
   x="-328.707"
   y="18"
   id="tspan127">If A =</tspan><tspan
   font-size="43px"
   x="-86.464302"
   y="18"
   id="tspan129">­ЮЉЈ</tspan></text>
    <path
       d="m 501.909,178.908 5.27,4.556 v 1.218 l -5.27,4.556 -1.113,-1.26 3.359,-2.918 h -4.643 -8.164 -4.434 v -1.974 h 4.434 8.164 4.643 l -3.359,-2.918 z"
       fill-rule="evenodd"
       id="path133" />
    <text
       font-family="Calibri, Calibri_MSFontService, sans-serif"
       font-weight="400"
       font-size="43px"
       transform="translate(517.668,222)"
       id="text143">= <tspan
   font-family="'Cambria Math', 'Cambria Math_MSFontService', sans-serif"
   font-size="32px"
   x="-157.903"
   y="-21"
   id="tspan135">­ЮЉј</tspan><tspan
   font-family="'Cambria Math', 'Cambria Math_MSFontService', sans-serif"
   font-size="32px"
   x="-106.55"
   y="-21"
   id="tspan137">­ЮЉЈ</tspan><tspan
   font-family="'Cambria Math', 'Cambria Math_MSFontService', sans-serif"
   font-size="32px"
   x="-156.437"
   y="17"
   id="tspan139">­ЮЉљ</tspan><tspan
   font-family="'Cambria Math', 'Cambria Math_MSFontService', sans-serif"
   font-size="32px"
   x="-107.29"
   y="17"
   id="tspan141">­ЮЉЉ</tspan></text>
    <path
       d="M 822,178.595 C 822,172.191 827.191,167 833.595,167 h 73.81 c 6.404,0 11.595,5.191 11.595,11.595 v 66.81 C 919,251.809 913.809,257 907.405,257 h -73.81 C 827.191,257 822,251.809 822,245.405 Z"
       fill="#e2f0d9"
       fill-rule="evenodd"
       id="path145" />
    <path
       d="m 670.957,198.685 -4.682,13.543 h 9.448 l -4.745,-13.543 z m 0.126,-3.737 c 0.448,0 0.819,0.01 1.113,0.031 0.294,0.021 0.532,0.06 0.714,0.116 0.182,0.056 0.322,0.136 0.42,0.241 0.098,0.105 0.175,0.235 0.231,0.389 l 9.112,25.237 c 0.112,0.308 0.172,0.556 0.179,0.745 0.007,0.189 -0.046,0.333 -0.158,0.431 -0.112,0.098 -0.297,0.161 -0.556,0.189 -0.259,0.028 -0.606,0.042 -1.04,0.042 -0.433,0 -0.78,-0.011 -1.039,-0.032 -0.259,-0.021 -0.455,-0.056 -0.588,-0.105 -0.133,-0.049 -0.231,-0.115 -0.294,-0.199 -0.063,-0.084 -0.122,-0.189 -0.178,-0.315 l -2.331,-6.614 h -11.296 l -2.225,6.53 c -0.042,0.126 -0.098,0.234 -0.168,0.325 -0.07,0.091 -0.172,0.168 -0.305,0.231 -0.133,0.063 -0.322,0.109 -0.567,0.137 -0.244,0.028 -0.563,0.042 -0.955,0.042 -0.406,0 -0.738,-0.018 -0.997,-0.053 -0.259,-0.035 -0.441,-0.101 -0.546,-0.199 -0.105,-0.098 -0.154,-0.242 -0.147,-0.431 0.007,-0.189 0.066,-0.437 0.178,-0.745 l 9.113,-25.237 c 0.056,-0.154 0.129,-0.28 0.22,-0.378 0.091,-0.098 0.224,-0.175 0.399,-0.231 0.175,-0.056 0.399,-0.095 0.672,-0.116 0.273,-0.021 0.619,-0.031 1.039,-0.031 z"
       fill-rule="evenodd"
       id="path147" />
    <text
       fill="#000000"
       fill-opacity="0"
       font-family="Arial, Arial_MSFontService, sans-serif"
       font-size="27.4209px"
       x="659.461"
       y="218.94099"
       id="text149">A</text>
    <path
       d="m 692.215,213.362 h 0.752 c -0.054,0.875 -0.082,2.087 -0.082,3.637 v 11.675 c 0,0.529 0.03,0.928 0.089,1.197 0.059,0.269 0.164,0.487 0.315,0.656 0.15,0.169 0.366,0.301 0.649,0.396 0.283,0.096 0.638,0.169 1.066,0.219 0.429,0.05 0.994,0.084 1.696,0.103 v 0.998 h -10.104 v -0.998 c 1.012,-0.046 1.734,-0.107 2.167,-0.185 0.433,-0.077 0.764,-0.194 0.991,-0.349 0.228,-0.154 0.395,-0.373 0.499,-0.656 0.105,-0.282 0.158,-0.743 0.158,-1.381 v -11.088 c 0,-0.364 -0.064,-0.631 -0.192,-0.799 -0.127,-0.169 -0.314,-0.253 -0.56,-0.253 -0.292,0 -0.707,0.15 -1.244,0.451 -0.538,0.301 -1.204,0.715 -1.997,1.244 l -0.601,-1.053 z"
       fill-rule="evenodd"
       id="path151" />
    <text
       fill="#000000"
       fill-opacity="0"
       font-family="Arial, Arial_MSFontService, sans-serif"
       font-size="18.8809px"
       x="685.81702"
       y="229.883"
       id="text153">1</text>
    <path
       d="m 753.248,174.497 c 4.689,2.379 8.416,6.746 11.18,13.101 2.765,6.355 4.147,13.802 4.147,22.34 0,8.482 -1.382,15.929 -4.147,22.34 -2.764,6.411 -6.491,10.792 -11.18,13.143 l -0.672,-1.679 c 3.751,-2.436 6.687,-6.621 8.808,-12.556 2.12,-5.935 3.18,-13.004 3.18,-21.206 0,-8.356 -1.067,-15.471 -3.201,-21.343 -2.135,-5.871 -5.064,-10.025 -8.787,-12.461 z m -27.917,0 0.693,1.679 c -3.723,2.436 -6.652,6.59 -8.787,12.461 -2.134,5.872 -3.201,12.987 -3.201,21.343 0,8.202 1.056,15.271 3.17,21.206 2.114,5.935 5.053,10.12 8.818,12.556 l -0.693,1.679 c -4.675,-2.351 -8.395,-6.732 -11.159,-13.143 -2.764,-6.411 -4.147,-13.858 -4.147,-22.34 0,-8.538 1.383,-15.985 4.147,-22.34 2.764,-6.355 6.484,-10.722 11.159,-13.101 z"
       fill-rule="evenodd"
       id="path155" />
    <path
       d="m 741.884,204.291 c -0.672,0 -1.333,0.214 -1.984,0.64 -0.651,0.427 -1.375,1.134 -2.173,2.121 -0.798,0.987 -1.449,1.998 -1.953,3.034 -0.503,1.036 -0.93,2.359 -1.28,3.968 l -0.189,0.882 c -0.21,0.98 -0.315,1.932 -0.315,2.856 0,1.105 0.241,1.903 0.724,2.393 0.483,0.49 1.284,0.735 2.404,0.735 0.574,0 1.12,-0.094 1.638,-0.283 0.518,-0.189 1.046,-0.501 1.585,-0.935 0.539,-0.434 1.05,-1.004 1.533,-1.711 0.483,-0.707 0.927,-1.578 1.333,-2.614 0.406,-1.036 0.721,-2.145 0.945,-3.328 0.224,-1.183 0.336,-2.313 0.336,-3.391 0,-1.455 -0.207,-2.547 -0.62,-3.275 -0.412,-0.728 -1.074,-1.092 -1.984,-1.092 z m -3.674,-12.073 h 1.218 l -3.696,14.698 0.273,0.084 c 1.358,-1.82 2.632,-3.136 3.822,-3.948 1.189,-0.812 2.379,-1.217 3.569,-1.217 1.526,0 2.712,0.58 3.559,1.742 0.847,1.162 1.27,2.8 1.27,4.913 0,2.31 -0.465,4.581 -1.396,6.814 -0.931,2.232 -2.222,4.003 -3.874,5.312 -1.652,1.308 -3.499,1.963 -5.543,1.963 -1.862,0 -3.513,-0.455 -4.955,-1.365 l -1.932,1.365 -1.343,-0.336 5.438,-23.999 c 0.322,-1.428 0.483,-2.463 0.483,-3.107 0,-0.588 -0.179,-1.001 -0.536,-1.239 -0.357,-0.238 -0.997,-0.371 -1.921,-0.399 l 0.252,-1.092 z"
       fill-rule="evenodd"
       id="path157" />
    <text
       fill="#000000"
       fill-opacity="0"
       font-family="Arial, Arial_MSFontService, sans-serif"
       font-size="30.3604px"
       x="729.18201"
       y="218.784"
       id="text159">­ЮЉЈ</text>
    <path
       d="m 745.098,178.937 5.27,4.556 v 1.218 l -5.27,4.556 -1.113,-1.26 3.359,-2.918 h -4.643 -8.164 -4.434 v -1.974 h 4.434 8.164 4.643 l -3.359,-2.918 z"
       fill-rule="evenodd"
       id="path161" />
    <text
       font-family="Calibri, Calibri_MSFontService, sans-serif"
       font-weight="400"
       font-size="43px"
       transform="translate(781.443,222)"
       id="text171">=<tspan
   font-family="'Cambria Math', 'Cambria Math_MSFontService', sans-serif"
   font-size="32px"
   x="55.285801"
   y="-21"
   id="tspan163">­ЮЉњ</tspan><tspan
   font-family="'Cambria Math', 'Cambria Math_MSFontService', sans-serif"
   font-size="32px"
   x="105.599"
   y="-21"
   id="tspan165">­ЮЉЈ</tspan><tspan
   font-family="'Cambria Math', 'Cambria Math_MSFontService', sans-serif"
   font-size="32px"
   x="54.252499"
   y="17"
   id="tspan167">­ЮЉЊ</tspan><tspan
   font-family="'Cambria Math', 'Cambria Math_MSFontService', sans-serif"
   font-size="32px"
   x="104.859"
   y="17"
   id="tspan169">­ЮЉЉ</tspan></text>
  </g>
</svg>
