<?xml version="1.0" encoding="UTF-8" standalone="no"?>
<svg
   width="1280"
   height="600"
   overflow="hidden"
   version="1.1"
   id="svg373"
   sodipodi:docname="linear_systems-standard_matrix.svg"
   inkscape:version="1.2 (dc2aedaf03, 2022-05-15)"
   xmlns:inkscape="http://www.inkscape.org/namespaces/inkscape"
   xmlns:sodipodi="http://sodipodi.sourceforge.net/DTD/sodipodi-0.dtd"
   xmlns="http://www.w3.org/2000/svg"
   xmlns:svg="http://www.w3.org/2000/svg">
  <sodipodi:namedview
     id="namedview375"
     pagecolor="#ffffff"
     bordercolor="#000000"
     borderopacity="0.25"
     inkscape:showpageshadow="2"
     inkscape:pageopacity="0.0"
     inkscape:pagecheckerboard="0"
     inkscape:deskcolor="#d1d1d1"
     showgrid="false"
     inkscape:zoom="0.92709556"
     inkscape:cx="388.84881"
     inkscape:cy="360.26491"
     inkscape:window-width="2560"
     inkscape:window-height="1494"
     inkscape:window-x="-11"
     inkscape:window-y="-11"
     inkscape:window-maximized="1"
     inkscape:current-layer="svg373" />
  <defs
     id="defs5">
    <clipPath
       id="clip0">
      <rect
         x="0"
         y="0"
         width="1280"
         height="720"
         id="rect2" />
    </clipPath>
  </defs>
  <g
     clip-path="url(#clip0)"
     id="g371"
     transform="translate(44.224136,-42.066861)">
    <rect
       x="0"
       y="0"
       width="1280"
       height="720"
       fill="#ffffff"
       id="rect7" />
    <path
       d="M 776,448.595 C 776,442.191 781.191,437 787.595,437 h 66.81 c 6.404,0 11.595,5.191 11.595,11.595 v 141.81 C 866,596.809 860.809,602 854.405,602 h -66.81 C 781.191,602 776,596.809 776,590.405 Z"
       fill="#e2f0d9"
       fill-rule="evenodd"
       id="path9" />
    <path
       d="M 330,458.257 C 330,446.517 339.517,437 351.257,437 h 380.486 c 11.74,0 21.257,9.517 21.257,21.257 V 580.743 C 753,592.483 743.483,602 731.743,602 H 351.257 C 339.517,602 330,592.483 330,580.743 Z"
       fill="#e2f0d9"
       fill-rule="evenodd"
       id="path11" />
    <text
       font-family="Calibri, Calibri_MSFontService, sans-serif"
       font-weight="400"
       font-size="43px"
       transform="translate(448.451,103)"
       id="text13">Standard matrix</text>
    <path
       d="M 637,266.969 C 637,255.94 645.94,247 656.969,247 H 950.031 C 961.06,247 970,255.94 970,266.969 V 382.031 C 970,393.06 961.06,402 950.031,402 H 656.969 C 645.94,402 637,393.06 637,382.031 Z"
       fill="#e2f0d9"
       fill-rule="evenodd"
       id="path15" />
    <text
       font-family="Calibri, Calibri_MSFontService, sans-serif"
       font-weight="400"
       font-size="37px"
       transform="translate(566.197,333)"
       id="text21">A<tspan
   font-size="25px"
   x="24"
   y="8"
   id="tspan17">T</tspan><tspan
   font-size="32px"
   x="44.666599"
   y="0"
   id="tspan19">=</tspan></text>
    <path
       d="m 643.296,312.073 h 16.313 l -1.219,5.5 h -1.5 c 0,-1.01 -0.026,-1.768 -0.078,-2.273 -0.052,-0.505 -0.151,-0.891 -0.297,-1.156 -0.146,-0.266 -0.325,-0.448 -0.539,-0.547 -0.214,-0.099 -0.591,-0.149 -1.133,-0.149 h -2.312 l -3.391,15.407 c -0.094,0.406 -0.159,0.729 -0.195,0.968 -0.037,0.24 -0.068,0.493 -0.094,0.758 -0.026,0.266 -0.039,0.503 -0.039,0.711 0,0.323 0.052,0.576 0.156,0.758 0.104,0.182 0.261,0.315 0.469,0.398 0.208,0.084 0.568,0.146 1.078,0.188 l -0.172,0.766 h -6.578 l 0.172,-0.766 c 0.417,-0.063 0.724,-0.146 0.922,-0.25 0.198,-0.104 0.372,-0.266 0.523,-0.484 0.151,-0.219 0.302,-0.563 0.453,-1.032 0.151,-0.468 0.331,-1.177 0.539,-2.125 l 3.344,-15.297 h -1.984 c -0.646,0 -1.162,0.094 -1.547,0.282 -0.385,0.187 -0.771,0.536 -1.156,1.047 -0.386,0.51 -0.854,1.364 -1.407,2.562 h -1.5 z"
       fill-rule="evenodd"
       id="path23" />
    <text
       fill="#000000"
       fill-opacity="0"
       font-family="Arial, Arial_MSFontService, sans-serif"
       font-size="21.3281px"
       x="642.12402"
       y="330.73599"
       id="text25">­ЮЉЄ</text>
    <path
       d="m 697.921,255.877 h 9.218 v 136.781 h -9.218 v -1.781 h 5.781 V 257.658 h -5.781 z m -28.294,0 h 9.218 v 1.781 h -5.781 v 133.219 h 5.781 v 1.781 h -9.218 z"
       fill-rule="evenodd"
       id="path27" />
    <path
       d="m 689.644,257.083 h 0.86 c -0.063,1 -0.094,2.386 -0.094,4.157 v 13.343 c 0,0.605 0.034,1.06 0.102,1.368 0.067,0.307 0.187,0.557 0.359,0.75 0.172,0.192 0.419,0.343 0.742,0.453 0.323,0.109 0.729,0.192 1.219,0.25 0.49,0.057 1.135,0.096 1.937,0.117 v 1.141 h -11.546 v -1.141 c 1.156,-0.052 1.981,-0.122 2.476,-0.211 0.495,-0.089 0.873,-0.221 1.133,-0.398 0.26,-0.178 0.45,-0.428 0.57,-0.75 0.12,-0.323 0.18,-0.849 0.18,-1.579 v -12.671 c 0,-0.417 -0.073,-0.722 -0.219,-0.914 -0.146,-0.193 -0.359,-0.29 -0.64,-0.29 -0.334,0 -0.808,0.172 -1.422,0.516 -0.615,0.344 -1.375,0.818 -2.282,1.422 l -0.687,-1.203 z"
       fill-rule="evenodd"
       id="path29" />
    <text
       fill="#000000"
       fill-opacity="0"
       font-family="Arial, Arial_MSFontService, sans-serif"
       font-size="21.5781px"
       x="682.33197"
       y="275.96399"
       id="text31">1</text>
    <path
       d="m 688.41,295.925 c -0.719,0 -1.32,0.213 -1.805,0.641 -0.484,0.427 -0.875,1.041 -1.171,1.843 -0.297,0.802 -0.508,1.779 -0.633,2.93 -0.125,1.151 -0.188,2.45 -0.188,3.898 0,3.396 0.315,5.888 0.946,7.477 0.63,1.588 1.606,2.383 2.929,2.383 1.261,0 2.196,-0.748 2.805,-2.242 0.609,-1.495 0.914,-3.81 0.914,-6.946 0,-2.396 -0.156,-4.336 -0.469,-5.82 -0.312,-1.484 -0.747,-2.55 -1.304,-3.195 -0.558,-0.646 -1.232,-0.969 -2.024,-0.969 z m 0.078,-1.328 c 2.281,0 3.979,0.88 5.094,2.64 1.115,1.761 1.672,4.422 1.672,7.985 0,3.687 -0.597,6.476 -1.789,8.367 -1.193,1.891 -2.935,2.836 -5.227,2.836 -2.25,0 -3.924,-0.886 -5.023,-2.656 -1.099,-1.771 -1.649,-4.459 -1.649,-8.063 0,-1.917 0.17,-3.573 0.508,-4.969 0.339,-1.395 0.813,-2.549 1.422,-3.461 0.609,-0.911 1.341,-1.585 2.195,-2.023 0.855,-0.437 1.787,-0.656 2.797,-0.656 z"
       fill-rule="evenodd"
       id="path33" />
    <text
       fill="#000000"
       fill-opacity="0"
       font-family="Arial, Arial_MSFontService, sans-serif"
       font-size="21.8281px"
       x="681.56598"
       y="313.69601"
       id="text35">0</text>
    <path
       d="m 688.353,349.907 c 0.541,0 0.995,0.19 1.359,0.57 0.365,0.381 0.547,0.862 0.547,1.446 0,0.583 -0.182,1.065 -0.547,1.445 -0.364,0.38 -0.818,0.57 -1.359,0.57 -0.542,0 -0.995,-0.19 -1.36,-0.57 -0.364,-0.38 -0.546,-0.862 -0.546,-1.445 0,-0.584 0.182,-1.065 0.546,-1.446 0.365,-0.38 0.818,-0.57 1.36,-0.57 z m 0,-8.313 c 0.541,0 0.995,0.191 1.359,0.571 0.365,0.38 0.547,0.862 0.547,1.445 0,0.583 -0.182,1.065 -0.547,1.445 -0.364,0.381 -0.818,0.571 -1.359,0.571 -0.542,0 -0.995,-0.19 -1.36,-0.571 -0.364,-0.38 -0.546,-0.862 -0.546,-1.445 0,-0.583 0.182,-1.065 0.546,-1.445 0.365,-0.38 0.818,-0.571 1.36,-0.571 z m 0,-8.312 c 0.541,0 0.995,0.19 1.359,0.57 0.365,0.381 0.547,0.862 0.547,1.446 0,0.583 -0.182,1.065 -0.547,1.445 -0.364,0.38 -0.818,0.57 -1.359,0.57 -0.542,0 -0.995,-0.19 -1.36,-0.57 -0.364,-0.38 -0.546,-0.862 -0.546,-1.445 0,-0.584 0.182,-1.065 0.546,-1.446 0.365,-0.38 0.818,-0.57 1.36,-0.57 z"
       fill-rule="evenodd"
       id="path37" />
    <text
       fill="#000000"
       fill-opacity="0"
       font-family="Arial, Arial_MSFontService, sans-serif"
       font-size="20.6562px"
       x="686.44702"
       y="351.35599"
       id="text39">РІ«</text>
    <path
       d="m 688.41,370.952 c -0.719,0 -1.32,0.213 -1.805,0.64 -0.484,0.427 -0.875,1.042 -1.171,1.844 -0.297,0.802 -0.508,1.779 -0.633,2.93 -0.125,1.151 -0.188,2.45 -0.188,3.898 0,3.396 0.315,5.888 0.946,7.477 0.63,1.588 1.606,2.382 2.929,2.382 1.261,0 2.196,-0.747 2.805,-2.242 0.609,-1.495 0.914,-3.81 0.914,-6.945 0,-2.396 -0.156,-4.336 -0.469,-5.82 -0.312,-1.485 -0.747,-2.55 -1.304,-3.196 -0.558,-0.646 -1.232,-0.968 -2.024,-0.968 z m 0.078,-1.329 c 2.281,0 3.979,0.881 5.094,2.641 1.115,1.76 1.672,4.422 1.672,7.984 0,3.688 -0.597,6.477 -1.789,8.368 -1.193,1.89 -2.935,2.836 -5.227,2.836 -2.25,0 -3.924,-0.886 -5.023,-2.657 -1.099,-1.771 -1.649,-4.458 -1.649,-8.062 0,-1.917 0.17,-3.573 0.508,-4.969 0.339,-1.396 0.813,-2.549 1.422,-3.461 0.609,-0.911 1.341,-1.586 2.195,-2.023 0.855,-0.438 1.787,-0.657 2.797,-0.657 z"
       fill-rule="evenodd"
       id="path41" />
    <text
       fill="#000000"
       fill-opacity="0"
       font-family="Arial, Arial_MSFontService, sans-serif"
       font-size="21.8281px"
       x="681.56598"
       y="388.72299"
       id="text43">0</text>
    <path
       d="m 741.136,312.073 h 16.313 l -1.219,5.5 h -1.5 c 0,-1.01 -0.026,-1.768 -0.078,-2.273 -0.052,-0.505 -0.151,-0.891 -0.297,-1.156 -0.146,-0.266 -0.325,-0.448 -0.539,-0.547 -0.214,-0.099 -0.591,-0.149 -1.133,-0.149 h -2.312 l -3.391,15.407 c -0.094,0.406 -0.159,0.729 -0.195,0.968 -0.037,0.24 -0.068,0.493 -0.094,0.758 -0.026,0.266 -0.039,0.503 -0.039,0.711 0,0.323 0.052,0.576 0.156,0.758 0.104,0.182 0.261,0.315 0.469,0.398 0.208,0.084 0.568,0.146 1.078,0.188 l -0.172,0.766 h -6.578 l 0.172,-0.766 c 0.417,-0.063 0.724,-0.146 0.922,-0.25 0.198,-0.104 0.372,-0.266 0.523,-0.484 0.151,-0.219 0.302,-0.563 0.453,-1.032 0.151,-0.468 0.331,-1.177 0.539,-2.125 l 3.344,-15.297 h -1.984 c -0.646,0 -1.162,0.094 -1.547,0.282 -0.385,0.187 -0.771,0.536 -1.156,1.047 -0.386,0.51 -0.854,1.364 -1.407,2.562 h -1.5 z"
       fill-rule="evenodd"
       id="path45" />
    <text
       fill="#000000"
       fill-opacity="0"
       font-family="Arial, Arial_MSFontService, sans-serif"
       font-size="21.3281px"
       x="739.96399"
       y="330.73599"
       id="text47">­ЮЉЄ</text>
    <path
       d="m 795.76,255.877 h 9.219 v 136.781 h -9.219 v -1.781 h 5.782 V 257.658 h -5.782 z m -28.293,0 h 9.218 v 1.781 h -5.781 v 133.219 h 5.781 v 1.781 h -9.218 z"
       fill-rule="evenodd"
       id="path49" />
    <path
       d="m 786.25,258.412 c -0.719,0 -1.32,0.213 -1.805,0.64 -0.484,0.427 -0.875,1.042 -1.172,1.844 -0.296,0.802 -0.507,1.779 -0.632,2.93 -0.125,1.151 -0.188,2.45 -0.188,3.898 0,3.396 0.315,5.888 0.945,7.477 0.631,1.588 1.607,2.382 2.93,2.382 1.261,0 2.195,-0.747 2.805,-2.242 0.609,-1.495 0.914,-3.81 0.914,-6.945 0,-2.396 -0.156,-4.336 -0.469,-5.82 -0.312,-1.485 -0.747,-2.55 -1.305,-3.196 -0.557,-0.646 -1.231,-0.968 -2.023,-0.968 z m 0.078,-1.329 c 2.281,0 3.979,0.881 5.094,2.641 1.114,1.76 1.672,4.422 1.672,7.984 0,3.688 -0.597,6.477 -1.789,8.368 -1.193,1.89 -2.935,2.836 -5.227,2.836 -2.25,0 -3.924,-0.886 -5.023,-2.657 -1.099,-1.771 -1.649,-4.458 -1.649,-8.062 0,-1.917 0.17,-3.573 0.508,-4.969 0.339,-1.396 0.813,-2.549 1.422,-3.461 0.609,-0.911 1.341,-1.586 2.195,-2.023 0.854,-0.438 1.787,-0.657 2.797,-0.657 z"
       fill-rule="evenodd"
       id="path51" />
    <text
       fill="#000000"
       fill-opacity="0"
       font-family="Arial, Arial_MSFontService, sans-serif"
       font-size="21.8281px"
       x="779.40601"
       y="276.18301"
       id="text53">0</text>
    <path
       d="m 787.484,294.597 h 0.86 c -0.063,1 -0.094,2.385 -0.094,4.156 v 13.344 c 0,0.604 0.034,1.06 0.102,1.367 0.067,0.307 0.187,0.557 0.359,0.75 0.172,0.193 0.419,0.344 0.742,0.453 0.323,0.109 0.729,0.193 1.219,0.25 0.489,0.057 1.135,0.096 1.937,0.117 v 1.141 h -11.546 v -1.141 c 1.156,-0.052 1.981,-0.122 2.476,-0.211 0.495,-0.088 0.872,-0.221 1.133,-0.398 0.26,-0.177 0.45,-0.427 0.57,-0.75 0.12,-0.323 0.18,-0.849 0.18,-1.578 v -12.672 c 0,-0.417 -0.073,-0.721 -0.219,-0.914 -0.146,-0.193 -0.359,-0.289 -0.64,-0.289 -0.334,0 -0.808,0.172 -1.422,0.515 -0.615,0.344 -1.375,0.818 -2.282,1.422 l -0.687,-1.203 z"
       fill-rule="evenodd"
       id="path55" />
    <text
       fill="#000000"
       fill-opacity="0"
       font-family="Arial, Arial_MSFontService, sans-serif"
       font-size="21.5781px"
       x="780.172"
       y="313.478"
       id="text57">1</text>
    <path
       d="m 786.193,349.907 c 0.541,0 0.995,0.19 1.359,0.57 0.365,0.381 0.547,0.862 0.547,1.446 0,0.583 -0.182,1.065 -0.547,1.445 -0.364,0.38 -0.818,0.57 -1.359,0.57 -0.542,0 -0.995,-0.19 -1.36,-0.57 -0.364,-0.38 -0.546,-0.862 -0.546,-1.445 0,-0.584 0.182,-1.065 0.546,-1.446 0.365,-0.38 0.818,-0.57 1.36,-0.57 z m 0,-8.313 c 0.541,0 0.995,0.191 1.359,0.571 0.365,0.38 0.547,0.862 0.547,1.445 0,0.583 -0.182,1.065 -0.547,1.445 -0.364,0.381 -0.818,0.571 -1.359,0.571 -0.542,0 -0.995,-0.19 -1.36,-0.571 -0.364,-0.38 -0.546,-0.862 -0.546,-1.445 0,-0.583 0.182,-1.065 0.546,-1.445 0.365,-0.38 0.818,-0.571 1.36,-0.571 z m 0,-8.312 c 0.541,0 0.995,0.19 1.359,0.57 0.365,0.381 0.547,0.862 0.547,1.446 0,0.583 -0.182,1.065 -0.547,1.445 -0.364,0.38 -0.818,0.57 -1.359,0.57 -0.542,0 -0.995,-0.19 -1.36,-0.57 -0.364,-0.38 -0.546,-0.862 -0.546,-1.445 0,-0.584 0.182,-1.065 0.546,-1.446 0.365,-0.38 0.818,-0.57 1.36,-0.57 z"
       fill-rule="evenodd"
       id="path59" />
    <text
       fill="#000000"
       fill-opacity="0"
       font-family="Arial, Arial_MSFontService, sans-serif"
       font-size="20.6562px"
       x="784.28699"
       y="351.35599"
       id="text61">РІ«</text>
    <path
       d="m 786.25,370.952 c -0.719,0 -1.32,0.213 -1.805,0.64 -0.484,0.427 -0.875,1.042 -1.172,1.844 -0.296,0.802 -0.507,1.779 -0.632,2.93 -0.125,1.151 -0.188,2.45 -0.188,3.898 0,3.396 0.315,5.888 0.945,7.477 0.631,1.588 1.607,2.382 2.93,2.382 1.261,0 2.195,-0.747 2.805,-2.242 0.609,-1.495 0.914,-3.81 0.914,-6.945 0,-2.396 -0.156,-4.336 -0.469,-5.82 -0.312,-1.485 -0.747,-2.55 -1.305,-3.196 -0.557,-0.646 -1.231,-0.968 -2.023,-0.968 z m 0.078,-1.329 c 2.281,0 3.979,0.881 5.094,2.641 1.114,1.76 1.672,4.422 1.672,7.984 0,3.688 -0.597,6.477 -1.789,8.368 -1.193,1.89 -2.935,2.836 -5.227,2.836 -2.25,0 -3.924,-0.886 -5.023,-2.657 -1.099,-1.771 -1.649,-4.458 -1.649,-8.062 0,-1.917 0.17,-3.573 0.508,-4.969 0.339,-1.396 0.813,-2.549 1.422,-3.461 0.609,-0.911 1.341,-1.586 2.195,-2.023 0.854,-0.438 1.787,-0.657 2.797,-0.657 z"
       fill-rule="evenodd"
       id="path63" />
    <text
       fill="#000000"
       fill-opacity="0"
       font-family="Arial, Arial_MSFontService, sans-serif"
       font-size="21.8281px"
       x="779.40601"
       y="388.72299"
       id="text65">0</text>
    <path
       d="m 860.383,322.245 c 0.541,0 0.994,0.19 1.359,0.571 0.365,0.38 0.547,0.862 0.547,1.445 0,0.583 -0.182,1.065 -0.547,1.445 -0.365,0.38 -0.818,0.571 -1.359,0.571 -0.542,0 -0.995,-0.191 -1.36,-0.571 -0.364,-0.38 -0.547,-0.862 -0.547,-1.445 0,-0.583 0.183,-1.065 0.547,-1.445 0.365,-0.381 0.818,-0.571 1.36,-0.571 z m -9.469,0 c 0.542,0 0.995,0.19 1.359,0.571 0.365,0.38 0.547,0.862 0.547,1.445 0,0.583 -0.182,1.065 -0.547,1.445 -0.364,0.38 -0.817,0.571 -1.359,0.571 -0.542,0 -0.995,-0.191 -1.36,-0.571 -0.364,-0.38 -0.546,-0.862 -0.546,-1.445 0,-0.583 0.182,-1.065 0.546,-1.445 0.365,-0.381 0.818,-0.571 1.36,-0.571 z m -9.469,0 c 0.542,0 0.995,0.19 1.359,0.571 0.365,0.38 0.547,0.862 0.547,1.445 0,0.583 -0.182,1.065 -0.547,1.445 -0.364,0.38 -0.817,0.571 -1.359,0.571 -0.542,0 -0.995,-0.191 -1.359,-0.571 -0.365,-0.38 -0.547,-0.862 -0.547,-1.445 0,-0.583 0.182,-1.065 0.547,-1.445 0.364,-0.381 0.817,-0.571 1.359,-0.571 z"
       fill-rule="evenodd"
       id="path67" />
    <text
       fill="#000000"
       fill-opacity="0"
       font-family="Arial, Arial_MSFontService, sans-serif"
       font-size="4.03125px"
       x="839.539"
       y="325.77301"
       id="text69">РІ»</text>
    <path
       d="m 895.476,312.073 h 16.313 l -1.219,5.5 h -1.5 c 0,-1.01 -0.026,-1.768 -0.078,-2.273 -0.052,-0.505 -0.151,-0.891 -0.297,-1.156 -0.146,-0.266 -0.325,-0.448 -0.539,-0.547 -0.214,-0.099 -0.591,-0.149 -1.133,-0.149 h -2.312 l -3.391,15.407 c -0.094,0.406 -0.159,0.729 -0.195,0.968 -0.037,0.24 -0.068,0.493 -0.094,0.758 -0.026,0.266 -0.039,0.503 -0.039,0.711 0,0.323 0.052,0.576 0.156,0.758 0.104,0.182 0.261,0.315 0.469,0.398 0.208,0.084 0.568,0.146 1.078,0.188 l -0.172,0.766 h -6.578 l 0.172,-0.766 c 0.417,-0.063 0.724,-0.146 0.922,-0.25 0.198,-0.104 0.372,-0.266 0.523,-0.484 0.151,-0.219 0.302,-0.563 0.453,-1.032 0.151,-0.468 0.331,-1.177 0.539,-2.125 l 3.344,-15.297 h -1.984 c -0.646,0 -1.162,0.094 -1.547,0.282 -0.385,0.187 -0.771,0.536 -1.156,1.047 -0.386,0.51 -0.854,1.364 -1.407,2.562 h -1.5 z"
       fill-rule="evenodd"
       id="path71" />
    <text
       fill="#000000"
       fill-opacity="0"
       font-family="Arial, Arial_MSFontService, sans-serif"
       font-size="21.3281px"
       x="894.30402"
       y="330.73599"
       id="text73">­ЮЉЄ</text>
    <path
       d="m 950.101,255.877 h 9.218 v 136.781 h -9.218 v -1.781 h 5.781 V 257.658 h -5.781 z m -28.294,0 h 9.218 v 1.781 h -5.781 v 133.219 h 5.781 v 1.781 h -9.218 z"
       fill-rule="evenodd"
       id="path75" />
    <path
       d="m 940.59,258.532 c -0.719,0 -1.32,0.213 -1.805,0.64 -0.484,0.427 -0.875,1.042 -1.171,1.844 -0.297,0.802 -0.508,1.779 -0.633,2.93 -0.125,1.151 -0.188,2.45 -0.188,3.898 0,3.396 0.315,5.888 0.946,7.477 0.63,1.588 1.606,2.382 2.929,2.382 1.261,0 2.196,-0.747 2.805,-2.242 0.609,-1.495 0.914,-3.81 0.914,-6.945 0,-2.396 -0.156,-4.336 -0.469,-5.82 -0.312,-1.485 -0.747,-2.55 -1.304,-3.196 -0.558,-0.646 -1.232,-0.968 -2.024,-0.968 z m 0.078,-1.329 c 2.281,0 3.979,0.881 5.094,2.641 1.115,1.76 1.672,4.422 1.672,7.984 0,3.688 -0.597,6.477 -1.789,8.368 -1.193,1.89 -2.935,2.836 -5.227,2.836 -2.25,0 -3.924,-0.886 -5.023,-2.657 -1.099,-1.771 -1.649,-4.458 -1.649,-8.062 0,-1.917 0.17,-3.573 0.508,-4.969 0.339,-1.396 0.813,-2.549 1.422,-3.461 0.609,-0.911 1.341,-1.586 2.195,-2.023 0.855,-0.438 1.787,-0.657 2.797,-0.657 z"
       fill-rule="evenodd"
       id="path77" />
    <text
       fill="#000000"
       fill-opacity="0"
       font-family="Arial, Arial_MSFontService, sans-serif"
       font-size="21.8281px"
       x="933.74597"
       y="276.30301"
       id="text79">0</text>
    <path
       d="m 940.59,296.045 c -0.719,0 -1.32,0.213 -1.805,0.641 -0.484,0.427 -0.875,1.041 -1.171,1.843 -0.297,0.802 -0.508,1.779 -0.633,2.93 -0.125,1.151 -0.188,2.451 -0.188,3.898 0,3.396 0.315,5.888 0.946,7.477 0.63,1.589 1.606,2.383 2.929,2.383 1.261,0 2.196,-0.748 2.805,-2.242 0.609,-1.495 0.914,-3.81 0.914,-6.946 0,-2.396 -0.156,-4.336 -0.469,-5.82 -0.312,-1.484 -0.747,-2.549 -1.304,-3.195 -0.558,-0.646 -1.232,-0.969 -2.024,-0.969 z m 0.078,-1.328 c 2.281,0 3.979,0.88 5.094,2.64 1.115,1.761 1.672,4.422 1.672,7.985 0,3.687 -0.597,6.476 -1.789,8.367 -1.193,1.891 -2.935,2.836 -5.227,2.836 -2.25,0 -3.924,-0.885 -5.023,-2.656 -1.099,-1.771 -1.649,-4.459 -1.649,-8.063 0,-1.916 0.17,-3.573 0.508,-4.969 0.339,-1.395 0.813,-2.549 1.422,-3.461 0.609,-0.911 1.341,-1.585 2.195,-2.023 0.855,-0.437 1.787,-0.656 2.797,-0.656 z"
       fill-rule="evenodd"
       id="path81" />
    <text
       fill="#000000"
       fill-opacity="0"
       font-family="Arial, Arial_MSFontService, sans-serif"
       font-size="21.8281px"
       x="933.74597"
       y="313.81601"
       id="text83">0</text>
    <path
       d="m 940.533,350.027 c 0.541,0 0.995,0.19 1.359,0.57 0.365,0.381 0.547,0.862 0.547,1.446 0,0.583 -0.182,1.065 -0.547,1.445 -0.364,0.38 -0.818,0.57 -1.359,0.57 -0.542,0 -0.995,-0.19 -1.36,-0.57 -0.364,-0.38 -0.546,-0.862 -0.546,-1.445 0,-0.584 0.182,-1.065 0.546,-1.446 0.365,-0.38 0.818,-0.57 1.36,-0.57 z m 0,-8.312 c 0.541,0 0.995,0.19 1.359,0.57 0.365,0.38 0.547,0.862 0.547,1.445 0,0.583 -0.182,1.065 -0.547,1.445 -0.364,0.381 -0.818,0.571 -1.359,0.571 -0.542,0 -0.995,-0.19 -1.36,-0.571 -0.364,-0.38 -0.546,-0.862 -0.546,-1.445 0,-0.583 0.182,-1.065 0.546,-1.445 0.365,-0.38 0.818,-0.57 1.36,-0.57 z m 0,-8.313 c 0.541,0 0.995,0.19 1.359,0.57 0.365,0.381 0.547,0.862 0.547,1.446 0,0.583 -0.182,1.065 -0.547,1.445 -0.364,0.38 -0.818,0.57 -1.359,0.57 -0.542,0 -0.995,-0.19 -1.36,-0.57 -0.364,-0.38 -0.546,-0.862 -0.546,-1.445 0,-0.584 0.182,-1.065 0.546,-1.446 0.365,-0.38 0.818,-0.57 1.36,-0.57 z"
       fill-rule="evenodd"
       id="path85" />
    <text
       fill="#000000"
       fill-opacity="0"
       font-family="Arial, Arial_MSFontService, sans-serif"
       font-size="20.6562px"
       x="938.62701"
       y="351.47601"
       id="text87">РІ«</text>
    <path
       d="m 941.824,369.743 h 0.86 c -0.063,1 -0.094,2.386 -0.094,4.157 v 13.343 c 0,0.605 0.034,1.06 0.102,1.368 0.067,0.307 0.187,0.557 0.359,0.75 0.172,0.192 0.419,0.343 0.742,0.453 0.323,0.109 0.729,0.192 1.219,0.25 0.49,0.057 1.135,0.096 1.937,0.117 v 1.141 h -11.546 v -1.141 c 1.156,-0.052 1.981,-0.122 2.476,-0.211 0.495,-0.089 0.873,-0.221 1.133,-0.398 0.26,-0.178 0.45,-0.428 0.57,-0.75 0.12,-0.323 0.18,-0.849 0.18,-1.579 v -12.671 c 0,-0.417 -0.073,-0.722 -0.219,-0.914 -0.146,-0.193 -0.359,-0.29 -0.64,-0.29 -0.334,0 -0.808,0.172 -1.422,0.516 -0.615,0.344 -1.375,0.818 -2.282,1.422 l -0.687,-1.203 z"
       fill-rule="evenodd"
       id="path89" />
    <text
       fill="#000000"
       fill-opacity="0"
       font-family="Arial, Arial_MSFontService, sans-serif"
       font-size="21.5781px"
       x="934.51202"
       y="388.62399"
       id="text91">1</text>
    <text
       font-family="Calibri, Calibri_MSFontService, sans-serif"
       font-weight="400"
       font-size="37px"
       transform="translate(226.246,527)"
       id="text95">A<tspan
   font-size="25px"
   x="24"
   y="8"
   id="tspan93">T</tspan></text>
    <path
       d="m 294.675,503.312 c 3.041,0.802 5.377,2.534 7.008,5.195 1.63,2.662 2.445,5.873 2.445,9.633 0,3.771 -0.813,6.982 -2.438,9.633 -1.625,2.651 -3.963,4.378 -7.015,5.18 L 294.3,531.75 c 2.406,-0.803 4.195,-2.386 5.367,-4.75 1.172,-2.365 1.758,-5.37 1.758,-9.016 0,-3.521 -0.584,-6.445 -1.75,-8.774 -1.167,-2.328 -2.974,-3.893 -5.422,-4.695 z m -19.997,0 0.422,1.203 c -2.437,0.802 -4.242,2.367 -5.414,4.695 -1.172,2.329 -1.758,5.253 -1.758,8.774 0,3.646 0.586,6.651 1.758,9.016 1.172,2.364 2.961,3.947 5.367,4.75 l -0.375,1.203 c -3.052,-0.802 -5.39,-2.529 -7.015,-5.18 -1.625,-2.651 -2.438,-5.862 -2.438,-9.633 0,-3.76 0.815,-6.971 2.445,-9.633 1.631,-2.661 3.967,-4.393 7.008,-5.195 z"
       fill-rule="evenodd"
       id="path97" />
    <path
       d="m 281.864,512.067 c 0.323,0 0.607,0.036 0.852,0.109 0.245,0.073 0.461,0.185 0.648,0.336 0.188,0.151 0.355,0.347 0.5,0.586 0.146,0.24 0.287,0.565 0.422,0.977 0.136,0.411 0.263,0.922 0.383,1.531 0.12,0.609 0.227,1.242 0.32,1.899 h 0.157 c 1,-1.407 1.757,-2.435 2.273,-3.086 0.516,-0.651 0.951,-1.136 1.305,-1.454 0.354,-0.317 0.695,-0.541 1.023,-0.671 0.328,-0.131 0.763,-0.196 1.305,-0.196 0.49,0 0.891,0.063 1.203,0.188 l -0.625,2.828 h -1.094 c -0.062,-0.438 -0.244,-0.656 -0.547,-0.656 -0.093,0 -0.192,0.015 -0.296,0.047 -0.105,0.031 -0.232,0.098 -0.383,0.203 -0.151,0.104 -0.373,0.307 -0.664,0.609 -0.292,0.302 -0.62,0.672 -0.985,1.109 -0.364,0.438 -0.739,0.896 -1.125,1.375 l -1.062,1.329 c 0.187,1 0.364,1.864 0.531,2.593 0.167,0.729 0.315,1.336 0.445,1.821 0.131,0.484 0.245,0.867 0.344,1.148 0.099,0.281 0.206,0.492 0.32,0.633 0.115,0.14 0.232,0.239 0.352,0.297 0.12,0.057 0.258,0.086 0.414,0.086 0.281,0 0.555,-0.11 0.82,-0.328 0.266,-0.219 0.649,-0.714 1.149,-1.485 l 1.015,0.672 c -0.729,1.083 -1.388,1.846 -1.976,2.289 -0.589,0.443 -1.289,0.664 -2.102,0.664 -0.448,0 -0.828,-0.081 -1.14,-0.242 -0.313,-0.161 -0.584,-0.419 -0.813,-0.773 -0.229,-0.355 -0.432,-0.907 -0.609,-1.657 -0.323,-1.333 -0.521,-2.354 -0.594,-3.062 h -0.156 c -1.104,1.552 -1.925,2.666 -2.461,3.344 -0.537,0.677 -0.979,1.177 -1.328,1.5 -0.349,0.322 -0.688,0.549 -1.016,0.679 -0.328,0.13 -0.763,0.196 -1.305,0.196 -0.489,0 -0.89,-0.063 -1.203,-0.188 l 0.625,-2.828 h 1.094 c 0.063,0.437 0.245,0.656 0.547,0.656 0.146,0 0.299,-0.039 0.461,-0.117 0.161,-0.078 0.393,-0.266 0.695,-0.563 0.302,-0.296 0.719,-0.763 1.25,-1.398 0.531,-0.635 1.302,-1.589 2.313,-2.859 -0.157,-0.823 -0.318,-1.615 -0.485,-2.375 -0.166,-0.761 -0.338,-1.469 -0.515,-2.125 -0.177,-0.657 -0.323,-1.086 -0.438,-1.289 -0.114,-0.204 -0.237,-0.344 -0.367,-0.422 -0.13,-0.078 -0.294,-0.117 -0.492,-0.117 -0.219,0 -0.417,0.049 -0.594,0.148 -0.177,0.099 -0.37,0.271 -0.578,0.516 -0.208,0.244 -0.484,0.627 -0.828,1.148 l -1.016,-0.672 c 0.656,-0.989 1.287,-1.729 1.891,-2.219 0.604,-0.489 1.318,-0.734 2.14,-0.734 z"
       fill-rule="evenodd"
       id="path99" />
    <text
       fill="#000000"
       fill-opacity="0"
       font-family="Arial, Arial_MSFontService, sans-serif"
       font-size="15.4531px"
       x="276.16101"
       y="525.58899"
       id="text101">­ЮЉЦ</text>
    <path
       d="m 288.612,502.083 3.922,3.39 v 0.907 l -3.922,3.39 -0.828,-0.937 2.5,-2.172 h -9.531 v -1.469 h 9.531 l -2.5,-2.172 z"
       fill-rule="evenodd"
       id="path103" />
    <text
       fill="#000000"
       fill-opacity="0"
       font-family="Arial, Arial_MSFontService, sans-serif"
       font-size="7.6875px"
       x="280.75299"
       y="508.80899"
       id="text105">нд</text>
    <text
       font-family="Calibri, Calibri_MSFontService, sans-serif"
       font-weight="400"
       font-size="32px"
       transform="translate(311.606,527)"
       id="text107">=</text>
    <path
       d="m 340.944,512.067 c 0.323,0 0.607,0.036 0.852,0.109 0.245,0.073 0.461,0.185 0.648,0.336 0.188,0.151 0.355,0.347 0.5,0.586 0.146,0.24 0.287,0.565 0.422,0.977 0.136,0.411 0.263,0.922 0.383,1.531 0.12,0.609 0.227,1.242 0.32,1.899 h 0.157 c 1,-1.407 1.757,-2.435 2.273,-3.086 0.516,-0.651 0.951,-1.136 1.305,-1.454 0.354,-0.317 0.695,-0.541 1.023,-0.671 0.328,-0.131 0.763,-0.196 1.305,-0.196 0.49,0 0.891,0.063 1.203,0.188 l -0.625,2.828 h -1.094 c -0.062,-0.438 -0.244,-0.656 -0.547,-0.656 -0.093,0 -0.192,0.015 -0.296,0.047 -0.105,0.031 -0.232,0.098 -0.383,0.203 -0.151,0.104 -0.373,0.307 -0.664,0.609 -0.292,0.302 -0.62,0.672 -0.985,1.109 -0.364,0.438 -0.739,0.896 -1.125,1.375 l -1.062,1.329 c 0.187,1 0.364,1.864 0.531,2.593 0.167,0.729 0.315,1.336 0.445,1.821 0.131,0.484 0.245,0.867 0.344,1.148 0.099,0.281 0.206,0.492 0.32,0.633 0.115,0.14 0.232,0.239 0.352,0.297 0.12,0.057 0.258,0.086 0.414,0.086 0.281,0 0.555,-0.11 0.82,-0.328 0.266,-0.219 0.649,-0.714 1.149,-1.485 l 1.015,0.672 c -0.729,1.083 -1.388,1.846 -1.976,2.289 -0.589,0.443 -1.289,0.664 -2.102,0.664 -0.448,0 -0.828,-0.081 -1.14,-0.242 -0.313,-0.161 -0.584,-0.419 -0.813,-0.773 -0.229,-0.355 -0.432,-0.907 -0.609,-1.657 -0.323,-1.333 -0.521,-2.354 -0.594,-3.062 h -0.156 c -1.104,1.552 -1.925,2.666 -2.461,3.344 -0.537,0.677 -0.979,1.177 -1.328,1.5 -0.349,0.322 -0.688,0.549 -1.016,0.679 -0.328,0.13 -0.763,0.196 -1.305,0.196 -0.489,0 -0.89,-0.063 -1.203,-0.188 l 0.625,-2.828 h 1.094 c 0.063,0.437 0.245,0.656 0.547,0.656 0.146,0 0.299,-0.039 0.461,-0.117 0.161,-0.078 0.393,-0.266 0.695,-0.563 0.302,-0.296 0.719,-0.763 1.25,-1.398 0.531,-0.635 1.302,-1.589 2.313,-2.859 -0.157,-0.823 -0.318,-1.615 -0.485,-2.375 -0.166,-0.761 -0.338,-1.469 -0.515,-2.125 -0.177,-0.657 -0.323,-1.086 -0.438,-1.289 -0.114,-0.204 -0.237,-0.344 -0.367,-0.422 -0.13,-0.078 -0.294,-0.117 -0.492,-0.117 -0.219,0 -0.417,0.049 -0.594,0.148 -0.177,0.099 -0.37,0.271 -0.578,0.516 -0.208,0.244 -0.484,0.627 -0.828,1.148 l -1.016,-0.672 c 0.656,-0.989 1.287,-1.729 1.891,-2.219 0.604,-0.489 1.318,-0.734 2.14,-0.734 z"
       fill-rule="evenodd"
       id="path109" />
    <text
       fill="#000000"
       fill-opacity="0"
       font-family="Arial, Arial_MSFontService, sans-serif"
       font-size="15.4531px"
       x="335.241"
       y="525.58899"
       id="text111">­ЮЉЦ</text>
    <path
       d="m 358.397,520.109 h 0.564 c -0.041,0.657 -0.062,1.566 -0.062,2.728 v 8.757 c 0,0.396 0.022,0.695 0.067,0.897 0.044,0.202 0.123,0.366 0.236,0.492 0.112,0.127 0.275,0.226 0.487,0.298 0.211,0.071 0.478,0.126 0.799,0.164 0.322,0.037 0.745,0.063 1.272,0.077 v 0.748 h -7.578 v -0.748 c 0.759,-0.035 1.301,-0.081 1.625,-0.139 0.325,-0.058 0.573,-0.145 0.744,-0.261 0.171,-0.117 0.296,-0.281 0.374,-0.492 0.079,-0.212 0.118,-0.558 0.118,-1.036 v -8.316 c 0,-0.273 -0.048,-0.473 -0.143,-0.6 -0.096,-0.126 -0.236,-0.19 -0.421,-0.19 -0.219,0 -0.53,0.113 -0.933,0.339 -0.403,0.225 -0.902,0.536 -1.497,0.933 l -0.451,-0.79 z"
       fill-rule="evenodd"
       id="path113" />
    <text
       fill="#000000"
       fill-opacity="0"
       font-family="Arial, Arial_MSFontService, sans-serif"
       font-size="14.1606px"
       x="353.59799"
       y="532.5"
       id="text115">1</text>
    <path
       d="m 365.872,505.942 h 16.312 l -1.219,5.5 h -1.5 c 0,-1.01 -0.026,-1.768 -0.078,-2.273 -0.052,-0.506 -0.151,-0.891 -0.297,-1.157 -0.146,-0.265 -0.325,-0.448 -0.539,-0.547 -0.213,-0.099 -0.591,-0.148 -1.133,-0.148 h -2.312 l -3.391,15.406 c -0.093,0.407 -0.159,0.729 -0.195,0.969 -0.037,0.24 -0.068,0.492 -0.094,0.758 -0.026,0.265 -0.039,0.502 -0.039,0.711 0,0.323 0.052,0.575 0.156,0.758 0.105,0.182 0.261,0.315 0.469,0.398 0.208,0.083 0.568,0.146 1.078,0.188 l -0.172,0.765 h -6.578 l 0.172,-0.765 c 0.417,-0.063 0.724,-0.146 0.922,-0.25 0.198,-0.105 0.372,-0.266 0.523,-0.485 0.151,-0.219 0.303,-0.562 0.454,-1.031 0.151,-0.469 0.33,-1.177 0.539,-2.125 l 3.343,-15.297 h -1.984 c -0.646,0 -1.161,0.094 -1.547,0.281 -0.385,0.188 -0.771,0.537 -1.156,1.047 -0.386,0.511 -0.854,1.365 -1.406,2.563 h -1.5 z"
       fill-rule="evenodd"
       id="path117" />
    <text
       fill="#000000"
       fill-opacity="0"
       font-family="Arial, Arial_MSFontService, sans-serif"
       font-size="21.3281px"
       x="364.70001"
       y="524.604"
       id="text119">­ЮЉЄ</text>
    <path
       d="m 420.496,449.746 h 9.218 v 136.781 h -9.218 v -1.781 h 5.781 V 451.527 h -5.781 z m -28.294,0 h 9.218 v 1.781 h -5.781 v 133.219 h 5.781 v 1.781 h -9.218 z"
       fill-rule="evenodd"
       id="path121" />
    <path
       d="m 412.22,450.952 h 0.859 c -0.062,1 -0.094,2.385 -0.094,4.156 v 13.344 c 0,0.604 0.034,1.06 0.102,1.367 0.068,0.307 0.187,0.557 0.359,0.75 0.172,0.193 0.419,0.344 0.742,0.453 0.323,0.11 0.73,0.193 1.219,0.25 0.49,0.058 1.136,0.097 1.938,0.117 v 1.141 h -11.547 v -1.141 c 1.156,-0.052 1.982,-0.122 2.476,-0.21 0.495,-0.089 0.873,-0.222 1.133,-0.399 0.261,-0.177 0.451,-0.427 0.57,-0.75 0.12,-0.323 0.18,-0.849 0.18,-1.578 V 455.78 c 0,-0.417 -0.073,-0.721 -0.219,-0.914 -0.145,-0.193 -0.359,-0.289 -0.64,-0.289 -0.334,0 -0.808,0.172 -1.422,0.516 -0.615,0.343 -1.375,0.817 -2.281,1.421 l -0.688,-1.203 z"
       fill-rule="evenodd"
       id="path123" />
    <text
       fill="#000000"
       fill-opacity="0"
       font-family="Arial, Arial_MSFontService, sans-serif"
       font-size="21.5781px"
       x="404.90701"
       y="469.83301"
       id="text125">1</text>
    <path
       d="m 410.985,489.793 c -0.718,0 -1.32,0.214 -1.804,0.641 -0.485,0.427 -0.875,1.042 -1.172,1.844 -0.297,0.802 -0.508,1.778 -0.633,2.93 -0.125,1.151 -0.188,2.45 -0.188,3.898 0,3.396 0.315,5.888 0.946,7.477 0.63,1.588 1.606,2.382 2.929,2.382 1.261,0 2.196,-0.747 2.805,-2.242 0.609,-1.495 0.914,-3.81 0.914,-6.945 0,-2.396 -0.156,-4.336 -0.469,-5.82 -0.312,-1.485 -0.747,-2.55 -1.304,-3.196 -0.558,-0.646 -1.232,-0.969 -2.024,-0.969 z m 0.078,-1.328 c 2.282,0 3.98,0.881 5.094,2.641 1.115,1.76 1.672,4.422 1.672,7.984 0,3.688 -0.596,6.477 -1.789,8.368 -1.193,1.89 -2.935,2.835 -5.227,2.835 -2.25,0 -3.924,-0.885 -5.023,-2.656 -1.099,-1.771 -1.648,-4.458 -1.648,-8.062 0,-1.917 0.169,-3.573 0.507,-4.969 0.339,-1.396 0.813,-2.55 1.422,-3.461 0.61,-0.911 1.341,-1.586 2.196,-2.023 0.854,-0.438 1.786,-0.657 2.796,-0.657 z"
       fill-rule="evenodd"
       id="path127" />
    <text
       fill="#000000"
       fill-opacity="0"
       font-family="Arial, Arial_MSFontService, sans-serif"
       font-size="21.8281px"
       x="404.142"
       y="507.565"
       id="text129">0</text>
    <path
       d="m 410.928,543.776 c 0.542,0 0.995,0.19 1.359,0.57 0.365,0.38 0.547,0.862 0.547,1.445 0,0.584 -0.182,1.065 -0.547,1.446 -0.364,0.38 -0.817,0.57 -1.359,0.57 -0.542,0 -0.995,-0.19 -1.359,-0.57 -0.365,-0.381 -0.547,-0.862 -0.547,-1.446 0,-0.583 0.182,-1.065 0.547,-1.445 0.364,-0.38 0.817,-0.57 1.359,-0.57 z m 0,-8.313 c 0.542,0 0.995,0.19 1.359,0.57 0.365,0.381 0.547,0.862 0.547,1.446 0,0.583 -0.182,1.065 -0.547,1.445 -0.364,0.38 -0.817,0.57 -1.359,0.57 -0.542,0 -0.995,-0.19 -1.359,-0.57 -0.365,-0.38 -0.547,-0.862 -0.547,-1.445 0,-0.584 0.182,-1.065 0.547,-1.446 0.364,-0.38 0.817,-0.57 1.359,-0.57 z m 0,-8.312 c 0.542,0 0.995,0.19 1.359,0.57 0.365,0.38 0.547,0.862 0.547,1.445 0,0.584 -0.182,1.065 -0.547,1.446 -0.364,0.38 -0.817,0.57 -1.359,0.57 -0.542,0 -0.995,-0.19 -1.359,-0.57 -0.365,-0.381 -0.547,-0.862 -0.547,-1.446 0,-0.583 0.182,-1.065 0.547,-1.445 0.364,-0.38 0.817,-0.57 1.359,-0.57 z"
       fill-rule="evenodd"
       id="path131" />
    <text
       fill="#000000"
       fill-opacity="0"
       font-family="Arial, Arial_MSFontService, sans-serif"
       font-size="20.6562px"
       x="409.022"
       y="545.22498"
       id="text133">РІ«</text>
    <path
       d="m 410.985,564.82 c -0.718,0 -1.32,0.214 -1.804,0.641 -0.485,0.427 -0.875,1.041 -1.172,1.844 -0.297,0.802 -0.508,1.778 -0.633,2.929 -0.125,1.151 -0.188,2.451 -0.188,3.899 0,3.395 0.315,5.888 0.946,7.476 0.63,1.589 1.606,2.383 2.929,2.383 1.261,0 2.196,-0.747 2.805,-2.242 0.609,-1.495 0.914,-3.81 0.914,-6.945 0,-2.396 -0.156,-4.336 -0.469,-5.821 -0.312,-1.484 -0.747,-2.549 -1.304,-3.195 -0.558,-0.646 -1.232,-0.969 -2.024,-0.969 z m 0.078,-1.328 c 2.282,0 3.98,0.88 5.094,2.641 1.115,1.76 1.672,4.422 1.672,7.984 0,3.688 -0.596,6.477 -1.789,8.367 -1.193,1.891 -2.935,2.836 -5.227,2.836 -2.25,0 -3.924,-0.885 -5.023,-2.656 -1.099,-1.771 -1.648,-4.458 -1.648,-8.063 0,-1.916 0.169,-3.573 0.507,-4.968 0.339,-1.396 0.813,-2.55 1.422,-3.461 0.61,-0.912 1.341,-1.586 2.196,-2.024 0.854,-0.437 1.786,-0.656 2.796,-0.656 z"
       fill-rule="evenodd"
       id="path135" />
    <text
       fill="#000000"
       fill-opacity="0"
       font-family="Arial, Arial_MSFontService, sans-serif"
       font-size="21.8281px"
       x="404.142"
       y="582.59198"
       id="text137">0</text>
    <text
       font-family="Calibri, Calibri_MSFontService, sans-serif"
       font-weight="400"
       font-size="32px"
       transform="translate(440.446,527)"
       id="text139">+</text>
    <path
       d="m 469.784,512.067 c 0.323,0 0.607,0.036 0.852,0.109 0.245,0.073 0.461,0.185 0.648,0.336 0.188,0.151 0.355,0.347 0.5,0.586 0.146,0.24 0.287,0.565 0.422,0.977 0.136,0.411 0.263,0.922 0.383,1.531 0.12,0.609 0.227,1.242 0.32,1.899 h 0.157 c 1,-1.407 1.757,-2.435 2.273,-3.086 0.516,-0.651 0.951,-1.136 1.305,-1.454 0.354,-0.317 0.695,-0.541 1.023,-0.671 0.328,-0.131 0.763,-0.196 1.305,-0.196 0.49,0 0.891,0.063 1.203,0.188 l -0.625,2.828 h -1.094 c -0.062,-0.438 -0.244,-0.656 -0.547,-0.656 -0.093,0 -0.192,0.015 -0.296,0.047 -0.105,0.031 -0.232,0.098 -0.383,0.203 -0.151,0.104 -0.373,0.307 -0.664,0.609 -0.292,0.302 -0.62,0.672 -0.985,1.109 -0.364,0.438 -0.739,0.896 -1.125,1.375 l -1.062,1.329 c 0.187,1 0.364,1.864 0.531,2.593 0.167,0.729 0.315,1.336 0.445,1.821 0.131,0.484 0.245,0.867 0.344,1.148 0.099,0.281 0.206,0.492 0.32,0.633 0.115,0.14 0.232,0.239 0.352,0.297 0.12,0.057 0.258,0.086 0.414,0.086 0.281,0 0.555,-0.11 0.82,-0.328 0.266,-0.219 0.649,-0.714 1.149,-1.485 l 1.015,0.672 c -0.729,1.083 -1.388,1.846 -1.976,2.289 -0.589,0.443 -1.289,0.664 -2.102,0.664 -0.448,0 -0.828,-0.081 -1.14,-0.242 -0.313,-0.161 -0.584,-0.419 -0.813,-0.773 -0.229,-0.355 -0.432,-0.907 -0.609,-1.657 -0.323,-1.333 -0.521,-2.354 -0.594,-3.062 h -0.156 c -1.104,1.552 -1.925,2.666 -2.461,3.344 -0.537,0.677 -0.979,1.177 -1.328,1.5 -0.349,0.322 -0.688,0.549 -1.016,0.679 -0.328,0.13 -0.763,0.196 -1.305,0.196 -0.489,0 -0.89,-0.063 -1.203,-0.188 l 0.625,-2.828 h 1.094 c 0.063,0.437 0.245,0.656 0.547,0.656 0.146,0 0.299,-0.039 0.461,-0.117 0.161,-0.078 0.393,-0.266 0.695,-0.563 0.302,-0.296 0.719,-0.763 1.25,-1.398 0.531,-0.635 1.302,-1.589 2.313,-2.859 -0.157,-0.823 -0.318,-1.615 -0.485,-2.375 -0.166,-0.761 -0.338,-1.469 -0.515,-2.125 -0.177,-0.657 -0.323,-1.086 -0.438,-1.289 -0.114,-0.204 -0.237,-0.344 -0.367,-0.422 -0.13,-0.078 -0.294,-0.117 -0.492,-0.117 -0.219,0 -0.417,0.049 -0.594,0.148 -0.177,0.099 -0.37,0.271 -0.578,0.516 -0.208,0.244 -0.484,0.627 -0.828,1.148 l -1.016,-0.672 c 0.656,-0.989 1.287,-1.729 1.891,-2.219 0.604,-0.489 1.318,-0.734 2.14,-0.734 z"
       fill-rule="evenodd"
       id="path141" />
    <text
       fill="#000000"
       fill-opacity="0"
       font-family="Arial, Arial_MSFontService, sans-serif"
       font-size="15.4531px"
       x="464.08099"
       y="525.58899"
       id="text143">­ЮЉЦ</text>
    <path
       d="m 486.509,520.109 c 1.271,0 2.231,0.279 2.881,0.836 0.649,0.557 0.974,1.366 0.974,2.425 0,0.363 -0.036,0.696 -0.108,1 -0.071,0.304 -0.184,0.605 -0.338,0.902 -0.154,0.298 -0.361,0.617 -0.62,0.959 -0.26,0.342 -0.547,0.689 -0.862,1.041 -0.314,0.352 -0.858,0.938 -1.63,1.758 -1.299,1.374 -2.253,2.574 -2.861,3.6 h 3.866 c 0.335,0 0.605,-0.021 0.81,-0.062 0.205,-0.041 0.369,-0.109 0.492,-0.205 0.123,-0.096 0.22,-0.221 0.292,-0.374 0.072,-0.154 0.163,-0.392 0.272,-0.713 h 0.872 l -0.175,2.994 h -8.439 v -0.492 c 0.294,-0.718 0.691,-1.453 1.19,-2.205 0.499,-0.752 1.206,-1.637 2.122,-2.655 0.793,-0.875 1.364,-1.538 1.713,-1.99 0.383,-0.492 0.668,-0.917 0.856,-1.276 0.188,-0.359 0.323,-0.698 0.405,-1.015 0.082,-0.318 0.123,-0.638 0.123,-0.959 0,-0.513 -0.082,-0.966 -0.246,-1.359 -0.164,-0.393 -0.415,-0.702 -0.754,-0.928 -0.338,-0.225 -0.764,-0.338 -1.276,-0.338 -1.279,0 -2.14,0.711 -2.584,2.133 h -1.241 v -1.969 c 0.827,-0.39 1.601,-0.672 2.322,-0.846 0.722,-0.174 1.369,-0.262 1.944,-0.262 z"
       fill-rule="evenodd"
       id="path145" />
    <text
       fill="#000000"
       fill-opacity="0"
       font-family="Arial, Arial_MSFontService, sans-serif"
       font-size="14.1606px"
       x="481.935"
       y="532.5"
       id="text147">2</text>
    <path
       d="m 494.712,505.942 h 16.312 l -1.219,5.5 h -1.5 c 0,-1.01 -0.026,-1.768 -0.078,-2.273 -0.052,-0.506 -0.151,-0.891 -0.297,-1.157 -0.146,-0.265 -0.325,-0.448 -0.539,-0.547 -0.213,-0.099 -0.591,-0.148 -1.133,-0.148 h -2.312 l -3.391,15.406 c -0.093,0.407 -0.159,0.729 -0.195,0.969 -0.037,0.24 -0.068,0.492 -0.094,0.758 -0.026,0.265 -0.039,0.502 -0.039,0.711 0,0.323 0.052,0.575 0.156,0.758 0.105,0.182 0.261,0.315 0.469,0.398 0.208,0.083 0.568,0.146 1.078,0.188 l -0.172,0.765 h -6.578 l 0.172,-0.765 c 0.417,-0.063 0.724,-0.146 0.922,-0.25 0.198,-0.105 0.372,-0.266 0.523,-0.485 0.151,-0.219 0.303,-0.562 0.454,-1.031 0.151,-0.469 0.33,-1.177 0.539,-2.125 l 3.343,-15.297 h -1.984 c -0.646,0 -1.161,0.094 -1.547,0.281 -0.385,0.188 -0.771,0.537 -1.156,1.047 -0.386,0.511 -0.854,1.365 -1.406,2.563 h -1.5 z"
       fill-rule="evenodd"
       id="path149" />
    <text
       fill="#000000"
       fill-opacity="0"
       font-family="Arial, Arial_MSFontService, sans-serif"
       font-size="21.3281px"
       x="493.54001"
       y="524.604"
       id="text151">­ЮЉЄ</text>
    <path
       d="m 549.336,449.746 h 9.218 v 136.781 h -9.218 v -1.781 h 5.781 V 451.527 h -5.781 z m -28.294,0 h 9.218 v 1.781 h -5.781 v 133.219 h 5.781 v 1.781 h -9.218 z"
       fill-rule="evenodd"
       id="path153" />
    <path
       d="m 539.825,452.28 c -0.718,0 -1.32,0.214 -1.804,0.641 -0.485,0.427 -0.875,1.041 -1.172,1.843 -0.297,0.803 -0.508,1.779 -0.633,2.93 -0.125,1.151 -0.188,2.451 -0.188,3.899 0,3.395 0.316,5.888 0.946,7.476 0.63,1.589 1.606,2.383 2.929,2.383 1.261,0 2.196,-0.747 2.805,-2.242 0.609,-1.495 0.914,-3.81 0.914,-6.946 0,-2.395 -0.156,-4.335 -0.469,-5.82 -0.312,-1.484 -0.747,-2.549 -1.304,-3.195 -0.558,-0.646 -1.232,-0.969 -2.024,-0.969 z m 0.078,-1.328 c 2.282,0 3.98,0.88 5.094,2.641 1.115,1.76 1.672,4.421 1.672,7.984 0,3.687 -0.596,6.477 -1.789,8.367 -1.193,1.891 -2.935,2.836 -5.227,2.836 -2.25,0 -3.924,-0.885 -5.023,-2.656 -1.099,-1.771 -1.648,-4.458 -1.648,-8.063 0,-1.916 0.169,-3.573 0.507,-4.968 0.339,-1.396 0.813,-2.55 1.422,-3.461 0.61,-0.912 1.341,-1.586 2.196,-2.024 0.854,-0.437 1.786,-0.656 2.796,-0.656 z"
       fill-rule="evenodd"
       id="path155" />
    <text
       fill="#000000"
       fill-opacity="0"
       font-family="Arial, Arial_MSFontService, sans-serif"
       font-size="21.8281px"
       x="532.98199"
       y="470.052"
       id="text157">0</text>
    <path
       d="m 541.06,488.465 h 0.859 c -0.062,1 -0.094,2.386 -0.094,4.157 v 13.343 c 0,0.604 0.034,1.06 0.102,1.368 0.068,0.307 0.187,0.557 0.359,0.75 0.172,0.192 0.419,0.343 0.742,0.453 0.323,0.109 0.73,0.192 1.219,0.25 0.49,0.057 1.136,0.096 1.938,0.117 v 1.14 h -11.547 v -1.14 c 1.156,-0.052 1.982,-0.123 2.476,-0.211 0.495,-0.089 0.873,-0.221 1.133,-0.399 0.261,-0.177 0.451,-0.427 0.57,-0.75 0.12,-0.322 0.18,-0.849 0.18,-1.578 v -12.672 c 0,-0.416 -0.073,-0.721 -0.219,-0.914 -0.145,-0.192 -0.359,-0.289 -0.64,-0.289 -0.334,0 -0.808,0.172 -1.422,0.516 -0.615,0.344 -1.375,0.818 -2.281,1.422 l -0.688,-1.203 z"
       fill-rule="evenodd"
       id="path159" />
    <text
       fill="#000000"
       fill-opacity="0"
       font-family="Arial, Arial_MSFontService, sans-serif"
       font-size="21.5781px"
       x="533.74701"
       y="507.34601"
       id="text161">1</text>
    <path
       d="m 539.768,543.776 c 0.542,0 0.995,0.19 1.359,0.57 0.365,0.38 0.547,0.862 0.547,1.445 0,0.584 -0.182,1.065 -0.547,1.446 -0.364,0.38 -0.817,0.57 -1.359,0.57 -0.542,0 -0.995,-0.19 -1.359,-0.57 -0.365,-0.381 -0.547,-0.862 -0.547,-1.446 0,-0.583 0.182,-1.065 0.547,-1.445 0.364,-0.38 0.817,-0.57 1.359,-0.57 z m 0,-8.313 c 0.542,0 0.995,0.19 1.359,0.57 0.365,0.381 0.547,0.862 0.547,1.446 0,0.583 -0.182,1.065 -0.547,1.445 -0.364,0.38 -0.817,0.57 -1.359,0.57 -0.542,0 -0.995,-0.19 -1.359,-0.57 -0.365,-0.38 -0.547,-0.862 -0.547,-1.445 0,-0.584 0.182,-1.065 0.547,-1.446 0.364,-0.38 0.817,-0.57 1.359,-0.57 z m 0,-8.312 c 0.542,0 0.995,0.19 1.359,0.57 0.365,0.38 0.547,0.862 0.547,1.445 0,0.584 -0.182,1.065 -0.547,1.446 -0.364,0.38 -0.817,0.57 -1.359,0.57 -0.542,0 -0.995,-0.19 -1.359,-0.57 -0.365,-0.381 -0.547,-0.862 -0.547,-1.446 0,-0.583 0.182,-1.065 0.547,-1.445 0.364,-0.38 0.817,-0.57 1.359,-0.57 z"
       fill-rule="evenodd"
       id="path163" />
    <text
       fill="#000000"
       fill-opacity="0"
       font-family="Arial, Arial_MSFontService, sans-serif"
       font-size="20.6562px"
       x="537.862"
       y="545.22498"
       id="text165">РІ«</text>
    <path
       d="m 539.825,564.82 c -0.718,0 -1.32,0.214 -1.804,0.641 -0.485,0.427 -0.875,1.041 -1.172,1.844 -0.297,0.802 -0.508,1.778 -0.633,2.929 -0.125,1.151 -0.188,2.451 -0.188,3.899 0,3.395 0.316,5.888 0.946,7.476 0.63,1.589 1.606,2.383 2.929,2.383 1.261,0 2.196,-0.747 2.805,-2.242 0.609,-1.495 0.914,-3.81 0.914,-6.945 0,-2.396 -0.156,-4.336 -0.469,-5.821 -0.312,-1.484 -0.747,-2.549 -1.304,-3.195 -0.558,-0.646 -1.232,-0.969 -2.024,-0.969 z m 0.078,-1.328 c 2.282,0 3.98,0.88 5.094,2.641 1.115,1.76 1.672,4.422 1.672,7.984 0,3.688 -0.596,6.477 -1.789,8.367 -1.193,1.891 -2.935,2.836 -5.227,2.836 -2.25,0 -3.924,-0.885 -5.023,-2.656 -1.099,-1.771 -1.648,-4.458 -1.648,-8.063 0,-1.916 0.169,-3.573 0.507,-4.968 0.339,-1.396 0.813,-2.55 1.422,-3.461 0.61,-0.912 1.341,-1.586 2.196,-2.024 0.854,-0.437 1.786,-0.656 2.796,-0.656 z"
       fill-rule="evenodd"
       id="path167" />
    <text
       fill="#000000"
       fill-opacity="0"
       font-family="Arial, Arial_MSFontService, sans-serif"
       font-size="21.8281px"
       x="532.98199"
       y="582.59198"
       id="text169">0</text>
    <text
       font-family="Calibri, Calibri_MSFontService, sans-serif"
       font-weight="400"
       font-size="32px"
       transform="translate(569.286,527)"
       id="text171">+</text>
    <path
       d="m 615.624,516.114 c 0.542,0 0.995,0.19 1.36,0.57 0.364,0.38 0.547,0.862 0.547,1.446 0,0.583 -0.183,1.065 -0.547,1.445 -0.365,0.38 -0.818,0.57 -1.36,0.57 -0.541,0 -0.994,-0.19 -1.359,-0.57 -0.364,-0.38 -0.547,-0.862 -0.547,-1.445 0,-0.584 0.183,-1.066 0.547,-1.446 0.365,-0.38 0.818,-0.57 1.359,-0.57 z m -9.468,0 c 0.541,0 0.995,0.19 1.359,0.57 0.365,0.38 0.547,0.862 0.547,1.446 0,0.583 -0.182,1.065 -0.547,1.445 -0.364,0.38 -0.818,0.57 -1.359,0.57 -0.542,0 -0.995,-0.19 -1.36,-0.57 -0.364,-0.38 -0.547,-0.862 -0.547,-1.445 0,-0.584 0.183,-1.066 0.547,-1.446 0.365,-0.38 0.818,-0.57 1.36,-0.57 z m -9.469,0 c 0.542,0 0.995,0.19 1.359,0.57 0.365,0.38 0.547,0.862 0.547,1.446 0,0.583 -0.182,1.065 -0.547,1.445 -0.364,0.38 -0.817,0.57 -1.359,0.57 -0.542,0 -0.995,-0.19 -1.359,-0.57 -0.365,-0.38 -0.547,-0.862 -0.547,-1.445 0,-0.584 0.182,-1.066 0.547,-1.446 0.364,-0.38 0.817,-0.57 1.359,-0.57 z"
       fill-rule="evenodd"
       id="path173" />
    <text
       fill="#000000"
       fill-opacity="0"
       font-family="Arial, Arial_MSFontService, sans-serif"
       font-size="4.03125px"
       x="594.78101"
       y="519.64099"
       id="text175">РІ»</text>
    <text
       font-family="Calibri, Calibri_MSFontService, sans-serif"
       font-weight="400"
       font-size="32px"
       transform="translate(626.953,527)"
       id="text177">+</text>
    <path
       d="m 656.291,512.067 c 0.323,0 0.607,0.036 0.852,0.109 0.244,0.073 0.461,0.185 0.648,0.336 0.188,0.151 0.354,0.347 0.5,0.586 0.146,0.24 0.287,0.565 0.422,0.977 0.135,0.411 0.263,0.922 0.383,1.531 0.12,0.609 0.226,1.242 0.32,1.899 h 0.156 c 1,-1.407 1.758,-2.435 2.274,-3.086 0.515,-0.651 0.95,-1.136 1.304,-1.454 0.355,-0.317 0.696,-0.541 1.024,-0.671 0.328,-0.131 0.763,-0.196 1.305,-0.196 0.489,0 0.89,0.063 1.203,0.188 l -0.625,2.828 h -1.094 c -0.063,-0.438 -0.245,-0.656 -0.547,-0.656 -0.094,0 -0.193,0.015 -0.297,0.047 -0.104,0.031 -0.232,0.098 -0.383,0.203 -0.151,0.104 -0.372,0.307 -0.664,0.609 -0.291,0.302 -0.619,0.672 -0.984,1.109 -0.365,0.438 -0.74,0.896 -1.125,1.375 l -1.063,1.329 c 0.188,1 0.365,1.864 0.532,2.593 0.166,0.729 0.315,1.336 0.445,1.821 0.13,0.484 0.245,0.867 0.344,1.148 0.099,0.281 0.206,0.492 0.32,0.633 0.115,0.14 0.232,0.239 0.352,0.297 0.119,0.057 0.257,0.086 0.414,0.086 0.281,0 0.554,-0.11 0.82,-0.328 0.266,-0.219 0.648,-0.714 1.148,-1.485 l 1.016,0.672 c -0.729,1.083 -1.388,1.846 -1.976,2.289 -0.589,0.443 -1.29,0.664 -2.102,0.664 -0.448,0 -0.828,-0.081 -1.141,-0.242 -0.312,-0.161 -0.583,-0.419 -0.812,-0.773 -0.229,-0.355 -0.432,-0.907 -0.61,-1.657 -0.322,-1.333 -0.52,-2.354 -0.593,-3.062 H 657.9 c -1.104,1.552 -1.924,2.666 -2.46,3.344 -0.537,0.677 -0.98,1.177 -1.329,1.5 -0.349,0.322 -0.687,0.549 -1.015,0.679 -0.328,0.13 -0.763,0.196 -1.305,0.196 -0.489,0 -0.891,-0.063 -1.203,-0.188 l 0.625,-2.828 h 1.094 c 0.062,0.437 0.245,0.656 0.547,0.656 0.145,0 0.299,-0.039 0.461,-0.117 0.161,-0.078 0.393,-0.266 0.695,-0.563 0.302,-0.296 0.719,-0.763 1.25,-1.398 0.531,-0.635 1.302,-1.589 2.312,-2.859 -0.156,-0.823 -0.317,-1.615 -0.484,-2.375 -0.167,-0.761 -0.339,-1.469 -0.516,-2.125 -0.177,-0.657 -0.323,-1.086 -0.437,-1.289 -0.115,-0.204 -0.237,-0.344 -0.367,-0.422 -0.131,-0.078 -0.295,-0.117 -0.493,-0.117 -0.218,0 -0.416,0.049 -0.593,0.148 -0.177,0.099 -0.37,0.271 -0.578,0.516 -0.209,0.244 -0.485,0.627 -0.829,1.148 l -1.015,-0.672 c 0.656,-0.989 1.286,-1.729 1.89,-2.219 0.605,-0.489 1.318,-0.734 2.141,-0.734 z"
       fill-rule="evenodd"
       id="path179" />
    <text
       fill="#000000"
       fill-opacity="0"
       font-family="Arial, Arial_MSFontService, sans-serif"
       font-size="15.4531px"
       x="650.58801"
       y="525.58899"
       id="text181">­ЮЉЦ</text>
    <path
       d="m 670.349,524.293 c 0.431,0 0.771,0.142 1.02,0.426 0.25,0.283 0.375,0.654 0.375,1.112 0,0.362 -0.082,0.766 -0.246,1.21 l 0.123,0.041 c 0.67,-0.943 1.307,-1.642 1.912,-2.097 0.605,-0.454 1.229,-0.682 1.871,-0.682 0.636,0 1.125,0.183 1.467,0.549 0.341,0.366 0.512,0.873 0.512,1.523 0,0.43 -0.099,1.042 -0.297,1.835 l -0.667,2.687 c -0.184,0.745 -0.276,1.271 -0.276,1.579 0,0.273 0.044,0.471 0.133,0.594 0.089,0.123 0.229,0.185 0.42,0.185 0.205,0 0.424,-0.084 0.657,-0.251 0.232,-0.168 0.56,-0.487 0.984,-0.959 l 0.584,0.574 c -0.587,0.629 -1.1,1.089 -1.538,1.379 -0.437,0.291 -0.936,0.436 -1.497,0.436 -0.444,0 -0.8,-0.159 -1.066,-0.477 -0.267,-0.317 -0.4,-0.723 -0.4,-1.215 0,-0.444 0.113,-1.097 0.338,-1.958 l 0.452,-1.774 c 0.164,-0.643 0.271,-1.118 0.323,-1.425 0.051,-0.308 0.076,-0.558 0.076,-0.749 0,-0.472 -0.078,-0.812 -0.235,-1.02 -0.158,-0.209 -0.414,-0.313 -0.769,-0.313 -0.288,0 -0.597,0.115 -0.928,0.344 -0.332,0.229 -0.684,0.574 -1.057,1.035 -0.372,0.462 -0.671,0.909 -0.897,1.343 -0.225,0.435 -0.41,0.969 -0.554,1.605 l -0.974,4.44 h -1.774 l 1.498,-6.501 c 0.15,-0.656 0.225,-1.162 0.225,-1.517 0,-0.274 -0.044,-0.472 -0.133,-0.595 -0.089,-0.123 -0.229,-0.185 -0.421,-0.185 -0.212,0 -0.435,0.087 -0.671,0.262 -0.236,0.174 -0.559,0.49 -0.969,0.948 l -0.585,-0.574 c 0.629,-0.656 1.152,-1.123 1.569,-1.4 0.417,-0.276 0.889,-0.415 1.415,-0.415 z"
       fill-rule="evenodd"
       id="path183" />
    <text
       fill="#000000"
       fill-opacity="0"
       font-family="Arial, Arial_MSFontService, sans-serif"
       font-size="10.1411px"
       x="667.36499"
       y="533.16699"
       id="text185">­ЮЉЏ</text>
    <path
       d="m 681.552,505.942 h 16.312 l -1.219,5.5 h -1.5 c 0,-1.01 -0.026,-1.768 -0.078,-2.273 -0.052,-0.506 -0.151,-0.891 -0.297,-1.157 -0.146,-0.265 -0.325,-0.448 -0.539,-0.547 -0.213,-0.099 -0.591,-0.148 -1.133,-0.148 h -2.312 l -3.391,15.406 c -0.093,0.407 -0.159,0.729 -0.195,0.969 -0.036,0.24 -0.068,0.492 -0.094,0.758 -0.026,0.265 -0.039,0.502 -0.039,0.711 0,0.323 0.052,0.575 0.156,0.758 0.105,0.182 0.261,0.315 0.469,0.398 0.208,0.083 0.568,0.146 1.078,0.188 l -0.172,0.765 h -6.578 l 0.172,-0.765 c 0.417,-0.063 0.724,-0.146 0.922,-0.25 0.198,-0.105 0.372,-0.266 0.523,-0.485 0.152,-0.219 0.303,-0.562 0.454,-1.031 0.151,-0.469 0.33,-1.177 0.539,-2.125 l 3.343,-15.297 h -1.984 c -0.646,0 -1.161,0.094 -1.547,0.281 -0.385,0.188 -0.771,0.537 -1.156,1.047 -0.386,0.511 -0.854,1.365 -1.406,2.563 h -1.5 z"
       fill-rule="evenodd"
       id="path187" />
    <text
       fill="#000000"
       fill-opacity="0"
       font-family="Arial, Arial_MSFontService, sans-serif"
       font-size="21.3281px"
       x="680.38"
       y="524.604"
       id="text189">­ЮЉЄ</text>
    <path
       d="m 736.176,449.746 h 9.218 v 136.781 h -9.218 v -1.781 h 5.781 V 451.527 h -5.781 z m -28.294,0 h 9.218 v 1.781 h -5.781 v 133.219 h 5.781 v 1.781 h -9.218 z"
       fill-rule="evenodd"
       id="path191" />
    <path
       d="m 726.665,452.4 c -0.718,0 -1.32,0.214 -1.804,0.641 -0.485,0.427 -0.875,1.041 -1.172,1.844 -0.297,0.802 -0.508,1.778 -0.633,2.929 -0.125,1.151 -0.188,2.451 -0.188,3.899 0,3.395 0.316,5.888 0.946,7.476 0.63,1.589 1.606,2.383 2.929,2.383 1.261,0 2.196,-0.747 2.805,-2.242 0.609,-1.495 0.914,-3.81 0.914,-6.945 0,-2.396 -0.156,-4.336 -0.469,-5.821 -0.312,-1.484 -0.747,-2.549 -1.304,-3.195 -0.558,-0.646 -1.232,-0.969 -2.024,-0.969 z m 0.078,-1.328 c 2.282,0 3.98,0.88 5.094,2.641 1.115,1.76 1.672,4.422 1.672,7.984 0,3.688 -0.596,6.477 -1.789,8.367 -1.193,1.891 -2.935,2.836 -5.227,2.836 -2.25,0 -3.924,-0.885 -5.023,-2.656 -1.099,-1.771 -1.648,-4.458 -1.648,-8.063 0,-1.916 0.169,-3.573 0.507,-4.968 0.339,-1.396 0.813,-2.55 1.422,-3.461 0.61,-0.912 1.341,-1.586 2.196,-2.024 0.854,-0.437 1.786,-0.656 2.796,-0.656 z"
       fill-rule="evenodd"
       id="path193" />
    <text
       fill="#000000"
       fill-opacity="0"
       font-family="Arial, Arial_MSFontService, sans-serif"
       font-size="21.8281px"
       x="719.82202"
       y="470.172"
       id="text195">0</text>
    <path
       d="m 726.665,489.913 c -0.718,0 -1.32,0.214 -1.804,0.641 -0.485,0.427 -0.875,1.042 -1.172,1.844 -0.297,0.802 -0.508,1.778 -0.633,2.93 -0.125,1.151 -0.188,2.45 -0.188,3.898 0,3.396 0.316,5.888 0.946,7.477 0.63,1.588 1.606,2.382 2.929,2.382 1.261,0 2.196,-0.747 2.805,-2.242 0.609,-1.495 0.914,-3.81 0.914,-6.945 0,-2.396 -0.156,-4.336 -0.469,-5.82 -0.312,-1.485 -0.747,-2.55 -1.304,-3.196 -0.558,-0.646 -1.232,-0.969 -2.024,-0.969 z m 0.078,-1.328 c 2.282,0 3.98,0.881 5.094,2.641 1.115,1.76 1.672,4.422 1.672,7.984 0,3.688 -0.596,6.477 -1.789,8.368 -1.193,1.89 -2.935,2.835 -5.227,2.835 -2.25,0 -3.924,-0.885 -5.023,-2.656 -1.099,-1.771 -1.648,-4.458 -1.648,-8.062 0,-1.917 0.169,-3.573 0.507,-4.969 0.339,-1.396 0.813,-2.55 1.422,-3.461 0.61,-0.911 1.341,-1.586 2.196,-2.023 0.854,-0.438 1.786,-0.657 2.796,-0.657 z"
       fill-rule="evenodd"
       id="path197" />
    <text
       fill="#000000"
       fill-opacity="0"
       font-family="Arial, Arial_MSFontService, sans-serif"
       font-size="21.8281px"
       x="719.82202"
       y="507.685"
       id="text199">0</text>
    <path
       d="m 726.608,543.896 c 0.542,0 0.995,0.19 1.359,0.57 0.365,0.38 0.547,0.862 0.547,1.445 0,0.584 -0.182,1.065 -0.547,1.446 -0.364,0.38 -0.817,0.57 -1.359,0.57 -0.542,0 -0.995,-0.19 -1.359,-0.57 -0.365,-0.381 -0.547,-0.862 -0.547,-1.446 0,-0.583 0.182,-1.065 0.547,-1.445 0.364,-0.38 0.817,-0.57 1.359,-0.57 z m 0,-8.313 c 0.542,0 0.995,0.19 1.359,0.57 0.365,0.381 0.547,0.862 0.547,1.446 0,0.583 -0.182,1.065 -0.547,1.445 -0.364,0.38 -0.817,0.57 -1.359,0.57 -0.542,0 -0.995,-0.19 -1.359,-0.57 -0.365,-0.38 -0.547,-0.862 -0.547,-1.445 0,-0.584 0.182,-1.065 0.547,-1.446 0.364,-0.38 0.817,-0.57 1.359,-0.57 z m 0,-8.312 c 0.542,0 0.995,0.19 1.359,0.57 0.365,0.38 0.547,0.862 0.547,1.445 0,0.584 -0.182,1.065 -0.547,1.446 -0.364,0.38 -0.817,0.57 -1.359,0.57 -0.542,0 -0.995,-0.19 -1.359,-0.57 -0.365,-0.381 -0.547,-0.862 -0.547,-1.446 0,-0.583 0.182,-1.065 0.547,-1.445 0.364,-0.38 0.817,-0.57 1.359,-0.57 z"
       fill-rule="evenodd"
       id="path201" />
    <text
       fill="#000000"
       fill-opacity="0"
       font-family="Arial, Arial_MSFontService, sans-serif"
       font-size="20.6562px"
       x="724.70203"
       y="545.34497"
       id="text203">РІ«</text>
    <path
       d="m 727.9,563.612 h 0.859 c -0.062,1 -0.094,2.385 -0.094,4.156 v 13.344 c 0,0.604 0.034,1.06 0.102,1.367 0.068,0.307 0.187,0.557 0.359,0.75 0.172,0.193 0.419,0.344 0.742,0.453 0.323,0.11 0.73,0.193 1.219,0.25 0.49,0.058 1.136,0.097 1.938,0.117 v 1.141 h -11.547 v -1.141 c 1.156,-0.052 1.982,-0.122 2.476,-0.21 0.495,-0.089 0.873,-0.222 1.133,-0.399 0.261,-0.177 0.451,-0.427 0.57,-0.75 0.12,-0.323 0.18,-0.849 0.18,-1.578 V 568.44 c 0,-0.417 -0.073,-0.721 -0.219,-0.914 -0.145,-0.193 -0.359,-0.289 -0.64,-0.289 -0.334,0 -0.808,0.172 -1.422,0.516 -0.615,0.343 -1.375,0.817 -2.281,1.421 l -0.688,-1.203 z"
       fill-rule="evenodd"
       id="path205" />
    <text
       fill="#000000"
       fill-opacity="0"
       font-family="Arial, Arial_MSFontService, sans-serif"
       font-size="21.5781px"
       x="720.58698"
       y="582.49298"
       id="text207">1</text>
    <text
       font-family="Calibri, Calibri_MSFontService, sans-serif"
       font-weight="400"
       font-size="32px"
       transform="translate(756.126,527)"
       id="text209">=</text>
    <path
       d="m 781.558,505.942 h 16.313 l -1.219,5.5 h -1.5 c 0,-1.01 -0.026,-1.768 -0.078,-2.273 -0.052,-0.506 -0.151,-0.891 -0.297,-1.157 -0.146,-0.265 -0.326,-0.448 -0.539,-0.547 -0.214,-0.099 -0.591,-0.148 -1.133,-0.148 h -2.312 l -3.391,15.406 c -0.094,0.407 -0.159,0.729 -0.195,0.969 -0.037,0.24 -0.068,0.492 -0.094,0.758 -0.026,0.265 -0.039,0.502 -0.039,0.711 0,0.323 0.052,0.575 0.156,0.758 0.104,0.182 0.26,0.315 0.469,0.398 0.208,0.083 0.567,0.146 1.078,0.188 l -0.172,0.765 h -6.578 l 0.172,-0.765 c 0.416,-0.063 0.724,-0.146 0.922,-0.25 0.198,-0.105 0.372,-0.266 0.523,-0.485 0.151,-0.219 0.302,-0.562 0.453,-1.031 0.151,-0.469 0.331,-1.177 0.539,-2.125 l 3.344,-15.297 h -1.984 c -0.646,0 -1.162,0.094 -1.547,0.281 -0.386,0.188 -0.771,0.537 -1.156,1.047 -0.386,0.511 -0.855,1.365 -1.407,2.563 h -1.5 z"
       fill-rule="evenodd"
       id="path211" />
    <text
       fill="#000000"
       fill-opacity="0"
       font-family="Arial, Arial_MSFontService, sans-serif"
       font-size="21.3281px"
       x="780.38599"
       y="524.604"
       id="text213">­ЮЉЄ</text>
    <path
       d="m 849.196,449.746 h 9.218 v 136.781 h -9.218 v -1.781 h 5.781 V 451.527 h -5.781 z m -41.308,0 h 9.219 v 1.781 h -5.781 v 133.219 h 5.781 v 1.781 h -9.219 z"
       fill-rule="evenodd"
       id="path215" />
    <path
       d="m 824.424,459.127 c 0.323,0 0.607,0.036 0.852,0.109 0.245,0.073 0.461,0.185 0.648,0.336 0.188,0.151 0.355,0.347 0.5,0.586 0.146,0.24 0.287,0.565 0.422,0.977 0.136,0.411 0.263,0.922 0.383,1.531 0.12,0.609 0.227,1.242 0.32,1.899 h 0.157 c 1,-1.407 1.758,-2.435 2.273,-3.086 0.516,-0.651 0.951,-1.136 1.305,-1.454 0.354,-0.317 0.695,-0.541 1.023,-0.671 0.328,-0.131 0.763,-0.196 1.305,-0.196 0.49,0 0.891,0.063 1.203,0.188 l -0.625,2.828 h -1.094 c -0.062,-0.438 -0.244,-0.656 -0.547,-0.656 -0.093,0 -0.192,0.015 -0.296,0.047 -0.105,0.031 -0.232,0.098 -0.383,0.203 -0.151,0.104 -0.373,0.307 -0.664,0.609 -0.292,0.302 -0.62,0.672 -0.985,1.109 -0.364,0.438 -0.739,0.896 -1.125,1.375 l -1.062,1.329 c 0.187,1 0.364,1.864 0.531,2.593 0.167,0.729 0.315,1.336 0.445,1.821 0.131,0.484 0.245,0.867 0.344,1.148 0.099,0.281 0.206,0.492 0.32,0.633 0.115,0.14 0.232,0.239 0.352,0.297 0.12,0.057 0.258,0.086 0.414,0.086 0.281,0 0.555,-0.11 0.82,-0.328 0.266,-0.219 0.649,-0.714 1.149,-1.485 l 1.015,0.672 c -0.729,1.083 -1.388,1.846 -1.976,2.289 -0.589,0.443 -1.289,0.664 -2.102,0.664 -0.448,0 -0.828,-0.081 -1.14,-0.242 -0.313,-0.162 -0.584,-0.419 -0.813,-0.773 -0.229,-0.355 -0.432,-0.907 -0.609,-1.657 -0.323,-1.333 -0.521,-2.354 -0.594,-3.062 h -0.156 c -1.104,1.552 -1.925,2.666 -2.461,3.344 -0.537,0.677 -0.979,1.177 -1.328,1.5 -0.349,0.322 -0.688,0.549 -1.016,0.679 -0.328,0.13 -0.763,0.196 -1.305,0.196 -0.489,0 -0.89,-0.063 -1.203,-0.188 l 0.625,-2.828 h 1.094 c 0.063,0.437 0.245,0.656 0.547,0.656 0.146,0 0.299,-0.039 0.461,-0.117 0.161,-0.078 0.393,-0.266 0.695,-0.563 0.302,-0.296 0.719,-0.763 1.25,-1.398 0.531,-0.635 1.302,-1.589 2.313,-2.859 -0.157,-0.823 -0.318,-1.615 -0.485,-2.375 -0.166,-0.761 -0.338,-1.469 -0.515,-2.125 -0.177,-0.657 -0.323,-1.086 -0.438,-1.289 -0.114,-0.204 -0.237,-0.344 -0.367,-0.422 -0.13,-0.078 -0.294,-0.117 -0.492,-0.117 -0.219,0 -0.417,0.049 -0.594,0.148 -0.177,0.099 -0.37,0.271 -0.578,0.516 -0.208,0.244 -0.484,0.627 -0.828,1.148 l -1.016,-0.672 c 0.656,-0.989 1.287,-1.729 1.891,-2.219 0.604,-0.489 1.318,-0.734 2.14,-0.734 z"
       fill-rule="evenodd"
       id="path217" />
    <text
       fill="#000000"
       fill-opacity="0"
       font-family="Arial, Arial_MSFontService, sans-serif"
       font-size="15.4531px"
       x="818.72101"
       y="472.64801"
       id="text219">­ЮЉЦ</text>
    <path
       d="m 831.172,449.143 3.922,3.39 v 0.907 l -3.922,3.39 -0.828,-0.937 2.5,-2.172 h -9.531 v -1.469 h 9.531 l -2.5,-2.172 z"
       fill-rule="evenodd"
       id="path221" />
    <text
       fill="#000000"
       fill-opacity="0"
       font-family="Arial, Arial_MSFontService, sans-serif"
       font-size="7.6875px"
       x="823.31299"
       y="455.86899"
       id="text223">нд</text>
    <path
       d="m 842.843,467.169 h 0.564 c -0.041,0.657 -0.061,1.566 -0.061,2.728 v 8.757 c 0,0.396 0.022,0.695 0.066,0.897 0.045,0.202 0.123,0.366 0.236,0.492 0.113,0.127 0.275,0.226 0.487,0.298 0.212,0.071 0.479,0.126 0.8,0.164 0.321,0.037 0.745,0.063 1.272,0.077 v 0.748 h -7.578 v -0.748 c 0.759,-0.035 1.3,-0.081 1.625,-0.139 0.325,-0.058 0.573,-0.145 0.744,-0.261 0.17,-0.117 0.295,-0.281 0.374,-0.492 0.078,-0.212 0.118,-0.558 0.118,-1.036 v -8.316 c 0,-0.273 -0.048,-0.473 -0.144,-0.6 -0.096,-0.126 -0.236,-0.19 -0.42,-0.19 -0.219,0 -0.53,0.113 -0.933,0.339 -0.404,0.225 -0.903,0.536 -1.497,0.933 l -0.452,-0.79 z"
       fill-rule="evenodd"
       id="path225" />
    <text
       fill="#000000"
       fill-opacity="0"
       font-family="Arial, Arial_MSFontService, sans-serif"
       font-size="14.1606px"
       x="838.04401"
       y="479.56"
       id="text227">1</text>
    <path
       d="m 824.424,496.64 c 0.323,0 0.607,0.037 0.852,0.11 0.245,0.073 0.461,0.185 0.648,0.336 0.188,0.151 0.355,0.346 0.5,0.586 0.146,0.239 0.287,0.565 0.422,0.976 0.136,0.412 0.263,0.922 0.383,1.531 0.12,0.61 0.227,1.243 0.32,1.899 h 0.157 c 1,-1.406 1.758,-2.435 2.273,-3.086 0.516,-0.651 0.951,-1.135 1.305,-1.453 0.354,-0.318 0.695,-0.542 1.023,-0.672 0.328,-0.13 0.763,-0.195 1.305,-0.195 0.49,0 0.891,0.062 1.203,0.187 l -0.625,2.828 h -1.094 c -0.062,-0.437 -0.244,-0.656 -0.547,-0.656 -0.093,0 -0.192,0.016 -0.296,0.047 -0.105,0.031 -0.232,0.099 -0.383,0.203 -0.151,0.104 -0.373,0.307 -0.664,0.609 -0.292,0.302 -0.62,0.672 -0.985,1.11 -0.364,0.437 -0.739,0.896 -1.125,1.375 l -1.062,1.328 c 0.187,1 0.364,1.864 0.531,2.594 0.167,0.729 0.315,1.336 0.445,1.82 0.131,0.484 0.245,0.867 0.344,1.148 0.099,0.282 0.206,0.493 0.32,0.633 0.115,0.141 0.232,0.24 0.352,0.297 0.12,0.057 0.258,0.086 0.414,0.086 0.281,0 0.555,-0.109 0.82,-0.328 0.266,-0.219 0.649,-0.714 1.149,-1.485 l 1.015,0.672 c -0.729,1.084 -1.388,1.847 -1.976,2.289 -0.589,0.443 -1.289,0.664 -2.102,0.664 -0.448,0 -0.828,-0.08 -1.14,-0.242 -0.313,-0.161 -0.584,-0.419 -0.813,-0.773 -0.229,-0.354 -0.432,-0.906 -0.609,-1.656 -0.323,-1.334 -0.521,-2.355 -0.594,-3.063 h -0.156 c -1.104,1.552 -1.925,2.667 -2.461,3.344 -0.537,0.677 -0.979,1.177 -1.328,1.5 -0.349,0.323 -0.688,0.549 -1.016,0.68 -0.328,0.13 -0.763,0.195 -1.305,0.195 -0.489,0 -0.89,-0.063 -1.203,-0.188 l 0.625,-2.828 h 1.094 c 0.063,0.438 0.245,0.656 0.547,0.656 0.146,0 0.299,-0.039 0.461,-0.117 0.161,-0.078 0.393,-0.265 0.695,-0.562 0.302,-0.297 0.719,-0.763 1.25,-1.399 0.531,-0.635 1.302,-1.588 2.313,-2.859 -0.157,-0.823 -0.318,-1.615 -0.485,-2.375 -0.166,-0.76 -0.338,-1.469 -0.515,-2.125 -0.177,-0.656 -0.323,-1.086 -0.438,-1.289 -0.114,-0.203 -0.237,-0.344 -0.367,-0.422 -0.13,-0.078 -0.294,-0.117 -0.492,-0.117 -0.219,0 -0.417,0.049 -0.594,0.148 -0.177,0.099 -0.37,0.271 -0.578,0.516 -0.208,0.245 -0.484,0.628 -0.828,1.148 l -1.016,-0.672 c 0.656,-0.989 1.287,-1.729 1.891,-2.218 0.604,-0.49 1.318,-0.735 2.14,-0.735 z"
       fill-rule="evenodd"
       id="path229" />
    <text
       fill="#000000"
       fill-opacity="0"
       font-family="Arial, Arial_MSFontService, sans-serif"
       font-size="15.4531px"
       x="818.72101"
       y="510.16199"
       id="text231">­ЮЉЦ</text>
    <path
       d="m 831.172,486.656 3.922,3.391 v 0.906 l -3.922,3.39 -0.828,-0.937 2.5,-2.172 h -9.531 v -1.469 h 9.531 l -2.5,-2.172 z"
       fill-rule="evenodd"
       id="path233" />
    <text
       fill="#000000"
       fill-opacity="0"
       font-family="Arial, Arial_MSFontService, sans-serif"
       font-size="7.6875px"
       x="823.31299"
       y="493.383"
       id="text235">нд</text>
    <path
       d="m 842.115,504.683 c 1.272,0 2.232,0.278 2.882,0.835 0.649,0.558 0.974,1.366 0.974,2.426 0,0.362 -0.036,0.695 -0.108,0.999 -0.072,0.304 -0.185,0.605 -0.338,0.903 -0.154,0.297 -0.361,0.617 -0.621,0.958 -0.259,0.342 -0.547,0.689 -0.861,1.041 -0.314,0.352 -0.858,0.938 -1.63,1.759 -1.299,1.374 -2.253,2.573 -2.861,3.599 h 3.865 c 0.335,0 0.605,-0.021 0.811,-0.062 0.205,-0.041 0.369,-0.109 0.492,-0.205 0.123,-0.095 0.22,-0.22 0.292,-0.374 0.072,-0.154 0.162,-0.391 0.272,-0.713 h 0.871 l -0.174,2.994 h -8.439 v -0.492 c 0.294,-0.718 0.69,-1.452 1.189,-2.204 0.499,-0.752 1.207,-1.638 2.123,-2.656 0.793,-0.875 1.364,-1.538 1.712,-1.989 0.383,-0.493 0.669,-0.918 0.857,-1.277 0.188,-0.359 0.323,-0.697 0.405,-1.015 0.082,-0.318 0.123,-0.638 0.123,-0.959 0,-0.513 -0.082,-0.965 -0.246,-1.358 -0.164,-0.394 -0.416,-0.703 -0.754,-0.928 -0.338,-0.226 -0.764,-0.339 -1.277,-0.339 -1.278,0 -2.139,0.711 -2.584,2.133 h -1.24 v -1.969 c 0.827,-0.389 1.601,-0.671 2.322,-0.846 0.721,-0.174 1.369,-0.261 1.943,-0.261 z"
       fill-rule="evenodd"
       id="path237" />
    <text
       fill="#000000"
       fill-opacity="0"
       font-family="Arial, Arial_MSFontService, sans-serif"
       font-size="14.1606px"
       x="837.54199"
       y="517.073"
       id="text239">2</text>
    <path
       d="m 833.121,545.576 c 0.542,0 0.995,0.19 1.36,0.57 0.364,0.38 0.547,0.862 0.547,1.445 0,0.583 -0.183,1.065 -0.547,1.445 -0.365,0.381 -0.818,0.571 -1.36,0.571 -0.541,0 -0.994,-0.19 -1.359,-0.571 -0.365,-0.38 -0.547,-0.862 -0.547,-1.445 0,-0.583 0.182,-1.065 0.547,-1.445 0.365,-0.38 0.818,-0.57 1.359,-0.57 z m 0,-8.313 c 0.542,0 0.995,0.19 1.36,0.57 0.364,0.381 0.547,0.862 0.547,1.446 0,0.583 -0.183,1.065 -0.547,1.445 -0.365,0.38 -0.818,0.57 -1.36,0.57 -0.541,0 -0.994,-0.19 -1.359,-0.57 -0.365,-0.38 -0.547,-0.862 -0.547,-1.445 0,-0.584 0.182,-1.065 0.547,-1.446 0.365,-0.38 0.818,-0.57 1.359,-0.57 z m 0,-8.312 c 0.542,0 0.995,0.19 1.36,0.57 0.364,0.38 0.547,0.862 0.547,1.445 0,0.583 -0.183,1.065 -0.547,1.445 -0.365,0.381 -0.818,0.571 -1.36,0.571 -0.541,0 -0.994,-0.19 -1.359,-0.571 -0.365,-0.38 -0.547,-0.862 -0.547,-1.445 0,-0.583 0.182,-1.065 0.547,-1.445 0.365,-0.38 0.818,-0.57 1.359,-0.57 z"
       fill-rule="evenodd"
       id="path241" />
    <text
       fill="#000000"
       fill-opacity="0"
       font-family="Arial, Arial_MSFontService, sans-serif"
       font-size="20.6562px"
       x="831.21503"
       y="547.02502"
       id="text243">РІ«</text>
    <path
       d="m 823.984,571.667 c 0.323,0 0.607,0.036 0.852,0.109 0.245,0.073 0.461,0.185 0.648,0.336 0.188,0.151 0.355,0.347 0.5,0.586 0.146,0.24 0.287,0.565 0.422,0.977 0.136,0.411 0.263,0.922 0.383,1.531 0.12,0.609 0.227,1.242 0.32,1.898 h 0.157 c 1,-1.406 1.757,-2.434 2.273,-3.085 0.516,-0.652 0.951,-1.136 1.305,-1.454 0.354,-0.317 0.695,-0.541 1.023,-0.671 0.328,-0.131 0.763,-0.196 1.305,-0.196 0.489,0 0.891,0.063 1.203,0.188 l -0.625,2.828 h -1.094 c -0.062,-0.438 -0.245,-0.656 -0.547,-0.656 -0.093,0 -0.192,0.015 -0.296,0.046 -0.105,0.032 -0.232,0.099 -0.383,0.204 -0.151,0.104 -0.373,0.307 -0.664,0.609 -0.292,0.302 -0.62,0.672 -0.985,1.109 -0.364,0.438 -0.739,0.896 -1.125,1.375 l -1.062,1.328 c 0.187,1 0.364,1.865 0.531,2.594 0.167,0.729 0.315,1.336 0.445,1.821 0.131,0.484 0.245,0.867 0.344,1.148 0.099,0.281 0.206,0.492 0.32,0.633 0.115,0.14 0.232,0.239 0.352,0.297 0.12,0.057 0.258,0.086 0.414,0.086 0.281,0 0.555,-0.11 0.82,-0.329 0.266,-0.218 0.649,-0.713 1.149,-1.484 l 1.015,0.672 c -0.729,1.083 -1.388,1.846 -1.976,2.289 -0.589,0.443 -1.289,0.664 -2.102,0.664 -0.448,0 -0.828,-0.081 -1.14,-0.242 -0.313,-0.162 -0.584,-0.419 -0.813,-0.774 -0.229,-0.354 -0.432,-0.906 -0.609,-1.656 -0.323,-1.333 -0.521,-2.354 -0.594,-3.062 h -0.156 c -1.104,1.552 -1.925,2.666 -2.461,3.343 -0.537,0.678 -0.979,1.178 -1.328,1.5 -0.349,0.323 -0.688,0.55 -1.016,0.68 -0.328,0.13 -0.763,0.195 -1.305,0.195 -0.489,0 -0.89,-0.062 -1.203,-0.187 l 0.625,-2.828 H 820 c 0.063,0.437 0.245,0.656 0.547,0.656 0.146,0 0.299,-0.039 0.461,-0.117 0.161,-0.078 0.393,-0.266 0.695,-0.563 0.302,-0.296 0.719,-0.763 1.25,-1.398 0.531,-0.635 1.302,-1.589 2.313,-2.859 -0.157,-0.823 -0.318,-1.615 -0.485,-2.375 -0.166,-0.761 -0.338,-1.469 -0.515,-2.125 -0.177,-0.657 -0.323,-1.086 -0.438,-1.289 -0.114,-0.204 -0.237,-0.344 -0.367,-0.422 -0.13,-0.078 -0.294,-0.118 -0.492,-0.118 -0.219,0 -0.417,0.05 -0.594,0.149 -0.177,0.099 -0.37,0.271 -0.578,0.516 -0.208,0.244 -0.484,0.627 -0.828,1.148 l -1.016,-0.672 c 0.656,-0.989 1.287,-1.729 1.891,-2.219 0.604,-0.489 1.317,-0.734 2.14,-0.734 z"
       fill-rule="evenodd"
       id="path245" />
    <text
       fill="#000000"
       fill-opacity="0"
       font-family="Arial, Arial_MSFontService, sans-serif"
       font-size="15.4531px"
       x="818.28101"
       y="585.18799"
       id="text247">­ЮЉЦ</text>
    <path
       d="m 830.732,561.683 3.922,3.39 v 0.906 l -3.922,3.391 -0.828,-0.937 2.5,-2.172 h -9.531 v -1.469 h 9.531 l -2.5,-2.172 z"
       fill-rule="evenodd"
       id="path249" />
    <text
       fill="#000000"
       fill-opacity="0"
       font-family="Arial, Arial_MSFontService, sans-serif"
       font-size="7.6875px"
       x="822.87299"
       y="568.409"
       id="text251">нд</text>
    <path
       d="m 839.009,583.893 c 0.431,0 0.771,0.142 1.02,0.426 0.25,0.283 0.375,0.654 0.375,1.112 0,0.362 -0.082,0.766 -0.246,1.21 l 0.123,0.041 c 0.67,-0.943 1.307,-1.642 1.912,-2.097 0.605,-0.454 1.229,-0.682 1.871,-0.682 0.636,0 1.125,0.183 1.467,0.549 0.341,0.366 0.512,0.873 0.512,1.523 0,0.43 -0.099,1.042 -0.297,1.835 l -0.666,2.687 c -0.185,0.745 -0.277,1.271 -0.277,1.579 0,0.273 0.044,0.471 0.133,0.594 0.089,0.123 0.229,0.185 0.42,0.185 0.205,0 0.424,-0.084 0.657,-0.251 0.232,-0.168 0.56,-0.487 0.984,-0.959 l 0.584,0.574 c -0.587,0.629 -1.1,1.089 -1.538,1.379 -0.437,0.291 -0.936,0.436 -1.497,0.436 -0.444,0 -0.799,-0.159 -1.066,-0.477 -0.267,-0.317 -0.4,-0.723 -0.4,-1.215 0,-0.444 0.113,-1.097 0.338,-1.958 l 0.452,-1.774 c 0.164,-0.643 0.271,-1.118 0.323,-1.425 0.051,-0.308 0.076,-0.558 0.076,-0.749 0,-0.472 -0.078,-0.812 -0.235,-1.02 -0.158,-0.209 -0.414,-0.313 -0.769,-0.313 -0.288,0 -0.597,0.115 -0.928,0.344 -0.332,0.229 -0.684,0.574 -1.057,1.035 -0.372,0.462 -0.671,0.909 -0.897,1.343 -0.225,0.435 -0.41,0.969 -0.553,1.605 l -0.975,4.44 h -1.774 l 1.498,-6.501 c 0.15,-0.656 0.225,-1.162 0.225,-1.517 0,-0.274 -0.044,-0.472 -0.133,-0.595 -0.089,-0.123 -0.229,-0.185 -0.421,-0.185 -0.211,0 -0.435,0.087 -0.671,0.262 -0.236,0.174 -0.559,0.49 -0.969,0.948 l -0.585,-0.574 c 0.629,-0.656 1.152,-1.123 1.569,-1.4 0.417,-0.277 0.889,-0.415 1.415,-0.415 z"
       fill-rule="evenodd"
       id="path253" />
    <text
       fill="#000000"
       fill-opacity="0"
       font-family="Arial, Arial_MSFontService, sans-serif"
       font-size="10.1411px"
       x="836.02502"
       y="592.76703"
       id="text255">­ЮЉЏ</text>
    <path
       d="m 869.359,520.192 h 11.813 c 0.187,0 0.333,0.089 0.437,0.266 0.105,0.177 0.157,0.458 0.157,0.843 0,0.417 -0.06,0.704 -0.18,0.86 -0.12,0.156 -0.258,0.234 -0.414,0.234 h -11.813 c -0.156,0 -0.291,-0.078 -0.406,-0.234 -0.114,-0.156 -0.172,-0.443 -0.172,-0.86 0,-0.385 0.052,-0.666 0.157,-0.843 0.104,-0.177 0.244,-0.266 0.421,-0.266 z m 0,-6.062 h 11.813 c 0.187,0 0.333,0.088 0.437,0.265 0.105,0.177 0.157,0.453 0.157,0.828 0,0.417 -0.06,0.706 -0.18,0.867 -0.12,0.162 -0.258,0.243 -0.414,0.243 h -11.813 c -0.156,0 -0.291,-0.081 -0.406,-0.243 -0.114,-0.161 -0.172,-0.45 -0.172,-0.867 0,-0.375 0.052,-0.651 0.157,-0.828 0.104,-0.177 0.244,-0.265 0.421,-0.265 z"
       fill-rule="evenodd"
       id="path257" />
    <text
       fill="#000000"
       fill-opacity="0"
       font-family="Arial, Arial_MSFontService, sans-serif"
       font-size="8.26562px"
       x="868.78101"
       y="521.362"
       id="text259">=</text>
    <path
       d="m 892.578,505.942 h 16.313 l -1.219,5.5 h -1.5 c 0,-1.01 -0.026,-1.768 -0.078,-2.273 -0.052,-0.506 -0.151,-0.891 -0.297,-1.157 -0.146,-0.265 -0.326,-0.448 -0.539,-0.547 -0.214,-0.099 -0.591,-0.148 -1.133,-0.148 h -2.312 l -3.391,15.406 c -0.094,0.407 -0.159,0.729 -0.195,0.969 -0.037,0.24 -0.068,0.492 -0.094,0.758 -0.026,0.265 -0.039,0.502 -0.039,0.711 0,0.323 0.052,0.575 0.156,0.758 0.104,0.182 0.26,0.315 0.469,0.398 0.208,0.083 0.567,0.146 1.078,0.188 l -0.172,0.765 h -6.578 l 0.172,-0.765 c 0.416,-0.063 0.724,-0.146 0.922,-0.25 0.198,-0.105 0.372,-0.266 0.523,-0.485 0.151,-0.219 0.302,-0.562 0.453,-1.031 0.151,-0.469 0.331,-1.177 0.539,-2.125 L 899,507.317 h -1.984 c -0.646,0 -1.162,0.094 -1.547,0.281 -0.386,0.188 -0.771,0.537 -1.156,1.047 -0.386,0.511 -0.855,1.365 -1.407,2.563 h -1.5 z"
       fill-rule="evenodd"
       id="path261" />
    <text
       fill="#000000"
       fill-opacity="0"
       font-family="Arial, Arial_MSFontService, sans-serif"
       font-size="21.3281px"
       x="891.40601"
       y="524.604"
       id="text263">­ЮЉЄ</text>
    <path
       d="m 942.275,503.312 c 3.042,0.802 5.377,2.534 7.008,5.195 1.63,2.662 2.445,5.873 2.445,9.633 0,3.771 -0.812,6.982 -2.437,9.633 -1.625,2.651 -3.964,4.378 -7.016,5.18 L 941.9,531.75 c 2.406,-0.803 4.195,-2.386 5.367,-4.75 1.172,-2.365 1.758,-5.37 1.758,-9.016 0,-3.521 -0.583,-6.445 -1.75,-8.774 -1.167,-2.328 -2.974,-3.893 -5.422,-4.695 z m -19.997,0 0.422,1.203 c -2.437,0.802 -4.242,2.367 -5.414,4.695 -1.172,2.329 -1.758,5.253 -1.758,8.774 0,3.646 0.586,6.651 1.758,9.016 1.172,2.364 2.961,3.947 5.367,4.75 l -0.375,1.203 c -3.052,-0.802 -5.39,-2.529 -7.015,-5.18 -1.625,-2.651 -2.438,-5.862 -2.438,-9.633 0,-3.76 0.815,-6.971 2.445,-9.633 1.631,-2.661 3.967,-4.393 7.008,-5.195 z"
       fill-rule="evenodd"
       id="path265" />
    <path
       d="m 929.464,512.067 c 0.323,0 0.607,0.036 0.852,0.109 0.245,0.073 0.461,0.185 0.648,0.336 0.188,0.151 0.355,0.347 0.5,0.586 0.146,0.24 0.287,0.565 0.422,0.977 0.136,0.411 0.263,0.922 0.383,1.531 0.12,0.609 0.227,1.242 0.32,1.899 h 0.157 c 1,-1.407 1.757,-2.435 2.273,-3.086 0.516,-0.651 0.951,-1.136 1.305,-1.454 0.354,-0.317 0.695,-0.541 1.023,-0.671 0.328,-0.131 0.763,-0.196 1.305,-0.196 0.489,0 0.891,0.063 1.203,0.188 l -0.625,2.828 h -1.094 c -0.062,-0.438 -0.245,-0.656 -0.547,-0.656 -0.093,0 -0.192,0.015 -0.296,0.047 -0.105,0.031 -0.232,0.098 -0.383,0.203 -0.151,0.104 -0.373,0.307 -0.664,0.609 -0.292,0.302 -0.62,0.672 -0.985,1.109 -0.364,0.438 -0.739,0.896 -1.125,1.375 l -1.062,1.329 c 0.187,1 0.364,1.864 0.531,2.593 0.167,0.729 0.315,1.336 0.445,1.821 0.131,0.484 0.245,0.867 0.344,1.148 0.099,0.281 0.206,0.492 0.32,0.633 0.115,0.14 0.232,0.239 0.352,0.297 0.12,0.057 0.258,0.086 0.414,0.086 0.281,0 0.555,-0.11 0.82,-0.328 0.266,-0.219 0.649,-0.714 1.149,-1.485 l 1.015,0.672 c -0.729,1.083 -1.388,1.846 -1.976,2.289 -0.589,0.443 -1.289,0.664 -2.102,0.664 -0.448,0 -0.828,-0.081 -1.14,-0.242 -0.313,-0.161 -0.584,-0.419 -0.813,-0.773 -0.229,-0.355 -0.432,-0.907 -0.609,-1.657 -0.323,-1.333 -0.521,-2.354 -0.594,-3.062 h -0.156 c -1.104,1.552 -1.925,2.666 -2.461,3.344 -0.537,0.677 -0.979,1.177 -1.328,1.5 -0.349,0.322 -0.688,0.549 -1.016,0.679 -0.328,0.13 -0.763,0.196 -1.305,0.196 -0.489,0 -0.89,-0.063 -1.203,-0.188 l 0.625,-2.828 h 1.094 c 0.063,0.437 0.245,0.656 0.547,0.656 0.146,0 0.299,-0.039 0.461,-0.117 0.161,-0.078 0.393,-0.266 0.695,-0.563 0.302,-0.296 0.719,-0.763 1.25,-1.398 0.531,-0.635 1.302,-1.589 2.313,-2.859 -0.157,-0.823 -0.318,-1.615 -0.485,-2.375 -0.166,-0.761 -0.338,-1.469 -0.515,-2.125 -0.177,-0.657 -0.323,-1.086 -0.438,-1.289 -0.114,-0.204 -0.237,-0.344 -0.367,-0.422 -0.13,-0.078 -0.294,-0.117 -0.492,-0.117 -0.219,0 -0.417,0.049 -0.594,0.148 -0.177,0.099 -0.37,0.271 -0.578,0.516 -0.208,0.244 -0.484,0.627 -0.828,1.148 l -1.016,-0.672 c 0.656,-0.989 1.287,-1.729 1.891,-2.219 0.604,-0.489 1.317,-0.734 2.14,-0.734 z"
       fill-rule="evenodd"
       id="path267" />
    <text
       fill="#000000"
       fill-opacity="0"
       font-family="Arial, Arial_MSFontService, sans-serif"
       font-size="15.4531px"
       x="923.76099"
       y="525.58899"
       id="text269">­ЮЉЦ</text>
    <path
       d="m 936.212,502.083 3.922,3.39 v 0.907 l -3.922,3.39 -0.828,-0.937 2.5,-2.172 h -9.531 v -1.469 h 9.531 l -2.5,-2.172 z"
       fill-rule="evenodd"
       id="path271" />
    <text
       fill="#000000"
       fill-opacity="0"
       font-family="Arial, Arial_MSFontService, sans-serif"
       font-size="7.6875px"
       x="928.35303"
       y="508.80899"
       id="text273">нд</text>
    <path
       d="m 235,223 c 0,-17.121 13.431,-31 30,-31 16.569,0 30,13.879 30,31 0,17.121 -13.431,31 -30,31 -16.569,0 -30,-13.879 -30,-31 z"
       fill="#fff2cc"
       fill-rule="evenodd"
       id="path275" />
    <path
       d="m 347,223 c 0,-17.121 15.222,-31 34,-31 18.778,0 34,13.879 34,31 0,17.121 -15.222,31 -34,31 -18.778,0 -34,-13.879 -34,-31 z"
       fill="#fbe5d6"
       fill-rule="evenodd"
       id="path277" />
    <text
       font-family="Calibri, Calibri_MSFontService, sans-serif"
       font-weight="400"
       font-size="48px"
       transform="translate(198.972,239)"
       id="text289">T: <tspan
   fill="#c00000"
   font-family="Cambria, Cambria_MSFontService, sans-serif"
   font-size="48px"
   x="43.860001"
   y="0"
   id="tspan279">R</tspan><tspan
   fill="#c00000"
   font-family="Cambria, Cambria_MSFontService, sans-serif"
   font-size="32px"
   x="73.693298"
   y="-14"
   id="tspan281">n</tspan><tspan
   font-family="'Cambria Math', 'Cambria Math_MSFontService', sans-serif"
   font-size="48px"
   x="102.36"
   y="0"
   id="tspan283">Рєњ</tspan><tspan
   fill="#c00000"
   font-family="Cambria, Cambria_MSFontService, sans-serif"
   font-size="48px"
   x="153.36"
   y="0"
   id="tspan285">R</tspan><tspan
   fill="#c00000"
   font-family="Cambria, Cambria_MSFontService, sans-serif"
   font-size="32px"
   x="183.19299"
   y="-14"
   id="tspan287">m</tspan></text>
    <path
       d="m 416,312.5 c 0,-16.845 11.864,-30.5 26.5,-30.5 14.636,0 26.5,13.655 26.5,30.5 0,16.845 -11.864,30.5 -26.5,30.5 -14.636,0 -26.5,-13.655 -26.5,-30.5 z"
       fill="#dae3f3"
       fill-rule="evenodd"
       id="path291" />
    <text
       font-family="Calibri, Calibri_MSFontService, sans-serif"
       font-weight="400"
       font-size="48px"
       transform="translate(198.972,328)"
       id="text295">T(<tspan
   font-family="'Cambria Math', 'Cambria Math_MSFontService', sans-serif"
   font-size="48px"
   x="37.833302"
   y="0"
   id="tspan293">­ЮЉЦ</tspan></text>
    <path
       d="m 17.6719,-31.3359 -5.8828,5.0859 -1.2422,-1.4062 3.75,-3.2579 H 0 v -2.2031 h 14.2969 l -3.75,-3.2578 1.2422,-1.4062 5.8828,5.0859 z"
       transform="translate(244.398,328)"
       id="path297" />
    <text
       font-family="Calibri, Calibri_MSFontService, sans-serif"
       font-weight="400"
       font-size="48px"
       transform="translate(263.758,328)"
       id="text301">) = A<tspan
   font-family="'Cambria Math', 'Cambria Math_MSFontService', sans-serif"
   font-size="48px"
   x="87.833298"
   y="0"
   id="tspan299">­ЮЉЦ</tspan></text>
    <path
       d="m 17.6719,-31.3359 -5.8828,5.0859 -1.2422,-1.4062 3.75,-3.2579 H 0 v -2.2031 h 14.2969 l -3.75,-3.2578 1.2422,-1.4062 5.8828,5.0859 z"
       transform="translate(359.185,328)"
       id="path303" />
    <text
       font-family="Calibri, Calibri_MSFontService, sans-serif"
       font-weight="400"
       font-size="48px"
       transform="translate(389.378,328)"
       id="text307">= <tspan
   font-family="'Cambria Math', 'Cambria Math_MSFontService', sans-serif"
   font-size="48px"
   x="34.666698"
   y="0"
   id="tspan305">­ЮЉц</tspan></text>
    <path
       d="m 453.654,290.505 5.883,5.086 v 1.359 l -5.883,5.086 -1.242,-1.406 3.75,-3.258 h -9.634 -4.663 -1.551 -7.849 -6.213 v -2.203 h 6.213 7.849 1.551 4.663 9.634 l -3.75,-3.258 z"
       fill-rule="evenodd"
       id="path309" />
    <text
       fill="#385723"
       font-family="'Cambria Math', 'Cambria Math_MSFontService', sans-serif"
       font-weight="400"
       font-size="24px"
       transform="translate(675.394,237)"
       id="text313">­ЮЉњ<tspan
   font-size="16px"
   x="11.8333"
   y="5"
   id="tspan311">1</tspan></text>
    <path
       d="m 693.115,217.711 2.942,2.543 v 0.68 l -2.942,2.543 -0.621,-0.703 1.875,-1.629 h -4.81 -2.338 -1.222 -3.471 -0.096 -3.464 -3.567 v -1.101 h 3.567 3.464 0.096 3.471 1.222 2.338 4.81 l -1.875,-1.629 z"
       fill="#385723"
       fill-rule="evenodd"
       id="path315" />
    <text
       fill="#385723"
       font-family="'Cambria Math', 'Cambria Math_MSFontService', sans-serif"
       font-weight="400"
       font-size="24px"
       transform="translate(776.793,237)"
       id="text319">­ЮЉњ<tspan
   font-size="16px"
   x="11.8333"
   y="5"
   id="tspan317">2</tspan></text>
    <path
       d="m 794.515,217.711 2.941,2.543 v 0.68 l -2.941,2.543 -0.622,-0.703 1.875,-1.629 h -4.81 -2.338 -1.222 -3.471 -0.096 -3.464 -3.567 v -1.101 h 3.567 3.464 0.096 3.471 1.222 2.338 4.81 l -1.875,-1.629 z"
       fill="#385723"
       fill-rule="evenodd"
       id="path321" />
    <text
       fill="#385723"
       font-family="'Cambria Math', 'Cambria Math_MSFontService', sans-serif"
       font-weight="400"
       font-size="24px"
       transform="translate(927.433,237)"
       id="text325">­ЮЉњ<tspan
   font-size="16px"
   x="11.8333"
   y="5"
   id="tspan323">­ЮЉЏ</tspan></text>
    <path
       d="m 945.487,217.711 2.942,2.543 v 0.68 l -2.942,2.543 -0.621,-0.703 1.875,-1.629 h -4.81 -2.338 -1.389 -3.304 -0.429 -3.298 -3.733 v -1.101 h 3.733 3.298 0.429 3.304 1.389 2.338 4.81 l -1.875,-1.629 z"
       fill="#385723"
       fill-rule="evenodd"
       id="path327" />
    <text
       font-family="Calibri, Calibri_MSFontService, sans-serif"
       font-weight="400"
       font-size="37px"
       transform="translate(566.197,186)"
       id="text335">A<tspan
   fill="#ffffff"
   font-size="11px"
   x="21.666599"
   y="0"
   id="tspan329">i</tspan><tspan
   font-size="25px"
   x="24.166599"
   y="8"
   id="tspan331">T</tspan><tspan
   font-size="32px"
   x="50.666599"
   y="0"
   id="tspan333">=</tspan></text>
    <path
       d="m 1003.83,162.07 h 6.97 v 29.797 h -6.97 v -1.203 h 4.37 v -27.391 h -4.37 z m -353.07,0 h 6.969 v 1.203 h -4.375 v 27.391 h 4.375 v 1.203 h -6.969 z"
       fill-rule="evenodd"
       id="path337" />
    <text
       font-family="'Cambria Math', 'Cambria Math_MSFontService', sans-serif"
       font-weight="400"
       font-size="32px"
       transform="translate(658.397,187)"
       id="text339">­ЮЉЄ</text>
    <path
       d="m 720.76,162.766 c 3.041,0.802 5.377,2.534 7.008,5.196 1.63,2.661 2.445,5.872 2.445,9.632 0,3.771 -0.813,6.982 -2.438,9.633 -1.625,2.651 -3.963,4.378 -7.015,5.18 l -0.375,-1.203 c 2.406,-0.802 4.195,-2.386 5.367,-4.75 1.172,-2.365 1.758,-5.37 1.758,-9.016 0,-3.521 -0.584,-6.445 -1.75,-8.773 -1.167,-2.328 -2.974,-3.894 -5.422,-4.696 z m -30.397,0 0.422,1.203 c -2.438,0.802 -4.242,2.368 -5.414,4.696 -1.172,2.328 -1.758,5.252 -1.758,8.773 0,3.646 0.586,6.651 1.758,9.016 1.172,2.364 2.961,3.948 5.367,4.75 l -0.375,1.203 c -3.052,-0.802 -5.391,-2.529 -7.016,-5.18 -1.625,-2.651 -2.437,-5.862 -2.437,-9.633 0,-3.76 0.815,-6.971 2.445,-9.632 1.63,-2.662 3.966,-4.394 7.008,-5.196 z"
       fill-rule="evenodd"
       id="path341" />
    <text
       font-family="'Cambria Math', 'Cambria Math_MSFontService', sans-serif"
       font-weight="400"
       font-size="32px"
       transform="translate(691.377,187)"
       id="text343">­ЮЉњ</text>
    <path
       d="m 11.7812,-20.8906 -3.92182,3.3906 -0.82813,-0.9375 2.5,-2.1719 H 0 v -1.4687 h 9.53125 l -2.5,-2.1719 0.82813,-0.9375 3.92182,3.3906 z"
       transform="translate(696.004,187)"
       id="path345" />
    <text
       font-family="'Cambria Math', 'Cambria Math_MSFontService', sans-serif"
       font-weight="400"
       font-size="21px"
       transform="translate(707.911,194)"
       id="text349">1<tspan
   font-size="32px"
   x="57.1133"
   y="-7"
   id="tspan347">­ЮЉЄ</tspan></text>
    <path
       d="m 827.386,162.766 c 3.042,0.802 5.378,2.534 7.008,5.196 1.63,2.661 2.445,5.872 2.445,9.632 0,3.771 -0.812,6.982 -2.437,9.633 -1.625,2.651 -3.964,4.378 -7.016,5.18 l -0.375,-1.203 c 2.407,-0.802 4.196,-2.386 5.368,-4.75 1.171,-2.365 1.757,-5.37 1.757,-9.016 0,-3.521 -0.583,-6.445 -1.75,-8.773 -1.166,-2.328 -2.974,-3.894 -5.422,-4.696 z m -30.396,0 0.422,1.203 c -2.438,0.802 -4.243,2.368 -5.415,4.696 -1.171,2.328 -1.757,5.252 -1.757,8.773 0,3.646 0.586,6.651 1.757,9.016 1.172,2.364 2.961,3.948 5.368,4.75 l -0.375,1.203 c -3.052,-0.802 -5.391,-2.529 -7.016,-5.18 -1.625,-2.651 -2.437,-5.862 -2.437,-9.633 0,-3.76 0.815,-6.971 2.445,-9.632 1.63,-2.662 3.966,-4.394 7.008,-5.196 z"
       fill-rule="evenodd"
       id="path351" />
    <text
       font-family="'Cambria Math', 'Cambria Math_MSFontService', sans-serif"
       font-weight="400"
       font-size="32px"
       transform="translate(798.004,187)"
       id="text353">­ЮЉњ</text>
    <path
       d="m 11.7812,-20.8906 -3.92182,3.3906 -0.82813,-0.9375 2.5,-2.1719 H 0 v -1.4687 h 9.53125 l -2.5,-2.1719 0.82813,-0.9375 3.92182,3.3906 z"
       transform="translate(802.631,187)"
       id="path355" />
    <text
       font-family="'Cambria Math', 'Cambria Math_MSFontService', sans-serif"
       font-weight="400"
       font-size="21px"
       transform="translate(814.537,194)"
       id="text361">2<tspan
   font-size="32px"
   x="57.1133"
   y="-7"
   id="tspan357">Рђд</tspan><tspan
   font-size="32px"
   x="113.113"
   y="-7"
   id="tspan359">­ЮЉЄ</tspan></text>
    <path
       d="m 990.893,162.766 c 3.042,0.802 5.378,2.534 7.008,5.196 1.63,2.661 2.449,5.872 2.449,9.632 0,3.771 -0.816,6.982 -2.441,9.633 -1.625,2.651 -3.964,4.378 -7.016,5.18 l -0.375,-1.203 c 2.406,-0.802 4.195,-2.386 5.367,-4.75 1.172,-2.365 1.758,-5.37 1.758,-9.016 0,-3.521 -0.583,-6.445 -1.75,-8.773 -1.167,-2.328 -2.974,-3.894 -5.422,-4.696 z m -31.277,0 0.422,1.203 c -2.437,0.802 -4.242,2.368 -5.414,4.696 -1.172,2.328 -1.758,5.252 -1.758,8.773 0,3.646 0.586,6.651 1.758,9.016 1.172,2.364 2.961,3.948 5.367,4.75 l -0.375,1.203 c -3.052,-0.802 -5.39,-2.529 -7.015,-5.18 -1.625,-2.651 -2.438,-5.862 -2.438,-9.633 0,-3.76 0.815,-6.971 2.446,-9.632 1.63,-2.662 3.966,-4.394 7.007,-5.196 z"
       fill-rule="evenodd"
       id="path363" />
    <text
       font-family="'Cambria Math', 'Cambria Math_MSFontService', sans-serif"
       font-weight="400"
       font-size="32px"
       transform="translate(960.631,187)"
       id="text365">­ЮЉњ</text>
    <path
       d="m 11.7812,-20.8906 -3.92182,3.3906 -0.82813,-0.9375 2.5,-2.1719 H 0 v -1.4687 h 9.53125 l -2.5,-2.1719 0.82813,-0.9375 3.92182,3.3906 z"
       transform="translate(965.257,187)"
       id="path367" />
    <text
       font-family="'Cambria Math', 'Cambria Math_MSFontService', sans-serif"
       font-weight="400"
       font-size="21px"
       transform="translate(977.164,194)"
       id="text369">­ЮЉЏ</text>
  </g>
</svg>
