<?xml version="1.0" encoding="UTF-8" standalone="no"?>
<svg
   width="960"
   height="660"
   overflow="hidden"
   version="1.1"
   id="svg163"
   sodipodi:docname="linear_systems-parametric_solution_example.svg"
   inkscape:version="1.2 (dc2aedaf03, 2022-05-15)"
   xmlns:inkscape="http://www.inkscape.org/namespaces/inkscape"
   xmlns:sodipodi="http://sodipodi.sourceforge.net/DTD/sodipodi-0.dtd"
   xmlns="http://www.w3.org/2000/svg"
   xmlns:svg="http://www.w3.org/2000/svg">
  <sodipodi:namedview
     id="namedview165"
     pagecolor="#ffffff"
     bordercolor="#000000"
     borderopacity="0.25"
     inkscape:showpageshadow="2"
     inkscape:pageopacity="0.0"
     inkscape:pagecheckerboard="0"
     inkscape:deskcolor="#d1d1d1"
     showgrid="false"
     inkscape:zoom="1.3111111"
     inkscape:cx="438.17797"
     inkscape:cy="398.13559"
     inkscape:window-width="2560"
     inkscape:window-height="1494"
     inkscape:window-x="-11"
     inkscape:window-y="-11"
     inkscape:window-maximized="1"
     inkscape:current-layer="g161" />
  <defs
     id="defs5">
    <clipPath
       id="clip0">
      <rect
         x="0"
         y="0"
         width="1280"
         height="720"
         id="rect2" />
    </clipPath>
  </defs>
  <g
     clip-path="url(#clip0)"
     id="g161">
    <rect
       x="-851.94916"
       y="-168.55933"
       width="1280"
       height="720"
       fill="#ffffff"
       id="rect7" />
    <text
       font-family="Calibri, Calibri_MSFontService, sans-serif"
       font-weight="400"
       font-size="32px"
       transform="translate(99.5018,81)"
       id="text9">The solution set contains the parametric vector form:</text>
    <path
       d="M 336.2035,135.71875 V 136 c 1.40625,0.61458 2.40885,1.55729 3.00781,2.82812 0.59896,1.27084 0.89844,2.92188 0.89844,4.95313 0,0.6875 -0.28646,2.52865 -0.85937,5.52344 -0.57292,2.99479 -0.85938,5.22135 -0.85938,6.67971 0,3.4375 0.55208,5.9844 1.65625,7.6406 1.10417,1.6562 2.36975,2.5833 3.79685,2.7812 v 1.3438 c -2.22914,-0.2083 -4.18748,-1.3646 -5.87498,-3.4688 -1.6875,-2.1041 -2.53125,-5.3385 -2.53124,-9.70308 -1e-5,-1.63541 0.30208,-3.8776 0.90624,-6.72656 0.60417,-2.84896 0.90626,-4.79427 0.90626,-5.83594 0,-1.69791 -0.34636,-3.00781 -1.03907,-3.92968 -0.69271,-0.92188 -1.57552,-1.41927 -2.64843,-1.49219 V 135.125 c 1.07291,-0.0729 1.95572,-0.5703 2.64843,-1.4922 0.69271,-0.9219 1.03907,-2.2318 1.03907,-3.9297 0,-1.0416 -0.30209,-2.987 -0.90626,-5.8359 -0.60416,-2.849 -0.90625,-5.0912 -0.90624,-6.7266 -1e-5,-4.3646 0.84374,-7.5989 2.53124,-9.7031 1.6875,-2.1042 3.64584,-3.2604 5.87498,-3.4687 v 1.3437 c -1.4271,0.1979 -2.69268,1.125 -3.79685,2.7813 -1.10417,1.6562 -1.65625,4.2031 -1.65625,7.6406 0,1.4583 0.28646,3.6849 0.85938,6.6797 0.57291,2.9948 0.85937,4.8359 0.85937,5.5234 0,2.0313 -0.29948,3.6823 -0.89844,4.9531 -0.59896,1.2709 -1.60156,2.21357 -3.00781,2.82815 z"
       id="path11" />
    <path
       d="m 391.28,104.484 h 7.86 v 63.656 h -7.86 v -1.437 h 4.797 v -60.781 h -4.797 z m -42.934,0 h 7.86 v 1.438 h -4.797 v 60.781 h 4.797 v 1.437 h -7.86 z"
       fill-rule="evenodd"
       id="path13" />
    <text
       font-family="Calibri, Calibri_MSFontService, sans-serif"
       font-weight="400"
       font-size="32px"
       id="text27"
       x="356.91101"
       y="128">âˆ’<tspan
   font-family="'Cambria Math', 'Cambria Math_MSFontService', sans-serif"
   font-size="32px"
   x="372.91101"
   y="128"
   id="tspan15">2</tspan><tspan
   font-family="'Cambria Math', 'Cambria Math_MSFontService', sans-serif"
   font-size="32px"
   x="364.91101"
   y="166"
   id="tspan17">0</tspan><tspan
   font-family="'Cambria Math', 'Cambria Math_MSFontService', sans-serif"
   font-size="32px"
   x="409.81769"
   y="145"
   id="tspan19">+</tspan><tspan
   font-family="'Cambria Math', 'Cambria Math_MSFontService', sans-serif"
   font-size="32px"
   x="437.20428"
   y="145"
   id="tspan21" /><tspan
   font-family="'Cambria Math', 'Cambria Math_MSFontService', sans-serif"
   font-size="32px"
   x="447.76431"
   y="145"
   id="tspan23">ğ‘¥</tspan><tspan
   font-family="'Cambria Math', 'Cambria Math_MSFontService', sans-serif"
   font-size="23px"
   x="464.45099"
   y="152"
   id="tspan25">2</tspan></text>
    <path
       d="m 532.5,110.067 h 7.438 v 52.5 H 532.5 v -1.36 h 4.547 V 111.426 H 532.5 Z m -42.509,0 h 7.437 v 1.359 h -4.547 v 49.781 h 4.547 v 1.36 h -7.437 z"
       fill-rule="evenodd"
       id="path29" />
    <text
       font-family="Calibri, Calibri_MSFontService, sans-serif"
       font-weight="400"
       font-size="32px"
       id="text35"
       x="498.13101"
       y="128">âˆ’<tspan
   font-family="'Cambria Math', 'Cambria Math_MSFontService', sans-serif"
   font-size="32px"
   x="514.13098"
   y="128"
   id="tspan31">4</tspan><tspan
   font-family="'Cambria Math', 'Cambria Math_MSFontService', sans-serif"
   font-size="32px"
   x="506.13101"
   y="166"
   id="tspan33">1</tspan></text>
    <path
       d="m 555.5309,136.51562 c -1.1667,0.0313 -2.0495,0.46094 -2.64846,1.28907 -0.59896,0.82812 -0.89844,1.95573 -0.89844,3.38281 0,0.57292 0.15885,1.99479 0.47656,4.26562 0.31771,2.27084 0.47656,4.00521 0.47656,5.20313 0,3.63542 -0.6875,6.42705 -2.0625,8.37495 -1.375,1.948 -3.51562,2.9636 -6.42187,3.0469 v -1.25 c 0.91667,-0.0625 1.72396,-0.2838 2.42187,-0.664 0.69792,-0.3802 1.30209,-0.9558 1.8125,-1.7266 0.51042,-0.75 0.88542,-1.7187 1.125,-2.9063 0.23959,-1.18745 0.35938,-2.61453 0.35938,-4.2812 0,-0.73958 -0.14062,-2.30469 -0.42188,-4.69531 -0.28124,-2.39063 -0.42187,-3.84636 -0.42187,-4.36719 0,-1.79167 0.38021,-3.20833 1.14063,-4.25 0.76041,-1.04167 1.45833,-1.6875 2.09374,-1.9375 v -0.3125 c -0.63541,-0.22917 -1.33333,-0.8776 -2.09374,-1.9453 -0.76042,-1.0677 -1.14063,-2.4922 -1.14063,-4.2734 0,-0.7917 0.14063,-2.2214 0.42187,-4.2891 0.28126,-2.0677 0.42188,-3.6797 0.42188,-4.8359 0,-1.6563 -0.13281,-3.0704 -0.39844,-4.2422 -0.26562,-1.1719 -0.64844,-2.1328 -1.14844,-2.8828 -0.5,-0.75 -1.10156,-1.3099 -1.80468,-1.6797 -0.70313,-0.3698 -1.49219,-0.586 -2.36719,-0.6485 v -1.25 c 2.75,0.1354 4.85156,1.1302 6.30469,2.9844 1.45312,1.8542 2.17968,4.724 2.17968,8.6094 0,1.3958 -0.15885,3.1302 -0.47656,5.2031 -0.31771,2.0729 -0.47656,3.4219 -0.47656,4.0469 0,1.4583 0.30208,2.5989 0.90625,3.4218 0.60415,0.823 1.48435,1.24484 2.64065,1.26568 z"
       id="path37" />
    <path
       d="m 152.834,514.341 h 6.631 v 53.71 h -6.631 v -1.213 h 4.047 v -51.284 h -4.047 z m -35.861,0 h 6.631 v 1.213 h -4.047 v 51.284 h 4.047 v 1.213 h -6.631 z"
       fill="#44546a"
       fill-rule="evenodd"
       id="path39" />
    <text
       fill="#44546a"
       font-family="Calibri, Calibri_MSFontService, sans-serif"
       font-weight="400"
       font-size="27px"
       id="text51"
       x="124.07401"
       y="535">âˆ’<tspan
   font-family="'Cambria Math', 'Cambria Math_MSFontService', sans-serif"
   font-size="27px"
   x="137.4073"
   y="535"
   id="tspan41">2</tspan><tspan
   font-family="'Cambria Math', 'Cambria Math_MSFontService', sans-serif"
   font-size="27px"
   x="130.74068"
   y="566"
   id="tspan43">0</tspan><tspan
   font-size="27px"
   x="168.34731"
   y="549"
   id="tspan45">represents a point in 2D space</tspan><tspan
   fill="#c00000"
   font-family="'Cambria Math', 'Cambria Math_MSFontService', sans-serif"
   font-size="27px"
   x="113.9673"
   y="616"
   id="tspan47">ğ‘¥</tspan><tspan
   fill="#c00000"
   font-family="'Cambria Math', 'Cambria Math_MSFontService', sans-serif"
   font-size="20px"
   x="127.87399"
   y="621"
   id="tspan49">2</tspan></text>
    <path
       d="m 189.927,585.885 h 6.276 v 44.297 h -6.276 v -1.147 h 3.837 v -42.003 h -3.837 z m -42.174,0 h 6.276 v 1.147 h -3.837 v 42.003 h 3.837 v 1.147 h -6.276 z"
       fill="#c00000"
       fill-rule="evenodd"
       id="path53" />
    <text
       fill="#c00000"
       font-family="'Cambria Math', 'Cambria Math_MSFontService', sans-serif"
       font-weight="400"
       font-size="27px"
       id="text63"
       x="154.50101"
       y="601">âˆ’4<tspan
   font-size="27px"
   x="164.50101"
   y="633"
   id="tspan55">1</tspan><tspan
   font-family="Calibri, Calibri_MSFontService, sans-serif"
   font-size="27px"
   x="205.0743"
   y="616"
   id="tspan57">represents the</tspan><tspan
   font-family="Calibri, Calibri_MSFontService, sans-serif"
   font-size="27px"
   x="369.121"
   y="616"
   id="tspan59">slope of the line</tspan><tspan
   font-family="Calibri, Calibri_MSFontService, sans-serif"
   font-size="27px"
   x="549.28796"
   y="616"
   id="tspan61">which intercepts the point</tspan></text>
    <path
       d="m 878.861,581.178 h 6.631 v 53.71 h -6.631 v -1.213 h 4.047 v -51.284 h -4.047 z m -35.861,0 h 6.631 v 1.213 h -4.047 v 51.284 h 4.047 v 1.213 H 843 Z"
       fill="#c00000"
       fill-rule="evenodd"
       id="path65" />
    <text
       fill="#c00000"
       font-family="Calibri, Calibri_MSFontService, sans-serif"
       font-weight="400"
       font-size="27px"
       id="text71"
       x="850.10101"
       y="601">âˆ’<tspan
   font-family="'Cambria Math', 'Cambria Math_MSFontService', sans-serif"
   font-size="27px"
   x="863.43433"
   y="601"
   id="tspan67">2</tspan><tspan
   font-family="'Cambria Math', 'Cambria Math_MSFontService', sans-serif"
   font-size="27px"
   x="856.7677"
   y="633"
   id="tspan69">0</tspan></text>
    <rect
       x="716"
       y="417"
       width="76"
       height="76"
       stroke="#ededed"
       stroke-width="4"
       stroke-miterlimit="8"
       fill="none"
       id="rect73" />
    <rect
       x="716"
       y="342"
       width="76"
       height="75"
       stroke="#ededed"
       stroke-width="4"
       stroke-miterlimit="8"
       fill="none"
       id="rect75" />
    <rect
       x="716"
       y="266"
       width="76"
       height="76"
       stroke="#ededed"
       stroke-width="4"
       stroke-miterlimit="8"
       fill="none"
       id="rect77" />
    <rect
       x="716"
       y="190"
       width="76"
       height="76"
       stroke="#ededed"
       stroke-width="4"
       stroke-miterlimit="8"
       fill="none"
       id="rect79" />
    <rect
       x="187"
       y="417"
       width="76"
       height="76"
       stroke="#ededed"
       stroke-width="4"
       stroke-miterlimit="8"
       fill="none"
       id="rect81" />
    <rect
       x="112"
       y="417"
       width="75"
       height="76"
       stroke="#ededed"
       stroke-width="4"
       stroke-miterlimit="8"
       fill="none"
       id="rect83" />
    <rect
       x="263"
       y="417"
       width="75"
       height="76"
       stroke="#ededed"
       stroke-width="4"
       stroke-miterlimit="8"
       fill="none"
       id="rect85" />
    <rect
       x="263"
       y="342"
       width="75"
       height="75"
       stroke="#ededed"
       stroke-width="4"
       stroke-miterlimit="8"
       fill="none"
       id="rect87" />
    <rect
       x="338"
       y="417"
       width="75"
       height="76"
       stroke="#ededed"
       stroke-width="4"
       stroke-miterlimit="8"
       fill="none"
       id="rect89" />
    <rect
       x="338"
       y="342"
       width="75"
       height="75"
       stroke="#ededed"
       stroke-width="4"
       stroke-miterlimit="8"
       fill="none"
       id="rect91" />
    <rect
       x="338"
       y="191"
       width="75"
       height="75"
       stroke="#ededed"
       stroke-width="4"
       stroke-miterlimit="8"
       fill="none"
       id="rect93" />
    <rect
       x="262"
       y="191"
       width="76"
       height="75"
       stroke="#ededed"
       stroke-width="4"
       stroke-miterlimit="8"
       fill="none"
       id="rect95" />
    <rect
       x="187"
       y="342"
       width="76"
       height="75"
       stroke="#ededed"
       stroke-width="4"
       stroke-miterlimit="8"
       fill="none"
       id="rect97" />
    <rect
       x="112"
       y="342"
       width="75"
       height="75"
       stroke="#ededed"
       stroke-width="4"
       stroke-miterlimit="8"
       fill="none"
       id="rect99" />
    <rect
       x="187"
       y="191"
       width="76"
       height="75"
       stroke="#ededed"
       stroke-width="4"
       stroke-miterlimit="8"
       fill="none"
       id="rect101" />
    <rect
       x="112"
       y="191"
       width="75"
       height="75"
       stroke="#ededed"
       stroke-width="4"
       stroke-miterlimit="8"
       fill="none"
       id="rect103" />
    <rect
       x="413"
       y="417"
       width="76"
       height="76"
       stroke="#ededed"
       stroke-width="4"
       stroke-miterlimit="8"
       fill="none"
       id="rect105" />
    <rect
       x="413"
       y="342"
       width="76"
       height="75"
       stroke="#ededed"
       stroke-width="4"
       stroke-miterlimit="8"
       fill="none"
       id="rect107" />
    <rect
       x="488"
       y="417"
       width="76"
       height="76"
       stroke="#ededed"
       stroke-width="4"
       stroke-miterlimit="8"
       fill="none"
       id="rect109" />
    <rect
       x="488"
       y="342"
       width="76"
       height="75"
       stroke="#ededed"
       stroke-width="4"
       stroke-miterlimit="8"
       fill="none"
       id="rect111" />
    <rect
       x="488"
       y="266"
       width="76"
       height="76"
       stroke="#ededed"
       stroke-width="4"
       stroke-miterlimit="8"
       fill="none"
       id="rect113" />
    <rect
       x="488"
       y="191"
       width="76"
       height="75"
       stroke="#ededed"
       stroke-width="4"
       stroke-miterlimit="8"
       fill="none"
       id="rect115" />
    <rect
       x="413"
       y="191"
       width="75"
       height="75"
       stroke="#ededed"
       stroke-width="4"
       stroke-miterlimit="8"
       fill="none"
       id="rect117" />
    <rect
       x="565"
       y="417"
       width="75"
       height="76"
       stroke="#ededed"
       stroke-width="4"
       stroke-miterlimit="8"
       fill="none"
       id="rect119" />
    <rect
       x="565"
       y="342"
       width="75"
       height="75"
       stroke="#ededed"
       stroke-width="4"
       stroke-miterlimit="8"
       fill="none"
       id="rect121" />
    <rect
       x="640"
       y="417"
       width="76"
       height="76"
       stroke="#ededed"
       stroke-width="4"
       stroke-miterlimit="8"
       fill="none"
       id="rect123" />
    <rect
       x="640"
       y="342"
       width="76"
       height="75"
       stroke="#ededed"
       stroke-width="4"
       stroke-miterlimit="8"
       fill="none"
       id="rect125" />
    <rect
       x="640"
       y="266"
       width="76"
       height="76"
       stroke="#ededed"
       stroke-width="4"
       stroke-miterlimit="8"
       fill="none"
       id="rect127" />
    <rect
       x="640"
       y="190"
       width="76"
       height="76"
       stroke="#ededed"
       stroke-width="4"
       stroke-miterlimit="8"
       fill="none"
       id="rect129" />
    <rect
       x="564"
       y="266"
       width="76"
       height="76"
       stroke="#ededed"
       stroke-width="4"
       stroke-miterlimit="8"
       fill="none"
       id="rect131" />
    <rect
       x="565"
       y="190"
       width="75"
       height="76"
       stroke="#ededed"
       stroke-width="4"
       stroke-miterlimit="8"
       fill="none"
       id="rect133" />
    <path
       d="M 564.79,492.362 563,190"
       stroke="#000000"
       stroke-width="4"
       stroke-miterlimit="8"
       stroke-dasharray="12, 4"
       fill="none"
       fill-rule="evenodd"
       id="path135" />
    <rect
       x="338"
       y="266"
       width="75"
       height="76"
       stroke="#ededed"
       stroke-width="4"
       stroke-miterlimit="8"
       fill="none"
       id="rect137" />
    <rect
       x="262"
       y="266"
       width="76"
       height="76"
       stroke="#ededed"
       stroke-width="4"
       stroke-miterlimit="8"
       fill="none"
       id="rect139" />
    <rect
       x="263"
       y="266"
       width="75"
       height="76"
       stroke="#ededed"
       stroke-width="4"
       stroke-miterlimit="8"
       fill="none"
       id="rect141" />
    <rect
       x="187"
       y="266"
       width="76"
       height="76"
       stroke="#ededed"
       stroke-width="4"
       stroke-miterlimit="8"
       fill="none"
       id="rect143" />
    <rect
       x="413"
       y="266"
       width="75"
       height="76"
       stroke="#ededed"
       stroke-width="4"
       stroke-miterlimit="8"
       fill="none"
       id="rect145" />
    <rect
       x="112"
       y="266"
       width="76"
       height="75"
       stroke="#ededed"
       stroke-width="4"
       stroke-miterlimit="8"
       fill="none"
       id="rect147" />
    <path
       d="m 112,269 v 71.569 L 412,342 Z"
       fill="#c00000"
       fill-rule="evenodd"
       fill-opacity="0.2"
       id="path149" />
    <path
       d="M 112,269 791.44,437.325"
       stroke="#44546a"
       stroke-width="4"
       stroke-miterlimit="8"
       fill="none"
       fill-rule="evenodd"
       id="path151" />
    <path
       d="m 111,343 681.016,0.921"
       stroke="#000000"
       stroke-width="4"
       stroke-miterlimit="8"
       stroke-dasharray="12, 4"
       fill="none"
       fill-rule="evenodd"
       id="path153" />
    <path
       d="m 405.5,343 c 0,-4.142 3.358,-7.5 7.5,-7.5 4.142,0 7.5,3.358 7.5,7.5 0,4.142 -3.358,7.5 -7.5,7.5 -4.142,0 -7.5,-3.358 -7.5,-7.5 z"
       stroke="#000000"
       stroke-width="3"
       stroke-miterlimit="8"
       fill="#44546a"
       fill-rule="evenodd"
       id="path155" />
    <path
       d="M 2,-2.74007e-6 2.0001,72.6709 h -4 L -2,2.74007e-6 Z M 8.72764,61.6786 1.05587e-4,76.6401 -8.72747,61.6786 c -0.55656,-0.9541 -0.23429,-2.1787 0.71981,-2.7353 0.9541,-0.5565 2.17874,-0.2343 2.7353,0.7198 l 7.00002,12 h -3.45512 l 6.99998,-12 c 0.55656,-0.9541 1.7812,-1.2764 2.7353,-0.7198 0.95411,0.5566 1.27638,1.7812 0.71982,2.7353 z"
       fill="#c00000"
       transform="matrix(1,0,0,-1,112,342.631)"
       id="path157" />
    <path
       d="m 112.003,341 287.295,0.457 -0.006,4 L 111.997,345 Z m 276.312,-6.288 14.947,8.751 -14.975,8.704 c -0.955,0.555 -2.179,0.231 -2.734,-0.724 -0.555,-0.955 -0.231,-2.179 0.724,-2.734 l 12.011,-6.981 -0.006,3.455 -11.988,-7.019 c -0.954,-0.558 -1.274,-1.784 -0.716,-2.737 0.558,-0.953 1.783,-1.273 2.737,-0.715 z"
       fill="#c00000"
       id="path159" />
  </g>
</svg>
