<?xml version="1.0" encoding="UTF-8" standalone="no"?>
<svg
   width="1220"
   height="700"
   overflow="hidden"
   version="1.1"
   id="svg267"
   sodipodi:docname="linear_systems-infinite_solutions.svg"
   inkscape:version="1.2 (dc2aedaf03, 2022-05-15)"
   xmlns:inkscape="http://www.inkscape.org/namespaces/inkscape"
   xmlns:sodipodi="http://sodipodi.sourceforge.net/DTD/sodipodi-0.dtd"
   xmlns="http://www.w3.org/2000/svg"
   xmlns:svg="http://www.w3.org/2000/svg">
  <sodipodi:namedview
     id="namedview269"
     pagecolor="#ffffff"
     bordercolor="#000000"
     borderopacity="0.25"
     inkscape:showpageshadow="2"
     inkscape:pageopacity="0.0"
     inkscape:pagecheckerboard="0"
     inkscape:deskcolor="#d1d1d1"
     showgrid="false"
     inkscape:zoom="0.92709556"
     inkscape:cx="335.99557"
     inkscape:cy="519.90326"
     inkscape:window-width="2560"
     inkscape:window-height="1494"
     inkscape:window-x="-11"
     inkscape:window-y="-11"
     inkscape:window-maximized="1"
     inkscape:current-layer="g265" />
  <defs
     id="defs5">
    <clipPath
       id="clip0">
      <rect
         x="0"
         y="0"
         width="1280"
         height="720"
         id="rect2" />
    </clipPath>
  </defs>
  <g
     clip-path="url(#clip0)"
     id="g265"
     transform="translate(-57.289346,-4.5313671)">
    <rect
       x="-17.100924"
       y="-8.6290998"
       width="1280"
       height="720"
       fill="#ffffff"
       id="rect7" />
    <path
       d="m 795.89908,122.1249 c 0,-7.044 5.71,-12.754 12.754,-12.754 h 151.492 c 7.044,0 12.754,5.71 12.754,12.754 v 73.492 c 0,7.044 -5.71,12.754 -12.754,12.754 h -151.492 c -7.044,0 -12.754,-5.71 -12.754,-12.754 z"
       fill="#e2f0d9"
       fill-rule="evenodd"
       id="path9" />
    <path
       d="m 912.89908,109.3709 v 99.483"
       stroke="#385723"
       stroke-width="4"
       stroke-miterlimit="8"
       fill="none"
       fill-rule="evenodd"
       id="path11" />
    <path
       d="m 809.89908,135.8709 c 0,-11.322 9.626,-20.5 21.5,-20.5 11.874,0 21.5,9.178 21.5,20.5 0,11.322 -9.626,20.5 -21.5,20.5 -11.874,0 -21.5,-9.178 -21.5,-20.5 z"
       fill="#bdd7ee"
       fill-rule="evenodd"
       fill-opacity="0.501961"
       id="path13" />
    <path
       d="m 795.89908,242.1249 c 0,-7.044 5.71,-12.754 12.754,-12.754 h 151.492 c 7.044,0 12.754,5.71 12.754,12.754 v 73.492 c 0,7.044 -5.71,12.754 -12.754,12.754 h -151.492 c -7.044,0 -12.754,-5.71 -12.754,-12.754 z"
       fill="#e2f0d9"
       fill-rule="evenodd"
       id="path15" />
    <path
       d="m 209.89908,242.1249 c 0,-7.044 5.71,-12.754 12.754,-12.754 h 148.492 c 7.044,0 12.754,5.71 12.754,12.754 v 73.492 c 0,7.044 -5.71,12.754 -12.754,12.754 h -148.492 c -7.044,0 -12.754,-5.71 -12.754,-12.754 z"
       fill="#e2f0d9"
       fill-rule="evenodd"
       id="path17" />
    <path
       d="m 322.89908,229.3709 v 99.483"
       stroke="#385723"
       stroke-width="4"
       stroke-miterlimit="8"
       fill="none"
       fill-rule="evenodd"
       id="path19" />
    <text
       font-family="Calibri, Calibri_MSFontService, sans-serif"
       font-weight="400"
       font-size="43px"
       id="text23"
       x="171.35608"
       y="77.370903">Single solution<tspan
   font-size="43px"
   x="751.32703"
   y="77.370903"
   id="tspan21">Infinite solutions</tspan></text>
    <path
       d="m 209.89908,122.1249 c 0,-7.044 5.71,-12.754 12.754,-12.754 h 148.492 c 7.044,0 12.754,5.71 12.754,12.754 v 73.492 c 0,7.044 -5.71,12.754 -12.754,12.754 h -148.492 c -7.044,0 -12.754,-5.71 -12.754,-12.754 z"
       fill="#e2f0d9"
       fill-rule="evenodd"
       id="path25" />
    <path
       d="m 322.89908,109.3709 v 99.483"
       stroke="#385723"
       stroke-width="4"
       stroke-miterlimit="8"
       fill="none"
       fill-rule="evenodd"
       id="path27" />
    <path
       d="m 218.89908,138.8709 c 0,-11.322 9.85,-20.5 22,-20.5 12.15,0 22,9.178 22,20.5 0,11.322 -9.85,20.5 -22,20.5 -12.15,0 -22,-9.178 -22,-20.5 z"
       fill="#bdd7ee"
       fill-rule="evenodd"
       fill-opacity="0.501961"
       id="path29" />
    <path
       d="m 272.89908,175.8709 c 0,-11.322 9.626,-20.5 21.5,-20.5 11.874,0 21.5,9.178 21.5,20.5 0,11.322 -9.626,20.5 -21.5,20.5 -11.874,0 -21.5,-9.178 -21.5,-20.5 z"
       fill="#bdd7ee"
       fill-rule="evenodd"
       fill-opacity="0.501961"
       id="path31" />
    <text
       font-family="'Cambria Math', 'Cambria Math_MSFontService', sans-serif"
       font-weight="400"
       font-size="32px"
       id="text43"
       x="228.02307"
       y="148.3709">1<tspan
   font-size="32px"
   x="285.68979"
   y="148.3709"
   id="tspan33">4</tspan><tspan
   font-family="Calibri, Calibri_MSFontService, sans-serif"
   font-size="32px"
   x="335.35608"
   y="148.3709"
   id="tspan35">âˆ’</tspan>2<tspan
   font-family="Calibri, Calibri_MSFontService, sans-serif"
   font-size="32px"
   x="220.02307"
   y="186.3709"
   id="tspan37">âˆ’</tspan>1<tspan
   font-size="32px"
   x="285.68979"
   y="186.3709"
   id="tspan39">3</tspan><tspan
   font-size="32px"
   x="343.35608"
   y="186.3709"
   id="tspan41">9</tspan></text>
    <path
       d="m 133.22708,397.9259 c 3.75,0 8.219,1.64 13.406,4.922 5.188,3.281 9.125,4.921 11.813,4.921 2.656,0 4.875,-0.703 6.656,-2.109 1.781,-1.406 3.578,-3.594 5.391,-6.562 l 3.75,2.531 c -1.344,2.781 -3.469,5.586 -6.375,8.414 -2.907,2.828 -6.438,4.242 -10.594,4.242 -4,0 -8.57,-1.641 -13.711,-4.922 -5.141,-3.281 -9.07,-4.922 -11.789,-4.922 -2.281,0 -4.281,0.719 -6,2.157 -1.719,1.437 -3.234,3.531 -4.547,6.281 l -3.656,-2.063 c 1.594,-3.687 3.703,-6.758 6.328,-9.211 2.625,-2.453 5.734,-3.679 9.328,-3.679 z"
       fill-rule="evenodd"
       id="path45" />
    <text
       fill="#000000"
       fill-opacity="0"
       font-family="Arial, Arial_MSFontService, sans-serif"
       font-size="16.3594px"
       x="117.57108"
       y="412.2399"
       id="text47">~</text>
    <path
       d="m 230.89908,454.3709 c -8.56,0 -15.5,-6.101 -15.5,-13.627 v -22.746 c 0,-7.526 -6.94,-13.627 -15.5,-13.627 8.56,0 15.5,-6.101 15.5,-13.627 v -22.746 c 0,-7.526 6.94,-13.627 15.5,-13.627"
       stroke="#000000"
       stroke-width="4"
       stroke-miterlimit="8"
       fill="none"
       fill-rule="evenodd"
       id="path49" />
    <text
       font-family="'Cambria Math', 'Cambria Math_MSFontService', sans-serif"
       font-weight="400"
       font-size="32px"
       id="text71"
       x="244.23407"
       y="388.37091">ğ‘¥<tspan
   font-size="23px"
   x="260.18079"
   y="394.37091"
   id="tspan51">1</tspan><tspan
   font-size="32px"
   x="275.00739"
   y="388.37091"
   id="tspan53" /><tspan
   font-family="Calibri, Calibri_MSFontService, sans-serif"
   font-size="32px"
   x="282.00739"
   y="388.37091"
   id="tspan55">=</tspan><tspan
   font-size="32px"
   x="305.17407"
   y="388.37091"
   id="tspan57">2</tspan><tspan
   font-size="32px"
   x="243.40936"
   y="436.37091"
   id="tspan59">ğ‘¥</tspan><tspan
   font-size="23px"
   x="260.09598"
   y="443.37091"
   id="tspan61">2</tspan><tspan
   font-size="32px"
   x="274.92267"
   y="436.37091"
   id="tspan63" /><tspan
   font-family="Calibri, Calibri_MSFontService, sans-serif"
   font-size="32px"
   x="281.92267"
   y="436.37091"
   id="tspan65">=</tspan><tspan
   font-family="Calibri, Calibri_MSFontService, sans-serif"
   font-size="32px"
   x="297.92267"
   y="436.37091"
   id="tspan67" /><tspan
   font-family="Calibri, Calibri_MSFontService, sans-serif"
   font-size="32px"
   x="305.08939"
   y="436.37091"
   id="tspan69">âˆ’</tspan>1</text>
    <path
       d="m 219.89908,261.8709 c 0,-11.322 9.626,-20.5 21.5,-20.5 11.874,0 21.5,9.178 21.5,20.5 0,11.322 -9.626,20.5 -21.5,20.5 -11.874,0 -21.5,-9.178 -21.5,-20.5 z"
       fill="#bdd7ee"
       fill-rule="evenodd"
       fill-opacity="0.501961"
       id="path73" />
    <path
       d="m 133.74208,276.9669 c 3.75,0 8.219,1.641 13.407,4.922 5.187,3.281 9.125,4.922 11.812,4.922 2.656,0 4.875,-0.703 6.656,-2.109 1.782,-1.407 3.579,-3.594 5.391,-6.563 l 3.75,2.531 c -1.344,2.782 -3.469,5.586 -6.375,8.415 -2.906,2.828 -6.437,4.242 -10.594,4.242 -4,0 -8.57,-1.641 -13.711,-4.922 -5.14,-3.281 -9.07,-4.922 -11.789,-4.922 -2.281,0 -4.281,0.719 -6,2.156 -1.718,1.438 -3.234,3.531 -4.547,6.281 l -3.656,-2.062 c 1.594,-3.688 3.703,-6.758 6.328,-9.211 2.625,-2.453 5.735,-3.68 9.328,-3.68 z"
       fill-rule="evenodd"
       id="path75" />
    <text
       fill="#000000"
       fill-opacity="0"
       font-family="Arial, Arial_MSFontService, sans-serif"
       font-size="16.3594px"
       x="118.08607"
       y="291.28192"
       id="text77">~</text>
    <text
       font-family="Calibri, Calibri_MSFontService, sans-serif"
       font-weight="400"
       font-size="32px"
       id="text89"
       x="155.51707"
       y="509.37091">The solution set is:<tspan
   font-size="32px"
   x="162.68373"
   y="561.37091"
   id="tspan79">{(</tspan><tspan
   font-family="'Cambria Math', 'Cambria Math_MSFontService', sans-serif"
   font-size="32px"
   x="182.35037"
   y="561.37091"
   id="tspan81">2</tspan><tspan
   font-size="32px"
   x="200.01707"
   y="561.37091"
   id="tspan83">,</tspan><tspan
   font-size="32px"
   x="215.18378"
   y="561.37091"
   id="tspan85">âˆ’</tspan><tspan
   font-family="'Cambria Math', 'Cambria Math_MSFontService', sans-serif"
   font-size="32px"
   x="231.18378"
   y="561.37091"
   id="tspan87">1</tspan>)} or</text>
    <path
       d="m 356.90708,526.4719 h 7.438 v 52.5 h -7.438 v -1.359 h 4.547 v -49.781 h -4.547 z m -42.509,0 h 7.437 v 1.36 h -4.547 v 49.781 h 4.547 v 1.359 h -7.437 z"
       fill-rule="evenodd"
       id="path91" />
    <text
       font-family="'Cambria Math', 'Cambria Math_MSFontService', sans-serif"
       font-weight="400"
       font-size="32px"
       id="text95"
       x="330.53708"
       y="544.37091">2<tspan
   font-family="Calibri, Calibri_MSFontService, sans-serif"
   font-size="32px"
   x="322.53708"
   y="582.37091"
   id="tspan93">âˆ’</tspan>1</text>
    <path
       d="m 909.89908,229.3709 v 99.483"
       stroke="#385723"
       stroke-width="4"
       stroke-miterlimit="8"
       fill="none"
       fill-rule="evenodd"
       id="path97" />
    <path
       d="m 806.89908,256.8709 c 0,-11.322 9.626,-20.5 21.5,-20.5 11.874,0 21.5,9.178 21.5,20.5 0,11.322 -9.626,20.5 -21.5,20.5 -11.874,0 -21.5,-9.178 -21.5,-20.5 z"
       fill="#bdd7ee"
       fill-rule="evenodd"
       fill-opacity="0.501961"
       id="path99" />
    <path
       d="m 719.73108,268.0739 c 3.75,0 8.219,1.641 13.406,4.922 5.188,3.282 9.125,4.922 11.813,4.922 2.656,0 4.875,-0.703 6.656,-2.109 1.781,-1.406 3.578,-3.594 5.391,-6.563 l 3.75,2.532 c -1.344,2.781 -3.469,5.585 -6.375,8.414 -2.906,2.828 -6.438,4.242 -10.594,4.242 -4,0 -8.57,-1.641 -13.711,-4.922 -5.141,-3.281 -9.07,-4.922 -11.789,-4.922 -2.281,0 -4.281,0.719 -6,2.156 -1.719,1.438 -3.234,3.532 -4.547,6.282 l -3.656,-2.063 c 1.594,-3.687 3.703,-6.758 6.328,-9.211 2.625,-2.453 5.734,-3.68 9.328,-3.68 z"
       fill-rule="evenodd"
       id="path101" />
    <text
       fill="#000000"
       fill-opacity="0"
       font-family="Arial, Arial_MSFontService, sans-serif"
       font-size="16.3594px"
       x="704.07507"
       y="282.38892"
       id="text103">~</text>
    <text
       font-family="'Cambria Math', 'Cambria Math_MSFontService', sans-serif"
       font-weight="400"
       font-size="32px"
       id="text175"
       x="825.89502"
       y="389.37091">ğ‘¥<tspan
   font-size="23px"
   x="841.84174"
   y="395.37091"
   id="tspan105">1</tspan><tspan
   font-size="32px"
   x="856.66846"
   y="389.37091"
   id="tspan107" /><tspan
   font-family="Calibri, Calibri_MSFontService, sans-serif"
   font-size="32px"
   x="863.66846"
   y="389.37091"
   id="tspan109">=</tspan><tspan
   font-family="Calibri, Calibri_MSFontService, sans-serif"
   font-size="32px"
   x="879.66846"
   y="389.37091"
   id="tspan111" /><tspan
   font-family="Calibri, Calibri_MSFontService, sans-serif"
   font-size="32px"
   x="886.83502"
   y="389.37091"
   id="tspan113">âˆ’</tspan>2<tspan
   font-size="32px"
   x="920.50177"
   y="389.37091"
   id="tspan115" /><tspan
   font-family="Calibri, Calibri_MSFontService, sans-serif"
   font-size="32px"
   x="927.50208"
   y="389.37091"
   id="tspan117">âˆ’</tspan> 4<tspan
   font-size="32px"
   x="968.16803"
   y="389.37091"
   id="tspan119">ğ‘¥</tspan><tspan
   font-size="23px"
   x="984.85504"
   y="395.37091"
   id="tspan121">2</tspan><tspan
   font-size="32px"
   x="825.99457"
   y="436.37091"
   id="tspan123">ğ‘¥</tspan><tspan
   font-size="23px"
   x="842.68127"
   y="443.37091"
   id="tspan125">2</tspan><tspan
   font-size="32px"
   x="857.50793"
   y="436.37091"
   id="tspan127" /><tspan
   font-family="Calibri, Calibri_MSFontService, sans-serif"
   font-size="32px"
   x="864.50793"
   y="436.37091"
   id="tspan129">is free i.e.</tspan><tspan
   font-size="32px"
   x="997.75507"
   y="436.37091"
   id="tspan131">ğ‘¥</tspan><tspan
   font-size="23px"
   x="1014.441"
   y="443.37091"
   id="tspan133">2</tspan><tspan
   font-size="32px"
   x="1029.2681"
   y="436.37091"
   id="tspan135" /><tspan
   font-family="Calibri, Calibri_MSFontService, sans-serif"
   font-size="32px"
   x="1036.2681"
   y="436.37091"
   id="tspan137">= 0 + 1</tspan><tspan
   font-size="32px"
   x="1122.1011"
   y="436.37091"
   id="tspan139">ğ‘¥</tspan><tspan
   font-size="23px"
   x="1138.7881"
   y="443.37091"
   id="tspan141">2</tspan><tspan
   font-family="Calibri, Calibri_MSFontService, sans-serif"
   font-size="32px"
   x="622.67505"
   y="510.37091"
   id="tspan143">The solution set is:</tspan><tspan
   font-family="Calibri, Calibri_MSFontService, sans-serif"
   font-size="32px"
   x="629.84204"
   y="564.37091"
   id="tspan145">{(</tspan><tspan
   font-family="Calibri, Calibri_MSFontService, sans-serif"
   font-size="32px"
   x="649.50903"
   y="564.37091"
   id="tspan147">âˆ’</tspan>2<tspan
   font-size="32px"
   x="683.17505"
   y="564.37091"
   id="tspan149" /><tspan
   font-family="Calibri, Calibri_MSFontService, sans-serif"
   font-size="32px"
   x="690.17505"
   y="564.37091"
   id="tspan151">âˆ’</tspan> 4<tspan
   font-size="32px"
   x="730.84216"
   y="564.37091"
   id="tspan153">ğ‘¥</tspan><tspan
   font-size="23px"
   x="747.52875"
   y="571.37091"
   id="tspan155">2</tspan><tspan
   font-family="Calibri, Calibri_MSFontService, sans-serif"
   font-size="32px"
   x="762.35547"
   y="564.37091"
   id="tspan157">,</tspan><tspan
   font-size="32px"
   x="777.52216"
   y="564.37091"
   id="tspan159">ğ‘¥</tspan><tspan
   font-size="23px"
   x="794.20874"
   y="571.37091"
   id="tspan161">2</tspan><tspan
   font-family="Calibri, Calibri_MSFontService, sans-serif"
   font-size="32px"
   x="816.20209"
   y="564.37091"
   id="tspan163">|</tspan><tspan
   font-size="32px"
   x="838.03546"
   y="564.37091"
   id="tspan165">ğ‘¥</tspan><tspan
   font-size="23px"
   x="854.72217"
   y="571.37091"
   id="tspan167">2</tspan><tspan
   font-size="32px"
   x="876.71545"
   y="564.37091"
   id="tspan169">âˆˆ</tspan><tspan
   font-family="Cambria, Cambria_MSFontService, sans-serif"
   font-size="32px"
   x="903.88214"
   y="564.37091"
   id="tspan171">R</tspan><tspan
   font-family="Calibri, Calibri_MSFontService, sans-serif"
   font-size="32px"
   x="923.71545"
   y="564.37091"
   id="tspan173">)} or</tspan></text>
    <path
       d="m 989.53158,555.08965 v 0.28125 c 1.4063,0.61458 2.4089,1.55729 3.0078,2.82812 0.599,1.27084 0.8985,2.92188 0.8985,4.95313 0,0.6875 -0.2865,2.52865 -0.8594,5.52344 -0.5729,2.99479 -0.8594,5.22135 -0.8594,6.67971 0,3.4375 0.5521,5.9844 1.6563,7.6406 1.1041,1.6562 2.3697,2.5833 3.7968,2.7812 v 1.3438 c -2.2291,-0.2083 -4.1875,-1.3646 -5.875,-3.4688 -1.6875,-2.1041 -2.5312,-5.3385 -2.5312,-9.70308 0,-1.63541 0.3021,-3.8776 0.9062,-6.72656 0.6042,-2.84896 0.9063,-4.79427 0.9063,-5.83594 0,-1.69791 -0.3464,-3.00781 -1.0391,-3.92968 -0.6927,-0.92188 -1.5755,-1.41927 -2.6484,-1.49219 v -1.46875 c 1.0729,-0.0729 1.9557,-0.5703 2.6484,-1.4922 0.6927,-0.9219 1.0391,-2.2318 1.0391,-3.9297 0,-1.0416 -0.3021,-2.987 -0.9063,-5.8359 -0.6041,-2.849 -0.9062,-5.0912 -0.9062,-6.7266 0,-4.3646 0.8437,-7.5989 2.5312,-9.7031 1.6875,-2.1042 3.6459,-3.2604 5.875,-3.4687 v 1.3437 c -1.4271,0.1979 -2.6927,1.125 -3.7968,2.7813 -1.1042,1.6562 -1.6563,4.2031 -1.6563,7.6406 0,1.4583 0.2865,3.6849 0.8594,6.6797 0.5729,2.9948 0.8594,4.8359 0.8594,5.5234 0,2.0313 -0.2995,3.6823 -0.8985,4.9531 -0.5989,1.2709 -1.6015,2.21357 -3.0078,2.82815 z"
       id="path177" />
    <path
       d="m 1044.6091,523.5149 h 7.86 v 63.656 h -7.86 v -1.437 h 4.79 v -60.782 h -4.79 z m -42.94,0 h 7.86 v 1.437 h -4.8 v 60.782 h 4.8 v 1.437 h -7.86 z"
       fill-rule="evenodd"
       id="path179" />
    <text
       font-family="Calibri, Calibri_MSFontService, sans-serif"
       font-weight="400"
       font-size="32px"
       id="text193"
       x="1010.239"
       y="547.37091">âˆ’<tspan
   font-family="'Cambria Math', 'Cambria Math_MSFontService', sans-serif"
   font-size="32px"
   x="1026.239"
   y="547.37091"
   id="tspan181">2</tspan><tspan
   font-family="'Cambria Math', 'Cambria Math_MSFontService', sans-serif"
   font-size="32px"
   x="1018.239"
   y="584.37091"
   id="tspan183">0</tspan><tspan
   font-family="'Cambria Math', 'Cambria Math_MSFontService', sans-serif"
   font-size="32px"
   x="1063.1456"
   y="564.37091"
   id="tspan185">+</tspan><tspan
   font-family="'Cambria Math', 'Cambria Math_MSFontService', sans-serif"
   font-size="32px"
   x="1090.5323"
   y="564.37091"
   id="tspan187" /><tspan
   font-family="'Cambria Math', 'Cambria Math_MSFontService', sans-serif"
   font-size="32px"
   x="1101.0924"
   y="564.37091"
   id="tspan189">ğ‘¥</tspan><tspan
   font-family="'Cambria Math', 'Cambria Math_MSFontService', sans-serif"
   font-size="23px"
   x="1117.7791"
   y="571.37091"
   id="tspan191">2</tspan></text>
    <path
       d="m 1183.9891,529.0969 h 7.44 v 52.5 h -7.44 v -1.359 h 4.55 v -49.781 h -4.55 z m -42.51,0 h 7.44 v 1.36 h -4.55 v 49.781 h 4.55 v 1.359 h -7.44 z"
       fill-rule="evenodd"
       id="path195" />
    <text
       font-family="Calibri, Calibri_MSFontService, sans-serif"
       font-weight="400"
       font-size="32px"
       id="text201"
       x="1149.619"
       y="547.37091">âˆ’<tspan
   font-family="'Cambria Math', 'Cambria Math_MSFontService', sans-serif"
   font-size="32px"
   x="1165.619"
   y="547.37091"
   id="tspan197">4</tspan><tspan
   font-family="'Cambria Math', 'Cambria Math_MSFontService', sans-serif"
   font-size="32px"
   x="1157.619"
   y="584.37091"
   id="tspan199">1</tspan></text>
    <path
       d="m 1207.026,555.88652 c -1.1667,0.0313 -2.0495,0.46094 -2.6485,1.28907 -0.5989,0.82812 -0.8984,1.95573 -0.8984,3.38281 0,0.57292 0.1589,1.99479 0.4766,4.26562 0.3177,2.27084 0.4765,4.00521 0.4765,5.20313 0,3.63542 -0.6875,6.42705 -2.0625,8.37495 -1.375,1.948 -3.5156,2.9636 -6.4218,3.0469 v -1.25 c 0.9166,-0.0625 1.7239,-0.2838 2.4218,-0.664 0.6979,-0.3802 1.3021,-0.9558 1.8125,-1.7266 0.5104,-0.75 0.8854,-1.7187 1.125,-2.9063 0.2396,-1.18745 0.3594,-2.61453 0.3594,-4.2812 0,-0.73958 -0.1406,-2.30469 -0.4219,-4.69531 -0.2812,-2.39063 -0.4218,-3.84636 -0.4218,-4.36719 0,-1.79167 0.3802,-3.20833 1.1406,-4.25 0.7604,-1.04167 1.4583,-1.6875 2.0937,-1.9375 v -0.3125 c -0.6354,-0.22917 -1.3333,-0.8776 -2.0937,-1.9453 -0.7604,-1.0677 -1.1406,-2.4922 -1.1406,-4.2734 0,-0.7917 0.1406,-2.2214 0.4218,-4.2891 0.2813,-2.0677 0.4219,-3.6797 0.4219,-4.8359 0,-1.6563 -0.1328,-3.0704 -0.3984,-4.2422 -0.2657,-1.1719 -0.6485,-2.1328 -1.1485,-2.8828 -0.5,-0.75 -1.1015,-1.3099 -1.8047,-1.6797 -0.7031,-0.3698 -1.4921,-0.586 -2.3671,-0.6485 v -1.25 c 2.75,0.1354 4.8515,1.1302 6.3046,2.9844 1.4532,1.8542 2.1797,4.724 2.1797,8.6094 0,1.3958 -0.1588,3.1302 -0.4765,5.2031 -0.3177,2.0729 -0.4766,3.4219 -0.4766,4.0469 0,1.4583 0.3021,2.5989 0.9063,3.4218 0.6041,0.823 1.4843,1.24484 2.6406,1.26568 z"
       id="path203" />
    <path
       d="m 270.89908,296.8709 c 0,-11.322 9.85,-20.5 22,-20.5 12.15,0 22,9.178 22,20.5 0,11.322 -9.85,20.5 -22,20.5 -12.15,0 -22,-9.178 -22,-20.5 z"
       fill="#bdd7ee"
       fill-rule="evenodd"
       fill-opacity="0.501961"
       id="path205" />
    <text
       font-family="'Cambria Math', 'Cambria Math_MSFontService', sans-serif"
       font-weight="400"
       font-size="32px"
       id="text217"
       x="235.23808"
       y="269.37091">1<tspan
   font-size="32px"
   x="284.90479"
   y="269.37091"
   id="tspan207">0</tspan><tspan
   font-size="32px"
   x="342.57108"
   y="269.37091"
   id="tspan209">2</tspan><tspan
   font-size="32px"
   x="235.23808"
   y="307.37091"
   id="tspan211">0</tspan><tspan
   font-size="32px"
   x="284.90479"
   y="307.37091"
   id="tspan213">1</tspan><tspan
   font-family="Calibri, Calibri_MSFontService, sans-serif"
   font-size="32px"
   x="334.57138"
   y="307.37091"
   id="tspan215">âˆ’</tspan>1</text>
    <path
       d="m 719.73108,397.9259 c 3.75,0 8.219,1.64 13.406,4.922 5.188,3.281 9.125,4.921 11.813,4.921 2.656,0 4.875,-0.703 6.656,-2.109 1.781,-1.406 3.578,-3.594 5.391,-6.562 l 3.75,2.531 c -1.344,2.781 -3.469,5.586 -6.375,8.414 -2.906,2.828 -6.438,4.242 -10.594,4.242 -4,0 -8.57,-1.641 -13.711,-4.922 -5.141,-3.281 -9.07,-4.922 -11.789,-4.922 -2.281,0 -4.281,0.719 -6,2.157 -1.719,1.437 -3.234,3.531 -4.547,6.281 l -3.656,-2.063 c 1.594,-3.687 3.703,-6.758 6.328,-9.211 2.625,-2.453 5.734,-3.679 9.328,-3.679 z"
       fill-rule="evenodd"
       id="path219" />
    <text
       fill="#000000"
       fill-opacity="0"
       font-family="Arial, Arial_MSFontService, sans-serif"
       font-size="16.3594px"
       x="704.07507"
       y="412.2399"
       id="text221">~</text>
    <path
       d="m 816.89908,454.3709 c -8.56,0 -15.5,-6.101 -15.5,-13.627 v -22.746 c 0,-7.526 -6.94,-13.627 -15.5,-13.627 8.56,0 15.5,-6.101 15.5,-13.627 v -22.746 c 0,-7.526 6.94,-13.627 15.5,-13.627"
       stroke="#000000"
       stroke-width="4"
       stroke-miterlimit="8"
       fill="none"
       fill-rule="evenodd"
       id="path223" />
    <path
       d="m 806.89908,293.3379 c 0,-7.161 5.806,-12.967 12.967,-12.967 h 130.066 c 7.161,0 12.967,5.806 12.967,12.967 v 10.066 c 0,7.161 -5.806,12.967 -12.967,12.967 h -130.066 c -7.161,0 -12.967,-5.806 -12.967,-12.967 z"
       fill="#7030a0"
       fill-rule="evenodd"
       fill-opacity="0.301961"
       id="path225" />
    <path
       d="m 808.89908,171.3379 c 0,-7.161 5.806,-12.967 12.967,-12.967 h 128.066 c 7.161,0 12.967,5.806 12.967,12.967 v 10.066 c 0,7.161 -5.806,12.967 -12.967,12.967 h -128.066 c -7.161,0 -12.967,-5.806 -12.967,-12.967 z"
       fill="#7030a0"
       fill-rule="evenodd"
       fill-opacity="0.301961"
       id="path227" />
    <text
       font-family="'Cambria Math', 'Cambria Math_MSFontService', sans-serif"
       font-weight="400"
       font-size="32px"
       id="text251"
       x="818.93402"
       y="269.37091">1<tspan
   font-size="32px"
   x="868.60077"
   y="269.37091"
   id="tspan229">4</tspan><tspan
   font-family="Calibri, Calibri_MSFontService, sans-serif"
   font-size="32px"
   x="918.26746"
   y="269.37091"
   id="tspan231">âˆ’</tspan>2<tspan
   font-size="32px"
   x="818.93402"
   y="307.37091"
   id="tspan233">0</tspan><tspan
   font-size="32px"
   x="868.60077"
   y="307.37091"
   id="tspan235">0</tspan><tspan
   font-size="32px"
   x="926.26703"
   y="307.37091"
   id="tspan237">0</tspan><tspan
   font-size="32px"
   x="822.46271"
   y="148.3709"
   id="tspan239">1</tspan><tspan
   font-size="32px"
   x="872.12933"
   y="148.3709"
   id="tspan241">4</tspan><tspan
   font-family="Calibri, Calibri_MSFontService, sans-serif"
   font-size="32px"
   x="921.79602"
   y="148.3709"
   id="tspan243">âˆ’</tspan>2<tspan
   font-size="32px"
   x="822.46271"
   y="186.3709"
   id="tspan245">2</tspan><tspan
   font-size="32px"
   x="872.12933"
   y="186.3709"
   id="tspan247">8</tspan><tspan
   font-family="Calibri, Calibri_MSFontService, sans-serif"
   font-size="32px"
   x="921.79602"
   y="186.3709"
   id="tspan249">âˆ’</tspan>4</text>
    <path
       d="m 751.89908,646.9779 c 0,-6.963 5.644,-12.607 12.607,-12.607 h 9.786 c 6.963,0 12.607,5.644 12.607,12.607 v 10.786 c 0,6.963 -5.644,12.607 -12.607,12.607 h -9.786 c -6.963,0 -12.607,-5.644 -12.607,-12.607 z"
       fill="#7030a0"
       fill-rule="evenodd"
       fill-opacity="0.301961"
       id="path253" />
    <text
       font-family="Calibri, Calibri_MSFontService, sans-serif"
       font-weight="400"
       font-size="27px"
       id="text259"
       x="796.06305"
       y="661.37091">Homogenous linear system i.e. Ağ‘£<tspan
   font-family="'Cambria Math', 'Cambria Math_MSFontService', sans-serif"
   font-size="18px"
   x="1164.196"
   y="667.37091"
   id="tspan257">â„</tspan></text>
    <path
       d="m 1172.8391,640.1879 3.3,2.861 v 0.764 l -3.3,2.861 -0.7,-0.791 2.11,-1.832 h -5.36 -2.69 -1.95 -3.27 -1.37 -3.27 -4.64 v -1.24 h 4.64 3.27 1.37 3.27 1.95 2.69 5.36 l -2.11,-1.832 z"
       fill-rule="evenodd"
       id="path261" />
    <text
       font-family="Calibri, Calibri_MSFontService, sans-serif"
       font-weight="400"
       font-size="27px"
       id="text263"
       x="1180.479"
       y="661.37091">= 0</text>
  </g>
</svg>
