<?xml version="1.0" encoding="UTF-8" standalone="no"?>
<svg
   width="1280"
   height="580"
   overflow="hidden"
   version="1.1"
   id="svg243"
   sodipodi:docname="linear_systems-determinant_definition.svg"
   inkscape:version="1.2 (dc2aedaf03, 2022-05-15)"
   xmlns:inkscape="http://www.inkscape.org/namespaces/inkscape"
   xmlns:sodipodi="http://sodipodi.sourceforge.net/DTD/sodipodi-0.dtd"
   xmlns="http://www.w3.org/2000/svg"
   xmlns:svg="http://www.w3.org/2000/svg">
  <sodipodi:namedview
     id="namedview245"
     pagecolor="#ffffff"
     bordercolor="#000000"
     borderopacity="0.25"
     inkscape:showpageshadow="2"
     inkscape:pageopacity="0.0"
     inkscape:pagecheckerboard="0"
     inkscape:deskcolor="#d1d1d1"
     showgrid="false"
     inkscape:zoom="0.92709556"
     inkscape:cx="387.77017"
     inkscape:cy="360.26491"
     inkscape:window-width="2560"
     inkscape:window-height="1494"
     inkscape:window-x="-11"
     inkscape:window-y="-11"
     inkscape:window-maximized="1"
     inkscape:current-layer="svg243" />
  <defs
     id="defs5">
    <clipPath
       id="clip0">
      <rect
         x="0"
         y="0"
         width="1280"
         height="720"
         id="rect2" />
    </clipPath>
  </defs>
  <g
     clip-path="url(#clip0)"
     id="g241"
     transform="translate(63.63961,-28.044574)">
    <rect
       x="0"
       y="0"
       width="1280"
       height="720"
       fill="#ffffff"
       id="rect7" />
    <text
       font-family="Calibri, Calibri_MSFontService, sans-serif"
       font-weight="400"
       font-size="43px"
       transform="translate(363.211,101)"
       id="text11">Finding the <tspan
   font-size="43px"
   x="204.33299"
   y="0"
   id="tspan9">determinant</tspan></text>
    <path
       d="M 178,249.361 C 178,240.325 185.325,233 194.361,233 h 119.278 c 9.036,0 16.361,7.325 16.361,16.361 v 94.278 C 330,352.675 322.675,360 313.639,360 H 194.361 C 185.325,360 178,352.675 178,343.639 Z"
       fill="#e2f0d9"
       fill-rule="evenodd"
       id="path13" />
    <path
       d="m 205.463,252.207 c -1.073,0 -2.037,0.432 -2.891,1.297 -0.854,0.865 -1.521,2.023 -2,3.476 -0.479,1.454 -0.719,2.904 -0.719,4.352 0,1.083 0.149,1.893 0.446,2.43 0.297,0.536 0.794,0.804 1.492,0.804 0.687,0 1.362,-0.296 2.023,-0.89 0.662,-0.594 1.344,-1.44 2.047,-2.539 0.703,-1.099 1.201,-2.367 1.492,-3.805 l 0.141,-0.672 c 0.094,-0.427 0.156,-0.797 0.187,-1.109 0.032,-0.313 0.047,-0.651 0.047,-1.016 0,-0.802 -0.172,-1.39 -0.515,-1.765 -0.344,-0.375 -0.927,-0.563 -1.75,-0.563 z m -0.313,-1.234 c 0.677,0 1.31,0.075 1.899,0.226 0.588,0.151 1.195,0.42 1.82,0.805 l 1.437,-1.031 1,0.25 -2.296,9.906 c -0.23,0.99 -0.344,1.76 -0.344,2.312 0,0.417 0.068,0.719 0.203,0.907 0.135,0.187 0.349,0.281 0.641,0.281 0.312,0 0.645,-0.128 1,-0.383 0.354,-0.255 0.854,-0.742 1.5,-1.461 l 0.89,0.875 c -0.937,1 -1.737,1.711 -2.398,2.133 -0.662,0.422 -1.378,0.633 -2.149,0.633 -0.645,0 -1.161,-0.214 -1.547,-0.641 -0.385,-0.427 -0.578,-0.995 -0.578,-1.703 0,-0.573 0.12,-1.182 0.36,-1.828 l -0.203,-0.063 c -1,1.459 -1.948,2.526 -2.844,3.204 -0.896,0.677 -1.844,1.015 -2.844,1.015 -1.146,0 -2.034,-0.432 -2.664,-1.297 -0.63,-0.864 -0.945,-2.078 -0.945,-3.64 0,-1.792 0.351,-3.513 1.054,-5.164 0.704,-1.651 1.67,-2.954 2.899,-3.907 1.229,-0.953 2.599,-1.429 4.109,-1.429 z"
       fill-rule="evenodd"
       id="path15" />
    <text
       fill="#000000"
       fill-opacity="0"
       font-family="Arial, Arial_MSFontService, sans-serif"
       font-size="15.4531px"
       x="197.088"
       y="264.49399"
       id="text17">ğ‘</text>
    <path
       d="m 257.844,252.816 c -0.5,0 -0.992,0.159 -1.476,0.477 -0.485,0.318 -1.024,0.844 -1.617,1.578 -0.594,0.734 -1.078,1.487 -1.453,2.258 -0.375,0.771 -0.693,1.755 -0.954,2.953 l -0.14,0.656 c -0.156,0.729 -0.235,1.438 -0.235,2.125 0,0.823 0.18,1.417 0.539,1.782 0.36,0.364 0.956,0.546 1.79,0.546 0.427,0 0.833,-0.07 1.218,-0.211 0.386,-0.14 0.779,-0.372 1.18,-0.695 0.401,-0.323 0.781,-0.747 1.141,-1.273 0.359,-0.526 0.69,-1.175 0.992,-1.946 0.302,-0.77 0.536,-1.596 0.703,-2.476 0.167,-0.88 0.25,-1.721 0.25,-2.524 0,-1.083 -0.154,-1.895 -0.461,-2.437 -0.307,-0.542 -0.8,-0.813 -1.477,-0.813 z m -2.734,-8.984 h 0.906 l -2.75,10.938 0.203,0.062 c 1.011,-1.354 1.959,-2.333 2.844,-2.937 0.886,-0.605 1.771,-0.907 2.656,-0.907 1.136,0 2.019,0.433 2.649,1.297 0.63,0.865 0.945,2.084 0.945,3.656 0,1.719 -0.346,3.409 -1.039,5.071 -0.693,1.661 -1.654,2.979 -2.883,3.953 -1.229,0.974 -2.604,1.461 -4.125,1.461 -1.385,0 -2.614,-0.339 -3.687,-1.016 l -1.438,1.016 -1,-0.25 4.047,-17.86 c 0.24,-1.062 0.36,-1.833 0.36,-2.312 0,-0.438 -0.133,-0.745 -0.399,-0.922 -0.266,-0.177 -0.742,-0.276 -1.43,-0.297 l 0.188,-0.812 z"
       fill-rule="evenodd"
       id="path19" />
    <text
       fill="#000000"
       fill-opacity="0"
       font-family="Arial, Arial_MSFontService, sans-serif"
       font-size="22.5938px"
       x="248.39101"
       y="263.60199"
       id="text21">ğ‘</text>
    <path
       d="m 308.964,250.988 c 1.386,0 2.662,0.157 3.828,0.469 l -0.765,3.531 h -1.641 c -0.021,-0.791 -0.086,-1.364 -0.195,-1.718 -0.11,-0.355 -0.287,-0.62 -0.532,-0.797 -0.244,-0.177 -0.591,-0.266 -1.039,-0.266 -1.052,0 -1.997,0.419 -2.836,1.258 -0.838,0.838 -1.523,2.026 -2.054,3.562 -0.531,1.537 -0.797,3.013 -0.797,4.43 0,1.063 0.208,1.852 0.625,2.367 0.417,0.516 1.042,0.774 1.875,0.774 0.948,0 1.768,-0.18 2.461,-0.539 0.693,-0.36 1.424,-0.925 2.195,-1.696 l 0.953,0.953 c -0.979,1.084 -1.966,1.875 -2.961,2.375 -0.994,0.5 -2.065,0.75 -3.211,0.75 -1.51,0 -2.656,-0.447 -3.437,-1.343 -0.781,-0.896 -1.172,-2.198 -1.172,-3.907 0,-1.114 0.208,-2.338 0.625,-3.671 0.417,-1.334 1.026,-2.506 1.828,-3.516 0.802,-1.01 1.74,-1.766 2.813,-2.266 1.073,-0.5 2.218,-0.75 3.437,-0.75 z"
       fill-rule="evenodd"
       id="path23" />
    <text
       fill="#000000"
       fill-opacity="0"
       font-family="Arial, Arial_MSFontService, sans-serif"
       font-size="15.4531px"
       x="300.26099"
       y="264.51001"
       id="text25">ğ‘</text>
    <path
       d="m 204.985,289.72 c -1.063,0 -2.016,0.43 -2.86,1.289 -0.843,0.86 -1.507,2.019 -1.992,3.477 -0.484,1.458 -0.726,2.911 -0.726,4.359 0,1.084 0.148,1.894 0.445,2.43 0.297,0.537 0.794,0.805 1.492,0.805 0.323,0 0.651,-0.071 0.985,-0.211 0.333,-0.141 0.679,-0.367 1.039,-0.68 0.359,-0.312 0.713,-0.693 1.062,-1.14 0.349,-0.448 0.669,-0.899 0.961,-1.352 0.292,-0.453 0.563,-0.99 0.813,-1.609 0.25,-0.62 0.463,-1.368 0.64,-2.243 l 0.141,-0.671 c 0.156,-0.75 0.234,-1.459 0.234,-2.125 0,-0.813 -0.172,-1.404 -0.515,-1.774 -0.344,-0.37 -0.917,-0.555 -1.719,-0.555 z m 6.547,-8.375 h 0.922 l -3.891,17.297 c -0.229,1.021 -0.344,1.792 -0.344,2.313 0,0.416 0.068,0.719 0.203,0.906 0.136,0.188 0.349,0.281 0.641,0.281 0.312,0 0.646,-0.127 1,-0.383 0.354,-0.255 0.854,-0.742 1.5,-1.46 l 0.891,0.875 c -0.959,1.01 -1.766,1.723 -2.422,2.14 -0.657,0.417 -1.365,0.625 -2.125,0.625 -0.646,0 -1.162,-0.213 -1.547,-0.64 -0.386,-0.428 -0.578,-0.995 -0.578,-1.704 0,-0.573 0.119,-1.182 0.359,-1.828 l -0.203,-0.062 c -1,1.458 -1.948,2.526 -2.844,3.203 -0.896,0.677 -1.844,1.016 -2.844,1.016 -1.145,0 -2.033,-0.433 -2.664,-1.297 -0.63,-0.865 -0.945,-2.078 -0.945,-3.641 0,-1.792 0.352,-3.513 1.055,-5.164 0.703,-1.651 1.669,-2.953 2.898,-3.906 1.229,-0.953 2.599,-1.43 4.11,-1.43 0.635,0 1.221,0.065 1.757,0.195 0.537,0.131 1.086,0.357 1.649,0.68 l 0.812,-3.609 c 0.084,-0.344 0.157,-0.724 0.219,-1.141 0.063,-0.417 0.094,-0.781 0.094,-1.094 0,-0.312 -0.057,-0.549 -0.172,-0.711 -0.115,-0.161 -0.279,-0.278 -0.492,-0.351 -0.214,-0.073 -0.597,-0.125 -1.149,-0.156 l 0.188,-0.813 z"
       fill-rule="evenodd"
       id="path27" />
    <text
       fill="#000000"
       fill-opacity="0"
       font-family="Arial, Arial_MSFontService, sans-serif"
       font-size="22.5938px"
       x="196.64101"
       y="301.11499"
       id="text29">ğ‘‘</text>
    <path
       d="m 257.747,289.72 c -1.052,0 -2.065,0.532 -3.039,1.594 -0.974,1.063 -1.721,2.5 -2.242,4.313 1.469,-0.011 2.729,-0.144 3.781,-0.399 1.052,-0.255 1.86,-0.661 2.422,-1.219 0.563,-0.557 0.844,-1.309 0.844,-2.257 0,-0.636 -0.148,-1.133 -0.445,-1.493 -0.297,-0.359 -0.737,-0.539 -1.321,-0.539 z m 0.563,-1.234 c 1.26,0 2.206,0.255 2.836,0.766 0.63,0.51 0.945,1.307 0.945,2.39 0,1.771 -0.831,3.099 -2.492,3.985 -1.662,0.885 -4.128,1.328 -7.399,1.328 -0.125,0.625 -0.187,1.302 -0.187,2.031 0,1.094 0.213,1.888 0.641,2.383 0.427,0.495 1.125,0.742 2.093,0.742 0.959,0 1.826,-0.208 2.602,-0.625 0.776,-0.417 1.596,-1.057 2.461,-1.922 l 0.969,1.016 c -1.011,1.114 -2.034,1.953 -3.071,2.515 -1.036,0.563 -2.242,0.844 -3.617,0.844 -1.51,0 -2.68,-0.461 -3.508,-1.383 -0.828,-0.922 -1.242,-2.205 -1.242,-3.851 0,-1.115 0.201,-2.31 0.602,-3.586 0.401,-1.276 1.007,-2.422 1.82,-3.438 0.812,-1.015 1.786,-1.802 2.922,-2.359 1.135,-0.557 2.344,-0.836 3.625,-0.836 z"
       fill-rule="evenodd"
       id="path31" />
    <text
       fill="#000000"
       fill-opacity="0"
       font-family="Arial, Arial_MSFontService, sans-serif"
       font-size="15.4531px"
       x="249.341"
       y="302.008"
       id="text33">ğ‘’</text>
    <path
       d="m 311.879,281.252 c 1.021,0 1.901,0.083 2.641,0.25 l -0.61,2.656 h -1.375 c -0.145,-0.594 -0.336,-1.021 -0.57,-1.281 -0.234,-0.261 -0.581,-0.391 -1.039,-0.391 -0.594,0 -1.096,0.164 -1.508,0.492 -0.411,0.328 -0.763,0.815 -1.054,1.461 -0.292,0.646 -0.563,1.516 -0.813,2.61 l -0.391,1.703 h 4.016 l -0.344,1.578 h -4.031 l -2.906,13.625 c -0.479,2.26 -1.214,3.945 -2.203,5.054 -0.99,1.11 -2.235,1.665 -3.735,1.665 -0.437,0 -0.781,-0.027 -1.031,-0.079 l 0.266,-1.375 c 0.104,0.032 0.349,0.047 0.734,0.047 0.469,0 0.87,-0.12 1.203,-0.359 0.334,-0.24 0.643,-0.656 0.93,-1.25 0.286,-0.594 0.549,-1.417 0.789,-2.469 l 3.359,-14.859 h -2.64 l 0.234,-1.078 c 0.698,-0.042 1.201,-0.099 1.508,-0.172 0.307,-0.073 0.547,-0.183 0.719,-0.328 0.171,-0.146 0.317,-0.336 0.437,-0.571 0.12,-0.234 0.274,-0.664 0.461,-1.289 0.552,-1.875 1.404,-3.284 2.555,-4.226 1.151,-0.943 2.617,-1.414 4.398,-1.414 z"
       fill-rule="evenodd"
       id="path35" />
    <text
       fill="#000000"
       fill-opacity="0"
       font-family="Arial, Arial_MSFontService, sans-serif"
       font-size="29.4219px"
       x="296.92599"
       y="306.996"
       id="text37">ğ‘“</text>
    <path
       d="m 206.687,329.247 c -1.063,0 -2.016,0.43 -2.86,1.289 -0.843,0.859 -1.507,2.018 -1.992,3.477 -0.484,1.458 -0.726,2.911 -0.726,4.359 0,1.083 0.156,1.893 0.468,2.43 0.313,0.536 0.803,0.804 1.469,0.804 0.531,0 1.06,-0.182 1.586,-0.546 0.526,-0.365 1.089,-0.943 1.688,-1.735 0.599,-0.791 1.065,-1.547 1.398,-2.265 0.333,-0.719 0.617,-1.615 0.852,-2.688 0.234,-1.073 0.351,-2.005 0.351,-2.797 0,-0.812 -0.172,-1.403 -0.515,-1.773 -0.344,-0.37 -0.917,-0.555 -1.719,-0.555 z m -0.25,-1.234 c 0.656,0 1.276,0.078 1.859,0.234 0.584,0.156 1.172,0.422 1.766,0.797 l 1.437,-1.031 1,0.25 -1.609,7.281 c -0.115,0.51 -0.375,1.797 -0.781,3.859 -0.427,2.188 -0.774,3.735 -1.039,4.641 -0.266,0.906 -0.597,1.732 -0.993,2.476 -0.395,0.745 -0.906,1.394 -1.531,1.946 -0.625,0.552 -1.383,0.979 -2.273,1.281 -0.891,0.302 -1.946,0.453 -3.164,0.453 -3.938,0 -5.907,-1.146 -5.907,-3.437 0,-0.584 0.178,-1.115 0.532,-1.594 0.354,-0.479 0.922,-0.984 1.703,-1.516 l 1.125,0.907 c -0.198,0.239 -0.365,0.476 -0.5,0.71 -0.136,0.235 -0.232,0.461 -0.289,0.68 -0.057,0.219 -0.086,0.479 -0.086,0.781 0,0.782 0.281,1.352 0.844,1.711 0.562,0.36 1.411,0.539 2.546,0.539 1.282,0 2.31,-0.289 3.086,-0.867 0.776,-0.578 1.441,-1.508 1.993,-2.789 0.552,-1.281 1.088,-3.219 1.609,-5.812 l -0.219,-0.047 c -1.01,1.385 -1.948,2.396 -2.812,3.031 -0.865,0.635 -1.797,0.953 -2.797,0.953 -1.136,0 -2.018,-0.427 -2.649,-1.281 -0.63,-0.854 -0.945,-2.073 -0.945,-3.656 0,-1.782 0.349,-3.493 1.047,-5.133 0.698,-1.641 1.667,-2.945 2.906,-3.914 1.24,-0.969 2.62,-1.453 4.141,-1.453 z"
       fill-rule="evenodd"
       id="path39" />
    <text
       fill="#000000"
       fill-opacity="0"
       font-family="Arial, Arial_MSFontService, sans-serif"
       font-size="22.1875px"
       x="195.202"
       y="347.427"
       id="text41">ğ‘”</text>
    <path
       d="m 254.921,320.872 h 0.906 l -2.687,10.828 0.187,0.063 c 0.99,-1.313 1.925,-2.263 2.805,-2.852 0.88,-0.588 1.768,-0.883 2.664,-0.883 0.969,0 1.714,0.279 2.234,0.836 0.521,0.558 0.782,1.331 0.782,2.321 0,0.656 -0.151,1.588 -0.453,2.796 l -1.016,4.094 c -0.281,1.136 -0.422,1.938 -0.422,2.406 0,0.417 0.068,0.719 0.203,0.907 0.136,0.187 0.349,0.281 0.641,0.281 0.312,0 0.646,-0.128 1,-0.383 0.354,-0.255 0.854,-0.742 1.5,-1.461 l 0.89,0.875 c -1,1.052 -1.82,1.776 -2.461,2.172 -0.64,0.396 -1.361,0.594 -2.164,0.594 -0.677,0 -1.216,-0.24 -1.617,-0.719 -0.401,-0.479 -0.601,-1.099 -0.601,-1.859 0,-0.677 0.172,-1.672 0.515,-2.985 l 0.672,-2.703 c 0.24,-0.969 0.401,-1.695 0.485,-2.18 0.083,-0.484 0.125,-0.861 0.125,-1.132 0,-0.74 -0.12,-1.263 -0.36,-1.571 -0.239,-0.307 -0.63,-0.461 -1.172,-0.461 -0.427,0 -0.901,0.178 -1.422,0.532 -0.52,0.354 -1.067,0.893 -1.64,1.617 -0.573,0.724 -1.029,1.417 -1.367,2.078 -0.339,0.661 -0.607,1.451 -0.805,2.367 l -1.422,6.766 h -2.703 l 4.016,-17.86 c 0.25,-1.114 0.375,-1.885 0.375,-2.312 0,-0.438 -0.133,-0.745 -0.399,-0.922 -0.266,-0.177 -0.742,-0.276 -1.43,-0.297 l 0.188,-0.812 z"
       fill-rule="evenodd"
       id="path43" />
    <text
       fill="#000000"
       fill-opacity="0"
       font-family="Arial, Arial_MSFontService, sans-serif"
       font-size="22.5938px"
       x="248.218"
       y="340.642"
       id="text45">â„</text>
    <path
       d="m 307.358,328.138 h 0.922 l -2.25,10.031 c -0.229,1.021 -0.344,1.792 -0.344,2.312 0,0.417 0.068,0.719 0.203,0.907 0.136,0.187 0.349,0.281 0.641,0.281 0.312,0 0.646,-0.128 1,-0.383 0.354,-0.255 0.854,-0.742 1.5,-1.461 l 0.891,0.875 c -1.021,1.073 -1.849,1.802 -2.485,2.188 -0.635,0.385 -1.349,0.578 -2.14,0.578 -0.677,0 -1.219,-0.248 -1.625,-0.742 -0.407,-0.495 -0.61,-1.128 -0.61,-1.899 0,-0.791 0.146,-1.802 0.438,-3.031 l 1.172,-5.109 c 0.239,-1.042 0.359,-1.823 0.359,-2.344 0,-0.469 -0.112,-0.787 -0.336,-0.953 -0.224,-0.167 -0.664,-0.261 -1.32,-0.282 l 0.172,-0.828 z m -0.422,-5.985 h 2.766 l -0.719,3.032 h -2.766 z"
       fill-rule="evenodd"
       id="path47" />
    <text
       fill="#000000"
       fill-opacity="0"
       font-family="Arial, Arial_MSFontService, sans-serif"
       font-size="21.3125px"
       x="303.061"
       y="340.802"
       id="text49">ğ‘–</text>
    <text
       font-family="Calibri, Calibri_MSFontService, sans-serif"
       font-weight="400"
       font-size="43px"
       transform="translate(107.197,309)"
       id="text57">A =<tspan
   font-size="43px"
   x="335.62701"
   y="-51"
   id="tspan51">A</tspan><tspan
   font-size="28px"
   x="360.29401"
   y="-41"
   id="tspan53">11</tspan><tspan
   font-size="43px"
   x="398.95999"
   y="-51"
   id="tspan55">=</tspan></text>
    <path
       d="M 542,213.595 C 542,207.191 547.191,202 553.595,202 h 73.81 c 6.404,0 11.595,5.191 11.595,11.595 v 66.81 C 639,286.809 633.809,292 627.405,292 h -73.81 C 547.191,292 542,286.809 542,280.405 Z"
       fill="#e2f0d9"
       fill-rule="evenodd"
       id="path59" />
    <text
       font-family="'Cambria Math', 'Cambria Math_MSFontService', sans-serif"
       font-weight="400"
       font-size="32px"
       transform="translate(558.844,238)"
       id="text83">ğ‘’<tspan
   font-size="32px"
   x="49.459999"
   y="0"
   id="tspan61">ğ‘“</tspan><tspan
   font-size="32px"
   x="-0.91998303"
   y="39"
   id="tspan63">â„</tspan><tspan
   font-size="32px"
   x="53.173302"
   y="39"
   id="tspan65">ğ‘–</tspan><tspan
   font-family="Calibri, Calibri_MSFontService, sans-serif"
   font-size="24px"
   x="-157.834"
   y="-60"
   id="tspan67">(</tspan><tspan
   font-family="Calibri, Calibri_MSFontService, sans-serif"
   font-size="24px"
   x="-150.5"
   y="-60"
   id="tspan69">i</tspan><tspan
   font-family="Calibri, Calibri_MSFontService, sans-serif"
   font-size="24px"
   x="-145"
   y="-60"
   id="tspan71">, j)</tspan><tspan
   font-family="Calibri, Calibri_MSFontService, sans-serif"
   font-size="24px"
   x="-120.5"
   y="-60"
   id="tspan73">-</tspan><tspan
   font-family="Calibri, Calibri_MSFontService, sans-serif"
   font-size="24px"
   x="-113.167"
   y="-60"
   id="tspan75">cofactor submatrix of A</tspan><tspan
   font-family="Calibri, Calibri_MSFontService, sans-serif"
   font-size="43px"
   x="-116.02"
   y="126"
   id="tspan77">A</tspan><tspan
   font-family="Calibri, Calibri_MSFontService, sans-serif"
   font-size="28px"
   x="-91.353401"
   y="136"
   id="tspan79">12</tspan><tspan
   font-family="Calibri, Calibri_MSFontService, sans-serif"
   font-size="43px"
   x="-52.686699"
   y="126"
   id="tspan81">=</tspan></text>
    <path
       d="M 542,319.595 C 542,313.191 547.191,308 553.595,308 h 73.81 c 6.404,0 11.595,5.191 11.595,11.595 v 66.81 C 639,392.809 633.809,398 627.405,398 h -73.81 C 547.191,398 542,392.809 542,386.405 Z"
       fill="#e2f0d9"
       fill-rule="evenodd"
       id="path85" />
    <text
       font-family="'Cambria Math', 'Cambria Math_MSFontService', sans-serif"
       font-weight="400"
       font-size="32px"
       transform="translate(557.358,343)"
       id="text157">ğ‘‘<tspan
   font-size="32px"
   x="51.779999"
   y="0"
   id="tspan87">ğ‘“</tspan><tspan
   font-size="32px"
   x="-0.26672399"
   y="38"
   id="tspan89">ğ‘”</tspan><tspan
   font-size="32px"
   x="55.493301"
   y="38"
   id="tspan91">ğ‘–</tspan><tspan
   font-family="Calibri, Calibri_MSFontService, sans-serif"
   font-size="24px"
   x="274.56699"
   y="-166"
   id="tspan93">(</tspan><tspan
   font-family="Calibri, Calibri_MSFontService, sans-serif"
   font-size="24px"
   x="281.89999"
   y="-166"
   id="tspan95">i</tspan><tspan
   font-family="Calibri, Calibri_MSFontService, sans-serif"
   font-size="24px"
   x="287.39999"
   y="-166"
   id="tspan97">, j)</tspan><tspan
   font-family="Calibri, Calibri_MSFontService, sans-serif"
   font-size="24px"
   x="311.89999"
   y="-166"
   id="tspan99">-</tspan><tspan
   font-family="Calibri, Calibri_MSFontService, sans-serif"
   font-size="24px"
   x="319.23401"
   y="-166"
   id="tspan101">cofactor</tspan><tspan
   font-family="Calibri, Calibri_MSFontService, sans-serif"
   font-size="24px"
   x="404.66699"
   y="-166"
   id="tspan103">of</tspan><tspan
   font-family="Calibri, Calibri_MSFontService, sans-serif"
   font-size="24px"
   x="430.16699"
   y="-166"
   id="tspan105">A</tspan><tspan
   font-family="Calibri, Calibri_MSFontService, sans-serif"
   font-size="43px"
   x="227.877"
   y="-85"
   id="tspan107">(</tspan><tspan
   font-family="Calibri, Calibri_MSFontService, sans-serif"
   font-size="43px"
   x="240.877"
   y="-85"
   id="tspan109">-</tspan><tspan
   font-family="Calibri, Calibri_MSFontService, sans-serif"
   font-size="43px"
   x="253.877"
   y="-85"
   id="tspan111">1)</tspan><tspan
   font-family="Calibri, Calibri_MSFontService, sans-serif"
   font-size="28px"
   x="288.543"
   y="-98"
   id="tspan113">(1+1)</tspan><tspan
   font-family="Calibri, Calibri_MSFontService, sans-serif"
   font-size="43px"
   x="349.043"
   y="-85"
   id="tspan115">det(A</tspan><tspan
   font-family="Calibri, Calibri_MSFontService, sans-serif"
   font-size="28px"
   x="444.483"
   y="-75"
   id="tspan117">11</tspan><tspan
   font-family="Calibri, Calibri_MSFontService, sans-serif"
   font-size="43px"
   x="473.483"
   y="-85"
   id="tspan119">)</tspan><tspan
   font-family="Calibri, Calibri_MSFontService, sans-serif"
   font-size="43px"
   x="227.877"
   y="21"
   id="tspan121">(</tspan><tspan
   font-family="Calibri, Calibri_MSFontService, sans-serif"
   font-size="43px"
   x="240.877"
   y="21"
   id="tspan123">-</tspan><tspan
   font-family="Calibri, Calibri_MSFontService, sans-serif"
   font-size="43px"
   x="253.877"
   y="21"
   id="tspan125">1)</tspan><tspan
   font-family="Calibri, Calibri_MSFontService, sans-serif"
   font-size="28px"
   x="288.543"
   y="8"
   id="tspan127">(</tspan><tspan
   font-family="Calibri, Calibri_MSFontService, sans-serif"
   font-size="28px"
   x="297.20999"
   y="8"
   id="tspan129">1+2)</tspan><tspan
   font-family="Calibri, Calibri_MSFontService, sans-serif"
   font-size="43px"
   x="349.043"
   y="21"
   id="tspan131">det(</tspan><tspan
   font-family="Calibri, Calibri_MSFontService, sans-serif"
   font-size="43px"
   x="419.81699"
   y="21"
   id="tspan133">A</tspan><tspan
   font-family="Calibri, Calibri_MSFontService, sans-serif"
   font-size="28px"
   x="444.483"
   y="31"
   id="tspan135">12</tspan><tspan
   font-family="Calibri, Calibri_MSFontService, sans-serif"
   font-size="43px"
   x="473.483"
   y="21"
   id="tspan137">)</tspan><tspan
   font-family="Calibri, Calibri_MSFontService, sans-serif"
   font-size="32px"
   x="-452.07001"
   y="165"
   id="tspan139">For any row (integer</tspan><tspan
   font-family="Calibri, Calibri_MSFontService, sans-serif"
   font-size="32px"
   x="-183.157"
   y="165"
   id="tspan141">i</tspan><tspan
   font-family="Calibri, Calibri_MSFontService, sans-serif"
   font-size="32px"
   x="-175.823"
   y="165"
   id="tspan143">):</tspan><tspan
   font-family="Calibri, Calibri_MSFontService, sans-serif"
   font-size="32px"
   x="99.8022"
   y="165"
   id="tspan145">For any</tspan><tspan
   font-family="Calibri, Calibri_MSFontService, sans-serif"
   font-size="32px"
   x="202.436"
   y="165"
   id="tspan147">column</tspan><tspan
   font-family="Calibri, Calibri_MSFontService, sans-serif"
   font-size="32px"
   x="306.16901"
   y="165"
   id="tspan149">(integer</tspan><tspan
   font-family="Calibri, Calibri_MSFontService, sans-serif"
   font-size="32px"
   x="415.08899"
   y="165"
   id="tspan151">j</tspan><tspan
   font-family="Calibri, Calibri_MSFontService, sans-serif"
   font-size="32px"
   x="422.75601"
   y="165"
   id="tspan153">):</tspan><tspan
   font-family="Calibri, Calibri_MSFontService, sans-serif"
   font-size="32px"
   x="-450.16"
   y="214"
   id="tspan155">det(A) =</tspan></text>
    <path
       d="M 5.48438,-20.7344 13.0938,-9.1875 V -8 L 4.5625,3.71875 h 10.2813 c 0.6458,0 1.1328,-0.04167 1.4609,-0.125 0.3281,-0.08333 0.6094,-0.21094 0.8437,-0.38281 0.2344,-0.17188 0.448,-0.41146 0.6407,-0.71875 0.1927,-0.30729 0.3776,-0.73177 0.5547,-1.27344 0.177,-0.541667 0.3437,-1.25 0.5,-2.125 h 1.8281 l -0.4531,7.625 H 0.40625 v -0.875 L 10.0625,-7.42188 1,-21.4688 v -0.8906 h 19.2969 v 6.9532 h -1.6875 c -0.2604,-0.9896 -0.5078,-1.7969 -0.7422,-2.4219 -0.2344,-0.625 -0.474,-1.1198 -0.7188,-1.4844 -0.2448,-0.3646 -0.4948,-0.6432 -0.75,-0.8359 -0.2552,-0.1927 -0.5494,-0.3386 -0.8828,-0.4375 -0.3333,-0.099 -0.776,-0.1485 -1.3281,-0.1485 z"
       transform="translate(218.691,556)"
       id="path159" />
    <path
       d="m 325.46,533.035 c 3.041,0.802 5.377,2.534 7.007,5.195 1.631,2.661 2.446,5.872 2.446,9.633 0,3.771 -0.813,6.982 -2.438,9.633 -1.625,2.651 -3.963,4.377 -7.015,5.179 l -0.375,-1.203 c 2.406,-0.802 4.195,-2.385 5.367,-4.75 1.172,-2.364 1.758,-5.37 1.758,-9.015 0,-3.521 -0.584,-6.446 -1.75,-8.774 -1.167,-2.328 -2.974,-3.893 -5.422,-4.695 z m -29.53,0 0.421,1.203 c -2.437,0.802 -4.242,2.367 -5.414,4.695 -1.171,2.328 -1.757,5.253 -1.757,8.774 0,3.645 0.586,6.651 1.757,9.015 1.172,2.365 2.961,3.948 5.368,4.75 l -0.375,1.203 c -3.053,-0.802 -5.391,-2.528 -7.016,-5.179 -1.625,-2.651 -2.438,-5.862 -2.438,-9.633 0,-3.761 0.816,-6.972 2.446,-9.633 1.63,-2.661 3.966,-4.393 7.008,-5.195 z"
       fill-rule="evenodd"
       id="path161" />
    <text
       font-family="Calibri, Calibri_MSFontService, sans-serif"
       font-weight="400"
       font-size="32px"
       transform="translate(296.944,557)"
       id="text199">-<tspan
   font-family="'Cambria Math', 'Cambria Math_MSFontService', sans-serif"
   font-size="32px"
   x="9.8333397"
   y="0"
   id="tspan163">1</tspan><tspan
   font-size="21px"
   x="40.779999"
   y="-10"
   id="tspan165">(</tspan><tspan
   font-size="21px"
   x="47.279999"
   y="-10"
   id="tspan167">i</tspan><tspan
   font-size="21px"
   x="52.1133"
   y="-10"
   id="tspan169">+</tspan><tspan
   font-size="21px"
   x="62.779999"
   y="-10"
   id="tspan171">j</tspan><tspan
   font-size="21px"
   x="67.946701"
   y="-10"
   id="tspan173">)</tspan><tspan
   font-family="'Cambria Math', 'Cambria Math_MSFontService', sans-serif"
   font-size="32px"
   x="81.559998"
   y="0"
   id="tspan175">Ã—</tspan><tspan
   font-family="'Cambria Math', 'Cambria Math_MSFontService', sans-serif"
   font-size="32px"
   x="111.507"
   y="0"
   id="tspan177">ğ‘</tspan><tspan
   font-family="'Cambria Math', 'Cambria Math_MSFontService', sans-serif"
   font-size="21px"
   x="129.34"
   y="7"
   id="tspan179">ğ‘–ğ‘—</tspan><tspan
   font-family="'Cambria Math', 'Cambria Math_MSFontService', sans-serif"
   font-size="23px"
   x="-55.580002"
   y="-13"
   id="tspan181">ğ‘›</tspan><tspan
   font-family="'Cambria Math', 'Cambria Math_MSFontService', sans-serif"
   font-size="23px"
   x="-55.580002"
   y="8"
   id="tspan183">ğ‘—</tspan><tspan
   font-family="'Cambria Math', 'Cambria Math_MSFontService', sans-serif"
   font-size="23px"
   x="-43.779999"
   y="8"
   id="tspan185">=</tspan><tspan
   font-family="'Cambria Math', 'Cambria Math_MSFontService', sans-serif"
   font-size="23px"
   x="-26.780001"
   y="8"
   id="tspan187">1</tspan><tspan
   font-family="'Cambria Math', 'Cambria Math_MSFontService', sans-serif"
   font-size="32px"
   x="151.5"
   y="0"
   id="tspan189">Ã—</tspan><tspan
   font-size="32px"
   x="181.44701"
   y="0"
   id="tspan191">det(A</tspan><tspan
   font-family="'Cambria Math', 'Cambria Math_MSFontService', sans-serif"
   font-size="21px"
   x="253.11301"
   y="7"
   id="tspan193">ğ‘–ğ‘—</tspan><tspan
   font-size="32px"
   x="267.61301"
   y="0"
   id="tspan195">)</tspan><tspan
   font-size="32px"
   x="360.216"
   y="0"
   id="tspan197">det(A) =</tspan></text>
    <path
       d="M 5.48438,-20.7344 13.0938,-9.1875 V -8 L 4.5625,3.71875 h 10.2813 c 0.6458,0 1.1328,-0.04167 1.4609,-0.125 0.3281,-0.08333 0.6094,-0.21094 0.8437,-0.38281 0.2344,-0.17188 0.448,-0.41146 0.6407,-0.71875 0.1927,-0.30729 0.3776,-0.73177 0.5547,-1.27344 0.177,-0.541667 0.3437,-1.25 0.5,-2.125 h 1.8281 l -0.4531,7.625 H 0.40625 v -0.875 L 10.0625,-7.42188 1,-21.4688 v -0.8906 h 19.2969 v 6.9532 h -1.6875 c -0.2604,-0.9896 -0.5078,-1.7969 -0.7422,-2.4219 -0.2344,-0.625 -0.474,-1.1198 -0.7188,-1.4844 -0.2448,-0.3646 -0.4948,-0.6432 -0.75,-0.8359 -0.2552,-0.1927 -0.5494,-0.3386 -0.8828,-0.4375 -0.3333,-0.099 -0.776,-0.1485 -1.3281,-0.1485 z"
       transform="translate(768.653,556)"
       id="path201" />
    <path
       d="m 878.756,533.035 c 3.041,0.802 5.377,2.534 7.007,5.195 1.631,2.661 2.446,5.872 2.446,9.633 0,3.771 -0.813,6.982 -2.438,9.633 -1.625,2.651 -3.963,4.377 -7.015,5.179 l -0.375,-1.203 c 2.406,-0.802 4.195,-2.385 5.367,-4.75 1.172,-2.364 1.758,-5.37 1.758,-9.015 0,-3.521 -0.584,-6.446 -1.75,-8.774 -1.167,-2.328 -2.974,-3.893 -5.422,-4.695 z m -35.697,0 0.422,1.203 c -2.438,0.802 -4.242,2.367 -5.414,4.695 -1.172,2.328 -1.758,5.253 -1.758,8.774 0,3.645 0.586,6.651 1.758,9.015 1.172,2.365 2.961,3.948 5.367,4.75 l -0.375,1.203 c -3.052,-0.802 -5.391,-2.528 -7.016,-5.179 -1.625,-2.651 -2.437,-5.862 -2.437,-9.633 0,-3.761 0.815,-6.972 2.445,-9.633 1.63,-2.661 3.966,-4.393 7.008,-5.195 z"
       fill-rule="evenodd"
       id="path203" />
    <text
       font-family="Calibri, Calibri_MSFontService, sans-serif"
       font-weight="400"
       font-size="32px"
       transform="translate(844.073,557)"
       id="text239">âˆ’<tspan
   font-family="'Cambria Math', 'Cambria Math_MSFontService', sans-serif"
   font-size="32px"
   x="16"
   y="0"
   id="tspan205">1</tspan><tspan
   font-size="21px"
   x="46.946701"
   y="-10"
   id="tspan207">(</tspan><tspan
   font-size="21px"
   x="53.446701"
   y="-10"
   id="tspan209">i</tspan><tspan
   font-size="21px"
   x="58.279999"
   y="-10"
   id="tspan211">+</tspan><tspan
   font-size="21px"
   x="68.946701"
   y="-10"
   id="tspan213">j</tspan><tspan
   font-size="21px"
   x="74.113297"
   y="-10"
   id="tspan215">)</tspan><tspan
   font-family="'Cambria Math', 'Cambria Math_MSFontService', sans-serif"
   font-size="32px"
   x="87.7267"
   y="0"
   id="tspan217">Ã—</tspan><tspan
   font-family="'Cambria Math', 'Cambria Math_MSFontService', sans-serif"
   font-size="32px"
   x="117.673"
   y="0"
   id="tspan219">ğ‘</tspan><tspan
   font-family="'Cambria Math', 'Cambria Math_MSFontService', sans-serif"
   font-size="21px"
   x="135.507"
   y="7"
   id="tspan221">ğ‘–ğ‘—</tspan><tspan
   font-family="'Cambria Math', 'Cambria Math_MSFontService', sans-serif"
   font-size="23px"
   x="-52.7467"
   y="-13"
   id="tspan223">ğ‘›</tspan><tspan
   font-family="'Cambria Math', 'Cambria Math_MSFontService', sans-serif"
   font-size="23px"
   x="-52.7467"
   y="8"
   id="tspan225">ğ‘–</tspan><tspan
   font-family="'Cambria Math', 'Cambria Math_MSFontService', sans-serif"
   font-size="23px"
   x="-43.779999"
   y="8"
   id="tspan227">=</tspan><tspan
   font-family="'Cambria Math', 'Cambria Math_MSFontService', sans-serif"
   font-size="23px"
   x="-26.780001"
   y="8"
   id="tspan229">1</tspan><tspan
   font-family="'Cambria Math', 'Cambria Math_MSFontService', sans-serif"
   font-size="32px"
   x="157.66701"
   y="0"
   id="tspan231">Ã—</tspan><tspan
   font-size="32px"
   x="187.61301"
   y="0"
   id="tspan233">det(A</tspan><tspan
   font-family="'Cambria Math', 'Cambria Math_MSFontService', sans-serif"
   font-size="21px"
   x="259.28"
   y="7"
   id="tspan235">ğ‘–ğ‘—</tspan><tspan
   font-size="32px"
   x="273.78"
   y="0"
   id="tspan237">)</tspan></text>
  </g>
</svg>
