<?xml version="1.0" encoding="UTF-8" standalone="no"?>
<svg
   width="1280"
   height="640"
   overflow="hidden"
   version="1.1"
   id="svg271"
   sodipodi:docname="linear_systems-vector_subspace_examples.svg"
   inkscape:version="1.2 (dc2aedaf03, 2022-05-15)"
   xmlns:inkscape="http://www.inkscape.org/namespaces/inkscape"
   xmlns:sodipodi="http://sodipodi.sourceforge.net/DTD/sodipodi-0.dtd"
   xmlns="http://www.w3.org/2000/svg"
   xmlns:svg="http://www.w3.org/2000/svg">
  <sodipodi:namedview
     id="namedview273"
     pagecolor="#ffffff"
     bordercolor="#000000"
     borderopacity="0.25"
     inkscape:showpageshadow="2"
     inkscape:pageopacity="0.0"
     inkscape:pagecheckerboard="0"
     inkscape:deskcolor="#d1d1d1"
     showgrid="false"
     inkscape:zoom="0.92709556"
     inkscape:cx="585.16082"
     inkscape:cy="235.14297"
     inkscape:window-width="2880"
     inkscape:window-height="1514"
     inkscape:window-x="3829"
     inkscape:window-y="-11"
     inkscape:window-maximized="1"
     inkscape:current-layer="g269" />
  <defs
     id="defs5">
    <clipPath
       id="clip0">
      <rect
         x="0"
         y="0"
         width="1280"
         height="720"
         id="rect2" />
    </clipPath>
  </defs>
  <g
     clip-path="url(#clip0)"
     id="g269"
     transform="translate(24.808662,-33.437761)">
    <rect
       x="7.5504622"
       y="-2.157275"
       width="1280"
       height="720"
       fill="#ffffff"
       id="rect7" />
    <path
       d="m 125.55046,422.11572 c 0,-13.958 11.315,-25.273 25.273,-25.273 h 161.454 c 13.958,0 25.273,11.315 25.273,25.273 v 57.454 c 0,13.958 -11.315,25.273 -25.273,25.273 h -161.454 c -13.958,0 -25.273,-11.315 -25.273,-25.273 z"
       fill="#f4b183"
       fill-rule="evenodd"
       fill-opacity="0.4"
       id="path9" />
    <path
       d="m 125.55046,550.11572 c 0,-13.958 11.315,-25.273 25.273,-25.273 h 222.454 c 13.958,0 25.273,11.315 25.273,25.273 v 57.454 c 0,13.958 -11.315,25.273 -25.273,25.273 h -222.454 c -13.958,0 -25.273,-11.315 -25.273,-25.273 z"
       fill="#f4b183"
       fill-rule="evenodd"
       fill-opacity="0.4"
       id="path11" />
    <path
       d="m 125.55046,291.11572 c 0,-13.958 11.315,-25.273 25.273,-25.273 h 100.454 c 13.958,0 25.273,11.315 25.273,25.273 v 57.454 c 0,13.958 -11.315,25.273 -25.273,25.273 h -100.454 c -13.958,0 -25.273,-11.315 -25.273,-25.273 z"
       fill="#f4b183"
       fill-rule="evenodd"
       fill-opacity="0.4"
       id="path13" />
    <path
       d="m 243.55046,149.60672 c 0,-5.945 4.819,-10.764 10.764,-10.764 h 24.472 c 5.945,0 10.764,4.819 10.764,10.764 v 87.472 c 0,5.945 -4.819,10.764 -10.764,10.764 h -24.472 c -5.945,0 -10.764,-4.819 -10.764,-10.764 z"
       fill="#385723"
       fill-rule="evenodd"
       fill-opacity="0.4"
       id="path15" />
    <text
       font-family="Calibri, Calibri_MSFontService, sans-serif"
       font-weight="400"
       font-size="43px"
       id="text19"
       x="392.55444"
       y="102.84272">Vector <tspan
   font-size="43px"
   x="514.6745"
   y="102.84272"
   id="tspan17">subspace<tspan
   style="fill:#ffffff"
   id="tspan658">i</tspan></tspan>examples</text>
    <path
       d="m 912.55046,563.44972 c 0,-6.963 5.644,-12.607 12.607,-12.607 h 9.786 c 6.963,0 12.607,5.644 12.607,12.607 v 11.786 c 0,6.963 -5.644,12.607 -12.607,12.607 h -9.786 c -6.963,0 -12.607,-5.644 -12.607,-12.607 z"
       fill="#385723"
       fill-rule="evenodd"
       fill-opacity="0.4"
       id="path21" />
    <text
       font-family="Calibri, Calibri_MSFontService, sans-serif"
       font-weight="400"
       font-size="27px"
       id="text25"
       x="956.79248"
       y="577.84271">Vector<tspan
   font-size="32px"
   x="130.69247"
   y="587.84271"
   id="tspan23">Span</tspan></text>
    <path
       d="m 379.08346,530.88872 c 2.281,0.313 4.302,2.037 6.062,5.172 1.771,3.146 2.657,8.078 2.657,14.797 0,1.229 -0.089,2.675 -0.266,4.336 -0.177,1.662 -0.443,3.56 -0.797,5.695 -0.354,2.136 -0.62,3.925 -0.797,5.368 -0.177,1.442 -0.265,2.554 -0.265,3.336 0,2.531 0.369,4.489 1.109,5.875 0.75,1.375 1.708,2.114 2.875,2.218 v 1.61 c -1.167,0.104 -2.125,0.843 -2.875,2.218 -0.74,1.386 -1.109,3.344 -1.109,5.875 0,0.782 0.088,1.894 0.265,3.336 0.177,1.443 0.443,3.232 0.797,5.368 0.354,2.135 0.62,4.033 0.797,5.695 0.177,1.661 0.266,3.107 0.266,4.336 0,6.614 -0.886,11.495 -2.657,14.64 -1.76,3.136 -3.781,4.86 -6.062,5.172 v -1.343 c 1.427,-0.303 2.719,-1.698 3.875,-4.188 1.156,-2.479 1.734,-6.365 1.734,-11.656 0,-1.104 -0.086,-2.487 -0.258,-4.149 -0.171,-1.661 -0.424,-3.627 -0.757,-5.898 -0.334,-2.261 -0.586,-4.078 -0.758,-5.453 -0.172,-1.375 -0.258,-2.323 -0.258,-2.844 0,-3.031 0.307,-5.51 0.922,-7.437 0.604,-1.917 1.682,-3.339 3.234,-4.266 v -0.422 c -1.541,-0.917 -2.62,-2.333 -3.234,-4.25 -0.615,-1.937 -0.922,-4.422 -0.922,-7.453 0,-0.521 0.086,-1.469 0.258,-2.844 0.172,-1.375 0.424,-3.193 0.758,-5.453 0.333,-2.271 0.586,-4.237 0.757,-5.898 0.172,-1.662 0.258,-3.045 0.258,-4.149 0,-5.385 -0.578,-9.323 -1.734,-11.812 -1.156,-2.49 -2.448,-3.886 -3.875,-4.188 z m -165.808,0 v 1.344 c -1.427,0.302 -2.718,1.698 -3.875,4.188 -1.156,2.489 -1.734,6.427 -1.734,11.812 0,2.188 0.339,5.534 1.016,10.039 0.677,4.505 1.015,7.274 1.015,8.305 0,3.052 -0.307,5.534 -0.922,7.445 -0.614,1.912 -1.692,3.331 -3.234,4.258 v 0.422 c 1.542,0.927 2.62,2.346 3.234,4.258 0.615,1.911 0.922,4.393 0.922,7.445 0,1.031 -0.338,3.799 -1.015,8.305 -0.677,4.505 -1.016,7.851 -1.016,10.039 0,5.281 0.578,9.166 1.734,11.656 1.157,2.49 2.448,3.885 3.875,4.188 v 1.343 c -2.27,-0.312 -4.291,-2.036 -6.062,-5.172 -1.771,-3.135 -2.656,-8.015 -2.656,-14.64 0,-2.438 0.354,-5.781 1.062,-10.031 0.708,-4.25 1.063,-7.152 1.063,-8.704 0,-2.541 -0.373,-4.5 -1.118,-5.875 -0.744,-1.375 -1.7,-2.114 -2.867,-2.218 v -1.61 c 1.167,-0.104 2.123,-0.843 2.867,-2.218 0.745,-1.375 1.118,-3.334 1.118,-5.875 0,-1.553 -0.355,-4.454 -1.063,-8.704 -0.708,-4.25 -1.062,-7.593 -1.062,-10.031 0,-6.729 0.885,-11.661 2.656,-14.797 1.771,-3.135 3.792,-4.859 6.062,-5.172 z"
       fill-rule="evenodd"
       id="path27" />
    <path
       d="m 245.34946,530.95372 h 8.5 v 94.906 h -8.5 v -1.531 h 5.281 v -91.844 h -5.281 z m -27.574,0 h 8.5 v 1.531 h -5.282 v 91.844 h 5.282 v 1.531 h -8.5 z"
       fill-rule="evenodd"
       id="path29" />
    <path
       d="m 237.07246,529.98272 h 0.86 c -0.063,1 -0.094,2.386 -0.094,4.156 v 13.344 c 0,0.604 0.034,1.06 0.102,1.367 0.067,0.308 0.187,0.558 0.359,0.75 0.172,0.193 0.419,0.344 0.742,0.453 0.323,0.11 0.729,0.193 1.219,0.25 0.49,0.058 1.135,0.097 1.937,0.118 v 1.14 h -11.546 v -1.14 c 1.156,-0.052 1.981,-0.123 2.476,-0.211 0.495,-0.089 0.873,-0.222 1.133,-0.399 0.26,-0.177 0.45,-0.427 0.57,-0.75 0.12,-0.323 0.18,-0.849 0.18,-1.578 v -12.672 c 0,-0.416 -0.073,-0.721 -0.219,-0.914 -0.146,-0.193 -0.359,-0.289 -0.64,-0.289 -0.334,0 -0.808,0.172 -1.422,0.516 -0.615,0.343 -1.375,0.817 -2.282,1.422 l -0.687,-1.204 z"
       fill-rule="evenodd"
       id="path31" />
    <text
       fill="#000000"
       fill-opacity="0"
       font-family="Arial, Arial_MSFontService, sans-serif"
       font-size="21.5781px"
       x="229.76047"
       y="548.86371"
       id="text33">1</text>
    <path
       d="m 235.83846,568.82472 c -0.719,0 -1.32,0.213 -1.805,0.64 -0.484,0.427 -0.875,1.042 -1.171,1.844 -0.297,0.802 -0.508,1.779 -0.633,2.93 -0.125,1.151 -0.188,2.45 -0.188,3.898 0,3.396 0.315,5.888 0.946,7.477 0.63,1.588 1.606,2.382 2.929,2.382 1.261,0 2.196,-0.747 2.805,-2.242 0.609,-1.495 0.914,-3.81 0.914,-6.945 0,-2.396 -0.156,-4.336 -0.469,-5.82 -0.312,-1.485 -0.747,-2.55 -1.304,-3.196 -0.558,-0.645 -1.232,-0.968 -2.024,-0.968 z m 0.078,-1.329 c 2.281,0 3.979,0.881 5.094,2.641 1.115,1.761 1.672,4.422 1.672,7.984 0,3.688 -0.597,6.477 -1.789,8.368 -1.193,1.89 -2.935,2.836 -5.227,2.836 -2.25,0 -3.924,-0.886 -5.023,-2.657 -1.099,-1.77 -1.649,-4.458 -1.649,-8.062 0,-1.917 0.17,-3.573 0.508,-4.969 0.339,-1.396 0.813,-2.549 1.422,-3.461 0.609,-0.911 1.341,-1.586 2.195,-2.023 0.855,-0.438 1.787,-0.657 2.797,-0.657 z"
       fill-rule="evenodd"
       id="path35" />
    <text
       fill="#000000"
       fill-opacity="0"
       font-family="Arial, Arial_MSFontService, sans-serif"
       font-size="21.8281px"
       x="228.99446"
       y="586.5957"
       id="text37">0</text>
    <path
       d="m 235.83846,606.33772 c -0.719,0 -1.32,0.213 -1.805,0.64 -0.484,0.428 -0.875,1.042 -1.171,1.844 -0.297,0.802 -0.508,1.779 -0.633,2.93 -0.125,1.151 -0.188,2.45 -0.188,3.898 0,3.396 0.315,5.888 0.946,7.477 0.63,1.588 1.606,2.383 2.929,2.383 1.261,0 2.196,-0.748 2.805,-2.242 0.609,-1.495 0.914,-3.81 0.914,-6.946 0,-2.396 -0.156,-4.336 -0.469,-5.82 -0.312,-1.484 -0.747,-2.55 -1.304,-3.195 -0.558,-0.646 -1.232,-0.969 -2.024,-0.969 z m 0.078,-1.328 c 2.281,0 3.979,0.88 5.094,2.64 1.115,1.761 1.672,4.422 1.672,7.985 0,3.687 -0.597,6.476 -1.789,8.367 -1.193,1.891 -2.935,2.836 -5.227,2.836 -2.25,0 -3.924,-0.886 -5.023,-2.656 -1.099,-1.771 -1.649,-4.459 -1.649,-8.063 0,-1.917 0.17,-3.573 0.508,-4.969 0.339,-1.395 0.813,-2.549 1.422,-3.461 0.609,-0.911 1.341,-1.586 2.195,-2.023 0.855,-0.438 1.787,-0.656 2.797,-0.656 z"
       fill-rule="evenodd"
       id="path39" />
    <text
       fill="#000000"
       fill-opacity="0"
       font-family="Arial, Arial_MSFontService, sans-serif"
       font-size="21.8281px"
       x="228.99446"
       y="624.1087"
       id="text41">0</text>
    <path
       d="m 264.83946,583.92272 h 2.734 c 0.146,0.729 0.219,1.448 0.219,2.156 0,0.729 -0.125,1.396 -0.375,2 -0.25,0.604 -0.648,1.206 -1.195,1.805 -0.547,0.599 -1.3,1.258 -2.258,1.976 l -0.844,-0.953 c 0.532,-0.5 0.917,-0.95 1.157,-1.351 0.239,-0.401 0.411,-0.857 0.515,-1.367 0.104,-0.511 0.156,-1.152 0.156,-1.922 0,-0.792 -0.036,-1.573 -0.109,-2.344 z"
       fill-rule="evenodd"
       id="path43" />
    <text
       fill="#000000"
       fill-opacity="0"
       font-family="Arial, Arial_MSFontService, sans-serif"
       font-size="7.9375px"
       x="263.12045"
       y="590.86774"
       id="text45">,</text>
    <path
       d="m 305.71546,530.95372 h 8.5 v 94.906 h -8.5 v -1.531 h 5.281 v -91.844 h -5.281 z m -27.574,0 h 8.5 v 1.531 h -5.281 v 91.844 h 5.281 v 1.531 h -8.5 z"
       fill-rule="evenodd"
       id="path47" />
    <path
       d="m 296.20546,531.31072 c -0.719,0 -1.321,0.214 -1.805,0.641 -0.484,0.427 -0.875,1.042 -1.172,1.844 -0.297,0.802 -0.508,1.778 -0.633,2.929 -0.125,1.151 -0.187,2.451 -0.187,3.899 0,3.396 0.315,5.888 0.945,7.476 0.63,1.589 1.607,2.383 2.93,2.383 1.26,0 2.195,-0.747 2.805,-2.242 0.609,-1.495 0.914,-3.81 0.914,-6.945 0,-2.396 -0.157,-4.336 -0.469,-5.821 -0.313,-1.484 -0.748,-2.549 -1.305,-3.195 -0.557,-0.646 -1.232,-0.969 -2.023,-0.969 z m 0.078,-1.328 c 2.281,0 3.979,0.88 5.094,2.641 1.114,1.76 1.672,4.422 1.672,7.984 0,3.688 -0.597,6.477 -1.79,8.367 -1.192,1.891 -2.934,2.836 -5.226,2.836 -2.25,0 -3.925,-0.885 -5.024,-2.656 -1.099,-1.771 -1.648,-4.458 -1.648,-8.063 0,-1.916 0.169,-3.572 0.508,-4.968 0.338,-1.396 0.812,-2.55 1.422,-3.461 0.609,-0.912 1.341,-1.586 2.195,-2.024 0.854,-0.437 1.786,-0.656 2.797,-0.656 z"
       fill-rule="evenodd"
       id="path49" />
    <text
       fill="#000000"
       fill-opacity="0"
       font-family="Arial, Arial_MSFontService, sans-serif"
       font-size="21.8281px"
       x="289.36145"
       y="549.0827"
       id="text51">0</text>
    <path
       d="m 297.43946,567.49572 h 0.86 c -0.063,1 -0.094,2.386 -0.094,4.157 v 13.343 c 0,0.605 0.034,1.06 0.101,1.368 0.068,0.307 0.188,0.557 0.36,0.75 0.172,0.192 0.419,0.343 0.742,0.453 0.323,0.109 0.729,0.192 1.219,0.25 0.489,0.057 1.135,0.096 1.937,0.117 v 1.141 h -11.547 v -1.141 c 1.157,-0.052 1.982,-0.122 2.477,-0.211 0.495,-0.089 0.872,-0.221 1.133,-0.398 0.26,-0.177 0.45,-0.427 0.57,-0.75 0.12,-0.323 0.18,-0.849 0.18,-1.579 v -12.671 c 0,-0.417 -0.073,-0.722 -0.219,-0.914 -0.146,-0.193 -0.359,-0.29 -0.641,-0.29 -0.333,0 -0.807,0.172 -1.422,0.516 -0.614,0.344 -1.375,0.818 -2.281,1.422 l -0.687,-1.203 z"
       fill-rule="evenodd"
       id="path53" />
    <text
       fill="#000000"
       fill-opacity="0"
       font-family="Arial, Arial_MSFontService, sans-serif"
       font-size="21.5781px"
       x="290.12744"
       y="586.37671"
       id="text55">1</text>
    <path
       d="m 296.20546,606.33772 c -0.719,0 -1.321,0.213 -1.805,0.64 -0.484,0.428 -0.875,1.042 -1.172,1.844 -0.297,0.802 -0.508,1.779 -0.633,2.93 -0.125,1.151 -0.187,2.45 -0.187,3.898 0,3.396 0.315,5.888 0.945,7.477 0.63,1.588 1.607,2.383 2.93,2.383 1.26,0 2.195,-0.748 2.805,-2.242 0.609,-1.495 0.914,-3.81 0.914,-6.946 0,-2.396 -0.157,-4.336 -0.469,-5.82 -0.313,-1.484 -0.748,-2.55 -1.305,-3.195 -0.557,-0.646 -1.232,-0.969 -2.023,-0.969 z m 0.078,-1.328 c 2.281,0 3.979,0.88 5.094,2.64 1.114,1.761 1.672,4.422 1.672,7.985 0,3.687 -0.597,6.476 -1.79,8.367 -1.192,1.891 -2.934,2.836 -5.226,2.836 -2.25,0 -3.925,-0.886 -5.024,-2.656 -1.099,-1.771 -1.648,-4.459 -1.648,-8.063 0,-1.917 0.169,-3.573 0.508,-4.969 0.338,-1.395 0.812,-2.549 1.422,-3.461 0.609,-0.911 1.341,-1.586 2.195,-2.023 0.854,-0.438 1.786,-0.656 2.797,-0.656 z"
       fill-rule="evenodd"
       id="path57" />
    <text
       fill="#000000"
       fill-opacity="0"
       font-family="Arial, Arial_MSFontService, sans-serif"
       font-size="21.8281px"
       x="289.36145"
       y="624.1087"
       id="text59">0</text>
    <path
       d="m 325.20646,583.92272 h 2.734 c 0.146,0.729 0.219,1.448 0.219,2.156 0,0.729 -0.125,1.396 -0.375,2 -0.25,0.604 -0.649,1.206 -1.195,1.805 -0.547,0.599 -1.3,1.258 -2.258,1.976 l -0.844,-0.953 c 0.531,-0.5 0.917,-0.95 1.156,-1.351 0.24,-0.401 0.412,-0.857 0.516,-1.367 0.104,-0.511 0.156,-1.152 0.156,-1.922 0,-0.792 -0.036,-1.573 -0.109,-2.344 z"
       fill-rule="evenodd"
       id="path61" />
    <text
       fill="#000000"
       fill-opacity="0"
       font-family="Arial, Arial_MSFontService, sans-serif"
       font-size="7.9375px"
       x="323.48746"
       y="590.86774"
       id="text63">,</text>
    <path
       d="m 366.08246,530.95372 h 8.5 v 94.906 h -8.5 v -1.531 h 5.281 v -91.844 h -5.281 z m -27.574,0 h 8.5 v 1.531 h -5.281 v 91.844 h 5.281 v 1.531 h -8.5 z"
       fill-rule="evenodd"
       id="path65" />
    <path
       d="m 356.57146,531.43772 c -0.718,0 -1.32,0.213 -1.804,0.641 -0.485,0.427 -0.875,1.041 -1.172,1.843 -0.297,0.802 -0.508,1.779 -0.633,2.93 -0.125,1.151 -0.187,2.45 -0.187,3.898 0,3.396 0.315,5.888 0.945,7.477 0.63,1.589 1.607,2.383 2.93,2.383 1.26,0 2.195,-0.748 2.804,-2.242 0.61,-1.495 0.914,-3.81 0.914,-6.946 0,-2.396 -0.156,-4.336 -0.468,-5.82 -0.313,-1.484 -0.748,-2.55 -1.305,-3.195 -0.557,-0.646 -1.232,-0.969 -2.024,-0.969 z m 0.079,-1.328 c 2.281,0 3.979,0.88 5.093,2.64 1.115,1.761 1.672,4.422 1.672,7.985 0,3.687 -0.596,6.476 -1.789,8.367 -1.193,1.891 -2.935,2.836 -5.226,2.836 -2.25,0 -3.925,-0.886 -5.024,-2.656 -1.099,-1.771 -1.648,-4.459 -1.648,-8.063 0,-1.917 0.169,-3.573 0.507,-4.969 0.339,-1.395 0.813,-2.549 1.422,-3.461 0.61,-0.911 1.342,-1.585 2.196,-2.023 0.854,-0.437 1.786,-0.656 2.797,-0.656 z"
       fill-rule="evenodd"
       id="path67" />
    <text
       fill="#000000"
       fill-opacity="0"
       font-family="Arial, Arial_MSFontService, sans-serif"
       font-size="21.8281px"
       x="349.72845"
       y="549.20874"
       id="text69">0</text>
    <path
       d="m 356.57146,568.95072 c -0.718,0 -1.32,0.214 -1.804,0.641 -0.485,0.427 -0.875,1.042 -1.172,1.844 -0.297,0.802 -0.508,1.778 -0.633,2.929 -0.125,1.151 -0.187,2.451 -0.187,3.899 0,3.396 0.315,5.888 0.945,7.476 0.63,1.589 1.607,2.383 2.93,2.383 1.26,0 2.195,-0.747 2.804,-2.242 0.61,-1.495 0.914,-3.81 0.914,-6.945 0,-2.396 -0.156,-4.336 -0.468,-5.821 -0.313,-1.484 -0.748,-2.549 -1.305,-3.195 -0.557,-0.646 -1.232,-0.969 -2.024,-0.969 z m 0.079,-1.328 c 2.281,0 3.979,0.88 5.093,2.641 1.115,1.76 1.672,4.422 1.672,7.984 0,3.688 -0.596,6.477 -1.789,8.367 -1.193,1.891 -2.935,2.836 -5.226,2.836 -2.25,0 -3.925,-0.885 -5.024,-2.656 -1.099,-1.771 -1.648,-4.458 -1.648,-8.063 0,-1.916 0.169,-3.572 0.507,-4.968 0.339,-1.396 0.813,-2.55 1.422,-3.461 0.61,-0.912 1.342,-1.586 2.196,-2.024 0.854,-0.437 1.786,-0.656 2.797,-0.656 z"
       fill-rule="evenodd"
       id="path71" />
    <text
       fill="#000000"
       fill-opacity="0"
       font-family="Arial, Arial_MSFontService, sans-serif"
       font-size="21.8281px"
       x="349.72845"
       y="586.72272"
       id="text73">0</text>
    <path
       d="m 357.80646,605.13572 h 0.859 c -0.062,1 -0.094,2.386 -0.094,4.157 v 13.343 c 0,0.605 0.034,1.06 0.102,1.368 0.068,0.307 0.187,0.557 0.359,0.75 0.172,0.192 0.42,0.343 0.743,0.453 0.322,0.109 0.729,0.192 1.218,0.25 0.49,0.057 1.136,0.096 1.938,0.117 v 1.141 h -11.547 v -1.141 c 1.156,-0.052 1.982,-0.122 2.476,-0.211 0.495,-0.089 0.873,-0.221 1.133,-0.398 0.261,-0.178 0.451,-0.428 0.571,-0.75 0.119,-0.323 0.179,-0.849 0.179,-1.579 v -12.671 c 0,-0.417 -0.073,-0.722 -0.218,-0.915 -0.146,-0.192 -0.36,-0.289 -0.641,-0.289 -0.333,0 -0.807,0.172 -1.422,0.516 -0.615,0.344 -1.375,0.818 -2.281,1.422 l -0.688,-1.203 z"
       fill-rule="evenodd"
       id="path75" />
    <text
       fill="#000000"
       fill-opacity="0"
       font-family="Arial, Arial_MSFontService, sans-serif"
       font-size="21.5781px"
       x="350.49344"
       y="624.01672"
       id="text77">1</text>
    <text
       font-family="Calibri, Calibri_MSFontService, sans-serif"
       font-weight="400"
       font-size="32px"
       id="text87"
       x="397.99945"
       y="587.84271">is a <tspan
   font-size="32px"
   x="447.49945"
   y="587.84271"
   id="tspan79">3D<tspan
   style="fill:#ffffff"
   id="tspan479">i</tspan></tspan>subspace of <tspan
   font-family="Cambria, Cambria_MSFontService, sans-serif"
   font-size="32px"
   x="651.6795"
   y="587.84271"
   id="tspan81">R<tspan
   style="font-size:65%;baseline-shift:super"
   id="tspan483">3</tspan>.</tspan></text>
    <path
       d="m 912.55046,606.44972 c 0,-6.963 5.644,-12.607 12.607,-12.607 h 9.786 c 6.963,0 12.607,5.644 12.607,12.607 v 10.786 c 0,6.963 -5.644,12.607 -12.607,12.607 h -9.786 c -6.963,0 -12.607,-5.644 -12.607,-12.607 z"
       fill="#f4b183"
       fill-rule="evenodd"
       fill-opacity="0.4"
       id="path89" />
    <text
       font-family="Calibri, Calibri_MSFontService, sans-serif"
       font-weight="400"
       font-size="27px"
       id="text93"
       x="956.79248"
       y="620.84271">Vector span<tspan
   font-size="32px"
   x="130.69247"
   y="201.84273"
   id="tspan91">The set</tspan></text>
    <path
       d="m 289.34346,145.68372 c 2.281,0.312 4.302,2.036 6.062,5.172 1.771,3.145 2.657,8.078 2.657,14.797 0,1.229 -0.089,2.674 -0.266,4.335 -0.177,1.662 -0.443,3.56 -0.797,5.696 -0.354,2.135 -0.62,3.924 -0.797,5.367 -0.177,1.443 -0.265,2.555 -0.265,3.336 0,2.531 0.369,4.489 1.109,5.875 0.75,1.375 1.708,2.114 2.875,2.219 v 1.609 c -1.167,0.104 -2.125,0.844 -2.875,2.219 -0.74,1.385 -1.109,3.344 -1.109,5.875 0,0.781 0.088,1.893 0.265,3.336 0.177,1.442 0.443,3.231 0.797,5.367 0.354,2.135 0.62,4.034 0.797,5.695 0.177,1.662 0.266,3.107 0.266,4.336 0,6.615 -0.886,11.495 -2.657,14.641 -1.76,3.135 -3.781,4.859 -6.062,5.172 v -1.344 c 1.427,-0.302 2.719,-1.698 3.875,-4.188 1.156,-2.479 1.734,-6.364 1.734,-11.656 0,-1.104 -0.086,-2.487 -0.258,-4.148 -0.171,-1.662 -0.424,-3.628 -0.757,-5.899 -0.334,-2.26 -0.586,-4.078 -0.758,-5.453 -0.172,-1.375 -0.258,-2.323 -0.258,-2.844 0,-3.031 0.307,-5.51 0.922,-7.437 0.604,-1.917 1.682,-3.339 3.234,-4.266 v -0.422 c -1.541,-0.916 -2.62,-2.333 -3.234,-4.25 -0.615,-1.937 -0.922,-4.421 -0.922,-7.453 0,-0.521 0.086,-1.468 0.258,-2.843 0.172,-1.375 0.424,-3.193 0.758,-5.454 0.333,-2.27 0.586,-4.237 0.757,-5.898 0.172,-1.661 0.258,-3.044 0.258,-4.148 0,-5.386 -0.578,-9.323 -1.734,-11.813 -1.156,-2.49 -2.448,-3.885 -3.875,-4.187 z m -45.074,0 v 1.344 c -1.427,0.302 -2.719,1.697 -3.875,4.187 -1.157,2.49 -1.735,6.427 -1.735,11.813 0,2.187 0.339,5.533 1.016,10.039 0.677,4.505 1.016,7.273 1.016,8.304 0,3.052 -0.308,5.534 -0.922,7.446 -0.615,1.911 -1.693,3.33 -3.235,4.257 v 0.422 c 1.542,0.927 2.62,2.347 3.235,4.258 0.614,1.912 0.922,4.393 0.922,7.445 0,1.032 -0.339,3.8 -1.016,8.305 -0.677,4.505 -1.016,7.852 -1.016,10.039 0,5.281 0.578,9.167 1.735,11.656 1.156,2.49 2.448,3.886 3.875,4.188 v 1.344 c -2.271,-0.313 -4.292,-2.037 -6.063,-5.172 -1.771,-3.136 -2.656,-8.016 -2.656,-14.641 0,-2.437 0.354,-5.781 1.062,-10.031 0.709,-4.25 1.063,-7.151 1.063,-8.703 0,-2.542 -0.372,-4.5 -1.117,-5.875 -0.745,-1.375 -1.701,-2.115 -2.867,-2.219 v -1.609 c 1.166,-0.105 2.122,-0.844 2.867,-2.219 0.745,-1.375 1.117,-3.333 1.117,-5.875 0,-1.552 -0.354,-4.453 -1.063,-8.703 -0.708,-4.25 -1.062,-7.594 -1.062,-10.031 0,-6.73 0.885,-11.662 2.656,-14.797 1.771,-3.136 3.792,-4.86 6.063,-5.172 z"
       fill-rule="evenodd"
       id="path95" />
    <path
       d="m 276.34246,145.74872 h 8.5 v 94.906 h -8.5 v -1.531 h 5.281 v -91.844 h -5.281 z m -27.574,0 h 8.5 v 1.531 h -5.281 v 91.844 h 5.281 v 1.531 h -8.5 z"
       fill-rule="evenodd"
       id="path97" />
    <path
       d="m 268.06646,144.90372 h 0.859 c -0.062,1 -0.094,2.386 -0.094,4.156 v 13.344 c 0,0.604 0.034,1.06 0.102,1.367 0.068,0.308 0.187,0.558 0.359,0.75 0.172,0.193 0.42,0.344 0.743,0.454 0.322,0.109 0.729,0.192 1.218,0.25 0.49,0.057 1.136,0.096 1.938,0.117 v 1.14 h -11.547 v -1.14 c 1.156,-0.052 1.982,-0.123 2.476,-0.211 0.495,-0.089 0.873,-0.222 1.133,-0.399 0.261,-0.177 0.451,-0.427 0.571,-0.75 0.119,-0.323 0.179,-0.849 0.179,-1.578 v -12.672 c 0,-0.416 -0.073,-0.721 -0.218,-0.914 -0.146,-0.192 -0.36,-0.289 -0.641,-0.289 -0.333,0 -0.807,0.172 -1.422,0.516 -0.615,0.344 -1.375,0.818 -2.281,1.422 l -0.688,-1.203 z"
       fill-rule="evenodd"
       id="path99" />
    <text
       fill="#000000"
       fill-opacity="0"
       font-family="Arial, Arial_MSFontService, sans-serif"
       font-size="21.5781px"
       x="260.75345"
       y="163.78473"
       id="text101">1</text>
    <path
       d="m 268.06646,182.41772 h 0.859 c -0.062,1 -0.094,2.385 -0.094,4.156 v 13.344 c 0,0.604 0.034,1.059 0.102,1.367 0.068,0.307 0.187,0.557 0.359,0.75 0.172,0.192 0.42,0.343 0.743,0.453 0.322,0.109 0.729,0.193 1.218,0.25 0.49,0.057 1.136,0.096 1.938,0.117 v 1.141 h -11.547 v -1.141 c 1.156,-0.052 1.982,-0.122 2.476,-0.211 0.495,-0.088 0.873,-0.221 1.133,-0.398 0.261,-0.177 0.451,-0.427 0.571,-0.75 0.119,-0.323 0.179,-0.849 0.179,-1.578 v -12.672 c 0,-0.417 -0.073,-0.722 -0.218,-0.914 -0.146,-0.193 -0.36,-0.289 -0.641,-0.289 -0.333,0 -0.807,0.171 -1.422,0.515 -0.615,0.344 -1.375,0.818 -2.281,1.422 l -0.688,-1.203 z"
       fill-rule="evenodd"
       id="path103" />
    <text
       fill="#000000"
       fill-opacity="0"
       font-family="Arial, Arial_MSFontService, sans-serif"
       font-size="21.5781px"
       x="260.75345"
       y="201.29773"
       id="text105">1</text>
    <path
       d="m 268.06646,219.93072 h 0.859 c -0.062,1 -0.094,2.385 -0.094,4.156 v 13.344 c 0,0.604 0.034,1.06 0.102,1.367 0.068,0.307 0.187,0.557 0.359,0.75 0.172,0.193 0.42,0.344 0.743,0.453 0.322,0.11 0.729,0.193 1.218,0.25 0.49,0.057 1.136,0.097 1.938,0.117 v 1.141 h -11.547 v -1.141 c 1.156,-0.052 1.982,-0.122 2.476,-0.211 0.495,-0.088 0.873,-0.221 1.133,-0.398 0.261,-0.177 0.451,-0.427 0.571,-0.75 0.119,-0.323 0.179,-0.849 0.179,-1.578 v -12.672 c 0,-0.417 -0.073,-0.721 -0.218,-0.914 -0.146,-0.193 -0.36,-0.289 -0.641,-0.289 -0.333,0 -0.807,0.172 -1.422,0.515 -0.615,0.344 -1.375,0.818 -2.281,1.422 l -0.688,-1.203 z"
       fill-rule="evenodd"
       id="path107" />
    <text
       fill="#000000"
       fill-opacity="0"
       font-family="Arial, Arial_MSFontService, sans-serif"
       font-size="21.5781px"
       x="260.75345"
       y="238.81172"
       id="text109">1</text>
    <text
       font-family="Calibri, Calibri_MSFontService, sans-serif"
       font-weight="400"
       font-size="32px"
       id="text117"
       x="308.25946"
       y="201.84273">is not a 1D subspace of <tspan
   font-family="Cambria, Cambria_MSFontService, sans-serif"
   font-size="32px"
   x="613.43945"
   y="201.84273"
   id="tspan111">R</tspan><tspan
   font-family="Cambria, Cambria_MSFontService, sans-serif"
   font-size="21px"
   x="633.27246"
   y="191.84273"
   id="tspan113">3</tspan><tspan
   font-size="32px"
   x="645.10645"
   y="201.84273"
   id="tspan115">.</tspan></text>
    <path
       d="m 741.55046,273.30672 c 0,-7.436 6.028,-13.464 13.464,-13.464 h 151.072 c 7.436,0 13.464,6.028 13.464,13.464 v 61.072 c 0,7.436 -6.028,13.464 -13.464,13.464 h -151.072 c -7.436,0 -13.464,-6.028 -13.464,-13.464 z"
       fill="#385723"
       fill-rule="evenodd"
       fill-opacity="0.4"
       id="path119" />
    <path
       d="m 929.55046,274.00072 c 0,-7.267 5.891,-13.158 13.158,-13.158 h 107.68204 c 7.27,0 13.16,5.891 13.16,13.158 v 59.684 c 0,7.267 -5.89,13.158 -13.16,13.158 H 942.70846 c -7.267,0 -13.158,-5.891 -13.158,-13.158 z"
       fill="#385723"
       fill-rule="evenodd"
       fill-opacity="0.4"
       id="path121" />
    <path
       d="m 613.55046,274.00072 c 0,-7.267 5.891,-13.158 13.158,-13.158 h 90.684 c 7.267,0 13.158,5.891 13.158,13.158 v 59.684 c 0,7.267 -5.891,13.158 -13.158,13.158 h -90.684 c -7.267,0 -13.158,-5.891 -13.158,-13.158 z"
       fill="#385723"
       fill-rule="evenodd"
       fill-opacity="0.4"
       id="path123" />
    <text
       font-family="Calibri, Calibri_MSFontService, sans-serif"
       font-weight="400"
       font-size="24px"
       id="text125"
       x="619.3515"
       y="311.84274">0</text>
    <path
       d="m 654.95146,268.92572 h 6.375 v 71.179 h -6.375 v -1.148 h 3.961 v -68.883 h -3.961 z m -20.762,0 h 6.375 v 1.148 h -3.961 v 68.883 h 3.961 v 1.148 h -6.375 z"
       fill-rule="evenodd"
       id="path127" />
    <text
       font-family="'Cambria Math', 'Cambria Math_MSFontService', sans-serif"
       font-weight="400"
       font-size="24px"
       id="text135"
       x="641.09149"
       y="284.84274">1<tspan
   font-size="24px"
   x="641.09149"
   y="312.84274"
   id="tspan129">1</tspan><tspan
   font-size="24px"
   x="641.09149"
   y="340.84274"
   id="tspan131">1</tspan><tspan
   font-family="Calibri, Calibri_MSFontService, sans-serif"
   font-size="24px"
   x="669.49817"
   y="311.84274"
   id="tspan133">=</tspan></text>
    <path
       d="m 710.43146,268.92572 h 6.375 v 71.179 h -6.375 v -1.148 h 3.961 v -68.883 h -3.961 z m -20.762,0 h 6.375 v 1.148 h -3.961 v 68.883 h 3.961 v 1.148 h -6.375 z"
       fill-rule="evenodd"
       id="path137" />
    <text
       font-family="'Cambria Math', 'Cambria Math_MSFontService', sans-serif"
       font-weight="400"
       font-size="24px"
       id="text143"
       x="696.57147"
       y="284.84274">0<tspan
   font-size="24px"
   x="696.57147"
   y="312.84274"
   id="tspan139">0</tspan><tspan
   font-size="24px"
   x="696.57147"
   y="340.84274"
   id="tspan141">0</tspan></text>
    <path
       d="m 972.82746,270.17772 h 6.375 v 71.18 h -6.375 v -1.149 h 3.961 v -68.883 h -3.961 z m -33.928,0 h 6.375 v 1.148 h -3.961 v 68.883 h 3.961 v 1.149 h -6.375 z"
       fill-rule="evenodd"
       id="path145" />
    <text
       font-family="'Cambria Math', 'Cambria Math_MSFontService', sans-serif"
       font-weight="400"
       font-size="24px"
       id="text159"
       x="945.80048"
       y="285.84274">ğ‘˜<tspan
   font-size="24px"
   x="958.9671"
   y="285.84274"
   id="tspan147">1</tspan><tspan
   font-size="24px"
   x="945.80048"
   y="313.84274"
   id="tspan149">ğ‘˜</tspan><tspan
   font-size="24px"
   x="958.9671"
   y="313.84274"
   id="tspan151">1</tspan><tspan
   font-size="24px"
   x="945.80048"
   y="341.84274"
   id="tspan153">ğ‘˜</tspan><tspan
   font-size="24px"
   x="958.9671"
   y="341.84274"
   id="tspan155">1</tspan><tspan
   font-family="Calibri, Calibri_MSFontService, sans-serif"
   font-size="24px"
   x="987.37378"
   y="312.84274"
   id="tspan157">=</tspan>ğ‘˜</text>
    <path
       d="m 1046.1705,270.17772 h 6.38 v 71.18 h -6.38 v -1.149 h 3.96 v -68.883 h -3.96 z m -20.76,0 h 6.38 v 1.148 h -3.96 v 68.883 h 3.96 v 1.149 h -6.38 z"
       fill-rule="evenodd"
       id="path161" />
    <text
       font-family="'Cambria Math', 'Cambria Math_MSFontService', sans-serif"
       font-weight="400"
       font-size="24px"
       id="text167"
       x="1032.3105"
       y="285.84274">1<tspan
   font-size="24px"
   x="1032.3105"
   y="313.84274"
   id="tspan163">1</tspan><tspan
   font-size="24px"
   x="1032.3105"
   y="341.84274"
   id="tspan165">1</tspan></text>
    <path
       d="m 771.30346,270.17772 h 6.375 v 71.18 h -6.375 v -1.149 h 3.961 v -68.883 h -3.961 z m -20.762,0 h 6.375 v 1.148 h -3.961 v 68.883 h 3.961 v 1.149 h -6.375 z"
       fill-rule="evenodd"
       id="path169" />
    <text
       font-family="'Cambria Math', 'Cambria Math_MSFontService', sans-serif"
       font-weight="400"
       font-size="24px"
       id="text177"
       x="757.4425"
       y="285.84274">1<tspan
   font-size="24px"
   x="757.4425"
   y="313.84274"
   id="tspan171">1</tspan><tspan
   font-size="24px"
   x="757.4425"
   y="341.84274"
   id="tspan173">1</tspan><tspan
   font-family="Calibri, Calibri_MSFontService, sans-serif"
   font-size="24px"
   x="785.84918"
   y="312.84274"
   id="tspan175">+</tspan></text>
    <path
       d="m 826.78346,270.17772 h 6.375 v 71.18 h -6.375 v -1.149 h 3.961 v -68.883 h -3.961 z m -20.762,0 h 6.375 v 1.148 h -3.961 v 68.883 h 3.961 v 1.149 h -6.375 z"
       fill-rule="evenodd"
       id="path179" />
    <text
       font-family="'Cambria Math', 'Cambria Math_MSFontService', sans-serif"
       font-weight="400"
       font-size="24px"
       id="text187"
       x="812.92249"
       y="285.84274">1<tspan
   font-size="24px"
   x="812.92249"
   y="313.84274"
   id="tspan181">1</tspan><tspan
   font-size="24px"
   x="812.92249"
   y="341.84274"
   id="tspan183">1</tspan><tspan
   font-family="Calibri, Calibri_MSFontService, sans-serif"
   font-size="24px"
   x="841.32916"
   y="312.84274"
   id="tspan185">=</tspan>2</text>
    <path
       d="m 899.59646,270.17772 h 6.375 v 71.18 h -6.375 v -1.149 h 3.961 v -68.883 h -3.961 z m -20.762,0 h 6.375 v 1.148 h -3.961 v 68.883 h 3.961 v 1.149 h -6.375 z"
       fill-rule="evenodd"
       id="path189" />
    <text
       font-family="'Cambria Math', 'Cambria Math_MSFontService', sans-serif"
       font-weight="400"
       font-size="24px"
       id="text197"
       x="885.73547"
       y="285.84274">1<tspan
   font-size="24px"
   x="885.73547"
   y="313.84274"
   id="tspan191">1</tspan><tspan
   font-size="24px"
   x="885.73547"
   y="341.84274"
   id="tspan193">1</tspan><tspan
   font-family="Calibri, Calibri_MSFontService, sans-serif"
   font-size="32px"
   x="131.11748"
   y="327.84274"
   id="tspan195">Span</tspan></text>
    <path
       d="m 258.77546,271.62372 c 2.282,0.313 4.302,2.037 6.063,5.172 1.771,3.146 2.656,8.078 2.656,14.797 0,1.229 -0.088,2.675 -0.266,4.336 -0.177,1.662 -0.442,3.56 -0.796,5.695 -0.355,2.136 -0.62,3.925 -0.797,5.368 -0.177,1.442 -0.266,2.554 -0.266,3.336 0,2.531 0.37,4.489 1.109,5.875 0.75,1.375 1.709,2.114 2.875,2.218 v 1.61 c -1.166,0.104 -2.125,0.843 -2.875,2.218 -0.739,1.386 -1.109,3.344 -1.109,5.875 0,0.782 0.089,1.894 0.266,3.336 0.177,1.443 0.442,3.232 0.797,5.368 0.354,2.135 0.619,4.033 0.796,5.695 0.178,1.661 0.266,3.107 0.266,4.336 0,6.614 -0.885,11.495 -2.656,14.64 -1.761,3.136 -3.781,4.86 -6.063,5.172 v -1.343 c 1.427,-0.303 2.719,-1.698 3.875,-4.188 1.157,-2.479 1.735,-6.365 1.735,-11.656 0,-1.104 -0.086,-2.487 -0.258,-4.149 -0.172,-1.661 -0.425,-3.627 -0.758,-5.898 -0.333,-2.26 -0.586,-4.078 -0.758,-5.453 -0.172,-1.375 -0.258,-2.323 -0.258,-2.844 0,-3.031 0.308,-5.51 0.922,-7.437 0.605,-1.917 1.683,-3.339 3.235,-4.266 v -0.422 c -1.542,-0.917 -2.62,-2.333 -3.235,-4.25 -0.614,-1.937 -0.922,-4.422 -0.922,-7.453 0,-0.521 0.086,-1.469 0.258,-2.844 0.172,-1.375 0.425,-3.193 0.758,-5.453 0.333,-2.271 0.586,-4.237 0.758,-5.898 0.172,-1.662 0.258,-3.045 0.258,-4.149 0,-5.385 -0.578,-9.323 -1.735,-11.812 -1.156,-2.49 -2.448,-3.886 -3.875,-4.188 z m -45.074,0 v 1.344 c -1.427,0.302 -2.719,1.698 -3.875,4.188 -1.156,2.489 -1.734,6.427 -1.734,11.812 0,2.188 0.338,5.534 1.015,10.039 0.678,4.505 1.016,7.274 1.016,8.305 0,3.052 -0.307,5.534 -0.922,7.445 -0.614,1.912 -1.693,3.331 -3.234,4.258 v 0.422 c 1.541,0.927 2.62,2.346 3.234,4.258 0.615,1.911 0.922,4.393 0.922,7.445 0,1.031 -0.338,3.8 -1.016,8.305 -0.677,4.505 -1.015,7.851 -1.015,10.039 0,5.281 0.578,9.166 1.734,11.656 1.156,2.49 2.448,3.885 3.875,4.188 v 1.343 c -2.271,-0.312 -4.291,-2.036 -6.062,-5.172 -1.771,-3.135 -2.657,-8.015 -2.657,-14.64 0,-2.438 0.355,-5.781 1.063,-10.031 0.708,-4.25 1.062,-7.151 1.062,-8.704 0,-2.541 -0.372,-4.5 -1.117,-5.875 -0.745,-1.375 -1.7,-2.114 -2.867,-2.218 v -1.61 c 1.167,-0.104 2.122,-0.843 2.867,-2.218 0.745,-1.375 1.117,-3.334 1.117,-5.875 0,-1.553 -0.354,-4.454 -1.062,-8.704 -0.708,-4.25 -1.063,-7.593 -1.063,-10.031 0,-6.729 0.886,-11.661 2.657,-14.797 1.771,-3.135 3.791,-4.859 6.062,-5.172 z"
       fill-rule="evenodd"
       id="path199" />
    <path
       d="m 245.77446,271.68872 h 8.5 v 94.907 h -8.5 v -1.532 h 5.282 v -91.843 h -5.282 z m -27.574,0 h 8.5 v 1.532 h -5.281 v 91.843 h 5.281 v 1.532 h -8.5 z"
       fill-rule="evenodd"
       id="path201" />
    <path
       d="m 237.49846,270.84472 h 0.86 c -0.063,1 -0.094,2.385 -0.094,4.156 v 13.344 c 0,0.604 0.034,1.06 0.101,1.367 0.068,0.307 0.188,0.557 0.36,0.75 0.172,0.193 0.419,0.344 0.742,0.453 0.323,0.11 0.729,0.193 1.219,0.25 0.489,0.057 1.135,0.097 1.937,0.117 v 1.141 h -11.547 v -1.141 c 1.157,-0.052 1.982,-0.122 2.477,-0.211 0.495,-0.088 0.872,-0.221 1.133,-0.398 0.26,-0.177 0.45,-0.427 0.57,-0.75 0.12,-0.323 0.18,-0.849 0.18,-1.578 v -12.672 c 0,-0.417 -0.073,-0.721 -0.219,-0.914 -0.146,-0.193 -0.359,-0.289 -0.641,-0.289 -0.333,0 -0.807,0.172 -1.421,0.515 -0.615,0.344 -1.375,0.818 -2.282,1.422 l -0.687,-1.203 z"
       fill-rule="evenodd"
       id="path203" />
    <text
       fill="#000000"
       fill-opacity="0"
       font-family="Arial, Arial_MSFontService, sans-serif"
       font-size="21.5781px"
       x="230.18646"
       y="289.72574"
       id="text205">1</text>
    <path
       d="m 237.49846,308.35772 h 0.86 c -0.063,1 -0.094,2.386 -0.094,4.156 v 13.344 c 0,0.604 0.034,1.06 0.101,1.367 0.068,0.308 0.188,0.558 0.36,0.75 0.172,0.193 0.419,0.344 0.742,0.454 0.323,0.109 0.729,0.192 1.219,0.25 0.489,0.057 1.135,0.096 1.937,0.117 v 1.14 h -11.547 v -1.14 c 1.157,-0.052 1.982,-0.123 2.477,-0.211 0.495,-0.089 0.872,-0.222 1.133,-0.399 0.26,-0.177 0.45,-0.427 0.57,-0.75 0.12,-0.323 0.18,-0.849 0.18,-1.578 v -12.672 c 0,-0.416 -0.073,-0.721 -0.219,-0.914 -0.146,-0.192 -0.359,-0.289 -0.641,-0.289 -0.333,0 -0.807,0.172 -1.421,0.516 -0.615,0.344 -1.375,0.818 -2.282,1.422 l -0.687,-1.203 z"
       fill-rule="evenodd"
       id="path207" />
    <text
       fill="#000000"
       fill-opacity="0"
       font-family="Arial, Arial_MSFontService, sans-serif"
       font-size="21.5781px"
       x="230.18646"
       y="327.23874"
       id="text209">1</text>
    <path
       d="m 237.49846,345.87172 h 0.86 c -0.063,1 -0.094,2.385 -0.094,4.156 v 13.344 c 0,0.604 0.034,1.059 0.101,1.367 0.068,0.307 0.188,0.557 0.36,0.75 0.172,0.192 0.419,0.343 0.742,0.453 0.323,0.109 0.729,0.193 1.219,0.25 0.489,0.057 1.135,0.096 1.937,0.117 v 1.141 h -11.547 v -1.141 c 1.157,-0.052 1.982,-0.122 2.477,-0.211 0.495,-0.088 0.872,-0.221 1.133,-0.398 0.26,-0.177 0.45,-0.427 0.57,-0.75 0.12,-0.323 0.18,-0.849 0.18,-1.578 v -12.672 c 0,-0.417 -0.073,-0.722 -0.219,-0.914 -0.146,-0.193 -0.359,-0.289 -0.641,-0.289 -0.333,0 -0.807,0.171 -1.421,0.515 -0.615,0.344 -1.375,0.818 -2.282,1.422 l -0.687,-1.203 z"
       fill-rule="evenodd"
       id="path211" />
    <text
       fill="#000000"
       fill-opacity="0"
       font-family="Arial, Arial_MSFontService, sans-serif"
       font-size="21.5781px"
       x="230.18646"
       y="364.75174"
       id="text213">1</text>
    <text
       font-family="Calibri, Calibri_MSFontService, sans-serif"
       font-weight="400"
       font-size="32px"
       id="text223"
       x="277.69147"
       y="327.84274">is a 1D subspace of <tspan
   font-family="Cambria, Cambria_MSFontService, sans-serif"
   font-size="32px"
   x="531.37146"
   y="327.84274"
   id="tspan215">R</tspan><tspan
   font-family="Cambria, Cambria_MSFontService, sans-serif"
   font-size="21px"
   x="551.20447"
   y="317.84274"
   id="tspan217">3</tspan><tspan
   font-size="32px"
   x="563.03845"
   y="327.84274"
   id="tspan219">.</tspan><tspan
   font-size="32px"
   x="131.11845"
   y="458.84274"
   id="tspan221">Span</tspan></text>
    <path
       d="m 319.14246,402.37072 c 2.281,0.313 4.302,2.037 6.063,5.172 1.77,3.146 2.656,8.078 2.656,14.797 0,1.229 -0.089,2.674 -0.266,4.336 -0.177,1.661 -0.443,3.56 -0.797,5.695 -0.354,2.136 -0.62,3.925 -0.797,5.367 -0.177,1.443 -0.265,2.555 -0.265,3.336 0,2.532 0.37,4.49 1.109,5.875 0.75,1.375 1.708,2.115 2.875,2.219 v 1.609 c -1.167,0.105 -2.125,0.844 -2.875,2.219 -0.739,1.386 -1.109,3.344 -1.109,5.875 0,0.781 0.088,1.893 0.265,3.336 0.177,1.443 0.443,3.232 0.797,5.367 0.354,2.136 0.62,4.034 0.797,5.696 0.177,1.661 0.266,3.106 0.266,4.336 0,6.614 -0.886,11.494 -2.656,14.64 -1.761,3.136 -3.782,4.86 -6.063,5.172 v -1.344 c 1.427,-0.302 2.719,-1.698 3.875,-4.187 1.156,-2.479 1.734,-6.365 1.734,-11.656 0,-1.105 -0.086,-2.487 -0.257,-4.149 -0.172,-1.661 -0.425,-3.628 -0.758,-5.898 -0.334,-2.261 -0.586,-4.078 -0.758,-5.453 -0.172,-1.375 -0.258,-2.323 -0.258,-2.844 0,-3.031 0.307,-5.511 0.922,-7.438 0.604,-1.916 1.682,-3.338 3.234,-4.265 v -0.422 c -1.541,-0.917 -2.619,-2.334 -3.234,-4.25 -0.615,-1.938 -0.922,-4.422 -0.922,-7.453 0,-0.521 0.086,-1.469 0.258,-2.844 0.172,-1.375 0.424,-3.193 0.758,-5.453 0.333,-2.271 0.586,-4.237 0.758,-5.899 0.171,-1.661 0.257,-3.044 0.257,-4.148 0,-5.386 -0.578,-9.323 -1.734,-11.813 -1.156,-2.489 -2.448,-3.885 -3.875,-4.187 z m -105.441,0 v 1.344 c -1.427,0.302 -2.719,1.698 -3.875,4.187 -1.156,2.49 -1.734,6.427 -1.734,11.813 0,2.187 0.338,5.534 1.015,10.039 0.678,4.505 1.016,7.273 1.016,8.305 0,3.052 -0.307,5.533 -0.922,7.445 -0.614,1.911 -1.693,3.331 -3.234,4.258 v 0.422 c 1.541,0.927 2.62,2.346 3.234,4.257 0.615,1.912 0.922,4.394 0.922,7.446 0,1.031 -0.338,3.799 -1.016,8.304 -0.677,4.506 -1.015,7.852 -1.015,10.04 0,5.281 0.578,9.166 1.734,11.656 1.156,2.489 2.448,3.885 3.875,4.187 v 1.344 c -2.271,-0.312 -4.291,-2.036 -6.062,-5.172 -1.771,-3.135 -2.657,-8.015 -2.657,-14.64 0,-2.438 0.355,-5.782 1.063,-10.032 0.708,-4.25 1.062,-7.151 1.062,-8.703 0,-2.542 -0.372,-4.5 -1.117,-5.875 -0.745,-1.375 -1.7,-2.114 -2.867,-2.219 v -1.609 c 1.167,-0.104 2.122,-0.844 2.867,-2.219 0.745,-1.375 1.117,-3.333 1.117,-5.875 0,-1.552 -0.354,-4.453 -1.062,-8.703 -0.708,-4.25 -1.063,-7.594 -1.063,-10.031 0,-6.729 0.886,-11.662 2.657,-14.797 1.771,-3.135 3.791,-4.859 6.062,-5.172 z"
       fill-rule="evenodd"
       id="path225" />
    <path
       d="m 245.77446,402.43572 h 8.5 v 94.906 h -8.5 v -1.531 h 5.282 v -91.844 h -5.282 z m -27.574,0 h 8.5 v 1.531 h -5.281 v 91.844 h 5.281 v 1.531 h -8.5 z"
       fill-rule="evenodd"
       id="path227" />
    <path
       d="m 237.49846,401.46472 h 0.86 c -0.063,1 -0.094,2.385 -0.094,4.156 v 13.344 c 0,0.604 0.034,1.06 0.101,1.367 0.068,0.307 0.188,0.557 0.36,0.75 0.172,0.193 0.419,0.344 0.742,0.453 0.323,0.11 0.729,0.193 1.219,0.25 0.489,0.057 1.135,0.097 1.937,0.117 v 1.141 h -11.547 v -1.141 c 1.157,-0.052 1.982,-0.122 2.477,-0.211 0.495,-0.088 0.872,-0.221 1.133,-0.398 0.26,-0.177 0.45,-0.427 0.57,-0.75 0.12,-0.323 0.18,-0.849 0.18,-1.578 v -12.672 c 0,-0.417 -0.073,-0.721 -0.219,-0.914 -0.146,-0.193 -0.359,-0.289 -0.641,-0.289 -0.333,0 -0.807,0.172 -1.421,0.516 -0.615,0.343 -1.375,0.817 -2.282,1.421 l -0.687,-1.203 z"
       fill-rule="evenodd"
       id="path229" />
    <text
       fill="#000000"
       fill-opacity="0"
       font-family="Arial, Arial_MSFontService, sans-serif"
       font-size="21.5781px"
       x="230.18646"
       y="420.34573"
       id="text231">1</text>
    <path
       d="m 236.26446,440.30572 c -0.719,0 -1.32,0.214 -1.805,0.641 -0.484,0.427 -0.875,1.042 -1.172,1.844 -0.297,0.802 -0.507,1.778 -0.632,2.929 -0.125,1.151 -0.188,2.451 -0.188,3.899 0,3.396 0.315,5.888 0.945,7.476 0.631,1.589 1.607,2.383 2.93,2.383 1.26,0 2.195,-0.747 2.805,-2.242 0.609,-1.495 0.914,-3.81 0.914,-6.945 0,-2.396 -0.156,-4.336 -0.469,-5.821 -0.312,-1.484 -0.747,-2.549 -1.305,-3.195 -0.557,-0.646 -1.231,-0.969 -2.023,-0.969 z m 0.078,-1.328 c 2.281,0 3.979,0.88 5.094,2.641 1.114,1.76 1.672,4.422 1.672,7.984 0,3.688 -0.597,6.477 -1.789,8.367 -1.193,1.891 -2.935,2.836 -5.227,2.836 -2.25,0 -3.924,-0.885 -5.023,-2.656 -1.099,-1.771 -1.649,-4.458 -1.649,-8.062 0,-1.917 0.169,-3.573 0.508,-4.969 0.339,-1.396 0.812,-2.55 1.422,-3.461 0.609,-0.912 1.341,-1.586 2.195,-2.024 0.854,-0.437 1.787,-0.656 2.797,-0.656 z"
       fill-rule="evenodd"
       id="path233" />
    <text
       fill="#000000"
       fill-opacity="0"
       font-family="Arial, Arial_MSFontService, sans-serif"
       font-size="21.8281px"
       x="229.42046"
       y="458.07773"
       id="text235">0</text>
    <path
       d="m 236.26446,477.81972 c -0.719,0 -1.32,0.213 -1.805,0.64 -0.484,0.427 -0.875,1.042 -1.172,1.844 -0.297,0.802 -0.507,1.779 -0.632,2.93 -0.125,1.151 -0.188,2.45 -0.188,3.898 0,3.396 0.315,5.888 0.945,7.477 0.631,1.588 1.607,2.383 2.93,2.383 1.26,0 2.195,-0.748 2.805,-2.243 0.609,-1.494 0.914,-3.81 0.914,-6.945 0,-2.396 -0.156,-4.336 -0.469,-5.82 -0.312,-1.485 -0.747,-2.55 -1.305,-3.196 -0.557,-0.645 -1.231,-0.968 -2.023,-0.968 z m 0.078,-1.328 c 2.281,0 3.979,0.88 5.094,2.64 1.114,1.761 1.672,4.422 1.672,7.985 0,3.687 -0.597,6.476 -1.789,8.367 -1.193,1.89 -2.935,2.836 -5.227,2.836 -2.25,0 -3.924,-0.886 -5.023,-2.657 -1.099,-1.77 -1.649,-4.458 -1.649,-8.062 0,-1.917 0.169,-3.573 0.508,-4.969 0.339,-1.396 0.812,-2.549 1.422,-3.461 0.609,-0.911 1.341,-1.586 2.195,-2.023 0.854,-0.438 1.787,-0.656 2.797,-0.656 z"
       fill-rule="evenodd"
       id="path237" />
    <text
       fill="#000000"
       fill-opacity="0"
       font-family="Arial, Arial_MSFontService, sans-serif"
       font-size="21.8281px"
       x="229.42046"
       y="495.59073"
       id="text239">0</text>
    <path
       d="m 265.26546,455.40472 h 2.734 c 0.146,0.729 0.219,1.448 0.219,2.156 0,0.729 -0.125,1.396 -0.375,2 -0.25,0.604 -0.648,1.206 -1.195,1.805 -0.547,0.599 -1.3,1.257 -2.258,1.976 l -0.844,-0.953 c 0.531,-0.5 0.917,-0.95 1.156,-1.352 0.24,-0.401 0.412,-0.856 0.516,-1.367 0.104,-0.51 0.156,-1.151 0.156,-1.922 0,-0.791 -0.036,-1.572 -0.109,-2.343 z"
       fill-rule="evenodd"
       id="path241" />
    <text
       fill="#000000"
       fill-opacity="0"
       font-family="Arial, Arial_MSFontService, sans-serif"
       font-size="7.9375px"
       x="263.54645"
       y="462.34973"
       id="text243">,</text>
    <path
       d="m 306.14146,402.43572 h 8.5 v 94.906 h -8.5 v -1.531 h 5.281 v -91.844 h -5.281 z m -27.574,0 h 8.5 v 1.531 h -5.281 v 91.844 h 5.281 v 1.531 h -8.5 z"
       fill-rule="evenodd"
       id="path245" />
    <path
       d="m 296.63146,402.79272 c -0.719,0 -1.321,0.214 -1.805,0.641 -0.484,0.427 -0.875,1.041 -1.172,1.843 -0.297,0.802 -0.508,1.779 -0.633,2.93 -0.125,1.151 -0.187,2.451 -0.187,3.899 0,3.395 0.315,5.888 0.945,7.476 0.63,1.589 1.607,2.383 2.93,2.383 1.26,0 2.195,-0.748 2.804,-2.242 0.61,-1.495 0.914,-3.81 0.914,-6.946 0,-2.395 -0.156,-4.336 -0.468,-5.82 -0.313,-1.484 -0.748,-2.549 -1.305,-3.195 -0.557,-0.646 -1.232,-0.969 -2.023,-0.969 z m 0.078,-1.328 c 2.281,0 3.979,0.88 5.093,2.641 1.115,1.76 1.672,4.421 1.672,7.984 0,3.687 -0.596,6.476 -1.789,8.367 -1.192,1.891 -2.935,2.836 -5.226,2.836 -2.25,0 -3.925,-0.885 -5.024,-2.656 -1.099,-1.771 -1.648,-4.459 -1.648,-8.063 0,-1.916 0.169,-3.573 0.508,-4.968 0.338,-1.396 0.812,-2.55 1.422,-3.461 0.609,-0.912 1.341,-1.586 2.195,-2.024 0.854,-0.437 1.786,-0.656 2.797,-0.656 z"
       fill-rule="evenodd"
       id="path247" />
    <text
       fill="#000000"
       fill-opacity="0"
       font-family="Arial, Arial_MSFontService, sans-serif"
       font-size="21.8281px"
       x="289.78745"
       y="420.56375"
       id="text249">0</text>
    <path
       d="m 297.86546,438.97772 h 0.859 c -0.062,1 -0.093,2.386 -0.093,4.156 v 13.344 c 0,0.604 0.033,1.06 0.101,1.367 0.068,0.308 0.188,0.558 0.36,0.75 0.171,0.193 0.419,0.344 0.742,0.454 0.323,0.109 0.729,0.192 1.218,0.25 0.49,0.057 1.136,0.096 1.938,0.117 v 1.14 h -11.547 v -1.14 c 1.156,-0.052 1.982,-0.123 2.477,-0.211 0.494,-0.089 0.872,-0.222 1.132,-0.399 0.261,-0.177 0.451,-0.427 0.571,-0.75 0.12,-0.323 0.179,-0.849 0.179,-1.578 v -12.672 c 0,-0.416 -0.072,-0.721 -0.218,-0.914 -0.146,-0.192 -0.36,-0.289 -0.641,-0.289 -0.333,0 -0.807,0.172 -1.422,0.516 -0.614,0.344 -1.375,0.818 -2.281,1.422 l -0.688,-1.203 z"
       fill-rule="evenodd"
       id="path251" />
    <text
       fill="#000000"
       fill-opacity="0"
       font-family="Arial, Arial_MSFontService, sans-serif"
       font-size="21.5781px"
       x="290.55246"
       y="457.85873"
       id="text253">1</text>
    <path
       d="m 296.63146,477.81972 c -0.719,0 -1.321,0.213 -1.805,0.64 -0.484,0.427 -0.875,1.042 -1.172,1.844 -0.297,0.802 -0.508,1.779 -0.633,2.93 -0.125,1.151 -0.187,2.45 -0.187,3.898 0,3.396 0.315,5.888 0.945,7.477 0.63,1.588 1.607,2.383 2.93,2.383 1.26,0 2.195,-0.748 2.804,-2.243 0.61,-1.494 0.914,-3.81 0.914,-6.945 0,-2.396 -0.156,-4.336 -0.468,-5.82 -0.313,-1.485 -0.748,-2.55 -1.305,-3.196 -0.557,-0.645 -1.232,-0.968 -2.023,-0.968 z m 0.078,-1.328 c 2.281,0 3.979,0.88 5.093,2.64 1.115,1.761 1.672,4.422 1.672,7.985 0,3.687 -0.596,6.476 -1.789,8.367 -1.192,1.89 -2.935,2.836 -5.226,2.836 -2.25,0 -3.925,-0.886 -5.024,-2.657 -1.099,-1.77 -1.648,-4.458 -1.648,-8.062 0,-1.917 0.169,-3.573 0.508,-4.969 0.338,-1.396 0.812,-2.549 1.422,-3.461 0.609,-0.911 1.341,-1.586 2.195,-2.023 0.854,-0.438 1.786,-0.656 2.797,-0.656 z"
       fill-rule="evenodd"
       id="path255" />
    <text
       fill="#000000"
       fill-opacity="0"
       font-family="Arial, Arial_MSFontService, sans-serif"
       font-size="21.8281px"
       x="289.78745"
       y="495.59073"
       id="text257">0</text>
    <text
       font-family="Calibri, Calibri_MSFontService, sans-serif"
       font-weight="400"
       font-size="32px"
       id="text267"
       x="338.05844"
       y="458.84274">is a <tspan
   font-size="32px"
   x="387.55844"
   y="458.84274"
   id="tspan259">2D<tspan
   style="fill:#ffffff"
   id="tspan473">i</tspan></tspan>subspace of <tspan
   font-family="Cambria, Cambria_MSFontService, sans-serif"
   font-size="32px"
   x="591.73846"
   y="458.84274"
   id="tspan261">R<tspan
   style="font-size:65%;baseline-shift:super"
   id="tspan477">3</tspan>.</tspan></text>
  </g>
</svg>
