<?xml version="1.0" encoding="UTF-8" standalone="no"?>
<svg
   width="1280"
   height="540"
   overflow="hidden"
   version="1.1"
   id="svg183"
   sodipodi:docname="linear_systems-bijective_transformations.svg"
   inkscape:version="1.2 (dc2aedaf03, 2022-05-15)"
   xmlns:inkscape="http://www.inkscape.org/namespaces/inkscape"
   xmlns:sodipodi="http://sodipodi.sourceforge.net/DTD/sodipodi-0.dtd"
   xmlns="http://www.w3.org/2000/svg"
   xmlns:svg="http://www.w3.org/2000/svg">
  <sodipodi:namedview
     id="namedview185"
     pagecolor="#ffffff"
     bordercolor="#000000"
     borderopacity="0.25"
     inkscape:showpageshadow="2"
     inkscape:pageopacity="0.0"
     inkscape:pagecheckerboard="0"
     inkscape:deskcolor="#d1d1d1"
     showgrid="false"
     inkscape:zoom="0.92709556"
     inkscape:cx="388.84881"
     inkscape:cy="360.26491"
     inkscape:window-width="2880"
     inkscape:window-height="1514"
     inkscape:window-x="3829"
     inkscape:window-y="-11"
     inkscape:window-maximized="1"
     inkscape:current-layer="svg183" />
  <defs
     id="defs5">
    <clipPath
       id="clip0">
      <rect
         x="0"
         y="0"
         width="1280"
         height="720"
         id="rect2" />
    </clipPath>
  </defs>
  <g
     clip-path="url(#clip0)"
     id="g181"
     transform="translate(15.100924,-32.359124)">
    <rect
       x="0"
       y="0"
       width="1280"
       height="720"
       fill="#ffffff"
       id="rect7" />
    <path
       d="M 511,251.178 C 511,245.557 515.557,241 521.178,241 h 71.644 c 5.621,0 10.178,4.557 10.178,10.178 v 58.644 C 603,315.443 598.443,320 592.822,320 H 521.178 C 515.557,320 511,315.443 511,309.822 Z"
       fill="#e2f0d9"
       fill-rule="evenodd"
       id="path9" />
    <path
       d="m 611,253.333 c 0,-3.497 2.836,-6.333 6.333,-6.333 h 25.334 c 3.497,0 6.333,2.836 6.333,6.333 v 55.334 c 0,3.497 -2.836,6.333 -6.333,6.333 H 617.333 C 613.836,315 611,312.164 611,308.667 Z"
       fill="#385723"
       fill-rule="evenodd"
       fill-opacity="0.4"
       id="path11" />
    <text
       fill="#385723"
       font-family="'Cambria Math', 'Cambria Math_MSFontService', sans-serif"
       font-weight="400"
       font-size="24px"
       transform="translate(522.624,228)"
       id="text15">ğ‘£<tspan
   font-size="16px"
   x="13"
   y="5"
   id="tspan13">1</tspan></text>
    <path
       d="m 541.505,209.098 2.942,2.543 v 0.679 l -2.942,2.543 -0.621,-0.703 1.875,-1.629 h -4.81 -2.338 -1.802 -2.892 -1.255 -2.885 -4.146 v -1.101 h 4.146 2.885 1.255 2.892 1.802 2.338 4.81 l -1.875,-1.629 z"
       fill="#385723"
       fill-rule="evenodd"
       id="path17" />
    <text
       fill="#385723"
       font-family="'Cambria Math', 'Cambria Math_MSFontService', sans-serif"
       font-weight="400"
       font-size="24px"
       transform="translate(573.154,228)"
       id="text21">ğ‘£<tspan
   font-size="16px"
   x="13"
   y="5"
   id="tspan19">2</tspan></text>
    <path
       d="m 592.035,209.098 2.942,2.543 v 0.679 l -2.942,2.543 -0.621,-0.703 1.875,-1.629 h -4.81 -2.338 -1.802 -2.892 -1.255 -2.885 -4.146 v -1.101 h 4.146 2.885 1.255 2.892 1.802 2.338 4.81 l -1.875,-1.629 z"
       fill="#385723"
       fill-rule="evenodd"
       id="path23" />
    <text
       font-family="Calibri, Calibri_MSFontService, sans-serif"
       font-weight="400"
       font-size="43px"
       transform="translate(346.578,94)"
       id="text39">Bijective <tspan
   font-size="43px"
   x="156.24699"
   y="0"
   id="tspan25">linear transformations</tspan><tspan
   font-size="43px"
   x="182.063"
   y="76"
   id="tspan27">T:</tspan><tspan
   font-family="Cambria, Cambria_MSFontService, sans-serif"
   font-size="43px"
   x="221.27"
   y="76"
   id="tspan29">R</tspan><tspan
   font-family="Cambria, Cambria_MSFontService, sans-serif"
   font-size="28px"
   x="247.77"
   y="63"
   id="tspan31">n</tspan><tspan
   font-family="'Cambria Math', 'Cambria Math_MSFontService', sans-serif"
   font-size="43px"
   x="273.26999"
   y="76"
   id="tspan33">â†’</tspan><tspan
   font-family="Cambria, Cambria_MSFontService, sans-serif"
   font-size="43px"
   x="318.76999"
   y="76"
   id="tspan35">R</tspan><tspan
   font-family="Cambria, Cambria_MSFontService, sans-serif"
   font-size="28px"
   x="345.26999"
   y="63"
   id="tspan37">n</tspan></text>
    <path
       d="m 681,252.333 c 0,-3.497 2.836,-6.333 6.333,-6.333 h 25.334 c 3.497,0 6.333,2.836 6.333,6.333 v 55.334 c 0,3.497 -2.836,6.333 -6.333,6.333 H 687.333 C 683.836,314 681,311.164 681,307.667 Z"
       fill="#385723"
       fill-rule="evenodd"
       fill-opacity="0.4"
       id="path41" />
    <path
       d="m 591.771,249.391 h 7.859 v 63.656 h -7.859 v -1.437 h 4.797 v -60.781 h -4.797 z m -76.601,0 h 7.86 v 1.438 h -4.797 v 60.781 h 4.797 v 1.437 h -7.86 z"
       fill-rule="evenodd"
       id="path43" />
    <text
       font-family="'Cambria Math', 'Cambria Math_MSFontService', sans-serif"
       font-weight="400"
       font-size="32px"
       transform="translate(523.734,273)"
       id="text51">1<tspan
   font-size="32px"
   x="49.666698"
   y="0"
   id="tspan45">0</tspan><tspan
   font-size="32px"
   x="0"
   y="38"
   id="tspan47">0</tspan><tspan
   font-size="32px"
   x="49.666698"
   y="38"
   id="tspan49">1</tspan></text>
    <path
       d="m 639.531,254.974 h 7.437 v 52.5 h -7.437 v -1.36 h 4.547 v -49.781 h -4.547 z m -27.456,0 h 7.437 v 1.359 h -4.547 v 49.781 h 4.547 v 1.36 h -7.437 z"
       fill-rule="evenodd"
       id="path53" />
    <text
       font-family="'Cambria Math', 'Cambria Math_MSFontService', sans-serif"
       font-weight="400"
       font-size="32px"
       transform="translate(620.214,270)"
       id="text59">ğ‘<tspan
   font-size="32px"
   x="0.286621"
   y="37"
   id="tspan55">ğ‘</tspan><tspan
   font-family="Calibri, Calibri_MSFontService, sans-serif"
   font-size="32px"
   x="37.466702"
   y="20"
   id="tspan57">=</tspan></text>
    <path
       d="m 711.271,254.974 h 7.437 v 52.5 h -7.437 v -1.36 h 4.547 v -49.781 h -4.547 z m -26.876,0 h 7.437 v 1.359 h -4.547 v 49.781 h 4.547 v 1.36 h -7.437 z"
       fill-rule="evenodd"
       id="path61" />
    <text
       font-family="'Cambria Math', 'Cambria Math_MSFontService', sans-serif"
       font-weight="400"
       font-size="32px"
       transform="translate(693.714,270)"
       id="text69">a<tspan
   font-size="32px"
   x="-1.1799901"
   y="37"
   id="tspan63">ğ‘</tspan><tspan
   font-family="Calibri, Calibri_MSFontService, sans-serif"
   font-size="24px"
   x="-5.7693501"
   y="144"
   id="tspan65">ColA = Span{</tspan><tspan
   font-size="24px"
   x="117.397"
   y="144"
   id="tspan67">ğ‘£</tspan></text>
    <path
       d="m 8.83594,-15.668 -2.94141,2.543 -0.62109,-0.7031 1.875,-1.6289 H 0 v -1.1016 h 7.14844 l -1.875,-1.6289 0.62109,-0.7031 2.94141,2.5429 z"
       transform="translate(815.185,414)"
       id="path71" />
    <text
       font-family="'Cambria Math', 'Cambria Math_MSFontService', sans-serif"
       font-weight="400"
       font-size="16px"
       transform="translate(824.812,419)"
       id="text77">1<tspan
   font-family="Calibri, Calibri_MSFontService, sans-serif"
   font-size="24px"
   x="8.8333702"
   y="-5"
   id="tspan73">,</tspan><tspan
   font-size="24px"
   x="20.333401"
   y="-5"
   id="tspan75">ğ‘£</tspan></text>
    <path
       d="m 8.83594,-15.668 -2.94141,2.543 -0.62109,-0.7031 1.875,-1.6289 H 0 v -1.1016 h 7.14844 l -1.875,-1.6289 0.62109,-0.7031 2.94141,2.5429 z"
       transform="translate(849.218,414)"
       id="path79" />
    <text
       font-family="'Cambria Math', 'Cambria Math_MSFontService', sans-serif"
       font-weight="400"
       font-size="16px"
       transform="translate(858.845,419)"
       id="text103">2<tspan
   font-family="Calibri, Calibri_MSFontService, sans-serif"
   font-size="24px"
   x="8.8333702"
   y="-5"
   id="tspan81">} and ColA is therefore in</tspan><tspan
   font-family="Cambria, Cambria_MSFontService, sans-serif"
   font-size="24px"
   x="255.987"
   y="-5"
   id="tspan83">R</tspan><tspan
   font-family="Cambria, Cambria_MSFontService, sans-serif"
   font-size="16px"
   x="270.82001"
   y="-12"
   id="tspan85">2</tspan><tspan
   font-family="Calibri, Calibri_MSFontService, sans-serif"
   font-size="24px"
   x="279.65302"
   y="-5"
   id="tspan87">.</tspan><tspan
   font-family="Calibri, Calibri_MSFontService, sans-serif"
   font-size="24px"
   x="-170.89999"
   y="23"
   id="tspan89">The</tspan><tspan
   font-family="Calibri, Calibri_MSFontService, sans-serif"
   font-size="24px"
   x="-129.067"
   y="23"
   id="tspan91">co</tspan><tspan
   font-family="Calibri, Calibri_MSFontService, sans-serif"
   font-size="24px"
   x="-106.433"
   y="23"
   id="tspan93">-</tspan><tspan
   font-family="Calibri, Calibri_MSFontService, sans-serif"
   font-size="24px"
   x="-99.099998"
   y="23"
   id="tspan95">domain</tspan><tspan
   font-family="Calibri, Calibri_MSFontService, sans-serif"
   font-size="24px"
   x="-19.4333"
   y="23"
   id="tspan97">of T</tspan><tspan
   font-family="Calibri, Calibri_MSFontService, sans-serif"
   font-size="24px"
   x="17.733299"
   y="23"
   id="tspan99">(</tspan><tspan
   font-size="24px"
   x="25.0667"
   y="23"
   id="tspan101">ğ‘¥</tspan></text>
    <path
       d="m 8.83594,-15.668 -2.94141,2.543 -0.62109,-0.7031 1.875,-1.6289 H 0 v -1.1016 h 7.14844 l -1.875,-1.6289 0.62109,-0.7031 2.94141,2.5429 z"
       transform="translate(887.705,442)"
       id="path105" />
    <text
       font-family="'Cambria Math', 'Cambria Math_MSFontService', sans-serif"
       font-weight="400"
       font-size="16px"
       transform="translate(897.472,447)"
       id="text123">1<tspan
   font-family="Calibri, Calibri_MSFontService, sans-serif"
   font-size="24px"
   x="8.8333101"
   y="-5"
   id="tspan107">) is also in</tspan><tspan
   font-family="Cambria, Cambria_MSFontService, sans-serif"
   font-size="24px"
   x="110.167"
   y="-5"
   id="tspan109">R</tspan><tspan
   font-family="Cambria, Cambria_MSFontService, sans-serif"
   font-size="16px"
   x="125"
   y="-12"
   id="tspan111">2</tspan><tspan
   font-family="Calibri, Calibri_MSFontService, sans-serif"
   font-size="24px"
   x="133.83299"
   y="-5"
   id="tspan113">.</tspan><tspan
   font-family="Calibri, Calibri_MSFontService, sans-serif"
   font-size="24px"
   x="-209.52699"
   y="53"
   id="tspan115">Nullity T = 0 as only the trivial solution exists for</tspan><tspan
   font-family="Calibri, Calibri_MSFontService, sans-serif"
   font-size="24px"
   x="-209.52699"
   y="86"
   id="tspan117">T</tspan><tspan
   font-family="Calibri, Calibri_MSFontService, sans-serif"
   font-size="24px"
   x="-197.86"
   y="86"
   id="tspan119">(</tspan><tspan
   font-size="24px"
   x="-190.52699"
   y="86"
   id="tspan121">ğ‘¥</tspan></text>
    <path
       d="m 8.83594,-15.668 -2.94141,2.543 -0.62109,-0.7031 1.875,-1.6289 H 0 v -1.1016 h 7.14844 l -1.875,-1.6289 0.62109,-0.7031 2.94141,2.5429 z"
       transform="translate(710.738,533)"
       id="path125" />
    <text
       font-family="Calibri, Calibri_MSFontService, sans-serif"
       font-weight="400"
       font-size="24px"
       transform="translate(720.505,533)"
       id="text129">) = <tspan
   font-family="'Cambria Math', 'Cambria Math_MSFontService', sans-serif"
   font-size="24px"
   x="30.3333"
   y="0"
   id="tspan127">0</tspan></text>
    <path
       d="m 761.226,509.782 2.942,2.543 v 0.679 l -2.942,2.543 -0.621,-0.703 1.875,-1.629 h -4.604 -2.544 -4.487 v -1.101 h 4.487 2.544 4.604 l -1.875,-1.629 z"
       fill-rule="evenodd"
       id="path131" />
    <text
       fill="#c00000"
       font-family="Calibri, Calibri_MSFontService, sans-serif"
       font-weight="400"
       font-size="27px"
       transform="translate(853.717,378)"
       id="text139">Surjective<tspan
   font-size="27px"
   x="-567.61798"
   y="-3"
   id="tspan133">Injective</tspan><tspan
   fill="#000000"
   font-size="24px"
   x="-764.74298"
   y="36"
   id="tspan135">The set of vectors {</tspan><tspan
   fill="#000000"
   font-family="'Cambria Math', 'Cambria Math_MSFontService', sans-serif"
   font-size="24px"
   x="-579.25"
   y="36"
   id="tspan137">ğ‘£</tspan></text>
    <path
       d="m 8.83594,-15.668 -2.94141,2.543 -0.62109,-0.7031 1.875,-1.6289 H 0 v -1.1016 h 7.14844 l -1.875,-1.6289 0.62109,-0.7031 2.94141,2.5429 z"
       transform="translate(278.541,414)"
       id="path141" />
    <text
       font-family="'Cambria Math', 'Cambria Math_MSFontService', sans-serif"
       font-weight="400"
       font-size="16px"
       transform="translate(288.167,419)"
       id="text147">1<tspan
   font-family="Calibri, Calibri_MSFontService, sans-serif"
   font-size="24px"
   x="8.8333101"
   y="-5"
   id="tspan143">,</tspan><tspan
   font-size="24px"
   x="20.3333"
   y="-5"
   id="tspan145">ğ‘£</tspan></text>
    <path
       d="m 8.83594,-15.668 -2.94141,2.543 -0.62109,-0.7031 1.875,-1.6289 H 0 v -1.1016 h 7.14844 l -1.875,-1.6289 0.62109,-0.7031 2.94141,2.5429 z"
       transform="translate(312.574,414)"
       id="path149" />
    <text
       font-family="'Cambria Math', 'Cambria Math_MSFontService', sans-serif"
       font-weight="400"
       font-size="16px"
       transform="translate(322.201,419)"
       id="text159">2<tspan
   font-family="Calibri, Calibri_MSFontService, sans-serif"
   font-size="24px"
   x="12.5"
   y="-5"
   id="tspan151">} is linearly independent</tspan><tspan
   font-family="Calibri, Calibri_MSFontService, sans-serif"
   font-size="24px"
   x="-233.22701"
   y="28"
   id="tspan153">and therefore a unique solution exists for T</tspan><tspan
   font-family="Calibri, Calibri_MSFontService, sans-serif"
   font-size="24px"
   x="186.127"
   y="28"
   id="tspan155">(</tspan><tspan
   font-size="24px"
   x="193.46001"
   y="28"
   id="tspan157">ğ‘¥</tspan></text>
    <path
       d="m 8.83594,-15.668 -2.94141,2.543 -0.62109,-0.7031 1.875,-1.6289 H 0 v -1.1016 h 7.14844 l -1.875,-1.6289 0.62109,-0.7031 2.94141,2.5429 z"
       transform="translate(519.454,447)"
       id="path161" />
    <text
       font-family="Calibri, Calibri_MSFontService, sans-serif"
       font-weight="400"
       font-size="24px"
       transform="translate(529.221,447)"
       id="text167">) <tspan
   font-size="24px"
   x="12.8334"
   y="0"
   id="tspan163">=</tspan><tspan
   font-family="'Cambria Math', 'Cambria Math_MSFontService', sans-serif"
   font-size="24px"
   x="30.333401"
   y="0"
   id="tspan165">ğ‘</tspan></text>
    <path
       d="m 569.608,423.208 2.942,2.543 v 0.68 l -2.942,2.543 -0.621,-0.703 1.875,-1.629 h -2.737 -4.411 -2.62 v -1.102 h 2.62 4.411 2.737 l -1.875,-1.628 z"
       fill-rule="evenodd"
       id="path169" />
    <text
       font-family="Calibri, Calibri_MSFontService, sans-serif"
       font-weight="400"
       font-size="24px"
       transform="translate(573.081,447)"
       id="text179">. <tspan
   font-size="24px"
   x="-484.10699"
   y="57"
   id="tspan171">Rank</tspan><tspan
   font-size="24px"
   x="-430.60699"
   y="57"
   id="tspan173">T</tspan><tspan
   font-size="24px"
   x="-413.44"
   y="57"
   id="tspan175">=</tspan><tspan
   font-size="24px"
   x="-395.94"
   y="57"
   id="tspan177">2</tspan></text>
  </g>
</svg>
