<?xml version="1.0" encoding="UTF-8" standalone="no"?>
<svg
   width="1000"
   height="480"
   overflow="hidden"
   version="1.1"
   id="svg171"
   sodipodi:docname="linear_systems-matrix_column_space.svg"
   inkscape:version="1.2 (dc2aedaf03, 2022-05-15)"
   xmlns:inkscape="http://www.inkscape.org/namespaces/inkscape"
   xmlns:sodipodi="http://sodipodi.sourceforge.net/DTD/sodipodi-0.dtd"
   xmlns="http://www.w3.org/2000/svg"
   xmlns:svg="http://www.w3.org/2000/svg">
  <sodipodi:namedview
     id="namedview173"
     pagecolor="#ffffff"
     bordercolor="#000000"
     borderopacity="0.25"
     inkscape:showpageshadow="2"
     inkscape:pageopacity="0.0"
     inkscape:pagecheckerboard="0"
     inkscape:deskcolor="#d1d1d1"
     showgrid="false"
     inkscape:zoom="0.92709556"
     inkscape:cx="494.55528"
     inkscape:cy="409.88224"
     inkscape:window-width="2560"
     inkscape:window-height="1494"
     inkscape:window-x="-11"
     inkscape:window-y="-11"
     inkscape:window-maximized="1"
     inkscape:current-layer="svg171" />
  <defs
     id="defs5">
    <clipPath
       id="clip0">
      <rect
         x="0"
         y="0"
         width="1280"
         height="720"
         id="rect2" />
    </clipPath>
  </defs>
  <g
     clip-path="url(#clip0)"
     id="g169"
     transform="translate(-63.63961,-23.730024)">
    <rect
       x="0"
       y="0"
       width="1280"
       height="720"
       fill="#ffffff"
       id="rect7" />
    <text
       font-family="Calibri, Calibri_MSFontService, sans-serif"
       font-weight="400"
       font-size="43px"
       transform="translate(369.315,119)"
       id="text13">Matrix column space<tspan
   fill="#385723"
   font-family="'Cambria Math', 'Cambria Math_MSFontService', sans-serif"
   font-size="24px"
   x="-83.702003"
   y="80"
   id="tspan9">ğ‘</tspan><tspan
   fill="#385723"
   font-family="'Cambria Math', 'Cambria Math_MSFontService', sans-serif"
   font-size="16px"
   x="-70.368698"
   y="85"
   id="tspan11">1</tspan></text>
    <path
       d="m 304.827,180.446 2.941,2.543 v 0.679 l -2.941,2.543 -0.621,-0.703 1.875,-1.629 h -4.811 -2.337 -1.969 -2.725 -1.589 -2.717 -4.314 v -1.101 h 4.314 2.717 1.589 2.725 1.969 2.337 4.811 l -1.875,-1.629 z"
       fill="#385723"
       fill-rule="evenodd"
       id="path15" />
    <path
       d="m 336,220.333 c 0,-2.393 1.94,-4.333 4.333,-4.333 h 17.334 c 2.393,0 4.333,1.94 4.333,4.333 v 107.334 c 0,2.393 -1.94,4.333 -4.333,4.333 H 340.333 C 337.94,332 336,330.06 336,327.667 Z"
       fill="#385723"
       fill-rule="evenodd"
       fill-opacity="0.4"
       id="path17" />
    <path
       d="m 284,220.333 c 0,-2.393 1.94,-4.333 4.333,-4.333 h 17.334 c 2.393,0 4.333,1.94 4.333,4.333 v 107.334 c 0,2.393 -1.94,4.333 -4.333,4.333 H 288.333 C 285.94,332 284,330.06 284,327.667 Z"
       fill="#385723"
       fill-rule="evenodd"
       fill-opacity="0.4"
       id="path19" />
    <text
       fill="#385723"
       font-family="'Cambria Math', 'Cambria Math_MSFontService', sans-serif"
       font-weight="400"
       font-size="24px"
       transform="translate(335.468,199)"
       id="text23">ğ‘<tspan
   font-size="16px"
   x="13.3333"
   y="5"
   id="tspan21">2</tspan></text>
    <path
       d="m 354.682,179.912 2.942,2.543 v 0.68 l -2.942,2.543 -0.621,-0.703 1.875,-1.629 h -4.811 -2.337 -1.969 -2.725 -1.589 -2.717 -4.314 v -1.102 h 4.314 2.717 1.589 2.725 1.969 2.337 4.811 l -1.875,-1.629 z"
       fill="#385723"
       fill-rule="evenodd"
       id="path25" />
    <text
       font-family="Calibri, Calibri_MSFontService, sans-serif"
       font-weight="400"
       font-size="32px"
       transform="translate(477.298,282)"
       id="text27">Col A = Span</text>
    <path
       d="m 657.048,225.673 v 1.344 c -1.427,0.302 -2.718,1.698 -3.875,4.187 -1.156,2.49 -1.734,6.427 -1.734,11.813 0,2.187 0.338,5.534 1.016,10.039 0.677,4.505 1.015,7.273 1.015,8.305 0,3.052 -0.307,5.533 -0.922,7.445 -0.614,1.911 -1.692,3.331 -3.234,4.258 v 0.422 c 1.542,0.927 2.62,2.346 3.234,4.257 0.615,1.912 0.922,4.394 0.922,7.446 0,1.031 -0.338,3.799 -1.015,8.304 -0.678,4.506 -1.016,7.852 -1.016,10.04 0,5.281 0.578,9.166 1.734,11.656 1.157,2.489 2.448,3.885 3.875,4.187 v 1.344 c -2.271,-0.312 -4.291,-2.036 -6.062,-5.172 -1.771,-3.135 -2.656,-8.015 -2.656,-14.64 0,-2.438 0.354,-5.782 1.062,-10.032 0.708,-4.25 1.063,-7.151 1.063,-8.703 0,-2.542 -0.373,-4.5 -1.118,-5.875 -0.744,-1.375 -1.7,-2.114 -2.867,-2.219 v -1.609 c 1.167,-0.104 2.123,-0.844 2.867,-2.219 0.745,-1.375 1.118,-3.333 1.118,-5.875 0,-1.552 -0.355,-4.453 -1.063,-8.703 -0.708,-4.25 -1.062,-7.594 -1.062,-10.031 0,-6.729 0.885,-11.662 2.656,-14.797 1.771,-3.135 3.791,-4.859 6.062,-5.172 z"
       fill-rule="evenodd"
       id="path29" />
    <text
       fill="#000000"
       fill-opacity="0"
       font-family="Arial, Arial_MSFontService, sans-serif"
       font-size="95.0469px"
       x="646.46997"
       y="308.83899"
       id="text31">àµ</text>
    <path
       d="m 691.501,225.738 h 8.5 v 94.906 h -8.5 v -1.531 h 5.282 v -91.844 h -5.282 z m -29.954,0 h 8.5 v 1.531 h -5.281 v 91.844 h 5.281 v 1.531 h -8.5 z"
       fill-rule="evenodd"
       id="path33" />
    <path
       d="m 681.481,225.816 c -1.073,0 -2.037,0.433 -2.891,1.297 -0.854,0.865 -1.521,2.024 -2,3.477 -0.479,1.453 -0.719,2.903 -0.719,4.351 0,1.084 0.149,1.893 0.446,2.43 0.296,0.536 0.794,0.805 1.492,0.805 0.687,0 1.362,-0.297 2.023,-0.891 0.662,-0.594 1.344,-1.44 2.047,-2.539 0.703,-1.099 1.201,-2.367 1.492,-3.805 l 0.141,-0.672 c 0.094,-0.427 0.156,-0.797 0.187,-1.109 0.032,-0.313 0.047,-0.651 0.047,-1.016 0,-0.802 -0.172,-1.39 -0.515,-1.765 -0.344,-0.375 -0.927,-0.563 -1.75,-0.563 z m -0.313,-1.234 c 0.677,0 1.31,0.075 1.899,0.226 0.588,0.151 1.195,0.42 1.82,0.805 l 1.437,-1.031 1,0.25 -2.297,9.906 c -0.229,0.99 -0.343,1.761 -0.343,2.313 0,0.416 0.067,0.718 0.203,0.906 0.135,0.187 0.349,0.281 0.64,0.281 0.313,0 0.646,-0.127 1,-0.383 0.355,-0.255 0.855,-0.742 1.5,-1.461 l 0.891,0.875 c -0.937,1 -1.737,1.711 -2.398,2.133 -0.662,0.422 -1.378,0.633 -2.149,0.633 -0.646,0 -1.161,-0.214 -1.547,-0.641 -0.385,-0.427 -0.578,-0.994 -0.578,-1.703 0,-0.573 0.12,-1.182 0.36,-1.828 l -0.204,-0.062 c -1,1.458 -1.947,2.526 -2.843,3.203 -0.896,0.677 -1.844,1.015 -2.844,1.015 -1.146,0 -2.034,-0.432 -2.664,-1.297 -0.63,-0.864 -0.945,-2.078 -0.945,-3.64 0,-1.792 0.351,-3.513 1.054,-5.164 0.703,-1.651 1.67,-2.953 2.899,-3.906 1.229,-0.954 2.599,-1.43 4.109,-1.43 z"
       fill-rule="evenodd"
       id="path35" />
    <text
       fill="#000000"
       fill-opacity="0"
       font-family="Arial, Arial_MSFontService, sans-serif"
       font-size="15.4531px"
       x="673.10602"
       y="238.103"
       id="text37">ğ‘</text>
    <path
       d="m 681.003,263.33 c -1.063,0 -2.016,0.429 -2.86,1.289 -0.844,0.859 -1.508,2.018 -1.992,3.476 -0.484,1.459 -0.727,2.912 -0.727,4.36 0,1.083 0.149,1.893 0.446,2.429 0.297,0.537 0.794,0.805 1.492,0.805 0.323,0 0.651,-0.07 0.984,-0.211 0.334,-0.141 0.68,-0.367 1.039,-0.68 0.36,-0.312 0.714,-0.692 1.063,-1.14 0.349,-0.448 0.669,-0.899 0.961,-1.352 0.292,-0.453 0.562,-0.989 0.812,-1.609 0.25,-0.62 0.464,-1.367 0.641,-2.242 l 0.141,-0.672 c 0.156,-0.75 0.234,-1.459 0.234,-2.125 0,-0.813 -0.172,-1.404 -0.516,-1.774 -0.343,-0.37 -0.916,-0.554 -1.718,-0.554 z m 6.546,-8.375 h 0.922 l -3.89,17.296 c -0.229,1.021 -0.344,1.792 -0.344,2.313 0,0.417 0.068,0.719 0.203,0.906 0.136,0.188 0.349,0.281 0.641,0.281 0.312,0 0.646,-0.127 1,-0.382 0.354,-0.256 0.854,-0.743 1.5,-1.461 l 0.89,0.875 c -0.958,1.01 -1.765,1.724 -2.422,2.14 -0.656,0.417 -1.364,0.625 -2.125,0.625 -0.645,0 -1.161,-0.213 -1.546,-0.64 -0.386,-0.427 -0.579,-0.995 -0.579,-1.703 0,-0.573 0.12,-1.183 0.36,-1.829 l -0.203,-0.062 c -1,1.458 -1.948,2.526 -2.844,3.203 -0.896,0.677 -1.844,1.016 -2.844,1.016 -1.146,0 -2.034,-0.433 -2.664,-1.297 -0.63,-0.865 -0.945,-2.078 -0.945,-3.641 0,-1.791 0.351,-3.513 1.055,-5.164 0.703,-1.651 1.669,-2.953 2.898,-3.906 1.229,-0.953 2.599,-1.43 4.109,-1.43 0.636,0 1.222,0.065 1.758,0.195 0.537,0.131 1.086,0.357 1.649,0.68 l 0.812,-3.609 c 0.083,-0.344 0.156,-0.724 0.219,-1.141 0.062,-0.416 0.094,-0.781 0.094,-1.094 0,-0.312 -0.058,-0.549 -0.172,-0.711 -0.115,-0.161 -0.279,-0.278 -0.492,-0.351 -0.214,-0.073 -0.597,-0.125 -1.149,-0.156 l 0.188,-0.813 z"
       fill-rule="evenodd"
       id="path39" />
    <text
       fill="#000000"
       fill-opacity="0"
       font-family="Arial, Arial_MSFontService, sans-serif"
       font-size="22.5938px"
       x="672.659"
       y="274.724"
       id="text41">ğ‘‘</text>
    <path
       d="m 682.705,300.843 c -1.063,0 -2.016,0.43 -2.86,1.289 -0.843,0.859 -1.507,2.018 -1.992,3.477 -0.484,1.458 -0.726,2.911 -0.726,4.359 0,1.083 0.156,1.893 0.468,2.43 0.313,0.536 0.802,0.804 1.469,0.804 0.531,0 1.06,-0.182 1.586,-0.547 0.526,-0.364 1.089,-0.942 1.688,-1.734 0.598,-0.792 1.065,-1.547 1.398,-2.266 0.333,-0.718 0.617,-1.614 0.852,-2.687 0.234,-1.073 0.351,-2.005 0.351,-2.797 0,-0.812 -0.172,-1.404 -0.516,-1.773 -0.343,-0.37 -0.916,-0.555 -1.718,-0.555 z m -0.25,-1.234 c 0.656,0 1.276,0.078 1.859,0.234 0.583,0.156 1.172,0.422 1.766,0.797 l 1.437,-1.031 1,0.25 -1.609,7.281 c -0.115,0.51 -0.375,1.797 -0.781,3.859 -0.427,2.188 -0.774,3.735 -1.039,4.641 -0.266,0.906 -0.597,1.732 -0.993,2.476 -0.395,0.745 -0.906,1.394 -1.531,1.946 -0.625,0.552 -1.383,0.979 -2.273,1.281 -0.891,0.302 -1.946,0.453 -3.164,0.453 -3.938,0 -5.907,-1.146 -5.907,-3.437 0,-0.584 0.177,-1.115 0.532,-1.594 0.354,-0.479 0.921,-0.985 1.703,-1.516 l 1.125,0.906 c -0.198,0.24 -0.365,0.477 -0.5,0.711 -0.136,0.235 -0.232,0.461 -0.289,0.68 -0.058,0.219 -0.086,0.479 -0.086,0.781 0,0.782 0.281,1.352 0.843,1.711 0.563,0.36 1.412,0.539 2.547,0.539 1.282,0 2.31,-0.289 3.086,-0.867 0.776,-0.578 1.44,-1.508 1.992,-2.789 0.553,-1.281 1.089,-3.219 1.61,-5.812 l -0.219,-0.047 c -1.01,1.385 -1.948,2.395 -2.812,3.031 -0.865,0.635 -1.797,0.953 -2.797,0.953 -1.136,0 -2.019,-0.427 -2.649,-1.281 -0.63,-0.854 -0.945,-2.073 -0.945,-3.656 0,-1.782 0.349,-3.493 1.047,-5.133 0.698,-1.641 1.667,-2.946 2.906,-3.914 1.24,-0.969 2.62,-1.453 4.141,-1.453 z"
       fill-rule="evenodd"
       id="path43" />
    <text
       fill="#000000"
       fill-opacity="0"
       font-family="Arial, Arial_MSFontService, sans-serif"
       font-size="22.1875px"
       x="671.21997"
       y="319.02301"
       id="text45">ğ‘”</text>
    <text
       font-family="Calibri, Calibri_MSFontService, sans-serif"
       font-weight="400"
       font-size="32px"
       transform="translate(703.565,282)"
       id="text47">,</text>
    <path
       d="m 750.581,225.738 h 8.5 v 94.906 h -8.5 v -1.531 h 5.282 v -91.844 h -5.282 z m -28.287,0 h 8.5 v 1.531 h -5.281 v 91.844 h 5.281 v 1.531 h -8.5 z"
       fill-rule="evenodd"
       id="path49" />
    <path
       d="m 742.562,233.372 c -0.5,0 -0.992,0.159 -1.476,0.477 -0.485,0.318 -1.024,0.844 -1.617,1.578 -0.594,0.734 -1.079,1.487 -1.454,2.258 -0.375,0.771 -0.692,1.755 -0.953,2.953 l -0.14,0.656 c -0.157,0.729 -0.235,1.438 -0.235,2.125 0,0.823 0.18,1.417 0.539,1.781 0.36,0.365 0.956,0.547 1.789,0.547 0.427,0 0.834,-0.07 1.219,-0.211 0.386,-0.14 0.779,-0.372 1.18,-0.695 0.401,-0.323 0.781,-0.747 1.14,-1.273 0.36,-0.526 0.691,-1.175 0.993,-1.946 0.302,-0.771 0.536,-1.596 0.703,-2.476 0.166,-0.88 0.25,-1.722 0.25,-2.524 0,-1.083 -0.154,-1.896 -0.461,-2.437 -0.307,-0.542 -0.8,-0.813 -1.477,-0.813 z m -2.734,-8.984 h 0.906 l -2.75,10.937 0.203,0.063 c 1.011,-1.354 1.959,-2.333 2.844,-2.938 0.885,-0.604 1.771,-0.906 2.656,-0.906 1.136,0 2.019,0.432 2.649,1.297 0.63,0.865 0.945,2.083 0.945,3.656 0,1.719 -0.346,3.409 -1.039,5.071 -0.693,1.661 -1.654,2.979 -2.883,3.953 -1.229,0.974 -2.604,1.461 -4.125,1.461 -1.385,0 -2.614,-0.339 -3.687,-1.016 l -1.438,1.016 -1,-0.25 4.047,-17.86 c 0.24,-1.062 0.359,-1.833 0.359,-2.312 0,-0.438 -0.132,-0.745 -0.398,-0.922 -0.266,-0.177 -0.742,-0.276 -1.43,-0.297 l 0.188,-0.812 z"
       fill-rule="evenodd"
       id="path51" />
    <text
       fill="#000000"
       fill-opacity="0"
       font-family="Arial, Arial_MSFontService, sans-serif"
       font-size="22.5938px"
       x="733.10901"
       y="244.157"
       id="text53">ğ‘</text>
    <path
       d="m 742.465,270.276 c -1.052,0 -2.065,0.531 -3.039,1.594 -0.974,1.062 -1.721,2.5 -2.242,4.312 1.469,-0.01 2.729,-0.143 3.781,-0.398 1.052,-0.255 1.86,-0.661 2.422,-1.219 0.563,-0.557 0.844,-1.31 0.844,-2.258 0,-0.635 -0.149,-1.132 -0.446,-1.492 -0.296,-0.359 -0.737,-0.539 -1.32,-0.539 z m 0.563,-1.234 c 1.26,0 2.205,0.255 2.836,0.765 0.63,0.511 0.945,1.308 0.945,2.391 0,1.771 -0.831,3.099 -2.492,3.984 -1.662,0.886 -4.128,1.329 -7.399,1.329 -0.125,0.625 -0.187,1.302 -0.187,2.031 0,1.094 0.213,1.888 0.64,2.383 0.427,0.494 1.125,0.742 2.094,0.742 0.958,0 1.826,-0.208 2.602,-0.625 0.776,-0.417 1.596,-1.057 2.461,-1.922 l 0.968,1.016 c -1.01,1.114 -2.033,1.953 -3.07,2.515 -1.036,0.563 -2.242,0.844 -3.617,0.844 -1.511,0 -2.68,-0.461 -3.508,-1.383 -0.828,-0.922 -1.242,-2.206 -1.242,-3.851 0,-1.115 0.2,-2.31 0.601,-3.586 0.402,-1.276 1.008,-2.422 1.821,-3.438 0.812,-1.015 1.786,-1.802 2.922,-2.359 1.135,-0.557 2.343,-0.836 3.625,-0.836 z"
       fill-rule="evenodd"
       id="path55" />
    <text
       fill="#000000"
       fill-opacity="0"
       font-family="Arial, Arial_MSFontService, sans-serif"
       font-size="15.4531px"
       x="734.05902"
       y="282.56299"
       id="text57">ğ‘’</text>
    <path
       d="m 739.639,299.415 h 0.906 l -2.687,10.828 0.187,0.062 c 0.99,-1.312 1.925,-2.263 2.805,-2.851 0.88,-0.589 1.768,-0.883 2.664,-0.883 0.969,0 1.713,0.278 2.234,0.836 0.521,0.557 0.782,1.33 0.782,2.32 0,0.656 -0.152,1.589 -0.454,2.797 l -1.015,4.094 c -0.281,1.135 -0.422,1.937 -0.422,2.406 0,0.417 0.068,0.719 0.203,0.906 0.135,0.188 0.349,0.281 0.641,0.281 0.312,0 0.645,-0.127 1,-0.382 0.354,-0.256 0.854,-0.743 1.5,-1.461 l 0.89,0.875 c -1,1.052 -1.82,1.776 -2.461,2.172 -0.64,0.395 -1.362,0.593 -2.164,0.593 -0.677,0 -1.216,-0.239 -1.617,-0.718 -0.401,-0.48 -0.601,-1.099 -0.601,-1.86 0,-0.677 0.171,-1.672 0.515,-2.984 l 0.672,-2.703 c 0.24,-0.969 0.401,-1.696 0.484,-2.18 0.084,-0.484 0.125,-0.862 0.125,-1.133 0,-0.739 -0.119,-1.263 -0.359,-1.57 -0.24,-0.307 -0.63,-0.461 -1.172,-0.461 -0.427,0 -0.901,0.177 -1.422,0.531 -0.521,0.354 -1.067,0.893 -1.64,1.617 -0.573,0.724 -1.029,1.417 -1.368,2.079 -0.338,0.661 -0.606,1.45 -0.804,2.367 l -1.422,6.765 h -2.703 l 4.015,-17.859 c 0.25,-1.115 0.375,-1.885 0.375,-2.313 0,-0.437 -0.132,-0.744 -0.398,-0.921 -0.266,-0.178 -0.742,-0.276 -1.43,-0.297 l 0.188,-0.813 z"
       fill-rule="evenodd"
       id="path59" />
    <text
       fill="#000000"
       fill-opacity="0"
       font-family="Arial, Arial_MSFontService, sans-serif"
       font-size="22.5938px"
       x="732.93597"
       y="319.18399"
       id="text61">â„</text>
    <text
       font-family="Calibri, Calibri_MSFontService, sans-serif"
       font-weight="400"
       font-size="32px"
       transform="translate(762.645,282)"
       id="text63">,</text>
    <path
       d="m 809.888,225.738 h 8.5 v 94.906 h -8.5 v -1.531 h 5.281 v -91.844 h -5.281 z m -28.514,0 h 8.5 v 1.531 h -5.281 v 91.844 h 5.281 v 1.531 h -8.5 z"
       fill-rule="evenodd"
       id="path65" />
    <path
       d="m 806.574,227.589 c 0.855,0 1.627,0.049 2.317,0.148 0.691,0.099 1.363,0.258 2.018,0.477 l -1.11,3.265 h -1.984 c 0.053,-0.677 0.015,-1.211 -0.112,-1.601 -0.128,-0.391 -0.337,-0.664 -0.628,-0.821 -0.29,-0.156 -0.691,-0.234 -1.201,-0.234 -0.729,0 -1.455,0.234 -2.177,0.703 -0.722,0.469 -1.409,1.182 -2.063,2.141 -0.654,0.958 -1.216,2.13 -1.687,3.515 -0.301,0.886 -0.514,1.696 -0.638,2.43 -0.125,0.734 -0.125,1.362 0,1.883 0.125,0.521 0.388,0.927 0.789,1.219 0.401,0.291 0.971,0.437 1.711,0.437 0.719,0 1.436,-0.141 2.151,-0.422 0.715,-0.281 1.527,-0.776 2.434,-1.484 l 0.541,1.031 c -0.73,0.583 -1.352,1.034 -1.866,1.352 -0.514,0.317 -1.04,0.583 -1.576,0.796 -0.536,0.214 -1.047,0.37 -1.534,0.469 -0.487,0.099 -0.996,0.149 -1.527,0.149 -1.969,0 -3.252,-0.654 -3.849,-1.961 -0.598,-1.308 -0.477,-3.196 0.362,-5.664 0.524,-1.542 1.28,-2.909 2.269,-4.102 0.989,-1.193 2.119,-2.112 3.391,-2.758 1.271,-0.646 2.594,-0.968 3.969,-0.968 z"
       fill-rule="evenodd"
       id="path67" />
    <text
       fill="#000000"
       fill-opacity="0"
       font-family="Arial, Arial_MSFontService, sans-serif"
       font-size="15.4531px"
       x="796.21002"
       y="241.11"
       id="text69">c</text>
    <path
       d="m 805.297,257.867 c 1.021,0 1.901,0.084 2.641,0.25 l -0.61,2.657 h -1.375 c -0.146,-0.594 -0.336,-1.021 -0.57,-1.282 -0.234,-0.26 -0.581,-0.39 -1.039,-0.39 -0.594,0 -1.097,0.164 -1.508,0.492 -0.411,0.328 -0.763,0.815 -1.055,1.461 -0.291,0.646 -0.562,1.516 -0.812,2.609 l -0.391,1.703 h 4.016 l -0.344,1.579 h -4.031 l -2.906,13.625 c -0.48,2.26 -1.214,3.945 -2.204,5.054 -0.989,1.11 -2.234,1.664 -3.734,1.664 -0.437,0 -0.781,-0.026 -1.031,-0.078 l 0.265,-1.375 c 0.105,0.031 0.349,0.047 0.735,0.047 0.469,0 0.87,-0.12 1.203,-0.359 0.333,-0.24 0.643,-0.657 0.93,-1.25 0.286,-0.594 0.549,-1.417 0.789,-2.469 l 3.359,-14.859 h -2.641 l 0.235,-1.079 c 0.698,-0.041 1.2,-0.098 1.508,-0.171 0.307,-0.073 0.547,-0.183 0.718,-0.329 0.172,-0.145 0.318,-0.335 0.438,-0.57 0.12,-0.234 0.273,-0.664 0.461,-1.289 0.552,-1.875 1.403,-3.284 2.555,-4.226 1.151,-0.943 2.617,-1.415 4.398,-1.415 z"
       fill-rule="evenodd"
       id="path71" />
    <text
       fill="#000000"
       fill-opacity="0"
       font-family="Arial, Arial_MSFontService, sans-serif"
       font-size="29.4219px"
       x="790.34399"
       y="283.612"
       id="text73">ğ‘“</text>
    <path
       d="m 800.776,303.467 h 0.922 l -2.25,10.031 c -0.229,1.021 -0.344,1.792 -0.344,2.313 0,0.416 0.068,0.718 0.203,0.906 0.136,0.187 0.349,0.281 0.641,0.281 0.312,0 0.646,-0.127 1,-0.383 0.354,-0.255 0.854,-0.742 1.5,-1.461 l 0.891,0.875 c -1.021,1.073 -1.849,1.802 -2.485,2.188 -0.635,0.385 -1.349,0.578 -2.14,0.578 -0.678,0 -1.219,-0.247 -1.625,-0.742 -0.407,-0.495 -0.61,-1.128 -0.61,-1.899 0,-0.791 0.146,-1.802 0.438,-3.031 l 1.172,-5.109 c 0.239,-1.042 0.359,-1.823 0.359,-2.344 0,-0.469 -0.112,-0.786 -0.336,-0.953 -0.224,-0.167 -0.664,-0.261 -1.32,-0.281 l 0.172,-0.829 z m -0.422,-5.985 h 2.766 l -0.719,3.032 h -2.766 z"
       fill-rule="evenodd"
       id="path75" />
    <text
       fill="#000000"
       fill-opacity="0"
       font-family="Arial, Arial_MSFontService, sans-serif"
       font-size="21.3125px"
       x="796.479"
       y="316.13101"
       id="text77">ğ‘–</text>
    <path
       d="m 822.889,225.673 c 2.281,0.313 4.302,2.037 6.063,5.172 1.77,3.146 2.656,8.078 2.656,14.797 0,1.229 -0.089,2.674 -0.266,4.336 -0.177,1.661 -0.442,3.56 -0.797,5.695 -0.354,2.136 -0.619,3.925 -0.797,5.367 -0.177,1.443 -0.265,2.555 -0.265,3.336 0,2.532 0.37,4.49 1.109,5.875 0.75,1.375 1.709,2.115 2.875,2.219 v 1.609 c -1.166,0.105 -2.125,0.844 -2.875,2.219 -0.739,1.386 -1.109,3.344 -1.109,5.875 0,0.781 0.088,1.893 0.265,3.336 0.178,1.443 0.443,3.232 0.797,5.367 0.355,2.136 0.62,4.034 0.797,5.696 0.177,1.661 0.266,3.106 0.266,4.336 0,6.614 -0.886,11.494 -2.656,14.64 -1.761,3.136 -3.782,4.86 -6.063,5.172 v -1.344 c 1.427,-0.302 2.719,-1.698 3.875,-4.187 1.156,-2.479 1.734,-6.365 1.734,-11.656 0,-1.105 -0.085,-2.487 -0.257,-4.149 -0.172,-1.661 -0.425,-3.628 -0.758,-5.898 -0.333,-2.261 -0.586,-4.078 -0.758,-5.453 -0.172,-1.375 -0.258,-2.323 -0.258,-2.844 0,-3.031 0.308,-5.511 0.922,-7.438 0.604,-1.916 1.682,-3.338 3.234,-4.265 v -0.422 c -1.541,-0.917 -2.619,-2.334 -3.234,-4.25 -0.614,-1.938 -0.922,-4.422 -0.922,-7.453 0,-0.521 0.086,-1.469 0.258,-2.844 0.172,-1.375 0.425,-3.193 0.758,-5.453 0.333,-2.271 0.586,-4.237 0.758,-5.899 0.172,-1.661 0.257,-3.044 0.257,-4.148 0,-5.386 -0.578,-9.323 -1.734,-11.813 -1.156,-2.489 -2.448,-3.885 -3.875,-4.187 z"
       fill-rule="evenodd"
       id="path79" />
    <text
       fill="#000000"
       fill-opacity="0"
       font-family="Arial, Arial_MSFontService, sans-serif"
       font-size="95.0469px"
       x="822.88898"
       y="308.83899"
       id="text81">àµ¡</text>
    <path
       d="m 388,220.333 c 0,-2.393 1.94,-4.333 4.333,-4.333 h 17.334 c 2.393,0 4.333,1.94 4.333,4.333 v 107.334 c 0,2.393 -1.94,4.333 -4.333,4.333 H 392.333 C 389.94,332 388,330.06 388,327.667 Z"
       fill="#385723"
       fill-rule="evenodd"
       fill-opacity="0.4"
       id="path83" />
    <text
       font-family="Calibri, Calibri_MSFontService, sans-serif"
       font-weight="400"
       font-size="32px"
       transform="translate(226.246,282)"
       id="text85">A =</text>
    <path
       d="m 409.876,214.546 h 8.812 v 117.359 h -8.812 v -1.703 h 5.562 V 216.218 h -5.562 z m -131.25,0 h 8.813 v 1.672 h -5.563 v 113.984 h 5.563 v 1.703 h -8.813 z"
       fill-rule="evenodd"
       id="path87" />
    <path
       d="m 298.868,228.417 c -1.073,0 -2.036,0.432 -2.89,1.296 -0.855,0.865 -1.521,2.024 -2,3.477 -0.48,1.453 -0.719,2.904 -0.719,4.352 0,1.083 0.148,1.893 0.445,2.429 0.297,0.537 0.794,0.805 1.492,0.805 0.688,0 1.362,-0.297 2.024,-0.891 0.661,-0.593 1.343,-1.44 2.047,-2.539 0.703,-1.099 1.2,-2.367 1.492,-3.804 l 0.14,-0.672 c 0.094,-0.427 0.157,-0.797 0.188,-1.11 0.031,-0.312 0.047,-0.651 0.047,-1.015 0,-0.802 -0.172,-1.391 -0.516,-1.766 -0.344,-0.375 -0.927,-0.562 -1.75,-0.562 z m -0.312,-1.235 c 0.677,0 1.31,0.076 1.898,0.227 0.589,0.151 1.195,0.419 1.82,0.804 l 1.438,-1.031 1,0.25 -2.297,9.906 c -0.229,0.99 -0.344,1.761 -0.344,2.313 0,0.417 0.068,0.719 0.203,0.906 0.136,0.188 0.349,0.281 0.641,0.281 0.313,0 0.646,-0.127 1,-0.382 0.354,-0.256 0.854,-0.743 1.5,-1.461 l 0.891,0.875 c -0.938,1 -1.737,1.711 -2.399,2.132 -0.661,0.422 -1.377,0.633 -2.148,0.633 -0.646,0 -1.162,-0.213 -1.547,-0.64 -0.385,-0.427 -0.578,-0.995 -0.578,-1.703 0,-0.573 0.12,-1.183 0.359,-1.829 l -0.203,-0.062 c -1,1.458 -1.948,2.526 -2.844,3.203 -0.896,0.677 -1.843,1.016 -2.843,1.016 -1.146,0 -2.034,-0.433 -2.665,-1.297 -0.63,-0.865 -0.945,-2.078 -0.945,-3.641 0,-1.792 0.352,-3.513 1.055,-5.164 0.703,-1.651 1.669,-2.953 2.898,-3.906 1.229,-0.953 2.599,-1.43 4.11,-1.43 z"
       fill-rule="evenodd"
       id="path89" />
    <text
       fill="#000000"
       fill-opacity="0"
       font-family="Arial, Arial_MSFontService, sans-serif"
       font-size="15.4531px"
       x="290.49301"
       y="240.70399"
       id="text91">ğ‘</text>
    <path
       d="m 351.25,229.026 c -0.5,0 -0.992,0.159 -1.477,0.476 -0.484,0.318 -1.023,0.844 -1.617,1.579 -0.594,0.734 -1.078,1.487 -1.453,2.257 -0.375,0.771 -0.693,1.756 -0.953,2.954 l -0.141,0.656 c -0.156,0.729 -0.234,1.437 -0.234,2.125 0,0.823 0.18,1.416 0.539,1.781 0.359,0.365 0.956,0.547 1.789,0.547 0.427,0 0.833,-0.07 1.219,-0.211 0.385,-0.141 0.778,-0.372 1.179,-0.695 0.401,-0.323 0.782,-0.748 1.141,-1.274 0.359,-0.526 0.69,-1.174 0.992,-1.945 0.302,-0.771 0.537,-1.596 0.703,-2.477 0.167,-0.88 0.25,-1.721 0.25,-2.523 0,-1.083 -0.153,-1.896 -0.461,-2.438 -0.307,-0.541 -0.799,-0.812 -1.476,-0.812 z m -2.735,-8.984 h 0.907 l -2.75,10.937 0.203,0.063 c 1.01,-1.355 1.958,-2.334 2.844,-2.938 0.885,-0.604 1.77,-0.906 2.656,-0.906 1.135,0 2.018,0.432 2.648,1.297 0.631,0.864 0.946,2.083 0.946,3.656 0,1.719 -0.347,3.409 -1.039,5.07 -0.693,1.662 -1.654,2.979 -2.883,3.953 -1.229,0.974 -2.604,1.461 -4.125,1.461 -1.386,0 -2.615,-0.338 -3.688,-1.015 l -1.437,1.015 -1,-0.25 4.047,-17.859 c 0.239,-1.063 0.359,-1.833 0.359,-2.313 0,-0.437 -0.133,-0.744 -0.398,-0.921 -0.266,-0.178 -0.743,-0.277 -1.43,-0.297 l 0.187,-0.813 z"
       fill-rule="evenodd"
       id="path93" />
    <text
       fill="#000000"
       fill-opacity="0"
       font-family="Arial, Arial_MSFontService, sans-serif"
       font-size="22.5938px"
       x="341.797"
       y="239.811"
       id="text95">ğ‘</text>
    <path
       d="m 402.37,227.198 c 1.385,0 2.661,0.156 3.828,0.469 l -0.766,3.531 h -1.64 c -0.021,-0.792 -0.086,-1.365 -0.196,-1.719 -0.109,-0.354 -0.286,-0.62 -0.531,-0.797 -0.245,-0.177 -0.591,-0.265 -1.039,-0.265 -1.052,0 -1.998,0.419 -2.836,1.257 -0.839,0.839 -1.523,2.026 -2.055,3.563 -0.531,1.536 -0.797,3.013 -0.797,4.43 0,1.062 0.209,1.851 0.625,2.367 0.417,0.515 1.042,0.773 1.875,0.773 0.948,0 1.769,-0.18 2.461,-0.539 0.693,-0.359 1.425,-0.924 2.196,-1.695 l 0.953,0.953 c -0.979,1.083 -1.966,1.875 -2.961,2.375 -0.995,0.5 -2.065,0.75 -3.211,0.75 -1.511,0 -2.656,-0.448 -3.438,-1.344 -0.781,-0.896 -1.171,-2.198 -1.171,-3.906 0,-1.115 0.208,-2.339 0.625,-3.672 0.416,-1.333 1.026,-2.505 1.828,-3.516 0.802,-1.01 1.739,-1.765 2.812,-2.265 1.073,-0.5 2.219,-0.75 3.438,-0.75 z"
       fill-rule="evenodd"
       id="path97" />
    <text
       fill="#000000"
       fill-opacity="0"
       font-family="Arial, Arial_MSFontService, sans-serif"
       font-size="15.4531px"
       x="393.66699"
       y="240.71899"
       id="text99">ğ‘</text>
    <path
       d="m 298.39,265.93 c -1.062,0 -2.015,0.43 -2.859,1.289 -0.844,0.859 -1.508,2.018 -1.992,3.476 -0.485,1.459 -0.727,2.912 -0.727,4.36 0,1.083 0.149,1.893 0.445,2.43 0.297,0.536 0.795,0.804 1.493,0.804 0.323,0 0.651,-0.07 0.984,-0.211 0.333,-0.14 0.68,-0.367 1.039,-0.679 0.359,-0.313 0.714,-0.693 1.063,-1.141 0.349,-0.448 0.669,-0.898 0.961,-1.352 0.291,-0.453 0.562,-0.989 0.812,-1.609 0.25,-0.62 0.464,-1.367 0.641,-2.242 l 0.14,-0.672 c 0.157,-0.75 0.235,-1.458 0.235,-2.125 0,-0.813 -0.172,-1.404 -0.516,-1.773 -0.344,-0.37 -0.917,-0.555 -1.719,-0.555 z m 6.547,-8.375 h 0.922 l -3.891,17.297 c -0.229,1.021 -0.343,1.791 -0.343,2.312 0,0.417 0.067,0.719 0.203,0.906 0.135,0.188 0.349,0.282 0.64,0.282 0.313,0 0.646,-0.128 1,-0.383 0.355,-0.255 0.855,-0.742 1.5,-1.461 l 0.891,0.875 c -0.958,1.01 -1.766,1.724 -2.422,2.141 -0.656,0.416 -1.364,0.625 -2.125,0.625 -0.646,0 -1.161,-0.214 -1.547,-0.641 -0.385,-0.427 -0.578,-0.995 -0.578,-1.703 0,-0.573 0.12,-1.182 0.36,-1.828 l -0.204,-0.063 c -1,1.459 -1.948,2.526 -2.843,3.203 -0.896,0.677 -1.844,1.016 -2.844,1.016 -1.146,0 -2.034,-0.432 -2.664,-1.297 -0.63,-0.865 -0.945,-2.078 -0.945,-3.641 0,-1.791 0.351,-3.513 1.054,-5.164 0.703,-1.651 1.669,-2.953 2.899,-3.906 1.229,-0.953 2.599,-1.43 4.109,-1.43 0.635,0 1.221,0.066 1.758,0.196 0.536,0.13 1.086,0.357 1.648,0.679 l 0.813,-3.609 c 0.083,-0.344 0.156,-0.724 0.219,-1.141 0.062,-0.416 0.093,-0.781 0.093,-1.093 0,-0.313 -0.057,-0.55 -0.172,-0.711 -0.114,-0.162 -0.278,-0.279 -0.492,-0.352 -0.213,-0.073 -0.596,-0.125 -1.148,-0.156 l 0.187,-0.813 z"
       fill-rule="evenodd"
       id="path101" />
    <text
       fill="#000000"
       fill-opacity="0"
       font-family="Arial, Arial_MSFontService, sans-serif"
       font-size="22.5938px"
       x="290.047"
       y="277.32401"
       id="text103">ğ‘‘</text>
    <path
       d="m 351.153,265.93 c -1.052,0 -2.065,0.531 -3.039,1.594 -0.974,1.062 -1.722,2.5 -2.242,4.312 1.468,-0.01 2.729,-0.143 3.781,-0.398 1.052,-0.256 1.859,-0.662 2.422,-1.219 0.562,-0.557 0.843,-1.31 0.843,-2.258 0,-0.635 -0.148,-1.133 -0.445,-1.492 -0.297,-0.359 -0.737,-0.539 -1.32,-0.539 z m 0.562,-1.235 c 1.261,0 2.206,0.256 2.836,0.766 0.63,0.51 0.946,1.307 0.946,2.391 0,1.771 -0.831,3.099 -2.493,3.984 -1.661,0.885 -4.127,1.328 -7.398,1.328 -0.125,0.625 -0.188,1.302 -0.188,2.031 0,1.094 0.214,1.888 0.641,2.383 0.427,0.495 1.125,0.742 2.094,0.742 0.958,0 1.825,-0.208 2.601,-0.625 0.776,-0.416 1.597,-1.057 2.461,-1.921 l 0.969,1.015 c -1.01,1.115 -2.034,1.953 -3.07,2.516 -1.037,0.562 -2.242,0.844 -3.617,0.844 -1.511,0 -2.68,-0.461 -3.508,-1.383 -0.828,-0.922 -1.242,-2.206 -1.242,-3.852 0,-1.114 0.2,-2.31 0.601,-3.586 0.401,-1.276 1.008,-2.422 1.82,-3.437 0.813,-1.016 1.787,-1.802 2.922,-2.36 1.136,-0.557 2.344,-0.836 3.625,-0.836 z"
       fill-rule="evenodd"
       id="path105" />
    <text
       fill="#000000"
       fill-opacity="0"
       font-family="Arial, Arial_MSFontService, sans-serif"
       font-size="15.4531px"
       x="342.74701"
       y="278.21701"
       id="text107">ğ‘’</text>
    <path
       d="m 405.285,257.461 c 1.02,0 1.901,0.083 2.64,0.25 l -0.609,2.656 h -1.375 c -0.146,-0.593 -0.336,-1.021 -0.57,-1.281 -0.235,-0.26 -0.581,-0.391 -1.039,-0.391 -0.594,0 -1.097,0.165 -1.508,0.493 -0.412,0.328 -0.763,0.815 -1.055,1.461 -0.292,0.645 -0.562,1.515 -0.812,2.609 l -0.391,1.703 h 4.016 l -0.344,1.578 h -4.031 l -2.907,13.625 c -0.479,2.261 -1.213,3.946 -2.203,5.055 -0.989,1.109 -2.234,1.664 -3.734,1.664 -0.438,0 -0.781,-0.026 -1.031,-0.078 l 0.265,-1.375 c 0.104,0.031 0.349,0.047 0.735,0.047 0.468,0 0.869,-0.12 1.203,-0.36 0.333,-0.239 0.643,-0.656 0.929,-1.25 0.287,-0.593 0.55,-1.416 0.789,-2.468 l 3.36,-14.86 h -2.641 l 0.235,-1.078 c 0.697,-0.042 1.2,-0.099 1.507,-0.172 0.308,-0.073 0.547,-0.182 0.719,-0.328 0.172,-0.146 0.318,-0.336 0.438,-0.57 0.119,-0.235 0.273,-0.664 0.461,-1.289 0.552,-1.875 1.403,-3.284 2.554,-4.227 1.151,-0.943 2.617,-1.414 4.399,-1.414 z"
       fill-rule="evenodd"
       id="path109" />
    <text
       fill="#000000"
       fill-opacity="0"
       font-family="Arial, Arial_MSFontService, sans-serif"
       font-size="29.4219px"
       x="390.332"
       y="283.20499"
       id="text111">ğ‘“</text>
    <path
       d="m 300.092,305.457 c -1.062,0 -2.015,0.429 -2.859,1.289 -0.844,0.859 -1.508,2.018 -1.992,3.476 -0.485,1.458 -0.727,2.912 -0.727,4.36 0,1.083 0.156,1.893 0.469,2.429 0.312,0.537 0.802,0.805 1.469,0.805 0.531,0 1.06,-0.182 1.586,-0.547 0.526,-0.365 1.088,-0.943 1.687,-1.734 0.599,-0.792 1.065,-1.547 1.399,-2.266 0.333,-0.719 0.617,-1.615 0.851,-2.687 0.235,-1.073 0.352,-2.006 0.352,-2.797 0,-0.813 -0.172,-1.404 -0.516,-1.774 -0.344,-0.37 -0.917,-0.554 -1.719,-0.554 z m -0.25,-1.235 c 0.657,0 1.276,0.078 1.86,0.235 0.583,0.156 1.172,0.421 1.765,0.796 l 1.438,-1.031 1,0.25 -1.61,7.281 c -0.114,0.511 -0.375,1.797 -0.781,3.86 -0.427,2.187 -0.773,3.734 -1.039,4.64 -0.265,0.907 -0.596,1.732 -0.992,2.477 -0.396,0.745 -0.906,1.393 -1.531,1.945 -0.625,0.552 -1.383,0.979 -2.274,1.282 -0.89,0.302 -1.945,0.453 -3.164,0.453 -3.937,0 -5.906,-1.146 -5.906,-3.438 0,-0.583 0.177,-1.114 0.531,-1.594 0.354,-0.479 0.922,-0.984 1.703,-1.515 l 1.125,0.906 c -0.198,0.24 -0.364,0.477 -0.5,0.711 -0.135,0.234 -0.231,0.461 -0.289,0.68 -0.057,0.218 -0.086,0.479 -0.086,0.781 0,0.781 0.282,1.351 0.844,1.711 0.563,0.359 1.412,0.539 2.547,0.539 1.281,0 2.31,-0.289 3.086,-0.867 0.776,-0.578 1.44,-1.508 1.992,-2.789 0.552,-1.282 1.089,-3.219 1.609,-5.813 l -0.218,-0.047 c -1.011,1.386 -1.948,2.396 -2.813,3.032 -0.864,0.635 -1.797,0.953 -2.797,0.953 -1.135,0 -2.018,-0.427 -2.648,-1.282 -0.63,-0.854 -0.945,-2.073 -0.945,-3.656 0,-1.781 0.349,-3.492 1.046,-5.133 0.698,-1.64 1.667,-2.945 2.907,-3.914 1.239,-0.968 2.62,-1.453 4.14,-1.453 z"
       fill-rule="evenodd"
       id="path113" />
    <text
       fill="#000000"
       fill-opacity="0"
       font-family="Arial, Arial_MSFontService, sans-serif"
       font-size="22.1875px"
       x="288.608"
       y="323.63599"
       id="text115">ğ‘”</text>
    <path
       d="m 348.327,297.082 h 0.906 l -2.688,10.828 0.188,0.062 c 0.989,-1.312 1.924,-2.263 2.804,-2.851 0.881,-0.589 1.769,-0.883 2.665,-0.883 0.968,0 1.713,0.278 2.234,0.836 0.521,0.557 0.781,1.33 0.781,2.32 0,0.656 -0.151,1.589 -0.453,2.797 l -1.016,4.094 c -0.281,1.135 -0.421,1.937 -0.421,2.406 0,0.417 0.067,0.719 0.203,0.906 0.135,0.188 0.349,0.281 0.64,0.281 0.313,0 0.646,-0.127 1,-0.382 0.354,-0.256 0.854,-0.743 1.5,-1.461 l 0.891,0.875 c -1,1.052 -1.82,1.776 -2.461,2.172 -0.641,0.395 -1.362,0.593 -2.164,0.593 -0.677,0 -1.216,-0.239 -1.617,-0.718 -0.401,-0.48 -0.602,-1.099 -0.602,-1.86 0,-0.677 0.172,-1.672 0.516,-2.984 l 0.672,-2.703 c 0.239,-0.969 0.401,-1.696 0.484,-2.18 0.083,-0.484 0.125,-0.862 0.125,-1.133 0,-0.739 -0.12,-1.263 -0.359,-1.57 -0.24,-0.307 -0.631,-0.461 -1.172,-0.461 -0.427,0 -0.901,0.177 -1.422,0.531 -0.521,0.354 -1.068,0.893 -1.641,1.617 -0.573,0.724 -1.028,1.417 -1.367,2.078 -0.338,0.662 -0.607,1.451 -0.805,2.368 l -1.421,6.765 h -2.704 l 4.016,-17.859 c 0.25,-1.115 0.375,-1.886 0.375,-2.313 0,-0.437 -0.133,-0.744 -0.398,-0.921 -0.266,-0.178 -0.743,-0.277 -1.43,-0.297 l 0.187,-0.813 z"
       fill-rule="evenodd"
       id="path117" />
    <text
       fill="#000000"
       fill-opacity="0"
       font-family="Arial, Arial_MSFontService, sans-serif"
       font-size="22.5938px"
       x="341.62299"
       y="316.85101"
       id="text119">â„</text>
    <path
       d="m 400.764,304.347 h 0.921 l -2.25,10.031 c -0.229,1.021 -0.343,1.792 -0.343,2.313 0,0.417 0.067,0.719 0.203,0.906 0.135,0.188 0.349,0.281 0.64,0.281 0.313,0 0.646,-0.127 1,-0.382 0.355,-0.256 0.855,-0.743 1.5,-1.461 l 0.891,0.875 c -1.021,1.073 -1.849,1.802 -2.484,2.187 -0.636,0.386 -1.349,0.578 -2.141,0.578 -0.677,0 -1.219,-0.247 -1.625,-0.742 -0.406,-0.495 -0.609,-1.128 -0.609,-1.898 0,-0.792 0.146,-1.802 0.437,-3.032 l 1.172,-5.109 c 0.24,-1.042 0.359,-1.823 0.359,-2.344 0,-0.468 -0.112,-0.786 -0.335,-0.953 -0.224,-0.167 -0.665,-0.26 -1.321,-0.281 l 0.172,-0.828 z m -0.422,-5.984 h 2.765 l -0.718,3.031 h -2.766 z"
       fill-rule="evenodd"
       id="path121" />
    <text
       fill="#000000"
       fill-opacity="0"
       font-family="Arial, Arial_MSFontService, sans-serif"
       font-size="21.3125px"
       x="396.46701"
       y="317.01099"
       id="text123">ğ‘–</text>
    <text
       fill="#385723"
       font-family="'Cambria Math', 'Cambria Math_MSFontService', sans-serif"
       font-weight="400"
       font-size="24px"
       transform="translate(388.205,199)"
       id="text127">ğ‘<tspan
   font-size="16px"
   x="13.3333"
   y="5"
   id="tspan125">3</tspan></text>
    <path
       d="m 407.42,180.446 2.941,2.543 v 0.679 l -2.941,2.543 -0.621,-0.703 1.875,-1.629 h -4.811 -2.338 -1.968 -2.725 -1.589 -2.718 -4.313 v -1.101 h 4.313 2.718 1.589 2.725 1.968 2.338 4.811 l -1.875,-1.629 z"
       fill="#385723"
       fill-rule="evenodd"
       id="path129" />
    <text
       font-family="Calibri, Calibri_MSFontService, sans-serif"
       font-weight="400"
       font-size="32px"
       transform="translate(295.314,422)"
       id="text133">Col A = {<tspan
   fill="#c00000"
   font-family="'Cambria Math', 'Cambria Math_MSFontService', sans-serif"
   font-size="32px"
   x="107.167"
   y="0"
   id="tspan131">ğ‘</tspan></text>
    <path
       d="m 415.887,389.921 3.922,3.39 v 0.906 l -3.922,3.391 -0.828,-0.937 2.5,-2.172 h -3.65 -5.881 -3.494 v -1.469 h 3.494 5.881 3.65 l -2.5,-2.172 z"
       fill="#c00000"
       fill-rule="evenodd"
       id="path135" />
    <text
       fill="#c00000"
       font-family="'Cambria Math', 'Cambria Math_MSFontService', sans-serif"
       font-weight="400"
       font-size="32px"
       transform="translate(427.681,422)"
       id="text145">âˆˆ <tspan
   font-family="Cambria, Cambria_MSFontService, sans-serif"
   font-size="32px"
   x="27"
   y="0"
   id="tspan137">R</tspan><tspan
   font-family="Cambria, Cambria_MSFontService, sans-serif"
   font-size="21px"
   x="46.833302"
   y="-10"
   id="tspan139">m</tspan><tspan
   fill="#000000"
   font-family="Cambria, Cambria_MSFontService, sans-serif"
   font-size="32px"
   x="71.666702"
   y="0"
   id="tspan141">| A</tspan><tspan
   fill="#000000"
   font-size="32px"
   x="108.833"
   y="0"
   id="tspan143">ğ‘¥</tspan></text>
    <path
       d="m 11.7812,-20.8906 -3.92182,3.3906 -0.82813,-0.9375 2.5,-2.1719 H 0 v -1.4687 h 9.53125 l -2.5,-2.1719 0.82813,-0.9375 3.92182,3.3906 z"
       transform="translate(541.574,422)"
       id="path147" />
    <text
       font-family="Calibri, Calibri_MSFontService, sans-serif"
       font-weight="400"
       font-size="32px"
       transform="translate(561.648,422)"
       id="text151">= <tspan
   font-family="'Cambria Math', 'Cambria Math_MSFontService', sans-serif"
   font-size="32px"
   x="23.1667"
   y="0"
   id="tspan149">ğ‘</tspan></text>
    <path
       d="m 598.22,389.921 3.922,3.39 v 0.906 l -3.922,3.391 -0.828,-0.937 2.5,-2.172 h -3.649 -5.882 -3.493 v -1.469 h 3.493 5.882 3.649 l -2.5,-2.172 z"
       fill-rule="evenodd"
       id="path153" />
    <text
       font-family="Calibri, Calibri_MSFontService, sans-serif"
       font-weight="400"
       font-size="32px"
       transform="translate(610.014,422)"
       id="text157">for some <tspan
   font-family="'Cambria Math', 'Cambria Math_MSFontService', sans-serif"
   font-size="32px"
   x="122.327"
   y="0"
   id="tspan155">ğ‘¥</tspan></text>
    <path
       d="m 11.7812,-20.8906 -3.92182,3.3906 -0.82813,-0.9375 2.5,-2.1719 H 0 v -1.4687 h 9.53125 l -2.5,-2.1719 0.82813,-0.9375 3.92182,3.3906 z"
       transform="translate(737.401,422)"
       id="path159" />
    <text
       font-family="'Cambria Math', 'Cambria Math_MSFontService', sans-serif"
       font-weight="400"
       font-size="32px"
       transform="translate(757.474,422)"
       id="text167">âˆˆ <tspan
   font-family="Cambria, Cambria_MSFontService, sans-serif"
   font-size="32px"
   x="27"
   y="0"
   id="tspan161">R</tspan><tspan
   font-family="Cambria, Cambria_MSFontService, sans-serif"
   font-size="21px"
   x="46.833401"
   y="-10"
   id="tspan163">n</tspan><tspan
   font-family="Calibri, Calibri_MSFontService, sans-serif"
   font-size="32px"
   x="58.666698"
   y="0"
   id="tspan165">}</tspan></text>
  </g>
</svg>
