<?xml version="1.0" encoding="UTF-8" standalone="no"?>
<svg
   width="1280"
   height="720"
   overflow="hidden"
   version="1.1"
   id="svg269"
   sodipodi:docname="linear_systems-infinite_solutions.svg"
   inkscape:version="1.2 (dc2aedaf03, 2022-05-15)"
   xmlns:inkscape="http://www.inkscape.org/namespaces/inkscape"
   xmlns:sodipodi="http://sodipodi.sourceforge.net/DTD/sodipodi-0.dtd"
   xmlns="http://www.w3.org/2000/svg"
   xmlns:svg="http://www.w3.org/2000/svg">
  <sodipodi:namedview
     id="namedview271"
     pagecolor="#ffffff"
     bordercolor="#000000"
     borderopacity="0.25"
     inkscape:showpageshadow="2"
     inkscape:pageopacity="0.0"
     inkscape:pagecheckerboard="0"
     inkscape:deskcolor="#d1d1d1"
     showgrid="false"
     inkscape:zoom="1.3111111"
     inkscape:cx="661.65254"
     inkscape:cy="352.37288"
     inkscape:window-width="2560"
     inkscape:window-height="1494"
     inkscape:window-x="-11"
     inkscape:window-y="-11"
     inkscape:window-maximized="1"
     inkscape:current-layer="svg269" />
  <defs
     id="defs5">
    <clipPath
       clipPathUnits="userSpaceOnUse"
       id="clipPath685">
      <rect
         x="-1171.33"
         y="-670"
         width="1280"
         height="720"
         id="rect687" />
    </clipPath>
    <clipPath
       clipPathUnits="userSpaceOnUse"
       id="clipPath689">
      <rect
         x="-1206.78"
         y="-573"
         width="1280"
         height="720"
         id="rect691" />
    </clipPath>
    <clipPath
       clipPathUnits="userSpaceOnUse"
       id="clipPath693">
      <rect
         x="-997.52002"
         y="-573"
         width="1280"
         height="720"
         id="rect695" />
    </clipPath>
  </defs>
  <rect
     x="-32.796612"
     y="1.5254238"
     width="1280"
     height="720"
     fill="#ffffff"
     id="rect7" />
  <path
     d="m 780.20339,132.27942 c 0,-7.044 5.71,-12.754 12.754,-12.754 h 151.492 c 7.044,0 12.754,5.71 12.754,12.754 v 73.492 c 0,7.044 -5.71,12.754 -12.754,12.754 h -151.492 c -7.044,0 -12.754,-5.71 -12.754,-12.754 z"
     fill="#e2f0d9"
     fill-rule="evenodd"
     id="path9" />
  <path
     d="m 897.20339,119.52542 v 99.483"
     stroke="#385723"
     stroke-width="4"
     stroke-miterlimit="8"
     fill="none"
     fill-rule="evenodd"
     id="path11" />
  <path
     d="m 794.20339,146.02542 c 0,-11.322 9.626,-20.5 21.5,-20.5 11.874,0 21.5,9.178 21.5,20.5 0,11.322 -9.626,20.5 -21.5,20.5 -11.874,0 -21.5,-9.178 -21.5,-20.5 z"
     fill="#bdd7ee"
     fill-rule="evenodd"
     fill-opacity="0.501961"
     id="path13" />
  <path
     d="m 780.20339,252.27942 c 0,-7.044 5.71,-12.754 12.754,-12.754 h 151.492 c 7.044,0 12.754,5.71 12.754,12.754 v 73.492 c 0,7.044 -5.71,12.754 -12.754,12.754 h -151.492 c -7.044,0 -12.754,-5.71 -12.754,-12.754 z"
     fill="#e2f0d9"
     fill-rule="evenodd"
     id="path15" />
  <path
     d="m 194.20339,252.27942 c 0,-7.044 5.71,-12.754 12.754,-12.754 h 148.492 c 7.044,0 12.754,5.71 12.754,12.754 v 73.492 c 0,7.044 -5.71,12.754 -12.754,12.754 h -148.492 c -7.044,0 -12.754,-5.71 -12.754,-12.754 z"
     fill="#e2f0d9"
     fill-rule="evenodd"
     id="path17" />
  <path
     d="m 307.20339,239.52542 v 99.483"
     stroke="#385723"
     stroke-width="4"
     stroke-miterlimit="8"
     fill="none"
     fill-rule="evenodd"
     id="path19" />
  <text
     font-family="Calibri, Calibri_MSFontService, sans-serif"
     font-weight="400"
     font-size="43px"
     id="text23"
     x="155.66039"
     y="87.525421">Single solution<tspan
   font-size="43px"
   x="735.63141"
   y="87.525421"
   id="tspan21">Infinite solutions</tspan></text>
  <path
     d="m 194.20339,132.27942 c 0,-7.044 5.71,-12.754 12.754,-12.754 h 148.492 c 7.044,0 12.754,5.71 12.754,12.754 v 73.492 c 0,7.044 -5.71,12.754 -12.754,12.754 h -148.492 c -7.044,0 -12.754,-5.71 -12.754,-12.754 z"
     fill="#e2f0d9"
     fill-rule="evenodd"
     id="path25" />
  <path
     d="m 307.20339,119.52542 v 99.483"
     stroke="#385723"
     stroke-width="4"
     stroke-miterlimit="8"
     fill="none"
     fill-rule="evenodd"
     id="path27" />
  <path
     d="m 203.20339,149.02542 c 0,-11.322 9.85,-20.5 22,-20.5 12.15,0 22,9.178 22,20.5 0,11.322 -9.85,20.5 -22,20.5 -12.15,0 -22,-9.178 -22,-20.5 z"
     fill="#bdd7ee"
     fill-rule="evenodd"
     fill-opacity="0.501961"
     id="path29" />
  <path
     d="m 257.20339,186.02542 c 0,-11.322 9.626,-20.5 21.5,-20.5 11.874,0 21.5,9.178 21.5,20.5 0,11.322 -9.626,20.5 -21.5,20.5 -11.874,0 -21.5,-9.178 -21.5,-20.5 z"
     fill="#bdd7ee"
     fill-rule="evenodd"
     fill-opacity="0.501961"
     id="path31" />
  <text
     font-family="'Cambria Math', 'Cambria Math_MSFontService', sans-serif"
     font-weight="400"
     font-size="32px"
     id="text43"
     x="212.32739"
     y="158.52542">1<tspan
   font-size="32px"
   x="269.99408"
   y="158.52542"
   id="tspan33">4</tspan><tspan
   font-family="Calibri, Calibri_MSFontService, sans-serif"
   font-size="32px"
   x="319.6604"
   y="158.52542"
   id="tspan35">âˆ’</tspan>2<tspan
   font-family="Calibri, Calibri_MSFontService, sans-serif"
   font-size="32px"
   x="204.32739"
   y="196.52542"
   id="tspan37">âˆ’</tspan>1<tspan
   font-size="32px"
   x="269.99408"
   y="196.52542"
   id="tspan39">3</tspan><tspan
   font-size="32px"
   x="327.6604"
   y="196.52542"
   id="tspan41">9</tspan></text>
  <path
     d="m 117.53139,408.08042 c 3.75,0 8.219,1.64 13.406,4.922 5.188,3.281 9.125,4.921 11.813,4.921 2.656,0 4.875,-0.703 6.656,-2.109 1.781,-1.406 3.578,-3.594 5.391,-6.562 l 3.75,2.531 c -1.344,2.781 -3.469,5.586 -6.375,8.414 -2.907,2.828 -6.438,4.242 -10.594,4.242 -4,0 -8.57,-1.641 -13.711,-4.922 -5.141,-3.281 -9.07,-4.922 -11.789,-4.922 -2.281,0 -4.281,0.719 -6,2.157 -1.719,1.437 -3.234,3.531 -4.547,6.281 l -3.656,-2.063 c 1.594,-3.687 3.703,-6.758 6.328,-9.211 2.625,-2.453 5.734,-3.679 9.328,-3.679 z"
     fill-rule="evenodd"
     id="path45" />
  <text
     fill="#000000"
     fill-opacity="0"
     font-family="Arial, Arial_MSFontService, sans-serif"
     font-size="16.3594px"
     x="101.87539"
     y="422.39441"
     id="text47">~</text>
  <path
     d="m 215.20339,464.52542 c -8.56,0 -15.5,-6.101 -15.5,-13.627 v -22.746 c 0,-7.526 -6.94,-13.627 -15.5,-13.627 8.56,0 15.5,-6.101 15.5,-13.627 v -22.746 c 0,-7.526 6.94,-13.627 15.5,-13.627"
     stroke="#000000"
     stroke-width="4"
     stroke-miterlimit="8"
     fill="none"
     fill-rule="evenodd"
     id="path49" />
  <text
     font-family="'Cambria Math', 'Cambria Math_MSFontService', sans-serif"
     font-weight="400"
     font-size="32px"
     id="text71"
     x="228.53839"
     y="398.52542">ğ‘¥<tspan
   font-size="23px"
   x="244.48509"
   y="404.52542"
   id="tspan51">1</tspan><tspan
   font-size="32px"
   x="259.31168"
   y="398.52542"
   id="tspan53" /><tspan
   font-family="Calibri, Calibri_MSFontService, sans-serif"
   font-size="32px"
   x="266.31168"
   y="398.52542"
   id="tspan55">=</tspan><tspan
   font-size="32px"
   x="289.47839"
   y="398.52542"
   id="tspan57">2</tspan><tspan
   font-size="32px"
   x="227.71368"
   y="446.52542"
   id="tspan59">ğ‘¥</tspan><tspan
   font-size="23px"
   x="244.40028"
   y="453.52542"
   id="tspan61">2</tspan><tspan
   font-size="32px"
   x="259.22699"
   y="446.52542"
   id="tspan63" /><tspan
   font-family="Calibri, Calibri_MSFontService, sans-serif"
   font-size="32px"
   x="266.22699"
   y="446.52542"
   id="tspan65">=</tspan><tspan
   font-family="Calibri, Calibri_MSFontService, sans-serif"
   font-size="32px"
   x="282.22699"
   y="446.52542"
   id="tspan67" /><tspan
   font-family="Calibri, Calibri_MSFontService, sans-serif"
   font-size="32px"
   x="289.39368"
   y="446.52542"
   id="tspan69">âˆ’</tspan>1</text>
  <path
     d="m 204.20339,272.02542 c 0,-11.322 9.626,-20.5 21.5,-20.5 11.874,0 21.5,9.178 21.5,20.5 0,11.322 -9.626,20.5 -21.5,20.5 -11.874,0 -21.5,-9.178 -21.5,-20.5 z"
     fill="#bdd7ee"
     fill-rule="evenodd"
     fill-opacity="0.501961"
     id="path73" />
  <path
     d="m 118.04639,287.12142 c 3.75,0 8.219,1.641 13.407,4.922 5.187,3.281 9.125,4.922 11.812,4.922 2.656,0 4.875,-0.703 6.656,-2.109 1.782,-1.407 3.579,-3.594 5.391,-6.563 l 3.75,2.531 c -1.344,2.782 -3.469,5.586 -6.375,8.415 -2.906,2.828 -6.437,4.242 -10.594,4.242 -4,0 -8.57,-1.641 -13.711,-4.922 -5.14,-3.281 -9.07,-4.922 -11.789,-4.922 -2.281,0 -4.281,0.719 -6,2.156 -1.718,1.438 -3.234,3.531 -4.547,6.281 l -3.656,-2.062 c 1.594,-3.688 3.703,-6.758 6.328,-9.211 2.625,-2.453 5.735,-3.68 9.328,-3.68 z"
     fill-rule="evenodd"
     id="path75" />
  <text
     fill="#000000"
     fill-opacity="0"
     font-family="Arial, Arial_MSFontService, sans-serif"
     font-size="16.3594px"
     x="102.39039"
     y="301.43643"
     id="text77">~</text>
  <text
     font-family="Calibri, Calibri_MSFontService, sans-serif"
     font-weight="400"
     font-size="32px"
     id="text89"
     x="139.8214"
     y="519.52539">The solution set is:<tspan
   font-size="32px"
   x="146.98805"
   y="571.52539"
   id="tspan79">{(</tspan><tspan
   font-family="'Cambria Math', 'Cambria Math_MSFontService', sans-serif"
   font-size="32px"
   x="166.65469"
   y="571.52539"
   id="tspan81">2</tspan><tspan
   font-size="32px"
   x="184.3214"
   y="571.52539"
   id="tspan83">,</tspan><tspan
   font-size="32px"
   x="199.48808"
   y="571.52539"
   id="tspan85">âˆ’</tspan><tspan
   font-family="'Cambria Math', 'Cambria Math_MSFontService', sans-serif"
   font-size="32px"
   x="215.4881"
   y="571.52539"
   id="tspan87">1</tspan>)} or</text>
  <path
     d="m 341.21139,536.62642 h 7.438 v 52.5 h -7.438 v -1.359 h 4.547 v -49.781 h -4.547 z m -42.509,0 h 7.437 v 1.36 h -4.547 v 49.781 h 4.547 v 1.359 h -7.437 z"
     fill-rule="evenodd"
     id="path91" />
  <text
     font-family="'Cambria Math', 'Cambria Math_MSFontService', sans-serif"
     font-weight="400"
     font-size="32px"
     id="text95"
     x="314.8414"
     y="554.52539">2<tspan
   font-family="Calibri, Calibri_MSFontService, sans-serif"
   font-size="32px"
   x="306.8414"
   y="592.52539"
   id="tspan93">âˆ’</tspan>1</text>
  <path
     d="m 894.20339,239.52542 v 99.483"
     stroke="#385723"
     stroke-width="4"
     stroke-miterlimit="8"
     fill="none"
     fill-rule="evenodd"
     id="path97" />
  <path
     d="m 791.20339,267.02542 c 0,-11.322 9.626,-20.5 21.5,-20.5 11.874,0 21.5,9.178 21.5,20.5 0,11.322 -9.626,20.5 -21.5,20.5 -11.874,0 -21.5,-9.178 -21.5,-20.5 z"
     fill="#bdd7ee"
     fill-rule="evenodd"
     fill-opacity="0.501961"
     id="path99" />
  <path
     d="m 704.03539,278.22842 c 3.75,0 8.219,1.641 13.406,4.922 5.188,3.282 9.125,4.922 11.813,4.922 2.656,0 4.875,-0.703 6.656,-2.109 1.781,-1.406 3.578,-3.594 5.391,-6.563 l 3.75,2.532 c -1.344,2.781 -3.469,5.585 -6.375,8.414 -2.906,2.828 -6.438,4.242 -10.594,4.242 -4,0 -8.57,-1.641 -13.711,-4.922 -5.141,-3.281 -9.07,-4.922 -11.789,-4.922 -2.281,0 -4.281,0.719 -6,2.156 -1.719,1.438 -3.234,3.532 -4.547,6.282 l -3.656,-2.063 c 1.594,-3.687 3.703,-6.758 6.328,-9.211 2.625,-2.453 5.734,-3.68 9.328,-3.68 z"
     fill-rule="evenodd"
     id="path101" />
  <text
     fill="#000000"
     fill-opacity="0"
     font-family="Arial, Arial_MSFontService, sans-serif"
     font-size="16.3594px"
     x="688.37939"
     y="292.54343"
     id="text103">~</text>
  <text
     font-family="'Cambria Math', 'Cambria Math_MSFontService', sans-serif"
     font-weight="400"
     font-size="32px"
     id="text179"
     x="811.43738"
     y="403.52542">ğ‘¥<tspan
   font-size="23px"
   x="827.38409"
   y="409.52542"
   id="tspan105">1</tspan><tspan
   font-size="32px"
   x="842.21069"
   y="403.52542"
   id="tspan107" /><tspan
   font-family="Calibri, Calibri_MSFontService, sans-serif"
   font-size="32px"
   x="849.21069"
   y="403.52542"
   id="tspan109">=</tspan><tspan
   font-family="Calibri, Calibri_MSFontService, sans-serif"
   font-size="32px"
   x="865.21069"
   y="403.52542"
   id="tspan111" /><tspan
   font-family="Calibri, Calibri_MSFontService, sans-serif"
   font-size="32px"
   x="872.37738"
   y="403.52542"
   id="tspan113">âˆ’</tspan>2<tspan
   font-size="32px"
   x="906.04401"
   y="403.52542"
   id="tspan115" /><tspan
   font-family="Calibri, Calibri_MSFontService, sans-serif"
   font-size="32px"
   x="913.04437"
   y="403.52542"
   id="tspan117">âˆ’</tspan> 4<tspan
   font-size="32px"
   x="953.71039"
   y="403.52542"
   id="tspan119">ğ‘¥</tspan><tspan
   font-size="23px"
   x="970.3974"
   y="409.52542"
   id="tspan121">2</tspan><tspan
   font-size="32px"
   x="810.29877"
   y="446.52542"
   id="tspan123">ğ‘¥</tspan><tspan
   font-size="23px"
   x="826.98541"
   y="453.52542"
   id="tspan125">2</tspan><tspan
   font-size="32px"
   x="841.81207"
   y="446.52542"
   id="tspan127" /><tspan
   font-family="Calibri, Calibri_MSFontService, sans-serif"
   font-size="32px"
   x="848.81207"
   y="446.52542"
   id="tspan129">is</tspan><tspan
   font-family="Calibri, Calibri_MSFontService, sans-serif"
   font-size="32px"
   x="875.81207"
   y="446.52542"
   id="tspan131">free i.e.</tspan><tspan
   font-size="32px"
   x="982.05841"
   y="446.52542"
   id="tspan133">ğ‘¥</tspan><tspan
   font-size="23px"
   x="998.74536"
   y="453.52542"
   id="tspan135">2</tspan><tspan
   font-size="32px"
   x="1013.5724"
   y="446.52542"
   id="tspan137" /><tspan
   font-family="Calibri, Calibri_MSFontService, sans-serif"
   font-size="32px"
   x="1020.5724"
   y="446.52542"
   id="tspan139">= 0 + 1</tspan><tspan
   font-size="32px"
   x="1106.4054"
   y="446.52542"
   id="tspan141">ğ‘¥</tspan><tspan
   font-size="23px"
   x="1123.0924"
   y="453.52542"
   id="tspan143">2</tspan><tspan
   font-family="Calibri, Calibri_MSFontService, sans-serif"
   font-size="32px"
   x="601.68341"
   y="520.52539"
   id="tspan145">The solution set is</tspan><tspan
   font-family="Calibri, Calibri_MSFontService, sans-serif"
   font-size="32px"
   x="835.6767"
   y="520.52539"
   id="tspan147">:</tspan><tspan
   font-family="Calibri, Calibri_MSFontService, sans-serif"
   font-size="32px"
   x="608.8504"
   y="574.52539"
   id="tspan149">{(</tspan><tspan
   font-family="Calibri, Calibri_MSFontService, sans-serif"
   font-size="32px"
   x="628.51636"
   y="574.52539"
   id="tspan151">âˆ’</tspan>2<tspan
   font-size="32px"
   x="662.18341"
   y="574.52539"
   id="tspan153" /><tspan
   font-family="Calibri, Calibri_MSFontService, sans-serif"
   font-size="32px"
   x="669.18341"
   y="574.52539"
   id="tspan155">âˆ’</tspan> 4<tspan
   font-size="32px"
   x="709.8504"
   y="574.52539"
   id="tspan157">ğ‘¥</tspan><tspan
   font-size="23px"
   x="726.53668"
   y="581.52539"
   id="tspan159">2</tspan><tspan
   font-family="Calibri, Calibri_MSFontService, sans-serif"
   font-size="32px"
   x="741.3634"
   y="574.52539"
   id="tspan161">,</tspan><tspan
   font-size="32px"
   x="756.53009"
   y="574.52539"
   id="tspan163">ğ‘¥</tspan><tspan
   font-size="23px"
   x="773.21667"
   y="581.52539"
   id="tspan165">2</tspan><tspan
   font-family="Calibri, Calibri_MSFontService, sans-serif"
   font-size="32px"
   x="795.20996"
   y="574.52539"
   id="tspan167">|</tspan><tspan
   font-size="32px"
   x="817.04333"
   y="574.52539"
   id="tspan169">ğ‘¥</tspan><tspan
   font-size="23px"
   x="833.72998"
   y="581.52539"
   id="tspan171">2</tspan><tspan
   font-size="32px"
   x="855.72327"
   y="574.52539"
   id="tspan173">âˆˆ</tspan><tspan
   font-family="Cambria, Cambria_MSFontService, sans-serif"
   font-size="32px"
   x="882.89001"
   y="574.52539"
   id="tspan175">R</tspan><tspan
   font-family="Calibri, Calibri_MSFontService, sans-serif"
   font-size="32px"
   x="902.72327"
   y="574.52539"
   id="tspan177">)} or</tspan></text>
  <path
     d="M 3.8125,-9.28125 V -9 c 1.40625,0.61458 2.40885,1.55729 3.00781,2.82812 0.59896,1.27084 0.89844,2.92188 0.89844,4.95313 0,0.6875 -0.28646,2.52865 -0.85937,5.52344 C 6.28646,7.29948 6,9.52604 6,10.9844 c 0,3.4375 0.55208,5.9844 1.65625,7.6406 1.10417,1.6562 2.36975,2.5833 3.79685,2.7812 V 22.75 C 9.22396,22.5417 7.26562,21.3854 5.57812,19.2812 3.89062,17.1771 3.04687,13.9427 3.04688,9.57812 3.04687,7.94271 3.34896,5.70052 3.95312,2.85156 4.55729,0.00260425 4.85938,-1.94271 4.85938,-2.98438 4.85938,-4.68229 4.51302,-5.99219 3.82031,-6.91406 3.1276,-7.83594 2.24479,-8.33333 1.17188,-8.40625 V -9.875 c 1.07291,-0.07292 1.95572,-0.5703 2.64843,-1.4922 0.69271,-0.9219 1.03907,-2.2318 1.03907,-3.9297 0,-1.0416 -0.30209,-2.987 -0.90626,-5.8359 -0.60416,-2.849 -0.90625,-5.0912 -0.90624,-6.7266 -10e-6,-4.3646 0.84374,-7.5989 2.53124,-9.7031 1.6875,-2.1042 3.64584,-3.2604 5.87498,-3.4687 v 1.3437 c -1.4271,0.1979 -2.69268,1.125 -3.79685,2.7813 C 6.55208,-35.25 6,-32.7031 6,-29.2656 c 0,1.4583 0.28646,3.6849 0.85938,6.6797 0.57291,2.9948 0.85937,4.8359 0.85937,5.5234 0,2.0313 -0.29948,3.6823 -0.89844,4.9531 -0.59896,1.2709 -1.60156,2.21357 -3.00781,2.82815 z"
     transform="translate(964.72339,574.52542)"
     id="path181"
     clip-path="url(#clipPath693)" />
  <path
     d="m 1023.6134,533.66942 h 7.86 v 63.656 h -7.86 v -1.437 h 4.8 v -60.782 h -4.8 z m -42.93001,0 h 7.86 v 1.437 h -4.8 v 60.782 h 4.8 v 1.437 h -7.86 z"
     fill-rule="evenodd"
     id="path183" />
  <text
     font-family="Calibri, Calibri_MSFontService, sans-serif"
     font-weight="400"
     font-size="32px"
     id="text197"
     x="989.24341"
     y="557.52539">âˆ’<tspan
   font-family="'Cambria Math', 'Cambria Math_MSFontService', sans-serif"
   font-size="32px"
   x="1005.2433"
   y="557.52539"
   id="tspan185">2</tspan><tspan
   font-family="'Cambria Math', 'Cambria Math_MSFontService', sans-serif"
   font-size="32px"
   x="997.24335"
   y="594.52539"
   id="tspan187">0</tspan><tspan
   font-family="'Cambria Math', 'Cambria Math_MSFontService', sans-serif"
   font-size="32px"
   x="1042.1501"
   y="574.52539"
   id="tspan189">+</tspan><tspan
   font-family="'Cambria Math', 'Cambria Math_MSFontService', sans-serif"
   font-size="32px"
   x="1069.5367"
   y="574.52539"
   id="tspan191" /><tspan
   font-family="'Cambria Math', 'Cambria Math_MSFontService', sans-serif"
   font-size="32px"
   x="1080.0967"
   y="574.52539"
   id="tspan193">ğ‘¥</tspan><tspan
   font-family="'Cambria Math', 'Cambria Math_MSFontService', sans-serif"
   font-size="23px"
   x="1096.7834"
   y="581.52539"
   id="tspan195">2</tspan></text>
  <path
     d="m 1163.0034,539.25142 h 7.43 v 52.5 h -7.43 v -1.359 h 4.54 v -49.781 h -4.54 z m -42.51,0 h 7.43 v 1.36 h -4.54 v 49.781 h 4.54 v 1.359 h -7.43 z"
     fill-rule="evenodd"
     id="path199" />
  <text
     font-family="Calibri, Calibri_MSFontService, sans-serif"
     font-weight="400"
     font-size="32px"
     id="text205"
     x="1128.6334"
     y="557.52539">âˆ’<tspan
   font-family="'Cambria Math', 'Cambria Math_MSFontService', sans-serif"
   font-size="32px"
   x="1144.6334"
   y="557.52539"
   id="tspan201">4</tspan><tspan
   font-family="'Cambria Math', 'Cambria Math_MSFontService', sans-serif"
   font-size="32px"
   x="1136.6334"
   y="594.52539"
   id="tspan203">1</tspan></text>
  <path
     d="M 12.0469,-8.48438 C 10.8802,-8.45312 9.9974,-8.02344 9.39844,-7.19531 8.79948,-6.36719 8.5,-5.23958 8.5,-3.8125 c 0,0.57292 0.15885,1.99479 0.47656,4.265625 0.31771,2.270835 0.47656,4.005205 0.47656,5.203125 0,3.63542 -0.6875,6.42705 -2.0625,8.37495 -1.375,1.948 -3.51562,2.9636 -6.42187,3.0469 v -1.25 c 0.91667,-0.0625 1.72396,-0.2838 2.42187,-0.664 0.69792,-0.3802 1.30209,-0.9558 1.8125,-1.7266 0.51042,-0.75 0.88542,-1.7187 1.125,-2.9063 C 6.56771,9.34375 6.6875,7.91667 6.6875,6.25 6.6875,5.51042 6.54688,3.94531 6.26562,1.55469 5.98438,-0.835937 5.84375,-2.29167 5.84375,-2.8125 c 0,-1.79167 0.38021,-3.20833 1.14063,-4.25 C 7.74479,-8.10417 8.44271,-8.75 9.07812,-9 V -9.3125 C 8.44271,-9.54167 7.74479,-10.1901 6.98438,-11.2578 6.22396,-12.3255 5.84375,-13.75 5.84375,-15.5312 c 0,-0.7917 0.14063,-2.2214 0.42187,-4.2891 0.28126,-2.0677 0.42188,-3.6797 0.42188,-4.8359 0,-1.6563 -0.13281,-3.0704 -0.39844,-4.2422 -0.26562,-1.1719 -0.64844,-2.1328 -1.14844,-2.8828 -0.5,-0.75 -1.10156,-1.3099 -1.80468,-1.6797 -0.70313,-0.3698 -1.49219,-0.586 -2.36719,-0.6485 v -1.25 c 2.75,0.1354 4.85156,1.1302 6.30469,2.9844 1.45312,1.8542 2.17968,4.724 2.17968,8.6094 0,1.3958 -0.15885,3.1302 -0.47656,5.2031 C 8.65885,-16.4896 8.5,-15.1406 8.5,-14.5156 c 0,1.4583 0.30208,2.5989 0.90625,3.4218 0.60415,0.823 1.48435,1.24484 2.64065,1.26568 z"
     transform="translate(1173.9834,574.52542)"
     id="path207"
     clip-path="url(#clipPath689)" />
  <path
     d="m 255.20339,307.02542 c 0,-11.322 9.85,-20.5 22,-20.5 12.15,0 22,9.178 22,20.5 0,11.322 -9.85,20.5 -22,20.5 -12.15,0 -22,-9.178 -22,-20.5 z"
     fill="#bdd7ee"
     fill-rule="evenodd"
     fill-opacity="0.501961"
     id="path209" />
  <text
     font-family="'Cambria Math', 'Cambria Math_MSFontService', sans-serif"
     font-weight="400"
     font-size="32px"
     id="text221"
     x="219.54239"
     y="279.52542">1<tspan
   font-size="32px"
   x="269.20908"
   y="279.52542"
   id="tspan211">0</tspan><tspan
   font-size="32px"
   x="326.8754"
   y="279.52542"
   id="tspan213">2</tspan><tspan
   font-size="32px"
   x="219.54239"
   y="317.52542"
   id="tspan215">0</tspan><tspan
   font-size="32px"
   x="269.20908"
   y="317.52542"
   id="tspan217">1</tspan><tspan
   font-family="Calibri, Calibri_MSFontService, sans-serif"
   font-size="32px"
   x="318.8757"
   y="317.52542"
   id="tspan219">âˆ’</tspan>1</text>
  <path
     d="m 704.03539,408.08042 c 3.75,0 8.219,1.64 13.406,4.922 5.188,3.281 9.125,4.921 11.813,4.921 2.656,0 4.875,-0.703 6.656,-2.109 1.781,-1.406 3.578,-3.594 5.391,-6.562 l 3.75,2.531 c -1.344,2.781 -3.469,5.586 -6.375,8.414 -2.906,2.828 -6.438,4.242 -10.594,4.242 -4,0 -8.57,-1.641 -13.711,-4.922 -5.141,-3.281 -9.07,-4.922 -11.789,-4.922 -2.281,0 -4.281,0.719 -6,2.157 -1.719,1.437 -3.234,3.531 -4.547,6.281 l -3.656,-2.063 c 1.594,-3.687 3.703,-6.758 6.328,-9.211 2.625,-2.453 5.734,-3.679 9.328,-3.679 z"
     fill-rule="evenodd"
     id="path223" />
  <text
     fill="#000000"
     fill-opacity="0"
     font-family="Arial, Arial_MSFontService, sans-serif"
     font-size="16.3594px"
     x="688.37939"
     y="422.39441"
     id="text225">~</text>
  <path
     d="m 801.20339,464.52542 c -8.56,0 -15.5,-6.101 -15.5,-13.627 v -22.746 c 0,-7.526 -6.94,-13.627 -15.5,-13.627 8.56,0 15.5,-6.101 15.5,-13.627 v -22.746 c 0,-7.526 6.94,-13.627 15.5,-13.627"
     stroke="#000000"
     stroke-width="4"
     stroke-miterlimit="8"
     fill="none"
     fill-rule="evenodd"
     id="path227" />
  <path
     d="m 791.20339,303.49242 c 0,-7.161 5.806,-12.967 12.967,-12.967 h 130.066 c 7.161,0 12.967,5.806 12.967,12.967 v 10.066 c 0,7.161 -5.806,12.967 -12.967,12.967 h -130.066 c -7.161,0 -12.967,-5.806 -12.967,-12.967 z"
     fill="#7030a0"
     fill-rule="evenodd"
     fill-opacity="0.301961"
     id="path229" />
  <path
     d="m 793.20339,181.49242 c 0,-7.161 5.806,-12.967 12.967,-12.967 h 128.066 c 7.161,0 12.967,5.806 12.967,12.967 v 10.066 c 0,7.161 -5.806,12.967 -12.967,12.967 h -128.066 c -7.161,0 -12.967,-5.806 -12.967,-12.967 z"
     fill="#7030a0"
     fill-rule="evenodd"
     fill-opacity="0.301961"
     id="path231" />
  <text
     font-family="'Cambria Math', 'Cambria Math_MSFontService', sans-serif"
     font-weight="400"
     font-size="32px"
     id="text255"
     x="803.2384"
     y="279.52542">1<tspan
   font-size="32px"
   x="852.90509"
   y="279.52542"
   id="tspan233">4</tspan><tspan
   font-family="Calibri, Calibri_MSFontService, sans-serif"
   font-size="32px"
   x="902.57178"
   y="279.52542"
   id="tspan235">âˆ’</tspan>2<tspan
   font-size="32px"
   x="803.2384"
   y="317.52542"
   id="tspan237">0</tspan><tspan
   font-size="32px"
   x="852.90509"
   y="317.52542"
   id="tspan239">0</tspan><tspan
   font-size="32px"
   x="910.57141"
   y="317.52542"
   id="tspan241">0</tspan><tspan
   font-size="32px"
   x="806.76703"
   y="158.52542"
   id="tspan243">1</tspan><tspan
   font-size="32px"
   x="856.43372"
   y="158.52542"
   id="tspan245">4</tspan><tspan
   font-family="Calibri, Calibri_MSFontService, sans-serif"
   font-size="32px"
   x="906.1004"
   y="158.52542"
   id="tspan247">âˆ’</tspan>2<tspan
   font-size="32px"
   x="806.76703"
   y="196.52542"
   id="tspan249">2</tspan><tspan
   font-size="32px"
   x="856.43372"
   y="196.52542"
   id="tspan251">8</tspan><tspan
   font-family="Calibri, Calibri_MSFontService, sans-serif"
   font-size="32px"
   x="906.1004"
   y="196.52542"
   id="tspan253">âˆ’</tspan>4</text>
  <path
     d="m 736.20339,657.13242 c 0,-6.963 5.644,-12.607 12.607,-12.607 h 9.786 c 6.963,0 12.607,5.644 12.607,12.607 v 10.786 c 0,6.963 -5.644,12.607 -12.607,12.607 h -9.786 c -6.963,0 -12.607,-5.644 -12.607,-12.607 z"
     fill="#7030a0"
     fill-rule="evenodd"
     fill-opacity="0.301961"
     id="path257" />
  <text
     font-family="Calibri, Calibri_MSFontService, sans-serif"
     font-weight="400"
     font-size="27px"
     id="text261"
     x="780.36737"
     y="671.52539">Homogenous linear system i.e. ğ‘¨ğ‘£</text>
  <path
     d="m 9.94043,-17.6265 -3.30908,2.8609 -0.69873,-0.791 2.10937,-1.8326 H 0 v -1.2392 h 8.04199 l -2.10937,-1.8325 0.69873,-0.7911 3.30908,2.8609 z"
     transform="translate(1144.5334,671.52542)"
     id="path263"
     clip-path="url(#clipPath685)" />
  <text
     font-family="Calibri, Calibri_MSFontService, sans-serif"
     font-weight="400"
     font-size="27px"
     id="text265"
     x="1160.3344"
     y="671.52539">= 0</text>
</svg>
