<?xml version="1.0" encoding="UTF-8" standalone="no"?>
<svg
   width="1280"
   height="540"
   overflow="hidden"
   version="1.1"
   id="svg345"
   sodipodi:docname="linear_systems-stochastic_matrix.svg"
   inkscape:version="1.2 (dc2aedaf03, 2022-05-15)"
   xmlns:inkscape="http://www.inkscape.org/namespaces/inkscape"
   xmlns:sodipodi="http://sodipodi.sourceforge.net/DTD/sodipodi-0.dtd"
   xmlns="http://www.w3.org/2000/svg"
   xmlns:svg="http://www.w3.org/2000/svg">
  <sodipodi:namedview
     id="namedview347"
     pagecolor="#ffffff"
     bordercolor="#000000"
     borderopacity="0.25"
     inkscape:showpageshadow="2"
     inkscape:pageopacity="0.0"
     inkscape:pagecheckerboard="0"
     inkscape:deskcolor="#d1d1d1"
     showgrid="false"
     inkscape:zoom="0.92709556"
     inkscape:cx="387.77017"
     inkscape:cy="360.26491"
     inkscape:window-width="2560"
     inkscape:window-height="1494"
     inkscape:window-x="-11"
     inkscape:window-y="-11"
     inkscape:window-maximized="1"
     inkscape:current-layer="svg345" />
  <defs
     id="defs5">
    <clipPath
       id="clip0">
      <rect
         x="0"
         y="0"
         width="1280"
         height="720"
         id="rect2" />
    </clipPath>
  </defs>
  <g
     clip-path="url(#clip0)"
     id="g343"
     transform="translate(17.258199,-24.808661)">
    <rect
       x="0"
       y="0"
       width="1280"
       height="720"
       fill="#ffffff"
       id="rect7" />
    <text
       font-family="Calibri, Calibri_MSFontService, sans-serif"
       font-weight="400"
       font-size="43px"
       transform="translate(460.603,89)"
       id="text9">Stochastic matrix</text>
    <path
       d="M 722,195.521 C 722,185.844 729.844,178 739.521,178 h 363.959 c 9.68,0 17.52,7.844 17.52,17.521 v 100.958 c 0,9.677 -7.84,17.521 -17.52,17.521 H 739.521 C 729.844,314 722,306.156 722,296.479 Z"
       fill="#e2f0d9"
       fill-rule="evenodd"
       id="path11" />
    <path
       d="m 741.727,196.382 c -0.539,0 -0.991,0.16 -1.354,0.48 -0.363,0.321 -0.656,0.781 -0.879,1.383 -0.223,0.602 -0.381,1.334 -0.474,2.197 -0.094,0.864 -0.141,1.838 -0.141,2.924 0,2.547 0.236,4.416 0.709,5.608 0.473,1.191 1.205,1.787 2.197,1.787 0.945,0 1.647,-0.561 2.104,-1.682 0.457,-1.121 0.685,-2.857 0.685,-5.209 0,-1.797 -0.117,-3.252 -0.351,-4.365 -0.235,-1.113 -0.561,-1.912 -0.979,-2.397 -0.418,-0.484 -0.924,-0.726 -1.517,-0.726 z m 0.058,-0.996 c 1.711,0 2.985,0.66 3.82,1.98 0.836,1.32 1.254,3.317 1.254,5.988 0,2.766 -0.447,4.858 -1.341,6.276 -0.895,1.418 -2.202,2.127 -3.92,2.127 -1.688,0 -2.944,-0.664 -3.768,-1.992 -0.824,-1.329 -1.236,-3.344 -1.236,-6.047 0,-1.438 0.127,-2.68 0.381,-3.727 0.254,-1.047 0.609,-1.912 1.066,-2.596 0.457,-0.683 1.006,-1.189 1.647,-1.517 0.64,-0.328 1.339,-0.492 2.097,-0.492 z"
       fill-rule="evenodd"
       id="path13" />
    <text
       fill="#000000"
       fill-opacity="0"
       font-family="Arial, Arial_MSFontService, sans-serif"
       font-size="16.3711px"
       x="736.59399"
       y="209.71001"
       id="text15">0</text>
    <path
       d="m 749.693,208.85 h 2.367 v 2.719 h -2.367 z"
       fill-rule="evenodd"
       id="path17" />
    <text
       fill="#000000"
       fill-opacity="0"
       font-family="Arial, Arial_MSFontService, sans-serif"
       font-size="2.71875px"
       x="749.69299"
       y="211.229"
       id="text19">.</text>
    <path
       d="m 760.001,196.382 c -0.586,0 -1.082,0.101 -1.488,0.304 -0.406,0.204 -0.736,0.483 -0.99,0.838 -0.254,0.356 -0.44,0.774 -0.557,1.254 -0.117,0.481 -0.176,1.002 -0.176,1.565 0,1.164 0.239,2.066 0.715,2.707 0.477,0.64 1.149,0.961 2.016,0.961 0.297,0 0.58,-0.026 0.849,-0.077 0.27,-0.05 0.534,-0.125 0.791,-0.222 0.258,-0.098 0.51,-0.223 0.756,-0.375 0.246,-0.153 0.467,-0.315 0.662,-0.487 0.071,-0.062 0.133,-0.144 0.188,-0.246 0.055,-0.101 0.098,-0.234 0.129,-0.398 0.031,-0.164 0.047,-0.422 0.047,-0.773 0,-1.071 -0.108,-1.987 -0.323,-2.749 -0.214,-0.761 -0.542,-1.335 -0.984,-1.722 -0.441,-0.387 -0.986,-0.58 -1.635,-0.58 z m 0.129,-0.996 c 1.641,0 2.891,0.566 3.75,1.699 0.86,1.133 1.289,2.762 1.289,4.887 0,1.945 -0.316,3.63 -0.949,5.056 -0.633,1.426 -1.519,2.535 -2.66,3.328 -1.141,0.793 -2.473,1.26 -3.996,1.401 l -0.481,-0.645 v -0.574 c 1.094,0 2.041,-0.242 2.842,-0.727 0.801,-0.484 1.445,-1.201 1.934,-2.15 0.488,-0.949 0.814,-2.193 0.978,-3.732 l -0.117,-0.047 c -0.656,0.468 -1.303,0.812 -1.939,1.031 -0.637,0.219 -1.327,0.328 -2.069,0.328 -0.883,0 -1.634,-0.193 -2.256,-0.58 -0.621,-0.387 -1.087,-0.93 -1.4,-1.629 -0.312,-0.699 -0.469,-1.517 -0.469,-2.455 0,-0.703 0.117,-1.369 0.352,-1.998 0.234,-0.629 0.582,-1.18 1.043,-1.652 0.461,-0.473 1.037,-0.848 1.728,-1.125 0.692,-0.278 1.498,-0.416 2.42,-0.416 z m 16.305,-0.586 h 0.914 l -0.176,2.718 h -6.738 v 5.145 c 0.406,-0.172 0.848,-0.301 1.324,-0.387 0.477,-0.086 0.953,-0.129 1.43,-0.129 0.93,0 1.754,0.19 2.472,0.569 0.719,0.379 1.274,0.918 1.665,1.617 0.39,0.699 0.585,1.51 0.585,2.432 0,1.046 -0.218,1.945 -0.656,2.695 -0.437,0.75 -1.07,1.32 -1.898,1.711 -0.828,0.39 -1.809,0.586 -2.942,0.586 -1.351,0 -2.765,-0.278 -4.242,-0.832 v -2.485 h 1.418 c 0.235,0.797 0.588,1.383 1.061,1.758 0.472,0.375 1.084,0.563 1.834,0.563 1.039,0 1.824,-0.313 2.355,-0.938 0.531,-0.625 0.797,-1.558 0.797,-2.801 0,-0.828 -0.141,-1.513 -0.422,-2.056 -0.281,-0.543 -0.66,-0.936 -1.137,-1.178 -0.476,-0.242 -1.031,-0.363 -1.664,-0.363 -0.531,0 -0.988,0.033 -1.371,0.099 -0.383,0.067 -0.793,0.17 -1.23,0.311 l -0.938,-0.551 v -7.711 h 6.457 c 0.266,0 0.457,-0.021 0.575,-0.064 0.117,-0.043 0.211,-0.11 0.281,-0.2 0.07,-0.089 0.152,-0.259 0.246,-0.509 z"
       fill-rule="evenodd"
       id="path21" />
    <text
       fill="#000000"
       fill-opacity="0"
       font-family="Arial, Arial_MSFontService, sans-serif"
       font-size="16.957px"
       x="754.58698"
       y="209.63699"
       id="text23">95</text>
    <path
       d="m 788.72,198.292 5.309,5.297 5.308,-5.297 1.102,1.09 -5.25,5.343 5.262,5.321 -1.172,1.172 -5.25,-5.356 -5.414,5.309 -1.09,-1.102 5.355,-5.344 -5.332,-5.261 z"
       fill-rule="evenodd"
       id="path25" />
    <text
       fill="#000000"
       fill-opacity="0"
       font-family="Arial, Arial_MSFontService, sans-serif"
       font-size="12.9258px"
       x="787.52502"
       y="209.60201"
       id="text27">×</text>
    <path
       d="m 814.56,196.382 c -0.539,0 -0.99,0.16 -1.354,0.48 -0.363,0.321 -0.656,0.781 -0.878,1.383 -0.223,0.602 -0.381,1.334 -0.475,2.197 -0.094,0.864 -0.141,1.838 -0.141,2.924 0,2.547 0.237,4.416 0.709,5.608 0.473,1.191 1.205,1.787 2.198,1.787 0.945,0 1.646,-0.561 2.103,-1.682 0.457,-1.121 0.686,-2.857 0.686,-5.209 0,-1.797 -0.118,-3.252 -0.352,-4.365 -0.234,-1.113 -0.561,-1.912 -0.978,-2.397 -0.418,-0.484 -0.924,-0.726 -1.518,-0.726 z m 0.059,-0.996 c 1.71,0 2.984,0.66 3.82,1.98 0.836,1.32 1.254,3.317 1.254,5.988 0,2.766 -0.448,4.858 -1.342,6.276 -0.895,1.418 -2.201,2.127 -3.92,2.127 -1.687,0 -2.943,-0.664 -3.768,-1.992 -0.824,-1.329 -1.236,-3.344 -1.236,-6.047 0,-1.438 0.127,-2.68 0.381,-3.727 0.254,-1.047 0.609,-1.912 1.066,-2.596 0.457,-0.683 1.006,-1.189 1.647,-1.517 0.64,-0.328 1.34,-0.492 2.098,-0.492 z"
       fill-rule="evenodd"
       id="path29" />
    <text
       fill="#000000"
       fill-opacity="0"
       font-family="Arial, Arial_MSFontService, sans-serif"
       font-size="16.3711px"
       x="809.427"
       y="209.71001"
       id="text31">0</text>
    <path
       d="m 822.526,208.85 h 2.367 v 2.719 h -2.367 z"
       fill-rule="evenodd"
       id="path33" />
    <text
       fill="#000000"
       fill-opacity="0"
       font-family="Arial, Arial_MSFontService, sans-serif"
       font-size="2.71875px"
       x="822.526"
       y="211.229"
       id="text35">.</text>
    <path
       d="m 832.835,196.382 c -0.586,0 -1.082,0.101 -1.489,0.304 -0.406,0.204 -0.736,0.483 -0.99,0.838 -0.254,0.356 -0.439,0.774 -0.557,1.254 -0.117,0.481 -0.175,1.002 -0.175,1.565 0,1.164 0.238,2.066 0.715,2.707 0.476,0.64 1.148,0.961 2.015,0.961 0.297,0 0.58,-0.026 0.85,-0.077 0.269,-0.05 0.533,-0.125 0.791,-0.222 0.258,-0.098 0.51,-0.223 0.756,-0.375 0.246,-0.153 0.466,-0.315 0.662,-0.487 0.07,-0.062 0.133,-0.144 0.187,-0.246 0.055,-0.101 0.098,-0.234 0.129,-0.398 0.031,-0.164 0.047,-0.422 0.047,-0.773 0,-1.071 -0.107,-1.987 -0.322,-2.749 -0.215,-0.761 -0.543,-1.335 -0.985,-1.722 -0.441,-0.387 -0.986,-0.58 -1.634,-0.58 z m 0.129,-0.996 c 1.64,0 2.89,0.566 3.75,1.699 0.859,1.133 1.289,2.762 1.289,4.887 0,1.945 -0.317,3.63 -0.95,5.056 -0.632,1.426 -1.519,2.535 -2.66,3.328 -1.14,0.793 -2.472,1.26 -3.996,1.401 l -0.48,-0.645 v -0.574 c 1.093,0 2.041,-0.242 2.841,-0.727 0.801,-0.484 1.446,-1.201 1.934,-2.15 0.488,-0.949 0.815,-2.193 0.979,-3.732 l -0.118,-0.047 c -0.656,0.468 -1.302,0.812 -1.939,1.031 -0.637,0.219 -1.326,0.328 -2.068,0.328 -0.883,0 -1.635,-0.193 -2.256,-0.58 -0.621,-0.387 -1.088,-0.93 -1.401,-1.629 -0.312,-0.699 -0.468,-1.517 -0.468,-2.455 0,-0.703 0.117,-1.369 0.351,-1.998 0.235,-0.629 0.582,-1.18 1.043,-1.652 0.461,-0.473 1.037,-0.848 1.729,-1.125 0.691,-0.278 1.498,-0.416 2.42,-0.416 z m 16.304,-0.586 h 0.914 l -0.175,2.718 h -6.739 v 5.145 c 0.406,-0.172 0.848,-0.301 1.324,-0.387 0.477,-0.086 0.954,-0.129 1.43,-0.129 0.93,0 1.754,0.19 2.473,0.569 0.719,0.379 1.273,0.918 1.664,1.617 0.39,0.699 0.586,1.51 0.586,2.432 0,1.046 -0.219,1.945 -0.656,2.695 -0.438,0.75 -1.071,1.32 -1.899,1.711 -0.828,0.39 -1.808,0.586 -2.941,0.586 -1.352,0 -2.766,-0.278 -4.242,-0.832 v -2.485 h 1.417 c 0.235,0.797 0.588,1.383 1.061,1.758 0.473,0.375 1.084,0.563 1.834,0.563 1.039,0 1.824,-0.313 2.355,-0.938 0.532,-0.625 0.797,-1.558 0.797,-2.801 0,-0.828 -0.14,-1.513 -0.422,-2.056 -0.281,-0.543 -0.66,-0.936 -1.136,-1.178 -0.477,-0.242 -1.031,-0.363 -1.664,-0.363 -0.532,0 -0.989,0.033 -1.371,0.099 -0.383,0.067 -0.793,0.17 -1.231,0.311 l -0.937,-0.551 v -7.711 h 6.457 c 0.265,0 0.457,-0.021 0.574,-0.064 0.117,-0.043 0.211,-0.11 0.281,-0.2 0.07,-0.089 0.152,-0.259 0.246,-0.509 z"
       fill-rule="evenodd"
       id="path37" />
    <text
       fill="#000000"
       fill-opacity="0"
       font-family="Arial, Arial_MSFontService, sans-serif"
       font-size="16.957px"
       x="827.42102"
       y="209.63699"
       id="text39">95</text>
    <path
       d="m 919.973,196.382 c -0.539,0 -0.99,0.16 -1.353,0.48 -0.364,0.321 -0.656,0.781 -0.879,1.383 -0.223,0.602 -0.381,1.334 -0.475,2.197 -0.094,0.864 -0.14,1.838 -0.14,2.924 0,2.547 0.236,4.416 0.709,5.608 0.472,1.191 1.205,1.787 2.197,1.787 0.945,0 1.646,-0.561 2.103,-1.682 0.457,-1.121 0.686,-2.857 0.686,-5.209 0,-1.797 -0.117,-3.252 -0.352,-4.365 -0.234,-1.113 -0.56,-1.912 -0.978,-2.397 -0.418,-0.484 -0.924,-0.726 -1.518,-0.726 z m 0.059,-0.996 c 1.711,0 2.984,0.66 3.82,1.98 0.836,1.32 1.254,3.317 1.254,5.988 0,2.766 -0.447,4.858 -1.342,6.276 -0.894,1.418 -2.201,2.127 -3.92,2.127 -1.687,0 -2.943,-0.664 -3.767,-1.992 -0.824,-1.329 -1.237,-3.344 -1.237,-6.047 0,-1.438 0.127,-2.68 0.381,-3.727 0.254,-1.047 0.61,-1.912 1.067,-2.596 0.457,-0.683 1.006,-1.189 1.646,-1.517 0.641,-0.328 1.34,-0.492 2.098,-0.492 z"
       fill-rule="evenodd"
       id="path41" />
    <text
       fill="#000000"
       fill-opacity="0"
       font-family="Arial, Arial_MSFontService, sans-serif"
       font-size="16.3711px"
       x="914.84003"
       y="209.71001"
       id="text43">0</text>
    <path
       d="m 1030.14,196.382 c -0.54,0 -0.99,0.16 -1.35,0.48 -0.37,0.321 -0.66,0.781 -0.88,1.383 -0.23,0.602 -0.38,1.334 -0.48,2.197 -0.09,0.864 -0.14,1.838 -0.14,2.924 0,2.547 0.24,4.416 0.71,5.608 0.47,1.191 1.21,1.787 2.2,1.787 0.94,0 1.64,-0.561 2.1,-1.682 0.46,-1.121 0.69,-2.857 0.69,-5.209 0,-1.797 -0.12,-3.252 -0.35,-4.365 -0.24,-1.113 -0.56,-1.912 -0.98,-2.397 -0.42,-0.484 -0.93,-0.726 -1.52,-0.726 z m 0.06,-0.996 c 1.71,0 2.98,0.66 3.82,1.98 0.83,1.32 1.25,3.317 1.25,5.988 0,2.766 -0.44,4.858 -1.34,6.276 -0.89,1.418 -2.2,2.127 -3.92,2.127 -1.69,0 -2.94,-0.664 -3.77,-1.992 -0.82,-1.329 -1.23,-3.344 -1.23,-6.047 0,-1.438 0.12,-2.68 0.38,-3.727 0.25,-1.047 0.61,-1.912 1.06,-2.596 0.46,-0.683 1.01,-1.189 1.65,-1.517 0.64,-0.328 1.34,-0.492 2.1,-0.492 z"
       fill-rule="evenodd"
       id="path45" />
    <text
       fill="#000000"
       fill-opacity="0"
       font-family="Arial, Arial_MSFontService, sans-serif"
       font-size="16.3711px"
       x="1025.01"
       y="209.71001"
       id="text47">0</text>
    <path
       d="m 1103.89,196.382 c -0.54,0 -0.99,0.16 -1.35,0.48 -0.36,0.321 -0.66,0.781 -0.88,1.383 -0.22,0.602 -0.38,1.334 -0.47,2.197 -0.1,0.864 -0.14,1.838 -0.14,2.924 0,2.547 0.23,4.416 0.7,5.608 0.48,1.191 1.21,1.787 2.2,1.787 0.95,0 1.65,-0.561 2.11,-1.682 0.45,-1.121 0.68,-2.857 0.68,-5.209 0,-1.797 -0.12,-3.252 -0.35,-4.365 -0.23,-1.113 -0.56,-1.912 -0.98,-2.397 -0.42,-0.484 -0.92,-0.726 -1.52,-0.726 z m 0.06,-0.996 c 1.71,0 2.99,0.66 3.82,1.98 0.84,1.32 1.26,3.317 1.26,5.988 0,2.766 -0.45,4.858 -1.35,6.276 -0.89,1.418 -2.2,2.127 -3.92,2.127 -1.68,0 -2.94,-0.664 -3.76,-1.992 -0.83,-1.329 -1.24,-3.344 -1.24,-6.047 0,-1.438 0.13,-2.68 0.38,-3.727 0.26,-1.047 0.61,-1.912 1.07,-2.596 0.45,-0.683 1,-1.189 1.64,-1.517 0.64,-0.328 1.34,-0.492 2.1,-0.492 z"
       fill-rule="evenodd"
       id="path49" />
    <text
       fill="#000000"
       fill-opacity="0"
       font-family="Arial, Arial_MSFontService, sans-serif"
       font-size="16.3711px"
       x="1098.76"
       y="209.71001"
       id="text51">0</text>
    <path
       d="m 741.727,224.522 c -0.539,0 -0.991,0.16 -1.354,0.48 -0.363,0.321 -0.656,0.781 -0.879,1.383 -0.223,0.602 -0.381,1.334 -0.474,2.197 -0.094,0.864 -0.141,1.838 -0.141,2.924 0,2.547 0.236,4.416 0.709,5.608 0.473,1.191 1.205,1.787 2.197,1.787 0.945,0 1.647,-0.561 2.104,-1.682 0.457,-1.121 0.685,-2.857 0.685,-5.209 0,-1.797 -0.117,-3.252 -0.351,-4.365 -0.235,-1.113 -0.561,-1.912 -0.979,-2.397 -0.418,-0.484 -0.924,-0.726 -1.517,-0.726 z m 0.058,-0.996 c 1.711,0 2.985,0.66 3.82,1.98 0.836,1.32 1.254,3.317 1.254,5.988 0,2.766 -0.447,4.858 -1.341,6.276 -0.895,1.418 -2.202,2.127 -3.92,2.127 -1.688,0 -2.944,-0.664 -3.768,-1.992 -0.824,-1.329 -1.236,-3.344 -1.236,-6.047 0,-1.438 0.127,-2.68 0.381,-3.727 0.254,-1.047 0.609,-1.912 1.066,-2.596 0.457,-0.683 1.006,-1.189 1.647,-1.517 0.64,-0.328 1.339,-0.492 2.097,-0.492 z"
       fill-rule="evenodd"
       id="path53" />
    <text
       fill="#000000"
       fill-opacity="0"
       font-family="Arial, Arial_MSFontService, sans-serif"
       font-size="16.3711px"
       x="736.59399"
       y="237.85001"
       id="text55">0</text>
    <path
       d="m 749.693,236.99 h 2.367 v 2.719 h -2.367 z"
       fill-rule="evenodd"
       id="path57" />
    <text
       fill="#000000"
       fill-opacity="0"
       font-family="Arial, Arial_MSFontService, sans-serif"
       font-size="2.71875px"
       x="749.69299"
       y="239.369"
       id="text59">.</text>
    <path
       d="m 760.001,224.522 c -0.586,0 -1.082,0.101 -1.488,0.304 -0.406,0.204 -0.736,0.483 -0.99,0.838 -0.254,0.356 -0.44,0.774 -0.557,1.254 -0.117,0.481 -0.176,1.002 -0.176,1.565 0,1.164 0.239,2.066 0.715,2.707 0.477,0.64 1.149,0.961 2.016,0.961 0.297,0 0.58,-0.026 0.849,-0.077 0.27,-0.05 0.534,-0.125 0.791,-0.222 0.258,-0.098 0.51,-0.223 0.756,-0.375 0.246,-0.153 0.467,-0.315 0.662,-0.487 0.071,-0.062 0.133,-0.144 0.188,-0.246 0.055,-0.101 0.098,-0.234 0.129,-0.398 0.031,-0.164 0.047,-0.422 0.047,-0.773 0,-1.071 -0.108,-1.987 -0.323,-2.749 -0.214,-0.761 -0.542,-1.335 -0.984,-1.722 -0.441,-0.387 -0.986,-0.58 -1.635,-0.58 z m 0.129,-0.996 c 1.641,0 2.891,0.566 3.75,1.699 0.86,1.133 1.289,2.762 1.289,4.887 0,1.945 -0.316,3.63 -0.949,5.056 -0.633,1.426 -1.519,2.535 -2.66,3.328 -1.141,0.793 -2.473,1.26 -3.996,1.401 l -0.481,-0.645 v -0.574 c 1.094,0 2.041,-0.242 2.842,-0.727 0.801,-0.484 1.445,-1.201 1.934,-2.15 0.488,-0.949 0.814,-2.193 0.978,-3.732 l -0.117,-0.047 c -0.656,0.468 -1.303,0.812 -1.939,1.031 -0.637,0.219 -1.327,0.328 -2.069,0.328 -0.883,0 -1.634,-0.193 -2.256,-0.58 -0.621,-0.387 -1.087,-0.93 -1.4,-1.629 -0.312,-0.699 -0.469,-1.517 -0.469,-2.455 0,-0.703 0.117,-1.369 0.352,-1.998 0.234,-0.629 0.582,-1.18 1.043,-1.652 0.461,-0.473 1.037,-0.848 1.728,-1.125 0.692,-0.278 1.498,-0.416 2.42,-0.416 z m 16.305,-0.586 h 0.914 l -0.176,2.718 h -6.738 v 5.145 c 0.406,-0.172 0.848,-0.301 1.324,-0.387 0.477,-0.086 0.953,-0.129 1.43,-0.129 0.93,0 1.754,0.19 2.472,0.569 0.719,0.379 1.274,0.918 1.665,1.617 0.39,0.699 0.585,1.51 0.585,2.432 0,1.046 -0.218,1.945 -0.656,2.695 -0.437,0.75 -1.07,1.32 -1.898,1.711 -0.828,0.39 -1.809,0.586 -2.942,0.586 -1.351,0 -2.765,-0.278 -4.242,-0.832 v -2.485 h 1.418 c 0.235,0.797 0.588,1.383 1.061,1.758 0.472,0.375 1.084,0.563 1.834,0.563 1.039,0 1.824,-0.313 2.355,-0.938 0.531,-0.625 0.797,-1.558 0.797,-2.801 0,-0.828 -0.141,-1.513 -0.422,-2.056 -0.281,-0.543 -0.66,-0.936 -1.137,-1.178 -0.476,-0.242 -1.031,-0.363 -1.664,-0.363 -0.531,0 -0.988,0.033 -1.371,0.099 -0.383,0.067 -0.793,0.17 -1.23,0.311 l -0.938,-0.551 v -7.711 h 6.457 c 0.266,0 0.457,-0.021 0.575,-0.064 0.117,-0.043 0.211,-0.11 0.281,-0.2 0.07,-0.089 0.152,-0.259 0.246,-0.509 z"
       fill-rule="evenodd"
       id="path61" />
    <text
       fill="#000000"
       fill-opacity="0"
       font-family="Arial, Arial_MSFontService, sans-serif"
       font-size="16.957px"
       x="754.58698"
       y="237.77699"
       id="text63">95</text>
    <path
       d="m 788.72,226.432 5.309,5.297 5.308,-5.297 1.102,1.09 -5.25,5.343 5.262,5.321 -1.172,1.172 -5.25,-5.356 -5.414,5.309 -1.09,-1.102 5.355,-5.344 -5.332,-5.261 z"
       fill-rule="evenodd"
       id="path65" />
    <text
       fill="#000000"
       fill-opacity="0"
       font-family="Arial, Arial_MSFontService, sans-serif"
       font-size="12.9258px"
       x="787.52502"
       y="237.742"
       id="text67">×</text>
    <path
       d="m 814.56,224.522 c -0.539,0 -0.99,0.16 -1.354,0.48 -0.363,0.321 -0.656,0.781 -0.878,1.383 -0.223,0.602 -0.381,1.334 -0.475,2.197 -0.094,0.864 -0.141,1.838 -0.141,2.924 0,2.547 0.237,4.416 0.709,5.608 0.473,1.191 1.205,1.787 2.198,1.787 0.945,0 1.646,-0.561 2.103,-1.682 0.457,-1.121 0.686,-2.857 0.686,-5.209 0,-1.797 -0.118,-3.252 -0.352,-4.365 -0.234,-1.113 -0.561,-1.912 -0.978,-2.397 -0.418,-0.484 -0.924,-0.726 -1.518,-0.726 z m 0.059,-0.996 c 1.71,0 2.984,0.66 3.82,1.98 0.836,1.32 1.254,3.317 1.254,5.988 0,2.766 -0.448,4.858 -1.342,6.276 -0.895,1.418 -2.201,2.127 -3.92,2.127 -1.687,0 -2.943,-0.664 -3.768,-1.992 -0.824,-1.329 -1.236,-3.344 -1.236,-6.047 0,-1.438 0.127,-2.68 0.381,-3.727 0.254,-1.047 0.609,-1.912 1.066,-2.596 0.457,-0.683 1.006,-1.189 1.647,-1.517 0.64,-0.328 1.34,-0.492 2.098,-0.492 z"
       fill-rule="evenodd"
       id="path69" />
    <text
       fill="#000000"
       fill-opacity="0"
       font-family="Arial, Arial_MSFontService, sans-serif"
       font-size="16.3711px"
       x="809.427"
       y="237.85001"
       id="text71">0</text>
    <path
       d="m 822.526,236.99 h 2.367 v 2.719 h -2.367 z"
       fill-rule="evenodd"
       id="path73" />
    <text
       fill="#000000"
       fill-opacity="0"
       font-family="Arial, Arial_MSFontService, sans-serif"
       font-size="2.71875px"
       x="822.526"
       y="239.369"
       id="text75">.</text>
    <path
       d="m 832.893,224.522 c -0.539,0 -0.99,0.16 -1.353,0.48 -0.364,0.321 -0.657,0.781 -0.879,1.383 -0.223,0.602 -0.381,1.334 -0.475,2.197 -0.094,0.864 -0.14,1.838 -0.14,2.924 0,2.547 0.236,4.416 0.709,5.608 0.472,1.191 1.205,1.787 2.197,1.787 0.945,0 1.646,-0.561 2.103,-1.682 0.457,-1.121 0.686,-2.857 0.686,-5.209 0,-1.797 -0.117,-3.252 -0.352,-4.365 -0.234,-1.113 -0.56,-1.912 -0.978,-2.397 -0.418,-0.484 -0.924,-0.726 -1.518,-0.726 z m 0.059,-0.996 c 1.711,0 2.984,0.66 3.82,1.98 0.836,1.32 1.254,3.317 1.254,5.988 0,2.766 -0.447,4.858 -1.342,6.276 -0.894,1.418 -2.201,2.127 -3.92,2.127 -1.687,0 -2.943,-0.664 -3.767,-1.992 -0.824,-1.329 -1.237,-3.344 -1.237,-6.047 0,-1.438 0.127,-2.68 0.381,-3.727 0.254,-1.047 0.61,-1.912 1.067,-2.596 0.457,-0.683 1.006,-1.189 1.646,-1.517 0.641,-0.328 1.34,-0.492 2.098,-0.492 z m 16.316,-0.586 h 0.914 l -0.175,2.718 h -6.739 v 5.145 c 0.406,-0.172 0.848,-0.301 1.324,-0.387 0.477,-0.086 0.954,-0.129 1.43,-0.129 0.93,0 1.754,0.19 2.473,0.569 0.719,0.379 1.273,0.918 1.664,1.617 0.39,0.699 0.586,1.51 0.586,2.432 0,1.046 -0.219,1.945 -0.656,2.695 -0.438,0.75 -1.071,1.32 -1.899,1.711 -0.828,0.39 -1.808,0.586 -2.941,0.586 -1.352,0 -2.766,-0.278 -4.242,-0.832 v -2.485 h 1.417 c 0.235,0.797 0.588,1.383 1.061,1.758 0.473,0.375 1.084,0.563 1.834,0.563 1.039,0 1.824,-0.313 2.355,-0.938 0.532,-0.625 0.797,-1.558 0.797,-2.801 0,-0.828 -0.14,-1.513 -0.422,-2.056 -0.281,-0.543 -0.66,-0.936 -1.136,-1.178 -0.477,-0.242 -1.031,-0.363 -1.664,-0.363 -0.532,0 -0.989,0.033 -1.371,0.099 -0.383,0.067 -0.793,0.17 -1.231,0.311 l -0.937,-0.551 v -7.711 h 6.457 c 0.265,0 0.457,-0.021 0.574,-0.064 0.117,-0.043 0.211,-0.11 0.281,-0.2 0.07,-0.089 0.152,-0.259 0.246,-0.509 z"
       fill-rule="evenodd"
       id="path77" />
    <text
       fill="#000000"
       fill-opacity="0"
       font-family="Arial, Arial_MSFontService, sans-serif"
       font-size="16.957px"
       x="827.76001"
       y="237.77699"
       id="text79">05</text>
    <path
       d="m 891.193,236.99 h 2.367 v 2.719 h -2.367 z m 10.308,-12.468 c -0.586,0 -1.082,0.101 -1.488,0.304 -0.406,0.204 -0.736,0.483 -0.99,0.838 -0.254,0.356 -0.44,0.774 -0.557,1.254 -0.117,0.481 -0.176,1.002 -0.176,1.565 0,1.164 0.239,2.066 0.715,2.707 0.477,0.64 1.149,0.961 2.016,0.961 0.297,0 0.58,-0.026 0.849,-0.077 0.27,-0.05 0.534,-0.125 0.791,-0.222 0.258,-0.098 0.51,-0.223 0.756,-0.375 0.246,-0.153 0.467,-0.315 0.662,-0.487 0.071,-0.062 0.133,-0.144 0.188,-0.246 0.055,-0.101 0.098,-0.234 0.129,-0.398 0.031,-0.164 0.047,-0.422 0.047,-0.773 0,-1.071 -0.108,-1.987 -0.323,-2.749 -0.214,-0.761 -0.542,-1.335 -0.984,-1.722 -0.441,-0.387 -0.986,-0.58 -1.635,-0.58 z m -17.941,0 c -0.539,0 -0.99,0.16 -1.354,0.48 -0.363,0.321 -0.656,0.781 -0.878,1.383 -0.223,0.602 -0.381,1.334 -0.475,2.197 -0.094,0.864 -0.141,1.838 -0.141,2.924 0,2.547 0.237,4.416 0.709,5.608 0.473,1.191 1.205,1.787 2.198,1.787 0.945,0 1.646,-0.561 2.103,-1.682 0.457,-1.121 0.686,-2.857 0.686,-5.209 0,-1.797 -0.118,-3.252 -0.352,-4.365 -0.234,-1.113 -0.561,-1.912 -0.978,-2.397 -0.418,-0.484 -0.924,-0.726 -1.518,-0.726 z m 18.07,-0.996 c 1.641,0 2.891,0.566 3.75,1.699 0.86,1.133 1.289,2.762 1.289,4.887 0,1.945 -0.316,3.63 -0.949,5.056 -0.633,1.426 -1.519,2.535 -2.66,3.328 -1.141,0.793 -2.473,1.26 -3.996,1.401 l -0.481,-0.645 v -0.574 c 1.094,0 2.041,-0.242 2.842,-0.727 0.801,-0.484 1.445,-1.201 1.934,-2.15 0.488,-0.949 0.814,-2.193 0.978,-3.732 l -0.117,-0.047 c -0.656,0.468 -1.303,0.812 -1.939,1.031 -0.637,0.219 -1.327,0.328 -2.069,0.328 -0.883,0 -1.634,-0.193 -2.256,-0.58 -0.621,-0.387 -1.087,-0.93 -1.4,-1.629 -0.312,-0.699 -0.469,-1.517 -0.469,-2.455 0,-0.703 0.117,-1.369 0.352,-1.998 0.234,-0.629 0.582,-1.18 1.043,-1.652 0.461,-0.473 1.037,-0.848 1.728,-1.125 0.692,-0.278 1.498,-0.416 2.42,-0.416 z m -18.011,0 c 1.71,0 2.984,0.66 3.82,1.98 0.836,1.32 1.254,3.317 1.254,5.988 0,2.766 -0.448,4.858 -1.342,6.276 -0.895,1.418 -2.201,2.127 -3.92,2.127 -1.687,0 -2.943,-0.664 -3.768,-1.992 -0.824,-1.329 -1.236,-3.344 -1.236,-6.047 0,-1.438 0.127,-2.68 0.381,-3.727 0.254,-1.047 0.609,-1.912 1.066,-2.596 0.457,-0.683 1.006,-1.189 1.647,-1.517 0.64,-0.328 1.34,-0.492 2.098,-0.492 z m 35.316,-0.586 h 0.914 l -0.176,2.718 h -6.738 v 5.145 c 0.406,-0.172 0.848,-0.301 1.324,-0.387 0.477,-0.086 0.953,-0.129 1.43,-0.129 0.93,0 1.754,0.19 2.472,0.569 0.719,0.379 1.274,0.918 1.665,1.617 0.39,0.699 0.585,1.51 0.585,2.432 0,1.046 -0.218,1.945 -0.656,2.695 -0.437,0.75 -1.07,1.32 -1.898,1.711 -0.828,0.39 -1.809,0.586 -2.942,0.586 -1.351,0 -2.765,-0.278 -4.242,-0.832 v -2.485 h 1.418 c 0.235,0.797 0.588,1.383 1.061,1.758 0.472,0.375 1.084,0.563 1.834,0.563 1.039,0 1.824,-0.313 2.355,-0.938 0.531,-0.625 0.797,-1.558 0.797,-2.801 0,-0.828 -0.141,-1.513 -0.422,-2.056 -0.281,-0.543 -0.66,-0.936 -1.137,-1.178 -0.476,-0.242 -1.031,-0.363 -1.664,-0.363 -0.531,0 -0.988,0.033 -1.371,0.099 -0.383,0.067 -0.793,0.17 -1.23,0.311 l -0.938,-0.551 v -7.711 h 6.457 c 0.266,0 0.457,-0.021 0.575,-0.064 0.117,-0.043 0.211,-0.11 0.281,-0.2 0.07,-0.089 0.152,-0.259 0.246,-0.509 z"
       fill-rule="evenodd"
       id="path81" />
    <text
       fill="#000000"
       fill-opacity="0"
       font-family="Arial, Arial_MSFontService, sans-serif"
       font-size="16.957px"
       x="878.427"
       y="237.77699"
       id="text83">0.95</text>
    <path
       d="m 930.553,226.432 5.309,5.297 5.309,-5.297 1.101,1.09 -5.25,5.343 5.262,5.321 -1.172,1.172 -5.25,-5.356 -5.414,5.309 -1.09,-1.102 5.356,-5.344 -5.332,-5.261 z"
       fill-rule="evenodd"
       id="path85" />
    <text
       fill="#000000"
       fill-opacity="0"
       font-family="Arial, Arial_MSFontService, sans-serif"
       font-size="12.9258px"
       x="929.35797"
       y="237.742"
       id="text87">×</text>
    <path
       d="m 957.319,223.526 h 0.645 c -0.047,0.75 -0.071,1.789 -0.071,3.117 v 10.008 c 0,0.453 0.026,0.795 0.076,1.025 0.051,0.231 0.141,0.418 0.27,0.563 0.129,0.144 0.314,0.257 0.557,0.339 0.242,0.082 0.546,0.145 0.914,0.188 0.367,0.043 0.851,0.072 1.453,0.088 v 0.855 h -8.66 v -0.855 c 0.867,-0.039 1.486,-0.092 1.857,-0.158 0.371,-0.067 0.654,-0.166 0.85,-0.299 0.195,-0.133 0.338,-0.321 0.427,-0.563 0.09,-0.242 0.135,-0.636 0.135,-1.183 v -9.504 c 0,-0.313 -0.055,-0.541 -0.164,-0.686 -0.109,-0.144 -0.269,-0.217 -0.48,-0.217 -0.25,0 -0.606,0.129 -1.067,0.387 -0.461,0.258 -1.031,0.613 -1.711,1.067 l -0.515,-0.903 z"
       fill-rule="evenodd"
       id="path89" />
    <text
       fill="#000000"
       fill-opacity="0"
       font-family="Arial, Arial_MSFontService, sans-serif"
       font-size="16.1836px"
       x="951.83502"
       y="237.686"
       id="text91">1</text>
    <path
       d="m 1030.14,224.522 c -0.54,0 -0.99,0.16 -1.35,0.48 -0.37,0.321 -0.66,0.781 -0.88,1.383 -0.23,0.602 -0.38,1.334 -0.48,2.197 -0.09,0.864 -0.14,1.838 -0.14,2.924 0,2.547 0.24,4.416 0.71,5.608 0.47,1.191 1.21,1.787 2.2,1.787 0.94,0 1.64,-0.561 2.1,-1.682 0.46,-1.121 0.69,-2.857 0.69,-5.209 0,-1.797 -0.12,-3.252 -0.35,-4.365 -0.24,-1.113 -0.56,-1.912 -0.98,-2.397 -0.42,-0.484 -0.93,-0.726 -1.52,-0.726 z m 0.06,-0.996 c 1.71,0 2.98,0.66 3.82,1.98 0.83,1.32 1.25,3.317 1.25,5.988 0,2.766 -0.44,4.858 -1.34,6.276 -0.89,1.418 -2.2,2.127 -3.92,2.127 -1.69,0 -2.94,-0.664 -3.77,-1.992 -0.82,-1.329 -1.23,-3.344 -1.23,-6.047 0,-1.438 0.12,-2.68 0.38,-3.727 0.25,-1.047 0.61,-1.912 1.06,-2.596 0.46,-0.683 1.01,-1.189 1.65,-1.517 0.64,-0.328 1.34,-0.492 2.1,-0.492 z"
       fill-rule="evenodd"
       id="path93" />
    <text
       fill="#000000"
       fill-opacity="0"
       font-family="Arial, Arial_MSFontService, sans-serif"
       font-size="16.3711px"
       x="1025.01"
       y="237.85001"
       id="text95">0</text>
    <path
       d="m 1103.89,224.522 c -0.54,0 -0.99,0.16 -1.35,0.48 -0.36,0.321 -0.66,0.781 -0.88,1.383 -0.22,0.602 -0.38,1.334 -0.47,2.197 -0.1,0.864 -0.14,1.838 -0.14,2.924 0,2.547 0.23,4.416 0.7,5.608 0.48,1.191 1.21,1.787 2.2,1.787 0.95,0 1.65,-0.561 2.11,-1.682 0.45,-1.121 0.68,-2.857 0.68,-5.209 0,-1.797 -0.12,-3.252 -0.35,-4.365 -0.23,-1.113 -0.56,-1.912 -0.98,-2.397 -0.42,-0.484 -0.92,-0.726 -1.52,-0.726 z m 0.06,-0.996 c 1.71,0 2.99,0.66 3.82,1.98 0.84,1.32 1.26,3.317 1.26,5.988 0,2.766 -0.45,4.858 -1.35,6.276 -0.89,1.418 -2.2,2.127 -3.92,2.127 -1.68,0 -2.94,-0.664 -3.76,-1.992 -0.83,-1.329 -1.24,-3.344 -1.24,-6.047 0,-1.438 0.13,-2.68 0.38,-3.727 0.26,-1.047 0.61,-1.912 1.07,-2.596 0.45,-0.683 1,-1.189 1.64,-1.517 0.64,-0.328 1.34,-0.492 2.1,-0.492 z"
       fill-rule="evenodd"
       id="path97" />
    <text
       fill="#000000"
       fill-opacity="0"
       font-family="Arial, Arial_MSFontService, sans-serif"
       font-size="16.3711px"
       x="1098.76"
       y="237.85001"
       id="text99">0</text>
    <path
       d="m 749.359,265.13 h 2.368 v 2.719 h -2.368 z m 10.368,-12.468 c -0.539,0 -0.991,0.16 -1.354,0.48 -0.363,0.321 -0.656,0.781 -0.879,1.383 -0.223,0.602 -0.381,1.334 -0.474,2.197 -0.094,0.864 -0.141,1.838 -0.141,2.924 0,2.547 0.236,4.416 0.709,5.608 0.473,1.191 1.205,1.787 2.197,1.787 0.945,0 1.647,-0.561 2.104,-1.682 0.457,-1.121 0.685,-2.857 0.685,-5.209 0,-1.797 -0.117,-3.252 -0.351,-4.365 -0.235,-1.113 -0.561,-1.912 -0.979,-2.397 -0.418,-0.484 -0.924,-0.726 -1.517,-0.726 z m -18,0 c -0.539,0 -0.991,0.16 -1.354,0.48 -0.363,0.321 -0.656,0.781 -0.879,1.383 -0.223,0.602 -0.381,1.334 -0.474,2.197 -0.094,0.864 -0.141,1.838 -0.141,2.924 0,2.547 0.236,4.416 0.709,5.608 0.473,1.191 1.205,1.787 2.197,1.787 0.945,0 1.647,-0.561 2.104,-1.682 0.457,-1.121 0.685,-2.857 0.685,-5.209 0,-1.797 -0.117,-3.252 -0.351,-4.365 -0.235,-1.113 -0.561,-1.912 -0.979,-2.397 -0.418,-0.484 -0.924,-0.726 -1.517,-0.726 z m 18.058,-0.996 c 1.711,0 2.985,0.66 3.82,1.98 0.836,1.32 1.254,3.317 1.254,5.988 0,2.766 -0.447,4.858 -1.341,6.276 -0.895,1.418 -2.202,2.127 -3.92,2.127 -1.688,0 -2.944,-0.664 -3.768,-1.992 -0.824,-1.329 -1.236,-3.344 -1.236,-6.047 0,-1.438 0.127,-2.68 0.381,-3.727 0.254,-1.047 0.609,-1.912 1.066,-2.596 0.457,-0.683 1.006,-1.189 1.647,-1.517 0.64,-0.328 1.339,-0.492 2.097,-0.492 z m -18,0 c 1.711,0 2.985,0.66 3.82,1.98 0.836,1.32 1.254,3.317 1.254,5.988 0,2.766 -0.447,4.858 -1.341,6.276 -0.895,1.418 -2.202,2.127 -3.92,2.127 -1.688,0 -2.944,-0.664 -3.768,-1.992 -0.824,-1.329 -1.236,-3.344 -1.236,-6.047 0,-1.438 0.127,-2.68 0.381,-3.727 0.254,-1.047 0.609,-1.912 1.066,-2.596 0.457,-0.683 1.006,-1.189 1.647,-1.517 0.64,-0.328 1.339,-0.492 2.097,-0.492 z m 35.317,-0.586 h 0.914 l -0.176,2.718 h -6.738 v 5.145 c 0.406,-0.172 0.847,-0.301 1.324,-0.387 0.476,-0.086 0.953,-0.129 1.429,-0.129 0.93,0 1.754,0.19 2.473,0.569 0.719,0.379 1.274,0.918 1.664,1.617 0.391,0.699 0.586,1.51 0.586,2.432 0,1.046 -0.219,1.945 -0.656,2.695 -0.438,0.75 -1.07,1.32 -1.899,1.711 -0.828,0.39 -1.808,0.586 -2.941,0.586 -1.352,0 -2.766,-0.278 -4.242,-0.832 v -2.485 h 1.418 c 0.234,0.797 0.588,1.383 1.06,1.758 0.473,0.375 1.084,0.563 1.834,0.563 1.039,0 1.825,-0.313 2.356,-0.938 0.531,-0.625 0.797,-1.558 0.797,-2.801 0,-0.828 -0.141,-1.513 -0.422,-2.056 -0.281,-0.543 -0.66,-0.936 -1.137,-1.178 -0.476,-0.242 -1.031,-0.363 -1.664,-0.363 -0.531,0 -0.988,0.033 -1.371,0.099 -0.383,0.067 -0.793,0.17 -1.231,0.311 l -0.937,-0.551 v -7.711 H 776 c 0.266,0 0.457,-0.021 0.574,-0.064 0.117,-0.043 0.211,-0.11 0.281,-0.2 0.071,-0.089 0.153,-0.259 0.247,-0.509 z"
       fill-rule="evenodd"
       id="path101" />
    <text
       fill="#000000"
       fill-opacity="0"
       font-family="Arial, Arial_MSFontService, sans-serif"
       font-size="16.957px"
       x="736.59399"
       y="265.91699"
       id="text103">0.05</text>
    <path
       d="m 788.72,254.572 5.309,5.297 5.308,-5.297 1.102,1.09 -5.25,5.343 5.262,5.321 -1.172,1.172 -5.25,-5.356 -5.414,5.309 -1.09,-1.102 5.355,-5.344 -5.332,-5.261 z"
       fill-rule="evenodd"
       id="path105" />
    <text
       fill="#000000"
       fill-opacity="0"
       font-family="Arial, Arial_MSFontService, sans-serif"
       font-size="12.9258px"
       x="787.52502"
       y="265.88199"
       id="text107">×</text>
    <path
       d="m 814.56,252.662 c -0.539,0 -0.99,0.16 -1.354,0.48 -0.363,0.321 -0.656,0.781 -0.878,1.383 -0.223,0.602 -0.381,1.334 -0.475,2.197 -0.094,0.864 -0.141,1.838 -0.141,2.924 0,2.547 0.237,4.416 0.709,5.608 0.473,1.191 1.205,1.787 2.198,1.787 0.945,0 1.646,-0.561 2.103,-1.682 0.457,-1.121 0.686,-2.857 0.686,-5.209 0,-1.797 -0.118,-3.252 -0.352,-4.365 -0.234,-1.113 -0.561,-1.912 -0.978,-2.397 -0.418,-0.484 -0.924,-0.726 -1.518,-0.726 z m 0.059,-0.996 c 1.71,0 2.984,0.66 3.82,1.98 0.836,1.32 1.254,3.317 1.254,5.988 0,2.766 -0.448,4.858 -1.342,6.276 -0.895,1.418 -2.201,2.127 -3.92,2.127 -1.687,0 -2.943,-0.664 -3.768,-1.992 -0.824,-1.329 -1.236,-3.344 -1.236,-6.047 0,-1.438 0.127,-2.68 0.381,-3.727 0.254,-1.047 0.609,-1.912 1.066,-2.596 0.457,-0.683 1.006,-1.189 1.647,-1.517 0.64,-0.328 1.34,-0.492 2.098,-0.492 z"
       fill-rule="evenodd"
       id="path109" />
    <text
       fill="#000000"
       fill-opacity="0"
       font-family="Arial, Arial_MSFontService, sans-serif"
       font-size="16.3711px"
       x="809.427"
       y="265.98999"
       id="text111">0</text>
    <path
       d="m 822.526,265.13 h 2.367 v 2.719 h -2.367 z"
       fill-rule="evenodd"
       id="path113" />
    <text
       fill="#000000"
       fill-opacity="0"
       font-family="Arial, Arial_MSFontService, sans-serif"
       font-size="2.71875px"
       x="822.526"
       y="267.509"
       id="text115">.</text>
    <path
       d="m 832.835,252.662 c -0.586,0 -1.082,0.101 -1.489,0.304 -0.406,0.204 -0.736,0.483 -0.99,0.838 -0.254,0.356 -0.439,0.774 -0.557,1.254 -0.117,0.481 -0.175,1.002 -0.175,1.565 0,1.164 0.238,2.066 0.715,2.707 0.476,0.64 1.148,0.961 2.015,0.961 0.297,0 0.58,-0.026 0.85,-0.077 0.269,-0.05 0.533,-0.125 0.791,-0.222 0.258,-0.098 0.51,-0.223 0.756,-0.375 0.246,-0.153 0.466,-0.315 0.662,-0.487 0.07,-0.062 0.133,-0.144 0.187,-0.246 0.055,-0.101 0.098,-0.234 0.129,-0.398 0.031,-0.164 0.047,-0.422 0.047,-0.773 0,-1.071 -0.107,-1.987 -0.322,-2.749 -0.215,-0.761 -0.543,-1.335 -0.985,-1.722 -0.441,-0.387 -0.986,-0.58 -1.634,-0.58 z m 0.129,-0.996 c 1.64,0 2.89,0.566 3.75,1.699 0.859,1.133 1.289,2.762 1.289,4.887 0,1.945 -0.317,3.63 -0.95,5.056 -0.632,1.426 -1.519,2.535 -2.66,3.328 -1.14,0.793 -2.472,1.26 -3.996,1.401 l -0.48,-0.645 v -0.574 c 1.093,0 2.041,-0.242 2.841,-0.727 0.801,-0.484 1.446,-1.201 1.934,-2.15 0.488,-0.949 0.815,-2.193 0.979,-3.732 l -0.118,-0.047 c -0.656,0.468 -1.302,0.812 -1.939,1.031 -0.637,0.219 -1.326,0.328 -2.068,0.328 -0.883,0 -1.635,-0.193 -2.256,-0.58 -0.621,-0.387 -1.088,-0.93 -1.401,-1.629 -0.312,-0.699 -0.468,-1.517 -0.468,-2.455 0,-0.703 0.117,-1.369 0.351,-1.998 0.235,-0.629 0.582,-1.18 1.043,-1.652 0.461,-0.473 1.037,-0.848 1.729,-1.125 0.691,-0.278 1.498,-0.416 2.42,-0.416 z m 16.304,-0.586 h 0.914 l -0.175,2.718 h -6.739 v 5.145 c 0.406,-0.172 0.848,-0.301 1.324,-0.387 0.477,-0.086 0.954,-0.129 1.43,-0.129 0.93,0 1.754,0.19 2.473,0.569 0.719,0.379 1.273,0.918 1.664,1.617 0.39,0.699 0.586,1.51 0.586,2.432 0,1.046 -0.219,1.945 -0.656,2.695 -0.438,0.75 -1.071,1.32 -1.899,1.711 -0.828,0.39 -1.808,0.586 -2.941,0.586 -1.352,0 -2.766,-0.278 -4.242,-0.832 v -2.485 h 1.417 c 0.235,0.797 0.588,1.383 1.061,1.758 0.473,0.375 1.084,0.563 1.834,0.563 1.039,0 1.824,-0.313 2.355,-0.938 0.532,-0.625 0.797,-1.558 0.797,-2.801 0,-0.828 -0.14,-1.513 -0.422,-2.056 -0.281,-0.543 -0.66,-0.936 -1.136,-1.178 -0.477,-0.242 -1.031,-0.363 -1.664,-0.363 -0.532,0 -0.989,0.033 -1.371,0.099 -0.383,0.067 -0.793,0.17 -1.231,0.311 l -0.937,-0.551 v -7.711 h 6.457 c 0.265,0 0.457,-0.021 0.574,-0.064 0.117,-0.043 0.211,-0.11 0.281,-0.2 0.07,-0.089 0.152,-0.259 0.246,-0.509 z"
       fill-rule="evenodd"
       id="path117" />
    <text
       fill="#000000"
       fill-opacity="0"
       font-family="Arial, Arial_MSFontService, sans-serif"
       font-size="16.957px"
       x="827.42102"
       y="265.91699"
       id="text119">95</text>
    <path
       d="m 919.973,252.662 c -0.539,0 -0.99,0.16 -1.353,0.48 -0.364,0.321 -0.656,0.781 -0.879,1.383 -0.223,0.602 -0.381,1.334 -0.475,2.197 -0.094,0.864 -0.14,1.838 -0.14,2.924 0,2.547 0.236,4.416 0.709,5.608 0.472,1.191 1.205,1.787 2.197,1.787 0.945,0 1.646,-0.561 2.103,-1.682 0.457,-1.121 0.686,-2.857 0.686,-5.209 0,-1.797 -0.117,-3.252 -0.352,-4.365 -0.234,-1.113 -0.56,-1.912 -0.978,-2.397 -0.418,-0.484 -0.924,-0.726 -1.518,-0.726 z m 0.059,-0.996 c 1.711,0 2.984,0.66 3.82,1.98 0.836,1.32 1.254,3.317 1.254,5.988 0,2.766 -0.447,4.858 -1.342,6.276 -0.894,1.418 -2.201,2.127 -3.92,2.127 -1.687,0 -2.943,-0.664 -3.767,-1.992 -0.824,-1.329 -1.237,-3.344 -1.237,-6.047 0,-1.438 0.127,-2.68 0.381,-3.727 0.254,-1.047 0.61,-1.912 1.067,-2.596 0.457,-0.683 1.006,-1.189 1.646,-1.517 0.641,-0.328 1.34,-0.492 2.098,-0.492 z"
       fill-rule="evenodd"
       id="path121" />
    <text
       fill="#000000"
       fill-opacity="0"
       font-family="Arial, Arial_MSFontService, sans-serif"
       font-size="16.3711px"
       x="914.84003"
       y="265.98999"
       id="text123">0</text>
    <path
       d="m 994.652,251.666 h 0.645 c -0.047,0.75 -0.07,1.789 -0.07,3.117 v 10.008 c 0,0.453 0.025,0.795 0.076,1.025 0.051,0.231 0.14,0.418 0.269,0.563 0.129,0.144 0.315,0.257 0.557,0.339 0.242,0.082 0.547,0.145 0.914,0.188 0.367,0.043 0.852,0.072 1.453,0.088 v 0.855 h -8.66 v -0.855 c 0.867,-0.039 1.486,-0.092 1.857,-0.158 0.371,-0.067 0.655,-0.166 0.85,-0.299 0.195,-0.133 0.338,-0.321 0.428,-0.563 0.09,-0.242 0.134,-0.636 0.134,-1.183 v -9.504 c 0,-0.313 -0.054,-0.541 -0.164,-0.686 -0.109,-0.144 -0.269,-0.217 -0.48,-0.217 -0.25,0 -0.606,0.129 -1.066,0.387 -0.461,0.258 -1.032,0.613 -1.711,1.067 l -0.516,-0.903 z"
       fill-rule="evenodd"
       id="path125" />
    <text
       fill="#000000"
       fill-opacity="0"
       font-family="Arial, Arial_MSFontService, sans-serif"
       font-size="16.1836px"
       x="989.16803"
       y="265.82599"
       id="text127">1</text>
    <path
       d="m 1009.05,254.572 5.31,5.297 5.31,-5.297 1.1,1.09 -5.25,5.343 5.26,5.321 -1.17,1.172 -5.25,-5.356 -5.41,5.309 -1.09,-1.102 5.35,-5.344 -5.33,-5.261 z"
       fill-rule="evenodd"
       id="path129" />
    <text
       fill="#000000"
       fill-opacity="0"
       font-family="Arial, Arial_MSFontService, sans-serif"
       font-size="12.9258px"
       x="1007.86"
       y="265.88199"
       id="text131">×</text>
    <path
       d="m 1034.89,252.662 c -0.54,0 -0.99,0.16 -1.35,0.48 -0.36,0.321 -0.66,0.781 -0.88,1.383 -0.22,0.602 -0.38,1.334 -0.47,2.197 -0.1,0.864 -0.14,1.838 -0.14,2.924 0,2.547 0.23,4.416 0.7,5.608 0.48,1.191 1.21,1.787 2.2,1.787 0.95,0 1.65,-0.561 2.11,-1.682 0.45,-1.121 0.68,-2.857 0.68,-5.209 0,-1.797 -0.12,-3.252 -0.35,-4.365 -0.23,-1.113 -0.56,-1.912 -0.98,-2.397 -0.42,-0.484 -0.92,-0.726 -1.52,-0.726 z m 0.06,-0.996 c 1.71,0 2.99,0.66 3.82,1.98 0.84,1.32 1.26,3.317 1.26,5.988 0,2.766 -0.45,4.858 -1.35,6.276 -0.89,1.418 -2.2,2.127 -3.92,2.127 -1.68,0 -2.94,-0.664 -3.76,-1.992 -0.83,-1.329 -1.24,-3.344 -1.24,-6.047 0,-1.438 0.13,-2.68 0.38,-3.727 0.26,-1.047 0.61,-1.912 1.07,-2.596 0.45,-0.683 1,-1.189 1.64,-1.517 0.64,-0.328 1.34,-0.492 2.1,-0.492 z"
       fill-rule="evenodd"
       id="path133" />
    <text
       fill="#000000"
       fill-opacity="0"
       font-family="Arial, Arial_MSFontService, sans-serif"
       font-size="16.3711px"
       x="1029.76"
       y="265.98999"
       id="text135">0</text>
    <path
       d="m 1042.86,265.13 h 2.37 v 2.719 h -2.37 z"
       fill-rule="evenodd"
       id="path137" />
    <text
       fill="#000000"
       fill-opacity="0"
       font-family="Arial, Arial_MSFontService, sans-serif"
       font-size="2.71875px"
       x="1042.86"
       y="267.509"
       id="text139">.</text>
    <path
       d="m 1053.17,252.662 c -0.59,0 -1.08,0.101 -1.49,0.304 -0.41,0.204 -0.74,0.483 -0.99,0.838 -0.25,0.356 -0.44,0.774 -0.56,1.254 -0.11,0.481 -0.17,1.002 -0.17,1.565 0,1.164 0.24,2.066 0.71,2.707 0.48,0.64 1.15,0.961 2.02,0.961 0.29,0 0.58,-0.026 0.85,-0.077 0.27,-0.05 0.53,-0.125 0.79,-0.222 0.26,-0.098 0.51,-0.223 0.75,-0.375 0.25,-0.153 0.47,-0.315 0.67,-0.487 0.07,-0.062 0.13,-0.144 0.18,-0.246 0.06,-0.101 0.1,-0.234 0.13,-0.398 0.03,-0.164 0.05,-0.422 0.05,-0.773 0,-1.071 -0.11,-1.987 -0.32,-2.749 -0.22,-0.761 -0.55,-1.335 -0.99,-1.722 -0.44,-0.387 -0.98,-0.58 -1.63,-0.58 z m 0.13,-0.996 c 1.64,0 2.89,0.566 3.75,1.699 0.86,1.133 1.29,2.762 1.29,4.887 0,1.945 -0.32,3.63 -0.95,5.056 -0.64,1.426 -1.52,2.535 -2.66,3.328 -1.14,0.793 -2.48,1.26 -4,1.401 l -0.48,-0.645 v -0.574 c 1.09,0 2.04,-0.242 2.84,-0.727 0.8,-0.484 1.45,-1.201 1.94,-2.15 0.48,-0.949 0.81,-2.193 0.97,-3.732 l -0.11,-0.047 c -0.66,0.468 -1.31,0.812 -1.94,1.031 -0.64,0.219 -1.33,0.328 -2.07,0.328 -0.88,0 -1.64,-0.193 -2.26,-0.58 -0.62,-0.387 -1.08,-0.93 -1.4,-1.629 -0.31,-0.699 -0.47,-1.517 -0.47,-2.455 0,-0.703 0.12,-1.369 0.36,-1.998 0.23,-0.629 0.58,-1.18 1.04,-1.652 0.46,-0.473 1.04,-0.848 1.73,-1.125 0.69,-0.278 1.5,-0.416 2.42,-0.416 z m 16.3,-0.586 h 0.92 l -0.18,2.718 h -6.74 v 5.145 c 0.41,-0.172 0.85,-0.301 1.33,-0.387 0.47,-0.086 0.95,-0.129 1.43,-0.129 0.93,0 1.75,0.19 2.47,0.569 0.72,0.379 1.27,0.918 1.66,1.617 0.39,0.699 0.59,1.51 0.59,2.432 0,1.046 -0.22,1.945 -0.66,2.695 -0.44,0.75 -1.07,1.32 -1.9,1.711 -0.82,0.39 -1.81,0.586 -2.94,0.586 -1.35,0 -2.76,-0.278 -4.24,-0.832 v -2.485 h 1.42 c 0.23,0.797 0.59,1.383 1.06,1.758 0.47,0.375 1.08,0.563 1.83,0.563 1.04,0 1.83,-0.313 2.36,-0.938 0.53,-0.625 0.79,-1.558 0.79,-2.801 0,-0.828 -0.14,-1.513 -0.42,-2.056 -0.28,-0.543 -0.66,-0.936 -1.13,-1.178 -0.48,-0.242 -1.04,-0.363 -1.67,-0.363 -0.53,0 -0.99,0.033 -1.37,0.099 -0.38,0.067 -0.79,0.17 -1.23,0.311 l -0.94,-0.551 v -7.711 h 6.46 c 0.27,0 0.46,-0.021 0.57,-0.064 0.12,-0.043 0.22,-0.11 0.29,-0.2 0.07,-0.089 0.15,-0.259 0.24,-0.509 z"
       fill-rule="evenodd"
       id="path141" />
    <text
       fill="#000000"
       fill-opacity="0"
       font-family="Arial, Arial_MSFontService, sans-serif"
       font-size="16.957px"
       x="1047.75"
       y="265.91699"
       id="text143">95</text>
    <path
       d="m 1103.89,252.662 c -0.54,0 -0.99,0.16 -1.35,0.48 -0.36,0.321 -0.66,0.781 -0.88,1.383 -0.22,0.602 -0.38,1.334 -0.47,2.197 -0.1,0.864 -0.14,1.838 -0.14,2.924 0,2.547 0.23,4.416 0.7,5.608 0.48,1.191 1.21,1.787 2.2,1.787 0.95,0 1.65,-0.561 2.11,-1.682 0.45,-1.121 0.68,-2.857 0.68,-5.209 0,-1.797 -0.12,-3.252 -0.35,-4.365 -0.23,-1.113 -0.56,-1.912 -0.98,-2.397 -0.42,-0.484 -0.92,-0.726 -1.52,-0.726 z m 0.06,-0.996 c 1.71,0 2.99,0.66 3.82,1.98 0.84,1.32 1.26,3.317 1.26,5.988 0,2.766 -0.45,4.858 -1.35,6.276 -0.89,1.418 -2.2,2.127 -3.92,2.127 -1.68,0 -2.94,-0.664 -3.76,-1.992 -0.83,-1.329 -1.24,-3.344 -1.24,-6.047 0,-1.438 0.13,-2.68 0.38,-3.727 0.26,-1.047 0.61,-1.912 1.07,-2.596 0.45,-0.683 1,-1.189 1.64,-1.517 0.64,-0.328 1.34,-0.492 2.1,-0.492 z"
       fill-rule="evenodd"
       id="path145" />
    <text
       fill="#000000"
       fill-opacity="0"
       font-family="Arial, Arial_MSFontService, sans-serif"
       font-size="16.3711px"
       x="1098.76"
       y="265.98999"
       id="text147">0</text>
    <path
       d="m 741.727,280.802 c -0.539,0 -0.991,0.16 -1.354,0.48 -0.363,0.321 -0.656,0.781 -0.879,1.383 -0.223,0.602 -0.381,1.334 -0.474,2.197 -0.094,0.864 -0.141,1.838 -0.141,2.924 0,2.547 0.236,4.416 0.709,5.608 0.473,1.191 1.205,1.787 2.197,1.787 0.945,0 1.647,-0.561 2.104,-1.682 0.457,-1.121 0.685,-2.857 0.685,-5.209 0,-1.797 -0.117,-3.252 -0.351,-4.365 -0.235,-1.114 -0.561,-1.912 -0.979,-2.397 -0.418,-0.484 -0.924,-0.726 -1.517,-0.726 z m 0.058,-0.996 c 1.711,0 2.985,0.66 3.82,1.98 0.836,1.32 1.254,3.317 1.254,5.988 0,2.766 -0.447,4.858 -1.341,6.276 -0.895,1.418 -2.202,2.127 -3.92,2.127 -1.688,0 -2.944,-0.664 -3.768,-1.992 -0.824,-1.329 -1.236,-3.344 -1.236,-6.047 0,-1.438 0.127,-2.68 0.381,-3.727 0.254,-1.047 0.609,-1.912 1.066,-2.596 0.457,-0.683 1.006,-1.189 1.647,-1.517 0.64,-0.328 1.339,-0.492 2.097,-0.492 z"
       fill-rule="evenodd"
       id="path149" />
    <text
       fill="#000000"
       fill-opacity="0"
       font-family="Arial, Arial_MSFontService, sans-serif"
       font-size="16.3711px"
       x="736.59399"
       y="294.13"
       id="text151">0</text>
    <path
       d="m 749.693,293.27 h 2.367 v 2.719 h -2.367 z"
       fill-rule="evenodd"
       id="path153" />
    <text
       fill="#000000"
       fill-opacity="0"
       font-family="Arial, Arial_MSFontService, sans-serif"
       font-size="2.71875px"
       x="749.69299"
       y="295.64899"
       id="text155">.</text>
    <path
       d="m 760.06,280.802 c -0.539,0 -0.99,0.16 -1.354,0.48 -0.363,0.321 -0.656,0.781 -0.878,1.383 -0.223,0.602 -0.381,1.334 -0.475,2.197 -0.094,0.864 -0.141,1.838 -0.141,2.924 0,2.547 0.237,4.416 0.709,5.608 0.473,1.191 1.205,1.787 2.198,1.787 0.945,0 1.646,-0.561 2.103,-1.682 0.457,-1.121 0.686,-2.857 0.686,-5.209 0,-1.797 -0.118,-3.252 -0.352,-4.365 -0.234,-1.114 -0.561,-1.912 -0.978,-2.397 -0.418,-0.484 -0.924,-0.726 -1.518,-0.726 z m 0.059,-0.996 c 1.71,0 2.984,0.66 3.82,1.98 0.836,1.32 1.254,3.317 1.254,5.988 0,2.766 -0.448,4.858 -1.342,6.276 -0.895,1.418 -2.201,2.127 -3.92,2.127 -1.687,0 -2.943,-0.664 -3.768,-1.992 -0.824,-1.329 -1.236,-3.344 -1.236,-6.047 0,-1.438 0.127,-2.68 0.381,-3.727 0.254,-1.047 0.609,-1.912 1.066,-2.596 0.457,-0.683 1.006,-1.189 1.647,-1.517 0.64,-0.328 1.34,-0.492 2.098,-0.492 z m 16.316,-0.586 h 0.914 l -0.176,2.718 h -6.738 v 5.145 c 0.406,-0.172 0.848,-0.301 1.324,-0.387 0.477,-0.086 0.953,-0.129 1.43,-0.129 0.93,0 1.754,0.19 2.472,0.569 0.719,0.379 1.274,0.918 1.665,1.617 0.39,0.699 0.585,1.51 0.585,2.432 0,1.046 -0.218,1.945 -0.656,2.695 -0.437,0.75 -1.07,1.32 -1.898,1.711 -0.828,0.39 -1.809,0.586 -2.942,0.586 -1.351,0 -2.765,-0.278 -4.242,-0.832 v -2.485 h 1.418 c 0.235,0.797 0.588,1.383 1.061,1.758 0.472,0.375 1.084,0.563 1.834,0.563 1.039,0 1.824,-0.313 2.355,-0.938 0.531,-0.625 0.797,-1.558 0.797,-2.801 0,-0.828 -0.141,-1.513 -0.422,-2.056 -0.281,-0.543 -0.66,-0.936 -1.137,-1.178 -0.476,-0.242 -1.031,-0.363 -1.664,-0.363 -0.531,0 -0.988,0.033 -1.371,0.099 -0.383,0.067 -0.793,0.17 -1.23,0.311 l -0.938,-0.551 v -7.711 h 6.457 c 0.266,0 0.457,-0.021 0.575,-0.064 0.117,-0.043 0.211,-0.11 0.281,-0.2 0.07,-0.089 0.152,-0.259 0.246,-0.509 z"
       fill-rule="evenodd"
       id="path157" />
    <text
       fill="#000000"
       fill-opacity="0"
       font-family="Arial, Arial_MSFontService, sans-serif"
       font-size="16.957px"
       x="754.927"
       y="294.05701"
       id="text159">05</text>
    <path
       d="m 788.72,282.712 5.309,5.297 5.308,-5.297 1.102,1.09 -5.25,5.343 5.262,5.321 -1.172,1.172 -5.25,-5.356 -5.414,5.309 -1.09,-1.102 5.355,-5.344 -5.332,-5.261 z"
       fill-rule="evenodd"
       id="path161" />
    <text
       fill="#000000"
       fill-opacity="0"
       font-family="Arial, Arial_MSFontService, sans-serif"
       font-size="12.9258px"
       x="787.52502"
       y="294.022"
       id="text163">×</text>
    <path
       d="m 814.56,280.802 c -0.539,0 -0.99,0.16 -1.354,0.48 -0.363,0.321 -0.656,0.781 -0.878,1.383 -0.223,0.602 -0.381,1.334 -0.475,2.197 -0.094,0.864 -0.141,1.838 -0.141,2.924 0,2.547 0.237,4.416 0.709,5.608 0.473,1.191 1.205,1.787 2.198,1.787 0.945,0 1.646,-0.561 2.103,-1.682 0.457,-1.121 0.686,-2.857 0.686,-5.209 0,-1.797 -0.118,-3.252 -0.352,-4.365 -0.234,-1.114 -0.561,-1.912 -0.978,-2.397 -0.418,-0.484 -0.924,-0.726 -1.518,-0.726 z m 0.059,-0.996 c 1.71,0 2.984,0.66 3.82,1.98 0.836,1.32 1.254,3.317 1.254,5.988 0,2.766 -0.448,4.858 -1.342,6.276 -0.895,1.418 -2.201,2.127 -3.92,2.127 -1.687,0 -2.943,-0.664 -3.768,-1.992 -0.824,-1.329 -1.236,-3.344 -1.236,-6.047 0,-1.438 0.127,-2.68 0.381,-3.727 0.254,-1.047 0.609,-1.912 1.066,-2.596 0.457,-0.683 1.006,-1.189 1.647,-1.517 0.64,-0.328 1.34,-0.492 2.098,-0.492 z"
       fill-rule="evenodd"
       id="path165" />
    <text
       fill="#000000"
       fill-opacity="0"
       font-family="Arial, Arial_MSFontService, sans-serif"
       font-size="16.3711px"
       x="809.427"
       y="294.13"
       id="text167">0</text>
    <path
       d="m 822.526,293.27 h 2.367 v 2.719 h -2.367 z"
       fill-rule="evenodd"
       id="path169" />
    <text
       fill="#000000"
       fill-opacity="0"
       font-family="Arial, Arial_MSFontService, sans-serif"
       font-size="2.71875px"
       x="822.526"
       y="295.64899"
       id="text171">.</text>
    <path
       d="m 832.893,280.802 c -0.539,0 -0.99,0.16 -1.353,0.48 -0.364,0.321 -0.657,0.781 -0.879,1.383 -0.223,0.602 -0.381,1.334 -0.475,2.197 -0.094,0.864 -0.14,1.838 -0.14,2.924 0,2.547 0.236,4.416 0.709,5.608 0.472,1.191 1.205,1.787 2.197,1.787 0.945,0 1.646,-0.561 2.103,-1.682 0.457,-1.121 0.686,-2.857 0.686,-5.209 0,-1.797 -0.117,-3.252 -0.352,-4.365 -0.234,-1.114 -0.56,-1.912 -0.978,-2.397 -0.418,-0.484 -0.924,-0.726 -1.518,-0.726 z m 0.059,-0.996 c 1.711,0 2.984,0.66 3.82,1.98 0.836,1.32 1.254,3.317 1.254,5.988 0,2.766 -0.447,4.858 -1.342,6.276 -0.894,1.418 -2.201,2.127 -3.92,2.127 -1.687,0 -2.943,-0.664 -3.767,-1.992 -0.824,-1.329 -1.237,-3.344 -1.237,-6.047 0,-1.438 0.127,-2.68 0.381,-3.727 0.254,-1.047 0.61,-1.912 1.067,-2.596 0.457,-0.683 1.006,-1.189 1.646,-1.517 0.641,-0.328 1.34,-0.492 2.098,-0.492 z m 16.316,-0.586 h 0.914 l -0.175,2.718 h -6.739 v 5.145 c 0.406,-0.172 0.848,-0.301 1.324,-0.387 0.477,-0.086 0.954,-0.129 1.43,-0.129 0.93,0 1.754,0.19 2.473,0.569 0.719,0.379 1.273,0.918 1.664,1.617 0.39,0.699 0.586,1.51 0.586,2.432 0,1.046 -0.219,1.945 -0.656,2.695 -0.438,0.75 -1.071,1.32 -1.899,1.711 -0.828,0.39 -1.808,0.586 -2.941,0.586 -1.352,0 -2.766,-0.278 -4.242,-0.832 v -2.485 h 1.417 c 0.235,0.797 0.588,1.383 1.061,1.758 0.473,0.375 1.084,0.563 1.834,0.563 1.039,0 1.824,-0.313 2.355,-0.938 0.532,-0.625 0.797,-1.558 0.797,-2.801 0,-0.828 -0.14,-1.513 -0.422,-2.056 -0.281,-0.543 -0.66,-0.936 -1.136,-1.178 -0.477,-0.242 -1.031,-0.363 -1.664,-0.363 -0.532,0 -0.989,0.033 -1.371,0.099 -0.383,0.067 -0.793,0.17 -1.231,0.311 l -0.937,-0.551 v -7.711 h 6.457 c 0.265,0 0.457,-0.021 0.574,-0.064 0.117,-0.043 0.211,-0.11 0.281,-0.2 0.07,-0.089 0.152,-0.259 0.246,-0.509 z"
       fill-rule="evenodd"
       id="path173" />
    <text
       fill="#000000"
       fill-opacity="0"
       font-family="Arial, Arial_MSFontService, sans-serif"
       font-size="16.957px"
       x="827.76001"
       y="294.05701"
       id="text175">05</text>
    <path
       d="m 883.56,280.802 c -0.539,0 -0.99,0.16 -1.354,0.48 -0.363,0.321 -0.656,0.781 -0.878,1.383 -0.223,0.602 -0.381,1.334 -0.475,2.197 -0.094,0.864 -0.141,1.838 -0.141,2.924 0,2.547 0.237,4.416 0.709,5.608 0.473,1.191 1.205,1.787 2.198,1.787 0.945,0 1.646,-0.561 2.103,-1.682 0.457,-1.121 0.686,-2.857 0.686,-5.209 0,-1.797 -0.118,-3.252 -0.352,-4.365 -0.234,-1.114 -0.561,-1.912 -0.978,-2.397 -0.418,-0.484 -0.924,-0.726 -1.518,-0.726 z m 0.059,-0.996 c 1.71,0 2.984,0.66 3.82,1.98 0.836,1.32 1.254,3.317 1.254,5.988 0,2.766 -0.448,4.858 -1.342,6.276 -0.895,1.418 -2.201,2.127 -3.92,2.127 -1.687,0 -2.943,-0.664 -3.768,-1.992 -0.824,-1.329 -1.236,-3.344 -1.236,-6.047 0,-1.438 0.127,-2.68 0.381,-3.727 0.254,-1.047 0.609,-1.912 1.066,-2.596 0.457,-0.683 1.006,-1.189 1.647,-1.517 0.64,-0.328 1.34,-0.492 2.098,-0.492 z"
       fill-rule="evenodd"
       id="path177" />
    <text
       fill="#000000"
       fill-opacity="0"
       font-family="Arial, Arial_MSFontService, sans-serif"
       font-size="16.3711px"
       x="878.427"
       y="294.13"
       id="text179">0</text>
    <path
       d="m 891.526,293.27 h 2.367 v 2.719 h -2.367 z"
       fill-rule="evenodd"
       id="path181" />
    <text
       fill="#000000"
       fill-opacity="0"
       font-family="Arial, Arial_MSFontService, sans-serif"
       font-size="2.71875px"
       x="891.526"
       y="295.64899"
       id="text183">.</text>
    <path
       d="m 901.893,280.802 c -0.539,0 -0.99,0.16 -1.353,0.48 -0.364,0.321 -0.657,0.781 -0.879,1.383 -0.223,0.602 -0.381,1.334 -0.475,2.197 -0.094,0.864 -0.14,1.838 -0.14,2.924 0,2.547 0.236,4.416 0.709,5.608 0.472,1.191 1.205,1.787 2.197,1.787 0.945,0 1.646,-0.561 2.103,-1.682 0.457,-1.121 0.686,-2.857 0.686,-5.209 0,-1.797 -0.117,-3.252 -0.352,-4.365 -0.234,-1.114 -0.56,-1.912 -0.978,-2.397 -0.418,-0.484 -0.924,-0.726 -1.518,-0.726 z m 0.059,-0.996 c 1.711,0 2.984,0.66 3.82,1.98 0.836,1.32 1.254,3.317 1.254,5.988 0,2.766 -0.447,4.858 -1.342,6.276 -0.894,1.418 -2.201,2.127 -3.92,2.127 -1.687,0 -2.943,-0.664 -3.767,-1.992 -0.824,-1.329 -1.237,-3.344 -1.237,-6.047 0,-1.438 0.127,-2.68 0.381,-3.727 0.254,-1.047 0.61,-1.912 1.067,-2.596 0.457,-0.683 1.006,-1.189 1.646,-1.517 0.641,-0.328 1.34,-0.492 2.098,-0.492 z m 16.316,-0.586 h 0.914 l -0.175,2.718 h -6.739 v 5.145 c 0.406,-0.172 0.848,-0.301 1.324,-0.387 0.477,-0.086 0.954,-0.129 1.43,-0.129 0.93,0 1.754,0.19 2.473,0.569 0.719,0.379 1.273,0.918 1.664,1.617 0.39,0.699 0.586,1.51 0.586,2.432 0,1.046 -0.219,1.945 -0.656,2.695 -0.438,0.75 -1.071,1.32 -1.899,1.711 -0.828,0.39 -1.808,0.586 -2.941,0.586 -1.352,0 -2.766,-0.278 -4.242,-0.832 v -2.485 h 1.417 c 0.235,0.797 0.588,1.383 1.061,1.758 0.473,0.375 1.084,0.563 1.834,0.563 1.039,0 1.824,-0.313 2.355,-0.938 0.532,-0.625 0.797,-1.558 0.797,-2.801 0,-0.828 -0.14,-1.513 -0.422,-2.056 -0.281,-0.543 -0.66,-0.936 -1.136,-1.178 -0.477,-0.242 -1.031,-0.363 -1.664,-0.363 -0.532,0 -0.989,0.033 -1.371,0.099 -0.383,0.067 -0.793,0.17 -1.231,0.311 l -0.937,-0.551 v -7.711 h 6.457 c 0.265,0 0.457,-0.021 0.574,-0.064 0.117,-0.043 0.211,-0.11 0.281,-0.2 0.07,-0.089 0.152,-0.259 0.246,-0.509 z"
       fill-rule="evenodd"
       id="path185" />
    <text
       fill="#000000"
       fill-opacity="0"
       font-family="Arial, Arial_MSFontService, sans-serif"
       font-size="16.957px"
       x="896.76001"
       y="294.05701"
       id="text187">05</text>
    <path
       d="m 930.553,282.712 5.309,5.297 5.309,-5.297 1.101,1.09 -5.25,5.343 5.262,5.321 -1.172,1.172 -5.25,-5.356 -5.414,5.309 -1.09,-1.102 5.356,-5.344 -5.332,-5.261 z"
       fill-rule="evenodd"
       id="path189" />
    <text
       fill="#000000"
       fill-opacity="0"
       font-family="Arial, Arial_MSFontService, sans-serif"
       font-size="12.9258px"
       x="929.35797"
       y="294.022"
       id="text191">×</text>
    <path
       d="m 957.319,279.806 h 0.645 c -0.047,0.75 -0.071,1.789 -0.071,3.117 v 10.008 c 0,0.453 0.026,0.795 0.076,1.025 0.051,0.23 0.141,0.418 0.27,0.563 0.129,0.144 0.314,0.257 0.557,0.339 0.242,0.082 0.546,0.145 0.914,0.188 0.367,0.043 0.851,0.072 1.453,0.088 v 0.855 h -8.66 v -0.855 c 0.867,-0.039 1.486,-0.092 1.857,-0.158 0.371,-0.067 0.654,-0.166 0.85,-0.299 0.195,-0.133 0.338,-0.321 0.427,-0.563 0.09,-0.242 0.135,-0.636 0.135,-1.183 v -9.504 c 0,-0.313 -0.055,-0.541 -0.164,-0.686 -0.109,-0.144 -0.269,-0.217 -0.48,-0.217 -0.25,0 -0.606,0.129 -1.067,0.387 -0.461,0.258 -1.031,0.613 -1.711,1.067 l -0.515,-0.903 z"
       fill-rule="evenodd"
       id="path193" />
    <text
       fill="#000000"
       fill-opacity="0"
       font-family="Arial, Arial_MSFontService, sans-serif"
       font-size="16.1836px"
       x="951.83502"
       y="293.966"
       id="text195">1</text>
    <path
       d="m 994.652,279.806 h 0.645 c -0.047,0.75 -0.07,1.789 -0.07,3.117 v 10.008 c 0,0.453 0.025,0.795 0.076,1.025 0.051,0.23 0.14,0.418 0.269,0.563 0.129,0.144 0.315,0.257 0.557,0.339 0.242,0.082 0.547,0.145 0.914,0.188 0.367,0.043 0.852,0.072 1.453,0.088 v 0.855 h -8.66 v -0.855 c 0.867,-0.039 1.486,-0.092 1.857,-0.158 0.371,-0.067 0.655,-0.166 0.85,-0.299 0.195,-0.133 0.338,-0.321 0.428,-0.563 0.09,-0.242 0.134,-0.636 0.134,-1.183 v -9.504 c 0,-0.313 -0.054,-0.541 -0.164,-0.686 -0.109,-0.144 -0.269,-0.217 -0.48,-0.217 -0.25,0 -0.606,0.129 -1.066,0.387 -0.461,0.258 -1.032,0.613 -1.711,1.067 l -0.516,-0.903 z"
       fill-rule="evenodd"
       id="path197" />
    <text
       fill="#000000"
       fill-opacity="0"
       font-family="Arial, Arial_MSFontService, sans-serif"
       font-size="16.1836px"
       x="989.16803"
       y="293.966"
       id="text199">1</text>
    <path
       d="m 1009.05,282.712 5.31,5.297 5.31,-5.297 1.1,1.09 -5.25,5.343 5.26,5.321 -1.17,1.172 -5.25,-5.356 -5.41,5.309 -1.09,-1.102 5.35,-5.344 -5.33,-5.261 z"
       fill-rule="evenodd"
       id="path201" />
    <text
       fill="#000000"
       fill-opacity="0"
       font-family="Arial, Arial_MSFontService, sans-serif"
       font-size="12.9258px"
       x="1007.86"
       y="294.022"
       id="text203">×</text>
    <path
       d="m 1034.89,280.802 c -0.54,0 -0.99,0.16 -1.35,0.48 -0.36,0.321 -0.66,0.781 -0.88,1.383 -0.22,0.602 -0.38,1.334 -0.47,2.197 -0.1,0.864 -0.14,1.838 -0.14,2.924 0,2.547 0.23,4.416 0.7,5.608 0.48,1.191 1.21,1.787 2.2,1.787 0.95,0 1.65,-0.561 2.11,-1.682 0.45,-1.121 0.68,-2.857 0.68,-5.209 0,-1.797 -0.12,-3.252 -0.35,-4.365 -0.23,-1.114 -0.56,-1.912 -0.98,-2.397 -0.42,-0.484 -0.92,-0.726 -1.52,-0.726 z m 0.06,-0.996 c 1.71,0 2.99,0.66 3.82,1.98 0.84,1.32 1.26,3.317 1.26,5.988 0,2.766 -0.45,4.858 -1.35,6.276 -0.89,1.418 -2.2,2.127 -3.92,2.127 -1.68,0 -2.94,-0.664 -3.76,-1.992 -0.83,-1.329 -1.24,-3.344 -1.24,-6.047 0,-1.438 0.13,-2.68 0.38,-3.727 0.26,-1.047 0.61,-1.912 1.07,-2.596 0.45,-0.683 1,-1.189 1.64,-1.517 0.64,-0.328 1.34,-0.492 2.1,-0.492 z"
       fill-rule="evenodd"
       id="path205" />
    <text
       fill="#000000"
       fill-opacity="0"
       font-family="Arial, Arial_MSFontService, sans-serif"
       font-size="16.3711px"
       x="1029.76"
       y="294.13"
       id="text207">0</text>
    <path
       d="m 1042.86,293.27 h 2.37 v 2.719 h -2.37 z"
       fill-rule="evenodd"
       id="path209" />
    <text
       fill="#000000"
       fill-opacity="0"
       font-family="Arial, Arial_MSFontService, sans-serif"
       font-size="2.71875px"
       x="1042.86"
       y="295.64899"
       id="text211">.</text>
    <path
       d="m 1053.23,280.802 c -0.54,0 -0.99,0.16 -1.36,0.48 -0.36,0.321 -0.65,0.781 -0.88,1.383 -0.22,0.602 -0.38,1.334 -0.47,2.197 -0.09,0.864 -0.14,1.838 -0.14,2.924 0,2.547 0.24,4.416 0.71,5.608 0.47,1.191 1.2,1.787 2.2,1.787 0.94,0 1.64,-0.561 2.1,-1.682 0.46,-1.121 0.68,-2.857 0.68,-5.209 0,-1.797 -0.11,-3.252 -0.35,-4.365 -0.23,-1.114 -0.56,-1.912 -0.98,-2.397 -0.41,-0.484 -0.92,-0.726 -1.51,-0.726 z m 0.06,-0.996 c 1.71,0 2.98,0.66 3.82,1.98 0.83,1.32 1.25,3.317 1.25,5.988 0,2.766 -0.45,4.858 -1.34,6.276 -0.9,1.418 -2.2,2.127 -3.92,2.127 -1.69,0 -2.95,-0.664 -3.77,-1.992 -0.82,-1.329 -1.24,-3.344 -1.24,-6.047 0,-1.438 0.13,-2.68 0.38,-3.727 0.26,-1.047 0.61,-1.912 1.07,-2.596 0.46,-0.683 1.01,-1.189 1.65,-1.517 0.64,-0.328 1.34,-0.492 2.1,-0.492 z m 16.31,-0.586 h 0.92 l -0.18,2.718 h -6.74 v 5.145 c 0.41,-0.172 0.85,-0.301 1.33,-0.387 0.47,-0.086 0.95,-0.129 1.43,-0.129 0.93,0 1.75,0.19 2.47,0.569 0.72,0.379 1.27,0.918 1.66,1.617 0.39,0.699 0.59,1.51 0.59,2.432 0,1.046 -0.22,1.945 -0.66,2.695 -0.44,0.75 -1.07,1.32 -1.9,1.711 -0.82,0.39 -1.81,0.586 -2.94,0.586 -1.35,0 -2.76,-0.278 -4.24,-0.832 v -2.485 h 1.42 c 0.23,0.797 0.59,1.383 1.06,1.758 0.47,0.375 1.08,0.563 1.83,0.563 1.04,0 1.83,-0.313 2.36,-0.938 0.53,-0.625 0.79,-1.558 0.79,-2.801 0,-0.828 -0.14,-1.513 -0.42,-2.056 -0.28,-0.543 -0.66,-0.936 -1.13,-1.178 -0.48,-0.242 -1.04,-0.363 -1.67,-0.363 -0.53,0 -0.99,0.033 -1.37,0.099 -0.38,0.067 -0.79,0.17 -1.23,0.311 l -0.94,-0.551 v -7.711 h 6.46 c 0.27,0 0.46,-0.021 0.57,-0.064 0.12,-0.043 0.22,-0.11 0.29,-0.2 0.07,-0.089 0.15,-0.259 0.24,-0.509 z"
       fill-rule="evenodd"
       id="path213" />
    <text
       fill="#000000"
       fill-opacity="0"
       font-family="Arial, Arial_MSFontService, sans-serif"
       font-size="16.957px"
       x="1048.09"
       y="294.05701"
       id="text215">05</text>
    <path
       d="m 1104.82,279.806 h 0.64 c -0.04,0.75 -0.07,1.789 -0.07,3.117 v 10.008 c 0,0.453 0.03,0.795 0.08,1.025 0.05,0.23 0.14,0.418 0.27,0.563 0.13,0.144 0.31,0.257 0.56,0.339 0.24,0.082 0.54,0.145 0.91,0.188 0.37,0.043 0.85,0.072 1.45,0.088 v 0.855 H 1100 v -0.855 c 0.87,-0.039 1.49,-0.092 1.86,-0.158 0.37,-0.067 0.65,-0.166 0.85,-0.299 0.2,-0.133 0.34,-0.321 0.43,-0.563 0.09,-0.242 0.13,-0.636 0.13,-1.183 v -9.504 c 0,-0.313 -0.05,-0.541 -0.16,-0.686 -0.11,-0.144 -0.27,-0.217 -0.48,-0.217 -0.25,0 -0.61,0.129 -1.07,0.387 -0.46,0.258 -1.03,0.613 -1.71,1.067 l -0.52,-0.903 z"
       fill-rule="evenodd"
       id="path217" />
    <text
       fill="#000000"
       fill-opacity="0"
       font-family="Arial, Arial_MSFontService, sans-serif"
       font-size="16.1836px"
       x="1099.33"
       y="293.966"
       id="text219">1</text>
    <text
       font-family="Calibri, Calibri_MSFontService, sans-serif"
       font-weight="400"
       font-size="27px"
       transform="translate(90.1678,171)"
       id="text259">Imagine there are 4 possible states: <tspan
   font-family="Arial, Arial_MSFontService, sans-serif"
   font-size="24px"
   x="48"
   y="29"
   id="tspan221">•</tspan><tspan
   font-size="24px"
   x="78"
   y="29"
   id="tspan223">S1: Object A</tspan><tspan
   font-size="24px"
   x="202.33299"
   y="29"
   id="tspan225">and</tspan><tspan
   font-size="24px"
   x="244.66701"
   y="29"
   id="tspan227">B are</tspan><tspan
   font-size="24px"
   x="300.18701"
   y="29"
   id="tspan229">both</tspan><tspan
   font-size="24px"
   x="351.68701"
   y="29"
   id="tspan231">working.</tspan><tspan
   font-family="Arial, Arial_MSFontService, sans-serif"
   font-size="24px"
   x="48"
   y="58"
   id="tspan233">•</tspan><tspan
   font-size="24px"
   x="78"
   y="58"
   id="tspan235">S2: Only object A is working.</tspan><tspan
   font-family="Arial, Arial_MSFontService, sans-serif"
   font-size="24px"
   x="48"
   y="87"
   id="tspan237">•</tspan><tspan
   font-size="24px"
   x="78"
   y="87"
   id="tspan239">S3: Only object</tspan><tspan
   font-size="24px"
   x="230.16701"
   y="87"
   id="tspan241">B</tspan><tspan
   font-size="24px"
   x="248.66701"
   y="87"
   id="tspan243">is</tspan><tspan
   font-size="24px"
   x="269"
   y="87"
   id="tspan245">working.</tspan><tspan
   font-family="Arial, Arial_MSFontService, sans-serif"
   font-size="24px"
   x="48"
   y="116"
   id="tspan247">•</tspan><tspan
   font-size="24px"
   x="78"
   y="116"
   id="tspan249">S4: Object A and B are both not working.</tspan><tspan
   font-size="24px"
   x="0"
   y="183"
   id="tspan251">We know that P(working) = 0.95 and P(not working) = 0.05.</tspan><tspan
   font-size="24px"
   x="0"
   y="225"
   id="tspan253">A stochastic matrix T</tspan><tspan
   font-size="24px"
   x="201.17999"
   y="225"
   id="tspan255">(</tspan><tspan
   font-family="'Cambria Math', 'Cambria Math_MSFontService', sans-serif"
   font-size="24px"
   x="208.513"
   y="225"
   id="tspan257">𝑥</tspan></text>
    <path
       d="m 8.83594,-15.668 -2.94141,2.543 -0.62109,-0.7031 1.875,-1.6289 H 0 v -1.1016 h 7.14844 l -1.875,-1.6289 0.62109,-0.7031 2.94141,2.5429 z"
       transform="translate(302.474,396)"
       id="path261" />
    <text
       font-family="Calibri, Calibri_MSFontService, sans-serif"
       font-weight="400"
       font-size="24px"
       transform="translate(312.241,396)"
       id="text291">)<tspan
   font-size="24px"
   x="12.8333"
   y="0"
   id="tspan263">contains information about the probability of one state transitioning to another state.</tspan><tspan
   font-size="24px"
   x="470.96301"
   y="-226"
   id="tspan265">S1</tspan><tspan
   font-size="24px"
   x="597.20203"
   y="-226"
   id="tspan267">S2</tspan><tspan
   font-size="24px"
   x="707.96002"
   y="-226"
   id="tspan269">S3</tspan><tspan
   font-size="24px"
   x="782.61499"
   y="-226"
   id="tspan271">S4</tspan><tspan
   font-size="24px"
   x="369.763"
   y="-185"
   id="tspan273">S1</tspan><tspan
   font-size="24px"
   x="370.384"
   y="-156"
   id="tspan275">S2</tspan><tspan
   font-size="24px"
   x="369.763"
   y="-128"
   id="tspan277">S3</tspan><tspan
   font-size="24px"
   x="370.384"
   y="-100"
   id="tspan279">S4</tspan><tspan
   font-size="24px"
   x="589.284"
   y="-259"
   id="tspan281">FROM</tspan><tspan
   font-size="24px"
   x="320.47299"
   y="-142"
   id="tspan283">TO</tspan><tspan
   font-size="24px"
   x="-222.285"
   y="95"
   id="tspan285">To compute the state at 10 days, we compute T</tspan><tspan
   font-size="16px"
   x="237.521"
   y="88"
   id="tspan287">10</tspan><tspan
   font-size="24px"
   x="253.855"
   y="95"
   id="tspan289">(</tspan></text>
    <path
       d="m 578.058,479.396 c 0.242,0 0.455,0.027 0.639,0.082 0.183,0.055 0.346,0.139 0.486,0.252 0.141,0.113 0.266,0.26 0.375,0.439 0.11,0.18 0.215,0.424 0.317,0.733 0.101,0.308 0.197,0.691 0.287,1.148 0.09,0.457 0.17,0.932 0.24,1.424 h 0.117 c 0.75,-1.055 1.318,-1.826 1.705,-2.314 0.387,-0.489 0.713,-0.852 0.979,-1.09 0.265,-0.238 0.521,-0.406 0.767,-0.504 0.246,-0.098 0.573,-0.147 0.979,-0.147 0.367,0 0.668,0.047 0.902,0.141 l -0.469,2.121 h -0.82 c -0.047,-0.328 -0.184,-0.492 -0.41,-0.492 -0.07,0 -0.145,0.012 -0.223,0.035 -0.078,0.024 -0.174,0.074 -0.287,0.152 -0.113,0.079 -0.279,0.231 -0.498,0.457 -0.219,0.227 -0.465,0.504 -0.738,0.832 -0.274,0.329 -0.555,0.672 -0.844,1.032 l -0.797,0.996 c 0.141,0.75 0.274,1.398 0.399,1.945 0.125,0.547 0.236,1.002 0.334,1.365 0.097,0.364 0.183,0.651 0.257,0.862 0.075,0.211 0.155,0.369 0.241,0.474 0.086,0.106 0.173,0.18 0.263,0.223 0.09,0.043 0.194,0.064 0.311,0.064 0.211,0 0.416,-0.082 0.615,-0.246 0.199,-0.164 0.486,-0.535 0.861,-1.113 l 0.762,0.504 c -0.547,0.812 -1.041,1.385 -1.482,1.717 -0.442,0.332 -0.967,0.498 -1.576,0.498 -0.336,0 -0.622,-0.061 -0.856,-0.182 -0.234,-0.121 -0.437,-0.314 -0.609,-0.58 -0.172,-0.266 -0.324,-0.68 -0.457,-1.242 -0.242,-1 -0.391,-1.766 -0.446,-2.297 h -0.117 c -0.828,1.164 -1.443,2 -1.846,2.508 -0.402,0.508 -0.734,0.883 -0.996,1.125 -0.261,0.242 -0.515,0.412 -0.761,0.51 -0.246,0.097 -0.573,0.146 -0.979,0.146 -0.367,0 -0.668,-0.047 -0.902,-0.141 l 0.469,-2.121 h 0.82 c 0.047,0.328 0.183,0.493 0.41,0.493 0.109,0 0.225,-0.03 0.346,-0.088 0.121,-0.059 0.295,-0.2 0.521,-0.422 0.227,-0.223 0.539,-0.572 0.938,-1.049 0.398,-0.477 0.976,-1.191 1.734,-2.145 -0.117,-0.617 -0.238,-1.211 -0.363,-1.781 -0.125,-0.57 -0.254,-1.101 -0.387,-1.594 -0.133,-0.492 -0.242,-0.814 -0.328,-0.966 -0.086,-0.153 -0.178,-0.258 -0.275,-0.317 -0.098,-0.058 -0.221,-0.088 -0.37,-0.088 -0.164,0 -0.312,0.037 -0.445,0.112 -0.133,0.074 -0.277,0.203 -0.433,0.386 -0.157,0.184 -0.364,0.471 -0.622,0.862 l -0.761,-0.504 c 0.492,-0.742 0.965,-1.297 1.418,-1.664 0.453,-0.367 0.988,-0.551 1.605,-0.551 z"
       fill-rule="evenodd"
       id="path293" />
    <text
       fill="#000000"
       fill-opacity="0"
       font-family="Arial, Arial_MSFontService, sans-serif"
       font-size="11.5898px"
       x="573.78101"
       y="489.53699"
       id="text295">𝑥</text>
    <path
       d="m 583.117,471.908 2.942,2.543 v 0.679 l -2.942,2.543 -0.621,-0.703 1.875,-1.629 h -7.148 v -1.101 h 7.148 l -1.875,-1.629 z"
       fill-rule="evenodd"
       id="path297" />
    <text
       fill="#000000"
       fill-opacity="0"
       font-family="Arial, Arial_MSFontService, sans-serif"
       font-size="5.76562px"
       x="577.22302"
       y="476.953"
       id="text299">Ԧ</text>
    <path
       d="m 591.419,485.673 c -0.359,0 -0.66,0.107 -0.902,0.321 -0.243,0.213 -0.438,0.52 -0.586,0.921 -0.149,0.402 -0.254,0.89 -0.317,1.465 -0.062,0.576 -0.093,1.226 -0.093,1.95 0,1.697 0.157,2.944 0.472,3.738 0.315,0.794 0.804,1.191 1.465,1.191 0.63,0 1.098,-0.373 1.402,-1.121 0.305,-0.747 0.457,-1.905 0.457,-3.473 0,-1.197 -0.078,-2.167 -0.234,-2.91 -0.156,-0.742 -0.374,-1.274 -0.652,-1.597 -0.279,-0.323 -0.616,-0.485 -1.012,-0.485 z m 0.039,-0.664 c 1.141,0 1.99,0.44 2.547,1.321 0.557,0.88 0.836,2.21 0.836,3.992 0,1.843 -0.298,3.238 -0.895,4.183 -0.596,0.946 -1.467,1.418 -2.613,1.418 -1.125,0 -1.962,-0.442 -2.512,-1.328 -0.549,-0.885 -0.824,-2.229 -0.824,-4.031 0,-0.958 0.085,-1.787 0.254,-2.484 0.169,-0.698 0.406,-1.275 0.711,-1.731 0.305,-0.456 0.671,-0.793 1.098,-1.012 0.427,-0.218 0.893,-0.328 1.398,-0.328 z"
       fill-rule="evenodd"
       id="path301" />
    <text
       fill="#000000"
       fill-opacity="0"
       font-family="Arial, Arial_MSFontService, sans-serif"
       font-size="10.9141px"
       x="587.99701"
       y="494.55899"
       id="text303">0</text>
    <text
       font-family="Calibri, Calibri_MSFontService, sans-serif"
       font-weight="400"
       font-size="24px"
       transform="translate(595.823,491)"
       id="text307">)<tspan
   font-size="24px"
   x="12.8334"
   y="0"
   id="tspan305">where</tspan></text>
    <path
       d="m 680.638,479.396 c 0.242,0 0.455,0.027 0.639,0.082 0.183,0.055 0.346,0.139 0.486,0.252 0.141,0.113 0.266,0.26 0.375,0.439 0.11,0.18 0.215,0.424 0.317,0.733 0.101,0.308 0.197,0.691 0.287,1.148 0.09,0.457 0.17,0.932 0.24,1.424 h 0.117 c 0.75,-1.055 1.318,-1.826 1.705,-2.314 0.387,-0.489 0.713,-0.852 0.979,-1.09 0.265,-0.238 0.521,-0.406 0.767,-0.504 0.246,-0.098 0.573,-0.147 0.979,-0.147 0.367,0 0.668,0.047 0.902,0.141 l -0.469,2.121 h -0.82 c -0.047,-0.328 -0.184,-0.492 -0.41,-0.492 -0.07,0 -0.145,0.012 -0.223,0.035 -0.078,0.024 -0.174,0.074 -0.287,0.152 -0.113,0.079 -0.279,0.231 -0.498,0.457 -0.219,0.227 -0.465,0.504 -0.738,0.832 -0.274,0.329 -0.555,0.672 -0.844,1.032 l -0.797,0.996 c 0.141,0.75 0.274,1.398 0.399,1.945 0.125,0.547 0.236,1.002 0.334,1.365 0.097,0.364 0.183,0.651 0.257,0.862 0.075,0.211 0.155,0.369 0.241,0.474 0.086,0.106 0.174,0.18 0.263,0.223 0.09,0.043 0.194,0.064 0.311,0.064 0.211,0 0.416,-0.082 0.615,-0.246 0.199,-0.164 0.486,-0.535 0.861,-1.113 l 0.762,0.504 c -0.547,0.812 -1.041,1.385 -1.482,1.717 -0.442,0.332 -0.967,0.498 -1.576,0.498 -0.336,0 -0.622,-0.061 -0.856,-0.182 -0.234,-0.121 -0.437,-0.314 -0.609,-0.58 -0.172,-0.266 -0.324,-0.68 -0.457,-1.242 -0.242,-1 -0.391,-1.766 -0.446,-2.297 h -0.117 c -0.828,1.164 -1.443,2 -1.845,2.508 -0.403,0.508 -0.735,0.883 -0.997,1.125 -0.261,0.242 -0.515,0.412 -0.761,0.51 -0.246,0.097 -0.573,0.146 -0.979,0.146 -0.367,0 -0.668,-0.047 -0.902,-0.141 l 0.469,-2.121 h 0.82 c 0.047,0.328 0.183,0.493 0.41,0.493 0.109,0 0.225,-0.03 0.346,-0.088 0.121,-0.059 0.295,-0.2 0.521,-0.422 0.227,-0.223 0.539,-0.572 0.938,-1.049 0.398,-0.477 0.976,-1.191 1.734,-2.145 -0.117,-0.617 -0.238,-1.211 -0.363,-1.781 -0.125,-0.57 -0.254,-1.101 -0.387,-1.594 -0.133,-0.492 -0.242,-0.814 -0.328,-0.966 -0.086,-0.153 -0.178,-0.258 -0.275,-0.317 -0.098,-0.058 -0.221,-0.088 -0.37,-0.088 -0.164,0 -0.312,0.037 -0.445,0.112 -0.133,0.074 -0.277,0.203 -0.433,0.386 -0.157,0.184 -0.364,0.471 -0.622,0.862 l -0.761,-0.504 c 0.492,-0.742 0.965,-1.297 1.418,-1.664 0.453,-0.367 0.988,-0.551 1.605,-0.551 z"
       fill-rule="evenodd"
       id="path309" />
    <text
       fill="#000000"
       fill-opacity="0"
       font-family="Arial, Arial_MSFontService, sans-serif"
       font-size="11.5898px"
       x="676.36102"
       y="489.53699"
       id="text311">𝑥</text>
    <path
       d="m 685.697,471.908 2.942,2.543 v 0.679 l -2.942,2.543 -0.621,-0.703 1.875,-1.629 h -7.148 v -1.101 h 7.148 l -1.875,-1.629 z"
       fill-rule="evenodd"
       id="path313" />
    <text
       fill="#000000"
       fill-opacity="0"
       font-family="Arial, Arial_MSFontService, sans-serif"
       font-size="5.76562px"
       x="679.80298"
       y="476.953"
       id="text315">Ԧ</text>
    <path
       d="m 693.999,485.673 c -0.359,0 -0.66,0.107 -0.902,0.321 -0.243,0.213 -0.438,0.52 -0.586,0.921 -0.149,0.402 -0.254,0.89 -0.317,1.465 -0.062,0.576 -0.093,1.226 -0.093,1.95 0,1.697 0.157,2.944 0.472,3.738 0.315,0.794 0.804,1.191 1.465,1.191 0.63,0 1.098,-0.373 1.402,-1.121 0.305,-0.747 0.457,-1.905 0.457,-3.473 0,-1.197 -0.078,-2.167 -0.234,-2.91 -0.156,-0.742 -0.374,-1.274 -0.652,-1.597 -0.279,-0.323 -0.616,-0.485 -1.012,-0.485 z m 0.039,-0.664 c 1.141,0 1.99,0.44 2.547,1.321 0.557,0.88 0.836,2.21 0.836,3.992 0,1.843 -0.298,3.238 -0.895,4.183 -0.596,0.946 -1.467,1.418 -2.613,1.418 -1.125,0 -1.962,-0.442 -2.512,-1.328 -0.549,-0.885 -0.824,-2.229 -0.824,-4.031 0,-0.958 0.085,-1.787 0.254,-2.484 0.169,-0.698 0.406,-1.275 0.711,-1.731 0.305,-0.456 0.671,-0.793 1.098,-1.012 0.427,-0.218 0.893,-0.328 1.398,-0.328 z"
       fill-rule="evenodd"
       id="path317" />
    <text
       fill="#000000"
       fill-opacity="0"
       font-family="Arial, Arial_MSFontService, sans-serif"
       font-size="10.9141px"
       x="690.57703"
       y="494.55899"
       id="text319">0</text>
    <text
       font-family="Calibri, Calibri_MSFontService, sans-serif"
       font-weight="400"
       font-size="24px"
       transform="translate(703.903,491)"
       id="text321">=</text>
    <path
       d="m 745.377,432.65 h 6.914 v 102.586 h -6.914 V 533.9 h 4.336 v -99.914 h -4.336 z m -21.303,0 h 6.915 v 1.336 h -4.336 V 533.9 h 4.336 v 1.336 h -6.915 z"
       fill-rule="evenodd"
       id="path323" />
    <path
       d="m 739.086,433.555 h 0.645 c -0.047,0.75 -0.071,1.789 -0.071,3.117 v 10.008 c 0,0.453 0.026,0.795 0.077,1.025 0.05,0.231 0.14,0.418 0.269,0.563 0.129,0.144 0.315,0.257 0.557,0.339 0.242,0.082 0.547,0.145 0.914,0.188 0.367,0.043 0.851,0.072 1.453,0.088 v 0.855 h -8.66 v -0.855 c 0.867,-0.039 1.486,-0.092 1.857,-0.158 0.371,-0.067 0.655,-0.166 0.85,-0.299 0.195,-0.133 0.338,-0.321 0.428,-0.563 0.089,-0.242 0.134,-0.636 0.134,-1.183 v -9.504 c 0,-0.313 -0.054,-0.541 -0.164,-0.686 -0.109,-0.144 -0.269,-0.217 -0.48,-0.217 -0.25,0 -0.606,0.129 -1.067,0.387 -0.461,0.258 -1.031,0.613 -1.711,1.067 l -0.515,-0.903 z"
       fill-rule="evenodd"
       id="path325" />
    <text
       fill="#000000"
       fill-opacity="0"
       font-family="Arial, Arial_MSFontService, sans-serif"
       font-size="16.1836px"
       x="733.60199"
       y="447.715"
       id="text327">1</text>
    <path
       d="m 738.16,462.691 c -0.539,0 -0.99,0.16 -1.353,0.48 -0.363,0.321 -0.656,0.782 -0.879,1.383 -0.223,0.602 -0.381,1.334 -0.475,2.197 -0.093,0.864 -0.14,1.838 -0.14,2.924 0,2.547 0.236,4.416 0.709,5.608 0.472,1.191 1.205,1.787 2.197,1.787 0.945,0 1.647,-0.561 2.104,-1.682 0.457,-1.121 0.685,-2.857 0.685,-5.209 0,-1.797 -0.117,-3.252 -0.351,-4.365 -0.235,-1.113 -0.561,-1.912 -0.979,-2.397 -0.418,-0.484 -0.924,-0.726 -1.518,-0.726 z m 0.059,-0.996 c 1.711,0 2.984,0.66 3.82,1.98 0.836,1.321 1.254,3.317 1.254,5.988 0,2.766 -0.447,4.858 -1.342,6.276 -0.894,1.418 -2.201,2.127 -3.919,2.127 -1.688,0 -2.944,-0.664 -3.768,-1.992 -0.824,-1.328 -1.236,-3.344 -1.236,-6.047 0,-1.438 0.127,-2.68 0.381,-3.727 0.253,-1.047 0.609,-1.912 1.066,-2.596 0.457,-0.683 1.006,-1.189 1.646,-1.517 0.641,-0.328 1.34,-0.492 2.098,-0.492 z"
       fill-rule="evenodd"
       id="path329" />
    <text
       fill="#000000"
       fill-opacity="0"
       font-family="Arial, Arial_MSFontService, sans-serif"
       font-size="16.3711px"
       x="733.02802"
       y="476.01901"
       id="text331">0</text>
    <path
       d="m 738.16,490.831 c -0.539,0 -0.99,0.16 -1.353,0.48 -0.363,0.321 -0.656,0.782 -0.879,1.383 -0.223,0.602 -0.381,1.334 -0.475,2.197 -0.093,0.864 -0.14,1.838 -0.14,2.924 0,2.547 0.236,4.416 0.709,5.608 0.472,1.191 1.205,1.787 2.197,1.787 0.945,0 1.647,-0.561 2.104,-1.682 0.457,-1.121 0.685,-2.857 0.685,-5.209 0,-1.797 -0.117,-3.252 -0.351,-4.365 -0.235,-1.113 -0.561,-1.912 -0.979,-2.397 -0.418,-0.484 -0.924,-0.726 -1.518,-0.726 z m 0.059,-0.996 c 1.711,0 2.984,0.66 3.82,1.98 0.836,1.32 1.254,3.317 1.254,5.988 0,2.766 -0.447,4.858 -1.342,6.276 -0.894,1.418 -2.201,2.127 -3.919,2.127 -1.688,0 -2.944,-0.664 -3.768,-1.992 -0.824,-1.329 -1.236,-3.344 -1.236,-6.047 0,-1.438 0.127,-2.68 0.381,-3.727 0.253,-1.047 0.609,-1.912 1.066,-2.596 0.457,-0.683 1.006,-1.189 1.646,-1.517 0.641,-0.328 1.34,-0.492 2.098,-0.492 z"
       fill-rule="evenodd"
       id="path333" />
    <text
       fill="#000000"
       fill-opacity="0"
       font-family="Arial, Arial_MSFontService, sans-serif"
       font-size="16.3711px"
       x="733.02802"
       y="504.159"
       id="text335">0</text>
    <path
       d="m 738.16,518.971 c -0.539,0 -0.99,0.16 -1.353,0.48 -0.363,0.321 -0.656,0.782 -0.879,1.383 -0.223,0.602 -0.381,1.334 -0.475,2.197 -0.093,0.864 -0.14,1.838 -0.14,2.924 0,2.547 0.236,4.416 0.709,5.608 0.472,1.191 1.205,1.787 2.197,1.787 0.945,0 1.647,-0.561 2.104,-1.682 0.457,-1.121 0.685,-2.857 0.685,-5.209 0,-1.797 -0.117,-3.252 -0.351,-4.365 -0.235,-1.113 -0.561,-1.912 -0.979,-2.397 -0.418,-0.484 -0.924,-0.726 -1.518,-0.726 z m 0.059,-0.996 c 1.711,0 2.984,0.66 3.82,1.98 0.836,1.321 1.254,3.317 1.254,5.988 0,2.766 -0.447,4.858 -1.342,6.276 -0.894,1.418 -2.201,2.127 -3.919,2.127 -1.688,0 -2.944,-0.664 -3.768,-1.992 -0.824,-1.328 -1.236,-3.344 -1.236,-6.047 0,-1.438 0.127,-2.68 0.381,-3.727 0.253,-1.047 0.609,-1.912 1.066,-2.596 0.457,-0.683 1.006,-1.189 1.646,-1.517 0.641,-0.328 1.34,-0.492 2.098,-0.492 z"
       fill-rule="evenodd"
       id="path337" />
    <text
       fill="#000000"
       fill-opacity="0"
       font-family="Arial, Arial_MSFontService, sans-serif"
       font-size="16.3711px"
       x="733.02802"
       y="532.29901"
       id="text339">0</text>
    <text
       font-family="Calibri, Calibri_MSFontService, sans-serif"
       font-weight="400"
       font-size="24px"
       transform="translate(754.963,491)"
       id="text341">.</text>
  </g>
</svg>
