<?xml version="1.0" encoding="UTF-8" standalone="no"?>
<svg
   width="1280"
   height="490"
   overflow="hidden"
   version="1.1"
   id="svg727"
   sodipodi:docname="linear_systems-relations.svg"
   inkscape:version="1.2 (dc2aedaf03, 2022-05-15)"
   xmlns:inkscape="http://www.inkscape.org/namespaces/inkscape"
   xmlns:sodipodi="http://sodipodi.sourceforge.net/DTD/sodipodi-0.dtd"
   xmlns="http://www.w3.org/2000/svg"
   xmlns:svg="http://www.w3.org/2000/svg">
  <sodipodi:namedview
     id="namedview729"
     pagecolor="#ffffff"
     bordercolor="#000000"
     borderopacity="0.25"
     inkscape:showpageshadow="2"
     inkscape:pageopacity="0.0"
     inkscape:pagecheckerboard="0"
     inkscape:deskcolor="#d1d1d1"
     showgrid="false"
     inkscape:zoom="1.3111111"
     inkscape:cx="576.99153"
     inkscape:cy="417.20339"
     inkscape:window-width="2880"
     inkscape:window-height="1514"
     inkscape:window-x="3829"
     inkscape:window-y="-11"
     inkscape:window-maximized="1"
     inkscape:current-layer="svg727" />
  <defs
     id="defs639">
    <clipPath
       id="clip0">
      <rect
         x="0"
         y="0"
         width="1280"
         height="720"
         id="rect636" />
    </clipPath>
  </defs>
  <g
     clip-path="url(#clip0)"
     id="g725"
     transform="translate(64.830508,-55.677967)">
    <rect
       x="0"
       y="0"
       width="1280"
       height="720"
       fill="#ffffff"
       id="rect641" />
    <text
       fill="#c00000"
       font-family="Calibri, Calibri_MSFontService, sans-serif"
       font-weight="400"
       font-size="27px"
       transform="translate(687.399,487)"
       id="text655">(3, 1) is a relation as 2 is positive.<tspan
   fill="#000000"
   font-size="43px"
   x="-226.797"
   y="-357"
   id="tspan643">Relations</tspan><tspan
   fill="#000000"
   font-size="32px"
   x="-574.552"
   y="-37"
   id="tspan645">If</tspan><tspan
   fill="#000000"
   font-weight="700"
   font-size="32px"
   x="-549.552"
   y="-37"
   id="tspan647">&gt;</tspan><tspan
   fill="#000000"
   font-size="32px"
   x="-526.38501"
   y="-37"
   id="tspan649">is a relation on</tspan><tspan
   fill="#000000"
   font-family="Cambria, Cambria_MSFontService, sans-serif"
   font-size="32px"
   x="-328.10501"
   y="-37"
   id="tspan651">R</tspan><tspan
   fill="#000000"
   font-size="32px"
   x="-308.272"
   y="-37"
   id="tspan653">, we write</tspan></text>
    <path
       d="m 654.118,463.825 h 0.407 c 2.447,0.041 4.278,0.601 5.492,1.679 1.213,1.078 1.82,2.701 1.82,4.868 0,0.864 -0.122,1.849 -0.367,2.953 -0.245,1.104 -0.367,1.843 -0.367,2.218 0,0.719 0.247,1.305 0.742,1.758 0.495,0.453 1.242,0.696 2.242,0.727 v 1.281 c -1,0.031 -1.747,0.273 -2.242,0.727 -0.495,0.453 -0.742,1.039 -0.742,1.757 0,0.375 0.122,1.115 0.367,2.219 0.245,1.104 0.367,2.089 0.367,2.953 0,2.24 -0.607,3.899 -1.82,4.977 -1.214,1.078 -3.045,1.638 -5.492,1.68 h -0.407 v -1.188 h 0.235 c 1.51,0 2.692,-0.393 3.547,-1.18 0.854,-0.786 1.281,-2.122 1.281,-4.007 0,-0.73 -0.104,-1.631 -0.313,-2.704 -0.208,-1.072 -0.312,-1.838 -0.312,-2.296 0,-0.886 0.26,-1.612 0.781,-2.18 0.521,-0.568 1.141,-0.987 1.859,-1.258 v -0.281 c -0.718,-0.271 -1.338,-0.69 -1.859,-1.258 -0.521,-0.568 -0.781,-1.294 -0.781,-2.18 0,-0.458 0.104,-1.224 0.312,-2.297 0.209,-1.073 0.313,-1.974 0.313,-2.703 0,-1.812 -0.427,-3.112 -1.281,-3.898 -0.855,-0.787 -2.037,-1.18 -3.547,-1.18 h -0.235 z m -346.284,0 h 0.407 v 1.187 h -0.235 c -1.51,0 -2.692,0.393 -3.547,1.18 -0.854,0.786 -1.281,2.081 -1.281,3.883 0,0.729 0.104,1.63 0.313,2.703 0.208,1.073 0.312,1.838 0.312,2.297 0,0.885 -0.26,1.612 -0.781,2.179 -0.521,0.568 -1.141,0.987 -1.86,1.258 v 0.281 c 0.719,0.271 1.339,0.691 1.86,1.258 0.521,0.568 0.781,1.295 0.781,2.18 0,0.458 -0.104,1.224 -0.312,2.297 -0.209,1.073 -0.313,1.974 -0.313,2.703 0,1.896 0.427,3.237 1.281,4.023 0.855,0.787 2.037,1.18 3.547,1.18 h 0.235 v 1.188 h -0.407 c -2.448,-0.042 -4.278,-0.602 -5.492,-1.68 -1.213,-1.078 -1.82,-2.742 -1.82,-4.992 0,-0.865 0.122,-1.849 0.367,-2.953 0.245,-1.105 0.367,-1.844 0.367,-2.219 0,-0.719 -0.247,-1.305 -0.742,-1.758 -0.495,-0.453 -1.242,-0.695 -2.242,-0.727 v -1.281 c 1,-0.031 1.747,-0.273 2.242,-0.726 0.495,-0.454 0.742,-1.039 0.742,-1.758 0,-0.375 -0.122,-1.115 -0.367,-2.219 -0.245,-1.104 -0.367,-2.089 -0.367,-2.953 0,-2.156 0.607,-3.774 1.82,-4.852 1.214,-1.078 3.044,-1.638 5.492,-1.679 z"
       fill-rule="evenodd"
       id="path657" />
    <path
       d="m 367.476,463.907 c 3.042,0.802 5.378,2.534 7.008,5.195 1.63,2.662 2.446,5.873 2.446,9.633 0,3.771 -0.813,6.982 -2.438,9.633 -1.625,2.651 -3.963,4.378 -7.016,5.18 l -0.375,-1.203 c 2.407,-0.802 4.196,-2.386 5.368,-4.75 1.171,-2.365 1.757,-5.37 1.757,-9.016 0,-3.521 -0.583,-6.445 -1.75,-8.773 -1.166,-2.329 -2.974,-3.894 -5.421,-4.696 z m -46.03,0 0.422,1.203 c -2.437,0.802 -4.242,2.367 -5.414,4.696 -1.172,2.328 -1.758,5.252 -1.758,8.773 0,3.646 0.586,6.651 1.758,9.016 1.172,2.364 2.961,3.948 5.367,4.75 l -0.375,1.203 c -3.052,-0.802 -5.39,-2.529 -7.015,-5.18 -1.625,-2.651 -2.438,-5.862 -2.438,-9.633 0,-3.76 0.815,-6.971 2.446,-9.633 1.63,-2.661 3.966,-4.393 7.007,-5.195 z"
       fill-rule="evenodd"
       id="path659" />
    <text
       font-family="Calibri, Calibri_MSFontService, sans-serif"
       font-weight="400"
       font-size="32px"
       transform="translate(322.461,488)"
       id="text695">a<tspan
   font-family="'Cambria Math', 'Cambria Math_MSFontService', sans-serif"
   font-size="32px"
   x="15.3333"
   y="0"
   id="tspan661">,</tspan><tspan
   font-size="32px"
   x="27.1667"
   y="0"
   id="tspan663">b</tspan><tspan
   font-family="'Cambria Math', 'Cambria Math_MSFontService', sans-serif"
   font-size="32px"
   x="66.166702"
   y="0"
   id="tspan665">∈</tspan><tspan
   font-family="Cambria, Cambria_MSFontService, sans-serif"
   font-size="32px"
   x="95.053299"
   y="0"
   id="tspan667">R</tspan><tspan
   font-family="'Cambria Math', 'Cambria Math_MSFontService', sans-serif"
   font-size="32px"
   x="114.887"
   y="0"
   id="tspan669" /><tspan
   font-family="'Cambria Math', 'Cambria Math_MSFontService', sans-serif"
   font-size="32px"
   x="121.887"
   y="0"
   id="tspan671">|</tspan><tspan
   font-size="32px"
   x="132.05299"
   y="0"
   id="tspan673">a</tspan><tspan
   font-size="32px"
   x="147.38699"
   y="0"
   id="tspan675" /><tspan
   font-size="32px"
   x="154.55299"
   y="0"
   id="tspan677">−</tspan><tspan
   font-size="32px"
   x="177.72"
   y="0"
   id="tspan679">b</tspan><tspan
   font-size="32px"
   x="194.55299"
   y="0"
   id="tspan681" /><tspan
   font-size="32px"
   x="201.72"
   y="0"
   id="tspan683">is</tspan><tspan
   font-size="32px"
   x="221.55299"
   y="0"
   id="tspan685" /><tspan
   font-size="32px"
   x="228.72"
   y="0"
   id="tspan687">positive</tspan><tspan
   font-size="32px"
   x="-209.733"
   y="-305"
   id="tspan689">A relation is a subset of A</tspan><tspan
   font-family="'Cambria Math', 'Cambria Math_MSFontService', sans-serif"
   font-size="32px"
   x="125.053"
   y="-305"
   id="tspan691">×</tspan><tspan
   font-size="32px"
   x="155.05299"
   y="-305"
   id="tspan693">A to form the ordered pair (a, b).</tspan></text>
    <rect
       x="186"
       y="239"
       width="182"
       height="126"
       stroke="#000000"
       stroke-width="4"
       stroke-miterlimit="8"
       fill="#fff2cc"
       id="rect697" />
    <text
       font-family="Calibri, Calibri_MSFontService, sans-serif"
       font-weight="400"
       font-size="32px"
       transform="translate(267.875,313)"
       id="text699">A</text>
    <path
       d="m 405,290.924 c 0,-4.376 3.548,-7.924 7.924,-7.924 h 6.152 c 4.376,0 7.924,3.548 7.924,7.924 v 19.152 c 0,4.376 -3.548,7.924 -7.924,7.924 h -6.152 C 408.548,318 405,314.452 405,310.076 Z"
       fill="#fff2cc"
       fill-rule="evenodd"
       fill-opacity="0.4"
       id="path701" />
    <path
       d="m 436,291.285 c 0,-4.576 3.709,-8.285 8.285,-8.285 h 6.43 c 4.576,0 8.285,3.709 8.285,8.285 v 18.43 c 0,4.576 -3.709,8.285 -8.285,8.285 h -6.43 C 439.709,318 436,314.291 436,309.715 Z"
       fill="#fff2cc"
       fill-rule="evenodd"
       fill-opacity="0.4"
       id="path703" />
    <text
       font-family="Calibri, Calibri_MSFontService, sans-serif"
       font-weight="400"
       font-size="32px"
       transform="translate(400.123,310)"
       id="text723">(<tspan
   font-size="32px"
   x="9.6666603"
   y="0"
   id="tspan705">a</tspan><tspan
   font-size="32px"
   x="25"
   y="0"
   id="tspan707">,</tspan><tspan
   font-size="32px"
   x="40.166698"
   y="0"
   id="tspan709">b)</tspan><tspan
   font-size="32px"
   x="73.833298"
   y="0"
   id="tspan711">represents</tspan><tspan
   font-size="32px"
   x="219.52699"
   y="0"
   id="tspan713">a</tspan><tspan
   font-weight="700"
   font-size="32px"
   x="242.02699"
   y="0"
   id="tspan715">□</tspan><tspan
   font-size="32px"
   x="268.52701"
   y="0"
   id="tspan717">b or a</tspan><tspan
   font-style="italic"
   font-size="32px"
   x="350.19299"
   y="0"
   id="tspan719">relation</tspan><tspan
   font-size="32px"
   x="458.52701"
   y="0"
   id="tspan721">b</tspan></text>
  </g>
</svg>
