<?xml version="1.0" encoding="UTF-8" standalone="no"?>
<svg
   width="1280"
   height="610"
   overflow="hidden"
   version="1.1"
   id="svg313"
   sodipodi:docname="linear_systems-two_unknown_variables.svg"
   inkscape:version="1.2 (dc2aedaf03, 2022-05-15)"
   xmlns:inkscape="http://www.inkscape.org/namespaces/inkscape"
   xmlns:sodipodi="http://sodipodi.sourceforge.net/DTD/sodipodi-0.dtd"
   xmlns="http://www.w3.org/2000/svg"
   xmlns:svg="http://www.w3.org/2000/svg">
  <sodipodi:namedview
     id="namedview315"
     pagecolor="#ffffff"
     bordercolor="#000000"
     borderopacity="0.25"
     inkscape:showpageshadow="2"
     inkscape:pageopacity="0.0"
     inkscape:pagecheckerboard="0"
     inkscape:deskcolor="#d1d1d1"
     showgrid="false"
     inkscape:zoom="1.3111111"
     inkscape:cx="644.11017"
     inkscape:cy="395.08475"
     inkscape:window-width="2560"
     inkscape:window-height="1494"
     inkscape:window-x="-11"
     inkscape:window-y="-11"
     inkscape:window-maximized="1"
     inkscape:current-layer="g311" />
  <defs
     id="defs5">
    <clipPath
       id="clip0">
      <rect
         x="0"
         y="0"
         width="1280"
         height="720"
         id="rect2" />
    </clipPath>
  </defs>
  <g
     clip-path="url(#clip0)"
     id="g311">
    <rect
       x="12.966102"
       y="-42.711864"
       width="1280"
       height="720"
       fill="#ffffff"
       id="rect7" />
    <rect
       x="180.77965"
       y="389.47458"
       width="76"
       height="75"
       stroke="#ededed"
       stroke-width="4"
       stroke-miterlimit="8"
       fill="none"
       id="rect9" />
    <rect
       x="105.77966"
       y="389.47458"
       width="75"
       height="75"
       stroke="#ededed"
       stroke-width="4"
       stroke-miterlimit="8"
       fill="none"
       id="rect11" />
    <rect
       x="256.77966"
       y="389.47458"
       width="75"
       height="75"
       stroke="#ededed"
       stroke-width="4"
       stroke-miterlimit="8"
       fill="none"
       id="rect13" />
    <rect
       x="256.77966"
       y="313.47458"
       width="75"
       height="76"
       stroke="#ededed"
       stroke-width="4"
       stroke-miterlimit="8"
       fill="none"
       id="rect15" />
    <rect
       x="331.77966"
       y="389.47458"
       width="75"
       height="75"
       stroke="#ededed"
       stroke-width="4"
       stroke-miterlimit="8"
       fill="none"
       id="rect17" />
    <rect
       x="331.77966"
       y="313.47458"
       width="75"
       height="76"
       stroke="#ededed"
       stroke-width="4"
       stroke-miterlimit="8"
       fill="none"
       id="rect19" />
    <rect
       x="331.77966"
       y="237.47458"
       width="75"
       height="76"
       stroke="#ededed"
       stroke-width="4"
       stroke-miterlimit="8"
       fill="none"
       id="rect21" />
    <rect
       x="331.77966"
       y="162.47458"
       width="75"
       height="75"
       stroke="#ededed"
       stroke-width="4"
       stroke-miterlimit="8"
       fill="none"
       id="rect23" />
    <rect
       x="255.77965"
       y="237.47458"
       width="76"
       height="76"
       stroke="#ededed"
       stroke-width="4"
       stroke-miterlimit="8"
       fill="none"
       id="rect25" />
    <rect
       x="255.77965"
       y="162.47458"
       width="76"
       height="75"
       stroke="#ededed"
       stroke-width="4"
       stroke-miterlimit="8"
       fill="none"
       id="rect27" />
    <rect
       x="180.77965"
       y="313.47458"
       width="76"
       height="76"
       stroke="#ededed"
       stroke-width="4"
       stroke-miterlimit="8"
       fill="none"
       id="rect29" />
    <rect
       x="180.77965"
       y="237.47458"
       width="76"
       height="76"
       stroke="#ededed"
       stroke-width="4"
       stroke-miterlimit="8"
       fill="none"
       id="rect31" />
    <rect
       x="105.77966"
       y="313.47458"
       width="75"
       height="76"
       stroke="#ededed"
       stroke-width="4"
       stroke-miterlimit="8"
       fill="none"
       id="rect33" />
    <rect
       x="105.77966"
       y="237.47458"
       width="75"
       height="76"
       stroke="#ededed"
       stroke-width="4"
       stroke-miterlimit="8"
       fill="none"
       id="rect35" />
    <rect
       x="180.77965"
       y="162.47458"
       width="76"
       height="75"
       stroke="#ededed"
       stroke-width="4"
       stroke-miterlimit="8"
       fill="none"
       id="rect37" />
    <rect
       x="105.77966"
       y="162.47458"
       width="75"
       height="75"
       stroke="#ededed"
       stroke-width="4"
       stroke-miterlimit="8"
       fill="none"
       id="rect39" />
    <path
       d="m 105.77966,389.47458 h 301.827"
       stroke="#bfbfbf"
       stroke-width="4"
       stroke-miterlimit="8"
       stroke-dasharray="12, 4"
       fill="none"
       fill-rule="evenodd"
       id="path41" />
    <path
       d="m 180.77966,464.83658 0.79465,-302.362"
       stroke="#bfbfbf"
       stroke-width="4"
       stroke-miterlimit="8"
       stroke-dasharray="12, 4"
       fill="none"
       fill-rule="evenodd"
       id="path43" />
    <rect
       x="558.77966"
       y="389.47458"
       width="76"
       height="75"
       stroke="#ededed"
       stroke-width="4"
       stroke-miterlimit="8"
       fill="none"
       id="rect45" />
    <rect
       x="483.77966"
       y="389.47458"
       width="75"
       height="75"
       stroke="#ededed"
       stroke-width="4"
       stroke-miterlimit="8"
       fill="none"
       id="rect47" />
    <rect
       x="634.77966"
       y="389.47458"
       width="75"
       height="75"
       stroke="#ededed"
       stroke-width="4"
       stroke-miterlimit="8"
       fill="none"
       id="rect49" />
    <rect
       x="634.77966"
       y="313.47458"
       width="75"
       height="76"
       stroke="#ededed"
       stroke-width="4"
       stroke-miterlimit="8"
       fill="none"
       id="rect51" />
    <rect
       x="709.77966"
       y="389.47458"
       width="75"
       height="75"
       stroke="#ededed"
       stroke-width="4"
       stroke-miterlimit="8"
       fill="none"
       id="rect53" />
    <rect
       x="709.77966"
       y="313.47458"
       width="75"
       height="76"
       stroke="#ededed"
       stroke-width="4"
       stroke-miterlimit="8"
       fill="none"
       id="rect55" />
    <rect
       x="709.77966"
       y="237.47458"
       width="75"
       height="76"
       stroke="#ededed"
       stroke-width="4"
       stroke-miterlimit="8"
       fill="none"
       id="rect57" />
    <rect
       x="709.77966"
       y="162.47458"
       width="75"
       height="75"
       stroke="#ededed"
       stroke-width="4"
       stroke-miterlimit="8"
       fill="none"
       id="rect59" />
    <rect
       x="633.77966"
       y="237.47458"
       width="76"
       height="76"
       stroke="#ededed"
       stroke-width="4"
       stroke-miterlimit="8"
       fill="none"
       id="rect61" />
    <rect
       x="633.77966"
       y="162.47458"
       width="76"
       height="75"
       stroke="#ededed"
       stroke-width="4"
       stroke-miterlimit="8"
       fill="none"
       id="rect63" />
    <rect
       x="558.77966"
       y="313.47458"
       width="76"
       height="76"
       stroke="#ededed"
       stroke-width="4"
       stroke-miterlimit="8"
       fill="none"
       id="rect65" />
    <rect
       x="558.77966"
       y="237.47458"
       width="76"
       height="76"
       stroke="#ededed"
       stroke-width="4"
       stroke-miterlimit="8"
       fill="none"
       id="rect67" />
    <rect
       x="483.77966"
       y="313.47458"
       width="75"
       height="76"
       stroke="#ededed"
       stroke-width="4"
       stroke-miterlimit="8"
       fill="none"
       id="rect69" />
    <rect
       x="483.77966"
       y="237.47458"
       width="75"
       height="76"
       stroke="#ededed"
       stroke-width="4"
       stroke-miterlimit="8"
       fill="none"
       id="rect71" />
    <rect
       x="558.77966"
       y="162.47458"
       width="76"
       height="75"
       stroke="#ededed"
       stroke-width="4"
       stroke-miterlimit="8"
       fill="none"
       id="rect73" />
    <rect
       x="483.77966"
       y="162.47458"
       width="75"
       height="75"
       stroke="#ededed"
       stroke-width="4"
       stroke-miterlimit="8"
       fill="none"
       id="rect75" />
    <path
       d="m 483.77966,389.47458 h 301.827"
       stroke="#bfbfbf"
       stroke-width="4"
       stroke-miterlimit="8"
       stroke-dasharray="12, 4"
       fill="none"
       fill-rule="evenodd"
       id="path77" />
    <path
       d="m 558.77966,464.83658 0.79465,-302.362"
       stroke="#bfbfbf"
       stroke-width="4"
       stroke-miterlimit="8"
       stroke-dasharray="12, 4"
       fill="none"
       fill-rule="evenodd"
       id="path79" />
    <rect
       x="936.77966"
       y="389.47458"
       width="76"
       height="75"
       stroke="#ededed"
       stroke-width="4"
       stroke-miterlimit="8"
       fill="none"
       id="rect81" />
    <rect
       x="861.77966"
       y="389.47458"
       width="75"
       height="75"
       stroke="#ededed"
       stroke-width="4"
       stroke-miterlimit="8"
       fill="none"
       id="rect83" />
    <rect
       x="1012.7797"
       y="389.47458"
       width="75"
       height="75"
       stroke="#ededed"
       stroke-width="4"
       stroke-miterlimit="8"
       fill="none"
       id="rect85" />
    <rect
       x="1012.7797"
       y="313.47458"
       width="75"
       height="76"
       stroke="#ededed"
       stroke-width="4"
       stroke-miterlimit="8"
       fill="none"
       id="rect87" />
    <rect
       x="1087.7797"
       y="389.47458"
       width="76"
       height="75"
       stroke="#ededed"
       stroke-width="4"
       stroke-miterlimit="8"
       fill="none"
       id="rect89" />
    <rect
       x="1087.7797"
       y="313.47458"
       width="76"
       height="76"
       stroke="#ededed"
       stroke-width="4"
       stroke-miterlimit="8"
       fill="none"
       id="rect91" />
    <rect
       x="1087.7797"
       y="237.47458"
       width="75"
       height="76"
       stroke="#ededed"
       stroke-width="4"
       stroke-miterlimit="8"
       fill="none"
       id="rect93" />
    <rect
       x="1087.7797"
       y="162.47458"
       width="76"
       height="75"
       stroke="#ededed"
       stroke-width="4"
       stroke-miterlimit="8"
       fill="none"
       id="rect95" />
    <rect
       x="1011.7797"
       y="237.47458"
       width="76"
       height="76"
       stroke="#ededed"
       stroke-width="4"
       stroke-miterlimit="8"
       fill="none"
       id="rect97" />
    <rect
       x="1011.7797"
       y="162.47458"
       width="76"
       height="75"
       stroke="#ededed"
       stroke-width="4"
       stroke-miterlimit="8"
       fill="none"
       id="rect99" />
    <rect
       x="936.77966"
       y="313.47458"
       width="76"
       height="76"
       stroke="#ededed"
       stroke-width="4"
       stroke-miterlimit="8"
       fill="none"
       id="rect101" />
    <rect
       x="936.77966"
       y="237.47458"
       width="76"
       height="76"
       stroke="#ededed"
       stroke-width="4"
       stroke-miterlimit="8"
       fill="none"
       id="rect103" />
    <rect
       x="861.77966"
       y="313.47458"
       width="75"
       height="76"
       stroke="#ededed"
       stroke-width="4"
       stroke-miterlimit="8"
       fill="none"
       id="rect105" />
    <rect
       x="861.77966"
       y="237.47458"
       width="75"
       height="76"
       stroke="#ededed"
       stroke-width="4"
       stroke-miterlimit="8"
       fill="none"
       id="rect107" />
    <rect
       x="936.77966"
       y="162.47458"
       width="76"
       height="75"
       stroke="#ededed"
       stroke-width="4"
       stroke-miterlimit="8"
       fill="none"
       id="rect109" />
    <rect
       x="861.77966"
       y="162.47458"
       width="75"
       height="75"
       stroke="#ededed"
       stroke-width="4"
       stroke-miterlimit="8"
       fill="none"
       id="rect111" />
    <path
       d="M 861.77966,389.47458 H 1163.6097"
       stroke="#bfbfbf"
       stroke-width="4"
       stroke-miterlimit="8"
       stroke-dasharray="12, 4"
       fill="none"
       fill-rule="evenodd"
       id="path113" />
    <path
       d="m 936.77966,464.83658 0.79465,-302.362"
       stroke="#bfbfbf"
       stroke-width="4"
       stroke-miterlimit="8"
       stroke-dasharray="12, 4"
       fill="none"
       fill-rule="evenodd"
       id="path115" />
    <path
       d="m 109.99156,238.86458 220.6431,221.165 -2.832,2.825 -220.6429,-221.165 z m 0.1698,15.359 -4.3882,-16.756 16.7455,4.428 c 1.068,0.283 1.705,1.377 1.422,2.445 -0.282,1.068 -1.377,1.705 -2.445,1.422 l -13.4304,-3.551 2.446,-2.44 3.5196,13.439 c 0.2799,1.068 -0.3595,2.162 -1.428,2.441 -1.0685,0.28 -2.1616,-0.359 -2.4415,-1.428 z m 217.4733,193.273 4.388,16.756 -16.746,-4.428 c -1.067,-0.282 -1.704,-1.377 -1.422,-2.445 0.283,-1.067 1.377,-1.704 2.445,-1.422 l 13.431,3.552 -2.446,2.44 -3.52,-13.439 c -0.28,-1.069 0.36,-2.162 1.428,-2.442 1.069,-0.28 2.162,0.36 2.442,1.428 z"
       fill="#44546a"
       id="path117" />
    <path
       d="m 185.99166,163.86458 220.643,221.165 -2.832,2.825 -220.643,-221.165 z m 0.17,15.359 -4.389,-16.756 16.746,4.428 c 1.068,0.283 1.705,1.377 1.422,2.445 -0.282,1.068 -1.377,1.705 -2.445,1.422 l -13.43,-3.551 2.446,-2.44 3.519,13.439 c 0.28,1.068 -0.359,2.162 -1.428,2.441 -1.068,0.28 -2.161,-0.359 -2.441,-1.428 z m 217.473,193.273 4.388,16.756 -16.746,-4.428 c -1.067,-0.282 -1.704,-1.377 -1.422,-2.445 0.283,-1.067 1.377,-1.704 2.445,-1.422 l 13.431,3.552 -2.446,2.44 -3.52,-13.439 c -0.28,-1.069 0.36,-2.162 1.428,-2.442 1.069,-0.28 2.162,0.36 2.442,1.428 z"
       fill="#44546a"
       id="path119" />
    <text
       font-family="Calibri, Calibri_MSFontService, sans-serif"
       font-weight="400"
       font-size="43px"
       id="text167"
       x="150.23065"
       y="71.474579">No solution<tspan
   font-family="'Cambria Math', 'Cambria Math_MSFontService', sans-serif"
   font-size="32px"
   x="190.45946"
   y="567.47461"
   id="tspan121">ЁЭСе</tspan><tspan
   font-family="'Cambria Math', 'Cambria Math_MSFontService', sans-serif"
   font-size="23px"
   x="206.40605"
   y="574.47461"
   id="tspan123">1</tspan><tspan
   font-size="32px"
   x="221.23276"
   y="567.47461"
   id="tspan125" /><tspan
   font-size="32px"
   x="228.39946"
   y="567.47461"
   id="tspan127">+</tspan><tspan
   font-size="32px"
   x="244.39946"
   y="567.47461"
   id="tspan129" /><tspan
   font-family="'Cambria Math', 'Cambria Math_MSFontService', sans-serif"
   font-size="32px"
   x="251.56566"
   y="567.47461"
   id="tspan131">ЁЭСе</tspan><tspan
   font-family="'Cambria Math', 'Cambria Math_MSFontService', sans-serif"
   font-size="23px"
   x="268.25269"
   y="574.47461"
   id="tspan133">2</tspan><tspan
   font-family="'Cambria Math', 'Cambria Math_MSFontService', sans-serif"
   font-size="32px"
   x="283.07968"
   y="567.47461"
   id="tspan135" /><tspan
   font-size="32px"
   x="290.07968"
   y="567.47461"
   id="tspan137">=</tspan><tspan
   font-size="32px"
   x="306.07968"
   y="567.47461"
   id="tspan139" /><tspan
   font-family="'Cambria Math', 'Cambria Math_MSFontService', sans-serif"
   font-size="32px"
   x="313.24567"
   y="567.47461"
   id="tspan141">3</tspan><tspan
   font-family="'Cambria Math', 'Cambria Math_MSFontService', sans-serif"
   font-size="32px"
   x="190.53186"
   y="526.47461"
   id="tspan143">ЁЭСе</tspan><tspan
   font-family="'Cambria Math', 'Cambria Math_MSFontService', sans-serif"
   font-size="23px"
   x="206.47855"
   y="533.47461"
   id="tspan145">1</tspan><tspan
   font-family="'Cambria Math', 'Cambria Math_MSFontService', sans-serif"
   font-size="32px"
   x="221.30516"
   y="526.47461"
   id="tspan147" /><tspan
   font-size="32px"
   x="228.30516"
   y="526.47461"
   id="tspan149">+</tspan><tspan
   font-family="'Cambria Math', 'Cambria Math_MSFontService', sans-serif"
   font-size="32px"
   x="244.30516"
   y="526.47461"
   id="tspan151" /><tspan
   font-family="'Cambria Math', 'Cambria Math_MSFontService', sans-serif"
   font-size="32px"
   x="251.30565"
   y="526.47461"
   id="tspan153">ЁЭСе</tspan><tspan
   font-family="'Cambria Math', 'Cambria Math_MSFontService', sans-serif"
   font-size="23px"
   x="267.99167"
   y="533.47461"
   id="tspan155">2</tspan><tspan
   font-family="'Cambria Math', 'Cambria Math_MSFontService', sans-serif"
   font-size="32px"
   x="282.81866"
   y="526.47461"
   id="tspan157" /><tspan
   font-size="32px"
   x="289.81866"
   y="526.47461"
   id="tspan159">=</tspan><tspan
   font-family="'Cambria Math', 'Cambria Math_MSFontService', sans-serif"
   font-size="32px"
   x="312.98569"
   y="526.47461"
   id="tspan161">1</tspan><tspan
   font-size="43px"
   x="503.95569"
   y="71.474579"
   id="tspan163">Single</tspan><tspan
   font-size="43px"
   x="616.78864"
   y="71.474579"
   id="tspan165">solution</tspan></text>
    <path
       d="m 486.99166,238.86458 220.643,221.165 -2.832,2.825 -220.643,-221.165 z m 0.17,15.359 -4.389,-16.756 16.746,4.428 c 1.068,0.283 1.705,1.377 1.422,2.445 -0.282,1.068 -1.377,1.705 -2.445,1.422 l -13.43,-3.551 2.446,-2.44 3.519,13.439 c 0.28,1.068 -0.359,2.162 -1.428,2.441 -1.068,0.28 -2.161,-0.359 -2.441,-1.428 z m 217.473,193.273 4.388,16.756 -16.746,-4.428 c -1.067,-0.282 -1.704,-1.377 -1.422,-2.445 0.283,-1.067 1.377,-1.704 2.445,-1.422 l 13.431,3.552 -2.446,2.44 -3.52,-13.439 c -0.28,-1.069 0.36,-2.162 1.428,-2.442 1.069,-0.28 2.162,0.36 2.442,1.428 z"
       fill="#44546a"
       id="path169" />
    <path
       d="m 636.77966,161.43458 v 303.505 h -4 v -303.505 z m -10.728,10.992 8.728,-14.961 8.728,14.961 c 0.556,0.954 0.234,2.179 -0.72,2.736 -0.954,0.556 -2.179,0.234 -2.736,-0.72 l -7,-12 h 3.456 l -7,12 c -0.557,0.954 -1.782,1.276 -2.736,0.72 -0.954,-0.557 -1.276,-1.782 -0.72,-2.736 z m 17.456,281.521 -8.728,14.961 -8.727,-14.961 c -0.557,-0.955 -0.235,-2.179 0.719,-2.736 0.954,-0.556 2.179,-0.234 2.736,0.72 l 7,12 h -3.455 l 7,-12 c 0.556,-0.954 1.781,-1.276 2.735,-0.72 0.954,0.557 1.276,1.781 0.72,2.736 z"
       fill="#44546a"
       id="path171" />
    <path
       d="m 628.27966,389.47458 c 0,-4.142 3.358,-7.5 7.5,-7.5 4.142,0 7.5,3.358 7.5,7.5 0,4.142 -3.358,7.5 -7.5,7.5 -4.142,0 -7.5,-3.358 -7.5,-7.5 z"
       stroke="#000000"
       stroke-width="3"
       stroke-miterlimit="8"
       fill="#c00000"
       fill-rule="evenodd"
       id="path173" />
    <text
       font-family="'Cambria Math', 'Cambria Math_MSFontService', sans-serif"
       font-weight="400"
       font-size="32px"
       id="text257"
       x="625.21466"
       y="567.47461">ЁЭСе<tspan
   font-size="23px"
   x="641.90137"
   y="574.47461"
   id="tspan175">2</tspan><tspan
   font-size="32px"
   x="656.72803"
   y="567.47461"
   id="tspan177" /><tspan
   font-family="Calibri, Calibri_MSFontService, sans-serif"
   font-size="32px"
   x="663.72803"
   y="567.47461"
   id="tspan179">=</tspan><tspan
   font-family="Calibri, Calibri_MSFontService, sans-serif"
   font-size="32px"
   x="679.72803"
   y="567.47461"
   id="tspan181" /><tspan
   font-size="32px"
   x="686.89471"
   y="567.47461"
   id="tspan183">1</tspan><tspan
   font-size="32px"
   x="563.90863"
   y="526.47461"
   id="tspan185">ЁЭСе</tspan><tspan
   font-size="23px"
   x="579.85535"
   y="533.47461"
   id="tspan187">1</tspan><tspan
   font-size="32px"
   x="594.68195"
   y="526.47461"
   id="tspan189" /><tspan
   font-family="Calibri, Calibri_MSFontService, sans-serif"
   font-size="32px"
   x="601.68195"
   y="526.47461"
   id="tspan191">+</tspan> ЁЭСе<tspan
   font-size="23px"
   x="641.36871"
   y="533.47461"
   id="tspan193">2</tspan><tspan
   font-size="32px"
   x="656.19531"
   y="526.47461"
   id="tspan195" /><tspan
   font-family="Calibri, Calibri_MSFontService, sans-serif"
   font-size="32px"
   x="663.19531"
   y="526.47461"
   id="tspan197">=</tspan><tspan
   font-size="32px"
   x="686.36206"
   y="526.47461"
   id="tspan199">1</tspan><tspan
   font-size="32px"
   x="543.23523"
   y="126.47457"
   id="tspan201">ЁЭСе</tspan><tspan
   font-size="23px"
   x="559.18195"
   y="132.47458"
   id="tspan203">1</tspan><tspan
   font-family="Calibri, Calibri_MSFontService, sans-serif"
   font-size="32px"
   x="581.17523"
   y="126.47457"
   id="tspan205">= 0,</tspan><tspan
   font-size="32px"
   x="635.67523"
   y="126.47457"
   id="tspan207">ЁЭСе</tspan><tspan
   font-size="23px"
   x="652.36194"
   y="132.47458"
   id="tspan209">2</tspan><tspan
   font-size="32px"
   x="667.18866"
   y="126.47457"
   id="tspan211" /><tspan
   font-family="Calibri, Calibri_MSFontService, sans-serif"
   font-size="32px"
   x="674.18866"
   y="126.47457"
   id="tspan213">= 1</tspan><tspan
   font-family="Calibri, Calibri_MSFontService, sans-serif"
   font-size="32px"
   x="930.97662"
   y="567.47461"
   id="tspan215">3</tspan><tspan
   font-size="32px"
   x="947.14264"
   y="567.47461"
   id="tspan217">ЁЭСе</tspan><tspan
   font-size="23px"
   x="963.08966"
   y="574.47461"
   id="tspan219">1</tspan><tspan
   font-family="Calibri, Calibri_MSFontService, sans-serif"
   font-size="32px"
   x="977.91663"
   y="567.47461"
   id="tspan221" /><tspan
   font-family="Calibri, Calibri_MSFontService, sans-serif"
   font-size="32px"
   x="985.08264"
   y="567.47461"
   id="tspan223">+</tspan><tspan
   font-family="Calibri, Calibri_MSFontService, sans-serif"
   font-size="32px"
   x="1001.0826"
   y="567.47461"
   id="tspan225" /><tspan
   font-family="Calibri, Calibri_MSFontService, sans-serif"
   font-size="32px"
   x="1008.2496"
   y="567.47461"
   id="tspan227">3</tspan><tspan
   font-size="32px"
   x="1024.4166"
   y="567.47461"
   id="tspan229">ЁЭСе</tspan><tspan
   font-size="23px"
   x="1041.1027"
   y="574.47461"
   id="tspan231">2</tspan><tspan
   font-size="32px"
   x="1055.9297"
   y="567.47461"
   id="tspan233" /><tspan
   font-family="Calibri, Calibri_MSFontService, sans-serif"
   font-size="32px"
   x="1062.9297"
   y="567.47461"
   id="tspan235">=</tspan><tspan
   font-family="Calibri, Calibri_MSFontService, sans-serif"
   font-size="32px"
   x="1078.9297"
   y="567.47461"
   id="tspan237" /><tspan
   font-size="32px"
   x="1086.0967"
   y="567.47461"
   id="tspan239">3</tspan><tspan
   font-size="32px"
   x="946.51062"
   y="526.47461"
   id="tspan241">ЁЭСе</tspan><tspan
   font-size="23px"
   x="962.45764"
   y="533.47461"
   id="tspan243">1</tspan><tspan
   font-size="32px"
   x="977.28363"
   y="526.47461"
   id="tspan245" /><tspan
   font-family="Calibri, Calibri_MSFontService, sans-serif"
   font-size="32px"
   x="984.28363"
   y="526.47461"
   id="tspan247">+</tspan> ЁЭСе<tspan
   font-size="23px"
   x="1023.9706"
   y="533.47461"
   id="tspan249">2</tspan><tspan
   font-size="32px"
   x="1038.7977"
   y="526.47461"
   id="tspan251" /><tspan
   font-family="Calibri, Calibri_MSFontService, sans-serif"
   font-size="32px"
   x="1045.7977"
   y="526.47461"
   id="tspan253">=</tspan><tspan
   font-size="32px"
   x="1068.9647"
   y="526.47461"
   id="tspan255">1</tspan></text>
    <path
       d="m 865.99166,238.86458 220.64804,221.165 -2.84,2.825 -220.64004,-221.165 z m 0.17,15.359 -4.389,-16.756 16.746,4.428 c 1.068,0.283 1.705,1.377 1.422,2.445 -0.282,1.068 -1.377,1.705 -2.445,1.422 l -13.43,-3.551 2.446,-2.44 3.519,13.439 c 0.28,1.068 -0.359,2.162 -1.428,2.441 -1.068,0.28 -2.161,-0.359 -2.441,-1.428 z m 217.46804,193.273 4.39,16.756 -16.74,-4.428 c -1.07,-0.282 -1.71,-1.377 -1.42,-2.445 0.28,-1.067 1.37,-1.704 2.44,-1.422 l 13.43,3.552 -2.45,2.44 -3.51,-13.439 c -0.28,-1.069 0.35,-2.162 1.42,-2.442 1.07,-0.28 2.16,0.36 2.44,1.428 z"
       fill="#44546a"
       id="path259" />
    <path
       d="m 1004.2797,388.47458 c 0,-4.142 3.358,-7.5 7.5,-7.5 4.142,0 7.5,3.358 7.5,7.5 0,4.142 -3.358,7.5 -7.5,7.5 -4.142,0 -7.5,-3.358 -7.5,-7.5 z"
       stroke="#000000"
       stroke-width="3"
       stroke-miterlimit="8"
       fill="#c00000"
       fill-rule="evenodd"
       id="path261" />
    <path
       d="m 931.27966,314.47458 c 0,-4.142 3.358,-7.5 7.5,-7.5 4.142,0 7.5,3.358 7.5,7.5 0,4.142 -3.358,7.5 -7.5,7.5 -4.142,0 -7.5,-3.358 -7.5,-7.5 z"
       stroke="#000000"
       stroke-width="3"
       stroke-miterlimit="8"
       fill="#c00000"
       fill-rule="evenodd"
       id="path263" />
    <path
       d="m 891.27966,276.47458 c 0,-4.142 3.358,-7.5 7.5,-7.5 4.142,0 7.5,3.358 7.5,7.5 0,4.142 -3.358,7.5 -7.5,7.5 -4.142,0 -7.5,-3.358 -7.5,-7.5 z"
       stroke="#000000"
       stroke-width="3"
       stroke-miterlimit="8"
       fill="#c00000"
       fill-rule="evenodd"
       id="path265" />
    <path
       d="m 853.27966,236.47458 c 0,-4.142 3.582,-7.5 8,-7.5 4.418,0 8,3.358 8,7.5 0,4.142 -3.582,7.5 -8,7.5 -4.418,0 -8,-3.358 -8,-7.5 z"
       stroke="#000000"
       stroke-width="3"
       stroke-miterlimit="8"
       fill="#c00000"
       fill-rule="evenodd"
       id="path267" />
    <path
       d="m 967.27966,351.47458 c 0,-4.142 3.582,-7.5 8,-7.5 4.418,0 8,3.358 8,7.5 0,4.142 -3.582,7.5 -8,7.5 -4.418,0 -8,-3.358 -8,-7.5 z"
       stroke="#000000"
       stroke-width="3"
       stroke-miterlimit="8"
       fill="#c00000"
       fill-rule="evenodd"
       id="path269" />
    <path
       d="m 1038.2797,424.47458 c 0,-4.142 3.58,-7.5 8,-7.5 4.42,0 8,3.358 8,7.5 0,4.142 -3.58,7.5 -8,7.5 -4.42,0 -8,-3.358 -8,-7.5 z"
       stroke="#000000"
       stroke-width="3"
       stroke-miterlimit="8"
       fill="#c00000"
       fill-rule="evenodd"
       id="path271" />
    <path
       d="m 1079.2797,463.47458 c 0,-4.142 3.58,-7.5 8,-7.5 4.42,0 8,3.358 8,7.5 0,4.142 -3.58,7.5 -8,7.5 -4.42,0 -8,-3.358 -8,-7.5 z"
       stroke="#000000"
       stroke-width="3"
       stroke-miterlimit="8"
       fill="#c00000"
       fill-rule="evenodd"
       id="path273" />
    <text
       font-family="Calibri, Calibri_MSFontService, sans-serif"
       font-weight="400"
       font-size="43px"
       id="text277"
       x="864.80164"
       y="71.474579">Infinite solutions<tspan
   font-family="'Cambria Math', 'Cambria Math_MSFontService', sans-serif"
   font-size="32px"
   x="855.37744"
   y="126.47457"
   id="tspan275">{</tspan></text>
    <path
       d="m 898.20666,85.846577 h 7.859 v 63.657003 h -7.859 v -1.438 h 4.797 V 87.284577 h -4.797 z m -26.934,0 h 7.86 v 1.438 h -4.797 v 60.781003 h 4.797 v 1.438 h -7.86 z"
       fill-rule="evenodd"
       id="path279" />
    <text
       font-family="'Cambria Math', 'Cambria Math_MSFontService', sans-serif"
       font-weight="400"
       font-size="32px"
       id="text289"
       x="879.83661"
       y="109.47458">1<tspan
   font-size="32px"
   x="879.83661"
   y="147.47458"
   id="tspan281">0</tspan><tspan
   font-family="Calibri, Calibri_MSFontService, sans-serif"
   font-size="32px"
   x="916.79663"
   y="126.47457"
   id="tspan283">+</tspan><tspan
   font-size="32px"
   x="939.96326"
   y="126.47457"
   id="tspan285">ЁЭСе</tspan><tspan
   font-size="23px"
   x="956.65002"
   y="133.47458"
   id="tspan287">2</tspan></text>
    <path
       d="m 1030.6997,91.429577 h 7.44 v 52.500003 h -7.44 v -1.36 h 4.55 V 92.788577 h -4.55 z m -50.34204,0 h 7.437 v 1.359 h -4.547 v 49.781003 h 4.547 v 1.36 h -7.437 z"
       fill-rule="evenodd"
       id="path291" />
    <text
       font-family="'Cambria Math', 'Cambria Math_MSFontService', sans-serif"
       font-weight="400"
       font-size="32px"
       id="text309"
       x="988.49664"
       y="109.47458">тИТ<tspan
   font-size="32px"
   x="1012.33"
   y="109.47458"
   id="tspan293">1</tspan><tspan
   font-size="32px"
   x="1000.4099"
   y="147.47458"
   id="tspan295">1</tspan><tspan
   font-family="Calibri, Calibri_MSFontService, sans-serif"
   font-size="32px"
   x="1041.6833"
   y="126.47457"
   id="tspan297">|</tspan><tspan
   font-size="32px"
   x="1063.5167"
   y="126.47457"
   id="tspan299">ЁЭСе</tspan><tspan
   font-size="23px"
   x="1080.2034"
   y="133.47458"
   id="tspan301">2</tspan><tspan
   font-size="32px"
   x="1103.9167"
   y="126.47457"
   id="tspan303">тИИ</tspan><tspan
   font-family="Cambria, Cambria_MSFontService, sans-serif"
   font-size="32px"
   x="1131.0837"
   y="126.47457"
   id="tspan305">R</tspan><tspan
   font-size="32px"
   x="1150.9167"
   y="126.47457"
   id="tspan307">}</tspan></text>
  </g>
</svg>
