<?xml version="1.0" encoding="UTF-8" standalone="no"?>
<svg
   width="1280"
   height="550"
   overflow="hidden"
   version="1.1"
   id="svg289"
   sodipodi:docname="linear_systems-reduced_echelon_form_proof.svg"
   inkscape:version="1.2 (dc2aedaf03, 2022-05-15)"
   xmlns:inkscape="http://www.inkscape.org/namespaces/inkscape"
   xmlns:sodipodi="http://sodipodi.sourceforge.net/DTD/sodipodi-0.dtd"
   xmlns="http://www.w3.org/2000/svg"
   xmlns:svg="http://www.w3.org/2000/svg">
  <sodipodi:namedview
     id="namedview291"
     pagecolor="#ffffff"
     bordercolor="#000000"
     borderopacity="0.25"
     inkscape:showpageshadow="2"
     inkscape:pageopacity="0.0"
     inkscape:pagecheckerboard="0"
     inkscape:deskcolor="#d1d1d1"
     showgrid="false"
     inkscape:zoom="0.65555556"
     inkscape:cx="430.9322"
     inkscape:cy="358.47458"
     inkscape:window-width="2880"
     inkscape:window-height="1514"
     inkscape:window-x="3829"
     inkscape:window-y="-11"
     inkscape:window-maximized="1"
     inkscape:current-layer="svg289" />
  <defs
     id="defs5">
    <clipPath
       id="clip0">
      <rect
         x="0"
         y="0"
         width="1280"
         height="720"
         id="rect2" />
    </clipPath>
  </defs>
  <g
     clip-path="url(#clip0)"
     id="g287"
     transform="translate(68.644068,-30.508475)">
    <rect
       x="0"
       y="0"
       width="1280"
       height="720"
       fill="#ffffff"
       id="rect7" />
    <path
       d="M 88,164.288 C 88,151.978 97.9785,142 110.288,142 h 174.424 c 12.31,0 22.288,9.978 22.288,22.288 V 292.712 C 307,305.022 297.022,315 284.712,315 H 110.288 C 97.9785,315 88,305.022 88,292.712 Z"
       fill="#e2f0d9"
       fill-rule="evenodd"
       id="path9" />
    <text
       font-family="Calibri, Calibri_MSFontService, sans-serif"
       font-weight="400"
       font-size="43px"
       transform="translate(285.982,96)"
       id="text13">Linear<tspan
   font-size="43px"
   x="116.5"
   y="0"
   id="tspan11">independence implications</tspan></text>
    <path
       d="m 103,157.122 c 0,-2.276 1.846,-4.122 4.122,-4.122 h 180.756 c 2.276,0 4.122,1.846 4.122,4.122 v 23.756 c 0,2.276 -1.846,4.122 -4.122,4.122 H 107.122 C 104.846,185 103,183.154 103,180.878 Z"
       stroke="#c5e0b4"
       stroke-width="4"
       stroke-miterlimit="8"
       fill="#c5e0b4"
       fill-rule="evenodd"
       id="path15" />
    <path
       d="m 367.448,158.442 h 7.778 v 115.409 h -7.778 v -1.503 h 4.878 V 159.945 h -4.878 z m -23.661,0 h 7.778 v 1.503 h -4.878 v 112.403 h 4.878 v 1.503 h -7.778 z"
       fill-rule="evenodd"
       id="path17" />
    <path
       d="m 359.496,161.153 c -0.606,0 -1.114,0.18 -1.522,0.541 -0.409,0.36 -0.739,0.878 -0.989,1.555 -0.251,0.677 -0.429,1.501 -0.534,2.472 -0.106,0.971 -0.158,2.068 -0.158,3.289 0,2.866 0.266,4.968 0.797,6.309 0.532,1.34 1.356,2.01 2.472,2.01 1.064,0 1.853,-0.63 2.367,-1.892 0.514,-1.261 0.771,-3.214 0.771,-5.86 0,-2.021 -0.132,-3.658 -0.396,-4.911 -0.263,-1.252 -0.63,-2.151 -1.1,-2.696 -0.471,-0.545 -1.04,-0.817 -1.708,-0.817 z m 0.066,-1.121 c 1.925,0 3.358,0.743 4.298,2.228 0.941,1.486 1.411,3.731 1.411,6.737 0,3.112 -0.503,5.465 -1.51,7.06 -1.006,1.595 -2.476,2.393 -4.41,2.393 -1.898,0 -3.311,-0.747 -4.238,-2.241 -0.927,-1.494 -1.391,-3.762 -1.391,-6.803 0,-1.617 0.143,-3.015 0.428,-4.192 0.286,-1.178 0.686,-2.152 1.2,-2.921 0.514,-0.769 1.132,-1.338 1.852,-1.707 0.721,-0.369 1.508,-0.554 2.36,-0.554 z"
       fill-rule="evenodd"
       id="path19" />
    <text
       fill="#000000"
       fill-opacity="0"
       font-family="Arial, Arial_MSFontService, sans-serif"
       font-size="18.4175px"
       x="353.72198"
       y="176.14799"
       id="text21">0</text>
    <path
       d="m 359.496,192.413 c -0.606,0 -1.114,0.18 -1.522,0.541 -0.409,0.36 -0.739,0.878 -0.989,1.555 -0.251,0.677 -0.429,1.501 -0.534,2.472 -0.106,0.971 -0.158,2.068 -0.158,3.289 0,2.866 0.266,4.968 0.797,6.309 0.532,1.34 1.356,2.01 2.472,2.01 1.064,0 1.853,-0.63 2.367,-1.892 0.514,-1.261 0.771,-3.214 0.771,-5.86 0,-2.021 -0.132,-3.658 -0.396,-4.911 -0.263,-1.252 -0.63,-2.151 -1.1,-2.696 -0.471,-0.545 -1.04,-0.817 -1.708,-0.817 z m 0.066,-1.121 c 1.925,0 3.358,0.743 4.298,2.228 0.941,1.486 1.411,3.731 1.411,6.737 0,3.112 -0.503,5.465 -1.51,7.06 -1.006,1.595 -2.476,2.393 -4.41,2.393 -1.898,0 -3.311,-0.747 -4.238,-2.241 -0.927,-1.494 -1.391,-3.762 -1.391,-6.803 0,-1.617 0.143,-3.015 0.428,-4.192 0.286,-1.178 0.686,-2.152 1.2,-2.921 0.514,-0.769 1.132,-1.338 1.852,-1.707 0.721,-0.369 1.508,-0.554 2.36,-0.554 z"
       fill-rule="evenodd"
       id="path23" />
    <text
       fill="#000000"
       fill-opacity="0"
       font-family="Arial, Arial_MSFontService, sans-serif"
       font-size="18.4175px"
       x="353.72198"
       y="207.408"
       id="text25">0</text>
    <path
       d="m 360.538,222.552 h 0.725 c -0.053,0.844 -0.079,2.013 -0.079,3.507 v 11.259 c 0,0.51 0.028,0.894 0.086,1.154 0.057,0.259 0.158,0.47 0.303,0.632 0.145,0.163 0.353,0.29 0.626,0.383 0.272,0.092 0.615,0.162 1.028,0.211 0.413,0.048 0.958,0.081 1.635,0.099 v 0.962 h -9.743 v -0.962 c 0.976,-0.044 1.672,-0.104 2.09,-0.178 0.417,-0.075 0.736,-0.187 0.956,-0.337 0.219,-0.149 0.38,-0.36 0.481,-0.632 0.101,-0.273 0.152,-0.717 0.152,-1.332 v -10.692 c 0,-0.351 -0.062,-0.608 -0.185,-0.771 -0.123,-0.163 -0.303,-0.244 -0.541,-0.244 -0.281,0 -0.681,0.145 -1.199,0.435 -0.519,0.29 -1.16,0.69 -1.925,1.2 l -0.58,-1.015 z"
       fill-rule="evenodd"
       id="path27" />
    <text
       fill="#000000"
       fill-opacity="0"
       font-family="Arial, Arial_MSFontService, sans-serif"
       font-size="18.2065px"
       x="354.36801"
       y="238.483"
       id="text29">1</text>
    <path
       d="m 359.496,254.933 c -0.606,0 -1.114,0.18 -1.522,0.541 -0.409,0.36 -0.739,0.878 -0.989,1.555 -0.251,0.677 -0.429,1.501 -0.534,2.472 -0.106,0.971 -0.158,2.068 -0.158,3.289 0,2.866 0.266,4.968 0.797,6.309 0.532,1.34 1.356,2.01 2.472,2.01 1.064,0 1.853,-0.63 2.367,-1.892 0.514,-1.261 0.771,-3.214 0.771,-5.86 0,-2.021 -0.132,-3.658 -0.396,-4.911 -0.263,-1.252 -0.63,-2.151 -1.1,-2.696 -0.471,-0.545 -1.04,-0.817 -1.708,-0.817 z m 0.066,-1.121 c 1.925,0 3.358,0.743 4.298,2.228 0.941,1.486 1.411,3.731 1.411,6.737 0,3.112 -0.503,5.465 -1.51,7.06 -1.006,1.595 -2.476,2.393 -4.41,2.393 -1.898,0 -3.311,-0.747 -4.238,-2.241 -0.927,-1.494 -1.391,-3.762 -1.391,-6.803 0,-1.617 0.143,-3.015 0.428,-4.192 0.286,-1.178 0.686,-2.152 1.2,-2.921 0.514,-0.769 1.132,-1.338 1.852,-1.707 0.721,-0.369 1.508,-0.554 2.36,-0.554 z"
       fill-rule="evenodd"
       id="path31" />
    <text
       fill="#000000"
       fill-opacity="0"
       font-family="Arial, Arial_MSFontService, sans-serif"
       font-size="18.4175px"
       x="353.72198"
       y="269.92801"
       id="text33">0</text>
    <path
       d="m 158,195.994 c 0,-2.206 1.788,-3.994 3.994,-3.994 h 126.012 c 2.206,0 3.994,1.788 3.994,3.994 v 23.012 c 0,2.206 -1.788,3.994 -3.994,3.994 H 161.994 C 159.788,223 158,221.212 158,219.006 Z"
       stroke="#c5e0b4"
       stroke-width="4"
       stroke-miterlimit="8"
       fill="#c5e0b4"
       fill-rule="evenodd"
       id="path35" />
    <path
       d="m 211,234.123 c 0,-2.277 1.846,-4.123 4.123,-4.123 h 72.754 c 2.277,0 4.123,1.846 4.123,4.123 v 23.754 c 0,2.277 -1.846,4.123 -4.123,4.123 H 215.123 C 212.846,262 211,260.154 211,257.877 Z"
       stroke="#c5e0b4"
       stroke-width="4"
       stroke-miterlimit="8"
       fill="#c5e0b4"
       fill-rule="evenodd"
       id="path37" />
    <path
       d="m 254,273.123 c 0,-2.277 1.846,-4.123 4.123,-4.123 h 29.754 c 2.277,0 4.123,1.846 4.123,4.123 v 23.754 c 0,2.277 -1.846,4.123 -4.123,4.123 H 258.123 C 255.846,301 254,299.154 254,296.877 Z"
       stroke="#c5e0b4"
       stroke-width="4"
       stroke-miterlimit="8"
       fill="#c5e0b4"
       fill-rule="evenodd"
       id="path39" />
    <path
       d="m 124.426,157.435 h 0.859 c -0.062,1 -0.094,2.386 -0.094,4.157 v 13.343 c 0,0.604 0.034,1.06 0.102,1.367 0.068,0.308 0.187,0.558 0.359,0.75 0.172,0.193 0.42,0.344 0.742,0.454 0.323,0.109 0.73,0.192 1.219,0.25 0.49,0.057 1.136,0.096 1.938,0.117 v 1.14 h -11.547 v -1.14 c 1.156,-0.052 1.982,-0.123 2.476,-0.211 0.495,-0.089 0.873,-0.222 1.133,-0.399 0.261,-0.177 0.451,-0.427 0.571,-0.75 0.119,-0.323 0.179,-0.849 0.179,-1.578 v -12.672 c 0,-0.416 -0.073,-0.721 -0.219,-0.914 -0.145,-0.192 -0.359,-0.289 -0.64,-0.289 -0.333,0 -0.807,0.172 -1.422,0.516 -0.615,0.344 -1.375,0.818 -2.281,1.422 l -0.688,-1.203 z"
       fill-rule="evenodd"
       id="path41" />
    <text
       fill="#000000"
       fill-opacity="0"
       font-family="Arial, Arial_MSFontService, sans-serif"
       font-size="21.5781px"
       x="117.113"
       y="176.31599"
       id="text43">1</text>
    <path
       d="m 172.858,158.763 c -0.719,0 -1.32,0.214 -1.805,0.641 -0.484,0.427 -0.875,1.042 -1.172,1.844 -0.296,0.802 -0.507,1.778 -0.632,2.929 -0.125,1.151 -0.188,2.451 -0.188,3.899 0,3.396 0.315,5.888 0.945,7.476 0.631,1.589 1.607,2.383 2.93,2.383 1.261,0 2.195,-0.747 2.805,-2.242 0.609,-1.495 0.914,-3.81 0.914,-6.945 0,-2.396 -0.156,-4.336 -0.469,-5.821 -0.312,-1.484 -0.747,-2.549 -1.305,-3.195 -0.557,-0.646 -1.231,-0.969 -2.023,-0.969 z m 0.078,-1.328 c 2.281,0 3.979,0.88 5.094,2.641 1.114,1.76 1.672,4.422 1.672,7.984 0,3.688 -0.597,6.477 -1.789,8.367 -1.193,1.891 -2.935,2.836 -5.227,2.836 -2.25,0 -3.924,-0.885 -5.023,-2.656 -1.099,-1.771 -1.649,-4.458 -1.649,-8.062 0,-1.917 0.17,-3.573 0.508,-4.969 0.339,-1.396 0.813,-2.55 1.422,-3.461 0.609,-0.912 1.341,-1.586 2.195,-2.023 0.854,-0.438 1.787,-0.657 2.797,-0.657 z"
       fill-rule="evenodd"
       id="path45" />
    <text
       fill="#000000"
       fill-opacity="0"
       font-family="Arial, Arial_MSFontService, sans-serif"
       font-size="21.8281px"
       x="166.01401"
       y="176.535"
       id="text47">0</text>
    <path
       d="m 222.525,158.763 c -0.719,0 -1.321,0.214 -1.805,0.641 -0.484,0.427 -0.875,1.042 -1.172,1.844 -0.297,0.802 -0.508,1.778 -0.633,2.929 -0.125,1.151 -0.187,2.451 -0.187,3.899 0,3.396 0.315,5.888 0.945,7.476 0.63,1.589 1.607,2.383 2.93,2.383 1.26,0 2.195,-0.747 2.804,-2.242 0.61,-1.495 0.915,-3.81 0.915,-6.945 0,-2.396 -0.157,-4.336 -0.469,-5.821 -0.313,-1.484 -0.748,-2.549 -1.305,-3.195 -0.557,-0.646 -1.232,-0.969 -2.023,-0.969 z m 0.078,-1.328 c 2.281,0 3.979,0.88 5.094,2.641 1.114,1.76 1.671,4.422 1.671,7.984 0,3.688 -0.596,6.477 -1.789,8.367 -1.192,1.891 -2.935,2.836 -5.226,2.836 -2.25,0 -3.925,-0.885 -5.024,-2.656 -1.099,-1.771 -1.648,-4.458 -1.648,-8.062 0,-1.917 0.169,-3.573 0.508,-4.969 0.338,-1.396 0.812,-2.55 1.422,-3.461 0.609,-0.912 1.341,-1.586 2.195,-2.023 0.854,-0.438 1.786,-0.657 2.797,-0.657 z"
       fill-rule="evenodd"
       id="path49" />
    <text
       fill="#000000"
       fill-opacity="0"
       font-family="Arial, Arial_MSFontService, sans-serif"
       font-size="21.8281px"
       x="215.681"
       y="176.535"
       id="text51">0</text>
    <path
       d="m 272.191,158.763 c -0.718,0 -1.32,0.214 -1.804,0.641 -0.485,0.427 -0.875,1.042 -1.172,1.844 -0.297,0.802 -0.508,1.778 -0.633,2.929 -0.125,1.151 -0.188,2.451 -0.188,3.899 0,3.396 0.316,5.888 0.946,7.476 0.63,1.589 1.607,2.383 2.929,2.383 1.261,0 2.196,-0.747 2.805,-2.242 0.61,-1.495 0.914,-3.81 0.914,-6.945 0,-2.396 -0.156,-4.336 -0.469,-5.821 -0.312,-1.484 -0.747,-2.549 -1.304,-3.195 -0.557,-0.646 -1.232,-0.969 -2.024,-0.969 z m 0.078,-1.328 c 2.282,0 3.98,0.88 5.094,2.641 1.115,1.76 1.672,4.422 1.672,7.984 0,3.688 -0.596,6.477 -1.789,8.367 -1.193,1.891 -2.935,2.836 -5.227,2.836 -2.25,0 -3.924,-0.885 -5.023,-2.656 -1.099,-1.771 -1.648,-4.458 -1.648,-8.062 0,-1.917 0.169,-3.573 0.507,-4.969 0.339,-1.396 0.813,-2.55 1.422,-3.461 0.61,-0.912 1.341,-1.586 2.196,-2.023 0.854,-0.438 1.786,-0.657 2.796,-0.657 z"
       fill-rule="evenodd"
       id="path53" />
    <text
       fill="#000000"
       fill-opacity="0"
       font-family="Arial, Arial_MSFontService, sans-serif"
       font-size="21.8281px"
       x="265.34799"
       y="176.535"
       id="text55">0</text>
    <path
       d="m 123.191,196.277 c -0.718,0 -1.32,0.213 -1.804,0.64 -0.485,0.427 -0.875,1.042 -1.172,1.844 -0.297,0.802 -0.508,1.779 -0.633,2.93 -0.125,1.151 -0.188,2.45 -0.188,3.898 0,3.396 0.316,5.888 0.946,7.477 0.63,1.588 1.607,2.383 2.929,2.383 1.261,0 2.196,-0.748 2.805,-2.243 0.61,-1.494 0.914,-3.809 0.914,-6.945 0,-2.396 -0.156,-4.336 -0.469,-5.82 -0.312,-1.485 -0.747,-2.55 -1.304,-3.196 -0.558,-0.645 -1.232,-0.968 -2.024,-0.968 z m 0.078,-1.328 c 2.282,0 3.98,0.88 5.094,2.64 1.115,1.761 1.672,4.422 1.672,7.985 0,3.687 -0.596,6.476 -1.789,8.367 -1.193,1.89 -2.935,2.836 -5.227,2.836 -2.25,0 -3.924,-0.886 -5.023,-2.657 -1.099,-1.77 -1.648,-4.458 -1.648,-8.062 0,-1.917 0.169,-3.573 0.507,-4.969 0.339,-1.396 0.813,-2.549 1.422,-3.461 0.61,-0.911 1.341,-1.586 2.196,-2.023 0.854,-0.438 1.786,-0.656 2.796,-0.656 z"
       fill-rule="evenodd"
       id="path57" />
    <text
       fill="#000000"
       fill-opacity="0"
       font-family="Arial, Arial_MSFontService, sans-serif"
       font-size="21.8281px"
       x="116.348"
       y="214.048"
       id="text59">0</text>
    <path
       d="m 174.092,194.949 h 0.86 c -0.063,1 -0.094,2.385 -0.094,4.156 v 13.344 c 0,0.604 0.034,1.059 0.102,1.367 0.067,0.307 0.187,0.557 0.359,0.75 0.172,0.192 0.419,0.344 0.742,0.453 0.323,0.109 0.729,0.193 1.219,0.25 0.489,0.057 1.135,0.096 1.937,0.117 v 1.141 h -11.546 v -1.141 c 1.156,-0.052 1.981,-0.122 2.476,-0.211 0.495,-0.088 0.872,-0.221 1.133,-0.398 0.26,-0.177 0.45,-0.427 0.57,-0.75 0.12,-0.323 0.18,-0.849 0.18,-1.578 v -12.672 c 0,-0.417 -0.073,-0.722 -0.219,-0.914 -0.146,-0.193 -0.359,-0.289 -0.64,-0.289 -0.334,0 -0.808,0.171 -1.422,0.515 -0.615,0.344 -1.375,0.818 -2.282,1.422 l -0.687,-1.203 z"
       fill-rule="evenodd"
       id="path61" />
    <text
       fill="#000000"
       fill-opacity="0"
       font-family="Arial, Arial_MSFontService, sans-serif"
       font-size="21.5781px"
       x="166.78"
       y="213.82899"
       id="text63">1</text>
    <path
       d="m 222.525,196.277 c -0.719,0 -1.321,0.213 -1.805,0.64 -0.484,0.427 -0.875,1.042 -1.172,1.844 -0.297,0.802 -0.508,1.779 -0.633,2.93 -0.125,1.151 -0.187,2.45 -0.187,3.898 0,3.396 0.315,5.888 0.945,7.477 0.63,1.588 1.607,2.383 2.93,2.383 1.26,0 2.195,-0.748 2.804,-2.243 0.61,-1.494 0.915,-3.809 0.915,-6.945 0,-2.396 -0.157,-4.336 -0.469,-5.82 -0.313,-1.485 -0.748,-2.55 -1.305,-3.196 -0.557,-0.645 -1.232,-0.968 -2.023,-0.968 z m 0.078,-1.328 c 2.281,0 3.979,0.88 5.094,2.64 1.114,1.761 1.671,4.422 1.671,7.985 0,3.687 -0.596,6.476 -1.789,8.367 -1.192,1.89 -2.935,2.836 -5.226,2.836 -2.25,0 -3.925,-0.886 -5.024,-2.657 -1.099,-1.77 -1.648,-4.458 -1.648,-8.062 0,-1.917 0.169,-3.573 0.508,-4.969 0.338,-1.396 0.812,-2.549 1.422,-3.461 0.609,-0.911 1.341,-1.586 2.195,-2.023 0.854,-0.438 1.786,-0.656 2.797,-0.656 z"
       fill-rule="evenodd"
       id="path65" />
    <text
       fill="#000000"
       fill-opacity="0"
       font-family="Arial, Arial_MSFontService, sans-serif"
       font-size="21.8281px"
       x="215.681"
       y="214.048"
       id="text67">0</text>
    <path
       d="m 272.191,196.277 c -0.718,0 -1.32,0.213 -1.804,0.64 -0.485,0.427 -0.875,1.042 -1.172,1.844 -0.297,0.802 -0.508,1.779 -0.633,2.93 -0.125,1.151 -0.188,2.45 -0.188,3.898 0,3.396 0.316,5.888 0.946,7.477 0.63,1.588 1.607,2.383 2.929,2.383 1.261,0 2.196,-0.748 2.805,-2.243 0.61,-1.494 0.914,-3.809 0.914,-6.945 0,-2.396 -0.156,-4.336 -0.469,-5.82 -0.312,-1.485 -0.747,-2.55 -1.304,-3.196 -0.557,-0.645 -1.232,-0.968 -2.024,-0.968 z m 0.078,-1.328 c 2.282,0 3.98,0.88 5.094,2.64 1.115,1.761 1.672,4.422 1.672,7.985 0,3.687 -0.596,6.476 -1.789,8.367 -1.193,1.89 -2.935,2.836 -5.227,2.836 -2.25,0 -3.924,-0.886 -5.023,-2.657 -1.099,-1.77 -1.648,-4.458 -1.648,-8.062 0,-1.917 0.169,-3.573 0.507,-4.969 0.339,-1.396 0.813,-2.549 1.422,-3.461 0.61,-0.911 1.341,-1.586 2.196,-2.023 0.854,-0.438 1.786,-0.656 2.796,-0.656 z"
       fill-rule="evenodd"
       id="path69" />
    <text
       fill="#000000"
       fill-opacity="0"
       font-family="Arial, Arial_MSFontService, sans-serif"
       font-size="21.8281px"
       x="265.34799"
       y="214.048"
       id="text71">0</text>
    <path
       d="m 123.191,233.79 c -0.718,0 -1.32,0.214 -1.804,0.641 -0.485,0.427 -0.875,1.041 -1.172,1.843 -0.297,0.803 -0.508,1.779 -0.633,2.93 -0.125,1.151 -0.188,2.451 -0.188,3.899 0,3.395 0.316,5.888 0.946,7.476 0.63,1.589 1.607,2.383 2.929,2.383 1.261,0 2.196,-0.747 2.805,-2.242 0.61,-1.495 0.914,-3.81 0.914,-6.946 0,-2.395 -0.156,-4.336 -0.469,-5.82 -0.312,-1.484 -0.747,-2.549 -1.304,-3.195 -0.558,-0.646 -1.232,-0.969 -2.024,-0.969 z m 0.078,-1.328 c 2.282,0 3.98,0.88 5.094,2.641 1.115,1.76 1.672,4.421 1.672,7.984 0,3.687 -0.596,6.476 -1.789,8.367 -1.193,1.891 -2.935,2.836 -5.227,2.836 -2.25,0 -3.924,-0.885 -5.023,-2.656 -1.099,-1.771 -1.648,-4.459 -1.648,-8.063 0,-1.916 0.169,-3.573 0.507,-4.968 0.339,-1.396 0.813,-2.55 1.422,-3.461 0.61,-0.912 1.341,-1.586 2.196,-2.024 0.854,-0.437 1.786,-0.656 2.796,-0.656 z"
       fill-rule="evenodd"
       id="path73" />
    <text
       fill="#000000"
       fill-opacity="0"
       font-family="Arial, Arial_MSFontService, sans-serif"
       font-size="21.8281px"
       x="116.348"
       y="251.562"
       id="text75">0</text>
    <path
       d="m 172.858,233.79 c -0.719,0 -1.32,0.214 -1.805,0.641 -0.484,0.427 -0.875,1.041 -1.172,1.843 -0.296,0.803 -0.507,1.779 -0.632,2.93 -0.125,1.151 -0.188,2.451 -0.188,3.899 0,3.395 0.315,5.888 0.945,7.476 0.631,1.589 1.607,2.383 2.93,2.383 1.261,0 2.195,-0.747 2.805,-2.242 0.609,-1.495 0.914,-3.81 0.914,-6.946 0,-2.395 -0.156,-4.336 -0.469,-5.82 -0.312,-1.484 -0.747,-2.549 -1.305,-3.195 -0.557,-0.646 -1.231,-0.969 -2.023,-0.969 z m 0.078,-1.328 c 2.281,0 3.979,0.88 5.094,2.641 1.114,1.76 1.672,4.421 1.672,7.984 0,3.687 -0.597,6.476 -1.789,8.367 -1.193,1.891 -2.935,2.836 -5.227,2.836 -2.25,0 -3.924,-0.885 -5.023,-2.656 -1.099,-1.771 -1.649,-4.459 -1.649,-8.063 0,-1.916 0.17,-3.573 0.508,-4.968 0.339,-1.396 0.813,-2.55 1.422,-3.461 0.609,-0.912 1.341,-1.586 2.195,-2.024 0.854,-0.437 1.787,-0.656 2.797,-0.656 z"
       fill-rule="evenodd"
       id="path77" />
    <text
       fill="#000000"
       fill-opacity="0"
       font-family="Arial, Arial_MSFontService, sans-serif"
       font-size="21.8281px"
       x="166.01401"
       y="251.562"
       id="text79">0</text>
    <path
       d="m 223.759,232.462 h 0.859 c -0.062,1 -0.093,2.385 -0.093,4.156 v 13.344 c 0,0.604 0.034,1.06 0.101,1.367 0.068,0.307 0.188,0.557 0.36,0.75 0.171,0.193 0.419,0.344 0.742,0.453 0.323,0.11 0.729,0.193 1.219,0.25 0.489,0.058 1.135,0.097 1.937,0.117 v 1.141 h -11.547 v -1.141 c 1.156,-0.052 1.982,-0.122 2.477,-0.211 0.495,-0.088 0.872,-0.221 1.133,-0.398 0.26,-0.177 0.45,-0.427 0.57,-0.75 0.12,-0.323 0.18,-0.849 0.18,-1.578 V 237.29 c 0,-0.417 -0.073,-0.721 -0.219,-0.914 -0.146,-0.193 -0.36,-0.289 -0.641,-0.289 -0.333,0 -0.807,0.172 -1.422,0.516 -0.614,0.343 -1.375,0.817 -2.281,1.421 l -0.687,-1.203 z"
       fill-rule="evenodd"
       id="path81" />
    <text
       fill="#000000"
       fill-opacity="0"
       font-family="Arial, Arial_MSFontService, sans-serif"
       font-size="21.5781px"
       x="216.44701"
       y="251.343"
       id="text83">1</text>
    <path
       d="m 272.191,233.79 c -0.718,0 -1.32,0.214 -1.804,0.641 -0.485,0.427 -0.875,1.041 -1.172,1.843 -0.297,0.803 -0.508,1.779 -0.633,2.93 -0.125,1.151 -0.188,2.451 -0.188,3.899 0,3.395 0.316,5.888 0.946,7.476 0.63,1.589 1.607,2.383 2.929,2.383 1.261,0 2.196,-0.747 2.805,-2.242 0.61,-1.495 0.914,-3.81 0.914,-6.946 0,-2.395 -0.156,-4.336 -0.469,-5.82 -0.312,-1.484 -0.747,-2.549 -1.304,-3.195 -0.557,-0.646 -1.232,-0.969 -2.024,-0.969 z m 0.078,-1.328 c 2.282,0 3.98,0.88 5.094,2.641 1.115,1.76 1.672,4.421 1.672,7.984 0,3.687 -0.596,6.476 -1.789,8.367 -1.193,1.891 -2.935,2.836 -5.227,2.836 -2.25,0 -3.924,-0.885 -5.023,-2.656 -1.099,-1.771 -1.648,-4.459 -1.648,-8.063 0,-1.916 0.169,-3.573 0.507,-4.968 0.339,-1.396 0.813,-2.55 1.422,-3.461 0.61,-0.912 1.341,-1.586 2.196,-2.024 0.854,-0.437 1.786,-0.656 2.796,-0.656 z"
       fill-rule="evenodd"
       id="path85" />
    <text
       fill="#000000"
       fill-opacity="0"
       font-family="Arial, Arial_MSFontService, sans-serif"
       font-size="21.8281px"
       x="265.34799"
       y="251.562"
       id="text87">0</text>
    <path
       d="m 123.191,271.303 c -0.718,0 -1.32,0.214 -1.804,0.641 -0.485,0.427 -0.875,1.042 -1.172,1.844 -0.297,0.802 -0.508,1.778 -0.633,2.929 -0.125,1.151 -0.188,2.451 -0.188,3.899 0,3.396 0.316,5.888 0.946,7.476 0.63,1.589 1.607,2.383 2.929,2.383 1.261,0 2.196,-0.747 2.805,-2.242 0.61,-1.495 0.914,-3.81 0.914,-6.945 0,-2.396 -0.156,-4.336 -0.469,-5.821 -0.312,-1.484 -0.747,-2.549 -1.304,-3.195 -0.558,-0.646 -1.232,-0.969 -2.024,-0.969 z m 0.078,-1.328 c 2.282,0 3.98,0.88 5.094,2.641 1.115,1.76 1.672,4.422 1.672,7.984 0,3.688 -0.596,6.477 -1.789,8.367 -1.193,1.891 -2.935,2.836 -5.227,2.836 -2.25,0 -3.924,-0.885 -5.023,-2.656 -1.099,-1.771 -1.648,-4.458 -1.648,-8.062 0,-1.917 0.169,-3.573 0.507,-4.969 0.339,-1.396 0.813,-2.55 1.422,-3.461 0.61,-0.912 1.341,-1.586 2.196,-2.023 0.854,-0.438 1.786,-0.657 2.796,-0.657 z"
       fill-rule="evenodd"
       id="path89" />
    <text
       fill="#000000"
       fill-opacity="0"
       font-family="Arial, Arial_MSFontService, sans-serif"
       font-size="21.8281px"
       x="116.348"
       y="289.07501"
       id="text91">0</text>
    <path
       d="m 172.858,271.303 c -0.719,0 -1.32,0.214 -1.805,0.641 -0.484,0.427 -0.875,1.042 -1.172,1.844 -0.296,0.802 -0.507,1.778 -0.632,2.929 -0.125,1.151 -0.188,2.451 -0.188,3.899 0,3.396 0.315,5.888 0.945,7.476 0.631,1.589 1.607,2.383 2.93,2.383 1.261,0 2.195,-0.747 2.805,-2.242 0.609,-1.495 0.914,-3.81 0.914,-6.945 0,-2.396 -0.156,-4.336 -0.469,-5.821 -0.312,-1.484 -0.747,-2.549 -1.305,-3.195 -0.557,-0.646 -1.231,-0.969 -2.023,-0.969 z m 0.078,-1.328 c 2.281,0 3.979,0.88 5.094,2.641 1.114,1.76 1.672,4.422 1.672,7.984 0,3.688 -0.597,6.477 -1.789,8.367 -1.193,1.891 -2.935,2.836 -5.227,2.836 -2.25,0 -3.924,-0.885 -5.023,-2.656 -1.099,-1.771 -1.649,-4.458 -1.649,-8.062 0,-1.917 0.17,-3.573 0.508,-4.969 0.339,-1.396 0.813,-2.55 1.422,-3.461 0.609,-0.912 1.341,-1.586 2.195,-2.023 0.854,-0.438 1.787,-0.657 2.797,-0.657 z"
       fill-rule="evenodd"
       id="path93" />
    <text
       fill="#000000"
       fill-opacity="0"
       font-family="Arial, Arial_MSFontService, sans-serif"
       font-size="21.8281px"
       x="166.01401"
       y="289.07501"
       id="text95">0</text>
    <path
       d="m 222.525,271.303 c -0.719,0 -1.321,0.214 -1.805,0.641 -0.484,0.427 -0.875,1.042 -1.172,1.844 -0.297,0.802 -0.508,1.778 -0.633,2.929 -0.125,1.151 -0.187,2.451 -0.187,3.899 0,3.396 0.315,5.888 0.945,7.476 0.63,1.589 1.607,2.383 2.93,2.383 1.26,0 2.195,-0.747 2.804,-2.242 0.61,-1.495 0.915,-3.81 0.915,-6.945 0,-2.396 -0.157,-4.336 -0.469,-5.821 -0.313,-1.484 -0.748,-2.549 -1.305,-3.195 -0.557,-0.646 -1.232,-0.969 -2.023,-0.969 z m 0.078,-1.328 c 2.281,0 3.979,0.88 5.094,2.641 1.114,1.76 1.671,4.422 1.671,7.984 0,3.688 -0.596,6.477 -1.789,8.367 -1.192,1.891 -2.935,2.836 -5.226,2.836 -2.25,0 -3.925,-0.885 -5.024,-2.656 -1.099,-1.771 -1.648,-4.458 -1.648,-8.062 0,-1.917 0.169,-3.573 0.508,-4.969 0.338,-1.396 0.812,-2.55 1.422,-3.461 0.609,-0.912 1.341,-1.586 2.195,-2.023 0.854,-0.438 1.786,-0.657 2.797,-0.657 z"
       fill-rule="evenodd"
       id="path97" />
    <text
       fill="#000000"
       fill-opacity="0"
       font-family="Arial, Arial_MSFontService, sans-serif"
       font-size="21.8281px"
       x="215.681"
       y="289.07501"
       id="text99">0</text>
    <path
       d="m 273.426,269.975 h 0.859 c -0.062,1 -0.094,2.386 -0.094,4.157 v 13.343 c 0,0.604 0.034,1.06 0.102,1.367 0.068,0.308 0.187,0.558 0.359,0.75 0.172,0.193 0.42,0.344 0.742,0.454 0.323,0.109 0.73,0.192 1.219,0.25 0.49,0.057 1.136,0.096 1.938,0.117 v 1.14 h -11.547 v -1.14 c 1.156,-0.052 1.982,-0.123 2.476,-0.211 0.495,-0.089 0.873,-0.222 1.133,-0.399 0.261,-0.177 0.451,-0.427 0.571,-0.75 0.119,-0.323 0.179,-0.849 0.179,-1.578 v -12.672 c 0,-0.416 -0.073,-0.721 -0.219,-0.914 -0.145,-0.192 -0.359,-0.289 -0.64,-0.289 -0.333,0 -0.807,0.172 -1.422,0.516 -0.615,0.344 -1.375,0.818 -2.281,1.422 l -0.688,-1.203 z"
       fill-rule="evenodd"
       id="path101" />
    <text
       fill="#000000"
       fill-opacity="0"
       font-family="Arial, Arial_MSFontService, sans-serif"
       font-size="21.5781px"
       x="266.11301"
       y="288.85599"
       id="text103">1</text>
    <path
       d="m 968.63,158.523 h 7.778 v 115.409 h -7.778 v -1.503 h 4.878 V 160.026 h -4.878 z m -65.161,0 h 7.779 v 1.503 h -4.878 v 112.403 h 4.878 v 1.503 h -7.779 z"
       fill-rule="evenodd"
       id="path105" />
    <path
       d="m 920.22,160.113 h 0.725 c -0.053,0.844 -0.079,2.013 -0.079,3.507 v 11.259 c 0,0.51 0.029,0.894 0.086,1.154 0.057,0.259 0.158,0.47 0.303,0.632 0.145,0.163 0.354,0.29 0.626,0.383 0.273,0.092 0.615,0.162 1.028,0.211 0.414,0.048 0.958,0.081 1.635,0.098 v 0.963 h -9.742 v -0.963 c 0.975,-0.043 1.672,-0.103 2.089,-0.177 0.418,-0.075 0.736,-0.187 0.956,-0.337 0.22,-0.149 0.38,-0.36 0.481,-0.632 0.101,-0.273 0.152,-0.717 0.152,-1.332 v -10.692 c 0,-0.351 -0.062,-0.609 -0.185,-0.771 -0.123,-0.163 -0.303,-0.244 -0.54,-0.244 -0.282,0 -0.681,0.145 -1.2,0.435 -0.519,0.29 -1.16,0.69 -1.925,1.2 l -0.58,-1.015 z"
       fill-rule="evenodd"
       id="path107" />
    <text
       fill="#000000"
       fill-opacity="0"
       font-family="Arial, Arial_MSFontService, sans-serif"
       font-size="18.2065px"
       x="914.04999"
       y="176.04401"
       id="text109">1</text>
    <path
       d="m 960.679,161.234 c -0.607,0 -1.114,0.18 -1.523,0.54 -0.409,0.361 -0.738,0.879 -0.989,1.556 -0.25,0.677 -0.428,1.501 -0.534,2.472 -0.105,0.971 -0.158,2.068 -0.158,3.289 0,2.866 0.266,4.968 0.798,6.309 0.531,1.34 1.355,2.01 2.471,2.01 1.064,0 1.853,-0.63 2.367,-1.892 0.514,-1.261 0.771,-3.214 0.771,-5.86 0,-2.021 -0.132,-3.658 -0.395,-4.911 -0.264,-1.252 -0.631,-2.151 -1.101,-2.696 -0.47,-0.545 -1.04,-0.817 -1.707,-0.817 z m 0.065,-1.121 c 1.925,0 3.358,0.743 4.298,2.228 0.941,1.486 1.411,3.731 1.411,6.737 0,3.112 -0.503,5.465 -1.51,7.06 -1.006,1.595 -2.476,2.393 -4.409,2.393 -1.899,0 -3.312,-0.747 -4.239,-2.241 -0.927,-1.495 -1.391,-3.762 -1.391,-6.803 0,-1.617 0.143,-3.015 0.429,-4.192 0.285,-1.178 0.685,-2.152 1.199,-2.921 0.514,-0.769 1.132,-1.338 1.853,-1.707 0.72,-0.369 1.507,-0.554 2.359,-0.554 z"
       fill-rule="evenodd"
       id="path111" />
    <text
       fill="#000000"
       fill-opacity="0"
       font-family="Arial, Arial_MSFontService, sans-serif"
       font-size="18.4175px"
       x="954.90399"
       y="176.229"
       id="text113">0</text>
    <path
       d="m 919.179,192.494 c -0.607,0 -1.114,0.18 -1.523,0.54 -0.409,0.361 -0.738,0.879 -0.989,1.556 -0.25,0.677 -0.428,1.501 -0.534,2.472 -0.105,0.971 -0.158,2.068 -0.158,3.289 0,2.866 0.266,4.968 0.798,6.309 0.531,1.34 1.355,2.01 2.471,2.01 1.064,0 1.853,-0.63 2.367,-1.892 0.514,-1.261 0.771,-3.214 0.771,-5.86 0,-2.021 -0.132,-3.658 -0.395,-4.911 -0.264,-1.252 -0.631,-2.151 -1.101,-2.696 -0.47,-0.545 -1.04,-0.817 -1.707,-0.817 z m 0.065,-1.121 c 1.925,0 3.358,0.743 4.298,2.228 0.941,1.486 1.411,3.731 1.411,6.737 0,3.112 -0.503,5.465 -1.51,7.06 -1.006,1.595 -2.476,2.393 -4.409,2.393 -1.899,0 -3.312,-0.747 -4.239,-2.241 -0.927,-1.495 -1.391,-3.762 -1.391,-6.803 0,-1.617 0.143,-3.015 0.429,-4.192 0.285,-1.178 0.685,-2.152 1.199,-2.921 0.514,-0.769 1.132,-1.338 1.853,-1.707 0.72,-0.369 1.507,-0.554 2.359,-0.554 z"
       fill-rule="evenodd"
       id="path115" />
    <text
       fill="#000000"
       fill-opacity="0"
       font-family="Arial, Arial_MSFontService, sans-serif"
       font-size="18.4175px"
       x="913.40399"
       y="207.489"
       id="text117">0</text>
    <path
       d="m 961.72,191.373 h 0.725 c -0.053,0.844 -0.079,2.013 -0.079,3.507 v 11.259 c 0,0.51 0.029,0.894 0.086,1.154 0.057,0.259 0.158,0.47 0.303,0.632 0.145,0.163 0.354,0.29 0.626,0.383 0.273,0.092 0.615,0.162 1.028,0.211 0.414,0.048 0.958,0.081 1.635,0.098 v 0.963 h -9.742 v -0.963 c 0.975,-0.043 1.672,-0.103 2.089,-0.177 0.418,-0.075 0.736,-0.187 0.956,-0.337 0.22,-0.149 0.38,-0.36 0.481,-0.632 0.101,-0.273 0.152,-0.717 0.152,-1.332 v -10.692 c 0,-0.351 -0.062,-0.609 -0.185,-0.771 -0.123,-0.163 -0.303,-0.244 -0.54,-0.244 -0.282,0 -0.681,0.145 -1.2,0.435 -0.519,0.29 -1.16,0.69 -1.925,1.2 l -0.58,-1.015 z"
       fill-rule="evenodd"
       id="path119" />
    <text
       fill="#000000"
       fill-opacity="0"
       font-family="Arial, Arial_MSFontService, sans-serif"
       font-size="18.2065px"
       x="955.54999"
       y="207.304"
       id="text121">1</text>
    <path
       d="m 919.179,223.754 c -0.607,0 -1.114,0.18 -1.523,0.54 -0.409,0.361 -0.738,0.879 -0.989,1.556 -0.25,0.677 -0.428,1.501 -0.534,2.472 -0.105,0.971 -0.158,2.068 -0.158,3.289 0,2.866 0.266,4.968 0.798,6.309 0.531,1.34 1.355,2.01 2.471,2.01 1.064,0 1.853,-0.63 2.367,-1.892 0.514,-1.261 0.771,-3.214 0.771,-5.86 0,-2.021 -0.132,-3.658 -0.395,-4.911 -0.264,-1.252 -0.631,-2.151 -1.101,-2.696 -0.47,-0.545 -1.04,-0.817 -1.707,-0.817 z m 0.065,-1.121 c 1.925,0 3.358,0.743 4.298,2.228 0.941,1.486 1.411,3.731 1.411,6.737 0,3.112 -0.503,5.465 -1.51,7.06 -1.006,1.595 -2.476,2.393 -4.409,2.393 -1.899,0 -3.312,-0.747 -4.239,-2.241 -0.927,-1.495 -1.391,-3.762 -1.391,-6.803 0,-1.617 0.143,-3.015 0.429,-4.193 0.285,-1.177 0.685,-2.151 1.199,-2.92 0.514,-0.769 1.132,-1.338 1.853,-1.707 0.72,-0.369 1.507,-0.554 2.359,-0.554 z"
       fill-rule="evenodd"
       id="path123" />
    <text
       fill="#000000"
       fill-opacity="0"
       font-family="Arial, Arial_MSFontService, sans-serif"
       font-size="18.4175px"
       x="913.40399"
       y="238.74899"
       id="text125">0</text>
    <path
       d="m 960.679,223.754 c -0.607,0 -1.114,0.18 -1.523,0.54 -0.409,0.361 -0.738,0.879 -0.989,1.556 -0.25,0.677 -0.428,1.501 -0.534,2.472 -0.105,0.971 -0.158,2.068 -0.158,3.289 0,2.866 0.266,4.968 0.798,6.309 0.531,1.34 1.355,2.01 2.471,2.01 1.064,0 1.853,-0.63 2.367,-1.892 0.514,-1.261 0.771,-3.214 0.771,-5.86 0,-2.021 -0.132,-3.658 -0.395,-4.911 -0.264,-1.252 -0.631,-2.151 -1.101,-2.696 -0.47,-0.545 -1.04,-0.817 -1.707,-0.817 z m 0.065,-1.121 c 1.925,0 3.358,0.743 4.298,2.228 0.941,1.486 1.411,3.731 1.411,6.737 0,3.112 -0.503,5.465 -1.51,7.06 -1.006,1.595 -2.476,2.393 -4.409,2.393 -1.899,0 -3.312,-0.747 -4.239,-2.241 -0.927,-1.495 -1.391,-3.762 -1.391,-6.803 0,-1.617 0.143,-3.015 0.429,-4.193 0.285,-1.177 0.685,-2.151 1.199,-2.92 0.514,-0.769 1.132,-1.338 1.853,-1.707 0.72,-0.369 1.507,-0.554 2.359,-0.554 z"
       fill-rule="evenodd"
       id="path127" />
    <text
       fill="#000000"
       fill-opacity="0"
       font-family="Arial, Arial_MSFontService, sans-serif"
       font-size="18.4175px"
       x="954.90399"
       y="238.74899"
       id="text129">0</text>
    <path
       d="m 919.179,255.014 c -0.607,0 -1.114,0.18 -1.523,0.54 -0.409,0.361 -0.738,0.879 -0.989,1.556 -0.25,0.677 -0.428,1.501 -0.534,2.472 -0.105,0.971 -0.158,2.068 -0.158,3.289 0,2.866 0.266,4.968 0.798,6.309 0.531,1.34 1.355,2.01 2.471,2.01 1.064,0 1.853,-0.63 2.367,-1.892 0.514,-1.261 0.771,-3.214 0.771,-5.86 0,-2.021 -0.132,-3.658 -0.395,-4.911 -0.264,-1.252 -0.631,-2.151 -1.101,-2.696 -0.47,-0.545 -1.04,-0.817 -1.707,-0.817 z m 0.065,-1.121 c 1.925,0 3.358,0.743 4.298,2.228 0.941,1.486 1.411,3.731 1.411,6.737 0,3.112 -0.503,5.465 -1.51,7.06 -1.006,1.595 -2.476,2.393 -4.409,2.393 -1.899,0 -3.312,-0.747 -4.239,-2.241 -0.927,-1.495 -1.391,-3.762 -1.391,-6.803 0,-1.617 0.143,-3.015 0.429,-4.193 0.285,-1.177 0.685,-2.151 1.199,-2.92 0.514,-0.769 1.132,-1.338 1.853,-1.707 0.72,-0.369 1.507,-0.554 2.359,-0.554 z"
       fill-rule="evenodd"
       id="path131" />
    <text
       fill="#000000"
       fill-opacity="0"
       font-family="Arial, Arial_MSFontService, sans-serif"
       font-size="18.4175px"
       x="913.40399"
       y="270.009"
       id="text133">0</text>
    <path
       d="m 960.679,255.014 c -0.607,0 -1.114,0.18 -1.523,0.54 -0.409,0.361 -0.738,0.879 -0.989,1.556 -0.25,0.677 -0.428,1.501 -0.534,2.472 -0.105,0.971 -0.158,2.068 -0.158,3.289 0,2.866 0.266,4.968 0.798,6.309 0.531,1.34 1.355,2.01 2.471,2.01 1.064,0 1.853,-0.63 2.367,-1.892 0.514,-1.261 0.771,-3.214 0.771,-5.86 0,-2.021 -0.132,-3.658 -0.395,-4.911 -0.264,-1.252 -0.631,-2.151 -1.101,-2.696 -0.47,-0.545 -1.04,-0.817 -1.707,-0.817 z m 0.065,-1.121 c 1.925,0 3.358,0.743 4.298,2.228 0.941,1.486 1.411,3.731 1.411,6.737 0,3.112 -0.503,5.465 -1.51,7.06 -1.006,1.595 -2.476,2.393 -4.409,2.393 -1.899,0 -3.312,-0.747 -4.239,-2.241 -0.927,-1.495 -1.391,-3.762 -1.391,-6.803 0,-1.617 0.143,-3.015 0.429,-4.193 0.285,-1.177 0.685,-2.151 1.199,-2.92 0.514,-0.769 1.132,-1.338 1.853,-1.707 0.72,-0.369 1.507,-0.554 2.359,-0.554 z"
       fill-rule="evenodd"
       id="path135" />
    <text
       fill="#000000"
       fill-opacity="0"
       font-family="Arial, Arial_MSFontService, sans-serif"
       font-size="18.4175px"
       x="954.90399"
       y="270.009"
       id="text137">0</text>
    <text
       font-family="Calibri, Calibri_MSFontService, sans-serif"
       font-weight="400"
       font-size="27px"
       transform="translate(385.004,223)"
       id="text139">cannot be written from a linear combination of</text>
    <path
       d="M 88,389.257 C 88,377.517 97.5171,368 109.257,368 h 176.486 c 11.74,0 21.257,9.517 21.257,21.257 V 511.743 C 307,523.483 297.483,533 285.743,533 H 109.257 C 97.5171,533 88,523.483 88,511.743 Z"
       fill="#7030a0"
       fill-rule="evenodd"
       fill-opacity="0.301961"
       id="path141" />
    <path
       d="m 103,382.122 c 0,-2.276 1.846,-4.122 4.122,-4.122 h 180.756 c 2.276,0 4.122,1.846 4.122,4.122 v 23.756 c 0,2.276 -1.846,4.122 -4.122,4.122 H 107.122 C 104.846,410 103,408.154 103,405.878 Z"
       stroke="#c1a3f1"
       stroke-width="4"
       stroke-miterlimit="8"
       fill="#c1a3f1"
       fill-rule="evenodd"
       id="path143" />
    <path
       d="m 157,421.122 c 0,-2.276 1.846,-4.122 4.122,-4.122 h 126.756 c 2.276,0 4.122,1.846 4.122,4.122 v 23.756 c 0,2.276 -1.846,4.122 -4.122,4.122 H 161.122 C 158.846,449 157,447.154 157,444.878 Z"
       stroke="#c1a3f1"
       stroke-width="4"
       stroke-miterlimit="8"
       fill="#c1a3f1"
       fill-rule="evenodd"
       id="path145" />
    <path
       d="m 211,460.123 c 0,-2.277 1.846,-4.123 4.123,-4.123 h 72.754 c 2.277,0 4.123,1.846 4.123,4.123 v 23.754 c 0,2.277 -1.846,4.123 -4.123,4.123 H 215.123 C 212.846,488 211,486.154 211,483.877 Z"
       stroke="#c1a3f1"
       stroke-width="4"
       stroke-miterlimit="8"
       fill="#c1a3f1"
       fill-rule="evenodd"
       id="path147" />
    <path
       d="m 124.061,383.88 h 0.86 c -0.063,1 -0.094,2.386 -0.094,4.156 v 13.344 c 0,0.604 0.034,1.06 0.101,1.367 0.068,0.308 0.188,0.558 0.36,0.75 0.172,0.193 0.419,0.344 0.742,0.453 0.323,0.11 0.729,0.193 1.219,0.25 0.489,0.058 1.135,0.097 1.937,0.118 v 1.14 h -11.547 v -1.14 c 1.157,-0.052 1.982,-0.123 2.477,-0.211 0.495,-0.089 0.872,-0.222 1.133,-0.399 0.26,-0.177 0.45,-0.427 0.57,-0.75 0.12,-0.323 0.18,-0.849 0.18,-1.578 v -12.672 c 0,-0.416 -0.073,-0.721 -0.219,-0.914 -0.146,-0.193 -0.359,-0.289 -0.641,-0.289 -0.333,0 -0.807,0.172 -1.421,0.516 -0.615,0.343 -1.375,0.817 -2.282,1.422 l -0.687,-1.204 z"
       fill-rule="evenodd"
       id="path149" />
    <text
       fill="#000000"
       fill-opacity="0"
       font-family="Arial, Arial_MSFontService, sans-serif"
       font-size="21.5781px"
       x="116.749"
       y="402.76099"
       id="text151">1</text>
    <path
       d="m 172.494,385.208 c -0.719,0 -1.321,0.214 -1.805,0.641 -0.484,0.427 -0.875,1.042 -1.172,1.844 -0.297,0.802 -0.508,1.778 -0.633,2.929 -0.125,1.151 -0.187,2.451 -0.187,3.899 0,3.396 0.315,5.888 0.945,7.476 0.63,1.589 1.607,2.383 2.93,2.383 1.26,0 2.195,-0.747 2.804,-2.242 0.61,-1.495 0.914,-3.81 0.914,-6.945 0,-2.396 -0.156,-4.336 -0.468,-5.821 -0.313,-1.484 -0.748,-2.549 -1.305,-3.195 -0.557,-0.646 -1.232,-0.969 -2.023,-0.969 z m 0.078,-1.328 c 2.281,0 3.979,0.88 5.093,2.641 1.115,1.76 1.672,4.422 1.672,7.984 0,3.688 -0.596,6.477 -1.789,8.367 -1.192,1.891 -2.935,2.836 -5.226,2.836 -2.25,0 -3.925,-0.885 -5.024,-2.656 -1.099,-1.771 -1.648,-4.458 -1.648,-8.063 0,-1.916 0.169,-3.572 0.508,-4.968 0.338,-1.396 0.812,-2.55 1.422,-3.461 0.609,-0.912 1.341,-1.586 2.195,-2.024 0.854,-0.437 1.786,-0.656 2.797,-0.656 z"
       fill-rule="evenodd"
       id="path153" />
    <text
       fill="#000000"
       fill-opacity="0"
       font-family="Arial, Arial_MSFontService, sans-serif"
       font-size="21.8281px"
       x="165.64999"
       y="402.98001"
       id="text155">0</text>
    <path
       d="m 222.16,385.208 c -0.718,0 -1.32,0.214 -1.804,0.641 -0.485,0.427 -0.875,1.042 -1.172,1.844 -0.297,0.802 -0.508,1.778 -0.633,2.929 -0.125,1.151 -0.188,2.451 -0.188,3.899 0,3.396 0.316,5.888 0.946,7.476 0.63,1.589 1.606,2.383 2.929,2.383 1.261,0 2.196,-0.747 2.805,-2.242 0.609,-1.495 0.914,-3.81 0.914,-6.945 0,-2.396 -0.156,-4.336 -0.469,-5.821 -0.312,-1.484 -0.747,-2.549 -1.304,-3.195 -0.558,-0.646 -1.232,-0.969 -2.024,-0.969 z m 0.078,-1.328 c 2.282,0 3.98,0.88 5.094,2.641 1.115,1.76 1.672,4.422 1.672,7.984 0,3.688 -0.596,6.477 -1.789,8.367 -1.193,1.891 -2.935,2.836 -5.227,2.836 -2.25,0 -3.924,-0.885 -5.023,-2.656 -1.099,-1.771 -1.648,-4.458 -1.648,-8.063 0,-1.916 0.169,-3.572 0.507,-4.968 0.339,-1.396 0.813,-2.55 1.422,-3.461 0.61,-0.912 1.341,-1.586 2.196,-2.024 0.854,-0.437 1.786,-0.656 2.796,-0.656 z"
       fill-rule="evenodd"
       id="path157" />
    <text
       fill="#000000"
       fill-opacity="0"
       font-family="Arial, Arial_MSFontService, sans-serif"
       font-size="21.8281px"
       x="215.317"
       y="402.98001"
       id="text159">0</text>
    <path
       d="m 271.827,385.208 c -0.719,0 -1.32,0.214 -1.805,0.641 -0.484,0.427 -0.875,1.042 -1.172,1.844 -0.297,0.802 -0.507,1.778 -0.632,2.929 -0.125,1.151 -0.188,2.451 -0.188,3.899 0,3.396 0.315,5.888 0.945,7.476 0.631,1.589 1.607,2.383 2.93,2.383 1.26,0 2.195,-0.747 2.805,-2.242 0.609,-1.495 0.914,-3.81 0.914,-6.945 0,-2.396 -0.156,-4.336 -0.469,-5.821 -0.312,-1.484 -0.747,-2.549 -1.305,-3.195 -0.557,-0.646 -1.231,-0.969 -2.023,-0.969 z m 0.078,-1.328 c 2.281,0 3.979,0.88 5.094,2.641 1.114,1.76 1.672,4.422 1.672,7.984 0,3.688 -0.597,6.477 -1.789,8.367 -1.193,1.891 -2.935,2.836 -5.227,2.836 -2.25,0 -3.924,-0.885 -5.023,-2.656 -1.099,-1.771 -1.649,-4.458 -1.649,-8.063 0,-1.916 0.169,-3.572 0.508,-4.968 0.339,-1.396 0.812,-2.55 1.422,-3.461 0.609,-0.912 1.341,-1.586 2.195,-2.024 0.854,-0.437 1.787,-0.656 2.797,-0.656 z"
       fill-rule="evenodd"
       id="path161" />
    <text
       fill="#000000"
       fill-opacity="0"
       font-family="Arial, Arial_MSFontService, sans-serif"
       font-size="21.8281px"
       x="264.983"
       y="402.98001"
       id="text163">0</text>
    <path
       d="m 122.827,422.722 c -0.719,0 -1.32,0.213 -1.805,0.64 -0.484,0.427 -0.875,1.042 -1.172,1.844 -0.297,0.802 -0.507,1.779 -0.632,2.93 -0.125,1.151 -0.188,2.45 -0.188,3.898 0,3.396 0.315,5.888 0.945,7.477 0.631,1.588 1.607,2.382 2.93,2.382 1.26,0 2.195,-0.747 2.805,-2.242 0.609,-1.495 0.914,-3.81 0.914,-6.945 0,-2.396 -0.156,-4.336 -0.469,-5.82 -0.312,-1.485 -0.747,-2.55 -1.305,-3.196 -0.557,-0.646 -1.231,-0.968 -2.023,-0.968 z m 0.078,-1.329 c 2.281,0 3.979,0.881 5.094,2.641 1.114,1.76 1.672,4.422 1.672,7.984 0,3.688 -0.597,6.477 -1.789,8.368 -1.193,1.89 -2.935,2.836 -5.227,2.836 -2.25,0 -3.924,-0.886 -5.023,-2.657 -1.099,-1.771 -1.649,-4.458 -1.649,-8.062 0,-1.917 0.169,-3.573 0.508,-4.969 0.339,-1.396 0.812,-2.549 1.422,-3.461 0.609,-0.911 1.341,-1.586 2.195,-2.023 0.854,-0.438 1.787,-0.657 2.797,-0.657 z"
       fill-rule="evenodd"
       id="path165" />
    <text
       fill="#000000"
       fill-opacity="0"
       font-family="Arial, Arial_MSFontService, sans-serif"
       font-size="21.8281px"
       x="115.983"
       y="440.49301"
       id="text167">0</text>
    <path
       d="m 173.728,421.393 h 0.859 c -0.062,1 -0.093,2.386 -0.093,4.157 v 13.343 c 0,0.605 0.033,1.06 0.101,1.368 0.068,0.307 0.188,0.557 0.36,0.75 0.171,0.192 0.419,0.343 0.742,0.453 0.323,0.109 0.729,0.192 1.218,0.25 0.49,0.057 1.136,0.096 1.938,0.117 v 1.141 h -11.547 v -1.141 c 1.156,-0.052 1.982,-0.122 2.477,-0.211 0.494,-0.089 0.872,-0.221 1.132,-0.398 0.261,-0.178 0.451,-0.428 0.571,-0.75 0.12,-0.323 0.179,-0.849 0.179,-1.579 v -12.671 c 0,-0.417 -0.072,-0.722 -0.218,-0.915 -0.146,-0.192 -0.36,-0.289 -0.641,-0.289 -0.333,0 -0.807,0.172 -1.422,0.516 -0.614,0.344 -1.375,0.818 -2.281,1.422 l -0.688,-1.203 z"
       fill-rule="evenodd"
       id="path169" />
    <text
       fill="#000000"
       fill-opacity="0"
       font-family="Arial, Arial_MSFontService, sans-serif"
       font-size="21.5781px"
       x="166.41499"
       y="440.27399"
       id="text171">1</text>
    <path
       d="m 222.16,422.722 c -0.718,0 -1.32,0.213 -1.804,0.64 -0.485,0.427 -0.875,1.042 -1.172,1.844 -0.297,0.802 -0.508,1.779 -0.633,2.93 -0.125,1.151 -0.188,2.45 -0.188,3.898 0,3.396 0.316,5.888 0.946,7.477 0.63,1.588 1.606,2.382 2.929,2.382 1.261,0 2.196,-0.747 2.805,-2.242 0.609,-1.495 0.914,-3.81 0.914,-6.945 0,-2.396 -0.156,-4.336 -0.469,-5.82 -0.312,-1.485 -0.747,-2.55 -1.304,-3.196 -0.558,-0.646 -1.232,-0.968 -2.024,-0.968 z m 0.078,-1.329 c 2.282,0 3.98,0.881 5.094,2.641 1.115,1.76 1.672,4.422 1.672,7.984 0,3.688 -0.596,6.477 -1.789,8.368 -1.193,1.89 -2.935,2.836 -5.227,2.836 -2.25,0 -3.924,-0.886 -5.023,-2.657 -1.099,-1.771 -1.648,-4.458 -1.648,-8.062 0,-1.917 0.169,-3.573 0.507,-4.969 0.339,-1.396 0.813,-2.549 1.422,-3.461 0.61,-0.911 1.341,-1.586 2.196,-2.023 0.854,-0.438 1.786,-0.657 2.796,-0.657 z"
       fill-rule="evenodd"
       id="path173" />
    <text
       fill="#000000"
       fill-opacity="0"
       font-family="Arial, Arial_MSFontService, sans-serif"
       font-size="21.8281px"
       x="215.317"
       y="440.49301"
       id="text175">0</text>
    <path
       d="m 271.827,422.722 c -0.719,0 -1.32,0.213 -1.805,0.64 -0.484,0.427 -0.875,1.042 -1.172,1.844 -0.297,0.802 -0.507,1.779 -0.632,2.93 -0.125,1.151 -0.188,2.45 -0.188,3.898 0,3.396 0.315,5.888 0.945,7.477 0.631,1.588 1.607,2.382 2.93,2.382 1.26,0 2.195,-0.747 2.805,-2.242 0.609,-1.495 0.914,-3.81 0.914,-6.945 0,-2.396 -0.156,-4.336 -0.469,-5.82 -0.312,-1.485 -0.747,-2.55 -1.305,-3.196 -0.557,-0.646 -1.231,-0.968 -2.023,-0.968 z m 0.078,-1.329 c 2.281,0 3.979,0.881 5.094,2.641 1.114,1.76 1.672,4.422 1.672,7.984 0,3.688 -0.597,6.477 -1.789,8.368 -1.193,1.89 -2.935,2.836 -5.227,2.836 -2.25,0 -3.924,-0.886 -5.023,-2.657 -1.099,-1.771 -1.649,-4.458 -1.649,-8.062 0,-1.917 0.169,-3.573 0.508,-4.969 0.339,-1.396 0.812,-2.549 1.422,-3.461 0.609,-0.911 1.341,-1.586 2.195,-2.023 0.854,-0.438 1.787,-0.657 2.797,-0.657 z"
       fill-rule="evenodd"
       id="path177" />
    <text
       fill="#000000"
       fill-opacity="0"
       font-family="Arial, Arial_MSFontService, sans-serif"
       font-size="21.8281px"
       x="264.983"
       y="440.49301"
       id="text179">0</text>
    <path
       d="m 122.827,460.235 c -0.719,0 -1.32,0.213 -1.805,0.641 -0.484,0.427 -0.875,1.041 -1.172,1.843 -0.297,0.802 -0.507,1.779 -0.632,2.93 -0.125,1.151 -0.188,2.45 -0.188,3.898 0,3.396 0.315,5.888 0.945,7.477 0.631,1.588 1.607,2.383 2.93,2.383 1.26,0 2.195,-0.748 2.805,-2.242 0.609,-1.495 0.914,-3.81 0.914,-6.946 0,-2.396 -0.156,-4.336 -0.469,-5.82 -0.312,-1.484 -0.747,-2.55 -1.305,-3.195 -0.557,-0.646 -1.231,-0.969 -2.023,-0.969 z m 0.078,-1.328 c 2.281,0 3.979,0.88 5.094,2.64 1.114,1.761 1.672,4.422 1.672,7.985 0,3.687 -0.597,6.476 -1.789,8.367 -1.193,1.891 -2.935,2.836 -5.227,2.836 -2.25,0 -3.924,-0.886 -5.023,-2.656 -1.099,-1.771 -1.649,-4.459 -1.649,-8.063 0,-1.917 0.169,-3.573 0.508,-4.969 0.339,-1.395 0.812,-2.549 1.422,-3.461 0.609,-0.911 1.341,-1.585 2.195,-2.023 0.854,-0.437 1.787,-0.656 2.797,-0.656 z"
       fill-rule="evenodd"
       id="path181" />
    <text
       fill="#000000"
       fill-opacity="0"
       font-family="Arial, Arial_MSFontService, sans-serif"
       font-size="21.8281px"
       x="115.983"
       y="478.00601"
       id="text183">0</text>
    <path
       d="m 172.494,460.235 c -0.719,0 -1.321,0.213 -1.805,0.641 -0.484,0.427 -0.875,1.041 -1.172,1.843 -0.297,0.802 -0.508,1.779 -0.633,2.93 -0.125,1.151 -0.187,2.45 -0.187,3.898 0,3.396 0.315,5.888 0.945,7.477 0.63,1.588 1.607,2.383 2.93,2.383 1.26,0 2.195,-0.748 2.804,-2.242 0.61,-1.495 0.914,-3.81 0.914,-6.946 0,-2.396 -0.156,-4.336 -0.468,-5.82 -0.313,-1.484 -0.748,-2.55 -1.305,-3.195 -0.557,-0.646 -1.232,-0.969 -2.023,-0.969 z m 0.078,-1.328 c 2.281,0 3.979,0.88 5.093,2.64 1.115,1.761 1.672,4.422 1.672,7.985 0,3.687 -0.596,6.476 -1.789,8.367 -1.192,1.891 -2.935,2.836 -5.226,2.836 -2.25,0 -3.925,-0.886 -5.024,-2.656 -1.099,-1.771 -1.648,-4.459 -1.648,-8.063 0,-1.917 0.169,-3.573 0.508,-4.969 0.338,-1.395 0.812,-2.549 1.422,-3.461 0.609,-0.911 1.341,-1.585 2.195,-2.023 0.854,-0.437 1.786,-0.656 2.797,-0.656 z"
       fill-rule="evenodd"
       id="path185" />
    <text
       fill="#000000"
       fill-opacity="0"
       font-family="Arial, Arial_MSFontService, sans-serif"
       font-size="21.8281px"
       x="165.64999"
       y="478.00601"
       id="text187">0</text>
    <path
       d="m 223.395,458.907 h 0.859 c -0.062,1 -0.094,2.385 -0.094,4.156 v 13.344 c 0,0.604 0.034,1.06 0.102,1.367 0.068,0.307 0.187,0.557 0.359,0.75 0.172,0.193 0.419,0.344 0.742,0.453 0.323,0.109 0.73,0.193 1.219,0.25 0.49,0.057 1.136,0.096 1.938,0.117 v 1.141 h -11.547 v -1.141 c 1.156,-0.052 1.982,-0.122 2.476,-0.211 0.495,-0.088 0.873,-0.221 1.133,-0.398 0.261,-0.177 0.451,-0.427 0.57,-0.75 0.12,-0.323 0.18,-0.849 0.18,-1.578 v -12.672 c 0,-0.417 -0.073,-0.721 -0.219,-0.914 -0.145,-0.193 -0.359,-0.289 -0.64,-0.289 -0.334,0 -0.808,0.172 -1.422,0.515 -0.615,0.344 -1.375,0.818 -2.281,1.422 l -0.688,-1.203 z"
       fill-rule="evenodd"
       id="path189" />
    <text
       fill="#000000"
       fill-opacity="0"
       font-family="Arial, Arial_MSFontService, sans-serif"
       font-size="21.5781px"
       x="216.082"
       y="477.78799"
       id="text191">1</text>
    <path
       d="m 271.889,458.907 c 1.178,0 2.209,0.182 3.094,0.547 0.886,0.364 1.563,0.888 2.031,1.57 0.469,0.682 0.704,1.497 0.704,2.445 0,0.886 -0.178,1.664 -0.532,2.336 -0.354,0.672 -0.851,1.258 -1.492,1.758 -0.641,0.5 -1.471,0.99 -2.492,1.469 v 0.14 c 0.635,0.115 1.247,0.31 1.836,0.586 0.588,0.276 1.112,0.633 1.57,1.071 0.459,0.437 0.826,0.961 1.102,1.57 0.276,0.609 0.414,1.305 0.414,2.086 0,1.208 -0.263,2.281 -0.789,3.219 -0.526,0.937 -1.331,1.677 -2.414,2.218 -1.084,0.542 -2.401,0.813 -3.953,0.813 -0.896,0 -1.862,-0.102 -2.899,-0.305 -1.036,-0.203 -1.987,-0.471 -2.851,-0.804 v -3.313 h 1.875 c 0.364,1.083 0.846,1.87 1.445,2.359 0.599,0.49 1.414,0.735 2.445,0.735 1.354,0 2.378,-0.37 3.07,-1.11 0.693,-0.739 1.04,-1.833 1.04,-3.281 0,-1.521 -0.459,-2.682 -1.375,-3.484 -0.917,-0.802 -2.261,-1.203 -4.032,-1.203 h -1.406 v -1.375 c 1.406,-0.084 2.591,-0.355 3.555,-0.813 0.963,-0.458 1.679,-1.047 2.148,-1.765 0.469,-0.719 0.703,-1.527 0.703,-2.422 0,-1.157 -0.307,-2.047 -0.922,-2.672 -0.614,-0.625 -1.51,-0.938 -2.687,-0.938 -0.979,0 -1.776,0.266 -2.391,0.797 -0.614,0.531 -1.067,1.344 -1.359,2.438 h -1.875 v -2.969 c 1.208,-0.573 2.338,-1 3.391,-1.281 1.052,-0.282 2.067,-0.422 3.046,-0.422 z"
       fill-rule="evenodd"
       id="path193" />
    <text
       fill="#000000"
       fill-opacity="0"
       font-family="Arial, Arial_MSFontService, sans-serif"
       font-size="21.8281px"
       x="265.21799"
       y="478.00601"
       id="text195">3</text>
    <path
       d="m 122.827,497.748 c -0.719,0 -1.32,0.214 -1.805,0.641 -0.484,0.427 -0.875,1.042 -1.172,1.844 -0.297,0.802 -0.507,1.778 -0.632,2.929 -0.125,1.151 -0.188,2.451 -0.188,3.899 0,3.396 0.315,5.888 0.945,7.476 0.631,1.589 1.607,2.383 2.93,2.383 1.26,0 2.195,-0.747 2.805,-2.242 0.609,-1.495 0.914,-3.81 0.914,-6.945 0,-2.396 -0.156,-4.336 -0.469,-5.821 -0.312,-1.484 -0.747,-2.549 -1.305,-3.195 -0.557,-0.646 -1.231,-0.969 -2.023,-0.969 z m 0.078,-1.328 c 2.281,0 3.979,0.88 5.094,2.641 1.114,1.76 1.672,4.422 1.672,7.984 0,3.688 -0.597,6.477 -1.789,8.367 -1.193,1.891 -2.935,2.836 -5.227,2.836 -2.25,0 -3.924,-0.885 -5.023,-2.656 -1.099,-1.771 -1.649,-4.458 -1.649,-8.063 0,-1.916 0.169,-3.572 0.508,-4.968 0.339,-1.396 0.812,-2.55 1.422,-3.461 0.609,-0.912 1.341,-1.586 2.195,-2.024 0.854,-0.437 1.787,-0.656 2.797,-0.656 z"
       fill-rule="evenodd"
       id="path197" />
    <text
       fill="#000000"
       fill-opacity="0"
       font-family="Arial, Arial_MSFontService, sans-serif"
       font-size="21.8281px"
       x="115.983"
       y="515.52002"
       id="text199">0</text>
    <path
       d="m 172.494,497.748 c -0.719,0 -1.321,0.214 -1.805,0.641 -0.484,0.427 -0.875,1.042 -1.172,1.844 -0.297,0.802 -0.508,1.778 -0.633,2.929 -0.125,1.151 -0.187,2.451 -0.187,3.899 0,3.396 0.315,5.888 0.945,7.476 0.63,1.589 1.607,2.383 2.93,2.383 1.26,0 2.195,-0.747 2.804,-2.242 0.61,-1.495 0.914,-3.81 0.914,-6.945 0,-2.396 -0.156,-4.336 -0.468,-5.821 -0.313,-1.484 -0.748,-2.549 -1.305,-3.195 -0.557,-0.646 -1.232,-0.969 -2.023,-0.969 z m 0.078,-1.328 c 2.281,0 3.979,0.88 5.093,2.641 1.115,1.76 1.672,4.422 1.672,7.984 0,3.688 -0.596,6.477 -1.789,8.367 -1.192,1.891 -2.935,2.836 -5.226,2.836 -2.25,0 -3.925,-0.885 -5.024,-2.656 -1.099,-1.771 -1.648,-4.458 -1.648,-8.063 0,-1.916 0.169,-3.572 0.508,-4.968 0.338,-1.396 0.812,-2.55 1.422,-3.461 0.609,-0.912 1.341,-1.586 2.195,-2.024 0.854,-0.437 1.786,-0.656 2.797,-0.656 z"
       fill-rule="evenodd"
       id="path201" />
    <text
       fill="#000000"
       fill-opacity="0"
       font-family="Arial, Arial_MSFontService, sans-serif"
       font-size="21.8281px"
       x="165.64999"
       y="515.52002"
       id="text203">0</text>
    <path
       d="m 222.16,497.748 c -0.718,0 -1.32,0.214 -1.804,0.641 -0.485,0.427 -0.875,1.042 -1.172,1.844 -0.297,0.802 -0.508,1.778 -0.633,2.929 -0.125,1.151 -0.188,2.451 -0.188,3.899 0,3.396 0.316,5.888 0.946,7.476 0.63,1.589 1.606,2.383 2.929,2.383 1.261,0 2.196,-0.747 2.805,-2.242 0.609,-1.495 0.914,-3.81 0.914,-6.945 0,-2.396 -0.156,-4.336 -0.469,-5.821 -0.312,-1.484 -0.747,-2.549 -1.304,-3.195 -0.558,-0.646 -1.232,-0.969 -2.024,-0.969 z m 0.078,-1.328 c 2.282,0 3.98,0.88 5.094,2.641 1.115,1.76 1.672,4.422 1.672,7.984 0,3.688 -0.596,6.477 -1.789,8.367 -1.193,1.891 -2.935,2.836 -5.227,2.836 -2.25,0 -3.924,-0.885 -5.023,-2.656 -1.099,-1.771 -1.648,-4.458 -1.648,-8.063 0,-1.916 0.169,-3.572 0.507,-4.968 0.339,-1.396 0.813,-2.55 1.422,-3.461 0.61,-0.912 1.341,-1.586 2.196,-2.024 0.854,-0.437 1.786,-0.656 2.796,-0.656 z"
       fill-rule="evenodd"
       id="path205" />
    <text
       fill="#000000"
       fill-opacity="0"
       font-family="Arial, Arial_MSFontService, sans-serif"
       font-size="21.8281px"
       x="215.317"
       y="515.52002"
       id="text207">0</text>
    <path
       d="m 271.827,497.748 c -0.719,0 -1.32,0.214 -1.805,0.641 -0.484,0.427 -0.875,1.042 -1.172,1.844 -0.297,0.802 -0.507,1.778 -0.632,2.929 -0.125,1.151 -0.188,2.451 -0.188,3.899 0,3.396 0.315,5.888 0.945,7.476 0.631,1.589 1.607,2.383 2.93,2.383 1.26,0 2.195,-0.747 2.805,-2.242 0.609,-1.495 0.914,-3.81 0.914,-6.945 0,-2.396 -0.156,-4.336 -0.469,-5.821 -0.312,-1.484 -0.747,-2.549 -1.305,-3.195 -0.557,-0.646 -1.231,-0.969 -2.023,-0.969 z m 0.078,-1.328 c 2.281,0 3.979,0.88 5.094,2.641 1.114,1.76 1.672,4.422 1.672,7.984 0,3.688 -0.597,6.477 -1.789,8.367 -1.193,1.891 -2.935,2.836 -5.227,2.836 -2.25,0 -3.924,-0.885 -5.023,-2.656 -1.099,-1.771 -1.649,-4.458 -1.649,-8.063 0,-1.916 0.169,-3.572 0.508,-4.968 0.339,-1.396 0.812,-2.55 1.422,-3.461 0.609,-0.912 1.341,-1.586 2.195,-2.024 0.854,-0.437 1.787,-0.656 2.797,-0.656 z"
       fill-rule="evenodd"
       id="path209" />
    <text
       fill="#000000"
       fill-opacity="0"
       font-family="Arial, Arial_MSFontService, sans-serif"
       font-size="21.8281px"
       x="264.983"
       y="515.52002"
       id="text211">0</text>
    <text
       font-family="Calibri, Calibri_MSFontService, sans-serif"
       font-weight="400"
       font-size="27px"
       transform="translate(328.919,460)"
       id="text213">Only</text>
    <path
       d="m 412.586,394.365 h 7.778 v 115.409 h -7.778 v -1.503 h 4.877 V 395.868 h -4.877 z m -23.661,0 h 7.778 v 1.503 h -4.878 v 112.403 h 4.878 v 1.503 h -7.778 z"
       fill-rule="evenodd"
       id="path215" />
    <path
       d="m 404.634,397.076 c -0.606,0 -1.114,0.18 -1.523,0.54 -0.408,0.361 -0.738,0.879 -0.988,1.556 -0.251,0.677 -0.429,1.501 -0.534,2.472 -0.106,0.971 -0.159,2.068 -0.159,3.289 0,2.865 0.266,4.968 0.798,6.309 0.532,1.34 1.356,2.01 2.472,2.01 1.063,0 1.852,-0.631 2.366,-1.892 0.515,-1.261 0.772,-3.214 0.772,-5.86 0,-2.021 -0.132,-3.658 -0.396,-4.911 -0.264,-1.252 -0.63,-2.151 -1.101,-2.696 -0.47,-0.545 -1.039,-0.817 -1.707,-0.817 z m 0.066,-1.121 c 1.925,0 3.357,0.743 4.298,2.228 0.94,1.486 1.41,3.731 1.41,6.737 0,3.111 -0.503,5.465 -1.509,7.06 -1.006,1.595 -2.476,2.393 -4.41,2.393 -1.898,0 -3.311,-0.747 -4.238,-2.241 -0.928,-1.495 -1.391,-3.762 -1.391,-6.803 0,-1.617 0.142,-3.015 0.428,-4.193 0.286,-1.177 0.686,-2.151 1.2,-2.92 0.514,-0.769 1.131,-1.338 1.852,-1.707 0.721,-0.369 1.507,-0.554 2.36,-0.554 z"
       fill-rule="evenodd"
       id="path217" />
    <text
       fill="#000000"
       fill-opacity="0"
       font-family="Arial, Arial_MSFontService, sans-serif"
       font-size="18.4175px"
       x="398.85999"
       y="412.07101"
       id="text219">0</text>
    <path
       d="m 404.634,428.336 c -0.606,0 -1.114,0.18 -1.523,0.54 -0.408,0.361 -0.738,0.879 -0.988,1.556 -0.251,0.677 -0.429,1.501 -0.534,2.472 -0.106,0.971 -0.159,2.068 -0.159,3.289 0,2.866 0.266,4.968 0.798,6.309 0.532,1.34 1.356,2.01 2.472,2.01 1.063,0 1.852,-0.63 2.366,-1.892 0.515,-1.261 0.772,-3.214 0.772,-5.86 0,-2.021 -0.132,-3.658 -0.396,-4.911 -0.264,-1.252 -0.63,-2.151 -1.101,-2.696 -0.47,-0.545 -1.039,-0.817 -1.707,-0.817 z m 0.066,-1.121 c 1.925,0 3.357,0.743 4.298,2.228 0.94,1.486 1.41,3.731 1.41,6.737 0,3.111 -0.503,5.465 -1.509,7.06 -1.006,1.595 -2.476,2.393 -4.41,2.393 -1.898,0 -3.311,-0.747 -4.238,-2.241 -0.928,-1.495 -1.391,-3.762 -1.391,-6.803 0,-1.617 0.142,-3.015 0.428,-4.193 0.286,-1.177 0.686,-2.151 1.2,-2.92 0.514,-0.769 1.131,-1.338 1.852,-1.707 0.721,-0.369 1.507,-0.554 2.36,-0.554 z"
       fill-rule="evenodd"
       id="path221" />
    <text
       fill="#000000"
       fill-opacity="0"
       font-family="Arial, Arial_MSFontService, sans-serif"
       font-size="18.4175px"
       x="398.85999"
       y="443.33099"
       id="text223">0</text>
    <path
       d="m 404.687,458.475 c 0.993,0 1.863,0.154 2.61,0.462 0.747,0.307 1.319,0.749 1.714,1.325 0.396,0.575 0.593,1.263 0.593,2.063 0,0.747 -0.149,1.404 -0.448,1.971 -0.299,0.567 -0.718,1.061 -1.259,1.483 -0.541,0.422 -1.241,0.835 -2.103,1.239 v 0.119 c 0.536,0.097 1.053,0.261 1.549,0.494 0.497,0.233 0.939,0.534 1.325,0.903 0.387,0.369 0.697,0.811 0.93,1.325 0.233,0.514 0.349,1.101 0.349,1.76 0,1.02 -0.222,1.925 -0.666,2.716 -0.444,0.791 -1.123,1.415 -2.037,1.872 -0.914,0.457 -2.025,0.686 -3.335,0.686 -0.756,0 -1.571,-0.086 -2.446,-0.257 -0.874,-0.172 -1.676,-0.398 -2.406,-0.679 v -2.795 h 1.582 c 0.308,0.914 0.715,1.577 1.22,1.99 0.505,0.414 1.193,0.62 2.063,0.62 1.143,0 2.006,-0.312 2.591,-0.936 0.584,-0.624 0.876,-1.547 0.876,-2.768 0,-1.284 -0.386,-2.264 -1.16,-2.94 -0.773,-0.677 -1.907,-1.016 -3.401,-1.016 h -1.187 v -1.16 c 1.187,-0.07 2.187,-0.299 3,-0.685 0.813,-0.387 1.417,-0.884 1.812,-1.49 0.396,-0.606 0.594,-1.288 0.594,-2.043 0,-0.976 -0.26,-1.727 -0.778,-2.255 -0.519,-0.527 -1.275,-0.791 -2.268,-0.791 -0.826,0 -1.498,0.224 -2.017,0.673 -0.518,0.448 -0.901,1.133 -1.147,2.056 h -1.582 v -2.505 c 1.02,-0.483 1.973,-0.843 2.861,-1.081 0.888,-0.237 1.745,-0.356 2.571,-0.356 z"
       fill-rule="evenodd"
       id="path225" />
    <text
       fill="#000000"
       fill-opacity="0"
       font-family="Arial, Arial_MSFontService, sans-serif"
       font-size="18.4175px"
       x="399.05701"
       y="474.591"
       id="text227">3</text>
    <path
       d="m 404.634,490.856 c -0.606,0 -1.114,0.18 -1.523,0.54 -0.408,0.361 -0.738,0.879 -0.988,1.556 -0.251,0.677 -0.429,1.501 -0.534,2.472 -0.106,0.971 -0.159,2.068 -0.159,3.289 0,2.865 0.266,4.968 0.798,6.309 0.532,1.34 1.356,2.01 2.472,2.01 1.063,0 1.852,-0.631 2.366,-1.892 0.515,-1.261 0.772,-3.214 0.772,-5.86 0,-2.021 -0.132,-3.658 -0.396,-4.911 -0.264,-1.252 -0.63,-2.151 -1.101,-2.696 -0.47,-0.545 -1.039,-0.817 -1.707,-0.817 z m 0.066,-1.121 c 1.925,0 3.357,0.743 4.298,2.228 0.94,1.486 1.41,3.731 1.41,6.737 0,3.111 -0.503,5.465 -1.509,7.06 -1.006,1.595 -2.476,2.393 -4.41,2.393 -1.898,0 -3.311,-0.747 -4.238,-2.242 -0.928,-1.494 -1.391,-3.761 -1.391,-6.802 0,-1.617 0.142,-3.015 0.428,-4.193 0.286,-1.177 0.686,-2.151 1.2,-2.92 0.514,-0.769 1.131,-1.338 1.852,-1.707 0.721,-0.369 1.507,-0.554 2.36,-0.554 z"
       fill-rule="evenodd"
       id="path229" />
    <text
       fill="#000000"
       fill-opacity="0"
       font-family="Arial, Arial_MSFontService, sans-serif"
       font-size="18.4175px"
       x="398.85999"
       y="505.85101"
       id="text231">0</text>
    <text
       font-family="Calibri, Calibri_MSFontService, sans-serif"
       font-weight="400"
       font-size="27px"
       transform="translate(430.363,460)"
       id="text235">can <tspan
   font-size="27px"
   x="43.946701"
   y="0"
   id="tspan233">be written from a linear combination of</tspan></text>
    <path
       d="m 1020.9,394.365 h 7.78 v 115.409 h -7.78 v -1.503 h 4.88 V 395.868 h -4.88 z m -106.657,0 h 7.778 v 1.503 h -4.878 v 112.403 h 4.878 v 1.503 h -7.778 z"
       fill-rule="evenodd"
       id="path237" />
    <path
       d="m 930.994,395.955 h 0.725 c -0.053,0.844 -0.079,2.013 -0.079,3.507 v 11.259 c 0,0.51 0.028,0.894 0.085,1.153 0.058,0.26 0.159,0.471 0.304,0.633 0.145,0.163 0.353,0.29 0.626,0.383 0.272,0.092 0.615,0.162 1.028,0.21 0.413,0.049 0.958,0.082 1.635,0.099 v 0.963 h -9.743 v -0.963 c 0.976,-0.044 1.672,-0.103 2.09,-0.178 0.417,-0.074 0.736,-0.186 0.956,-0.336 0.219,-0.149 0.38,-0.36 0.481,-0.633 0.101,-0.272 0.151,-0.716 0.151,-1.331 v -10.692 c 0,-0.352 -0.061,-0.609 -0.184,-0.771 -0.123,-0.163 -0.303,-0.244 -0.541,-0.244 -0.281,0 -0.681,0.145 -1.199,0.435 -0.519,0.29 -1.16,0.69 -1.925,1.2 l -0.58,-1.016 z"
       fill-rule="evenodd"
       id="path239" />
    <text
       fill="#000000"
       fill-opacity="0"
       font-family="Arial, Arial_MSFontService, sans-serif"
       font-size="18.2065px"
       x="924.82397"
       y="411.88599"
       id="text241">1</text>
    <path
       d="m 971.452,397.076 c -0.606,0 -1.114,0.18 -1.522,0.54 -0.409,0.361 -0.739,0.879 -0.989,1.556 -0.251,0.677 -0.429,1.501 -0.534,2.472 -0.106,0.971 -0.158,2.068 -0.158,3.289 0,2.865 0.265,4.968 0.797,6.309 0.532,1.34 1.356,2.01 2.472,2.01 1.064,0 1.852,-0.631 2.367,-1.892 0.514,-1.261 0.771,-3.214 0.771,-5.86 0,-2.021 -0.132,-3.658 -0.396,-4.911 -0.263,-1.252 -0.63,-2.151 -1.101,-2.696 -0.47,-0.545 -1.039,-0.817 -1.707,-0.817 z m 0.066,-1.121 c 1.925,0 3.358,0.743 4.298,2.228 0.94,1.486 1.411,3.731 1.411,6.737 0,3.111 -0.504,5.465 -1.51,7.06 -1.006,1.595 -2.476,2.393 -4.41,2.393 -1.898,0 -3.311,-0.747 -4.238,-2.241 -0.928,-1.495 -1.391,-3.762 -1.391,-6.803 0,-1.617 0.143,-3.015 0.428,-4.193 0.286,-1.177 0.686,-2.151 1.2,-2.92 0.514,-0.769 1.132,-1.338 1.852,-1.707 0.721,-0.369 1.508,-0.554 2.36,-0.554 z"
       fill-rule="evenodd"
       id="path243" />
    <text
       fill="#000000"
       fill-opacity="0"
       font-family="Arial, Arial_MSFontService, sans-serif"
       font-size="18.4175px"
       x="965.67798"
       y="412.07101"
       id="text245">0</text>
    <path
       d="m 1012.95,397.076 c -0.6,0 -1.11,0.18 -1.52,0.54 -0.41,0.361 -0.74,0.879 -0.99,1.556 -0.25,0.677 -0.43,1.501 -0.53,2.472 -0.11,0.971 -0.16,2.068 -0.16,3.289 0,2.865 0.26,4.968 0.8,6.309 0.53,1.34 1.35,2.01 2.47,2.01 1.06,0 1.85,-0.631 2.36,-1.892 0.52,-1.261 0.78,-3.214 0.78,-5.86 0,-2.021 -0.14,-3.658 -0.4,-4.911 -0.26,-1.252 -0.63,-2.151 -1.1,-2.696 -0.47,-0.545 -1.04,-0.817 -1.71,-0.817 z m 0.07,-1.121 c 1.92,0 3.36,0.743 4.3,2.228 0.94,1.486 1.41,3.731 1.41,6.737 0,3.111 -0.51,5.465 -1.51,7.06 -1.01,1.595 -2.48,2.393 -4.41,2.393 -1.9,0 -3.31,-0.747 -4.24,-2.241 -0.93,-1.495 -1.39,-3.762 -1.39,-6.803 0,-1.617 0.14,-3.015 0.43,-4.193 0.28,-1.177 0.68,-2.151 1.2,-2.92 0.51,-0.769 1.13,-1.338 1.85,-1.707 0.72,-0.369 1.51,-0.554 2.36,-0.554 z"
       fill-rule="evenodd"
       id="path247" />
    <text
       fill="#000000"
       fill-opacity="0"
       font-family="Arial, Arial_MSFontService, sans-serif"
       font-size="18.4175px"
       x="1007.18"
       y="412.07101"
       id="text249">0</text>
    <path
       d="m 929.952,428.336 c -0.606,0 -1.114,0.18 -1.522,0.54 -0.409,0.361 -0.739,0.879 -0.989,1.556 -0.251,0.677 -0.429,1.501 -0.534,2.472 -0.106,0.971 -0.158,2.068 -0.158,3.289 0,2.866 0.265,4.968 0.797,6.309 0.532,1.34 1.356,2.01 2.472,2.01 1.064,0 1.852,-0.63 2.367,-1.892 0.514,-1.261 0.771,-3.214 0.771,-5.86 0,-2.021 -0.132,-3.658 -0.396,-4.911 -0.263,-1.252 -0.63,-2.151 -1.101,-2.696 -0.47,-0.545 -1.039,-0.817 -1.707,-0.817 z m 0.066,-1.121 c 1.925,0 3.358,0.743 4.298,2.228 0.94,1.486 1.411,3.731 1.411,6.737 0,3.111 -0.504,5.465 -1.51,7.06 -1.006,1.595 -2.476,2.393 -4.41,2.393 -1.898,0 -3.311,-0.747 -4.238,-2.241 -0.928,-1.495 -1.391,-3.762 -1.391,-6.803 0,-1.617 0.143,-3.015 0.428,-4.193 0.286,-1.177 0.686,-2.151 1.2,-2.92 0.514,-0.769 1.132,-1.338 1.852,-1.707 0.721,-0.369 1.508,-0.554 2.36,-0.554 z"
       fill-rule="evenodd"
       id="path251" />
    <text
       fill="#000000"
       fill-opacity="0"
       font-family="Arial, Arial_MSFontService, sans-serif"
       font-size="18.4175px"
       x="924.17798"
       y="443.33099"
       id="text253">0</text>
    <path
       d="m 972.494,427.215 h 0.725 c -0.053,0.844 -0.079,2.013 -0.079,3.507 v 11.259 c 0,0.51 0.028,0.894 0.085,1.153 0.058,0.26 0.159,0.471 0.304,0.633 0.145,0.163 0.353,0.29 0.626,0.383 0.272,0.092 0.615,0.162 1.028,0.211 0.413,0.048 0.958,0.081 1.635,0.098 v 0.963 h -9.743 v -0.963 c 0.976,-0.044 1.672,-0.103 2.09,-0.178 0.417,-0.074 0.736,-0.186 0.956,-0.336 0.219,-0.149 0.38,-0.36 0.481,-0.633 0.101,-0.272 0.151,-0.716 0.151,-1.331 v -10.692 c 0,-0.352 -0.061,-0.609 -0.184,-0.771 -0.123,-0.163 -0.303,-0.244 -0.541,-0.244 -0.281,0 -0.681,0.145 -1.199,0.435 -0.519,0.29 -1.16,0.69 -1.925,1.2 l -0.58,-1.016 z"
       fill-rule="evenodd"
       id="path255" />
    <text
       fill="#000000"
       fill-opacity="0"
       font-family="Arial, Arial_MSFontService, sans-serif"
       font-size="18.2065px"
       x="966.32397"
       y="443.146"
       id="text257">1</text>
    <path
       d="m 1012.95,428.336 c -0.6,0 -1.11,0.18 -1.52,0.54 -0.41,0.361 -0.74,0.879 -0.99,1.556 -0.25,0.677 -0.43,1.501 -0.53,2.472 -0.11,0.971 -0.16,2.068 -0.16,3.289 0,2.866 0.26,4.968 0.8,6.309 0.53,1.34 1.35,2.01 2.47,2.01 1.06,0 1.85,-0.63 2.36,-1.892 0.52,-1.261 0.78,-3.214 0.78,-5.86 0,-2.021 -0.14,-3.658 -0.4,-4.911 -0.26,-1.252 -0.63,-2.151 -1.1,-2.696 -0.47,-0.545 -1.04,-0.817 -1.71,-0.817 z m 0.07,-1.121 c 1.92,0 3.36,0.743 4.3,2.228 0.94,1.486 1.41,3.731 1.41,6.737 0,3.111 -0.51,5.465 -1.51,7.06 -1.01,1.595 -2.48,2.393 -4.41,2.393 -1.9,0 -3.31,-0.747 -4.24,-2.241 -0.93,-1.495 -1.39,-3.762 -1.39,-6.803 0,-1.617 0.14,-3.015 0.43,-4.193 0.28,-1.177 0.68,-2.151 1.2,-2.92 0.51,-0.769 1.13,-1.338 1.85,-1.707 0.72,-0.369 1.51,-0.554 2.36,-0.554 z"
       fill-rule="evenodd"
       id="path259" />
    <text
       fill="#000000"
       fill-opacity="0"
       font-family="Arial, Arial_MSFontService, sans-serif"
       font-size="18.4175px"
       x="1007.18"
       y="443.33099"
       id="text261">0</text>
    <path
       d="m 929.952,459.596 c -0.606,0 -1.114,0.18 -1.522,0.54 -0.409,0.361 -0.739,0.879 -0.989,1.556 -0.251,0.677 -0.429,1.501 -0.534,2.472 -0.106,0.971 -0.158,2.068 -0.158,3.289 0,2.866 0.265,4.968 0.797,6.309 0.532,1.34 1.356,2.01 2.472,2.01 1.064,0 1.852,-0.63 2.367,-1.892 0.514,-1.261 0.771,-3.214 0.771,-5.86 0,-2.021 -0.132,-3.658 -0.396,-4.911 -0.263,-1.252 -0.63,-2.151 -1.101,-2.696 -0.47,-0.545 -1.039,-0.817 -1.707,-0.817 z m 0.066,-1.121 c 1.925,0 3.358,0.743 4.298,2.228 0.94,1.486 1.411,3.731 1.411,6.737 0,3.111 -0.504,5.465 -1.51,7.06 -1.006,1.595 -2.476,2.393 -4.41,2.393 -1.898,0 -3.311,-0.747 -4.238,-2.241 -0.928,-1.495 -1.391,-3.762 -1.391,-6.803 0,-1.617 0.143,-3.015 0.428,-4.193 0.286,-1.177 0.686,-2.151 1.2,-2.92 0.514,-0.769 1.132,-1.338 1.852,-1.707 0.721,-0.369 1.508,-0.554 2.36,-0.554 z"
       fill-rule="evenodd"
       id="path263" />
    <text
       fill="#000000"
       fill-opacity="0"
       font-family="Arial, Arial_MSFontService, sans-serif"
       font-size="18.4175px"
       x="924.17798"
       y="474.591"
       id="text265">0</text>
    <path
       d="m 971.452,459.596 c -0.606,0 -1.114,0.18 -1.522,0.54 -0.409,0.361 -0.739,0.879 -0.989,1.556 -0.251,0.677 -0.429,1.501 -0.534,2.472 -0.106,0.971 -0.158,2.068 -0.158,3.289 0,2.866 0.265,4.968 0.797,6.309 0.532,1.34 1.356,2.01 2.472,2.01 1.064,0 1.852,-0.63 2.367,-1.892 0.514,-1.261 0.771,-3.214 0.771,-5.86 0,-2.021 -0.132,-3.658 -0.396,-4.911 -0.263,-1.252 -0.63,-2.151 -1.101,-2.696 -0.47,-0.545 -1.039,-0.817 -1.707,-0.817 z m 0.066,-1.121 c 1.925,0 3.358,0.743 4.298,2.228 0.94,1.486 1.411,3.731 1.411,6.737 0,3.111 -0.504,5.465 -1.51,7.06 -1.006,1.595 -2.476,2.393 -4.41,2.393 -1.898,0 -3.311,-0.747 -4.238,-2.241 -0.928,-1.495 -1.391,-3.762 -1.391,-6.803 0,-1.617 0.143,-3.015 0.428,-4.193 0.286,-1.177 0.686,-2.151 1.2,-2.92 0.514,-0.769 1.132,-1.338 1.852,-1.707 0.721,-0.369 1.508,-0.554 2.36,-0.554 z"
       fill-rule="evenodd"
       id="path267" />
    <text
       fill="#000000"
       fill-opacity="0"
       font-family="Arial, Arial_MSFontService, sans-serif"
       font-size="18.4175px"
       x="965.67798"
       y="474.591"
       id="text269">0</text>
    <path
       d="m 1013.99,458.475 h 0.73 c -0.05,0.844 -0.08,2.013 -0.08,3.507 v 11.259 c 0,0.51 0.03,0.894 0.09,1.153 0.05,0.26 0.15,0.471 0.3,0.633 0.14,0.163 0.35,0.29 0.62,0.383 0.28,0.092 0.62,0.162 1.03,0.211 0.42,0.048 0.96,0.081 1.64,0.098 v 0.963 h -9.74 v -0.963 c 0.97,-0.044 1.67,-0.103 2.08,-0.178 0.42,-0.074 0.74,-0.186 0.96,-0.336 0.22,-0.149 0.38,-0.36 0.48,-0.633 0.1,-0.272 0.15,-0.716 0.15,-1.331 v -10.692 c 0,-0.352 -0.06,-0.609 -0.18,-0.771 -0.12,-0.163 -0.3,-0.244 -0.54,-0.244 -0.28,0 -0.68,0.145 -1.2,0.435 -0.52,0.29 -1.16,0.69 -1.93,1.2 l -0.58,-1.016 z"
       fill-rule="evenodd"
       id="path271" />
    <text
       fill="#000000"
       fill-opacity="0"
       font-family="Arial, Arial_MSFontService, sans-serif"
       font-size="18.2065px"
       x="1007.82"
       y="474.40601"
       id="text273">1</text>
    <path
       d="m 929.952,490.856 c -0.606,0 -1.114,0.18 -1.522,0.54 -0.409,0.361 -0.739,0.879 -0.989,1.556 -0.251,0.677 -0.429,1.501 -0.534,2.472 -0.106,0.971 -0.158,2.068 -0.158,3.289 0,2.865 0.265,4.968 0.797,6.309 0.532,1.34 1.356,2.01 2.472,2.01 1.064,0 1.852,-0.631 2.367,-1.892 0.514,-1.261 0.771,-3.214 0.771,-5.86 0,-2.021 -0.132,-3.658 -0.396,-4.911 -0.263,-1.252 -0.63,-2.151 -1.101,-2.696 -0.47,-0.545 -1.039,-0.817 -1.707,-0.817 z m 0.066,-1.121 c 1.925,0 3.358,0.743 4.298,2.228 0.94,1.486 1.411,3.731 1.411,6.737 0,3.111 -0.504,5.465 -1.51,7.06 -1.006,1.595 -2.476,2.393 -4.41,2.393 -1.898,0 -3.311,-0.747 -4.238,-2.242 -0.928,-1.494 -1.391,-3.761 -1.391,-6.802 0,-1.617 0.143,-3.015 0.428,-4.193 0.286,-1.177 0.686,-2.151 1.2,-2.92 0.514,-0.769 1.132,-1.338 1.852,-1.707 0.721,-0.369 1.508,-0.554 2.36,-0.554 z"
       fill-rule="evenodd"
       id="path275" />
    <text
       fill="#000000"
       fill-opacity="0"
       font-family="Arial, Arial_MSFontService, sans-serif"
       font-size="18.4175px"
       x="924.17798"
       y="505.85101"
       id="text277">0</text>
    <path
       d="m 971.452,490.856 c -0.606,0 -1.114,0.18 -1.522,0.54 -0.409,0.361 -0.739,0.879 -0.989,1.556 -0.251,0.677 -0.429,1.501 -0.534,2.472 -0.106,0.971 -0.158,2.068 -0.158,3.289 0,2.865 0.265,4.968 0.797,6.309 0.532,1.34 1.356,2.01 2.472,2.01 1.064,0 1.852,-0.631 2.367,-1.892 0.514,-1.261 0.771,-3.214 0.771,-5.86 0,-2.021 -0.132,-3.658 -0.396,-4.911 -0.263,-1.252 -0.63,-2.151 -1.101,-2.696 -0.47,-0.545 -1.039,-0.817 -1.707,-0.817 z m 0.066,-1.121 c 1.925,0 3.358,0.743 4.298,2.228 0.94,1.486 1.411,3.731 1.411,6.737 0,3.111 -0.504,5.465 -1.51,7.06 -1.006,1.595 -2.476,2.393 -4.41,2.393 -1.898,0 -3.311,-0.747 -4.238,-2.242 -0.928,-1.494 -1.391,-3.761 -1.391,-6.802 0,-1.617 0.143,-3.015 0.428,-4.193 0.286,-1.177 0.686,-2.151 1.2,-2.92 0.514,-0.769 1.132,-1.338 1.852,-1.707 0.721,-0.369 1.508,-0.554 2.36,-0.554 z"
       fill-rule="evenodd"
       id="path279" />
    <text
       fill="#000000"
       fill-opacity="0"
       font-family="Arial, Arial_MSFontService, sans-serif"
       font-size="18.4175px"
       x="965.67798"
       y="505.85101"
       id="text281">0</text>
    <path
       d="m 1012.95,490.856 c -0.6,0 -1.11,0.18 -1.52,0.54 -0.41,0.361 -0.74,0.879 -0.99,1.556 -0.25,0.677 -0.43,1.501 -0.53,2.472 -0.11,0.971 -0.16,2.068 -0.16,3.289 0,2.865 0.26,4.968 0.8,6.309 0.53,1.34 1.35,2.01 2.47,2.01 1.06,0 1.85,-0.631 2.36,-1.892 0.52,-1.261 0.78,-3.214 0.78,-5.86 0,-2.021 -0.14,-3.658 -0.4,-4.911 -0.26,-1.252 -0.63,-2.151 -1.1,-2.696 -0.47,-0.545 -1.04,-0.817 -1.71,-0.817 z m 0.07,-1.121 c 1.92,0 3.36,0.743 4.3,2.228 0.94,1.486 1.41,3.731 1.41,6.737 0,3.111 -0.51,5.465 -1.51,7.06 -1.01,1.595 -2.48,2.393 -4.41,2.393 -1.9,0 -3.31,-0.747 -4.24,-2.242 -0.93,-1.494 -1.39,-3.761 -1.39,-6.802 0,-1.617 0.14,-3.015 0.43,-4.193 0.28,-1.177 0.68,-2.151 1.2,-2.92 0.51,-0.769 1.13,-1.338 1.85,-1.707 0.72,-0.369 1.51,-0.554 2.36,-0.554 z"
       fill-rule="evenodd"
       id="path283" />
    <text
       fill="#000000"
       fill-opacity="0"
       font-family="Arial, Arial_MSFontService, sans-serif"
       font-size="18.4175px"
       x="1007.18"
       y="505.85101"
       id="text285">0</text>
  </g>
</svg>
