<?xml version="1.0" encoding="UTF-8" standalone="no"?>
<svg
   width="1280"
   height="660"
   overflow="hidden"
   version="1.1"
   id="svg283"
   sodipodi:docname="linear_systems-matrix_rank_and_nullity.svg"
   inkscape:version="1.2 (dc2aedaf03, 2022-05-15)"
   xmlns:inkscape="http://www.inkscape.org/namespaces/inkscape"
   xmlns:sodipodi="http://sodipodi.sourceforge.net/DTD/sodipodi-0.dtd"
   xmlns="http://www.w3.org/2000/svg"
   xmlns:svg="http://www.w3.org/2000/svg">
  <sodipodi:namedview
     id="namedview285"
     pagecolor="#ffffff"
     bordercolor="#000000"
     borderopacity="0.25"
     inkscape:showpageshadow="2"
     inkscape:pageopacity="0.0"
     inkscape:pagecheckerboard="0"
     inkscape:deskcolor="#d1d1d1"
     showgrid="false"
     inkscape:zoom="0.92709556"
     inkscape:cx="673.6091"
     inkscape:cy="337.61353"
     inkscape:window-width="2560"
     inkscape:window-height="1494"
     inkscape:window-x="-11"
     inkscape:window-y="-11"
     inkscape:window-maximized="1"
     inkscape:current-layer="g281" />
  <defs
     id="defs5">
    <clipPath
       id="clip0">
      <rect
         x="0"
         y="0"
         width="1280"
         height="720"
         id="rect2" />
    </clipPath>
  </defs>
  <g
     clip-path="url(#clip0)"
     id="g281">
    <rect
       x="1.0786372"
       y="-24.808661"
       width="1280"
       height="720"
       fill="#ffffff"
       id="rect7" />
    <path
       d="m 754.07863,108.07434 c 0,-7.11501 5.768,-12.883002 12.883,-12.883002 h 151.234 c 7.115,0 12.883,5.767992 12.883,12.883002 v 74.234 c 0,7.115 -5.768,12.883 -12.883,12.883 h -151.234 c -7.115,0 -12.883,-5.768 -12.883,-12.883 z"
       fill="#7030a0"
       fill-rule="evenodd"
       fill-opacity="0.301961"
       id="path9" />
    <path
       d="M 867.07863,95.191338 V 194.67434"
       stroke="#7030a0"
       stroke-width="4"
       stroke-miterlimit="8"
       fill="none"
       fill-rule="evenodd"
       id="path11" />
    <path
       d="m 767.07863,122.69134 c 0,-11.322 9.85,-20.50001 22,-20.50001 12.15,0 22,9.17801 22,20.50001 0,11.322 -9.85,20.5 -22,20.5 -12.15,0 -22,-9.178 -22,-20.5 z"
       fill="#bdd7ee"
       fill-rule="evenodd"
       fill-opacity="0.501961"
       id="path13" />
    <path
       d="m 754.07863,228.07434 c 0,-7.115 5.768,-12.883 12.883,-12.883 h 151.234 c 7.115,0 12.883,5.768 12.883,12.883 v 74.234 c 0,7.115 -5.768,12.883 -12.883,12.883 h -151.234 c -7.115,0 -12.883,-5.768 -12.883,-12.883 z"
       fill="#7030a0"
       fill-rule="evenodd"
       fill-opacity="0.301961"
       id="path15" />
    <path
       d="m 187.07863,228.07434 c 0,-7.115 5.768,-12.883 12.883,-12.883 h 147.234 c 7.115,0 12.883,5.768 12.883,12.883 v 74.234 c 0,7.115 -5.768,12.883 -12.883,12.883 h -147.234 c -7.115,0 -12.883,-5.768 -12.883,-12.883 z"
       fill="#7030a0"
       fill-rule="evenodd"
       fill-opacity="0.301961"
       id="path17" />
    <path
       d="m 300.07863,215.19134 v 99.483"
       stroke="#7030a0"
       stroke-width="4"
       stroke-miterlimit="8"
       fill="none"
       fill-rule="evenodd"
       id="path19" />
    <text
       font-family="Calibri, Calibri_MSFontService, sans-serif"
       font-weight="400"
       font-size="43px"
       id="text23"
       x="151.37465"
       y="64.191338">Single solution<tspan
   font-size="43px"
   x="696.00763"
   y="64.191338"
   id="tspan21">Infinite solutions</tspan></text>
    <path
       d="m 187.07863,108.07434 c 0,-7.11501 5.768,-12.883002 12.883,-12.883002 h 147.234 c 7.115,0 12.883,5.767992 12.883,12.883002 v 74.234 c 0,7.115 -5.768,12.883 -12.883,12.883 h -147.234 c -7.115,0 -12.883,-5.768 -12.883,-12.883 z"
       fill="#7030a0"
       fill-rule="evenodd"
       fill-opacity="0.301961"
       id="path25" />
    <path
       d="M 300.07863,95.191338 V 194.67434"
       stroke="#7030a0"
       stroke-width="4"
       stroke-miterlimit="8"
       fill="none"
       fill-rule="evenodd"
       id="path27" />
    <path
       d="m 196.07863,125.69134 c 0,-11.322 9.626,-20.5 21.5,-20.5 11.874,0 21.5,9.178 21.5,20.5 0,11.322 -9.626,20.5 -21.5,20.5 -11.874,0 -21.5,-9.178 -21.5,-20.5 z"
       fill="#bdd7ee"
       fill-rule="evenodd"
       fill-opacity="0.501961"
       id="path29" />
    <path
       d="m 249.07863,161.69134 c 0,-11.322 9.626,-20.5 21.5,-20.5 11.874,0 21.5,9.178 21.5,20.5 0,11.322 -9.626,20.5 -21.5,20.5 -11.874,0 -21.5,-9.178 -21.5,-20.5 z"
       fill="#bdd7ee"
       fill-rule="evenodd"
       fill-opacity="0.501961"
       id="path31" />
    <text
       font-family="'Cambria Math', 'Cambria Math_MSFontService', sans-serif"
       font-weight="400"
       font-size="32px"
       id="text65"
       x="208.17564"
       y="135.19133">1<tspan
   font-size="32px"
   x="265.84235"
   y="135.19133"
   id="tspan33">4</tspan><tspan
   font-size="32px"
   x="315.50867"
   y="135.19133"
   id="tspan35">0</tspan><tspan
   font-family="Calibri, Calibri_MSFontService, sans-serif"
   font-size="32px"
   x="200.17564"
   y="172.19133"
   id="tspan37">âˆ’</tspan>1<tspan
   font-size="32px"
   x="265.84235"
   y="172.19133"
   id="tspan39">3</tspan><tspan
   font-size="32px"
   x="315.50867"
   y="172.19133"
   id="tspan41">0</tspan><tspan
   font-size="32px"
   x="384.39066"
   y="262.19131"
   id="tspan43">ğ‘¥</tspan><tspan
   font-size="23px"
   x="400.33664"
   y="268.19131"
   id="tspan45">1</tspan><tspan
   font-size="32px"
   x="415.16367"
   y="262.19131"
   id="tspan47" /><tspan
   font-family="Calibri, Calibri_MSFontService, sans-serif"
   font-size="32px"
   x="422.16367"
   y="262.19131"
   id="tspan49">=</tspan><tspan
   font-family="Calibri, Calibri_MSFontService, sans-serif"
   font-size="32px"
   x="445.33066"
   y="262.19131"
   id="tspan51">0</tspan><tspan
   font-size="32px"
   x="382.87964"
   y="294.19131"
   id="tspan53">ğ‘¥</tspan><tspan
   font-size="23px"
   x="399.56564"
   y="301.19131"
   id="tspan55">2</tspan><tspan
   font-size="32px"
   x="414.39264"
   y="294.19131"
   id="tspan57" /><tspan
   font-family="Calibri, Calibri_MSFontService, sans-serif"
   font-size="32px"
   x="421.39264"
   y="294.19131"
   id="tspan59">=</tspan><tspan
   font-family="Calibri, Calibri_MSFontService, sans-serif"
   font-size="32px"
   x="437.39264"
   y="294.19131"
   id="tspan61" /><tspan
   font-family="Calibri, Calibri_MSFontService, sans-serif"
   font-size="32px"
   x="444.55966"
   y="294.19131"
   id="tspan63">0</tspan></text>
    <path
       d="m 197.07863,247.69134 c 0,-11.322 9.626,-20.5 21.5,-20.5 11.874,0 21.5,9.178 21.5,20.5 0,11.322 -9.626,20.5 -21.5,20.5 -11.874,0 -21.5,-9.178 -21.5,-20.5 z"
       fill="#bdd7ee"
       fill-rule="evenodd"
       fill-opacity="0.501961"
       id="path67" />
    <path
       d="m 110.53563,263.42634 c 3.75,0 8.219,1.64 13.406,4.922 5.188,3.281 9.125,4.921 11.813,4.921 2.656,0 4.875,-0.703 6.656,-2.109 1.781,-1.406 3.578,-3.594 5.39,-6.562 l 3.75,2.531 c -1.343,2.781 -3.468,5.586 -6.375,8.414 -2.906,2.828 -6.437,4.242 -10.593,4.242 -4,0 -8.571,-1.641 -13.711,-4.922 -5.141,-3.281 -9.071,-4.922 -11.789,-4.922 -2.282,0 -4.28199,0.719 -5.99999,2.157 -1.719,1.437 -3.234702,3.531 -4.547202,6.281 l -3.6562,-2.063 c 1.5937,-3.687 3.7031,-6.757 6.328402,-9.211 2.625,-2.453 5.73399,-3.679 9.32799,-3.679 z"
       fill-rule="evenodd"
       id="path69" />
    <text
       fill="#000000"
       fill-opacity="0"
       font-family="Arial, Arial_MSFontService, sans-serif"
       font-size="16.3594px"
       x="94.879234"
       y="277.74033"
       id="text71">~</text>
    <text
       font-family="Calibri, Calibri_MSFontService, sans-serif"
       font-weight="400"
       font-size="32px"
       id="text73"
       x="94.034637"
       y="395.19131">The solution set is</text>
    <path
       d="m 390.44563,354.25034 c 2.229,0.198 4.187,1.354 5.875,3.469 1.687,2.115 2.531,5.349 2.531,9.703 0,1.656 -0.302,3.901 -0.906,6.734 -0.604,2.823 -0.906,4.766 -0.906,5.829 0,1.708 0.343,3.02 1.031,3.937 0.698,0.917 1.583,1.412 2.656,1.484 v 1.469 c -1.062,0.073 -1.948,0.573 -2.656,1.5 -0.688,0.927 -1.031,2.235 -1.031,3.922 0,1.063 0.302,3.005 0.906,5.828 0.604,2.834 0.906,5.078 0.906,6.735 0,4.364 -0.844,7.599 -2.531,9.703 -1.688,2.114 -3.646,3.271 -5.875,3.468 v -1.343 c 1.427,-0.209 2.693,-1.136 3.797,-2.782 1.104,-1.645 1.656,-4.192 1.656,-7.64 0,-0.729 -0.07,-1.649 -0.211,-2.758 -0.141,-1.109 -0.357,-2.419 -0.648,-3.93 -0.292,-1.5 -0.508,-2.708 -0.649,-3.625 -0.14,-0.916 -0.211,-1.547 -0.211,-1.89 0,-1.011 0.071,-1.927 0.211,-2.75 0.141,-0.823 0.367,-1.555 0.68,-2.196 0.312,-0.64 0.716,-1.195 1.211,-1.664 0.495,-0.468 1.096,-0.859 1.804,-1.172 v -0.281 c -0.708,-0.312 -1.309,-0.703 -1.804,-1.172 -0.495,-0.468 -0.899,-1.023 -1.211,-1.664 -0.313,-0.64 -0.539,-1.37 -0.68,-2.187 -0.14,-0.818 -0.211,-1.737 -0.211,-2.758 0,-0.344 0.071,-0.974 0.211,-1.891 0.141,-0.916 0.357,-2.125 0.649,-3.625 0.291,-1.51 0.507,-2.82 0.648,-3.929 0.141,-1.11 0.211,-2.029 0.211,-2.758 0,-3.448 -0.552,-5.995 -1.656,-7.641 -1.104,-1.646 -2.37,-2.573 -3.797,-2.781 z m -43.798,0 v 1.344 c -1.427,0.198 -2.693,1.125 -3.797,2.781 -1.104,1.656 -1.656,4.203 -1.656,7.641 0,1.458 0.286,3.685 0.859,6.68 0.573,2.994 0.86,4.835 0.86,5.523 0,2.031 -0.3,3.682 -0.899,4.953 -0.599,1.271 -1.601,2.214 -3.007,2.828 v 0.281 c 1.406,0.615 2.408,1.558 3.007,2.829 0.599,1.27 0.899,2.921 0.899,4.953 0,0.687 -0.287,2.528 -0.86,5.523 -0.573,2.995 -0.859,5.221 -0.859,6.68 0,3.437 0.552,5.984 1.656,7.64 1.104,1.657 2.37,2.584 3.797,2.782 v 1.343 c -2.229,-0.208 -4.187,-1.364 -5.875,-3.468 -1.687,-2.104 -2.531,-5.339 -2.531,-9.703 0,-1.636 0.302,-3.878 0.906,-6.727 0.604,-2.849 0.906,-4.794 0.906,-5.836 0,-1.698 -0.346,-3.008 -1.039,-3.93 -0.692,-0.921 -1.575,-1.419 -2.648,-1.492 v -1.469 c 1.073,-0.072 1.956,-0.57 2.648,-1.492 0.693,-0.922 1.039,-2.232 1.039,-3.929 0,-1.042 -0.302,-2.987 -0.906,-5.836 -0.604,-2.849 -0.906,-5.092 -0.906,-6.727 0,-4.365 0.844,-7.599 2.531,-9.703 1.688,-2.104 3.646,-3.26 5.875,-3.469 z"
       fill-rule="evenodd"
       id="path75" />
    <path
       d="m 378.08463,354.30634 h 7.859 v 63.656 h -7.859 v -1.437 h 4.797 v -60.781 h -4.797 z m -26.934,0 h 7.859 v 1.438 h -4.797 v 60.781 h 4.797 v 1.437 h -7.859 z"
       fill-rule="evenodd"
       id="path77" />
    <text
       font-family="'Cambria Math', 'Cambria Math_MSFontService', sans-serif"
       font-weight="400"
       font-size="32px"
       id="text83"
       x="359.71466"
       y="378.19131">0<tspan
   font-size="32px"
   x="359.71466"
   y="415.19131"
   id="tspan79">0</tspan><tspan
   font-family="Calibri, Calibri_MSFontService, sans-serif"
   font-size="32px"
   x="401.90137"
   y="395.19131"
   id="tspan81">.</tspan></text>
    <path
       d="m 867.07863,215.19134 v 99.483"
       stroke="#7030a0"
       stroke-width="4"
       stroke-miterlimit="8"
       fill="none"
       fill-rule="evenodd"
       id="path85" />
    <path
       d="m 764.07863,243.69134 c 0,-11.322 9.85,-20.5 22,-20.5 12.15,0 22,9.178 22,20.5 0,11.322 -9.85,20.5 -22,20.5 -12.15,0 -22,-9.178 -22,-20.5 z"
       fill="#bdd7ee"
       fill-rule="evenodd"
       fill-opacity="0.501961"
       id="path87" />
    <path
       d="m 677.52763,254.53334 c 3.75,0 8.219,1.641 13.406,4.922 5.188,3.281 9.125,4.922 11.813,4.922 2.656,0 4.875,-0.703 6.656,-2.11 1.781,-1.406 3.578,-3.593 5.391,-6.562 l 3.75,2.531 c -1.344,2.781 -3.469,5.586 -6.375,8.414 -2.907,2.828 -6.438,4.242 -10.594,4.242 -4,0 -8.57,-1.64 -13.711,-4.922 -5.141,-3.281 -9.07,-4.921 -11.789,-4.921 -2.281,0 -4.281,0.718 -6,2.156 -1.719,1.437 -3.235,3.531 -4.547,6.281 l -3.656,-2.062 c 1.593,-3.688 3.703,-6.758 6.328,-9.211 2.625,-2.454 5.734,-3.68 9.328,-3.68 z"
       fill-rule="evenodd"
       id="path89" />
    <text
       fill="#000000"
       fill-opacity="0"
       font-family="Arial, Arial_MSFontService, sans-serif"
       font-size="16.3594px"
       x="661.87164"
       y="268.84732"
       id="text91">~</text>
    <text
       font-family="'Cambria Math', 'Cambria Math_MSFontService', sans-serif"
       font-weight="400"
       font-size="32px"
       id="text131"
       x="955.10864"
       y="255.19131">ğ‘¥<tspan
   font-size="23px"
   x="971.0553"
   y="262.19131"
   id="tspan93">1</tspan><tspan
   font-size="32px"
   x="985.88202"
   y="255.19131"
   id="tspan95" /><tspan
   font-family="Calibri, Calibri_MSFontService, sans-serif"
   font-size="32px"
   x="992.88202"
   y="255.19131"
   id="tspan97">=</tspan><tspan
   font-family="Calibri, Calibri_MSFontService, sans-serif"
   font-size="32px"
   x="1008.882"
   y="255.19131"
   id="tspan99" /><tspan
   font-family="Calibri, Calibri_MSFontService, sans-serif"
   font-size="32px"
   x="1016.0487"
   y="255.19131"
   id="tspan101">âˆ’</tspan><tspan
   font-size="32px"
   x="1032.0487"
   y="255.19131"
   id="tspan103">4</tspan><tspan
   font-size="32px"
   x="1049.7152"
   y="255.19131"
   id="tspan105">ğ‘¥</tspan><tspan
   font-size="23px"
   x="1066.4016"
   y="262.19131"
   id="tspan107">2</tspan><tspan
   font-size="32px"
   x="954.9845"
   y="288.19131"
   id="tspan109">ğ‘¥</tspan><tspan
   font-size="23px"
   x="971.6712"
   y="295.19131"
   id="tspan111">2</tspan><tspan
   font-size="32px"
   x="986.4978"
   y="288.19131"
   id="tspan113" /><tspan
   font-family="Calibri, Calibri_MSFontService, sans-serif"
   font-size="32px"
   x="993.4978"
   y="288.19131"
   id="tspan115">is free i.e.</tspan><tspan
   font-size="32px"
   x="1126.7445"
   y="288.19131"
   id="tspan117">ğ‘¥</tspan><tspan
   font-size="23px"
   x="1143.4315"
   y="295.19131"
   id="tspan119">2</tspan><tspan
   font-size="32px"
   x="1158.2576"
   y="288.19131"
   id="tspan121" /><tspan
   font-family="Calibri, Calibri_MSFontService, sans-serif"
   font-size="32px"
   x="1165.2576"
   y="288.19131"
   id="tspan123">= 1</tspan><tspan
   font-size="32px"
   x="1204.5916"
   y="288.19131"
   id="tspan125">ğ‘¥</tspan><tspan
   font-size="23px"
   x="1221.2776"
   y="295.19131"
   id="tspan127">2</tspan><tspan
   font-family="Calibri, Calibri_MSFontService, sans-serif"
   font-size="32px"
   x="662.06061"
   y="395.19131"
   id="tspan129">The solution set is</tspan></text>
    <path
       d="m 1011.6386,359.35234 c 2.75,0.136 4.85,1.13 6.3,2.985 1.45,1.854 2.18,4.724 2.18,8.609 0,1.396 -0.16,3.13 -0.48,5.203 -0.31,2.073 -0.47,3.422 -0.47,4.047 0,1.458 0.3,2.599 0.9,3.422 0.61,0.823 1.49,1.245 2.64,1.266 v 1.343 c -1.16,0.032 -2.04,0.461 -2.64,1.289 -0.6,0.828 -0.9,1.956 -0.9,3.383 0,0.573 0.16,1.995 0.47,4.266 0.32,2.271 0.48,4.005 0.48,5.203 0,3.635 -0.69,6.427 -2.06,8.375 -1.38,1.948 -3.52,2.963 -6.42,3.047 v -1.25 c 0.91,-0.063 1.72,-0.284 2.42,-0.664 0.7,-0.381 1.3,-0.956 1.81,-1.727 0.51,-0.75 0.89,-1.719 1.13,-2.906 0.24,-1.188 0.36,-2.615 0.36,-4.281 0,-0.74 -0.15,-2.305 -0.43,-4.696 -0.28,-2.39 -0.42,-3.846 -0.42,-4.367 0,-1.792 0.38,-3.208 1.14,-4.25 0.76,-1.042 1.46,-1.687 2.1,-1.937 v -0.313 c -0.64,-0.229 -1.34,-0.877 -2.1,-1.945 -0.76,-1.068 -1.14,-2.492 -1.14,-4.274 0,-0.791 0.14,-2.221 0.42,-4.289 0.28,-2.067 0.43,-3.679 0.43,-4.836 0,-1.656 -0.14,-3.07 -0.4,-4.242 -0.27,-1.172 -0.65,-2.133 -1.15,-2.883 -0.5,-0.75 -1.1,-1.31 -1.81,-1.679 -0.7,-0.37 -1.49,-0.586 -2.36,-0.649 z m -95.82497,0 v 1.25 c -0.875,0.063 -1.667,0.279 -2.375,0.649 -0.708,0.369 -1.31,0.929 -1.805,1.679 -0.495,0.75 -0.875,1.711 -1.14,2.883 -0.266,1.172 -0.399,2.586 -0.399,4.242 0,1.157 0.141,2.769 0.422,4.836 0.281,2.068 0.422,3.498 0.422,4.289 0,1.782 -0.383,3.206 -1.148,4.274 -0.766,1.068 -1.461,1.716 -2.086,1.945 v 0.313 c 0.625,0.25 1.32,0.895 2.086,1.937 0.765,1.042 1.148,2.458 1.148,4.25 0,0.521 -0.141,1.977 -0.422,4.367 -0.281,2.391 -0.422,3.956 -0.422,4.696 0,1.666 0.12,3.093 0.36,4.281 0.239,1.187 0.609,2.156 1.109,2.906 0.521,0.771 1.13,1.346 1.828,1.727 0.698,0.38 1.505,0.601 2.422,0.664 v 1.25 c -2.917,-0.084 -5.06,-1.099 -6.43,-3.047 -1.37,-1.948 -2.054,-4.74 -2.054,-8.375 0,-1.198 0.158,-2.932 0.476,-5.203 0.318,-2.271 0.477,-3.693 0.477,-4.266 0,-1.427 -0.3,-2.555 -0.899,-3.383 -0.599,-0.828 -1.482,-1.257 -2.648,-1.289 v -1.343 c 1.156,-0.021 2.036,-0.443 2.64,-1.266 0.605,-0.823 0.907,-1.964 0.907,-3.422 0,-0.625 -0.159,-1.974 -0.477,-4.047 -0.318,-2.073 -0.476,-3.807 -0.476,-5.203 0,-3.885 0.724,-6.755 2.171,-8.609 1.448,-1.855 3.553,-2.849 6.313,-2.985 z"
       fill-rule="evenodd"
       id="path133" />
    <text
       font-family="'Cambria Math', 'Cambria Math_MSFontService', sans-serif"
       font-weight="400"
       font-size="32px"
       id="text137"
       x="916.7796"
       y="395.19131">ğ‘¥<tspan
   font-size="23px"
   x="933.46625"
   y="401.19131"
   id="tspan135">2</tspan></text>
    <path
       d="m 999.68263,359.32534 h 7.43597 v 52.5 h -7.43597 v -1.359 h 4.54597 v -49.781 h -4.54597 z m -42.509,0 h 7.437 v 1.36 h -4.547 v 49.781 h 4.547 v 1.359 h -7.437 z"
       fill-rule="evenodd"
       id="path139" />
    <text
       font-family="Calibri, Calibri_MSFontService, sans-serif"
       font-weight="400"
       font-size="32px"
       id="text147"
       x="965.3136"
       y="377.19131">âˆ’<tspan
   font-family="'Cambria Math', 'Cambria Math_MSFontService', sans-serif"
   font-size="32px"
   x="981.3136"
   y="377.19131"
   id="tspan141">4</tspan><tspan
   font-family="'Cambria Math', 'Cambria Math_MSFontService', sans-serif"
   font-size="32px"
   x="973.3136"
   y="415.19131"
   id="tspan143">1</tspan><tspan
   font-size="32px"
   x="1024.2269"
   y="395.19131"
   id="tspan145">.</tspan></text>
    <path
       d="m 248.07863,283.69134 c 0,-11.322 9.626,-20.5 21.5,-20.5 11.874,0 21.5,9.178 21.5,20.5 0,11.322 -9.626,20.5 -21.5,20.5 -11.874,0 -21.5,-9.178 -21.5,-20.5 z"
       fill="#bdd7ee"
       fill-rule="evenodd"
       fill-opacity="0.501961"
       id="path149" />
    <text
       font-family="'Cambria Math', 'Cambria Math_MSFontService', sans-serif"
       font-weight="400"
       font-size="32px"
       id="text189"
       x="210.43164"
       y="258.19131">1<tspan
   font-size="32px"
   x="260.09833"
   y="258.19131"
   id="tspan151">0</tspan><tspan
   font-size="32px"
   x="309.76495"
   y="258.19131"
   id="tspan153">0</tspan><tspan
   font-size="32px"
   x="210.43164"
   y="295.19131"
   id="tspan155">0</tspan><tspan
   font-size="32px"
   x="260.09833"
   y="295.19131"
   id="tspan157">1</tspan><tspan
   font-size="32px"
   x="309.76495"
   y="295.19131"
   id="tspan159">0</tspan><tspan
   font-size="32px"
   x="779.18066"
   y="255.19131"
   id="tspan161">1</tspan><tspan
   font-size="32px"
   x="828.84662"
   y="255.19131"
   id="tspan163">4</tspan><tspan
   font-size="32px"
   x="878.51361"
   y="255.19131"
   id="tspan165">0</tspan><tspan
   font-size="32px"
   x="779.18066"
   y="293.19131"
   id="tspan167">0</tspan><tspan
   font-size="32px"
   x="828.84662"
   y="293.19131"
   id="tspan169">0</tspan><tspan
   font-size="32px"
   x="878.51361"
   y="293.19131"
   id="tspan171">0</tspan><tspan
   font-size="32px"
   x="781.53064"
   y="135.19133"
   id="tspan173">1</tspan><tspan
   font-size="32px"
   x="831.19763"
   y="135.19133"
   id="tspan175">4</tspan><tspan
   font-size="32px"
   x="880.86365"
   y="135.19133"
   id="tspan177">0</tspan><tspan
   font-size="32px"
   x="781.53064"
   y="172.19133"
   id="tspan179">2</tspan><tspan
   font-size="32px"
   x="831.19763"
   y="172.19133"
   id="tspan181">8</tspan><tspan
   font-size="32px"
   x="880.86365"
   y="172.19133"
   id="tspan183">0</tspan><tspan
   font-family="Calibri, Calibri_MSFontService, sans-serif"
   font-size="27px"
   x="94.03463"
   y="478.19131"
   id="tspan185">Col A is</tspan><tspan
   font-family="Calibri, Calibri_MSFontService, sans-serif"
   font-size="27px"
   x="178.53424"
   y="478.19131"
   id="tspan187">Span</tspan></text>
    <path
       d="m 345.90563,443.10534 c 1.881,0.167 3.533,1.143 4.957,2.927 1.424,1.784 2.136,4.513 2.136,8.187 0,1.398 -0.255,3.292 -0.765,5.682 -0.51,2.382 -0.764,4.021 -0.764,4.918 0,1.441 0.29,2.549 0.87,3.322 0.588,0.774 1.336,1.191 2.241,1.253 v 1.239 c -0.897,0.061 -1.644,0.483 -2.241,1.265 -0.58,0.783 -0.87,1.886 -0.87,3.31 0,0.896 0.254,2.535 0.764,4.917 0.51,2.391 0.765,4.285 0.765,5.682 0,3.683 -0.712,6.412 -2.136,8.187 -1.424,1.784 -3.076,2.76 -4.957,2.927 v -1.134 c 1.204,-0.176 2.272,-0.958 3.204,-2.347 0.931,-1.388 1.397,-3.537 1.397,-6.446 0,-0.616 -0.059,-1.391 -0.178,-2.327 -0.119,-0.936 -0.301,-2.041 -0.547,-3.316 -0.246,-1.266 -0.428,-2.285 -0.547,-3.058 -0.119,-0.774 -0.178,-1.306 -0.178,-1.596 0,-0.852 0.059,-1.626 0.178,-2.32 0.119,-0.694 0.31,-1.312 0.573,-1.852 0.264,-0.541 0.605,-1.009 1.022,-1.404 0.418,-0.396 0.925,-0.725 1.523,-0.989 v -0.237 c -0.598,-0.264 -1.105,-0.594 -1.523,-0.989 -0.417,-0.396 -0.758,-0.864 -1.022,-1.404 -0.263,-0.541 -0.454,-1.156 -0.573,-1.846 -0.119,-0.69 -0.178,-1.466 -0.178,-2.327 0,-0.29 0.059,-0.822 0.178,-1.595 0.119,-0.774 0.301,-1.793 0.547,-3.059 0.246,-1.274 0.428,-2.379 0.547,-3.315 0.119,-0.936 0.178,-1.712 0.178,-2.327 0,-2.909 -0.466,-5.058 -1.397,-6.447 -0.932,-1.389 -2,-2.171 -3.204,-2.347 z m -98.541,0 v 1.134 c -1.204,0.167 -2.272,0.949 -3.203,2.347 -0.932,1.397 -1.398,3.546 -1.398,6.447 0,1.23 0.242,3.109 0.725,5.636 0.484,2.527 0.725,4.08 0.725,4.66 0,1.714 -0.252,3.107 -0.758,4.179 -0.505,1.073 -1.351,1.868 -2.538,2.387 v 0.237 c 1.187,0.518 2.033,1.314 2.538,2.386 0.506,1.072 0.758,2.465 0.758,4.179 0,0.58 -0.241,2.134 -0.725,4.661 -0.483,2.527 -0.725,4.405 -0.725,5.636 0,2.9 0.466,5.049 1.398,6.446 0.931,1.398 1.999,2.18 3.203,2.347 v 1.134 c -1.881,-0.176 -3.533,-1.151 -4.957,-2.927 -1.424,-1.775 -2.136,-4.504 -2.136,-8.187 0,-1.38 0.255,-3.272 0.765,-5.675 0.51,-2.404 0.765,-4.046 0.765,-4.924 0,-1.433 -0.292,-2.538 -0.877,-3.316 -0.584,-0.778 -1.329,-1.198 -2.235,-1.259 v -1.239 c 0.906,-0.062 1.651,-0.482 2.235,-1.259 0.585,-0.778 0.877,-1.884 0.877,-3.316 0,-0.879 -0.255,-2.52 -0.765,-4.924 -0.51,-2.404 -0.765,-4.296 -0.765,-5.676 0,-3.682 0.712,-6.411 2.136,-8.187 1.424,-1.775 3.076,-2.751 4.957,-2.927 z"
       fill-rule="evenodd"
       id="path191" />
    <path
       d="m 286.52763,447.86534 h 6.276 v 44.297 h -6.276 v -1.147 h 3.837 v -42.003 h -3.837 z m -35.507,0 h 6.275 v 1.147 h -3.836 v 42.003 h 3.836 v 1.147 h -6.275 z"
       fill-rule="evenodd"
       id="path193" />
    <text
       font-family="'Cambria Math', 'Cambria Math_MSFontService', sans-serif"
       font-weight="400"
       font-size="27px"
       id="text201"
       x="264.43466"
       y="463.19131">1<tspan
   font-family="Calibri, Calibri_MSFontService, sans-serif"
   font-size="27px"
   x="257.76797"
   y="495.19131"
   id="tspan195">âˆ’</tspan><tspan
   font-size="27px"
   x="271.10132"
   y="495.19131"
   id="tspan197">1</tspan><tspan
   font-size="27px"
   x="300.12137"
   y="478.19131"
   id="tspan199">,</tspan></text>
    <path
       d="m 335.60163,443.15834 h 6.631 v 53.71 h -6.631 v -1.213 h 4.047 v -51.284 h -4.047 z m -22.528,0 h 6.632 v 1.213 h -4.048 v 51.284 h 4.048 v 1.213 h -6.632 z"
       fill-rule="evenodd"
       id="path203" />
    <text
       font-family="'Cambria Math', 'Cambria Math_MSFontService', sans-serif"
       font-weight="400"
       font-size="27px"
       id="text217"
       x="320.17465"
       y="463.19131">4<tspan
   font-size="27px"
   x="320.17465"
   y="494.19131"
   id="tspan205">3</tspan><tspan
   font-family="Calibri, Calibri_MSFontService, sans-serif"
   font-size="27px"
   x="361.44135"
   y="478.19131"
   id="tspan207">and has</tspan><tspan
   fill="#c00000"
   font-family="Calibri, Calibri_MSFontService, sans-serif"
   font-size="27px"
   x="451.60767"
   y="478.19131"
   id="tspan209">2</tspan><tspan
   font-family="Calibri, Calibri_MSFontService, sans-serif"
   font-size="27px"
   x="471.10767"
   y="478.19131"
   id="tspan211">dimensions.</tspan><tspan
   font-family="Calibri, Calibri_MSFontService, sans-serif"
   font-size="27px"
   x="94.034637"
   y="545.19141"
   id="tspan213">Nul A is</tspan><tspan
   font-family="Calibri, Calibri_MSFontService, sans-serif"
   font-size="27px"
   x="181.53464"
   y="545.19141"
   id="tspan215">Span</tspan></text>
    <path
       d="m 286.86563,510.41734 c 1.881,0.167 3.533,1.142 4.957,2.926 1.424,1.784 2.136,4.513 2.136,8.187 0,1.398 -0.255,3.292 -0.765,5.682 -0.51,2.382 -0.765,4.021 -0.765,4.918 0,1.441 0.29,2.549 0.87,3.322 0.589,0.774 1.336,1.191 2.242,1.253 v 1.239 c -0.897,0.061 -1.644,0.483 -2.242,1.265 -0.58,0.783 -0.87,1.886 -0.87,3.31 0,0.896 0.255,2.535 0.765,4.917 0.51,2.391 0.765,4.285 0.765,5.682 0,3.683 -0.712,6.412 -2.136,8.187 -1.424,1.784 -3.076,2.76 -4.957,2.927 v -1.134 c 1.204,-0.176 2.272,-0.958 3.203,-2.347 0.932,-1.388 1.398,-3.537 1.398,-6.446 0,-0.616 -0.059,-1.391 -0.178,-2.327 -0.119,-0.936 -0.301,-2.041 -0.547,-3.316 -0.246,-1.265 -0.429,-2.285 -0.547,-3.058 -0.119,-0.774 -0.178,-1.306 -0.178,-1.596 0,-0.852 0.059,-1.626 0.178,-2.32 0.118,-0.694 0.31,-1.312 0.573,-1.852 0.264,-0.541 0.604,-1.009 1.022,-1.404 0.417,-0.396 0.925,-0.725 1.523,-0.989 v -0.237 c -0.598,-0.264 -1.106,-0.594 -1.523,-0.989 -0.418,-0.396 -0.758,-0.864 -1.022,-1.404 -0.263,-0.541 -0.455,-1.156 -0.573,-1.846 -0.119,-0.69 -0.178,-1.466 -0.178,-2.327 0,-0.29 0.059,-0.822 0.178,-1.595 0.118,-0.773 0.301,-1.793 0.547,-3.059 0.246,-1.274 0.428,-2.379 0.547,-3.315 0.119,-0.936 0.178,-1.712 0.178,-2.327 0,-2.909 -0.466,-5.058 -1.398,-6.447 -0.931,-1.389 -1.999,-2.171 -3.203,-2.347 z m -36.501,0 v 1.133 c -1.204,0.167 -2.272,0.95 -3.204,2.347 -0.931,1.397 -1.397,3.546 -1.397,6.447 0,1.23 0.242,3.109 0.725,5.636 0.483,2.527 0.725,4.08 0.725,4.66 0,1.714 -0.253,3.107 -0.758,4.179 -0.505,1.073 -1.351,1.868 -2.538,2.387 v 0.237 c 1.187,0.518 2.033,1.314 2.538,2.386 0.505,1.072 0.758,2.465 0.758,4.179 0,0.58 -0.242,2.134 -0.725,4.661 -0.483,2.527 -0.725,4.405 -0.725,5.636 0,2.9 0.466,5.049 1.397,6.446 0.932,1.398 2,2.18 3.204,2.347 v 1.134 c -1.881,-0.176 -3.533,-1.151 -4.957,-2.927 -1.424,-1.775 -2.136,-4.504 -2.136,-8.187 0,-1.38 0.255,-3.272 0.765,-5.675 0.51,-2.404 0.765,-4.046 0.765,-4.924 0,-1.433 -0.293,-2.538 -0.877,-3.316 -0.585,-0.778 -1.329,-1.198 -2.235,-1.259 v -1.239 c 0.906,-0.062 1.65,-0.482 2.235,-1.259 0.584,-0.778 0.877,-1.883 0.877,-3.316 0,-0.879 -0.255,-2.52 -0.765,-4.924 -0.51,-2.404 -0.765,-4.296 -0.765,-5.676 0,-3.682 0.712,-6.411 2.136,-8.187 1.424,-1.775 3.076,-2.751 4.957,-2.926 z"
       fill-rule="evenodd"
       id="path219" />
    <path
       d="m 276.56063,510.46934 h 6.632 v 53.71 h -6.632 v -1.213 h 4.048 v -51.284 h -4.048 z m -22.527,0 h 6.631 v 1.213 h -4.047 v 51.284 h 4.047 v 1.213 h -6.631 z"
       fill-rule="evenodd"
       id="path221" />
    <text
       font-family="'Cambria Math', 'Cambria Math_MSFontService', sans-serif"
       font-weight="400"
       font-size="27px"
       id="text235"
       x="261.13464"
       y="530.19141">0<tspan
   font-size="27px"
   x="261.13464"
   y="562.19141"
   id="tspan223">0</tspan><tspan
   font-family="Calibri, Calibri_MSFontService, sans-serif"
   font-size="27px"
   x="302.40137"
   y="545.19141"
   id="tspan225">and has</tspan><tspan
   fill="#c00000"
   font-family="Calibri, Calibri_MSFontService, sans-serif"
   font-size="27px"
   x="392.56766"
   y="545.19141"
   id="tspan227">0</tspan><tspan
   font-family="Calibri, Calibri_MSFontService, sans-serif"
   font-size="27px"
   x="412.06766"
   y="545.19141"
   id="tspan229">dimensions.</tspan><tspan
   font-family="Calibri, Calibri_MSFontService, sans-serif"
   font-size="27px"
   x="662.05963"
   y="476.19131"
   id="tspan231">Col A is</tspan><tspan
   font-family="Calibri, Calibri_MSFontService, sans-serif"
   font-size="27px"
   x="746.55963"
   y="476.19131"
   id="tspan233">Span</tspan></text>
    <path
       d="m 852.15763,445.89134 c 2.32,0.114 4.093,0.954 5.319,2.518 1.226,1.565 1.839,3.986 1.839,7.264 0,1.178 -0.134,2.641 -0.402,4.39 -0.268,1.75 -0.402,2.888 -0.402,3.415 0,1.231 0.255,2.193 0.765,2.887 0.51,0.695 1.252,1.051 2.228,1.068 v 1.134 c -0.985,0.026 -1.729,0.389 -2.235,1.088 -0.505,0.698 -0.758,1.65 -0.758,2.854 0,0.483 0.134,1.683 0.402,3.599 0.268,1.916 0.402,3.379 0.402,4.39 0,3.067 -0.58,5.423 -1.74,7.066 -1.16,1.644 -2.966,2.501 -5.418,2.571 v -1.054 c 0.773,-0.053 1.454,-0.24 2.043,-0.561 0.589,-0.321 1.099,-0.806 1.529,-1.457 0.431,-0.632 0.747,-1.45 0.95,-2.452 0.202,-1.002 0.303,-2.206 0.303,-3.612 0,-0.624 -0.119,-1.945 -0.356,-3.962 -0.237,-2.017 -0.356,-3.245 -0.356,-3.684 0,-1.512 0.321,-2.707 0.962,-3.586 0.642,-0.879 1.231,-1.424 1.767,-1.635 v -0.264 c -0.536,-0.193 -1.125,-0.74 -1.767,-1.641 -0.641,-0.901 -0.962,-2.103 -0.962,-3.606 0,-0.668 0.119,-1.874 0.356,-3.619 0.237,-1.744 0.356,-3.105 0.356,-4.08 0,-1.398 -0.112,-2.591 -0.336,-3.579 -0.224,-0.989 -0.547,-1.8 -0.969,-2.433 -0.422,-0.633 -0.93,-1.105 -1.523,-1.417 -0.593,-0.312 -1.259,-0.494 -1.997,-0.547 z m -35.805,0 v 1.055 c -0.738,0.053 -1.406,0.235 -2.004,0.547 -0.598,0.312 -1.105,0.784 -1.523,1.417 -0.417,0.633 -0.738,1.444 -0.962,2.433 -0.224,0.988 -0.336,2.181 -0.336,3.579 0,0.975 0.118,2.336 0.356,4.08 0.237,1.745 0.356,2.951 0.356,3.619 0,1.503 -0.323,2.705 -0.969,3.606 -0.646,0.901 -1.233,1.448 -1.76,1.641 v 0.264 c 0.527,0.211 1.114,0.756 1.76,1.635 0.646,0.879 0.969,2.074 0.969,3.586 0,0.439 -0.119,1.667 -0.356,3.684 -0.238,2.017 -0.356,3.338 -0.356,3.962 0,1.406 0.101,2.61 0.303,3.612 0.202,1.002 0.514,1.82 0.936,2.452 0.439,0.651 0.954,1.136 1.542,1.457 0.589,0.321 1.27,0.508 2.044,0.561 v 1.054 c -2.461,-0.07 -4.269,-0.927 -5.425,-2.571 -1.156,-1.643 -1.734,-3.999 -1.734,-7.066 0,-1.011 0.134,-2.474 0.402,-4.39 0.268,-1.916 0.402,-3.116 0.402,-3.599 0,-1.204 -0.252,-2.156 -0.758,-2.854 -0.505,-0.699 -1.25,-1.062 -2.234,-1.088 v -1.134 c 0.975,-0.017 1.718,-0.373 2.228,-1.068 0.509,-0.694 0.764,-1.656 0.764,-2.887 0,-0.527 -0.134,-1.665 -0.402,-3.415 -0.268,-1.749 -0.402,-3.212 -0.402,-4.39 0,-3.278 0.611,-5.699 1.833,-7.264 1.221,-1.564 2.997,-2.404 5.326,-2.518 z"
       fill-rule="evenodd"
       id="path237" />
    <path
       d="m 842.19363,445.86534 h 6.275 v 44.297 h -6.275 v -1.147 h 3.836 v -42.003 h -3.836 z m -22.174,0 h 6.275 v 1.147 h -3.836 v 42.003 h 3.836 v 1.147 h -6.275 z"
       fill-rule="evenodd"
       id="path239" />
    <text
       font-family="'Cambria Math', 'Cambria Math_MSFontService', sans-serif"
       font-weight="400"
       font-size="27px"
       id="text253"
       x="826.7666"
       y="461.19131">1<tspan
   font-size="27px"
   x="826.7666"
   y="493.19131"
   id="tspan241">2</tspan><tspan
   font-family="Calibri, Calibri_MSFontService, sans-serif"
   font-size="27px"
   x="868.64001"
   y="476.19131"
   id="tspan243">and has</tspan><tspan
   fill="#c00000"
   font-family="Calibri, Calibri_MSFontService, sans-serif"
   font-size="27px"
   x="958.80664"
   y="476.19131"
   id="tspan245">1</tspan><tspan
   font-family="Calibri, Calibri_MSFontService, sans-serif"
   font-size="27px"
   x="978.30664"
   y="476.19131"
   id="tspan247">dimension.</tspan><tspan
   font-family="Calibri, Calibri_MSFontService, sans-serif"
   font-size="27px"
   x="662.05963"
   y="545.19141"
   id="tspan249">Nul A is</tspan><tspan
   font-family="Calibri, Calibri_MSFontService, sans-serif"
   font-size="27px"
   x="749.55994"
   y="545.19141"
   id="tspan251">Span</tspan></text>
    <path
       d="m 868.49063,515.23534 c 2.32,0.114 4.093,0.954 5.32,2.518 1.226,1.565 1.839,3.986 1.839,7.264 0,1.178 -0.134,2.642 -0.402,4.391 -0.269,1.749 -0.403,2.887 -0.403,3.414 0,1.231 0.255,2.193 0.765,2.887 0.51,0.695 1.253,1.051 2.228,1.068 v 1.134 c -0.984,0.026 -1.729,0.389 -2.235,1.088 -0.505,0.698 -0.758,1.65 -0.758,2.854 0,0.483 0.134,1.683 0.403,3.599 0.268,1.916 0.402,3.379 0.402,4.39 0,3.068 -0.58,5.423 -1.741,7.067 -1.16,1.643 -2.966,2.5 -5.418,2.57 v -1.054 c 0.773,-0.053 1.455,-0.24 2.043,-0.561 0.589,-0.32 1.099,-0.806 1.53,-1.456 0.43,-0.633 0.747,-1.451 0.949,-2.453 0.202,-1.002 0.303,-2.206 0.303,-3.612 0,-0.624 -0.119,-1.944 -0.356,-3.962 -0.237,-2.017 -0.356,-3.245 -0.356,-3.684 0,-1.512 0.321,-2.707 0.963,-3.586 0.641,-0.879 1.23,-1.424 1.766,-1.635 v -0.264 c -0.536,-0.193 -1.125,-0.74 -1.766,-1.641 -0.642,-0.901 -0.963,-2.103 -0.963,-3.606 0,-0.668 0.119,-1.874 0.356,-3.619 0.237,-1.744 0.356,-3.104 0.356,-4.08 0,-1.398 -0.112,-2.591 -0.336,-3.579 -0.224,-0.989 -0.547,-1.8 -0.969,-2.433 -0.422,-0.633 -0.929,-1.105 -1.523,-1.417 -0.593,-0.312 -1.259,-0.494 -1.997,-0.547 z m -49.138,0 v 1.055 c -0.738,0.053 -1.406,0.235 -2.004,0.547 -0.598,0.312 -1.105,0.784 -1.523,1.417 -0.417,0.633 -0.738,1.444 -0.962,2.433 -0.224,0.988 -0.336,2.181 -0.336,3.579 0,0.976 0.118,2.336 0.356,4.08 0.237,1.745 0.356,2.951 0.356,3.619 0,1.503 -0.323,2.705 -0.969,3.606 -0.646,0.901 -1.233,1.448 -1.76,1.641 v 0.264 c 0.527,0.211 1.114,0.756 1.76,1.635 0.646,0.879 0.969,2.074 0.969,3.586 0,0.439 -0.119,1.667 -0.356,3.684 -0.238,2.018 -0.356,3.338 -0.356,3.962 0,1.406 0.101,2.61 0.303,3.612 0.202,1.002 0.514,1.82 0.936,2.453 0.439,0.65 0.954,1.136 1.542,1.456 0.589,0.321 1.27,0.508 2.044,0.561 v 1.054 c -2.461,-0.07 -4.269,-0.927 -5.425,-2.57 -1.156,-1.644 -1.734,-3.999 -1.734,-7.067 0,-1.011 0.134,-2.474 0.402,-4.39 0.268,-1.916 0.402,-3.116 0.402,-3.599 0,-1.204 -0.252,-2.156 -0.758,-2.854 -0.505,-0.699 -1.25,-1.062 -2.234,-1.088 v -1.134 c 0.975,-0.017 1.718,-0.373 2.228,-1.068 0.509,-0.694 0.764,-1.656 0.764,-2.887 0,-0.527 -0.134,-1.665 -0.402,-3.414 -0.268,-1.749 -0.402,-3.213 -0.402,-4.391 0,-3.278 0.611,-5.699 1.833,-7.264 1.221,-1.564 2.997,-2.404 5.326,-2.518 z"
       fill-rule="evenodd"
       id="path255" />
    <path
       d="m 858.52663,515.20934 h 6.275 v 44.297 h -6.275 v -1.147 h 3.836 v -42.003 h -3.836 z m -35.507,0 h 6.275 v 1.147 h -3.836 v 42.003 h 3.836 v 1.147 h -6.275 z"
       fill-rule="evenodd"
       id="path257" />
    <text
       font-family="Calibri, Calibri_MSFontService, sans-serif"
       font-weight="400"
       font-size="27px"
       id="text269"
       x="829.7666"
       y="531.19141">âˆ’<tspan
   font-family="'Cambria Math', 'Cambria Math_MSFontService', sans-serif"
   font-size="27px"
   x="843.10004"
   y="531.19141"
   id="tspan259">4</tspan><tspan
   font-family="'Cambria Math', 'Cambria Math_MSFontService', sans-serif"
   font-size="27px"
   x="836.43329"
   y="562.19141"
   id="tspan261">1</tspan><tspan
   font-size="27px"
   x="884.97333"
   y="545.19141"
   id="tspan263">and has</tspan><tspan
   fill="#c00000"
   font-size="27px"
   x="975.13965"
   y="545.19141"
   id="tspan265">1</tspan><tspan
   font-size="27px"
   x="994.63965"
   y="545.19141"
   id="tspan267">dimension.</tspan></text>
    <path
       d="m 803.78637,612.48379 c 0,-6.963 5.644,-12.607 12.607,-12.607 h 9.786 c 6.963,0 12.607,5.644 12.607,12.607 v 10.786 c 0,6.963 -5.644,12.607 -12.607,12.607 h -9.786 c -6.963,0 -12.607,-5.644 -12.607,-12.607 z"
       fill="#7030a0"
       fill-rule="evenodd"
       fill-opacity="0.301961"
       id="path271" />
    <text
       font-family="Calibri, Calibri_MSFontService, sans-serif"
       font-weight="400"
       font-size="27px"
       id="text275"
       x="848.04041"
       y="626.87683">Homogenous linear system i.e. A<tspan
   font-family="'Cambria Math', 'Cambria Math_MSFontService', sans-serif"
   font-size="27px"
   x="1201.6733"
   y="626.87683"
   id="tspan273">ğ‘¥</tspan></text>
    <path
       d="m 1215.8368,609.25029 -3.3091,2.8609 -0.6987,-0.791 2.1093,-1.8326 h -8.042 v -1.2392 h 8.042 l -2.1093,-1.8325 0.6987,-0.7911 3.3091,2.8609 z"
       id="path277" />
    <text
       font-family="Calibri, Calibri_MSFontService, sans-serif"
       font-weight="400"
       font-size="27px"
       id="text279"
       x="1222.6464"
       y="626.87683">= 0</text>
  </g>
</svg>
