<?xml version="1.0" encoding="UTF-8" standalone="no"?>
<svg
   width="1280"
   height="640"
   overflow="hidden"
   version="1.1"
   id="svg323"
   sodipodi:docname="linear_systems-matrix_diagonalisation.svg"
   inkscape:version="1.2 (dc2aedaf03, 2022-05-15)"
   xmlns:inkscape="http://www.inkscape.org/namespaces/inkscape"
   xmlns:sodipodi="http://sodipodi.sourceforge.net/DTD/sodipodi-0.dtd"
   xmlns="http://www.w3.org/2000/svg"
   xmlns:svg="http://www.w3.org/2000/svg">
  <sodipodi:namedview
     id="namedview325"
     pagecolor="#ffffff"
     bordercolor="#000000"
     borderopacity="0.25"
     inkscape:showpageshadow="2"
     inkscape:pageopacity="0.0"
     inkscape:pagecheckerboard="0"
     inkscape:deskcolor="#d1d1d1"
     showgrid="false"
     inkscape:zoom="0.65555556"
     inkscape:cx="388.22034"
     inkscape:cy="360"
     inkscape:window-width="2560"
     inkscape:window-height="1494"
     inkscape:window-x="-11"
     inkscape:window-y="-11"
     inkscape:window-maximized="1"
     inkscape:current-layer="svg323" />
  <defs
     id="defs5">
    <clipPath
       id="clip0">
      <rect
         x="0"
         y="0"
         width="1280"
         height="720"
         id="rect2" />
    </clipPath>
  </defs>
  <g
     clip-path="url(#clip0)"
     id="g321"
     transform="translate(-4.5762713,-30.508474)">
    <rect
       x="0"
       y="0"
       width="1280"
       height="720"
       fill="#ffffff"
       id="rect7" />
    <path
       d="M 610,363.907 C 610,354.017 618.017,346 627.907,346 h 131.186 c 9.89,0 17.907,8.017 17.907,17.907 V 467.093 C 777,476.983 768.983,485 759.093,485 H 627.907 C 618.017,485 610,476.983 610,467.093 Z"
       fill="#e2f0d9"
       fill-rule="evenodd"
       id="path9" />
    <path
       d="m 633.538,356.818 c 1.938,0 3.402,0.425 4.391,1.274 0.99,0.849 1.484,2.081 1.484,3.695 0,0.552 -0.054,1.06 -0.164,1.524 -0.109,0.463 -0.281,0.921 -0.515,1.375 -0.235,0.453 -0.55,0.94 -0.946,1.461 -0.395,0.52 -0.833,1.049 -1.312,1.585 -0.479,0.537 -1.307,1.43 -2.484,2.68 -1.98,2.094 -3.433,3.922 -4.36,5.485 h 5.891 c 0.51,0 0.922,-0.032 1.234,-0.094 0.313,-0.063 0.563,-0.167 0.75,-0.313 0.188,-0.146 0.336,-0.336 0.446,-0.57 0.109,-0.234 0.247,-0.596 0.414,-1.086 h 1.328 l -0.266,4.563 H 626.57 v -0.75 c 0.448,-1.094 1.052,-2.214 1.812,-3.36 0.761,-1.146 1.839,-2.495 3.235,-4.047 1.208,-1.333 2.078,-2.343 2.609,-3.031 0.583,-0.75 1.018,-1.398 1.305,-1.945 0.286,-0.547 0.492,-1.063 0.617,-1.547 0.125,-0.485 0.187,-0.971 0.187,-1.461 0,-0.781 -0.125,-1.471 -0.375,-2.07 -0.25,-0.599 -0.632,-1.071 -1.148,-1.414 -0.516,-0.344 -1.164,-0.516 -1.945,-0.516 -1.948,0 -3.261,1.083 -3.938,3.25 h -1.891 v -3 c 1.261,-0.594 2.441,-1.024 3.54,-1.289 1.098,-0.266 2.085,-0.399 2.96,-0.399 z"
       fill-rule="evenodd"
       id="path11" />
    <text
       fill="#000000"
       fill-opacity="0"
       font-family="Arial, Arial_MSFontService, sans-serif"
       font-size="21.5781px"
       x="626.57001"
       y="375.69901"
       id="text13">2</text>
    <path
       d="m 696.993,358.147 c -0.718,0 -1.32,0.213 -1.804,0.64 -0.485,0.427 -0.875,1.042 -1.172,1.844 -0.297,0.802 -0.508,1.779 -0.633,2.93 -0.125,1.151 -0.187,2.45 -0.187,3.898 0,3.396 0.315,5.888 0.945,7.477 0.63,1.588 1.607,2.382 2.93,2.382 1.26,0 2.195,-0.747 2.804,-2.242 0.61,-1.495 0.914,-3.81 0.914,-6.945 0,-2.396 -0.156,-4.336 -0.468,-5.82 -0.313,-1.485 -0.748,-2.55 -1.305,-3.196 -0.557,-0.646 -1.232,-0.968 -2.024,-0.968 z m 0.079,-1.329 c 2.281,0 3.979,0.881 5.093,2.641 1.115,1.76 1.672,4.422 1.672,7.984 0,3.688 -0.596,6.477 -1.789,8.368 -1.193,1.89 -2.935,2.836 -5.226,2.836 -2.25,0 -3.925,-0.886 -5.024,-2.657 -1.099,-1.771 -1.648,-4.458 -1.648,-8.062 0,-1.917 0.169,-3.573 0.508,-4.969 0.338,-1.396 0.812,-2.549 1.421,-3.461 0.61,-0.911 1.342,-1.586 2.196,-2.023 0.854,-0.438 1.786,-0.657 2.797,-0.657 z"
       fill-rule="evenodd"
       id="path15" />
    <text
       fill="#000000"
       fill-opacity="0"
       font-family="Arial, Arial_MSFontService, sans-serif"
       font-size="21.8281px"
       x="690.15002"
       y="375.918"
       id="text17">0</text>
    <path
       d="m 752.58,358.147 c -0.719,0 -1.32,0.213 -1.805,0.64 -0.484,0.427 -0.875,1.042 -1.171,1.844 -0.297,0.802 -0.508,1.779 -0.633,2.93 -0.125,1.151 -0.188,2.45 -0.188,3.898 0,3.396 0.315,5.888 0.946,7.477 0.63,1.588 1.606,2.382 2.929,2.382 1.261,0 2.196,-0.747 2.805,-2.242 0.609,-1.495 0.914,-3.81 0.914,-6.945 0,-2.396 -0.156,-4.336 -0.469,-5.82 -0.312,-1.485 -0.747,-2.55 -1.304,-3.196 -0.558,-0.646 -1.232,-0.968 -2.024,-0.968 z m 0.078,-1.329 c 2.282,0 3.979,0.881 5.094,2.641 1.115,1.76 1.672,4.422 1.672,7.984 0,3.688 -0.596,6.477 -1.789,8.368 -1.193,1.89 -2.935,2.836 -5.227,2.836 -2.25,0 -3.924,-0.886 -5.023,-2.657 -1.099,-1.771 -1.649,-4.458 -1.649,-8.062 0,-1.917 0.17,-3.573 0.508,-4.969 0.339,-1.396 0.813,-2.549 1.422,-3.461 0.609,-0.911 1.341,-1.586 2.195,-2.023 0.855,-0.438 1.787,-0.657 2.797,-0.657 z"
       fill-rule="evenodd"
       id="path19" />
    <text
       fill="#000000"
       fill-opacity="0"
       font-family="Arial, Arial_MSFontService, sans-serif"
       font-size="21.8281px"
       x="745.73602"
       y="375.918"
       id="text21">0</text>
    <path
       d="m 618.335,407.116 h 12.313 c 0.187,0 0.331,0.089 0.43,0.266 0.098,0.177 0.148,0.458 0.148,0.843 0,0.386 -0.05,0.667 -0.148,0.844 -0.099,0.177 -0.243,0.266 -0.43,0.266 h -12.313 c -0.198,0 -0.346,-0.089 -0.445,-0.266 -0.099,-0.177 -0.148,-0.458 -0.148,-0.844 0,-0.375 0.049,-0.653 0.148,-0.835 0.099,-0.183 0.247,-0.274 0.445,-0.274 z"
       fill-rule="evenodd"
       id="path23" />
    <text
       fill="#000000"
       fill-opacity="0"
       font-family="Arial, Arial_MSFontService, sans-serif"
       font-size="2.21875px"
       x="617.742"
       y="409.05801"
       id="text25">−</text>
    <path
       d="m 642.648,395.632 h 0.859 c -0.062,1 -0.094,2.385 -0.094,4.156 v 13.344 c 0,0.604 0.034,1.06 0.102,1.367 0.068,0.307 0.188,0.557 0.359,0.75 0.172,0.193 0.42,0.344 0.743,0.453 0.323,0.109 0.729,0.193 1.218,0.25 0.49,0.057 1.136,0.096 1.938,0.117 v 1.141 h -11.547 v -1.141 c 1.156,-0.052 1.982,-0.122 2.477,-0.211 0.494,-0.088 0.872,-0.221 1.132,-0.398 0.261,-0.177 0.451,-0.427 0.571,-0.75 0.119,-0.323 0.179,-0.849 0.179,-1.578 V 400.46 c 0,-0.417 -0.073,-0.721 -0.218,-0.914 -0.146,-0.193 -0.36,-0.289 -0.641,-0.289 -0.333,0 -0.807,0.172 -1.422,0.515 -0.614,0.344 -1.375,0.818 -2.281,1.422 l -0.688,-1.203 z"
       fill-rule="evenodd"
       id="path27" />
    <text
       fill="#000000"
       fill-opacity="0"
       font-family="Arial, Arial_MSFontService, sans-serif"
       font-size="21.5781px"
       x="635.33502"
       y="414.513"
       id="text29">1</text>
    <path
       d="m 697.801,389.072 h 0.685 c -0.015,0.411 -0.026,0.78 -0.033,1.106 -0.008,0.326 -0.013,0.642 -0.017,0.949 -0.004,0.307 -0.006,0.61 -0.006,0.91 v 8.535 c 0,0.232 0.008,0.432 0.023,0.601 0.015,0.168 0.039,0.31 0.073,0.426 0.033,0.116 0.078,0.216 0.134,0.298 0.057,0.082 0.122,0.153 0.197,0.213 0.09,0.09 0.21,0.159 0.359,0.208 0.15,0.049 0.341,0.09 0.573,0.124 0.232,0.033 0.511,0.059 0.837,0.078 0.325,0.019 0.717,0.032 1.173,0.039 v 0.978 h -8.905 v -0.978 c 0.441,-0.015 0.816,-0.031 1.123,-0.05 0.307,-0.019 0.569,-0.045 0.786,-0.079 0.217,-0.033 0.391,-0.071 0.522,-0.112 0.131,-0.041 0.245,-0.092 0.343,-0.152 0.104,-0.067 0.194,-0.14 0.269,-0.219 0.075,-0.078 0.135,-0.177 0.18,-0.297 0.045,-0.12 0.08,-0.266 0.106,-0.438 0.027,-0.172 0.04,-0.386 0.04,-0.64 v -8.053 c 0,-0.292 -0.056,-0.497 -0.169,-0.617 -0.112,-0.12 -0.273,-0.18 -0.483,-0.18 -0.232,0 -0.576,0.12 -1.033,0.359 -0.457,0.24 -1.048,0.596 -1.774,1.067 -0.098,-0.172 -0.187,-0.344 -0.27,-0.516 -0.082,-0.172 -0.168,-0.348 -0.258,-0.528 0.928,-0.509 1.847,-1.016 2.757,-1.522 0.91,-0.505 1.832,-1.009 2.768,-1.51 z"
       fill-rule="evenodd"
       id="path31" />
    <text
       fill="#000000"
       fill-opacity="0"
       font-family="Arial, Arial_MSFontService, sans-serif"
       font-size="14.4648px"
       x="692.276"
       y="401.728"
       id="text33">1</text>
    <path
       d="m 696.925,414.4 c 0.779,0 1.443,0.088 1.994,0.264 0.55,0.176 0.997,0.413 1.342,0.713 0.344,0.299 0.593,0.659 0.747,1.078 0.153,0.419 0.23,0.872 0.23,1.359 0,0.292 -0.021,0.563 -0.062,0.814 -0.041,0.251 -0.112,0.498 -0.213,0.741 -0.101,0.244 -0.234,0.489 -0.399,0.736 -0.165,0.247 -0.371,0.509 -0.618,0.786 -0.187,0.24 -0.43,0.517 -0.73,0.831 -0.299,0.314 -0.627,0.651 -0.982,1.011 -0.356,0.359 -0.728,0.733 -1.118,1.123 -0.389,0.389 -0.767,0.775 -1.134,1.157 -0.367,0.381 -0.704,0.752 -1.011,1.111 -0.307,0.36 -0.558,0.689 -0.752,0.989 h 4.155 c 0.352,0 0.633,-0.013 0.842,-0.04 0.21,-0.026 0.384,-0.084 0.523,-0.174 0.138,-0.09 0.256,-0.226 0.353,-0.41 0.098,-0.183 0.21,-0.436 0.337,-0.758 h 1.045 c -0.038,0.532 -0.073,1.067 -0.107,1.606 -0.034,0.539 -0.069,1.075 -0.107,1.606 h -9.512 v -0.584 c 0.18,-0.404 0.389,-0.803 0.629,-1.196 0.24,-0.393 0.509,-0.792 0.809,-1.196 0.299,-0.404 0.64,-0.822 1.022,-1.252 0.381,-0.431 0.804,-0.878 1.269,-1.342 0.703,-0.704 1.276,-1.305 1.718,-1.803 0.442,-0.497 0.79,-0.941 1.044,-1.33 0.255,-0.39 0.429,-0.749 0.523,-1.079 0.093,-0.329 0.14,-0.681 0.14,-1.055 0,-0.382 -0.054,-0.734 -0.163,-1.056 -0.109,-0.322 -0.264,-0.595 -0.466,-0.82 -0.202,-0.224 -0.459,-0.4 -0.769,-0.528 -0.311,-0.127 -0.668,-0.19 -1.073,-0.19 -0.696,0 -1.28,0.189 -1.752,0.567 -0.471,0.378 -0.838,0.926 -1.1,1.645 h -1.472 v -2.19 c 0.959,-0.397 1.84,-0.685 2.645,-0.865 0.805,-0.179 1.529,-0.269 2.173,-0.269 z"
       fill-rule="evenodd"
       id="path35" />
    <text
       fill="#000000"
       fill-opacity="0"
       font-family="Arial, Arial_MSFontService, sans-serif"
       font-size="14.5435px"
       x="691.74799"
       y="427.125"
       id="text37">2</text>
    <path
       d="m 690.387,410.17 h 14 v 2 h -14 z"
       fill-rule="evenodd"
       id="path39" />
    <path
       d="m 753.815,395.632 h 0.859 c -0.063,1 -0.094,2.385 -0.094,4.156 v 13.344 c 0,0.604 0.034,1.06 0.102,1.367 0.067,0.307 0.187,0.557 0.359,0.75 0.172,0.193 0.419,0.344 0.742,0.453 0.323,0.109 0.729,0.193 1.219,0.25 0.49,0.057 1.135,0.096 1.938,0.117 v 1.141 h -11.547 v -1.141 c 1.156,-0.052 1.981,-0.122 2.476,-0.211 0.495,-0.088 0.873,-0.221 1.133,-0.398 0.26,-0.177 0.451,-0.427 0.57,-0.75 0.12,-0.323 0.18,-0.849 0.18,-1.578 V 400.46 c 0,-0.417 -0.073,-0.721 -0.219,-0.914 -0.146,-0.193 -0.359,-0.289 -0.64,-0.289 -0.334,0 -0.808,0.172 -1.422,0.515 -0.615,0.344 -1.375,0.818 -2.281,1.422 l -0.688,-1.203 z"
       fill-rule="evenodd"
       id="path41" />
    <text
       fill="#000000"
       fill-opacity="0"
       font-family="Arial, Arial_MSFontService, sans-serif"
       font-size="21.5781px"
       x="746.50201"
       y="414.513"
       id="text43">1</text>
    <path
       d="m 634.648,445.932 h 0.859 c -0.062,1 -0.094,2.385 -0.094,4.156 v 13.344 c 0,0.604 0.034,1.06 0.102,1.367 0.068,0.307 0.188,0.557 0.359,0.75 0.172,0.193 0.42,0.344 0.743,0.453 0.323,0.109 0.729,0.193 1.218,0.25 0.49,0.057 1.136,0.096 1.938,0.117 v 1.141 h -11.547 v -1.141 c 1.156,-0.052 1.982,-0.122 2.477,-0.211 0.494,-0.088 0.872,-0.221 1.132,-0.398 0.261,-0.177 0.451,-0.427 0.571,-0.75 0.119,-0.323 0.179,-0.849 0.179,-1.578 V 450.76 c 0,-0.417 -0.073,-0.721 -0.218,-0.914 -0.146,-0.193 -0.36,-0.289 -0.641,-0.289 -0.333,0 -0.807,0.172 -1.422,0.515 -0.614,0.344 -1.375,0.818 -2.281,1.422 l -0.688,-1.203 z"
       fill-rule="evenodd"
       id="path45" />
    <text
       fill="#000000"
       fill-opacity="0"
       font-family="Arial, Arial_MSFontService, sans-serif"
       font-size="21.5781px"
       x="627.33502"
       y="464.81299"
       id="text47">1</text>
    <path
       d="m 684.002,443.743 h 12.313 c 0.187,0 0.33,0.088 0.429,0.265 0.099,0.178 0.149,0.459 0.149,0.844 0,0.386 -0.05,0.667 -0.149,0.844 -0.099,0.177 -0.242,0.266 -0.429,0.266 h -12.313 c -0.198,0 -0.346,-0.089 -0.445,-0.266 -0.099,-0.177 -0.149,-0.458 -0.149,-0.844 0,-0.375 0.05,-0.653 0.149,-0.836 0.099,-0.182 0.247,-0.273 0.445,-0.273 z"
       fill-rule="evenodd"
       id="path49" />
    <text
       fill="#000000"
       fill-opacity="0"
       font-family="Arial, Arial_MSFontService, sans-serif"
       font-size="2.21875px"
       x="683.40802"
       y="445.68399"
       id="text51">−</text>
    <path
       d="m 705.801,439.372 h 0.685 c -0.015,0.411 -0.026,0.78 -0.033,1.106 -0.008,0.326 -0.013,0.642 -0.017,0.949 -0.004,0.307 -0.006,0.61 -0.006,0.91 v 8.535 c 0,0.232 0.008,0.432 0.023,0.601 0.015,0.168 0.039,0.31 0.073,0.426 0.033,0.116 0.078,0.216 0.134,0.298 0.057,0.082 0.122,0.153 0.197,0.213 0.09,0.09 0.21,0.159 0.359,0.208 0.15,0.049 0.341,0.09 0.573,0.124 0.232,0.033 0.511,0.059 0.837,0.078 0.325,0.019 0.717,0.032 1.173,0.039 v 0.978 h -8.905 v -0.978 c 0.441,-0.014 0.816,-0.031 1.123,-0.05 0.307,-0.019 0.569,-0.045 0.786,-0.079 0.217,-0.033 0.391,-0.071 0.522,-0.112 0.131,-0.041 0.245,-0.092 0.343,-0.152 0.104,-0.067 0.194,-0.14 0.269,-0.219 0.075,-0.078 0.135,-0.177 0.18,-0.297 0.045,-0.12 0.08,-0.266 0.106,-0.438 0.027,-0.172 0.04,-0.386 0.04,-0.64 v -8.053 c 0,-0.292 -0.056,-0.497 -0.169,-0.617 -0.112,-0.12 -0.273,-0.18 -0.483,-0.18 -0.232,0 -0.576,0.12 -1.033,0.359 -0.457,0.24 -1.048,0.596 -1.774,1.067 -0.098,-0.172 -0.187,-0.344 -0.27,-0.516 -0.082,-0.172 -0.168,-0.348 -0.258,-0.528 0.928,-0.509 1.847,-1.016 2.757,-1.522 0.91,-0.505 1.832,-1.009 2.768,-1.51 z"
       fill-rule="evenodd"
       id="path53" />
    <text
       fill="#000000"
       fill-opacity="0"
       font-family="Arial, Arial_MSFontService, sans-serif"
       font-size="14.4648px"
       x="700.276"
       y="452.02802"
       id="text55">1</text>
    <path
       d="m 696.925,464.7 c 0.779,0 1.443,0.088 1.994,0.264 0.55,0.176 0.997,0.413 1.342,0.713 0.344,0.299 0.593,0.659 0.747,1.078 0.153,0.419 0.23,0.872 0.23,1.359 0,0.292 -0.021,0.563 -0.062,0.814 -0.041,0.251 -0.112,0.498 -0.213,0.741 -0.101,0.244 -0.234,0.489 -0.399,0.736 -0.165,0.247 -0.371,0.509 -0.618,0.786 -0.187,0.24 -0.43,0.517 -0.73,0.831 -0.299,0.314 -0.627,0.651 -0.982,1.011 -0.356,0.359 -0.728,0.733 -1.118,1.123 -0.389,0.389 -0.767,0.775 -1.134,1.157 -0.367,0.381 -0.704,0.752 -1.011,1.111 -0.307,0.36 -0.558,0.689 -0.752,0.989 h 4.155 c 0.352,0 0.633,-0.013 0.842,-0.04 0.21,-0.026 0.384,-0.084 0.523,-0.174 0.138,-0.09 0.256,-0.226 0.353,-0.41 0.098,-0.183 0.21,-0.436 0.337,-0.758 h 1.045 c -0.038,0.532 -0.073,1.067 -0.107,1.606 -0.034,0.539 -0.069,1.075 -0.107,1.606 h -9.512 v -0.584 c 0.18,-0.404 0.389,-0.803 0.629,-1.196 0.24,-0.393 0.509,-0.792 0.809,-1.196 0.299,-0.404 0.64,-0.822 1.022,-1.252 0.381,-0.431 0.804,-0.878 1.269,-1.342 0.703,-0.704 1.276,-1.305 1.718,-1.803 0.442,-0.498 0.79,-0.941 1.044,-1.33 0.255,-0.39 0.429,-0.749 0.523,-1.079 0.093,-0.329 0.14,-0.681 0.14,-1.055 0,-0.382 -0.054,-0.734 -0.163,-1.056 -0.109,-0.322 -0.264,-0.595 -0.466,-0.82 -0.202,-0.224 -0.459,-0.4 -0.769,-0.528 -0.311,-0.127 -0.668,-0.19 -1.073,-0.19 -0.696,0 -1.28,0.189 -1.752,0.567 -0.471,0.378 -0.838,0.926 -1.1,1.645 h -1.472 v -2.19 c 0.959,-0.397 1.84,-0.685 2.645,-0.865 0.805,-0.179 1.529,-0.269 2.173,-0.269 z"
       fill-rule="evenodd"
       id="path57" />
    <text
       fill="#000000"
       fill-opacity="0"
       font-family="Arial, Arial_MSFontService, sans-serif"
       font-size="14.5435px"
       x="691.74799"
       y="477.42499"
       id="text59">2</text>
    <path
       d="m 682.387,460.17 h 30 v 2 h -30 z"
       fill-rule="evenodd"
       id="path61" />
    <path
       d="m 752.58,447.26 c -0.719,0 -1.32,0.213 -1.805,0.64 -0.484,0.428 -0.875,1.042 -1.171,1.844 -0.297,0.802 -0.508,1.779 -0.633,2.93 -0.125,1.151 -0.188,2.45 -0.188,3.898 0,3.396 0.315,5.888 0.946,7.477 0.63,1.588 1.606,2.383 2.929,2.383 1.261,0 2.196,-0.748 2.805,-2.242 0.609,-1.495 0.914,-3.81 0.914,-6.946 0,-2.396 -0.156,-4.336 -0.469,-5.82 -0.312,-1.484 -0.747,-2.55 -1.304,-3.195 -0.558,-0.646 -1.232,-0.969 -2.024,-0.969 z m 0.078,-1.328 c 2.282,0 3.979,0.88 5.094,2.64 1.115,1.761 1.672,4.422 1.672,7.985 0,3.687 -0.596,6.476 -1.789,8.367 -1.193,1.891 -2.935,2.836 -5.227,2.836 -2.25,0 -3.924,-0.886 -5.023,-2.656 -1.099,-1.771 -1.649,-4.459 -1.649,-8.063 0,-1.917 0.17,-3.573 0.508,-4.969 0.339,-1.395 0.813,-2.549 1.422,-3.461 0.609,-0.911 1.341,-1.586 2.195,-2.023 0.855,-0.438 1.787,-0.656 2.797,-0.656 z"
       fill-rule="evenodd"
       id="path63" />
    <text
       fill="#000000"
       fill-opacity="0"
       font-family="Arial, Arial_MSFontService, sans-serif"
       font-size="21.8281px"
       x="745.73602"
       y="465.03101"
       id="text65">0</text>
    <text
       font-family="Calibri, Calibri_MSFontService, sans-serif"
       font-weight="400"
       font-size="43px"
       transform="translate(407.683,95)"
       id="text73">Matrix diagonalisation<tspan
   font-size="37px"
   x="124.738"
   y="56"
   id="tspan67">A = PDP</tspan><tspan
   font-size="25px"
   x="243.73801"
   y="45"
   id="tspan69">-</tspan><tspan
   font-size="25px"
   x="251.405"
   y="45"
   id="tspan71">1</tspan></text>
    <path
       d="M 254,181.202 C 254,172.806 260.806,166 269.202,166 h 149.596 c 8.396,0 15.202,6.806 15.202,15.202 v 87.596 C 434,277.194 427.194,284 418.798,284 H 269.202 C 260.806,284 254,277.194 254,268.798 Z"
       fill="#e2f0d9"
       fill-rule="evenodd"
       id="path75" />
    <path
       d="m 280.376,179.276 -6.109,9.703 v 0.219 h 6.109 v -3.89 c 0,-0.98 0.016,-2.076 0.047,-3.289 0.031,-1.214 0.068,-2.128 0.109,-2.743 z m 0.453,-3.531 h 2.235 v 13.453 h 0.328 c 0.604,0 1.036,-0.044 1.297,-0.133 0.26,-0.088 0.476,-0.244 0.648,-0.468 0.172,-0.224 0.331,-0.592 0.477,-1.102 h 1.187 l -0.187,3.219 h -3.75 v 2.562 c 0,0.698 0.023,1.209 0.07,1.532 0.047,0.322 0.125,0.578 0.234,0.765 0.11,0.188 0.271,0.344 0.485,0.469 0.213,0.125 0.56,0.25 1.039,0.375 v 0.766 h -6.344 v -0.766 c 0.646,-0.167 1.078,-0.352 1.297,-0.555 0.219,-0.203 0.362,-0.492 0.43,-0.867 0.067,-0.375 0.101,-0.948 0.101,-1.719 v -2.562 h -8.687 v -1.172 z"
       fill-rule="evenodd"
       id="path77" />
    <text
       fill="#000000"
       fill-opacity="0"
       font-family="Arial, Arial_MSFontService, sans-serif"
       font-size="21.4375px"
       x="271.689"
       y="194.50301"
       id="text79">4</text>
    <path
       d="m 345.845,176.933 c -0.719,0 -1.32,0.213 -1.805,0.64 -0.484,0.427 -0.875,1.042 -1.172,1.844 -0.297,0.802 -0.508,1.779 -0.633,2.93 -0.125,1.151 -0.187,2.45 -0.187,3.898 0,3.396 0.315,5.888 0.945,7.477 0.631,1.588 1.607,2.382 2.93,2.382 1.26,0 2.195,-0.747 2.805,-2.242 0.609,-1.495 0.914,-3.81 0.914,-6.945 0,-2.396 -0.157,-4.336 -0.469,-5.82 -0.313,-1.485 -0.747,-2.55 -1.305,-3.196 -0.557,-0.646 -1.231,-0.968 -2.023,-0.968 z m 0.078,-1.329 c 2.281,0 3.979,0.881 5.094,2.641 1.114,1.76 1.672,4.422 1.672,7.984 0,3.688 -0.597,6.477 -1.789,8.368 -1.193,1.89 -2.935,2.836 -5.227,2.836 -2.25,0 -3.924,-0.886 -5.023,-2.657 -1.099,-1.771 -1.649,-4.458 -1.649,-8.062 0,-1.917 0.169,-3.573 0.508,-4.969 0.338,-1.396 0.812,-2.549 1.422,-3.461 0.609,-0.911 1.341,-1.586 2.195,-2.023 0.854,-0.438 1.787,-0.657 2.797,-0.657 z"
       fill-rule="evenodd"
       id="path81" />
    <text
       fill="#000000"
       fill-opacity="0"
       font-family="Arial, Arial_MSFontService, sans-serif"
       font-size="21.8281px"
       x="339.00101"
       y="194.70399"
       id="text83">0</text>
    <path
       d="m 403.512,176.933 c -0.719,0 -1.321,0.213 -1.805,0.64 -0.485,0.427 -0.875,1.042 -1.172,1.844 -0.297,0.802 -0.508,1.779 -0.633,2.93 -0.125,1.151 -0.187,2.45 -0.187,3.898 0,3.396 0.315,5.888 0.945,7.477 0.63,1.588 1.607,2.382 2.93,2.382 1.26,0 2.195,-0.747 2.804,-2.242 0.61,-1.495 0.914,-3.81 0.914,-6.945 0,-2.396 -0.156,-4.336 -0.468,-5.82 -0.313,-1.485 -0.748,-2.55 -1.305,-3.196 -0.557,-0.646 -1.232,-0.968 -2.023,-0.968 z m 0.078,-1.329 c 2.281,0 3.979,0.881 5.093,2.641 1.115,1.76 1.672,4.422 1.672,7.984 0,3.688 -0.596,6.477 -1.789,8.368 -1.193,1.89 -2.935,2.836 -5.226,2.836 -2.25,0 -3.925,-0.886 -5.024,-2.657 -1.099,-1.771 -1.648,-4.458 -1.648,-8.062 0,-1.917 0.169,-3.573 0.508,-4.969 0.338,-1.396 0.812,-2.549 1.421,-3.461 0.61,-0.911 1.342,-1.586 2.196,-2.023 0.854,-0.438 1.786,-0.657 2.797,-0.657 z"
       fill-rule="evenodd"
       id="path85" />
    <text
       fill="#000000"
       fill-opacity="0"
       font-family="Arial, Arial_MSFontService, sans-serif"
       font-size="21.8281px"
       x="396.668"
       y="194.70399"
       id="text87">0</text>
    <path
       d="m 288.637,213.118 c 1.937,0 3.401,0.424 4.39,1.273 0.99,0.849 1.485,2.081 1.485,3.696 0,0.552 -0.055,1.059 -0.165,1.523 -0.109,0.464 -0.281,0.922 -0.515,1.375 -0.235,0.453 -0.55,0.94 -0.945,1.461 -0.396,0.521 -0.834,1.049 -1.313,1.586 -0.479,0.536 -1.307,1.43 -2.484,2.68 -1.98,2.093 -3.433,3.921 -4.36,5.484 h 5.891 c 0.51,0 0.922,-0.031 1.234,-0.094 0.313,-0.062 0.563,-0.167 0.75,-0.312 0.188,-0.146 0.336,-0.336 0.446,-0.571 0.109,-0.234 0.247,-0.596 0.414,-1.086 h 1.328 l -0.266,4.563 h -12.859 v -0.75 c 0.448,-1.094 1.052,-2.214 1.812,-3.359 0.761,-1.146 1.839,-2.495 3.235,-4.047 1.208,-1.334 2.078,-2.344 2.609,-3.032 0.583,-0.75 1.018,-1.398 1.305,-1.945 0.286,-0.547 0.492,-1.062 0.617,-1.547 0.125,-0.484 0.187,-0.971 0.187,-1.461 0,-0.781 -0.125,-1.471 -0.375,-2.07 -0.25,-0.599 -0.632,-1.07 -1.148,-1.414 -0.516,-0.344 -1.164,-0.516 -1.945,-0.516 -1.948,0 -3.261,1.084 -3.938,3.25 h -1.89 v -3 c 1.26,-0.593 2.44,-1.023 3.539,-1.289 1.099,-0.265 2.086,-0.398 2.961,-0.398 z m -16.891,0 h 0.859 c -0.062,1 -0.093,2.385 -0.093,4.156 v 13.344 c 0,0.604 0.033,1.06 0.101,1.367 0.068,0.307 0.188,0.557 0.359,0.75 0.172,0.193 0.42,0.344 0.743,0.453 0.323,0.109 0.729,0.193 1.218,0.25 0.49,0.057 1.136,0.096 1.938,0.117 v 1.141 h -11.547 v -1.141 c 1.156,-0.052 1.982,-0.122 2.477,-0.211 0.494,-0.088 0.872,-0.221 1.132,-0.398 0.261,-0.177 0.451,-0.427 0.571,-0.75 0.119,-0.323 0.179,-0.849 0.179,-1.578 v -12.672 c 0,-0.417 -0.073,-0.721 -0.218,-0.914 -0.146,-0.193 -0.36,-0.289 -0.641,-0.289 -0.333,0 -0.807,0.172 -1.422,0.515 -0.614,0.344 -1.375,0.818 -2.281,1.422 l -0.688,-1.203 z"
       fill-rule="evenodd"
       id="path89" />
    <text
       fill="#000000"
       fill-opacity="0"
       font-family="Arial, Arial_MSFontService, sans-serif"
       font-size="21.5781px"
       x="264.43301"
       y="231.99899"
       id="text91">12</text>
    <path
       d="m 330.767,224.602 h 12.312 c 0.188,0 0.331,0.089 0.43,0.266 0.099,0.177 0.148,0.458 0.148,0.844 0,0.385 -0.049,0.666 -0.148,0.843 -0.099,0.177 -0.242,0.266 -0.43,0.266 h -12.312 c -0.198,0 -0.347,-0.089 -0.446,-0.266 -0.099,-0.177 -0.148,-0.458 -0.148,-0.843 0,-0.375 0.049,-0.654 0.148,-0.836 0.099,-0.183 0.248,-0.274 0.446,-0.274 z"
       fill-rule="evenodd"
       id="path93" />
    <text
       fill="#000000"
       fill-opacity="0"
       font-family="Arial, Arial_MSFontService, sans-serif"
       font-size="2.21875px"
       x="330.173"
       y="226.54401"
       id="text95">−</text>
    <path
       d="m 353.97,213.118 c 1.937,0 3.401,0.424 4.39,1.273 0.99,0.849 1.485,2.081 1.485,3.696 0,0.552 -0.055,1.059 -0.164,1.523 -0.11,0.464 -0.281,0.922 -0.516,1.375 -0.234,0.453 -0.549,0.94 -0.945,1.461 -0.396,0.521 -0.833,1.049 -1.313,1.586 -0.479,0.536 -1.307,1.43 -2.484,2.68 -1.979,2.093 -3.432,3.921 -4.359,5.484 h 5.89 c 0.511,0 0.922,-0.031 1.235,-0.094 0.312,-0.062 0.562,-0.167 0.75,-0.312 0.187,-0.146 0.336,-0.336 0.445,-0.571 0.109,-0.234 0.247,-0.596 0.414,-1.086 h 1.328 l -0.266,4.563 h -12.859 v -0.75 c 0.448,-1.094 1.052,-2.214 1.813,-3.359 0.76,-1.146 1.838,-2.495 3.234,-4.047 1.208,-1.334 2.078,-2.344 2.609,-3.032 0.584,-0.75 1.019,-1.398 1.305,-1.945 0.287,-0.547 0.492,-1.062 0.617,-1.547 0.125,-0.484 0.188,-0.971 0.188,-1.461 0,-0.781 -0.125,-1.471 -0.375,-2.07 -0.25,-0.599 -0.633,-1.07 -1.149,-1.414 -0.515,-0.344 -1.164,-0.516 -1.945,-0.516 -1.948,0 -3.26,1.084 -3.938,3.25 h -1.89 v -3 c 1.26,-0.593 2.44,-1.023 3.539,-1.289 1.099,-0.265 2.086,-0.398 2.961,-0.398 z"
       fill-rule="evenodd"
       id="path97" />
    <text
       fill="#000000"
       fill-opacity="0"
       font-family="Arial, Arial_MSFontService, sans-serif"
       font-size="21.5781px"
       x="347.00101"
       y="231.99899"
       id="text99">2</text>
    <path
       d="m 403.512,214.446 c -0.719,0 -1.321,0.213 -1.805,0.641 -0.485,0.427 -0.875,1.041 -1.172,1.843 -0.297,0.802 -0.508,1.779 -0.633,2.93 -0.125,1.151 -0.187,2.45 -0.187,3.898 0,3.396 0.315,5.888 0.945,7.477 0.63,1.589 1.607,2.383 2.93,2.383 1.26,0 2.195,-0.748 2.804,-2.242 0.61,-1.495 0.914,-3.81 0.914,-6.946 0,-2.396 -0.156,-4.336 -0.468,-5.82 -0.313,-1.484 -0.748,-2.55 -1.305,-3.195 -0.557,-0.646 -1.232,-0.969 -2.023,-0.969 z m 0.078,-1.328 c 2.281,0 3.979,0.88 5.093,2.64 1.115,1.761 1.672,4.422 1.672,7.985 0,3.687 -0.596,6.476 -1.789,8.367 -1.193,1.891 -2.935,2.836 -5.226,2.836 -2.25,0 -3.925,-0.886 -5.024,-2.656 -1.099,-1.771 -1.648,-4.459 -1.648,-8.063 0,-1.917 0.169,-3.573 0.508,-4.969 0.338,-1.395 0.812,-2.549 1.421,-3.461 0.61,-0.911 1.342,-1.585 2.196,-2.023 0.854,-0.437 1.786,-0.656 2.797,-0.656 z"
       fill-rule="evenodd"
       id="path101" />
    <text
       fill="#000000"
       fill-opacity="0"
       font-family="Arial, Arial_MSFontService, sans-serif"
       font-size="21.8281px"
       x="396.668"
       y="232.217"
       id="text103">0</text>
    <path
       d="m 264.267,262.115 h 12.312 c 0.188,0 0.331,0.089 0.43,0.266 0.099,0.177 0.148,0.458 0.148,0.844 0,0.385 -0.049,0.667 -0.148,0.844 -0.099,0.177 -0.242,0.265 -0.43,0.265 h -12.312 c -0.198,0 -0.347,-0.088 -0.446,-0.265 -0.099,-0.177 -0.148,-0.459 -0.148,-0.844 0,-0.375 0.049,-0.654 0.148,-0.836 0.099,-0.182 0.248,-0.274 0.446,-0.274 z"
       fill-rule="evenodd"
       id="path105" />
    <text
       fill="#000000"
       fill-opacity="0"
       font-family="Arial, Arial_MSFontService, sans-serif"
       font-size="2.21875px"
       x="263.673"
       y="264.05701"
       id="text107">−</text>
    <path
       d="m 288.064,260.959 c -0.511,0 -1.003,0.058 -1.477,0.172 -0.474,0.115 -0.919,0.281 -1.336,0.5 -0.417,0.219 -0.823,0.495 -1.219,0.828 -0.125,0.115 -0.218,0.235 -0.281,0.36 -0.104,0.198 -0.172,0.442 -0.203,0.734 -0.031,0.292 -0.047,0.781 -0.047,1.469 0,1.989 0.333,3.505 1,4.547 0.667,1.041 1.677,1.562 3.031,1.562 0.782,0 1.438,-0.135 1.969,-0.406 0.531,-0.271 0.961,-0.643 1.289,-1.117 0.328,-0.474 0.563,-1.032 0.703,-1.672 0.141,-0.641 0.211,-1.336 0.211,-2.086 0,-1.542 -0.317,-2.742 -0.953,-3.602 -0.635,-0.859 -1.531,-1.289 -2.687,-1.289 z m 4.015,-10.328 0.641,0.859 v 0.766 c -1.604,0 -3.026,0.344 -4.266,1.031 -1.239,0.688 -2.268,1.698 -3.086,3.032 -0.817,1.333 -1.393,2.916 -1.726,4.75 l 0.156,0.062 c 0.875,-0.625 1.737,-1.083 2.586,-1.375 0.849,-0.292 1.768,-0.437 2.758,-0.437 1.177,0 2.179,0.257 3.008,0.773 0.828,0.516 1.45,1.24 1.867,2.172 0.416,0.932 0.625,2.023 0.625,3.273 0,1.355 -0.261,2.55 -0.782,3.586 -0.52,1.037 -1.325,1.852 -2.414,2.446 -1.088,0.593 -2.429,0.89 -4.023,0.89 -2.281,0 -4.003,-0.708 -5.164,-2.125 -1.162,-1.416 -1.742,-3.505 -1.742,-6.265 0,-1.855 0.291,-3.589 0.875,-5.204 0.583,-1.614 1.411,-3.023 2.484,-4.226 1.073,-1.203 2.318,-2.151 3.734,-2.844 1.417,-0.693 2.907,-1.081 4.469,-1.164 z"
       fill-rule="evenodd"
       id="path109" />
    <text
       fill="#000000"
       fill-opacity="0"
       font-family="Arial, Arial_MSFontService, sans-serif"
       font-size="21.8281px"
       x="280.517"
       y="269.73099"
       id="text111">6</text>
    <path
       d="m 345.907,250.631 c 1.177,0 2.209,0.182 3.094,0.547 0.886,0.365 1.563,0.888 2.031,1.57 0.469,0.683 0.703,1.498 0.703,2.446 0,0.885 -0.177,1.664 -0.531,2.336 -0.354,0.671 -0.851,1.257 -1.492,1.757 -0.641,0.5 -1.471,0.99 -2.492,1.469 v 0.141 c 0.635,0.114 1.247,0.31 1.836,0.586 0.588,0.276 1.112,0.632 1.57,1.07 0.458,0.437 0.826,0.961 1.102,1.57 0.276,0.61 0.414,1.305 0.414,2.086 0,1.209 -0.263,2.281 -0.789,3.219 -0.526,0.937 -1.331,1.677 -2.414,2.219 -1.084,0.541 -2.401,0.812 -3.954,0.812 -0.895,0 -1.861,-0.101 -2.898,-0.304 -1.036,-0.204 -1.987,-0.472 -2.852,-0.805 v -3.313 h 1.875 c 0.365,1.084 0.847,1.87 1.446,2.36 0.599,0.489 1.414,0.734 2.445,0.734 1.354,0 2.378,-0.37 3.07,-1.109 0.693,-0.74 1.039,-1.834 1.039,-3.282 0,-1.52 -0.458,-2.682 -1.375,-3.484 -0.916,-0.802 -2.26,-1.203 -4.031,-1.203 h -1.406 v -1.375 c 1.406,-0.083 2.591,-0.354 3.555,-0.813 0.963,-0.458 1.679,-1.046 2.148,-1.765 0.469,-0.719 0.703,-1.526 0.703,-2.422 0,-1.156 -0.307,-2.047 -0.922,-2.672 -0.614,-0.625 -1.51,-0.937 -2.687,-0.937 -0.979,0 -1.776,0.265 -2.391,0.796 -0.614,0.532 -1.067,1.344 -1.359,2.438 h -1.875 v -2.969 c 1.208,-0.573 2.338,-1 3.39,-1.281 1.053,-0.281 2.068,-0.422 3.047,-0.422 z"
       fill-rule="evenodd"
       id="path113" />
    <text
       fill="#000000"
       fill-opacity="0"
       font-family="Arial, Arial_MSFontService, sans-serif"
       font-size="21.8281px"
       x="339.23499"
       y="269.73099"
       id="text115">3</text>
    <path
       d="m 404.543,254.303 -6.11,9.703 v 0.219 h 6.11 v -3.891 c 0,-0.979 0.015,-2.075 0.047,-3.289 0.031,-1.213 0.067,-2.127 0.109,-2.742 z m 0.453,-3.531 h 2.234 v 13.453 h 0.328 c 0.605,0 1.037,-0.044 1.297,-0.133 0.261,-0.088 0.477,-0.245 0.649,-0.469 0.172,-0.224 0.33,-0.591 0.476,-1.101 h 1.188 l -0.188,3.218 h -3.75 v 2.563 c 0,0.698 0.024,1.208 0.071,1.531 0.046,0.323 0.125,0.578 0.234,0.766 0.109,0.187 0.271,0.344 0.484,0.469 0.214,0.125 0.56,0.25 1.039,0.375 v 0.765 h -6.343 v -0.765 c 0.645,-0.167 1.078,-0.352 1.297,-0.555 0.218,-0.203 0.361,-0.492 0.429,-0.867 0.068,-0.375 0.102,-0.948 0.102,-1.719 v -2.563 h -8.688 v -1.171 z"
       fill-rule="evenodd"
       id="path117" />
    <text
       fill="#000000"
       fill-opacity="0"
       font-family="Arial, Arial_MSFontService, sans-serif"
       font-size="21.4375px"
       x="395.85501"
       y="269.53"
       id="text119">4</text>
    <text
       font-family="Calibri, Calibri_MSFontService, sans-serif"
       font-weight="400"
       font-size="43px"
       transform="translate(182.52,236)"
       id="text123">A =<tspan
   font-size="43px"
   x="0"
   y="197"
   id="tspan121">A =</tspan></text>
    <path
       d="M 439,370.202 C 439,361.806 445.806,355 454.202,355 h 121.596 c 8.396,0 15.202,6.806 15.202,15.202 v 87.596 C 591,466.194 584.194,473 575.798,473 H 454.202 C 445.806,473 439,466.194 439,457.798 Z"
       fill="#e2f0d9"
       fill-rule="evenodd"
       id="path125" />
    <path
       d="m 460.775,369.815 -6.11,9.703 v 0.219 h 6.11 v -3.891 c 0,-0.979 0.015,-2.075 0.047,-3.289 0.031,-1.213 0.067,-2.127 0.109,-2.742 z m 0.453,-3.531 h 2.234 v 13.453 h 0.328 c 0.604,0 1.037,-0.044 1.297,-0.133 0.261,-0.089 0.477,-0.245 0.649,-0.469 0.171,-0.224 0.33,-0.591 0.476,-1.101 h 1.188 l -0.188,3.218 h -3.75 v 2.563 c 0,0.698 0.024,1.208 0.07,1.531 0.047,0.323 0.125,0.578 0.235,0.766 0.109,0.187 0.271,0.344 0.484,0.469 0.214,0.125 0.56,0.25 1.039,0.375 v 0.765 h -6.343 v -0.765 c 0.645,-0.167 1.078,-0.352 1.296,-0.555 0.219,-0.203 0.362,-0.492 0.43,-0.867 0.068,-0.375 0.102,-0.948 0.102,-1.719 v -2.563 h -8.688 v -1.171 z"
       fill-rule="evenodd"
       id="path127" />
    <text
       fill="#000000"
       fill-opacity="0"
       font-family="Arial, Arial_MSFontService, sans-serif"
       font-size="21.4375px"
       x="452.08701"
       y="385.04099"
       id="text129">4</text>
    <path
       d="m 509.41,367.471 c -0.719,0 -1.32,0.214 -1.805,0.641 -0.484,0.427 -0.875,1.041 -1.172,1.844 -0.296,0.802 -0.507,1.778 -0.632,2.929 -0.125,1.151 -0.188,2.451 -0.188,3.899 0,3.396 0.315,5.888 0.945,7.476 0.631,1.589 1.607,2.383 2.93,2.383 1.261,0 2.195,-0.747 2.805,-2.242 0.609,-1.495 0.914,-3.81 0.914,-6.945 0,-2.396 -0.156,-4.336 -0.469,-5.821 -0.312,-1.484 -0.747,-2.549 -1.305,-3.195 -0.557,-0.646 -1.231,-0.969 -2.023,-0.969 z m 0.078,-1.328 c 2.281,0 3.979,0.88 5.094,2.641 1.114,1.76 1.672,4.422 1.672,7.984 0,3.688 -0.597,6.477 -1.789,8.367 -1.193,1.891 -2.935,2.836 -5.227,2.836 -2.25,0 -3.924,-0.885 -5.023,-2.656 -1.099,-1.771 -1.649,-4.458 -1.649,-8.063 0,-1.916 0.17,-3.572 0.508,-4.968 0.339,-1.396 0.813,-2.55 1.422,-3.461 0.609,-0.912 1.341,-1.586 2.195,-2.024 0.854,-0.437 1.787,-0.656 2.797,-0.656 z"
       fill-rule="evenodd"
       id="path131" />
    <text
       fill="#000000"
       fill-opacity="0"
       font-family="Arial, Arial_MSFontService, sans-serif"
       font-size="21.8281px"
       x="502.56601"
       y="385.24301"
       id="text133">0</text>
    <path
       d="m 567.077,367.471 c -0.719,0 -1.321,0.214 -1.805,0.641 -0.484,0.427 -0.875,1.041 -1.172,1.844 -0.297,0.802 -0.508,1.778 -0.633,2.929 -0.125,1.151 -0.187,2.451 -0.187,3.899 0,3.396 0.315,5.888 0.945,7.476 0.63,1.589 1.607,2.383 2.93,2.383 1.26,0 2.195,-0.747 2.805,-2.242 0.609,-1.495 0.914,-3.81 0.914,-6.945 0,-2.396 -0.157,-4.336 -0.469,-5.821 -0.313,-1.484 -0.748,-2.549 -1.305,-3.195 -0.557,-0.646 -1.232,-0.969 -2.023,-0.969 z m 0.078,-1.328 c 2.281,0 3.979,0.88 5.094,2.641 1.114,1.76 1.671,4.422 1.671,7.984 0,3.688 -0.596,6.477 -1.789,8.367 -1.192,1.891 -2.934,2.836 -5.226,2.836 -2.25,0 -3.925,-0.885 -5.024,-2.656 -1.099,-1.771 -1.648,-4.458 -1.648,-8.063 0,-1.916 0.169,-3.572 0.508,-4.968 0.338,-1.396 0.812,-2.55 1.422,-3.461 0.609,-0.912 1.341,-1.586 2.195,-2.024 0.854,-0.437 1.786,-0.656 2.797,-0.656 z"
       fill-rule="evenodd"
       id="path135" />
    <text
       fill="#000000"
       fill-opacity="0"
       font-family="Arial, Arial_MSFontService, sans-serif"
       font-size="21.8281px"
       x="560.23297"
       y="385.24301"
       id="text137">0</text>
    <path
       d="m 459.743,404.984 c -0.718,0 -1.32,0.214 -1.804,0.641 -0.485,0.427 -0.875,1.042 -1.172,1.844 -0.297,0.802 -0.508,1.779 -0.633,2.93 -0.125,1.151 -0.187,2.45 -0.187,3.898 0,3.396 0.315,5.888 0.945,7.477 0.63,1.588 1.607,2.382 2.93,2.382 1.26,0 2.195,-0.747 2.804,-2.242 0.61,-1.495 0.914,-3.81 0.914,-6.945 0,-2.396 -0.156,-4.336 -0.468,-5.82 -0.313,-1.485 -0.748,-2.55 -1.305,-3.196 -0.557,-0.646 -1.232,-0.969 -2.024,-0.969 z m 0.079,-1.328 c 2.281,0 3.979,0.881 5.093,2.641 1.115,1.76 1.672,4.422 1.672,7.984 0,3.688 -0.596,6.477 -1.789,8.368 -1.193,1.89 -2.935,2.835 -5.226,2.835 -2.25,0 -3.925,-0.885 -5.024,-2.656 -1.099,-1.771 -1.648,-4.458 -1.648,-8.062 0,-1.917 0.169,-3.573 0.507,-4.969 0.339,-1.396 0.813,-2.549 1.422,-3.461 0.61,-0.911 1.341,-1.586 2.196,-2.023 0.854,-0.438 1.786,-0.657 2.797,-0.657 z"
       fill-rule="evenodd"
       id="path139" />
    <text
       fill="#000000"
       fill-opacity="0"
       font-family="Arial, Arial_MSFontService, sans-serif"
       font-size="21.8281px"
       x="452.89999"
       y="422.75601"
       id="text141">0</text>
    <path
       d="m 510.441,407.328 -6.109,9.703 v 0.219 h 6.109 v -3.891 c 0,-0.979 0.016,-2.075 0.047,-3.289 0.031,-1.213 0.068,-2.127 0.11,-2.742 z m 0.453,-3.531 h 2.235 v 13.453 h 0.328 c 0.604,0 1.036,-0.044 1.297,-0.133 0.26,-0.088 0.476,-0.244 0.648,-0.468 0.172,-0.224 0.331,-0.592 0.477,-1.102 h 1.187 l -0.187,3.219 h -3.75 v 2.562 c 0,0.698 0.023,1.209 0.07,1.531 0.047,0.323 0.125,0.579 0.234,0.766 0.11,0.188 0.271,0.344 0.485,0.469 0.213,0.125 0.56,0.25 1.039,0.375 v 0.765 h -6.344 v -0.765 c 0.646,-0.167 1.078,-0.352 1.297,-0.555 0.219,-0.203 0.362,-0.492 0.43,-0.867 0.067,-0.375 0.101,-0.948 0.101,-1.719 v -2.562 h -8.687 v -1.172 z"
       fill-rule="evenodd"
       id="path143" />
    <text
       fill="#000000"
       fill-opacity="0"
       font-family="Arial, Arial_MSFontService, sans-serif"
       font-size="21.4375px"
       x="501.754"
       y="422.55499"
       id="text145">4</text>
    <path
       d="m 567.077,404.984 c -0.719,0 -1.321,0.214 -1.805,0.641 -0.484,0.427 -0.875,1.042 -1.172,1.844 -0.297,0.802 -0.508,1.779 -0.633,2.93 -0.125,1.151 -0.187,2.45 -0.187,3.898 0,3.396 0.315,5.888 0.945,7.477 0.63,1.588 1.607,2.382 2.93,2.382 1.26,0 2.195,-0.747 2.805,-2.242 0.609,-1.495 0.914,-3.81 0.914,-6.945 0,-2.396 -0.157,-4.336 -0.469,-5.82 -0.313,-1.485 -0.748,-2.55 -1.305,-3.196 -0.557,-0.646 -1.232,-0.969 -2.023,-0.969 z m 0.078,-1.328 c 2.281,0 3.979,0.881 5.094,2.641 1.114,1.76 1.671,4.422 1.671,7.984 0,3.688 -0.596,6.477 -1.789,8.368 -1.192,1.89 -2.934,2.835 -5.226,2.835 -2.25,0 -3.925,-0.885 -5.024,-2.656 -1.099,-1.771 -1.648,-4.458 -1.648,-8.062 0,-1.917 0.169,-3.573 0.508,-4.969 0.338,-1.396 0.812,-2.549 1.422,-3.461 0.609,-0.911 1.341,-1.586 2.195,-2.023 0.854,-0.438 1.786,-0.657 2.797,-0.657 z"
       fill-rule="evenodd"
       id="path147" />
    <text
       fill="#000000"
       fill-opacity="0"
       font-family="Arial, Arial_MSFontService, sans-serif"
       font-size="21.8281px"
       x="560.23297"
       y="422.75601"
       id="text149">0</text>
    <path
       d="m 459.743,442.498 c -0.718,0 -1.32,0.213 -1.804,0.64 -0.485,0.428 -0.875,1.042 -1.172,1.844 -0.297,0.802 -0.508,1.779 -0.633,2.93 -0.125,1.151 -0.187,2.45 -0.187,3.898 0,3.396 0.315,5.888 0.945,7.477 0.63,1.588 1.607,2.383 2.93,2.383 1.26,0 2.195,-0.748 2.804,-2.242 0.61,-1.495 0.914,-3.81 0.914,-6.946 0,-2.396 -0.156,-4.336 -0.468,-5.82 -0.313,-1.484 -0.748,-2.55 -1.305,-3.195 -0.557,-0.646 -1.232,-0.969 -2.024,-0.969 z m 0.079,-1.328 c 2.281,0 3.979,0.88 5.093,2.64 1.115,1.761 1.672,4.422 1.672,7.985 0,3.687 -0.596,6.476 -1.789,8.367 -1.193,1.891 -2.935,2.836 -5.226,2.836 -2.25,0 -3.925,-0.886 -5.024,-2.656 -1.099,-1.771 -1.648,-4.459 -1.648,-8.063 0,-1.917 0.169,-3.573 0.507,-4.969 0.339,-1.396 0.813,-2.549 1.422,-3.461 0.61,-0.911 1.341,-1.586 2.196,-2.023 0.854,-0.438 1.786,-0.656 2.797,-0.656 z"
       fill-rule="evenodd"
       id="path151" />
    <text
       fill="#000000"
       fill-opacity="0"
       font-family="Arial, Arial_MSFontService, sans-serif"
       font-size="21.8281px"
       x="452.89999"
       y="460.26901"
       id="text153">0</text>
    <path
       d="m 509.41,442.498 c -0.719,0 -1.32,0.213 -1.805,0.64 -0.484,0.428 -0.875,1.042 -1.172,1.844 -0.296,0.802 -0.507,1.779 -0.632,2.93 -0.125,1.151 -0.188,2.45 -0.188,3.898 0,3.396 0.315,5.888 0.945,7.477 0.631,1.588 1.607,2.383 2.93,2.383 1.261,0 2.195,-0.748 2.805,-2.242 0.609,-1.495 0.914,-3.81 0.914,-6.946 0,-2.396 -0.156,-4.336 -0.469,-5.82 -0.312,-1.484 -0.747,-2.55 -1.305,-3.195 -0.557,-0.646 -1.231,-0.969 -2.023,-0.969 z m 0.078,-1.328 c 2.281,0 3.979,0.88 5.094,2.64 1.114,1.761 1.672,4.422 1.672,7.985 0,3.687 -0.597,6.476 -1.789,8.367 -1.193,1.891 -2.935,2.836 -5.227,2.836 -2.25,0 -3.924,-0.886 -5.023,-2.656 -1.099,-1.771 -1.649,-4.459 -1.649,-8.063 0,-1.917 0.17,-3.573 0.508,-4.969 0.339,-1.396 0.813,-2.549 1.422,-3.461 0.609,-0.911 1.341,-1.586 2.195,-2.023 0.854,-0.438 1.787,-0.656 2.797,-0.656 z"
       fill-rule="evenodd"
       id="path155" />
    <text
       fill="#000000"
       fill-opacity="0"
       font-family="Arial, Arial_MSFontService, sans-serif"
       font-size="21.8281px"
       x="502.56601"
       y="460.26901"
       id="text157">0</text>
    <path
       d="m 551.999,452.654 h 12.312 c 0.188,0 0.331,0.089 0.43,0.266 0.099,0.177 0.148,0.458 0.148,0.843 0,0.386 -0.049,0.667 -0.148,0.844 -0.099,0.177 -0.242,0.266 -0.43,0.266 h -12.312 c -0.198,0 -0.347,-0.089 -0.446,-0.266 -0.099,-0.177 -0.148,-0.458 -0.148,-0.844 0,-0.375 0.049,-0.653 0.148,-0.835 0.099,-0.183 0.248,-0.274 0.446,-0.274 z"
       fill-rule="evenodd"
       id="path159" />
    <text
       fill="#000000"
       fill-opacity="0"
       font-family="Arial, Arial_MSFontService, sans-serif"
       font-size="2.21875px"
       x="551.40503"
       y="454.595"
       id="text161">−</text>
    <path
       d="m 575.202,441.17 c 1.937,0 3.401,0.424 4.39,1.273 0.99,0.849 1.485,2.081 1.485,3.695 0,0.553 -0.055,1.06 -0.164,1.524 -0.11,0.463 -0.282,0.922 -0.516,1.375 -0.234,0.453 -0.549,0.94 -0.945,1.461 -0.396,0.521 -0.834,1.049 -1.313,1.586 -0.479,0.536 -1.307,1.429 -2.484,2.679 -1.979,2.094 -3.432,3.922 -4.36,5.485 h 5.891 c 0.511,0 0.922,-0.031 1.234,-0.094 0.313,-0.062 0.563,-0.167 0.75,-0.312 0.188,-0.146 0.336,-0.336 0.446,-0.571 0.109,-0.234 0.247,-0.596 0.414,-1.086 h 1.328 l -0.266,4.563 h -12.859 v -0.75 c 0.448,-1.094 1.052,-2.214 1.812,-3.36 0.761,-1.145 1.839,-2.494 3.235,-4.046 1.208,-1.334 2.078,-2.344 2.609,-3.032 0.584,-0.75 1.018,-1.398 1.305,-1.945 0.286,-0.547 0.492,-1.062 0.617,-1.547 0.125,-0.484 0.188,-0.971 0.188,-1.461 0,-0.781 -0.125,-1.471 -0.375,-2.07 -0.25,-0.599 -0.633,-1.07 -1.149,-1.414 -0.515,-0.344 -1.164,-0.516 -1.945,-0.516 -1.948,0 -3.261,1.084 -3.938,3.25 h -1.89 v -3 c 1.26,-0.594 2.44,-1.023 3.539,-1.289 1.099,-0.265 2.086,-0.398 2.961,-0.398 z"
       fill-rule="evenodd"
       id="path163" />
    <text
       fill="#000000"
       fill-opacity="0"
       font-family="Arial, Arial_MSFontService, sans-serif"
       font-size="21.5781px"
       x="568.23297"
       y="460.05099"
       id="text165">2</text>
    <text
       font-family="Calibri, Calibri_MSFontService, sans-serif"
       font-weight="400"
       font-size="32px"
       transform="translate(505.476,339)"
       id="text167">D</text>
    <path
       d="M 254,364.779 C 254,354.96 261.96,347 271.779,347 H 402.221 C 412.04,347 420,354.96 420,364.779 V 467.221 C 420,477.04 412.04,485 402.221,485 H 271.779 C 261.96,485 254,477.04 254,467.221 Z"
       fill="#e2f0d9"
       fill-rule="evenodd"
       id="path169" />
    <path
       d="m 283.781,359.354 h 0.685 c -0.015,0.412 -0.026,0.78 -0.033,1.106 -0.008,0.326 -0.013,0.642 -0.017,0.949 -0.004,0.307 -0.006,0.61 -0.006,0.91 v 8.535 c 0,0.232 0.008,0.432 0.023,0.601 0.015,0.168 0.039,0.31 0.073,0.427 0.033,0.116 0.078,0.215 0.135,0.297 0.056,0.083 0.121,0.154 0.196,0.214 0.09,0.089 0.21,0.159 0.359,0.207 0.15,0.049 0.341,0.09 0.573,0.124 0.232,0.034 0.511,0.06 0.837,0.078 0.326,0.019 0.717,0.032 1.173,0.04 v 0.977 h -8.905 v -0.977 c 0.441,-0.015 0.816,-0.032 1.123,-0.051 0.307,-0.019 0.569,-0.045 0.786,-0.078 0.217,-0.034 0.391,-0.072 0.522,-0.113 0.131,-0.041 0.245,-0.091 0.343,-0.151 0.104,-0.068 0.194,-0.141 0.269,-0.219 0.075,-0.079 0.135,-0.178 0.18,-0.298 0.045,-0.12 0.08,-0.266 0.107,-0.438 0.026,-0.172 0.039,-0.386 0.039,-0.64 v -8.052 c 0,-0.292 -0.056,-0.498 -0.169,-0.618 -0.112,-0.12 -0.273,-0.18 -0.483,-0.18 -0.232,0 -0.576,0.12 -1.033,0.36 -0.456,0.239 -1.048,0.595 -1.774,1.067 -0.097,-0.173 -0.187,-0.345 -0.27,-0.517 -0.082,-0.172 -0.168,-0.348 -0.258,-0.528 0.928,-0.509 1.847,-1.016 2.757,-1.522 0.91,-0.505 1.833,-1.008 2.768,-1.51 z"
       fill-rule="evenodd"
       id="path171" />
    <text
       fill="#000000"
       fill-opacity="0"
       font-family="Arial, Arial_MSFontService, sans-serif"
       font-size="14.4648px"
       x="278.25601"
       y="372.01099"
       id="text173">1</text>
    <path
       d="m 282.905,384.682 c 0.779,0 1.444,0.088 1.994,0.264 0.55,0.176 0.997,0.414 1.342,0.713 0.344,0.3 0.593,0.659 0.747,1.078 0.153,0.419 0.23,0.872 0.23,1.359 0,0.292 -0.021,0.563 -0.062,0.814 -0.041,0.251 -0.112,0.498 -0.213,0.741 -0.101,0.244 -0.234,0.489 -0.399,0.736 -0.165,0.247 -0.371,0.509 -0.618,0.786 -0.187,0.24 -0.43,0.517 -0.73,0.831 -0.299,0.315 -0.627,0.652 -0.982,1.011 -0.356,0.359 -0.728,0.734 -1.118,1.123 -0.389,0.389 -0.767,0.775 -1.134,1.157 -0.367,0.382 -0.704,0.752 -1.011,1.112 -0.307,0.359 -0.557,0.688 -0.752,0.988 h 4.155 c 0.352,0 0.633,-0.013 0.842,-0.039 0.21,-0.027 0.384,-0.085 0.523,-0.174 0.138,-0.09 0.256,-0.227 0.353,-0.41 0.098,-0.184 0.21,-0.437 0.337,-0.758 h 1.045 c -0.038,0.531 -0.073,1.066 -0.107,1.606 -0.034,0.539 -0.069,1.074 -0.107,1.605 h -9.512 v -0.584 c 0.18,-0.404 0.389,-0.802 0.629,-1.196 0.24,-0.393 0.509,-0.791 0.809,-1.196 0.299,-0.404 0.64,-0.821 1.022,-1.252 0.381,-0.43 0.804,-0.878 1.269,-1.342 0.703,-0.704 1.276,-1.304 1.718,-1.802 0.442,-0.498 0.79,-0.942 1.044,-1.331 0.255,-0.389 0.429,-0.749 0.523,-1.078 0.093,-0.33 0.14,-0.682 0.14,-1.056 0,-0.382 -0.054,-0.734 -0.163,-1.056 -0.108,-0.322 -0.264,-0.595 -0.466,-0.819 -0.202,-0.225 -0.459,-0.401 -0.769,-0.528 -0.311,-0.128 -0.668,-0.191 -1.073,-0.191 -0.696,0 -1.28,0.189 -1.752,0.567 -0.471,0.378 -0.838,0.926 -1.1,1.645 h -1.471 v -2.19 c 0.958,-0.397 1.839,-0.685 2.644,-0.864 0.805,-0.18 1.53,-0.27 2.173,-0.27 z"
       fill-rule="evenodd"
       id="path175" />
    <text
       fill="#000000"
       fill-opacity="0"
       font-family="Arial, Arial_MSFontService, sans-serif"
       font-size="14.5435px"
       x="277.728"
       y="397.40799"
       id="text177">2</text>
    <path
       d="m 276.121,380.085 h 14 v 2 h -14 z"
       fill-rule="evenodd"
       id="path179" />
    <path
       d="m 332.647,367.242 c -0.719,0 -1.32,0.214 -1.805,0.641 -0.484,0.427 -0.875,1.041 -1.172,1.844 -0.297,0.802 -0.507,1.778 -0.632,2.929 -0.125,1.151 -0.188,2.451 -0.188,3.899 0,3.395 0.315,5.888 0.945,7.476 0.631,1.589 1.607,2.383 2.93,2.383 1.26,0 2.195,-0.747 2.805,-2.242 0.609,-1.495 0.914,-3.81 0.914,-6.945 0,-2.396 -0.156,-4.336 -0.469,-5.821 -0.312,-1.484 -0.747,-2.549 -1.305,-3.195 -0.557,-0.646 -1.231,-0.969 -2.023,-0.969 z m 0.078,-1.328 c 2.281,0 3.979,0.88 5.094,2.641 1.114,1.76 1.672,4.422 1.672,7.984 0,3.688 -0.597,6.477 -1.789,8.367 -1.193,1.891 -2.935,2.836 -5.227,2.836 -2.25,0 -3.924,-0.885 -5.023,-2.656 -1.099,-1.771 -1.649,-4.458 -1.649,-8.063 0,-1.916 0.169,-3.573 0.508,-4.968 0.338,-1.396 0.812,-2.55 1.422,-3.461 0.609,-0.912 1.341,-1.586 2.195,-2.024 0.854,-0.437 1.787,-0.656 2.797,-0.656 z"
       fill-rule="evenodd"
       id="path181" />
    <text
       fill="#000000"
       fill-opacity="0"
       font-family="Arial, Arial_MSFontService, sans-serif"
       font-size="21.8281px"
       x="325.80301"
       y="385.01401"
       id="text183">0</text>
    <path
       d="m 390.314,367.242 c -0.719,0 -1.321,0.214 -1.805,0.641 -0.485,0.427 -0.875,1.041 -1.172,1.844 -0.297,0.802 -0.508,1.778 -0.633,2.929 -0.125,1.151 -0.187,2.451 -0.187,3.899 0,3.395 0.315,5.888 0.945,7.476 0.63,1.589 1.607,2.383 2.93,2.383 1.26,0 2.195,-0.747 2.804,-2.242 0.61,-1.495 0.914,-3.81 0.914,-6.945 0,-2.396 -0.156,-4.336 -0.468,-5.821 -0.313,-1.484 -0.748,-2.549 -1.305,-3.195 -0.557,-0.646 -1.232,-0.969 -2.023,-0.969 z m 0.078,-1.328 c 2.281,0 3.979,0.88 5.093,2.641 1.115,1.76 1.672,4.422 1.672,7.984 0,3.688 -0.596,6.477 -1.789,8.367 -1.192,1.891 -2.935,2.836 -5.226,2.836 -2.25,0 -3.925,-0.885 -5.024,-2.656 -1.099,-1.771 -1.648,-4.458 -1.648,-8.063 0,-1.916 0.169,-3.573 0.508,-4.968 0.338,-1.396 0.812,-2.55 1.421,-3.461 0.61,-0.912 1.342,-1.586 2.196,-2.024 0.854,-0.437 1.786,-0.656 2.797,-0.656 z"
       fill-rule="evenodd"
       id="path185" />
    <text
       fill="#000000"
       fill-opacity="0"
       font-family="Arial, Arial_MSFontService, sans-serif"
       font-size="21.8281px"
       x="383.47"
       y="385.01401"
       id="text187">0</text>
    <path
       d="m 284.215,409.427 h 0.859 c -0.063,1 -0.094,2.386 -0.094,4.157 v 13.343 c 0,0.604 0.034,1.06 0.102,1.368 0.068,0.307 0.187,0.557 0.359,0.75 0.172,0.192 0.419,0.343 0.742,0.453 0.323,0.109 0.73,0.192 1.219,0.25 0.49,0.057 1.136,0.096 1.938,0.117 v 1.14 h -11.547 v -1.14 c 1.156,-0.052 1.982,-0.123 2.476,-0.211 0.495,-0.089 0.873,-0.221 1.133,-0.399 0.261,-0.177 0.451,-0.427 0.57,-0.75 0.12,-0.322 0.18,-0.849 0.18,-1.578 v -12.672 c 0,-0.416 -0.073,-0.721 -0.219,-0.914 -0.145,-0.192 -0.359,-0.289 -0.64,-0.289 -0.334,0 -0.808,0.172 -1.422,0.516 -0.615,0.344 -1.375,0.818 -2.281,1.422 l -0.688,-1.203 z"
       fill-rule="evenodd"
       id="path189" />
    <text
       fill="#000000"
       fill-opacity="0"
       font-family="Arial, Arial_MSFontService, sans-serif"
       font-size="21.5781px"
       x="276.90201"
       y="428.30801"
       id="text191">1</text>
    <path
       d="m 332.647,410.755 c -0.719,0 -1.32,0.214 -1.805,0.641 -0.484,0.427 -0.875,1.042 -1.172,1.844 -0.297,0.802 -0.507,1.778 -0.632,2.93 -0.125,1.151 -0.188,2.45 -0.188,3.898 0,3.396 0.315,5.888 0.945,7.477 0.631,1.588 1.607,2.382 2.93,2.382 1.26,0 2.195,-0.747 2.805,-2.242 0.609,-1.495 0.914,-3.81 0.914,-6.945 0,-2.396 -0.156,-4.336 -0.469,-5.82 -0.312,-1.485 -0.747,-2.55 -1.305,-3.196 -0.557,-0.646 -1.231,-0.969 -2.023,-0.969 z m 0.078,-1.328 c 2.281,0 3.979,0.881 5.094,2.641 1.114,1.76 1.672,4.422 1.672,7.984 0,3.688 -0.597,6.477 -1.789,8.368 -1.193,1.89 -2.935,2.835 -5.227,2.835 -2.25,0 -3.924,-0.885 -5.023,-2.656 -1.099,-1.771 -1.649,-4.458 -1.649,-8.062 0,-1.917 0.169,-3.573 0.508,-4.969 0.338,-1.396 0.812,-2.55 1.422,-3.461 0.609,-0.911 1.341,-1.586 2.195,-2.023 0.854,-0.438 1.787,-0.657 2.797,-0.657 z"
       fill-rule="evenodd"
       id="path193" />
    <text
       fill="#000000"
       fill-opacity="0"
       font-family="Arial, Arial_MSFontService, sans-serif"
       font-size="21.8281px"
       x="325.80301"
       y="428.52701"
       id="text195">0</text>
    <path
       d="m 375.235,420.912 h 12.313 c 0.187,0 0.331,0.088 0.43,0.265 0.099,0.177 0.148,0.459 0.148,0.844 0,0.385 -0.049,0.667 -0.148,0.844 -0.099,0.177 -0.243,0.265 -0.43,0.265 h -12.313 c -0.197,0 -0.346,-0.088 -0.445,-0.265 -0.099,-0.177 -0.148,-0.459 -0.148,-0.844 0,-0.375 0.049,-0.654 0.148,-0.836 0.099,-0.182 0.248,-0.273 0.445,-0.273 z"
       fill-rule="evenodd"
       id="path197" />
    <text
       fill="#000000"
       fill-opacity="0"
       font-family="Arial, Arial_MSFontService, sans-serif"
       font-size="2.21875px"
       x="374.642"
       y="422.853"
       id="text199">−</text>
    <path
       d="m 398.439,409.427 c 1.937,0 3.401,0.425 4.39,1.274 0.99,0.849 1.485,2.08 1.485,3.695 0,0.552 -0.055,1.06 -0.165,1.524 -0.109,0.463 -0.281,0.921 -0.515,1.375 -0.235,0.453 -0.55,0.94 -0.945,1.46 -0.396,0.521 -0.834,1.05 -1.313,1.586 -0.479,0.537 -1.307,1.43 -2.484,2.68 -1.979,2.094 -3.433,3.922 -4.36,5.484 h 5.891 c 0.51,0 0.922,-0.031 1.234,-0.093 0.313,-0.063 0.563,-0.167 0.75,-0.313 0.188,-0.146 0.336,-0.336 0.446,-0.57 0.109,-0.234 0.247,-0.596 0.414,-1.086 h 1.328 l -0.266,4.562 H 391.47 v -0.75 c 0.448,-1.093 1.052,-2.213 1.812,-3.359 0.761,-1.146 1.839,-2.495 3.235,-4.047 1.208,-1.333 2.078,-2.344 2.609,-3.031 0.583,-0.75 1.018,-1.398 1.305,-1.945 0.286,-0.547 0.492,-1.063 0.617,-1.547 0.125,-0.485 0.187,-0.972 0.187,-1.461 0,-0.781 -0.125,-1.472 -0.375,-2.07 -0.25,-0.599 -0.632,-1.071 -1.148,-1.415 -0.516,-0.343 -1.164,-0.515 -1.945,-0.515 -1.948,0 -3.261,1.083 -3.938,3.25 h -1.89 v -3 c 1.26,-0.594 2.44,-1.024 3.539,-1.289 1.099,-0.266 2.086,-0.399 2.961,-0.399 z"
       fill-rule="evenodd"
       id="path201" />
    <text
       fill="#000000"
       fill-opacity="0"
       font-family="Arial, Arial_MSFontService, sans-serif"
       font-size="21.5781px"
       x="391.47"
       y="428.30801"
       id="text203">2</text>
    <path
       d="m 282.98,448.269 c -0.719,0 -1.32,0.213 -1.804,0.64 -0.485,0.428 -0.875,1.042 -1.172,1.844 -0.297,0.802 -0.508,1.779 -0.633,2.93 -0.125,1.151 -0.188,2.45 -0.188,3.898 0,3.396 0.315,5.888 0.946,7.477 0.63,1.588 1.606,2.383 2.929,2.383 1.261,0 2.196,-0.748 2.805,-2.243 0.609,-1.494 0.914,-3.809 0.914,-6.945 0,-2.396 -0.156,-4.336 -0.469,-5.82 -0.312,-1.485 -0.747,-2.55 -1.304,-3.195 -0.558,-0.646 -1.232,-0.969 -2.024,-0.969 z m 0.078,-1.328 c 2.282,0 3.98,0.88 5.094,2.64 1.115,1.761 1.672,4.422 1.672,7.985 0,3.687 -0.596,6.476 -1.789,8.367 -1.193,1.89 -2.935,2.836 -5.227,2.836 -2.25,0 -3.924,-0.886 -5.023,-2.656 -1.099,-1.771 -1.649,-4.459 -1.649,-8.063 0,-1.917 0.17,-3.573 0.508,-4.969 0.339,-1.396 0.813,-2.549 1.422,-3.461 0.61,-0.911 1.341,-1.586 2.195,-2.023 0.855,-0.438 1.787,-0.656 2.797,-0.656 z"
       fill-rule="evenodd"
       id="path205" />
    <text
       fill="#000000"
       fill-opacity="0"
       font-family="Arial, Arial_MSFontService, sans-serif"
       font-size="21.8281px"
       x="276.13599"
       y="466.04001"
       id="text207">0</text>
    <path
       d="m 333.881,446.941 h 0.86 c -0.063,1 -0.094,2.385 -0.094,4.156 v 13.344 c 0,0.604 0.034,1.06 0.101,1.367 0.068,0.307 0.188,0.557 0.36,0.75 0.172,0.193 0.419,0.344 0.742,0.453 0.323,0.109 0.729,0.193 1.219,0.25 0.489,0.057 1.135,0.096 1.937,0.117 v 1.141 h -11.547 v -1.141 c 1.157,-0.052 1.982,-0.122 2.477,-0.211 0.495,-0.088 0.872,-0.221 1.133,-0.398 0.26,-0.177 0.45,-0.427 0.57,-0.75 0.12,-0.323 0.18,-0.849 0.18,-1.578 v -12.672 c 0,-0.417 -0.073,-0.722 -0.219,-0.914 -0.146,-0.193 -0.359,-0.289 -0.641,-0.289 -0.333,0 -0.807,0.172 -1.421,0.515 -0.615,0.344 -1.375,0.818 -2.282,1.422 l -0.687,-1.203 z"
       fill-rule="evenodd"
       id="path209" />
    <text
       fill="#000000"
       fill-opacity="0"
       font-family="Arial, Arial_MSFontService, sans-serif"
       font-size="21.5781px"
       x="326.569"
       y="465.82199"
       id="text211">1</text>
    <path
       d="m 391.548,446.941 h 0.859 c -0.062,1 -0.093,2.385 -0.093,4.156 v 13.344 c 0,0.604 0.033,1.06 0.101,1.367 0.068,0.307 0.188,0.557 0.359,0.75 0.172,0.193 0.42,0.344 0.743,0.453 0.323,0.109 0.729,0.193 1.218,0.25 0.49,0.057 1.136,0.096 1.938,0.117 v 1.141 h -11.547 v -1.141 c 1.156,-0.052 1.982,-0.122 2.477,-0.211 0.494,-0.088 0.872,-0.221 1.132,-0.398 0.261,-0.177 0.451,-0.427 0.571,-0.75 0.12,-0.323 0.179,-0.849 0.179,-1.578 v -12.672 c 0,-0.417 -0.072,-0.722 -0.218,-0.914 -0.146,-0.193 -0.36,-0.289 -0.641,-0.289 -0.333,0 -0.807,0.172 -1.422,0.515 -0.614,0.344 -1.375,0.818 -2.281,1.422 l -0.688,-1.203 z"
       fill-rule="evenodd"
       id="path213" />
    <text
       fill="#000000"
       fill-opacity="0"
       font-family="Arial, Arial_MSFontService, sans-serif"
       font-size="21.5781px"
       x="384.23499"
       y="465.82199"
       id="text215">1</text>
    <text
       font-family="Calibri, Calibri_MSFontService, sans-serif"
       font-weight="400"
       font-size="32px"
       transform="translate(328.38,339)"
       id="text247">P<tspan
   font-size="32px"
   x="355.17001"
   y="-3"
   id="tspan217">P</tspan><tspan
   font-size="21px"
   x="371.67001"
   y="-13"
   id="tspan219">-</tspan><tspan
   font-size="21px"
   x="378.17001"
   y="-13"
   id="tspan221">1</tspan><tspan
   font-size="27px"
   x="-200.412"
   y="205"
   id="tspan223">P is a basis</tspan><tspan
   font-family="'Cambria Math', 'Cambria Math_MSFontService', sans-serif"
   font-size="27px"
   x="-79.079102"
   y="205"
   id="tspan225">∈</tspan><tspan
   font-family="'Cambria Math', 'Cambria Math_MSFontService', sans-serif"
   font-size="27px"
   x="-56.412399"
   y="205"
   id="tspan227">R</tspan><tspan
   font-family="'Cambria Math', 'Cambria Math_MSFontService', sans-serif"
   font-size="18px"
   x="-39.912399"
   y="197"
   id="tspan229">n</tspan><tspan
   font-size="27px"
   x="-23.912399"
   y="205"
   id="tspan231">containing all eigenvectors corresponding to</tspan><tspan
   font-family="'Cambria Math', 'Cambria Math_MSFontService', sans-serif"
   font-size="27px"
   x="460.328"
   y="205"
   id="tspan233">λ</tspan><tspan
   font-size="27px"
   x="473.328"
   y="205"
   id="tspan235">.</tspan><tspan
   font-size="27px"
   x="-200.412"
   y="237"
   id="tspan237">P</tspan><tspan
   font-size="18px"
   x="-186.57899"
   y="229"
   id="tspan239">-</tspan><tspan
   font-size="18px"
   x="-181.07899"
   y="229"
   id="tspan241">1</tspan><tspan
   font-size="27px"
   x="-166.07899"
   y="237"
   id="tspan243">transforms the regular basis to a basis where A(</tspan><tspan
   font-family="'Cambria Math', 'Cambria Math_MSFontService', sans-serif"
   font-size="27px"
   x="348.93399"
   y="237"
   id="tspan245">𝑥</tspan></text>
    <path
       d="m 9.94043,-17.6265 -3.30908,2.8609 -0.69873,-0.791 2.10937,-1.8326 H 0 v -1.2392 h 8.04199 l -2.10937,-1.8325 0.69873,-0.7911 3.30908,2.8609 z"
       transform="translate(681.534,576)"
       id="path249" />
    <text
       font-family="Calibri, Calibri_MSFontService, sans-serif"
       font-weight="400"
       font-size="27px"
       transform="translate(692.287,576)"
       id="text255">) = <tspan
   font-family="'Cambria Math', 'Cambria Math_MSFontService', sans-serif"
   font-size="27px"
   x="33.5"
   y="0"
   id="tspan251">λ</tspan><tspan
   font-family="'Cambria Math', 'Cambria Math_MSFontService', sans-serif"
   font-size="27px"
   x="46.5"
   y="0"
   id="tspan253">𝑥</tspan></text>
    <path
       d="m 9.94043,-17.6265 -3.30908,2.8609 -0.69873,-0.791 2.10937,-1.8326 H 0 v -1.2392 h 8.04199 l -2.10937,-1.8325 0.69873,-0.7911 3.30908,2.8609 z"
       transform="translate(743.007,576)"
       id="path257" />
    <text
       font-family="Calibri, Calibri_MSFontService, sans-serif"
       font-weight="400"
       font-size="27px"
       transform="translate(753.761,576)"
       id="text269">. <tspan
   font-size="27px"
   x="-625.79303"
   y="32"
   id="tspan259">PDP</tspan><tspan
   font-size="18px"
   x="-581.79303"
   y="24"
   id="tspan261">-</tspan><tspan
   font-size="18px"
   x="-576.29303"
   y="24"
   id="tspan263">1</tspan><tspan
   font-size="27px"
   x="-561.29303"
   y="32"
   id="tspan265">transforms the regular basis to the eigenvector basis (with respect to A), scales it and then</tspan><tspan
   font-size="27px"
   x="-625.79303"
   y="64"
   id="tspan267">transforms it back to the regular basis.</tspan></text>
    <path
       d="M 819,369.202 C 819,360.806 825.806,354 834.202,354 h 149.596 c 8.396,0 15.202,6.806 15.202,15.202 v 87.596 C 999,465.194 992.194,472 983.798,472 H 834.202 C 825.806,472 819,465.194 819,456.798 Z"
       fill="#e2f0d9"
       fill-rule="evenodd"
       id="path271" />
    <path
       d="m 845.062,367.681 -6.109,9.703 v 0.218 h 6.109 v -3.89 c 0,-0.979 0.016,-2.076 0.047,-3.289 0.031,-1.214 0.068,-2.128 0.11,-2.742 z m 0.453,-3.532 h 2.235 v 13.453 h 0.328 c 0.604,0 1.036,-0.044 1.297,-0.132 0.26,-0.089 0.476,-0.245 0.648,-0.469 0.172,-0.224 0.331,-0.591 0.477,-1.102 h 1.187 l -0.187,3.219 h -3.75 v 2.563 c 0,0.697 0.023,1.208 0.07,1.531 0.047,0.323 0.125,0.578 0.234,0.765 0.11,0.188 0.271,0.344 0.485,0.469 0.213,0.125 0.56,0.25 1.039,0.375 v 0.766 h -6.344 v -0.766 c 0.646,-0.167 1.078,-0.351 1.297,-0.555 0.219,-0.203 0.362,-0.492 0.43,-0.867 0.067,-0.375 0.101,-0.948 0.101,-1.718 v -2.563 h -8.687 v -1.172 z"
       fill-rule="evenodd"
       id="path273" />
    <text
       fill="#000000"
       fill-opacity="0"
       font-family="Arial, Arial_MSFontService, sans-serif"
       font-size="21.4375px"
       x="836.375"
       y="382.90701"
       id="text275">4</text>
    <path
       d="m 910.531,365.337 c -0.719,0 -1.32,0.213 -1.805,0.64 -0.484,0.427 -0.875,1.042 -1.172,1.844 -0.296,0.802 -0.507,1.779 -0.632,2.93 -0.125,1.151 -0.188,2.45 -0.188,3.898 0,3.396 0.315,5.888 0.945,7.477 0.631,1.588 1.607,2.383 2.93,2.383 1.261,0 2.195,-0.748 2.805,-2.243 0.609,-1.494 0.914,-3.809 0.914,-6.945 0,-2.396 -0.156,-4.336 -0.469,-5.82 -0.312,-1.485 -0.747,-2.55 -1.305,-3.195 -0.557,-0.646 -1.231,-0.969 -2.023,-0.969 z m 0.078,-1.328 c 2.281,0 3.979,0.88 5.094,2.64 1.114,1.761 1.672,4.422 1.672,7.985 0,3.687 -0.597,6.476 -1.789,8.367 -1.193,1.89 -2.935,2.836 -5.227,2.836 -2.25,0 -3.924,-0.886 -5.023,-2.656 -1.099,-1.771 -1.649,-4.459 -1.649,-8.063 0,-1.917 0.17,-3.573 0.508,-4.969 0.339,-1.396 0.813,-2.549 1.422,-3.461 0.609,-0.911 1.341,-1.586 2.195,-2.023 0.854,-0.438 1.787,-0.656 2.797,-0.656 z"
       fill-rule="evenodd"
       id="path277" />
    <text
       fill="#000000"
       fill-opacity="0"
       font-family="Arial, Arial_MSFontService, sans-serif"
       font-size="21.8281px"
       x="903.68701"
       y="383.108"
       id="text279">0</text>
    <path
       d="m 968.198,365.337 c -0.719,0 -1.321,0.213 -1.805,0.64 -0.484,0.427 -0.875,1.042 -1.172,1.844 -0.297,0.802 -0.508,1.779 -0.633,2.93 -0.125,1.151 -0.187,2.45 -0.187,3.898 0,3.396 0.315,5.888 0.945,7.477 0.63,1.588 1.607,2.383 2.93,2.383 1.26,0 2.195,-0.748 2.805,-2.243 0.609,-1.494 0.914,-3.809 0.914,-6.945 0,-2.396 -0.157,-4.336 -0.469,-5.82 -0.313,-1.485 -0.748,-2.55 -1.305,-3.195 -0.557,-0.646 -1.232,-0.969 -2.023,-0.969 z m 0.078,-1.328 c 2.281,0 3.979,0.88 5.094,2.64 1.114,1.761 1.671,4.422 1.671,7.985 0,3.687 -0.596,6.476 -1.789,8.367 -1.192,1.89 -2.934,2.836 -5.226,2.836 -2.25,0 -3.925,-0.886 -5.024,-2.656 -1.099,-1.771 -1.648,-4.459 -1.648,-8.063 0,-1.917 0.169,-3.573 0.508,-4.969 0.338,-1.396 0.812,-2.549 1.422,-3.461 0.609,-0.911 1.341,-1.586 2.195,-2.023 0.854,-0.438 1.786,-0.656 2.797,-0.656 z"
       fill-rule="evenodd"
       id="path281" />
    <text
       fill="#000000"
       fill-opacity="0"
       font-family="Arial, Arial_MSFontService, sans-serif"
       font-size="21.8281px"
       x="961.354"
       y="383.108"
       id="text283">0</text>
    <path
       d="m 853.323,401.522 c 1.937,0 3.401,0.424 4.39,1.273 0.99,0.849 1.485,2.081 1.485,3.696 0,0.552 -0.055,1.06 -0.164,1.523 -0.11,0.464 -0.282,0.922 -0.516,1.375 -0.234,0.453 -0.549,0.94 -0.945,1.461 -0.396,0.521 -0.834,1.05 -1.313,1.586 -0.479,0.537 -1.307,1.43 -2.484,2.68 -1.979,2.093 -3.432,3.922 -4.36,5.484 h 5.891 c 0.511,0 0.922,-0.031 1.234,-0.094 0.313,-0.062 0.563,-0.166 0.75,-0.312 0.188,-0.146 0.336,-0.336 0.446,-0.57 0.109,-0.235 0.247,-0.597 0.414,-1.086 h 1.328 l -0.266,4.562 h -12.859 v -0.75 c 0.448,-1.094 1.052,-2.213 1.812,-3.359 0.761,-1.146 1.839,-2.495 3.235,-4.047 1.208,-1.333 2.078,-2.344 2.609,-3.031 0.584,-0.75 1.018,-1.399 1.305,-1.946 0.286,-0.547 0.492,-1.062 0.617,-1.547 0.125,-0.484 0.188,-0.971 0.188,-1.461 0,-0.781 -0.125,-1.471 -0.375,-2.07 -0.25,-0.599 -0.633,-1.07 -1.149,-1.414 -0.515,-0.344 -1.164,-0.516 -1.945,-0.516 -1.948,0 -3.261,1.084 -3.938,3.25 h -1.89 v -3 c 1.26,-0.593 2.44,-1.023 3.539,-1.289 1.099,-0.265 2.086,-0.398 2.961,-0.398 z m -16.891,0 h 0.859 c -0.062,1 -0.093,2.385 -0.093,4.156 v 13.344 c 0,0.604 0.034,1.06 0.101,1.367 0.068,0.307 0.188,0.557 0.36,0.75 0.172,0.193 0.419,0.344 0.742,0.453 0.323,0.11 0.729,0.193 1.219,0.25 0.489,0.058 1.135,0.097 1.937,0.117 V 423.1 H 830.01 v -1.141 c 1.156,-0.052 1.982,-0.122 2.477,-0.21 0.495,-0.089 0.872,-0.222 1.133,-0.399 0.26,-0.177 0.45,-0.427 0.57,-0.75 0.12,-0.323 0.18,-0.849 0.18,-1.578 V 406.35 c 0,-0.417 -0.073,-0.721 -0.219,-0.914 -0.146,-0.193 -0.36,-0.289 -0.641,-0.289 -0.333,0 -0.807,0.172 -1.422,0.516 -0.614,0.343 -1.375,0.817 -2.281,1.421 l -0.687,-1.203 z"
       fill-rule="evenodd"
       id="path285" />
    <text
       fill="#000000"
       fill-opacity="0"
       font-family="Arial, Arial_MSFontService, sans-serif"
       font-size="21.5781px"
       x="829.12"
       y="420.40302"
       id="text287">12</text>
    <path
       d="m 895.453,413.006 h 12.312 c 0.188,0 0.331,0.089 0.43,0.266 0.099,0.177 0.149,0.458 0.149,0.844 0,0.385 -0.05,0.666 -0.149,0.843 -0.099,0.178 -0.242,0.266 -0.43,0.266 h -12.312 c -0.198,0 -0.346,-0.088 -0.445,-0.266 -0.099,-0.177 -0.149,-0.458 -0.149,-0.843 0,-0.375 0.05,-0.654 0.149,-0.836 0.099,-0.182 0.247,-0.274 0.445,-0.274 z"
       fill-rule="evenodd"
       id="path289" />
    <text
       fill="#000000"
       fill-opacity="0"
       font-family="Arial, Arial_MSFontService, sans-serif"
       font-size="2.21875px"
       x="894.85901"
       y="414.948"
       id="text291">−</text>
    <path
       d="m 918.656,401.522 c 1.938,0 3.401,0.424 4.391,1.273 0.989,0.849 1.484,2.081 1.484,3.696 0,0.552 -0.055,1.06 -0.164,1.523 -0.109,0.464 -0.281,0.922 -0.516,1.375 -0.234,0.453 -0.549,0.94 -0.945,1.461 -0.396,0.521 -0.833,1.05 -1.312,1.586 -0.48,0.537 -1.308,1.43 -2.485,2.68 -1.979,2.093 -3.432,3.922 -4.359,5.484 h 5.89 c 0.511,0 0.922,-0.031 1.235,-0.094 0.312,-0.062 0.562,-0.166 0.75,-0.312 0.187,-0.146 0.336,-0.336 0.445,-0.57 0.109,-0.235 0.247,-0.597 0.414,-1.086 h 1.328 l -0.265,4.562 h -12.86 v -0.75 c 0.448,-1.094 1.052,-2.213 1.813,-3.359 0.76,-1.146 1.838,-2.495 3.234,-4.047 1.208,-1.333 2.078,-2.344 2.61,-3.031 0.583,-0.75 1.018,-1.399 1.304,-1.946 0.287,-0.547 0.492,-1.062 0.617,-1.547 0.125,-0.484 0.188,-0.971 0.188,-1.461 0,-0.781 -0.125,-1.471 -0.375,-2.07 -0.25,-0.599 -0.633,-1.07 -1.149,-1.414 -0.515,-0.344 -1.164,-0.516 -1.945,-0.516 -1.948,0 -3.26,1.084 -3.937,3.25 h -1.891 v -3 c 1.26,-0.593 2.44,-1.023 3.539,-1.289 1.099,-0.265 2.086,-0.398 2.961,-0.398 z"
       fill-rule="evenodd"
       id="path293" />
    <text
       fill="#000000"
       fill-opacity="0"
       font-family="Arial, Arial_MSFontService, sans-serif"
       font-size="21.5781px"
       x="911.68701"
       y="420.40302"
       id="text295">2</text>
    <path
       d="m 968.198,402.85 c -0.719,0 -1.321,0.214 -1.805,0.641 -0.484,0.427 -0.875,1.041 -1.172,1.843 -0.297,0.803 -0.508,1.779 -0.633,2.93 -0.125,1.151 -0.187,2.451 -0.187,3.899 0,3.395 0.315,5.888 0.945,7.476 0.63,1.589 1.607,2.383 2.93,2.383 1.26,0 2.195,-0.747 2.805,-2.242 0.609,-1.495 0.914,-3.81 0.914,-6.946 0,-2.395 -0.157,-4.335 -0.469,-5.82 -0.313,-1.484 -0.748,-2.549 -1.305,-3.195 -0.557,-0.646 -1.232,-0.969 -2.023,-0.969 z m 0.078,-1.328 c 2.281,0 3.979,0.88 5.094,2.641 1.114,1.76 1.671,4.421 1.671,7.984 0,3.687 -0.596,6.477 -1.789,8.367 -1.192,1.891 -2.934,2.836 -5.226,2.836 -2.25,0 -3.925,-0.885 -5.024,-2.656 -1.099,-1.771 -1.648,-4.458 -1.648,-8.063 0,-1.916 0.169,-3.573 0.508,-4.968 0.338,-1.396 0.812,-2.55 1.422,-3.461 0.609,-0.912 1.341,-1.586 2.195,-2.024 0.854,-0.437 1.786,-0.656 2.797,-0.656 z"
       fill-rule="evenodd"
       id="path297" />
    <text
       fill="#000000"
       fill-opacity="0"
       font-family="Arial, Arial_MSFontService, sans-serif"
       font-size="21.8281px"
       x="961.354"
       y="420.62201"
       id="text299">0</text>
    <path
       d="m 828.953,450.52 h 12.312 c 0.188,0 0.331,0.088 0.43,0.265 0.099,0.177 0.149,0.459 0.149,0.844 0,0.385 -0.05,0.667 -0.149,0.844 -0.099,0.177 -0.242,0.265 -0.43,0.265 h -12.312 c -0.198,0 -0.346,-0.088 -0.445,-0.265 -0.099,-0.177 -0.149,-0.459 -0.149,-0.844 0,-0.375 0.05,-0.654 0.149,-0.836 0.099,-0.182 0.247,-0.273 0.445,-0.273 z"
       fill-rule="evenodd"
       id="path301" />
    <text
       fill="#000000"
       fill-opacity="0"
       font-family="Arial, Arial_MSFontService, sans-serif"
       font-size="2.21875px"
       x="828.35901"
       y="452.461"
       id="text303">−</text>
    <path
       d="m 852.75,449.363 c -0.511,0 -1.003,0.058 -1.477,0.172 -0.474,0.115 -0.919,0.282 -1.336,0.5 -0.416,0.219 -0.823,0.495 -1.218,0.828 -0.125,0.115 -0.219,0.235 -0.282,0.36 -0.104,0.198 -0.172,0.443 -0.203,0.734 -0.031,0.292 -0.047,0.781 -0.047,1.469 0,1.99 0.334,3.505 1,4.547 0.667,1.041 1.677,1.562 3.032,1.562 0.781,0 1.437,-0.135 1.968,-0.406 0.532,-0.271 0.961,-0.643 1.289,-1.117 0.328,-0.474 0.563,-1.031 0.703,-1.672 0.141,-0.641 0.211,-1.336 0.211,-2.086 0,-1.542 -0.317,-2.742 -0.953,-3.602 -0.635,-0.859 -1.531,-1.289 -2.687,-1.289 z m 4.015,-10.328 0.641,0.86 v 0.765 c -1.604,0 -3.026,0.344 -4.266,1.032 -1.239,0.687 -2.268,1.697 -3.086,3.031 -0.817,1.333 -1.393,2.916 -1.726,4.75 l 0.156,0.062 c 0.875,-0.625 1.737,-1.083 2.586,-1.375 0.849,-0.291 1.768,-0.437 2.758,-0.437 1.177,0 2.18,0.258 3.008,0.773 0.828,0.516 1.45,1.24 1.867,2.172 0.417,0.932 0.625,2.024 0.625,3.274 0,1.354 -0.261,2.549 -0.781,3.585 -0.521,1.037 -1.326,1.852 -2.414,2.446 -1.089,0.594 -2.43,0.89 -4.024,0.89 -2.281,0 -4.002,-0.708 -5.164,-2.125 -1.161,-1.416 -1.742,-3.505 -1.742,-6.265 0,-1.854 0.292,-3.589 0.875,-5.203 0.583,-1.615 1.411,-3.024 2.484,-4.227 1.073,-1.203 2.318,-2.151 3.735,-2.844 1.416,-0.692 2.906,-1.08 4.468,-1.164 z"
       fill-rule="evenodd"
       id="path305" />
    <text
       fill="#000000"
       fill-opacity="0"
       font-family="Arial, Arial_MSFontService, sans-serif"
       font-size="21.8281px"
       x="845.203"
       y="458.13501"
       id="text307">6</text>
    <path
       d="m 910.594,439.035 c 1.177,0 2.208,0.183 3.093,0.547 0.886,0.365 1.563,0.888 2.032,1.57 0.468,0.683 0.703,1.498 0.703,2.446 0,0.885 -0.177,1.664 -0.532,2.336 -0.354,0.672 -0.851,1.258 -1.492,1.758 -0.64,0.5 -1.471,0.989 -2.492,1.468 v 0.141 c 0.635,0.115 1.247,0.31 1.836,0.586 0.589,0.276 1.112,0.633 1.57,1.07 0.459,0.438 0.826,0.961 1.102,1.57 0.276,0.61 0.414,1.305 0.414,2.086 0,1.209 -0.263,2.282 -0.789,3.219 -0.526,0.938 -1.331,1.677 -2.414,2.219 -1.084,0.542 -2.401,0.812 -3.953,0.812 -0.896,0 -1.862,-0.101 -2.899,-0.304 -1.036,-0.203 -1.987,-0.472 -2.851,-0.805 v -3.312 h 1.875 c 0.364,1.083 0.846,1.869 1.445,2.359 0.599,0.49 1.414,0.734 2.445,0.734 1.354,0 2.378,-0.369 3.071,-1.109 0.692,-0.74 1.039,-1.833 1.039,-3.281 0,-1.521 -0.459,-2.683 -1.375,-3.485 -0.917,-0.802 -2.261,-1.203 -4.032,-1.203 h -1.406 v -1.375 c 1.406,-0.083 2.591,-0.354 3.555,-0.812 0.963,-0.459 1.68,-1.047 2.148,-1.766 0.469,-0.719 0.703,-1.526 0.703,-2.422 0,-1.156 -0.307,-2.047 -0.921,-2.672 -0.615,-0.625 -1.511,-0.937 -2.688,-0.937 -0.979,0 -1.776,0.265 -2.391,0.797 -0.614,0.531 -1.067,1.343 -1.359,2.437 h -1.875 v -2.969 c 1.208,-0.572 2.339,-1 3.391,-1.281 1.052,-0.281 2.067,-0.422 3.047,-0.422 z"
       fill-rule="evenodd"
       id="path309" />
    <text
       fill="#000000"
       fill-opacity="0"
       font-family="Arial, Arial_MSFontService, sans-serif"
       font-size="21.8281px"
       x="903.922"
       y="458.13501"
       id="text311">3</text>
    <path
       d="m 969.229,442.707 -6.109,9.703 v 0.219 h 6.109 v -3.891 c 0,-0.979 0.016,-2.075 0.047,-3.289 0.031,-1.213 0.068,-2.127 0.109,-2.742 z m 0.453,-3.531 h 2.234 v 13.453 h 0.329 c 0.604,0 1.036,-0.044 1.296,-0.133 0.261,-0.088 0.477,-0.245 0.649,-0.469 0.172,-0.223 0.331,-0.591 0.476,-1.101 h 1.188 l -0.188,3.219 h -3.75 v 2.562 c 0,0.698 0.024,1.209 0.071,1.531 0.047,0.323 0.125,0.579 0.234,0.766 0.11,0.188 0.271,0.344 0.485,0.469 0.213,0.125 0.559,0.25 1.039,0.375 v 0.765 h -6.344 v -0.765 c 0.646,-0.167 1.078,-0.352 1.297,-0.555 0.218,-0.203 0.362,-0.492 0.429,-0.867 0.068,-0.375 0.102,-0.948 0.102,-1.719 v -2.562 h -8.688 v -1.172 z"
       fill-rule="evenodd"
       id="path313" />
    <text
       fill="#000000"
       fill-opacity="0"
       font-family="Arial, Arial_MSFontService, sans-serif"
       font-size="21.4375px"
       x="960.54102"
       y="457.93399"
       id="text315">4</text>
    <text
       font-family="Calibri, Calibri_MSFontService, sans-serif"
       font-weight="400"
       font-size="43px"
       transform="translate(787.112,424)"
       id="text319">=<tspan
   font-size="32px"
   x="111.66"
   y="-85"
   id="tspan317">A</tspan></text>
  </g>
</svg>
