<?xml version="1.0" encoding="UTF-8" standalone="no"?>
<svg
   width="1280"
   height="680"
   overflow="hidden"
   version="1.1"
   id="svg277"
   sodipodi:docname="linear_systems-rank_and_nullity.svg"
   inkscape:version="1.2 (dc2aedaf03, 2022-05-15)"
   xmlns:inkscape="http://www.inkscape.org/namespaces/inkscape"
   xmlns:sodipodi="http://sodipodi.sourceforge.net/DTD/sodipodi-0.dtd"
   xmlns="http://www.w3.org/2000/svg"
   xmlns:svg="http://www.w3.org/2000/svg">
  <sodipodi:namedview
     id="namedview279"
     pagecolor="#ffffff"
     bordercolor="#000000"
     borderopacity="0.25"
     inkscape:showpageshadow="2"
     inkscape:pageopacity="0.0"
     inkscape:pagecheckerboard="0"
     inkscape:deskcolor="#d1d1d1"
     showgrid="false"
     inkscape:zoom="0.92709556"
     inkscape:cx="652.03635"
     inkscape:cy="401.25314"
     inkscape:window-width="2560"
     inkscape:window-height="1494"
     inkscape:window-x="-11"
     inkscape:window-y="-11"
     inkscape:window-maximized="1"
     inkscape:current-layer="g275" />
  <defs
     id="defs5">
    <clipPath
       id="clip0">
      <rect
         x="0"
         y="0"
         width="1280"
         height="720"
         id="rect2" />
    </clipPath>
  </defs>
  <g
     clip-path="url(#clip0)"
     id="g275"
     transform="translate(-4.3145499,20.494112)">
    <rect
       x="-3.2359121"
       y="-37.752308"
       width="1280"
       height="720"
       fill="#ffffff"
       id="rect7" />
    <path
       d="m 749.76409,95.130689 c 0,-7.115 5.768,-12.883 12.883,-12.883 h 151.234 c 7.115,0 12.883,5.768 12.883,12.883 v 74.233991 c 0,7.115 -5.768,12.883 -12.883,12.883 h -151.234 c -7.115,0 -12.883,-5.768 -12.883,-12.883 z"
       fill="#7030a0"
       fill-rule="evenodd"
       fill-opacity="0.301961"
       id="path9" />
    <path
       d="M 862.76409,82.247689 V 181.73068"
       stroke="#7030a0"
       stroke-width="4"
       stroke-miterlimit="8"
       fill="none"
       fill-rule="evenodd"
       id="path11" />
    <path
       d="m 762.76409,109.74768 c 0,-11.321991 9.85,-20.499991 22,-20.499991 12.15,0 22,9.178 22,20.499991 0,11.322 -9.85,20.5 -22,20.5 -12.15,0 -22,-9.178 -22,-20.5 z"
       fill="#bdd7ee"
       fill-rule="evenodd"
       fill-opacity="0.501961"
       id="path13" />
    <path
       d="m 749.76409,215.13068 c 0,-7.115 5.768,-12.883 12.883,-12.883 h 151.234 c 7.115,0 12.883,5.768 12.883,12.883 v 74.234 c 0,7.115 -5.768,12.883 -12.883,12.883 h -151.234 c -7.115,0 -12.883,-5.768 -12.883,-12.883 z"
       fill="#7030a0"
       fill-rule="evenodd"
       fill-opacity="0.301961"
       id="path15" />
    <path
       d="m 182.76409,215.13068 c 0,-7.115 5.768,-12.883 12.883,-12.883 h 147.234 c 7.115,0 12.883,5.768 12.883,12.883 v 74.234 c 0,7.115 -5.768,12.883 -12.883,12.883 h -147.234 c -7.115,0 -12.883,-5.768 -12.883,-12.883 z"
       fill="#7030a0"
       fill-rule="evenodd"
       fill-opacity="0.301961"
       id="path17" />
    <path
       d="m 295.76409,202.24768 v 99.483"
       stroke="#7030a0"
       stroke-width="4"
       stroke-miterlimit="8"
       fill="none"
       fill-rule="evenodd"
       id="path19" />
    <text
       font-family="Calibri, Calibri_MSFontService, sans-serif"
       font-weight="400"
       font-size="43px"
       id="text23"
       x="143.83411"
       y="51.247692">Single solution<tspan
   font-size="43px"
   x="684.96808"
   y="51.247692"
   id="tspan21">Infinite solutions</tspan></text>
    <path
       d="m 182.76409,95.130689 c 0,-7.115 5.768,-12.883 12.883,-12.883 h 147.234 c 7.115,0 12.883,5.768 12.883,12.883 v 74.233991 c 0,7.115 -5.768,12.883 -12.883,12.883 h -147.234 c -7.115,0 -12.883,-5.768 -12.883,-12.883 z"
       fill="#7030a0"
       fill-rule="evenodd"
       fill-opacity="0.301961"
       id="path25" />
    <path
       d="M 295.76409,82.247689 V 181.73068"
       stroke="#7030a0"
       stroke-width="4"
       stroke-miterlimit="8"
       fill="none"
       fill-rule="evenodd"
       id="path27" />
    <path
       d="m 191.76409,112.74768 c 0,-11.32199 9.626,-20.499991 21.5,-20.499991 11.874,0 21.5,9.178001 21.5,20.499991 0,11.322 -9.626,20.5 -21.5,20.5 -11.874,0 -21.5,-9.178 -21.5,-20.5 z"
       fill="#bdd7ee"
       fill-rule="evenodd"
       fill-opacity="0.501961"
       id="path29" />
    <path
       d="m 244.76409,148.74768 c 0,-11.322 9.626,-20.5 21.5,-20.5 11.874,0 21.5,9.178 21.5,20.5 0,11.322 -9.626,20.5 -21.5,20.5 -11.874,0 -21.5,-9.178 -21.5,-20.5 z"
       fill="#bdd7ee"
       fill-rule="evenodd"
       fill-opacity="0.501961"
       id="path31" />
    <text
       font-family="'Cambria Math', 'Cambria Math_MSFontService', sans-serif"
       font-weight="400"
       font-size="32px"
       id="text65"
       x="203.8611"
       y="122.2477">1<tspan
   font-size="32px"
   x="261.52777"
   y="122.2477"
   id="tspan33">4</tspan><tspan
   font-size="32px"
   x="311.19406"
   y="122.2477"
   id="tspan35">0</tspan><tspan
   font-family="Calibri, Calibri_MSFontService, sans-serif"
   font-size="32px"
   x="195.8611"
   y="159.24768"
   id="tspan37">âˆ’</tspan>1<tspan
   font-size="32px"
   x="261.52777"
   y="159.24768"
   id="tspan39">3</tspan><tspan
   font-size="32px"
   x="311.19406"
   y="159.24768"
   id="tspan41">0</tspan><tspan
   font-size="32px"
   x="380.07605"
   y="249.24768"
   id="tspan43">ğ‘¥</tspan><tspan
   font-size="23px"
   x="396.02206"
   y="255.24768"
   id="tspan45">1</tspan><tspan
   font-size="32px"
   x="410.84906"
   y="249.24768"
   id="tspan47" /><tspan
   font-family="Calibri, Calibri_MSFontService, sans-serif"
   font-size="32px"
   x="417.84906"
   y="249.24768"
   id="tspan49">=</tspan><tspan
   font-family="Calibri, Calibri_MSFontService, sans-serif"
   font-size="32px"
   x="441.01605"
   y="249.24768"
   id="tspan51">0</tspan><tspan
   font-size="32px"
   x="378.56506"
   y="281.24771"
   id="tspan53">ğ‘¥</tspan><tspan
   font-size="23px"
   x="395.25107"
   y="288.24771"
   id="tspan55">2</tspan><tspan
   font-size="32px"
   x="410.07806"
   y="281.24771"
   id="tspan57" /><tspan
   font-family="Calibri, Calibri_MSFontService, sans-serif"
   font-size="32px"
   x="417.07806"
   y="281.24771"
   id="tspan59">=</tspan><tspan
   font-family="Calibri, Calibri_MSFontService, sans-serif"
   font-size="32px"
   x="433.07806"
   y="281.24771"
   id="tspan61" /><tspan
   font-family="Calibri, Calibri_MSFontService, sans-serif"
   font-size="32px"
   x="440.24506"
   y="281.24771"
   id="tspan63">0</tspan></text>
    <path
       d="m 192.76409,234.74768 c 0,-11.322 9.626,-20.5 21.5,-20.5 11.874,0 21.5,9.178 21.5,20.5 0,11.322 -9.626,20.5 -21.5,20.5 -11.874,0 -21.5,-9.178 -21.5,-20.5 z"
       fill="#bdd7ee"
       fill-rule="evenodd"
       fill-opacity="0.501961"
       id="path67" />
    <path
       d="m 106.22109,250.48268 c 3.75,0 8.219,1.64 13.406,4.922 5.188,3.281 9.125,4.921 11.813,4.921 2.656,0 4.875,-0.703 6.656,-2.109 1.781,-1.406 3.578,-3.594 5.39,-6.562 l 3.75,2.531 c -1.343,2.781 -3.468,5.586 -6.375,8.414 -2.906,2.828 -6.437,4.242 -10.593,4.242 -4,0 -8.571,-1.641 -13.711,-4.922 -5.141,-3.281 -9.071,-4.922 -11.789,-4.922 -2.282,0 -4.282,0.719 -5.999999,2.157 -1.719,1.437 -3.2347,3.531 -4.5472,6.281 l -3.6562,-2.063 c 1.5937,-3.687 3.7031,-6.757 6.3284,-9.211 2.625,-2.453 5.733999,-3.679 9.327999,-3.679 z"
       fill-rule="evenodd"
       id="path69" />
    <text
       fill="#000000"
       fill-opacity="0"
       font-family="Arial, Arial_MSFontService, sans-serif"
       font-size="16.3594px"
       x="90.564682"
       y="264.79672"
       id="text71">~</text>
    <text
       font-family="Calibri, Calibri_MSFontService, sans-serif"
       font-weight="400"
       font-size="32px"
       id="text73"
       x="89.720085"
       y="382.24771">The solution set is</text>
    <path
       d="m 386.13109,341.30668 c 2.229,0.198 4.187,1.354 5.875,3.469 1.687,2.115 2.531,5.349 2.531,9.703 0,1.656 -0.302,3.901 -0.906,6.734 -0.604,2.823 -0.906,4.766 -0.906,5.829 0,1.708 0.343,3.02 1.031,3.937 0.698,0.917 1.583,1.412 2.656,1.484 v 1.469 c -1.062,0.073 -1.948,0.573 -2.656,1.5 -0.688,0.927 -1.031,2.235 -1.031,3.922 0,1.063 0.302,3.005 0.906,5.828 0.604,2.834 0.906,5.078 0.906,6.735 0,4.364 -0.844,7.599 -2.531,9.703 -1.688,2.114 -3.646,3.271 -5.875,3.468 v -1.343 c 1.427,-0.209 2.693,-1.136 3.797,-2.782 1.104,-1.645 1.656,-4.192 1.656,-7.64 0,-0.729 -0.07,-1.649 -0.211,-2.758 -0.141,-1.109 -0.357,-2.419 -0.648,-3.93 -0.292,-1.5 -0.508,-2.708 -0.649,-3.625 -0.14,-0.916 -0.211,-1.547 -0.211,-1.89 0,-1.011 0.071,-1.927 0.211,-2.75 0.141,-0.823 0.367,-1.555 0.68,-2.196 0.312,-0.64 0.716,-1.195 1.211,-1.664 0.495,-0.468 1.096,-0.859 1.804,-1.172 v -0.281 c -0.708,-0.312 -1.309,-0.703 -1.804,-1.172 -0.495,-0.468 -0.899,-1.023 -1.211,-1.664 -0.313,-0.64 -0.539,-1.37 -0.68,-2.187 -0.14,-0.818 -0.211,-1.737 -0.211,-2.758 0,-0.344 0.071,-0.974 0.211,-1.891 0.141,-0.916 0.357,-2.125 0.649,-3.625 0.291,-1.51 0.507,-2.82 0.648,-3.929 0.141,-1.11 0.211,-2.029 0.211,-2.758 0,-3.448 -0.552,-5.995 -1.656,-7.641 -1.104,-1.646 -2.37,-2.573 -3.797,-2.781 z m -43.798,0 v 1.344 c -1.427,0.198 -2.693,1.125 -3.797,2.781 -1.104,1.656 -1.656,4.203 -1.656,7.641 0,1.458 0.286,3.685 0.859,6.68 0.573,2.994 0.86,4.835 0.86,5.523 0,2.031 -0.3,3.682 -0.899,4.953 -0.599,1.271 -1.601,2.214 -3.007,2.828 v 0.281 c 1.406,0.615 2.408,1.558 3.007,2.829 0.599,1.27 0.899,2.921 0.899,4.953 0,0.687 -0.287,2.528 -0.86,5.523 -0.573,2.995 -0.859,5.221 -0.859,6.68 0,3.437 0.552,5.984 1.656,7.64 1.104,1.657 2.37,2.584 3.797,2.782 v 1.343 c -2.229,-0.208 -4.187,-1.364 -5.875,-3.468 -1.687,-2.104 -2.531,-5.339 -2.531,-9.703 0,-1.636 0.302,-3.878 0.906,-6.727 0.604,-2.849 0.906,-4.794 0.906,-5.836 0,-1.698 -0.346,-3.008 -1.039,-3.93 -0.692,-0.921 -1.575,-1.419 -2.648,-1.492 v -1.469 c 1.073,-0.072 1.956,-0.57 2.648,-1.492 0.693,-0.922 1.039,-2.232 1.039,-3.929 0,-1.042 -0.302,-2.987 -0.906,-5.836 -0.604,-2.849 -0.906,-5.092 -0.906,-6.727 0,-4.365 0.844,-7.599 2.531,-9.703 1.688,-2.104 3.646,-3.26 5.875,-3.469 z"
       fill-rule="evenodd"
       id="path75" />
    <path
       d="m 373.77009,341.36268 h 7.859 v 63.656 h -7.859 v -1.437 h 4.797 v -60.781 h -4.797 z m -26.934,0 h 7.859 v 1.438 h -4.797 v 60.781 h 4.797 v 1.437 h -7.859 z"
       fill-rule="evenodd"
       id="path77" />
    <text
       font-family="'Cambria Math', 'Cambria Math_MSFontService', sans-serif"
       font-weight="400"
       font-size="32px"
       id="text83"
       x="355.40005"
       y="365.24771">0<tspan
   font-size="32px"
   x="355.40005"
   y="402.24771"
   id="tspan79">0</tspan><tspan
   font-family="Calibri, Calibri_MSFontService, sans-serif"
   font-size="32px"
   x="397.58676"
   y="382.24771"
   id="tspan81">.</tspan></text>
    <path
       d="m 862.76409,202.24768 v 99.483"
       stroke="#7030a0"
       stroke-width="4"
       stroke-miterlimit="8"
       fill="none"
       fill-rule="evenodd"
       id="path85" />
    <path
       d="m 759.76409,230.74768 c 0,-11.322 9.85,-20.5 22,-20.5 12.15,0 22,9.178 22,20.5 0,11.322 -9.85,20.5 -22,20.5 -12.15,0 -22,-9.178 -22,-20.5 z"
       fill="#bdd7ee"
       fill-rule="evenodd"
       fill-opacity="0.501961"
       id="path87" />
    <path
       d="m 673.21309,241.58968 c 3.75,0 8.219,1.641 13.406,4.922 5.188,3.281 9.125,4.922 11.813,4.922 2.656,0 4.875,-0.703 6.656,-2.11 1.781,-1.406 3.578,-3.593 5.391,-6.562 l 3.75,2.531 c -1.344,2.781 -3.469,5.586 -6.375,8.414 -2.907,2.828 -6.438,4.242 -10.594,4.242 -4,0 -8.57,-1.64 -13.711,-4.922 -5.141,-3.281 -9.07,-4.921 -11.789,-4.921 -2.281,0 -4.281,0.718 -6,2.156 -1.719,1.437 -3.235,3.531 -4.547,6.281 l -3.656,-2.062 c 1.593,-3.688 3.703,-6.758 6.328,-9.211 2.625,-2.454 5.734,-3.68 9.328,-3.68 z"
       fill-rule="evenodd"
       id="path89" />
    <text
       fill="#000000"
       fill-opacity="0"
       font-family="Arial, Arial_MSFontService, sans-serif"
       font-size="16.3594px"
       x="657.55713"
       y="255.90369"
       id="text91">~</text>
    <text
       font-family="'Cambria Math', 'Cambria Math_MSFontService', sans-serif"
       font-weight="400"
       font-size="32px"
       id="text133"
       x="950.79413"
       y="242.24768">ğ‘¥<tspan
   font-size="23px"
   x="966.74078"
   y="249.24768"
   id="tspan93">1</tspan><tspan
   font-size="32px"
   x="981.5675"
   y="242.24768"
   id="tspan95" /><tspan
   font-family="Calibri, Calibri_MSFontService, sans-serif"
   font-size="32px"
   x="988.5675"
   y="242.24768"
   id="tspan97">=</tspan><tspan
   font-family="Calibri, Calibri_MSFontService, sans-serif"
   font-size="32px"
   x="1004.5675"
   y="242.24768"
   id="tspan99" /><tspan
   font-family="Calibri, Calibri_MSFontService, sans-serif"
   font-size="32px"
   x="1011.7341"
   y="242.24768"
   id="tspan101">âˆ’</tspan><tspan
   font-size="32px"
   x="1027.7343"
   y="242.24768"
   id="tspan103">4</tspan><tspan
   font-size="32px"
   x="1045.4009"
   y="242.24768"
   id="tspan105">ğ‘¥</tspan><tspan
   font-size="23px"
   x="1062.0872"
   y="249.24768"
   id="tspan107">2</tspan><tspan
   font-size="32px"
   x="950.66998"
   y="275.24771"
   id="tspan109">ğ‘¥</tspan><tspan
   font-size="23px"
   x="967.35669"
   y="282.24771"
   id="tspan111">2</tspan><tspan
   font-size="32px"
   x="982.18329"
   y="275.24771"
   id="tspan113" /><tspan
   font-family="Calibri, Calibri_MSFontService, sans-serif"
   font-size="32px"
   x="989.18335"
   y="275.24771"
   id="tspan115">is free i.e.</tspan><tspan
   font-size="32px"
   x="1122.4302"
   y="275.24771"
   id="tspan117">ğ‘¥</tspan><tspan
   font-size="23px"
   x="1139.1172"
   y="282.24771"
   id="tspan119">2</tspan><tspan
   font-size="32px"
   x="1153.9431"
   y="275.24771"
   id="tspan121" /><tspan
   font-family="Calibri, Calibri_MSFontService, sans-serif"
   font-size="32px"
   x="1160.9431"
   y="275.24771"
   id="tspan123">=</tspan><tspan
   font-family="Calibri, Calibri_MSFontService, sans-serif"
   font-size="32px"
   x="1184.1101"
   y="275.24771"
   id="tspan125">1</tspan><tspan
   font-size="32px"
   x="1200.2772"
   y="275.24771"
   id="tspan127">ğ‘¥</tspan><tspan
   font-size="23px"
   x="1216.9631"
   y="282.24771"
   id="tspan129">2</tspan><tspan
   font-family="Calibri, Calibri_MSFontService, sans-serif"
   font-size="32px"
   x="657.74609"
   y="382.24771"
   id="tspan131">The solution set is</tspan></text>
    <path
       d="m 1007.3241,346.40868 c 2.75,0.136 4.85,1.13 6.3,2.985 1.45,1.854 2.18,4.724 2.18,8.609 0,1.396 -0.16,3.13 -0.48,5.203 -0.31,2.073 -0.47,3.422 -0.47,4.047 0,1.458 0.3,2.599 0.9,3.422 0.61,0.823 1.49,1.245 2.64,1.266 v 1.343 c -1.16,0.032 -2.04,0.461 -2.64,1.289 -0.6,0.828 -0.9,1.956 -0.9,3.383 0,0.573 0.16,1.995 0.47,4.266 0.32,2.271 0.48,4.005 0.48,5.203 0,3.635 -0.69,6.427 -2.06,8.375 -1.38,1.948 -3.52,2.963 -6.42,3.047 v -1.25 c 0.91,-0.063 1.72,-0.284 2.42,-0.664 0.7,-0.381 1.3,-0.956 1.81,-1.727 0.51,-0.75 0.89,-1.719 1.13,-2.906 0.24,-1.188 0.36,-2.615 0.36,-4.281 0,-0.74 -0.15,-2.305 -0.43,-4.696 -0.28,-2.39 -0.42,-3.846 -0.42,-4.367 0,-1.792 0.38,-3.208 1.14,-4.25 0.76,-1.042 1.46,-1.687 2.1,-1.937 v -0.313 c -0.64,-0.229 -1.34,-0.877 -2.1,-1.945 -0.76,-1.068 -1.14,-2.492 -1.14,-4.274 0,-0.791 0.14,-2.221 0.42,-4.289 0.28,-2.067 0.43,-3.679 0.43,-4.836 0,-1.656 -0.14,-3.07 -0.4,-4.242 -0.27,-1.172 -0.65,-2.133 -1.15,-2.883 -0.5,-0.75 -1.1,-1.31 -1.81,-1.679 -0.7,-0.37 -1.49,-0.586 -2.36,-0.649 z m -95.82501,0 v 1.25 c -0.875,0.063 -1.667,0.279 -2.375,0.649 -0.708,0.369 -1.31,0.929 -1.805,1.679 -0.495,0.75 -0.875,1.711 -1.14,2.883 -0.266,1.172 -0.399,2.586 -0.399,4.242 0,1.157 0.141,2.769 0.422,4.836 0.281,2.068 0.422,3.498 0.422,4.289 0,1.782 -0.383,3.206 -1.148,4.274 -0.766,1.068 -1.461,1.716 -2.086,1.945 v 0.313 c 0.625,0.25 1.32,0.895 2.086,1.937 0.765,1.042 1.148,2.458 1.148,4.25 0,0.521 -0.141,1.977 -0.422,4.367 -0.281,2.391 -0.422,3.956 -0.422,4.696 0,1.666 0.12,3.093 0.36,4.281 0.239,1.187 0.609,2.156 1.109,2.906 0.521,0.771 1.13,1.346 1.828,1.727 0.698,0.38 1.505,0.601 2.422,0.664 v 1.25 c -2.917,-0.084 -5.06,-1.099 -6.43,-3.047 -1.37,-1.948 -2.054,-4.74 -2.054,-8.375 0,-1.198 0.158,-2.932 0.476,-5.203 0.318,-2.271 0.477,-3.693 0.477,-4.266 0,-1.427 -0.3,-2.555 -0.899,-3.383 -0.599,-0.828 -1.482,-1.257 -2.648,-1.289 v -1.343 c 1.156,-0.021 2.036,-0.443 2.64,-1.266 0.605,-0.823 0.907,-1.964 0.907,-3.422 0,-0.625 -0.159,-1.974 -0.477,-4.047 -0.318,-2.073 -0.476,-3.807 -0.476,-5.203 0,-3.885 0.724,-6.755 2.171,-8.609 1.448,-1.855 3.553,-2.849 6.313,-2.985 z"
       fill-rule="evenodd"
       id="path135" />
    <text
       font-family="'Cambria Math', 'Cambria Math_MSFontService', sans-serif"
       font-weight="400"
       font-size="32px"
       id="text139"
       x="912.46509"
       y="382.24771">ğ‘¥<tspan
   font-size="23px"
   x="929.15167"
   y="388.24771"
   id="tspan137">2</tspan></text>
    <path
       d="m 995.3681,346.38168 h 7.436 v 52.5 h -7.436 v -1.359 h 4.546 v -49.781 h -4.546 z m -42.50901,0 h 7.437 v 1.36 h -4.547 v 49.781 h 4.547 v 1.359 h -7.437 z"
       fill-rule="evenodd"
       id="path141" />
    <text
       font-family="Calibri, Calibri_MSFontService, sans-serif"
       font-weight="400"
       font-size="32px"
       id="text149"
       x="960.99908"
       y="364.24771">âˆ’<tspan
   font-family="'Cambria Math', 'Cambria Math_MSFontService', sans-serif"
   font-size="32px"
   x="976.99908"
   y="364.24771"
   id="tspan143">4</tspan><tspan
   font-family="'Cambria Math', 'Cambria Math_MSFontService', sans-serif"
   font-size="32px"
   x="968.99908"
   y="402.24771"
   id="tspan145">1</tspan><tspan
   font-size="32px"
   x="1019.9125"
   y="382.24771"
   id="tspan147">.</tspan></text>
    <path
       d="m 243.76409,270.74768 c 0,-11.322 9.626,-20.5 21.5,-20.5 11.874,0 21.5,9.178 21.5,20.5 0,11.322 -9.626,20.5 -21.5,20.5 -11.874,0 -21.5,-9.178 -21.5,-20.5 z"
       fill="#bdd7ee"
       fill-rule="evenodd"
       fill-opacity="0.501961"
       id="path151" />
    <text
       font-family="'Cambria Math', 'Cambria Math_MSFontService', sans-serif"
       font-weight="400"
       font-size="32px"
       id="text189"
       x="206.1171"
       y="245.24768">1<tspan
   font-size="32px"
   x="255.78377"
   y="245.24768"
   id="tspan153">0</tspan><tspan
   font-size="32px"
   x="305.45038"
   y="245.24768"
   id="tspan155">0</tspan><tspan
   font-size="32px"
   x="206.1171"
   y="282.24771"
   id="tspan157">0</tspan><tspan
   font-size="32px"
   x="255.78377"
   y="282.24771"
   id="tspan159">1</tspan><tspan
   font-size="32px"
   x="305.45038"
   y="282.24771"
   id="tspan161">0</tspan><tspan
   font-size="32px"
   x="774.86615"
   y="242.24768"
   id="tspan163">1</tspan><tspan
   font-size="32px"
   x="824.5321"
   y="242.24768"
   id="tspan165">4</tspan><tspan
   font-size="32px"
   x="874.1991"
   y="242.24768"
   id="tspan167">0</tspan><tspan
   font-size="32px"
   x="774.86615"
   y="280.24771"
   id="tspan169">0</tspan><tspan
   font-size="32px"
   x="824.5321"
   y="280.24771"
   id="tspan171">0</tspan><tspan
   font-size="32px"
   x="874.1991"
   y="280.24771"
   id="tspan173">0</tspan><tspan
   font-size="32px"
   x="777.21613"
   y="122.2477"
   id="tspan175">1</tspan><tspan
   font-size="32px"
   x="826.88312"
   y="122.2477"
   id="tspan177">4</tspan><tspan
   font-size="32px"
   x="876.54913"
   y="122.2477"
   id="tspan179">0</tspan><tspan
   font-size="32px"
   x="777.21613"
   y="159.24768"
   id="tspan181">2</tspan><tspan
   font-size="32px"
   x="826.88312"
   y="159.24768"
   id="tspan183">8</tspan><tspan
   font-size="32px"
   x="876.54913"
   y="159.24768"
   id="tspan185">0</tspan><tspan
   font-family="Calibri, Calibri_MSFontService, sans-serif"
   font-size="27px"
   x="89.720078"
   y="465.24771"
   id="tspan187">Col A is</tspan></text>
    <path
       d="m 282.42409,430.16168 c 1.881,0.167 3.534,1.143 4.957,2.927 1.424,1.784 2.136,4.513 2.136,8.187 0,1.398 -0.255,3.292 -0.765,5.682 -0.509,2.382 -0.764,4.021 -0.764,4.918 0,1.441 0.29,2.549 0.87,3.322 0.589,0.774 1.336,1.191 2.241,1.253 v 1.239 c -0.896,0.061 -1.643,0.483 -2.241,1.265 -0.58,0.783 -0.87,1.886 -0.87,3.31 0,0.896 0.255,2.535 0.764,4.917 0.51,2.391 0.765,4.285 0.765,5.682 0,3.683 -0.712,6.412 -2.136,8.187 -1.423,1.784 -3.076,2.76 -4.957,2.927 v -1.134 c 1.204,-0.176 2.272,-0.958 3.204,-2.347 0.932,-1.388 1.397,-3.537 1.397,-6.446 0,-0.616 -0.059,-1.391 -0.178,-2.327 -0.118,-0.936 -0.301,-2.041 -0.547,-3.316 -0.246,-1.266 -0.428,-2.285 -0.547,-3.058 -0.118,-0.774 -0.178,-1.306 -0.178,-1.596 0,-0.852 0.06,-1.626 0.178,-2.32 0.119,-0.694 0.31,-1.312 0.574,-1.852 0.263,-0.541 0.604,-1.009 1.021,-1.404 0.418,-0.396 0.925,-0.725 1.523,-0.989 v -0.237 c -0.598,-0.264 -1.105,-0.594 -1.523,-0.989 -0.417,-0.396 -0.758,-0.864 -1.021,-1.404 -0.264,-0.541 -0.455,-1.156 -0.574,-1.846 -0.118,-0.69 -0.178,-1.466 -0.178,-2.327 0,-0.29 0.06,-0.822 0.178,-1.595 0.119,-0.774 0.301,-1.793 0.547,-3.059 0.246,-1.274 0.429,-2.379 0.547,-3.315 0.119,-0.936 0.178,-1.712 0.178,-2.327 0,-2.909 -0.465,-5.058 -1.397,-6.447 -0.932,-1.389 -2,-2.171 -3.204,-2.347 z m -98.54,0 v 1.134 c -1.205,0.167 -2.272,0.949 -3.204,2.347 -0.932,1.397 -1.397,3.546 -1.397,6.447 0,1.23 0.241,3.109 0.725,5.636 0.483,2.527 0.725,4.08 0.725,4.66 0,1.714 -0.253,3.107 -0.758,4.179 -0.506,1.073 -1.352,1.868 -2.538,2.387 v 0.237 c 1.186,0.518 2.032,1.314 2.538,2.386 0.505,1.072 0.758,2.465 0.758,4.179 0,0.58 -0.242,2.134 -0.725,4.661 -0.484,2.527 -0.725,4.405 -0.725,5.636 0,2.9 0.465,5.049 1.397,6.446 0.932,1.398 1.999,2.18 3.204,2.347 v 1.134 c -1.881,-0.176 -3.534,-1.151 -4.957,-2.927 -1.424,-1.775 -2.136,-4.504 -2.136,-8.187 0,-1.38 0.255,-3.272 0.764,-5.675 0.51,-2.404 0.765,-4.046 0.765,-4.924 0,-1.433 -0.292,-2.538 -0.877,-3.316 -0.584,-0.778 -1.329,-1.198 -2.234,-1.259 v -1.239 c 0.905,-0.062 1.65,-0.482 2.234,-1.259 0.585,-0.778 0.877,-1.884 0.877,-3.316 0,-0.879 -0.255,-2.52 -0.765,-4.924 -0.509,-2.404 -0.764,-4.296 -0.764,-5.676 0,-3.682 0.712,-6.411 2.136,-8.187 1.423,-1.775 3.076,-2.751 4.957,-2.927 z"
       fill-rule="evenodd"
       id="path191" />
    <path
       d="m 223.04709,434.92168 h 6.275 v 44.297 h -6.275 v -1.147 h 3.836 v -42.003 h -3.836 z m -35.508,0 h 6.276 v 1.147 h -3.837 v 42.003 h 3.837 v 1.147 h -6.276 z"
       fill-rule="evenodd"
       id="path193" />
    <text
       font-family="'Cambria Math', 'Cambria Math_MSFontService', sans-serif"
       font-weight="400"
       font-size="27px"
       id="text201"
       x="200.95309"
       y="450.24771">1<tspan
   font-family="Calibri, Calibri_MSFontService, sans-serif"
   font-size="27px"
   x="194.28642"
   y="482.24771"
   id="tspan195">âˆ’</tspan><tspan
   font-size="27px"
   x="207.61977"
   y="482.24771"
   id="tspan197">1</tspan><tspan
   font-size="27px"
   x="236.6398"
   y="465.24771"
   id="tspan199">,</tspan></text>
    <path
       d="m 272.12009,430.21468 h 6.631 v 53.71 h -6.631 v -1.213 h 4.047 v -51.284 h -4.047 z m -22.527,0 h 6.631 v 1.213 h -4.047 v 51.284 h 4.047 v 1.213 h -6.631 z"
       fill-rule="evenodd"
       id="path203" />
    <text
       font-family="'Cambria Math', 'Cambria Math_MSFontService', sans-serif"
       font-weight="400"
       font-size="27px"
       id="text215"
       x="256.69305"
       y="450.24771">4<tspan
   font-size="27px"
   x="256.69305"
   y="481.24771"
   id="tspan205">3</tspan><tspan
   font-family="Calibri, Calibri_MSFontService, sans-serif"
   font-size="27px"
   x="297.95978"
   y="465.24771"
   id="tspan207">and has</tspan><tspan
   fill="#c00000"
   font-family="Calibri, Calibri_MSFontService, sans-serif"
   font-size="27px"
   x="388.12607"
   y="465.24771"
   id="tspan209">2</tspan><tspan
   font-family="Calibri, Calibri_MSFontService, sans-serif"
   font-size="27px"
   x="407.62607"
   y="465.24771"
   id="tspan211">dimensions.</tspan><tspan
   font-family="Calibri, Calibri_MSFontService, sans-serif"
   font-size="27px"
   x="89.720078"
   y="532.24774"
   id="tspan213">Nul A is</tspan></text>
    <path
       d="m 223.38409,497.47368 c 1.881,0.167 3.533,1.142 4.957,2.926 1.424,1.784 2.136,4.513 2.136,8.187 0,1.398 -0.255,3.292 -0.765,5.682 -0.509,2.382 -0.764,4.021 -0.764,4.918 0,1.441 0.29,2.549 0.87,3.322 0.589,0.774 1.336,1.191 2.241,1.253 v 1.239 c -0.896,0.061 -1.643,0.483 -2.241,1.265 -0.58,0.783 -0.87,1.886 -0.87,3.31 0,0.896 0.255,2.535 0.764,4.917 0.51,2.391 0.765,4.285 0.765,5.682 0,3.683 -0.712,6.412 -2.136,8.187 -1.424,1.784 -3.076,2.76 -4.957,2.927 v -1.134 c 1.204,-0.176 2.272,-0.958 3.204,-2.347 0.932,-1.388 1.397,-3.537 1.397,-6.446 0,-0.616 -0.059,-1.391 -0.178,-2.327 -0.118,-0.936 -0.301,-2.041 -0.547,-3.316 -0.246,-1.265 -0.428,-2.285 -0.547,-3.058 -0.119,-0.774 -0.178,-1.306 -0.178,-1.596 0,-0.852 0.059,-1.626 0.178,-2.32 0.119,-0.694 0.31,-1.312 0.574,-1.852 0.263,-0.541 0.604,-1.009 1.021,-1.404 0.418,-0.396 0.925,-0.725 1.523,-0.989 v -0.237 c -0.598,-0.264 -1.105,-0.594 -1.523,-0.989 -0.417,-0.396 -0.758,-0.864 -1.021,-1.404 -0.264,-0.541 -0.455,-1.156 -0.574,-1.846 -0.119,-0.69 -0.178,-1.466 -0.178,-2.327 0,-0.29 0.059,-0.822 0.178,-1.595 0.119,-0.773 0.301,-1.793 0.547,-3.059 0.246,-1.274 0.429,-2.379 0.547,-3.315 0.119,-0.936 0.178,-1.712 0.178,-2.327 0,-2.909 -0.465,-5.058 -1.397,-6.447 -0.932,-1.389 -2,-2.171 -3.204,-2.347 z m -36.501,0 v 1.133 c -1.204,0.167 -2.271,0.95 -3.203,2.347 -0.932,1.397 -1.398,3.546 -1.398,6.447 0,1.23 0.242,3.109 0.725,5.636 0.484,2.527 0.726,4.08 0.726,4.66 0,1.714 -0.253,3.107 -0.758,4.179 -0.506,1.073 -1.352,1.868 -2.538,2.387 v 0.237 c 1.186,0.518 2.032,1.314 2.538,2.386 0.505,1.072 0.758,2.465 0.758,4.179 0,0.58 -0.242,2.134 -0.726,4.661 -0.483,2.527 -0.725,4.405 -0.725,5.636 0,2.9 0.466,5.049 1.398,6.446 0.932,1.398 1.999,2.18 3.203,2.347 v 1.134 c -1.88,-0.176 -3.533,-1.151 -4.957,-2.927 -1.423,-1.775 -2.135,-4.504 -2.135,-8.187 0,-1.38 0.255,-3.272 0.764,-5.675 0.51,-2.404 0.765,-4.046 0.765,-4.924 0,-1.433 -0.292,-2.538 -0.877,-3.316 -0.584,-0.778 -1.329,-1.198 -2.234,-1.259 v -1.239 c 0.905,-0.062 1.65,-0.482 2.234,-1.259 0.585,-0.778 0.877,-1.883 0.877,-3.316 0,-0.879 -0.255,-2.52 -0.765,-4.924 -0.509,-2.404 -0.764,-4.296 -0.764,-5.676 0,-3.682 0.712,-6.411 2.135,-8.187 1.424,-1.775 3.077,-2.751 4.957,-2.926 z"
       fill-rule="evenodd"
       id="path217" />
    <path
       d="m 213.08009,497.52568 h 6.631 v 53.71 h -6.631 v -1.213 h 4.047 v -51.284 h -4.047 z m -22.528,0 h 6.632 v 1.213 h -4.048 v 51.284 h 4.048 v 1.213 h -6.632 z"
       fill-rule="evenodd"
       id="path219" />
    <text
       font-family="'Cambria Math', 'Cambria Math_MSFontService', sans-serif"
       font-weight="400"
       font-size="27px"
       id="text231"
       x="197.65311"
       y="517.24774">0<tspan
   font-size="27px"
   x="197.65311"
   y="549.24774"
   id="tspan221">0</tspan><tspan
   font-family="Calibri, Calibri_MSFontService, sans-serif"
   font-size="27px"
   x="238.91978"
   y="532.24774"
   id="tspan223">and has</tspan><tspan
   fill="#c00000"
   font-family="Calibri, Calibri_MSFontService, sans-serif"
   font-size="27px"
   x="329.08606"
   y="532.24774"
   id="tspan225">0</tspan><tspan
   font-family="Calibri, Calibri_MSFontService, sans-serif"
   font-size="27px"
   x="348.58606"
   y="532.24774"
   id="tspan227">dimensions.</tspan><tspan
   font-family="Calibri, Calibri_MSFontService, sans-serif"
   font-size="27px"
   x="657.74512"
   y="463.24771"
   id="tspan229">Col A is</tspan></text>
    <path
       d="m 788.67609,432.94768 c 2.32,0.114 4.093,0.954 5.32,2.518 1.226,1.565 1.839,3.986 1.839,7.264 0,1.178 -0.134,2.641 -0.402,4.39 -0.269,1.75 -0.403,2.888 -0.403,3.415 0,1.231 0.255,2.193 0.765,2.887 0.51,0.695 1.253,1.051 2.228,1.068 v 1.134 c -0.984,0.026 -1.729,0.389 -2.235,1.088 -0.505,0.698 -0.758,1.65 -0.758,2.854 0,0.483 0.134,1.683 0.403,3.599 0.268,1.916 0.402,3.379 0.402,4.39 0,3.067 -0.58,5.423 -1.741,7.066 -1.16,1.644 -2.966,2.501 -5.418,2.571 v -1.054 c 0.773,-0.053 1.455,-0.24 2.043,-0.561 0.589,-0.321 1.099,-0.806 1.53,-1.457 0.43,-0.632 0.747,-1.45 0.949,-2.452 0.202,-1.002 0.303,-2.206 0.303,-3.612 0,-0.624 -0.119,-1.945 -0.356,-3.962 -0.237,-2.017 -0.356,-3.245 -0.356,-3.684 0,-1.512 0.321,-2.707 0.963,-3.586 0.641,-0.879 1.23,-1.424 1.766,-1.635 v -0.264 c -0.536,-0.193 -1.125,-0.74 -1.766,-1.641 -0.642,-0.901 -0.963,-2.103 -0.963,-3.606 0,-0.668 0.119,-1.874 0.356,-3.619 0.237,-1.744 0.356,-3.105 0.356,-4.08 0,-1.398 -0.112,-2.591 -0.336,-3.579 -0.224,-0.989 -0.547,-1.8 -0.969,-2.433 -0.422,-0.633 -0.929,-1.105 -1.523,-1.417 -0.593,-0.312 -1.259,-0.494 -1.997,-0.547 z m -35.805,0 v 1.055 c -0.738,0.053 -1.406,0.235 -2.004,0.547 -0.597,0.312 -1.105,0.784 -1.522,1.417 -0.418,0.633 -0.739,1.444 -0.963,2.433 -0.224,0.988 -0.336,2.181 -0.336,3.579 0,0.975 0.119,2.336 0.356,4.08 0.237,1.745 0.356,2.951 0.356,3.619 0,1.503 -0.323,2.705 -0.969,3.606 -0.646,0.901 -1.233,1.448 -1.76,1.641 v 0.264 c 0.527,0.211 1.114,0.756 1.76,1.635 0.646,0.879 0.969,2.074 0.969,3.586 0,0.439 -0.119,1.667 -0.356,3.684 -0.237,2.017 -0.356,3.338 -0.356,3.962 0,1.406 0.101,2.61 0.303,3.612 0.202,1.002 0.514,1.82 0.936,2.452 0.44,0.651 0.954,1.136 1.543,1.457 0.589,0.321 1.27,0.508 2.043,0.561 v 1.054 c -2.461,-0.07 -4.269,-0.927 -5.425,-2.571 -1.156,-1.643 -1.734,-3.999 -1.734,-7.066 0,-1.011 0.135,-2.474 0.403,-4.39 0.268,-1.916 0.402,-3.116 0.402,-3.599 0,-1.204 -0.253,-2.156 -0.758,-2.854 -0.506,-0.699 -1.251,-1.062 -2.235,-1.088 v -1.134 c 0.976,-0.017 1.718,-0.373 2.228,-1.068 0.51,-0.694 0.765,-1.656 0.765,-2.887 0,-0.527 -0.134,-1.665 -0.402,-3.415 -0.268,-1.749 -0.403,-3.212 -0.403,-4.39 0,-3.278 0.611,-5.699 1.833,-7.264 1.222,-1.564 2.997,-2.404 5.326,-2.518 z"
       fill-rule="evenodd"
       id="path233" />
    <path
       d="m 778.71209,432.92168 h 6.275 v 44.297 h -6.275 v -1.147 h 3.836 v -42.003 h -3.836 z m -22.174,0 h 6.275 v 1.147 h -3.836 v 42.003 h 3.836 v 1.147 h -6.275 z"
       fill-rule="evenodd"
       id="path235" />
    <text
       font-family="'Cambria Math', 'Cambria Math_MSFontService', sans-serif"
       font-weight="400"
       font-size="27px"
       id="text247"
       x="763.2851"
       y="448.24771">1<tspan
   font-size="27px"
   x="763.2851"
   y="480.24771"
   id="tspan237">2</tspan><tspan
   font-family="Calibri, Calibri_MSFontService, sans-serif"
   font-size="27px"
   x="805.15839"
   y="463.24771"
   id="tspan239">and has</tspan><tspan
   fill="#c00000"
   font-family="Calibri, Calibri_MSFontService, sans-serif"
   font-size="27px"
   x="895.32507"
   y="463.24771"
   id="tspan241">1</tspan><tspan
   font-family="Calibri, Calibri_MSFontService, sans-serif"
   font-size="27px"
   x="914.82507"
   y="463.24771"
   id="tspan243">dimension.</tspan><tspan
   font-family="Calibri, Calibri_MSFontService, sans-serif"
   font-size="27px"
   x="657.74512"
   y="532.24774"
   id="tspan245">Nul A is</tspan></text>
    <path
       d="m 805.00909,502.29168 c 2.321,0.114 4.094,0.954 5.32,2.518 1.226,1.565 1.839,3.986 1.839,7.264 0,1.178 -0.134,2.642 -0.402,4.391 -0.268,1.749 -0.402,2.887 -0.402,3.414 0,1.231 0.255,2.193 0.764,2.887 0.51,0.695 1.253,1.051 2.228,1.068 v 1.134 c -0.984,0.026 -1.729,0.389 -2.234,1.088 -0.506,0.698 -0.758,1.65 -0.758,2.854 0,0.483 0.134,1.683 0.402,3.599 0.268,1.916 0.402,3.379 0.402,4.39 0,3.068 -0.58,5.423 -1.74,7.067 -1.16,1.643 -2.967,2.5 -5.419,2.57 v -1.054 c 0.774,-0.053 1.455,-0.24 2.044,-0.561 0.589,-0.32 1.098,-0.806 1.529,-1.456 0.431,-0.633 0.747,-1.451 0.949,-2.453 0.202,-1.002 0.303,-2.206 0.303,-3.612 0,-0.624 -0.118,-1.944 -0.356,-3.962 -0.237,-2.017 -0.355,-3.245 -0.355,-3.684 0,-1.512 0.32,-2.707 0.962,-3.586 0.642,-0.879 1.23,-1.424 1.767,-1.635 v -0.264 c -0.537,-0.193 -1.125,-0.74 -1.767,-1.641 -0.642,-0.901 -0.962,-2.103 -0.962,-3.606 0,-0.668 0.118,-1.874 0.355,-3.619 0.238,-1.744 0.356,-3.104 0.356,-4.08 0,-1.398 -0.112,-2.591 -0.336,-3.579 -0.224,-0.989 -0.547,-1.8 -0.969,-2.433 -0.422,-0.633 -0.929,-1.105 -1.522,-1.417 -0.594,-0.312 -1.259,-0.494 -1.998,-0.547 z m -49.138,0 v 1.055 c -0.738,0.053 -1.406,0.235 -2.004,0.547 -0.597,0.312 -1.105,0.784 -1.522,1.417 -0.418,0.633 -0.739,1.444 -0.963,2.433 -0.224,0.988 -0.336,2.181 -0.336,3.579 0,0.976 0.119,2.336 0.356,4.08 0.237,1.745 0.356,2.951 0.356,3.619 0,1.503 -0.323,2.705 -0.969,3.606 -0.646,0.901 -1.233,1.448 -1.76,1.641 v 0.264 c 0.527,0.211 1.114,0.756 1.76,1.635 0.646,0.879 0.969,2.074 0.969,3.586 0,0.439 -0.119,1.667 -0.356,3.684 -0.237,2.018 -0.356,3.338 -0.356,3.962 0,1.406 0.101,2.61 0.303,3.612 0.202,1.002 0.514,1.82 0.936,2.453 0.44,0.65 0.954,1.136 1.543,1.456 0.589,0.321 1.27,0.508 2.043,0.561 v 1.054 c -2.461,-0.07 -4.269,-0.927 -5.425,-2.57 -1.156,-1.644 -1.734,-3.999 -1.734,-7.067 0,-1.011 0.135,-2.474 0.403,-4.39 0.268,-1.916 0.402,-3.116 0.402,-3.599 0,-1.204 -0.253,-2.156 -0.758,-2.854 -0.506,-0.699 -1.251,-1.062 -2.235,-1.088 v -1.134 c 0.976,-0.017 1.718,-0.373 2.228,-1.068 0.51,-0.694 0.765,-1.656 0.765,-2.887 0,-0.527 -0.134,-1.665 -0.402,-3.414 -0.268,-1.749 -0.403,-3.213 -0.403,-4.391 0,-3.278 0.611,-5.699 1.833,-7.264 1.222,-1.564 2.997,-2.404 5.326,-2.518 z"
       fill-rule="evenodd"
       id="path249" />
    <path
       d="m 795.04509,502.26568 h 6.276 v 44.297 h -6.276 v -1.147 h 3.837 v -42.003 h -3.837 z m -35.507,0 h 6.275 v 1.147 h -3.836 v 42.003 h 3.836 v 1.147 h -6.275 z"
       fill-rule="evenodd"
       id="path251" />
    <text
       font-family="Calibri, Calibri_MSFontService, sans-serif"
       font-weight="400"
       font-size="27px"
       id="text263"
       x="766.2851"
       y="518.24774">âˆ’<tspan
   font-family="'Cambria Math', 'Cambria Math_MSFontService', sans-serif"
   font-size="27px"
   x="779.61841"
   y="518.24774"
   id="tspan253">4</tspan><tspan
   font-family="'Cambria Math', 'Cambria Math_MSFontService', sans-serif"
   font-size="27px"
   x="772.95172"
   y="549.24774"
   id="tspan255">1</tspan><tspan
   font-size="27px"
   x="821.49182"
   y="532.24774"
   id="tspan257">and has</tspan><tspan
   fill="#c00000"
   font-size="27px"
   x="911.65808"
   y="532.24774"
   id="tspan259">1</tspan><tspan
   font-size="27px"
   x="931.15808"
   y="532.24774"
   id="tspan261">dimension.</tspan></text>
    <path
       d="m 783.60682,597.98967 c 0,-6.963 5.644,-12.607 12.607,-12.607 h 9.786 c 6.963,0 12.607,5.644 12.607,12.607 v 10.786 c 0,6.963 -5.644,12.607 -12.607,12.607 h -9.786 c -6.963,0 -12.607,-5.644 -12.607,-12.607 z"
       fill="#7030a0"
       fill-rule="evenodd"
       fill-opacity="0.301961"
       id="path265" />
    <text
       font-family="Calibri, Calibri_MSFontService, sans-serif"
       font-weight="400"
       font-size="27px"
       id="text269"
       x="827.86084"
       y="612.38275">Homogenous linear system i.e. A <tspan
   font-family="'Cambria Math', 'Cambria Math_MSFontService', sans-serif"
   font-size="27px"
   x="1181.4939"
   y="612.38275"
   id="tspan267">ğ‘¥</tspan></text>
    <path
       d="m 1195.6572,594.75617 -3.309,2.8609 -0.6988,-0.791 2.1094,-1.8326 h -8.042 v -1.2392 h 8.042 l -2.1094,-1.8325 0.6988,-0.7911 3.309,2.8609 z"
       id="path271" />
    <text
       font-family="Calibri, Calibri_MSFontService, sans-serif"
       font-weight="400"
       font-size="27px"
       id="text273"
       x="1202.4669"
       y="612.38275">= 0</text>
  </g>
</svg>
