<?xml version="1.0" encoding="UTF-8" standalone="no"?>
<svg
   width="1160"
   height="590"
   overflow="hidden"
   version="1.1"
   id="svg203"
   sodipodi:docname="linear_systems-consistent_solutions.svg"
   inkscape:version="1.2 (dc2aedaf03, 2022-05-15)"
   xmlns:inkscape="http://www.inkscape.org/namespaces/inkscape"
   xmlns:sodipodi="http://sodipodi.sourceforge.net/DTD/sodipodi-0.dtd"
   xmlns="http://www.w3.org/2000/svg"
   xmlns:svg="http://www.w3.org/2000/svg">
  <sodipodi:namedview
     id="namedview205"
     pagecolor="#ffffff"
     bordercolor="#000000"
     borderopacity="0.25"
     inkscape:showpageshadow="2"
     inkscape:pageopacity="0.0"
     inkscape:pagecheckerboard="0"
     inkscape:deskcolor="#d1d1d1"
     showgrid="false"
     inkscape:zoom="0.32777778"
     inkscape:cx="385.9322"
     inkscape:cy="360"
     inkscape:window-width="2560"
     inkscape:window-height="1494"
     inkscape:window-x="-11"
     inkscape:window-y="-11"
     inkscape:window-maximized="1"
     inkscape:current-layer="svg203" />
  <defs
     id="defs5">
    <clipPath
       id="clip0">
      <rect
         x="0"
         y="0"
         width="1280"
         height="720"
         id="rect2" />
    </clipPath>
  </defs>
  <g
     clip-path="url(#clip0)"
     id="g201"
     transform="translate(-57.966101,-51.864406)">
    <rect
       x="0"
       y="0"
       width="1280"
       height="720"
       fill="#ffffff"
       id="rect7" />
    <text
       font-family="'Cambria Math', 'Cambria Math_MSFontService', sans-serif"
       font-weight="400"
       font-size="43px"
       transform="translate(246.394,141)"
       id="text21">3<tspan
   font-size="43px"
   x="23.6667"
   y="0"
   id="tspan9">ЁЭСе</tspan><tspan
   font-size="31px"
   x="44.9333"
   y="8"
   id="tspan11">1</tspan><tspan
   font-family="Calibri, Calibri_MSFontService, sans-serif"
   font-size="43px"
   x="64.706703"
   y="0"
   id="tspan13" /><tspan
   font-family="Calibri, Calibri_MSFontService, sans-serif"
   font-size="43px"
   x="74.373299"
   y="0"
   id="tspan15">=</tspan><tspan
   font-size="43px"
   x="95.706703"
   y="0"
   id="tspan17" /><tspan
   font-size="43px"
   x="105.04"
   y="0"
   id="tspan19">2</tspan></text>
    <path
       d="m 142.169,190.591 c 0.434,0 0.815,0.049 1.144,0.147 0.329,0.098 0.619,0.248 0.871,0.451 0.252,0.203 0.476,0.466 0.672,0.788 0.196,0.322 0.385,0.759 0.567,1.312 0.182,0.553 0.354,1.239 0.515,2.058 0.16,0.819 0.304,1.669 0.43,2.551 h 0.21 c 1.344,-1.89 2.362,-3.272 3.055,-4.147 0.693,-0.875 1.277,-1.526 1.753,-1.953 0.476,-0.427 0.934,-0.728 1.375,-0.902 0.441,-0.175 1.026,-0.263 1.753,-0.263 0.658,0 1.197,0.084 1.617,0.252 l -0.84,3.8 h -1.469 c -0.084,-0.588 -0.329,-0.882 -0.735,-0.882 -0.126,0 -0.259,0.021 -0.399,0.063 -0.14,0.042 -0.312,0.133 -0.515,0.273 -0.203,0.14 -0.5,0.413 -0.892,0.819 -0.392,0.406 -0.833,0.903 -1.323,1.491 -0.49,0.588 -0.994,1.204 -1.511,1.848 l -1.428,1.784 c 0.252,1.344 0.49,2.506 0.714,3.486 0.224,0.979 0.423,1.795 0.598,2.446 0.175,0.651 0.329,1.165 0.462,1.543 0.133,0.378 0.276,0.661 0.43,0.85 0.154,0.189 0.312,0.322 0.473,0.399 0.161,0.077 0.346,0.116 0.556,0.116 0.378,0 0.746,-0.147 1.103,-0.441 0.356,-0.294 0.871,-0.959 1.543,-1.995 l 1.364,0.903 c -0.979,1.456 -1.865,2.481 -2.656,3.076 -0.79,0.595 -1.732,0.892 -2.823,0.892 -0.602,0 -1.113,-0.108 -1.533,-0.325 -0.42,-0.217 -0.784,-0.564 -1.092,-1.04 -0.308,-0.475 -0.581,-1.217 -0.819,-2.225 -0.434,-1.792 -0.7,-3.164 -0.798,-4.115 h -0.21 c -1.483,2.085 -2.586,3.583 -3.307,4.493 -0.72,0.91 -1.315,1.582 -1.784,2.015 -0.469,0.434 -0.924,0.739 -1.365,0.914 -0.441,0.175 -1.025,0.262 -1.753,0.262 -0.658,0 -1.197,-0.084 -1.617,-0.252 l 0.84,-3.8 h 1.47 c 0.084,0.588 0.329,0.882 0.735,0.882 0.196,0 0.402,-0.053 0.619,-0.158 0.217,-0.105 0.528,-0.357 0.934,-0.756 0.406,-0.398 0.966,-1.025 1.68,-1.879 0.714,-0.854 1.75,-2.134 3.107,-3.842 -0.21,-1.106 -0.427,-2.17 -0.65,-3.191 -0.224,-1.022 -0.455,-1.974 -0.693,-2.856 -0.238,-0.882 -0.434,-1.459 -0.588,-1.732 -0.154,-0.273 -0.319,-0.462 -0.494,-0.567 -0.175,-0.105 -0.395,-0.157 -0.661,-0.157 -0.294,0 -0.56,0.066 -0.798,0.199 -0.238,0.133 -0.497,0.364 -0.777,0.693 -0.28,0.329 -0.651,0.843 -1.113,1.543 l -1.364,-0.903 c 0.882,-1.329 1.728,-2.323 2.54,-2.981 0.812,-0.658 1.771,-0.987 2.877,-0.987 z"
       fill-rule="evenodd"
       id="path23" />
    <text
       fill="#000000"
       fill-opacity="0"
       font-family="Arial, Arial_MSFontService, sans-serif"
       font-size="20.7651px"
       x="134.505"
       y="208.761"
       id="text25">ЁЭСе</text>
    <path
       d="m 165.359,200.231 h 0.924 c -0.021,0.555 -0.036,1.052 -0.046,1.491 -0.01,0.439 -0.018,0.865 -0.023,1.279 -0.005,0.414 -0.007,0.822 -0.007,1.226 v 11.504 c 0,0.313 0.01,0.583 0.03,0.81 0.02,0.227 0.053,0.418 0.099,0.575 0.045,0.156 0.105,0.29 0.181,0.401 0.076,0.111 0.164,0.207 0.265,0.288 0.121,0.121 0.283,0.214 0.484,0.28 0.202,0.065 0.46,0.121 0.772,0.166 0.313,0.046 0.689,0.081 1.128,0.106 0.439,0.025 0.966,0.043 1.582,0.053 v 1.317 h -12.004 v -1.317 c 0.596,-0.02 1.1,-0.043 1.514,-0.068 0.414,-0.025 0.767,-0.061 1.06,-0.106 0.292,-0.045 0.527,-0.096 0.704,-0.151 0.176,-0.056 0.33,-0.124 0.461,-0.205 0.142,-0.091 0.263,-0.189 0.364,-0.295 0.1,-0.106 0.181,-0.24 0.242,-0.401 0.06,-0.161 0.108,-0.358 0.144,-0.59 0.035,-0.232 0.052,-0.52 0.052,-0.863 v -10.853 c 0,-0.394 -0.075,-0.671 -0.227,-0.833 -0.151,-0.161 -0.368,-0.242 -0.65,-0.242 -0.313,0 -0.777,0.162 -1.393,0.484 -0.616,0.323 -1.413,0.803 -2.392,1.438 -0.131,-0.232 -0.252,-0.464 -0.363,-0.696 -0.111,-0.232 -0.227,-0.469 -0.348,-0.711 1.251,-0.686 2.49,-1.37 3.716,-2.051 1.226,-0.681 2.47,-1.36 3.731,-2.036 z"
       fill-rule="evenodd"
       id="path27" />
    <text
       fill="#000000"
       fill-opacity="0"
       font-family="Arial, Arial_MSFontService, sans-serif"
       font-size="19.4961px"
       x="157.912"
       y="217.28999"
       id="text29">1</text>
    <text
       font-family="Calibri, Calibri_MSFontService, sans-serif"
       font-weight="400"
       font-size="43px"
       transform="translate(184.249,211)"
       id="text31">=</text>
    <path
       d="m 224.255,166.418 c 0.807,0 1.562,0.086 2.263,0.258 0.701,0.171 1.309,0.431 1.824,0.779 0.515,0.348 0.916,0.782 1.203,1.302 0.288,0.52 0.432,1.122 0.432,1.809 0,0.646 -0.091,1.216 -0.273,1.71 -0.181,0.495 -0.461,0.944 -0.84,1.347 -0.378,0.404 -0.843,0.77 -1.392,1.098 -0.55,0.328 -1.184,0.643 -1.9,0.946 v 0.181 c 0.676,0.121 1.307,0.316 1.892,0.583 0.585,0.268 1.097,0.606 1.536,1.014 0.439,0.409 0.785,0.881 1.037,1.416 0.252,0.534 0.379,1.125 0.379,1.771 0,0.807 -0.152,1.556 -0.454,2.247 -0.303,0.692 -0.757,1.29 -1.363,1.794 -0.605,0.505 -1.352,0.898 -2.24,1.181 -0.888,0.282 -1.927,0.424 -3.118,0.424 -0.939,0 -1.892,-0.094 -2.861,-0.28 -0.969,-0.187 -1.887,-0.432 -2.755,-0.735 v -3.269 h 1.953 c 0.161,0.504 0.353,0.936 0.575,1.294 0.222,0.358 0.482,0.651 0.779,0.878 0.298,0.227 0.641,0.391 1.03,0.492 0.388,0.101 0.83,0.151 1.324,0.151 1.302,0 2.288,-0.31 2.959,-0.931 0.672,-0.62 1.007,-1.561 1.007,-2.823 0,-1.342 -0.441,-2.358 -1.324,-3.05 -0.883,-0.691 -2.193,-1.036 -3.928,-1.036 h -1.332 v -1.454 c 1.059,-0.05 1.975,-0.199 2.747,-0.446 0.772,-0.247 1.415,-0.568 1.93,-0.961 0.514,-0.394 0.898,-0.853 1.15,-1.378 0.252,-0.525 0.379,-1.085 0.379,-1.68 0,-0.969 -0.288,-1.733 -0.863,-2.293 -0.575,-0.56 -1.408,-0.84 -2.498,-0.84 -0.918,0 -1.687,0.252 -2.308,0.757 -0.621,0.504 -1.098,1.256 -1.431,2.255 h -1.922 v -2.982 c 1.191,-0.505 2.314,-0.885 3.368,-1.143 1.055,-0.257 2.066,-0.386 3.035,-0.386 z"
       fill-rule="evenodd"
       id="path33" />
    <text
       fill="#000000"
       fill-opacity="0"
       font-family="Arial, Arial_MSFontService, sans-serif"
       font-size="19.8594px"
       x="217.625"
       y="183.795"
       id="text35">3</text>
    <path
       d="m 224.285,212.878 c 1.05,0 1.945,0.119 2.687,0.356 0.742,0.237 1.345,0.557 1.809,0.961 0.464,0.404 0.8,0.888 1.006,1.453 0.207,0.565 0.311,1.176 0.311,1.832 0,0.393 -0.028,0.759 -0.084,1.097 -0.055,0.338 -0.151,0.671 -0.287,0.999 -0.136,0.328 -0.315,0.659 -0.537,0.992 -0.222,0.333 -0.5,0.686 -0.833,1.059 -0.252,0.323 -0.58,0.697 -0.984,1.12 -0.404,0.424 -0.845,0.878 -1.324,1.363 -0.48,0.484 -0.982,0.989 -1.506,1.513 -0.525,0.525 -1.035,1.045 -1.529,1.559 -0.495,0.515 -0.949,1.015 -1.363,1.499 -0.413,0.484 -0.751,0.928 -1.014,1.332 h 5.601 c 0.474,0 0.853,-0.018 1.135,-0.053 0.283,-0.035 0.517,-0.114 0.704,-0.235 0.187,-0.121 0.346,-0.305 0.477,-0.552 0.131,-0.247 0.282,-0.588 0.454,-1.022 h 1.408 c -0.051,0.717 -0.099,1.438 -0.144,2.165 -0.046,0.726 -0.094,1.448 -0.144,2.164 h -12.821 v -0.787 c 0.242,-0.545 0.525,-1.082 0.848,-1.612 0.323,-0.53 0.686,-1.067 1.09,-1.612 0.403,-0.545 0.862,-1.107 1.377,-1.688 0.515,-0.58 1.085,-1.183 1.711,-1.809 0.948,-0.948 1.72,-1.758 2.316,-2.429 0.595,-0.671 1.064,-1.269 1.407,-1.794 0.343,-0.524 0.578,-1.009 0.704,-1.453 0.126,-0.444 0.189,-0.918 0.189,-1.423 0,-0.514 -0.073,-0.989 -0.219,-1.423 -0.147,-0.433 -0.356,-0.802 -0.628,-1.104 -0.273,-0.303 -0.618,-0.54 -1.037,-0.712 -0.419,-0.171 -0.901,-0.257 -1.446,-0.257 -0.938,0 -1.725,0.255 -2.361,0.764 -0.636,0.51 -1.13,1.249 -1.484,2.218 h -1.982 v -2.952 c 1.291,-0.535 2.479,-0.923 3.564,-1.165 1.085,-0.243 2.061,-0.364 2.929,-0.364 z"
       fill-rule="evenodd"
       id="path37" />
    <text
       fill="#000000"
       fill-opacity="0"
       font-family="Arial, Arial_MSFontService, sans-serif"
       font-size="19.6021px"
       x="217.30701"
       y="230.03"
       id="text39">2</text>
    <path
       d="m 214.875,197.02 h 18 v 3 h -18 z"
       fill-rule="evenodd"
       id="path41" />
    <text
       font-family="Calibri, Calibri_MSFontService, sans-serif"
       font-weight="400"
       font-size="32px"
       transform="translate(242.915,211)"
       id="text79">is a copy of <tspan
   font-family="Cambria, Cambria_MSFontService, sans-serif"
   font-size="32px"
   x="151.74699"
   y="0"
   id="tspan43">R</tspan><tspan
   font-family="Cambria, Cambria_MSFontService, sans-serif"
   font-size="21px"
   x="171.58"
   y="-10"
   id="tspan45">0</tspan><tspan
   font-size="32px"
   x="190.41299"
   y="0"
   id="tspan47">in</tspan><tspan
   font-family="Cambria, Cambria_MSFontService, sans-serif"
   font-size="32px"
   x="221.58"
   y="0"
   id="tspan49">R</tspan><tspan
   font-family="Cambria, Cambria_MSFontService, sans-serif"
   font-size="21px"
   x="241.41299"
   y="-10"
   id="tspan51">1</tspan><tspan
   font-family="'Cambria Math', 'Cambria Math_MSFontService', sans-serif"
   font-size="43px"
   x="541.54999"
   y="-71"
   id="tspan53">3</tspan><tspan
   font-family="'Cambria Math', 'Cambria Math_MSFontService', sans-serif"
   font-size="43px"
   x="565.216"
   y="-71"
   id="tspan55">ЁЭСе</tspan><tspan
   font-family="'Cambria Math', 'Cambria Math_MSFontService', sans-serif"
   font-size="31px"
   x="586.48297"
   y="-62"
   id="tspan57">1</tspan><tspan
   font-size="43px"
   x="606.25598"
   y="-71"
   id="tspan59">тИТ</tspan><tspan
   font-size="43px"
   x="627.59003"
   y="-71"
   id="tspan61" /><tspan
   font-family="'Cambria Math', 'Cambria Math_MSFontService', sans-serif"
   font-size="43px"
   x="637.25598"
   y="-71"
   id="tspan63">2</tspan><tspan
   font-family="'Cambria Math', 'Cambria Math_MSFontService', sans-serif"
   font-size="43px"
   x="660.92297"
   y="-71"
   id="tspan65">ЁЭСе</tspan><tspan
   font-family="'Cambria Math', 'Cambria Math_MSFontService', sans-serif"
   font-size="31px"
   x="683.17603"
   y="-62"
   id="tspan67">2</tspan><tspan
   font-family="'Cambria Math', 'Cambria Math_MSFontService', sans-serif"
   font-size="43px"
   x="702.95001"
   y="-71"
   id="tspan69" /><tspan
   font-size="43px"
   x="712.28302"
   y="-71"
   id="tspan71">=</tspan><tspan
   font-family="'Cambria Math', 'Cambria Math_MSFontService', sans-serif"
   font-size="43px"
   x="733.61603"
   y="-71"
   id="tspan73" /><tspan
   font-family="'Cambria Math', 'Cambria Math_MSFontService', sans-serif"
   font-size="43px"
   x="742.95001"
   y="-71"
   id="tspan75">2</tspan><tspan
   font-size="43px"
   x="401.61301"
   y="-1"
   id="tspan77">{(</tspan></text>
    <path
       d="m 679.322,189.163 c 0.433,0 0.815,0.049 1.144,0.147 0.329,0.098 0.619,0.248 0.871,0.451 0.252,0.203 0.476,0.466 0.672,0.788 0.196,0.322 0.385,0.759 0.567,1.312 0.182,0.553 0.353,1.239 0.514,2.058 0.161,0.818 0.305,1.669 0.431,2.551 h 0.21 c 1.343,-1.89 2.362,-3.272 3.055,-4.147 0.693,-0.875 1.277,-1.526 1.753,-1.953 0.476,-0.427 0.934,-0.728 1.375,-0.903 0.441,-0.175 1.025,-0.262 1.753,-0.262 0.658,0 1.197,0.084 1.617,0.252 l -0.84,3.8 h -1.47 c -0.084,-0.588 -0.329,-0.882 -0.734,-0.882 -0.126,0 -0.259,0.021 -0.399,0.063 -0.14,0.042 -0.312,0.133 -0.515,0.273 -0.203,0.14 -0.5,0.413 -0.892,0.819 -0.392,0.406 -0.833,0.903 -1.323,1.491 -0.49,0.588 -0.994,1.204 -1.512,1.847 l -1.427,1.785 c 0.252,1.344 0.49,2.506 0.713,3.486 0.224,0.979 0.424,1.795 0.599,2.446 0.175,0.65 0.329,1.165 0.462,1.543 0.133,0.378 0.276,0.661 0.43,0.85 0.154,0.189 0.312,0.322 0.473,0.399 0.161,0.077 0.346,0.116 0.556,0.116 0.378,0 0.745,-0.147 1.102,-0.441 0.357,-0.294 0.872,-0.959 1.544,-1.995 l 1.364,0.903 c -0.98,1.456 -1.865,2.481 -2.656,3.076 -0.791,0.595 -1.732,0.892 -2.824,0.892 -0.602,0 -1.112,-0.108 -1.532,-0.325 -0.42,-0.217 -0.784,-0.564 -1.092,-1.04 -0.308,-0.476 -0.581,-1.217 -0.819,-2.225 -0.434,-1.792 -0.7,-3.164 -0.798,-4.115 h -0.21 c -1.484,2.085 -2.586,3.583 -3.307,4.493 -0.721,0.91 -1.315,1.581 -1.784,2.015 -0.469,0.434 -0.924,0.739 -1.365,0.914 -0.441,0.175 -1.025,0.262 -1.753,0.262 -0.658,0 -1.197,-0.084 -1.617,-0.252 l 0.84,-3.8 h 1.47 c 0.084,0.588 0.328,0.882 0.734,0.882 0.196,0 0.403,-0.053 0.62,-0.158 0.217,-0.105 0.528,-0.357 0.934,-0.756 0.406,-0.399 0.966,-1.025 1.68,-1.879 0.714,-0.854 1.749,-2.134 3.107,-3.842 -0.21,-1.106 -0.427,-2.17 -0.651,-3.192 -0.224,-1.021 -0.455,-1.973 -0.693,-2.855 -0.238,-0.882 -0.433,-1.459 -0.587,-1.732 -0.154,-0.273 -0.319,-0.462 -0.494,-0.567 -0.175,-0.105 -0.395,-0.158 -0.661,-0.158 -0.294,0 -0.56,0.067 -0.798,0.2 -0.238,0.133 -0.497,0.364 -0.777,0.693 -0.28,0.329 -0.651,0.843 -1.113,1.543 l -1.364,-0.903 c 0.881,-1.33 1.728,-2.323 2.54,-2.981 0.812,-0.658 1.771,-0.987 2.877,-0.987 z"
       fill-rule="evenodd"
       id="path81" />
    <text
       fill="#000000"
       fill-opacity="0"
       font-family="Arial, Arial_MSFontService, sans-serif"
       font-size="20.7651px"
       x="671.65802"
       y="207.332"
       id="text83">ЁЭСе</text>
    <path
       d="m 702.512,198.803 h 0.923 c -0.02,0.555 -0.035,1.052 -0.045,1.491 -0.01,0.439 -0.018,0.865 -0.023,1.279 -0.005,0.413 -0.007,0.822 -0.007,1.226 v 11.504 c 0,0.313 0.01,0.582 0.03,0.81 0.02,0.227 0.053,0.418 0.098,0.575 0.046,0.156 0.106,0.29 0.182,0.401 0.076,0.111 0.164,0.207 0.265,0.287 0.121,0.122 0.282,0.215 0.484,0.28 0.202,0.066 0.459,0.122 0.772,0.167 0.313,0.045 0.689,0.081 1.128,0.106 0.439,0.025 0.966,0.043 1.582,0.053 v 1.317 h -12.004 v -1.317 c 0.596,-0.02 1.1,-0.043 1.514,-0.068 0.414,-0.025 0.767,-0.061 1.06,-0.106 0.292,-0.046 0.527,-0.096 0.703,-0.152 0.177,-0.055 0.331,-0.123 0.462,-0.204 0.141,-0.091 0.262,-0.189 0.363,-0.295 0.101,-0.106 0.182,-0.24 0.243,-0.401 0.06,-0.162 0.108,-0.358 0.143,-0.591 0.036,-0.232 0.053,-0.519 0.053,-0.862 V 203.45 c 0,-0.394 -0.075,-0.671 -0.227,-0.833 -0.151,-0.161 -0.368,-0.242 -0.651,-0.242 -0.312,0 -0.777,0.161 -1.392,0.484 -0.616,0.323 -1.413,0.803 -2.392,1.438 -0.131,-0.232 -0.252,-0.464 -0.363,-0.696 -0.111,-0.232 -0.227,-0.469 -0.348,-0.711 1.251,-0.687 2.49,-1.37 3.716,-2.051 1.226,-0.682 2.47,-1.36 3.731,-2.036 z"
       fill-rule="evenodd"
       id="path85" />
    <text
       fill="#000000"
       fill-opacity="0"
       font-family="Arial, Arial_MSFontService, sans-serif"
       font-size="19.4961px"
       x="695.065"
       y="215.862"
       id="text87">1</text>
    <text
       font-family="Calibri, Calibri_MSFontService, sans-serif"
       font-weight="400"
       font-size="43px"
       transform="translate(712.068,210)"
       id="text89">,</text>
    <path
       d="m 741.408,164.99 c 0.807,0 1.561,0.086 2.263,0.257 0.701,0.172 1.309,0.432 1.824,0.78 0.514,0.348 0.915,0.782 1.203,1.302 0.288,0.519 0.431,1.122 0.431,1.809 0,0.645 -0.09,1.216 -0.272,1.71 -0.182,0.494 -0.462,0.944 -0.84,1.347 -0.379,0.404 -0.843,0.77 -1.393,1.098 -0.55,0.328 -1.183,0.643 -1.899,0.946 v 0.181 c 0.676,0.121 1.306,0.316 1.892,0.583 0.585,0.267 1.097,0.605 1.536,1.014 0.439,0.409 0.785,0.881 1.037,1.415 0.252,0.535 0.378,1.126 0.378,1.771 0,0.808 -0.151,1.557 -0.454,2.248 -0.302,0.692 -0.757,1.289 -1.362,1.794 -0.605,0.505 -1.352,0.898 -2.24,1.181 -0.888,0.282 -1.928,0.423 -3.118,0.423 -0.939,0 -1.892,-0.093 -2.861,-0.28 -0.969,-0.186 -1.887,-0.431 -2.755,-0.734 v -3.269 h 1.953 c 0.161,0.504 0.353,0.936 0.575,1.294 0.222,0.358 0.482,0.651 0.779,0.878 0.298,0.227 0.641,0.391 1.03,0.492 0.388,0.101 0.83,0.151 1.324,0.151 1.302,0 2.288,-0.31 2.959,-0.931 0.671,-0.62 1.007,-1.561 1.007,-2.823 0,-1.342 -0.442,-2.359 -1.325,-3.05 -0.883,-0.691 -2.192,-1.037 -3.928,-1.037 h -1.332 v -1.453 c 1.06,-0.05 1.976,-0.199 2.748,-0.446 0.772,-0.248 1.415,-0.568 1.93,-0.961 0.514,-0.394 0.898,-0.853 1.15,-1.378 0.252,-0.525 0.378,-1.085 0.378,-1.68 0,-0.969 -0.287,-1.733 -0.862,-2.293 -0.576,-0.56 -1.408,-0.84 -2.498,-0.84 -0.918,0 -1.688,0.252 -2.308,0.756 -0.621,0.505 -1.098,1.257 -1.431,2.256 h -1.922 v -2.982 c 1.191,-0.505 2.313,-0.886 3.368,-1.143 1.054,-0.257 2.066,-0.386 3.035,-0.386 z"
       fill-rule="evenodd"
       id="path91" />
    <text
       fill="#000000"
       fill-opacity="0"
       font-family="Arial, Arial_MSFontService, sans-serif"
       font-size="19.8594px"
       x="734.77802"
       y="182.367"
       id="text93">3</text>
    <path
       d="m 741.438,211.45 c 1.05,0 1.945,0.119 2.687,0.356 0.742,0.237 1.344,0.557 1.809,0.961 0.464,0.404 0.799,0.888 1.006,1.453 0.207,0.565 0.311,1.176 0.311,1.832 0,0.393 -0.028,0.759 -0.084,1.097 -0.055,0.338 -0.151,0.671 -0.287,0.999 -0.137,0.328 -0.316,0.659 -0.538,0.992 -0.222,0.333 -0.499,0.686 -0.832,1.059 -0.252,0.323 -0.58,0.696 -0.984,1.12 -0.404,0.424 -0.845,0.878 -1.325,1.363 -0.479,0.484 -0.981,0.988 -1.506,1.513 -0.524,0.525 -1.034,1.045 -1.528,1.559 -0.495,0.515 -0.949,1.014 -1.363,1.499 -0.413,0.484 -0.752,0.928 -1.014,1.332 h 5.601 c 0.474,0 0.852,-0.018 1.135,-0.053 0.282,-0.035 0.517,-0.114 0.704,-0.235 0.187,-0.121 0.345,-0.305 0.477,-0.552 0.131,-0.247 0.282,-0.588 0.454,-1.022 h 1.407 c -0.05,0.716 -0.098,1.438 -0.143,2.165 -0.046,0.726 -0.094,1.448 -0.144,2.164 H 734.46 v -0.787 c 0.242,-0.545 0.525,-1.082 0.848,-1.612 0.323,-0.53 0.686,-1.067 1.09,-1.612 0.403,-0.545 0.862,-1.108 1.377,-1.688 0.515,-0.58 1.085,-1.183 1.71,-1.809 0.949,-0.948 1.721,-1.758 2.316,-2.429 0.596,-0.671 1.065,-1.269 1.408,-1.794 0.343,-0.525 0.578,-1.009 0.704,-1.453 0.126,-0.444 0.189,-0.918 0.189,-1.423 0,-0.514 -0.073,-0.989 -0.219,-1.423 -0.147,-0.434 -0.356,-0.802 -0.629,-1.105 -0.272,-0.302 -0.618,-0.54 -1.036,-0.711 -0.419,-0.172 -0.901,-0.257 -1.446,-0.257 -0.938,0 -1.726,0.254 -2.361,0.764 -0.636,0.51 -1.13,1.249 -1.484,2.218 h -1.983 v -2.952 c 1.292,-0.535 2.48,-0.923 3.565,-1.166 1.085,-0.242 2.061,-0.363 2.929,-0.363 z"
       fill-rule="evenodd"
       id="path95" />
    <text
       fill="#000000"
       fill-opacity="0"
       font-family="Arial, Arial_MSFontService, sans-serif"
       font-size="19.6021px"
       x="734.46002"
       y="228.60201"
       id="text97">2</text>
    <path
       d="m 732.528,195.592 h 18 v 3 h -18 z"
       fill-rule="evenodd"
       id="path99" />
    <path
       d="m 768.362,189.163 c 0.433,0 0.815,0.049 1.144,0.147 0.329,0.098 0.619,0.248 0.871,0.451 0.252,0.203 0.476,0.466 0.672,0.788 0.196,0.322 0.385,0.759 0.567,1.312 0.182,0.553 0.353,1.239 0.514,2.058 0.161,0.818 0.305,1.669 0.431,2.551 h 0.21 c 1.344,-1.89 2.362,-3.272 3.055,-4.147 0.693,-0.875 1.277,-1.526 1.753,-1.953 0.476,-0.427 0.934,-0.728 1.375,-0.903 0.441,-0.175 1.025,-0.262 1.753,-0.262 0.658,0 1.197,0.084 1.617,0.252 l -0.84,3.8 h -1.47 c -0.084,-0.588 -0.329,-0.882 -0.734,-0.882 -0.126,0 -0.259,0.021 -0.399,0.063 -0.14,0.042 -0.312,0.133 -0.515,0.273 -0.203,0.14 -0.5,0.413 -0.892,0.819 -0.392,0.406 -0.833,0.903 -1.323,1.491 -0.49,0.588 -0.994,1.204 -1.512,1.847 l -1.427,1.785 c 0.252,1.344 0.49,2.506 0.714,3.486 0.223,0.979 0.423,1.795 0.598,2.446 0.175,0.65 0.329,1.165 0.462,1.543 0.133,0.378 0.276,0.661 0.43,0.85 0.154,0.189 0.312,0.322 0.473,0.399 0.161,0.077 0.346,0.116 0.556,0.116 0.378,0 0.745,-0.147 1.102,-0.441 0.357,-0.294 0.872,-0.959 1.544,-1.995 l 1.364,0.903 c -0.979,1.456 -1.865,2.481 -2.656,3.076 -0.791,0.595 -1.732,0.892 -2.824,0.892 -0.602,0 -1.112,-0.108 -1.532,-0.325 -0.42,-0.217 -0.784,-0.564 -1.092,-1.04 -0.308,-0.476 -0.581,-1.217 -0.819,-2.225 -0.434,-1.792 -0.7,-3.164 -0.798,-4.115 h -0.21 c -1.484,2.085 -2.586,3.583 -3.307,4.493 -0.721,0.91 -1.315,1.581 -1.784,2.015 -0.469,0.434 -0.924,0.739 -1.365,0.914 -0.441,0.175 -1.025,0.262 -1.753,0.262 -0.658,0 -1.197,-0.084 -1.617,-0.252 l 0.84,-3.8 h 1.47 c 0.084,0.588 0.328,0.882 0.734,0.882 0.196,0 0.403,-0.053 0.62,-0.158 0.217,-0.105 0.528,-0.357 0.934,-0.756 0.406,-0.399 0.966,-1.025 1.68,-1.879 0.714,-0.854 1.75,-2.134 3.107,-3.842 -0.21,-1.106 -0.427,-2.17 -0.651,-3.192 -0.224,-1.021 -0.455,-1.973 -0.692,-2.855 -0.238,-0.882 -0.434,-1.459 -0.588,-1.732 -0.154,-0.273 -0.319,-0.462 -0.494,-0.567 -0.175,-0.105 -0.395,-0.158 -0.661,-0.158 -0.294,0 -0.56,0.067 -0.798,0.2 -0.238,0.133 -0.497,0.364 -0.777,0.693 -0.28,0.329 -0.651,0.843 -1.113,1.543 l -1.364,-0.903 c 0.881,-1.33 1.728,-2.323 2.54,-2.981 0.812,-0.658 1.771,-0.987 2.877,-0.987 z"
       fill-rule="evenodd"
       id="path101" />
    <text
       fill="#000000"
       fill-opacity="0"
       font-family="Arial, Arial_MSFontService, sans-serif"
       font-size="20.7651px"
       x="760.698"
       y="207.332"
       id="text103">ЁЭСе</text>
    <path
       d="m 791.552,198.803 h 0.923 c -0.02,0.555 -0.035,1.052 -0.045,1.491 -0.01,0.439 -0.018,0.865 -0.023,1.279 -0.005,0.413 -0.007,0.822 -0.007,1.226 v 11.504 c 0,0.313 0.01,0.582 0.03,0.81 0.02,0.227 0.053,0.418 0.098,0.575 0.046,0.156 0.106,0.29 0.182,0.401 0.076,0.111 0.164,0.207 0.265,0.287 0.121,0.122 0.282,0.215 0.484,0.28 0.202,0.066 0.459,0.122 0.772,0.167 0.313,0.045 0.689,0.081 1.128,0.106 0.439,0.025 0.966,0.043 1.582,0.053 v 1.317 h -12.004 v -1.317 c 0.596,-0.02 1.1,-0.043 1.514,-0.068 0.414,-0.025 0.767,-0.061 1.06,-0.106 0.292,-0.046 0.527,-0.096 0.703,-0.152 0.177,-0.055 0.331,-0.123 0.462,-0.204 0.141,-0.091 0.262,-0.189 0.363,-0.295 0.101,-0.106 0.182,-0.24 0.243,-0.401 0.06,-0.162 0.108,-0.358 0.143,-0.591 0.036,-0.232 0.053,-0.519 0.053,-0.862 V 203.45 c 0,-0.394 -0.075,-0.671 -0.227,-0.833 -0.151,-0.161 -0.368,-0.242 -0.651,-0.242 -0.312,0 -0.777,0.161 -1.392,0.484 -0.616,0.323 -1.413,0.803 -2.392,1.438 -0.131,-0.232 -0.252,-0.464 -0.363,-0.696 -0.111,-0.232 -0.227,-0.469 -0.348,-0.711 1.251,-0.687 2.49,-1.37 3.716,-2.051 1.226,-0.682 2.47,-1.36 3.731,-2.036 z"
       fill-rule="evenodd"
       id="path105" />
    <text
       fill="#000000"
       fill-opacity="0"
       font-family="Arial, Arial_MSFontService, sans-serif"
       font-size="19.4961px"
       x="784.10498"
       y="215.862"
       id="text107">1</text>
    <path
       d="m 803.502,196.029 h 16.545 c 0.252,0 0.444,0.119 0.577,0.357 0.133,0.238 0.199,0.615 0.199,1.133 0,0.518 -0.066,0.896 -0.199,1.134 -0.133,0.238 -0.325,0.357 -0.577,0.357 h -16.545 c -0.266,0 -0.466,-0.119 -0.599,-0.357 -0.133,-0.238 -0.199,-0.616 -0.199,-1.134 0,-0.504 0.066,-0.878 0.199,-1.123 0.133,-0.245 0.333,-0.367 0.599,-0.367 z"
       fill-rule="evenodd"
       id="path109" />
    <text
       fill="#000000"
       fill-opacity="0"
       font-family="Arial, Arial_MSFontService, sans-serif"
       font-size="2.98145px"
       x="802.70398"
       y="198.63699"
       id="text111">тИТ</text>
    <path
       d="m 845.338,180.597 h 1.155 c -0.084,1.343 -0.126,3.205 -0.126,5.584 v 17.931 c 0,0.812 0.046,1.424 0.137,1.837 0.091,0.413 0.251,0.749 0.482,1.008 0.231,0.259 0.564,0.462 0.998,0.609 0.434,0.147 0.98,0.259 1.637,0.336 0.658,0.077 1.526,0.129 2.604,0.157 v 1.533 h -15.516 v -1.533 c 1.554,-0.07 2.663,-0.164 3.328,-0.283 0.665,-0.119 1.172,-0.297 1.522,-0.535 0.35,-0.238 0.605,-0.574 0.766,-1.008 0.161,-0.434 0.242,-1.141 0.242,-2.121 v -17.028 c 0,-0.56 -0.098,-0.969 -0.294,-1.228 -0.196,-0.259 -0.483,-0.388 -0.861,-0.388 -0.448,0 -1.085,0.231 -1.911,0.692 -0.826,0.462 -1.847,1.099 -3.065,1.911 l -0.924,-1.617 z"
       fill-rule="evenodd"
       id="path113" />
    <text
       fill="#000000"
       fill-opacity="0"
       font-family="Arial, Arial_MSFontService, sans-serif"
       font-size="28.9956px"
       x="835.51202"
       y="205.968"
       id="text115">1</text>
    <text
       font-family="Calibri, Calibri_MSFontService, sans-serif"
       font-weight="400"
       font-size="43px"
       transform="translate(855.441,210)"
       id="text129">)} <tspan
   font-size="32px"
   x="36.166698"
   y="0"
   id="tspan117">is a copy of</tspan><tspan
   font-family="Cambria, Cambria_MSFontService, sans-serif"
   font-size="32px"
   x="187.91299"
   y="0"
   id="tspan119">R</tspan><tspan
   font-family="Cambria, Cambria_MSFontService, sans-serif"
   font-size="21px"
   x="207.74699"
   y="-10"
   id="tspan121">1</tspan><tspan
   font-size="32px"
   x="226.58"
   y="0"
   id="tspan123">in</tspan><tspan
   font-family="Cambria, Cambria_MSFontService, sans-serif"
   font-size="32px"
   x="257.74701"
   y="0"
   id="tspan125">R</tspan><tspan
   font-family="Cambria, Cambria_MSFontService, sans-serif"
   font-size="21px"
   x="277.57999"
   y="-10"
   id="tspan127">2</tspan></text>
    <rect
       x="740"
       y="513"
       width="75"
       height="76"
       stroke="#ededed"
       stroke-width="4"
       stroke-miterlimit="8"
       fill="none"
       id="rect131" />
    <rect
       x="664"
       y="513"
       width="76"
       height="76"
       stroke="#ededed"
       stroke-width="4"
       stroke-miterlimit="8"
       fill="none"
       id="rect133" />
    <rect
       x="815"
       y="513"
       width="76"
       height="76"
       stroke="#ededed"
       stroke-width="4"
       stroke-miterlimit="8"
       fill="none"
       id="rect135" />
    <rect
       x="815"
       y="438"
       width="76"
       height="75"
       stroke="#ededed"
       stroke-width="4"
       stroke-miterlimit="8"
       fill="none"
       id="rect137" />
    <rect
       x="891"
       y="513"
       width="75"
       height="76"
       stroke="#ededed"
       stroke-width="4"
       stroke-miterlimit="8"
       fill="none"
       id="rect139" />
    <rect
       x="891"
       y="438"
       width="75"
       height="75"
       stroke="#ededed"
       stroke-width="4"
       stroke-miterlimit="8"
       fill="none"
       id="rect141" />
    <rect
       x="890"
       y="362"
       width="76"
       height="76"
       stroke="#ededed"
       stroke-width="4"
       stroke-miterlimit="8"
       fill="none"
       id="rect143" />
    <rect
       x="891"
       y="287"
       width="75"
       height="75"
       stroke="#ededed"
       stroke-width="4"
       stroke-miterlimit="8"
       fill="none"
       id="rect145" />
    <rect
       x="815"
       y="362"
       width="75"
       height="76"
       stroke="#ededed"
       stroke-width="4"
       stroke-miterlimit="8"
       fill="none"
       id="rect147" />
    <rect
       x="815"
       y="287"
       width="76"
       height="75"
       stroke="#ededed"
       stroke-width="4"
       stroke-miterlimit="8"
       fill="none"
       id="rect149" />
    <rect
       x="740"
       y="438"
       width="75"
       height="75"
       stroke="#ededed"
       stroke-width="4"
       stroke-miterlimit="8"
       fill="none"
       id="rect151" />
    <rect
       x="740"
       y="362"
       width="76"
       height="76"
       stroke="#ededed"
       stroke-width="4"
       stroke-miterlimit="8"
       fill="none"
       id="rect153" />
    <rect
       x="664"
       y="438"
       width="76"
       height="75"
       stroke="#ededed"
       stroke-width="4"
       stroke-miterlimit="8"
       fill="none"
       id="rect155" />
    <rect
       x="664"
       y="362"
       width="76"
       height="76"
       stroke="#ededed"
       stroke-width="4"
       stroke-miterlimit="8"
       fill="none"
       id="rect157" />
    <rect
       x="740"
       y="287"
       width="76"
       height="75"
       stroke="#ededed"
       stroke-width="4"
       stroke-miterlimit="8"
       fill="none"
       id="rect159" />
    <rect
       x="664"
       y="287"
       width="76"
       height="75"
       stroke="#ededed"
       stroke-width="4"
       stroke-miterlimit="8"
       fill="none"
       id="rect161" />
    <rect
       x="966"
       y="513"
       width="75"
       height="76"
       stroke="#ededed"
       stroke-width="4"
       stroke-miterlimit="8"
       fill="none"
       id="rect163" />
    <rect
       x="966"
       y="438"
       width="75"
       height="75"
       stroke="#ededed"
       stroke-width="4"
       stroke-miterlimit="8"
       fill="none"
       id="rect165" />
    <rect
       x="1041"
       y="513"
       width="75"
       height="76"
       stroke="#ededed"
       stroke-width="4"
       stroke-miterlimit="8"
       fill="none"
       id="rect167" />
    <rect
       x="1041"
       y="438"
       width="75"
       height="75"
       stroke="#ededed"
       stroke-width="4"
       stroke-miterlimit="8"
       fill="none"
       id="rect169" />
    <rect
       x="1041"
       y="362"
       width="75"
       height="76"
       stroke="#ededed"
       stroke-width="4"
       stroke-miterlimit="8"
       fill="none"
       id="rect171" />
    <rect
       x="1041"
       y="287"
       width="75"
       height="75"
       stroke="#ededed"
       stroke-width="4"
       stroke-miterlimit="8"
       fill="none"
       id="rect173" />
    <rect
       x="965"
       y="362"
       width="76"
       height="76"
       stroke="#ededed"
       stroke-width="4"
       stroke-miterlimit="8"
       fill="none"
       id="rect175" />
    <rect
       x="965"
       y="287"
       width="76"
       height="75"
       stroke="#ededed"
       stroke-width="4"
       stroke-miterlimit="8"
       fill="none"
       id="rect177" />
    <path
       d="m 664,513 h 452.21"
       stroke="#bfbfbf"
       stroke-width="4"
       stroke-miterlimit="8"
       stroke-dasharray="12, 4"
       fill="none"
       fill-rule="evenodd"
       id="path179" />
    <path
       d="M 0,0 0.794646,302.362"
       stroke="#bfbfbf"
       stroke-width="4"
       stroke-miterlimit="8"
       stroke-dasharray="12, 4"
       fill="none"
       fill-rule="evenodd"
       transform="matrix(1,0,0,-1,890,589.362)"
       id="path181" />
    <path
       d="M 3.88432,2.14115 205.295,297.042 201.992,299.298 0.581194,4.39712 Z M 1.22591,17.2696 -0.00522761,-0.0076542 15.64,7.425 c 0.9977,0.47399 1.4223,1.66703 0.9483,2.6647 -0.474,0.9977 -1.667,1.4223 -2.6648,0.9483 L 1.37518,5.07659 4.22835,3.12793 5.21579,16.9852 C 5.2943,18.087 4.46478,19.0438 3.36301,19.1223 2.26123,19.2008 1.30442,18.3713 1.22591,17.2696 Z M 204.652,284.172 l 1.231,17.277 -15.645,-7.433 c -0.998,-0.474 -1.422,-1.667 -0.948,-2.664 0.474,-0.998 1.667,-1.423 2.665,-0.949 l 12.548,5.962 -2.853,1.949 -0.988,-13.858 c -0.078,-1.102 0.751,-2.058 1.853,-2.137 1.102,-0.078 2.059,0.751 2.137,1.853 z"
       fill="#44546a"
       transform="matrix(1,0,0,-1,891,588.441)"
       id="path183" />
    <path
       d="M 148,510 H 472.803"
       stroke="#bfbfbf"
       stroke-width="4"
       stroke-miterlimit="8"
       stroke-dasharray="12, 4"
       fill="none"
       fill-rule="evenodd"
       id="path185" />
    <path
       d="m 353.5,511 c 0,-4.142 3.358,-7.5 7.5,-7.5 4.142,0 7.5,3.358 7.5,7.5 0,4.142 -3.358,7.5 -7.5,7.5 -4.142,0 -7.5,-3.358 -7.5,-7.5 z"
       stroke="#000000"
       stroke-width="3"
       stroke-miterlimit="8"
       fill="#44546a"
       fill-rule="evenodd"
       id="path187" />
    <text
       fill="#bfbfbf"
       font-family="Calibri, Calibri_MSFontService, sans-serif"
       font-weight="400"
       font-size="32px"
       transform="translate(235.651,545)"
       id="text189">0</text>
    <path
       d="m 244,503 v 15.312"
       stroke="#bfbfbf"
       stroke-width="4"
       stroke-miterlimit="8"
       fill="none"
       fill-rule="evenodd"
       id="path191" />
    <path
       d="m 171,502 v 15.312"
       stroke="#bfbfbf"
       stroke-width="4"
       stroke-miterlimit="8"
       fill="none"
       fill-rule="evenodd"
       id="path193" />
    <path
       d="m 322,502 v 15.312"
       stroke="#bfbfbf"
       stroke-width="4"
       stroke-miterlimit="8"
       fill="none"
       fill-rule="evenodd"
       id="path195" />
    <path
       d="m 398,502 v 15.312"
       stroke="#bfbfbf"
       stroke-width="4"
       stroke-miterlimit="8"
       fill="none"
       fill-rule="evenodd"
       id="path197" />
    <path
       d="m 473,502 v 15.312"
       stroke="#bfbfbf"
       stroke-width="4"
       stroke-miterlimit="8"
       fill="none"
       fill-rule="evenodd"
       id="path199" />
  </g>
</svg>
