<?xml version="1.0" encoding="UTF-8" standalone="no"?>
<svg
   width="1280"
   height="500"
   overflow="hidden"
   version="1.1"
   id="svg165"
   sodipodi:docname="linear_systems-linear_transformation_notation.svg"
   inkscape:version="1.2 (dc2aedaf03, 2022-05-15)"
   xmlns:inkscape="http://www.inkscape.org/namespaces/inkscape"
   xmlns:sodipodi="http://sodipodi.sourceforge.net/DTD/sodipodi-0.dtd"
   xmlns="http://www.w3.org/2000/svg"
   xmlns:svg="http://www.w3.org/2000/svg">
  <sodipodi:namedview
     id="namedview167"
     pagecolor="#ffffff"
     bordercolor="#000000"
     borderopacity="0.25"
     inkscape:showpageshadow="2"
     inkscape:pageopacity="0.0"
     inkscape:pagecheckerboard="0"
     inkscape:deskcolor="#d1d1d1"
     showgrid="false"
     inkscape:zoom="0.92709556"
     inkscape:cx="352.17513"
     inkscape:cy="231.90705"
     inkscape:window-width="2560"
     inkscape:window-height="1494"
     inkscape:window-x="-11"
     inkscape:window-y="-11"
     inkscape:window-maximized="1"
     inkscape:current-layer="svg165" />
  <defs
     id="defs5">
    <clipPath
       id="clip0">
      <rect
         x="0"
         y="0"
         width="1280"
         height="720"
         id="rect2" />
    </clipPath>
  </defs>
  <g
     clip-path="url(#clip0)"
     id="g163"
     transform="translate(38.767444,-104.46907)">
    <rect
       x="0"
       y="0"
       width="1280"
       height="720"
       fill="#ffffff"
       id="rect7" />
    <path
       d="m 496,557.5 c 0,-7.456 6.044,-13.5 13.5,-13.5 7.456,0 13.5,6.044 13.5,13.5 0,7.456 -6.044,13.5 -13.5,13.5 -7.456,0 -13.5,-6.044 -13.5,-13.5 z"
       fill="#fbe5d6"
       fill-rule="evenodd"
       id="path9" />
    <path
       d="m 266,557.5 c 0,-7.456 6.044,-13.5 13.5,-13.5 7.456,0 13.5,6.044 13.5,13.5 0,7.456 -6.044,13.5 -13.5,13.5 -7.456,0 -13.5,-6.044 -13.5,-13.5 z"
       fill="#fbe5d6"
       fill-rule="evenodd"
       id="path11" />
    <path
       d="m 403,557.5 c 0,-7.456 6.044,-13.5 13.5,-13.5 7.456,0 13.5,6.044 13.5,13.5 0,7.456 -6.044,13.5 -13.5,13.5 -7.456,0 -13.5,-6.044 -13.5,-13.5 z"
       fill="#fff2cc"
       fill-rule="evenodd"
       id="path13" />
    <path
       d="m 309,557.5 c 0,-7.456 6.268,-13.5 14,-13.5 7.732,0 14,6.044 14,13.5 0,7.456 -6.268,13.5 -14,13.5 -7.732,0 -14,-6.044 -14,-13.5 z"
       fill="#fff2cc"
       fill-rule="evenodd"
       id="path15" />
    <path
       d="m 500,454.343 c 0,-4.055 3.288,-7.343 7.343,-7.343 h 42.314 c 4.055,0 7.343,3.288 7.343,7.343 v 52.314 c 0,4.055 -3.288,7.343 -7.343,7.343 H 507.343 C 503.288,514 500,510.712 500,506.657 Z"
       fill="#dae3f3"
       fill-rule="evenodd"
       id="path17" />
    <text
       font-family="Calibri, Calibri_MSFontService, sans-serif"
       font-weight="400"
       font-size="32px"
       transform="translate(474.301,489)"
       id="text19">=</text>
    <path
       d="m 545.358,453.811 h 7.437 v 52.5 h -7.437 v -1.359 h 4.547 V 455.17 h -4.547 z m -44.343,0 h 7.437 v 1.359 h -4.546 v 49.782 h 4.546 v 1.359 h -7.437 z"
       fill-rule="evenodd"
       id="path21" />
    <text
       font-family="'Cambria Math', 'Cambria Math_MSFontService', sans-serif"
       font-weight="400"
       font-size="32px"
       transform="translate(509.155,469)"
       id="text29">ğ‘¤<tspan
   font-size="21px"
   x="23.6667"
   y="7"
   id="tspan23">1</tspan><tspan
   font-size="32px"
   x="0"
   y="37"
   id="tspan25">ğ‘¤</tspan><tspan
   font-size="21px"
   x="23.6667"
   y="44"
   id="tspan27">2</tspan></text>
    <path
       d="m 276,262 c 0,-17.121 13.655,-31 30.5,-31 16.845,0 30.5,13.879 30.5,31 0,17.121 -13.655,31 -30.5,31 -16.845,0 -30.5,-13.879 -30.5,-31 z"
       fill="#fff2cc"
       fill-rule="evenodd"
       id="path31" />
    <path
       d="m 388,262 c 0,-17.121 15.222,-31 34,-31 18.778,0 34,13.879 34,31 0,17.121 -15.222,31 -34,31 -18.778,0 -34,-13.879 -34,-31 z"
       fill="#fbe5d6"
       fill-rule="evenodd"
       id="path33" />
    <text
       font-family="Calibri, Calibri_MSFontService, sans-serif"
       font-weight="400"
       font-size="48px"
       transform="translate(240.656,278)"
       id="text45">T: <tspan
   fill="#c00000"
   font-family="Cambria, Cambria_MSFontService, sans-serif"
   font-size="48px"
   x="43.860001"
   y="0"
   id="tspan35">R</tspan><tspan
   fill="#c00000"
   font-family="Cambria, Cambria_MSFontService, sans-serif"
   font-size="32px"
   x="73.693298"
   y="-14"
   id="tspan37">n</tspan><tspan
   font-family="'Cambria Math', 'Cambria Math_MSFontService', sans-serif"
   font-size="48px"
   x="102.36"
   y="0"
   id="tspan39">â†’</tspan><tspan
   fill="#c00000"
   font-family="Cambria, Cambria_MSFontService, sans-serif"
   font-size="48px"
   x="153.36"
   y="0"
   id="tspan41">R</tspan><tspan
   fill="#c00000"
   font-family="Cambria, Cambria_MSFontService, sans-serif"
   font-size="32px"
   x="183.19299"
   y="-14"
   id="tspan43">m</tspan></text>
    <path
       d="m 458,363.5 c 0,-16.845 11.864,-30.5 26.5,-30.5 14.636,0 26.5,13.655 26.5,30.5 0,16.845 -11.864,30.5 -26.5,30.5 -14.636,0 -26.5,-13.655 -26.5,-30.5 z"
       fill="#dae3f3"
       fill-rule="evenodd"
       id="path47" />
    <text
       font-family="Calibri, Calibri_MSFontService, sans-serif"
       font-weight="400"
       font-size="43px"
       transform="translate(324.525,178)"
       id="text49">Linear transformation notation</text>
    <path
       d="m 453.529,431.646 h 8.5 v 94.907 h -8.5 v -1.532 h 5.281 v -91.843 h -5.281 z m -38.741,0 h 8.5 v 1.532 h -5.281 v 91.843 h 5.281 v 1.532 h -8.5 z"
       fill-rule="evenodd"
       id="path51" />
    <path
       d="m 430.164,433.857 c 0.323,0 0.607,0.037 0.852,0.109 0.244,0.073 0.461,0.185 0.648,0.336 0.188,0.151 0.354,0.347 0.5,0.586 0.146,0.24 0.287,0.565 0.422,0.977 0.135,0.411 0.263,0.922 0.383,1.531 0.12,0.61 0.226,1.242 0.32,1.899 h 0.156 c 1,-1.407 1.758,-2.435 2.274,-3.086 0.515,-0.651 0.95,-1.136 1.305,-1.453 0.354,-0.318 0.695,-0.542 1.023,-0.672 0.328,-0.131 0.763,-0.196 1.305,-0.196 0.489,0 0.89,0.063 1.203,0.188 l -0.625,2.828 h -1.094 c -0.062,-0.438 -0.245,-0.656 -0.547,-0.656 -0.094,0 -0.193,0.015 -0.297,0.047 -0.104,0.031 -0.232,0.099 -0.383,0.203 -0.151,0.104 -0.372,0.307 -0.664,0.609 -0.291,0.302 -0.619,0.672 -0.984,1.109 -0.365,0.438 -0.74,0.896 -1.125,1.375 l -1.062,1.329 c 0.187,1 0.364,1.864 0.531,2.593 0.166,0.729 0.315,1.336 0.445,1.821 0.13,0.484 0.245,0.867 0.344,1.148 0.099,0.281 0.206,0.492 0.32,0.633 0.115,0.141 0.232,0.239 0.352,0.297 0.119,0.057 0.258,0.086 0.414,0.086 0.281,0 0.554,-0.11 0.82,-0.328 0.266,-0.219 0.649,-0.714 1.149,-1.485 l 1.015,0.672 c -0.729,1.083 -1.388,1.846 -1.976,2.289 -0.589,0.443 -1.289,0.664 -2.102,0.664 -0.448,0 -0.828,-0.081 -1.141,-0.242 -0.312,-0.161 -0.583,-0.419 -0.812,-0.773 -0.229,-0.355 -0.432,-0.907 -0.609,-1.657 -0.323,-1.333 -0.521,-2.354 -0.594,-3.062 h -0.156 c -1.105,1.552 -1.925,2.666 -2.461,3.344 -0.537,0.677 -0.98,1.177 -1.329,1.5 -0.349,0.322 -0.687,0.549 -1.015,0.679 -0.328,0.13 -0.763,0.196 -1.305,0.196 -0.489,0 -0.89,-0.063 -1.203,-0.188 l 0.625,-2.828 h 1.094 c 0.062,0.437 0.245,0.656 0.547,0.656 0.145,0 0.299,-0.039 0.461,-0.117 0.161,-0.078 0.393,-0.266 0.695,-0.562 0.302,-0.297 0.719,-0.764 1.25,-1.399 0.531,-0.635 1.302,-1.588 2.312,-2.859 -0.156,-0.823 -0.317,-1.615 -0.484,-2.375 -0.167,-0.761 -0.339,-1.469 -0.516,-2.125 -0.177,-0.657 -0.323,-1.086 -0.437,-1.289 -0.115,-0.203 -0.237,-0.344 -0.367,-0.422 -0.131,-0.078 -0.295,-0.117 -0.492,-0.117 -0.219,0 -0.417,0.049 -0.594,0.148 -0.177,0.099 -0.37,0.271 -0.578,0.516 -0.209,0.244 -0.485,0.627 -0.828,1.148 l -1.016,-0.672 c 0.656,-0.989 1.286,-1.729 1.891,-2.219 0.604,-0.489 1.317,-0.734 2.14,-0.734 z"
       fill-rule="evenodd"
       id="path53" />
    <text
       fill="#000000"
       fill-opacity="0"
       font-family="Arial, Arial_MSFontService, sans-serif"
       font-size="15.4531px"
       x="424.461"
       y="447.379"
       id="text55">ğ‘¥</text>
    <path
       d="m 447.616,441.9 h 0.564 c -0.041,0.656 -0.061,1.565 -0.061,2.727 v 8.757 c 0,0.396 0.022,0.695 0.066,0.897 0.045,0.202 0.123,0.366 0.236,0.492 0.113,0.127 0.275,0.226 0.487,0.298 0.212,0.071 0.479,0.126 0.8,0.164 0.321,0.037 0.745,0.063 1.272,0.077 v 0.748 h -7.578 v -0.748 c 0.759,-0.035 1.3,-0.081 1.625,-0.139 0.325,-0.058 0.573,-0.145 0.744,-0.261 0.17,-0.116 0.295,-0.28 0.374,-0.492 0.078,-0.212 0.118,-0.558 0.118,-1.036 v -8.316 c 0,-0.273 -0.048,-0.473 -0.144,-0.6 -0.095,-0.126 -0.236,-0.19 -0.42,-0.19 -0.219,0 -0.53,0.113 -0.933,0.339 -0.404,0.225 -0.903,0.536 -1.497,0.933 l -0.452,-0.79 z"
       fill-rule="evenodd"
       id="path57" />
    <text
       fill="#000000"
       fill-opacity="0"
       font-family="Arial, Arial_MSFontService, sans-serif"
       font-size="14.1606px"
       x="442.81699"
       y="454.29001"
       id="text59">1</text>
    <path
       d="m 430.164,471.37 c 0.323,0 0.607,0.037 0.852,0.11 0.244,0.073 0.461,0.185 0.648,0.336 0.188,0.151 0.354,0.346 0.5,0.586 0.146,0.239 0.287,0.565 0.422,0.976 0.135,0.412 0.263,0.922 0.383,1.531 0.12,0.61 0.226,1.243 0.32,1.899 h 0.156 c 1,-1.406 1.758,-2.435 2.274,-3.086 0.515,-0.651 0.95,-1.135 1.305,-1.453 0.354,-0.318 0.695,-0.542 1.023,-0.672 0.328,-0.13 0.763,-0.195 1.305,-0.195 0.489,0 0.89,0.062 1.203,0.187 l -0.625,2.828 h -1.094 c -0.062,-0.437 -0.245,-0.656 -0.547,-0.656 -0.094,0 -0.193,0.016 -0.297,0.047 -0.104,0.031 -0.232,0.099 -0.383,0.203 -0.151,0.104 -0.372,0.307 -0.664,0.609 -0.291,0.303 -0.619,0.672 -0.984,1.11 -0.365,0.437 -0.74,0.896 -1.125,1.375 l -1.062,1.328 c 0.187,1 0.364,1.865 0.531,2.594 0.166,0.729 0.315,1.336 0.445,1.82 0.13,0.484 0.245,0.867 0.344,1.148 0.099,0.282 0.206,0.493 0.32,0.633 0.115,0.141 0.232,0.24 0.352,0.297 0.119,0.057 0.258,0.086 0.414,0.086 0.281,0 0.554,-0.109 0.82,-0.328 0.266,-0.219 0.649,-0.714 1.149,-1.484 l 1.015,0.671 c -0.729,1.084 -1.388,1.847 -1.976,2.289 -0.589,0.443 -1.289,0.665 -2.102,0.665 -0.448,0 -0.828,-0.081 -1.141,-0.243 -0.312,-0.161 -0.583,-0.419 -0.812,-0.773 -0.229,-0.354 -0.432,-0.906 -0.609,-1.656 -0.323,-1.334 -0.521,-2.354 -0.594,-3.063 h -0.156 c -1.105,1.552 -1.925,2.667 -2.461,3.344 -0.537,0.677 -0.98,1.177 -1.329,1.5 -0.349,0.323 -0.687,0.549 -1.015,0.68 -0.328,0.13 -0.763,0.195 -1.305,0.195 -0.489,0 -0.89,-0.063 -1.203,-0.188 l 0.625,-2.828 h 1.094 c 0.062,0.438 0.245,0.657 0.547,0.657 0.145,0 0.299,-0.04 0.461,-0.118 0.161,-0.078 0.393,-0.265 0.695,-0.562 0.302,-0.297 0.719,-0.763 1.25,-1.399 0.531,-0.635 1.302,-1.588 2.312,-2.859 -0.156,-0.823 -0.317,-1.615 -0.484,-2.375 -0.167,-0.76 -0.339,-1.469 -0.516,-2.125 -0.177,-0.656 -0.323,-1.086 -0.437,-1.289 -0.115,-0.203 -0.237,-0.344 -0.367,-0.422 -0.131,-0.078 -0.295,-0.117 -0.492,-0.117 -0.219,0 -0.417,0.049 -0.594,0.148 -0.177,0.099 -0.37,0.271 -0.578,0.516 -0.209,0.245 -0.485,0.628 -0.828,1.148 l -1.016,-0.671 c 0.656,-0.99 1.286,-1.73 1.891,-2.219 0.604,-0.49 1.317,-0.735 2.14,-0.735 z"
       fill-rule="evenodd"
       id="path61" />
    <text
       fill="#000000"
       fill-opacity="0"
       font-family="Arial, Arial_MSFontService, sans-serif"
       font-size="15.4531px"
       x="424.461"
       y="484.892"
       id="text63">ğ‘¥</text>
    <path
       d="m 446.888,479.413 c 1.272,0 2.232,0.278 2.882,0.836 0.649,0.557 0.974,1.365 0.974,2.425 0,0.362 -0.036,0.695 -0.108,0.999 -0.072,0.305 -0.184,0.605 -0.338,0.903 -0.154,0.297 -0.361,0.617 -0.621,0.958 -0.259,0.342 -0.547,0.689 -0.861,1.041 -0.314,0.352 -0.858,0.938 -1.63,1.759 -1.299,1.374 -2.253,2.574 -2.861,3.599 h 3.866 c 0.334,0 0.605,-0.021 0.81,-0.062 0.205,-0.041 0.369,-0.109 0.492,-0.205 0.123,-0.095 0.22,-0.22 0.292,-0.374 0.072,-0.154 0.162,-0.391 0.272,-0.713 h 0.871 l -0.174,2.995 h -8.439 v -0.493 c 0.294,-0.717 0.69,-1.452 1.189,-2.204 0.5,-0.752 1.207,-1.637 2.123,-2.656 0.793,-0.875 1.364,-1.538 1.712,-1.989 0.383,-0.492 0.669,-0.918 0.857,-1.277 0.188,-0.359 0.323,-0.697 0.405,-1.015 0.082,-0.318 0.123,-0.637 0.123,-0.959 0,-0.512 -0.082,-0.965 -0.246,-1.358 -0.164,-0.393 -0.416,-0.703 -0.754,-0.928 -0.338,-0.226 -0.764,-0.339 -1.277,-0.339 -1.278,0 -2.139,0.711 -2.584,2.133 h -1.24 v -1.969 c 0.827,-0.389 1.601,-0.671 2.322,-0.846 0.721,-0.174 1.369,-0.261 1.943,-0.261 z"
       fill-rule="evenodd"
       id="path65" />
    <text
       fill="#000000"
       fill-opacity="0"
       font-family="Arial, Arial_MSFontService, sans-serif"
       font-size="14.1606px"
       x="442.315"
       y="491.80301"
       id="text67">2</text>
    <path
       d="m 430.164,508.884 c 0.323,0 0.607,0.036 0.852,0.109 0.244,0.073 0.461,0.185 0.648,0.336 0.188,0.151 0.354,0.346 0.5,0.586 0.146,0.24 0.287,0.565 0.422,0.977 0.135,0.411 0.263,0.921 0.383,1.531 0.12,0.609 0.226,1.242 0.32,1.898 h 0.156 c 1,-1.406 1.758,-2.435 2.274,-3.086 0.515,-0.651 0.95,-1.135 1.305,-1.453 0.354,-0.318 0.695,-0.541 1.023,-0.672 0.328,-0.13 0.763,-0.195 1.305,-0.195 0.489,0 0.89,0.062 1.203,0.187 l -0.625,2.829 h -1.094 c -0.062,-0.438 -0.245,-0.657 -0.547,-0.657 -0.094,0 -0.193,0.016 -0.297,0.047 -0.104,0.031 -0.232,0.099 -0.383,0.203 -0.151,0.105 -0.372,0.308 -0.664,0.61 -0.291,0.302 -0.619,0.672 -0.984,1.109 -0.365,0.438 -0.74,0.896 -1.125,1.375 l -1.062,1.328 c 0.187,1 0.364,1.865 0.531,2.594 0.166,0.729 0.315,1.336 0.445,1.82 0.13,0.485 0.245,0.867 0.344,1.149 0.099,0.281 0.206,0.492 0.32,0.633 0.115,0.14 0.232,0.239 0.352,0.296 0.119,0.058 0.258,0.086 0.414,0.086 0.281,0 0.554,-0.109 0.82,-0.328 0.266,-0.219 0.649,-0.713 1.149,-1.484 l 1.015,0.672 c -0.729,1.083 -1.388,1.846 -1.976,2.289 -0.589,0.442 -1.289,0.664 -2.102,0.664 -0.448,0 -0.828,-0.081 -1.141,-0.242 -0.312,-0.162 -0.583,-0.42 -0.812,-0.774 -0.229,-0.354 -0.432,-0.906 -0.609,-1.656 -0.323,-1.333 -0.521,-2.354 -0.594,-3.063 h -0.156 c -1.105,1.553 -1.925,2.667 -2.461,3.344 -0.537,0.677 -0.98,1.177 -1.329,1.5 -0.349,0.323 -0.687,0.55 -1.015,0.68 -0.328,0.13 -0.763,0.195 -1.305,0.195 -0.489,0 -0.89,-0.062 -1.203,-0.187 l 0.625,-2.828 h 1.094 c 0.062,0.437 0.245,0.656 0.547,0.656 0.145,0 0.299,-0.039 0.461,-0.117 0.161,-0.078 0.393,-0.266 0.695,-0.563 0.302,-0.297 0.719,-0.763 1.25,-1.398 0.531,-0.636 1.302,-1.589 2.312,-2.86 -0.156,-0.823 -0.317,-1.614 -0.484,-2.375 -0.167,-0.76 -0.339,-1.468 -0.516,-2.125 -0.177,-0.656 -0.323,-1.086 -0.437,-1.289 -0.115,-0.203 -0.237,-0.343 -0.367,-0.422 -0.131,-0.078 -0.295,-0.117 -0.492,-0.117 -0.219,0 -0.417,0.05 -0.594,0.149 -0.177,0.099 -0.37,0.271 -0.578,0.515 -0.209,0.245 -0.485,0.628 -0.828,1.149 l -1.016,-0.672 c 0.656,-0.99 1.286,-1.729 1.891,-2.219 0.604,-0.489 1.317,-0.734 2.14,-0.734 z"
       fill-rule="evenodd"
       id="path69" />
    <text
       fill="#000000"
       fill-opacity="0"
       font-family="Arial, Arial_MSFontService, sans-serif"
       font-size="15.4531px"
       x="424.461"
       y="522.40503"
       id="text71">ğ‘¥</text>
    <path
       d="m 446.847,516.926 c 0.773,0 1.449,0.12 2.031,0.359 0.581,0.239 1.025,0.583 1.333,1.031 0.307,0.447 0.461,0.982 0.461,1.604 0,0.581 -0.116,1.092 -0.349,1.533 -0.232,0.441 -0.559,0.826 -0.979,1.154 -0.42,0.328 -0.965,0.649 -1.635,0.964 v 0.092 c 0.417,0.075 0.818,0.203 1.204,0.385 0.387,0.181 0.73,0.415 1.031,0.702 0.301,0.287 0.542,0.631 0.723,1.03 0.181,0.4 0.272,0.857 0.272,1.369 0,0.793 -0.173,1.497 -0.518,2.113 -0.345,0.615 -0.874,1.1 -1.584,1.456 -0.711,0.355 -1.576,0.533 -2.595,0.533 -0.588,0 -1.222,-0.067 -1.902,-0.2 -0.68,-0.133 -1.304,-0.309 -1.871,-0.528 v -2.174 h 1.23 c 0.24,0.711 0.556,1.227 0.949,1.548 0.393,0.322 0.928,0.482 1.605,0.482 0.888,0 1.56,-0.242 2.014,-0.728 0.455,-0.485 0.682,-1.203 0.682,-2.153 0,-0.998 -0.3,-1.76 -0.902,-2.287 -0.602,-0.526 -1.483,-0.789 -2.646,-0.789 h -0.922 v -0.903 c 0.922,-0.054 1.7,-0.232 2.332,-0.533 0.633,-0.301 1.103,-0.687 1.41,-1.158 0.308,-0.472 0.462,-1.002 0.462,-1.59 0,-0.759 -0.202,-1.343 -0.605,-1.753 -0.404,-0.41 -0.991,-0.615 -1.764,-0.615 -0.643,0 -1.165,0.174 -1.569,0.523 -0.403,0.348 -0.7,0.881 -0.892,1.599 h -1.23 v -1.948 c 0.793,-0.376 1.534,-0.656 2.225,-0.841 0.69,-0.185 1.357,-0.277 1.999,-0.277 z"
       fill-rule="evenodd"
       id="path73" />
    <text
       fill="#000000"
       fill-opacity="0"
       font-family="Arial, Arial_MSFontService, sans-serif"
       font-size="14.3247px"
       x="442.46899"
       y="529.46002"
       id="text75">3</text>
    <text
       font-family="Calibri, Calibri_MSFontService, sans-serif"
       font-weight="400"
       font-size="48px"
       transform="translate(240.656,379)"
       id="text79">T(<tspan
   font-family="'Cambria Math', 'Cambria Math_MSFontService', sans-serif"
   font-size="48px"
   x="37.833302"
   y="0"
   id="tspan77">ğ‘¥</tspan></text>
    <path
       d="m 17.6719,-31.3359 -5.8828,5.0859 -1.2422,-1.4062 3.75,-3.2579 H 0 v -2.2031 h 14.2969 l -3.75,-3.2578 1.2422,-1.4062 5.8828,5.0859 z"
       transform="translate(286.083,379)"
       id="path81" />
    <text
       font-family="Calibri, Calibri_MSFontService, sans-serif"
       font-weight="400"
       font-size="48px"
       transform="translate(305.443,379)"
       id="text85">) = A<tspan
   font-family="'Cambria Math', 'Cambria Math_MSFontService', sans-serif"
   font-size="48px"
   x="87.833298"
   y="0"
   id="tspan83">ğ‘¥</tspan></text>
    <path
       d="m 17.6719,-31.3359 -5.8828,5.0859 -1.2422,-1.4062 3.75,-3.2579 H 0 v -2.2031 h 14.2969 l -3.75,-3.2578 1.2422,-1.4062 5.8828,5.0859 z"
       transform="translate(400.869,379)"
       id="path87" />
    <text
       font-family="Calibri, Calibri_MSFontService, sans-serif"
       font-weight="400"
       font-size="48px"
       transform="translate(431.063,379)"
       id="text91">= <tspan
   font-family="'Cambria Math', 'Cambria Math_MSFontService', sans-serif"
   font-size="48px"
   x="34.666698"
   y="0"
   id="tspan89">ğ‘¤</tspan></text>
    <path
       d="m 495.338,341.354 5.883,5.086 v 1.359 l -5.883,5.086 -1.242,-1.406 3.75,-3.258 h -9.634 -4.663 -1.55 -7.85 -6.213 v -2.203 h 6.213 7.85 1.55 4.663 9.634 l -3.75,-3.258 z"
       fill-rule="evenodd"
       id="path93" />
    <path
       d="m 665,251 c 0,-10.493 8.507,-19 19,-19 10.493,0 19,8.507 19,19 0,10.493 -8.507,19 -19,19 -10.493,0 -19,-8.507 -19,-19 z"
       fill="#fff2cc"
       fill-rule="evenodd"
       id="path95" />
    <path
       d="m 665,300 c 0,-10.493 8.507,-19 19,-19 10.493,0 19,8.507 19,19 0,10.493 -8.507,19 -19,19 -10.493,0 -19,-8.507 -19,-19 z"
       fill="#fbe5d6"
       fill-rule="evenodd"
       id="path97" />
    <text
       font-family="Calibri, Calibri_MSFontService, sans-serif"
       font-weight="400"
       font-size="27px"
       transform="translate(712.591,261)"
       id="text105">Domain<tspan
   font-size="27px"
   x="0"
   y="50"
   id="tspan99">Co</tspan><tspan
   font-size="27px"
   x="28.166599"
   y="50"
   id="tspan101">-</tspan><tspan
   font-size="27px"
   x="36.333302"
   y="50"
   id="tspan103">domain</tspan></text>
    <path
       d="m 665,347 c 0,-10.493 8.507,-19 19,-19 10.493,0 19,8.507 19,19 0,10.493 -8.507,19 -19,19 -10.493,0 -19,-8.507 -19,-19 z"
       fill="#dae3f3"
       fill-rule="evenodd"
       id="path107" />
    <text
       font-family="Calibri, Calibri_MSFontService, sans-serif"
       font-weight="400"
       font-size="27px"
       transform="translate(712.927,356)"
       id="text111">Range of T(<tspan
   font-family="'Cambria Math', 'Cambria Math_MSFontService', sans-serif"
   font-size="27px"
   x="122.28"
   y="0"
   id="tspan109">ğ‘¥</tspan></text>
    <path
       d="m 9.94043,-17.6265 -3.30908,2.8609 -0.69873,-0.791 2.10937,-1.8326 H 0 v -1.2392 h 8.04199 l -2.10937,-1.8325 0.69873,-0.7911 3.30908,2.8609 z"
       transform="translate(839.427,356)"
       id="path113" />
    <text
       font-family="Calibri, Calibri_MSFontService, sans-serif"
       font-weight="400"
       font-size="27px"
       transform="translate(850.18,356)"
       id="text119">) <tspan
   font-size="27px"
   x="14.1666"
   y="0"
   id="tspan115">or image of</tspan><tspan
   font-family="'Cambria Math', 'Cambria Math_MSFontService', sans-serif"
   font-size="27px"
   x="143.61301"
   y="0"
   id="tspan117">ğ‘¥</tspan></text>
    <path
       d="m 9.94043,-17.6265 -3.30908,2.8609 -0.69873,-0.791 2.10937,-1.8326 H 0 v -1.2392 h 8.04199 l -2.10937,-1.8325 0.69873,-0.7911 3.30908,2.8609 z"
       transform="translate(998.013,356)"
       id="path121" />
    <path
       d="m 362.776,447.477 h 7.859 v 63.657 h -7.859 v -1.438 h 4.797 v -60.781 h -4.797 z m -129.42,0 h 7.859 v 1.438 h -4.797 v 60.781 h 4.797 v 1.438 h -7.859 z"
       fill-rule="evenodd"
       id="path123" />
    <text
       font-family="'Cambria Math', 'Cambria Math_MSFontService', sans-serif"
       font-weight="400"
       font-size="32px"
       transform="translate(242.366,468)"
       id="text161">ğ‘<tspan
   font-size="32px"
   x="51.0667"
   y="0"
   id="tspan125">ğ‘</tspan><tspan
   font-size="32px"
   x="102.56"
   y="0"
   id="tspan127">ğ‘</tspan><tspan
   font-size="32px"
   x="-0.44665501"
   y="38"
   id="tspan129">ğ‘‘</tspan><tspan
   font-size="32px"
   x="51.813301"
   y="38"
   id="tspan131">ğ‘’</tspan><tspan
   font-size="32px"
   x="101.1"
   y="38"
   id="tspan133">ğ‘“</tspan><tspan
   font-size="32px"
   x="138.94701"
   y="20"
   id="tspan135">Ã—</tspan><tspan
   font-family="Calibri, Calibri_MSFontService, sans-serif"
   font-size="24px"
   x="27.4965"
   y="96"
   id="tspan137">m</tspan><tspan
   font-size="24px"
   x="46.6632"
   y="96"
   id="tspan139" /><tspan
   font-size="24px"
   x="51.996498"
   y="96"
   id="tspan141">Ã—</tspan><tspan
   font-family="Calibri, Calibri_MSFontService, sans-serif"
   font-size="24px"
   x="74.6632"
   y="96"
   id="tspan143">n</tspan><tspan
   font-family="Calibri, Calibri_MSFontService, sans-serif"
   font-size="24px"
   x="168.099"
   y="96"
   id="tspan145">n</tspan><tspan
   font-size="24px"
   x="180.76601"
   y="96"
   id="tspan147" /><tspan
   font-size="24px"
   x="186.099"
   y="96"
   id="tspan149">Ã—</tspan><tspan
   font-family="Calibri, Calibri_MSFontService, sans-serif"
   font-size="24px"
   x="208.76601"
   y="96"
   id="tspan151">1</tspan><tspan
   font-family="Calibri, Calibri_MSFontService, sans-serif"
   font-size="24px"
   x="257.229"
   y="96"
   id="tspan153">m</tspan><tspan
   font-size="24px"
   x="276.396"
   y="96"
   id="tspan155" /><tspan
   font-size="24px"
   x="281.729"
   y="96"
   id="tspan157">Ã—</tspan><tspan
   font-family="Calibri, Calibri_MSFontService, sans-serif"
   font-size="24px"
   x="304.396"
   y="96"
   id="tspan159">1</tspan></text>
  </g>
</svg>
