<?xml version="1.0" encoding="UTF-8" standalone="no"?>
<svg
   width="1280"
   height="620"
   overflow="hidden"
   version="1.1"
   id="svg289"
   sodipodi:docname="linear_systems-determinant_row_reduction.svg"
   inkscape:version="1.2 (dc2aedaf03, 2022-05-15)"
   xmlns:inkscape="http://www.inkscape.org/namespaces/inkscape"
   xmlns:sodipodi="http://sodipodi.sourceforge.net/DTD/sodipodi-0.dtd"
   xmlns="http://www.w3.org/2000/svg"
   xmlns:svg="http://www.w3.org/2000/svg">
  <sodipodi:namedview
     id="namedview291"
     pagecolor="#ffffff"
     bordercolor="#000000"
     borderopacity="0.25"
     inkscape:showpageshadow="2"
     inkscape:pageopacity="0.0"
     inkscape:pagecheckerboard="0"
     inkscape:deskcolor="#d1d1d1"
     showgrid="false"
     inkscape:zoom="0.92709556"
     inkscape:cx="388.84881"
     inkscape:cy="360.26491"
     inkscape:window-width="2560"
     inkscape:window-height="1494"
     inkscape:window-x="-11"
     inkscape:window-y="-11"
     inkscape:window-maximized="1"
     inkscape:current-layer="svg289" />
  <defs
     id="defs5">
    <clipPath
       id="clip0">
      <rect
         x="0"
         y="0"
         width="1280"
         height="720"
         id="rect2" />
    </clipPath>
  </defs>
  <g
     clip-path="url(#clip0)"
     id="g287"
     transform="translate(2.1572749,-32.359124)">
    <rect
       x="0"
       y="0"
       width="1280"
       height="720"
       fill="#ffffff"
       id="rect7" />
    <text
       font-family="Calibri, Calibri_MSFontService, sans-serif"
       font-weight="400"
       font-size="43px"
       transform="translate(377.444,97)"
       id="text17">Proving det(EA) = detE<tspan
   font-family="'Cambria Math', 'Cambria Math_MSFontService', sans-serif"
   font-size="43px"
   x="388.047"
   y="0"
   id="tspan9" /><tspan
   font-family="'Cambria Math', 'Cambria Math_MSFontService', sans-serif"
   font-size="43px"
   x="397.38"
   y="0"
   id="tspan11">Ã—</tspan><tspan
   font-size="43px"
   x="437.547"
   y="0"
   id="tspan13">detA</tspan><tspan
   font-size="43px"
   x="-343.07101"
   y="492"
   id="tspan15">A</tspan>=</text>
    <path
       d="M 98,542.595 C 98,536.191 103.191,531 109.595,531 h 73.81 c 6.404,0 11.595,5.191 11.595,11.595 v 66.81 C 195,615.809 189.809,621 183.405,621 h -73.81 C 103.191,621 98,615.809 98,609.405 Z"
       fill="#e2f0d9"
       fill-rule="evenodd"
       id="path19" />
    <text
       font-family="'Cambria Math', 'Cambria Math_MSFontService', sans-serif"
       font-weight="400"
       font-size="32px"
       transform="translate(114.206,566)"
       id="text31">ğ‘<tspan
   font-size="32px"
   x="51.353298"
   y="0"
   id="tspan21">ğ‘</tspan><tspan
   font-size="32px"
   x="1.46667"
   y="37"
   id="tspan23">ğ‘</tspan><tspan
   font-size="32px"
   x="50.6133"
   y="37"
   id="tspan25">ğ‘‘</tspan><tspan
   font-family="Calibri, Calibri_MSFontService, sans-serif"
   font-size="43px"
   x="-79.548203"
   y="-85"
   id="tspan27">E</tspan><tspan
   font-family="Calibri, Calibri_MSFontService, sans-serif"
   font-size="43px"
   x="-49.048199"
   y="-85"
   id="tspan29">=</tspan></text>
    <path
       d="M 94,435.595 C 94,429.191 99.1911,424 105.595,424 h 73.81 c 6.404,0 11.595,5.191 11.595,11.595 v 66.81 C 191,508.809 185.809,514 179.405,514 h -73.81 C 99.1911,514 94,508.809 94,502.405 Z"
       fill="#e2f0d9"
       fill-rule="evenodd"
       id="path33" />
    <text
       font-family="'Cambria Math', 'Cambria Math_MSFontService', sans-serif"
       font-weight="400"
       font-size="32px"
       transform="translate(110.808,457)"
       id="text47">1<tspan
   font-size="32px"
   x="49.666698"
   y="0"
   id="tspan35">1</tspan><tspan
   font-size="32px"
   x="0"
   y="38"
   id="tspan37">0</tspan><tspan
   font-size="32px"
   x="49.666698"
   y="38"
   id="tspan39">1</tspan><tspan
   font-family="Calibri, Calibri_MSFontService, sans-serif"
   font-size="27px"
   x="-76.150803"
   y="-287"
   id="tspan41">Row replacement: R1</tspan><tspan
   font-size="27px"
   x="161.263"
   y="-287"
   id="tspan43">â†’</tspan><tspan
   font-family="Calibri, Calibri_MSFontService, sans-serif"
   font-size="27px"
   x="189.59599"
   y="-287"
   id="tspan45">R1+ R2</tspan></text>
    <path
       d="M 81,213.595 C 81,207.191 86.1911,202 92.5946,202 H 268.405 c 6.404,0 11.595,5.191 11.595,11.595 v 66.81 C 280,286.809 274.809,292 268.405,292 H 92.5946 C 86.1911,292 81,286.809 81,280.405 Z"
       fill="#e2f0d9"
       fill-rule="evenodd"
       id="path49" />
    <text
       font-family="'Cambria Math', 'Cambria Math_MSFontService', sans-serif"
       font-weight="400"
       font-size="32px"
       transform="translate(196.785,238)"
       id="text65">1<tspan
   font-size="32px"
   x="49.666698"
   y="0"
   id="tspan51">0</tspan><tspan
   font-size="32px"
   x="0"
   y="37"
   id="tspan53">0</tspan><tspan
   font-size="32px"
   x="49.666698"
   y="37"
   id="tspan55">1</tspan><tspan
   font-size="32px"
   x="-101.941"
   y="-1"
   id="tspan57">ğ‘</tspan><tspan
   font-size="32px"
   x="-50.587799"
   y="-1"
   id="tspan59">ğ‘</tspan><tspan
   font-size="32px"
   x="-100.474"
   y="37"
   id="tspan61">ğ‘</tspan><tspan
   font-size="32px"
   x="-51.327801"
   y="37"
   id="tspan63">ğ‘‘</tspan></text>
    <path
       d="m 182,202 v 90.043"
       stroke="#385723"
       stroke-width="4"
       stroke-miterlimit="8"
       fill="none"
       fill-rule="evenodd"
       id="path67" />
    <text
       font-family="'Cambria Math', 'Cambria Math_MSFontService', sans-serif"
       font-weight="400"
       font-size="43px"
       transform="translate(34.9126,361)"
       id="text69">~</text>
    <path
       d="M 81,313.595 C 81,307.191 86.1912,302 92.5948,302 H 375.405 c 6.404,0 11.595,5.191 11.595,11.595 v 66.81 C 387,386.809 381.809,392 375.405,392 H 92.5948 C 86.1912,392 81,386.809 81,380.405 Z"
       fill="#e2f0d9"
       fill-rule="evenodd"
       id="path71" />
    <text
       font-family="'Cambria Math', 'Cambria Math_MSFontService', sans-serif"
       font-weight="400"
       font-size="32px"
       transform="translate(305.977,340)"
       id="text95">1<tspan
   font-size="32px"
   x="49.666698"
   y="0"
   id="tspan73">1</tspan><tspan
   font-size="32px"
   x="0"
   y="37"
   id="tspan75">0</tspan><tspan
   font-size="32px"
   x="49.666698"
   y="37"
   id="tspan77">1</tspan><tspan
   font-size="32px"
   x="-210.883"
   y="0"
   id="tspan79">ğ‘</tspan><tspan
   font-size="32px"
   x="-185.15601"
   y="0"
   id="tspan81">+</tspan><tspan
   font-size="32px"
   x="-154.209"
   y="0"
   id="tspan83">ğ‘</tspan><tspan
   font-size="32px"
   x="-106.529"
   y="0"
   id="tspan85">ğ‘</tspan><tspan
   font-size="32px"
   x="-81.382698"
   y="0"
   id="tspan87">+</tspan><tspan
   font-size="32px"
   x="-50.436001"
   y="0"
   id="tspan89">ğ‘‘</tspan><tspan
   font-size="32px"
   x="-182.549"
   y="38"
   id="tspan91">ğ‘</tspan><tspan
   font-size="32px"
   x="-78.482697"
   y="38"
   id="tspan93">ğ‘‘</tspan></text>
    <path
       d="m 290,302 v 90.043"
       stroke="#385723"
       stroke-width="4"
       stroke-miterlimit="8"
       fill="none"
       fill-rule="evenodd"
       id="path97" />
    <text
       font-family="Calibri, Calibri_MSFontService, sans-serif"
       font-weight="400"
       font-size="32px"
       transform="translate(214.332,480)"
       id="text109">detE = 1<tspan
   font-size="32px"
   x="0.169037"
   y="106"
   id="tspan99">detA</tspan>= <tspan
   font-style="italic"
   font-size="32px"
   x="92.329002"
   y="106"
   id="tspan101">ad</tspan>-<tspan
   font-style="italic"
   font-size="32px"
   x="135.162"
   y="106"
   id="tspan103">cb</tspan><tspan
   font-size="43px"
   x="281.026"
   y="109"
   id="tspan105">A</tspan><tspan
   font-size="43px"
   x="315.35901"
   y="109"
   id="tspan107">=</tspan></text>
    <path
       d="M 559,542.595 C 559,536.191 564.191,531 570.595,531 h 73.81 c 6.404,0 11.595,5.191 11.595,11.595 v 66.81 C 656,615.809 650.809,621 644.405,621 h -73.81 C 564.191,621 559,615.809 559,609.405 Z"
       fill="#e2f0d9"
       fill-rule="evenodd"
       id="path111" />
    <text
       font-family="'Cambria Math', 'Cambria Math_MSFontService', sans-serif"
       font-weight="400"
       font-size="32px"
       transform="translate(575.19,566)"
       id="text123">ğ‘<tspan
   font-size="32px"
   x="51.353298"
   y="0"
   id="tspan113">ğ‘</tspan><tspan
   font-size="32px"
   x="1.46667"
   y="37"
   id="tspan115">ğ‘</tspan><tspan
   font-size="32px"
   x="50.6133"
   y="37"
   id="tspan117">ğ‘‘</tspan><tspan
   font-family="Calibri, Calibri_MSFontService, sans-serif"
   font-size="43px"
   x="-79.959702"
   y="-91"
   id="tspan119">E</tspan><tspan
   font-family="Calibri, Calibri_MSFontService, sans-serif"
   font-size="43px"
   x="-49.459702"
   y="-91"
   id="tspan121">=</tspan></text>
    <path
       d="M 554,429.595 C 554,423.191 559.191,418 565.595,418 h 73.81 c 6.404,0 11.595,5.191 11.595,11.595 v 66.81 C 651,502.809 645.809,508 639.405,508 h -73.81 C 559.191,508 554,502.809 554,496.405 Z"
       fill="#e2f0d9"
       fill-rule="evenodd"
       id="path125" />
    <text
       font-family="'Cambria Math', 'Cambria Math_MSFontService', sans-serif"
       font-weight="400"
       font-size="32px"
       transform="translate(571.381,452)"
       id="text139">0<tspan
   font-size="32px"
   x="49.666698"
   y="0"
   id="tspan127">1</tspan><tspan
   font-size="32px"
   x="0"
   y="37"
   id="tspan129">1</tspan><tspan
   font-size="32px"
   x="49.666698"
   y="37"
   id="tspan131">0</tspan><tspan
   font-family="Calibri, Calibri_MSFontService, sans-serif"
   font-size="27px"
   x="-75.569901"
   y="-283"
   id="tspan133">Row interchange: R1</tspan><tspan
   font-size="27px"
   x="153.13"
   y="-283"
   id="tspan135">â†’</tspan><tspan
   font-family="Calibri, Calibri_MSFontService, sans-serif"
   font-size="27px"
   x="181.463"
   y="-283"
   id="tspan137">R2</tspan></text>
    <path
       d="M 542,212.595 C 542,206.191 547.191,201 553.595,201 h 175.81 c 6.404,0 11.595,5.191 11.595,11.595 v 66.81 C 741,285.809 735.809,291 729.405,291 H 553.595 C 547.191,291 542,285.809 542,279.405 Z"
       fill="#e2f0d9"
       fill-rule="evenodd"
       id="path141" />
    <text
       font-family="'Cambria Math', 'Cambria Math_MSFontService', sans-serif"
       font-weight="400"
       font-size="32px"
       transform="translate(657.939,237)"
       id="text157">1<tspan
   font-size="32px"
   x="49.666698"
   y="0"
   id="tspan143">0</tspan><tspan
   font-size="32px"
   x="0"
   y="38"
   id="tspan145">0</tspan><tspan
   font-size="32px"
   x="49.666698"
   y="38"
   id="tspan147">1</tspan><tspan
   font-size="32px"
   x="-101.941"
   y="0"
   id="tspan149">ğ‘</tspan><tspan
   font-size="32px"
   x="-50.587799"
   y="0"
   id="tspan151">ğ‘</tspan><tspan
   font-size="32px"
   x="-100.474"
   y="38"
   id="tspan153">ğ‘</tspan><tspan
   font-size="32px"
   x="-51.327801"
   y="38"
   id="tspan155">ğ‘‘</tspan></text>
    <path
       d="m 643,201 v 90.043"
       stroke="#385723"
       stroke-width="4"
       stroke-miterlimit="8"
       fill="none"
       fill-rule="evenodd"
       id="path159" />
    <text
       font-family="'Cambria Math', 'Cambria Math_MSFontService', sans-serif"
       font-weight="400"
       font-size="43px"
       transform="translate(492.289,361)"
       id="text161">~</text>
    <path
       d="M 542,313.595 C 542,307.191 547.191,302 553.595,302 h 175.81 c 6.404,0 11.595,5.191 11.595,11.595 v 66.81 C 741,386.809 735.809,392 729.405,392 H 553.595 C 547.191,392 542,386.809 542,380.405 Z"
       fill="#e2f0d9"
       fill-rule="evenodd"
       id="path163" />
    <text
       font-family="'Cambria Math', 'Cambria Math_MSFontService', sans-serif"
       font-weight="400"
       font-size="32px"
       transform="translate(657.939,338)"
       id="text179">0<tspan
   font-size="32px"
   x="49.666698"
   y="0"
   id="tspan165">1</tspan><tspan
   font-size="32px"
   x="0"
   y="38"
   id="tspan167">1</tspan><tspan
   font-size="32px"
   x="49.666698"
   y="38"
   id="tspan169">0</tspan><tspan
   font-size="32px"
   x="-101.724"
   y="2"
   id="tspan171">ğ‘</tspan><tspan
   font-size="32px"
   x="-52.577801"
   y="2"
   id="tspan173">ğ‘‘</tspan><tspan
   font-size="32px"
   x="-103.191"
   y="39"
   id="tspan175">ğ‘</tspan><tspan
   font-size="32px"
   x="-51.837799"
   y="39"
   id="tspan177">ğ‘</tspan></text>
    <path
       d="m 643,302 v 90.043"
       stroke="#385723"
       stroke-width="4"
       stroke-miterlimit="8"
       fill="none"
       fill-rule="evenodd"
       id="path181" />
    <text
       font-family="Calibri, Calibri_MSFontService, sans-serif"
       font-weight="400"
       font-size="32px"
       transform="translate(677.248,471)"
       id="text201">detE = <tspan
   font-size="32px"
   x="89.326698"
   y="0"
   id="tspan183">-</tspan><tspan
   font-size="32px"
   x="99.160004"
   y="0"
   id="tspan185">1</tspan><tspan
   font-size="32px"
   x="1.4890701"
   y="114"
   id="tspan187">detA</tspan><tspan
   font-size="32px"
   x="70.482399"
   y="114"
   id="tspan189">=</tspan><tspan
   font-style="italic"
   font-size="32px"
   x="93.649002"
   y="114"
   id="tspan191">ad</tspan>-<tspan
   font-style="italic"
   font-size="32px"
   x="136.48199"
   y="114"
   id="tspan193">cb</tspan><tspan
   font-family="'Cambria Math', 'Cambria Math_MSFontService', sans-serif"
   font-size="43px"
   x="234.707"
   y="-111"
   id="tspan195">~</tspan><tspan
   font-size="43px"
   x="232.487"
   y="114"
   id="tspan197">A</tspan><tspan
   font-size="43px"
   x="266.82001"
   y="114"
   id="tspan199">=</tspan></text>
    <path
       d="M 974,537.595 C 974,531.191 979.191,526 985.595,526 h 73.815 c 6.4,0 11.59,5.191 11.59,11.595 v 66.81 c 0,6.404 -5.19,11.595 -11.59,11.595 H 985.595 C 979.191,616 974,610.809 974,604.405 Z"
       fill="#e2f0d9"
       fill-rule="evenodd"
       id="path203" />
    <text
       font-family="'Cambria Math', 'Cambria Math_MSFontService', sans-serif"
       font-weight="400"
       font-size="32px"
       transform="translate(989.568,561)"
       id="text215">ğ‘<tspan
   font-size="32px"
   x="51.353401"
   y="0"
   id="tspan205">ğ‘</tspan><tspan
   font-size="32px"
   x="1.46667"
   y="38"
   id="tspan207">ğ‘</tspan><tspan
   font-size="32px"
   x="50.6133"
   y="38"
   id="tspan209">ğ‘‘</tspan><tspan
   font-family="Calibri, Calibri_MSFontService, sans-serif"
   font-size="43px"
   x="-79.832497"
   y="-85"
   id="tspan211">E</tspan><tspan
   font-family="Calibri, Calibri_MSFontService, sans-serif"
   font-size="43px"
   x="-49.3325"
   y="-85"
   id="tspan213">=</tspan></text>
    <path
       d="M 969,430.595 C 969,424.191 974.191,419 980.595,419 h 73.815 c 6.4,0 11.59,5.191 11.59,11.595 v 66.81 c 0,6.404 -5.19,11.595 -11.59,11.595 H 980.595 C 974.191,509 969,503.809 969,497.405 Z"
       fill="#e2f0d9"
       fill-rule="evenodd"
       id="path217" />
    <text
       font-family="'Cambria Math', 'Cambria Math_MSFontService', sans-serif"
       font-weight="400"
       font-size="32px"
       transform="translate(984.946,454)"
       id="text233">ğ‘˜<tspan
   font-size="32px"
   x="51.073399"
   y="0"
   id="tspan219">0</tspan><tspan
   font-size="32px"
   x="0.46661401"
   y="37"
   id="tspan221">0</tspan><tspan
   font-size="32px"
   x="50.606701"
   y="37"
   id="tspan223">ğ‘˜</tspan><tspan
   font-family="Calibri, Calibri_MSFontService, sans-serif"
   font-size="27px"
   x="-75.2108"
   y="-285"
   id="tspan225">Row interchange: R1</tspan><tspan
   font-size="27px"
   x="153.489"
   y="-285"
   id="tspan227">â†’</tspan><tspan
   font-family="Calibri, Calibri_MSFontService, sans-serif"
   font-style="italic"
   font-size="27px"
   x="181.823"
   y="-285"
   id="tspan229">k</tspan><tspan
   font-family="Calibri, Calibri_MSFontService, sans-serif"
   font-size="27px"
   x="193.989"
   y="-285"
   id="tspan231">R1</tspan></text>
    <path
       d="M 956,212.595 C 956,206.191 961.191,201 967.595,201 h 175.815 c 6.4,0 11.59,5.191 11.59,11.595 v 66.81 c 0,6.404 -5.19,11.595 -11.59,11.595 H 967.595 C 961.191,291 956,285.809 956,279.405 Z"
       fill="#e2f0d9"
       fill-rule="evenodd"
       id="path235" />
    <text
       font-family="'Cambria Math', 'Cambria Math_MSFontService', sans-serif"
       font-weight="400"
       font-size="32px"
       transform="translate(1071.86,237)"
       id="text251">1<tspan
   font-size="32px"
   x="49.666599"
   y="0"
   id="tspan237">0</tspan><tspan
   font-size="32px"
   x="0"
   y="38"
   id="tspan239">0</tspan><tspan
   font-size="32px"
   x="49.666599"
   y="38"
   id="tspan241">1</tspan><tspan
   font-size="32px"
   x="-101.941"
   y="0"
   id="tspan243">ğ‘</tspan><tspan
   font-size="32px"
   x="-50.587799"
   y="0"
   id="tspan245">ğ‘</tspan><tspan
   font-size="32px"
   x="-100.474"
   y="38"
   id="tspan247">ğ‘</tspan><tspan
   font-size="32px"
   x="-51.327801"
   y="38"
   id="tspan249">ğ‘‘</tspan></text>
    <path
       d="m 1057,201 v 90.043"
       stroke="#385723"
       stroke-width="4"
       stroke-miterlimit="8"
       fill="none"
       fill-rule="evenodd"
       id="path253" />
    <path
       d="M 956,313.595 C 956,307.191 961.191,302 967.595,302 h 212.815 c 6.4,0 11.59,5.191 11.59,11.595 v 66.81 c 0,6.404 -5.19,11.595 -11.59,11.595 H 967.595 C 961.191,392 956,386.809 956,380.405 Z"
       fill="#e2f0d9"
       fill-rule="evenodd"
       id="path255" />
    <text
       font-family="'Cambria Math', 'Cambria Math_MSFontService', sans-serif"
       font-weight="400"
       font-size="32px"
       transform="translate(1108.45,340)"
       id="text271">ğ‘˜<tspan
   font-size="32px"
   x="50.606701"
   y="0"
   id="tspan257">0</tspan><tspan
   font-size="32px"
   x="0.46667501"
   y="37"
   id="tspan259">0</tspan><tspan
   font-size="32px"
   x="50.606701"
   y="37"
   id="tspan261">1</tspan><tspan
   font-size="32px"
   x="-138.175"
   y="0"
   id="tspan263">ğ‘˜ğ‘</tspan><tspan
   font-size="32px"
   x="-69.895103"
   y="0"
   id="tspan265">ğ‘˜ğ‘</tspan><tspan
   font-size="32px"
   x="-127.875"
   y="37"
   id="tspan267">ğ‘</tspan><tspan
   font-size="32px"
   x="-61.801899"
   y="37"
   id="tspan269">ğ‘‘</tspan></text>
    <path
       d="m 1094,302 v 90.043"
       stroke="#385723"
       stroke-width="4"
       stroke-miterlimit="8"
       fill="none"
       fill-rule="evenodd"
       id="path273" />
    <text
       font-family="Calibri, Calibri_MSFontService, sans-serif"
       font-weight="400"
       font-size="32px"
       transform="translate(1088.5,469)"
       id="text285">detE = <tspan
   font-style="italic"
   font-size="32px"
   x="89.326698"
   y="0"
   id="tspan275">k</tspan><tspan
   font-size="32px"
   x="5.1656499"
   y="113"
   id="tspan277">detA</tspan><tspan
   font-size="32px"
   x="74.158897"
   y="113"
   id="tspan279">=</tspan><tspan
   font-style="italic"
   font-size="32px"
   x="97.325699"
   y="113"
   id="tspan281">ad</tspan>-<tspan
   font-style="italic"
   font-size="32px"
   x="140.159"
   y="113"
   id="tspan283">cb</tspan></text>
  </g>
</svg>
