<?xml version="1.0" encoding="UTF-8" standalone="no"?>
<svg
   width="1280"
   height="620"
   overflow="hidden"
   version="1.1"
   id="svg277"
   sodipodi:docname="linear_systems-locating_basis_vectors.svg"
   inkscape:version="1.2 (dc2aedaf03, 2022-05-15)"
   xmlns:inkscape="http://www.inkscape.org/namespaces/inkscape"
   xmlns:sodipodi="http://sodipodi.sourceforge.net/DTD/sodipodi-0.dtd"
   xmlns="http://www.w3.org/2000/svg"
   xmlns:svg="http://www.w3.org/2000/svg">
  <sodipodi:namedview
     id="namedview279"
     pagecolor="#ffffff"
     bordercolor="#000000"
     borderopacity="0.25"
     inkscape:showpageshadow="2"
     inkscape:pageopacity="0.0"
     inkscape:pagecheckerboard="0"
     inkscape:deskcolor="#d1d1d1"
     showgrid="false"
     inkscape:zoom="0.92709556"
     inkscape:cx="370.51197"
     inkscape:cy="477.8364"
     inkscape:window-width="2880"
     inkscape:window-height="1514"
     inkscape:window-x="3829"
     inkscape:window-y="-11"
     inkscape:window-maximized="1"
     inkscape:current-layer="svg277" />
  <defs
     id="defs5" />
  <rect
     x="84.13372"
     y="-42.06686"
     width="1280"
     height="720"
     fill="#ffffff"
     id="rect7" />
  <path
     d="m 671.13372,196.34914 c 0,-12.38 10.036,-22.416 22.416,-22.416 h 217.168 c 12.38,0 22.416,10.036 22.416,22.416 v 129.168 c 0,12.38 -10.036,22.416 -22.416,22.416 h -217.168 c -12.38,0 -22.416,-10.036 -22.416,-22.416 z"
     fill="#e2f0d9"
     fill-rule="evenodd"
     id="path9" />
  <path
     d="m 331.13372,196.35014 c 0,-12.381 10.036,-22.417 22.417,-22.417 h 211.166 c 12.381,0 22.417,10.036 22.417,22.417 v 129.166 c 0,12.381 -10.036,22.417 -22.417,22.417 h -211.166 c -12.381,0 -22.417,-10.036 -22.417,-22.417 z"
     fill="#e2f0d9"
     fill-rule="evenodd"
     id="path11" />
  <path
     d="m 864.13372,173.93314 v 173.878"
     stroke="#385723"
     stroke-width="4"
     stroke-miterlimit="8"
     fill="none"
     fill-rule="evenodd"
     id="path13" />
  <path
     d="m 520.13372,173.93314 v 174.234"
     stroke="#385723"
     stroke-width="4"
     stroke-miterlimit="8"
     fill="none"
     fill-rule="evenodd"
     id="path15" />
  <text
     font-family="Calibri, Calibri_MSFontService, sans-serif"
     font-weight="400"
     font-size="43px"
     id="text19"
     x="445.88672"
     y="143.93314">A<tspan
   font-size="43px"
   x="787.02576"
   y="144.93314"
   id="tspan17">B</tspan></text>
  <path
     d="m 692.13372,209.43314 c 0,-11.322 9.85,-20.5 22,-20.5 12.15,0 22,9.178 22,20.5 0,11.322 -9.85,20.5 -22,20.5 -12.15,0 -22,-9.178 -22,-20.5 z"
     fill="#bdd7ee"
     fill-rule="evenodd"
     fill-opacity="0.501961"
     id="path21" />
  <path
     d="m 748.13372,245.43314 c 0,-11.322 9.626,-20.5 21.5,-20.5 11.874,0 21.5,9.178 21.5,20.5 0,11.322 -9.626,20.5 -21.5,20.5 -11.874,0 -21.5,-9.178 -21.5,-20.5 z"
     fill="#bdd7ee"
     fill-rule="evenodd"
     fill-opacity="0.501961"
     id="path23" />
  <path
     d="m 807.13372,284.43314 c 0,-11.322 9.626,-20.5 21.5,-20.5 11.874,0 21.5,9.178 21.5,20.5 0,11.322 -9.626,20.5 -21.5,20.5 -11.874,0 -21.5,-9.178 -21.5,-20.5 z"
     fill="#bdd7ee"
     fill-rule="evenodd"
     fill-opacity="0.501961"
     id="path25" />
  <path
     d="m 890.13372,568.43314 c 0,-11.322 9.626,-20.5 21.5,-20.5 11.874,0 21.5,9.178 21.5,20.5 0,11.322 -9.626,20.5 -21.5,20.5 -11.874,0 -21.5,-9.178 -21.5,-20.5 z"
     fill="#bdd7ee"
     fill-rule="evenodd"
     fill-opacity="0.501961"
     id="path27" />
  <text
     font-family="Calibri, Calibri_MSFontService, sans-serif"
     font-weight="400"
     font-size="27px"
     id="text31"
     x="942.62775"
     y="577.93311">Pivot <tspan
   font-size="27px"
   x="1003.3811"
   y="577.93311"
   id="tspan29">columns</tspan></text>
  <path
     d="m 370.67872,198.61914 c -0.719,0 -1.32,0.214 -1.805,0.641 -0.484,0.427 -0.875,1.041 -1.171,1.844 -0.297,0.802 -0.508,1.778 -0.633,2.929 -0.125,1.151 -0.188,2.451 -0.188,3.899 0,3.395 0.315,5.888 0.946,7.476 0.63,1.589 1.606,2.383 2.929,2.383 1.261,0 2.196,-0.747 2.805,-2.242 0.609,-1.495 0.914,-3.81 0.914,-6.945 0,-2.396 -0.156,-4.336 -0.469,-5.821 -0.312,-1.484 -0.747,-2.549 -1.304,-3.195 -0.558,-0.646 -1.232,-0.969 -2.024,-0.969 z m 0.078,-1.328 c 2.281,0 3.979,0.88 5.094,2.641 1.115,1.76 1.672,4.422 1.672,7.984 0,3.688 -0.596,6.477 -1.789,8.367 -1.193,1.891 -2.935,2.836 -5.227,2.836 -2.25,0 -3.924,-0.885 -5.023,-2.656 -1.099,-1.771 -1.649,-4.458 -1.649,-8.063 0,-1.916 0.17,-3.573 0.508,-4.968 0.339,-1.396 0.813,-2.55 1.422,-3.461 0.609,-0.912 1.341,-1.586 2.195,-2.024 0.855,-0.437 1.787,-0.656 2.797,-0.656 z"
     fill-rule="evenodd"
     id="path33" />
  <text
     fill="#000000"
     fill-opacity="0"
     font-family="Arial, Arial_MSFontService, sans-serif"
     font-size="21.8281px"
     x="363.83472"
     y="216.39114"
     id="text35">0</text>
  <path
     d="m 413.43972,209.91614 h 6.546 c 0.146,0 0.248,0.047 0.305,0.141 0.057,0.093 0.086,0.218 0.086,0.375 0,0.062 -0.003,0.145 -0.008,0.25 -0.005,0.104 -0.023,0.216 -0.054,0.336 -0.032,0.119 -0.068,0.239 -0.11,0.359 -0.042,0.12 -0.091,0.232 -0.148,0.336 -0.058,0.104 -0.131,0.187 -0.219,0.25 -0.089,0.062 -0.185,0.094 -0.289,0.094 h -6.547 c -0.135,0 -0.234,-0.047 -0.297,-0.141 -0.062,-0.094 -0.094,-0.234 -0.094,-0.422 0,-0.052 0.006,-0.127 0.016,-0.226 0.01,-0.099 0.029,-0.209 0.055,-0.329 0.026,-0.119 0.06,-0.242 0.101,-0.367 0.042,-0.125 0.094,-0.237 0.157,-0.336 0.062,-0.099 0.132,-0.177 0.21,-0.234 0.079,-0.057 0.175,-0.086 0.29,-0.086 z"
     fill-rule="evenodd"
     id="path37" />
  <text
     fill="#000000"
     fill-opacity="0"
     font-family="Arial, Arial_MSFontService, sans-serif"
     font-size="2.14062px"
     x="412.61072"
     y="211.78914"
     id="text39">-</text>
  <path
     d="m 430.30372,197.29114 c 1.938,0 3.401,0.424 4.391,1.273 0.989,0.849 1.484,2.081 1.484,3.696 0,0.552 -0.055,1.06 -0.164,1.523 -0.109,0.464 -0.281,0.922 -0.516,1.375 -0.234,0.453 -0.549,0.94 -0.945,1.461 -0.396,0.521 -0.833,1.05 -1.312,1.586 -0.48,0.537 -1.308,1.43 -2.485,2.68 -1.979,2.094 -3.432,3.922 -4.359,5.484 h 5.89 c 0.511,0 0.922,-0.031 1.235,-0.094 0.312,-0.062 0.562,-0.166 0.75,-0.312 0.187,-0.146 0.336,-0.336 0.445,-0.57 0.11,-0.235 0.248,-0.597 0.414,-1.086 h 1.328 l -0.265,4.562 h -12.86 v -0.75 c 0.448,-1.094 1.052,-2.213 1.813,-3.359 0.76,-1.146 1.838,-2.495 3.234,-4.047 1.209,-1.333 2.078,-2.344 2.61,-3.031 0.583,-0.75 1.018,-1.399 1.304,-1.946 0.287,-0.547 0.492,-1.062 0.617,-1.547 0.125,-0.484 0.188,-0.971 0.188,-1.46 0,-0.782 -0.125,-1.472 -0.375,-2.071 -0.25,-0.599 -0.633,-1.07 -1.148,-1.414 -0.516,-0.344 -1.165,-0.515 -1.946,-0.515 -1.948,0 -3.26,1.083 -3.937,3.25 h -1.891 v -3 c 1.261,-0.594 2.44,-1.024 3.539,-1.29 1.099,-0.265 2.086,-0.398 2.961,-0.398 z"
     fill-rule="evenodd"
     id="path41" />
  <text
     fill="#000000"
     fill-opacity="0"
     font-family="Arial, Arial_MSFontService, sans-serif"
     font-size="21.5781px"
     x="423.33472"
     y="216.17215"
     id="text43">2</text>
  <path
     d="m 484.75872,198.61914 c -0.719,0 -1.32,0.214 -1.805,0.641 -0.484,0.427 -0.875,1.041 -1.171,1.844 -0.297,0.802 -0.508,1.778 -0.633,2.929 -0.125,1.151 -0.188,2.451 -0.188,3.899 0,3.395 0.315,5.888 0.946,7.476 0.63,1.589 1.606,2.383 2.929,2.383 1.261,0 2.196,-0.747 2.805,-2.242 0.609,-1.495 0.914,-3.81 0.914,-6.945 0,-2.396 -0.156,-4.336 -0.469,-5.821 -0.312,-1.484 -0.747,-2.549 -1.304,-3.195 -0.558,-0.646 -1.232,-0.969 -2.024,-0.969 z m 0.078,-1.328 c 2.281,0 3.979,0.88 5.094,2.641 1.115,1.76 1.672,4.422 1.672,7.984 0,3.688 -0.597,6.477 -1.789,8.367 -1.193,1.891 -2.935,2.836 -5.227,2.836 -2.25,0 -3.924,-0.885 -5.023,-2.656 -1.099,-1.771 -1.649,-4.458 -1.649,-8.063 0,-1.916 0.17,-3.573 0.508,-4.968 0.339,-1.396 0.813,-2.55 1.422,-3.461 0.609,-0.912 1.341,-1.586 2.195,-2.024 0.854,-0.437 1.787,-0.656 2.797,-0.656 z"
     fill-rule="evenodd"
     id="path45" />
  <text
     fill="#000000"
     fill-opacity="0"
     font-family="Arial, Arial_MSFontService, sans-serif"
     font-size="21.8281px"
     x="477.91473"
     y="216.39114"
     id="text47">0</text>
  <path
     d="m 556.25872,196.51014 h 1.219 l -0.235,3.625 h -8.984 v 6.859 c 0.542,-0.229 1.13,-0.401 1.766,-0.515 0.635,-0.115 1.271,-0.172 1.906,-0.172 1.24,0 2.338,0.252 3.297,0.757 0.958,0.506 1.698,1.224 2.219,2.157 0.52,0.932 0.781,2.013 0.781,3.242 0,1.396 -0.292,2.594 -0.875,3.594 -0.584,1 -1.427,1.76 -2.531,2.281 -1.105,0.521 -2.412,0.781 -3.922,0.781 -1.802,0 -3.688,-0.37 -5.657,-1.109 v -3.313 h 1.891 c 0.313,1.063 0.784,1.844 1.414,2.344 0.63,0.5 1.445,0.75 2.445,0.75 1.386,0 2.433,-0.417 3.141,-1.25 0.708,-0.833 1.063,-2.078 1.063,-3.734 0,-1.105 -0.188,-2.019 -0.563,-2.743 -0.375,-0.724 -0.88,-1.247 -1.516,-1.57 -0.635,-0.323 -1.375,-0.484 -2.218,-0.484 -0.709,0 -1.318,0.044 -1.828,0.133 -0.511,0.088 -1.058,0.226 -1.641,0.414 l -1.25,-0.735 v -10.281 h 8.609 c 0.354,0 0.61,-0.029 0.766,-0.086 0.156,-0.057 0.281,-0.146 0.375,-0.266 0.094,-0.119 0.203,-0.346 0.328,-0.679 z"
     fill-rule="evenodd"
     id="path49" />
  <text
     fill="#000000"
     fill-opacity="0"
     font-family="Arial, Arial_MSFontService, sans-serif"
     font-size="22.6094px"
     x="545.24274"
     y="216.29312"
     id="text51">5</text>
  <path
     d="m 371.91272,234.80414 h 0.86 c -0.063,1 -0.094,2.386 -0.094,4.157 v 13.343 c 0,0.604 0.034,1.06 0.102,1.368 0.067,0.307 0.187,0.557 0.359,0.75 0.172,0.192 0.419,0.343 0.742,0.453 0.323,0.109 0.729,0.192 1.219,0.25 0.49,0.057 1.135,0.096 1.937,0.117 v 1.14 h -11.546 v -1.14 c 1.156,-0.052 1.981,-0.123 2.476,-0.211 0.495,-0.089 0.873,-0.221 1.133,-0.399 0.26,-0.177 0.451,-0.427 0.57,-0.75 0.12,-0.322 0.18,-0.849 0.18,-1.578 v -12.672 c 0,-0.416 -0.073,-0.721 -0.219,-0.914 -0.146,-0.192 -0.359,-0.289 -0.64,-0.289 -0.334,0 -0.808,0.172 -1.422,0.516 -0.615,0.344 -1.375,0.818 -2.282,1.422 l -0.687,-1.203 z"
     fill-rule="evenodd"
     id="path53" />
  <text
     fill="#000000"
     fill-opacity="0"
     font-family="Arial, Arial_MSFontService, sans-serif"
     font-size="21.5781px"
     x="364.60074"
     y="253.68517"
     id="text55">1</text>
  <path
     d="m 425.32172,234.80414 c 1.177,0 2.208,0.183 3.093,0.547 0.886,0.365 1.563,0.888 2.032,1.571 0.468,0.682 0.703,1.497 0.703,2.445 0,0.885 -0.177,1.664 -0.532,2.336 -0.354,0.672 -0.851,1.258 -1.492,1.758 -0.64,0.5 -1.471,0.989 -2.492,1.468 v 0.141 c 0.635,0.115 1.247,0.31 1.836,0.586 0.589,0.276 1.112,0.633 1.57,1.07 0.459,0.438 0.826,0.961 1.102,1.571 0.276,0.609 0.414,1.304 0.414,2.085 0,1.209 -0.263,2.282 -0.789,3.219 -0.526,0.938 -1.331,1.677 -2.414,2.219 -1.084,0.542 -2.401,0.812 -3.953,0.812 -0.896,0 -1.862,-0.101 -2.899,-0.304 -1.036,-0.203 -1.987,-0.472 -2.851,-0.805 v -3.312 h 1.875 c 0.364,1.083 0.846,1.869 1.445,2.359 0.599,0.49 1.414,0.734 2.445,0.734 1.354,0 2.378,-0.369 3.071,-1.109 0.692,-0.74 1.039,-1.833 1.039,-3.281 0,-1.521 -0.459,-2.683 -1.375,-3.485 -0.917,-0.802 -2.261,-1.203 -4.032,-1.203 h -1.406 v -1.375 c 1.406,-0.083 2.591,-0.354 3.555,-0.812 0.963,-0.459 1.68,-1.047 2.148,-1.766 0.469,-0.719 0.703,-1.526 0.703,-2.422 0,-1.156 -0.307,-2.047 -0.921,-2.672 -0.615,-0.625 -1.511,-0.937 -2.688,-0.937 -0.979,0 -1.776,0.265 -2.391,0.797 -0.614,0.531 -1.067,1.343 -1.359,2.437 h -1.875 v -2.969 c 1.208,-0.572 2.339,-1 3.391,-1.281 1.052,-0.281 2.067,-0.422 3.047,-0.422 z"
     fill-rule="evenodd"
     id="path57" />
  <text
     fill="#000000"
     fill-opacity="0"
     font-family="Arial, Arial_MSFontService, sans-serif"
     font-size="21.8281px"
     x="418.64972"
     y="253.90416"
     id="text59">3</text>
  <path
     d="m 472.93972,247.42914 h 6.546 c 0.146,0 0.248,0.047 0.305,0.141 0.057,0.094 0.086,0.219 0.086,0.375 0,0.062 -0.003,0.146 -0.008,0.25 -0.005,0.104 -0.023,0.216 -0.054,0.336 -0.032,0.12 -0.068,0.239 -0.11,0.359 -0.042,0.12 -0.091,0.232 -0.148,0.336 -0.058,0.104 -0.131,0.188 -0.219,0.25 -0.089,0.063 -0.185,0.094 -0.289,0.094 h -6.547 c -0.135,0 -0.234,-0.047 -0.297,-0.141 -0.062,-0.093 -0.094,-0.234 -0.094,-0.422 0,-0.052 0.006,-0.127 0.016,-0.226 0.01,-0.099 0.029,-0.208 0.055,-0.328 0.026,-0.12 0.06,-0.242 0.101,-0.367 0.042,-0.125 0.094,-0.237 0.157,-0.336 0.062,-0.099 0.132,-0.177 0.21,-0.235 0.079,-0.057 0.175,-0.086 0.29,-0.086 z"
     fill-rule="evenodd"
     id="path61" />
  <text
     fill="#000000"
     fill-opacity="0"
     font-family="Arial, Arial_MSFontService, sans-serif"
     font-size="2.14062px"
     x="472.11072"
     y="249.30214"
     id="text63">-</text>
  <path
     d="m 489.67872,245.97614 c -0.771,0 -1.419,0.12 -1.945,0.36 -0.526,0.239 -0.953,0.562 -1.281,0.968 -0.329,0.407 -0.563,0.883 -0.704,1.43 -0.14,0.547 -0.211,1.133 -0.211,1.758 0,0.677 0.079,1.31 0.235,1.898 0.156,0.589 0.404,1.097 0.742,1.524 0.339,0.427 0.773,0.765 1.305,1.015 0.531,0.25 1.177,0.375 1.937,0.375 0.854,0 1.586,-0.174 2.196,-0.523 0.609,-0.349 1.072,-0.867 1.39,-1.555 0.318,-0.687 0.477,-1.5 0.477,-2.437 0,-1 -0.172,-1.862 -0.516,-2.586 -0.344,-0.724 -0.828,-1.276 -1.453,-1.656 -0.625,-0.381 -1.349,-0.571 -2.172,-0.571 z m 0.078,-9.844 c -1.312,0 -2.315,0.357 -3.008,1.071 -0.692,0.713 -1.039,1.726 -1.039,3.039 0,0.614 0.073,1.193 0.219,1.734 0.146,0.542 0.38,1.011 0.703,1.406 0.323,0.396 0.742,0.711 1.258,0.946 0.516,0.234 1.148,0.351 1.898,0.351 0.865,0 1.592,-0.169 2.18,-0.507 0.589,-0.339 1.026,-0.834 1.313,-1.485 0.286,-0.651 0.429,-1.404 0.429,-2.258 0,-0.937 -0.169,-1.731 -0.507,-2.382 -0.339,-0.652 -0.805,-1.133 -1.399,-1.446 -0.594,-0.312 -1.276,-0.469 -2.047,-0.469 z m 0.031,-1.328 c 1.5,0 2.761,0.211 3.782,0.633 1.021,0.422 1.789,1.031 2.304,1.828 0.516,0.797 0.774,1.753 0.774,2.867 0,1.146 -0.281,2.133 -0.844,2.961 -0.562,0.829 -1.432,1.503 -2.609,2.024 l 0.031,0.203 c 1.177,0.458 2.068,1.128 2.672,2.008 0.604,0.88 0.906,1.94 0.906,3.179 0,1.219 -0.292,2.292 -0.875,3.219 -0.583,0.927 -1.43,1.643 -2.539,2.149 -1.109,0.505 -2.404,0.757 -3.883,0.757 -1.385,0 -2.601,-0.231 -3.648,-0.695 -1.047,-0.463 -1.86,-1.14 -2.438,-2.031 -0.578,-0.891 -0.867,-1.94 -0.867,-3.149 0,-0.906 0.156,-1.692 0.469,-2.359 0.312,-0.667 0.721,-1.216 1.226,-1.648 0.506,-0.433 1.144,-0.826 1.914,-1.18 l -0.031,-0.203 c -2.239,-0.969 -3.359,-2.63 -3.359,-4.985 0,-1.072 0.294,-2.031 0.883,-2.875 0.588,-0.843 1.427,-1.505 2.515,-1.984 1.089,-0.479 2.295,-0.719 3.617,-0.719 z"
     fill-rule="evenodd"
     id="path65" />
  <text
     fill="#000000"
     fill-opacity="0"
     font-family="Arial, Arial_MSFontService, sans-serif"
     font-size="21.8281px"
     x="482.55374"
     y="253.90416"
     id="text67">8</text>
  <path
     d="m 539.93972,247.42914 h 6.546 c 0.146,0 0.248,0.047 0.305,0.141 0.057,0.094 0.086,0.219 0.086,0.375 0,0.062 -0.003,0.146 -0.008,0.25 -0.005,0.104 -0.023,0.216 -0.054,0.336 -0.032,0.12 -0.068,0.239 -0.11,0.359 -0.042,0.12 -0.091,0.232 -0.148,0.336 -0.058,0.104 -0.131,0.188 -0.219,0.25 -0.089,0.063 -0.185,0.094 -0.289,0.094 h -6.547 c -0.135,0 -0.234,-0.047 -0.297,-0.141 -0.062,-0.093 -0.094,-0.234 -0.094,-0.422 0,-0.052 0.006,-0.127 0.016,-0.226 0.01,-0.099 0.029,-0.208 0.055,-0.328 0.026,-0.12 0.06,-0.242 0.101,-0.367 0.042,-0.125 0.094,-0.237 0.157,-0.336 0.062,-0.099 0.132,-0.177 0.21,-0.235 0.079,-0.057 0.175,-0.086 0.29,-0.086 z"
     fill-rule="evenodd"
     id="path69" />
  <text
     fill="#000000"
     fill-opacity="0"
     font-family="Arial, Arial_MSFontService, sans-serif"
     font-size="2.14062px"
     x="539.11072"
     y="249.30214"
     id="text71">-</text>
  <path
     d="m 556.80372,234.80414 c 1.938,0 3.401,0.425 4.391,1.274 0.989,0.849 1.484,2.08 1.484,3.695 0,0.552 -0.055,1.06 -0.164,1.524 -0.109,0.463 -0.281,0.921 -0.516,1.375 -0.234,0.453 -0.549,0.94 -0.945,1.46 -0.396,0.521 -0.833,1.05 -1.312,1.586 -0.48,0.537 -1.308,1.43 -2.485,2.68 -1.979,2.094 -3.432,3.922 -4.359,5.484 h 5.89 c 0.511,0 0.922,-0.031 1.235,-0.093 0.312,-0.063 0.562,-0.167 0.75,-0.313 0.187,-0.146 0.336,-0.336 0.445,-0.57 0.11,-0.234 0.248,-0.596 0.414,-1.086 h 1.328 l -0.265,4.562 h -12.86 v -0.75 c 0.448,-1.093 1.052,-2.213 1.813,-3.359 0.76,-1.146 1.838,-2.495 3.234,-4.047 1.209,-1.333 2.078,-2.344 2.61,-3.031 0.583,-0.75 1.018,-1.398 1.304,-1.945 0.287,-0.547 0.492,-1.063 0.617,-1.547 0.125,-0.485 0.188,-0.972 0.188,-1.461 0,-0.781 -0.125,-1.472 -0.375,-2.07 -0.25,-0.599 -0.633,-1.071 -1.148,-1.415 -0.516,-0.343 -1.165,-0.515 -1.946,-0.515 -1.948,0 -3.26,1.083 -3.937,3.25 h -1.891 v -3 c 1.261,-0.594 2.44,-1.024 3.539,-1.289 1.099,-0.266 2.086,-0.399 2.961,-0.399 z"
     fill-rule="evenodd"
     id="path73" />
  <text
     fill="#000000"
     fill-opacity="0"
     font-family="Arial, Arial_MSFontService, sans-serif"
     font-size="21.5781px"
     x="549.83472"
     y="253.68517"
     id="text75">2</text>
  <path
     d="m 370.67872,273.64614 c -0.719,0 -1.32,0.213 -1.805,0.64 -0.484,0.428 -0.875,1.042 -1.171,1.844 -0.297,0.802 -0.508,1.779 -0.633,2.93 -0.125,1.151 -0.188,2.45 -0.188,3.898 0,3.396 0.315,5.888 0.946,7.477 0.63,1.588 1.606,2.383 2.929,2.383 1.261,0 2.196,-0.748 2.805,-2.243 0.609,-1.494 0.914,-3.809 0.914,-6.945 0,-2.396 -0.156,-4.336 -0.469,-5.82 -0.312,-1.485 -0.747,-2.55 -1.304,-3.195 -0.558,-0.646 -1.232,-0.969 -2.024,-0.969 z m 0.078,-1.328 c 2.281,0 3.979,0.88 5.094,2.64 1.115,1.761 1.672,4.422 1.672,7.985 0,3.687 -0.596,6.476 -1.789,8.367 -1.193,1.89 -2.935,2.836 -5.227,2.836 -2.25,0 -3.924,-0.886 -5.023,-2.656 -1.099,-1.771 -1.649,-4.459 -1.649,-8.063 0,-1.917 0.17,-3.573 0.508,-4.969 0.339,-1.396 0.813,-2.549 1.422,-3.461 0.609,-0.911 1.341,-1.586 2.195,-2.023 0.855,-0.438 1.787,-0.656 2.797,-0.656 z"
     fill-rule="evenodd"
     id="path77" />
  <text
     fill="#000000"
     fill-opacity="0"
     font-family="Arial, Arial_MSFontService, sans-serif"
     font-size="21.8281px"
     x="363.83472"
     y="291.41714"
     id="text79">0</text>
  <path
     d="m 425.25872,273.64614 c -0.719,0 -1.32,0.213 -1.805,0.64 -0.484,0.428 -0.875,1.042 -1.171,1.844 -0.297,0.802 -0.508,1.779 -0.633,2.93 -0.125,1.151 -0.188,2.45 -0.188,3.898 0,3.396 0.315,5.888 0.946,7.477 0.63,1.588 1.606,2.383 2.929,2.383 1.261,0 2.196,-0.748 2.805,-2.243 0.609,-1.494 0.914,-3.809 0.914,-6.945 0,-2.396 -0.156,-4.336 -0.469,-5.82 -0.312,-1.485 -0.747,-2.55 -1.304,-3.195 -0.558,-0.646 -1.232,-0.969 -2.024,-0.969 z m 0.078,-1.328 c 2.281,0 3.979,0.88 5.094,2.64 1.115,1.761 1.672,4.422 1.672,7.985 0,3.687 -0.597,6.476 -1.789,8.367 -1.193,1.89 -2.935,2.836 -5.227,2.836 -2.25,0 -3.924,-0.886 -5.023,-2.656 -1.099,-1.771 -1.649,-4.459 -1.649,-8.063 0,-1.917 0.17,-3.573 0.508,-4.969 0.339,-1.396 0.813,-2.549 1.422,-3.461 0.609,-0.911 1.341,-1.586 2.195,-2.023 0.854,-0.438 1.787,-0.656 2.797,-0.656 z"
     fill-rule="evenodd"
     id="path81" />
  <text
     fill="#000000"
     fill-opacity="0"
     font-family="Arial, Arial_MSFontService, sans-serif"
     font-size="21.8281px"
     x="418.41473"
     y="291.41714"
     id="text83">0</text>
  <path
     d="m 478.52472,272.56814 h 13.406 v 0.75 l -9.094,20.687 h -2.265 v -0.765 l 8.421,-17.829 v -0.234 h -6.875 c -0.427,0 -0.768,0.039 -1.023,0.117 -0.255,0.078 -0.469,0.19 -0.641,0.336 -0.171,0.146 -0.315,0.339 -0.429,0.578 -0.115,0.24 -0.271,0.714 -0.469,1.422 h -1.344 z"
     fill-rule="evenodd"
     id="path85" />
  <text
     fill="#000000"
     fill-opacity="0"
     font-family="Arial, Arial_MSFontService, sans-serif"
     font-size="21.4375px"
     x="478.21173"
     y="291.32513"
     id="text87">7</text>
  <path
     d="m 558.37672,275.99014 -6.109,9.703 v 0.218 h 6.109 v -3.89 c 0,-0.979 0.016,-2.076 0.047,-3.289 0.031,-1.214 0.068,-2.128 0.109,-2.742 z m 0.453,-3.532 h 2.235 v 13.453 h 0.328 c 0.604,0 1.036,-0.044 1.297,-0.132 0.26,-0.089 0.476,-0.245 0.648,-0.469 0.172,-0.224 0.331,-0.591 0.477,-1.102 h 1.187 l -0.187,3.219 h -3.75 v 2.563 c 0,0.697 0.023,1.208 0.07,1.531 0.047,0.323 0.125,0.578 0.234,0.765 0.11,0.188 0.271,0.344 0.485,0.469 0.213,0.125 0.559,0.25 1.039,0.375 v 0.766 h -6.344 v -0.766 c 0.646,-0.166 1.078,-0.351 1.297,-0.555 0.219,-0.203 0.362,-0.492 0.429,-0.867 0.068,-0.375 0.102,-0.948 0.102,-1.718 v -2.563 h -8.687 v -1.172 z m -18.25,-0.14 h 0.86 c -0.063,1 -0.094,2.385 -0.094,4.156 v 13.344 c 0,0.604 0.034,1.06 0.101,1.367 0.068,0.307 0.188,0.557 0.36,0.75 0.172,0.193 0.419,0.344 0.742,0.453 0.323,0.109 0.729,0.193 1.219,0.25 0.489,0.057 1.135,0.096 1.937,0.117 v 1.141 h -11.547 v -1.141 c 1.157,-0.052 1.982,-0.122 2.477,-0.211 0.495,-0.088 0.872,-0.221 1.133,-0.398 0.26,-0.177 0.45,-0.427 0.57,-0.75 0.12,-0.323 0.18,-0.849 0.18,-1.578 v -12.672 c 0,-0.417 -0.073,-0.722 -0.219,-0.914 -0.146,-0.193 -0.359,-0.289 -0.641,-0.289 -0.333,0 -0.807,0.172 -1.422,0.515 -0.614,0.344 -1.375,0.818 -2.281,1.422 l -0.687,-1.203 z"
     fill-rule="evenodd"
     id="path89" />
  <text
     fill="#000000"
     fill-opacity="0"
     font-family="Arial, Arial_MSFontService, sans-serif"
     font-size="21.5781px"
     x="533.2677"
     y="291.19913"
     id="text91">14</text>
  <path
     d="m 370.67872,311.15914 c -0.719,0 -1.32,0.214 -1.805,0.641 -0.484,0.427 -0.875,1.041 -1.171,1.843 -0.297,0.803 -0.508,1.779 -0.633,2.93 -0.125,1.151 -0.188,2.451 -0.188,3.899 0,3.395 0.315,5.888 0.946,7.476 0.63,1.589 1.606,2.383 2.929,2.383 1.261,0 2.196,-0.747 2.805,-2.242 0.609,-1.495 0.914,-3.81 0.914,-6.946 0,-2.395 -0.156,-4.335 -0.469,-5.82 -0.312,-1.484 -0.747,-2.549 -1.304,-3.195 -0.558,-0.646 -1.232,-0.969 -2.024,-0.969 z m 0.078,-1.328 c 2.281,0 3.979,0.88 5.094,2.641 1.115,1.76 1.672,4.421 1.672,7.984 0,3.687 -0.596,6.477 -1.789,8.367 -1.193,1.891 -2.935,2.836 -5.227,2.836 -2.25,0 -3.924,-0.885 -5.023,-2.656 -1.099,-1.771 -1.649,-4.458 -1.649,-8.063 0,-1.916 0.17,-3.573 0.508,-4.968 0.339,-1.396 0.813,-2.55 1.422,-3.461 0.609,-0.912 1.341,-1.586 2.195,-2.024 0.855,-0.437 1.787,-0.656 2.797,-0.656 z"
     fill-rule="evenodd"
     id="path93" />
  <text
     fill="#000000"
     fill-opacity="0"
     font-family="Arial, Arial_MSFontService, sans-serif"
     font-size="21.8281px"
     x="363.83472"
     y="328.93112"
     id="text95">0</text>
  <path
     d="m 425.25872,311.15914 c -0.719,0 -1.32,0.214 -1.805,0.641 -0.484,0.427 -0.875,1.041 -1.171,1.843 -0.297,0.803 -0.508,1.779 -0.633,2.93 -0.125,1.151 -0.188,2.451 -0.188,3.899 0,3.395 0.315,5.888 0.946,7.476 0.63,1.589 1.606,2.383 2.929,2.383 1.261,0 2.196,-0.747 2.805,-2.242 0.609,-1.495 0.914,-3.81 0.914,-6.946 0,-2.395 -0.156,-4.335 -0.469,-5.82 -0.312,-1.484 -0.747,-2.549 -1.304,-3.195 -0.558,-0.646 -1.232,-0.969 -2.024,-0.969 z m 0.078,-1.328 c 2.281,0 3.979,0.88 5.094,2.641 1.115,1.76 1.672,4.421 1.672,7.984 0,3.687 -0.597,6.477 -1.789,8.367 -1.193,1.891 -2.935,2.836 -5.227,2.836 -2.25,0 -3.924,-0.885 -5.023,-2.656 -1.099,-1.771 -1.649,-4.458 -1.649,-8.063 0,-1.916 0.17,-3.573 0.508,-4.968 0.339,-1.396 0.813,-2.55 1.422,-3.461 0.609,-0.912 1.341,-1.586 2.195,-2.024 0.854,-0.437 1.787,-0.656 2.797,-0.656 z"
     fill-rule="evenodd"
     id="path97" />
  <text
     fill="#000000"
     fill-opacity="0"
     font-family="Arial, Arial_MSFontService, sans-serif"
     font-size="21.8281px"
     x="418.41473"
     y="328.93112"
     id="text99">0</text>
  <path
     d="m 485.99272,309.83114 h 0.86 c -0.063,1 -0.094,2.385 -0.094,4.156 v 13.344 c 0,0.604 0.034,1.06 0.102,1.367 0.067,0.307 0.187,0.557 0.359,0.75 0.172,0.193 0.419,0.344 0.742,0.453 0.323,0.11 0.729,0.193 1.219,0.25 0.49,0.058 1.135,0.097 1.937,0.117 v 1.141 h -11.546 v -1.141 c 1.156,-0.052 1.981,-0.122 2.476,-0.21 0.495,-0.089 0.873,-0.222 1.133,-0.399 0.26,-0.177 0.45,-0.427 0.57,-0.75 0.12,-0.323 0.18,-0.849 0.18,-1.578 v -12.672 c 0,-0.417 -0.073,-0.721 -0.219,-0.914 -0.146,-0.193 -0.359,-0.289 -0.64,-0.289 -0.334,0 -0.808,0.172 -1.422,0.516 -0.615,0.343 -1.375,0.817 -2.282,1.421 l -0.687,-1.203 z"
     fill-rule="evenodd"
     id="path101" />
  <text
     fill="#000000"
     fill-opacity="0"
     font-family="Arial, Arial_MSFontService, sans-serif"
     font-size="21.5781px"
     x="478.68073"
     y="328.71213"
     id="text103">1</text>
  <path
     d="m 551.88372,309.83114 c 1.938,0 3.401,0.424 4.391,1.273 0.989,0.849 1.484,2.081 1.484,3.696 0,0.552 -0.055,1.06 -0.164,1.523 -0.109,0.464 -0.281,0.922 -0.516,1.375 -0.234,0.453 -0.549,0.94 -0.945,1.461 -0.396,0.521 -0.833,1.05 -1.312,1.586 -0.48,0.537 -1.308,1.43 -2.485,2.68 -1.979,2.093 -3.432,3.922 -4.359,5.484 h 5.89 c 0.511,0 0.922,-0.031 1.235,-0.094 0.312,-0.062 0.562,-0.166 0.75,-0.312 0.187,-0.146 0.336,-0.336 0.445,-0.57 0.11,-0.235 0.248,-0.597 0.414,-1.086 h 1.328 l -0.265,4.562 h -12.86 v -0.75 c 0.448,-1.094 1.052,-2.213 1.813,-3.359 0.76,-1.146 1.838,-2.495 3.234,-4.047 1.209,-1.333 2.078,-2.344 2.61,-3.031 0.583,-0.75 1.018,-1.399 1.304,-1.946 0.287,-0.547 0.492,-1.062 0.617,-1.547 0.125,-0.484 0.188,-0.971 0.188,-1.461 0,-0.781 -0.125,-1.471 -0.375,-2.07 -0.25,-0.599 -0.633,-1.07 -1.148,-1.414 -0.516,-0.344 -1.165,-0.516 -1.946,-0.516 -1.948,0 -3.26,1.084 -3.937,3.25 h -1.891 v -3 c 1.26,-0.593 2.44,-1.023 3.539,-1.289 1.099,-0.265 2.086,-0.398 2.961,-0.398 z"
     fill-rule="evenodd"
     id="path105" />
  <text
     fill="#000000"
     fill-opacity="0"
     font-family="Arial, Arial_MSFontService, sans-serif"
     font-size="21.5781px"
     x="544.91473"
     y="328.71213"
     id="text107">2</text>
  <path
     d="m 716.07672,197.69214 h 0.859 c -0.062,1 -0.093,2.385 -0.093,4.156 v 13.344 c 0,0.604 0.033,1.06 0.101,1.367 0.068,0.307 0.188,0.557 0.359,0.75 0.172,0.193 0.42,0.344 0.743,0.453 0.323,0.11 0.729,0.193 1.218,0.25 0.49,0.058 1.136,0.097 1.938,0.117 v 1.141 h -11.547 v -1.141 c 1.156,-0.052 1.982,-0.122 2.477,-0.21 0.494,-0.089 0.872,-0.222 1.132,-0.399 0.261,-0.177 0.451,-0.427 0.571,-0.75 0.12,-0.323 0.179,-0.849 0.179,-1.578 v -12.672 c 0,-0.417 -0.073,-0.721 -0.218,-0.914 -0.146,-0.193 -0.36,-0.289 -0.641,-0.289 -0.333,0 -0.807,0.172 -1.422,0.516 -0.614,0.343 -1.375,0.817 -2.281,1.421 l -0.688,-1.203 z"
     fill-rule="evenodd"
     id="path109" />
  <text
     fill="#000000"
     fill-opacity="0"
     font-family="Arial, Arial_MSFontService, sans-serif"
     font-size="21.5781px"
     x="708.76373"
     y="216.57315"
     id="text111">1</text>
  <path
     d="m 769.48472,197.69214 c 1.177,0 2.208,0.182 3.094,0.547 0.885,0.364 1.562,0.888 2.031,1.57 0.469,0.682 0.703,1.498 0.703,2.445 0,0.886 -0.177,1.665 -0.531,2.336 -0.354,0.672 -0.852,1.258 -1.492,1.758 -0.641,0.5 -1.472,0.99 -2.492,1.469 v 0.141 c 0.635,0.114 1.247,0.309 1.836,0.586 0.588,0.276 1.112,0.632 1.57,1.07 0.458,0.437 0.825,0.961 1.101,1.57 0.276,0.61 0.414,1.305 0.414,2.086 0,1.208 -0.263,2.281 -0.789,3.219 -0.526,0.937 -1.33,1.677 -2.414,2.219 -1.083,0.541 -2.401,0.812 -3.953,0.812 -0.896,0 -1.862,-0.101 -2.898,-0.305 -1.037,-0.203 -1.987,-0.471 -2.852,-0.804 v -3.313 h 1.875 c 0.365,1.084 0.847,1.87 1.446,2.36 0.598,0.489 1.414,0.734 2.445,0.734 1.354,0 2.377,-0.37 3.07,-1.109 0.693,-0.74 1.039,-1.834 1.039,-3.282 0,-1.521 -0.458,-2.682 -1.375,-3.484 -0.916,-0.802 -2.26,-1.203 -4.031,-1.203 h -1.406 v -1.375 c 1.406,-0.084 2.591,-0.354 3.554,-0.813 0.964,-0.458 1.68,-1.047 2.149,-1.765 0.469,-0.719 0.703,-1.526 0.703,-2.422 0,-1.156 -0.307,-2.047 -0.922,-2.672 -0.614,-0.625 -1.51,-0.938 -2.687,-0.938 -0.98,0 -1.776,0.266 -2.391,0.797 -0.615,0.532 -1.068,1.344 -1.359,2.438 h -1.875 v -2.969 c 1.208,-0.573 2.338,-1 3.39,-1.281 1.052,-0.281 2.068,-0.422 3.047,-0.422 z"
     fill-rule="evenodd"
     id="path113" />
  <text
     fill="#000000"
     fill-opacity="0"
     font-family="Arial, Arial_MSFontService, sans-serif"
     font-size="21.8281px"
     x="762.81274"
     y="216.79214"
     id="text115">3</text>
  <path
     d="m 817.10272,210.31714 h 6.547 c 0.146,0 0.247,0.047 0.305,0.141 0.057,0.093 0.085,0.218 0.085,0.375 0,0.062 -0.002,0.145 -0.007,0.25 -0.006,0.104 -0.024,0.216 -0.055,0.336 -0.031,0.119 -0.068,0.239 -0.109,0.359 -0.042,0.12 -0.092,0.232 -0.149,0.336 -0.057,0.104 -0.13,0.187 -0.219,0.25 -0.088,0.062 -0.184,0.094 -0.289,0.094 h -6.547 c -0.135,0 -0.234,-0.047 -0.296,-0.141 -0.063,-0.094 -0.094,-0.234 -0.094,-0.422 0,-0.052 0.005,-0.128 0.015,-0.226 0.011,-0.099 0.029,-0.209 0.055,-0.329 0.026,-0.119 0.06,-0.242 0.102,-0.367 0.041,-0.125 0.093,-0.237 0.156,-0.336 0.062,-0.099 0.133,-0.177 0.211,-0.234 0.078,-0.057 0.174,-0.086 0.289,-0.086 z"
     fill-rule="evenodd"
     id="path117" />
  <text
     fill="#000000"
     fill-opacity="0"
     font-family="Arial, Arial_MSFontService, sans-serif"
     font-size="2.14062px"
     x="816.27472"
     y="212.19014"
     id="text119">-</text>
  <path
     d="m 833.84272,208.86414 c -0.771,0 -1.42,0.12 -1.946,0.359 -0.526,0.24 -0.953,0.563 -1.281,0.969 -0.328,0.406 -0.563,0.883 -0.703,1.43 -0.141,0.547 -0.211,1.132 -0.211,1.757 0,0.678 0.078,1.31 0.234,1.899 0.157,0.588 0.404,1.096 0.742,1.523 0.339,0.427 0.774,0.766 1.305,1.016 0.531,0.25 1.177,0.375 1.938,0.375 0.854,0 1.586,-0.175 2.195,-0.523 0.609,-0.349 1.073,-0.868 1.391,-1.555 0.317,-0.688 0.476,-1.5 0.476,-2.438 0,-1 -0.172,-1.862 -0.515,-2.586 -0.344,-0.724 -0.829,-1.276 -1.454,-1.656 -0.625,-0.38 -1.349,-0.57 -2.171,-0.57 z m 0.078,-9.844 c -1.313,0 -2.315,0.357 -3.008,1.07 -0.693,0.714 -1.039,1.727 -1.039,3.039 0,0.615 0.073,1.193 0.219,1.735 0.145,0.541 0.38,1.01 0.703,1.406 0.323,0.396 0.742,0.711 1.257,0.945 0.516,0.235 1.149,0.352 1.899,0.352 0.864,0 1.591,-0.169 2.18,-0.508 0.588,-0.338 1.026,-0.833 1.312,-1.484 0.287,-0.651 0.43,-1.404 0.43,-2.258 0,-0.938 -0.169,-1.732 -0.508,-2.383 -0.339,-0.651 -0.805,-1.133 -1.398,-1.445 -0.594,-0.313 -1.277,-0.469 -2.047,-0.469 z m 0.031,-1.328 c 1.5,0 2.76,0.211 3.781,0.633 1.021,0.422 1.789,1.031 2.305,1.828 0.515,0.797 0.773,1.752 0.773,2.867 0,1.146 -0.281,2.133 -0.843,2.961 -0.563,0.828 -1.433,1.503 -2.61,2.023 l 0.031,0.204 c 1.177,0.458 2.068,1.127 2.672,2.007 0.604,0.881 0.907,1.94 0.907,3.18 0,1.219 -0.292,2.292 -0.875,3.219 -0.584,0.927 -1.43,1.643 -2.54,2.148 -1.109,0.505 -2.403,0.758 -3.882,0.758 -1.386,0 -2.602,-0.232 -3.649,-0.695 -1.047,-0.464 -1.859,-1.141 -2.437,-2.031 -0.578,-0.891 -0.867,-1.941 -0.867,-3.149 0,-0.906 0.156,-1.693 0.468,-2.359 0.313,-0.667 0.722,-1.216 1.227,-1.649 0.505,-0.432 1.143,-0.825 1.914,-1.179 l -0.031,-0.204 c -2.24,-0.968 -3.36,-2.63 -3.36,-4.984 0,-1.073 0.295,-2.031 0.883,-2.875 0.589,-0.844 1.427,-1.505 2.516,-1.984 1.088,-0.479 2.294,-0.719 3.617,-0.719 z"
     fill-rule="evenodd"
     id="path121" />
  <text
     fill="#000000"
     fill-opacity="0"
     font-family="Arial, Arial_MSFontService, sans-serif"
     font-size="21.8281px"
     x="826.71771"
     y="216.79214"
     id="text123">8</text>
  <path
     d="m 876.60272,210.31714 h 6.547 c 0.146,0 0.247,0.047 0.305,0.141 0.057,0.093 0.085,0.218 0.085,0.375 0,0.062 -0.002,0.145 -0.007,0.25 -0.006,0.104 -0.024,0.216 -0.055,0.336 -0.031,0.119 -0.068,0.239 -0.109,0.359 -0.042,0.12 -0.092,0.232 -0.149,0.336 -0.057,0.104 -0.13,0.187 -0.219,0.25 -0.088,0.062 -0.184,0.094 -0.289,0.094 h -6.547 c -0.135,0 -0.234,-0.047 -0.296,-0.141 -0.063,-0.094 -0.094,-0.234 -0.094,-0.422 0,-0.052 0.005,-0.128 0.015,-0.226 0.011,-0.099 0.029,-0.209 0.055,-0.329 0.026,-0.119 0.06,-0.242 0.102,-0.367 0.041,-0.125 0.093,-0.237 0.156,-0.336 0.062,-0.099 0.133,-0.177 0.211,-0.234 0.078,-0.057 0.174,-0.086 0.289,-0.086 z"
     fill-rule="evenodd"
     id="path125" />
  <text
     fill="#000000"
     fill-opacity="0"
     font-family="Arial, Arial_MSFontService, sans-serif"
     font-size="2.14062px"
     x="875.77472"
     y="212.19014"
     id="text127">-</text>
  <path
     d="m 893.46772,197.69214 c 1.937,0 3.401,0.424 4.39,1.273 0.99,0.849 1.485,2.081 1.485,3.696 0,0.552 -0.055,1.06 -0.165,1.523 -0.109,0.464 -0.281,0.922 -0.515,1.375 -0.235,0.453 -0.55,0.94 -0.945,1.461 -0.396,0.521 -0.834,1.05 -1.313,1.586 -0.479,0.536 -1.307,1.43 -2.484,2.68 -1.98,2.093 -3.433,3.922 -4.36,5.484 h 5.891 c 0.51,0 0.922,-0.031 1.234,-0.094 0.313,-0.062 0.563,-0.166 0.75,-0.312 0.188,-0.146 0.336,-0.336 0.446,-0.57 0.109,-0.235 0.247,-0.597 0.414,-1.086 h 1.328 l -0.266,4.562 h -12.859 v -0.75 c 0.448,-1.094 1.052,-2.213 1.812,-3.359 0.761,-1.146 1.839,-2.495 3.235,-4.047 1.208,-1.334 2.078,-2.344 2.609,-3.031 0.583,-0.75 1.018,-1.399 1.305,-1.946 0.286,-0.547 0.492,-1.062 0.617,-1.547 0.125,-0.484 0.187,-0.971 0.187,-1.461 0,-0.781 -0.125,-1.471 -0.375,-2.07 -0.25,-0.599 -0.632,-1.07 -1.148,-1.414 -0.516,-0.344 -1.164,-0.516 -1.945,-0.516 -1.948,0 -3.261,1.084 -3.938,3.25 h -1.89 v -3 c 1.26,-0.593 2.44,-1.023 3.539,-1.289 1.099,-0.265 2.086,-0.398 2.961,-0.398 z"
     fill-rule="evenodd"
     id="path129" />
  <text
     fill="#000000"
     fill-opacity="0"
     font-family="Arial, Arial_MSFontService, sans-serif"
     font-size="21.5781px"
     x="886.49872"
     y="216.57315"
     id="text131">2</text>
  <path
     d="m 714.84272,236.53314 c -0.719,0 -1.321,0.214 -1.805,0.641 -0.485,0.427 -0.875,1.042 -1.172,1.844 -0.297,0.802 -0.508,1.778 -0.633,2.929 -0.125,1.151 -0.187,2.451 -0.187,3.899 0,3.396 0.315,5.888 0.945,7.476 0.63,1.589 1.607,2.383 2.93,2.383 1.26,0 2.195,-0.747 2.804,-2.242 0.61,-1.495 0.914,-3.81 0.914,-6.945 0,-2.396 -0.156,-4.336 -0.468,-5.821 -0.313,-1.484 -0.748,-2.549 -1.305,-3.195 -0.557,-0.646 -1.232,-0.969 -2.023,-0.969 z m 0.078,-1.328 c 2.281,0 3.979,0.88 5.093,2.641 1.115,1.76 1.672,4.422 1.672,7.984 0,3.688 -0.596,6.477 -1.789,8.367 -1.192,1.891 -2.935,2.836 -5.226,2.836 -2.25,0 -3.925,-0.885 -5.024,-2.656 -1.099,-1.771 -1.648,-4.458 -1.648,-8.062 0,-1.917 0.169,-3.573 0.508,-4.969 0.338,-1.396 0.812,-2.55 1.421,-3.461 0.61,-0.912 1.342,-1.586 2.196,-2.023 0.854,-0.438 1.786,-0.657 2.797,-0.657 z"
     fill-rule="evenodd"
     id="path133" />
  <text
     fill="#000000"
     fill-opacity="0"
     font-family="Arial, Arial_MSFontService, sans-serif"
     font-size="21.8281px"
     x="707.99872"
     y="254.30516"
     id="text135">0</text>
  <path
     d="m 757.60272,247.83014 h 6.547 c 0.146,0 0.247,0.047 0.305,0.141 0.057,0.094 0.085,0.219 0.085,0.375 0,0.062 -0.002,0.146 -0.007,0.25 -0.006,0.104 -0.024,0.216 -0.055,0.336 -0.031,0.12 -0.068,0.239 -0.109,0.359 -0.042,0.12 -0.092,0.232 -0.149,0.336 -0.057,0.104 -0.13,0.188 -0.219,0.25 -0.088,0.063 -0.184,0.094 -0.289,0.094 h -6.547 c -0.135,0 -0.234,-0.047 -0.296,-0.141 -0.063,-0.093 -0.094,-0.234 -0.094,-0.422 0,-0.052 0.005,-0.127 0.015,-0.226 0.011,-0.099 0.029,-0.209 0.055,-0.328 0.026,-0.12 0.06,-0.242 0.102,-0.367 0.041,-0.125 0.093,-0.237 0.156,-0.336 0.062,-0.099 0.133,-0.178 0.211,-0.235 0.078,-0.057 0.174,-0.086 0.289,-0.086 z"
     fill-rule="evenodd"
     id="path137" />
  <text
     fill="#000000"
     fill-opacity="0"
     font-family="Arial, Arial_MSFontService, sans-serif"
     font-size="2.14062px"
     x="756.77472"
     y="249.70314"
     id="text139">-</text>
  <path
     d="m 774.46772,235.20514 c 1.937,0 3.401,0.425 4.39,1.274 0.99,0.849 1.485,2.08 1.485,3.695 0,0.552 -0.055,1.06 -0.165,1.523 -0.109,0.464 -0.281,0.922 -0.515,1.375 -0.235,0.454 -0.55,0.941 -0.945,1.461 -0.396,0.521 -0.834,1.05 -1.313,1.586 -0.479,0.537 -1.307,1.43 -2.484,2.68 -1.98,2.094 -3.433,3.922 -4.36,5.484 h 5.891 c 0.51,0 0.922,-0.031 1.234,-0.093 0.313,-0.063 0.563,-0.167 0.75,-0.313 0.188,-0.146 0.336,-0.336 0.446,-0.57 0.109,-0.235 0.247,-0.597 0.414,-1.086 h 1.328 l -0.266,4.562 h -12.859 v -0.75 c 0.448,-1.093 1.052,-2.213 1.812,-3.359 0.761,-1.146 1.839,-2.495 3.235,-4.047 1.208,-1.333 2.078,-2.344 2.609,-3.031 0.583,-0.75 1.018,-1.399 1.305,-1.945 0.286,-0.547 0.492,-1.063 0.617,-1.547 0.125,-0.485 0.187,-0.972 0.187,-1.461 0,-0.781 -0.125,-1.472 -0.375,-2.071 -0.25,-0.599 -0.632,-1.07 -1.148,-1.414 -0.516,-0.343 -1.164,-0.515 -1.945,-0.515 -1.948,0 -3.261,1.083 -3.938,3.25 h -1.89 v -3 c 1.26,-0.594 2.44,-1.024 3.539,-1.289 1.099,-0.266 2.086,-0.399 2.961,-0.399 z"
     fill-rule="evenodd"
     id="path141" />
  <text
     fill="#000000"
     fill-opacity="0"
     font-family="Arial, Arial_MSFontService, sans-serif"
     font-size="21.5781px"
     x="767.49872"
     y="254.08617"
     id="text143">2</text>
  <path
     d="m 828.92272,236.53314 c -0.719,0 -1.321,0.214 -1.805,0.641 -0.484,0.427 -0.875,1.042 -1.172,1.844 -0.297,0.802 -0.508,1.778 -0.633,2.929 -0.125,1.151 -0.187,2.451 -0.187,3.899 0,3.396 0.315,5.888 0.945,7.476 0.63,1.589 1.607,2.383 2.93,2.383 1.26,0 2.195,-0.747 2.804,-2.242 0.61,-1.495 0.914,-3.81 0.914,-6.945 0,-2.396 -0.156,-4.336 -0.468,-5.821 -0.313,-1.484 -0.748,-2.549 -1.305,-3.195 -0.557,-0.646 -1.232,-0.969 -2.023,-0.969 z m 0.078,-1.328 c 2.281,0 3.979,0.88 5.093,2.641 1.115,1.76 1.672,4.422 1.672,7.984 0,3.688 -0.596,6.477 -1.789,8.367 -1.192,1.891 -2.935,2.836 -5.226,2.836 -2.25,0 -3.925,-0.885 -5.024,-2.656 -1.099,-1.771 -1.648,-4.458 -1.648,-8.062 0,-1.917 0.169,-3.573 0.508,-4.969 0.338,-1.396 0.812,-2.55 1.422,-3.461 0.609,-0.912 1.341,-1.586 2.195,-2.023 0.854,-0.438 1.786,-0.657 2.797,-0.657 z"
     fill-rule="evenodd"
     id="path145" />
  <text
     fill="#000000"
     fill-opacity="0"
     font-family="Arial, Arial_MSFontService, sans-serif"
     font-size="21.8281px"
     x="822.07874"
     y="254.30516"
     id="text147">0</text>
  <path
     d="m 892.92272,234.42414 h 1.218 l -0.234,3.625 h -8.984 v 6.859 c 0.541,-0.229 1.13,-0.401 1.765,-0.515 0.636,-0.115 1.271,-0.172 1.906,-0.172 1.24,0 2.339,0.252 3.297,0.758 0.959,0.505 1.698,1.224 2.219,2.156 0.521,0.932 0.781,2.013 0.781,3.242 0,1.396 -0.291,2.594 -0.875,3.594 -0.583,1 -1.427,1.76 -2.531,2.281 -1.104,0.521 -2.411,0.781 -3.922,0.781 -1.802,0 -3.687,-0.369 -5.656,-1.109 v -3.312 h 1.891 c 0.312,1.062 0.783,1.843 1.414,2.343 0.63,0.5 1.445,0.75 2.445,0.75 1.385,0 2.432,-0.416 3.141,-1.25 0.708,-0.833 1.062,-2.078 1.062,-3.734 0,-1.104 -0.187,-2.018 -0.562,-2.742 -0.375,-0.724 -0.881,-1.248 -1.516,-1.571 -0.635,-0.323 -1.375,-0.484 -2.219,-0.484 -0.708,0 -1.317,0.044 -1.828,0.133 -0.51,0.088 -1.057,0.226 -1.641,0.414 l -1.25,-0.734 v -10.282 h 8.61 c 0.354,0 0.609,-0.028 0.765,-0.086 0.157,-0.057 0.282,-0.146 0.375,-0.265 0.094,-0.12 0.204,-0.347 0.329,-0.68 z"
     fill-rule="evenodd"
     id="path149" />
  <text
     fill="#000000"
     fill-opacity="0"
     font-family="Arial, Arial_MSFontService, sans-serif"
     font-size="22.6094px"
     x="881.90674"
     y="254.20714"
     id="text151">5</text>
  <path
     d="m 714.84272,274.04714 c -0.719,0 -1.321,0.213 -1.805,0.64 -0.485,0.427 -0.875,1.042 -1.172,1.844 -0.297,0.802 -0.508,1.779 -0.633,2.93 -0.125,1.151 -0.187,2.45 -0.187,3.898 0,3.396 0.315,5.888 0.945,7.477 0.63,1.588 1.607,2.383 2.93,2.383 1.26,0 2.195,-0.748 2.804,-2.243 0.61,-1.494 0.914,-3.809 0.914,-6.945 0,-2.396 -0.156,-4.336 -0.468,-5.82 -0.313,-1.485 -0.748,-2.55 -1.305,-3.196 -0.557,-0.645 -1.232,-0.968 -2.023,-0.968 z m 0.078,-1.328 c 2.281,0 3.979,0.88 5.093,2.64 1.115,1.761 1.672,4.422 1.672,7.985 0,3.687 -0.596,6.476 -1.789,8.367 -1.192,1.89 -2.935,2.836 -5.226,2.836 -2.25,0 -3.925,-0.886 -5.024,-2.657 -1.099,-1.77 -1.648,-4.458 -1.648,-8.062 0,-1.917 0.169,-3.573 0.508,-4.969 0.338,-1.396 0.812,-2.549 1.421,-3.461 0.61,-0.911 1.342,-1.586 2.196,-2.023 0.854,-0.438 1.786,-0.656 2.797,-0.656 z"
     fill-rule="evenodd"
     id="path153" />
  <text
     fill="#000000"
     fill-opacity="0"
     font-family="Arial, Arial_MSFontService, sans-serif"
     font-size="21.8281px"
     x="707.99872"
     y="291.81815"
     id="text155">0</text>
  <path
     d="m 769.42272,274.04714 c -0.719,0 -1.321,0.213 -1.805,0.64 -0.484,0.427 -0.875,1.042 -1.172,1.844 -0.297,0.802 -0.508,1.779 -0.633,2.93 -0.125,1.151 -0.187,2.45 -0.187,3.898 0,3.396 0.315,5.888 0.945,7.477 0.63,1.588 1.607,2.383 2.93,2.383 1.26,0 2.195,-0.748 2.804,-2.243 0.61,-1.494 0.914,-3.809 0.914,-6.945 0,-2.396 -0.156,-4.336 -0.468,-5.82 -0.313,-1.485 -0.748,-2.55 -1.305,-3.196 -0.557,-0.645 -1.232,-0.968 -2.023,-0.968 z m 0.078,-1.328 c 2.281,0 3.979,0.88 5.093,2.64 1.115,1.761 1.672,4.422 1.672,7.985 0,3.687 -0.596,6.476 -1.789,8.367 -1.192,1.89 -2.935,2.836 -5.226,2.836 -2.25,0 -3.925,-0.886 -5.024,-2.657 -1.099,-1.77 -1.648,-4.458 -1.648,-8.062 0,-1.917 0.169,-3.573 0.508,-4.969 0.338,-1.396 0.812,-2.549 1.422,-3.461 0.609,-0.911 1.341,-1.586 2.195,-2.023 0.854,-0.438 1.786,-0.656 2.797,-0.656 z"
     fill-rule="evenodd"
     id="path157" />
  <text
     fill="#000000"
     fill-opacity="0"
     font-family="Arial, Arial_MSFontService, sans-serif"
     font-size="21.8281px"
     x="762.57874"
     y="291.81815"
     id="text159">0</text>
  <path
     d="m 830.15672,272.71914 h 0.859 c -0.062,1 -0.093,2.385 -0.093,4.156 v 13.344 c 0,0.604 0.033,1.06 0.101,1.367 0.068,0.307 0.188,0.557 0.36,0.75 0.171,0.193 0.419,0.344 0.742,0.453 0.323,0.109 0.729,0.193 1.218,0.25 0.49,0.057 1.136,0.096 1.938,0.117 v 1.141 h -11.547 v -1.141 c 1.156,-0.052 1.982,-0.122 2.477,-0.211 0.494,-0.088 0.872,-0.221 1.132,-0.398 0.261,-0.177 0.451,-0.427 0.571,-0.75 0.12,-0.323 0.179,-0.849 0.179,-1.578 v -12.672 c 0,-0.417 -0.072,-0.722 -0.218,-0.914 -0.146,-0.193 -0.36,-0.289 -0.641,-0.289 -0.333,0 -0.807,0.171 -1.422,0.515 -0.614,0.344 -1.375,0.818 -2.281,1.422 l -0.688,-1.203 z"
     fill-rule="evenodd"
     id="path161" />
  <text
     fill="#000000"
     fill-opacity="0"
     font-family="Arial, Arial_MSFontService, sans-serif"
     font-size="21.5781px"
     x="822.84375"
     y="291.59912"
     id="text163">1</text>
  <path
     d="m 888.54772,272.71914 c 1.937,0 3.401,0.424 4.39,1.273 0.99,0.849 1.485,2.081 1.485,3.695 0,0.552 -0.055,1.06 -0.164,1.524 -0.11,0.463 -0.282,0.922 -0.516,1.375 -0.234,0.453 -0.55,0.94 -0.945,1.461 -0.396,0.521 -0.834,1.049 -1.313,1.586 -0.479,0.536 -1.307,1.429 -2.484,2.679 -1.979,2.094 -3.433,3.922 -4.36,5.485 h 5.891 c 0.51,0 0.922,-0.032 1.234,-0.094 0.313,-0.063 0.563,-0.167 0.75,-0.313 0.188,-0.145 0.336,-0.335 0.446,-0.57 0.109,-0.234 0.247,-0.596 0.414,-1.086 h 1.328 l -0.266,4.563 h -12.859 v -0.75 c 0.448,-1.094 1.052,-2.214 1.812,-3.36 0.761,-1.145 1.839,-2.494 3.235,-4.047 1.208,-1.333 2.078,-2.343 2.609,-3.031 0.583,-0.75 1.018,-1.398 1.305,-1.945 0.286,-0.547 0.492,-1.063 0.617,-1.547 0.125,-0.484 0.187,-0.971 0.187,-1.461 0,-0.781 -0.125,-1.471 -0.375,-2.07 -0.25,-0.599 -0.632,-1.071 -1.148,-1.414 -0.516,-0.344 -1.164,-0.516 -1.945,-0.516 -1.948,0 -3.261,1.083 -3.938,3.25 h -1.89 v -3 c 1.26,-0.594 2.44,-1.023 3.539,-1.289 1.099,-0.266 2.086,-0.398 2.961,-0.398 z"
     fill-rule="evenodd"
     id="path165" />
  <text
     fill="#000000"
     fill-opacity="0"
     font-family="Arial, Arial_MSFontService, sans-serif"
     font-size="21.5781px"
     x="881.57874"
     y="291.59912"
     id="text167">2</text>
  <path
     d="m 714.84272,311.56014 c -0.719,0 -1.321,0.214 -1.805,0.641 -0.485,0.427 -0.875,1.041 -1.172,1.843 -0.297,0.803 -0.508,1.779 -0.633,2.93 -0.125,1.151 -0.187,2.451 -0.187,3.899 0,3.395 0.315,5.888 0.945,7.476 0.63,1.589 1.607,2.383 2.93,2.383 1.26,0 2.195,-0.747 2.804,-2.242 0.61,-1.495 0.914,-3.81 0.914,-6.946 0,-2.395 -0.156,-4.335 -0.468,-5.82 -0.313,-1.484 -0.748,-2.549 -1.305,-3.195 -0.557,-0.646 -1.232,-0.969 -2.023,-0.969 z m 0.078,-1.328 c 2.281,0 3.979,0.88 5.093,2.641 1.115,1.76 1.672,4.421 1.672,7.984 0,3.687 -0.596,6.477 -1.789,8.367 -1.192,1.891 -2.935,2.836 -5.226,2.836 -2.25,0 -3.925,-0.885 -5.024,-2.656 -1.099,-1.771 -1.648,-4.459 -1.648,-8.063 0,-1.916 0.169,-3.573 0.508,-4.968 0.338,-1.396 0.812,-2.55 1.421,-3.461 0.61,-0.912 1.342,-1.586 2.196,-2.024 0.854,-0.437 1.786,-0.656 2.797,-0.656 z"
     fill-rule="evenodd"
     id="path169" />
  <text
     fill="#000000"
     fill-opacity="0"
     font-family="Arial, Arial_MSFontService, sans-serif"
     font-size="21.8281px"
     x="707.99872"
     y="329.33212"
     id="text171">0</text>
  <path
     d="m 769.42272,311.56014 c -0.719,0 -1.321,0.214 -1.805,0.641 -0.484,0.427 -0.875,1.041 -1.172,1.843 -0.297,0.803 -0.508,1.779 -0.633,2.93 -0.125,1.151 -0.187,2.451 -0.187,3.899 0,3.395 0.315,5.888 0.945,7.476 0.63,1.589 1.607,2.383 2.93,2.383 1.26,0 2.195,-0.747 2.804,-2.242 0.61,-1.495 0.914,-3.81 0.914,-6.946 0,-2.395 -0.156,-4.335 -0.468,-5.82 -0.313,-1.484 -0.748,-2.549 -1.305,-3.195 -0.557,-0.646 -1.232,-0.969 -2.023,-0.969 z m 0.078,-1.328 c 2.281,0 3.979,0.88 5.093,2.641 1.115,1.76 1.672,4.421 1.672,7.984 0,3.687 -0.596,6.477 -1.789,8.367 -1.192,1.891 -2.935,2.836 -5.226,2.836 -2.25,0 -3.925,-0.885 -5.024,-2.656 -1.099,-1.771 -1.648,-4.459 -1.648,-8.063 0,-1.916 0.169,-3.573 0.508,-4.968 0.338,-1.396 0.812,-2.55 1.422,-3.461 0.609,-0.912 1.341,-1.586 2.195,-2.024 0.854,-0.437 1.786,-0.656 2.797,-0.656 z"
     fill-rule="evenodd"
     id="path173" />
  <text
     fill="#000000"
     fill-opacity="0"
     font-family="Arial, Arial_MSFontService, sans-serif"
     font-size="21.8281px"
     x="762.57874"
     y="329.33212"
     id="text175">0</text>
  <path
     d="m 828.92272,311.56014 c -0.719,0 -1.321,0.214 -1.805,0.641 -0.484,0.427 -0.875,1.041 -1.172,1.843 -0.297,0.803 -0.508,1.779 -0.633,2.93 -0.125,1.151 -0.187,2.451 -0.187,3.899 0,3.395 0.315,5.888 0.945,7.476 0.63,1.589 1.607,2.383 2.93,2.383 1.26,0 2.195,-0.747 2.804,-2.242 0.61,-1.495 0.914,-3.81 0.914,-6.946 0,-2.395 -0.156,-4.335 -0.468,-5.82 -0.313,-1.484 -0.748,-2.549 -1.305,-3.195 -0.557,-0.646 -1.232,-0.969 -2.023,-0.969 z m 0.078,-1.328 c 2.281,0 3.979,0.88 5.093,2.641 1.115,1.76 1.672,4.421 1.672,7.984 0,3.687 -0.596,6.477 -1.789,8.367 -1.192,1.891 -2.935,2.836 -5.226,2.836 -2.25,0 -3.925,-0.885 -5.024,-2.656 -1.099,-1.771 -1.648,-4.459 -1.648,-8.063 0,-1.916 0.169,-3.573 0.508,-4.968 0.338,-1.396 0.812,-2.55 1.422,-3.461 0.609,-0.912 1.341,-1.586 2.195,-2.024 0.854,-0.437 1.786,-0.656 2.797,-0.656 z"
     fill-rule="evenodd"
     id="path177" />
  <text
     fill="#000000"
     fill-opacity="0"
     font-family="Arial, Arial_MSFontService, sans-serif"
     font-size="21.8281px"
     x="822.07874"
     y="329.33212"
     id="text179">0</text>
  <path
     d="m 888.42272,311.56014 c -0.719,0 -1.321,0.214 -1.805,0.641 -0.484,0.427 -0.875,1.041 -1.172,1.843 -0.297,0.803 -0.508,1.779 -0.633,2.93 -0.125,1.151 -0.187,2.451 -0.187,3.899 0,3.395 0.315,5.888 0.945,7.476 0.63,1.589 1.607,2.383 2.93,2.383 1.26,0 2.195,-0.747 2.804,-2.242 0.61,-1.495 0.914,-3.81 0.914,-6.946 0,-2.395 -0.156,-4.335 -0.468,-5.82 -0.313,-1.484 -0.748,-2.549 -1.305,-3.195 -0.557,-0.646 -1.232,-0.969 -2.023,-0.969 z m 0.078,-1.328 c 2.281,0 3.979,0.88 5.093,2.641 1.115,1.76 1.672,4.421 1.672,7.984 0,3.687 -0.596,6.477 -1.789,8.367 -1.192,1.891 -2.935,2.836 -5.226,2.836 -2.25,0 -3.925,-0.885 -5.024,-2.656 -1.099,-1.771 -1.648,-4.459 -1.648,-8.063 0,-1.916 0.169,-3.573 0.508,-4.968 0.338,-1.396 0.812,-2.55 1.422,-3.461 0.609,-0.912 1.341,-1.586 2.195,-2.024 0.854,-0.437 1.786,-0.656 2.797,-0.656 z"
     fill-rule="evenodd"
     id="path181" />
  <text
     fill="#000000"
     fill-opacity="0"
     font-family="Arial, Arial_MSFontService, sans-serif"
     font-size="21.8281px"
     x="881.57874"
     y="329.33212"
     id="text183">0</text>
  <path
     d="m 615.70578,252.1926 c 3.53588,0 7.7497,1.53281 12.64053,4.59749 4.89177,3.06467 8.60397,4.59748 11.13849,4.59748 2.50435,0 4.59664,-0.65665 6.27595,-1.96995 1.67931,-1.31423 3.3737,-3.35704 5.08318,-6.13029 l 3.53588,2.36413 c -1.26726,2.59857 -3.27093,5.2177 -6.011,7.85925 -2.74101,2.64155 -6.07039,3.96325 -9.98909,3.96325 -3.7716,0 -8.08066,-1.5328 -12.92812,-4.59748 -4.84745,-3.06562 -8.55211,-4.59749 -11.11586,-4.59749 -2.15075,0 -4.03656,0.6716 -5.6574,2.01385 -1.62085,1.34319 -3.04934,3.2982 -4.28737,5.86689 l -3.44725,-1.92605 c 1.50298,-3.44485 3.49156,-6.31244 5.96668,-8.60371 2.47511,-2.29127 5.40659,-3.43737 8.79538,-3.43737 z"
     fill-rule="evenodd"
     id="path185"
     style="stroke-width:0.938474" />
  <text
     fill="#000000"
     fill-opacity="0"
     font-family="Arial, Arial_MSFontService, sans-serif"
     font-size="16.3594px"
     x="600.94373"
     y="258.95712"
     id="text187">~</text>
  <text
     font-family="Calibri, Calibri_MSFontService, sans-serif"
     font-weight="400"
     font-size="43px"
     id="text197"
     x="440.48773"
     y="59.933144">Locating <tspan
   font-size="43px"
   x="595.24072"
   y="59.933144"
   id="tspan189">b</tspan>asis vectors<tspan
   font-size="27px"
   x="175.53072"
   y="411.93314"
   id="tspan191">The position of the basis vectors of matrix A can be located by the position of pivot</tspan><tspan
   font-size="27px"
   x="175.53072"
   y="443.93314"
   id="tspan193">columns in matrix B.</tspan><tspan
   font-size="27px"
   x="175.00572"
   y="531.93311"
   id="tspan195">Therefore</tspan></text>
  <path
     d="m 303.84572,465.87814 v 1.384 c -2.488,0.721 -4.481,2.892 -5.979,6.513 -1.499,3.621 -2.248,8.402 -2.248,14.344 0,3.015 0.303,6.89 0.91,11.628 0.606,4.737 0.909,7.923 0.909,9.558 0,3.542 -0.516,6.622 -1.549,9.242 -1.032,2.619 -2.436,4.337 -4.212,5.154 v 0.37 c 1.776,0.817 3.18,2.535 4.212,5.154 1.033,2.619 1.549,5.7 1.549,9.242 0,1.635 -0.303,4.821 -0.909,9.558 -0.607,4.737 -0.91,8.613 -0.91,11.628 0,5.941 0.749,10.723 2.248,14.344 1.498,3.621 3.491,5.792 5.979,6.512 v 1.385 c -2.962,-0.492 -5.566,-2.786 -7.812,-6.882 -2.245,-4.096 -3.368,-9.681 -3.368,-16.756 0,-2.576 0.332,-6.335 0.995,-11.279 0.664,-4.944 0.996,-8.497 0.996,-10.659 0,-3.876 -0.517,-6.774 -1.549,-8.695 -1.033,-1.92 -2.472,-2.915 -4.318,-2.986 v -1.503 c 1.846,-0.07 3.285,-1.065 4.318,-2.986 1.032,-1.92 1.549,-4.818 1.549,-8.694 0,-2.162 -0.332,-5.715 -0.996,-10.659 -0.663,-4.944 -0.995,-8.703 -0.995,-11.279 0,-7.075 1.123,-12.66 3.368,-16.756 2.246,-4.096 4.85,-6.39 7.812,-6.882 z"
     fill-rule="evenodd"
     id="path199" />
  <text
     fill="#000000"
     fill-opacity="0"
     font-family="Arial, Arial_MSFontService, sans-serif"
     font-size="116.016px"
     x="288.78973"
     y="567.39209"
     id="text201">൞</text>
  <path
     d="m 331.21972,466.18114 h 7.778 v 115.41 h -7.778 v -1.503 h 4.878 v -112.404 h -4.878 z m -23.661,0 h 7.778 v 1.503 h -4.878 v 112.404 h 4.878 v 1.503 h -7.778 z"
     fill-rule="evenodd"
     id="path203" />
  <path
     d="m 323.26772,468.89214 c -0.606,0 -1.114,0.181 -1.523,0.541 -0.408,0.36 -0.738,0.879 -0.988,1.556 -0.251,0.676 -0.429,1.5 -0.534,2.472 -0.106,0.971 -0.158,2.067 -0.158,3.289 0,2.865 0.265,4.968 0.797,6.308 0.532,1.341 1.356,2.011 2.472,2.011 1.064,0 1.852,-0.631 2.367,-1.892 0.514,-1.261 0.771,-3.215 0.771,-5.86 0,-2.022 -0.132,-3.659 -0.396,-4.911 -0.263,-1.253 -0.63,-2.151 -1.101,-2.696 -0.47,-0.545 -1.039,-0.818 -1.707,-0.818 z m 0.066,-1.12 c 1.925,0 3.358,0.742 4.298,2.228 0.94,1.485 1.411,3.731 1.411,6.737 0,3.111 -0.504,5.464 -1.51,7.059 -1.006,1.596 -2.476,2.393 -4.41,2.393 -1.898,0 -3.311,-0.747 -4.238,-2.241 -0.928,-1.494 -1.391,-3.762 -1.391,-6.803 0,-1.617 0.143,-3.014 0.428,-4.192 0.286,-1.178 0.686,-2.151 1.2,-2.92 0.514,-0.769 1.132,-1.338 1.852,-1.707 0.721,-0.37 1.508,-0.554 2.36,-0.554 z"
     fill-rule="evenodd"
     id="path205" />
  <text
     fill="#000000"
     fill-opacity="0"
     font-family="Arial, Arial_MSFontService, sans-serif"
     font-size="18.4175px"
     x="317.49371"
     y="483.88712"
     id="text207">0</text>
  <path
     d="m 324.30972,499.03214 h 0.725 c -0.053,0.844 -0.079,2.013 -0.079,3.507 v 11.258 c 0,0.51 0.028,0.895 0.085,1.154 0.058,0.259 0.159,0.47 0.304,0.633 0.145,0.162 0.353,0.29 0.626,0.382 0.272,0.092 0.615,0.163 1.028,0.211 0.413,0.048 0.958,0.081 1.635,0.099 v 0.962 h -9.743 v -0.962 c 0.976,-0.044 1.672,-0.103 2.09,-0.178 0.417,-0.075 0.736,-0.187 0.956,-0.336 0.219,-0.15 0.38,-0.361 0.481,-0.633 0.101,-0.272 0.151,-0.716 0.151,-1.332 v -10.691 c 0,-0.352 -0.061,-0.609 -0.184,-0.772 -0.123,-0.162 -0.303,-0.244 -0.541,-0.244 -0.281,0 -0.681,0.145 -1.199,0.435 -0.519,0.291 -1.16,0.69 -1.925,1.2 l -0.58,-1.015 z"
     fill-rule="evenodd"
     id="path209" />
  <text
     fill="#000000"
     fill-opacity="0"
     font-family="Arial, Arial_MSFontService, sans-serif"
     font-size="18.2065px"
     x="318.13971"
     y="514.96313"
     id="text211">1</text>
  <path
     d="m 323.26772,531.41214 c -0.606,0 -1.114,0.181 -1.523,0.541 -0.408,0.36 -0.738,0.879 -0.988,1.556 -0.251,0.676 -0.429,1.5 -0.534,2.472 -0.106,0.971 -0.158,2.067 -0.158,3.289 0,2.865 0.265,4.968 0.797,6.308 0.532,1.341 1.356,2.011 2.472,2.011 1.064,0 1.852,-0.631 2.367,-1.892 0.514,-1.261 0.771,-3.215 0.771,-5.86 0,-2.022 -0.132,-3.659 -0.396,-4.911 -0.263,-1.253 -0.63,-2.151 -1.101,-2.696 -0.47,-0.545 -1.039,-0.818 -1.707,-0.818 z m 0.066,-1.12 c 1.925,0 3.358,0.743 4.298,2.228 0.94,1.485 1.411,3.731 1.411,6.737 0,3.111 -0.504,5.464 -1.51,7.059 -1.006,1.596 -2.476,2.393 -4.41,2.393 -1.898,0 -3.311,-0.747 -4.238,-2.241 -0.928,-1.494 -1.391,-3.762 -1.391,-6.803 0,-1.617 0.143,-3.014 0.428,-4.192 0.286,-1.178 0.686,-2.151 1.2,-2.92 0.514,-0.769 1.132,-1.338 1.852,-1.707 0.721,-0.37 1.508,-0.554 2.36,-0.554 z"
     fill-rule="evenodd"
     id="path213" />
  <text
     fill="#000000"
     fill-opacity="0"
     font-family="Arial, Arial_MSFontService, sans-serif"
     font-size="18.4175px"
     x="317.49371"
     y="546.4071"
     id="text215">0</text>
  <path
     d="m 323.26772,562.67214 c -0.606,0 -1.114,0.181 -1.523,0.541 -0.408,0.36 -0.738,0.879 -0.988,1.556 -0.251,0.676 -0.429,1.5 -0.534,2.472 -0.106,0.971 -0.158,2.067 -0.158,3.289 0,2.865 0.265,4.968 0.797,6.308 0.532,1.341 1.356,2.011 2.472,2.011 1.064,0 1.852,-0.631 2.367,-1.892 0.514,-1.261 0.771,-3.215 0.771,-5.86 0,-2.022 -0.132,-3.659 -0.396,-4.911 -0.263,-1.253 -0.63,-2.151 -1.101,-2.696 -0.47,-0.545 -1.039,-0.818 -1.707,-0.818 z m 0.066,-1.12 c 1.925,0 3.358,0.743 4.298,2.228 0.94,1.485 1.411,3.731 1.411,6.737 0,3.111 -0.504,5.464 -1.51,7.059 -1.006,1.596 -2.476,2.393 -4.41,2.393 -1.898,0 -3.311,-0.747 -4.238,-2.241 -0.928,-1.494 -1.391,-3.762 -1.391,-6.803 0,-1.617 0.143,-3.014 0.428,-4.192 0.286,-1.178 0.686,-2.151 1.2,-2.92 0.514,-0.769 1.132,-1.338 1.852,-1.707 0.721,-0.37 1.508,-0.554 2.36,-0.554 z"
     fill-rule="evenodd"
     id="path217" />
  <text
     fill="#000000"
     fill-opacity="0"
     font-family="Arial, Arial_MSFontService, sans-serif"
     font-size="18.4175px"
     x="317.49371"
     y="577.66711"
     id="text219">0</text>
  <path
     d="m 348.07972,528.54614 h 2.307 c 0.123,0.616 0.184,1.222 0.184,1.82 0,0.615 -0.105,1.177 -0.316,1.687 -0.211,0.51 -0.547,1.018 -1.009,1.523 -0.461,0.505 -1.096,1.061 -1.905,1.668 l -0.711,-0.805 c 0.448,-0.421 0.773,-0.802 0.975,-1.14 0.202,-0.338 0.347,-0.723 0.435,-1.153 0.088,-0.431 0.132,-0.972 0.132,-1.622 0,-0.668 -0.031,-1.327 -0.092,-1.978 z"
     fill-rule="evenodd"
     id="path221" />
  <text
     fill="#000000"
     fill-opacity="0"
     font-family="Arial, Arial_MSFontService, sans-serif"
     font-size="6.69727px"
     x="346.62973"
     y="534.4071"
     id="text223">,</text>
  <path
     d="m 402.92572,466.18114 h 7.779 v 115.41 h -7.779 v -1.503 h 4.878 v -112.404 h -4.878 z m -43.66,0 h 7.778 v 1.503 h -4.878 v 112.404 h 4.878 v 1.503 h -7.778 z"
     fill-rule="evenodd"
     id="path225" />
  <path
     d="m 369.46372,477.38314 h 16.242 v 1.753 h -16.242 z m 25.616,-9.611 c 1.635,0 2.87,0.358 3.705,1.074 0.835,0.717 1.252,1.756 1.252,3.118 0,0.466 -0.046,0.894 -0.138,1.286 -0.092,0.391 -0.237,0.777 -0.435,1.16 -0.198,0.382 -0.464,0.793 -0.798,1.232 -0.334,0.44 -0.703,0.886 -1.107,1.339 -0.404,0.452 -1.103,1.206 -2.096,2.261 -1.67,1.766 -2.896,3.309 -3.679,4.627 h 4.971 c 0.43,0 0.777,-0.026 1.041,-0.079 0.264,-0.053 0.475,-0.141 0.633,-0.264 0.158,-0.123 0.283,-0.283 0.376,-0.481 0.092,-0.198 0.208,-0.503 0.349,-0.916 h 1.121 l -0.224,3.849 h -10.851 v -0.632 c 0.378,-0.923 0.888,-1.868 1.53,-2.835 0.641,-0.967 1.551,-2.105 2.729,-3.414 1.019,-1.125 1.753,-1.978 2.201,-2.558 0.493,-0.633 0.86,-1.18 1.101,-1.641 0.242,-0.462 0.416,-0.897 0.521,-1.306 0.105,-0.408 0.158,-0.819 0.158,-1.232 0,-0.659 -0.105,-1.242 -0.316,-1.747 -0.211,-0.506 -0.534,-0.903 -0.969,-1.193 -0.435,-0.29 -0.982,-0.435 -1.642,-0.435 -1.643,0 -2.751,0.914 -3.322,2.742 h -1.595 v -2.531 c 1.063,-0.501 2.059,-0.864 2.986,-1.088 0.927,-0.224 1.76,-0.336 2.498,-0.336 z"
     fill-rule="evenodd"
     id="path227" />
  <text
     fill="#000000"
     fill-opacity="0"
     font-family="Arial, Arial_MSFontService, sans-serif"
     font-size="18.2065px"
     x="369.46371"
     y="483.70316"
     id="text229">−2</text>
  <path
     d="m 385.02772,499.03214 c 0.993,0 1.863,0.154 2.61,0.461 0.747,0.308 1.318,0.75 1.714,1.325 0.395,0.576 0.593,1.264 0.593,2.063 0,0.747 -0.149,1.404 -0.448,1.971 -0.299,0.567 -0.719,1.062 -1.259,1.484 -0.541,0.421 -1.242,0.834 -2.103,1.239 v 0.118 c 0.536,0.097 1.053,0.262 1.549,0.495 0.497,0.233 0.938,0.534 1.325,0.903 0.387,0.369 0.697,0.811 0.93,1.325 0.232,0.514 0.349,1.101 0.349,1.76 0,1.019 -0.222,1.925 -0.666,2.716 -0.444,0.791 -1.123,1.415 -2.037,1.872 -0.914,0.457 -2.026,0.685 -3.335,0.685 -0.756,0 -1.571,-0.085 -2.446,-0.257 -0.874,-0.171 -1.676,-0.397 -2.406,-0.679 v -2.795 h 1.582 c 0.308,0.914 0.714,1.578 1.22,1.991 0.505,0.413 1.193,0.62 2.063,0.62 1.143,0 2.006,-0.312 2.591,-0.936 0.584,-0.624 0.876,-1.547 0.876,-2.769 0,-1.283 -0.386,-2.263 -1.16,-2.94 -0.773,-0.677 -1.907,-1.015 -3.401,-1.015 h -1.187 v -1.16 c 1.187,-0.07 2.186,-0.299 2.999,-0.686 0.813,-0.386 1.418,-0.883 1.813,-1.489 0.396,-0.607 0.593,-1.288 0.593,-2.044 0,-0.975 -0.259,-1.727 -0.777,-2.254 -0.519,-0.528 -1.275,-0.791 -2.268,-0.791 -0.826,0 -1.498,0.224 -2.017,0.672 -0.519,0.448 -0.901,1.134 -1.147,2.057 h -1.582 v -2.505 c 1.02,-0.484 1.973,-0.844 2.861,-1.081 0.888,-0.238 1.744,-0.356 2.571,-0.356 z"
     fill-rule="evenodd"
     id="path231" />
  <text
     fill="#000000"
     fill-opacity="0"
     font-family="Arial, Arial_MSFontService, sans-serif"
     font-size="18.4175px"
     x="379.39774"
     y="515.14709"
     id="text233">3</text>
  <path
     d="m 384.97472,531.41214 c -0.607,0 -1.114,0.181 -1.523,0.541 -0.409,0.36 -0.738,0.879 -0.989,1.556 -0.25,0.676 -0.428,1.5 -0.534,2.472 -0.105,0.971 -0.158,2.067 -0.158,3.289 0,2.865 0.266,4.968 0.798,6.308 0.532,1.341 1.356,2.011 2.472,2.011 1.063,0 1.852,-0.631 2.366,-1.892 0.514,-1.261 0.771,-3.215 0.771,-5.86 0,-2.022 -0.131,-3.659 -0.395,-4.911 -0.264,-1.253 -0.631,-2.151 -1.101,-2.696 -0.47,-0.545 -1.039,-0.818 -1.707,-0.818 z m 0.066,-1.12 c 1.925,0 3.357,0.743 4.298,2.228 0.94,1.485 1.41,3.731 1.41,6.737 0,3.111 -0.503,5.464 -1.509,7.059 -1.007,1.596 -2.477,2.393 -4.41,2.393 -1.899,0 -3.311,-0.747 -4.239,-2.241 -0.927,-1.494 -1.391,-3.762 -1.391,-6.803 0,-1.617 0.143,-3.014 0.429,-4.192 0.286,-1.178 0.685,-2.151 1.2,-2.92 0.514,-0.769 1.131,-1.338 1.852,-1.707 0.721,-0.37 1.507,-0.554 2.36,-0.554 z"
     fill-rule="evenodd"
     id="path235" />
  <text
     fill="#000000"
     fill-opacity="0"
     font-family="Arial, Arial_MSFontService, sans-serif"
     font-size="18.4175px"
     x="379.19974"
     y="546.4071"
     id="text237">0</text>
  <path
     d="m 384.97472,562.67214 c -0.607,0 -1.114,0.181 -1.523,0.541 -0.409,0.36 -0.738,0.879 -0.989,1.556 -0.25,0.676 -0.428,1.5 -0.534,2.472 -0.105,0.971 -0.158,2.067 -0.158,3.289 0,2.865 0.266,4.968 0.798,6.308 0.532,1.341 1.356,2.011 2.472,2.011 1.063,0 1.852,-0.631 2.366,-1.892 0.514,-1.261 0.771,-3.215 0.771,-5.86 0,-2.022 -0.131,-3.659 -0.395,-4.911 -0.264,-1.253 -0.631,-2.151 -1.101,-2.696 -0.47,-0.545 -1.039,-0.818 -1.707,-0.818 z m 0.066,-1.12 c 1.925,0 3.357,0.743 4.298,2.228 0.94,1.485 1.41,3.731 1.41,6.737 0,3.111 -0.503,5.464 -1.509,7.059 -1.007,1.596 -2.477,2.393 -4.41,2.393 -1.899,0 -3.311,-0.747 -4.239,-2.241 -0.927,-1.494 -1.391,-3.762 -1.391,-6.803 0,-1.617 0.143,-3.014 0.429,-4.192 0.286,-1.178 0.685,-2.151 1.2,-2.92 0.514,-0.769 1.131,-1.338 1.852,-1.707 0.721,-0.37 1.507,-0.554 2.36,-0.554 z"
     fill-rule="evenodd"
     id="path239" />
  <text
     fill="#000000"
     fill-opacity="0"
     font-family="Arial, Arial_MSFontService, sans-serif"
     font-size="18.4175px"
     x="379.19974"
     y="577.66711"
     id="text241">0</text>
  <path
     d="m 419.78572,528.54614 h 2.308 c 0.123,0.616 0.184,1.222 0.184,1.82 0,0.615 -0.105,1.177 -0.316,1.687 -0.211,0.51 -0.547,1.018 -1.009,1.523 -0.461,0.505 -1.096,1.061 -1.905,1.668 l -0.712,-0.805 c 0.448,-0.421 0.774,-0.802 0.976,-1.14 0.202,-0.338 0.347,-0.723 0.435,-1.153 0.088,-0.431 0.132,-0.972 0.132,-1.622 0,-0.668 -0.031,-1.327 -0.093,-1.978 z"
     fill-rule="evenodd"
     id="path243" />
  <text
     fill="#000000"
     fill-opacity="0"
     font-family="Arial, Arial_MSFontService, sans-serif"
     font-size="6.69727px"
     x="418.33572"
     y="534.4071"
     id="text245">,</text>
  <path
     d="m 467.96572,466.18114 h 7.779 v 115.41 h -7.779 v -1.503 h 4.878 v -112.404 h -4.878 z m -36.994,0 h 7.779 v 1.503 h -4.878 v 112.404 h 4.878 v 1.503 h -7.779 z"
     fill-rule="evenodd"
     id="path247" />
  <path
     d="m 453.34772,468.99914 c -0.606,0 -1.114,0.18 -1.523,0.541 -0.408,0.36 -0.738,0.879 -0.988,1.555 -0.251,0.677 -0.429,1.501 -0.534,2.472 -0.106,0.971 -0.158,2.068 -0.158,3.29 0,2.865 0.265,4.968 0.797,6.308 0.532,1.34 1.356,2.01 2.472,2.01 1.064,0 1.852,-0.63 2.367,-1.891 0.514,-1.262 0.771,-3.215 0.771,-5.861 0,-2.021 -0.132,-3.658 -0.396,-4.91 -0.263,-1.253 -0.63,-2.152 -1.101,-2.697 -0.47,-0.544 -1.039,-0.817 -1.707,-0.817 z m 0.066,-1.121 c 1.925,0 3.358,0.743 4.298,2.229 0.94,1.485 1.411,3.73 1.411,6.736 0,3.112 -0.504,5.465 -1.51,7.06 -1.006,1.595 -2.476,2.393 -4.41,2.393 -1.898,0 -3.311,-0.747 -4.238,-2.241 -0.928,-1.494 -1.391,-3.762 -1.391,-6.803 0,-1.617 0.143,-3.015 0.428,-4.192 0.286,-1.178 0.686,-2.151 1.2,-2.921 0.514,-0.769 1.132,-1.338 1.852,-1.707 0.721,-0.369 1.508,-0.554 2.36,-0.554 z"
     fill-rule="evenodd"
     id="path249" />
  <text
     fill="#000000"
     fill-opacity="0"
     font-family="Arial, Arial_MSFontService, sans-serif"
     font-size="18.4175px"
     x="447.57373"
     y="483.99411"
     id="text251">0</text>
  <path
     d="m 440.70872,508.82814 h 10.389 c 0.158,0 0.279,0.075 0.363,0.225 0.083,0.149 0.125,0.386 0.125,0.711 0,0.326 -0.042,0.563 -0.125,0.712 -0.084,0.15 -0.205,0.225 -0.363,0.225 h -10.389 c -0.167,0 -0.292,-0.075 -0.375,-0.225 -0.084,-0.149 -0.126,-0.386 -0.126,-0.712 0,-0.316 0.042,-0.551 0.126,-0.705 0.083,-0.154 0.208,-0.231 0.375,-0.231 z"
     fill-rule="evenodd"
     id="path253" />
  <text
     fill="#000000"
     fill-opacity="0"
     font-family="Arial, Arial_MSFontService, sans-serif"
     font-size="1.87207px"
     x="440.20773"
     y="510.4671"
     id="text255">−</text>
  <path
     d="m 460.01472,508.56514 c -0.651,0 -1.198,0.101 -1.641,0.303 -0.444,0.202 -0.805,0.475 -1.082,0.817 -0.276,0.343 -0.474,0.745 -0.593,1.207 -0.118,0.461 -0.178,0.955 -0.178,1.483 0,0.571 0.066,1.105 0.198,1.602 0.132,0.496 0.341,0.925 0.626,1.285 0.286,0.36 0.653,0.646 1.101,0.857 0.448,0.211 0.993,0.316 1.635,0.316 0.721,0 1.338,-0.147 1.852,-0.441 0.514,-0.295 0.905,-0.732 1.173,-1.312 0.269,-0.58 0.403,-1.266 0.403,-2.057 0,-0.843 -0.145,-1.571 -0.436,-2.182 -0.29,-0.61 -0.698,-1.076 -1.226,-1.397 -0.527,-0.321 -1.138,-0.481 -1.832,-0.481 z m 0.066,-8.306 c -1.108,0 -1.954,0.301 -2.538,0.903 -0.585,0.602 -0.877,1.457 -0.877,2.564 0,0.519 0.062,1.007 0.185,1.464 0.123,0.457 0.321,0.852 0.593,1.186 0.273,0.334 0.626,0.6 1.061,0.798 0.435,0.198 0.969,0.297 1.602,0.297 0.73,0 1.343,-0.143 1.839,-0.429 0.497,-0.286 0.866,-0.703 1.108,-1.252 0.241,-0.55 0.362,-1.185 0.362,-1.905 0,-0.791 -0.143,-1.462 -0.428,-2.011 -0.286,-0.549 -0.679,-0.956 -1.18,-1.219 -0.501,-0.264 -1.077,-0.396 -1.727,-0.396 z m 0.026,-1.12 c 1.266,0 2.329,0.177 3.191,0.533 0.861,0.356 1.509,0.871 1.944,1.543 0.435,0.672 0.653,1.479 0.653,2.419 0,0.967 -0.238,1.8 -0.712,2.498 -0.475,0.699 -1.209,1.268 -2.202,1.708 l 0.027,0.171 c 0.993,0.387 1.744,0.951 2.254,1.694 0.51,0.743 0.765,1.637 0.765,2.683 0,1.028 -0.246,1.934 -0.739,2.716 -0.492,0.782 -1.206,1.386 -2.142,1.813 -0.936,0.426 -2.028,0.639 -3.276,0.639 -1.169,0 -2.195,-0.196 -3.078,-0.587 -0.884,-0.391 -1.569,-0.962 -2.057,-1.714 -0.488,-0.751 -0.732,-1.637 -0.732,-2.656 0,-0.765 0.132,-1.428 0.396,-1.991 0.263,-0.562 0.608,-1.026 1.035,-1.391 0.426,-0.364 0.964,-0.696 1.615,-0.995 l -0.027,-0.171 c -1.889,-0.818 -2.834,-2.22 -2.834,-4.206 0,-0.905 0.248,-1.714 0.745,-2.426 0.496,-0.712 1.204,-1.27 2.122,-1.674 0.919,-0.404 1.936,-0.606 3.052,-0.606 z"
     fill-rule="evenodd"
     id="path257" />
  <text
     fill="#000000"
     fill-opacity="0"
     font-family="Arial, Arial_MSFontService, sans-serif"
     font-size="18.4175px"
     x="454.00272"
     y="515.25409"
     id="text259">8</text>
  <path
     d="m 448.08772,530.60914 h 11.311 v 0.633 l -7.672,17.455 h -1.912 v -0.646 l 7.106,-15.042 v -0.198 h -5.801 c -0.36,0 -0.648,0.033 -0.863,0.099 -0.216,0.066 -0.396,0.16 -0.541,0.283 -0.145,0.123 -0.266,0.286 -0.362,0.488 -0.097,0.202 -0.229,0.602 -0.396,1.2 h -1.134 z"
     fill-rule="evenodd"
     id="path261" />
  <text
     fill="#000000"
     fill-opacity="0"
     font-family="Arial, Arial_MSFontService, sans-serif"
     font-size="18.0879px"
     x="447.82373"
     y="546.4361"
     id="text263">7</text>
  <path
     d="m 454.38972,561.65814 h 0.725 c -0.053,0.844 -0.079,2.013 -0.079,3.507 v 11.259 c 0,0.51 0.028,0.894 0.085,1.154 0.058,0.259 0.159,0.47 0.304,0.632 0.145,0.163 0.353,0.291 0.626,0.383 0.272,0.092 0.615,0.162 1.028,0.211 0.413,0.048 0.958,0.081 1.635,0.099 v 0.962 h -9.743 v -0.962 c 0.976,-0.044 1.672,-0.104 2.09,-0.178 0.417,-0.075 0.736,-0.187 0.956,-0.337 0.219,-0.149 0.38,-0.36 0.481,-0.632 0.101,-0.273 0.151,-0.717 0.151,-1.332 v -10.692 c 0,-0.351 -0.061,-0.608 -0.184,-0.771 -0.123,-0.163 -0.303,-0.244 -0.541,-0.244 -0.281,0 -0.681,0.145 -1.199,0.435 -0.519,0.29 -1.16,0.69 -1.925,1.2 l -0.58,-1.015 z"
     fill-rule="evenodd"
     id="path265" />
  <text
     fill="#000000"
     fill-opacity="0"
     font-family="Arial, Arial_MSFontService, sans-serif"
     font-size="18.2065px"
     x="448.21973"
     y="577.58911"
     id="text267">1</text>
  <path
     d="m 479.53572,465.87814 c 2.962,0.484 5.563,2.777 7.805,6.882 2.25,4.096 3.375,9.681 3.375,16.756 0,1.292 -0.084,2.874 -0.251,4.746 -0.167,1.872 -0.417,4.052 -0.751,6.539 -0.659,4.949 -0.989,8.499 -0.989,10.653 0,3.876 0.514,6.776 1.542,8.701 1.046,1.925 2.488,2.918 4.325,2.979 v 1.503 c -1.837,0.062 -3.279,1.059 -4.325,2.993 -1.028,1.916 -1.542,4.812 -1.542,8.688 0,2.162 0.33,5.713 0.989,10.652 0.334,2.488 0.584,4.667 0.751,6.539 0.167,1.873 0.251,3.455 0.251,4.747 0,7.075 -1.125,12.66 -3.375,16.756 -2.242,4.104 -4.843,6.398 -7.805,6.882 v -1.385 c 2.496,-0.729 4.487,-2.9 5.972,-6.512 1.503,-3.621 2.255,-8.403 2.255,-14.344 0,-3.015 -0.304,-6.891 -0.91,-11.628 -0.607,-4.728 -0.91,-7.914 -0.91,-9.558 0,-3.533 0.514,-6.614 1.543,-9.242 1.037,-2.619 2.443,-4.337 4.218,-5.154 v -0.37 c -1.775,-0.817 -3.181,-2.535 -4.218,-5.154 -1.029,-2.62 -1.543,-5.7 -1.543,-9.242 0,-1.635 0.303,-4.821 0.91,-9.558 0.606,-4.729 0.91,-8.605 0.91,-11.628 0,-5.933 -0.752,-10.714 -2.255,-14.344 -1.485,-3.612 -3.476,-5.783 -5.972,-6.513 z"
     fill-rule="evenodd"
     id="path269" />
  <text
     fill="#000000"
     fill-opacity="0"
     font-family="Arial, Arial_MSFontService, sans-serif"
     font-size="116.016px"
     x="479.53574"
     y="567.39209"
     id="text271">ൢ</text>
  <text
     font-family="Calibri, Calibri_MSFontService, sans-serif"
     font-weight="400"
     font-size="27px"
     id="text273"
     x="501.82571"
     y="531.93311">is a basis for Col A.</text>
</svg>
