<?xml version="1.0" encoding="UTF-8" standalone="no"?>
<svg
   width="1280"
   height="620"
   overflow="hidden"
   version="1.1"
   id="svg345"
   sodipodi:docname="linear_systems-surjective_transformations.svg"
   inkscape:version="1.2 (dc2aedaf03, 2022-05-15)"
   xmlns:inkscape="http://www.inkscape.org/namespaces/inkscape"
   xmlns:sodipodi="http://sodipodi.sourceforge.net/DTD/sodipodi-0.dtd"
   xmlns="http://www.w3.org/2000/svg"
   xmlns:svg="http://www.w3.org/2000/svg">
  <sodipodi:namedview
     id="namedview347"
     pagecolor="#ffffff"
     bordercolor="#000000"
     borderopacity="0.25"
     inkscape:showpageshadow="2"
     inkscape:pageopacity="0.0"
     inkscape:pagecheckerboard="0"
     inkscape:deskcolor="#d1d1d1"
     showgrid="false"
     inkscape:zoom="0.92709556"
     inkscape:cx="388.84881"
     inkscape:cy="360.26491"
     inkscape:window-width="2880"
     inkscape:window-height="1514"
     inkscape:window-x="3829"
     inkscape:window-y="-11"
     inkscape:window-maximized="1"
     inkscape:current-layer="svg345" />
  <defs
     id="defs5">
    <clipPath
       id="clip0">
      <rect
         x="0"
         y="0"
         width="1280"
         height="720"
         id="rect2" />
    </clipPath>
  </defs>
  <g
     clip-path="url(#clip0)"
     id="g343"
     transform="translate(19.415474,-23.730024)">
    <rect
       x="0"
       y="0"
       width="1280"
       height="720"
       fill="#ffffff"
       id="rect7" />
    <path
       d="m 344,258.333 c 0,-3.497 2.836,-6.333 6.333,-6.333 h 25.334 c 3.497,0 6.333,2.836 6.333,6.333 v 89.334 c 0,3.497 -2.836,6.333 -6.333,6.333 H 350.333 C 346.836,354 344,351.164 344,347.667 Z"
       fill="#385723"
       fill-rule="evenodd"
       fill-opacity="0.4"
       id="path9" />
    <path
       d="m 419,278.167 c 0,-5.063 4.104,-9.167 9.167,-9.167 h 36.666 c 5.063,0 9.167,4.104 9.167,9.167 v 49.666 c 0,5.063 -4.104,9.167 -9.167,9.167 H 428.167 C 423.104,337 419,332.896 419,327.833 Z"
       fill="#385723"
       fill-rule="evenodd"
       fill-opacity="0.4"
       id="path11" />
    <path
       d="M 194,272.049 C 194,266.499 198.499,262 204.049,262 h 123.902 c 5.55,0 10.049,4.499 10.049,10.049 v 57.902 C 338,335.501 333.501,340 327.951,340 H 204.049 C 198.499,340 194,335.501 194,329.951 Z"
       fill="#e2f0d9"
       fill-rule="evenodd"
       id="path13" />
    <path
       d="m 324.417,270.895 h 7.859 v 63.657 h -7.859 v -1.438 h 4.796 v -60.781 h -4.796 z m -126.268,0 h 7.86 v 1.438 h -4.797 v 60.781 h 4.797 v 1.438 h -7.86 z"
       fill-rule="evenodd"
       id="path15" />
    <path
       d="m 216.807,273.059 h 0.86 c -0.063,1 -0.094,2.386 -0.094,4.157 v 13.343 c 0,0.604 0.034,1.06 0.101,1.367 0.068,0.308 0.188,0.558 0.36,0.75 0.172,0.193 0.419,0.344 0.742,0.454 0.323,0.109 0.729,0.192 1.219,0.25 0.489,0.057 1.135,0.096 1.937,0.117 v 1.14 h -11.547 v -1.14 c 1.157,-0.052 1.982,-0.123 2.477,-0.211 0.495,-0.089 0.872,-0.222 1.133,-0.399 0.26,-0.177 0.45,-0.427 0.57,-0.75 0.12,-0.323 0.18,-0.849 0.18,-1.578 v -12.672 c 0,-0.416 -0.073,-0.721 -0.219,-0.914 -0.146,-0.192 -0.359,-0.289 -0.641,-0.289 -0.333,0 -0.807,0.172 -1.422,0.516 -0.614,0.344 -1.375,0.818 -2.281,1.422 l -0.687,-1.203 z"
       fill-rule="evenodd"
       id="path17" />
    <text
       fill="#000000"
       fill-opacity="0"
       font-family="Arial, Arial_MSFontService, sans-serif"
       font-size="21.5781px"
       x="209.495"
       y="291.94"
       id="text19">1</text>
    <path
       d="m 265.239,274.387 c -0.718,0 -1.32,0.214 -1.804,0.641 -0.485,0.427 -0.875,1.042 -1.172,1.844 -0.297,0.802 -0.508,1.778 -0.633,2.929 -0.125,1.151 -0.187,2.451 -0.187,3.899 0,3.396 0.315,5.888 0.945,7.476 0.63,1.589 1.607,2.383 2.93,2.383 1.26,0 2.195,-0.747 2.804,-2.242 0.61,-1.495 0.914,-3.81 0.914,-6.945 0,-2.396 -0.156,-4.336 -0.468,-5.821 -0.313,-1.484 -0.748,-2.549 -1.305,-3.195 -0.557,-0.646 -1.232,-0.969 -2.024,-0.969 z m 0.079,-1.328 c 2.281,0 3.979,0.88 5.093,2.641 1.115,1.76 1.672,4.422 1.672,7.984 0,3.688 -0.596,6.477 -1.789,8.367 -1.193,1.891 -2.935,2.836 -5.226,2.836 -2.25,0 -3.925,-0.885 -5.024,-2.656 -1.099,-1.771 -1.648,-4.458 -1.648,-8.062 0,-1.917 0.169,-3.573 0.508,-4.969 0.338,-1.396 0.812,-2.55 1.421,-3.461 0.61,-0.912 1.342,-1.586 2.196,-2.023 0.854,-0.438 1.786,-0.657 2.797,-0.657 z"
       fill-rule="evenodd"
       id="path21" />
    <text
       fill="#000000"
       fill-opacity="0"
       font-family="Arial, Arial_MSFontService, sans-serif"
       font-size="21.8281px"
       x="258.396"
       y="292.159"
       id="text23">0</text>
    <path
       d="M 316.141,273.059 H 317 c -0.063,1 -0.094,2.386 -0.094,4.157 v 13.343 c 0,0.604 0.034,1.06 0.102,1.367 0.067,0.308 0.187,0.558 0.359,0.75 0.172,0.193 0.419,0.344 0.742,0.454 0.323,0.109 0.729,0.192 1.219,0.25 0.49,0.057 1.135,0.096 1.938,0.117 v 1.14 h -11.547 v -1.14 c 1.156,-0.052 1.981,-0.123 2.476,-0.211 0.495,-0.089 0.873,-0.222 1.133,-0.399 0.26,-0.177 0.451,-0.427 0.57,-0.75 0.12,-0.323 0.18,-0.849 0.18,-1.578 v -12.672 c 0,-0.416 -0.073,-0.721 -0.219,-0.914 -0.146,-0.192 -0.359,-0.289 -0.64,-0.289 -0.334,0 -0.808,0.172 -1.422,0.516 -0.615,0.344 -1.375,0.818 -2.281,1.422 l -0.688,-1.203 z"
       fill-rule="evenodd"
       id="path25" />
    <text
       fill="#000000"
       fill-opacity="0"
       font-family="Arial, Arial_MSFontService, sans-serif"
       font-size="21.5781px"
       x="308.828"
       y="291.94"
       id="text27">1</text>
    <path
       d="m 215.573,311.901 c -0.719,0 -1.32,0.213 -1.805,0.64 -0.484,0.427 -0.875,1.042 -1.172,1.844 -0.297,0.802 -0.508,1.779 -0.633,2.93 -0.125,1.151 -0.187,2.45 -0.187,3.898 0,3.396 0.315,5.888 0.945,7.477 0.63,1.588 1.607,2.383 2.93,2.383 1.26,0 2.195,-0.748 2.805,-2.243 0.609,-1.494 0.914,-3.81 0.914,-6.945 0,-2.396 -0.157,-4.336 -0.469,-5.82 -0.313,-1.485 -0.747,-2.55 -1.305,-3.196 -0.557,-0.645 -1.232,-0.968 -2.023,-0.968 z m 0.078,-1.328 c 2.281,0 3.979,0.88 5.094,2.64 1.114,1.761 1.672,4.422 1.672,7.985 0,3.687 -0.597,6.476 -1.789,8.367 -1.193,1.89 -2.935,2.836 -5.227,2.836 -2.25,0 -3.925,-0.886 -5.023,-2.657 -1.099,-1.77 -1.649,-4.458 -1.649,-8.062 0,-1.917 0.169,-3.573 0.508,-4.969 0.338,-1.396 0.812,-2.549 1.422,-3.461 0.609,-0.911 1.341,-1.586 2.195,-2.023 0.854,-0.438 1.787,-0.656 2.797,-0.656 z"
       fill-rule="evenodd"
       id="path29" />
    <text
       fill="#000000"
       fill-opacity="0"
       font-family="Arial, Arial_MSFontService, sans-serif"
       font-size="21.8281px"
       x="208.729"
       y="329.672"
       id="text31">0</text>
    <path
       d="m 266.474,310.573 h 0.859 c -0.062,1 -0.094,2.385 -0.094,4.156 v 13.344 c 0,0.604 0.034,1.059 0.102,1.367 0.068,0.307 0.188,0.557 0.359,0.75 0.172,0.192 0.42,0.344 0.743,0.453 0.323,0.109 0.729,0.193 1.218,0.25 0.49,0.057 1.136,0.096 1.938,0.117 v 1.141 h -11.547 v -1.141 c 1.156,-0.052 1.982,-0.122 2.477,-0.211 0.494,-0.088 0.872,-0.221 1.132,-0.398 0.261,-0.177 0.451,-0.427 0.571,-0.75 0.119,-0.323 0.179,-0.849 0.179,-1.578 v -12.672 c 0,-0.417 -0.073,-0.722 -0.218,-0.914 -0.146,-0.193 -0.36,-0.289 -0.641,-0.289 -0.333,0 -0.807,0.171 -1.422,0.515 -0.614,0.344 -1.375,0.818 -2.281,1.422 l -0.688,-1.203 z"
       fill-rule="evenodd"
       id="path33" />
    <text
       fill="#000000"
       fill-opacity="0"
       font-family="Arial, Arial_MSFontService, sans-serif"
       font-size="21.5781px"
       x="259.16101"
       y="329.453"
       id="text35">1</text>
    <path
       d="M 316.141,310.573 H 317 c -0.063,1 -0.094,2.385 -0.094,4.156 v 13.344 c 0,0.604 0.034,1.059 0.102,1.367 0.067,0.307 0.187,0.557 0.359,0.75 0.172,0.192 0.419,0.344 0.742,0.453 0.323,0.109 0.729,0.193 1.219,0.25 0.49,0.057 1.135,0.096 1.938,0.117 v 1.141 h -11.547 v -1.141 c 1.156,-0.052 1.981,-0.122 2.476,-0.211 0.495,-0.088 0.873,-0.221 1.133,-0.398 0.26,-0.177 0.451,-0.427 0.57,-0.75 0.12,-0.323 0.18,-0.849 0.18,-1.578 v -12.672 c 0,-0.417 -0.073,-0.722 -0.219,-0.914 -0.146,-0.193 -0.359,-0.289 -0.64,-0.289 -0.334,0 -0.808,0.171 -1.422,0.515 -0.615,0.344 -1.375,0.818 -2.281,1.422 l -0.688,-1.203 z"
       fill-rule="evenodd"
       id="path37" />
    <text
       fill="#000000"
       fill-opacity="0"
       font-family="Arial, Arial_MSFontService, sans-serif"
       font-size="21.5781px"
       x="308.828"
       y="329.453"
       id="text39">1</text>
    <path
       d="m 373.257,255.27 h 8.5 v 94.907 h -8.5 v -1.532 h 5.281 v -91.843 h -5.281 z m -28.521,0 h 8.5 v 1.532 h -5.281 v 91.843 h 5.281 v 1.532 h -8.5 z"
       fill-rule="evenodd"
       id="path41" />
    <path
       d="m 363.956,258.709 c -1.073,0 -2.037,0.432 -2.891,1.296 -0.854,0.865 -1.521,2.024 -2,3.477 -0.479,1.453 -0.719,2.904 -0.719,4.352 0,1.083 0.149,1.893 0.446,2.429 0.297,0.537 0.794,0.805 1.492,0.805 0.687,0 1.362,-0.297 2.023,-0.891 0.662,-0.593 1.344,-1.44 2.047,-2.539 0.703,-1.099 1.201,-2.367 1.492,-3.804 l 0.141,-0.672 c 0.094,-0.427 0.156,-0.797 0.187,-1.11 0.032,-0.312 0.047,-0.651 0.047,-1.015 0,-0.802 -0.172,-1.391 -0.515,-1.766 -0.344,-0.375 -0.927,-0.562 -1.75,-0.562 z m -0.313,-1.235 c 0.677,0 1.31,0.076 1.899,0.227 0.588,0.151 1.195,0.419 1.82,0.804 l 1.437,-1.031 1,0.25 -2.296,9.906 c -0.23,0.99 -0.344,1.761 -0.344,2.313 0,0.417 0.068,0.719 0.203,0.906 0.135,0.188 0.349,0.281 0.641,0.281 0.312,0 0.645,-0.127 1,-0.382 0.354,-0.256 0.854,-0.743 1.5,-1.461 l 0.89,0.875 c -0.937,1 -1.737,1.711 -2.398,2.133 -0.662,0.421 -1.378,0.632 -2.149,0.632 -0.645,0 -1.161,-0.213 -1.547,-0.64 -0.385,-0.427 -0.578,-0.995 -0.578,-1.703 0,-0.573 0.12,-1.183 0.36,-1.829 l -0.203,-0.062 c -1,1.458 -1.948,2.526 -2.844,3.203 -0.896,0.677 -1.844,1.016 -2.844,1.016 -1.146,0 -2.034,-0.433 -2.664,-1.297 -0.63,-0.865 -0.945,-2.078 -0.945,-3.641 0,-1.791 0.351,-3.513 1.054,-5.164 0.704,-1.651 1.67,-2.953 2.899,-3.906 1.229,-0.953 2.599,-1.43 4.109,-1.43 z"
       fill-rule="evenodd"
       id="path43" />
    <text
       fill="#000000"
       fill-opacity="0"
       font-family="Arial, Arial_MSFontService, sans-serif"
       font-size="15.4531px"
       x="355.58099"
       y="270.996"
       id="text45">ğ‘</text>
    <path
       d="m 365.117,296.831 c -0.5,0 -0.992,0.159 -1.476,0.477 -0.485,0.318 -1.024,0.844 -1.617,1.578 -0.594,0.734 -1.078,1.487 -1.453,2.258 -0.375,0.771 -0.693,1.755 -0.954,2.953 l -0.14,0.656 c -0.156,0.729 -0.235,1.438 -0.235,2.125 0,0.823 0.18,1.417 0.539,1.781 0.36,0.365 0.956,0.547 1.79,0.547 0.427,0 0.833,-0.07 1.218,-0.211 0.386,-0.14 0.779,-0.372 1.18,-0.695 0.401,-0.323 0.781,-0.747 1.141,-1.273 0.359,-0.526 0.69,-1.175 0.992,-1.946 0.302,-0.771 0.536,-1.596 0.703,-2.476 0.167,-0.88 0.25,-1.722 0.25,-2.524 0,-1.083 -0.154,-1.896 -0.461,-2.437 -0.307,-0.542 -0.8,-0.813 -1.477,-0.813 z m -2.734,-8.984 h 0.906 l -2.75,10.937 0.203,0.063 c 1.011,-1.354 1.959,-2.333 2.844,-2.938 0.886,-0.604 1.771,-0.906 2.656,-0.906 1.136,0 2.019,0.432 2.649,1.297 0.63,0.865 0.945,2.083 0.945,3.656 0,1.719 -0.346,3.409 -1.039,5.071 -0.693,1.661 -1.654,2.979 -2.883,3.953 -1.229,0.974 -2.604,1.461 -4.125,1.461 -1.385,0 -2.614,-0.339 -3.687,-1.016 l -1.438,1.016 -1,-0.25 4.047,-17.86 c 0.24,-1.062 0.36,-1.833 0.36,-2.312 0,-0.438 -0.133,-0.745 -0.399,-0.922 -0.266,-0.177 -0.742,-0.276 -1.43,-0.297 l 0.188,-0.812 z"
       fill-rule="evenodd"
       id="path47" />
    <text
       fill="#000000"
       fill-opacity="0"
       font-family="Arial, Arial_MSFontService, sans-serif"
       font-size="22.5938px"
       x="355.664"
       y="307.616"
       id="text49">ğ‘</text>
    <path
       d="m 365.751,332.517 c 1.385,0 2.661,0.156 3.828,0.468 l -0.766,3.532 h -1.641 c -0.02,-0.792 -0.086,-1.365 -0.195,-1.719 -0.109,-0.354 -0.286,-0.62 -0.531,-0.797 -0.245,-0.177 -0.591,-0.266 -1.039,-0.266 -1.052,0 -1.998,0.42 -2.836,1.258 -0.839,0.839 -1.524,2.026 -2.055,3.563 -0.531,1.536 -0.797,3.013 -0.797,4.429 0,1.063 0.209,1.852 0.625,2.367 0.417,0.516 1.042,0.774 1.875,0.774 0.948,0 1.768,-0.18 2.461,-0.539 0.693,-0.36 1.425,-0.925 2.196,-1.695 l 0.953,0.953 c -0.98,1.083 -1.967,1.875 -2.961,2.375 -0.995,0.5 -2.065,0.75 -3.211,0.75 -1.511,0 -2.656,-0.448 -3.438,-1.344 -0.781,-0.896 -1.172,-2.198 -1.172,-3.906 0,-1.115 0.209,-2.339 0.625,-3.672 0.417,-1.334 1.026,-2.505 1.829,-3.516 0.802,-1.01 1.739,-1.765 2.812,-2.265 1.073,-0.5 2.219,-0.75 3.438,-0.75 z"
       fill-rule="evenodd"
       id="path51" />
    <text
       fill="#000000"
       fill-opacity="0"
       font-family="Arial, Arial_MSFontService, sans-serif"
       font-size="15.4531px"
       x="357.047"
       y="346.03799"
       id="text53">ğ‘</text>
    <text
       font-family="Calibri, Calibri_MSFontService, sans-serif"
       font-weight="400"
       font-size="32px"
       transform="translate(392.487,312)"
       id="text55">=</text>
    <path
       d="m 464.183,270.895 h 7.86 v 63.657 h -7.86 v -1.438 h 4.797 v -60.781 h -4.797 z m -44.967,0 h 7.859 v 1.438 h -4.797 v 60.781 h 4.797 v 1.438 h -7.859 z"
       fill-rule="evenodd"
       id="path57" />
    <path
       d="m 457.241,287.512 c -2.114,0.021 -3.698,0.302 -4.75,0.844 -1.052,0.542 -1.578,1.36 -1.578,2.453 0,0.594 0.12,1.063 0.36,1.407 0.239,0.343 0.541,0.58 0.906,0.71 0.364,0.131 0.797,0.196 1.297,0.196 0.708,0 1.351,-0.172 1.929,-0.516 0.579,-0.344 1.029,-0.781 1.352,-1.312 0.323,-0.532 0.484,-1.058 0.484,-1.578 z m -1.687,-8.078 c 1.031,0 1.859,0.164 2.484,0.492 0.625,0.329 1.094,0.831 1.406,1.508 0.313,0.677 0.469,1.698 0.469,3.063 v 5.437 c 0,0.771 0.005,1.315 0.016,1.633 0.01,0.318 0.042,0.612 0.094,0.883 0.052,0.271 0.13,0.487 0.234,0.648 0.104,0.162 0.258,0.3 0.461,0.414 0.203,0.115 0.534,0.235 0.992,0.36 v 0.765 h -4.281 l 0.078,-2.234 -0.234,-0.062 c -0.907,0.927 -1.758,1.583 -2.555,1.968 -0.797,0.386 -1.643,0.578 -2.539,0.578 -0.792,0 -1.49,-0.153 -2.094,-0.461 -0.604,-0.307 -1.068,-0.739 -1.391,-1.296 -0.322,-0.558 -0.484,-1.201 -0.484,-1.93 0,-1.521 0.753,-2.695 2.258,-3.524 1.505,-0.828 3.763,-1.309 6.773,-1.445 v -1.015 c 0,-1.084 -0.104,-1.938 -0.312,-2.563 -0.208,-0.625 -0.537,-1.083 -0.985,-1.375 -0.447,-0.292 -1.046,-0.437 -1.796,-0.437 -0.813,0 -1.467,0.213 -1.961,0.64 -0.495,0.427 -0.868,1.068 -1.118,1.922 h -2.046 v -2.031 c 1,-0.521 1.833,-0.904 2.5,-1.149 0.666,-0.244 1.333,-0.437 2,-0.578 0.666,-0.14 1.343,-0.211 2.031,-0.211 z m -17.61,-6.375 c 1.938,0 3.402,0.425 4.391,1.274 0.99,0.849 1.484,2.08 1.484,3.695 0,0.552 -0.054,1.06 -0.164,1.523 -0.109,0.464 -0.281,0.922 -0.515,1.375 -0.235,0.454 -0.55,0.941 -0.946,1.461 -0.395,0.521 -0.833,1.05 -1.312,1.586 -0.479,0.537 -1.307,1.43 -2.484,2.68 -1.98,2.094 -3.433,3.922 -4.36,5.484 h 5.891 c 0.51,0 0.922,-0.031 1.234,-0.093 0.313,-0.063 0.563,-0.167 0.75,-0.313 0.188,-0.146 0.336,-0.336 0.446,-0.57 0.109,-0.235 0.247,-0.597 0.414,-1.086 h 1.328 l -0.266,4.562 h -12.859 v -0.75 c 0.448,-1.093 1.052,-2.213 1.812,-3.359 0.761,-1.146 1.839,-2.495 3.235,-4.047 1.208,-1.333 2.078,-2.344 2.609,-3.031 0.583,-0.75 1.018,-1.399 1.305,-1.945 0.286,-0.547 0.492,-1.063 0.617,-1.547 0.125,-0.485 0.187,-0.972 0.187,-1.461 0,-0.781 -0.125,-1.472 -0.375,-2.071 -0.25,-0.599 -0.632,-1.07 -1.148,-1.414 -0.516,-0.343 -1.164,-0.515 -1.945,-0.515 -1.948,0 -3.261,1.083 -3.938,3.25 h -1.891 v -3 c 1.261,-0.594 2.441,-1.024 3.54,-1.289 1.099,-0.266 2.085,-0.399 2.96,-0.399 z"
       fill-rule="evenodd"
       id="path59" />
    <text
       fill="#000000"
       fill-opacity="0"
       font-family="Arial, Arial_MSFontService, sans-serif"
       font-size="21.8281px"
       x="430.97601"
       y="292.159"
       id="text61">2a</text>
    <path
       d="m 456.671,318.791 c -0.5,0 -0.992,0.159 -1.477,0.477 -0.484,0.318 -1.023,0.844 -1.617,1.578 -0.594,0.734 -1.078,1.487 -1.453,2.258 -0.375,0.771 -0.693,1.755 -0.953,2.953 l -0.141,0.656 c -0.156,0.729 -0.234,1.438 -0.234,2.125 0,0.823 0.179,1.417 0.539,1.781 0.359,0.365 0.956,0.547 1.789,0.547 0.427,0 0.833,-0.07 1.219,-0.211 0.385,-0.14 0.778,-0.372 1.179,-0.695 0.401,-0.323 0.782,-0.747 1.141,-1.273 0.359,-0.526 0.69,-1.175 0.992,-1.946 0.302,-0.771 0.537,-1.596 0.703,-2.476 0.167,-0.88 0.25,-1.722 0.25,-2.524 0,-1.083 -0.153,-1.896 -0.461,-2.437 -0.307,-0.542 -0.799,-0.813 -1.476,-0.813 z m -19.907,-8.218 c 1.938,0 3.402,0.424 4.391,1.273 0.99,0.849 1.484,2.081 1.484,3.695 0,0.552 -0.054,1.06 -0.164,1.524 -0.109,0.463 -0.281,0.922 -0.515,1.375 -0.235,0.453 -0.55,0.94 -0.946,1.461 -0.395,0.521 -0.833,1.049 -1.312,1.586 -0.479,0.536 -1.307,1.429 -2.484,2.679 -1.98,2.094 -3.433,3.922 -4.36,5.485 h 5.891 c 0.51,0 0.922,-0.032 1.234,-0.094 0.313,-0.063 0.563,-0.167 0.75,-0.313 0.188,-0.145 0.336,-0.335 0.446,-0.57 0.109,-0.234 0.247,-0.596 0.414,-1.086 h 1.328 l -0.266,4.563 h -12.859 v -0.75 c 0.448,-1.094 1.052,-2.214 1.812,-3.36 0.761,-1.146 1.839,-2.494 3.235,-4.047 1.208,-1.333 2.078,-2.343 2.609,-3.031 0.583,-0.75 1.018,-1.398 1.305,-1.945 0.286,-0.547 0.492,-1.063 0.617,-1.547 0.125,-0.484 0.187,-0.971 0.187,-1.461 0,-0.781 -0.125,-1.471 -0.375,-2.07 -0.25,-0.599 -0.632,-1.071 -1.148,-1.414 -0.516,-0.344 -1.164,-0.516 -1.945,-0.516 -1.948,0 -3.261,1.083 -3.938,3.25 h -1.891 v -3 c 1.261,-0.594 2.441,-1.023 3.54,-1.289 1.099,-0.266 2.085,-0.398 2.96,-0.398 z m 17.172,-0.766 h 0.907 l -2.75,10.937 0.203,0.063 c 1.01,-1.354 1.958,-2.333 2.843,-2.938 0.886,-0.604 1.771,-0.906 2.657,-0.906 1.135,0 2.018,0.432 2.648,1.297 0.63,0.865 0.945,2.083 0.945,3.656 0,1.719 -0.346,3.409 -1.039,5.071 -0.692,1.661 -1.653,2.979 -2.882,3.953 -1.23,0.974 -2.605,1.461 -4.125,1.461 -1.386,0 -2.615,-0.339 -3.688,-1.016 l -1.437,1.016 -1,-0.25 4.046,-17.86 c 0.24,-1.062 0.36,-1.833 0.36,-2.312 0,-0.438 -0.133,-0.745 -0.399,-0.922 -0.265,-0.177 -0.742,-0.276 -1.429,-0.297 l 0.187,-0.812 z"
       fill-rule="evenodd"
       id="path63" />
    <text
       fill="#000000"
       fill-opacity="0"
       font-family="Arial, Arial_MSFontService, sans-serif"
       font-size="22.5938px"
       x="429.79599"
       y="329.57599"
       id="text65">2ğ‘</text>
    <path
       d="M 783,259.178 C 783,253.557 787.557,249 793.178,249 h 71.644 c 5.621,0 10.178,4.557 10.178,10.178 v 58.644 C 875,323.443 870.443,328 864.822,328 H 793.178 C 787.557,328 783,323.443 783,317.822 Z"
       fill="#e2f0d9"
       fill-rule="evenodd"
       id="path67" />
    <path
       d="m 883,260.333 c 0,-3.497 2.836,-6.333 6.333,-6.333 h 25.334 c 3.497,0 6.333,2.836 6.333,6.333 v 55.334 c 0,3.497 -2.836,6.333 -6.333,6.333 H 889.333 C 885.836,322 883,319.164 883,315.667 Z"
       fill="#385723"
       fill-rule="evenodd"
       fill-opacity="0.4"
       id="path69" />
    <text
       fill="#385723"
       font-family="'Cambria Math', 'Cambria Math_MSFontService', sans-serif"
       font-weight="400"
       font-size="24px"
       transform="translate(794.78,236)"
       id="text73">ğ‘£<tspan
   font-size="16px"
   x="13"
   y="5"
   id="tspan71">1</tspan></text>
    <path
       d="m 813.662,216.657 2.941,2.543 v 0.68 l -2.941,2.543 -0.622,-0.703 1.875,-1.629 h -4.81 -2.338 -1.802 -2.891 -1.256 -2.884 -4.147 v -1.102 h 4.147 2.884 1.256 2.891 1.802 2.338 4.81 l -1.875,-1.628 z"
       fill="#385723"
       fill-rule="evenodd"
       id="path75" />
    <text
       fill="#385723"
       font-family="'Cambria Math', 'Cambria Math_MSFontService', sans-serif"
       font-weight="400"
       font-size="24px"
       transform="translate(845.31,236)"
       id="text79">ğ‘£<tspan
   font-size="16px"
   x="13"
   y="5"
   id="tspan77">2</tspan></text>
    <path
       d="m 864.191,216.657 2.942,2.543 v 0.68 l -2.942,2.543 -0.621,-0.703 1.875,-1.629 h -4.81 -2.338 -1.802 -2.891 -1.256 -2.884 -4.147 v -1.102 h 4.147 2.884 1.256 2.891 1.802 2.338 4.81 l -1.875,-1.628 z"
       fill="#385723"
       fill-rule="evenodd"
       id="path81" />
    <text
       font-family="Calibri, Calibri_MSFontService, sans-serif"
       font-weight="400"
       font-size="43px"
       transform="translate(346.578,94)"
       id="text111">Surjective linear transformations<tspan
   font-size="43px"
   x="-97.652901"
   y="84"
   id="tspan83">T:</tspan><tspan
   font-family="Cambria, Cambria_MSFontService, sans-serif"
   font-size="43px"
   x="-58.446301"
   y="84"
   id="tspan85">R</tspan><tspan
   font-family="Cambria, Cambria_MSFontService, sans-serif"
   font-size="28px"
   x="-31.946301"
   y="71"
   id="tspan87">n</tspan><tspan
   font-family="'Cambria Math', 'Cambria Math_MSFontService', sans-serif"
   font-size="43px"
   x="-6.44626"
   y="84"
   id="tspan89">â†’</tspan><tspan
   font-family="Cambria, Cambria_MSFontService, sans-serif"
   font-size="43px"
   x="39.053699"
   y="84"
   id="tspan91">R</tspan><tspan
   font-family="Cambria, Cambria_MSFontService, sans-serif"
   font-size="28px"
   x="65.553703"
   y="71"
   id="tspan93">m</tspan><tspan
   font-size="43px"
   x="454.22"
   y="84"
   id="tspan95">T:</tspan><tspan
   font-family="Cambria, Cambria_MSFontService, sans-serif"
   font-size="43px"
   x="493.42599"
   y="84"
   id="tspan97">R</tspan><tspan
   font-family="Cambria, Cambria_MSFontService, sans-serif"
   font-size="28px"
   x="519.92603"
   y="71"
   id="tspan99">n</tspan><tspan
   font-family="'Cambria Math', 'Cambria Math_MSFontService', sans-serif"
   font-size="43px"
   x="545.42603"
   y="84"
   id="tspan101">â†’</tspan><tspan
   font-family="Cambria, Cambria_MSFontService, sans-serif"
   font-size="43px"
   x="590.92603"
   y="84"
   id="tspan103">R</tspan><tspan
   font-family="Cambria, Cambria_MSFontService, sans-serif"
   font-size="28px"
   x="617.42603"
   y="71"
   id="tspan105">n</tspan><tspan
   fill="#385723"
   font-family="'Cambria Math', 'Cambria Math_MSFontService', sans-serif"
   font-size="24px"
   x="-141.42799"
   y="152"
   id="tspan107">ğ‘£</tspan><tspan
   fill="#385723"
   font-family="'Cambria Math', 'Cambria Math_MSFontService', sans-serif"
   font-size="16px"
   x="-128.42799"
   y="157"
   id="tspan109">1</tspan></text>
    <path
       d="m 224.032,227.394 2.941,2.543 v 0.68 l -2.941,2.543 -0.622,-0.703 1.875,-1.629 h -4.81 -2.338 -1.802 -2.891 -1.256 -2.884 -4.147 v -1.102 h 4.147 2.884 1.256 2.891 1.802 2.338 4.81 l -1.875,-1.629 z"
       fill="#385723"
       fill-rule="evenodd"
       id="path113" />
    <text
       fill="#385723"
       font-family="'Cambria Math', 'Cambria Math_MSFontService', sans-serif"
       font-weight="400"
       font-size="24px"
       transform="translate(255.032,246)"
       id="text117">ğ‘£<tspan
   font-size="16px"
   x="13"
   y="5"
   id="tspan115">2</tspan></text>
    <path
       d="m 273.914,227.394 2.941,2.543 v 0.68 l -2.941,2.543 -0.622,-0.703 1.875,-1.629 h -4.81 -2.338 -1.802 -2.891 -1.256 -2.884 -4.147 v -1.102 h 4.147 2.884 1.256 2.891 1.802 2.338 4.81 l -1.875,-1.629 z"
       fill="#385723"
       fill-rule="evenodd"
       id="path119" />
    <text
       font-family="Calibri, Calibri_MSFontService, sans-serif"
       font-weight="400"
       font-size="24px"
       transform="translate(70.2843,412)"
       id="text129">The dimensions of ColA is equal to <tspan
   font-size="24px"
   x="340.767"
   y="0"
   id="tspan121">the</tspan><tspan
   font-size="24px"
   x="378.93301"
   y="0"
   id="tspan123">range of T</tspan><tspan
   font-size="24px"
   x="476.73999"
   y="0"
   id="tspan125">(</tspan><tspan
   font-family="'Cambria Math', 'Cambria Math_MSFontService', sans-serif"
   font-size="24px"
   x="484.073"
   y="0"
   id="tspan127">ğ‘¥</tspan></text>
    <path
       d="m 8.83594,-15.668 -2.94141,2.543 -0.62109,-0.7031 1.875,-1.6289 H 0 v -1.1016 h 7.14844 l -1.875,-1.6289 0.62109,-0.7031 2.94141,2.5429 z"
       transform="translate(558.151,412)"
       id="path131" />
    <text
       font-family="'Cambria Math', 'Cambria Math_MSFontService', sans-serif"
       font-weight="400"
       font-size="16px"
       transform="translate(567.918,417)"
       id="text139">1<tspan
   font-family="Calibri, Calibri_MSFontService, sans-serif"
   font-size="24px"
   x="8.8333101"
   y="-5"
   id="tspan133">).</tspan><tspan
   font-family="Calibri, Calibri_MSFontService, sans-serif"
   font-size="24px"
   x="-497.633"
   y="52"
   id="tspan135">ColA = Span{</tspan><tspan
   font-size="24px"
   x="-374.46701"
   y="52"
   id="tspan137">ğ‘£</tspan></text>
    <path
       d="m 8.83594,-15.668 -2.94141,2.543 -0.62109,-0.7031 1.875,-1.6289 H 0 v -1.1016 h 7.14844 l -1.875,-1.6289 0.62109,-0.7031 2.94141,2.5429 z"
       transform="translate(197.524,469)"
       id="path141" />
    <text
       font-family="'Cambria Math', 'Cambria Math_MSFontService', sans-serif"
       font-weight="400"
       font-size="16px"
       transform="translate(207.151,474)"
       id="text147">1<tspan
   font-family="Calibri, Calibri_MSFontService, sans-serif"
   font-size="24px"
   x="8.8333397"
   y="-5"
   id="tspan143">,</tspan><tspan
   font-size="24px"
   x="20.3333"
   y="-5"
   id="tspan145">ğ‘£</tspan></text>
    <path
       d="m 8.83594,-15.668 -2.94141,2.543 -0.62109,-0.7031 1.875,-1.6289 H 0 v -1.1016 h 7.14844 l -1.875,-1.6289 0.62109,-0.7031 2.94141,2.5429 z"
       transform="translate(231.558,469)"
       id="path149" />
    <text
       font-family="'Cambria Math', 'Cambria Math_MSFontService', sans-serif"
       font-weight="400"
       font-size="16px"
       transform="translate(241.184,474)"
       id="text155">2<tspan
   font-family="Calibri, Calibri_MSFontService, sans-serif"
   font-size="24px"
   x="8.8333302"
   y="-5"
   id="tspan151">} as {</tspan><tspan
   font-size="24px"
   x="55.666698"
   y="-5"
   id="tspan153">ğ‘£</tspan></text>
    <path
       d="m 8.83594,-15.668 -2.94141,2.543 -0.62109,-0.7031 1.875,-1.6289 H 0 v -1.1016 h 7.14844 l -1.875,-1.6289 0.62109,-0.7031 2.94141,2.5429 z"
       transform="translate(300.924,469)"
       id="path157" />
    <text
       font-family="'Cambria Math', 'Cambria Math_MSFontService', sans-serif"
       font-weight="400"
       font-size="16px"
       transform="translate(310.551,474)"
       id="text163">1<tspan
   font-family="Calibri, Calibri_MSFontService, sans-serif"
   font-size="24px"
   x="8.8333397"
   y="-5"
   id="tspan159">,</tspan><tspan
   font-size="24px"
   x="20.3333"
   y="-5"
   id="tspan161">ğ‘£</tspan></text>
    <path
       d="m 8.83594,-15.668 -2.94141,2.543 -0.62109,-0.7031 1.875,-1.6289 H 0 v -1.1016 h 7.14844 l -1.875,-1.6289 0.62109,-0.7031 2.94141,2.5429 z"
       transform="translate(334.958,469)"
       id="path165" />
    <text
       font-family="'Cambria Math', 'Cambria Math_MSFontService', sans-serif"
       font-weight="400"
       font-size="16px"
       transform="translate(344.584,474)"
       id="text213">2<tspan
   font-family="Calibri, Calibri_MSFontService, sans-serif"
   font-size="24px"
   x="8.8333101"
   y="-5"
   id="tspan167">} are linearly</tspan><tspan
   font-family="Calibri, Calibri_MSFontService, sans-serif"
   font-size="24px"
   x="-274.29999"
   y="24"
   id="tspan169">independent. ColA</tspan><tspan
   font-family="Calibri, Calibri_MSFontService, sans-serif"
   font-size="24px"
   x="-87.186699"
   y="24"
   id="tspan171">is</tspan><tspan
   font-family="Calibri, Calibri_MSFontService, sans-serif"
   font-size="24px"
   x="-66.853302"
   y="24"
   id="tspan173">therefore in</tspan><tspan
   font-size="24px"
   x="54.299999"
   y="24"
   id="tspan175">R</tspan><tspan
   font-size="16px"
   x="69.133301"
   y="17"
   id="tspan177">2</tspan><tspan
   font-size="24px"
   x="77.966698"
   y="24"
   id="tspan179">.</tspan><tspan
   font-size="24px"
   x="82.966698"
   y="24"
   id="tspan181" /><tspan
   font-family="Calibri, Calibri_MSFontService, sans-serif"
   font-size="24px"
   x="88.300003"
   y="24"
   id="tspan183">The</tspan><tspan
   font-family="Calibri, Calibri_MSFontService, sans-serif"
   font-size="24px"
   x="124.633"
   y="24"
   id="tspan185" /><tspan
   font-family="Calibri, Calibri_MSFontService, sans-serif"
   font-size="24px"
   x="130.133"
   y="24"
   id="tspan187">range</tspan><tspan
   font-family="Calibri, Calibri_MSFontService, sans-serif"
   font-size="24px"
   x="185.967"
   y="24"
   id="tspan189" /><tspan
   font-family="Calibri, Calibri_MSFontService, sans-serif"
   font-size="24px"
   x="191.467"
   y="24"
   id="tspan191">and</tspan><tspan
   font-family="Calibri, Calibri_MSFontService, sans-serif"
   font-size="24px"
   x="228.3"
   y="24"
   id="tspan193" /><tspan
   font-family="Calibri, Calibri_MSFontService, sans-serif"
   font-size="24px"
   x="-274.29999"
   y="53"
   id="tspan195">co</tspan><tspan
   font-family="Calibri, Calibri_MSFontService, sans-serif"
   font-size="24px"
   x="-251.467"
   y="53"
   id="tspan197">-</tspan><tspan
   font-family="Calibri, Calibri_MSFontService, sans-serif"
   font-size="24px"
   x="-244.133"
   y="53"
   id="tspan199">domain</tspan><tspan
   font-family="Calibri, Calibri_MSFontService, sans-serif"
   font-size="24px"
   x="-169.967"
   y="53"
   id="tspan201" /><tspan
   font-family="Calibri, Calibri_MSFontService, sans-serif"
   font-size="24px"
   x="-164.467"
   y="53"
   id="tspan203">of</tspan><tspan
   font-family="Calibri, Calibri_MSFontService, sans-serif"
   font-size="24px"
   x="-144.467"
   y="53"
   id="tspan205" /><tspan
   font-family="Calibri, Calibri_MSFontService, sans-serif"
   font-size="24px"
   x="-138.967"
   y="53"
   id="tspan207">T</tspan><tspan
   font-family="Calibri, Calibri_MSFontService, sans-serif"
   font-size="24px"
   x="-127.3"
   y="53"
   id="tspan209">(</tspan><tspan
   font-size="24px"
   x="-119.967"
   y="53"
   id="tspan211">ğ‘¥</tspan></text>
    <path
       d="m 8.83594,-15.668 -2.94141,2.543 -0.62109,-0.7031 1.875,-1.6289 H 0 v -1.1016 h 7.14844 l -1.875,-1.6289 0.62109,-0.7031 2.94141,2.5429 z"
       transform="translate(228.411,527)"
       id="path215" />
    <text
       font-family="'Cambria Math', 'Cambria Math_MSFontService', sans-serif"
       font-weight="400"
       font-size="16px"
       transform="translate(238.178,532)"
       id="text243">1<tspan
   font-family="Calibri, Calibri_MSFontService, sans-serif"
   font-size="24px"
   x="8.8333302"
   y="-5"
   id="tspan217">)</tspan><tspan
   font-family="Calibri, Calibri_MSFontService, sans-serif"
   font-size="24px"
   x="16.1667"
   y="-5"
   id="tspan219" /><tspan
   font-family="Calibri, Calibri_MSFontService, sans-serif"
   font-size="24px"
   x="21.6667"
   y="-5"
   id="tspan221">are</tspan><tspan
   font-family="Calibri, Calibri_MSFontService, sans-serif"
   font-size="24px"
   x="53.5"
   y="-5"
   id="tspan223" /><tspan
   font-family="Calibri, Calibri_MSFontService, sans-serif"
   font-size="24px"
   x="59"
   y="-5"
   id="tspan225">therefore</tspan><tspan
   font-family="Calibri, Calibri_MSFontService, sans-serif"
   font-size="24px"
   x="152.33299"
   y="-5"
   id="tspan227" /><tspan
   font-family="Calibri, Calibri_MSFontService, sans-serif"
   font-size="24px"
   x="157.83299"
   y="-5"
   id="tspan229">both</tspan><tspan
   font-family="Calibri, Calibri_MSFontService, sans-serif"
   font-size="24px"
   x="203.83299"
   y="-5"
   id="tspan231" /><tspan
   font-family="Calibri, Calibri_MSFontService, sans-serif"
   font-size="24px"
   x="209.33299"
   y="-5"
   id="tspan233">in</tspan><tspan
   font-family="Calibri, Calibri_MSFontService, sans-serif"
   font-size="24px"
   x="227.5"
   y="-5"
   id="tspan235" /><tspan
   font-family="Cambria, Cambria_MSFontService, sans-serif"
   font-size="24px"
   x="233"
   y="-5"
   id="tspan237">R</tspan><tspan
   font-family="Cambria, Cambria_MSFontService, sans-serif"
   font-size="16px"
   x="247.83299"
   y="-12"
   id="tspan239">2</tspan><tspan
   font-family="Calibri, Calibri_MSFontService, sans-serif"
   font-size="24px"
   x="256.66699"
   y="-5"
   id="tspan241">.</tspan></text>
    <path
       d="m 953,260.333 c 0,-3.497 2.836,-6.333 6.333,-6.333 h 25.334 c 3.497,0 6.333,2.836 6.333,6.333 v 55.334 c 0,3.497 -2.836,6.333 -6.333,6.333 H 959.333 C 955.836,322 953,319.164 953,315.667 Z"
       fill="#385723"
       fill-rule="evenodd"
       fill-opacity="0.4"
       id="path245" />
    <path
       d="m 863.927,256.951 h 7.859 v 63.656 h -7.859 v -1.437 h 4.797 v -60.781 h -4.797 z m -76.601,0 h 7.86 v 1.438 h -4.797 v 60.781 h 4.797 v 1.437 h -7.86 z"
       fill-rule="evenodd"
       id="path247" />
    <text
       font-family="'Cambria Math', 'Cambria Math_MSFontService', sans-serif"
       font-weight="400"
       font-size="32px"
       transform="translate(795.891,281)"
       id="text255">1<tspan
   font-size="32px"
   x="49.666599"
   y="0"
   id="tspan249">0</tspan><tspan
   font-size="32px"
   x="0"
   y="37"
   id="tspan251">0</tspan><tspan
   font-size="32px"
   x="49.666599"
   y="37"
   id="tspan253">1</tspan></text>
    <path
       d="m 911.687,262.534 h 7.438 v 52.5 h -7.438 v -1.36 h 4.547 v -49.781 h -4.547 z m -27.456,0 h 7.437 v 1.359 h -4.547 v 49.781 h 4.547 v 1.36 h -7.437 z"
       fill-rule="evenodd"
       id="path257" />
    <text
       font-family="'Cambria Math', 'Cambria Math_MSFontService', sans-serif"
       font-weight="400"
       font-size="32px"
       transform="translate(892.371,277)"
       id="text263">ğ‘<tspan
   font-size="32px"
   x="0.28668201"
   y="38"
   id="tspan259">ğ‘</tspan><tspan
   font-family="Calibri, Calibri_MSFontService, sans-serif"
   font-size="32px"
   x="37.466702"
   y="21"
   id="tspan261">=</tspan></text>
    <path
       d="m 983.427,262.534 h 7.438 v 52.5 h -7.438 v -1.36 h 4.547 v -49.781 h -4.547 z m -26.876,0 h 7.437 v 1.359 h -4.547 v 49.781 h 4.547 v 1.36 h -7.437 z"
       fill-rule="evenodd"
       id="path265" />
    <text
       font-family="'Cambria Math', 'Cambria Math_MSFontService', sans-serif"
       font-weight="400"
       font-size="32px"
       transform="translate(965.871,277)"
       id="text273">a<tspan
   font-size="32px"
   x="-1.1799901"
   y="38"
   id="tspan267">ğ‘</tspan><tspan
   font-family="Calibri, Calibri_MSFontService, sans-serif"
   font-size="24px"
   x="-278.22299"
   y="135"
   id="tspan269">ColA = Span{</tspan><tspan
   font-size="24px"
   x="-155.05701"
   y="135"
   id="tspan271">ğ‘£</tspan></text>
    <path
       d="m 8.83594,-15.668 -2.94141,2.543 -0.62109,-0.7031 1.875,-1.6289 H 0 v -1.1016 h 7.14844 l -1.875,-1.6289 0.62109,-0.7031 2.94141,2.5429 z"
       transform="translate(814.887,412)"
       id="path275" />
    <text
       font-family="'Cambria Math', 'Cambria Math_MSFontService', sans-serif"
       font-weight="400"
       font-size="16px"
       transform="translate(824.514,417)"
       id="text281">1<tspan
   font-family="Calibri, Calibri_MSFontService, sans-serif"
   font-size="24px"
   x="8.8333101"
   y="-5"
   id="tspan277">,</tspan><tspan
   font-size="24px"
   x="20.3333"
   y="-5"
   id="tspan279">ğ‘£</tspan></text>
    <path
       d="m 8.83594,-15.668 -2.94141,2.543 -0.62109,-0.7031 1.875,-1.6289 H 0 v -1.1016 h 7.14844 l -1.875,-1.6289 0.62109,-0.7031 2.94141,2.5429 z"
       transform="translate(848.921,412)"
       id="path283" />
    <text
       font-family="'Cambria Math', 'Cambria Math_MSFontService', sans-serif"
       font-weight="400"
       font-size="16px"
       transform="translate(858.547,417)"
       id="text309">2<tspan
   font-family="Calibri, Calibri_MSFontService, sans-serif"
   font-size="24px"
   x="8.8333101"
   y="-5"
   id="tspan285">} and ColA is therefore in</tspan><tspan
   font-family="Cambria, Cambria_MSFontService, sans-serif"
   font-size="24px"
   x="255.987"
   y="-5"
   id="tspan287">R</tspan><tspan
   font-family="Cambria, Cambria_MSFontService, sans-serif"
   font-size="16px"
   x="270.82001"
   y="-12"
   id="tspan289">2</tspan><tspan
   font-family="Calibri, Calibri_MSFontService, sans-serif"
   font-size="24px"
   x="279.65302"
   y="-5"
   id="tspan291">.</tspan><tspan
   font-family="Calibri, Calibri_MSFontService, sans-serif"
   font-size="24px"
   x="-170.89999"
   y="23"
   id="tspan293">The</tspan><tspan
   font-family="Calibri, Calibri_MSFontService, sans-serif"
   font-size="24px"
   x="-129.067"
   y="23"
   id="tspan295">range</tspan><tspan
   font-family="Calibri, Calibri_MSFontService, sans-serif"
   font-size="24px"
   x="-68.426598"
   y="23"
   id="tspan297">and co</tspan><tspan
   font-family="Calibri, Calibri_MSFontService, sans-serif"
   font-size="24px"
   x="-3.4600201"
   y="23"
   id="tspan299">-</tspan><tspan
   font-family="Calibri, Calibri_MSFontService, sans-serif"
   font-size="24px"
   x="3.8733499"
   y="23"
   id="tspan301">domain of</tspan><tspan
   font-family="Calibri, Calibri_MSFontService, sans-serif"
   font-size="24px"
   x="109.04"
   y="23"
   id="tspan303">T</tspan><tspan
   font-family="Calibri, Calibri_MSFontService, sans-serif"
   font-size="24px"
   x="120.707"
   y="23"
   id="tspan305">(</tspan><tspan
   font-size="24px"
   x="128.03999"
   y="23"
   id="tspan307">ğ‘¥</tspan></text>
    <path
       d="m 8.83594,-15.668 -2.94141,2.543 -0.62109,-0.7031 1.875,-1.6289 H 0 v -1.1016 h 7.14844 l -1.875,-1.6289 0.62109,-0.7031 2.94141,2.5429 z"
       transform="translate(990.381,440)"
       id="path311" />
    <text
       font-family="'Cambria Math', 'Cambria Math_MSFontService', sans-serif"
       font-weight="400"
       font-size="16px"
       transform="translate(1000.15,445)"
       id="text331">1<tspan
   font-family="Calibri, Calibri_MSFontService, sans-serif"
   font-size="24px"
   x="8.8333101"
   y="-5"
   id="tspan313">)</tspan><tspan
   font-family="Calibri, Calibri_MSFontService, sans-serif"
   font-size="24px"
   x="21.666599"
   y="-5"
   id="tspan315">are therefore</tspan><tspan
   font-family="Calibri, Calibri_MSFontService, sans-serif"
   font-size="24px"
   x="-312.5"
   y="24"
   id="tspan317">both</tspan><tspan
   font-family="Calibri, Calibri_MSFontService, sans-serif"
   font-size="24px"
   x="-261"
   y="24"
   id="tspan319">in</tspan><tspan
   font-family="Cambria, Cambria_MSFontService, sans-serif"
   font-size="24px"
   x="-237.33299"
   y="24"
   id="tspan321">R</tspan><tspan
   font-family="Cambria, Cambria_MSFontService, sans-serif"
   font-size="16px"
   x="-222.5"
   y="17"
   id="tspan323">2</tspan><tspan
   font-family="Calibri, Calibri_MSFontService, sans-serif"
   font-size="24px"
   x="-213.66701"
   y="24"
   id="tspan325">.</tspan><tspan
   fill="#385723"
   font-size="24px"
   x="-692.67798"
   y="-199"
   id="tspan327">ğ‘£</tspan><tspan
   fill="#385723"
   font-size="16px"
   x="-679.67798"
   y="-194"
   id="tspan329">3</tspan></text>
    <path
       d="m 326.35,227.401 2.942,2.543 v 0.679 l -2.942,2.543 -0.621,-0.703 1.875,-1.629 h -4.811 -2.337 -1.803 -2.891 -1.255 -2.885 -4.146 v -1.101 h 4.146 2.885 1.255 2.891 1.803 2.337 4.811 l -1.875,-1.629 z"
       fill="#385723"
       fill-rule="evenodd"
       id="path333" />
    <text
       fill="#c00000"
       font-family="Calibri, Calibri_MSFontService, sans-serif"
       font-weight="400"
       font-size="24px"
       transform="translate(70.2843,572)"
       id="text341">This transformation is not injective as A<tspan
   font-size="16px"
   x="381.453"
   y="5"
   id="tspan335">T</tspan><tspan
   font-size="24px"
   x="394.78699"
   y="0"
   id="tspan337">contains</tspan><tspan
   font-size="24px"
   x="0"
   y="29"
   id="tspan339">free variables.</tspan></text>
  </g>
</svg>
