<svg width="1280" height="720" xmlns="http://www.w3.org/2000/svg" xmlns:xlink="http://www.w3.org/1999/xlink" overflow="hidden"><defs><clipPath id="clip0"><rect x="0" y="0" width="1280" height="720"/></clipPath></defs><g clip-path="url(#clip0)"><rect x="0" y="0" width="1280" height="720" fill="#FFFFFF"/><text font-family="Calibri,Calibri_MSFontService,sans-serif" font-weight="400" font-size="32" transform="translate(99.5018 81)">The solution set contains the parametric vector form:</text><path d="M3.8125-9.28125 3.8125-9C5.21875-8.38542 6.22135-7.44271 6.82031-6.17188 7.41927-4.90104 7.71875-3.25 7.71875-1.21875 7.71875-0.53125 7.43229 1.3099 6.85938 4.30469 6.28646 7.29948 6 9.52604 6 10.9844 6 14.4219 6.55208 16.9688 7.65625 18.625 8.76042 20.2812 10.026 21.2083 11.4531 21.4062L11.4531 22.75C9.22396 22.5417 7.26562 21.3854 5.57812 19.2812 3.89062 17.1771 3.04687 13.9427 3.04688 9.57812 3.04687 7.94271 3.34896 5.70052 3.95312 2.85156 4.55729 0.00260425 4.85938-1.94271 4.85938-2.98438 4.85938-4.68229 4.51302-5.99219 3.82031-6.91406 3.1276-7.83594 2.24479-8.33333 1.17188-8.40625L1.17188-9.875C2.24479-9.94792 3.1276-10.4453 3.82031-11.3672 4.51302-12.2891 4.85938-13.599 4.85938-15.2969 4.85938-16.3385 4.55729-18.2839 3.95312-21.1328 3.34896-23.9818 3.04687-26.224 3.04688-27.8594 3.04687-32.224 3.89062-35.4583 5.57812-37.5625 7.26562-39.6667 9.22396-40.8229 11.4531-41.0312L11.4531-39.6875C10.026-39.4896 8.76042-38.5625 7.65625-36.9062 6.55208-35.25 6-32.7031 6-29.2656 6-27.8073 6.28646-25.5807 6.85938-22.5859 7.43229-19.5911 7.71875-17.75 7.71875-17.0625 7.71875-15.0312 7.41927-13.3802 6.82031-12.1094 6.22135-10.8385 5.21875-9.89583 3.8125-9.28125Z" transform="translate(332.391 149)"/><path d="M391.28 108.484 399.14 108.484 399.14 172.14 391.28 172.14 391.28 170.703 396.077 170.703 396.077 109.922 391.28 109.922ZM348.346 108.484 356.206 108.484 356.206 109.922 351.409 109.922 351.409 170.703 356.206 170.703 356.206 172.14 348.346 172.14Z" fill-rule="evenodd"/><text font-family="Calibri,Calibri_MSFontService,sans-serif" font-weight="400" font-size="32" transform="translate(356.911 132)">âˆ’<tspan font-family="Cambria Math,Cambria Math_MSFontService,sans-serif" font-size="32" x="16" y="0">2</tspan><tspan font-family="Cambria Math,Cambria Math_MSFontService,sans-serif" font-size="32" x="8" y="38">0</tspan><tspan font-family="Cambria Math,Cambria Math_MSFontService,sans-serif" font-size="32" x="52.9067" y="17">+</tspan><tspan font-family="Cambria Math,Cambria Math_MSFontService,sans-serif" font-size="32" x="80.2933" y="17"> </tspan><tspan font-family="Cambria Math,Cambria Math_MSFontService,sans-serif" font-size="32" x="90.8533" y="17">ğ‘¥</tspan><tspan font-family="Cambria Math,Cambria Math_MSFontService,sans-serif" font-size="23" x="107.54" y="24">2</tspan></text><path d="M532.5 114.067 539.938 114.067 539.938 166.567 532.5 166.567 532.5 165.207 537.047 165.207 537.047 115.426 532.5 115.426ZM489.991 114.067 497.428 114.067 497.428 115.426 492.881 115.426 492.881 165.207 497.428 165.207 497.428 166.567 489.991 166.567Z" fill-rule="evenodd"/><text font-family="Calibri,Calibri_MSFontService,sans-serif" font-weight="400" font-size="32" transform="translate(498.131 132)">âˆ’<tspan font-family="Cambria Math,Cambria Math_MSFontService,sans-serif" font-size="32" x="16" y="0">4</tspan><tspan font-family="Cambria Math,Cambria Math_MSFontService,sans-serif" font-size="32" x="8" y="38">1</tspan></text><path d="M12.0469-8.48438C10.8802-8.45312 9.9974-8.02344 9.39844-7.19531 8.79948-6.36719 8.5-5.23958 8.5-3.8125 8.5-3.23958 8.65885-1.81771 8.97656 0.453125 9.29427 2.72396 9.45312 4.45833 9.45312 5.65625 9.45312 9.29167 8.76562 12.0833 7.39062 14.0312 6.01562 15.9792 3.875 16.9948 0.96875 17.0781L0.96875 15.8281C1.88542 15.7656 2.69271 15.5443 3.39062 15.1641 4.08854 14.7839 4.69271 14.2083 5.20312 13.4375 5.71354 12.6875 6.08854 11.7188 6.32812 10.5312 6.56771 9.34375 6.6875 7.91667 6.6875 6.25 6.6875 5.51042 6.54688 3.94531 6.26562 1.55469 5.98438-0.835937 5.84375-2.29167 5.84375-2.8125 5.84375-4.60417 6.22396-6.02083 6.98438-7.0625 7.74479-8.10417 8.44271-8.75 9.07812-9L9.07812-9.3125C8.44271-9.54167 7.74479-10.1901 6.98438-11.2578 6.22396-12.3255 5.84375-13.75 5.84375-15.5312 5.84375-16.3229 5.98438-17.7526 6.26562-19.8203 6.54688-21.888 6.6875-23.5 6.6875-24.6562 6.6875-26.3125 6.55469-27.7266 6.28906-28.8984 6.02344-30.0703 5.64062-31.0312 5.14062-31.7812 4.64062-32.5312 4.03906-33.0911 3.33594-33.4609 2.63281-33.8307 1.84375-34.0469 0.96875-34.1094L0.96875-35.3594C3.71875-35.224 5.82031-34.2292 7.27344-32.375 8.72656-30.5208 9.45312-27.651 9.45312-23.7656 9.45312-22.3698 9.29427-20.6354 8.97656-18.5625 8.65885-16.4896 8.5-15.1406 8.5-14.5156 8.5-13.0573 8.80208-11.9167 9.40625-11.0938 10.0104-10.2708 10.8906-9.84896 12.0469-9.82812Z" transform="translate(543.484 149)"/><text font-family="Calibri,Calibri_MSFontService,sans-serif" font-weight="400" font-size="32" transform="translate(99.5018 561)">The vector</text><path d="M290.872 519.814 298.731 519.814 298.731 583.47 290.872 583.47 290.872 582.033 295.669 582.033 295.669 521.252 290.872 521.252ZM247.938 519.814 255.797 519.814 255.797 521.252 251 521.252 251 582.033 255.797 582.033 255.797 583.47 247.938 583.47Z" fill="#44546A" fill-rule="evenodd"/><text fill="#44546A" font-family="Calibri,Calibri_MSFontService,sans-serif" font-weight="400" font-size="32" transform="translate(256.502 544)">âˆ’<tspan font-family="Cambria Math,Cambria Math_MSFontService,sans-serif" font-size="32" x="16" y="0">2</tspan><tspan font-family="Cambria Math,Cambria Math_MSFontService,sans-serif" font-size="32" x="8" y="37">0</tspan><tspan fill="#000000" font-size="32" x="52.96" y="17">represents a point in 2D </tspan><tspan fill="#000000" font-size="32" x="370.853" y="17">space.</tspan><tspan fill="#000000" font-size="32" x="-157" y="92">The vector </tspan><tspan fill="#000000" font-family="Cambria Math,Cambria Math_MSFontService,sans-serif" font-size="32" x="-12.1267" y="92">ğ‘¥</tspan><tspan fill="#000000" font-family="Cambria Math,Cambria Math_MSFontService,sans-serif" font-size="23" x="4.56" y="99">2</tspan></text><path d="M335.112 600.722 342.549 600.722 342.549 653.222 335.112 653.222 335.112 651.862 339.659 651.862 339.659 602.081 335.112 602.081ZM284.769 600.722 292.206 600.722 292.206 602.081 287.659 602.081 287.659 651.862 292.206 651.862 292.206 653.222 284.769 653.222Z" fill="#C00000" fill-rule="evenodd"/><text fill="#C00000" font-family="Cambria Math,Cambria Math_MSFontService,sans-serif" font-weight="400" font-size="32" transform="translate(292.909 619)">âˆ’<tspan font-size="32" x="23.8333" y="0">4</tspan><tspan font-size="32" x="11.9133" y="37">1</tspan><tspan fill="#000000" font-family="Calibri,Calibri_MSFontService,sans-serif" font-size="32" x="60.3533" y="17">represents the slope of the line which intersects the point</tspan></text><path d="M1155.62 595.139 1163.48 595.139 1163.48 658.795 1155.62 658.795 1155.62 657.358 1160.42 657.358 1160.42 596.577 1155.62 596.577ZM1112.69 595.139 1120.55 595.139 1120.55 596.577 1115.75 596.577 1115.75 657.358 1120.55 657.358 1120.55 658.795 1112.69 658.795Z" fill-rule="evenodd"/><text font-family="Calibri,Calibri_MSFontService,sans-serif" font-weight="400" font-size="32" transform="translate(1121.26 619)">âˆ’<tspan font-family="Cambria Math,Cambria Math_MSFontService,sans-serif" font-size="32" x="16" y="0">2</tspan><tspan font-family="Cambria Math,Cambria Math_MSFontService,sans-serif" font-size="32" x="8" y="37">0</tspan><tspan font-size="32" x="45.7933" y="17">.</tspan></text><rect x="716" y="417" width="76" height="76" stroke="#EDEDED" stroke-width="4" stroke-miterlimit="8" fill="none"/><rect x="716" y="342" width="76" height="75" stroke="#EDEDED" stroke-width="4" stroke-miterlimit="8" fill="none"/><rect x="716" y="266" width="76" height="76" stroke="#EDEDED" stroke-width="4" stroke-miterlimit="8" fill="none"/><rect x="716" y="190" width="76" height="76" stroke="#EDEDED" stroke-width="4" stroke-miterlimit="8" fill="none"/><rect x="187" y="417" width="76" height="76" stroke="#EDEDED" stroke-width="4" stroke-miterlimit="8" fill="none"/><rect x="112" y="417" width="75" height="76" stroke="#EDEDED" stroke-width="4" stroke-miterlimit="8" fill="none"/><rect x="263" y="417" width="75" height="76" stroke="#EDEDED" stroke-width="4" stroke-miterlimit="8" fill="none"/><rect x="263" y="342" width="75" height="75" stroke="#EDEDED" stroke-width="4" stroke-miterlimit="8" fill="none"/><rect x="338" y="417" width="75" height="76" stroke="#EDEDED" stroke-width="4" stroke-miterlimit="8" fill="none"/><rect x="338" y="342" width="75" height="75" stroke="#EDEDED" stroke-width="4" stroke-miterlimit="8" fill="none"/><rect x="338" y="191" width="75" height="75" stroke="#EDEDED" stroke-width="4" stroke-miterlimit="8" fill="none"/><rect x="262" y="191" width="76" height="75" stroke="#EDEDED" stroke-width="4" stroke-miterlimit="8" fill="none"/><rect x="187" y="342" width="76" height="75" stroke="#EDEDED" stroke-width="4" stroke-miterlimit="8" fill="none"/><rect x="112" y="342" width="75" height="75" stroke="#EDEDED" stroke-width="4" stroke-miterlimit="8" fill="none"/><rect x="187" y="191" width="76" height="75" stroke="#EDEDED" stroke-width="4" stroke-miterlimit="8" fill="none"/><rect x="112" y="191" width="75" height="75" stroke="#EDEDED" stroke-width="4" stroke-miterlimit="8" fill="none"/><rect x="413" y="417" width="76" height="76" stroke="#EDEDED" stroke-width="4" stroke-miterlimit="8" fill="none"/><rect x="413" y="342" width="76" height="75" stroke="#EDEDED" stroke-width="4" stroke-miterlimit="8" fill="none"/><rect x="488" y="417" width="76" height="76" stroke="#EDEDED" stroke-width="4" stroke-miterlimit="8" fill="none"/><rect x="488" y="342" width="76" height="75" stroke="#EDEDED" stroke-width="4" stroke-miterlimit="8" fill="none"/><rect x="488" y="266" width="76" height="76" stroke="#EDEDED" stroke-width="4" stroke-miterlimit="8" fill="none"/><rect x="488" y="191" width="76" height="75" stroke="#EDEDED" stroke-width="4" stroke-miterlimit="8" fill="none"/><rect x="413" y="191" width="75" height="75" stroke="#EDEDED" stroke-width="4" stroke-miterlimit="8" fill="none"/><rect x="565" y="417" width="75" height="76" stroke="#EDEDED" stroke-width="4" stroke-miterlimit="8" fill="none"/><rect x="565" y="342" width="75" height="75" stroke="#EDEDED" stroke-width="4" stroke-miterlimit="8" fill="none"/><rect x="640" y="417" width="76" height="76" stroke="#EDEDED" stroke-width="4" stroke-miterlimit="8" fill="none"/><rect x="640" y="342" width="76" height="75" stroke="#EDEDED" stroke-width="4" stroke-miterlimit="8" fill="none"/><rect x="640" y="266" width="76" height="76" stroke="#EDEDED" stroke-width="4" stroke-miterlimit="8" fill="none"/><rect x="640" y="190" width="76" height="76" stroke="#EDEDED" stroke-width="4" stroke-miterlimit="8" fill="none"/><rect x="564" y="266" width="76" height="76" stroke="#EDEDED" stroke-width="4" stroke-miterlimit="8" fill="none"/><rect x="565" y="190" width="75" height="76" stroke="#EDEDED" stroke-width="4" stroke-miterlimit="8" fill="none"/><path d="M565.79 491.362 564 189" stroke="#BFBFBF" stroke-width="4" stroke-miterlimit="8" stroke-dasharray="12 4" fill="none" fill-rule="evenodd"/><rect x="338" y="266" width="75" height="76" stroke="#EDEDED" stroke-width="4" stroke-miterlimit="8" fill="none"/><rect x="262" y="266" width="76" height="76" stroke="#EDEDED" stroke-width="4" stroke-miterlimit="8" fill="none"/><rect x="263" y="266" width="75" height="76" stroke="#EDEDED" stroke-width="4" stroke-miterlimit="8" fill="none"/><rect x="187" y="266" width="76" height="76" stroke="#EDEDED" stroke-width="4" stroke-miterlimit="8" fill="none"/><rect x="413" y="266" width="75" height="76" stroke="#EDEDED" stroke-width="4" stroke-miterlimit="8" fill="none"/><rect x="112" y="266" width="76" height="75" stroke="#EDEDED" stroke-width="4" stroke-miterlimit="8" fill="none"/><path d="M112 269 112 340.569 412 342 112 269Z" fill="#C00000" fill-rule="evenodd" fill-opacity="0.2"/><path d="M112 269 791.44 437.325" stroke="#44546A" stroke-width="4" stroke-miterlimit="8" fill="none" fill-rule="evenodd"/><path d="M112 342 793.016 342.921" stroke="#BFBFBF" stroke-width="4" stroke-miterlimit="8" stroke-dasharray="12 4" fill="none" fill-rule="evenodd"/><path d="M405.5 343C405.5 338.858 408.858 335.5 413 335.5 417.142 335.5 420.5 338.858 420.5 343 420.5 347.142 417.142 350.5 413 350.5 408.858 350.5 405.5 347.142 405.5 343Z" stroke="#000000" stroke-width="3" stroke-miterlimit="8" fill="#44546A" fill-rule="evenodd"/><path d="M2-2.74007e-06 2.0001 72.6709-1.9999 72.6709-2 2.74007e-06ZM8.72764 61.6786 0.000105587 76.6401-8.72747 61.6786C-9.28403 60.7245-8.96176 59.4999-8.00766 58.9433-7.05356 58.3868-5.82892 58.709-5.27236 59.6631L1.72766 71.6631-1.72746 71.6631 5.27252 59.6631C5.82908 58.709 7.05372 58.3867 8.00782 58.9433 8.96193 59.4999 9.2842 60.7245 8.72764 61.6786Z" fill="#C00000" transform="matrix(1 0 0 -1 112 342.631)"/><path d="M111.008 341 399.498 342.178 399.481 346.178 110.992 345ZM388.535 335.406 403.461 344.195 388.464 352.861C387.508 353.414 386.284 353.086 385.732 352.13 385.179 351.174 385.506 349.95 386.463 349.398L398.491 342.447 398.477 345.902 386.506 338.853C385.554 338.292 385.237 337.066 385.797 336.115 386.357 335.163 387.583 334.846 388.535 335.406Z" fill="#C00000"/></g></svg>