<?xml version="1.0" encoding="UTF-8" standalone="no"?>
<svg
   width="1280"
   height="640"
   overflow="hidden"
   version="1.1"
   id="svg1130"
   sodipodi:docname="linear_systems-locating_basis_vectors.svg"
   inkscape:version="1.2 (dc2aedaf03, 2022-05-15)"
   xmlns:inkscape="http://www.inkscape.org/namespaces/inkscape"
   xmlns:sodipodi="http://sodipodi.sourceforge.net/DTD/sodipodi-0.dtd"
   xmlns="http://www.w3.org/2000/svg"
   xmlns:svg="http://www.w3.org/2000/svg">
  <sodipodi:namedview
     id="namedview1132"
     pagecolor="#ffffff"
     bordercolor="#000000"
     borderopacity="0.25"
     inkscape:showpageshadow="2"
     inkscape:pageopacity="0.0"
     inkscape:pagecheckerboard="0"
     inkscape:deskcolor="#d1d1d1"
     showgrid="false"
     inkscape:zoom="0.92709556"
     inkscape:cx="784.70875"
     inkscape:cy="163.95289"
     inkscape:window-width="2880"
     inkscape:window-height="1514"
     inkscape:window-x="3829"
     inkscape:window-y="-11"
     inkscape:window-maximized="1"
     inkscape:current-layer="svg1130" />
  <defs
     id="defs844" />
  <rect
     x="3.2359123"
     y="-4.3145499"
     width="1280"
     height="720"
     fill="#ffffff"
     id="rect846" />
  <path
     d="m 642.23591,194.10145 c 0,-12.38 10.036,-22.416 22.416,-22.416 h 217.168 c 12.38,0 22.416,10.036 22.416,22.416 v 129.168 c 0,12.38 -10.036,22.416 -22.416,22.416 h -217.168 c -12.38,0 -22.416,-10.036 -22.416,-22.416 z"
     fill="#e2f0d9"
     fill-rule="evenodd"
     id="path848" />
  <path
     d="m 302.23591,194.10145 c 0,-12.38 10.036,-22.416 22.416,-22.416 h 212.168 c 12.38,0 22.416,10.036 22.416,22.416 v 129.168 c 0,12.38 -10.036,22.416 -22.416,22.416 h -212.168 c -12.38,0 -22.416,-10.036 -22.416,-22.416 z"
     fill="#e2f0d9"
     fill-rule="evenodd"
     id="path850" />
  <path
     d="m 836.23591,171.68545 v 173.878"
     stroke="#385723"
     stroke-width="4"
     stroke-miterlimit="8"
     fill="none"
     fill-rule="evenodd"
     id="path852" />
  <path
     d="m 491.23591,171.68545 v 174.234"
     stroke="#385723"
     stroke-width="4"
     stroke-miterlimit="8"
     fill="none"
     fill-rule="evenodd"
     id="path854" />
  <text
     font-family="Calibri, Calibri_MSFontService, sans-serif"
     font-weight="400"
     font-size="43px"
     id="text858"
     x="417.3009"
     y="141.68546">A<tspan
   font-size="43px"
   x="758.43994"
   y="142.68546"
   id="tspan856">B</tspan></text>
  <path
     d="m 656.23591,206.18545 c 0,-11.322 9.626,-20.5 21.5,-20.5 11.874,0 21.5,9.178 21.5,20.5 0,11.322 -9.626,20.5 -21.5,20.5 -11.874,0 -21.5,-9.178 -21.5,-20.5 z"
     fill="#bdd7ee"
     fill-rule="evenodd"
     fill-opacity="0.501961"
     id="path860" />
  <path
     d="m 719.23591,243.18545 c 0,-11.322 9.626,-20.5 21.5,-20.5 11.874,0 21.5,9.178 21.5,20.5 0,11.322 -9.626,20.5 -21.5,20.5 -11.874,0 -21.5,-9.178 -21.5,-20.5 z"
     fill="#bdd7ee"
     fill-rule="evenodd"
     fill-opacity="0.501961"
     id="path862" />
  <path
     d="m 778.23591,282.18545 c 0,-11.322 9.626,-20.5 21.5,-20.5 11.874,0 21.5,9.178 21.5,20.5 0,11.322 -9.626,20.5 -21.5,20.5 -11.874,0 -21.5,-9.178 -21.5,-20.5 z"
     fill="#bdd7ee"
     fill-rule="evenodd"
     fill-opacity="0.501961"
     id="path864" />
  <path
     d="m 1002.2359,593.18545 c 0,-11.322 9.63,-20.5 21.5,-20.5 11.87,0 21.5,9.178 21.5,20.5 0,11.322 -9.63,20.5 -21.5,20.5 -11.87,0 -21.5,-9.178 -21.5,-20.5 z"
     fill="#bdd7ee"
     fill-rule="evenodd"
     fill-opacity="0.501961"
     id="path866" />
  <text
     font-family="Calibri, Calibri_MSFontService, sans-serif"
     font-weight="400"
     font-size="27px"
     id="text868"
     x="1054.6459"
     y="602.68542">Pivot columns</text>
  <path
     d="m 335.92591,196.41545 c -0.719,0 -1.321,0.214 -1.805,0.641 -0.484,0.427 -0.875,1.042 -1.172,1.844 -0.297,0.802 -0.508,1.778 -0.633,2.929 -0.125,1.151 -0.187,2.451 -0.187,3.899 0,3.396 0.315,5.888 0.945,7.476 0.63,1.589 1.607,2.383 2.93,2.383 1.26,0 2.195,-0.747 2.805,-2.242 0.609,-1.495 0.914,-3.81 0.914,-6.945 0,-2.396 -0.157,-4.336 -0.469,-5.821 -0.313,-1.484 -0.748,-2.549 -1.305,-3.195 -0.557,-0.646 -1.232,-0.969 -2.023,-0.969 z m 0.078,-1.328 c 2.281,0 3.979,0.88 5.094,2.641 1.114,1.76 1.671,4.422 1.671,7.984 0,3.688 -0.596,6.477 -1.789,8.367 -1.192,1.891 -2.934,2.836 -5.226,2.836 -2.25,0 -3.925,-0.885 -5.024,-2.656 -1.099,-1.771 -1.648,-4.458 -1.648,-8.062 0,-1.917 0.169,-3.573 0.508,-4.969 0.338,-1.396 0.812,-2.55 1.422,-3.461 0.609,-0.912 1.341,-1.586 2.195,-2.024 0.854,-0.437 1.786,-0.656 2.797,-0.656 z"
     fill-rule="evenodd"
     id="path870" />
  <text
     fill="#000000"
     fill-opacity="0"
     font-family="Arial, Arial_MSFontService, sans-serif"
     font-size="21.8281px"
     x="329.08191"
     y="214.18745"
     id="text872">0</text>
  <path
     d="m 379.07691,206.57245 h 12.312 c 0.136,0 0.24,0.049 0.313,0.148 0.073,0.099 0.109,0.242 0.109,0.43 0,0.073 -0.008,0.161 -0.023,0.265 -0.016,0.104 -0.034,0.219 -0.055,0.344 -0.021,0.125 -0.055,0.247 -0.102,0.367 -0.046,0.12 -0.104,0.229 -0.171,0.328 -0.068,0.099 -0.141,0.18 -0.219,0.243 -0.078,0.062 -0.175,0.093 -0.289,0.093 h -12.313 c -0.146,0 -0.252,-0.052 -0.32,-0.156 -0.068,-0.104 -0.102,-0.245 -0.102,-0.422 0,-0.073 0.006,-0.164 0.016,-0.273 0.01,-0.11 0.031,-0.224 0.063,-0.344 0.031,-0.12 0.067,-0.242 0.109,-0.367 0.042,-0.125 0.096,-0.237 0.164,-0.336 0.068,-0.099 0.143,-0.177 0.227,-0.234 0.083,-0.058 0.177,-0.086 0.281,-0.086 z"
     fill-rule="evenodd"
     id="path874" />
  <text
     fill="#000000"
     fill-opacity="0"
     font-family="Arial, Arial_MSFontService, sans-serif"
     font-size="2.21875px"
     x="378.21689"
     y="208.51346"
     id="text876">−</text>
  <path
     d="m 401.71691,195.08745 c 1.938,0 3.401,0.425 4.391,1.274 0.99,0.849 1.484,2.08 1.484,3.695 0,0.552 -0.054,1.06 -0.164,1.523 -0.109,0.464 -0.281,0.922 -0.515,1.375 -0.235,0.454 -0.55,0.94 -0.946,1.461 -0.395,0.521 -0.833,1.05 -1.312,1.586 -0.479,0.537 -1.307,1.43 -2.484,2.68 -1.98,2.094 -3.433,3.922 -4.36,5.484 h 5.891 c 0.51,0 0.922,-0.031 1.234,-0.093 0.313,-0.063 0.563,-0.167 0.75,-0.313 0.188,-0.146 0.336,-0.336 0.445,-0.57 0.11,-0.235 0.248,-0.597 0.415,-1.086 h 1.328 l -0.266,4.562 h -12.859 v -0.75 c 0.448,-1.093 1.052,-2.213 1.812,-3.359 0.761,-1.146 1.839,-2.495 3.235,-4.047 1.208,-1.333 2.078,-2.344 2.609,-3.031 0.583,-0.75 1.018,-1.399 1.305,-1.945 0.286,-0.547 0.492,-1.063 0.617,-1.547 0.125,-0.485 0.187,-0.972 0.187,-1.461 0,-0.782 -0.125,-1.472 -0.375,-2.071 -0.25,-0.599 -0.633,-1.07 -1.148,-1.414 -0.516,-0.343 -1.164,-0.515 -1.945,-0.515 -1.948,0 -3.261,1.083 -3.938,3.25 h -1.891 v -3 c 1.261,-0.594 2.44,-1.024 3.539,-1.289 1.099,-0.266 2.086,-0.399 2.961,-0.399 z"
     fill-rule="evenodd"
     id="path878" />
  <text
     fill="#000000"
     fill-opacity="0"
     font-family="Arial, Arial_MSFontService, sans-serif"
     font-size="21.5781px"
     x="394.7489"
     y="213.96846"
     id="text880">2</text>
  <path
     d="m 459.25891,196.41545 c -0.719,0 -1.32,0.214 -1.805,0.641 -0.484,0.427 -0.875,1.042 -1.172,1.844 -0.296,0.802 -0.507,1.778 -0.632,2.929 -0.125,1.151 -0.188,2.451 -0.188,3.899 0,3.396 0.315,5.888 0.945,7.476 0.631,1.589 1.607,2.383 2.93,2.383 1.261,0 2.195,-0.747 2.805,-2.242 0.609,-1.495 0.914,-3.81 0.914,-6.945 0,-2.396 -0.156,-4.336 -0.469,-5.821 -0.312,-1.484 -0.747,-2.549 -1.305,-3.195 -0.557,-0.646 -1.231,-0.969 -2.023,-0.969 z m 0.078,-1.328 c 2.281,0 3.979,0.88 5.094,2.641 1.115,1.76 1.672,4.422 1.672,7.984 0,3.688 -0.597,6.477 -1.789,8.367 -1.193,1.891 -2.935,2.836 -5.227,2.836 -2.25,0 -3.924,-0.885 -5.023,-2.656 -1.099,-1.771 -1.649,-4.458 -1.649,-8.062 0,-1.917 0.17,-3.573 0.508,-4.969 0.339,-1.396 0.813,-2.55 1.422,-3.461 0.609,-0.912 1.341,-1.586 2.195,-2.024 0.854,-0.437 1.787,-0.656 2.797,-0.656 z"
     fill-rule="evenodd"
     id="path882" />
  <text
     fill="#000000"
     fill-opacity="0"
     font-family="Arial, Arial_MSFontService, sans-serif"
     font-size="21.8281px"
     x="452.41489"
     y="214.18745"
     id="text884">0</text>
  <path
     d="m 533.83891,194.30645 h 1.219 l -0.235,3.625 h -8.984 v 6.859 c 0.542,-0.229 1.13,-0.401 1.766,-0.515 0.635,-0.115 1.27,-0.172 1.906,-0.172 1.239,0 2.338,0.252 3.297,0.758 0.958,0.505 1.698,1.224 2.219,2.156 0.52,0.932 0.781,2.013 0.781,3.242 0,1.396 -0.292,2.594 -0.875,3.594 -0.584,1 -1.427,1.76 -2.531,2.281 -1.105,0.521 -2.412,0.781 -3.922,0.781 -1.802,0 -3.688,-0.369 -5.657,-1.109 v -3.313 h 1.891 c 0.313,1.063 0.784,1.844 1.414,2.344 0.63,0.5 1.445,0.75 2.445,0.75 1.386,0 2.433,-0.416 3.141,-1.25 0.708,-0.833 1.063,-2.078 1.063,-3.734 0,-1.104 -0.188,-2.018 -0.563,-2.742 -0.375,-0.724 -0.88,-1.248 -1.516,-1.571 -0.635,-0.323 -1.375,-0.484 -2.218,-0.484 -0.709,0 -1.318,0.044 -1.828,0.133 -0.511,0.088 -1.058,0.226 -1.641,0.414 l -1.25,-0.735 v -10.281 h 8.609 c 0.354,0 0.61,-0.028 0.766,-0.086 0.156,-0.057 0.281,-0.146 0.375,-0.265 0.094,-0.12 0.203,-0.347 0.328,-0.68 z"
     fill-rule="evenodd"
     id="path886" />
  <text
     fill="#000000"
     fill-opacity="0"
     font-family="Arial, Arial_MSFontService, sans-serif"
     font-size="22.6094px"
     x="522.82288"
     y="214.08946"
     id="text888">5</text>
  <path
     d="m 337.15991,232.60145 h 0.859 c -0.062,1 -0.093,2.385 -0.093,4.156 v 13.344 c 0,0.604 0.034,1.059 0.101,1.367 0.068,0.307 0.188,0.557 0.36,0.75 0.172,0.192 0.419,0.343 0.742,0.453 0.323,0.109 0.729,0.193 1.219,0.25 0.489,0.057 1.135,0.096 1.937,0.117 v 1.141 h -11.547 v -1.141 c 1.156,-0.052 1.982,-0.122 2.477,-0.211 0.495,-0.088 0.872,-0.221 1.133,-0.398 0.26,-0.177 0.45,-0.427 0.57,-0.75 0.12,-0.323 0.18,-0.849 0.18,-1.578 v -12.672 c 0,-0.417 -0.073,-0.722 -0.219,-0.914 -0.146,-0.193 -0.36,-0.289 -0.641,-0.289 -0.333,0 -0.807,0.171 -1.422,0.515 -0.614,0.344 -1.375,0.818 -2.281,1.422 l -0.687,-1.203 z"
     fill-rule="evenodd"
     id="path890" />
  <text
     fill="#000000"
     fill-opacity="0"
     font-family="Arial, Arial_MSFontService, sans-serif"
     font-size="21.5781px"
     x="329.8479"
     y="251.48146"
     id="text892">1</text>
  <path
     d="m 393.65491,232.60145 c 1.177,0 2.208,0.182 3.094,0.546 0.885,0.365 1.562,0.888 2.031,1.571 0.469,0.682 0.703,1.497 0.703,2.445 0,0.885 -0.177,1.664 -0.531,2.336 -0.354,0.672 -0.852,1.258 -1.492,1.758 -0.641,0.5 -1.472,0.989 -2.493,1.469 v 0.14 c 0.636,0.115 1.248,0.31 1.836,0.586 0.589,0.276 1.112,0.633 1.571,1.07 0.458,0.438 0.825,0.961 1.101,1.571 0.276,0.609 0.414,1.304 0.414,2.086 0,1.208 -0.263,2.281 -0.789,3.218 -0.526,0.938 -1.331,1.677 -2.414,2.219 -1.083,0.542 -2.401,0.813 -3.953,0.813 -0.896,0 -1.862,-0.102 -2.898,-0.305 -1.037,-0.203 -1.987,-0.471 -2.852,-0.805 v -3.312 h 1.875 c 0.365,1.083 0.846,1.87 1.445,2.359 0.599,0.49 1.414,0.735 2.446,0.735 1.354,0 2.377,-0.37 3.07,-1.11 0.693,-0.739 1.039,-1.833 1.039,-3.281 0,-1.521 -0.458,-2.682 -1.375,-3.484 -0.917,-0.803 -2.26,-1.204 -4.031,-1.204 h -1.406 v -1.375 c 1.406,-0.083 2.591,-0.354 3.554,-0.812 0.964,-0.458 1.68,-1.047 2.149,-1.766 0.468,-0.718 0.703,-1.526 0.703,-2.422 0,-1.156 -0.308,-2.046 -0.922,-2.671 -0.615,-0.625 -1.511,-0.938 -2.688,-0.938 -0.979,0 -1.776,0.266 -2.39,0.797 -0.615,0.531 -1.068,1.344 -1.36,2.437 h -1.875 v -2.968 c 1.209,-0.573 2.339,-1 3.391,-1.282 1.052,-0.281 2.068,-0.421 3.047,-0.421 z"
     fill-rule="evenodd"
     id="path894" />
  <text
     fill="#000000"
     fill-opacity="0"
     font-family="Arial, Arial_MSFontService, sans-serif"
     font-size="21.8281px"
     x="386.98291"
     y="251.70047"
     id="text896">3</text>
  <path
     d="m 444.74291,244.08545 h 12.313 c 0.135,0 0.24,0.049 0.312,0.148 0.073,0.099 0.11,0.243 0.11,0.43 0,0.073 -0.008,0.161 -0.024,0.266 -0.015,0.104 -0.033,0.218 -0.054,0.343 -0.021,0.125 -0.055,0.248 -0.102,0.368 -0.047,0.119 -0.104,0.229 -0.172,0.328 -0.067,0.099 -0.14,0.179 -0.219,0.242 -0.078,0.062 -0.174,0.094 -0.289,0.094 h -12.312 c -0.146,0 -0.253,-0.052 -0.32,-0.157 -0.068,-0.104 -0.102,-0.244 -0.102,-0.421 0,-0.073 0.005,-0.165 0.016,-0.274 0.01,-0.109 0.031,-0.224 0.062,-0.344 0.031,-0.119 0.068,-0.242 0.11,-0.367 0.041,-0.125 0.096,-0.237 0.164,-0.336 0.067,-0.099 0.143,-0.177 0.226,-0.234 0.084,-0.057 0.177,-0.086 0.281,-0.086 z"
     fill-rule="evenodd"
     id="path898" />
  <text
     fill="#000000"
     fill-opacity="0"
     font-family="Arial, Arial_MSFontService, sans-serif"
     font-size="2.21875px"
     x="443.88391"
     y="246.02646"
     id="text900">−</text>
  <path
     d="m 467.25891,243.77245 c -0.771,0 -1.419,0.12 -1.945,0.36 -0.526,0.239 -0.953,0.562 -1.282,0.969 -0.328,0.406 -0.562,0.882 -0.703,1.429 -0.14,0.547 -0.211,1.133 -0.211,1.758 0,0.677 0.079,1.31 0.235,1.898 0.156,0.589 0.403,1.097 0.742,1.524 0.339,0.427 0.773,0.766 1.305,1.016 0.531,0.25 1.177,0.375 1.937,0.375 0.854,0 1.586,-0.175 2.195,-0.524 0.61,-0.349 1.073,-0.867 1.391,-1.555 0.318,-0.687 0.477,-1.5 0.477,-2.437 0,-1 -0.172,-1.862 -0.516,-2.586 -0.344,-0.724 -0.828,-1.276 -1.453,-1.656 -0.625,-0.38 -1.349,-0.571 -2.172,-0.571 z m 0.078,-9.843 c -1.312,0 -2.315,0.356 -3.008,1.07 -0.692,0.714 -1.039,1.727 -1.039,3.039 0,0.615 0.073,1.193 0.219,1.734 0.146,0.542 0.38,1.011 0.703,1.407 0.323,0.395 0.742,0.711 1.258,0.945 0.516,0.234 1.148,0.352 1.898,0.352 0.865,0 1.592,-0.17 2.18,-0.508 0.589,-0.339 1.026,-0.834 1.313,-1.485 0.286,-0.651 0.429,-1.403 0.429,-2.257 0,-0.938 -0.169,-1.732 -0.508,-2.383 -0.338,-0.651 -0.804,-1.133 -1.398,-1.446 -0.594,-0.312 -1.276,-0.468 -2.047,-0.468 z m 0.031,-1.328 c 1.5,0 2.761,0.21 3.782,0.632 1.021,0.422 1.789,1.032 2.304,1.828 0.516,0.797 0.774,1.753 0.774,2.868 0,1.145 -0.281,2.132 -0.844,2.961 -0.562,0.828 -1.432,1.502 -2.609,2.023 l 0.031,0.203 c 1.177,0.458 2.068,1.128 2.672,2.008 0.604,0.88 0.906,1.94 0.906,3.18 0,1.218 -0.292,2.291 -0.875,3.218 -0.583,0.927 -1.43,1.644 -2.539,2.149 -1.109,0.505 -2.404,0.758 -3.883,0.758 -1.385,0 -2.601,-0.232 -3.648,-0.696 -1.047,-0.463 -1.86,-1.14 -2.438,-2.031 -0.578,-0.891 -0.867,-1.94 -0.867,-3.148 0,-0.907 0.156,-1.693 0.469,-2.36 0.312,-0.666 0.721,-1.216 1.226,-1.648 0.506,-0.432 1.144,-0.826 1.914,-1.18 l -0.031,-0.203 c -2.239,-0.969 -3.359,-2.63 -3.359,-4.984 0,-1.073 0.294,-2.032 0.883,-2.875 0.588,-0.844 1.427,-1.506 2.515,-1.985 1.089,-0.479 2.295,-0.718 3.617,-0.718 z"
     fill-rule="evenodd"
     id="path902" />
  <text
     fill="#000000"
     fill-opacity="0"
     font-family="Arial, Arial_MSFontService, sans-serif"
     font-size="21.8281px"
     x="460.13391"
     y="251.70047"
     id="text904">8</text>
  <path
     d="m 514.82291,244.08545 h 12.313 c 0.135,0 0.24,0.049 0.312,0.148 0.073,0.099 0.11,0.243 0.11,0.43 0,0.073 -0.008,0.161 -0.024,0.266 -0.015,0.104 -0.033,0.218 -0.054,0.343 -0.021,0.125 -0.055,0.248 -0.102,0.368 -0.047,0.119 -0.104,0.229 -0.172,0.328 -0.067,0.099 -0.14,0.179 -0.219,0.242 -0.078,0.062 -0.174,0.094 -0.289,0.094 h -12.312 c -0.146,0 -0.253,-0.052 -0.32,-0.157 -0.068,-0.104 -0.102,-0.244 -0.102,-0.421 0,-0.073 0.005,-0.165 0.016,-0.274 0.01,-0.109 0.031,-0.224 0.062,-0.344 0.031,-0.119 0.068,-0.242 0.11,-0.367 0.041,-0.125 0.096,-0.237 0.164,-0.336 0.067,-0.099 0.143,-0.177 0.226,-0.234 0.084,-0.057 0.177,-0.086 0.281,-0.086 z"
     fill-rule="evenodd"
     id="path906" />
  <text
     fill="#000000"
     fill-opacity="0"
     font-family="Arial, Arial_MSFontService, sans-serif"
     font-size="2.21875px"
     x="513.96393"
     y="246.02646"
     id="text908">−</text>
  <path
     d="m 537.46391,232.60145 c 1.938,0 3.401,0.424 4.391,1.273 0.989,0.849 1.484,2.081 1.484,3.695 0,0.552 -0.055,1.06 -0.164,1.524 -0.109,0.463 -0.281,0.922 -0.516,1.375 -0.234,0.453 -0.549,0.94 -0.945,1.461 -0.396,0.52 -0.833,1.049 -1.312,1.586 -0.48,0.536 -1.308,1.429 -2.485,2.679 -1.979,2.094 -3.432,3.922 -4.359,5.485 h 5.89 c 0.511,0 0.922,-0.032 1.235,-0.094 0.312,-0.063 0.562,-0.167 0.75,-0.313 0.187,-0.145 0.336,-0.336 0.445,-0.57 0.109,-0.234 0.247,-0.596 0.414,-1.086 h 1.328 l -0.265,4.563 h -12.86 v -0.75 c 0.448,-1.094 1.052,-2.214 1.813,-3.36 0.76,-1.146 1.838,-2.495 3.234,-4.047 1.208,-1.333 2.078,-2.343 2.61,-3.031 0.583,-0.75 1.018,-1.398 1.304,-1.945 0.287,-0.547 0.492,-1.063 0.617,-1.547 0.125,-0.484 0.188,-0.971 0.188,-1.461 0,-0.781 -0.125,-1.471 -0.375,-2.07 -0.25,-0.599 -0.633,-1.071 -1.149,-1.414 -0.515,-0.344 -1.164,-0.516 -1.945,-0.516 -1.948,0 -3.26,1.083 -3.937,3.25 h -1.891 v -3 c 1.26,-0.594 2.44,-1.023 3.539,-1.289 1.099,-0.266 2.086,-0.398 2.961,-0.398 z"
     fill-rule="evenodd"
     id="path910" />
  <text
     fill="#000000"
     fill-opacity="0"
     font-family="Arial, Arial_MSFontService, sans-serif"
     font-size="21.5781px"
     x="530.49487"
     y="251.48146"
     id="text912">2</text>
  <path
     d="m 335.92591,271.44245 c -0.719,0 -1.321,0.214 -1.805,0.641 -0.484,0.427 -0.875,1.041 -1.172,1.843 -0.297,0.802 -0.508,1.779 -0.633,2.93 -0.125,1.151 -0.187,2.451 -0.187,3.898 0,3.396 0.315,5.889 0.945,7.477 0.63,1.589 1.607,2.383 2.93,2.383 1.26,0 2.195,-0.748 2.805,-2.242 0.609,-1.495 0.914,-3.81 0.914,-6.946 0,-2.395 -0.157,-4.336 -0.469,-5.82 -0.313,-1.484 -0.748,-2.549 -1.305,-3.195 -0.557,-0.646 -1.232,-0.969 -2.023,-0.969 z m 0.078,-1.328 c 2.281,0 3.979,0.88 5.094,2.64 1.114,1.761 1.671,4.422 1.671,7.985 0,3.687 -0.596,6.476 -1.789,8.367 -1.192,1.891 -2.934,2.836 -5.226,2.836 -2.25,0 -3.925,-0.885 -5.024,-2.656 -1.099,-1.771 -1.648,-4.459 -1.648,-8.063 0,-1.916 0.169,-3.573 0.508,-4.969 0.338,-1.395 0.812,-2.549 1.422,-3.46 0.609,-0.912 1.341,-1.586 2.195,-2.024 0.854,-0.437 1.786,-0.656 2.797,-0.656 z"
     fill-rule="evenodd"
     id="path914" />
  <text
     fill="#000000"
     fill-opacity="0"
     font-family="Arial, Arial_MSFontService, sans-serif"
     font-size="21.8281px"
     x="329.08191"
     y="289.21347"
     id="text916">0</text>
  <path
     d="m 393.59191,271.44245 c -0.718,0 -1.32,0.214 -1.804,0.641 -0.485,0.427 -0.875,1.041 -1.172,1.843 -0.297,0.802 -0.508,1.779 -0.633,2.93 -0.125,1.151 -0.187,2.451 -0.187,3.898 0,3.396 0.315,5.889 0.945,7.477 0.63,1.589 1.607,2.383 2.93,2.383 1.26,0 2.195,-0.748 2.804,-2.242 0.61,-1.495 0.914,-3.81 0.914,-6.946 0,-2.395 -0.156,-4.336 -0.468,-5.82 -0.313,-1.484 -0.748,-2.549 -1.305,-3.195 -0.557,-0.646 -1.232,-0.969 -2.024,-0.969 z m 0.079,-1.328 c 2.281,0 3.979,0.88 5.093,2.64 1.115,1.761 1.672,4.422 1.672,7.985 0,3.687 -0.596,6.476 -1.789,8.367 -1.193,1.891 -2.935,2.836 -5.226,2.836 -2.25,0 -3.925,-0.885 -5.024,-2.656 -1.099,-1.771 -1.648,-4.459 -1.648,-8.063 0,-1.916 0.169,-3.573 0.507,-4.969 0.339,-1.395 0.813,-2.549 1.422,-3.46 0.61,-0.912 1.341,-1.586 2.196,-2.024 0.854,-0.437 1.786,-0.656 2.797,-0.656 z"
     fill-rule="evenodd"
     id="path918" />
  <text
     fill="#000000"
     fill-opacity="0"
     font-family="Arial, Arial_MSFontService, sans-serif"
     font-size="21.8281px"
     x="386.7489"
     y="289.21347"
     id="text920">0</text>
  <path
     d="m 453.02491,270.36445 h 13.406 v 0.75 l -9.094,20.687 h -2.265 v -0.765 l 8.421,-17.828 v -0.235 h -6.875 c -0.427,0 -0.768,0.039 -1.023,0.117 -0.255,0.079 -0.469,0.191 -0.641,0.336 -0.172,0.146 -0.315,0.339 -0.429,0.578 -0.115,0.24 -0.271,0.714 -0.469,1.422 h -1.344 z"
     fill-rule="evenodd"
     id="path922" />
  <text
     fill="#000000"
     fill-opacity="0"
     font-family="Arial, Arial_MSFontService, sans-serif"
     font-size="21.4375px"
     x="452.71191"
     y="289.12247"
     id="text924">7</text>
  <path
     d="m 535.95691,273.78645 -6.109,9.703 v 0.219 h 6.109 v -3.891 c 0,-0.979 0.016,-2.076 0.047,-3.289 0.031,-1.214 0.068,-2.128 0.109,-2.742 z m 0.453,-3.532 h 2.234 v 13.454 h 0.329 c 0.604,0 1.036,-0.045 1.296,-0.133 0.261,-0.089 0.477,-0.245 0.649,-0.469 0.172,-0.224 0.331,-0.591 0.476,-1.102 h 1.188 l -0.188,3.219 h -3.75 v 2.563 c 0,0.698 0.024,1.208 0.071,1.531 0.047,0.323 0.125,0.578 0.234,0.766 0.11,0.187 0.271,0.343 0.485,0.468 0.213,0.125 0.559,0.25 1.039,0.375 v 0.766 h -6.344 v -0.766 c 0.646,-0.166 1.078,-0.351 1.297,-0.554 0.218,-0.203 0.362,-0.493 0.429,-0.868 0.068,-0.375 0.102,-0.947 0.102,-1.718 v -2.563 h -8.688 v -1.172 z m -18.25,-0.14 h 0.86 c -0.063,1 -0.094,2.385 -0.094,4.156 v 13.344 c 0,0.604 0.034,1.06 0.101,1.367 0.068,0.307 0.188,0.557 0.36,0.75 0.172,0.193 0.419,0.344 0.742,0.453 0.323,0.11 0.729,0.193 1.219,0.25 0.489,0.057 1.135,0.097 1.937,0.117 v 1.141 h -11.547 v -1.141 c 1.156,-0.052 1.982,-0.122 2.477,-0.211 0.495,-0.088 0.872,-0.221 1.133,-0.398 0.26,-0.177 0.45,-0.427 0.57,-0.75 0.12,-0.323 0.18,-0.849 0.18,-1.578 v -12.672 c 0,-0.417 -0.073,-0.721 -0.219,-0.914 -0.146,-0.193 -0.359,-0.289 -0.641,-0.289 -0.333,0 -0.807,0.172 -1.422,0.515 -0.614,0.344 -1.375,0.818 -2.281,1.422 l -0.687,-1.203 z"
     fill-rule="evenodd"
     id="path926" />
  <text
     fill="#000000"
     fill-opacity="0"
     font-family="Arial, Arial_MSFontService, sans-serif"
     font-size="21.5781px"
     x="510.8479"
     y="288.99545"
     id="text928">14</text>
  <path
     d="m 335.92591,308.95545 c -0.719,0 -1.321,0.214 -1.805,0.641 -0.484,0.427 -0.875,1.042 -1.172,1.844 -0.297,0.802 -0.508,1.778 -0.633,2.929 -0.125,1.151 -0.187,2.451 -0.187,3.899 0,3.396 0.315,5.888 0.945,7.476 0.63,1.589 1.607,2.383 2.93,2.383 1.26,0 2.195,-0.747 2.805,-2.242 0.609,-1.495 0.914,-3.81 0.914,-6.945 0,-2.396 -0.157,-4.336 -0.469,-5.821 -0.313,-1.484 -0.748,-2.549 -1.305,-3.195 -0.557,-0.646 -1.232,-0.969 -2.023,-0.969 z m 0.078,-1.328 c 2.281,0 3.979,0.88 5.094,2.641 1.114,1.76 1.671,4.422 1.671,7.984 0,3.688 -0.596,6.477 -1.789,8.367 -1.192,1.891 -2.934,2.836 -5.226,2.836 -2.25,0 -3.925,-0.885 -5.024,-2.656 -1.099,-1.771 -1.648,-4.458 -1.648,-8.062 0,-1.917 0.169,-3.573 0.508,-4.969 0.338,-1.396 0.812,-2.55 1.422,-3.461 0.609,-0.912 1.341,-1.586 2.195,-2.024 0.854,-0.437 1.786,-0.656 2.797,-0.656 z"
     fill-rule="evenodd"
     id="path930" />
  <text
     fill="#000000"
     fill-opacity="0"
     font-family="Arial, Arial_MSFontService, sans-serif"
     font-size="21.8281px"
     x="329.08191"
     y="326.72745"
     id="text932">0</text>
  <path
     d="m 393.59191,308.95545 c -0.718,0 -1.32,0.214 -1.804,0.641 -0.485,0.427 -0.875,1.042 -1.172,1.844 -0.297,0.802 -0.508,1.778 -0.633,2.929 -0.125,1.151 -0.187,2.451 -0.187,3.899 0,3.396 0.315,5.888 0.945,7.476 0.63,1.589 1.607,2.383 2.93,2.383 1.26,0 2.195,-0.747 2.804,-2.242 0.61,-1.495 0.914,-3.81 0.914,-6.945 0,-2.396 -0.156,-4.336 -0.468,-5.821 -0.313,-1.484 -0.748,-2.549 -1.305,-3.195 -0.557,-0.646 -1.232,-0.969 -2.024,-0.969 z m 0.079,-1.328 c 2.281,0 3.979,0.88 5.093,2.641 1.115,1.76 1.672,4.422 1.672,7.984 0,3.688 -0.596,6.477 -1.789,8.367 -1.193,1.891 -2.935,2.836 -5.226,2.836 -2.25,0 -3.925,-0.885 -5.024,-2.656 -1.099,-1.771 -1.648,-4.458 -1.648,-8.062 0,-1.917 0.169,-3.573 0.507,-4.969 0.339,-1.396 0.813,-2.55 1.422,-3.461 0.61,-0.912 1.341,-1.586 2.196,-2.024 0.854,-0.437 1.786,-0.656 2.797,-0.656 z"
     fill-rule="evenodd"
     id="path934" />
  <text
     fill="#000000"
     fill-opacity="0"
     font-family="Arial, Arial_MSFontService, sans-serif"
     font-size="21.8281px"
     x="386.7489"
     y="326.72745"
     id="text936">0</text>
  <path
     d="m 460.49291,307.62745 h 0.86 c -0.063,1 -0.094,2.386 -0.094,4.156 v 13.344 c 0,0.604 0.034,1.06 0.102,1.367 0.067,0.308 0.187,0.558 0.359,0.75 0.172,0.193 0.419,0.344 0.742,0.454 0.323,0.109 0.729,0.192 1.219,0.25 0.49,0.057 1.135,0.096 1.937,0.117 v 1.14 h -11.546 v -1.14 c 1.156,-0.052 1.981,-0.123 2.476,-0.211 0.495,-0.089 0.873,-0.222 1.133,-0.399 0.26,-0.177 0.45,-0.427 0.57,-0.75 0.12,-0.323 0.18,-0.849 0.18,-1.578 v -12.672 c 0,-0.416 -0.073,-0.721 -0.219,-0.914 -0.146,-0.192 -0.359,-0.289 -0.64,-0.289 -0.334,0 -0.808,0.172 -1.422,0.516 -0.615,0.344 -1.375,0.818 -2.282,1.422 l -0.687,-1.203 z"
     fill-rule="evenodd"
     id="path938" />
  <text
     fill="#000000"
     fill-opacity="0"
     font-family="Arial, Arial_MSFontService, sans-serif"
     font-size="21.5781px"
     x="453.18091"
     y="326.50845"
     id="text940">1</text>
  <path
     d="m 529.46391,307.62745 c 1.938,0 3.401,0.425 4.391,1.274 0.989,0.849 1.484,2.08 1.484,3.695 0,0.552 -0.055,1.06 -0.164,1.523 -0.109,0.464 -0.281,0.922 -0.516,1.375 -0.234,0.454 -0.549,0.94 -0.945,1.461 -0.396,0.521 -0.833,1.05 -1.312,1.586 -0.48,0.537 -1.308,1.43 -2.485,2.68 -1.979,2.094 -3.432,3.922 -4.359,5.484 h 5.89 c 0.511,0 0.922,-0.031 1.235,-0.093 0.312,-0.063 0.562,-0.167 0.75,-0.313 0.187,-0.146 0.336,-0.336 0.445,-0.57 0.109,-0.235 0.247,-0.597 0.414,-1.086 h 1.328 l -0.265,4.562 h -12.86 v -0.75 c 0.448,-1.093 1.052,-2.213 1.813,-3.359 0.76,-1.146 1.838,-2.495 3.234,-4.047 1.208,-1.333 2.078,-2.344 2.61,-3.031 0.583,-0.75 1.018,-1.399 1.304,-1.945 0.287,-0.547 0.492,-1.063 0.617,-1.547 0.125,-0.485 0.188,-0.972 0.188,-1.461 0,-0.782 -0.125,-1.472 -0.375,-2.071 -0.25,-0.599 -0.633,-1.07 -1.149,-1.414 -0.515,-0.343 -1.164,-0.515 -1.945,-0.515 -1.948,0 -3.26,1.083 -3.937,3.25 h -1.891 v -3 c 1.26,-0.594 2.44,-1.024 3.539,-1.289 1.099,-0.266 2.086,-0.399 2.961,-0.399 z"
     fill-rule="evenodd"
     id="path942" />
  <text
     fill="#000000"
     fill-opacity="0"
     font-family="Arial, Arial_MSFontService, sans-serif"
     font-size="21.5781px"
     x="522.49487"
     y="326.50845"
     id="text944">2</text>
  <path
     d="m 678.24391,195.48845 h 0.859 c -0.063,1 -0.094,2.386 -0.094,4.156 v 13.344 c 0,0.604 0.034,1.06 0.102,1.367 0.067,0.308 0.187,0.558 0.359,0.75 0.172,0.193 0.419,0.344 0.742,0.453 0.323,0.11 0.73,0.193 1.219,0.25 0.49,0.058 1.136,0.097 1.938,0.118 v 1.14 h -11.547 v -1.14 c 1.156,-0.052 1.981,-0.123 2.476,-0.211 0.495,-0.089 0.873,-0.222 1.133,-0.399 0.261,-0.177 0.451,-0.427 0.57,-0.75 0.12,-0.323 0.18,-0.849 0.18,-1.578 v -12.672 c 0,-0.416 -0.073,-0.721 -0.219,-0.914 -0.145,-0.193 -0.359,-0.289 -0.64,-0.289 -0.334,0 -0.808,0.172 -1.422,0.516 -0.615,0.344 -1.375,0.817 -2.281,1.422 l -0.688,-1.203 z"
     fill-rule="evenodd"
     id="path946" />
  <text
     fill="#000000"
     fill-opacity="0"
     font-family="Arial, Arial_MSFontService, sans-serif"
     font-size="21.5781px"
     x="670.93091"
     y="214.36946"
     id="text948">1</text>
  <path
     d="m 734.73791,195.48845 c 1.177,0 2.209,0.182 3.094,0.547 0.886,0.365 1.563,0.888 2.031,1.57 0.469,0.683 0.704,1.498 0.704,2.446 0,0.885 -0.178,1.664 -0.532,2.336 -0.354,0.671 -0.851,1.257 -1.492,1.757 -0.641,0.5 -1.471,0.99 -2.492,1.469 v 0.141 c 0.635,0.114 1.247,0.31 1.836,0.586 0.588,0.276 1.112,0.633 1.57,1.07 0.458,0.438 0.826,0.961 1.102,1.57 0.276,0.61 0.414,1.305 0.414,2.086 0,1.209 -0.263,2.282 -0.789,3.219 -0.526,0.938 -1.331,1.677 -2.414,2.219 -1.084,0.541 -2.401,0.812 -3.953,0.812 -0.896,0 -1.862,-0.101 -2.899,-0.304 -1.036,-0.204 -1.987,-0.472 -2.851,-0.805 v -3.313 h 1.875 c 0.364,1.084 0.846,1.87 1.445,2.36 0.599,0.489 1.414,0.734 2.445,0.734 1.354,0 2.378,-0.37 3.07,-1.109 0.693,-0.74 1.04,-1.834 1.04,-3.281 0,-1.521 -0.459,-2.683 -1.375,-3.485 -0.917,-0.802 -2.261,-1.203 -4.032,-1.203 h -1.406 v -1.375 c 1.406,-0.083 2.591,-0.354 3.555,-0.812 0.963,-0.459 1.679,-1.047 2.148,-1.766 0.469,-0.719 0.703,-1.526 0.703,-2.422 0,-1.156 -0.307,-2.047 -0.922,-2.672 -0.614,-0.625 -1.51,-0.937 -2.687,-0.937 -0.979,0 -1.776,0.265 -2.391,0.797 -0.614,0.531 -1.067,1.343 -1.359,2.437 h -1.875 v -2.969 c 1.208,-0.573 2.338,-1 3.391,-1.281 1.052,-0.281 2.067,-0.422 3.046,-0.422 z"
     fill-rule="evenodd"
     id="path950" />
  <text
     fill="#000000"
     fill-opacity="0"
     font-family="Arial, Arial_MSFontService, sans-serif"
     font-size="21.8281px"
     x="728.06689"
     y="214.58846"
     id="text952">3</text>
  <path
     d="m 785.82691,206.97345 h 12.312 c 0.136,0 0.24,0.049 0.313,0.148 0.073,0.099 0.109,0.242 0.109,0.43 0,0.073 -0.008,0.161 -0.023,0.265 -0.016,0.104 -0.034,0.219 -0.055,0.344 -0.021,0.125 -0.055,0.247 -0.101,0.367 -0.047,0.12 -0.105,0.229 -0.172,0.328 -0.068,0.099 -0.141,0.18 -0.219,0.243 -0.078,0.062 -0.175,0.093 -0.289,0.093 h -12.313 c -0.145,0 -0.252,-0.052 -0.32,-0.156 -0.068,-0.104 -0.101,-0.245 -0.101,-0.422 0,-0.073 0.005,-0.164 0.015,-0.273 0.011,-0.11 0.031,-0.224 0.063,-0.344 0.031,-0.12 0.067,-0.242 0.109,-0.367 0.042,-0.125 0.096,-0.237 0.164,-0.336 0.068,-0.099 0.143,-0.177 0.227,-0.235 0.083,-0.057 0.177,-0.085 0.281,-0.085 z"
     fill-rule="evenodd"
     id="path954" />
  <text
     fill="#000000"
     fill-opacity="0"
     font-family="Arial, Arial_MSFontService, sans-serif"
     font-size="2.21875px"
     x="784.9679"
     y="208.91446"
     id="text956">−</text>
  <path
     d="m 808.34291,206.66045 c -0.771,0 -1.42,0.12 -1.946,0.359 -0.526,0.24 -0.953,0.563 -1.281,0.969 -0.328,0.406 -0.563,0.883 -0.703,1.43 -0.141,0.547 -0.211,1.133 -0.211,1.758 0,0.677 0.078,1.31 0.234,1.898 0.157,0.589 0.404,1.096 0.742,1.524 0.339,0.427 0.774,0.765 1.305,1.015 0.531,0.25 1.177,0.375 1.938,0.375 0.854,0 1.586,-0.174 2.195,-0.523 0.609,-0.349 1.073,-0.867 1.391,-1.555 0.317,-0.687 0.476,-1.5 0.476,-2.437 0,-1 -0.172,-1.862 -0.515,-2.586 -0.344,-0.724 -0.829,-1.276 -1.454,-1.657 -0.625,-0.38 -1.349,-0.57 -2.171,-0.57 z m 0.078,-9.844 c -1.313,0 -2.315,0.357 -3.008,1.071 -0.693,0.713 -1.039,1.726 -1.039,3.039 0,0.614 0.073,1.192 0.219,1.734 0.145,0.542 0.38,1.01 0.703,1.406 0.323,0.396 0.742,0.711 1.257,0.946 0.516,0.234 1.149,0.351 1.899,0.351 0.864,0 1.591,-0.169 2.18,-0.508 0.588,-0.338 1.026,-0.833 1.312,-1.484 0.287,-0.651 0.43,-1.404 0.43,-2.258 0,-0.937 -0.169,-1.732 -0.508,-2.383 -0.339,-0.651 -0.805,-1.132 -1.398,-1.445 -0.594,-0.312 -1.277,-0.469 -2.047,-0.469 z m 0.031,-1.328 c 1.5,0 2.76,0.211 3.781,0.633 1.021,0.422 1.789,1.031 2.305,1.828 0.515,0.797 0.773,1.753 0.773,2.867 0,1.146 -0.281,2.133 -0.843,2.961 -0.563,0.828 -1.433,1.503 -2.61,2.024 l 0.031,0.203 c 1.177,0.458 2.068,1.127 2.672,2.008 0.604,0.88 0.907,1.94 0.907,3.179 0,1.219 -0.292,2.292 -0.875,3.219 -0.584,0.927 -1.43,1.643 -2.54,2.148 -1.109,0.506 -2.403,0.758 -3.882,0.758 -1.386,0 -2.602,-0.232 -3.649,-0.695 -1.047,-0.464 -1.859,-1.141 -2.437,-2.031 -0.578,-0.891 -0.867,-1.94 -0.867,-3.149 0,-0.906 0.156,-1.692 0.468,-2.359 0.313,-0.667 0.722,-1.216 1.227,-1.649 0.505,-0.432 1.143,-0.825 1.914,-1.179 l -0.031,-0.203 c -2.24,-0.969 -3.36,-2.631 -3.36,-4.985 0,-1.073 0.295,-2.031 0.883,-2.875 0.589,-0.843 1.427,-1.505 2.516,-1.984 1.088,-0.479 2.294,-0.719 3.617,-0.719 z"
     fill-rule="evenodd"
     id="path958" />
  <text
     fill="#000000"
     fill-opacity="0"
     font-family="Arial, Arial_MSFontService, sans-serif"
     font-size="21.8281px"
     x="801.2179"
     y="214.58846"
     id="text960">8</text>
  <path
     d="m 851.49391,206.97345 h 12.312 c 0.136,0 0.24,0.049 0.313,0.148 0.073,0.099 0.109,0.242 0.109,0.43 0,0.073 -0.008,0.161 -0.023,0.265 -0.016,0.104 -0.034,0.219 -0.055,0.344 -0.021,0.125 -0.055,0.247 -0.102,0.367 -0.047,0.12 -0.104,0.229 -0.172,0.328 -0.067,0.099 -0.14,0.18 -0.218,0.243 -0.078,0.062 -0.175,0.093 -0.289,0.093 h -12.313 c -0.146,0 -0.253,-0.052 -0.32,-0.156 -0.068,-0.104 -0.102,-0.245 -0.102,-0.422 0,-0.073 0.005,-0.164 0.016,-0.273 0.01,-0.11 0.031,-0.224 0.062,-0.344 0.032,-0.12 0.068,-0.242 0.11,-0.367 0.041,-0.125 0.096,-0.237 0.164,-0.336 0.067,-0.099 0.143,-0.177 0.226,-0.235 0.084,-0.057 0.177,-0.085 0.282,-0.085 z"
     fill-rule="evenodd"
     id="path962" />
  <text
     fill="#000000"
     fill-opacity="0"
     font-family="Arial, Arial_MSFontService, sans-serif"
     font-size="2.21875px"
     x="850.63391"
     y="208.91446"
     id="text964">−</text>
  <path
     d="m 874.13391,195.48845 c 1.938,0 3.401,0.425 4.391,1.274 0.989,0.849 1.484,2.08 1.484,3.695 0,0.552 -0.054,1.06 -0.164,1.523 -0.109,0.464 -0.281,0.922 -0.515,1.375 -0.235,0.453 -0.55,0.94 -0.946,1.461 -0.396,0.521 -0.833,1.05 -1.312,1.586 -0.479,0.537 -1.308,1.43 -2.485,2.68 -1.979,2.094 -3.432,3.922 -4.359,5.484 h 5.891 c 0.51,0 0.921,-0.031 1.234,-0.093 0.312,-0.063 0.562,-0.167 0.75,-0.313 0.187,-0.146 0.336,-0.336 0.445,-0.57 0.11,-0.235 0.248,-0.597 0.414,-1.086 h 1.328 l -0.265,4.562 h -12.86 v -0.75 c 0.448,-1.093 1.053,-2.213 1.813,-3.359 0.76,-1.146 1.839,-2.495 3.234,-4.047 1.209,-1.333 2.078,-2.344 2.61,-3.031 0.583,-0.75 1.018,-1.399 1.304,-1.946 0.287,-0.546 0.493,-1.062 0.618,-1.546 0.125,-0.485 0.187,-0.972 0.187,-1.461 0,-0.782 -0.125,-1.472 -0.375,-2.071 -0.25,-0.599 -0.633,-1.07 -1.148,-1.414 -0.516,-0.343 -1.164,-0.515 -1.946,-0.515 -1.948,0 -3.26,1.083 -3.937,3.25 h -1.891 v -3 c 1.261,-0.594 2.44,-1.024 3.539,-1.289 1.099,-0.266 2.086,-0.399 2.961,-0.399 z"
     fill-rule="evenodd"
     id="path966" />
  <text
     fill="#000000"
     fill-opacity="0"
     font-family="Arial, Arial_MSFontService, sans-serif"
     font-size="21.5781px"
     x="867.16492"
     y="214.36946"
     id="text968">2</text>
  <path
     d="m 677.00891,234.33045 c -0.719,0 -1.32,0.213 -1.804,0.64 -0.485,0.427 -0.875,1.042 -1.172,1.844 -0.297,0.802 -0.508,1.779 -0.633,2.93 -0.125,1.151 -0.188,2.45 -0.188,3.898 0,3.396 0.315,5.888 0.946,7.477 0.63,1.588 1.606,2.382 2.929,2.382 1.261,0 2.196,-0.747 2.805,-2.242 0.609,-1.495 0.914,-3.81 0.914,-6.945 0,-2.396 -0.156,-4.336 -0.469,-5.82 -0.312,-1.485 -0.747,-2.55 -1.304,-3.196 -0.558,-0.645 -1.232,-0.968 -2.024,-0.968 z m 0.078,-1.329 c 2.282,0 3.98,0.881 5.094,2.641 1.115,1.761 1.672,4.422 1.672,7.984 0,3.688 -0.596,6.477 -1.789,8.368 -1.193,1.89 -2.935,2.836 -5.227,2.836 -2.25,0 -3.924,-0.886 -5.023,-2.657 -1.099,-1.77 -1.649,-4.458 -1.649,-8.062 0,-1.917 0.17,-3.573 0.508,-4.969 0.339,-1.396 0.813,-2.549 1.422,-3.461 0.61,-0.911 1.341,-1.586 2.195,-2.023 0.855,-0.438 1.787,-0.657 2.797,-0.657 z"
     fill-rule="evenodd"
     id="path970" />
  <text
     fill="#000000"
     fill-opacity="0"
     font-family="Arial, Arial_MSFontService, sans-serif"
     font-size="21.8281px"
     x="670.16492"
     y="252.10144"
     id="text972">0</text>
  <path
     d="m 720.15991,244.48645 h 12.313 c 0.135,0 0.239,0.049 0.312,0.148 0.073,0.099 0.11,0.242 0.11,0.43 0,0.073 -0.008,0.161 -0.024,0.266 -0.015,0.104 -0.034,0.218 -0.055,0.343 -0.02,0.125 -0.054,0.248 -0.101,0.368 -0.047,0.119 -0.104,0.229 -0.172,0.328 -0.068,0.099 -0.141,0.179 -0.219,0.242 -0.078,0.062 -0.174,0.094 -0.289,0.094 h -12.312 c -0.146,0 -0.253,-0.052 -0.321,-0.157 -0.067,-0.104 -0.101,-0.244 -0.101,-0.422 0,-0.072 0.005,-0.164 0.015,-0.273 0.011,-0.109 0.032,-0.224 0.063,-0.344 0.031,-0.12 0.068,-0.242 0.109,-0.367 0.042,-0.125 0.097,-0.237 0.164,-0.336 0.068,-0.099 0.144,-0.177 0.227,-0.234 0.083,-0.058 0.177,-0.086 0.281,-0.086 z"
     fill-rule="evenodd"
     id="path974" />
  <text
     fill="#000000"
     fill-opacity="0"
     font-family="Arial, Arial_MSFontService, sans-serif"
     font-size="2.21875px"
     x="719.3009"
     y="246.42746"
     id="text976">−</text>
  <path
     d="m 742.80091,233.00145 c 1.937,0 3.401,0.425 4.391,1.274 0.989,0.849 1.484,2.081 1.484,3.695 0,0.552 -0.055,1.06 -0.164,1.524 -0.11,0.463 -0.281,0.922 -0.516,1.375 -0.234,0.453 -0.549,0.94 -0.945,1.461 -0.396,0.52 -0.833,1.049 -1.313,1.586 -0.479,0.536 -1.307,1.429 -2.484,2.679 -1.979,2.094 -3.432,3.922 -4.359,5.485 h 5.89 c 0.511,0 0.922,-0.032 1.235,-0.094 0.312,-0.063 0.562,-0.167 0.75,-0.313 0.187,-0.145 0.336,-0.336 0.445,-0.57 0.109,-0.234 0.247,-0.596 0.414,-1.086 h 1.328 l -0.265,4.563 h -12.86 v -0.75 c 0.448,-1.094 1.052,-2.214 1.813,-3.36 0.76,-1.146 1.838,-2.495 3.234,-4.047 1.208,-1.333 2.078,-2.343 2.609,-3.031 0.584,-0.75 1.019,-1.398 1.305,-1.945 0.287,-0.547 0.492,-1.063 0.617,-1.547 0.125,-0.484 0.188,-0.971 0.188,-1.461 0,-0.781 -0.125,-1.471 -0.375,-2.07 -0.25,-0.599 -0.633,-1.071 -1.149,-1.414 -0.515,-0.344 -1.164,-0.516 -1.945,-0.516 -1.948,0 -3.26,1.083 -3.937,3.25 h -1.891 v -3 c 1.26,-0.594 2.44,-1.023 3.539,-1.289 1.099,-0.266 2.086,-0.399 2.961,-0.399 z"
     fill-rule="evenodd"
     id="path978" />
  <text
     fill="#000000"
     fill-opacity="0"
     font-family="Arial, Arial_MSFontService, sans-serif"
     font-size="21.5781px"
     x="735.83191"
     y="251.88245"
     id="text980">2</text>
  <path
     d="m 800.34291,234.33045 c -0.719,0 -1.321,0.213 -1.805,0.64 -0.485,0.427 -0.875,1.042 -1.172,1.844 -0.297,0.802 -0.508,1.779 -0.633,2.93 -0.125,1.151 -0.187,2.45 -0.187,3.898 0,3.396 0.315,5.888 0.945,7.477 0.63,1.588 1.607,2.382 2.93,2.382 1.26,0 2.195,-0.747 2.804,-2.242 0.61,-1.495 0.914,-3.81 0.914,-6.945 0,-2.396 -0.156,-4.336 -0.468,-5.82 -0.313,-1.485 -0.748,-2.55 -1.305,-3.196 -0.557,-0.645 -1.232,-0.968 -2.023,-0.968 z m 0.078,-1.329 c 2.281,0 3.979,0.881 5.093,2.641 1.115,1.761 1.672,4.422 1.672,7.984 0,3.688 -0.596,6.477 -1.789,8.368 -1.192,1.89 -2.935,2.836 -5.226,2.836 -2.25,0 -3.925,-0.886 -5.024,-2.657 -1.099,-1.77 -1.648,-4.458 -1.648,-8.062 0,-1.917 0.169,-3.573 0.508,-4.969 0.338,-1.396 0.812,-2.549 1.421,-3.461 0.61,-0.911 1.342,-1.586 2.196,-2.023 0.854,-0.438 1.786,-0.657 2.797,-0.657 z"
     fill-rule="evenodd"
     id="path982" />
  <text
     fill="#000000"
     fill-opacity="0"
     font-family="Arial, Arial_MSFontService, sans-serif"
     font-size="21.8281px"
     x="793.4989"
     y="252.10144"
     id="text984">0</text>
  <path
     d="m 870.50891,232.22045 h 1.219 l -0.234,3.625 h -8.985 v 6.86 c 0.542,-0.23 1.13,-0.401 1.766,-0.516 0.635,-0.115 1.271,-0.172 1.906,-0.172 1.24,0 2.339,0.253 3.297,0.758 0.958,0.505 1.698,1.224 2.219,2.156 0.521,0.932 0.781,2.013 0.781,3.242 0,1.396 -0.292,2.594 -0.875,3.594 -0.583,1 -1.427,1.76 -2.531,2.281 -1.104,0.521 -2.412,0.782 -3.922,0.782 -1.802,0 -3.688,-0.37 -5.656,-1.11 v -3.312 h 1.89 c 0.313,1.062 0.784,1.843 1.414,2.343 0.63,0.5 1.446,0.75 2.446,0.75 1.385,0 2.432,-0.416 3.14,-1.25 0.709,-0.833 1.063,-2.078 1.063,-3.734 0,-1.104 -0.188,-2.018 -0.563,-2.742 -0.375,-0.724 -0.88,-1.247 -1.515,-1.57 -0.636,-0.323 -1.375,-0.485 -2.219,-0.485 -0.708,0 -1.318,0.044 -1.828,0.133 -0.511,0.089 -1.058,0.227 -1.641,0.414 l -1.25,-0.734 v -10.282 h 8.609 c 0.355,0 0.61,-0.028 0.766,-0.085 0.156,-0.058 0.281,-0.146 0.375,-0.266 0.094,-0.12 0.203,-0.346 0.328,-0.68 z"
     fill-rule="evenodd"
     id="path986" />
  <text
     fill="#000000"
     fill-opacity="0"
     font-family="Arial, Arial_MSFontService, sans-serif"
     font-size="22.6094px"
     x="859.4939"
     y="252.00345"
     id="text988">5</text>
  <path
     d="m 677.00891,271.84345 c -0.719,0 -1.32,0.213 -1.804,0.641 -0.485,0.427 -0.875,1.041 -1.172,1.843 -0.297,0.802 -0.508,1.779 -0.633,2.93 -0.125,1.151 -0.188,2.451 -0.188,3.898 0,3.396 0.315,5.888 0.946,7.477 0.63,1.589 1.606,2.383 2.929,2.383 1.261,0 2.196,-0.748 2.805,-2.242 0.609,-1.495 0.914,-3.81 0.914,-6.946 0,-2.396 -0.156,-4.336 -0.469,-5.82 -0.312,-1.484 -0.747,-2.549 -1.304,-3.195 -0.558,-0.646 -1.232,-0.969 -2.024,-0.969 z m 0.078,-1.328 c 2.282,0 3.98,0.88 5.094,2.64 1.115,1.761 1.672,4.422 1.672,7.985 0,3.687 -0.596,6.476 -1.789,8.367 -1.193,1.891 -2.935,2.836 -5.227,2.836 -2.25,0 -3.924,-0.885 -5.023,-2.656 -1.099,-1.771 -1.649,-4.459 -1.649,-8.063 0,-1.916 0.17,-3.573 0.508,-4.969 0.339,-1.395 0.813,-2.549 1.422,-3.461 0.61,-0.911 1.341,-1.585 2.195,-2.023 0.855,-0.437 1.787,-0.656 2.797,-0.656 z"
     fill-rule="evenodd"
     id="path990" />
  <text
     fill="#000000"
     fill-opacity="0"
     font-family="Arial, Arial_MSFontService, sans-serif"
     font-size="21.8281px"
     x="670.16492"
     y="289.61444"
     id="text992">0</text>
  <path
     d="m 734.67591,271.84345 c -0.719,0 -1.32,0.213 -1.805,0.641 -0.484,0.427 -0.875,1.041 -1.172,1.843 -0.297,0.802 -0.507,1.779 -0.632,2.93 -0.125,1.151 -0.188,2.451 -0.188,3.898 0,3.396 0.315,5.888 0.945,7.477 0.631,1.589 1.607,2.383 2.93,2.383 1.26,0 2.195,-0.748 2.805,-2.242 0.609,-1.495 0.914,-3.81 0.914,-6.946 0,-2.396 -0.156,-4.336 -0.469,-5.82 -0.312,-1.484 -0.747,-2.549 -1.305,-3.195 -0.557,-0.646 -1.231,-0.969 -2.023,-0.969 z m 0.078,-1.328 c 2.281,0 3.979,0.88 5.094,2.64 1.114,1.761 1.672,4.422 1.672,7.985 0,3.687 -0.597,6.476 -1.789,8.367 -1.193,1.891 -2.935,2.836 -5.227,2.836 -2.25,0 -3.924,-0.885 -5.023,-2.656 -1.099,-1.771 -1.649,-4.459 -1.649,-8.063 0,-1.916 0.169,-3.573 0.508,-4.969 0.339,-1.395 0.812,-2.549 1.422,-3.461 0.609,-0.911 1.341,-1.585 2.195,-2.023 0.854,-0.437 1.787,-0.656 2.797,-0.656 z"
     fill-rule="evenodd"
     id="path994" />
  <text
     fill="#000000"
     fill-opacity="0"
     font-family="Arial, Arial_MSFontService, sans-serif"
     font-size="21.8281px"
     x="727.83191"
     y="289.61444"
     id="text996">0</text>
  <path
     d="m 801.57691,270.51545 h 0.859 c -0.062,1 -0.093,2.385 -0.093,4.156 v 13.344 c 0,0.604 0.033,1.06 0.101,1.367 0.068,0.307 0.188,0.557 0.359,0.75 0.172,0.193 0.42,0.344 0.743,0.453 0.323,0.109 0.729,0.193 1.218,0.25 0.49,0.057 1.136,0.096 1.938,0.117 v 1.141 h -11.547 v -1.141 c 1.156,-0.052 1.982,-0.122 2.477,-0.211 0.494,-0.088 0.872,-0.221 1.132,-0.398 0.261,-0.177 0.451,-0.427 0.571,-0.75 0.12,-0.323 0.179,-0.849 0.179,-1.578 v -12.672 c 0,-0.417 -0.073,-0.721 -0.218,-0.914 -0.146,-0.193 -0.36,-0.289 -0.641,-0.289 -0.333,0 -0.807,0.172 -1.422,0.515 -0.614,0.344 -1.375,0.818 -2.281,1.422 l -0.688,-1.203 z"
     fill-rule="evenodd"
     id="path998" />
  <text
     fill="#000000"
     fill-opacity="0"
     font-family="Arial, Arial_MSFontService, sans-serif"
     font-size="21.5781px"
     x="794.26392"
     y="289.39645"
     id="text1000">1</text>
  <path
     d="m 866.13391,270.51545 c 1.938,0 3.401,0.424 4.391,1.273 0.989,0.849 1.484,2.081 1.484,3.696 0,0.552 -0.054,1.059 -0.164,1.523 -0.109,0.464 -0.281,0.922 -0.515,1.375 -0.235,0.453 -0.55,0.94 -0.946,1.461 -0.396,0.521 -0.833,1.049 -1.312,1.586 -0.479,0.536 -1.308,1.43 -2.485,2.68 -1.979,2.093 -3.432,3.921 -4.359,5.484 h 5.891 c 0.51,0 0.921,-0.031 1.234,-0.094 0.312,-0.062 0.562,-0.166 0.75,-0.312 0.187,-0.146 0.336,-0.336 0.445,-0.571 0.11,-0.234 0.248,-0.596 0.414,-1.086 h 1.328 l -0.265,4.563 h -12.86 v -0.75 c 0.448,-1.094 1.053,-2.214 1.813,-3.359 0.76,-1.146 1.839,-2.495 3.234,-4.047 1.209,-1.334 2.078,-2.344 2.61,-3.032 0.583,-0.75 1.018,-1.398 1.304,-1.945 0.287,-0.547 0.493,-1.062 0.618,-1.547 0.125,-0.484 0.187,-0.971 0.187,-1.461 0,-0.781 -0.125,-1.471 -0.375,-2.07 -0.25,-0.599 -0.633,-1.07 -1.148,-1.414 -0.516,-0.344 -1.164,-0.516 -1.946,-0.516 -1.948,0 -3.26,1.084 -3.937,3.25 h -1.891 v -3 c 1.261,-0.593 2.44,-1.023 3.539,-1.289 1.099,-0.265 2.086,-0.398 2.961,-0.398 z"
     fill-rule="evenodd"
     id="path1002" />
  <text
     fill="#000000"
     fill-opacity="0"
     font-family="Arial, Arial_MSFontService, sans-serif"
     font-size="21.5781px"
     x="859.16492"
     y="289.39645"
     id="text1004">2</text>
  <path
     d="m 677.00891,309.35645 c -0.719,0 -1.32,0.214 -1.804,0.641 -0.485,0.427 -0.875,1.042 -1.172,1.844 -0.297,0.802 -0.508,1.778 -0.633,2.929 -0.125,1.151 -0.188,2.451 -0.188,3.899 0,3.396 0.315,5.888 0.946,7.476 0.63,1.589 1.606,2.383 2.929,2.383 1.261,0 2.196,-0.747 2.805,-2.242 0.609,-1.495 0.914,-3.81 0.914,-6.945 0,-2.396 -0.156,-4.336 -0.469,-5.821 -0.312,-1.484 -0.747,-2.549 -1.304,-3.195 -0.558,-0.646 -1.232,-0.969 -2.024,-0.969 z m 0.078,-1.328 c 2.282,0 3.98,0.88 5.094,2.641 1.115,1.76 1.672,4.422 1.672,7.984 0,3.688 -0.596,6.477 -1.789,8.367 -1.193,1.891 -2.935,2.836 -5.227,2.836 -2.25,0 -3.924,-0.885 -5.023,-2.656 -1.099,-1.771 -1.649,-4.458 -1.649,-8.062 0,-1.917 0.17,-3.573 0.508,-4.969 0.339,-1.396 0.813,-2.55 1.422,-3.461 0.61,-0.912 1.341,-1.586 2.195,-2.024 0.855,-0.437 1.787,-0.656 2.797,-0.656 z"
     fill-rule="evenodd"
     id="path1006" />
  <text
     fill="#000000"
     fill-opacity="0"
     font-family="Arial, Arial_MSFontService, sans-serif"
     font-size="21.8281px"
     x="670.16492"
     y="327.12845"
     id="text1008">0</text>
  <path
     d="m 734.67591,309.35645 c -0.719,0 -1.32,0.214 -1.805,0.641 -0.484,0.427 -0.875,1.042 -1.172,1.844 -0.297,0.802 -0.507,1.778 -0.632,2.929 -0.125,1.151 -0.188,2.451 -0.188,3.899 0,3.396 0.315,5.888 0.945,7.476 0.631,1.589 1.607,2.383 2.93,2.383 1.26,0 2.195,-0.747 2.805,-2.242 0.609,-1.495 0.914,-3.81 0.914,-6.945 0,-2.396 -0.156,-4.336 -0.469,-5.821 -0.312,-1.484 -0.747,-2.549 -1.305,-3.195 -0.557,-0.646 -1.231,-0.969 -2.023,-0.969 z m 0.078,-1.328 c 2.281,0 3.979,0.88 5.094,2.641 1.114,1.76 1.672,4.422 1.672,7.984 0,3.688 -0.597,6.477 -1.789,8.367 -1.193,1.891 -2.935,2.836 -5.227,2.836 -2.25,0 -3.924,-0.885 -5.023,-2.656 -1.099,-1.771 -1.649,-4.458 -1.649,-8.062 0,-1.917 0.169,-3.573 0.508,-4.969 0.339,-1.396 0.812,-2.55 1.422,-3.461 0.609,-0.912 1.341,-1.586 2.195,-2.024 0.854,-0.437 1.787,-0.656 2.797,-0.656 z"
     fill-rule="evenodd"
     id="path1010" />
  <text
     fill="#000000"
     fill-opacity="0"
     font-family="Arial, Arial_MSFontService, sans-serif"
     font-size="21.8281px"
     x="727.83191"
     y="327.12845"
     id="text1012">0</text>
  <path
     d="m 800.34291,309.35645 c -0.719,0 -1.321,0.214 -1.805,0.641 -0.485,0.427 -0.875,1.042 -1.172,1.844 -0.297,0.802 -0.508,1.778 -0.633,2.929 -0.125,1.151 -0.187,2.451 -0.187,3.899 0,3.396 0.315,5.888 0.945,7.476 0.63,1.589 1.607,2.383 2.93,2.383 1.26,0 2.195,-0.747 2.804,-2.242 0.61,-1.495 0.914,-3.81 0.914,-6.945 0,-2.396 -0.156,-4.336 -0.468,-5.821 -0.313,-1.484 -0.748,-2.549 -1.305,-3.195 -0.557,-0.646 -1.232,-0.969 -2.023,-0.969 z m 0.078,-1.328 c 2.281,0 3.979,0.88 5.093,2.641 1.115,1.76 1.672,4.422 1.672,7.984 0,3.688 -0.596,6.477 -1.789,8.367 -1.192,1.891 -2.935,2.836 -5.226,2.836 -2.25,0 -3.925,-0.885 -5.024,-2.656 -1.099,-1.771 -1.648,-4.458 -1.648,-8.062 0,-1.917 0.169,-3.573 0.508,-4.969 0.338,-1.396 0.812,-2.55 1.421,-3.461 0.61,-0.912 1.342,-1.586 2.196,-2.024 0.854,-0.437 1.786,-0.656 2.797,-0.656 z"
     fill-rule="evenodd"
     id="path1014" />
  <text
     fill="#000000"
     fill-opacity="0"
     font-family="Arial, Arial_MSFontService, sans-serif"
     font-size="21.8281px"
     x="793.4989"
     y="327.12845"
     id="text1016">0</text>
  <path
     d="m 866.00891,309.35645 c -0.719,0 -1.32,0.214 -1.804,0.641 -0.485,0.427 -0.875,1.042 -1.172,1.844 -0.297,0.802 -0.508,1.778 -0.633,2.929 -0.125,1.151 -0.188,2.451 -0.188,3.899 0,3.396 0.315,5.888 0.946,7.476 0.63,1.589 1.606,2.383 2.929,2.383 1.261,0 2.196,-0.747 2.805,-2.242 0.609,-1.495 0.914,-3.81 0.914,-6.945 0,-2.396 -0.156,-4.336 -0.469,-5.821 -0.312,-1.484 -0.747,-2.549 -1.304,-3.195 -0.558,-0.646 -1.232,-0.969 -2.024,-0.969 z m 0.078,-1.328 c 2.282,0 3.98,0.88 5.094,2.641 1.115,1.76 1.672,4.422 1.672,7.984 0,3.688 -0.596,6.477 -1.789,8.367 -1.193,1.891 -2.935,2.836 -5.227,2.836 -2.25,0 -3.924,-0.885 -5.023,-2.656 -1.099,-1.771 -1.649,-4.458 -1.649,-8.062 0,-1.917 0.17,-3.573 0.508,-4.969 0.339,-1.396 0.813,-2.55 1.422,-3.461 0.61,-0.912 1.341,-1.586 2.195,-2.024 0.855,-0.437 1.787,-0.656 2.797,-0.656 z"
     fill-rule="evenodd"
     id="path1018" />
  <text
     fill="#000000"
     fill-opacity="0"
     font-family="Arial, Arial_MSFontService, sans-serif"
     font-size="21.8281px"
     x="859.16492"
     y="327.12845"
     id="text1020">0</text>
  <path
     d="m 588.01291,242.43845 c 3.75,0 8.219,1.641 13.407,4.922 5.187,3.282 9.125,4.922 11.812,4.922 2.656,0 4.875,-0.703 6.656,-2.109 1.782,-1.406 3.578,-3.594 5.391,-6.563 l 3.75,2.532 c -1.344,2.781 -3.469,5.585 -6.375,8.414 -2.906,2.828 -6.438,4.242 -10.594,4.242 -4,0 -8.57,-1.641 -13.711,-4.922 -5.14,-3.281 -9.07,-4.922 -11.789,-4.922 -2.281,0 -4.281,0.719 -6,2.156 -1.719,1.438 -3.234,3.532 -4.547,6.282 l -3.656,-2.063 c 1.594,-3.687 3.703,-6.758 6.328,-9.211 2.625,-2.453 5.735,-3.68 9.328,-3.68 z"
     fill-rule="evenodd"
     id="path1022" />
  <text
     fill="#000000"
     fill-opacity="0"
     font-family="Arial, Arial_MSFontService, sans-serif"
     font-size="16.3594px"
     x="572.35687"
     y="256.75345"
     id="text1024">~</text>
  <text
     font-family="Calibri, Calibri_MSFontService, sans-serif"
     font-weight="400"
     font-size="43px"
     id="text1028"
     x="411.92691"
     y="63.685452"><tspan
   style="fill:#ffffff"
   id="tspan1397">ii</tspan>Locating basis vectors<tspan
   font-size="27px"
   x="81.842896"
   y="400.68546"
   id="tspan1026">The position of the basis vectors of matrix A can be located by the position of pivot columns in matrix B.</tspan></text>
  <path
     d="m 162.82091,439.35745 v 1.384 c -2.487,0.721 -4.48,2.892 -5.978,6.513 -1.499,3.621 -2.248,8.402 -2.248,14.344 0,3.014 0.303,6.89 0.909,11.628 0.607,4.737 0.91,7.923 0.91,9.558 0,3.542 -0.516,6.622 -1.549,9.242 -1.033,2.619 -2.437,4.337 -4.212,5.154 v 0.369 c 1.775,0.818 3.179,2.536 4.212,5.155 1.033,2.619 1.549,5.7 1.549,9.242 0,1.635 -0.303,4.821 -0.91,9.558 -0.606,4.737 -0.909,8.613 -0.909,11.628 0,5.941 0.749,10.723 2.248,14.344 1.498,3.621 3.491,5.792 5.978,6.512 v 1.385 c -2.962,-0.493 -5.565,-2.786 -7.811,-6.882 -2.246,-4.096 -3.368,-9.681 -3.368,-16.757 0,-2.575 0.331,-6.334 0.995,-11.278 0.664,-4.944 0.995,-8.497 0.995,-10.659 0,-3.876 -0.516,-6.774 -1.549,-8.695 -1.032,-1.92 -2.472,-2.915 -4.317,-2.986 v -1.503 c 1.845,-0.07 3.285,-1.065 4.317,-2.986 1.033,-1.92 1.549,-4.818 1.549,-8.694 0,-2.162 -0.331,-5.715 -0.995,-10.659 -0.664,-4.944 -0.995,-8.704 -0.995,-11.279 0,-7.075 1.122,-12.66 3.368,-16.756 2.246,-4.096 4.849,-6.39 7.811,-6.882 z"
     fill-rule="evenodd"
     id="path1030" />
  <text
     fill="#000000"
     fill-opacity="0"
     font-family="Arial, Arial_MSFontService, sans-serif"
     font-size="116.016px"
     x="147.76591"
     y="540.8714"
     id="text1032">൞</text>
  <path
     d="m 190.19491,439.66045 h 7.779 v 115.409 h -7.779 v -1.502 h 4.878 v -112.404 h -4.878 z m -23.66,0 h 7.778 v 1.503 h -4.878 v 112.404 h 4.878 v 1.502 h -7.778 z"
     fill-rule="evenodd"
     id="path1034" />
  <path
     d="m 182.24391,442.37145 c -0.607,0 -1.114,0.181 -1.523,0.541 -0.408,0.36 -0.738,0.879 -0.989,1.556 -0.25,0.676 -0.428,1.5 -0.534,2.471 -0.105,0.972 -0.158,2.068 -0.158,3.29 0,2.865 0.266,4.968 0.798,6.308 0.532,1.34 1.356,2.011 2.472,2.011 1.063,0 1.852,-0.631 2.366,-1.892 0.514,-1.261 0.772,-3.215 0.772,-5.86 0,-2.022 -0.132,-3.659 -0.396,-4.911 -0.264,-1.253 -0.631,-2.151 -1.101,-2.696 -0.47,-0.545 -1.039,-0.818 -1.707,-0.818 z m 0.066,-1.12 c 1.925,0 3.357,0.742 4.298,2.228 0.94,1.485 1.41,3.731 1.41,6.737 0,3.111 -0.503,5.464 -1.509,7.059 -1.007,1.596 -2.477,2.393 -4.41,2.393 -1.899,0 -3.311,-0.747 -4.239,-2.241 -0.927,-1.494 -1.391,-3.762 -1.391,-6.803 0,-1.617 0.143,-3.014 0.429,-4.192 0.286,-1.178 0.686,-2.151 1.2,-2.92 0.514,-0.769 1.131,-1.338 1.852,-1.708 0.721,-0.369 1.507,-0.553 2.36,-0.553 z"
     fill-rule="evenodd"
     id="path1036" />
  <text
     fill="#000000"
     fill-opacity="0"
     font-family="Arial, Arial_MSFontService, sans-serif"
     font-size="18.4175px"
     x="176.46892"
     y="457.36646"
     id="text1038">0</text>
  <path
     d="m 183.28491,472.51145 h 0.726 c -0.053,0.843 -0.08,2.012 -0.08,3.507 v 11.258 c 0,0.51 0.029,0.895 0.086,1.154 0.057,0.259 0.158,0.47 0.303,0.633 0.145,0.162 0.354,0.29 0.627,0.382 0.272,0.092 0.615,0.163 1.028,0.211 0.413,0.048 0.958,0.081 1.635,0.099 v 0.962 h -9.743 v -0.962 c 0.976,-0.044 1.672,-0.103 2.09,-0.178 0.417,-0.075 0.736,-0.187 0.955,-0.336 0.22,-0.15 0.38,-0.361 0.482,-0.633 0.101,-0.273 0.151,-0.716 0.151,-1.332 v -10.692 c 0,-0.351 -0.061,-0.608 -0.184,-0.771 -0.123,-0.162 -0.304,-0.244 -0.541,-0.244 -0.281,0 -0.681,0.145 -1.2,0.435 -0.518,0.29 -1.16,0.69 -1.924,1.2 l -0.581,-1.015 z"
     fill-rule="evenodd"
     id="path1040" />
  <text
     fill="#000000"
     fill-opacity="0"
     font-family="Arial, Arial_MSFontService, sans-serif"
     font-size="18.2065px"
     x="177.11491"
     y="488.44147"
     id="text1042">1</text>
  <path
     d="m 182.24391,504.89145 c -0.607,0 -1.114,0.181 -1.523,0.541 -0.408,0.36 -0.738,0.879 -0.989,1.556 -0.25,0.676 -0.428,1.5 -0.534,2.471 -0.105,0.972 -0.158,2.068 -0.158,3.29 0,2.865 0.266,4.968 0.798,6.308 0.532,1.34 1.356,2.011 2.472,2.011 1.063,0 1.852,-0.631 2.366,-1.892 0.514,-1.261 0.772,-3.215 0.772,-5.86 0,-2.022 -0.132,-3.659 -0.396,-4.911 -0.264,-1.253 -0.631,-2.151 -1.101,-2.696 -0.47,-0.545 -1.039,-0.818 -1.707,-0.818 z m 0.066,-1.12 c 1.925,0 3.357,0.742 4.298,2.228 0.94,1.485 1.41,3.731 1.41,6.737 0,3.111 -0.503,5.464 -1.509,7.059 -1.007,1.596 -2.477,2.393 -4.41,2.393 -1.899,0 -3.311,-0.747 -4.239,-2.241 -0.927,-1.494 -1.391,-3.762 -1.391,-6.803 0,-1.617 0.143,-3.014 0.429,-4.192 0.286,-1.178 0.686,-2.151 1.2,-2.92 0.514,-0.769 1.131,-1.338 1.852,-1.708 0.721,-0.369 1.507,-0.553 2.36,-0.553 z"
     fill-rule="evenodd"
     id="path1044" />
  <text
     fill="#000000"
     fill-opacity="0"
     font-family="Arial, Arial_MSFontService, sans-serif"
     font-size="18.4175px"
     x="176.46892"
     y="519.88641"
     id="text1046">0</text>
  <path
     d="m 182.24391,536.15145 c -0.607,0 -1.114,0.181 -1.523,0.541 -0.408,0.36 -0.738,0.879 -0.989,1.556 -0.25,0.676 -0.428,1.5 -0.534,2.471 -0.105,0.972 -0.158,2.068 -0.158,3.29 0,2.865 0.266,4.968 0.798,6.308 0.532,1.34 1.356,2.011 2.472,2.011 1.063,0 1.852,-0.631 2.366,-1.892 0.514,-1.261 0.772,-3.215 0.772,-5.86 0,-2.022 -0.132,-3.659 -0.396,-4.911 -0.264,-1.253 -0.631,-2.151 -1.101,-2.696 -0.47,-0.545 -1.039,-0.818 -1.707,-0.818 z m 0.066,-1.12 c 1.925,0 3.357,0.742 4.298,2.228 0.94,1.485 1.41,3.731 1.41,6.737 0,3.111 -0.503,5.464 -1.509,7.059 -1.007,1.596 -2.477,2.393 -4.41,2.393 -1.899,0 -3.311,-0.747 -4.239,-2.241 -0.927,-1.494 -1.391,-3.762 -1.391,-6.803 0,-1.617 0.143,-3.014 0.429,-4.192 0.286,-1.178 0.686,-2.151 1.2,-2.92 0.514,-0.769 1.131,-1.338 1.852,-1.708 0.721,-0.369 1.507,-0.553 2.36,-0.553 z"
     fill-rule="evenodd"
     id="path1048" />
  <text
     fill="#000000"
     fill-opacity="0"
     font-family="Arial, Arial_MSFontService, sans-serif"
     font-size="18.4175px"
     x="176.46892"
     y="551.14642"
     id="text1050">0</text>
  <path
     d="m 207.05491,502.02545 h 2.308 c 0.123,0.616 0.184,1.222 0.184,1.82 0,0.615 -0.105,1.177 -0.316,1.687 -0.211,0.51 -0.547,1.018 -1.009,1.523 -0.461,0.505 -1.096,1.061 -1.905,1.668 l -0.712,-0.805 c 0.448,-0.421 0.774,-0.802 0.976,-1.14 0.202,-0.338 0.347,-0.723 0.435,-1.154 0.088,-0.43 0.132,-0.971 0.132,-1.621 0,-0.668 -0.031,-1.327 -0.093,-1.978 z"
     fill-rule="evenodd"
     id="path1052" />
  <text
     fill="#000000"
     fill-opacity="0"
     font-family="Arial, Arial_MSFontService, sans-serif"
     font-size="6.69724px"
     x="205.60492"
     y="507.88547"
     id="text1054">,</text>
  <path
     d="m 261.90191,439.66045 h 7.778 v 115.409 h -7.778 v -1.502 h 4.878 v -112.404 h -4.878 z m -43.661,0 h 7.779 v 1.503 h -4.878 v 112.404 h 4.878 v 1.502 h -7.779 z"
     fill-rule="evenodd"
     id="path1056" />
  <path
     d="m 228.43991,450.86245 h 16.242 v 1.753 h -16.242 z m 25.616,-9.611 c 1.635,0 2.87,0.358 3.705,1.074 0.835,0.717 1.252,1.756 1.252,3.118 0,0.466 -0.046,0.894 -0.138,1.286 -0.093,0.391 -0.238,0.777 -0.435,1.16 -0.198,0.382 -0.464,0.793 -0.798,1.232 -0.334,0.44 -0.703,0.886 -1.107,1.338 -0.405,0.453 -1.103,1.207 -2.097,2.261 -1.67,1.767 -2.896,3.31 -3.678,4.628 h 4.97 c 0.431,0 0.778,-0.026 1.042,-0.079 0.264,-0.053 0.474,-0.141 0.633,-0.264 0.158,-0.123 0.283,-0.283 0.375,-0.481 0.093,-0.198 0.209,-0.503 0.35,-0.916 h 1.12 l -0.224,3.849 h -10.85 v -0.633 c 0.378,-0.922 0.888,-1.867 1.529,-2.834 0.642,-0.967 1.552,-2.105 2.729,-3.415 1.02,-1.125 1.754,-1.977 2.202,-2.557 0.492,-0.633 0.859,-1.18 1.101,-1.642 0.242,-0.461 0.415,-0.896 0.521,-1.305 0.105,-0.408 0.158,-0.819 0.158,-1.232 0,-0.66 -0.106,-1.242 -0.317,-1.747 -0.21,-0.506 -0.533,-0.903 -0.968,-1.193 -0.436,-0.29 -0.983,-0.435 -1.642,-0.435 -1.643,0 -2.751,0.914 -3.322,2.742 h -1.595 v -2.531 c 1.063,-0.501 2.059,-0.864 2.986,-1.088 0.927,-0.224 1.76,-0.336 2.498,-0.336 z"
     fill-rule="evenodd"
     id="path1058" />
  <text
     fill="#000000"
     fill-opacity="0"
     font-family="Arial, Arial_MSFontService, sans-serif"
     font-size="18.2065px"
     x="228.43991"
     y="457.18146"
     id="text1060">−2</text>
  <path
     d="m 244.00291,472.51145 c 0.993,0 1.864,0.154 2.611,0.461 0.747,0.308 1.318,0.749 1.714,1.325 0.395,0.576 0.593,1.264 0.593,2.063 0,0.747 -0.15,1.404 -0.448,1.971 -0.299,0.567 -0.719,1.062 -1.259,1.483 -0.541,0.422 -1.242,0.835 -2.103,1.24 v 0.118 c 0.536,0.097 1.052,0.262 1.549,0.495 0.496,0.233 0.938,0.534 1.325,0.903 0.386,0.369 0.696,0.811 0.929,1.325 0.233,0.514 0.35,1.101 0.35,1.76 0,1.019 -0.222,1.925 -0.666,2.716 -0.444,0.791 -1.123,1.415 -2.037,1.872 -0.914,0.457 -2.026,0.685 -3.336,0.685 -0.755,0 -1.571,-0.085 -2.445,-0.257 -0.875,-0.171 -1.677,-0.398 -2.406,-0.679 v -2.795 h 1.582 c 0.308,0.914 0.714,1.578 1.219,1.991 0.506,0.413 1.194,0.62 2.064,0.62 1.142,0 2.006,-0.312 2.59,-0.936 0.585,-0.624 0.877,-1.547 0.877,-2.769 0,-1.283 -0.387,-2.263 -1.16,-2.94 -0.774,-0.677 -1.907,-1.015 -3.402,-1.015 h -1.186 v -1.16 c 1.186,-0.071 2.186,-0.299 2.999,-0.686 0.813,-0.386 1.417,-0.883 1.813,-1.489 0.395,-0.607 0.593,-1.288 0.593,-2.044 0,-0.976 -0.259,-1.727 -0.778,-2.254 -0.518,-0.528 -1.274,-0.791 -2.267,-0.791 -0.826,0 -1.499,0.224 -2.017,0.672 -0.519,0.448 -0.901,1.134 -1.147,2.057 h -1.582 v -2.505 c 1.019,-0.484 1.973,-0.844 2.861,-1.081 0.887,-0.238 1.744,-0.356 2.57,-0.356 z"
     fill-rule="evenodd"
     id="path1062" />
  <text
     fill="#000000"
     fill-opacity="0"
     font-family="Arial, Arial_MSFontService, sans-serif"
     font-size="18.4175px"
     x="238.37392"
     y="488.62646"
     id="text1064">3</text>
  <path
     d="m 243.95091,504.89145 c -0.607,0 -1.114,0.181 -1.523,0.541 -0.409,0.36 -0.738,0.879 -0.989,1.556 -0.25,0.676 -0.428,1.5 -0.534,2.471 -0.105,0.972 -0.158,2.068 -0.158,3.29 0,2.865 0.266,4.968 0.798,6.308 0.531,1.34 1.355,2.011 2.471,2.011 1.064,0 1.853,-0.631 2.367,-1.892 0.514,-1.261 0.771,-3.215 0.771,-5.86 0,-2.022 -0.132,-3.659 -0.395,-4.911 -0.264,-1.253 -0.631,-2.151 -1.101,-2.696 -0.47,-0.545 -1.039,-0.818 -1.707,-0.818 z m 0.065,-1.12 c 1.925,0 3.358,0.742 4.298,2.228 0.941,1.485 1.411,3.731 1.411,6.737 0,3.111 -0.503,5.464 -1.51,7.059 -1.006,1.596 -2.476,2.393 -4.409,2.393 -1.899,0 -3.312,-0.747 -4.239,-2.241 -0.927,-1.494 -1.391,-3.762 -1.391,-6.803 0,-1.617 0.143,-3.014 0.429,-4.192 0.285,-1.178 0.685,-2.151 1.199,-2.92 0.514,-0.769 1.132,-1.338 1.853,-1.708 0.72,-0.369 1.507,-0.553 2.359,-0.553 z"
     fill-rule="evenodd"
     id="path1066" />
  <text
     fill="#000000"
     fill-opacity="0"
     font-family="Arial, Arial_MSFontService, sans-serif"
     font-size="18.4175px"
     x="238.17592"
     y="519.88641"
     id="text1068">0</text>
  <path
     d="m 243.95091,536.15145 c -0.607,0 -1.114,0.181 -1.523,0.541 -0.409,0.36 -0.738,0.879 -0.989,1.556 -0.25,0.676 -0.428,1.5 -0.534,2.471 -0.105,0.972 -0.158,2.068 -0.158,3.29 0,2.865 0.266,4.968 0.798,6.308 0.531,1.34 1.355,2.011 2.471,2.011 1.064,0 1.853,-0.631 2.367,-1.892 0.514,-1.261 0.771,-3.215 0.771,-5.86 0,-2.022 -0.132,-3.659 -0.395,-4.911 -0.264,-1.253 -0.631,-2.151 -1.101,-2.696 -0.47,-0.545 -1.039,-0.818 -1.707,-0.818 z m 0.065,-1.12 c 1.925,0 3.358,0.742 4.298,2.228 0.941,1.485 1.411,3.731 1.411,6.737 0,3.111 -0.503,5.464 -1.51,7.059 -1.006,1.596 -2.476,2.393 -4.409,2.393 -1.899,0 -3.312,-0.747 -4.239,-2.241 -0.927,-1.494 -1.391,-3.762 -1.391,-6.803 0,-1.617 0.143,-3.014 0.429,-4.192 0.285,-1.178 0.685,-2.151 1.199,-2.92 0.514,-0.769 1.132,-1.338 1.853,-1.708 0.72,-0.369 1.507,-0.553 2.359,-0.553 z"
     fill-rule="evenodd"
     id="path1070" />
  <text
     fill="#000000"
     fill-opacity="0"
     font-family="Arial, Arial_MSFontService, sans-serif"
     font-size="18.4175px"
     x="238.17592"
     y="551.14642"
     id="text1072">0</text>
  <path
     d="m 278.76191,502.02545 h 2.307 c 0.123,0.616 0.185,1.222 0.185,1.82 0,0.615 -0.106,1.177 -0.317,1.687 -0.211,0.51 -0.547,1.018 -1.008,1.523 -0.462,0.505 -1.097,1.061 -1.905,1.668 l -0.712,-0.805 c 0.448,-0.421 0.773,-0.802 0.975,-1.14 0.203,-0.338 0.348,-0.723 0.436,-1.154 0.087,-0.43 0.131,-0.971 0.131,-1.621 0,-0.668 -0.03,-1.327 -0.092,-1.978 z"
     fill-rule="evenodd"
     id="path1074" />
  <text
     fill="#000000"
     fill-opacity="0"
     font-family="Arial, Arial_MSFontService, sans-serif"
     font-size="6.69724px"
     x="277.31189"
     y="507.88547"
     id="text1076">,</text>
  <path
     d="m 326.94191,439.66045 h 7.778 v 115.409 h -7.778 v -1.502 h 4.878 v -112.404 h -4.878 z m -36.994,0 h 7.778 v 1.503 h -4.878 v 112.404 h 4.878 v 1.502 h -7.778 z"
     fill-rule="evenodd"
     id="path1078" />
  <path
     d="m 312.32391,442.47845 c -0.607,0 -1.114,0.18 -1.523,0.541 -0.408,0.36 -0.738,0.878 -0.989,1.555 -0.25,0.677 -0.428,1.501 -0.533,2.472 -0.106,0.971 -0.159,2.068 -0.159,3.289 0,2.866 0.266,4.968 0.798,6.309 0.532,1.34 1.356,2.01 2.472,2.01 1.063,0 1.852,-0.63 2.366,-1.892 0.514,-1.261 0.772,-3.214 0.772,-5.86 0,-2.021 -0.132,-3.658 -0.396,-4.911 -0.264,-1.252 -0.631,-2.151 -1.101,-2.696 -0.47,-0.545 -1.039,-0.817 -1.707,-0.817 z m 0.066,-1.121 c 1.925,0 3.357,0.743 4.298,2.228 0.94,1.486 1.41,3.731 1.41,6.737 0,3.112 -0.503,5.465 -1.509,7.06 -1.007,1.595 -2.477,2.393 -4.41,2.393 -1.899,0 -3.311,-0.747 -4.239,-2.241 -0.927,-1.494 -1.39,-3.762 -1.39,-6.803 0,-1.617 0.142,-3.015 0.428,-4.192 0.286,-1.178 0.686,-2.152 1.2,-2.921 0.514,-0.769 1.131,-1.338 1.852,-1.707 0.721,-0.369 1.507,-0.554 2.36,-0.554 z"
     fill-rule="evenodd"
     id="path1080" />
  <text
     fill="#000000"
     fill-opacity="0"
     font-family="Arial, Arial_MSFontService, sans-serif"
     font-size="18.4175px"
     x="306.5499"
     y="457.47345"
     id="text1082">0</text>
  <path
     d="m 299.68491,482.30745 h 10.389 c 0.158,0 0.279,0.075 0.362,0.224 0.084,0.15 0.126,0.387 0.126,0.712 0,0.326 -0.042,0.563 -0.126,0.712 -0.083,0.15 -0.204,0.224 -0.362,0.224 h -10.389 c -0.167,0 -0.292,-0.074 -0.376,-0.224 -0.083,-0.149 -0.125,-0.386 -0.125,-0.712 0,-0.316 0.042,-0.551 0.125,-0.705 0.084,-0.154 0.209,-0.231 0.376,-0.231 z"
     fill-rule="evenodd"
     id="path1084" />
  <text
     fill="#000000"
     fill-opacity="0"
     font-family="Arial, Arial_MSFontService, sans-serif"
     font-size="1.87207px"
     x="299.1839"
     y="483.94547"
     id="text1086">−</text>
  <path
     d="m 318.99091,482.04445 c -0.651,0 -1.198,0.101 -1.642,0.303 -0.444,0.202 -0.804,0.475 -1.081,0.817 -0.277,0.343 -0.474,0.745 -0.593,1.207 -0.119,0.461 -0.178,0.955 -0.178,1.483 0,0.571 0.066,1.105 0.198,1.602 0.132,0.496 0.34,0.925 0.626,1.285 0.286,0.36 0.652,0.646 1.101,0.857 0.448,0.211 0.993,0.316 1.634,0.316 0.721,0 1.339,-0.147 1.853,-0.441 0.514,-0.295 0.905,-0.732 1.173,-1.312 0.268,-0.58 0.402,-1.266 0.402,-2.057 0,-0.844 -0.145,-1.571 -0.435,-2.182 -0.29,-0.611 -0.699,-1.076 -1.226,-1.397 -0.527,-0.321 -1.138,-0.481 -1.832,-0.481 z m 0.065,-8.306 c -1.107,0 -1.953,0.301 -2.537,0.903 -0.585,0.602 -0.877,1.457 -0.877,2.564 0,0.519 0.061,1.007 0.185,1.464 0.123,0.457 0.32,0.852 0.593,1.186 0.272,0.334 0.626,0.6 1.061,0.798 0.435,0.198 0.969,0.296 1.602,0.296 0.729,0 1.342,-0.142 1.839,-0.428 0.497,-0.286 0.866,-0.703 1.107,-1.252 0.242,-0.55 0.363,-1.185 0.363,-1.906 0,-0.791 -0.143,-1.461 -0.429,-2.01 -0.285,-0.549 -0.678,-0.956 -1.179,-1.219 -0.501,-0.264 -1.077,-0.396 -1.728,-0.396 z m 0.027,-1.121 c 1.265,0 2.329,0.178 3.19,0.534 0.862,0.356 1.51,0.87 1.945,1.543 0.435,0.672 0.652,1.479 0.652,2.419 0,0.967 -0.237,1.8 -0.711,2.498 -0.475,0.699 -1.209,1.268 -2.202,1.708 l 0.026,0.171 c 0.993,0.387 1.745,0.951 2.255,1.694 0.509,0.743 0.764,1.637 0.764,2.683 0,1.028 -0.246,1.934 -0.738,2.716 -0.492,0.782 -1.206,1.386 -2.142,1.812 -0.936,0.427 -2.028,0.64 -3.276,0.64 -1.169,0 -2.196,-0.196 -3.079,-0.587 -0.883,-0.391 -1.569,-0.962 -2.056,-1.714 -0.488,-0.751 -0.732,-1.637 -0.732,-2.656 0,-0.765 0.132,-1.428 0.395,-1.991 0.264,-0.562 0.609,-1.026 1.035,-1.391 0.427,-0.364 0.965,-0.696 1.615,-0.995 l -0.026,-0.171 c -1.89,-0.818 -2.835,-2.22 -2.835,-4.206 0,-0.905 0.249,-1.714 0.745,-2.426 0.497,-0.712 1.204,-1.27 2.123,-1.674 0.918,-0.404 1.936,-0.607 3.052,-0.607 z"
     fill-rule="evenodd"
     id="path1088" />
  <text
     fill="#000000"
     fill-opacity="0"
     font-family="Arial, Arial_MSFontService, sans-serif"
     font-size="18.4175px"
     x="312.97891"
     y="488.73346"
     id="text1090">8</text>
  <path
     d="m 307.06391,504.08845 h 11.311 v 0.633 l -7.673,17.455 h -1.911 v -0.646 l 7.106,-15.042 v -0.198 h -5.801 c -0.36,0 -0.648,0.033 -0.864,0.099 -0.215,0.066 -0.395,0.16 -0.54,0.283 -0.145,0.123 -0.266,0.286 -0.363,0.488 -0.096,0.202 -0.228,0.602 -0.395,1.2 h -1.134 z"
     fill-rule="evenodd"
     id="path1092" />
  <text
     fill="#000000"
     fill-opacity="0"
     font-family="Arial, Arial_MSFontService, sans-serif"
     font-size="18.0879px"
     x="306.7999"
     y="519.91541"
     id="text1094">7</text>
  <path
     d="m 313.36491,535.13745 h 0.726 c -0.053,0.844 -0.08,2.013 -0.08,3.507 v 11.259 c 0,0.51 0.029,0.894 0.086,1.154 0.057,0.259 0.158,0.47 0.303,0.632 0.145,0.163 0.354,0.29 0.627,0.383 0.272,0.092 0.615,0.162 1.028,0.211 0.413,0.048 0.958,0.081 1.635,0.099 v 0.962 h -9.743 v -0.962 c 0.976,-0.044 1.672,-0.104 2.09,-0.178 0.417,-0.075 0.736,-0.187 0.955,-0.337 0.22,-0.149 0.381,-0.36 0.482,-0.632 0.101,-0.273 0.151,-0.717 0.151,-1.332 v -10.692 c 0,-0.351 -0.061,-0.609 -0.184,-0.771 -0.123,-0.163 -0.304,-0.244 -0.541,-0.244 -0.281,0 -0.681,0.145 -1.2,0.435 -0.518,0.29 -1.16,0.69 -1.924,1.2 l -0.58,-1.015 z"
     fill-rule="evenodd"
     id="path1096" />
  <text
     fill="#000000"
     fill-opacity="0"
     font-family="Arial, Arial_MSFontService, sans-serif"
     font-size="18.2065px"
     x="307.19589"
     y="551.06842"
     id="text1098">1</text>
  <path
     d="m 338.51191,439.35745 c 2.962,0.483 5.563,2.777 7.804,6.882 2.25,4.096 3.375,9.681 3.375,16.756 0,1.292 -0.083,2.874 -0.25,4.746 -0.167,1.872 -0.418,4.052 -0.752,6.539 -0.659,4.949 -0.988,8.499 -0.988,10.653 0,3.876 0.514,6.776 1.542,8.701 1.046,1.925 2.487,2.918 4.324,2.979 v 1.503 c -1.837,0.062 -3.278,1.059 -4.324,2.993 -1.028,1.916 -1.542,4.812 -1.542,8.688 0,2.162 0.329,5.713 0.988,10.652 0.334,2.488 0.585,4.667 0.752,6.539 0.167,1.872 0.25,3.455 0.25,4.746 0,7.076 -1.125,12.661 -3.375,16.757 -2.241,4.104 -4.842,6.398 -7.804,6.882 v -1.385 c 2.496,-0.729 4.486,-2.9 5.972,-6.512 1.503,-3.621 2.254,-8.403 2.254,-14.344 0,-3.015 -0.303,-6.891 -0.909,-11.628 -0.607,-4.728 -0.91,-7.915 -0.91,-9.558 0,-3.533 0.514,-6.614 1.542,-9.242 1.037,-2.619 2.444,-4.337 4.219,-5.155 v -0.369 c -1.775,-0.817 -3.182,-2.535 -4.219,-5.154 -1.028,-2.62 -1.542,-5.7 -1.542,-9.242 0,-1.635 0.303,-4.821 0.91,-9.558 0.606,-4.729 0.909,-8.605 0.909,-11.628 0,-5.933 -0.751,-10.714 -2.254,-14.344 -1.486,-3.612 -3.476,-5.783 -5.972,-6.513 z"
     fill-rule="evenodd"
     id="path1100" />
  <text
     fill="#000000"
     fill-opacity="0"
     font-family="Arial, Arial_MSFontService, sans-serif"
     font-size="116.016px"
     x="338.5119"
     y="540.8714"
     id="text1102">ൢ</text>
  <text
     font-family="Calibri, Calibri_MSFontService, sans-serif"
     font-weight="400"
     font-size="27px"
     id="text1104"
     x="360.80191"
     y="504.68546">is a basis for Col A.</text>
  <path
     d="m 679.50291,439.66045 h 7.778 v 115.409 h -7.778 v -1.502 h 4.878 v -112.404 h -4.878 z m -23.661,0 h 7.778 v 1.503 h -4.878 v 112.404 h 4.878 v 1.502 h -7.778 z"
     fill-rule="evenodd"
     id="path1106" />
  <path
     d="m 672.59291,441.25145 h 0.725 c -0.053,0.843 -0.079,2.012 -0.079,3.507 v 11.258 c 0,0.51 0.028,0.895 0.085,1.154 0.057,0.259 0.159,0.47 0.304,0.633 0.145,0.162 0.353,0.29 0.626,0.382 0.272,0.092 0.615,0.163 1.028,0.211 0.413,0.048 0.958,0.081 1.635,0.099 v 0.962 h -9.743 v -0.962 c 0.976,-0.044 1.672,-0.103 2.09,-0.178 0.417,-0.075 0.736,-0.187 0.956,-0.336 0.219,-0.15 0.38,-0.361 0.481,-0.633 0.101,-0.273 0.151,-0.716 0.151,-1.332 v -10.692 c 0,-0.351 -0.061,-0.608 -0.184,-0.771 -0.123,-0.162 -0.303,-0.244 -0.541,-0.244 -0.281,0 -0.681,0.145 -1.199,0.435 -0.519,0.29 -1.161,0.69 -1.925,1.2 l -0.58,-1.015 z"
     fill-rule="evenodd"
     id="path1108" />
  <text
     fill="#000000"
     fill-opacity="0"
     font-family="Arial, Arial_MSFontService, sans-serif"
     font-size="18.2065px"
     x="666.42291"
     y="457.18146"
     id="text1110">1</text>
  <path
     d="m 671.55091,473.63145 c -0.606,0 -1.114,0.181 -1.523,0.541 -0.408,0.36 -0.738,0.879 -0.988,1.556 -0.251,0.676 -0.429,1.5 -0.534,2.471 -0.106,0.972 -0.158,2.068 -0.158,3.29 0,2.865 0.265,4.968 0.797,6.308 0.532,1.34 1.356,2.011 2.472,2.011 1.064,0 1.852,-0.631 2.366,-1.892 0.515,-1.261 0.772,-3.215 0.772,-5.86 0,-2.022 -0.132,-3.659 -0.396,-4.911 -0.263,-1.253 -0.63,-2.151 -1.101,-2.696 -0.47,-0.545 -1.039,-0.818 -1.707,-0.818 z m 0.066,-1.12 c 1.925,0 3.357,0.742 4.298,2.228 0.94,1.485 1.411,3.731 1.411,6.737 0,3.111 -0.504,5.464 -1.51,7.059 -1.006,1.596 -2.476,2.393 -4.41,2.393 -1.898,0 -3.311,-0.747 -4.238,-2.241 -0.928,-1.494 -1.391,-3.762 -1.391,-6.803 0,-1.617 0.143,-3.014 0.428,-4.192 0.286,-1.178 0.686,-2.151 1.2,-2.92 0.514,-0.769 1.131,-1.338 1.852,-1.708 0.721,-0.369 1.508,-0.553 2.36,-0.553 z"
     fill-rule="evenodd"
     id="path1112" />
  <text
     fill="#000000"
     fill-opacity="0"
     font-family="Arial, Arial_MSFontService, sans-serif"
     font-size="18.4175px"
     x="665.77692"
     y="488.62646"
     id="text1114">0</text>
  <path
     d="m 671.55091,504.89145 c -0.606,0 -1.114,0.181 -1.523,0.541 -0.408,0.36 -0.738,0.879 -0.988,1.556 -0.251,0.676 -0.429,1.5 -0.534,2.471 -0.106,0.972 -0.158,2.068 -0.158,3.29 0,2.865 0.265,4.968 0.797,6.308 0.532,1.34 1.356,2.011 2.472,2.011 1.064,0 1.852,-0.631 2.366,-1.892 0.515,-1.261 0.772,-3.215 0.772,-5.86 0,-2.022 -0.132,-3.659 -0.396,-4.911 -0.263,-1.253 -0.63,-2.151 -1.101,-2.696 -0.47,-0.545 -1.039,-0.818 -1.707,-0.818 z m 0.066,-1.12 c 1.925,0 3.357,0.742 4.298,2.228 0.94,1.485 1.411,3.731 1.411,6.737 0,3.111 -0.504,5.464 -1.51,7.059 -1.006,1.596 -2.476,2.393 -4.41,2.393 -1.898,0 -3.311,-0.747 -4.238,-2.241 -0.928,-1.494 -1.391,-3.762 -1.391,-6.803 0,-1.617 0.143,-3.014 0.428,-4.192 0.286,-1.178 0.686,-2.151 1.2,-2.92 0.514,-0.769 1.131,-1.338 1.852,-1.708 0.721,-0.369 1.508,-0.553 2.36,-0.553 z"
     fill-rule="evenodd"
     id="path1116" />
  <text
     fill="#000000"
     fill-opacity="0"
     font-family="Arial, Arial_MSFontService, sans-serif"
     font-size="18.4175px"
     x="665.77692"
     y="519.88641"
     id="text1118">0</text>
  <path
     d="m 671.55091,536.15145 c -0.606,0 -1.114,0.181 -1.523,0.541 -0.408,0.36 -0.738,0.879 -0.988,1.556 -0.251,0.676 -0.429,1.5 -0.534,2.471 -0.106,0.972 -0.158,2.068 -0.158,3.29 0,2.865 0.265,4.968 0.797,6.308 0.532,1.34 1.356,2.011 2.472,2.011 1.064,0 1.852,-0.631 2.366,-1.892 0.515,-1.261 0.772,-3.215 0.772,-5.86 0,-2.022 -0.132,-3.659 -0.396,-4.911 -0.263,-1.253 -0.63,-2.151 -1.101,-2.696 -0.47,-0.545 -1.039,-0.818 -1.707,-0.818 z m 0.066,-1.12 c 1.925,0 3.357,0.742 4.298,2.228 0.94,1.485 1.411,3.731 1.411,6.737 0,3.111 -0.504,5.464 -1.51,7.059 -1.006,1.596 -2.476,2.393 -4.41,2.393 -1.898,0 -3.311,-0.747 -4.238,-2.241 -0.928,-1.494 -1.391,-3.762 -1.391,-6.803 0,-1.617 0.143,-3.014 0.428,-4.192 0.286,-1.178 0.686,-2.151 1.2,-2.92 0.514,-0.769 1.131,-1.338 1.852,-1.708 0.721,-0.369 1.508,-0.553 2.36,-0.553 z"
     fill-rule="evenodd"
     id="path1120" />
  <text
     fill="#000000"
     fill-opacity="0"
     font-family="Arial, Arial_MSFontService, sans-serif"
     font-size="18.4175px"
     x="665.77692"
     y="551.14642"
     id="text1122">0</text>
  <text
     font-family="Calibri, Calibri_MSFontService, sans-serif"
     font-weight="400"
     font-size="27px"
     id="text1126"
     x="696.14893"
     y="504.68546">from matrix B is not in <tspan
   font-size="27px"
   x="942.8089"
   y="504.68546"
   id="tspan1124">Span of matrix A.</tspan></text>
  <text
     xml:space="preserve"
     style="font-size:29.3333px;font-family:Calibri, Calibri_MSFontService, sans-serif;-inkscape-font-specification:'Calibri, Calibri_MSFontService, sans-serif';fill:#ffffff;stroke-width:2.434"
     x="409.88223"
     y="64.718246"
     id="text1395"><tspan
       sodipodi:role="line"
       id="tspan1393"></tspan></text>
</svg>
