<?xml version="1.0" encoding="UTF-8" standalone="no"?>
<svg
   width="1200"
   height="250"
   overflow="hidden"
   version="1.1"
   id="svg121"
   sodipodi:docname="linear_systems-relations.svg"
   inkscape:version="1.2 (dc2aedaf03, 2022-05-15)"
   xmlns:inkscape="http://www.inkscape.org/namespaces/inkscape"
   xmlns:sodipodi="http://sodipodi.sourceforge.net/DTD/sodipodi-0.dtd"
   xmlns="http://www.w3.org/2000/svg"
   xmlns:svg="http://www.w3.org/2000/svg">
  <sodipodi:namedview
     id="namedview123"
     pagecolor="#ffffff"
     bordercolor="#000000"
     borderopacity="0.25"
     inkscape:showpageshadow="2"
     inkscape:pageopacity="0.0"
     inkscape:pagecheckerboard="0"
     inkscape:deskcolor="#d1d1d1"
     showgrid="false"
     inkscape:zoom="0.92709556"
     inkscape:cx="472.98253"
     inkscape:cy="386.15221"
     inkscape:window-width="2560"
     inkscape:window-height="1494"
     inkscape:window-x="-11"
     inkscape:window-y="-11"
     inkscape:window-maximized="1"
     inkscape:current-layer="g119" />
  <defs
     id="defs5">
    <clipPath
       id="clip0">
      <rect
         x="0"
         y="0"
         width="1280"
         height="720"
         id="rect2" />
    </clipPath>
  </defs>
  <g
     clip-path="url(#clip0)"
     id="g119">
    <text
       fill="#c00000"
       font-family="Calibri, Calibri_MSFontService, sans-serif"
       font-weight="400"
       font-size="27px"
       id="text17"
       x="720.86542"
       y="203.28175">(3, 1) is a relation as 2 is positive.<tspan
   fill="#000000"
   font-size="43px"
   x="471.38831"
   y="65.281761"
   id="tspan9">Relations</tspan><tspan
   fill="#000000"
   font-size="32px"
   x="138.75337"
   y="166.28175"
   id="tspan11">If &gt; is a relation on</tspan><tspan
   fill="#000000"
   font-family="Cambria, Cambria_MSFontService, sans-serif"
   font-size="32px"
   x="385.20032"
   y="166.28175"
   id="tspan13">R</tspan><tspan
   fill="#000000"
   font-size="32px"
   x="405.03333"
   y="166.28175"
   id="tspan15">,</tspan></text>
    <path
       d="m 680.02438,180.22276 h 0.406 c 2.448,0.042 4.279,0.602 5.493,1.68 1.213,1.078 1.82,2.7 1.82,4.867 0,0.865 -0.123,1.849 -0.367,2.953 -0.245,1.104 -0.368,1.844 -0.368,2.219 0,0.719 0.248,1.305 0.743,1.758 0.494,0.453 1.242,0.695 2.242,0.726 v 1.281 c -1,0.032 -1.748,0.274 -2.242,0.727 -0.495,0.453 -0.743,1.039 -0.743,1.758 0,0.375 0.123,1.114 0.368,2.219 0.244,1.104 0.367,2.088 0.367,2.953 0,2.239 -0.607,3.898 -1.82,4.976 -1.214,1.078 -3.045,1.638 -5.493,1.68 h -0.406 v -1.188 h 0.234 c 1.511,0 2.693,-0.393 3.547,-1.179 0.854,-0.787 1.282,-2.123 1.282,-4.008 0,-0.729 -0.105,-1.63 -0.313,-2.703 -0.208,-1.073 -0.312,-1.839 -0.312,-2.297 0,-0.885 0.26,-1.612 0.781,-2.18 0.521,-0.567 1.14,-0.987 1.859,-1.258 v -0.281 c -0.719,-0.271 -1.338,-0.69 -1.859,-1.258 -0.521,-0.567 -0.781,-1.294 -0.781,-2.179 0,-0.459 0.104,-1.224 0.312,-2.297 0.208,-1.073 0.313,-1.974 0.313,-2.703 0,-1.813 -0.428,-3.112 -1.282,-3.899 -0.854,-0.786 -2.036,-1.179 -3.547,-1.179 h -0.234 z m -346.284,0 h 0.406 v 1.188 h -0.234 c -1.51,0 -2.693,0.393 -3.547,1.179 -0.854,0.787 -1.281,2.081 -1.281,3.883 0,0.729 0.104,1.63 0.312,2.703 0.209,1.073 0.313,1.839 0.313,2.297 0,0.886 -0.261,1.612 -0.781,2.18 -0.521,0.568 -1.141,0.987 -1.86,1.258 v 0.281 c 0.719,0.271 1.339,0.69 1.86,1.258 0.52,0.567 0.781,1.294 0.781,2.179 0,0.459 -0.104,1.224 -0.313,2.297 -0.208,1.073 -0.312,1.974 -0.312,2.703 0,1.896 0.427,3.237 1.281,4.024 0.854,0.786 2.037,1.179 3.547,1.179 h 0.234 v 1.188 h -0.406 c -2.448,-0.042 -4.279,-0.602 -5.492,-1.68 -1.214,-1.078 -1.82,-2.742 -1.82,-4.992 0,-0.864 0.122,-1.849 0.367,-2.953 0.245,-1.104 0.367,-1.844 0.367,-2.219 0,-0.719 -0.247,-1.304 -0.742,-1.758 -0.495,-0.453 -1.242,-0.695 -2.242,-0.726 v -1.281 c 1,-0.032 1.747,-0.274 2.242,-0.727 0.495,-0.453 0.742,-1.039 0.742,-1.758 0,-0.375 -0.122,-1.114 -0.367,-2.219 -0.245,-1.104 -0.367,-2.088 -0.367,-2.953 0,-2.156 0.606,-3.773 1.82,-4.851 1.213,-1.078 3.044,-1.638 5.492,-1.68 z"
       fill-rule="evenodd"
       id="path19" />
    <path
       d="m 393.38238,180.30576 c 3.042,0.802 5.378,2.533 7.008,5.195 1.63,2.661 2.445,5.872 2.445,9.633 0,3.771 -0.812,6.981 -2.437,9.633 -1.625,2.651 -3.964,4.377 -7.016,5.179 l -0.375,-1.203 c 2.406,-0.802 4.196,-2.385 5.367,-4.75 1.172,-2.364 1.758,-5.37 1.758,-9.016 0,-3.52 -0.583,-6.445 -1.75,-8.773 -1.166,-2.328 -2.974,-3.893 -5.422,-4.695 z m -46.03,0 0.422,1.203 c -2.437,0.802 -4.242,2.367 -5.414,4.695 -1.172,2.328 -1.758,5.253 -1.758,8.773 0,3.646 0.586,6.652 1.758,9.016 1.172,2.365 2.961,3.948 5.367,4.75 l -0.375,1.203 c -3.052,-0.802 -5.39,-2.528 -7.015,-5.179 -1.625,-2.652 -2.438,-5.862 -2.438,-9.633 0,-3.761 0.815,-6.972 2.445,-9.633 1.631,-2.662 3.967,-4.393 7.008,-5.195 z"
       fill-rule="evenodd"
       id="path21" />
    <text
       font-family="Calibri, Calibri_MSFontService, sans-serif"
       font-weight="400"
       font-size="32px"
       id="text117"
       x="348.36734"
       y="204.28175">a<tspan
   font-family="'Cambria Math', 'Cambria Math_MSFontService', sans-serif"
   font-size="32px"
   x="363.70062"
   y="204.28175"
   id="tspan23">,</tspan><tspan
   font-size="32px"
   x="375.53403"
   y="204.28175"
   id="tspan25">b</tspan><tspan
   font-family="'Cambria Math', 'Cambria Math_MSFontService', sans-serif"
   font-size="32px"
   x="414.53403"
   y="204.28175"
   id="tspan27">∈</tspan><tspan
   font-family="Cambria, Cambria_MSFontService, sans-serif"
   font-size="32px"
   x="443.42062"
   y="204.28175"
   id="tspan29">R</tspan><tspan
   font-family="'Cambria Math', 'Cambria Math_MSFontService', sans-serif"
   font-size="32px"
   x="463.25433"
   y="204.28175"
   id="tspan31" /><tspan
   font-family="'Cambria Math', 'Cambria Math_MSFontService', sans-serif"
   font-size="32px"
   x="470.25433"
   y="204.28175"
   id="tspan33">|</tspan><tspan
   font-size="32px"
   x="480.42035"
   y="204.28175"
   id="tspan35">a</tspan><tspan
   font-size="32px"
   x="495.75433"
   y="204.28175"
   id="tspan37" /><tspan
   font-size="32px"
   x="502.92035"
   y="204.28175"
   id="tspan39">−</tspan><tspan
   font-size="32px"
   x="526.08734"
   y="204.28175"
   id="tspan41">b</tspan><tspan
   font-size="32px"
   x="542.92035"
   y="204.28175"
   id="tspan43" /><tspan
   font-size="32px"
   x="550.0874"
   y="204.28175"
   id="tspan45">is</tspan><tspan
   font-size="32px"
   x="569.92041"
   y="204.28175"
   id="tspan47" /><tspan
   font-size="32px"
   x="577.0874"
   y="204.28175"
   id="tspan49">positive</tspan><tspan
   font-size="32px"
   x="138.75438"
   y="118.28176"
   id="tspan51">A relation is a subset of A</tspan><tspan
   font-family="'Cambria Math', 'Cambria Math_MSFontService', sans-serif"
   font-size="32px"
   x="473.54034"
   y="118.28176"
   id="tspan53">×</tspan><tspan
   font-size="32px"
   x="503.54034"
   y="118.28176"
   id="tspan55">A to</tspan><tspan
   font-size="32px"
   x="563.56036"
   y="118.28176"
   id="tspan57">form the ordered pair</tspan><tspan
   font-size="32px"
   x="853.0274"
   y="118.28176"
   id="tspan59">(a, b).</tspan><tspan
   font-size="43px"
   x="380.67062"
   y="323.28171"
   id="tspan61">Equivalence relations</tspan><tspan
   font-size="32px"
   x="138.75438"
   y="374.28171"
   id="tspan63">An equivalence relation on A is a subset</tspan><tspan
   font-size="32px"
   x="660.5744"
   y="374.28171"
   id="tspan65">of A</tspan><tspan
   font-family="'Cambria Math', 'Cambria Math_MSFontService', sans-serif"
   font-size="32px"
   x="720.0744"
   y="374.28171"
   id="tspan67">×</tspan><tspan
   font-size="32px"
   x="750.0744"
   y="374.28171"
   id="tspan69">A which is:</tspan><tspan
   font-family="Arial, Arial_MSFontService, sans-serif"
   font-size="32px"
   x="138.75438"
   y="416.28171"
   id="tspan71">•</tspan><tspan
   font-size="32px"
   x="174.75438"
   y="416.28171"
   id="tspan73">Reflexive</tspan><tspan
   font-size="32px"
   x="298.44736"
   y="416.28171"
   id="tspan75">-</tspan><tspan
   font-size="32px"
   x="315.44736"
   y="416.28171"
   id="tspan77">for any a</tspan><tspan
   font-family="'Cambria Math', 'Cambria Math_MSFontService', sans-serif"
   font-size="32px"
   x="435.51404"
   y="416.28171"
   id="tspan79">∈</tspan><tspan
   font-size="32px"
   x="462.68036"
   y="416.28171"
   id="tspan81">A</tspan>, a maps <tspan
   font-size="32px"
   x="596.26038"
   y="416.28171"
   id="tspan83">back</tspan><tspan
   font-size="32px"
   x="663.59436"
   y="416.28171"
   id="tspan85">to a</tspan><tspan
   font-size="32px"
   x="713.2804"
   y="416.28171"
   id="tspan87">.</tspan><tspan
   font-family="Arial, Arial_MSFontService, sans-serif"
   font-size="32px"
   x="138.75438"
   y="454.28171"
   id="tspan89">•</tspan><tspan
   font-size="32px"
   x="174.75438"
   y="454.28171"
   id="tspan91">Symmetric</tspan>-<tspan
   font-size="32px"
   x="337.18735"
   y="454.28171"
   id="tspan93">for any a, b</tspan><tspan
   font-family="'Cambria Math', 'Cambria Math_MSFontService', sans-serif"
   font-size="32px"
   x="482.08734"
   y="454.28171"
   id="tspan95" /><tspan
   font-family="'Cambria Math', 'Cambria Math_MSFontService', sans-serif"
   font-size="32px"
   x="489.08734"
   y="454.28171"
   id="tspan97">∈</tspan><tspan
   font-size="32px"
   x="516.25433"
   y="454.28171"
   id="tspan99">A, if a maps to b, then b maps to a.</tspan><tspan
   font-family="Arial, Arial_MSFontService, sans-serif"
   font-size="32px"
   x="138.75438"
   y="493.28171"
   id="tspan101">•</tspan><tspan
   font-size="32px"
   x="174.75438"
   y="493.28171"
   id="tspan103">Transitive</tspan>-<tspan
   font-size="32px"
   x="323.30066"
   y="493.28171"
   id="tspan105">f</tspan><tspan
   font-size="32px"
   x="332.46063"
   y="493.28171"
   id="tspan107">or any a, b, c</tspan><tspan
   font-family="'Cambria Math', 'Cambria Math_MSFontService', sans-serif"
   font-size="32px"
   x="504.03436"
   y="493.28171"
   id="tspan109">∈</tspan><tspan
   font-size="32px"
   x="531.20032"
   y="493.28171"
   id="tspan111">A, if</tspan>a maps to b and <tspan
   font-size="32px"
   x="803.6344"
   y="493.28171"
   id="tspan113">b to c, then a maps</tspan>to <tspan
   font-size="32px"
   x="1092.1874"
   y="493.28171"
   id="tspan115">c.</tspan></text>
  </g>
</svg>
