<?xml version="1.0" encoding="UTF-8" standalone="no"?>
<svg
   width="1280"
   height="620"
   overflow="hidden"
   version="1.1"
   id="svg317"
   sodipodi:docname="linear_systems-matrix_column_space.svg"
   inkscape:version="1.2 (dc2aedaf03, 2022-05-15)"
   xmlns:inkscape="http://www.inkscape.org/namespaces/inkscape"
   xmlns:sodipodi="http://sodipodi.sourceforge.net/DTD/sodipodi-0.dtd"
   xmlns="http://www.w3.org/2000/svg"
   xmlns:svg="http://www.w3.org/2000/svg">
  <sodipodi:namedview
     id="namedview319"
     pagecolor="#ffffff"
     bordercolor="#000000"
     borderopacity="0.25"
     inkscape:showpageshadow="2"
     inkscape:pageopacity="0.0"
     inkscape:pagecheckerboard="0"
     inkscape:deskcolor="#d1d1d1"
     showgrid="false"
     inkscape:zoom="0.92709556"
     inkscape:cx="421.20793"
     inkscape:cy="325.74851"
     inkscape:window-width="2560"
     inkscape:window-height="1494"
     inkscape:window-x="-11"
     inkscape:window-y="-11"
     inkscape:window-maximized="1"
     inkscape:current-layer="svg317" />
  <defs
     id="defs5">
    <clipPath
       id="clip0">
      <rect
         x="0"
         y="0"
         width="1280"
         height="720"
         id="rect2" />
    </clipPath>
  </defs>
  <g
     clip-path="url(#clip0)"
     id="g315"
     transform="translate(28.044574,-38.830948)">
    <rect
       x="0"
       y="0"
       width="1280"
       height="720"
       fill="#ffffff"
       id="rect7" />
    <path
       d="M 105,457.754 C 105,450.71 110.71,445 117.754,445 h 148.492 c 7.044,0 12.754,5.71 12.754,12.754 v 73.492 C 279,538.29 273.29,544 266.246,544 H 117.754 C 110.71,544 105,538.29 105,531.246 Z"
       fill="#e2f0d9"
       fill-rule="evenodd"
       id="path9" />
    <path
       d="m 219,445 v 99.483"
       stroke="#385723"
       stroke-width="4"
       stroke-miterlimit="8"
       fill="none"
       fill-rule="evenodd"
       id="path11" />
    <path
       d="m 117,474.5 c 0,-11.322 9.626,-20.5 21.5,-20.5 11.874,0 21.5,9.178 21.5,20.5 0,11.322 -9.626,20.5 -21.5,20.5 -11.874,0 -21.5,-9.178 -21.5,-20.5 z"
       fill="#bdd7ee"
       fill-rule="evenodd"
       fill-opacity="0.501961"
       id="path13" />
    <path
       d="m 165,513.5 c 0,-11.322 9.626,-20.5 21.5,-20.5 11.874,0 21.5,9.178 21.5,20.5 0,11.322 -9.626,20.5 -21.5,20.5 -11.874,0 -21.5,-9.178 -21.5,-20.5 z"
       fill="#bdd7ee"
       fill-rule="evenodd"
       fill-opacity="0.501961"
       id="path15" />
    <text
       font-family="'Cambria Math', 'Cambria Math_MSFontService', sans-serif"
       font-weight="400"
       font-size="32px"
       transform="translate(122.485,484)"
       id="text31">1<tspan
   font-size="32px"
   x="57.666698"
   y="0"
   id="tspan17">4</tspan><tspan
   font-family="Calibri, Calibri_MSFontService, sans-serif"
   font-size="32px"
   x="107.333"
   y="0"
   id="tspan19">âˆ’</tspan>2<tspan
   font-family="Calibri, Calibri_MSFontService, sans-serif"
   font-size="32px"
   x="-8"
   y="38"
   id="tspan21">âˆ’</tspan><tspan
   font-size="32px"
   x="8.0000095"
   y="38"
   id="tspan23">1</tspan><tspan
   font-size="32px"
   x="57.666698"
   y="38"
   id="tspan25">3</tspan><tspan
   font-size="32px"
   x="115.333"
   y="38"
   id="tspan27">9</tspan><tspan
   font-family="Calibri, Calibri_MSFontService, sans-serif"
   font-size="32px"
   x="166.74699"
   y="-253"
   id="tspan29">A =</tspan></text>
    <path
       d="m 472.862,163.313 h 8.813 v 117.359 h -8.813 v -1.703 h 5.563 V 164.985 h -5.563 z m -131.249,0 h 8.812 v 1.672 h -5.562 v 113.984 h 5.562 v 1.703 h -8.812 z"
       fill-rule="evenodd"
       id="path33" />
    <path
       d="m 361.855,177.183 c -1.073,0 -2.037,0.433 -2.891,1.297 -0.854,0.865 -1.521,2.024 -2,3.477 -0.479,1.453 -0.719,2.903 -0.719,4.351 0,1.084 0.149,1.894 0.446,2.43 0.296,0.536 0.794,0.805 1.492,0.805 0.687,0 1.362,-0.297 2.023,-0.891 0.662,-0.594 1.344,-1.44 2.047,-2.539 0.703,-1.099 1.201,-2.367 1.492,-3.805 l 0.141,-0.672 c 0.094,-0.427 0.156,-0.796 0.187,-1.109 0.032,-0.312 0.047,-0.651 0.047,-1.016 0,-0.802 -0.172,-1.39 -0.515,-1.765 -0.344,-0.375 -0.927,-0.563 -1.75,-0.563 z m -0.313,-1.234 c 0.677,0 1.31,0.075 1.899,0.227 0.588,0.151 1.195,0.419 1.82,0.804 l 1.437,-1.031 1,0.25 -2.297,9.906 c -0.229,0.99 -0.343,1.761 -0.343,2.313 0,0.416 0.067,0.718 0.203,0.906 0.135,0.187 0.349,0.281 0.64,0.281 0.313,0 0.646,-0.127 1,-0.383 0.355,-0.255 0.855,-0.742 1.5,-1.461 l 0.891,0.875 c -0.937,1 -1.737,1.711 -2.398,2.133 -0.662,0.422 -1.378,0.633 -2.149,0.633 -0.646,0 -1.161,-0.213 -1.547,-0.641 -0.385,-0.427 -0.578,-0.994 -0.578,-1.703 0,-0.573 0.12,-1.182 0.36,-1.828 l -0.204,-0.062 c -1,1.458 -1.947,2.526 -2.843,3.203 -0.896,0.677 -1.844,1.015 -2.844,1.015 -1.146,0 -2.034,-0.432 -2.664,-1.296 -0.63,-0.865 -0.945,-2.079 -0.945,-3.641 0,-1.792 0.351,-3.513 1.054,-5.164 0.703,-1.651 1.67,-2.953 2.899,-3.906 1.229,-0.953 2.599,-1.43 4.109,-1.43 z"
       fill-rule="evenodd"
       id="path35" />
    <text
       fill="#000000"
       fill-opacity="0"
       font-family="Arial, Arial_MSFontService, sans-serif"
       font-size="15.4531px"
       x="353.48001"
       y="189.47"
       id="text37">ğ‘</text>
    <path
       d="m 414.236,177.793 c -0.5,0 -0.992,0.159 -1.476,0.476 -0.485,0.318 -1.024,0.844 -1.617,1.578 -0.594,0.735 -1.079,1.487 -1.454,2.258 -0.375,0.771 -0.692,1.755 -0.953,2.953 l -0.14,0.657 c -0.157,0.729 -0.235,1.437 -0.235,2.125 0,0.822 0.18,1.416 0.539,1.781 0.36,0.364 0.956,0.547 1.789,0.547 0.428,0 0.834,-0.071 1.219,-0.211 0.386,-0.141 0.779,-0.373 1.18,-0.696 0.401,-0.322 0.781,-0.747 1.14,-1.273 0.36,-0.526 0.691,-1.174 0.993,-1.945 0.302,-0.771 0.536,-1.597 0.703,-2.477 0.166,-0.88 0.25,-1.721 0.25,-2.523 0,-1.084 -0.154,-1.896 -0.461,-2.438 -0.307,-0.541 -0.8,-0.812 -1.477,-0.812 z m -2.734,-8.985 h 0.906 l -2.75,10.938 0.203,0.062 c 1.011,-1.354 1.959,-2.333 2.844,-2.937 0.885,-0.604 1.771,-0.906 2.656,-0.906 1.136,0 2.019,0.432 2.649,1.296 0.63,0.865 0.945,2.084 0.945,3.657 0,1.718 -0.346,3.409 -1.039,5.07 -0.693,1.661 -1.654,2.979 -2.883,3.953 -1.229,0.974 -2.604,1.461 -4.125,1.461 -1.385,0 -2.614,-0.338 -3.687,-1.016 l -1.438,1.016 -1,-0.25 4.047,-17.859 c 0.24,-1.063 0.359,-1.834 0.359,-2.313 0,-0.437 -0.132,-0.745 -0.398,-0.922 -0.266,-0.177 -0.742,-0.276 -1.43,-0.297 l 0.188,-0.812 z"
       fill-rule="evenodd"
       id="path39" />
    <text
       fill="#000000"
       fill-opacity="0"
       font-family="Arial, Arial_MSFontService, sans-serif"
       font-size="22.5938px"
       x="404.78299"
       y="188.578"
       id="text41">ğ‘</text>
    <path
       d="m 465.356,175.965 c 1.385,0 2.662,0.156 3.828,0.468 l -0.765,3.532 h -1.641 c -0.021,-0.792 -0.086,-1.365 -0.195,-1.719 -0.11,-0.354 -0.287,-0.62 -0.532,-0.797 -0.244,-0.177 -0.591,-0.266 -1.039,-0.266 -1.052,0 -1.997,0.42 -2.836,1.258 -0.838,0.839 -1.523,2.026 -2.054,3.563 -0.532,1.536 -0.797,3.013 -0.797,4.429 0,1.063 0.208,1.852 0.625,2.368 0.416,0.515 1.041,0.773 1.875,0.773 0.948,0 1.768,-0.18 2.461,-0.539 0.692,-0.359 1.424,-0.925 2.195,-1.695 l 0.953,0.953 c -0.979,1.083 -1.966,1.875 -2.961,2.375 -0.995,0.5 -2.065,0.75 -3.211,0.75 -1.51,0 -2.656,-0.448 -3.437,-1.344 -0.781,-0.896 -1.172,-2.198 -1.172,-3.906 0,-1.115 0.208,-2.339 0.625,-3.672 0.417,-1.334 1.026,-2.505 1.828,-3.516 0.802,-1.01 1.74,-1.765 2.813,-2.265 1.072,-0.5 2.218,-0.75 3.437,-0.75 z"
       fill-rule="evenodd"
       id="path43" />
    <text
       fill="#000000"
       fill-opacity="0"
       font-family="Arial, Arial_MSFontService, sans-serif"
       font-size="15.4531px"
       x="456.65302"
       y="189.48599"
       id="text45">ğ‘</text>
    <path
       d="m 361.377,214.697 c -1.063,0 -2.016,0.429 -2.86,1.289 -0.843,0.859 -1.507,2.018 -1.992,3.476 -0.484,1.459 -0.726,2.912 -0.726,4.36 0,1.083 0.148,1.893 0.445,2.429 0.297,0.537 0.794,0.805 1.492,0.805 0.323,0 0.651,-0.07 0.984,-0.211 0.334,-0.141 0.68,-0.367 1.04,-0.68 0.359,-0.312 0.713,-0.692 1.062,-1.14 0.349,-0.448 0.669,-0.899 0.961,-1.352 0.292,-0.453 0.562,-0.989 0.812,-1.609 0.25,-0.62 0.464,-1.367 0.641,-2.242 l 0.141,-0.672 c 0.156,-0.75 0.234,-1.459 0.234,-2.125 0,-0.813 -0.172,-1.404 -0.516,-1.774 -0.343,-0.369 -0.916,-0.554 -1.718,-0.554 z m 6.547,-8.375 h 0.921 l -3.89,17.297 c -0.229,1.02 -0.344,1.791 -0.344,2.312 0,0.417 0.068,0.719 0.203,0.906 0.136,0.188 0.349,0.282 0.641,0.282 0.312,0 0.646,-0.128 1,-0.383 0.354,-0.255 0.854,-0.742 1.5,-1.461 l 0.89,0.875 c -0.958,1.01 -1.765,1.724 -2.421,2.14 -0.657,0.417 -1.365,0.625 -2.125,0.625 -0.646,0 -1.162,-0.213 -1.547,-0.64 -0.386,-0.427 -0.578,-0.995 -0.578,-1.703 0,-0.573 0.119,-1.183 0.359,-1.828 l -0.203,-0.063 c -1,1.458 -1.948,2.526 -2.844,3.203 -0.896,0.677 -1.844,1.016 -2.844,1.016 -1.146,0 -2.034,-0.433 -2.664,-1.297 -0.63,-0.865 -0.945,-2.078 -0.945,-3.641 0,-1.791 0.352,-3.513 1.055,-5.164 0.703,-1.651 1.669,-2.953 2.898,-3.906 1.229,-0.953 2.599,-1.43 4.109,-1.43 0.636,0 1.222,0.065 1.758,0.196 0.537,0.13 1.086,0.356 1.649,0.679 l 0.812,-3.609 c 0.084,-0.344 0.156,-0.724 0.219,-1.141 0.062,-0.416 0.094,-0.781 0.094,-1.093 0,-0.313 -0.058,-0.55 -0.172,-0.711 -0.115,-0.162 -0.279,-0.279 -0.492,-0.352 -0.214,-0.073 -0.597,-0.125 -1.149,-0.156 l 0.188,-0.813 z"
       fill-rule="evenodd"
       id="path47" />
    <text
       fill="#000000"
       fill-opacity="0"
       font-family="Arial, Arial_MSFontService, sans-serif"
       font-size="22.5938px"
       x="353.03299"
       y="226.091"
       id="text49">ğ‘‘</text>
    <path
       d="m 414.139,214.697 c -1.052,0 -2.065,0.531 -3.039,1.593 -0.974,1.063 -1.721,2.5 -2.242,4.313 1.469,-0.011 2.729,-0.143 3.781,-0.399 1.052,-0.255 1.86,-0.661 2.422,-1.218 0.563,-0.558 0.844,-1.31 0.844,-2.258 0,-0.636 -0.149,-1.133 -0.445,-1.492 -0.297,-0.36 -0.737,-0.539 -1.321,-0.539 z m 0.563,-1.235 c 1.26,0 2.205,0.255 2.836,0.766 0.63,0.51 0.945,1.307 0.945,2.391 0,1.77 -0.831,3.098 -2.492,3.984 -1.662,0.885 -4.128,1.328 -7.399,1.328 -0.125,0.625 -0.187,1.302 -0.187,2.031 0,1.094 0.213,1.888 0.64,2.383 0.428,0.495 1.125,0.742 2.094,0.742 0.959,0 1.826,-0.208 2.602,-0.625 0.776,-0.416 1.596,-1.057 2.461,-1.922 l 0.968,1.016 c -1.01,1.115 -2.033,1.953 -3.07,2.516 -1.036,0.562 -2.242,0.843 -3.617,0.843 -1.51,0 -2.68,-0.461 -3.508,-1.382 -0.828,-0.922 -1.242,-2.206 -1.242,-3.852 0,-1.115 0.201,-2.31 0.602,-3.586 0.401,-1.276 1.007,-2.422 1.82,-3.437 0.812,-1.016 1.786,-1.802 2.922,-2.36 1.135,-0.557 2.343,-0.836 3.625,-0.836 z"
       fill-rule="evenodd"
       id="path51" />
    <text
       fill="#000000"
       fill-opacity="0"
       font-family="Arial, Arial_MSFontService, sans-serif"
       font-size="15.4531px"
       x="405.733"
       y="226.98399"
       id="text53">ğ‘’</text>
    <path
       d="m 468.271,206.228 c 1.021,0 1.901,0.083 2.641,0.25 l -0.61,2.656 h -1.375 c -0.146,-0.594 -0.336,-1.021 -0.57,-1.281 -0.234,-0.261 -0.581,-0.391 -1.039,-0.391 -0.594,0 -1.096,0.164 -1.508,0.492 -0.411,0.329 -0.763,0.816 -1.055,1.461 -0.291,0.646 -0.562,1.516 -0.812,2.61 l -0.391,1.703 h 4.016 l -0.344,1.578 h -4.031 l -2.906,13.625 c -0.479,2.26 -1.214,3.945 -2.203,5.055 -0.99,1.109 -2.235,1.664 -3.735,1.664 -0.437,0 -0.781,-0.026 -1.031,-0.078 l 0.266,-1.375 c 0.104,0.031 0.349,0.047 0.734,0.047 0.469,0 0.87,-0.12 1.203,-0.36 0.333,-0.239 0.643,-0.656 0.93,-1.25 0.286,-0.594 0.549,-1.417 0.789,-2.469 l 3.359,-14.859 h -2.64 l 0.234,-1.078 c 0.698,-0.042 1.2,-0.099 1.508,-0.172 0.307,-0.073 0.547,-0.182 0.719,-0.328 0.171,-0.146 0.317,-0.336 0.437,-0.57 0.12,-0.235 0.273,-0.664 0.461,-1.289 0.552,-1.875 1.404,-3.284 2.555,-4.227 1.151,-0.943 2.617,-1.414 4.398,-1.414 z"
       fill-rule="evenodd"
       id="path55" />
    <text
       fill="#000000"
       fill-opacity="0"
       font-family="Arial, Arial_MSFontService, sans-serif"
       font-size="29.4219px"
       x="453.31799"
       y="231.972"
       id="text57">ğ‘“</text>
    <path
       d="m 363.079,254.223 c -1.063,0 -2.016,0.43 -2.86,1.289 -0.843,0.86 -1.507,2.019 -1.992,3.477 -0.484,1.458 -0.726,2.911 -0.726,4.359 0,1.084 0.156,1.894 0.468,2.43 0.313,0.536 0.803,0.805 1.469,0.805 0.531,0 1.06,-0.183 1.586,-0.547 0.526,-0.365 1.089,-0.943 1.688,-1.735 0.599,-0.791 1.065,-1.546 1.398,-2.265 0.333,-0.719 0.617,-1.615 0.852,-2.688 0.234,-1.073 0.351,-2.005 0.351,-2.797 0,-0.812 -0.172,-1.403 -0.515,-1.773 -0.344,-0.37 -0.917,-0.555 -1.719,-0.555 z m -0.25,-1.234 c 0.656,0 1.276,0.078 1.859,0.234 0.584,0.157 1.172,0.422 1.766,0.797 l 1.437,-1.031 1,0.25 -1.609,7.281 c -0.115,0.511 -0.375,1.797 -0.781,3.86 -0.427,2.187 -0.774,3.734 -1.039,4.64 -0.266,0.906 -0.597,1.732 -0.993,2.477 -0.395,0.745 -0.906,1.393 -1.531,1.945 -0.625,0.552 -1.383,0.979 -2.273,1.281 -0.891,0.302 -1.946,0.453 -3.164,0.453 -3.938,0 -5.907,-1.145 -5.907,-3.437 0,-0.583 0.178,-1.115 0.532,-1.594 0.354,-0.479 0.922,-0.984 1.703,-1.515 l 1.125,0.906 c -0.198,0.239 -0.365,0.476 -0.5,0.711 -0.136,0.234 -0.232,0.461 -0.289,0.679 -0.058,0.219 -0.086,0.48 -0.086,0.782 0,0.781 0.281,1.351 0.844,1.711 0.562,0.359 1.411,0.539 2.546,0.539 1.282,0 2.31,-0.289 3.086,-0.867 0.776,-0.579 1.44,-1.508 1.993,-2.79 0.552,-1.281 1.088,-3.218 1.609,-5.812 l -0.219,-0.047 c -1.01,1.385 -1.948,2.396 -2.812,3.031 -0.865,0.636 -1.797,0.953 -2.797,0.953 -1.136,0 -2.018,-0.427 -2.649,-1.281 -0.63,-0.854 -0.945,-2.073 -0.945,-3.656 0,-1.781 0.349,-3.492 1.047,-5.133 0.698,-1.64 1.667,-2.945 2.906,-3.914 1.24,-0.969 2.62,-1.453 4.141,-1.453 z"
       fill-rule="evenodd"
       id="path59" />
    <text
       fill="#000000"
       fill-opacity="0"
       font-family="Arial, Arial_MSFontService, sans-serif"
       font-size="22.1875px"
       x="351.59399"
       y="272.40302"
       id="text61">ğ‘”</text>
    <path
       d="m 411.313,245.848 h 0.906 l -2.687,10.828 0.187,0.063 c 0.99,-1.313 1.925,-2.263 2.805,-2.852 0.88,-0.588 1.768,-0.882 2.664,-0.882 0.969,0 1.713,0.278 2.234,0.836 0.521,0.557 0.782,1.33 0.782,2.32 0,0.656 -0.151,1.588 -0.454,2.797 l -1.015,4.093 c -0.281,1.136 -0.422,1.938 -0.422,2.407 0,0.416 0.068,0.718 0.203,0.906 0.135,0.187 0.349,0.281 0.641,0.281 0.312,0 0.646,-0.127 1,-0.383 0.354,-0.255 0.854,-0.742 1.5,-1.461 l 0.89,0.875 c -1,1.053 -1.82,1.776 -2.461,2.172 -0.64,0.396 -1.362,0.594 -2.164,0.594 -0.677,0 -1.216,-0.24 -1.617,-0.719 -0.401,-0.479 -0.601,-1.099 -0.601,-1.859 0,-0.677 0.171,-1.672 0.515,-2.984 l 0.672,-2.704 c 0.24,-0.968 0.401,-1.695 0.484,-2.179 0.084,-0.485 0.125,-0.862 0.125,-1.133 0,-0.74 -0.119,-1.263 -0.359,-1.57 -0.24,-0.308 -0.63,-0.461 -1.172,-0.461 -0.427,0 -0.901,0.177 -1.422,0.531 -0.521,0.354 -1.067,0.893 -1.64,1.617 -0.573,0.724 -1.029,1.417 -1.367,2.078 -0.339,0.662 -0.607,1.451 -0.805,2.367 l -1.422,6.766 h -2.703 l 4.015,-17.859 c 0.25,-1.115 0.375,-1.886 0.375,-2.313 0,-0.437 -0.132,-0.745 -0.398,-0.922 -0.266,-0.177 -0.742,-0.276 -1.43,-0.297 l 0.188,-0.812 z"
       fill-rule="evenodd"
       id="path63" />
    <text
       fill="#000000"
       fill-opacity="0"
       font-family="Arial, Arial_MSFontService, sans-serif"
       font-size="22.5938px"
       x="404.60999"
       y="265.61801"
       id="text65">â„</text>
    <path
       d="m 463.75,253.114 h 0.922 l -2.25,10.031 c -0.229,1.021 -0.344,1.792 -0.344,2.313 0,0.416 0.068,0.718 0.203,0.906 0.136,0.187 0.349,0.281 0.641,0.281 0.312,0 0.646,-0.127 1,-0.383 0.354,-0.255 0.854,-0.742 1.5,-1.461 l 0.891,0.875 c -1.021,1.073 -1.849,1.803 -2.485,2.188 -0.635,0.385 -1.349,0.578 -2.14,0.578 -0.678,0 -1.219,-0.247 -1.625,-0.742 -0.407,-0.495 -0.61,-1.128 -0.61,-1.899 0,-0.791 0.146,-1.802 0.438,-3.031 l 1.172,-5.109 c 0.239,-1.042 0.359,-1.823 0.359,-2.344 0,-0.469 -0.112,-0.786 -0.336,-0.953 -0.224,-0.167 -0.664,-0.26 -1.32,-0.281 l 0.172,-0.828 z m -0.422,-5.984 h 2.766 l -0.719,3.031 h -2.766 z"
       fill-rule="evenodd"
       id="path67" />
    <text
       fill="#000000"
       fill-opacity="0"
       font-family="Arial, Arial_MSFontService, sans-serif"
       font-size="21.3125px"
       x="459.453"
       y="265.77802"
       id="text69">ğ‘–</text>
    <text
       font-family="Calibri, Calibri_MSFontService, sans-serif"
       font-weight="400"
       font-size="43px"
       transform="translate(437.923,87)"
       id="text75">Matrix column space<tspan
   fill="#385723"
   font-family="'Cambria Math', 'Cambria Math_MSFontService', sans-serif"
   font-size="24px"
   x="-89.323898"
   y="65"
   id="tspan71">ğ‘</tspan><tspan
   fill="#385723"
   font-family="'Cambria Math', 'Cambria Math_MSFontService', sans-serif"
   font-size="16px"
   x="-75.990601"
   y="70"
   id="tspan73">1</tspan></text>
    <path
       d="m 367.814,133.433 2.941,2.543 v 0.68 l -2.941,2.542 -0.622,-0.703 1.875,-1.629 h -4.81 -2.338 -1.969 -2.724 -1.589 -2.718 -4.313 v -1.101 h 4.313 2.718 1.589 2.724 1.969 2.338 4.81 l -1.875,-1.629 z"
       fill="#385723"
       fill-rule="evenodd"
       id="path77" />
    <path
       d="m 391,168.667 c 0,-3.682 2.985,-6.667 6.667,-6.667 h 26.666 c 3.682,0 6.667,2.985 6.667,6.667 v 104.666 c 0,3.682 -2.985,6.667 -6.667,6.667 H 397.667 C 393.985,280 391,277.015 391,273.333 Z"
       fill="#385723"
       fill-rule="evenodd"
       fill-opacity="0.4"
       id="path79" />
    <path
       d="m 344,169.167 c 0,-3.406 2.761,-6.167 6.167,-6.167 h 24.666 c 3.406,0 6.167,2.761 6.167,6.167 v 103.666 c 0,3.406 -2.761,6.167 -6.167,6.167 H 350.167 C 346.761,279 344,276.239 344,272.833 Z"
       fill="#385723"
       fill-rule="evenodd"
       fill-opacity="0.4"
       id="path81" />
    <text
       fill="#385723"
       font-family="'Cambria Math', 'Cambria Math_MSFontService', sans-serif"
       font-weight="400"
       font-size="24px"
       transform="translate(398.454,152)"
       id="text85">ğ‘<tspan
   font-size="16px"
   x="13.3333"
   y="5"
   id="tspan83">2</tspan></text>
    <path
       d="m 417.669,132.899 2.941,2.543 v 0.68 l -2.941,2.543 -0.622,-0.703 1.875,-1.629 h -4.81 -2.338 -1.969 -2.724 -1.589 -2.718 -4.313 v -1.102 h 4.313 2.718 1.589 2.724 1.969 2.338 4.81 l -1.875,-1.629 z"
       fill="#385723"
       fill-rule="evenodd"
       id="path87" />
    <path
       d="m 441,169.667 c 0,-3.682 2.985,-6.667 6.667,-6.667 h 26.666 c 3.682,0 6.667,2.985 6.667,6.667 v 103.666 c 0,3.682 -2.985,6.667 -6.667,6.667 H 447.667 C 443.985,280 441,277.015 441,273.333 Z"
       fill="#385723"
       fill-rule="evenodd"
       fill-opacity="0.4"
       id="path89" />
    <text
       fill="#385723"
       font-family="'Cambria Math', 'Cambria Math_MSFontService', sans-serif"
       font-weight="400"
       font-size="24px"
       transform="translate(451.192,152)"
       id="text93">ğ‘<tspan
   font-size="16px"
   x="13.3333"
   y="5"
   id="tspan91">3</tspan></text>
    <path
       d="m 470.406,133.433 2.942,2.543 v 0.68 l -2.942,2.542 -0.621,-0.703 1.875,-1.629 h -4.81 -2.338 -1.969 -2.724 -1.589 -2.718 -4.313 v -1.101 h 4.313 2.718 1.589 2.724 1.969 2.338 4.81 l -1.875,-1.629 z"
       fill="#385723"
       fill-rule="evenodd"
       id="path95" />
    <text
       font-family="Calibri, Calibri_MSFontService, sans-serif"
       font-weight="400"
       font-size="32px"
       transform="translate(348.825,342)"
       id="text99">Col A = {<tspan
   fill="#c00000"
   font-family="'Cambria Math', 'Cambria Math_MSFontService', sans-serif"
   font-size="32px"
   x="107.167"
   y="0"
   id="tspan97">ğ‘</tspan></text>
    <path
       d="m 469.397,309.254 3.922,3.39 v 0.907 l -3.922,3.39 -0.828,-0.937 2.5,-2.172 h -3.649 -5.882 -3.493 v -1.469 h 3.493 5.882 3.649 l -2.5,-2.172 z"
       fill="#c00000"
       fill-rule="evenodd"
       id="path101" />
    <text
       fill="#c00000"
       font-family="'Cambria Math', 'Cambria Math_MSFontService', sans-serif"
       font-weight="400"
       font-size="32px"
       transform="translate(481.191,342)"
       id="text111">âˆˆ<tspan
   font-family="Cambria, Cambria_MSFontService, sans-serif"
   font-size="32px"
   x="28.8867"
   y="0"
   id="tspan103">R</tspan><tspan
   font-family="Cambria, Cambria_MSFontService, sans-serif"
   font-size="21px"
   x="48.720001"
   y="-10"
   id="tspan105">m</tspan><tspan
   fill="#000000"
   font-family="Calibri, Calibri_MSFontService, sans-serif"
   font-size="32px"
   x="73.720001"
   y="0"
   id="tspan107">| A</tspan><tspan
   fill="#000000"
   font-size="32px"
   x="114.053"
   y="0"
   id="tspan109">ğ‘¥</tspan></text>
    <path
       d="m 11.7812,-20.8906 -3.92182,3.3906 -0.82813,-0.9375 2.5,-2.1719 H 0 v -1.4687 h 9.53125 l -2.5,-2.1719 0.82813,-0.9375 3.92182,3.3906 z"
       transform="translate(600.305,342)"
       id="path113" />
    <text
       font-family="Calibri, Calibri_MSFontService, sans-serif"
       font-weight="400"
       font-size="32px"
       transform="translate(620.378,342)"
       id="text117">= <tspan
   font-family="'Cambria Math', 'Cambria Math_MSFontService', sans-serif"
   font-size="32px"
   x="23.166599"
   y="0"
   id="tspan115">ğ‘</tspan></text>
    <path
       d="m 656.951,309.254 3.921,3.39 v 0.907 l -3.921,3.39 -0.829,-0.937 2.5,-2.172 h -3.649 -5.882 -3.493 v -1.469 h 3.493 5.882 3.649 l -2.5,-2.172 z"
       fill-rule="evenodd"
       id="path119" />
    <text
       font-family="Calibri, Calibri_MSFontService, sans-serif"
       font-weight="400"
       font-size="32px"
       transform="translate(668.745,342)"
       id="text123">for some <tspan
   font-family="'Cambria Math', 'Cambria Math_MSFontService', sans-serif"
   font-size="32px"
   x="122.327"
   y="0"
   id="tspan121">ğ‘¥</tspan></text>
    <path
       d="m 11.7812,-20.8906 -3.92182,3.3906 -0.82813,-0.9375 2.5,-2.1719 H 0 v -1.4687 h 9.53125 l -2.5,-2.1719 0.82813,-0.9375 3.92182,3.3906 z"
       transform="translate(796.131,342)"
       id="path125" />
    <text
       font-family="'Cambria Math', 'Cambria Math_MSFontService', sans-serif"
       font-weight="400"
       font-size="32px"
       transform="translate(816.205,342)"
       id="text135">âˆˆ<tspan
   font-family="Cambria, Cambria_MSFontService, sans-serif"
   font-size="32px"
   x="28.8867"
   y="0"
   id="tspan127">R</tspan><tspan
   font-family="Cambria, Cambria_MSFontService, sans-serif"
   font-size="21px"
   x="48.720001"
   y="-10"
   id="tspan129">n</tspan><tspan
   font-family="Calibri, Calibri_MSFontService, sans-serif"
   font-size="32px"
   x="60.553299"
   y="0"
   id="tspan131">}</tspan><tspan
   font-family="Calibri, Calibri_MSFontService, sans-serif"
   font-size="32px"
   x="-9.9768696"
   y="79"
   id="tspan133">Infinite solutions</tspan></text>
    <path
       d="m 315.01,486.875 c 3.75,0 8.218,1.641 13.406,4.922 5.187,3.281 9.125,4.922 11.812,4.922 2.657,0 4.875,-0.703 6.657,-2.11 1.781,-1.406 3.578,-3.593 5.39,-6.562 l 3.75,2.531 c -1.343,2.781 -3.468,5.586 -6.375,8.414 -2.906,2.828 -6.437,4.242 -10.593,4.242 -4,0 -8.571,-1.64 -13.711,-4.922 -5.141,-3.281 -9.071,-4.921 -11.789,-4.921 -2.282,0 -4.282,0.718 -6,2.156 -1.719,1.437 -3.235,3.531 -4.547,6.281 l -3.657,-2.062 c 1.594,-3.688 3.704,-6.758 6.329,-9.211 2.625,-2.453 5.734,-3.68 9.328,-3.68 z"
       fill-rule="evenodd"
       id="path137" />
    <text
       fill="#000000"
       fill-opacity="0"
       font-family="Arial, Arial_MSFontService, sans-serif"
       font-size="16.3594px"
       x="299.353"
       y="501.189"
       id="text139">~</text>
    <path
       d="M 376,457.883 C 376,450.768 381.768,445 388.883,445 h 148.234 c 7.115,0 12.883,5.768 12.883,12.883 v 74.234 C 550,539.232 544.232,545 537.117,545 H 388.883 C 381.768,545 376,539.232 376,532.117 Z"
       fill="#e2f0d9"
       fill-rule="evenodd"
       id="path141" />
    <path
       d="m 489,445 v 99.483"
       stroke="#385723"
       stroke-width="4"
       stroke-miterlimit="8"
       fill="none"
       fill-rule="evenodd"
       id="path143" />
    <path
       d="m 386,477.5 c 0,-11.322 9.626,-20.5 21.5,-20.5 11.874,0 21.5,9.178 21.5,20.5 0,11.322 -9.626,20.5 -21.5,20.5 -11.874,0 -21.5,-9.178 -21.5,-20.5 z"
       fill="#bdd7ee"
       fill-rule="evenodd"
       fill-opacity="0.501961"
       id="path145" />
    <path
       d="m 437,512.5 c 0,-11.322 9.85,-20.5 22,-20.5 12.15,0 22,9.178 22,20.5 0,11.322 -9.85,20.5 -22,20.5 -12.15,0 -22,-9.178 -22,-20.5 z"
       fill="#bdd7ee"
       fill-rule="evenodd"
       fill-opacity="0.501961"
       id="path147" />
    <text
       font-family="'Cambria Math', 'Cambria Math_MSFontService', sans-serif"
       font-weight="400"
       font-size="32px"
       transform="translate(399.48,484)"
       id="text161">1<tspan
   font-size="32px"
   x="49.666698"
   y="0"
   id="tspan149">0</tspan><tspan
   font-size="32px"
   x="107.333"
   y="0"
   id="tspan151">2</tspan><tspan
   font-size="32px"
   x="0"
   y="38"
   id="tspan153">0</tspan><tspan
   font-size="32px"
   x="49.666698"
   y="38"
   id="tspan155">1</tspan><tspan
   font-family="Calibri, Calibri_MSFontService, sans-serif"
   font-size="32px"
   x="99.333298"
   y="38"
   id="tspan157">âˆ’</tspan><tspan
   font-size="32px"
   x="115.333"
   y="38"
   id="tspan159">1</tspan></text>
    <path
       d="M 965,456.883 C 965,449.768 970.768,444 977.883,444 h 151.237 c 7.11,0 12.88,5.768 12.88,12.883 v 74.234 c 0,7.115 -5.77,12.883 -12.88,12.883 H 977.883 C 970.768,544 965,538.232 965,531.117 Z"
       fill="#e2f0d9"
       fill-rule="evenodd"
       id="path163" />
    <path
       d="m 1078,444 v 99.483"
       stroke="#385723"
       stroke-width="4"
       stroke-miterlimit="8"
       fill="none"
       fill-rule="evenodd"
       id="path165" />
    <path
       d="m 975,471.5 c 0,-11.322 9.626,-20.5 21.5,-20.5 11.87,0 21.5,9.178 21.5,20.5 0,11.322 -9.63,20.5 -21.5,20.5 -11.874,0 -21.5,-9.178 -21.5,-20.5 z"
       fill="#bdd7ee"
       fill-rule="evenodd"
       fill-opacity="0.501961"
       id="path167" />
    <path
       d="m 899.731,486.376 c 3.75,0 8.219,1.641 13.406,4.922 5.188,3.281 9.125,4.922 11.813,4.922 2.656,0 4.875,-0.703 6.656,-2.109 1.781,-1.407 3.578,-3.594 5.391,-6.563 l 3.75,2.531 c -1.344,2.782 -3.469,5.586 -6.375,8.414 -2.906,2.828 -6.438,4.243 -10.594,4.243 -4,0 -8.57,-1.641 -13.711,-4.922 -5.141,-3.282 -9.07,-4.922 -11.789,-4.922 -2.281,0 -4.281,0.719 -6,2.156 -1.719,1.438 -3.234,3.531 -4.547,6.281 l -3.656,-2.062 c 1.594,-3.688 3.703,-6.758 6.328,-9.211 2.625,-2.453 5.734,-3.68 9.328,-3.68 z"
       fill-rule="evenodd"
       id="path169" />
    <text
       fill="#000000"
       fill-opacity="0"
       font-family="Arial, Arial_MSFontService, sans-serif"
       font-size="16.3594px"
       x="884.07501"
       y="500.69101"
       id="text171">~</text>
    <text
       font-family="'Cambria Math', 'Cambria Math_MSFontService', sans-serif"
       font-weight="400"
       font-size="32px"
       transform="translate(987.701,485)"
       id="text183">1<tspan
   font-size="32px"
   x="49.666698"
   y="0"
   id="tspan173">4</tspan><tspan
   font-family="Calibri, Calibri_MSFontService, sans-serif"
   font-size="32px"
   x="99.333298"
   y="0"
   id="tspan175">âˆ’</tspan>2<tspan
   font-size="32px"
   x="0"
   y="37"
   id="tspan177">0</tspan><tspan
   font-size="32px"
   x="49.666698"
   y="37"
   id="tspan179">0</tspan><tspan
   font-size="32px"
   x="107.333"
   y="37"
   id="tspan181">0</tspan></text>
    <path
       d="M 683,457.754 C 683,450.71 688.71,445 695.754,445 h 151.492 c 7.044,0 12.754,5.71 12.754,12.754 v 73.492 C 860,538.29 854.29,544 847.246,544 H 695.754 C 688.71,544 683,538.29 683,531.246 Z"
       fill="#e2f0d9"
       fill-rule="evenodd"
       id="path185" />
    <path
       d="m 800,445 v 99.483"
       stroke="#385723"
       stroke-width="4"
       stroke-miterlimit="8"
       fill="none"
       fill-rule="evenodd"
       id="path187" />
    <path
       d="m 698,476.5 c 0,-11.322 9.626,-20.5 21.5,-20.5 11.874,0 21.5,9.178 21.5,20.5 0,11.322 -9.626,20.5 -21.5,20.5 -11.874,0 -21.5,-9.178 -21.5,-20.5 z"
       fill="#bdd7ee"
       fill-rule="evenodd"
       fill-opacity="0.501961"
       id="path189" />
    <text
       font-family="'Cambria Math', 'Cambria Math_MSFontService', sans-serif"
       font-weight="400"
       font-size="32px"
       transform="translate(708.4,484)"
       id="text203">1<tspan
   font-size="32px"
   x="49.666599"
   y="0"
   id="tspan191">4</tspan><tspan
   font-family="Calibri, Calibri_MSFontService, sans-serif"
   font-size="32px"
   x="99.333298"
   y="0"
   id="tspan193">âˆ’</tspan>2<tspan
   font-size="32px"
   x="0"
   y="38"
   id="tspan195">2</tspan><tspan
   font-size="32px"
   x="49.666599"
   y="38"
   id="tspan197">8</tspan><tspan
   font-family="Calibri, Calibri_MSFontService, sans-serif"
   font-size="32px"
   x="99.333298"
   y="38"
   id="tspan199">âˆ’</tspan>4<tspan
   font-family="Calibri, Calibri_MSFontService, sans-serif"
   font-size="32px"
   x="-585.242"
   y="127"
   id="tspan201">Col A = Span</tspan></text>
    <path
       d="m 422.115,569.858 c 2.229,0.198 4.188,1.354 5.875,3.468 1.688,2.115 2.532,5.349 2.532,9.704 0,1.656 -0.303,3.901 -0.907,6.734 -0.604,2.823 -0.906,4.766 -0.906,5.828 0,1.708 0.344,3.021 1.031,3.938 0.698,0.916 1.584,1.411 2.657,1.484 v 1.469 c -1.063,0.073 -1.948,0.573 -2.657,1.5 -0.687,0.927 -1.031,2.234 -1.031,3.922 0,1.062 0.302,3.005 0.906,5.828 0.604,2.833 0.907,5.078 0.907,6.734 0,4.365 -0.844,7.599 -2.532,9.703 -1.687,2.115 -3.646,3.271 -5.875,3.469 v -1.344 c 1.427,-0.208 2.693,-1.135 3.797,-2.781 1.104,-1.646 1.656,-4.193 1.656,-7.641 0,-0.729 -0.07,-1.648 -0.21,-2.757 -0.141,-1.11 -0.357,-2.42 -0.649,-3.93 -0.292,-1.5 -0.508,-2.708 -0.648,-3.625 -0.141,-0.917 -0.211,-1.547 -0.211,-1.891 0,-1.01 0.07,-1.927 0.211,-2.75 0.14,-0.823 0.367,-1.554 0.679,-2.195 0.313,-0.641 0.716,-1.195 1.211,-1.664 0.495,-0.469 1.097,-0.86 1.805,-1.172 v -0.281 c -0.708,-0.313 -1.31,-0.703 -1.805,-1.172 -0.495,-0.469 -0.898,-1.024 -1.211,-1.664 -0.312,-0.641 -0.539,-1.37 -0.679,-2.188 -0.141,-0.817 -0.211,-1.737 -0.211,-2.758 0,-0.343 0.07,-0.973 0.211,-1.89 0.14,-0.917 0.356,-2.125 0.648,-3.625 0.292,-1.511 0.508,-2.82 0.649,-3.93 0.14,-1.109 0.21,-2.028 0.21,-2.758 0,-3.448 -0.552,-5.994 -1.656,-7.64 -1.104,-1.646 -2.37,-2.573 -3.797,-2.782 z m -119.504,0 v 1.343 c -1.427,0.198 -2.693,1.125 -3.797,2.782 -1.104,1.656 -1.656,4.203 -1.656,7.64 0,1.459 0.286,3.685 0.859,6.68 0.573,2.995 0.86,4.836 0.86,5.523 0,2.032 -0.3,3.683 -0.899,4.954 -0.599,1.27 -1.601,2.213 -3.008,2.828 v 0.281 c 1.407,0.615 2.409,1.557 3.008,2.828 0.599,1.271 0.899,2.922 0.899,4.953 0,0.688 -0.287,2.529 -0.86,5.524 -0.573,2.994 -0.859,5.221 -0.859,6.679 0,3.438 0.552,5.985 1.656,7.641 1.104,1.656 2.37,2.583 3.797,2.781 v 1.344 c -2.229,-0.208 -4.188,-1.365 -5.875,-3.469 -1.688,-2.104 -2.531,-5.338 -2.531,-9.703 0,-1.635 0.302,-3.877 0.906,-6.726 0.604,-2.849 0.906,-4.795 0.906,-5.836 0,-1.698 -0.346,-3.008 -1.039,-3.93 -0.693,-0.922 -1.575,-1.419 -2.648,-1.492 v -1.469 c 1.073,-0.073 1.955,-0.57 2.648,-1.492 0.693,-0.922 1.039,-2.232 1.039,-3.93 0,-1.042 -0.302,-2.987 -0.906,-5.836 -0.604,-2.849 -0.906,-5.091 -0.906,-6.726 0,-4.365 0.843,-7.599 2.531,-9.704 1.687,-2.104 3.646,-3.26 5.875,-3.468 z"
       fill-rule="evenodd"
       id="path205" />
    <path
       d="m 349.608,575.496 h 7.437 v 52.5 h -7.437 v -1.359 h 4.546 v -49.782 h -4.546 z m -42.51,0 h 7.438 v 1.359 h -4.547 v 49.782 h 4.547 v 1.359 h -7.438 z"
       fill-rule="evenodd"
       id="path207" />
    <text
       font-family="'Cambria Math', 'Cambria Math_MSFontService', sans-serif"
       font-weight="400"
       font-size="32px"
       transform="translate(323.238,594)"
       id="text213">1<tspan
   font-family="Calibri, Calibri_MSFontService, sans-serif"
   font-size="32px"
   x="-8"
   y="37"
   id="tspan209">âˆ’</tspan>1<tspan
   font-family="Calibri, Calibri_MSFontService, sans-serif"
   font-size="32px"
   x="42.686699"
   y="17"
   id="tspan211">,</tspan></text>
    <path
       d="m 409.754,569.914 h 7.86 v 63.656 h -7.86 v -1.438 h 4.797 v -60.781 h -4.797 z m -26.934,0 h 7.86 v 1.437 h -4.797 v 60.781 h 4.797 v 1.438 h -7.86 z"
       fill-rule="evenodd"
       id="path215" />
    <text
       font-family="'Cambria Math', 'Cambria Math_MSFontService', sans-serif"
       font-weight="400"
       font-size="32px"
       transform="translate(391.384,594)"
       id="text221">3<tspan
   font-size="32px"
   x="0"
   y="37"
   id="tspan217">3</tspan><tspan
   font-family="Calibri, Calibri_MSFontService, sans-serif"
   font-size="32px"
   x="49.353298"
   y="17"
   id="tspan219">=</tspan></text>
    <path
       d="m 509.961,575.496 h 7.437 v 52.5 h -7.437 v -1.359 h 4.547 v -49.782 h -4.547 z m -42.51,0 h 7.438 v 1.359 h -4.547 v 49.782 h 4.547 v 1.359 h -7.438 z"
       fill-rule="evenodd"
       id="path223" />
    <text
       font-family="'Cambria Math', 'Cambria Math_MSFontService', sans-serif"
       font-weight="400"
       font-size="32px"
       transform="translate(483.591,594)"
       id="text229">2<tspan
   font-family="Calibri, Calibri_MSFontService, sans-serif"
   font-size="32px"
   x="-8"
   y="37"
   id="tspan225">âˆ’</tspan>1<tspan
   font-family="Calibri, Calibri_MSFontService, sans-serif"
   font-size="32px"
   x="47.557899"
   y="-365"
   id="tspan227">Col A = Span</tspan></text>
    <path
       d="m 882.24,172.679 c 2.281,0.313 4.302,2.037 6.062,5.172 1.771,3.146 2.657,8.078 2.657,14.797 0,1.229 -0.089,2.674 -0.266,4.336 -0.177,1.661 -0.443,3.56 -0.797,5.695 -0.354,2.136 -0.62,3.925 -0.797,5.367 -0.177,1.443 -0.265,2.555 -0.265,3.336 0,2.531 0.369,4.49 1.109,5.875 0.75,1.375 1.708,2.115 2.875,2.219 v 1.609 c -1.167,0.105 -2.125,0.844 -2.875,2.219 -0.74,1.386 -1.109,3.344 -1.109,5.875 0,0.781 0.088,1.893 0.265,3.336 0.177,1.443 0.443,3.232 0.797,5.367 0.354,2.136 0.62,4.034 0.797,5.696 0.177,1.661 0.266,3.106 0.266,4.335 0,6.615 -0.886,11.495 -2.657,14.641 -1.76,3.136 -3.781,4.859 -6.062,5.172 v -1.344 c 1.427,-0.302 2.719,-1.698 3.875,-4.187 1.156,-2.479 1.734,-6.365 1.734,-11.657 0,-1.104 -0.086,-2.487 -0.258,-4.148 -0.171,-1.661 -0.424,-3.628 -0.757,-5.898 -0.334,-2.261 -0.586,-4.079 -0.758,-5.454 -0.172,-1.375 -0.258,-2.322 -0.258,-2.843 0,-3.032 0.307,-5.511 0.922,-7.438 0.604,-1.916 1.682,-3.338 3.234,-4.265 v -0.422 c -1.542,-0.917 -2.62,-2.334 -3.234,-4.25 -0.615,-1.938 -0.922,-4.422 -0.922,-7.453 0,-0.521 0.086,-1.469 0.258,-2.844 0.172,-1.375 0.424,-3.193 0.758,-5.453 0.333,-2.271 0.586,-4.237 0.757,-5.899 0.172,-1.661 0.258,-3.044 0.258,-4.148 0,-5.386 -0.578,-9.323 -1.734,-11.813 -1.156,-2.489 -2.448,-3.885 -3.875,-4.187 z m -171.341,0 v 1.344 c -1.427,0.302 -2.719,1.698 -3.875,4.187 -1.156,2.49 -1.734,6.427 -1.734,11.813 0,2.187 0.338,5.534 1.015,10.039 0.677,4.505 1.016,7.273 1.016,8.305 0,3.052 -0.307,5.533 -0.922,7.445 -0.615,1.911 -1.693,3.331 -3.234,4.258 v 0.422 c 1.541,0.927 2.619,2.346 3.234,4.257 0.615,1.912 0.922,4.394 0.922,7.446 0,1.031 -0.339,3.799 -1.016,8.304 -0.677,4.506 -1.015,7.852 -1.015,10.039 0,5.282 0.578,9.167 1.734,11.657 1.156,2.489 2.448,3.885 3.875,4.187 v 1.344 c -2.271,-0.313 -4.292,-2.036 -6.063,-5.172 -1.77,-3.135 -2.656,-8.016 -2.656,-14.641 0,-2.437 0.354,-5.781 1.063,-10.031 0.708,-4.25 1.062,-7.151 1.062,-8.703 0,-2.542 -0.372,-4.5 -1.117,-5.875 -0.745,-1.375 -1.7,-2.114 -2.867,-2.219 v -1.609 c 1.167,-0.104 2.122,-0.844 2.867,-2.219 0.745,-1.375 1.117,-3.333 1.117,-5.875 0,-1.552 -0.354,-4.453 -1.062,-8.703 -0.709,-4.25 -1.063,-7.594 -1.063,-10.031 0,-6.729 0.886,-11.662 2.656,-14.797 1.771,-3.135 3.792,-4.859 6.063,-5.172 z"
       fill-rule="evenodd"
       id="path231" />
    <path
       d="m 745.352,172.744 h 8.5 v 94.906 h -8.5 v -1.531 h 5.281 v -91.844 h -5.281 z m -29.954,0 h 8.5 v 1.531 h -5.281 v 91.844 h 5.281 v 1.531 h -8.5 z"
       fill-rule="evenodd"
       id="path233" />
    <path
       d="m 735.331,172.822 c -1.073,0 -2.036,0.433 -2.89,1.297 -0.855,0.865 -1.521,2.024 -2,3.477 -0.48,1.453 -0.719,2.903 -0.719,4.351 0,1.084 0.148,1.893 0.445,2.43 0.297,0.536 0.794,0.805 1.492,0.805 0.688,0 1.362,-0.297 2.024,-0.891 0.661,-0.594 1.344,-1.44 2.047,-2.539 0.703,-1.099 1.2,-2.367 1.492,-3.805 l 0.141,-0.672 c 0.093,-0.427 0.156,-0.797 0.187,-1.109 0.031,-0.313 0.047,-0.651 0.047,-1.016 0,-0.802 -0.172,-1.39 -0.516,-1.765 -0.343,-0.375 -0.927,-0.563 -1.75,-0.563 z m -0.312,-1.234 c 0.677,0 1.31,0.075 1.898,0.226 0.589,0.151 1.196,0.42 1.821,0.805 l 1.437,-1.031 1,0.25 -2.297,9.906 c -0.229,0.99 -0.344,1.761 -0.344,2.313 0,0.416 0.068,0.718 0.204,0.906 0.135,0.187 0.348,0.281 0.64,0.281 0.313,0 0.646,-0.128 1,-0.383 0.354,-0.255 0.854,-0.742 1.5,-1.461 l 0.891,0.875 c -0.938,1 -1.737,1.711 -2.399,2.133 -0.661,0.422 -1.377,0.633 -2.148,0.633 -0.646,0 -1.162,-0.214 -1.547,-0.641 -0.385,-0.427 -0.578,-0.994 -0.578,-1.703 0,-0.573 0.12,-1.182 0.359,-1.828 l -0.203,-0.062 c -1,1.458 -1.948,2.526 -2.844,3.203 -0.895,0.677 -1.843,1.015 -2.843,1.015 -1.146,0 -2.034,-0.432 -2.664,-1.297 -0.631,-0.864 -0.946,-2.078 -0.946,-3.64 0,-1.792 0.352,-3.513 1.055,-5.164 0.703,-1.651 1.669,-2.953 2.898,-3.906 1.23,-0.954 2.599,-1.43 4.11,-1.43 z"
       fill-rule="evenodd"
       id="path235" />
    <text
       fill="#000000"
       fill-opacity="0"
       font-family="Arial, Arial_MSFontService, sans-serif"
       font-size="15.4531px"
       x="726.95599"
       y="185.10899"
       id="text237">ğ‘</text>
    <path
       d="m 734.853,210.336 c -1.062,0 -2.015,0.429 -2.859,1.289 -0.844,0.859 -1.508,2.018 -1.992,3.476 -0.485,1.459 -0.727,2.912 -0.727,4.36 0,1.083 0.149,1.893 0.446,2.429 0.296,0.537 0.794,0.805 1.492,0.805 0.323,0 0.651,-0.07 0.984,-0.211 0.333,-0.141 0.68,-0.367 1.039,-0.68 0.36,-0.312 0.714,-0.692 1.063,-1.14 0.349,-0.448 0.669,-0.899 0.961,-1.352 0.291,-0.453 0.562,-0.989 0.812,-1.609 0.25,-0.62 0.464,-1.367 0.641,-2.242 l 0.14,-0.672 c 0.157,-0.75 0.235,-1.459 0.235,-2.125 0,-0.813 -0.172,-1.404 -0.516,-1.774 -0.344,-0.37 -0.917,-0.554 -1.719,-0.554 z m 6.547,-8.375 h 0.922 l -3.891,17.296 c -0.229,1.021 -0.343,1.792 -0.343,2.313 0,0.417 0.067,0.719 0.203,0.906 0.135,0.188 0.349,0.281 0.64,0.281 0.313,0 0.646,-0.127 1,-0.382 0.355,-0.256 0.855,-0.743 1.5,-1.461 l 0.891,0.875 c -0.958,1.01 -1.766,1.724 -2.422,2.14 -0.656,0.417 -1.364,0.625 -2.125,0.625 -0.646,0 -1.161,-0.213 -1.547,-0.64 -0.385,-0.427 -0.578,-0.995 -0.578,-1.703 0,-0.573 0.12,-1.183 0.36,-1.829 l -0.204,-0.062 c -1,1.458 -1.947,2.526 -2.843,3.203 -0.896,0.677 -1.844,1.016 -2.844,1.016 -1.146,0 -2.034,-0.433 -2.664,-1.297 -0.63,-0.865 -0.945,-2.078 -0.945,-3.641 0,-1.791 0.351,-3.513 1.054,-5.164 0.703,-1.651 1.67,-2.953 2.899,-3.906 1.229,-0.953 2.599,-1.43 4.109,-1.43 0.636,0 1.221,0.065 1.758,0.195 0.536,0.131 1.086,0.357 1.648,0.68 l 0.813,-3.609 c 0.083,-0.344 0.156,-0.724 0.219,-1.141 0.062,-0.416 0.093,-0.781 0.093,-1.094 0,-0.312 -0.057,-0.549 -0.172,-0.711 -0.114,-0.161 -0.278,-0.278 -0.492,-0.351 -0.213,-0.073 -0.596,-0.125 -1.148,-0.156 l 0.187,-0.813 z"
       fill-rule="evenodd"
       id="path239" />
    <text
       fill="#000000"
       fill-opacity="0"
       font-family="Arial, Arial_MSFontService, sans-serif"
       font-size="22.5938px"
       x="726.51001"
       y="221.73"
       id="text241">ğ‘‘</text>
    <path
       d="m 736.555,247.849 c -1.062,0 -2.015,0.43 -2.859,1.289 -0.844,0.859 -1.508,2.018 -1.992,3.477 -0.485,1.458 -0.727,2.911 -0.727,4.359 0,1.083 0.157,1.893 0.469,2.43 0.313,0.536 0.802,0.804 1.469,0.804 0.531,0 1.06,-0.182 1.586,-0.547 0.526,-0.364 1.088,-0.942 1.687,-1.734 0.599,-0.792 1.065,-1.547 1.399,-2.266 0.333,-0.718 0.617,-1.614 0.851,-2.687 0.235,-1.073 0.352,-2.005 0.352,-2.797 0,-0.812 -0.172,-1.404 -0.516,-1.773 -0.344,-0.37 -0.917,-0.555 -1.719,-0.555 z m -0.25,-1.234 c 0.657,0 1.276,0.078 1.86,0.234 0.583,0.156 1.172,0.422 1.765,0.797 l 1.438,-1.031 1,0.25 -1.609,7.281 c -0.115,0.51 -0.375,1.797 -0.782,3.859 -0.427,2.188 -0.773,3.735 -1.039,4.641 -0.265,0.906 -0.596,1.732 -0.992,2.476 -0.396,0.745 -0.906,1.394 -1.531,1.946 -0.625,0.552 -1.383,0.979 -2.274,1.281 -0.89,0.302 -1.945,0.453 -3.164,0.453 -3.937,0 -5.906,-1.146 -5.906,-3.437 0,-0.584 0.177,-1.115 0.531,-1.594 0.354,-0.479 0.922,-0.985 1.703,-1.516 l 1.125,0.906 c -0.198,0.24 -0.364,0.477 -0.5,0.711 -0.135,0.235 -0.231,0.461 -0.289,0.68 -0.057,0.219 -0.086,0.479 -0.086,0.781 0,0.782 0.282,1.352 0.844,1.711 0.563,0.36 1.412,0.539 2.547,0.539 1.281,0 2.31,-0.289 3.086,-0.867 0.776,-0.578 1.44,-1.508 1.992,-2.789 0.552,-1.281 1.089,-3.219 1.61,-5.812 l -0.219,-0.047 c -1.011,1.385 -1.948,2.395 -2.813,3.031 -0.864,0.635 -1.797,0.953 -2.797,0.953 -1.135,0 -2.018,-0.427 -2.648,-1.281 -0.63,-0.854 -0.945,-2.073 -0.945,-3.656 0,-1.782 0.349,-3.493 1.047,-5.133 0.697,-1.641 1.666,-2.946 2.906,-3.914 1.239,-0.969 2.62,-1.453 4.14,-1.453 z"
       fill-rule="evenodd"
       id="path243" />
    <text
       fill="#000000"
       fill-opacity="0"
       font-family="Arial, Arial_MSFontService, sans-serif"
       font-size="22.1875px"
       x="725.07098"
       y="266.02899"
       id="text245">ğ‘”</text>
    <path
       d="m 767.061,225.838 c 0.261,0 0.485,0.015 0.672,0.047 0.188,0.031 0.341,0.088 0.461,0.171 0.12,0.084 0.209,0.209 0.266,0.375 0.057,0.167 0.086,0.391 0.086,0.672 0,0.323 -0.016,0.62 -0.047,0.891 -0.031,0.271 -0.083,0.526 -0.156,0.766 -0.073,0.239 -0.17,0.476 -0.289,0.71 -0.12,0.235 -0.269,0.482 -0.446,0.743 l -2.14,3.218 c -0.052,0.073 -0.112,0.136 -0.18,0.188 -0.068,0.052 -0.151,0.099 -0.25,0.141 -0.099,0.041 -0.214,0.07 -0.344,0.085 -0.13,0.016 -0.294,0.024 -0.492,0.024 -0.177,0 -0.325,-0.008 -0.445,-0.024 -0.12,-0.015 -0.206,-0.041 -0.258,-0.078 -0.052,-0.036 -0.081,-0.086 -0.086,-0.148 -0.005,-0.063 0.013,-0.136 0.055,-0.219 l 2.078,-4.297 v -2 c 0,-0.281 0.028,-0.505 0.086,-0.672 0.057,-0.166 0.148,-0.291 0.273,-0.375 0.125,-0.083 0.281,-0.14 0.469,-0.171 0.187,-0.032 0.417,-0.047 0.687,-0.047 z"
       fill-rule="evenodd"
       id="path247" />
    <text
       fill="#000000"
       fill-opacity="0"
       font-family="Arial, Arial_MSFontService, sans-serif"
       font-size="8.03125px"
       x="763.41199"
       y="232.86501"
       id="text249">,</text>
    <path
       d="m 807.932,172.744 h 8.5 v 94.906 h -8.5 v -1.531 h 5.281 v -91.844 h -5.281 z m -28.287,0 h 8.5 v 1.531 h -5.281 v 91.844 h 5.281 v 1.531 h -8.5 z"
       fill-rule="evenodd"
       id="path251" />
    <path
       d="m 799.913,180.378 c -0.5,0 -0.992,0.159 -1.477,0.477 -0.484,0.318 -1.023,0.844 -1.617,1.578 -0.594,0.734 -1.078,1.487 -1.453,2.258 -0.375,0.771 -0.693,1.755 -0.953,2.953 l -0.141,0.656 c -0.156,0.729 -0.234,1.438 -0.234,2.125 0,0.823 0.18,1.417 0.539,1.781 0.359,0.365 0.956,0.547 1.789,0.547 0.427,0 0.833,-0.07 1.219,-0.211 0.385,-0.14 0.778,-0.372 1.18,-0.695 0.401,-0.323 0.781,-0.747 1.14,-1.273 0.36,-0.526 0.69,-1.175 0.992,-1.946 0.302,-0.771 0.537,-1.596 0.703,-2.476 0.167,-0.881 0.25,-1.722 0.25,-2.524 0,-1.083 -0.153,-1.896 -0.46,-2.437 -0.308,-0.542 -0.8,-0.813 -1.477,-0.813 z m -2.734,-8.984 h 0.906 l -2.75,10.937 0.203,0.063 c 1.01,-1.354 1.958,-2.333 2.844,-2.938 0.885,-0.604 1.771,-0.906 2.656,-0.906 1.135,0 2.018,0.432 2.648,1.297 0.631,0.865 0.946,2.083 0.946,3.656 0,1.719 -0.347,3.409 -1.039,5.071 -0.693,1.661 -1.654,2.979 -2.883,3.953 -1.229,0.974 -2.604,1.461 -4.125,1.461 -1.386,0 -2.615,-0.339 -3.688,-1.016 l -1.437,1.016 -1,-0.25 4.047,-17.86 c 0.239,-1.062 0.359,-1.833 0.359,-2.312 0,-0.438 -0.133,-0.745 -0.398,-0.922 -0.266,-0.177 -0.743,-0.276 -1.43,-0.297 l 0.187,-0.812 z"
       fill-rule="evenodd"
       id="path253" />
    <text
       fill="#000000"
       fill-opacity="0"
       font-family="Arial, Arial_MSFontService, sans-serif"
       font-size="22.5938px"
       x="790.46002"
       y="191.16299"
       id="text255">ğ‘</text>
    <path
       d="m 799.816,217.282 c -1.052,0 -2.065,0.531 -3.039,1.594 -0.974,1.062 -1.722,2.5 -2.242,4.312 1.468,-0.01 2.729,-0.143 3.781,-0.398 1.052,-0.255 1.859,-0.661 2.422,-1.219 0.562,-0.557 0.843,-1.31 0.843,-2.258 0,-0.635 -0.148,-1.132 -0.445,-1.492 -0.297,-0.359 -0.737,-0.539 -1.32,-0.539 z m 0.562,-1.234 c 1.261,0 2.206,0.255 2.836,0.765 0.63,0.511 0.946,1.308 0.946,2.391 0,1.771 -0.831,3.099 -2.493,3.984 -1.661,0.886 -4.127,1.329 -7.398,1.329 -0.125,0.625 -0.188,1.302 -0.188,2.031 0,1.094 0.214,1.888 0.641,2.383 0.427,0.494 1.125,0.742 2.094,0.742 0.958,0 1.825,-0.208 2.601,-0.625 0.776,-0.417 1.597,-1.057 2.461,-1.922 l 0.969,1.016 c -1.01,1.114 -2.034,1.953 -3.07,2.515 -1.037,0.563 -2.242,0.844 -3.617,0.844 -1.511,0 -2.68,-0.461 -3.508,-1.383 -0.828,-0.922 -1.242,-2.206 -1.242,-3.851 0,-1.115 0.2,-2.31 0.601,-3.586 0.401,-1.276 1.008,-2.422 1.82,-3.438 0.813,-1.015 1.787,-1.802 2.922,-2.359 1.136,-0.558 2.344,-0.836 3.625,-0.836 z"
       fill-rule="evenodd"
       id="path257" />
    <text
       fill="#000000"
       fill-opacity="0"
       font-family="Arial, Arial_MSFontService, sans-serif"
       font-size="15.4531px"
       x="791.40997"
       y="229.569"
       id="text259">ğ‘’</text>
    <path
       d="m 796.99,246.421 h 0.906 l -2.688,10.828 0.188,0.062 c 0.989,-1.312 1.924,-2.263 2.805,-2.851 0.88,-0.589 1.768,-0.883 2.664,-0.883 0.968,0 1.713,0.278 2.234,0.836 0.521,0.557 0.781,1.33 0.781,2.32 0,0.656 -0.151,1.589 -0.453,2.797 l -1.016,4.094 c -0.281,1.135 -0.421,1.937 -0.421,2.406 0,0.417 0.067,0.719 0.203,0.906 0.135,0.188 0.349,0.281 0.64,0.281 0.313,0 0.646,-0.127 1,-0.382 0.355,-0.256 0.855,-0.743 1.5,-1.461 l 0.891,0.875 c -1,1.052 -1.82,1.776 -2.461,2.172 -0.641,0.395 -1.362,0.593 -2.164,0.593 -0.677,0 -1.216,-0.239 -1.617,-0.718 -0.401,-0.48 -0.602,-1.099 -0.602,-1.86 0,-0.677 0.172,-1.672 0.516,-2.984 l 0.672,-2.703 c 0.239,-0.969 0.401,-1.696 0.484,-2.18 0.083,-0.484 0.125,-0.862 0.125,-1.133 0,-0.739 -0.12,-1.263 -0.359,-1.57 -0.24,-0.307 -0.63,-0.461 -1.172,-0.461 -0.427,0 -0.901,0.177 -1.422,0.531 -0.521,0.354 -1.068,0.893 -1.641,1.617 -0.573,0.724 -1.028,1.417 -1.367,2.079 -0.338,0.661 -0.607,1.45 -0.805,2.367 l -1.421,6.765 h -2.704 l 4.016,-17.859 c 0.25,-1.115 0.375,-1.885 0.375,-2.313 0,-0.437 -0.133,-0.744 -0.398,-0.921 -0.266,-0.178 -0.743,-0.276 -1.43,-0.297 l 0.187,-0.813 z"
       fill-rule="evenodd"
       id="path261" />
    <text
       fill="#000000"
       fill-opacity="0"
       font-family="Arial, Arial_MSFontService, sans-serif"
       font-size="22.5938px"
       x="790.28601"
       y="266.19"
       id="text263">â„</text>
    <path
       d="m 827.423,225.713 h 2.734 c 0.146,0.729 0.219,1.448 0.219,2.156 0,0.729 -0.125,1.396 -0.375,2 -0.25,0.604 -0.649,1.206 -1.195,1.805 -0.547,0.599 -1.3,1.257 -2.258,1.976 l -0.844,-0.953 c 0.531,-0.5 0.917,-0.95 1.156,-1.352 0.24,-0.401 0.412,-0.856 0.516,-1.367 0.104,-0.51 0.156,-1.151 0.156,-1.922 0,-0.791 -0.036,-1.573 -0.109,-2.343 z"
       fill-rule="evenodd"
       id="path265" />
    <text
       fill="#000000"
       fill-opacity="0"
       font-family="Arial, Arial_MSFontService, sans-serif"
       font-size="7.9375px"
       x="825.70398"
       y="232.658"
       id="text267">,</text>
    <path
       d="m 869.239,172.744 h 8.5 v 94.906 h -8.5 v -1.531 h 5.281 v -91.844 h -5.281 z m -28.514,0 h 8.5 v 1.531 h -5.281 v 91.844 h 5.281 v 1.531 h -8.5 z"
       fill-rule="evenodd"
       id="path269" />
    <path
       d="m 861.733,174.603 c 1.385,0 2.661,0.157 3.828,0.469 l -0.766,3.531 h -1.64 c -0.021,-0.791 -0.086,-1.364 -0.196,-1.718 -0.109,-0.354 -0.286,-0.62 -0.531,-0.797 -0.245,-0.177 -0.591,-0.266 -1.039,-0.266 -1.052,0 -1.997,0.419 -2.836,1.258 -0.839,0.839 -1.523,2.026 -2.055,3.563 -0.531,1.536 -0.797,3.013 -0.797,4.429 0,1.063 0.209,1.852 0.625,2.367 0.417,0.516 1.042,0.774 1.875,0.774 0.948,0 1.769,-0.18 2.461,-0.539 0.693,-0.36 1.425,-0.925 2.196,-1.696 l 0.953,0.954 c -0.979,1.083 -1.966,1.875 -2.961,2.375 -0.995,0.5 -2.065,0.75 -3.211,0.75 -1.51,0 -2.656,-0.448 -3.438,-1.344 -0.781,-0.896 -1.171,-2.198 -1.171,-3.906 0,-1.115 0.208,-2.339 0.625,-3.672 0.416,-1.334 1.026,-2.505 1.828,-3.516 0.802,-1.01 1.739,-1.766 2.812,-2.266 1.073,-0.5 2.219,-0.75 3.438,-0.75 z"
       fill-rule="evenodd"
       id="path271" />
    <text
       fill="#000000"
       fill-opacity="0"
       font-family="Arial, Arial_MSFontService, sans-serif"
       font-size="15.4531px"
       x="853.03003"
       y="188.125"
       id="text273">ğ‘</text>
    <path
       d="m 864.648,204.867 c 1.021,0 1.901,0.083 2.64,0.25 l -0.609,2.656 h -1.375 c -0.146,-0.594 -0.336,-1.021 -0.57,-1.281 -0.235,-0.261 -0.581,-0.391 -1.039,-0.391 -0.594,0 -1.097,0.164 -1.508,0.492 -0.412,0.328 -0.763,0.815 -1.055,1.461 -0.292,0.646 -0.562,1.516 -0.812,2.61 l -0.391,1.703 h 4.016 l -0.344,1.578 h -4.031 l -2.907,13.625 c -0.479,2.26 -1.213,3.945 -2.203,5.055 -0.989,1.109 -2.234,1.664 -3.734,1.664 -0.438,0 -0.781,-0.026 -1.031,-0.078 l 0.265,-1.375 c 0.104,0.031 0.349,0.046 0.735,0.046 0.468,0 0.869,-0.119 1.203,-0.359 0.333,-0.24 0.643,-0.656 0.929,-1.25 0.287,-0.594 0.55,-1.417 0.789,-2.469 l 3.36,-14.859 h -2.641 l 0.235,-1.078 c 0.698,-0.042 1.2,-0.099 1.507,-0.172 0.308,-0.073 0.547,-0.182 0.719,-0.328 0.172,-0.146 0.318,-0.336 0.438,-0.571 0.119,-0.234 0.273,-0.664 0.461,-1.289 0.552,-1.875 1.403,-3.283 2.554,-4.226 1.151,-0.943 2.617,-1.414 4.399,-1.414 z"
       fill-rule="evenodd"
       id="path275" />
    <text
       fill="#000000"
       fill-opacity="0"
       font-family="Arial, Arial_MSFontService, sans-serif"
       font-size="29.4219px"
       x="849.69501"
       y="230.61099"
       id="text277">ğ‘“</text>
    <path
       d="m 860.127,250.466 h 0.922 l -2.25,10.031 c -0.23,1.021 -0.344,1.792 -0.344,2.313 0,0.417 0.068,0.719 0.203,0.906 0.135,0.188 0.349,0.281 0.641,0.281 0.312,0 0.645,-0.127 1,-0.382 0.354,-0.256 0.854,-0.743 1.5,-1.461 l 0.89,0.875 c -1.021,1.073 -1.849,1.802 -2.484,2.187 -0.636,0.386 -1.349,0.578 -2.141,0.578 -0.677,0 -1.219,-0.247 -1.625,-0.742 -0.406,-0.495 -0.609,-1.127 -0.609,-1.898 0,-0.792 0.146,-1.802 0.437,-3.032 l 1.172,-5.109 c 0.24,-1.042 0.36,-1.823 0.36,-2.344 0,-0.468 -0.112,-0.786 -0.336,-0.953 -0.224,-0.166 -0.664,-0.26 -1.321,-0.281 l 0.172,-0.828 z m -0.422,-5.984 h 2.765 l -0.718,3.031 h -2.766 z"
       fill-rule="evenodd"
       id="path279" />
    <text
       fill="#000000"
       fill-opacity="0"
       font-family="Arial, Arial_MSFontService, sans-serif"
       font-size="21.3125px"
       x="855.83002"
       y="263.13"
       id="text281">ğ‘–</text>
    <path
       d="m 712,172.667 c 0,-4.234 3.433,-7.667 7.667,-7.667 h 30.666 c 4.234,0 7.667,3.433 7.667,7.667 v 93.666 c 0,4.234 -3.433,7.667 -7.667,7.667 H 719.667 C 715.433,274 712,270.567 712,266.333 Z"
       fill="#385723"
       fill-rule="evenodd"
       fill-opacity="0.4"
       id="path283" />
    <path
       d="m 774,172.5 c 0,-4.142 3.358,-7.5 7.5,-7.5 h 30 c 4.142,0 7.5,3.358 7.5,7.5 v 94 c 0,4.142 -3.358,7.5 -7.5,7.5 h -30 c -4.142,0 -7.5,-3.358 -7.5,-7.5 z"
       fill="#385723"
       fill-rule="evenodd"
       fill-opacity="0.4"
       id="path285" />
    <path
       d="m 836,172.5 c 0,-4.142 3.358,-7.5 7.5,-7.5 h 30 c 4.142,0 7.5,3.358 7.5,7.5 v 94 c 0,4.142 -3.358,7.5 -7.5,7.5 h -30 c -4.142,0 -7.5,-3.358 -7.5,-7.5 z"
       fill="#385723"
       fill-rule="evenodd"
       fill-opacity="0.4"
       id="path287" />
    <text
       font-family="Calibri, Calibri_MSFontService, sans-serif"
       font-weight="400"
       font-size="32px"
       transform="translate(223.068,420)"
       id="text293">Single <tspan
   font-size="32px"
   x="84.333298"
   y="0"
   id="tspan289">solutions</tspan><tspan
   font-size="32px"
   x="528.901"
   y="190"
   id="tspan291">Col A = Span</tspan></text>
    <path
       d="m 975.538,574.439 c 2.75,0.136 4.851,1.13 6.304,2.985 1.453,1.854 2.18,4.723 2.18,8.609 0,1.396 -0.159,3.13 -0.477,5.203 -0.317,2.073 -0.476,3.422 -0.476,4.047 0,1.458 0.302,2.599 0.906,3.422 0.604,0.823 1.484,1.245 2.641,1.265 v 1.344 c -1.167,0.031 -2.05,0.461 -2.649,1.289 -0.599,0.828 -0.898,1.956 -0.898,3.383 0,0.573 0.159,1.995 0.476,4.266 0.318,2.27 0.477,4.005 0.477,5.203 0,3.635 -0.688,6.427 -2.063,8.375 -1.375,1.948 -3.515,2.963 -6.421,3.047 v -1.25 c 0.916,-0.063 1.724,-0.284 2.421,-0.664 0.698,-0.381 1.303,-0.956 1.813,-1.727 0.51,-0.75 0.885,-1.719 1.125,-2.906 0.24,-1.188 0.359,-2.615 0.359,-4.281 0,-0.74 -0.14,-2.305 -0.422,-4.696 -0.281,-2.39 -0.421,-3.846 -0.421,-4.367 0,-1.792 0.38,-3.208 1.14,-4.25 0.761,-1.042 1.459,-1.687 2.094,-1.937 v -0.313 c -0.635,-0.229 -1.333,-0.878 -2.094,-1.945 -0.76,-1.068 -1.14,-2.492 -1.14,-4.274 0,-0.791 0.14,-2.221 0.421,-4.289 0.282,-2.067 0.422,-3.679 0.422,-4.836 0,-1.656 -0.132,-3.07 -0.398,-4.242 -0.266,-1.172 -0.649,-2.133 -1.149,-2.883 -0.5,-0.75 -1.101,-1.31 -1.804,-1.679 -0.703,-0.37 -1.492,-0.586 -2.367,-0.649 z m -42.975,0 v 1.25 c -0.875,0.063 -1.667,0.279 -2.375,0.649 -0.709,0.369 -1.31,0.929 -1.805,1.679 -0.495,0.75 -0.875,1.711 -1.141,2.883 -0.265,1.172 -0.398,2.586 -0.398,4.242 0,1.157 0.14,2.769 0.422,4.836 0.281,2.068 0.422,3.498 0.422,4.289 0,1.782 -0.383,3.206 -1.149,4.274 -0.766,1.067 -1.461,1.716 -2.086,1.945 v 0.313 c 0.625,0.25 1.32,0.895 2.086,1.937 0.766,1.042 1.149,2.458 1.149,4.25 0,0.521 -0.141,1.977 -0.422,4.367 -0.282,2.391 -0.422,3.956 -0.422,4.696 0,1.666 0.12,3.093 0.359,4.281 0.24,1.187 0.61,2.156 1.11,2.906 0.52,0.771 1.13,1.346 1.828,1.727 0.698,0.38 1.505,0.601 2.422,0.664 v 1.25 c -2.917,-0.084 -5.06,-1.099 -6.43,-3.047 -1.37,-1.948 -2.055,-4.74 -2.055,-8.375 0,-1.198 0.159,-2.933 0.477,-5.203 0.317,-2.271 0.476,-3.693 0.476,-4.266 0,-1.427 -0.299,-2.555 -0.898,-3.383 -0.599,-0.828 -1.482,-1.258 -2.649,-1.289 v -1.344 c 1.157,-0.02 2.037,-0.442 2.641,-1.265 0.604,-0.823 0.906,-1.964 0.906,-3.422 0,-0.625 -0.159,-1.974 -0.476,-4.047 -0.318,-2.073 -0.477,-3.807 -0.477,-5.203 0,-3.886 0.724,-6.755 2.172,-8.609 1.448,-1.855 3.552,-2.849 6.313,-2.985 z"
       fill-rule="evenodd"
       id="path295" />
    <path
       d="m 963.585,574.412 h 7.438 v 52.5 h -7.438 v -1.359 h 4.547 v -49.781 h -4.547 z m -26.509,0 h 7.437 v 1.36 h -4.547 v 49.781 h 4.547 v 1.359 h -7.437 z"
       fill-rule="evenodd"
       id="path297" />
    <text
       font-family="'Cambria Math', 'Cambria Math_MSFontService', sans-serif"
       font-weight="400"
       font-size="32px"
       transform="translate(945.216,593)"
       id="text303">1<tspan
   font-size="32px"
   x="0"
   y="37"
   id="tspan299">2</tspan><tspan
   font-family="Calibri, Calibri_MSFontService, sans-serif"
   font-size="32px"
   x="50.080002"
   y="17"
   id="tspan301">=</tspan></text>
    <path
       d="m 1064.52,574.412 h 7.44 v 52.5 h -7.44 v -1.359 h 4.55 v -49.781 h -4.55 z m -42.51,0 h 7.44 v 1.36 h -4.55 v 49.781 h 4.55 v 1.359 h -7.44 z"
       fill-rule="evenodd"
       id="path305" />
    <text
       font-family="Calibri, Calibri_MSFontService, sans-serif"
       font-weight="400"
       font-size="32px"
       transform="translate(1030.15,593)"
       id="text313">âˆ’<tspan
   font-family="'Cambria Math', 'Cambria Math_MSFontService', sans-serif"
   font-size="32px"
   x="16"
   y="0"
   id="tspan307">2</tspan><tspan
   font-size="32px"
   x="0"
   y="37"
   id="tspan309">âˆ’</tspan><tspan
   font-family="'Cambria Math', 'Cambria Math_MSFontService', sans-serif"
   font-size="32px"
   x="16"
   y="37"
   id="tspan311">4</tspan></text>
  </g>
</svg>
