<?xml version="1.0" encoding="UTF-8" standalone="no"?>
<svg
   width="1280"
   height="600"
   overflow="hidden"
   version="1.1"
   id="svg215"
   sodipodi:docname="linear_systems-basis_vector_examples.svg"
   inkscape:version="1.2 (dc2aedaf03, 2022-05-15)"
   xmlns:inkscape="http://www.inkscape.org/namespaces/inkscape"
   xmlns:sodipodi="http://sodipodi.sourceforge.net/DTD/sodipodi-0.dtd"
   xmlns="http://www.w3.org/2000/svg"
   xmlns:svg="http://www.w3.org/2000/svg">
  <sodipodi:namedview
     id="namedview217"
     pagecolor="#ffffff"
     bordercolor="#000000"
     borderopacity="0.25"
     inkscape:showpageshadow="2"
     inkscape:pageopacity="0.0"
     inkscape:pagecheckerboard="0"
     inkscape:deskcolor="#d1d1d1"
     showgrid="false"
     inkscape:zoom="0.92709556"
     inkscape:cx="813.83197"
     inkscape:cy="459.49956"
     inkscape:window-width="2560"
     inkscape:window-height="1494"
     inkscape:window-x="-11"
     inkscape:window-y="-11"
     inkscape:window-maximized="1"
     inkscape:current-layer="svg215" />
  <defs
     id="defs5">
    <clipPath
       id="clip0">
      <rect
         x="0"
         y="0"
         width="1280"
         height="720"
         id="rect2" />
    </clipPath>
  </defs>
  <g
     clip-path="url(#clip0)"
     id="g213"
     transform="translate(-6.4718247,-77.661898)">
    <rect
       x="0"
       y="0"
       width="1280"
       height="720"
       fill="#ffffff"
       id="rect7" />
    <path
       d="M 0,0 1.39265,301.928"
       stroke="#ededed"
       stroke-width="4"
       stroke-miterlimit="8"
       fill="none"
       fill-rule="evenodd"
       transform="matrix(1,0,0,-1,639,586.928)"
       id="path9" />
    <path
       d="M 0,0 299.869,297.097"
       stroke="#ededed"
       stroke-width="4"
       stroke-miterlimit="8"
       fill="none"
       fill-rule="evenodd"
       transform="matrix(1,0,0,-1,488,583.097)"
       id="path11" />
    <rect
       x="181"
       y="436"
       width="76"
       height="75"
       stroke="#ededed"
       stroke-width="4"
       stroke-miterlimit="8"
       fill="none"
       id="rect13" />
    <rect
       x="256"
       y="436"
       width="76"
       height="75"
       stroke="#ededed"
       stroke-width="4"
       stroke-miterlimit="8"
       fill="none"
       id="rect15" />
    <rect
       x="256"
       y="360"
       width="76"
       height="76"
       stroke="#ededed"
       stroke-width="4"
       stroke-miterlimit="8"
       fill="none"
       id="rect17" />
    <rect
       x="256"
       y="284"
       width="76"
       height="76"
       stroke="#ededed"
       stroke-width="4"
       stroke-miterlimit="8"
       fill="none"
       id="rect19" />
    <rect
       x="181"
       y="284"
       width="75"
       height="76"
       stroke="#ededed"
       stroke-width="4"
       stroke-miterlimit="8"
       fill="none"
       id="rect21" />
    <rect
       x="333"
       y="435"
       width="76"
       height="76"
       stroke="#ededed"
       stroke-width="4"
       stroke-miterlimit="8"
       fill="none"
       id="rect23" />
    <rect
       x="333"
       y="360"
       width="75"
       height="75"
       stroke="#ededed"
       stroke-width="4"
       stroke-miterlimit="8"
       fill="none"
       id="rect25" />
    <rect
       x="333"
       y="284"
       width="75"
       height="76"
       stroke="#ededed"
       stroke-width="4"
       stroke-miterlimit="8"
       fill="none"
       id="rect27" />
    <rect
       x="181"
       y="360"
       width="75"
       height="76"
       stroke="#ededed"
       stroke-width="4"
       stroke-miterlimit="8"
       fill="none"
       id="rect29" />
    <text
       font-family="Calibri, Calibri_MSFontService, sans-serif"
       font-weight="400"
       font-size="43px"
       transform="translate(417.727,142)"
       id="text33">Basis <tspan
   font-size="43px"
   x="96.5"
   y="0"
   id="tspan31">vector examples</tspan></text>
    <rect
       x="106"
       y="435"
       width="75"
       height="76"
       stroke="#ededed"
       stroke-width="4"
       stroke-miterlimit="8"
       fill="none"
       id="rect35" />
    <rect
       x="105"
       y="284"
       width="76"
       height="76"
       stroke="#ededed"
       stroke-width="4"
       stroke-miterlimit="8"
       fill="none"
       id="rect37" />
    <rect
       x="105"
       y="360"
       width="76"
       height="75"
       stroke="#ededed"
       stroke-width="4"
       stroke-miterlimit="8"
       fill="none"
       id="rect39" />
    <rect
       x="181"
       y="511"
       width="76"
       height="75"
       stroke="#ededed"
       stroke-width="4"
       stroke-miterlimit="8"
       fill="none"
       id="rect41" />
    <rect
       x="256"
       y="511"
       width="76"
       height="75"
       stroke="#ededed"
       stroke-width="4"
       stroke-miterlimit="8"
       fill="none"
       id="rect43" />
    <rect
       x="333"
       y="511"
       width="76"
       height="75"
       stroke="#ededed"
       stroke-width="4"
       stroke-miterlimit="8"
       fill="none"
       id="rect45" />
    <rect
       x="106"
       y="511"
       width="75"
       height="75"
       stroke="#ededed"
       stroke-width="4"
       stroke-miterlimit="8"
       fill="none"
       id="rect47" />
    <path
       d="M 104,435 H 407.919"
       stroke="#bfbfbf"
       stroke-width="4"
       stroke-miterlimit="8"
       stroke-dasharray="12, 4"
       fill="none"
       fill-rule="evenodd"
       id="path49" />
    <path
       d="M 0,0 1.39265,301.928"
       stroke="#bfbfbf"
       stroke-width="4"
       stroke-miterlimit="8"
       stroke-dasharray="12, 4"
       fill="none"
       fill-rule="evenodd"
       transform="matrix(1,0,0,-1,256,585.928)"
       id="path51" />
    <text
       font-family="Calibri, Calibri_MSFontService, sans-serif"
       font-weight="400"
       font-size="32px"
       transform="translate(262.23,482)"
       id="text53">(1, 0)</text>
    <path
       d="M 1.9997,-0.0349248 3.29065,73.8815 -0.708741,73.9513 -1.9997,0.0349248 Z M 9.82523,62.7734 1.36027,77.8851 -7.62722,63.0782 c -0.57314,-0.9442 -0.2723,-2.1743 0.67194,-2.7474 0.94424,-0.5732 2.17431,-0.2723 2.74745,0.6719 L 3.00065,72.8786 -0.453938,72.939 6.33545,60.8186 c 0.53981,-0.9637 1.75863,-1.3073 2.72231,-0.7675 0.96364,0.5398 1.30724,1.7586 0.76747,2.7223 z"
       fill="#a6a6a6"
       transform="matrix(1,0,0,-1,257,435.876)"
       id="path55" />
    <path
       d="m 255,433 h 73.34 v 4 H 255 Z m 62.348,-6.727 14.961,8.727 -14.961,8.728 c -0.954,0.556 -2.179,0.234 -2.736,-0.72 -0.556,-0.954 -0.234,-2.179 0.72,-2.735 l 12,-7 v 3.455 l -12,-7 c -0.954,-0.557 -1.276,-1.782 -0.72,-2.736 0.557,-0.954 1.782,-1.276 2.736,-0.719 z"
       fill="#a6a6a6"
       id="path57" />
    <text
       font-family="Calibri, Calibri_MSFontService, sans-serif"
       font-weight="400"
       font-size="32px"
       transform="translate(182.462,406)"
       id="text63">(0, 1)<tspan
   font-family="'Dreaming Outloud Script Pro', 'Dreaming Outloud Script Pro_MSFontService', sans-serif"
   font-size="32px"
   x="-23.080799"
   y="-165"
   id="tspan59">B</tspan><tspan
   font-size="32px"
   x="6.4191599"
   y="-165"
   id="tspan61">=</tspan></text>
    <path
       d="m 1.51562,-9.82812 c 1.15626,-0.02084 2.03646,-0.44268 2.64063,-1.26568 0.60417,-0.8229 0.90625,-1.9635 0.90625,-3.4218 0,-0.625 -0.15885,-1.974 -0.47656,-4.0469 -0.31771,-2.0729 -0.47656,-3.8073 -0.47656,-5.2031 0,-3.8854 0.72395,-6.7552 2.17187,-8.6094 1.44792,-1.8542 3.55208,-2.849 6.31255,-2.9844 v 1.25 c -0.875,0.0625 -1.6667,0.2787 -2.375,0.6485 -0.70838,0.3698 -1.30995,0.9297 -1.80474,1.6797 -0.49479,0.75 -0.875,1.7109 -1.14062,2.8828 -0.26563,1.1718 -0.39844,2.5859 -0.39844,4.2422 0,1.1562 0.14062,2.7682 0.42188,4.8359 0.28124,2.0677 0.42187,3.4974 0.42187,4.2891 0,1.7812 -0.38281,3.2057 -1.14844,4.2734 -0.76562,1.0677 -1.46093,1.71613 -2.08593,1.9453 V -9 c 0.625,0.25 1.32031,0.89583 2.08593,1.9375 0.76563,1.04167 1.14844,2.45833 1.14844,4.25 0,0.52083 -0.14063,1.976563 -0.42187,4.36719 C 7.01562,3.94531 6.875,5.51042 6.875,6.25 c 0,1.66667 0.11979,3.09375 0.35938,4.2812 0.23958,1.1876 0.60937,2.1563 1.10937,2.9063 0.52083,0.7708 1.13021,1.3464 1.82815,1.7266 0.6979,0.3802 1.5052,0.6015 2.4219,0.664 v 1.25 C 9.67708,16.9948 7.53385,15.9792 6.16406,14.0312 4.79427,12.0833 4.10938,9.29167 4.10938,5.65625 4.10938,4.45833 4.26823,2.72396 4.58594,0.453125 4.90365,-1.81771 5.0625,-3.23958 5.0625,-3.8125 5.0625,-5.23958 4.76302,-6.36719 4.16406,-7.19531 3.5651,-8.02344 2.68229,-8.45312 1.51562,-8.48438 Z"
       transform="translate(212.048,241)"
       id="path65" />
    <path
       d="m 255.664,205.68 h 7.438 v 52.5 h -7.438 v -1.359 h 4.547 V 207.04 h -4.547 z m -26.509,0 h 7.437 v 1.36 h -4.547 v 49.781 h 4.547 v 1.359 h -7.437 z"
       fill-rule="evenodd"
       id="path67" />
    <text
       font-family="Calibri, Calibri_MSFontService, sans-serif"
       font-weight="400"
       font-size="32px"
       transform="translate(238.041,223)"
       id="text73">1<tspan
   font-family="'Cambria Math', 'Cambria Math_MSFontService', sans-serif"
   font-size="32px"
   x="-0.746674"
   y="38"
   id="tspan69">0</tspan><tspan
   font-size="32px"
   x="28.606701"
   y="18"
   id="tspan71">,</tspan></text>
    <path
       d="m 304.704,205.68 h 7.438 v 52.5 h -7.438 v -1.359 h 4.547 V 207.04 h -4.547 z m -26.509,0 h 7.437 v 1.36 h -4.547 v 49.781 h 4.547 v 1.359 h -7.437 z"
       fill-rule="evenodd"
       id="path75" />
    <text
       font-family="'Cambria Math', 'Cambria Math_MSFontService', sans-serif"
       font-weight="400"
       font-size="32px"
       transform="translate(286.334,224)"
       id="text79">0<tspan
   font-size="32px"
   x="0"
   y="37"
   id="tspan77">1</tspan></text>
    <path
       d="M 12.0469,-8.48438 C 10.8802,-8.45312 9.9974,-8.02344 9.39844,-7.19531 8.79948,-6.36719 8.5,-5.23958 8.5,-3.8125 c 0,0.57292 0.15885,1.99479 0.47656,4.265625 0.31771,2.270835 0.47656,4.005205 0.47656,5.203125 0,3.63542 -0.6875,6.42705 -2.0625,8.37495 -1.375,1.948 -3.51562,2.9636 -6.42187,3.0469 v -1.25 c 0.91667,-0.0625 1.72396,-0.2838 2.42187,-0.664 0.69792,-0.3802 1.30209,-0.9558 1.8125,-1.7266 0.51042,-0.75 0.88542,-1.7187 1.125,-2.9063 C 6.56771,9.34375 6.6875,7.91667 6.6875,6.25 6.6875,5.51042 6.54688,3.94531 6.26562,1.55469 5.98438,-0.835937 5.84375,-2.29167 5.84375,-2.8125 c 0,-1.79167 0.38021,-3.20833 1.14063,-4.25 C 7.74479,-8.10417 8.44271,-8.75 9.07812,-9 V -9.3125 C 8.44271,-9.54167 7.74479,-10.1901 6.98438,-11.2578 6.22396,-12.3255 5.84375,-13.75 5.84375,-15.5312 c 0,-0.7917 0.14063,-2.2214 0.42187,-4.2891 0.28126,-2.0677 0.42188,-3.6797 0.42188,-4.8359 0,-1.6563 -0.13281,-3.0704 -0.39844,-4.2422 -0.26562,-1.1719 -0.64844,-2.1328 -1.14844,-2.8828 -0.5,-0.75 -1.10156,-1.3099 -1.80468,-1.6797 -0.70313,-0.3698 -1.49219,-0.586 -2.36719,-0.6485 v -1.25 c 2.75,0.1354 4.85156,1.1302 6.30469,2.9844 1.45312,1.8542 2.17968,4.724 2.17968,8.6094 0,1.3958 -0.15885,3.1302 -0.47656,5.2031 C 8.65885,-16.4896 8.5,-15.1406 8.5,-14.5156 c 0,1.4583 0.30208,2.5989 0.90625,3.4218 0.60415,0.823 1.48435,1.24484 2.64065,1.26568 z"
       transform="translate(315.688,241)"
       id="path81" />
    <text
       font-family="'Dreaming Outloud Script Pro', 'Dreaming Outloud Script Pro_MSFontService', sans-serif"
       font-weight="400"
       font-size="32px"
       transform="translate(551.061,241)"
       id="text85">B<tspan
   font-family="Calibri, Calibri_MSFontService, sans-serif"
   font-size="32px"
   x="29.5"
   y="0"
   id="tspan83">=</tspan></text>
    <path
       d="m 1.51562,-9.82812 c 1.15626,-0.02084 2.03646,-0.44268 2.64063,-1.26568 0.60417,-0.8229 0.90625,-1.9635 0.90625,-3.4218 0,-0.625 -0.15885,-1.974 -0.47656,-4.0469 -0.31771,-2.0729 -0.47656,-3.8073 -0.47656,-5.2031 0,-3.8854 0.72395,-6.7552 2.17187,-8.6094 1.44792,-1.8542 3.55208,-2.849 6.31255,-2.9844 v 1.25 c -0.875,0.0625 -1.6667,0.2787 -2.375,0.6485 -0.70838,0.3698 -1.30995,0.9297 -1.80474,1.6797 -0.49479,0.75 -0.875,1.7109 -1.14062,2.8828 -0.26563,1.1718 -0.39844,2.5859 -0.39844,4.2422 0,1.1562 0.14062,2.7682 0.42188,4.8359 0.28124,2.0677 0.42187,3.4974 0.42187,4.2891 0,1.7812 -0.38281,3.2057 -1.14844,4.2734 -0.76562,1.0677 -1.46093,1.71613 -2.08593,1.9453 V -9 c 0.625,0.25 1.32031,0.89583 2.08593,1.9375 0.76563,1.04167 1.14844,2.45833 1.14844,4.25 0,0.52083 -0.14063,1.976563 -0.42187,4.36719 C 7.01562,3.94531 6.875,5.51042 6.875,6.25 c 0,1.66667 0.11979,3.09375 0.35938,4.2812 0.23958,1.1876 0.60937,2.1563 1.10937,2.9063 0.52083,0.7708 1.13021,1.3464 1.82815,1.7266 0.6979,0.3802 1.5052,0.6015 2.4219,0.664 v 1.25 C 9.67708,16.9948 7.53385,15.9792 6.16406,14.0312 4.79427,12.0833 4.10938,9.29167 4.10938,5.65625 4.10938,4.45833 4.26823,2.72396 4.58594,0.453125 4.90365,-1.81771 5.0625,-3.23958 5.0625,-3.8125 5.0625,-5.23958 4.76302,-6.36719 4.16406,-7.19531 3.5651,-8.02344 2.68229,-8.45312 1.51562,-8.48438 Z"
       transform="translate(603.728,241)"
       id="path87" />
    <path
       d="m 647.344,205.68 h 7.438 v 52.5 h -7.438 v -1.359 h 4.547 V 207.04 h -4.547 z m -26.509,0 h 7.437 v 1.36 h -4.547 v 49.781 h 4.547 v 1.359 h -7.437 z"
       fill-rule="evenodd"
       id="path89" />
    <text
       font-family="Calibri, Calibri_MSFontService, sans-serif"
       font-weight="400"
       font-size="32px"
       transform="translate(629.721,223)"
       id="text95">1<tspan
   font-family="'Cambria Math', 'Cambria Math_MSFontService', sans-serif"
   font-size="32px"
   x="-0.74670398"
   y="38"
   id="tspan91">1</tspan><tspan
   font-size="32px"
   x="28.6066"
   y="18"
   id="tspan93">,</tspan></text>
    <path
       d="m 696.384,205.68 h 7.438 v 52.5 h -7.438 v -1.359 h 4.547 V 207.04 h -4.547 z m -26.509,0 h 7.437 v 1.36 h -4.547 v 49.781 h 4.547 v 1.359 h -7.437 z"
       fill-rule="evenodd"
       id="path97" />
    <text
       font-family="'Cambria Math', 'Cambria Math_MSFontService', sans-serif"
       font-weight="400"
       font-size="32px"
       transform="translate(678.014,224)"
       id="text101">0<tspan
   font-size="32px"
   x="0"
   y="37"
   id="tspan99">1</tspan></text>
    <path
       d="M 12.0469,-8.48438 C 10.8802,-8.45312 9.9974,-8.02344 9.39844,-7.19531 8.79948,-6.36719 8.5,-5.23958 8.5,-3.8125 c 0,0.57292 0.15885,1.99479 0.47656,4.265625 0.31771,2.270835 0.47656,4.005205 0.47656,5.203125 0,3.63542 -0.6875,6.42705 -2.0625,8.37495 -1.375,1.948 -3.51562,2.9636 -6.42187,3.0469 v -1.25 c 0.91667,-0.0625 1.72396,-0.2838 2.42187,-0.664 0.69792,-0.3802 1.30209,-0.9558 1.8125,-1.7266 0.51042,-0.75 0.88542,-1.7187 1.125,-2.9063 C 6.56771,9.34375 6.6875,7.91667 6.6875,6.25 6.6875,5.51042 6.54688,3.94531 6.26562,1.55469 5.98438,-0.835937 5.84375,-2.29167 5.84375,-2.8125 c 0,-1.79167 0.38021,-3.20833 1.14063,-4.25 C 7.74479,-8.10417 8.44271,-8.75 9.07812,-9 V -9.3125 C 8.44271,-9.54167 7.74479,-10.1901 6.98438,-11.2578 6.22396,-12.3255 5.84375,-13.75 5.84375,-15.5312 c 0,-0.7917 0.14063,-2.2214 0.42187,-4.2891 0.28126,-2.0677 0.42188,-3.6797 0.42188,-4.8359 0,-1.6563 -0.13281,-3.0704 -0.39844,-4.2422 -0.26562,-1.1719 -0.64844,-2.1328 -1.14844,-2.8828 -0.5,-0.75 -1.10156,-1.3099 -1.80468,-1.6797 -0.70313,-0.3698 -1.49219,-0.586 -2.36719,-0.6485 v -1.25 c 2.75,0.1354 4.85156,1.1302 6.30469,2.9844 1.45312,1.8542 2.17968,4.724 2.17968,8.6094 0,1.3958 -0.15885,3.1302 -0.47656,5.2031 C 8.65885,-16.4896 8.5,-15.1406 8.5,-14.5156 c 0,1.4583 0.30208,2.5989 0.90625,3.4218 0.60415,0.823 1.48435,1.24484 2.64065,1.26568 z"
       transform="translate(707.368,241)"
       id="path103" />
    <path
       d="M 0,0 1.39265,301.928"
       stroke="#ededed"
       stroke-width="4"
       stroke-miterlimit="8"
       fill="none"
       fill-rule="evenodd"
       transform="matrix(1,0,0,-1,790,585.928)"
       id="path105" />
    <path
       d="M 0,0 1.39265,301.928"
       stroke="#ededed"
       stroke-width="4"
       stroke-miterlimit="8"
       fill="none"
       fill-rule="evenodd"
       transform="matrix(1,0,0,-1,487,585.928)"
       id="path107" />
    <path
       d="M 0,0 148.293,151.948"
       stroke="#ededed"
       stroke-width="4"
       stroke-miterlimit="8"
       fill="none"
       fill-rule="evenodd"
       transform="matrix(1,0,0,-1,490,435.948)"
       id="path109" />
    <path
       d="M 0,0 77.0688,76.4267"
       stroke="#ededed"
       stroke-width="4"
       stroke-miterlimit="8"
       fill="none"
       fill-rule="evenodd"
       transform="matrix(1,0,0,-1,487,363.427)"
       id="path111" />
    <path
       d="M 0,0 148.293,151.948"
       stroke="#ededed"
       stroke-width="4"
       stroke-miterlimit="8"
       fill="none"
       fill-rule="evenodd"
       transform="matrix(1,0,0,-1,642,585.948)"
       id="path113" />
    <path
       d="M 0,0 77.0688,76.4267"
       stroke="#ededed"
       stroke-width="4"
       stroke-miterlimit="8"
       fill="none"
       fill-rule="evenodd"
       transform="matrix(1,0,0,-1,714,586.427)"
       id="path115" />
    <path
       d="M 0,0 223.163,222.156"
       stroke="#ededed"
       stroke-width="4"
       stroke-miterlimit="8"
       fill="none"
       fill-rule="evenodd"
       transform="matrix(1,0,0,-1,566,585.156)"
       id="path117" />
    <path
       d="M 0,0 225.173,225.906"
       stroke="#ededed"
       stroke-width="4"
       stroke-miterlimit="8"
       fill="none"
       fill-rule="evenodd"
       transform="matrix(1,0,0,-1,489,511.906)"
       id="path119" />
    <path
       d="M 0,0 1.39265,301.928"
       stroke="#ededed"
       stroke-width="4"
       stroke-miterlimit="8"
       fill="none"
       fill-rule="evenodd"
       transform="matrix(1,0,0,-1,563,585.928)"
       id="path121" />
    <path
       d="M 0,0 1.39265,301.928"
       stroke="#ededed"
       stroke-width="4"
       stroke-miterlimit="8"
       fill="none"
       fill-rule="evenodd"
       transform="matrix(1,0,0,-1,714,585.928)"
       id="path123" />
    <path
       d="M 0,0 302.791,298.83"
       stroke="#bfbfbf"
       stroke-width="4"
       stroke-miterlimit="8"
       stroke-dasharray="12, 4"
       fill="none"
       fill-rule="evenodd"
       transform="matrix(1,0,0,-1,488,582.83)"
       id="path125" />
    <path
       d="M 0,0 1.39265,301.928"
       stroke="#bfbfbf"
       stroke-width="4"
       stroke-miterlimit="8"
       stroke-dasharray="12, 4"
       fill="none"
       fill-rule="evenodd"
       transform="matrix(1,0,0,-1,639,585.928)"
       id="path127" />
    <path
       d="M 1.9997,-0.0349248 3.29065,73.8815 -0.708741,73.9513 -1.9997,0.0349248 Z M 9.82523,62.7734 1.36027,77.8851 -7.62722,63.0782 c -0.57314,-0.9442 -0.2723,-2.1743 0.67194,-2.7474 0.94424,-0.5732 2.17431,-0.2723 2.74745,0.6719 L 3.00065,72.8786 -0.453938,72.939 6.33545,60.8186 c 0.53981,-0.9637 1.75863,-1.3073 2.72231,-0.7675 0.96364,0.5398 1.30724,1.7586 0.76747,2.7223 z"
       fill="#a6a6a6"
       transform="matrix(1,0,0,-1,639,435.876)"
       id="path129" />
    <path
       d="M 1.39419,-1.43395 75.8007,70.9093 73.0123,73.7772 -1.39419,1.43395 Z M 72.6093,58.4232 77.2524,75.1103 60.4414,70.9381 c -1.0721,-0.266 -1.7254,-1.3508 -1.4594,-2.4228 0.2661,-1.0721 1.3508,-1.7255 2.4229,-1.4594 l 13.4834,3.3463 -2.4086,2.4773 -3.724,-13.384 c -0.2961,-1.0642 0.3265,-2.1669 1.3906,-2.463 1.0642,-0.2961 2.1669,0.3266 2.463,1.3907 z"
       fill="#a6a6a6"
       transform="matrix(1,0,0,-1,638,435.104)"
       id="path131" />
    <text
       font-family="Calibri, Calibri_MSFontService, sans-serif"
       font-weight="400"
       font-size="32px"
       transform="translate(565.419,406)"
       id="text139">(0, 1)<tspan
   font-size="32px"
   x="156.02"
   y="-10"
   id="tspan133">(1,</tspan>1)<tspan
   font-family="'Dreaming Outloud Script Pro', 'Dreaming Outloud Script Pro_MSFontService', sans-serif"
   font-size="32px"
   x="371.457"
   y="-165"
   id="tspan135">B</tspan><tspan
   font-size="32px"
   x="400.957"
   y="-165"
   id="tspan137">=</tspan></text>
    <path
       d="m 1.51562,-9.82812 c 1.15626,-0.02084 2.03646,-0.44268 2.64063,-1.26568 0.60417,-0.8229 0.90625,-1.9635 0.90625,-3.4218 0,-0.625 -0.15885,-1.974 -0.47656,-4.0469 -0.31771,-2.0729 -0.47656,-3.8073 -0.47656,-5.2031 0,-3.8854 0.72395,-6.7552 2.17187,-8.6094 1.44792,-1.8542 3.55208,-2.849 6.31255,-2.9844 v 1.25 c -0.875,0.0625 -1.6667,0.2787 -2.375,0.6485 -0.70838,0.3698 -1.30995,0.9297 -1.80474,1.6797 -0.49479,0.75 -0.875,1.7109 -1.14062,2.8828 -0.26563,1.1718 -0.39844,2.5859 -0.39844,4.2422 0,1.1562 0.14062,2.7682 0.42188,4.8359 0.28124,2.0677 0.42187,3.4974 0.42187,4.2891 0,1.7812 -0.38281,3.2057 -1.14844,4.2734 -0.76562,1.0677 -1.46093,1.71613 -2.08593,1.9453 V -9 c 0.625,0.25 1.32031,0.89583 2.08593,1.9375 0.76563,1.04167 1.14844,2.45833 1.14844,4.25 0,0.52083 -0.14063,1.976563 -0.42187,4.36719 C 7.01562,3.94531 6.875,5.51042 6.875,6.25 c 0,1.66667 0.11979,3.09375 0.35938,4.2812 0.23958,1.1876 0.60937,2.1563 1.10937,2.9063 0.52083,0.7708 1.13021,1.3464 1.82815,1.7266 0.6979,0.3802 1.5052,0.6015 2.4219,0.664 v 1.25 C 9.67708,16.9948 7.53385,15.9792 6.16406,14.0312 4.79427,12.0833 4.10938,9.29167 4.10938,5.65625 4.10938,4.45833 4.26823,2.72396 4.58594,0.453125 4.90365,-1.81771 5.0625,-3.23958 5.0625,-3.8125 5.0625,-5.23958 4.76302,-6.36719 4.16406,-7.19531 3.5651,-8.02344 2.68229,-8.45312 1.51562,-8.48438 Z"
       transform="translate(989.543,241)"
       id="path141" />
    <path
       d="m 1047.66,205.732 h 7.44 v 52.5 h -7.44 v -1.359 h 4.55 v -49.781 h -4.55 z m -41.01,0 h 7.44 v 1.36 h -4.55 v 49.781 h 4.55 v 1.359 h -7.44 z"
       fill-rule="evenodd"
       id="path143" />
    <text
       font-family="Calibri, Calibri_MSFontService, sans-serif"
       font-weight="400"
       font-size="32px"
       transform="translate(1014.79,223)"
       id="text151">−<tspan
   font-size="32px"
   x="15.9999"
   y="0"
   id="tspan145">1</tspan><tspan
   font-family="'Cambria Math', 'Cambria Math_MSFontService', sans-serif"
   font-size="32px"
   x="7.2466402"
   y="38"
   id="tspan147">0</tspan><tspan
   font-size="32px"
   x="43.853298"
   y="18"
   id="tspan149">,</tspan></text>
    <path
       d="m 1096.7,205.732 h 7.44 v 52.5 h -7.44 v -1.359 h 4.55 v -49.781 h -4.55 z m -26.51,0 h 7.44 v 1.36 h -4.55 v 49.781 h 4.55 v 1.359 h -7.44 z"
       fill-rule="evenodd"
       id="path153" />
    <text
       font-family="'Cambria Math', 'Cambria Math_MSFontService', sans-serif"
       font-weight="400"
       font-size="32px"
       transform="translate(1078.33,224)"
       id="text157">0<tspan
   font-size="32px"
   x="0"
   y="38"
   id="tspan155">1</tspan></text>
    <path
       d="M 12.0469,-8.48438 C 10.8802,-8.45312 9.9974,-8.02344 9.39844,-7.19531 8.79948,-6.36719 8.5,-5.23958 8.5,-3.8125 c 0,0.57292 0.15885,1.99479 0.47656,4.265625 0.31771,2.270835 0.47656,4.005205 0.47656,5.203125 0,3.63542 -0.6875,6.42705 -2.0625,8.37495 -1.375,1.948 -3.51562,2.9636 -6.42187,3.0469 v -1.25 c 0.91667,-0.0625 1.72396,-0.2838 2.42187,-0.664 0.69792,-0.3802 1.30209,-0.9558 1.8125,-1.7266 0.51042,-0.75 0.88542,-1.7187 1.125,-2.9063 C 6.56771,9.34375 6.6875,7.91667 6.6875,6.25 6.6875,5.51042 6.54688,3.94531 6.26562,1.55469 5.98438,-0.835937 5.84375,-2.29167 5.84375,-2.8125 c 0,-1.79167 0.38021,-3.20833 1.14063,-4.25 C 7.74479,-8.10417 8.44271,-8.75 9.07812,-9 V -9.3125 C 8.44271,-9.54167 7.74479,-10.1901 6.98438,-11.2578 6.22396,-12.3255 5.84375,-13.75 5.84375,-15.5312 c 0,-0.7917 0.14063,-2.2214 0.42187,-4.2891 0.28126,-2.0677 0.42188,-3.6797 0.42188,-4.8359 0,-1.6563 -0.13281,-3.0704 -0.39844,-4.2422 -0.26562,-1.1719 -0.64844,-2.1328 -1.14844,-2.8828 -0.5,-0.75 -1.10156,-1.3099 -1.80468,-1.6797 -0.70313,-0.3698 -1.49219,-0.586 -2.36719,-0.6485 v -1.25 c 2.75,0.1354 4.85156,1.1302 6.30469,2.9844 1.45312,1.8542 2.17968,4.724 2.17968,8.6094 0,1.3958 -0.15885,3.1302 -0.47656,5.2031 C 8.65885,-16.4896 8.5,-15.1406 8.5,-14.5156 c 0,1.4583 0.30208,2.5989 0.90625,3.4218 0.60415,0.823 1.48435,1.24484 2.64065,1.26568 z"
       transform="translate(1107.68,241)"
       id="path159" />
    <rect
       x="943"
       y="437"
       width="75"
       height="75"
       stroke="#ededed"
       stroke-width="4"
       stroke-miterlimit="8"
       fill="none"
       id="rect161" />
    <rect
       x="1018"
       y="437"
       width="75"
       height="75"
       stroke="#fbe5d6"
       stroke-width="4"
       stroke-miterlimit="8"
       fill="none"
       id="rect163" />
    <rect
       x="1018"
       y="361"
       width="75"
       height="76"
       stroke="#ededed"
       stroke-width="4"
       stroke-miterlimit="8"
       fill="none"
       id="rect165" />
    <rect
       x="1018"
       y="285"
       width="75"
       height="76"
       stroke="#fbe5d6"
       stroke-width="4"
       stroke-miterlimit="8"
       fill="none"
       id="rect167" />
    <rect
       x="942"
       y="285"
       width="76"
       height="76"
       stroke="#fbe5d6"
       stroke-width="4"
       stroke-miterlimit="8"
       fill="none"
       id="rect169" />
    <rect
       x="1094"
       y="437"
       width="76"
       height="75"
       stroke="#fbe5d6"
       stroke-width="4"
       stroke-miterlimit="8"
       fill="none"
       id="rect171" />
    <rect
       x="1094"
       y="361"
       width="76"
       height="76"
       stroke="#fbe5d6"
       stroke-width="4"
       stroke-miterlimit="8"
       fill="none"
       id="rect173" />
    <rect
       x="1094"
       y="285"
       width="76"
       height="76"
       stroke="#fbe5d6"
       stroke-width="4"
       stroke-miterlimit="8"
       fill="none"
       id="rect175" />
    <rect
       x="942"
       y="361"
       width="76"
       height="76"
       stroke="#fbe5d6"
       stroke-width="4"
       stroke-miterlimit="8"
       fill="none"
       id="rect177" />
    <rect
       x="867"
       y="437"
       width="76"
       height="75"
       stroke="#fbe5d6"
       stroke-width="4"
       stroke-miterlimit="8"
       fill="none"
       id="rect179" />
    <rect
       x="867"
       y="285"
       width="75"
       height="76"
       stroke="#fbe5d6"
       stroke-width="4"
       stroke-miterlimit="8"
       fill="none"
       id="rect181" />
    <rect
       x="867"
       y="361"
       width="75"
       height="76"
       stroke="#fbe5d6"
       stroke-width="4"
       stroke-miterlimit="8"
       fill="none"
       id="rect183" />
    <rect
       x="943"
       y="512"
       width="75"
       height="75"
       stroke="#fbe5d6"
       stroke-width="4"
       stroke-miterlimit="8"
       fill="none"
       id="rect185" />
    <rect
       x="1018"
       y="512"
       width="75"
       height="75"
       stroke="#fbe5d6"
       stroke-width="4"
       stroke-miterlimit="8"
       fill="none"
       id="rect187" />
    <rect
       x="1094"
       y="512"
       width="76"
       height="75"
       stroke="#fbe5d6"
       stroke-width="4"
       stroke-miterlimit="8"
       fill="none"
       id="rect189" />
    <rect
       x="867"
       y="512"
       width="76"
       height="75"
       stroke="#fbe5d6"
       stroke-width="4"
       stroke-miterlimit="8"
       fill="none"
       id="rect191" />
    <path
       d="m 866,437 h 303.92"
       stroke="#bfbfbf"
       stroke-width="4"
       stroke-miterlimit="8"
       stroke-dasharray="12, 4"
       fill="none"
       fill-rule="evenodd"
       id="path193" />
    <path
       d="M 0,0 1.39265,301.928"
       stroke="#bfbfbf"
       stroke-width="4"
       stroke-miterlimit="8"
       stroke-dasharray="12, 4"
       fill="none"
       fill-rule="evenodd"
       transform="matrix(1,0,0,-1,1017,586.928)"
       id="path195" />
    <text
       font-family="Calibri, Calibri_MSFontService, sans-serif"
       font-weight="400"
       font-size="32px"
       transform="translate(920.995,485)"
       id="text199">(<tspan
   font-size="32px"
   x="9.6666899"
   y="0"
   id="tspan197">−</tspan>1, 0)</text>
    <path
       d="M 1.9997,-0.0349248 3.29065,73.8815 -0.708741,73.9513 -1.9997,0.0349248 Z M 9.82523,62.7734 1.36027,77.8851 -7.62722,63.0782 c -0.57314,-0.9442 -0.2723,-2.1743 0.67194,-2.7474 0.94424,-0.5732 2.17431,-0.2723 2.74745,0.6719 L 3.00065,72.8786 -0.453938,72.939 6.33545,60.8186 c 0.53981,-0.9637 1.75863,-1.3073 2.72231,-0.7675 0.96364,0.5398 1.30724,1.7586 0.76747,2.7223 z"
       fill="#a6a6a6"
       transform="matrix(1,0,0,-1,1018,436.876)"
       id="path201" />
    <path
       d="M 0.0143819,-1.99995 70.7451,-1.49131 70.7163,2.50858 -0.0143819,1.99995 Z M 59.8016,-8.29774 74.7,0.537179 59.6761,9.15692 C 58.718,9.70661 57.4957,9.37554 56.946,8.41746 56.3963,7.45938 56.7274,6.23709 57.6855,5.6874 l 12.05,-6.91352 -0.0248,3.45502 -11.9494,-7.08611 c -0.9501,-0.56341 -1.2635,-1.79033 -0.7001,-2.7404 0.5634,-0.95008 1.7903,-1.26354 2.7404,-0.70013 z"
       fill="#a6a6a6"
       transform="matrix(-1,0,0,1,1016.69,436)"
       id="path203" />
    <text
       font-family="Calibri, Calibri_MSFontService, sans-serif"
       font-weight="400"
       font-size="32px"
       transform="translate(943.858,408)"
       id="text211">(0, 1)<tspan
   font-size="24px"
   x="-115.339"
   y="224"
   id="tspan205">Gridlines are flipped around the y</tspan><tspan
   font-size="24px"
   x="212.295"
   y="224"
   id="tspan207">-</tspan><tspan
   font-size="24px"
   x="219.62801"
   y="224"
   id="tspan209">axis.</tspan></text>
  </g>
</svg>
