<?xml version="1.0" encoding="UTF-8" standalone="no"?>
<svg
   width="1140"
   height="530"
   overflow="hidden"
   version="1.1"
   id="svg257"
   sodipodi:docname="linear_systems-vector_scalar_multiplication.svg"
   inkscape:version="1.2 (dc2aedaf03, 2022-05-15)"
   xmlns:inkscape="http://www.inkscape.org/namespaces/inkscape"
   xmlns:sodipodi="http://sodipodi.sourceforge.net/DTD/sodipodi-0.dtd"
   xmlns="http://www.w3.org/2000/svg"
   xmlns:svg="http://www.w3.org/2000/svg">
  <sodipodi:namedview
     id="namedview259"
     pagecolor="#ffffff"
     bordercolor="#000000"
     borderopacity="0.25"
     inkscape:showpageshadow="2"
     inkscape:pageopacity="0.0"
     inkscape:pagecheckerboard="0"
     inkscape:deskcolor="#d1d1d1"
     showgrid="false"
     inkscape:zoom="1.3111111"
     inkscape:cx="647.92373"
     inkscape:cy="244.0678"
     inkscape:window-width="2560"
     inkscape:window-height="1494"
     inkscape:window-x="-11"
     inkscape:window-y="-11"
     inkscape:window-maximized="1"
     inkscape:current-layer="g255" />
  <defs
     id="defs5">
    <clipPath
       id="clip0">
      <rect
         x="0"
         y="0"
         width="1280"
         height="720"
         id="rect2" />
    </clipPath>
  </defs>
  <g
     clip-path="url(#clip0)"
     id="g255"
     transform="translate(-25.169491,-52.627119)">
    <rect
       x="271.15256"
       y="432.94916"
       width="76"
       height="75"
       stroke="#ededed"
       stroke-width="4"
       stroke-miterlimit="8"
       fill="none"
       id="rect9" />
    <rect
       x="271.15256"
       y="356.94916"
       width="76"
       height="76"
       stroke="#ededed"
       stroke-width="4"
       stroke-miterlimit="8"
       fill="none"
       id="rect11" />
    <rect
       x="499.15256"
       y="432.94916"
       width="76"
       height="75"
       stroke="#ededed"
       stroke-width="4"
       stroke-miterlimit="8"
       fill="none"
       id="rect13" />
    <rect
       x="499.15256"
       y="356.94916"
       width="76"
       height="76"
       stroke="#ededed"
       stroke-width="4"
       stroke-miterlimit="8"
       fill="none"
       id="rect15" />
    <rect
       x="499.15256"
       y="280.94916"
       width="76"
       height="76"
       stroke="#ededed"
       stroke-width="4"
       stroke-miterlimit="8"
       fill="none"
       id="rect17" />
    <text
       fill="#ffffff"
       font-family="Calibri, Calibri_MSFontService, sans-serif"
       font-weight="400"
       font-size="24px"
       id="text25"
       x="520.49457"
       y="311.94916">(<tspan
   font-size="24px"
   x="527.82788"
   y="311.94916"
   id="tspan19">-</tspan><tspan
   font-size="24px"
   x="535.16125"
   y="311.94916"
   id="tspan21">2,</tspan><tspan
   font-size="24px"
   x="527.16125"
   y="340.94916"
   id="tspan23">1)</tspan></text>
    <rect
       x="499.15256"
       y="205.94916"
       width="76"
       height="75"
       stroke="#ededed"
       stroke-width="4"
       stroke-miterlimit="8"
       fill="none"
       id="rect27" />
    <rect
       x="121.15254"
       y="432.94916"
       width="75"
       height="75"
       stroke="#ededed"
       stroke-width="4"
       stroke-miterlimit="8"
       fill="none"
       id="rect29" />
    <rect
       x="121.15254"
       y="356.94916"
       width="75"
       height="76"
       stroke="#ededed"
       stroke-width="4"
       stroke-miterlimit="8"
       fill="none"
       id="rect31" />
    <rect
       x="121.15254"
       y="205.94916"
       width="75"
       height="75"
       stroke="#ededed"
       stroke-width="4"
       stroke-miterlimit="8"
       fill="none"
       id="rect33" />
    <rect
       x="196.15254"
       y="432.94916"
       width="75"
       height="75"
       stroke="#ededed"
       stroke-width="4"
       stroke-miterlimit="8"
       fill="none"
       id="rect35" />
    <rect
       x="196.15254"
       y="356.94916"
       width="75"
       height="76"
       stroke="#ededed"
       stroke-width="4"
       stroke-miterlimit="8"
       fill="none"
       id="rect37" />
    <rect
       x="271.15256"
       y="280.94916"
       width="75"
       height="76"
       stroke="#ededed"
       stroke-width="4"
       stroke-miterlimit="8"
       fill="none"
       id="rect39" />
    <rect
       x="271.15256"
       y="205.94916"
       width="76"
       height="75"
       stroke="#ededed"
       stroke-width="4"
       stroke-miterlimit="8"
       fill="none"
       id="rect41" />
    <rect
       x="195.15254"
       y="205.94916"
       width="76"
       height="75"
       stroke="#ededed"
       stroke-width="4"
       stroke-miterlimit="8"
       fill="none"
       id="rect43" />
    <rect
       x="348.15256"
       y="432.94916"
       width="75"
       height="75"
       stroke="#ededed"
       stroke-width="4"
       stroke-miterlimit="8"
       fill="none"
       id="rect45" />
    <rect
       x="348.15256"
       y="356.94916"
       width="75"
       height="76"
       stroke="#ededed"
       stroke-width="4"
       stroke-miterlimit="8"
       fill="none"
       id="rect47" />
    <rect
       x="423.15256"
       y="432.94916"
       width="75"
       height="75"
       stroke="#ededed"
       stroke-width="4"
       stroke-miterlimit="8"
       fill="none"
       id="rect49" />
    <rect
       x="423.15256"
       y="356.94916"
       width="75"
       height="76"
       stroke="#ededed"
       stroke-width="4"
       stroke-miterlimit="8"
       fill="none"
       id="rect51" />
    <rect
       x="423.15256"
       y="280.94916"
       width="75"
       height="76"
       stroke="#ededed"
       stroke-width="4"
       stroke-miterlimit="8"
       fill="none"
       id="rect53" />
    <rect
       x="423.15256"
       y="205.94916"
       width="75"
       height="75"
       stroke="#ededed"
       stroke-width="4"
       stroke-miterlimit="8"
       fill="none"
       id="rect55" />
    <rect
       x="347.15256"
       y="280.94916"
       width="76"
       height="76"
       stroke="#ededed"
       stroke-width="4"
       stroke-miterlimit="8"
       fill="none"
       id="rect57" />
    <rect
       x="347.15256"
       y="205.94916"
       width="76"
       height="75"
       stroke="#ededed"
       stroke-width="4"
       stroke-miterlimit="8"
       fill="none"
       id="rect59" />
    <path
       d="m 346.94254,508.31115 -1.79,-302.362"
       stroke="#bfbfbf"
       stroke-width="4"
       stroke-miterlimit="8"
       stroke-dasharray="12, 4"
       fill="none"
       fill-rule="evenodd"
       id="path61" />
    <rect
       x="121.15254"
       y="280.94916"
       width="75"
       height="76"
       stroke="#ededed"
       stroke-width="4"
       stroke-miterlimit="8"
       fill="none"
       id="rect63" />
    <rect
       x="195.15254"
       y="280.94916"
       width="76"
       height="76"
       stroke="#ededed"
       stroke-width="4"
       stroke-miterlimit="8"
       fill="none"
       id="rect65" />
    <path
       d="m 121.15254,429.94915 454.032,2.771"
       stroke="#bfbfbf"
       stroke-width="4"
       stroke-miterlimit="8"
       stroke-dasharray="12, 4"
       fill="none"
       fill-rule="evenodd"
       id="path67" />
    <text
       font-family="Calibri, Calibri_MSFontService, sans-serif"
       font-weight="400"
       font-size="43px"
       id="text69"
       x="422.05054"
       y="125.94915">Scalar multiplication</text>
    <path
       d="m 345.24254,430.82215 -8.524,-8.446 2.816,-2.842 8.523,8.447 z m -11.365,-11.262 -8.524,-8.446 2.815,-2.842 8.524,8.447 z m -11.365,-11.262 -8.524,-8.447 2.815,-2.841 8.524,8.447 z m -11.365,-11.262 -8.524,-8.447 2.815,-2.841 8.524,8.447 z m -11.366,-11.262 -8.523,-8.447 2.815,-2.841 8.524,8.447 z m -11.365,-11.262 -8.524,-8.447 2.816,-2.841 8.524,8.447 z m -11.365,-11.262 -8.524,-8.447 2.816,-2.841 8.524,8.447 z m -11.365,-11.262 -8.524,-8.447 2.816,-2.841 8.524,8.446 z m -11.365,-11.262 -8.524,-8.447 2.816,-2.841 8.523,8.446 z m -11.365,-11.262 -8.524,-8.447 2.815,-2.841 8.524,8.446 z m -11.365,-11.262 -8.524,-8.447 2.815,-2.841 8.524,8.446 z m -11.366,-11.262 -8.523,-8.447 2.815,-2.841 8.524,8.446 z m -11.365,-11.262 -8.523,-8.447 2.815,-2.841 8.524,8.446 z m -11.365,-11.263 -8.524,-8.446 2.816,-2.841 8.524,8.446 z m -11.365,-11.262 -8.524,-8.446 2.816,-2.841 8.524,8.446 z m -11.365,-11.262 -8.524,-8.446 2.816,-2.841 8.523,8.446 z m -11.365,-11.262 -8.524,-8.446 2.815,-2.842 8.524,8.447 z m -11.365,-11.262 -8.524,-8.446 2.815,-2.842 8.524,8.447 z m -11.365,-11.262 -8.524,-8.446 2.815,-2.842 8.524,8.447 z m -11.366,-11.262 -6.746,-6.685 2.816,-2.841 6.746,6.685 z m -3.674,5.83 -4.485,-16.731 16.771,4.332 c 1.07,0.276 1.713,1.367 1.436,2.437 -0.276,1.069 -1.367,1.712 -2.436,1.436 l -13.451,-3.474 2.432,-2.454 3.596,13.418 c 0.286,1.067 -0.347,2.164 -1.414,2.45 -1.067,0.286 -2.163,-0.347 -2.449,-1.414 z"
       fill="#4472c4"
       id="path71" />
    <path
       d="m 349.58454,429.55315 8.376,8.593 -2.864,2.792 -8.376,-8.593 z m 11.168,11.458 8.376,8.593 -2.865,2.792 -8.375,-8.593 z m 11.168,11.458 8.376,8.593 -2.865,2.792 -8.376,-8.593 z m 11.168,11.457 8.375,8.594 -2.864,2.792 -8.376,-8.594 z m 11.167,11.458 8.376,8.593 -2.864,2.792 -8.376,-8.593 z m 11.168,11.458 8.376,8.593 -2.864,2.792 -8.376,-8.593 z m 11.168,11.458 6.208,6.37 -2.864,2.791 -6.209,-6.369 z m 3.354,-6.198 4.193,16.806 -16.693,-4.622 c -1.064,-0.295 -1.688,-1.397 -1.394,-2.462 0.295,-1.064 1.397,-1.688 2.462,-1.393 l 13.388,3.707 -2.474,2.412 -3.363,-13.479 c -0.268,-1.072 0.384,-2.158 1.456,-2.425 1.072,-0.267 2.157,0.385 2.425,1.456 z"
       fill="#c00000"
       id="path73" />
    <path
       d="m 699.33554,280.69315 c 1.386,0 2.662,0.157 3.828,0.469 l -0.765,3.531 h -1.641 c -0.021,-0.791 -0.086,-1.364 -0.195,-1.718 -0.109,-0.355 -0.287,-0.62 -0.531,-0.797 -0.245,-0.177 -0.591,-0.266 -1.039,-0.266 -1.052,0 -1.998,0.419 -2.836,1.258 -0.839,0.838 -1.524,2.026 -2.055,3.562 -0.531,1.537 -0.797,3.013 -0.797,4.43 0,1.063 0.208,1.852 0.625,2.367 0.417,0.516 1.042,0.774 1.875,0.774 0.948,0 1.768,-0.18 2.461,-0.539 0.693,-0.36 1.425,-0.925 2.195,-1.696 l 0.953,0.953 c -0.979,1.084 -1.966,1.875 -2.96,2.375 -0.995,0.5 -2.066,0.75 -3.211,0.75 -1.511,0 -2.657,-0.448 -3.438,-1.343 -0.781,-0.896 -1.172,-2.198 -1.172,-3.907 0,-1.114 0.209,-2.338 0.625,-3.671 0.417,-1.334 1.026,-2.506 1.828,-3.516 0.802,-1.011 1.74,-1.766 2.813,-2.266 1.073,-0.5 2.219,-0.75 3.437,-0.75 z"
       fill-rule="evenodd"
       id="path75" />
    <text
       fill="#000000"
       fill-opacity="0"
       font-family="Arial, Arial_MSFontService, sans-serif"
       font-size="15.4531px"
       x="690.63251"
       y="294.21515"
       id="text77">ğ‘</text>
    <path
       d="m 709.71854,280.67815 c 0.667,0 1.193,0.224 1.579,0.672 0.385,0.447 0.578,1.052 0.578,1.812 0,0.823 -0.162,1.849 -0.485,3.078 l -0.687,2.703 c -0.177,0.688 -0.305,1.224 -0.383,1.61 -0.078,0.385 -0.135,0.718 -0.172,1 -0.036,0.281 -0.055,0.515 -0.055,0.703 0,0.719 0.12,1.237 0.36,1.554 0.239,0.318 0.63,0.477 1.172,0.477 0.437,0 0.909,-0.174 1.414,-0.523 0.505,-0.349 1.041,-0.875 1.609,-1.579 0.568,-0.703 1.024,-1.385 1.367,-2.046 0.344,-0.662 0.625,-1.477 0.844,-2.446 l 1.484,-6.765 h 2.704 l -2.282,9.906 c -0.229,1 -0.343,1.771 -0.343,2.312 0,0.417 0.067,0.719 0.203,0.907 0.135,0.187 0.349,0.281 0.64,0.281 0.313,0 0.646,-0.128 1,-0.383 0.355,-0.255 0.855,-0.742 1.5,-1.461 l 0.891,0.875 c -0.948,1.011 -1.755,1.724 -2.422,2.141 -0.667,0.416 -1.375,0.625 -2.125,0.625 -0.646,0 -1.161,-0.214 -1.547,-0.641 -0.385,-0.427 -0.578,-0.995 -0.578,-1.703 0,-0.562 0.125,-1.177 0.375,-1.844 l -0.187,-0.062 c -1.032,1.448 -2.008,2.515 -2.93,3.203 -0.922,0.687 -1.867,1.031 -2.836,1.031 -0.969,0 -1.714,-0.279 -2.234,-0.836 -0.521,-0.557 -0.782,-1.331 -0.782,-2.32 0,-0.656 0.151,-1.589 0.453,-2.797 l 1.016,-4.094 c 0.281,-1.135 0.422,-1.937 0.422,-2.406 0,-0.417 -0.068,-0.719 -0.203,-0.906 -0.136,-0.188 -0.349,-0.281 -0.641,-0.281 -0.323,0 -0.664,0.132 -1.023,0.398 -0.36,0.266 -0.852,0.747 -1.477,1.445 l -0.89,-0.875 c 0.885,-0.896 1.552,-1.51 2,-1.843 0.448,-0.334 0.877,-0.571 1.289,-0.711 0.411,-0.141 0.872,-0.211 1.382,-0.211 z"
       fill-rule="evenodd"
       id="path79" />
    <text
       fill="#000000"
       fill-opacity="0"
       font-family="Arial, Arial_MSFontService, sans-serif"
       font-size="15.4531px"
       x="705.04755"
       y="294.19916"
       id="text81">ğ‘¢</text>
    <path
       d="m 719.07854,270.69315 3.922,3.391 v 0.906 l -3.922,3.391 -0.828,-0.938 2.5,-2.172 h -5.023 -4.509 -4.866 v -1.468 h 4.866 4.509 5.023 l -2.5,-2.172 z"
       fill-rule="evenodd"
       id="path83" />
    <path
       d="m 732.86554,288.80315 h 11.813 c 0.187,0 0.333,0.088 0.437,0.265 0.104,0.177 0.156,0.459 0.156,0.844 0,0.417 -0.059,0.703 -0.179,0.859 -0.12,0.157 -0.258,0.235 -0.414,0.235 h -11.813 c -0.156,0 -0.292,-0.078 -0.406,-0.235 -0.115,-0.156 -0.172,-0.442 -0.172,-0.859 0,-0.385 0.052,-0.667 0.156,-0.844 0.104,-0.177 0.245,-0.265 0.422,-0.265 z m 0,-6.063 h 11.813 c 0.187,0 0.333,0.089 0.437,0.266 0.104,0.177 0.156,0.453 0.156,0.828 0,0.417 -0.059,0.706 -0.179,0.867 -0.12,0.162 -0.258,0.242 -0.414,0.242 h -11.813 c -0.156,0 -0.292,-0.08 -0.406,-0.242 -0.115,-0.161 -0.172,-0.45 -0.172,-0.867 0,-0.375 0.052,-0.651 0.156,-0.828 0.104,-0.177 0.245,-0.266 0.422,-0.266 z"
       fill-rule="evenodd"
       id="path85" />
    <text
       fill="#000000"
       fill-opacity="0"
       font-family="Arial, Arial_MSFontService, sans-serif"
       font-size="8.26562px"
       x="732.28754"
       y="289.97314"
       id="text87">=</text>
    <path
       d="m 764.16254,280.69315 c 1.385,0 2.661,0.157 3.828,0.469 l -0.765,3.531 h -1.641 c -0.021,-0.791 -0.086,-1.364 -0.195,-1.718 -0.11,-0.355 -0.287,-0.62 -0.532,-0.797 -0.244,-0.177 -0.591,-0.266 -1.039,-0.266 -1.052,0 -1.997,0.419 -2.836,1.258 -0.838,0.838 -1.523,2.026 -2.054,3.562 -0.532,1.537 -0.797,3.013 -0.797,4.43 0,1.063 0.208,1.852 0.625,2.367 0.416,0.516 1.041,0.774 1.875,0.774 0.948,0 1.768,-0.18 2.461,-0.539 0.692,-0.36 1.424,-0.925 2.195,-1.696 l 0.953,0.953 c -0.979,1.084 -1.966,1.875 -2.961,2.375 -0.995,0.5 -2.065,0.75 -3.211,0.75 -1.51,0 -2.656,-0.448 -3.437,-1.343 -0.781,-0.896 -1.172,-2.198 -1.172,-3.907 0,-1.114 0.208,-2.338 0.625,-3.671 0.417,-1.334 1.026,-2.506 1.828,-3.516 0.802,-1.011 1.74,-1.766 2.813,-2.266 1.072,-0.5 2.218,-0.75 3.437,-0.75 z"
       fill-rule="evenodd"
       id="path89" />
    <text
       fill="#000000"
       fill-opacity="0"
       font-family="Arial, Arial_MSFontService, sans-serif"
       font-size="15.4531px"
       x="755.45953"
       y="294.21515"
       id="text91">ğ‘</text>
    <path
       d="m 825.73554,218.35615 h 9.219 v 136.781 h -9.219 v -1.781 h 5.781 v -133.219 h -5.781 z m -47.341,0 h 9.219 v 1.781 h -5.781 v 133.219 h 5.781 v 1.781 h -9.219 z"
       fill-rule="evenodd"
       id="path93" />
    <path
       d="m 796.63854,222.74415 c 0.667,0 1.193,0.224 1.579,0.672 0.385,0.448 0.578,1.052 0.578,1.813 0,0.823 -0.162,1.849 -0.485,3.078 l -0.687,2.703 c -0.177,0.687 -0.305,1.224 -0.383,1.609 -0.078,0.386 -0.135,0.719 -0.172,1 -0.036,0.282 -0.055,0.516 -0.055,0.703 0,0.719 0.12,1.237 0.36,1.555 0.239,0.318 0.63,0.477 1.172,0.477 0.437,0 0.909,-0.175 1.414,-0.524 0.505,-0.349 1.041,-0.875 1.609,-1.578 0.568,-0.703 1.024,-1.385 1.367,-2.047 0.344,-0.661 0.625,-1.476 0.844,-2.445 l 1.484,-6.766 h 2.704 l -2.282,9.907 c -0.229,1 -0.343,1.77 -0.343,2.312 0,0.417 0.067,0.719 0.203,0.906 0.135,0.188 0.349,0.282 0.64,0.282 0.313,0 0.646,-0.128 1,-0.383 0.355,-0.255 0.855,-0.742 1.5,-1.461 l 0.891,0.875 c -0.948,1.01 -1.755,1.724 -2.422,2.14 -0.667,0.417 -1.375,0.625 -2.125,0.625 -0.646,0 -1.161,-0.213 -1.547,-0.64 -0.385,-0.427 -0.578,-0.995 -0.578,-1.703 0,-0.563 0.125,-1.177 0.375,-1.844 l -0.187,-0.063 c -1.032,1.448 -2.008,2.516 -2.93,3.204 -0.922,0.687 -1.867,1.031 -2.836,1.031 -0.969,0 -1.714,-0.279 -2.234,-0.836 -0.521,-0.557 -0.782,-1.331 -0.782,-2.32 0,-0.657 0.151,-1.589 0.453,-2.797 l 1.016,-4.094 c 0.281,-1.135 0.422,-1.938 0.422,-2.406 0,-0.417 -0.068,-0.719 -0.203,-0.907 -0.136,-0.187 -0.349,-0.281 -0.641,-0.281 -0.323,0 -0.664,0.133 -1.023,0.399 -0.36,0.265 -0.852,0.747 -1.477,1.445 l -0.89,-0.875 c 0.885,-0.896 1.552,-1.51 2,-1.844 0.448,-0.333 0.877,-0.57 1.289,-0.711 0.411,-0.14 0.872,-0.211 1.382,-0.211 z"
       fill-rule="evenodd"
       id="path95" />
    <text
       fill="#000000"
       fill-opacity="0"
       font-family="Arial, Arial_MSFontService, sans-serif"
       font-size="15.4531px"
       x="791.96753"
       y="236.26616"
       id="text97">ğ‘¢</text>
    <path
       d="m 816.54954,230.78715 h 0.564 c -0.041,0.656 -0.062,1.565 -0.062,2.727 v 8.757 c 0,0.397 0.023,0.696 0.067,0.897 0.044,0.202 0.123,0.366 0.236,0.493 0.113,0.126 0.275,0.225 0.487,0.297 0.212,0.072 0.478,0.126 0.8,0.164 0.321,0.038 0.745,0.063 1.271,0.077 v 0.748 h -7.577 v -0.748 c 0.758,-0.034 1.3,-0.08 1.625,-0.139 0.325,-0.058 0.572,-0.145 0.743,-0.261 0.171,-0.116 0.296,-0.28 0.374,-0.492 0.079,-0.212 0.118,-0.557 0.118,-1.036 v -8.316 c 0,-0.273 -0.047,-0.473 -0.143,-0.6 -0.096,-0.126 -0.236,-0.189 -0.421,-0.189 -0.218,0 -0.529,0.112 -0.933,0.338 -0.403,0.226 -0.902,0.537 -1.497,0.933 l -0.451,-0.789 z"
       fill-rule="evenodd"
       id="path99" />
    <text
       fill="#000000"
       fill-opacity="0"
       font-family="Arial, Arial_MSFontService, sans-serif"
       font-size="14.1606px"
       x="811.75055"
       y="243.17715"
       id="text101">1</text>
    <path
       d="m 796.63854,260.25815 c 0.667,0 1.193,0.224 1.579,0.671 0.385,0.448 0.578,1.053 0.578,1.813 0,0.823 -0.162,1.849 -0.485,3.078 l -0.687,2.703 c -0.177,0.688 -0.305,1.224 -0.383,1.61 -0.078,0.385 -0.135,0.718 -0.172,1 -0.036,0.281 -0.055,0.515 -0.055,0.703 0,0.718 0.12,1.237 0.36,1.554 0.239,0.318 0.63,0.477 1.172,0.477 0.437,0 0.909,-0.174 1.414,-0.523 0.505,-0.349 1.041,-0.875 1.609,-1.579 0.568,-0.703 1.024,-1.385 1.367,-2.046 0.344,-0.662 0.625,-1.477 0.844,-2.446 l 1.484,-6.765 h 2.704 l -2.282,9.906 c -0.229,1 -0.343,1.771 -0.343,2.312 0,0.417 0.067,0.719 0.203,0.907 0.135,0.187 0.349,0.281 0.64,0.281 0.313,0 0.646,-0.128 1,-0.383 0.355,-0.255 0.855,-0.742 1.5,-1.461 l 0.891,0.875 c -0.948,1.011 -1.755,1.724 -2.422,2.141 -0.667,0.416 -1.375,0.625 -2.125,0.625 -0.646,0 -1.161,-0.214 -1.547,-0.641 -0.385,-0.427 -0.578,-0.995 -0.578,-1.703 0,-0.563 0.125,-1.177 0.375,-1.844 l -0.187,-0.062 c -1.032,1.448 -2.008,2.515 -2.93,3.203 -0.922,0.687 -1.867,1.031 -2.836,1.031 -0.969,0 -1.714,-0.279 -2.234,-0.836 -0.521,-0.557 -0.782,-1.331 -0.782,-2.32 0,-0.656 0.151,-1.589 0.453,-2.797 l 1.016,-4.094 c 0.281,-1.135 0.422,-1.937 0.422,-2.406 0,-0.417 -0.068,-0.719 -0.203,-0.906 -0.136,-0.188 -0.349,-0.282 -0.641,-0.282 -0.323,0 -0.664,0.133 -1.023,0.399 -0.36,0.266 -0.852,0.747 -1.477,1.445 l -0.89,-0.875 c 0.885,-0.896 1.552,-1.51 2,-1.844 0.448,-0.333 0.877,-0.57 1.289,-0.71 0.411,-0.141 0.872,-0.211 1.382,-0.211 z"
       fill-rule="evenodd"
       id="path103" />
    <text
       fill="#000000"
       fill-opacity="0"
       font-family="Arial, Arial_MSFontService, sans-serif"
       font-size="15.4531px"
       x="791.96753"
       y="273.77914"
       id="text105">ğ‘¢</text>
    <path
       d="m 815.82154,268.30015 c 1.271,0 2.232,0.279 2.881,0.836 0.65,0.557 0.974,1.365 0.974,2.425 0,0.362 -0.036,0.695 -0.107,1 -0.072,0.304 -0.185,0.605 -0.339,0.902 -0.154,0.297 -0.36,0.617 -0.62,0.959 -0.26,0.341 -0.547,0.688 -0.861,1.04 -0.315,0.353 -0.858,0.939 -1.631,1.759 -1.299,1.374 -2.252,2.574 -2.861,3.599 h 3.866 c 0.335,0 0.605,-0.02 0.81,-0.061 0.205,-0.041 0.369,-0.11 0.492,-0.205 0.123,-0.096 0.221,-0.221 0.293,-0.375 0.071,-0.154 0.162,-0.391 0.271,-0.712 h 0.872 l -0.174,2.994 h -8.439 v -0.492 c 0.294,-0.718 0.69,-1.453 1.189,-2.205 0.499,-0.752 1.207,-1.637 2.123,-2.656 0.793,-0.875 1.363,-1.538 1.712,-1.989 0.383,-0.492 0.668,-0.918 0.856,-1.277 0.188,-0.359 0.323,-0.697 0.405,-1.015 0.082,-0.318 0.123,-0.637 0.123,-0.959 0,-0.512 -0.082,-0.965 -0.246,-1.358 -0.164,-0.393 -0.415,-0.703 -0.753,-0.928 -0.339,-0.226 -0.764,-0.339 -1.277,-0.339 -1.278,0 -2.14,0.711 -2.584,2.133 h -1.241 v -1.968 c 0.827,-0.39 1.602,-0.672 2.323,-0.846 0.721,-0.175 1.369,-0.262 1.943,-0.262 z"
       fill-rule="evenodd"
       id="path107" />
    <text
       fill="#000000"
       fill-opacity="0"
       font-family="Arial, Arial_MSFontService, sans-serif"
       font-size="14.1606px"
       x="811.24854"
       y="280.69116"
       id="text109">2</text>
    <path
       d="m 806.64054,309.19315 c 0.542,0 0.995,0.19 1.36,0.57 0.364,0.38 0.547,0.862 0.547,1.445 0,0.584 -0.183,1.066 -0.547,1.446 -0.365,0.38 -0.818,0.57 -1.36,0.57 -0.541,0 -0.994,-0.19 -1.359,-0.57 -0.365,-0.38 -0.547,-0.862 -0.547,-1.446 0,-0.583 0.182,-1.065 0.547,-1.445 0.365,-0.38 0.818,-0.57 1.359,-0.57 z m 0,-8.313 c 0.542,0 0.995,0.19 1.36,0.571 0.364,0.38 0.547,0.862 0.547,1.445 0,0.583 -0.183,1.065 -0.547,1.445 -0.365,0.38 -0.818,0.571 -1.36,0.571 -0.541,0 -0.994,-0.191 -1.359,-0.571 -0.365,-0.38 -0.547,-0.862 -0.547,-1.445 0,-0.583 0.182,-1.065 0.547,-1.445 0.365,-0.381 0.818,-0.571 1.359,-0.571 z m 0,-8.312 c 0.542,0 0.995,0.19 1.36,0.57 0.364,0.38 0.547,0.862 0.547,1.445 0,0.584 -0.183,1.066 -0.547,1.446 -0.365,0.38 -0.818,0.57 -1.36,0.57 -0.541,0 -0.994,-0.19 -1.359,-0.57 -0.365,-0.38 -0.547,-0.862 -0.547,-1.446 0,-0.583 0.182,-1.065 0.547,-1.445 0.365,-0.38 0.818,-0.57 1.359,-0.57 z"
       fill-rule="evenodd"
       id="path111" />
    <text
       fill="#000000"
       fill-opacity="0"
       font-family="Arial, Arial_MSFontService, sans-serif"
       font-size="20.6562px"
       x="804.7345"
       y="310.64215"
       id="text113">â‹®</text>
    <path
       d="m 793.36554,335.28415 c 0.667,0 1.193,0.224 1.578,0.672 0.386,0.448 0.578,1.052 0.578,1.813 0,0.823 -0.161,1.849 -0.484,3.078 l -0.687,2.703 c -0.178,0.687 -0.305,1.224 -0.383,1.609 -0.078,0.386 -0.136,0.719 -0.172,1 -0.037,0.282 -0.055,0.516 -0.055,0.703 0,0.719 0.12,1.237 0.36,1.555 0.239,0.318 0.63,0.477 1.171,0.477 0.438,0 0.909,-0.175 1.414,-0.524 0.506,-0.349 1.042,-0.875 1.61,-1.578 0.568,-0.703 1.023,-1.385 1.367,-2.047 0.344,-0.661 0.625,-1.476 0.844,-2.445 l 1.484,-6.766 h 2.703 l -2.281,9.907 c -0.229,1 -0.344,1.77 -0.344,2.312 0,0.417 0.068,0.719 0.203,0.906 0.136,0.188 0.349,0.282 0.641,0.282 0.313,0 0.646,-0.128 1,-0.383 0.354,-0.255 0.854,-0.742 1.5,-1.461 l 0.891,0.875 c -0.948,1.01 -1.756,1.724 -2.422,2.14 -0.667,0.417 -1.375,0.625 -2.125,0.625 -0.646,0 -1.162,-0.213 -1.547,-0.64 -0.386,-0.427 -0.578,-0.995 -0.578,-1.703 0,-0.563 0.125,-1.177 0.375,-1.844 l -0.188,-0.063 c -1.031,1.448 -2.008,2.516 -2.929,3.204 -0.922,0.687 -1.868,1.031 -2.836,1.031 -0.969,0 -1.714,-0.279 -2.235,-0.836 -0.521,-0.557 -0.781,-1.331 -0.781,-2.32 0,-0.657 0.151,-1.589 0.453,-2.797 l 1.016,-4.094 c 0.281,-1.135 0.422,-1.938 0.422,-2.406 0,-0.417 -0.068,-0.719 -0.203,-0.907 -0.136,-0.187 -0.349,-0.281 -0.641,-0.281 -0.323,0 -0.664,0.133 -1.024,0.399 -0.359,0.265 -0.851,0.747 -1.476,1.445 l -0.891,-0.875 c 0.886,-0.896 1.552,-1.51 2,-1.844 0.448,-0.333 0.878,-0.57 1.289,-0.711 0.412,-0.14 0.873,-0.211 1.383,-0.211 z"
       fill-rule="evenodd"
       id="path115" />
    <text
       fill="#000000"
       fill-opacity="0"
       font-family="Arial, Arial_MSFontService, sans-serif"
       font-size="15.4531px"
       x="788.69354"
       y="348.80615"
       id="text117">ğ‘¢</text>
    <path
       d="m 809.88254,347.51015 c 0.43,0 0.77,0.142 1.02,0.426 0.249,0.284 0.374,0.654 0.374,1.112 0,0.376 -0.079,0.776 -0.236,1.2 l 0.123,0.041 c 0.629,-0.936 1.255,-1.632 1.877,-2.086 0.622,-0.455 1.251,-0.682 1.886,-0.682 0.657,0 1.156,0.186 1.498,0.558 0.341,0.373 0.512,0.911 0.512,1.615 v 0.144 c 0,0.048 -0.003,0.099 -0.01,0.154 0.588,-0.834 1.174,-1.455 1.759,-1.861 0.584,-0.407 1.191,-0.61 1.82,-0.61 0.629,0 1.114,0.181 1.456,0.543 0.341,0.362 0.512,0.872 0.512,1.528 0,0.431 -0.099,1.042 -0.297,1.835 l -0.667,2.687 c -0.184,0.745 -0.276,1.271 -0.276,1.579 0,0.273 0.044,0.472 0.133,0.595 0.089,0.123 0.229,0.184 0.42,0.184 0.205,0 0.424,-0.083 0.657,-0.251 0.232,-0.167 0.56,-0.487 0.984,-0.959 l 0.584,0.575 c -0.587,0.622 -1.1,1.08 -1.538,1.374 -0.437,0.294 -0.936,0.44 -1.497,0.44 -0.444,0 -0.8,-0.158 -1.066,-0.476 -0.267,-0.318 -0.4,-0.723 -0.4,-1.215 0,-0.445 0.113,-1.098 0.338,-1.959 l 0.452,-1.774 c 0.164,-0.642 0.271,-1.118 0.323,-1.425 0.051,-0.308 0.076,-0.557 0.076,-0.749 0,-0.471 -0.078,-0.811 -0.235,-1.02 -0.158,-0.208 -0.414,-0.313 -0.769,-0.313 -0.288,0 -0.595,0.108 -0.923,0.323 -0.328,0.216 -0.674,0.551 -1.036,1.005 -0.362,0.455 -0.658,0.903 -0.887,1.343 -0.229,0.441 -0.412,0.98 -0.549,1.615 l -0.933,4.481 h -1.774 l 1.18,-5.209 c 0.143,-0.635 0.241,-1.105 0.292,-1.409 0.051,-0.305 0.077,-0.566 0.077,-0.785 0,-0.492 -0.087,-0.842 -0.262,-1.051 -0.174,-0.208 -0.446,-0.313 -0.815,-0.313 -0.26,0 -0.555,0.108 -0.887,0.323 -0.331,0.216 -0.685,0.561 -1.061,1.036 -0.376,0.475 -0.67,0.931 -0.882,1.369 -0.212,0.437 -0.39,0.971 -0.533,1.599 l -0.974,4.44 h -1.774 l 1.497,-6.501 c 0.15,-0.656 0.225,-1.162 0.225,-1.517 0,-0.274 -0.044,-0.472 -0.133,-0.595 -0.089,-0.123 -0.229,-0.184 -0.42,-0.184 -0.212,0 -0.436,0.087 -0.672,0.261 -0.236,0.174 -0.559,0.491 -0.969,0.949 l -0.584,-0.575 c 0.601,-0.629 1.119,-1.088 1.553,-1.379 0.434,-0.29 0.911,-0.436 1.431,-0.436 z"
       fill-rule="evenodd"
       id="path119" />
    <text
       fill="#000000"
       fill-opacity="0"
       font-family="Arial, Arial_MSFontService, sans-serif"
       font-size="10.1411px"
       x="806.8985"
       y="356.38416"
       id="text121">ğ‘š</text>
    <text
       font-family="Calibri, Calibri_MSFontService, sans-serif"
       font-weight="400"
       font-size="32px"
       id="text123"
       x="845.68555"
       y="295.94916">=</text>
    <path
       d="m 934.42154,218.35615 h 9.219 v 136.781 h -9.219 v -1.781 h 5.782 v -133.219 h -5.782 z m -62.007,0 h 9.219 v 1.781 h -5.781 v 133.219 h 5.781 v 1.781 h -9.219 z"
       fill-rule="evenodd"
       id="path125" />
    <path
       d="m 895.95554,222.75315 c 1.386,0 2.662,0.157 3.828,0.469 l -0.765,3.531 h -1.641 c -0.021,-0.791 -0.086,-1.364 -0.195,-1.718 -0.109,-0.355 -0.287,-0.62 -0.531,-0.797 -0.245,-0.177 -0.591,-0.266 -1.039,-0.266 -1.052,0 -1.998,0.419 -2.836,1.258 -0.839,0.838 -1.524,2.026 -2.055,3.562 -0.531,1.537 -0.797,3.013 -0.797,4.43 0,1.063 0.208,1.852 0.625,2.367 0.417,0.516 1.042,0.774 1.875,0.774 0.948,0 1.768,-0.18 2.461,-0.539 0.693,-0.36 1.425,-0.925 2.195,-1.696 l 0.953,0.953 c -0.979,1.084 -1.966,1.875 -2.96,2.375 -0.995,0.5 -2.066,0.75 -3.211,0.75 -1.511,0 -2.657,-0.448 -3.438,-1.343 -0.781,-0.896 -1.172,-2.198 -1.172,-3.907 0,-1.114 0.209,-2.338 0.625,-3.671 0.417,-1.334 1.026,-2.506 1.828,-3.516 0.802,-1.011 1.74,-1.766 2.813,-2.266 1.073,-0.5 2.219,-0.75 3.437,-0.75 z"
       fill-rule="evenodd"
       id="path127" />
    <text
       fill="#000000"
       fill-opacity="0"
       font-family="Arial, Arial_MSFontService, sans-serif"
       font-size="15.4531px"
       x="887.2525"
       y="236.27516"
       id="text129">ğ‘</text>
    <path
       d="m 905.32554,222.73815 c 0.667,0 1.193,0.224 1.578,0.672 0.386,0.447 0.578,1.052 0.578,1.812 0,0.823 -0.161,1.849 -0.484,3.078 l -0.687,2.703 c -0.178,0.688 -0.305,1.224 -0.383,1.61 -0.078,0.385 -0.136,0.718 -0.172,1 -0.037,0.281 -0.055,0.515 -0.055,0.703 0,0.719 0.12,1.237 0.36,1.554 0.239,0.318 0.63,0.477 1.171,0.477 0.438,0 0.909,-0.174 1.414,-0.523 0.506,-0.349 1.042,-0.875 1.61,-1.579 0.568,-0.703 1.023,-1.385 1.367,-2.046 0.344,-0.662 0.625,-1.477 0.844,-2.446 l 1.484,-6.765 h 2.703 l -2.281,9.906 c -0.229,1 -0.344,1.771 -0.344,2.312 0,0.417 0.068,0.719 0.203,0.907 0.136,0.187 0.349,0.281 0.641,0.281 0.313,0 0.646,-0.128 1,-0.383 0.354,-0.255 0.854,-0.742 1.5,-1.461 l 0.891,0.875 c -0.948,1.011 -1.756,1.724 -2.422,2.141 -0.667,0.416 -1.375,0.625 -2.125,0.625 -0.646,0 -1.162,-0.214 -1.547,-0.641 -0.386,-0.427 -0.578,-0.995 -0.578,-1.703 0,-0.562 0.125,-1.177 0.375,-1.844 l -0.188,-0.062 c -1.031,1.448 -2.008,2.515 -2.929,3.203 -0.922,0.687 -1.868,1.031 -2.836,1.031 -0.969,0 -1.714,-0.279 -2.235,-0.836 -0.521,-0.557 -0.781,-1.331 -0.781,-2.32 0,-0.656 0.151,-1.589 0.453,-2.797 l 1.016,-4.094 c 0.281,-1.135 0.422,-1.937 0.422,-2.406 0,-0.417 -0.068,-0.719 -0.203,-0.906 -0.136,-0.188 -0.349,-0.281 -0.641,-0.281 -0.323,0 -0.664,0.132 -1.024,0.398 -0.359,0.266 -0.851,0.747 -1.476,1.445 l -0.891,-0.875 c 0.886,-0.896 1.552,-1.51 2,-1.843 0.448,-0.334 0.878,-0.571 1.289,-0.711 0.412,-0.141 0.873,-0.211 1.383,-0.211 z"
       fill-rule="evenodd"
       id="path131" />
    <text
       fill="#000000"
       fill-opacity="0"
       font-family="Arial, Arial_MSFontService, sans-serif"
       font-size="15.4531px"
       x="900.6535"
       y="236.25916"
       id="text133">ğ‘¢</text>
    <path
       d="m 925.23654,230.78015 h 0.564 c -0.041,0.656 -0.062,1.566 -0.062,2.728 v 8.756 c 0,0.397 0.022,0.696 0.067,0.898 0.044,0.201 0.123,0.365 0.236,0.492 0.112,0.126 0.275,0.225 0.487,0.297 0.212,0.072 0.478,0.127 0.799,0.164 0.322,0.038 0.746,0.064 1.272,0.077 v 0.749 h -7.578 v -0.749 c 0.759,-0.034 1.301,-0.08 1.626,-0.138 0.324,-0.058 0.572,-0.145 0.743,-0.262 0.171,-0.116 0.296,-0.28 0.374,-0.492 0.079,-0.212 0.118,-0.557 0.118,-1.036 v -8.315 c 0,-0.274 -0.048,-0.474 -0.143,-0.6 -0.096,-0.127 -0.236,-0.19 -0.421,-0.19 -0.219,0 -0.53,0.113 -0.933,0.338 -0.403,0.226 -0.902,0.537 -1.497,0.934 l -0.451,-0.79 z"
       fill-rule="evenodd"
       id="path135" />
    <text
       fill="#000000"
       fill-opacity="0"
       font-family="Arial, Arial_MSFontService, sans-serif"
       font-size="14.1606px"
       x="920.4375"
       y="243.17116"
       id="text137">1</text>
    <path
       d="m 895.95554,260.26715 c 1.386,0 2.662,0.156 3.828,0.468 l -0.765,3.532 h -1.641 c -0.021,-0.792 -0.086,-1.365 -0.195,-1.719 -0.109,-0.354 -0.287,-0.62 -0.531,-0.797 -0.245,-0.177 -0.591,-0.266 -1.039,-0.266 -1.052,0 -1.998,0.42 -2.836,1.258 -0.839,0.839 -1.524,2.026 -2.055,3.563 -0.531,1.536 -0.797,3.013 -0.797,4.429 0,1.063 0.208,1.852 0.625,2.368 0.417,0.515 1.042,0.773 1.875,0.773 0.948,0 1.768,-0.18 2.461,-0.539 0.693,-0.359 1.425,-0.925 2.195,-1.695 l 0.953,0.953 c -0.979,1.083 -1.966,1.875 -2.96,2.375 -0.995,0.5 -2.066,0.75 -3.211,0.75 -1.511,0 -2.657,-0.448 -3.438,-1.344 -0.781,-0.896 -1.172,-2.198 -1.172,-3.906 0,-1.115 0.209,-2.339 0.625,-3.672 0.417,-1.333 1.026,-2.505 1.828,-3.516 0.802,-1.01 1.74,-1.765 2.813,-2.265 1.073,-0.5 2.219,-0.75 3.437,-0.75 z"
       fill-rule="evenodd"
       id="path139" />
    <text
       fill="#000000"
       fill-opacity="0"
       font-family="Arial, Arial_MSFontService, sans-serif"
       font-size="15.4531px"
       x="887.2525"
       y="273.78815"
       id="text141">ğ‘</text>
    <path
       d="m 905.32554,260.25115 c 0.667,0 1.193,0.224 1.578,0.672 0.386,0.448 0.578,1.052 0.578,1.812 0,0.823 -0.161,1.849 -0.484,3.078 l -0.687,2.704 c -0.178,0.687 -0.305,1.224 -0.383,1.609 -0.078,0.385 -0.136,0.719 -0.172,1 -0.037,0.281 -0.055,0.516 -0.055,0.703 0,0.719 0.12,1.237 0.36,1.555 0.239,0.318 0.63,0.476 1.171,0.476 0.438,0 0.909,-0.174 1.414,-0.523 0.506,-0.349 1.042,-0.875 1.61,-1.578 0.568,-0.703 1.023,-1.386 1.367,-2.047 0.344,-0.662 0.625,-1.477 0.844,-2.445 l 1.484,-6.766 h 2.703 l -2.281,9.906 c -0.229,1 -0.344,1.771 -0.344,2.313 0,0.416 0.068,0.718 0.203,0.906 0.136,0.187 0.349,0.281 0.641,0.281 0.313,0 0.646,-0.127 1,-0.383 0.354,-0.255 0.854,-0.742 1.5,-1.461 l 0.891,0.875 c -0.948,1.011 -1.756,1.724 -2.422,2.141 -0.667,0.417 -1.375,0.625 -2.125,0.625 -0.646,0 -1.162,-0.213 -1.547,-0.641 -0.386,-0.427 -0.578,-0.994 -0.578,-1.703 0,-0.562 0.125,-1.177 0.375,-1.843 l -0.188,-0.063 c -1.031,1.448 -2.008,2.516 -2.929,3.203 -0.922,0.688 -1.868,1.031 -2.836,1.031 -0.969,0 -1.714,-0.278 -2.235,-0.835 -0.521,-0.558 -0.781,-1.331 -0.781,-2.321 0,-0.656 0.151,-1.588 0.453,-2.797 l 1.016,-4.093 c 0.281,-1.136 0.422,-1.938 0.422,-2.407 0,-0.416 -0.068,-0.718 -0.203,-0.906 -0.136,-0.187 -0.349,-0.281 -0.641,-0.281 -0.323,0 -0.664,0.133 -1.024,0.398 -0.359,0.266 -0.851,0.748 -1.476,1.446 l -0.891,-0.875 c 0.886,-0.896 1.552,-1.511 2,-1.844 0.448,-0.333 0.878,-0.57 1.289,-0.711 0.412,-0.141 0.873,-0.211 1.383,-0.211 z"
       fill-rule="evenodd"
       id="path143" />
    <text
       fill="#000000"
       fill-opacity="0"
       font-family="Arial, Arial_MSFontService, sans-serif"
       font-size="15.4531px"
       x="900.6535"
       y="273.77216"
       id="text145">ğ‘¢</text>
    <path
       d="m 924.50854,268.29315 c 1.271,0 2.232,0.279 2.881,0.836 0.649,0.557 0.974,1.366 0.974,2.425 0,0.362 -0.036,0.696 -0.108,1 -0.071,0.304 -0.184,0.605 -0.338,0.902 -0.154,0.298 -0.361,0.617 -0.62,0.959 -0.26,0.342 -0.547,0.689 -0.862,1.041 -0.314,0.352 -0.858,0.938 -1.63,1.758 -1.299,1.374 -2.252,2.574 -2.861,3.599 h 3.866 c 0.335,0 0.605,-0.02 0.81,-0.061 0.205,-0.041 0.369,-0.109 0.492,-0.205 0.123,-0.096 0.221,-0.221 0.292,-0.374 0.072,-0.154 0.163,-0.392 0.272,-0.713 h 0.872 l -0.175,2.994 h -8.439 v -0.492 c 0.294,-0.718 0.691,-1.453 1.19,-2.205 0.499,-0.752 1.206,-1.637 2.122,-2.655 0.793,-0.875 1.364,-1.539 1.713,-1.99 0.383,-0.492 0.668,-0.917 0.856,-1.276 0.188,-0.359 0.323,-0.698 0.405,-1.015 0.082,-0.318 0.123,-0.638 0.123,-0.959 0,-0.513 -0.082,-0.966 -0.246,-1.359 -0.164,-0.393 -0.415,-0.702 -0.754,-0.928 -0.338,-0.225 -0.764,-0.338 -1.276,-0.338 -1.279,0 -2.14,0.711 -2.584,2.133 h -1.241 v -1.969 c 0.827,-0.39 1.601,-0.672 2.322,-0.846 0.722,-0.174 1.369,-0.262 1.944,-0.262 z"
       fill-rule="evenodd"
       id="path147" />
    <text
       fill="#000000"
       fill-opacity="0"
       font-family="Arial, Arial_MSFontService, sans-serif"
       font-size="14.1606px"
       x="919.93451"
       y="280.68414"
       id="text149">2</text>
    <path
       d="m 907.99454,309.18615 c 0.541,0 0.994,0.19 1.359,0.57 0.365,0.381 0.547,0.862 0.547,1.446 0,0.583 -0.182,1.065 -0.547,1.445 -0.365,0.38 -0.818,0.57 -1.359,0.57 -0.542,0 -0.995,-0.19 -1.36,-0.57 -0.364,-0.38 -0.547,-0.862 -0.547,-1.445 0,-0.584 0.183,-1.065 0.547,-1.446 0.365,-0.38 0.818,-0.57 1.36,-0.57 z m 0,-8.312 c 0.541,0 0.994,0.19 1.359,0.57 0.365,0.38 0.547,0.862 0.547,1.445 0,0.584 -0.182,1.065 -0.547,1.446 -0.365,0.38 -0.818,0.57 -1.359,0.57 -0.542,0 -0.995,-0.19 -1.36,-0.57 -0.364,-0.381 -0.547,-0.862 -0.547,-1.446 0,-0.583 0.183,-1.065 0.547,-1.445 0.365,-0.38 0.818,-0.57 1.36,-0.57 z m 0,-8.313 c 0.541,0 0.994,0.19 1.359,0.57 0.365,0.381 0.547,0.862 0.547,1.446 0,0.583 -0.182,1.065 -0.547,1.445 -0.365,0.38 -0.818,0.57 -1.359,0.57 -0.542,0 -0.995,-0.19 -1.36,-0.57 -0.364,-0.38 -0.547,-0.862 -0.547,-1.445 0,-0.584 0.183,-1.065 0.547,-1.446 0.365,-0.38 0.818,-0.57 1.36,-0.57 z"
       fill-rule="evenodd"
       id="path151" />
    <text
       fill="#000000"
       fill-opacity="0"
       font-family="Arial, Arial_MSFontService, sans-serif"
       font-size="20.6562px"
       x="906.08752"
       y="310.63516"
       id="text153">â‹®</text>
    <path
       d="m 892.68254,335.29315 c 1.385,0 2.661,0.157 3.828,0.469 l -0.765,3.531 h -1.641 c -0.021,-0.791 -0.086,-1.364 -0.195,-1.718 -0.11,-0.355 -0.287,-0.62 -0.532,-0.797 -0.244,-0.177 -0.591,-0.266 -1.039,-0.266 -1.052,0 -1.997,0.419 -2.836,1.258 -0.838,0.838 -1.523,2.026 -2.054,3.562 -0.532,1.537 -0.797,3.013 -0.797,4.43 0,1.063 0.208,1.852 0.625,2.367 0.416,0.516 1.041,0.774 1.875,0.774 0.948,0 1.768,-0.18 2.461,-0.539 0.692,-0.36 1.424,-0.925 2.195,-1.696 l 0.953,0.953 c -0.979,1.084 -1.966,1.875 -2.961,2.375 -0.995,0.5 -2.065,0.75 -3.211,0.75 -1.51,0 -2.656,-0.448 -3.437,-1.343 -0.781,-0.896 -1.172,-2.198 -1.172,-3.907 0,-1.114 0.208,-2.338 0.625,-3.671 0.417,-1.334 1.026,-2.506 1.828,-3.516 0.802,-1.011 1.74,-1.766 2.813,-2.266 1.072,-0.5 2.218,-0.75 3.437,-0.75 z"
       fill-rule="evenodd"
       id="path155" />
    <text
       fill="#000000"
       fill-opacity="0"
       font-family="Arial, Arial_MSFontService, sans-serif"
       font-size="15.4531px"
       x="883.97955"
       y="348.81516"
       id="text157">ğ‘</text>
    <path
       d="m 902.05254,335.27815 c 0.666,0 1.192,0.224 1.578,0.672 0.385,0.447 0.578,1.052 0.578,1.812 0,0.823 -0.161,1.849 -0.484,3.078 l -0.688,2.703 c -0.177,0.688 -0.305,1.224 -0.383,1.61 -0.078,0.385 -0.135,0.718 -0.172,1 -0.036,0.281 -0.054,0.515 -0.054,0.703 0,0.719 0.12,1.237 0.359,1.554 0.24,0.318 0.63,0.477 1.172,0.477 0.438,0 0.909,-0.174 1.414,-0.523 0.505,-0.349 1.042,-0.875 1.609,-1.579 0.568,-0.703 1.024,-1.385 1.368,-2.046 0.343,-0.662 0.625,-1.477 0.843,-2.446 l 1.485,-6.765 h 2.703 l -2.281,9.906 c -0.23,1 -0.344,1.771 -0.344,2.312 0,0.417 0.068,0.719 0.203,0.907 0.135,0.187 0.349,0.281 0.641,0.281 0.312,0 0.645,-0.128 1,-0.383 0.354,-0.255 0.854,-0.742 1.5,-1.461 l 0.89,0.875 c -0.948,1.011 -1.755,1.724 -2.422,2.141 -0.666,0.416 -1.375,0.625 -2.125,0.625 -0.645,0 -1.161,-0.214 -1.546,-0.641 -0.386,-0.427 -0.579,-0.995 -0.579,-1.703 0,-0.562 0.125,-1.177 0.375,-1.844 l -0.187,-0.062 c -1.031,1.448 -2.008,2.515 -2.93,3.203 -0.922,0.687 -1.867,1.031 -2.836,1.031 -0.968,0 -1.713,-0.279 -2.234,-0.836 -0.521,-0.557 -0.781,-1.331 -0.781,-2.32 0,-0.656 0.151,-1.589 0.453,-2.797 l 1.015,-4.094 c 0.282,-1.135 0.422,-1.937 0.422,-2.406 0,-0.417 -0.067,-0.719 -0.203,-0.906 -0.135,-0.188 -0.349,-0.281 -0.64,-0.281 -0.323,0 -0.665,0.132 -1.024,0.398 -0.359,0.266 -0.851,0.747 -1.476,1.445 l -0.891,-0.875 c 0.885,-0.896 1.552,-1.51 2,-1.843 0.448,-0.334 0.878,-0.571 1.289,-0.711 0.411,-0.141 0.872,-0.211 1.383,-0.211 z"
       fill-rule="evenodd"
       id="path159" />
    <text
       fill="#000000"
       fill-opacity="0"
       font-family="Arial, Arial_MSFontService, sans-serif"
       font-size="15.4531px"
       x="897.38055"
       y="348.79916"
       id="text161">ğ‘¢</text>
    <path
       d="m 918.56854,347.50415 c 0.431,0 0.771,0.142 1.021,0.425 0.249,0.284 0.374,0.655 0.374,1.113 0,0.376 -0.079,0.776 -0.236,1.2 l 0.123,0.041 c 0.629,-0.937 1.254,-1.633 1.876,-2.087 0.623,-0.455 1.251,-0.682 1.887,-0.682 0.656,0 1.155,0.186 1.497,0.559 0.342,0.372 0.513,0.911 0.513,1.615 v 0.143 c 0,0.048 -0.003,0.099 -0.01,0.154 0.588,-0.834 1.174,-1.454 1.758,-1.861 0.585,-0.407 1.191,-0.61 1.82,-0.61 0.629,0 1.115,0.181 1.456,0.543 0.342,0.363 0.513,0.872 0.513,1.528 0,0.431 -0.099,1.043 -0.297,1.836 l -0.667,2.686 c -0.184,0.745 -0.277,1.272 -0.277,1.579 0,0.274 0.045,0.472 0.134,0.595 0.089,0.123 0.229,0.185 0.42,0.185 0.205,0 0.424,-0.084 0.656,-0.252 0.233,-0.167 0.561,-0.487 0.985,-0.958 l 0.584,0.574 c -0.588,0.622 -1.1,1.08 -1.538,1.374 -0.437,0.294 -0.936,0.441 -1.497,0.441 -0.444,0 -0.8,-0.159 -1.066,-0.477 -0.267,-0.318 -0.4,-0.723 -0.4,-1.215 0,-0.444 0.112,-1.097 0.338,-1.959 l 0.451,-1.773 c 0.164,-0.643 0.272,-1.118 0.323,-1.426 0.051,-0.307 0.077,-0.557 0.077,-0.748 0,-0.472 -0.078,-0.812 -0.236,-1.021 -0.157,-0.208 -0.413,-0.312 -0.769,-0.312 -0.287,0 -0.594,0.107 -0.923,0.323 -0.328,0.215 -0.673,0.55 -1.035,1.005 -0.363,0.454 -0.658,0.902 -0.887,1.343 -0.229,0.441 -0.412,0.979 -0.549,1.615 l -0.933,4.481 h -1.774 l 1.179,-5.209 c 0.144,-0.636 0.241,-1.106 0.293,-1.41 0.051,-0.304 0.077,-0.566 0.077,-0.785 0,-0.492 -0.088,-0.842 -0.262,-1.051 -0.174,-0.208 -0.446,-0.312 -0.815,-0.312 -0.26,0 -0.556,0.107 -0.887,0.323 -0.332,0.215 -0.685,0.56 -1.061,1.035 -0.376,0.475 -0.67,0.932 -0.882,1.369 -0.212,0.438 -0.39,0.971 -0.533,1.6 l -0.975,4.44 h -1.773 l 1.497,-6.501 c 0.15,-0.656 0.225,-1.162 0.225,-1.518 0,-0.273 -0.044,-0.471 -0.133,-0.595 -0.089,-0.123 -0.229,-0.184 -0.421,-0.184 -0.211,0 -0.435,0.087 -0.671,0.261 -0.236,0.175 -0.559,0.491 -0.969,0.949 l -0.585,-0.574 c 0.602,-0.629 1.12,-1.089 1.554,-1.379 0.434,-0.291 0.911,-0.436 1.43,-0.436 z"
       fill-rule="evenodd"
       id="path163" />
    <text
       fill="#000000"
       fill-opacity="0"
       font-family="Arial, Arial_MSFontService, sans-serif"
       font-size="10.1411px"
       x="915.58453"
       y="356.37717"
       id="text165">ğ‘š</text>
    <text
       font-family="Calibri, Calibri_MSFontService, sans-serif"
       font-weight="400"
       font-size="32px"
       id="text171"
       x="194.42055"
       y="401.94916">(<tspan
   font-size="32px"
   x="204.08722"
   y="401.94916"
   id="tspan167">-</tspan><tspan
   font-size="32px"
   x="213.92055"
   y="401.94916"
   id="tspan169">1, 1)</tspan></text>
    <path
       d="m 344.10854,429.60515 -71.509,-69.462 2.787,-2.869 71.509,69.461 z m -68.312,-56.978 -4.651,-16.684 16.813,4.164 c 1.072,0.266 1.726,1.35 1.461,2.422 -0.266,1.072 -1.35,1.726 -2.422,1.461 l -13.485,-3.34 2.407,-2.479 3.73,13.382 c 0.297,1.064 -0.325,2.167 -1.389,2.464 -1.064,0.297 -2.167,-0.326 -2.464,-1.39 z"
       fill="#44546a"
       id="path173" />
    <text
       fill="#4472c4"
       font-family="'Cambria Math', 'Cambria Math_MSFontService', sans-serif"
       font-weight="400"
       font-size="27px"
       id="text175"
       x="628.57153"
       y="441.94916">3</text>
    <path
       d="m 686.35154,411.81015 h 6.276 v 44.297 h -6.276 v -1.147 h 3.837 v -42.003 h -3.837 z m -35.507,0 h 6.275 v 1.147 h -3.836 v 42.003 h 3.836 v 1.147 h -6.275 z"
       fill-rule="evenodd"
       id="path177" />
    <text
       font-family="Calibri, Calibri_MSFontService, sans-serif"
       font-weight="400"
       font-size="27px"
       id="text185"
       x="657.59155"
       y="426.94916">âˆ’<tspan
   font-family="'Cambria Math', 'Cambria Math_MSFontService', sans-serif"
   font-size="27px"
   x="670.92487"
   y="426.94916"
   id="tspan179">1</tspan><tspan
   font-family="'Cambria Math', 'Cambria Math_MSFontService', sans-serif"
   font-size="27px"
   x="664.25824"
   y="458.94916"
   id="tspan181">1</tspan><tspan
   font-family="'Cambria Math', 'Cambria Math_MSFontService', sans-serif"
   font-size="27px"
   x="702.90497"
   y="441.94916"
   id="tspan183">=</tspan></text>
    <path
       d="m 769.17854,407.10315 h 6.631 v 53.71 h -6.631 v -1.213 h 4.047 v -51.284 h -4.047 z m -35.861,0 h 6.632 v 1.213 h -4.048 v 51.284 h 4.048 v 1.213 h -6.632 z"
       fill-rule="evenodd"
       id="path187" />
    <text
       font-family="Calibri, Calibri_MSFontService, sans-serif"
       font-weight="400"
       font-size="27px"
       id="text197"
       x="740.41852"
       y="426.94916">âˆ’<tspan
   font-family="'Cambria Math', 'Cambria Math_MSFontService', sans-serif"
   font-size="27px"
   x="753.75183"
   y="426.94916"
   id="tspan189">3</tspan><tspan
   font-family="'Cambria Math', 'Cambria Math_MSFontService', sans-serif"
   font-size="27px"
   x="747.08521"
   y="458.94916"
   id="tspan191">3</tspan><tspan
   fill="#c00000"
   font-family="'Cambria Math', 'Cambria Math_MSFontService', sans-serif"
   font-size="27px"
   x="608.86652"
   y="506.94916"
   id="tspan193">âˆ’</tspan><tspan
   fill="#c00000"
   font-family="'Cambria Math', 'Cambria Math_MSFontService', sans-serif"
   font-size="27px"
   x="628.86652"
   y="506.94916"
   id="tspan195">1</tspan></text>
    <path
       d="m 686.64654,477.01315 h 6.275 v 44.297 h -6.275 v -1.147 h 3.836 v -42.003 h -3.836 z m -35.508,0 h 6.276 v 1.147 h -3.837 v 42.003 h 3.837 v 1.147 h -6.276 z"
       fill-rule="evenodd"
       id="path199" />
    <text
       font-family="Calibri, Calibri_MSFontService, sans-serif"
       font-weight="400"
       font-size="27px"
       id="text207"
       x="657.88654"
       y="492.94916">âˆ’<tspan
   font-family="'Cambria Math', 'Cambria Math_MSFontService', sans-serif"
   font-size="27px"
   x="671.21985"
   y="492.94916"
   id="tspan201">1</tspan><tspan
   font-family="'Cambria Math', 'Cambria Math_MSFontService', sans-serif"
   font-size="27px"
   x="664.55322"
   y="523.94916"
   id="tspan203">1</tspan><tspan
   font-family="'Cambria Math', 'Cambria Math_MSFontService', sans-serif"
   font-size="27px"
   x="703.19995"
   y="506.94916"
   id="tspan205">=</tspan></text>
    <path
       d="m 769.10654,477.01315 h 6.275 v 44.297 h -6.275 v -1.147 h 3.836 v -42.003 h -3.836 z m -35.508,0 h 6.276 v 1.147 h -3.837 v 42.003 h 3.837 v 1.147 h -6.276 z"
       fill-rule="evenodd"
       id="path209" />
    <text
       font-family="'Cambria Math', 'Cambria Math_MSFontService', sans-serif"
       font-weight="400"
       font-size="27px"
       id="text231"
       x="747.01251"
       y="492.94916">1<tspan
   font-family="Calibri, Calibri_MSFontService, sans-serif"
   font-size="27px"
   x="740.34589"
   y="523.94916"
   id="tspan211">âˆ’</tspan><tspan
   font-size="27px"
   x="753.67926"
   y="523.94916"
   id="tspan213">1</tspan><tspan
   font-family="Calibri, Calibri_MSFontService, sans-serif"
   font-size="32px"
   x="61.254547"
   y="186.94916"
   id="tspan215">(</tspan><tspan
   font-family="Calibri, Calibri_MSFontService, sans-serif"
   font-size="32px"
   x="70.920563"
   y="186.94916"
   id="tspan217">-</tspan><tspan
   font-family="Calibri, Calibri_MSFontService, sans-serif"
   font-size="32px"
   x="80.754547"
   y="186.94916"
   id="tspan219">3, 1)</tspan><tspan
   font-family="Calibri, Calibri_MSFontService, sans-serif"
   font-size="32px"
   x="411.03455"
   y="543.94916"
   id="tspan221">(1,</tspan><tspan
   font-family="Calibri, Calibri_MSFontService, sans-serif"
   font-size="32px"
   x="452.03455"
   y="543.94916"
   id="tspan223">-</tspan><tspan
   font-family="Calibri, Calibri_MSFontService, sans-serif"
   font-size="32px"
   x="461.86755"
   y="543.94916"
   id="tspan225">1)</tspan><tspan
   font-size="24px"
   x="794.42926"
   y="443.94916"
   id="tspan227">ğ‘</tspan><tspan
   font-size="24px"
   x="806.18927"
   y="443.94916"
   id="tspan229">ğ‘¢</tspan></text>
    <path
       d="m 817.07754,425.03515 2.941,2.543 v 0.68 l -2.941,2.542 -0.621,-0.703 1.875,-1.629 h -3.937 -3.212 -3.82 v -1.101 h 3.82 3.212 3.937 l -1.875,-1.629 z"
       fill-rule="evenodd"
       id="path233" />
    <text
       font-family="'Cambria Math', 'Cambria Math_MSFontService', sans-serif"
       font-weight="400"
       font-size="24px"
       id="text239"
       x="820.62952"
       y="443.94916"><tspan
         font-family="Calibri, Calibri_MSFontService, sans-serif"
         font-size="24px"
         x="825.96289"
         y="443.94916"
         id="tspan235">is 3 times as long as</tspan><tspan
         font-size="24px"
         x="1023.7966"
         y="443.94916"
         id="tspan237">ğ‘¢</tspan></text>
    <path
       d="m 1034.6825,425.03515 2.94,2.543 v 0.68 l -2.94,2.542 -0.62,-0.703 1.88,-1.629 h -3.94 -3.21 -3.82 v -1.101 h 3.82 3.21 3.94 l -1.88,-1.629 z"
       fill-rule="evenodd"
       id="path241" />
    <text
       font-family="'Cambria Math', 'Cambria Math_MSFontService', sans-serif"
       font-weight="400"
       font-size="24px"
       id="text245"
       x="799.62054"
       y="505.94916">ğ‘<tspan
   font-size="24px"
   x="811.38055"
   y="505.94916"
   id="tspan243">ğ‘¢</tspan></text>
    <path
       d="m 822.26854,487.27615 2.942,2.543 v 0.679 l -2.942,2.543 -0.621,-0.703 1.875,-1.629 h -3.937 -3.211 -3.82 v -1.101 h 3.82 3.211 3.937 l -1.875,-1.629 z"
       fill-rule="evenodd"
       id="path247" />
    <text
       font-family="'Cambria Math', 'Cambria Math_MSFontService', sans-serif"
       font-weight="400"
       font-size="24px"
       id="text251"
       x="825.82056"
       y="505.94916"><tspan
   font-family="Calibri, Calibri_MSFontService, sans-serif"
   font-size="24px"
   x="831.15393"
   y="505.94916"
   id="tspan249">is in the reverse direction of<tspan
   style="fill:#ffffff"
   id="tspan691">i</tspan></tspan>ğ‘¢</text>
    <path
       d="m 1119.6525,487.27615 2.94,2.543 v 0.679 l -2.94,2.543 -0.62,-0.703 1.87,-1.629 h -3.94 -3.21 -3.82 v -1.101 h 3.82 3.21 3.94 l -1.87,-1.629 z"
       fill-rule="evenodd"
       id="path253" />
  </g>
</svg>
