<?xml version="1.0" encoding="UTF-8" standalone="no"?>
<svg
   width="1280"
   height="640"
   overflow="hidden"
   version="1.1"
   id="svg357"
   sodipodi:docname="linear_systems-inverse_matrix.svg"
   inkscape:version="1.2 (dc2aedaf03, 2022-05-15)"
   xmlns:inkscape="http://www.inkscape.org/namespaces/inkscape"
   xmlns:sodipodi="http://sodipodi.sourceforge.net/DTD/sodipodi-0.dtd"
   xmlns="http://www.w3.org/2000/svg"
   xmlns:svg="http://www.w3.org/2000/svg">
  <sodipodi:namedview
     id="namedview359"
     pagecolor="#ffffff"
     bordercolor="#000000"
     borderopacity="0.25"
     inkscape:showpageshadow="2"
     inkscape:pageopacity="0.0"
     inkscape:pagecheckerboard="0"
     inkscape:deskcolor="#d1d1d1"
     showgrid="false"
     inkscape:zoom="0.65555556"
     inkscape:cx="504.15254"
     inkscape:cy="292.88136"
     inkscape:window-width="2560"
     inkscape:window-height="1494"
     inkscape:window-x="-11"
     inkscape:window-y="-11"
     inkscape:window-maximized="1"
     inkscape:current-layer="svg357" />
  <defs
     id="defs5">
    <clipPath
       id="clip0">
      <rect
         x="0"
         y="0"
         width="1280"
         height="720"
         id="rect2" />
    </clipPath>
  </defs>
  <g
     clip-path="url(#clip0)"
     id="g355"
     transform="translate(38.135593,-47.288136)">
    <rect
       x="0"
       y="0"
       width="1280"
       height="720"
       fill="#ffffff"
       id="rect7" />
    <path
       d="M 799,249.68 C 799,239.364 807.364,231 817.68,231 h 116.64 c 10.316,0 18.68,8.364 18.68,18.68 V 357.32 C 953,367.636 944.636,376 934.32,376 H 817.68 C 807.364,376 799,367.636 799,357.32 Z"
       fill="#e2f0d9"
       fill-rule="evenodd"
       id="path9" />
    <path
       d="m 824.938,240.877 h 0.685 c -0.015,0.412 -0.026,0.78 -0.033,1.106 -0.008,0.326 -0.013,0.642 -0.017,0.949 -0.004,0.307 -0.006,0.61 -0.006,0.91 v 8.535 c 0,0.232 0.008,0.432 0.023,0.601 0.015,0.168 0.039,0.31 0.073,0.427 0.033,0.116 0.078,0.215 0.134,0.297 0.057,0.082 0.122,0.154 0.197,0.214 0.09,0.089 0.21,0.159 0.359,0.207 0.15,0.049 0.341,0.09 0.573,0.124 0.232,0.034 0.511,0.06 0.837,0.078 0.326,0.019 0.717,0.032 1.173,0.04 v 0.977 h -8.905 v -0.977 c 0.441,-0.015 0.816,-0.032 1.123,-0.051 0.307,-0.019 0.569,-0.045 0.786,-0.078 0.217,-0.034 0.391,-0.072 0.522,-0.113 0.131,-0.041 0.245,-0.091 0.343,-0.151 0.104,-0.068 0.194,-0.141 0.269,-0.219 0.075,-0.079 0.135,-0.178 0.18,-0.298 0.045,-0.12 0.08,-0.266 0.106,-0.438 0.027,-0.172 0.04,-0.385 0.04,-0.64 v -8.052 c 0,-0.292 -0.056,-0.498 -0.169,-0.618 -0.112,-0.12 -0.273,-0.18 -0.483,-0.18 -0.232,0 -0.576,0.12 -1.033,0.36 -0.457,0.239 -1.048,0.595 -1.774,1.067 -0.098,-0.173 -0.187,-0.345 -0.27,-0.517 -0.082,-0.172 -0.168,-0.348 -0.258,-0.528 0.928,-0.509 1.847,-1.016 2.757,-1.522 0.91,-0.505 1.833,-1.008 2.768,-1.51 z"
       fill-rule="evenodd"
       id="path11" />
    <text
       fill="#000000"
       fill-opacity="0"
       font-family="Arial, Arial_MSFontService, sans-serif"
       font-size="14.4648px"
       x="819.41302"
       y="253.534"
       id="text13">1</text>
    <path
       d="m 827.274,265.666 h 1.011 l -0.157,2.718 h -6.581 v 4.391 c 0.397,-0.135 0.831,-0.244 1.302,-0.326 0.472,-0.082 0.948,-0.123 1.427,-0.123 0.689,0 1.312,0.095 1.87,0.286 0.557,0.191 1.037,0.464 1.437,0.82 0.401,0.355 0.711,0.786 0.932,1.291 0.221,0.506 0.332,1.073 0.332,1.702 0,0.718 -0.124,1.359 -0.371,1.92 -0.247,0.562 -0.601,1.039 -1.061,1.432 -0.461,0.393 -1.022,0.693 -1.685,0.898 -0.662,0.206 -1.409,0.309 -2.24,0.309 -0.659,0 -1.333,-0.063 -2.022,-0.191 -0.689,-0.127 -1.404,-0.314 -2.145,-0.561 v -2.493 h 1.438 c 0.224,0.756 0.561,1.297 1.01,1.622 0.45,0.326 1.041,0.489 1.775,0.489 0.981,0 1.722,-0.255 2.223,-0.764 0.502,-0.509 0.753,-1.306 0.753,-2.392 0,-1.04 -0.266,-1.813 -0.798,-2.319 -0.531,-0.505 -1.276,-0.758 -2.234,-0.758 -0.255,0 -0.485,0.004 -0.691,0.011 -0.206,0.008 -0.41,0.027 -0.612,0.056 -0.202,0.03 -0.403,0.072 -0.601,0.124 -0.198,0.052 -0.421,0.112 -0.668,0.18 l -0.921,-0.506 v -7.064 h 6.222 c 0.179,-0.007 0.323,-0.018 0.432,-0.033 0.109,-0.015 0.197,-0.049 0.264,-0.101 0.067,-0.053 0.127,-0.126 0.18,-0.219 0.052,-0.094 0.112,-0.227 0.179,-0.399 z"
       fill-rule="evenodd"
       id="path15" />
    <text
       fill="#000000"
       fill-opacity="0"
       font-family="Arial, Arial_MSFontService, sans-serif"
       font-size="15.3184px"
       x="819.323"
       y="279.069"
       id="text17">5</text>
    <path
       d="m 817.358,261.282 h 14 v 2 h -14 z"
       fill-rule="evenodd"
       id="path19" />
    <path
       d="m 879.717,248.765 c -0.719,0 -1.32,0.214 -1.805,0.641 -0.484,0.427 -0.875,1.041 -1.171,1.843 -0.297,0.803 -0.508,1.779 -0.633,2.93 -0.125,1.151 -0.188,2.451 -0.188,3.899 0,3.395 0.315,5.888 0.946,7.476 0.63,1.589 1.606,2.383 2.929,2.383 1.261,0 2.196,-0.747 2.805,-2.242 0.609,-1.495 0.914,-3.81 0.914,-6.946 0,-2.395 -0.156,-4.335 -0.469,-5.82 -0.312,-1.484 -0.747,-2.549 -1.304,-3.195 -0.558,-0.646 -1.232,-0.969 -2.024,-0.969 z m 0.078,-1.328 c 2.282,0 3.979,0.88 5.094,2.641 1.115,1.76 1.672,4.421 1.672,7.984 0,3.687 -0.596,6.477 -1.789,8.367 -1.193,1.891 -2.935,2.836 -5.227,2.836 -2.25,0 -3.924,-0.885 -5.023,-2.656 -1.099,-1.771 -1.649,-4.458 -1.649,-8.063 0,-1.916 0.17,-3.573 0.508,-4.968 0.339,-1.396 0.813,-2.55 1.422,-3.461 0.609,-0.912 1.341,-1.586 2.195,-2.024 0.855,-0.437 1.787,-0.656 2.797,-0.656 z"
       fill-rule="evenodd"
       id="path21" />
    <text
       fill="#000000"
       fill-opacity="0"
       font-family="Arial, Arial_MSFontService, sans-serif"
       font-size="21.8281px"
       x="872.87299"
       y="266.53699"
       id="text23">0</text>
    <path
       d="m 929.384,248.765 c -0.719,0 -1.32,0.214 -1.805,0.641 -0.484,0.427 -0.875,1.041 -1.172,1.843 -0.297,0.803 -0.508,1.779 -0.633,2.93 -0.125,1.151 -0.187,2.451 -0.187,3.899 0,3.395 0.315,5.888 0.945,7.476 0.63,1.589 1.607,2.383 2.93,2.383 1.26,0 2.195,-0.747 2.805,-2.242 0.609,-1.495 0.914,-3.81 0.914,-6.946 0,-2.395 -0.157,-4.335 -0.469,-5.82 -0.313,-1.484 -0.747,-2.549 -1.305,-3.195 -0.557,-0.646 -1.231,-0.969 -2.023,-0.969 z m 0.078,-1.328 c 2.281,0 3.979,0.88 5.094,2.641 1.114,1.76 1.672,4.421 1.672,7.984 0,3.687 -0.597,6.477 -1.789,8.367 -1.193,1.891 -2.935,2.836 -5.227,2.836 -2.25,0 -3.925,-0.885 -5.023,-2.656 -1.099,-1.771 -1.649,-4.458 -1.649,-8.063 0,-1.916 0.169,-3.573 0.508,-4.968 0.338,-1.396 0.812,-2.55 1.422,-3.461 0.609,-0.912 1.341,-1.586 2.195,-2.024 0.854,-0.437 1.787,-0.656 2.797,-0.656 z"
       fill-rule="evenodd"
       id="path25" />
    <text
       fill="#000000"
       fill-opacity="0"
       font-family="Arial, Arial_MSFontService, sans-serif"
       font-size="21.8281px"
       x="922.53998"
       y="266.53699"
       id="text27">0</text>
    <path
       d="m 811.139,295.868 h 12.313 c 0.187,0 0.33,0.089 0.429,0.266 0.099,0.177 0.149,0.458 0.149,0.843 0,0.386 -0.05,0.667 -0.149,0.844 -0.099,0.177 -0.242,0.266 -0.429,0.266 h -12.313 c -0.198,0 -0.346,-0.089 -0.445,-0.266 -0.099,-0.177 -0.149,-0.458 -0.149,-0.844 0,-0.375 0.05,-0.653 0.149,-0.836 0.099,-0.182 0.247,-0.273 0.445,-0.273 z"
       fill-rule="evenodd"
       id="path29" />
    <text
       fill="#000000"
       fill-opacity="0"
       font-family="Arial, Arial_MSFontService, sans-serif"
       font-size="2.21875px"
       x="810.54498"
       y="297.80899"
       id="text31">−</text>
    <path
       d="m 832.062,291.418 c 0.779,0 1.443,0.088 1.994,0.264 0.55,0.176 0.997,0.414 1.342,0.713 0.344,0.3 0.593,0.659 0.747,1.079 0.153,0.419 0.23,0.872 0.23,1.358 0,0.292 -0.021,0.564 -0.062,0.815 -0.041,0.25 -0.112,0.498 -0.213,0.741 -0.101,0.243 -0.234,0.488 -0.399,0.735 -0.165,0.247 -0.371,0.51 -0.618,0.787 -0.187,0.239 -0.43,0.516 -0.73,0.831 -0.299,0.314 -0.627,0.651 -0.982,1.01 -0.356,0.36 -0.728,0.734 -1.118,1.123 -0.389,0.39 -0.767,0.775 -1.134,1.157 -0.367,0.382 -0.704,0.753 -1.011,1.112 -0.307,0.359 -0.558,0.689 -0.752,0.988 h 4.155 c 0.352,0 0.633,-0.013 0.842,-0.039 0.21,-0.026 0.384,-0.084 0.523,-0.174 0.138,-0.09 0.256,-0.227 0.353,-0.41 0.098,-0.184 0.21,-0.436 0.337,-0.758 h 1.045 c -0.038,0.531 -0.073,1.067 -0.107,1.606 -0.034,0.539 -0.069,1.074 -0.107,1.606 h -9.512 v -0.584 c 0.18,-0.404 0.389,-0.803 0.629,-1.196 0.24,-0.393 0.509,-0.792 0.809,-1.196 0.299,-0.405 0.64,-0.822 1.022,-1.252 0.381,-0.431 0.804,-0.878 1.269,-1.343 0.703,-0.703 1.276,-1.304 1.718,-1.802 0.442,-0.498 0.79,-0.942 1.044,-1.331 0.255,-0.389 0.429,-0.749 0.523,-1.078 0.093,-0.329 0.14,-0.681 0.14,-1.056 0,-0.381 -0.054,-0.733 -0.163,-1.055 -0.108,-0.322 -0.264,-0.595 -0.466,-0.82 -0.202,-0.225 -0.459,-0.401 -0.769,-0.528 -0.311,-0.127 -0.668,-0.191 -1.073,-0.191 -0.696,0 -1.28,0.189 -1.752,0.567 -0.471,0.378 -0.838,0.927 -1.1,1.646 h -1.471 v -2.19 c 0.958,-0.397 1.839,-0.685 2.644,-0.865 0.805,-0.18 1.53,-0.27 2.173,-0.27 z"
       fill-rule="evenodd"
       id="path33" />
    <text
       fill="#000000"
       fill-opacity="0"
       font-family="Arial, Arial_MSFontService, sans-serif"
       font-size="14.5435px"
       x="826.88501"
       y="304.14401"
       id="text35">2</text>
    <path
       d="m 827.274,316.286 h 1.011 l -0.157,2.718 h -6.581 v 4.391 c 0.397,-0.135 0.831,-0.244 1.302,-0.326 0.472,-0.082 0.948,-0.123 1.427,-0.123 0.689,0 1.312,0.095 1.87,0.286 0.557,0.191 1.037,0.464 1.437,0.82 0.401,0.355 0.711,0.786 0.932,1.291 0.221,0.506 0.332,1.073 0.332,1.702 0,0.718 -0.124,1.359 -0.371,1.92 -0.247,0.562 -0.601,1.039 -1.061,1.432 -0.461,0.393 -1.022,0.693 -1.685,0.898 -0.662,0.206 -1.409,0.309 -2.24,0.309 -0.659,0 -1.333,-0.063 -2.022,-0.191 -0.689,-0.127 -1.404,-0.314 -2.145,-0.561 v -2.493 h 1.438 c 0.224,0.756 0.561,1.297 1.01,1.622 0.45,0.326 1.041,0.489 1.775,0.489 0.981,0 1.722,-0.255 2.223,-0.764 0.502,-0.509 0.753,-1.306 0.753,-2.392 0,-1.04 -0.266,-1.813 -0.798,-2.319 -0.531,-0.505 -1.276,-0.758 -2.234,-0.758 -0.255,0 -0.485,0.004 -0.691,0.011 -0.206,0.008 -0.41,0.027 -0.612,0.056 -0.202,0.03 -0.403,0.072 -0.601,0.124 -0.198,0.052 -0.421,0.112 -0.668,0.18 l -0.921,-0.506 v -7.064 h 6.222 c 0.179,-0.007 0.323,-0.018 0.432,-0.033 0.109,-0.015 0.197,-0.049 0.264,-0.101 0.067,-0.053 0.127,-0.126 0.18,-0.219 0.052,-0.094 0.112,-0.227 0.179,-0.399 z"
       fill-rule="evenodd"
       id="path37" />
    <text
       fill="#000000"
       fill-opacity="0"
       font-family="Arial, Arial_MSFontService, sans-serif"
       font-size="15.3184px"
       x="819.323"
       y="329.689"
       id="text39">5</text>
    <path
       d="m 809.358,312.282 h 30 v 2 h -30 z"
       fill-rule="evenodd"
       id="path41" />
    <path
       d="m 880.952,298.057 h 0.859 c -0.063,1 -0.094,2.385 -0.094,4.156 v 13.344 c 0,0.604 0.034,1.06 0.102,1.367 0.067,0.307 0.187,0.557 0.359,0.75 0.172,0.193 0.419,0.344 0.742,0.453 0.323,0.11 0.729,0.193 1.219,0.25 0.49,0.058 1.135,0.097 1.938,0.118 v 1.14 H 874.53 v -1.14 c 1.156,-0.053 1.981,-0.123 2.476,-0.211 0.495,-0.089 0.873,-0.222 1.133,-0.399 0.26,-0.177 0.451,-0.427 0.57,-0.75 0.12,-0.323 0.18,-0.849 0.18,-1.578 v -12.672 c 0,-0.417 -0.073,-0.721 -0.219,-0.914 -0.146,-0.193 -0.359,-0.289 -0.64,-0.289 -0.334,0 -0.808,0.172 -1.422,0.516 -0.615,0.343 -1.375,0.817 -2.281,1.422 l -0.688,-1.204 z"
       fill-rule="evenodd"
       id="path43" />
    <text
       fill="#000000"
       fill-opacity="0"
       font-family="Arial, Arial_MSFontService, sans-serif"
       font-size="21.5781px"
       x="873.63898"
       y="316.93799"
       id="text45">1</text>
    <path
       d="m 929.384,299.385 c -0.719,0 -1.32,0.214 -1.805,0.641 -0.484,0.427 -0.875,1.041 -1.172,1.844 -0.297,0.802 -0.508,1.778 -0.633,2.929 -0.125,1.151 -0.187,2.451 -0.187,3.899 0,3.395 0.315,5.888 0.945,7.476 0.63,1.589 1.607,2.383 2.93,2.383 1.26,0 2.195,-0.747 2.805,-2.242 0.609,-1.495 0.914,-3.81 0.914,-6.945 0,-2.396 -0.157,-4.336 -0.469,-5.821 -0.313,-1.484 -0.747,-2.549 -1.305,-3.195 -0.557,-0.646 -1.231,-0.969 -2.023,-0.969 z m 0.078,-1.328 c 2.281,0 3.979,0.88 5.094,2.641 1.114,1.76 1.672,4.422 1.672,7.984 0,3.688 -0.597,6.477 -1.789,8.367 -1.193,1.891 -2.935,2.836 -5.227,2.836 -2.25,0 -3.925,-0.885 -5.023,-2.656 -1.099,-1.771 -1.649,-4.458 -1.649,-8.063 0,-1.916 0.169,-3.573 0.508,-4.968 0.338,-1.396 0.812,-2.55 1.422,-3.461 0.609,-0.912 1.341,-1.586 2.195,-2.024 0.854,-0.437 1.787,-0.656 2.797,-0.656 z"
       fill-rule="evenodd"
       id="path47" />
    <text
       fill="#000000"
       fill-opacity="0"
       font-family="Arial, Arial_MSFontService, sans-serif"
       font-size="21.8281px"
       x="922.53998"
       y="317.15701"
       id="text49">0</text>
    <path
       d="m 824.13,343.138 c -0.718,0 -1.32,0.214 -1.804,0.641 -0.485,0.427 -0.875,1.042 -1.172,1.844 -0.297,0.802 -0.508,1.778 -0.633,2.93 -0.125,1.151 -0.187,2.45 -0.187,3.898 0,3.396 0.315,5.888 0.945,7.477 0.63,1.588 1.607,2.382 2.93,2.382 1.26,0 2.195,-0.747 2.804,-2.242 0.61,-1.495 0.914,-3.81 0.914,-6.945 0,-2.396 -0.156,-4.336 -0.468,-5.82 -0.313,-1.485 -0.748,-2.55 -1.305,-3.196 -0.557,-0.646 -1.232,-0.969 -2.024,-0.969 z m 0.079,-1.328 c 2.281,0 3.979,0.881 5.093,2.641 1.115,1.76 1.672,4.422 1.672,7.984 0,3.688 -0.596,6.477 -1.789,8.368 -1.193,1.89 -2.935,2.835 -5.226,2.835 -2.25,0 -3.925,-0.885 -5.024,-2.656 -1.099,-1.771 -1.648,-4.458 -1.648,-8.062 0,-1.917 0.169,-3.573 0.508,-4.969 0.338,-1.396 0.812,-2.55 1.421,-3.461 0.61,-0.911 1.342,-1.586 2.196,-2.023 0.854,-0.438 1.786,-0.657 2.797,-0.657 z"
       fill-rule="evenodd"
       id="path51" />
    <text
       fill="#000000"
       fill-opacity="0"
       font-family="Arial, Arial_MSFontService, sans-serif"
       font-size="21.8281px"
       x="817.28699"
       y="360.91"
       id="text53">0</text>
    <path
       d="m 879.717,343.138 c -0.719,0 -1.32,0.214 -1.805,0.641 -0.484,0.427 -0.875,1.042 -1.171,1.844 -0.297,0.802 -0.508,1.778 -0.633,2.93 -0.125,1.151 -0.188,2.45 -0.188,3.898 0,3.396 0.315,5.888 0.946,7.477 0.63,1.588 1.606,2.382 2.929,2.382 1.261,0 2.196,-0.747 2.805,-2.242 0.609,-1.495 0.914,-3.81 0.914,-6.945 0,-2.396 -0.156,-4.336 -0.469,-5.82 -0.312,-1.485 -0.747,-2.55 -1.304,-3.196 -0.558,-0.646 -1.232,-0.969 -2.024,-0.969 z m 0.078,-1.328 c 2.282,0 3.979,0.881 5.094,2.641 1.115,1.76 1.672,4.422 1.672,7.984 0,3.688 -0.596,6.477 -1.789,8.368 -1.193,1.89 -2.935,2.835 -5.227,2.835 -2.25,0 -3.924,-0.885 -5.023,-2.656 -1.099,-1.771 -1.649,-4.458 -1.649,-8.062 0,-1.917 0.17,-3.573 0.508,-4.969 0.339,-1.396 0.813,-2.55 1.422,-3.461 0.609,-0.911 1.341,-1.586 2.195,-2.023 0.855,-0.438 1.787,-0.657 2.797,-0.657 z"
       fill-rule="evenodd"
       id="path55" />
    <text
       fill="#000000"
       fill-opacity="0"
       font-family="Arial, Arial_MSFontService, sans-serif"
       font-size="21.8281px"
       x="872.87299"
       y="360.91"
       id="text57">0</text>
    <path
       d="m 930.618,341.81 h 0.86 c -0.063,1 -0.094,2.386 -0.094,4.157 v 13.343 c 0,0.604 0.034,1.06 0.101,1.368 0.068,0.307 0.188,0.557 0.36,0.75 0.172,0.192 0.419,0.343 0.742,0.453 0.323,0.109 0.729,0.192 1.219,0.25 0.489,0.057 1.135,0.096 1.937,0.117 v 1.14 h -11.547 v -1.14 c 1.157,-0.052 1.982,-0.123 2.477,-0.211 0.495,-0.089 0.872,-0.221 1.133,-0.399 0.26,-0.177 0.45,-0.427 0.57,-0.75 0.12,-0.322 0.18,-0.849 0.18,-1.578 v -12.672 c 0,-0.416 -0.073,-0.721 -0.219,-0.914 -0.146,-0.192 -0.359,-0.289 -0.641,-0.289 -0.333,0 -0.807,0.172 -1.422,0.516 -0.614,0.344 -1.375,0.818 -2.281,1.422 l -0.687,-1.203 z"
       fill-rule="evenodd"
       id="path59" />
    <text
       fill="#000000"
       fill-opacity="0"
       font-family="Arial, Arial_MSFontService, sans-serif"
       font-size="21.5781px"
       x="923.30603"
       y="360.69101"
       id="text61">1</text>
    <text
       font-family="Calibri, Calibri_MSFontService, sans-serif"
       font-weight="400"
       font-size="43px"
       transform="translate(362.613,112)"
       id="text63">Finding the inverse matrix</text>
    <path
       d="M 523,257.717 C 523,249.037 530.037,242 538.717,242 h 103.566 c 8.68,0 15.717,7.037 15.717,15.717 v 90.566 C 658,356.963 650.963,364 642.283,364 H 538.717 C 530.037,364 523,356.963 523,348.283 Z"
       fill="#e2f0d9"
       fill-rule="evenodd"
       id="path65" />
    <path
       d="m 542.665,251.165 h 0.859 c -0.063,1 -0.094,2.385 -0.094,4.156 v 13.344 c 0,0.604 0.034,1.06 0.102,1.367 0.067,0.307 0.187,0.557 0.359,0.75 0.172,0.193 0.419,0.344 0.742,0.453 0.323,0.109 0.729,0.193 1.219,0.25 0.49,0.057 1.135,0.096 1.938,0.117 v 1.141 h -11.547 v -1.141 c 1.156,-0.052 1.981,-0.122 2.476,-0.211 0.495,-0.088 0.873,-0.221 1.133,-0.398 0.26,-0.177 0.451,-0.427 0.57,-0.75 0.12,-0.323 0.18,-0.849 0.18,-1.578 v -12.672 c 0,-0.417 -0.073,-0.721 -0.219,-0.914 -0.146,-0.193 -0.359,-0.289 -0.64,-0.289 -0.334,0 -0.808,0.172 -1.422,0.515 -0.615,0.344 -1.375,0.818 -2.281,1.422 l -0.688,-1.203 z"
       fill-rule="evenodd"
       id="path67" />
    <text
       fill="#000000"
       fill-opacity="0"
       font-family="Arial, Arial_MSFontService, sans-serif"
       font-size="21.5781px"
       x="535.35199"
       y="270.04599"
       id="text69">1</text>
    <path
       d="m 591.097,252.493 c -0.719,0 -1.32,0.213 -1.805,0.641 -0.484,0.427 -0.875,1.041 -1.172,1.843 -0.297,0.802 -0.508,1.779 -0.633,2.93 -0.125,1.151 -0.187,2.45 -0.187,3.898 0,3.396 0.315,5.888 0.945,7.477 0.63,1.588 1.607,2.383 2.93,2.383 1.26,0 2.195,-0.748 2.805,-2.242 0.609,-1.495 0.914,-3.81 0.914,-6.946 0,-2.396 -0.157,-4.336 -0.469,-5.82 -0.313,-1.484 -0.747,-2.55 -1.305,-3.195 -0.557,-0.646 -1.231,-0.969 -2.023,-0.969 z m 0.078,-1.328 c 2.281,0 3.979,0.88 5.094,2.64 1.114,1.761 1.672,4.422 1.672,7.985 0,3.687 -0.597,6.476 -1.789,8.367 -1.193,1.891 -2.935,2.836 -5.227,2.836 -2.25,0 -3.925,-0.886 -5.023,-2.656 -1.099,-1.771 -1.649,-4.459 -1.649,-8.063 0,-1.917 0.169,-3.573 0.508,-4.969 0.338,-1.395 0.812,-2.549 1.422,-3.461 0.609,-0.911 1.341,-1.585 2.195,-2.023 0.854,-0.437 1.787,-0.656 2.797,-0.656 z"
       fill-rule="evenodd"
       id="path71" />
    <text
       fill="#000000"
       fill-opacity="0"
       font-family="Arial, Arial_MSFontService, sans-serif"
       font-size="21.8281px"
       x="584.25299"
       y="270.26401"
       id="text73">0</text>
    <path
       d="m 640.764,252.493 c -0.719,0 -1.321,0.213 -1.805,0.641 -0.485,0.427 -0.875,1.041 -1.172,1.843 -0.297,0.802 -0.508,1.779 -0.633,2.93 -0.125,1.151 -0.187,2.45 -0.187,3.898 0,3.396 0.315,5.888 0.945,7.477 0.63,1.588 1.607,2.383 2.93,2.383 1.26,0 2.195,-0.748 2.804,-2.242 0.61,-1.495 0.914,-3.81 0.914,-6.946 0,-2.396 -0.156,-4.336 -0.468,-5.82 -0.313,-1.484 -0.748,-2.55 -1.305,-3.195 -0.557,-0.646 -1.232,-0.969 -2.023,-0.969 z m 0.078,-1.328 c 2.281,0 3.979,0.88 5.093,2.64 1.115,1.761 1.672,4.422 1.672,7.985 0,3.687 -0.596,6.476 -1.789,8.367 -1.192,1.891 -2.935,2.836 -5.226,2.836 -2.25,0 -3.925,-0.886 -5.024,-2.656 -1.099,-1.771 -1.648,-4.459 -1.648,-8.063 0,-1.917 0.169,-3.573 0.508,-4.969 0.338,-1.395 0.812,-2.549 1.421,-3.461 0.61,-0.911 1.342,-1.585 2.196,-2.023 0.854,-0.437 1.786,-0.656 2.797,-0.656 z"
       fill-rule="evenodd"
       id="path75" />
    <text
       fill="#000000"
       fill-opacity="0"
       font-family="Arial, Arial_MSFontService, sans-serif"
       font-size="21.8281px"
       x="633.91998"
       y="270.26401"
       id="text77">0</text>
    <path
       d="m 541.43,290.006 c -0.719,0 -1.32,0.214 -1.805,0.641 -0.484,0.427 -0.875,1.042 -1.171,1.844 -0.297,0.802 -0.508,1.778 -0.633,2.929 -0.125,1.151 -0.188,2.451 -0.188,3.899 0,3.396 0.315,5.888 0.946,7.476 0.63,1.589 1.606,2.383 2.929,2.383 1.261,0 2.196,-0.747 2.805,-2.242 0.609,-1.495 0.914,-3.81 0.914,-6.945 0,-2.396 -0.156,-4.336 -0.469,-5.821 -0.312,-1.484 -0.747,-2.549 -1.304,-3.195 -0.558,-0.646 -1.232,-0.969 -2.024,-0.969 z m 0.078,-1.328 c 2.282,0 3.979,0.88 5.094,2.641 1.115,1.76 1.672,4.422 1.672,7.984 0,3.688 -0.596,6.477 -1.789,8.367 -1.193,1.891 -2.935,2.836 -5.227,2.836 -2.25,0 -3.924,-0.885 -5.023,-2.656 -1.099,-1.771 -1.649,-4.458 -1.649,-8.063 0,-1.916 0.17,-3.572 0.508,-4.968 0.339,-1.396 0.813,-2.55 1.422,-3.461 0.609,-0.912 1.341,-1.586 2.195,-2.024 0.855,-0.437 1.787,-0.656 2.797,-0.656 z"
       fill-rule="evenodd"
       id="path79" />
    <text
       fill="#000000"
       fill-opacity="0"
       font-family="Arial, Arial_MSFontService, sans-serif"
       font-size="21.8281px"
       x="534.586"
       y="307.77802"
       id="text81">0</text>
    <path
       d="m 592.331,288.678 h 0.86 c -0.063,1 -0.094,2.386 -0.094,4.156 v 13.344 c 0,0.604 0.034,1.06 0.101,1.367 0.068,0.308 0.188,0.558 0.36,0.75 0.172,0.193 0.419,0.344 0.742,0.453 0.323,0.11 0.729,0.193 1.219,0.25 0.489,0.058 1.135,0.097 1.937,0.118 v 1.14 h -11.547 v -1.14 c 1.157,-0.052 1.982,-0.123 2.477,-0.211 0.495,-0.089 0.872,-0.222 1.133,-0.399 0.26,-0.177 0.45,-0.427 0.57,-0.75 0.12,-0.323 0.18,-0.849 0.18,-1.578 v -12.672 c 0,-0.416 -0.073,-0.721 -0.219,-0.914 -0.146,-0.193 -0.359,-0.289 -0.641,-0.289 -0.333,0 -0.807,0.172 -1.422,0.516 -0.614,0.343 -1.375,0.817 -2.281,1.422 l -0.687,-1.204 z"
       fill-rule="evenodd"
       id="path83" />
    <text
       fill="#000000"
       fill-opacity="0"
       font-family="Arial, Arial_MSFontService, sans-serif"
       font-size="21.5781px"
       x="585.01898"
       y="307.55899"
       id="text85">1</text>
    <path
       d="m 640.764,290.006 c -0.719,0 -1.321,0.214 -1.805,0.641 -0.485,0.427 -0.875,1.042 -1.172,1.844 -0.297,0.802 -0.508,1.778 -0.633,2.929 -0.125,1.151 -0.187,2.451 -0.187,3.899 0,3.396 0.315,5.888 0.945,7.476 0.63,1.589 1.607,2.383 2.93,2.383 1.26,0 2.195,-0.747 2.804,-2.242 0.61,-1.495 0.914,-3.81 0.914,-6.945 0,-2.396 -0.156,-4.336 -0.468,-5.821 -0.313,-1.484 -0.748,-2.549 -1.305,-3.195 -0.557,-0.646 -1.232,-0.969 -2.023,-0.969 z m 0.078,-1.328 c 2.281,0 3.979,0.88 5.093,2.641 1.115,1.76 1.672,4.422 1.672,7.984 0,3.688 -0.596,6.477 -1.789,8.367 -1.192,1.891 -2.935,2.836 -5.226,2.836 -2.25,0 -3.925,-0.885 -5.024,-2.656 -1.099,-1.771 -1.648,-4.458 -1.648,-8.063 0,-1.916 0.169,-3.572 0.508,-4.968 0.338,-1.396 0.812,-2.55 1.421,-3.461 0.61,-0.912 1.342,-1.586 2.196,-2.024 0.854,-0.437 1.786,-0.656 2.797,-0.656 z"
       fill-rule="evenodd"
       id="path87" />
    <text
       fill="#000000"
       fill-opacity="0"
       font-family="Arial, Arial_MSFontService, sans-serif"
       font-size="21.8281px"
       x="633.91998"
       y="307.77802"
       id="text89">0</text>
    <path
       d="m 541.43,327.52 c -0.719,0 -1.32,0.213 -1.805,0.64 -0.484,0.427 -0.875,1.042 -1.171,1.844 -0.297,0.802 -0.508,1.779 -0.633,2.93 -0.125,1.151 -0.188,2.45 -0.188,3.898 0,3.396 0.315,5.888 0.946,7.477 0.63,1.588 1.606,2.382 2.929,2.382 1.261,0 2.196,-0.747 2.805,-2.242 0.609,-1.495 0.914,-3.81 0.914,-6.945 0,-2.396 -0.156,-4.336 -0.469,-5.82 -0.312,-1.485 -0.747,-2.55 -1.304,-3.196 -0.558,-0.646 -1.232,-0.968 -2.024,-0.968 z m 0.078,-1.329 c 2.282,0 3.979,0.881 5.094,2.641 1.115,1.76 1.672,4.422 1.672,7.984 0,3.688 -0.596,6.477 -1.789,8.368 -1.193,1.89 -2.935,2.836 -5.227,2.836 -2.25,0 -3.924,-0.886 -5.023,-2.657 -1.099,-1.771 -1.649,-4.458 -1.649,-8.062 0,-1.917 0.17,-3.573 0.508,-4.969 0.339,-1.396 0.813,-2.549 1.422,-3.461 0.609,-0.911 1.341,-1.586 2.195,-2.023 0.855,-0.438 1.787,-0.657 2.797,-0.657 z"
       fill-rule="evenodd"
       id="path91" />
    <text
       fill="#000000"
       fill-opacity="0"
       font-family="Arial, Arial_MSFontService, sans-serif"
       font-size="21.8281px"
       x="534.586"
       y="345.29099"
       id="text93">0</text>
    <path
       d="m 591.097,327.52 c -0.719,0 -1.32,0.213 -1.805,0.64 -0.484,0.427 -0.875,1.042 -1.172,1.844 -0.297,0.802 -0.508,1.779 -0.633,2.93 -0.125,1.151 -0.187,2.45 -0.187,3.898 0,3.396 0.315,5.888 0.945,7.477 0.63,1.588 1.607,2.382 2.93,2.382 1.26,0 2.195,-0.747 2.805,-2.242 0.609,-1.495 0.914,-3.81 0.914,-6.945 0,-2.396 -0.157,-4.336 -0.469,-5.82 -0.313,-1.485 -0.747,-2.55 -1.305,-3.196 -0.557,-0.646 -1.231,-0.968 -2.023,-0.968 z m 0.078,-1.329 c 2.281,0 3.979,0.881 5.094,2.641 1.114,1.76 1.672,4.422 1.672,7.984 0,3.688 -0.597,6.477 -1.789,8.368 -1.193,1.89 -2.935,2.836 -5.227,2.836 -2.25,0 -3.925,-0.886 -5.023,-2.657 -1.099,-1.771 -1.649,-4.458 -1.649,-8.062 0,-1.917 0.169,-3.573 0.508,-4.969 0.338,-1.396 0.812,-2.549 1.422,-3.461 0.609,-0.911 1.341,-1.586 2.195,-2.023 0.854,-0.438 1.787,-0.657 2.797,-0.657 z"
       fill-rule="evenodd"
       id="path95" />
    <text
       fill="#000000"
       fill-opacity="0"
       font-family="Arial, Arial_MSFontService, sans-serif"
       font-size="21.8281px"
       x="584.25299"
       y="345.29099"
       id="text97">0</text>
    <path
       d="m 641.998,326.191 h 0.859 c -0.062,1 -0.093,2.386 -0.093,4.157 v 13.343 c 0,0.605 0.033,1.06 0.101,1.368 0.068,0.307 0.188,0.557 0.359,0.75 0.172,0.192 0.42,0.343 0.743,0.453 0.323,0.109 0.729,0.192 1.218,0.25 0.49,0.057 1.136,0.096 1.938,0.117 v 1.141 h -11.547 v -1.141 c 1.156,-0.052 1.982,-0.122 2.477,-0.211 0.494,-0.089 0.872,-0.221 1.132,-0.398 0.261,-0.178 0.451,-0.428 0.571,-0.75 0.12,-0.323 0.179,-0.849 0.179,-1.579 V 331.02 c 0,-0.417 -0.073,-0.722 -0.218,-0.915 -0.146,-0.192 -0.36,-0.289 -0.641,-0.289 -0.333,0 -0.807,0.172 -1.422,0.516 -0.614,0.344 -1.375,0.818 -2.281,1.422 l -0.688,-1.203 z"
       fill-rule="evenodd"
       id="path99" />
    <text
       fill="#000000"
       fill-opacity="0"
       font-family="Arial, Arial_MSFontService, sans-serif"
       font-size="21.5781px"
       x="634.685"
       y="345.07199"
       id="text101">1</text>
    <text
       font-family="Cambria, Cambria_MSFontService, sans-serif"
       font-weight="400"
       font-size="43px"
       transform="translate(582.416,213)"
       id="text103">I</text>
    <path
       d="m 718.177,290.657 c 3.75,0 8.219,1.64 13.407,4.922 5.187,3.281 9.125,4.922 11.812,4.922 2.656,0 4.875,-0.704 6.656,-2.11 1.782,-1.406 3.579,-3.594 5.391,-6.562 l 3.75,2.531 c -1.344,2.781 -3.469,5.586 -6.375,8.414 -2.906,2.828 -6.437,4.242 -10.594,4.242 -4,0 -8.57,-1.64 -13.711,-4.922 -5.14,-3.281 -9.07,-4.922 -11.789,-4.922 -2.281,0 -4.281,0.719 -6,2.157 -1.718,1.437 -3.234,3.531 -4.547,6.281 l -3.656,-2.063 c 1.594,-3.687 3.703,-6.757 6.328,-9.211 2.625,-2.453 5.735,-3.679 9.328,-3.679 z"
       fill-rule="evenodd"
       id="path105" />
    <text
       fill="#000000"
       fill-opacity="0"
       font-family="Arial, Arial_MSFontService, sans-serif"
       font-size="16.3594px"
       x="702.521"
       y="304.97101"
       id="text107">~</text>
    <text
       font-family="Calibri, Calibri_MSFontService, sans-serif"
       font-weight="400"
       font-size="43px"
       transform="translate(860.201,215)"
       id="text117">A<tspan
   font-size="28px"
   x="24.666599"
   y="-13"
   id="tspan109">-</tspan><tspan
   font-size="28px"
   x="33.333302"
   y="-13"
   id="tspan111">1</tspan><tspan
   font-size="24px"
   x="-160.05299"
   y="131"
   id="tspan113">3</tspan><tspan
   font-size="24px"
   x="-142.386"
   y="131"
   id="tspan115">EROs</tspan></text>
    <path
       d="M 237,258.717 C 237,250.037 244.037,243 252.717,243 h 104.566 c 8.68,0 15.717,7.037 15.717,15.717 v 90.566 C 373,357.963 365.963,365 357.283,365 H 252.717 C 244.037,365 237,357.963 237,349.283 Z"
       fill="#e2f0d9"
       fill-rule="evenodd"
       id="path119" />
    <path
       d="m 260.133,252.667 h 1.219 l -0.235,3.625 h -8.984 v 6.859 c 0.542,-0.229 1.13,-0.401 1.766,-0.515 0.635,-0.115 1.27,-0.172 1.906,-0.172 1.239,0 2.338,0.252 3.297,0.757 0.958,0.506 1.698,1.224 2.218,2.157 0.521,0.932 0.782,2.013 0.782,3.242 0,1.396 -0.292,2.594 -0.875,3.594 -0.584,1 -1.427,1.76 -2.532,2.281 -1.104,0.521 -2.411,0.781 -3.921,0.781 -1.803,0 -3.688,-0.37 -5.657,-1.109 v -3.313 h 1.891 c 0.312,1.063 0.784,1.844 1.414,2.344 0.63,0.5 1.445,0.75 2.445,0.75 1.386,0 2.433,-0.417 3.141,-1.25 0.708,-0.833 1.062,-2.078 1.062,-3.734 0,-1.104 -0.187,-2.019 -0.562,-2.743 -0.375,-0.723 -0.88,-1.247 -1.516,-1.57 -0.635,-0.323 -1.375,-0.484 -2.218,-0.484 -0.709,0 -1.318,0.044 -1.829,0.133 -0.51,0.088 -1.057,0.226 -1.64,0.414 l -1.25,-0.735 v -10.281 h 8.609 c 0.354,0 0.61,-0.029 0.766,-0.086 0.156,-0.057 0.281,-0.146 0.375,-0.266 0.094,-0.119 0.203,-0.346 0.328,-0.679 z"
       fill-rule="evenodd"
       id="path121" />
    <text
       fill="#000000"
       fill-opacity="0"
       font-family="Arial, Arial_MSFontService, sans-serif"
       font-size="22.6094px"
       x="249.117"
       y="272.45001"
       id="text123">5</text>
    <path
       d="m 305.3,254.776 c -0.719,0 -1.321,0.214 -1.805,0.641 -0.484,0.427 -0.875,1.041 -1.172,1.844 -0.297,0.802 -0.508,1.778 -0.633,2.929 -0.125,1.151 -0.187,2.451 -0.187,3.899 0,3.396 0.315,5.888 0.945,7.476 0.63,1.589 1.607,2.383 2.93,2.383 1.26,0 2.195,-0.747 2.804,-2.242 0.61,-1.495 0.914,-3.81 0.914,-6.945 0,-2.396 -0.156,-4.336 -0.468,-5.821 -0.313,-1.484 -0.748,-2.549 -1.305,-3.195 -0.557,-0.646 -1.232,-0.969 -2.023,-0.969 z m 0.078,-1.328 c 2.281,0 3.979,0.88 5.093,2.641 1.115,1.76 1.672,4.422 1.672,7.984 0,3.688 -0.596,6.477 -1.789,8.367 -1.192,1.891 -2.935,2.836 -5.226,2.836 -2.25,0 -3.925,-0.885 -5.024,-2.656 -1.099,-1.771 -1.648,-4.458 -1.648,-8.063 0,-1.916 0.169,-3.572 0.508,-4.968 0.338,-1.396 0.812,-2.55 1.422,-3.461 0.609,-0.912 1.341,-1.586 2.195,-2.024 0.854,-0.437 1.786,-0.656 2.797,-0.656 z"
       fill-rule="evenodd"
       id="path125" />
    <text
       fill="#000000"
       fill-opacity="0"
       font-family="Arial, Arial_MSFontService, sans-serif"
       font-size="21.8281px"
       x="298.45599"
       y="272.548"
       id="text127">0</text>
    <path
       d="m 354.966,254.776 c -0.719,0 -1.32,0.214 -1.804,0.641 -0.485,0.427 -0.875,1.041 -1.172,1.844 -0.297,0.802 -0.508,1.778 -0.633,2.929 -0.125,1.151 -0.188,2.451 -0.188,3.899 0,3.396 0.315,5.888 0.946,7.476 0.63,1.589 1.606,2.383 2.929,2.383 1.261,0 2.196,-0.747 2.805,-2.242 0.609,-1.495 0.914,-3.81 0.914,-6.945 0,-2.396 -0.156,-4.336 -0.469,-5.821 -0.312,-1.484 -0.747,-2.549 -1.304,-3.195 -0.558,-0.646 -1.232,-0.969 -2.024,-0.969 z m 0.078,-1.328 c 2.282,0 3.98,0.88 5.094,2.641 1.115,1.76 1.672,4.422 1.672,7.984 0,3.688 -0.596,6.477 -1.789,8.367 -1.193,1.891 -2.935,2.836 -5.227,2.836 -2.25,0 -3.924,-0.885 -5.023,-2.656 -1.099,-1.771 -1.649,-4.458 -1.649,-8.063 0,-1.916 0.17,-3.572 0.508,-4.968 0.339,-1.396 0.813,-2.55 1.422,-3.461 0.61,-0.912 1.341,-1.586 2.195,-2.024 0.855,-0.437 1.787,-0.656 2.797,-0.656 z"
       fill-rule="evenodd"
       id="path129" />
    <text
       fill="#000000"
       fill-opacity="0"
       font-family="Arial, Arial_MSFontService, sans-serif"
       font-size="21.8281px"
       x="348.12201"
       y="272.548"
       id="text131">0</text>
    <path
       d="m 255.758,290.961 c 1.937,0 3.401,0.425 4.391,1.274 0.989,0.849 1.484,2.081 1.484,3.695 0,0.552 -0.055,1.06 -0.164,1.524 -0.11,0.463 -0.281,0.921 -0.516,1.375 -0.234,0.453 -0.549,0.94 -0.945,1.461 -0.396,0.52 -0.833,1.049 -1.313,1.585 -0.479,0.537 -1.307,1.43 -2.484,2.68 -1.979,2.094 -3.432,3.922 -4.359,5.485 h 5.89 c 0.511,0 0.922,-0.032 1.235,-0.094 0.312,-0.063 0.562,-0.167 0.75,-0.313 0.187,-0.146 0.336,-0.336 0.445,-0.57 0.109,-0.234 0.247,-0.596 0.414,-1.086 h 1.328 l -0.265,4.563 h -12.86 v -0.75 c 0.448,-1.094 1.052,-2.214 1.813,-3.36 0.76,-1.146 1.838,-2.495 3.234,-4.047 1.208,-1.333 2.078,-2.343 2.609,-3.031 0.584,-0.75 1.019,-1.398 1.305,-1.945 0.287,-0.547 0.492,-1.063 0.617,-1.547 0.125,-0.485 0.188,-0.972 0.188,-1.461 0,-0.781 -0.125,-1.471 -0.375,-2.07 -0.25,-0.599 -0.633,-1.071 -1.149,-1.414 -0.515,-0.344 -1.164,-0.516 -1.945,-0.516 -1.948,0 -3.26,1.083 -3.937,3.25 h -1.891 v -3 c 1.26,-0.594 2.44,-1.024 3.539,-1.289 1.099,-0.266 2.086,-0.399 2.961,-0.399 z"
       fill-rule="evenodd"
       id="path133" />
    <text
       fill="#000000"
       fill-opacity="0"
       font-family="Arial, Arial_MSFontService, sans-serif"
       font-size="21.5781px"
       x="248.789"
       y="309.84201"
       id="text135">2</text>
    <path
       d="m 306.534,290.961 h 0.859 c -0.062,1 -0.093,2.386 -0.093,4.157 v 13.343 c 0,0.605 0.033,1.06 0.101,1.368 0.068,0.307 0.188,0.557 0.36,0.75 0.171,0.192 0.419,0.343 0.742,0.453 0.323,0.109 0.729,0.192 1.218,0.25 0.49,0.057 1.136,0.096 1.938,0.117 v 1.141 h -11.547 v -1.141 c 1.156,-0.052 1.982,-0.123 2.477,-0.211 0.494,-0.089 0.872,-0.221 1.132,-0.398 0.261,-0.178 0.451,-0.428 0.571,-0.75 0.12,-0.323 0.179,-0.849 0.179,-1.579 V 295.79 c 0,-0.417 -0.072,-0.722 -0.218,-0.915 -0.146,-0.192 -0.36,-0.289 -0.641,-0.289 -0.333,0 -0.807,0.172 -1.422,0.516 -0.614,0.344 -1.375,0.818 -2.281,1.422 l -0.688,-1.203 z"
       fill-rule="evenodd"
       id="path137" />
    <text
       fill="#000000"
       fill-opacity="0"
       font-family="Arial, Arial_MSFontService, sans-serif"
       font-size="21.5781px"
       x="299.22101"
       y="309.84201"
       id="text139">1</text>
    <path
       d="m 354.966,292.29 c -0.719,0 -1.32,0.213 -1.804,0.64 -0.485,0.427 -0.875,1.042 -1.172,1.844 -0.297,0.802 -0.508,1.779 -0.633,2.93 -0.125,1.151 -0.188,2.45 -0.188,3.898 0,3.396 0.315,5.888 0.946,7.477 0.63,1.588 1.606,2.382 2.929,2.382 1.261,0 2.196,-0.747 2.805,-2.242 0.609,-1.495 0.914,-3.81 0.914,-6.945 0,-2.396 -0.156,-4.336 -0.469,-5.82 -0.312,-1.485 -0.747,-2.55 -1.304,-3.196 -0.558,-0.646 -1.232,-0.968 -2.024,-0.968 z m 0.078,-1.329 c 2.282,0 3.98,0.881 5.094,2.641 1.115,1.76 1.672,4.422 1.672,7.984 0,3.688 -0.596,6.477 -1.789,8.368 -1.193,1.89 -2.935,2.836 -5.227,2.836 -2.25,0 -3.924,-0.886 -5.023,-2.657 -1.099,-1.771 -1.649,-4.458 -1.649,-8.062 0,-1.917 0.17,-3.573 0.508,-4.969 0.339,-1.396 0.813,-2.549 1.422,-3.461 0.61,-0.911 1.341,-1.586 2.195,-2.023 0.855,-0.438 1.787,-0.657 2.797,-0.657 z"
       fill-rule="evenodd"
       id="path141" />
    <text
       fill="#000000"
       fill-opacity="0"
       font-family="Arial, Arial_MSFontService, sans-serif"
       font-size="21.8281px"
       x="348.12201"
       y="310.061"
       id="text143">0</text>
    <path
       d="m 255.633,329.803 c -0.719,0 -1.32,0.213 -1.805,0.64 -0.484,0.428 -0.875,1.042 -1.172,1.844 -0.297,0.802 -0.507,1.779 -0.632,2.93 -0.125,1.151 -0.188,2.45 -0.188,3.898 0,3.396 0.315,5.888 0.945,7.477 0.631,1.588 1.607,2.383 2.93,2.383 1.26,0 2.195,-0.748 2.805,-2.242 0.609,-1.495 0.914,-3.81 0.914,-6.946 0,-2.396 -0.156,-4.336 -0.469,-5.82 -0.312,-1.484 -0.747,-2.55 -1.305,-3.195 -0.557,-0.646 -1.231,-0.969 -2.023,-0.969 z m 0.078,-1.328 c 2.281,0 3.979,0.88 5.094,2.64 1.114,1.761 1.672,4.422 1.672,7.985 0,3.687 -0.597,6.476 -1.789,8.367 -1.193,1.891 -2.935,2.836 -5.227,2.836 -2.25,0 -3.924,-0.886 -5.023,-2.656 -1.099,-1.771 -1.649,-4.459 -1.649,-8.063 0,-1.917 0.169,-3.573 0.508,-4.969 0.339,-1.395 0.812,-2.549 1.422,-3.461 0.609,-0.911 1.341,-1.586 2.195,-2.023 0.854,-0.438 1.787,-0.656 2.797,-0.656 z"
       fill-rule="evenodd"
       id="path145" />
    <text
       fill="#000000"
       fill-opacity="0"
       font-family="Arial, Arial_MSFontService, sans-serif"
       font-size="21.8281px"
       x="248.789"
       y="347.57401"
       id="text147">0</text>
    <path
       d="m 305.3,329.803 c -0.719,0 -1.321,0.213 -1.805,0.64 -0.484,0.428 -0.875,1.042 -1.172,1.844 -0.297,0.802 -0.508,1.779 -0.633,2.93 -0.125,1.151 -0.187,2.45 -0.187,3.898 0,3.396 0.315,5.888 0.945,7.477 0.63,1.588 1.607,2.383 2.93,2.383 1.26,0 2.195,-0.748 2.804,-2.242 0.61,-1.495 0.914,-3.81 0.914,-6.946 0,-2.396 -0.156,-4.336 -0.468,-5.82 -0.313,-1.484 -0.748,-2.55 -1.305,-3.195 -0.557,-0.646 -1.232,-0.969 -2.023,-0.969 z m 0.078,-1.328 c 2.281,0 3.979,0.88 5.093,2.64 1.115,1.761 1.672,4.422 1.672,7.985 0,3.687 -0.596,6.476 -1.789,8.367 -1.192,1.891 -2.935,2.836 -5.226,2.836 -2.25,0 -3.925,-0.886 -5.024,-2.656 -1.099,-1.771 -1.648,-4.459 -1.648,-8.063 0,-1.917 0.169,-3.573 0.508,-4.969 0.338,-1.395 0.812,-2.549 1.422,-3.461 0.609,-0.911 1.341,-1.586 2.195,-2.023 0.854,-0.438 1.786,-0.656 2.797,-0.656 z"
       fill-rule="evenodd"
       id="path149" />
    <text
       fill="#000000"
       fill-opacity="0"
       font-family="Arial, Arial_MSFontService, sans-serif"
       font-size="21.8281px"
       x="298.45599"
       y="347.57401"
       id="text151">0</text>
    <path
       d="m 356.201,328.475 h 0.859 c -0.063,1 -0.094,2.385 -0.094,4.156 v 13.344 c 0,0.604 0.034,1.06 0.102,1.367 0.068,0.307 0.187,0.557 0.359,0.75 0.172,0.193 0.419,0.344 0.742,0.453 0.323,0.109 0.73,0.193 1.219,0.25 0.49,0.057 1.136,0.096 1.938,0.117 v 1.141 h -11.547 v -1.141 c 1.156,-0.052 1.982,-0.122 2.476,-0.211 0.495,-0.088 0.873,-0.221 1.133,-0.398 0.261,-0.177 0.451,-0.427 0.57,-0.75 0.12,-0.323 0.18,-0.849 0.18,-1.578 v -12.672 c 0,-0.417 -0.073,-0.721 -0.219,-0.914 -0.145,-0.193 -0.359,-0.289 -0.64,-0.289 -0.334,0 -0.808,0.172 -1.422,0.515 -0.615,0.344 -1.375,0.818 -2.281,1.422 l -0.688,-1.203 z"
       fill-rule="evenodd"
       id="path153" />
    <text
       fill="#000000"
       fill-opacity="0"
       font-family="Arial, Arial_MSFontService, sans-serif"
       font-size="21.5781px"
       x="348.888"
       y="347.35599"
       id="text155">1</text>
    <text
       font-family="Calibri, Calibri_MSFontService, sans-serif"
       font-weight="400"
       font-size="43px"
       transform="translate(291.656,215)"
       id="text157">A</text>
    <path
       d="m 432.38,298.875 c 3.75,0 8.219,1.64 13.406,4.922 5.188,3.281 9.125,4.921 11.813,4.921 2.656,0 4.875,-0.703 6.656,-2.109 1.781,-1.406 3.578,-3.594 5.391,-6.562 l 3.75,2.531 c -1.344,2.781 -3.469,5.586 -6.375,8.414 -2.907,2.828 -6.438,4.242 -10.594,4.242 -4,0 -8.57,-1.641 -13.711,-4.922 -5.141,-3.281 -9.07,-4.922 -11.789,-4.922 -2.281,0 -4.281,0.719 -6,2.157 -1.719,1.437 -3.234,3.531 -4.547,6.281 l -3.656,-2.063 c 1.594,-3.687 3.703,-6.758 6.328,-9.211 2.625,-2.453 5.734,-3.679 9.328,-3.679 z"
       fill-rule="evenodd"
       id="path159" />
    <text
       fill="#000000"
       fill-opacity="0"
       font-family="Arial, Arial_MSFontService, sans-serif"
       font-size="16.3594px"
       x="416.724"
       y="313.189"
       id="text161">~</text>
    <text
       font-family="Calibri, Calibri_MSFontService, sans-serif"
       font-weight="400"
       font-size="24px"
       transform="translate(414.35,354)"
       id="text353">3 <tspan
   font-size="24px"
   x="17.6667"
   y="0"
   id="tspan163">EROs</tspan><tspan
   font-family="Cambria, Cambria_MSFontService, sans-serif"
   font-size="32px"
   x="-142.745"
   y="95"
   id="tspan165">(E</tspan><tspan
   font-family="Cambria, Cambria_MSFontService, sans-serif"
   font-size="21px"
   x="-112.245"
   y="102"
   id="tspan167">3</tspan><tspan
   font-family="Cambria, Cambria_MSFontService, sans-serif"
   font-size="32px"
   x="-100.412"
   y="95"
   id="tspan169">E</tspan><tspan
   font-family="Cambria, Cambria_MSFontService, sans-serif"
   font-size="21px"
   x="-82.0784"
   y="102"
   id="tspan171">2</tspan><tspan
   font-family="Cambria, Cambria_MSFontService, sans-serif"
   font-size="32px"
   x="-70.245102"
   y="95"
   id="tspan173">E</tspan><tspan
   font-family="Cambria, Cambria_MSFontService, sans-serif"
   font-size="21px"
   x="-51.911701"
   y="102"
   id="tspan175">1</tspan><tspan
   font-family="Cambria, Cambria_MSFontService, sans-serif"
   font-size="32px"
   x="-40.0784"
   y="95"
   id="tspan177">)A</tspan><tspan
   font-family="Cambria, Cambria_MSFontService, sans-serif"
   font-size="32px"
   x="-0.91174299"
   y="95"
   id="tspan179">=</tspan><tspan
   font-family="Cambria, Cambria_MSFontService, sans-serif"
   font-size="32px"
   x="23.7549"
   y="95"
   id="tspan181">I</tspan><tspan
   font-family="Cambria, Cambria_MSFontService, sans-serif"
   font-size="32px"
   x="-142.745"
   y="140"
   id="tspan183">(E</tspan><tspan
   font-family="Cambria, Cambria_MSFontService, sans-serif"
   font-size="21px"
   x="-112.245"
   y="147"
   id="tspan185">1</tspan><tspan
   font-family="Cambria, Cambria_MSFontService, sans-serif"
   font-size="21px"
   x="-100.412"
   y="130"
   id="tspan187">-</tspan><tspan
   font-family="Cambria, Cambria_MSFontService, sans-serif"
   font-size="21px"
   x="-93.245102"
   y="130"
   id="tspan189">1</tspan><tspan
   font-family="Cambria, Cambria_MSFontService, sans-serif"
   font-size="32px"
   x="-76.745102"
   y="140"
   id="tspan191">E</tspan><tspan
   font-family="Cambria, Cambria_MSFontService, sans-serif"
   font-size="21px"
   x="-58.411701"
   y="147"
   id="tspan193">2</tspan><tspan
   font-family="Cambria, Cambria_MSFontService, sans-serif"
   font-size="21px"
   x="-46.5784"
   y="130"
   id="tspan195">-</tspan><tspan
   font-family="Cambria, Cambria_MSFontService, sans-serif"
   font-size="21px"
   x="-39.411701"
   y="130"
   id="tspan197">1</tspan><tspan
   font-family="Cambria, Cambria_MSFontService, sans-serif"
   font-size="32px"
   x="-22.911699"
   y="140"
   id="tspan199">E</tspan><tspan
   font-family="Cambria, Cambria_MSFontService, sans-serif"
   font-size="21px"
   x="-4.5784302"
   y="147"
   id="tspan201">3</tspan><tspan
   font-family="Cambria, Cambria_MSFontService, sans-serif"
   font-size="21px"
   x="7.25491"
   y="130"
   id="tspan203">-</tspan><tspan
   font-family="Cambria, Cambria_MSFontService, sans-serif"
   font-size="21px"
   x="14.4216"
   y="130"
   id="tspan205">1</tspan><tspan
   font-family="Cambria, Cambria_MSFontService, sans-serif"
   font-size="32px"
   x="26.2549"
   y="140"
   id="tspan207">)(E</tspan><tspan
   font-family="Cambria, Cambria_MSFontService, sans-serif"
   font-size="21px"
   x="68.9216"
   y="147"
   id="tspan209">3</tspan><tspan
   font-family="Cambria, Cambria_MSFontService, sans-serif"
   font-size="32px"
   x="80.754898"
   y="140"
   id="tspan211">E</tspan><tspan
   font-family="Cambria, Cambria_MSFontService, sans-serif"
   font-size="21px"
   x="99.088303"
   y="147"
   id="tspan213">2</tspan><tspan
   font-family="Cambria, Cambria_MSFontService, sans-serif"
   font-size="32px"
   x="110.922"
   y="140"
   id="tspan215">E</tspan><tspan
   font-family="Cambria, Cambria_MSFontService, sans-serif"
   font-size="21px"
   x="129.255"
   y="147"
   id="tspan217">1</tspan><tspan
   font-family="Cambria, Cambria_MSFontService, sans-serif"
   font-size="32px"
   x="141.088"
   y="140"
   id="tspan219">)A = (E</tspan><tspan
   font-family="Cambria, Cambria_MSFontService, sans-serif"
   font-size="21px"
   x="235.422"
   y="147"
   id="tspan221">1</tspan><tspan
   font-family="Cambria, Cambria_MSFontService, sans-serif"
   font-size="21px"
   x="247.255"
   y="130"
   id="tspan223">-</tspan><tspan
   font-family="Cambria, Cambria_MSFontService, sans-serif"
   font-size="21px"
   x="254.422"
   y="130"
   id="tspan225">1</tspan><tspan
   font-family="Cambria, Cambria_MSFontService, sans-serif"
   font-size="32px"
   x="270.922"
   y="140"
   id="tspan227">E</tspan><tspan
   font-family="Cambria, Cambria_MSFontService, sans-serif"
   font-size="21px"
   x="289.255"
   y="147"
   id="tspan229">2</tspan><tspan
   font-family="Cambria, Cambria_MSFontService, sans-serif"
   font-size="21px"
   x="301.08801"
   y="130"
   id="tspan231">-</tspan><tspan
   font-family="Cambria, Cambria_MSFontService, sans-serif"
   font-size="21px"
   x="308.255"
   y="130"
   id="tspan233">1</tspan><tspan
   font-family="Cambria, Cambria_MSFontService, sans-serif"
   font-size="32px"
   x="324.755"
   y="140"
   id="tspan235">E</tspan><tspan
   font-family="Cambria, Cambria_MSFontService, sans-serif"
   font-size="21px"
   x="343.08801"
   y="147"
   id="tspan237">3</tspan><tspan
   font-family="Cambria, Cambria_MSFontService, sans-serif"
   font-size="21px"
   x="354.922"
   y="130"
   id="tspan239">-</tspan><tspan
   font-family="Cambria, Cambria_MSFontService, sans-serif"
   font-size="21px"
   x="362.08801"
   y="130"
   id="tspan241">1</tspan><tspan
   font-family="Cambria, Cambria_MSFontService, sans-serif"
   font-size="32px"
   x="373.922"
   y="140"
   id="tspan243">)</tspan><tspan
   font-size="32px"
   x="-142.745"
   y="190"
   id="tspan245">Therefore</tspan><tspan
   font-family="Cambria, Cambria_MSFontService, sans-serif"
   font-size="32px"
   x="-7.8717699"
   y="190"
   id="tspan247">A</tspan><tspan
   font-family="Cambria, Cambria_MSFontService, sans-serif"
   font-size="32px"
   x="19.128201"
   y="190"
   id="tspan249">= (E</tspan><tspan
   font-family="Cambria, Cambria_MSFontService, sans-serif"
   font-size="21px"
   x="74.294899"
   y="197"
   id="tspan251">1</tspan><tspan
   font-family="Cambria, Cambria_MSFontService, sans-serif"
   font-size="21px"
   x="86.128197"
   y="180"
   id="tspan253">-</tspan><tspan
   font-family="Cambria, Cambria_MSFontService, sans-serif"
   font-size="21px"
   x="93.294899"
   y="180"
   id="tspan255">1</tspan><tspan
   font-family="Cambria, Cambria_MSFontService, sans-serif"
   font-size="32px"
   x="109.795"
   y="190"
   id="tspan257">E</tspan><tspan
   font-family="Cambria, Cambria_MSFontService, sans-serif"
   font-size="21px"
   x="128.12801"
   y="197"
   id="tspan259">2</tspan><tspan
   font-family="Cambria, Cambria_MSFontService, sans-serif"
   font-size="21px"
   x="139.96201"
   y="180"
   id="tspan261">-</tspan><tspan
   font-family="Cambria, Cambria_MSFontService, sans-serif"
   font-size="21px"
   x="147.12801"
   y="180"
   id="tspan263">1</tspan><tspan
   font-family="Cambria, Cambria_MSFontService, sans-serif"
   font-size="32px"
   x="163.62801"
   y="190"
   id="tspan265">E</tspan><tspan
   font-family="Cambria, Cambria_MSFontService, sans-serif"
   font-size="21px"
   x="181.96201"
   y="197"
   id="tspan267">3</tspan><tspan
   font-family="Cambria, Cambria_MSFontService, sans-serif"
   font-size="21px"
   x="193.795"
   y="180"
   id="tspan269">-</tspan><tspan
   font-family="Cambria, Cambria_MSFontService, sans-serif"
   font-size="21px"
   x="200.96201"
   y="180"
   id="tspan271">1</tspan><tspan
   font-family="Cambria, Cambria_MSFontService, sans-serif"
   font-size="32px"
   x="212.795"
   y="190"
   id="tspan273">)</tspan><tspan
   font-family="Cambria, Cambria_MSFontService, sans-serif"
   font-size="32px"
   x="-142.745"
   y="236"
   id="tspan275">A = (E</tspan><tspan
   font-family="Cambria, Cambria_MSFontService, sans-serif"
   font-size="21px"
   x="-60.5784"
   y="243"
   id="tspan277">3</tspan><tspan
   font-family="Cambria, Cambria_MSFontService, sans-serif"
   font-size="32px"
   x="-48.745098"
   y="236"
   id="tspan279">E</tspan><tspan
   font-family="Cambria, Cambria_MSFontService, sans-serif"
   font-size="21px"
   x="-30.411699"
   y="243"
   id="tspan281">2</tspan><tspan
   font-family="Cambria, Cambria_MSFontService, sans-serif"
   font-size="32px"
   x="-18.5784"
   y="236"
   id="tspan283">E</tspan><tspan
   font-family="Cambria, Cambria_MSFontService, sans-serif"
   font-size="21px"
   x="-0.245087"
   y="243"
   id="tspan285">1</tspan><tspan
   font-family="Cambria, Cambria_MSFontService, sans-serif"
   font-size="32px"
   x="11.5883"
   y="236"
   id="tspan287">)</tspan><tspan
   font-family="Cambria, Cambria_MSFontService, sans-serif"
   font-size="21px"
   x="23.7549"
   y="226"
   id="tspan289">-</tspan><tspan
   font-family="Cambria, Cambria_MSFontService, sans-serif"
   font-size="21px"
   x="30.9216"
   y="226"
   id="tspan291">1</tspan><tspan
   font-size="32px"
   x="-142.745"
   y="283"
   id="tspan293">Therefore</tspan><tspan
   font-family="Cambria, Cambria_MSFontService, sans-serif"
   font-size="32px"
   x="-7.8717699"
   y="283"
   id="tspan295">A</tspan><tspan
   font-family="Cambria, Cambria_MSFontService, sans-serif"
   font-size="21px"
   x="12.1282"
   y="273"
   id="tspan297">-</tspan><tspan
   font-family="Cambria, Cambria_MSFontService, sans-serif"
   font-size="21px"
   x="19.294901"
   y="273"
   id="tspan299">1</tspan><tspan
   font-family="Cambria, Cambria_MSFontService, sans-serif"
   font-size="32px"
   x="38.128201"
   y="283"
   id="tspan301">= ((E</tspan><tspan
   font-family="Cambria, Cambria_MSFontService, sans-serif"
   font-size="21px"
   x="105.462"
   y="290"
   id="tspan303">3</tspan><tspan
   font-family="Cambria, Cambria_MSFontService, sans-serif"
   font-size="32px"
   x="117.295"
   y="283"
   id="tspan305">E</tspan><tspan
   font-family="Cambria, Cambria_MSFontService, sans-serif"
   font-size="21px"
   x="135.62801"
   y="290"
   id="tspan307">2</tspan><tspan
   font-family="Cambria, Cambria_MSFontService, sans-serif"
   font-size="32px"
   x="147.46201"
   y="283"
   id="tspan309">E</tspan><tspan
   font-family="Cambria, Cambria_MSFontService, sans-serif"
   font-size="21px"
   x="165.795"
   y="290"
   id="tspan311">1</tspan><tspan
   font-family="Cambria, Cambria_MSFontService, sans-serif"
   font-size="32px"
   x="177.62801"
   y="283"
   id="tspan313">)</tspan><tspan
   font-family="Cambria, Cambria_MSFontService, sans-serif"
   font-size="21px"
   x="189.795"
   y="273"
   id="tspan315">-</tspan><tspan
   font-family="Cambria, Cambria_MSFontService, sans-serif"
   font-size="21px"
   x="196.96201"
   y="273"
   id="tspan317">1</tspan><tspan
   font-family="Cambria, Cambria_MSFontService, sans-serif"
   font-size="32px"
   x="208.795"
   y="283"
   id="tspan319">)</tspan><tspan
   font-family="Cambria, Cambria_MSFontService, sans-serif"
   font-size="21px"
   x="220.96201"
   y="273"
   id="tspan321">-</tspan><tspan
   font-family="Cambria, Cambria_MSFontService, sans-serif"
   font-size="21px"
   x="228.12801"
   y="273"
   id="tspan323">1</tspan><tspan
   font-family="Cambria, Cambria_MSFontService, sans-serif"
   font-size="32px"
   x="246.96201"
   y="283"
   id="tspan325">= E</tspan><tspan
   font-family="Cambria, Cambria_MSFontService, sans-serif"
   font-size="21px"
   x="289.96201"
   y="290"
   id="tspan327">3</tspan><tspan
   font-family="Cambria, Cambria_MSFontService, sans-serif"
   font-size="32px"
   x="301.79501"
   y="283"
   id="tspan329">E</tspan><tspan
   font-family="Cambria, Cambria_MSFontService, sans-serif"
   font-size="21px"
   x="320.12799"
   y="290"
   id="tspan331">2</tspan><tspan
   font-family="Cambria, Cambria_MSFontService, sans-serif"
   font-size="32px"
   x="331.96201"
   y="283"
   id="tspan333">E</tspan><tspan
   font-family="Cambria, Cambria_MSFontService, sans-serif"
   font-size="21px"
   x="350.29501"
   y="290"
   id="tspan335">1</tspan><tspan
   font-family="Cambria, Cambria_MSFontService, sans-serif"
   font-size="32px"
   x="369.12799"
   y="283"
   id="tspan337">=</tspan><tspan
   font-family="Cambria, Cambria_MSFontService, sans-serif"
   font-size="32px"
   x="393.79501"
   y="283"
   id="tspan339">(E</tspan><tspan
   font-family="Cambria, Cambria_MSFontService, sans-serif"
   font-size="21px"
   x="424.29501"
   y="290"
   id="tspan341">3</tspan><tspan
   font-family="Cambria, Cambria_MSFontService, sans-serif"
   font-size="32px"
   x="436.12799"
   y="283"
   id="tspan343">E</tspan><tspan
   font-family="Cambria, Cambria_MSFontService, sans-serif"
   font-size="21px"
   x="454.46201"
   y="290"
   id="tspan345">2</tspan><tspan
   font-family="Cambria, Cambria_MSFontService, sans-serif"
   font-size="32px"
   x="466.29501"
   y="283"
   id="tspan347">E</tspan><tspan
   font-family="Cambria, Cambria_MSFontService, sans-serif"
   font-size="21px"
   x="484.62799"
   y="290"
   id="tspan349">1</tspan><tspan
   font-family="Cambria, Cambria_MSFontService, sans-serif"
   font-size="32px"
   x="496.46201"
   y="283"
   id="tspan351">)I</tspan></text>
  </g>
</svg>
