<?xml version="1.0" encoding="UTF-8" standalone="no"?>
<svg
   width="1280"
   height="710"
   overflow="hidden"
   version="1.1"
   id="svg349"
   sodipodi:docname="linear_systems-echelon_solutions.svg"
   inkscape:version="1.2 (dc2aedaf03, 2022-05-15)"
   xmlns:inkscape="http://www.inkscape.org/namespaces/inkscape"
   xmlns:sodipodi="http://sodipodi.sourceforge.net/DTD/sodipodi-0.dtd"
   xmlns="http://www.w3.org/2000/svg"
   xmlns:svg="http://www.w3.org/2000/svg">
  <sodipodi:namedview
     id="namedview351"
     pagecolor="#ffffff"
     bordercolor="#000000"
     borderopacity="0.25"
     inkscape:showpageshadow="2"
     inkscape:pageopacity="0.0"
     inkscape:pagecheckerboard="0"
     inkscape:deskcolor="#d1d1d1"
     showgrid="false"
     inkscape:zoom="0.92709556"
     inkscape:cx="601.34039"
     inkscape:cy="388.30949"
     inkscape:window-width="2880"
     inkscape:window-height="1514"
     inkscape:window-x="3829"
     inkscape:window-y="-11"
     inkscape:window-maximized="1"
     inkscape:current-layer="g347" />
  <defs
     id="defs5">
    <rect
       x="65.796885"
       y="79.819172"
       width="276.13119"
       height="127.27922"
       id="rect1097" />
    <rect
       x="307.41168"
       y="389.38812"
       width="311.72623"
       height="75.504622"
       id="rect1085" />
    <rect
       x="86.290997"
       y="61.482335"
       width="223.27795"
       height="90.605547"
       id="rect965" />
    <clipPath
       id="clip0">
      <rect
         x="0"
         y="0"
         width="1280"
         height="720"
         id="rect2" />
    </clipPath>
  </defs>
  <g
     clip-path="url(#clip0)"
     id="g347"
     transform="translate(46.381411,19.415474)">
    <text
       font-family="Calibri, Calibri_MSFontService, sans-serif"
       font-weight="400"
       font-size="43px"
       id="text11"
       x="598.81921"
       y="43.606812">M<tspan
   font-size="28px"
   x="635.31921"
   y="53.606812"
   id="tspan9">2</tspan></text>
    <path
       d="m 772.2582,350.15881 c 0,-10.246 8.306,-18.552 18.552,-18.552 h 189.896 c 10.246,0 18.552,8.306 18.552,18.552 v 106.896 c 0,10.246 -8.306,18.552 -18.552,18.552 h -189.896 c -10.246,0 -18.552,-8.306 -18.552,-18.552 z"
       fill="#e2f0d9"
       fill-rule="evenodd"
       id="path13" />
    <path
       d="m 931.2582,331.60681 v 143.638"
       stroke="#385723"
       stroke-width="4"
       stroke-miterlimit="8"
       fill="none"
       fill-rule="evenodd"
       id="path15" />
    <path
       d="m 781.2582,362.10681 c 0,-11.322 9.85,-20.5 22,-20.5 12.15,0 22,9.178 22,20.5 0,11.322 -9.85,20.5 -22,20.5 -12.15,0 -22,-9.178 -22,-20.5 z"
       fill="#bdd7ee"
       fill-rule="evenodd"
       fill-opacity="0.501961"
       id="path17" />
    <path
       d="m 830.2582,407.60681 c 0,-11.598 9.626,-21 21.5,-21 11.874,0 21.5,9.402 21.5,21 0,11.598 -9.626,21 -21.5,21 -11.874,0 -21.5,-9.402 -21.5,-21 z"
       fill="#bdd7ee"
       fill-rule="evenodd"
       fill-opacity="0.501961"
       id="path19" />
    <path
       d="m 880.2582,449.10681 c 0,-11.322 9.626,-20.5 21.5,-20.5 11.874,0 21.5,9.178 21.5,20.5 0,11.322 -9.626,20.5 -21.5,20.5 -11.874,0 -21.5,-9.178 -21.5,-20.5 z"
       fill="#bdd7ee"
       fill-rule="evenodd"
       fill-opacity="0.501961"
       id="path21" />
    <path
       d="m 803.4632,347.73681 h 0.86 c -0.063,1 -0.094,2.385 -0.094,4.156 v 13.344 c 0,0.604 0.034,1.06 0.102,1.367 0.067,0.307 0.187,0.557 0.359,0.75 0.172,0.193 0.419,0.344 0.742,0.453 0.323,0.109 0.729,0.193 1.219,0.25 0.49,0.057 1.135,0.096 1.937,0.117 v 1.141 h -11.546 v -1.141 c 1.156,-0.052 1.981,-0.122 2.476,-0.211 0.495,-0.088 0.873,-0.221 1.133,-0.398 0.26,-0.177 0.45,-0.427 0.57,-0.75 0.12,-0.323 0.18,-0.849 0.18,-1.578 v -12.672 c 0,-0.417 -0.073,-0.721 -0.219,-0.914 -0.146,-0.193 -0.359,-0.289 -0.64,-0.289 -0.334,0 -0.808,0.172 -1.422,0.515 -0.615,0.344 -1.375,0.818 -2.282,1.422 l -0.687,-1.203 z"
       fill-rule="evenodd"
       id="path23" />
    <text
       fill="#000000"
       fill-opacity="0"
       font-family="Arial, Arial_MSFontService, sans-serif"
       font-size="21.5781px"
       x="796.15125"
       y="366.6178"
       id="text25">1</text>
    <path
       d="m 851.8962,349.06481 c -0.719,0 -1.321,0.213 -1.805,0.641 -0.484,0.427 -0.875,1.041 -1.172,1.843 -0.297,0.802 -0.508,1.779 -0.633,2.93 -0.125,1.151 -0.187,2.45 -0.187,3.898 0,3.396 0.315,5.888 0.945,7.477 0.63,1.588 1.607,2.383 2.93,2.383 1.26,0 2.195,-0.748 2.805,-2.242 0.609,-1.495 0.914,-3.81 0.914,-6.946 0,-2.396 -0.157,-4.336 -0.469,-5.82 -0.313,-1.484 -0.747,-2.55 -1.305,-3.195 -0.557,-0.646 -1.232,-0.969 -2.023,-0.969 z m 0.078,-1.328 c 2.281,0 3.979,0.88 5.094,2.64 1.114,1.761 1.672,4.422 1.672,7.985 0,3.687 -0.597,6.476 -1.79,8.367 -1.192,1.891 -2.934,2.836 -5.226,2.836 -2.25,0 -3.925,-0.886 -5.024,-2.656 -1.098,-1.771 -1.648,-4.459 -1.648,-8.063 0,-1.917 0.169,-3.573 0.508,-4.969 0.338,-1.395 0.812,-2.549 1.422,-3.461 0.609,-0.911 1.341,-1.585 2.195,-2.023 0.854,-0.437 1.786,-0.656 2.797,-0.656 z"
       fill-rule="evenodd"
       id="path27" />
    <text
       fill="#000000"
       fill-opacity="0"
       font-family="Arial, Arial_MSFontService, sans-serif"
       font-size="21.8281px"
       x="845.05225"
       y="366.83582"
       id="text29">0</text>
    <path
       d="m 901.5622,349.06481 c -0.718,0 -1.32,0.213 -1.804,0.641 -0.485,0.427 -0.875,1.041 -1.172,1.843 -0.297,0.802 -0.508,1.779 -0.633,2.93 -0.125,1.151 -0.187,2.45 -0.187,3.898 0,3.396 0.315,5.888 0.945,7.477 0.63,1.588 1.607,2.383 2.93,2.383 1.26,0 2.195,-0.748 2.804,-2.242 0.61,-1.495 0.914,-3.81 0.914,-6.946 0,-2.396 -0.156,-4.336 -0.468,-5.82 -0.313,-1.484 -0.748,-2.55 -1.305,-3.195 -0.557,-0.646 -1.232,-0.969 -2.024,-0.969 z m 0.079,-1.328 c 2.281,0 3.979,0.88 5.093,2.64 1.115,1.761 1.672,4.422 1.672,7.985 0,3.687 -0.596,6.476 -1.789,8.367 -1.193,1.891 -2.935,2.836 -5.226,2.836 -2.25,0 -3.925,-0.886 -5.024,-2.656 -1.099,-1.771 -1.648,-4.459 -1.648,-8.063 0,-1.917 0.169,-3.573 0.508,-4.969 0.338,-1.395 0.812,-2.549 1.421,-3.461 0.61,-0.911 1.342,-1.585 2.196,-2.023 0.854,-0.437 1.786,-0.656 2.797,-0.656 z"
       fill-rule="evenodd"
       id="path31" />
    <text
       fill="#000000"
       fill-opacity="0"
       font-family="Arial, Arial_MSFontService, sans-serif"
       font-size="21.8281px"
       x="894.71924"
       y="366.83582"
       id="text33">0</text>
    <path
       d="m 951.3492,343.88281 c -0.719,1.041 -1.436,2.074 -2.151,3.1 -0.715,1.026 -1.435,2.055 -2.162,3.088 v 0.135 h 4.313 v -2.257 c 0,-0.255 0.004,-0.569 0.011,-0.944 0.008,-0.374 0.017,-0.754 0.028,-1.14 0.011,-0.385 0.024,-0.752 0.039,-1.1 0.015,-0.348 0.03,-0.642 0.045,-0.882 z m 0.326,-2.628 h 1.785 v 8.951 h 0.202 c 0.307,0 0.556,-0.015 0.747,-0.045 0.191,-0.03 0.345,-0.092 0.461,-0.185 0.116,-0.094 0.213,-0.225 0.292,-0.393 0.078,-0.169 0.162,-0.388 0.252,-0.657 h 0.955 c -0.023,0.411 -0.047,0.82 -0.073,1.224 -0.026,0.404 -0.051,0.816 -0.073,1.235 h -2.763 v 1.471 c 0,0.435 0.009,0.772 0.028,1.011 0.019,0.24 0.075,0.427 0.169,0.562 0.093,0.134 0.232,0.235 0.415,0.303 0.184,0.067 0.44,0.146 0.769,0.236 v 0.674 h -4.851 v -0.674 c 0.225,-0.06 0.415,-0.114 0.573,-0.163 0.157,-0.049 0.288,-0.105 0.393,-0.169 0.105,-0.063 0.181,-0.138 0.23,-0.224 0.049,-0.086 0.086,-0.195 0.112,-0.326 0.026,-0.131 0.041,-0.296 0.045,-0.494 0.004,-0.198 0.006,-0.444 0.006,-0.736 v -1.471 h -6.323 v -0.887 c 1.116,-1.55 2.224,-3.09 3.324,-4.621 1.101,-1.531 2.209,-3.072 3.325,-4.622 z m 13.124,-0.157 c 0.598,0 1.158,0.064 1.678,0.191 0.521,0.127 0.972,0.32 1.354,0.578 0.382,0.259 0.679,0.581 0.893,0.966 0.213,0.386 0.32,0.833 0.32,1.342 0,0.479 -0.068,0.902 -0.203,1.269 -0.134,0.367 -0.342,0.7 -0.623,1 -0.281,0.299 -0.625,0.571 -1.033,0.814 -0.408,0.243 -0.878,0.477 -1.409,0.702 v 0.135 c 0.501,0.09 0.969,0.234 1.403,0.432 0.435,0.198 0.815,0.449 1.14,0.752 0.326,0.304 0.582,0.654 0.77,1.051 0.187,0.396 0.28,0.834 0.28,1.313 0,0.599 -0.112,1.155 -0.337,1.668 -0.224,0.513 -0.561,0.957 -1.01,1.331 -0.45,0.374 -1.004,0.666 -1.662,0.876 -0.659,0.21 -1.43,0.314 -2.314,0.314 -0.696,0 -1.404,-0.069 -2.122,-0.207 -0.719,-0.139 -1.401,-0.32 -2.044,-0.545 v -2.426 h 1.448 c 0.12,0.375 0.262,0.695 0.427,0.96 0.165,0.266 0.358,0.483 0.578,0.652 0.221,0.168 0.476,0.29 0.764,0.365 0.288,0.075 0.616,0.112 0.983,0.112 0.966,0 1.697,-0.23 2.195,-0.691 0.498,-0.46 0.747,-1.158 0.747,-2.094 0,-0.996 -0.327,-1.75 -0.983,-2.263 -0.655,-0.513 -1.626,-0.769 -2.914,-0.769 h -0.988 v -1.078 c 0.786,-0.038 1.465,-0.148 2.038,-0.332 0.573,-0.183 1.05,-0.421 1.432,-0.713 0.382,-0.292 0.666,-0.632 0.854,-1.022 0.187,-0.389 0.28,-0.805 0.28,-1.246 0,-0.719 -0.213,-1.286 -0.64,-1.702 -0.426,-0.415 -1.044,-0.623 -1.853,-0.623 -0.681,0 -1.252,0.187 -1.712,0.561 -0.461,0.375 -0.815,0.933 -1.062,1.674 h -1.426 v -2.213 c 0.884,-0.374 1.716,-0.657 2.499,-0.848 0.782,-0.19 1.533,-0.286 2.252,-0.286 z"
       fill-rule="evenodd"
       id="path35" />
    <text
       fill="#000000"
       fill-opacity="0"
       font-family="Arial, Arial_MSFontService, sans-serif"
       font-size="14.7344px"
       x="945.02625"
       y="353.99081"
       id="text37">43</text>
    <path
       d="m 957.5682,366.50481 c 0.778,0 1.443,0.088 1.993,0.264 0.55,0.176 0.998,0.413 1.342,0.713 0.345,0.299 0.593,0.659 0.747,1.078 0.153,0.419 0.23,0.872 0.23,1.359 0,0.292 -0.02,0.563 -0.062,0.814 -0.041,0.251 -0.112,0.498 -0.213,0.741 -0.101,0.244 -0.234,0.489 -0.399,0.736 -0.164,0.247 -0.37,0.509 -0.617,0.786 -0.188,0.24 -0.431,0.517 -0.73,0.831 -0.3,0.314 -0.627,0.651 -0.983,1.011 -0.356,0.359 -0.728,0.734 -1.117,1.123 -0.39,0.389 -0.768,0.775 -1.135,1.157 -0.367,0.381 -0.704,0.752 -1.01,1.111 -0.307,0.36 -0.558,0.689 -0.753,0.989 h 4.155 c 0.352,0 0.633,-0.013 0.843,-0.04 0.209,-0.026 0.383,-0.084 0.522,-0.174 0.138,-0.09 0.256,-0.226 0.354,-0.41 0.097,-0.183 0.209,-0.436 0.337,-0.758 h 1.044 c -0.037,0.532 -0.073,1.067 -0.107,1.606 -0.033,0.539 -0.069,1.075 -0.106,1.606 h -9.513 v -0.584 c 0.18,-0.404 0.39,-0.803 0.629,-1.196 0.24,-0.393 0.509,-0.792 0.809,-1.196 0.299,-0.404 0.64,-0.822 1.022,-1.252 0.382,-0.431 0.805,-0.878 1.269,-1.342 0.704,-0.704 1.276,-1.305 1.718,-1.803 0.442,-0.497 0.79,-0.941 1.045,-1.33 0.254,-0.39 0.428,-0.749 0.522,-1.079 0.093,-0.329 0.14,-0.681 0.14,-1.055 0,-0.382 -0.054,-0.734 -0.163,-1.056 -0.108,-0.322 -0.264,-0.595 -0.466,-0.82 -0.202,-0.224 -0.458,-0.4 -0.769,-0.527 -0.311,-0.128 -0.668,-0.191 -1.073,-0.191 -0.696,0 -1.28,0.189 -1.751,0.567 -0.472,0.378 -0.839,0.926 -1.101,1.645 h -1.471 v -2.19 c 0.958,-0.397 1.84,-0.685 2.645,-0.865 0.804,-0.179 1.529,-0.269 2.173,-0.269 z"
       fill-rule="evenodd"
       id="path39" />
    <text
       fill="#000000"
       fill-opacity="0"
       font-family="Arial, Arial_MSFontService, sans-serif"
       font-size="14.5435px"
       x="952.39026"
       y="379.2298"
       id="text41">2</text>
    <path
       d="m 943.9562,361.57481 h 27 v 2 h -27 z"
       fill-rule="evenodd"
       id="path43" />
    <path
       d="m 802.2292,399.99181 c -0.719,0 -1.32,0.213 -1.805,0.64 -0.484,0.427 -0.875,1.042 -1.171,1.844 -0.297,0.802 -0.508,1.779 -0.633,2.93 -0.125,1.151 -0.188,2.45 -0.188,3.898 0,3.396 0.315,5.888 0.946,7.477 0.63,1.588 1.606,2.382 2.929,2.382 1.261,0 2.196,-0.747 2.805,-2.242 0.609,-1.495 0.914,-3.81 0.914,-6.945 0,-2.396 -0.156,-4.336 -0.469,-5.82 -0.312,-1.485 -0.747,-2.55 -1.304,-3.196 -0.558,-0.646 -1.232,-0.968 -2.024,-0.968 z m 0.078,-1.329 c 2.281,0 3.979,0.881 5.094,2.641 1.115,1.76 1.672,4.422 1.672,7.984 0,3.688 -0.597,6.477 -1.789,8.368 -1.193,1.89 -2.935,2.836 -5.227,2.836 -2.25,0 -3.924,-0.886 -5.023,-2.657 -1.099,-1.771 -1.649,-4.458 -1.649,-8.062 0,-1.917 0.17,-3.573 0.508,-4.969 0.339,-1.396 0.813,-2.549 1.422,-3.461 0.609,-0.911 1.341,-1.586 2.195,-2.023 0.855,-0.438 1.787,-0.657 2.797,-0.657 z"
       fill-rule="evenodd"
       id="path45" />
    <text
       fill="#000000"
       fill-opacity="0"
       font-family="Arial, Arial_MSFontService, sans-serif"
       font-size="21.8281px"
       x="795.38525"
       y="417.76282"
       id="text47">0</text>
    <path
       d="m 853.1302,398.66281 h 0.86 c -0.063,1 -0.094,2.386 -0.094,4.157 v 13.343 c 0,0.605 0.034,1.06 0.101,1.368 0.068,0.307 0.188,0.557 0.36,0.75 0.172,0.192 0.419,0.343 0.742,0.453 0.323,0.109 0.729,0.192 1.219,0.25 0.489,0.057 1.135,0.096 1.937,0.117 v 1.141 h -11.547 v -1.141 c 1.157,-0.052 1.982,-0.122 2.477,-0.211 0.495,-0.089 0.872,-0.221 1.133,-0.398 0.26,-0.178 0.45,-0.428 0.57,-0.75 0.12,-0.323 0.18,-0.849 0.18,-1.579 v -12.671 c 0,-0.417 -0.073,-0.722 -0.219,-0.915 -0.146,-0.192 -0.359,-0.289 -0.641,-0.289 -0.333,0 -0.807,0.172 -1.422,0.516 -0.614,0.344 -1.375,0.818 -2.281,1.422 l -0.687,-1.203 z"
       fill-rule="evenodd"
       id="path49" />
    <text
       fill="#000000"
       fill-opacity="0"
       font-family="Arial, Arial_MSFontService, sans-serif"
       font-size="21.5781px"
       x="845.81824"
       y="417.54382"
       id="text51">1</text>
    <path
       d="m 901.5622,399.99181 c -0.718,0 -1.32,0.213 -1.804,0.64 -0.485,0.427 -0.875,1.042 -1.172,1.844 -0.297,0.802 -0.508,1.779 -0.633,2.93 -0.125,1.151 -0.187,2.45 -0.187,3.898 0,3.396 0.315,5.888 0.945,7.477 0.63,1.588 1.607,2.382 2.93,2.382 1.26,0 2.195,-0.747 2.804,-2.242 0.61,-1.495 0.914,-3.81 0.914,-6.945 0,-2.396 -0.156,-4.336 -0.468,-5.82 -0.313,-1.485 -0.748,-2.55 -1.305,-3.196 -0.557,-0.646 -1.232,-0.968 -2.024,-0.968 z m 0.079,-1.329 c 2.281,0 3.979,0.881 5.093,2.641 1.115,1.76 1.672,4.422 1.672,7.984 0,3.688 -0.596,6.477 -1.789,8.368 -1.193,1.89 -2.935,2.836 -5.226,2.836 -2.25,0 -3.925,-0.886 -5.024,-2.657 -1.099,-1.771 -1.648,-4.458 -1.648,-8.062 0,-1.917 0.169,-3.573 0.508,-4.969 0.338,-1.396 0.812,-2.549 1.421,-3.461 0.61,-0.911 1.342,-1.586 2.196,-2.023 0.854,-0.438 1.786,-0.657 2.797,-0.657 z"
       fill-rule="evenodd"
       id="path53" />
    <text
       fill="#000000"
       fill-opacity="0"
       font-family="Arial, Arial_MSFontService, sans-serif"
       font-size="21.8281px"
       x="894.71924"
       y="417.76282"
       id="text55">0</text>
    <path
       d="m 944.2682,399.13381 h 12.937 v 1.718 h -12.937 z"
       fill-rule="evenodd"
       id="path57" />
    <text
       fill="#000000"
       fill-opacity="0"
       font-family="Arial, Arial_MSFontService, sans-serif"
       font-size="1.71826px"
       x="944.26825"
       y="400.63681"
       id="text59">âˆ’</text>
    <path
       d="m 969.2862,391.48581 h 1.011 l -0.157,2.717 h -6.581 v 4.392 c 0.396,-0.135 0.831,-0.244 1.302,-0.326 0.472,-0.082 0.947,-0.124 1.427,-0.124 0.688,0 1.312,0.096 1.87,0.287 0.557,0.191 1.036,0.464 1.437,0.82 0.401,0.355 0.711,0.786 0.932,1.291 0.221,0.505 0.331,1.073 0.331,1.701 0,0.719 -0.123,1.359 -0.37,1.921 -0.247,0.561 -0.601,1.039 -1.061,1.432 -0.461,0.393 -1.022,0.692 -1.685,0.898 -0.663,0.206 -1.409,0.309 -2.24,0.309 -0.659,0 -1.333,-0.064 -2.022,-0.191 -0.689,-0.127 -1.404,-0.314 -2.145,-0.561 v -2.494 h 1.438 c 0.224,0.757 0.561,1.298 1.01,1.623 0.449,0.326 1.041,0.489 1.775,0.489 0.98,0 1.722,-0.255 2.223,-0.764 0.502,-0.509 0.753,-1.306 0.753,-2.392 0,-1.041 -0.266,-1.814 -0.798,-2.319 -0.531,-0.505 -1.276,-0.758 -2.234,-0.758 -0.255,0 -0.485,0.004 -0.691,0.011 -0.206,0.008 -0.41,0.026 -0.612,0.056 -0.202,0.03 -0.403,0.071 -0.601,0.124 -0.198,0.052 -0.421,0.112 -0.668,0.179 l -0.921,-0.505 v -7.064 h 6.222 c 0.179,-0.007 0.323,-0.019 0.432,-0.034 0.108,-0.015 0.196,-0.048 0.264,-0.101 0.067,-0.052 0.127,-0.125 0.18,-0.219 0.052,-0.093 0.112,-0.226 0.179,-0.398 z"
       fill-rule="evenodd"
       id="path61" />
    <text
       fill="#000000"
       fill-opacity="0"
       font-family="Arial, Arial_MSFontService, sans-serif"
       font-size="15.3184px"
       x="961.33527"
       y="404.88882"
       id="text63">5</text>
    <path
       d="m 957.5742,417.43081 c 0.779,0 1.443,0.088 1.994,0.264 0.55,0.176 0.997,0.414 1.342,0.713 0.344,0.3 0.593,0.659 0.747,1.079 0.153,0.419 0.23,0.872 0.23,1.358 0,0.292 -0.021,0.564 -0.062,0.815 -0.041,0.251 -0.112,0.498 -0.213,0.741 -0.101,0.243 -0.234,0.488 -0.399,0.736 -0.165,0.247 -0.371,0.509 -0.618,0.786 -0.187,0.239 -0.43,0.516 -0.73,0.831 -0.299,0.314 -0.627,0.651 -0.982,1.01 -0.356,0.36 -0.728,0.734 -1.118,1.123 -0.389,0.39 -0.767,0.775 -1.134,1.157 -0.367,0.382 -0.704,0.753 -1.011,1.112 -0.307,0.359 -0.558,0.689 -0.752,0.988 h 4.155 c 0.352,0 0.633,-0.013 0.842,-0.039 0.21,-0.026 0.384,-0.084 0.523,-0.174 0.138,-0.09 0.256,-0.227 0.353,-0.41 0.098,-0.183 0.21,-0.436 0.337,-0.758 h 1.045 c -0.038,0.532 -0.073,1.067 -0.107,1.606 -0.034,0.539 -0.069,1.074 -0.107,1.606 h -9.512 v -0.584 c 0.18,-0.404 0.389,-0.803 0.629,-1.196 0.24,-0.393 0.509,-0.792 0.809,-1.196 0.299,-0.404 0.64,-0.822 1.022,-1.252 0.381,-0.431 0.804,-0.878 1.269,-1.342 0.703,-0.704 1.276,-1.305 1.718,-1.803 0.442,-0.498 0.79,-0.941 1.044,-1.331 0.255,-0.389 0.429,-0.748 0.522,-1.078 0.094,-0.329 0.141,-0.681 0.141,-1.056 0,-0.381 -0.054,-0.733 -0.163,-1.055 -0.109,-0.322 -0.264,-0.595 -0.466,-0.82 -0.202,-0.225 -0.459,-0.401 -0.769,-0.528 -0.311,-0.127 -0.669,-0.191 -1.073,-0.191 -0.696,0 -1.28,0.189 -1.752,0.567 -0.471,0.378 -0.838,0.927 -1.1,1.646 h -1.472 v -2.19 c 0.959,-0.397 1.84,-0.685 2.645,-0.865 0.805,-0.18 1.529,-0.27 2.173,-0.27 z"
       fill-rule="evenodd"
       id="path65" />
    <text
       fill="#000000"
       fill-opacity="0"
       font-family="Arial, Arial_MSFontService, sans-serif"
       font-size="14.5435px"
       x="952.39722"
       y="430.1568"
       id="text67">2</text>
    <path
       d="m 941.9562,412.57481 h 31 v 2 h -31 z"
       fill-rule="evenodd"
       id="path69" />
    <path
       d="m 802.2292,443.50481 c -0.719,0 -1.32,0.213 -1.805,0.641 -0.484,0.427 -0.875,1.041 -1.171,1.843 -0.297,0.802 -0.508,1.779 -0.633,2.93 -0.125,1.151 -0.188,2.45 -0.188,3.898 0,3.396 0.315,5.888 0.946,7.477 0.63,1.588 1.606,2.383 2.929,2.383 1.261,0 2.196,-0.748 2.805,-2.242 0.609,-1.495 0.914,-3.81 0.914,-6.946 0,-2.396 -0.156,-4.336 -0.469,-5.82 -0.312,-1.484 -0.747,-2.55 -1.304,-3.195 -0.558,-0.646 -1.232,-0.969 -2.024,-0.969 z m 0.078,-1.328 c 2.281,0 3.979,0.88 5.094,2.64 1.115,1.761 1.672,4.422 1.672,7.985 0,3.687 -0.597,6.476 -1.789,8.367 -1.193,1.891 -2.935,2.836 -5.227,2.836 -2.25,0 -3.924,-0.886 -5.023,-2.656 -1.099,-1.771 -1.649,-4.459 -1.649,-8.063 0,-1.917 0.17,-3.573 0.508,-4.969 0.339,-1.395 0.813,-2.549 1.422,-3.461 0.609,-0.911 1.341,-1.585 2.195,-2.023 0.855,-0.437 1.787,-0.656 2.797,-0.656 z"
       fill-rule="evenodd"
       id="path71" />
    <text
       fill="#000000"
       fill-opacity="0"
       font-family="Arial, Arial_MSFontService, sans-serif"
       font-size="21.8281px"
       x="795.38525"
       y="461.27582"
       id="text73">0</text>
    <path
       d="m 851.8962,443.50481 c -0.719,0 -1.321,0.213 -1.805,0.641 -0.484,0.427 -0.875,1.041 -1.172,1.843 -0.297,0.802 -0.508,1.779 -0.633,2.93 -0.125,1.151 -0.187,2.45 -0.187,3.898 0,3.396 0.315,5.888 0.945,7.477 0.63,1.588 1.607,2.383 2.93,2.383 1.26,0 2.195,-0.748 2.805,-2.242 0.609,-1.495 0.914,-3.81 0.914,-6.946 0,-2.396 -0.157,-4.336 -0.469,-5.82 -0.313,-1.484 -0.747,-2.55 -1.305,-3.195 -0.557,-0.646 -1.232,-0.969 -2.023,-0.969 z m 0.078,-1.328 c 2.281,0 3.979,0.88 5.094,2.64 1.114,1.761 1.672,4.422 1.672,7.985 0,3.687 -0.597,6.476 -1.79,8.367 -1.192,1.891 -2.934,2.836 -5.226,2.836 -2.25,0 -3.925,-0.886 -5.024,-2.656 -1.098,-1.771 -1.648,-4.459 -1.648,-8.063 0,-1.917 0.169,-3.573 0.508,-4.969 0.338,-1.395 0.812,-2.549 1.422,-3.461 0.609,-0.911 1.341,-1.585 2.195,-2.023 0.854,-0.437 1.786,-0.656 2.797,-0.656 z"
       fill-rule="evenodd"
       id="path75" />
    <text
       fill="#000000"
       fill-opacity="0"
       font-family="Arial, Arial_MSFontService, sans-serif"
       font-size="21.8281px"
       x="845.05225"
       y="461.27582"
       id="text77">0</text>
    <path
       d="m 902.7972,442.17681 h 0.859 c -0.062,1 -0.094,2.385 -0.094,4.156 v 13.344 c 0,0.604 0.034,1.06 0.102,1.367 0.068,0.307 0.188,0.557 0.359,0.75 0.172,0.193 0.42,0.344 0.743,0.453 0.323,0.109 0.729,0.193 1.218,0.25 0.49,0.057 1.136,0.096 1.938,0.117 v 1.141 h -11.547 v -1.141 c 1.156,-0.052 1.982,-0.122 2.477,-0.211 0.494,-0.088 0.872,-0.221 1.132,-0.398 0.261,-0.177 0.451,-0.427 0.571,-0.75 0.119,-0.323 0.179,-0.849 0.179,-1.578 v -12.672 c 0,-0.417 -0.073,-0.721 -0.218,-0.914 -0.146,-0.193 -0.36,-0.289 -0.641,-0.289 -0.333,0 -0.807,0.172 -1.422,0.515 -0.614,0.344 -1.375,0.818 -2.281,1.422 l -0.688,-1.203 z"
       fill-rule="evenodd"
       id="path79" />
    <text
       fill="#000000"
       fill-opacity="0"
       font-family="Arial, Arial_MSFontService, sans-serif"
       font-size="21.5781px"
       x="895.48425"
       y="461.0578"
       id="text81">1</text>
    <path
       d="m 954.1872,442.17681 c 1.938,0 3.402,0.424 4.391,1.273 0.99,0.849 1.484,2.081 1.484,3.696 0,0.552 -0.054,1.059 -0.164,1.523 -0.109,0.463 -0.281,0.922 -0.515,1.375 -0.235,0.453 -0.55,0.94 -0.946,1.461 -0.395,0.521 -0.833,1.049 -1.312,1.586 -0.479,0.536 -1.307,1.43 -2.484,2.68 -1.98,2.093 -3.433,3.921 -4.36,5.484 h 5.891 c 0.51,0 0.922,-0.031 1.234,-0.094 0.313,-0.062 0.563,-0.167 0.75,-0.312 0.188,-0.146 0.336,-0.336 0.446,-0.571 0.109,-0.234 0.247,-0.596 0.414,-1.086 h 1.328 l -0.266,4.563 h -12.859 v -0.75 c 0.448,-1.094 1.052,-2.214 1.812,-3.359 0.761,-1.146 1.839,-2.495 3.235,-4.047 1.208,-1.334 2.078,-2.344 2.609,-3.032 0.583,-0.75 1.018,-1.398 1.305,-1.945 0.286,-0.547 0.492,-1.062 0.617,-1.547 0.125,-0.484 0.187,-0.971 0.187,-1.461 0,-0.781 -0.125,-1.471 -0.375,-2.07 -0.25,-0.599 -0.632,-1.07 -1.148,-1.414 -0.516,-0.344 -1.164,-0.516 -1.945,-0.516 -1.948,0 -3.261,1.084 -3.938,3.25 h -1.891 v -3 c 1.261,-0.593 2.441,-1.023 3.54,-1.289 1.098,-0.265 2.085,-0.398 2.96,-0.398 z"
       fill-rule="evenodd"
       id="path83" />
    <text
       fill="#000000"
       fill-opacity="0"
       font-family="Arial, Arial_MSFontService, sans-serif"
       font-size="21.5781px"
       x="947.21924"
       y="461.0578"
       id="text85">2</text>
    <path
       d="m 358.2582,230.60681 h 528"
       stroke="#000000"
       stroke-width="4"
       stroke-miterlimit="8"
       fill="none"
       fill-rule="evenodd"
       id="path87" />
    <path
       d="m 360.2582,230.60681 v 52.062 h -4 v -52.062 z m 6.728,41.069 -8.728,14.962 -8.727,-14.962 c -0.557,-0.954 -0.235,-2.178 0.719,-2.735 0.954,-0.556 2.179,-0.234 2.736,0.72 l 7,12 h -3.455 l 7,-12 c 0.556,-0.954 1.781,-1.276 2.735,-0.72 0.954,0.557 1.276,1.781 0.72,2.735 z"
       id="path89" />
    <path
       d="m 886.2582,230.60681 v 52.062 h -4 v -52.062 z m 6.728,41.069 -8.728,14.962 -8.727,-14.962 c -0.557,-0.954 -0.235,-2.178 0.719,-2.735 0.954,-0.556 2.179,-0.234 2.736,0.72 l 7,12 h -3.455 l 7,-12 c 0.556,-0.954 1.781,-1.276 2.735,-0.72 0.954,0.557 1.276,1.781 0.72,2.735 z"
       id="path91" />
    <text
       font-family="Calibri, Calibri_MSFontService, sans-serif"
       font-weight="400"
       font-size="27px"
       id="text95"
       x="730.69421"
       y="316.60681">Find reduced echelon form<tspan
   font-size="27px"
   x="197.2802"
   y="316.60681"
   id="tspan93">Directly use back substitution</tspan></text>
    <path
       d="m 153.2782,403.68781 c 3.75,0 8.218,1.641 13.406,4.922 5.187,3.281 9.125,4.922 11.812,4.922 2.657,0 4.875,-0.703 6.657,-2.11 1.781,-1.406 3.578,-3.593 5.39,-6.562 l 3.75,2.531 c -1.344,2.781 -3.469,5.586 -6.375,8.414 -2.906,2.828 -6.437,4.242 -10.594,4.242 -4,0 -8.57,-1.64 -13.711,-4.922 -5.14,-3.281 -9.07,-4.921 -11.789,-4.921 -2.281,0 -4.281,0.718 -6,2.156 -1.718,1.437 -3.234,3.531 -4.546,6.281 l -3.657,-2.062 c 1.594,-3.688 3.703,-6.758 6.328,-9.211 2.625,-2.454 5.735,-3.68 9.329,-3.68 z"
       fill-rule="evenodd"
       id="path97" />
    <text
       fill="#000000"
       fill-opacity="0"
       font-family="Arial, Arial_MSFontService, sans-serif"
       font-size="16.3594px"
       x="137.6212"
       y="418.0018"
       id="text99">~</text>
    <path
       d="m 246.2582,474.60681 c -7.456,0 -13.5,-5.314 -13.5,-11.869 v -39.262 c 0,-6.555 -6.044,-11.869 -13.5,-11.869 7.456,0 13.5,-5.314 13.5,-11.869 v -39.262 c 0,-6.555 6.044,-11.869 13.5,-11.869"
       stroke="#000000"
       stroke-width="4"
       stroke-miterlimit="8"
       fill="none"
       fill-rule="evenodd"
       id="path101" />
    <text
       font-family="'Cambria Math', 'Cambria Math_MSFontService', sans-serif"
       font-weight="400"
       font-size="32px"
       id="text153"
       x="244.84373"
       y="376.21362" />
    <path
       d="m 152.7182,553.94181 c 3.75,0 8.219,1.641 13.406,4.922 5.188,3.281 9.125,4.922 11.813,4.922 2.656,0 4.875,-0.703 6.656,-2.109 1.781,-1.407 3.578,-3.594 5.391,-6.563 l 3.75,2.531 c -1.344,2.782 -3.469,5.586 -6.375,8.414 -2.907,2.829 -6.438,4.243 -10.594,4.243 -4,0 -8.57,-1.641 -13.711,-4.922 -5.141,-3.282 -9.07,-4.922 -11.789,-4.922 -2.281,0 -4.281,0.719 -6,2.156 -1.719,1.438 -3.234,3.531 -4.547,6.281 l -3.656,-2.062 c 1.594,-3.688 3.703,-6.758 6.328,-9.211 2.625,-2.453 5.734,-3.68 9.328,-3.68 z"
       fill-rule="evenodd"
       id="path155" />
    <text
       fill="#000000"
       fill-opacity="0"
       font-family="Arial, Arial_MSFontService, sans-serif"
       font-size="16.3594px"
       x="137.06219"
       y="568.25684"
       id="text157">~</text>
    <path
       d="m 246.2582,637.60681 c -7.456,0 -13.5,-5.314 -13.5,-11.869 v -45.762 c 0,-6.555 -6.044,-11.869 -13.5,-11.869 7.456,0 13.5,-5.314 13.5,-11.869 v -45.762 c 0,-6.555 6.044,-11.869 13.5,-11.869"
       stroke="#000000"
       stroke-width="4"
       stroke-miterlimit="8"
       fill="none"
       fill-rule="evenodd"
       id="path159" />
    <text
       font-family="'Cambria Math', 'Cambria Math_MSFontService', sans-serif"
       font-weight="400"
       font-size="32px"
       id="text185"
       x="253.8342"
       y="529.60681">ğ‘¥<tspan
   font-size="23px"
   x="269.78091"
   y="536.60681"
   id="tspan161">1</tspan><tspan
   font-size="32px"
   x="284.60751"
   y="529.60681"
   id="tspan163" /><tspan
   font-family="Calibri, Calibri_MSFontService, sans-serif"
   font-size="32px"
   x="291.60751"
   y="529.60681"
   id="tspan165">=</tspan><tspan
   font-family="Calibri, Calibri_MSFontService, sans-serif"
   font-size="32px"
   x="307.60751"
   y="529.60681"
   id="tspan167" /><tspan
   font-family="Calibri, Calibri_MSFontService, sans-serif"
   font-size="32px"
   x="314.7742"
   y="529.60681"
   id="tspan169">âˆ’</tspan><tspan
   font-family="Calibri, Calibri_MSFontService, sans-serif"
   font-size="32px"
   x="337.7742"
   y="529.60681"
   id="tspan171">2</tspan><tspan
   font-size="32px"
   x="353.94119"
   y="529.60681"
   id="tspan173" /><tspan
   font-family="Calibri, Calibri_MSFontService, sans-serif"
   font-size="32px"
   x="360.94119"
   y="529.60681"
   id="tspan175">âˆ’</tspan> 3<tspan
   font-size="32px"
   x="401.60721"
   y="529.60681"
   id="tspan177">(</tspan><tspan
   font-family="Calibri, Calibri_MSFontService, sans-serif"
   font-size="32px"
   x="414.94119"
   y="511.60681"
   id="tspan179">âˆ’</tspan><tspan
   font-size="23px"
   x="430.94119"
   y="511.60681"
   id="tspan181">5</tspan><tspan
   font-size="23px"
   x="422.94119"
   y="545.60681"
   id="tspan183">2</tspan></text>
    <path
       d="m 414.8342,519.90381 h 30 v 2 h -30 z"
       fill-rule="evenodd"
       id="path187" />
    <text
       font-family="'Cambria Math', 'Cambria Math_MSFontService', sans-serif"
       font-weight="400"
       font-size="32px"
       id="text213"
       x="444.44119"
       y="529.60681">)<tspan
   font-family="Calibri, Calibri_MSFontService, sans-serif"
   font-size="32px"
   x="464.94119"
   y="529.60681"
   id="tspan189">+</tspan><tspan
   font-size="32px"
   x="488.10791"
   y="529.60681"
   id="tspan191">8</tspan><tspan
   font-size="32px"
   x="505.77451"
   y="529.60681"
   id="tspan193">(</tspan><tspan
   font-size="32px"
   x="519.10791"
   y="529.60681"
   id="tspan195">2</tspan><tspan
   font-size="32px"
   x="536.77454"
   y="529.60681"
   id="tspan197">)</tspan><tspan
   font-size="32px"
   x="253.8342"
   y="574.60681"
   id="tspan199">ğ‘¥</tspan><tspan
   font-size="23px"
   x="270.52121"
   y="581.60681"
   id="tspan201">2</tspan><tspan
   font-size="32px"
   x="285.34821"
   y="574.60681"
   id="tspan203" /><tspan
   font-family="Calibri, Calibri_MSFontService, sans-serif"
   font-size="32px"
   x="292.34821"
   y="574.60681"
   id="tspan205">=</tspan><tspan
   font-family="Calibri, Calibri_MSFontService, sans-serif"
   font-size="32px"
   x="315.51419"
   y="556.60681"
   id="tspan207">âˆ’</tspan><tspan
   font-size="23px"
   x="331.51419"
   y="556.60681"
   id="tspan209">5</tspan><tspan
   font-size="23px"
   x="323.51419"
   y="590.60681"
   id="tspan211">2</tspan></text>
    <path
       d="m 315.8342,564.98681 h 15 15 v 2 h -15 -15 z"
       fill-rule="evenodd"
       id="path215" />
    <text
       font-family="'Cambria Math', 'Cambria Math_MSFontService', sans-serif"
       font-weight="400"
       font-size="32px"
       id="text225"
       x="254.1512"
       y="623.60681">ğ‘¥<tspan
   font-size="23px"
   x="270.83792"
   y="630.60681"
   id="tspan217">3</tspan><tspan
   font-size="32px"
   x="285.66449"
   y="623.60681"
   id="tspan219" /><tspan
   font-family="Calibri, Calibri_MSFontService, sans-serif"
   font-size="32px"
   x="292.66449"
   y="623.60681"
   id="tspan221">=</tspan><tspan
   font-family="Calibri, Calibri_MSFontService, sans-serif"
   font-size="32px"
   x="315.83121"
   y="623.60681"
   id="tspan223">2</tspan></text>
    <path
       d="m 485.2582,86.158313 c 0,-10.2457 8.306,-18.5515 18.551,-18.5515 h 224.898 c 10.245,0 18.551,8.3058 18.551,18.5515 V 193.05581 c 0,10.245 -8.306,18.551 -18.551,18.551 h -224.898 c -10.245,0 -18.551,-8.306 -18.551,-18.551 z"
       fill="#e2f0d9"
       fill-rule="evenodd"
       id="path227" />
    <path
       d="M 678.2582,67.606813 V 211.24481"
       stroke="#385723"
       stroke-width="4"
       stroke-miterlimit="8"
       fill="none"
       fill-rule="evenodd"
       id="path229" />
    <path
       d="m 507.2582,102.10681 c 0,-11.321797 9.626,-20.499997 21.5,-20.499997 11.874,0 21.5,9.1782 21.5,20.499997 0,11.322 -9.626,20.5 -21.5,20.5 -11.874,0 -21.5,-9.178 -21.5,-20.5 z"
       fill="#bdd7ee"
       fill-rule="evenodd"
       fill-opacity="0.501961"
       id="path231" />
    <path
       d="m 562.2582,139.10681 c 0,-11.322 9.626,-20.5 21.5,-20.5 11.874,0 21.5,9.178 21.5,20.5 0,11.322 -9.626,20.5 -21.5,20.5 -11.874,0 -21.5,-9.178 -21.5,-20.5 z"
       fill="#bdd7ee"
       fill-rule="evenodd"
       fill-opacity="0.501961"
       id="path233" />
    <path
       d="m 621.2582,178.10681 c 0,-11.322 9.626,-20.5 21.5,-20.5 11.874,0 21.5,9.178 21.5,20.5 0,11.322 -9.626,20.5 -21.5,20.5 -11.874,0 -21.5,-9.178 -21.5,-20.5 z"
       fill="#bdd7ee"
       fill-rule="evenodd"
       fill-opacity="0.501961"
       id="path235" />
    <path
       d="m 524.0642,90.777313 h 0.859 c -0.062,1 -0.093,2.3855 -0.093,4.1565 v 13.343997 c 0,0.604 0.033,1.059 0.101,1.367 0.068,0.307 0.188,0.557 0.36,0.75 0.171,0.192 0.419,0.343 0.742,0.453 0.323,0.109 0.729,0.193 1.219,0.25 0.489,0.057 1.135,0.096 1.937,0.117 v 1.141 h -11.547 v -1.141 c 1.156,-0.052 1.982,-0.122 2.477,-0.211 0.494,-0.088 0.872,-0.221 1.133,-0.398 0.26,-0.177 0.45,-0.427 0.57,-0.75 0.12,-0.323 0.18,-0.849 0.18,-1.578 V 95.605813 c 0,-0.417 -0.073,-0.722 -0.219,-0.914 -0.146,-0.1931 -0.36,-0.2895 -0.641,-0.2895 -0.333,0 -0.807,0.1719 -1.422,0.5155 -0.614,0.344 -1.375,0.818 -2.281,1.422 l -0.687,-1.203 z"
       fill-rule="evenodd"
       id="path237" />
    <text
       fill="#000000"
       fill-opacity="0"
       font-family="Arial, Arial_MSFontService, sans-serif"
       font-size="21.5781px"
       x="516.7522"
       y="109.65781"
       id="text239">1</text>
    <path
       d="m 580.5592,90.777313 c 1.177,0 2.208,0.1823 3.094,0.5469 0.885,0.3646 1.562,0.888 2.031,1.5703 0.469,0.6823 0.703,1.4974 0.703,2.4453 0,0.885 -0.177,1.664 -0.531,2.336 -0.354,0.672 -0.852,1.258 -1.492,1.758 -0.641,0.5 -1.472,0.988997 -2.493,1.468997 v 0.14 c 0.636,0.115 1.248,0.31 1.836,0.586 0.589,0.276 1.112,0.633 1.571,1.07 0.458,0.438 0.825,0.961 1.101,1.571 0.276,0.609 0.414,1.304 0.414,2.086 0,1.208 -0.263,2.281 -0.789,3.218 -0.526,0.938 -1.331,1.678 -2.414,2.219 -1.083,0.542 -2.401,0.813 -3.953,0.813 -0.896,0 -1.862,-0.102 -2.898,-0.305 -1.037,-0.203 -1.987,-0.471 -2.852,-0.805 v -3.312 h 1.875 c 0.365,1.083 0.846,1.87 1.445,2.359 0.599,0.49 1.414,0.735 2.446,0.735 1.354,0 2.377,-0.37 3.07,-1.11 0.693,-0.739 1.039,-1.833 1.039,-3.281 0,-1.521 -0.458,-2.682 -1.375,-3.484 -0.917,-0.803 -2.26,-1.204 -4.031,-1.204 h -1.407 v -1.375 c 1.407,-0.083 2.592,-0.354 3.555,-0.812 0.964,-0.457997 1.68,-1.046997 2.149,-1.765997 0.468,-0.718 0.703,-1.526 0.703,-2.422 0,-1.156 -0.308,-2.0465 -0.922,-2.6715 -0.615,-0.625 -1.511,-0.9375 -2.688,-0.9375 -0.979,0 -1.776,0.2657 -2.39,0.7969 -0.615,0.5313 -1.068,1.3438 -1.36,2.4371 h -1.875 v -2.9683 c 1.209,-0.5729 2.339,-1 3.391,-1.2813 1.052,-0.2812 2.068,-0.4219 3.047,-0.4219 z"
       fill-rule="evenodd"
       id="path241" />
    <text
       fill="#000000"
       fill-opacity="0"
       font-family="Arial, Arial_MSFontService, sans-serif"
       font-size="21.8281px"
       x="573.88727"
       y="109.87681"
       id="text243">3</text>
    <path
       d="m 631.0852,102.26181 h 12.312 c 0.188,0 0.331,0.088 0.43,0.266 0.099,0.177 0.148,0.458 0.148,0.843 0,0.386 -0.049,0.667 -0.148,0.844 -0.099,0.177 -0.242,0.266 -0.43,0.266 h -12.312 c -0.198,0 -0.347,-0.089 -0.445,-0.266 -0.099,-0.177 -0.149,-0.458 -0.149,-0.844 0,-0.375 0.05,-0.653 0.149,-0.836 0.098,-0.182 0.247,-0.273 0.445,-0.273 z"
       fill-rule="evenodd"
       id="path245" />
    <text
       fill="#000000"
       fill-opacity="0"
       font-family="Arial, Arial_MSFontService, sans-serif"
       font-size="2.21875px"
       x="630.49121"
       y="104.20281"
       id="text247">âˆ’</text>
    <path
       d="m 654.1632,101.94881 c -0.771,0 -1.419,0.12 -1.945,0.36 -0.526,0.239 -0.953,0.562 -1.282,0.969 -0.328,0.406 -0.562,0.882 -0.703,1.429 -0.14,0.547 -0.211,1.133 -0.211,1.758 0,0.677 0.078,1.31 0.235,1.898 0.156,0.589 0.403,1.097 0.742,1.524 0.338,0.427 0.773,0.766 1.305,1.016 0.531,0.25 1.177,0.375 1.937,0.375 0.854,0 1.586,-0.175 2.195,-0.524 0.61,-0.349 1.073,-0.867 1.391,-1.555 0.318,-0.687 0.477,-1.5 0.477,-2.437 0,-1 -0.172,-1.862 -0.516,-2.586 -0.344,-0.724 -0.828,-1.276 -1.453,-1.656 -0.625,-0.38 -1.349,-0.571 -2.172,-0.571 z m 0.078,-9.843297 c -1.312,0 -2.315,0.3567 -3.008,1.0703 -0.692,0.7135 -1.039,1.727 -1.039,3.039 0,0.615 0.073,1.193 0.219,1.734 0.146,0.542 0.38,1.011 0.703,1.407 0.323,0.396 0.742,0.710997 1.258,0.944997 0.516,0.234 1.148,0.352 1.898,0.352 0.865,0 1.591,-0.17 2.18,-0.508 0.589,-0.338997 1.026,-0.833997 1.313,-1.484997 0.286,-0.651 0.429,-1.403 0.429,-2.257 0,-0.938 -0.169,-1.732 -0.508,-2.3833 -0.338,-0.651 -0.804,-1.1328 -1.398,-1.4453 -0.594,-0.3125 -1.276,-0.4687 -2.047,-0.4687 z m 0.031,-1.3282 c 1.5,0 2.761,0.211 3.782,0.6329 1.02,0.4218 1.789,1.0312 2.304,1.8281 0.516,0.7969 0.774,1.7525 0.774,2.8675 0,1.146 -0.282,2.132 -0.844,2.961 -0.563,0.828 -1.432,1.501997 -2.609,2.022997 l 0.031,0.203 c 1.177,0.459 2.068,1.128 2.672,2.008 0.604,0.88 0.906,1.94 0.906,3.18 0,1.218 -0.292,2.291 -0.875,3.218 -0.583,0.928 -1.43,1.644 -2.539,2.149 -1.109,0.505 -2.404,0.758 -3.883,0.758 -1.385,0 -2.601,-0.232 -3.648,-0.696 -1.047,-0.463 -1.86,-1.14 -2.438,-2.031 -0.578,-0.891 -0.867,-1.94 -0.867,-3.148 0,-0.907 0.156,-1.693 0.469,-2.36 0.312,-0.666 0.721,-1.216 1.226,-1.648 0.505,-0.432 1.144,-0.826 1.914,-1.18 l -0.031,-0.203 c -2.239,-0.969 -3.359,-2.629997 -3.359,-4.983997 0,-1.073 0.294,-2.0316 0.883,-2.8753 0.588,-0.8438 1.427,-1.5052 2.515,-1.9844 1.089,-0.4792 2.294,-0.7188 3.617,-0.7188 z"
       fill-rule="evenodd"
       id="path249" />
    <text
       fill="#000000"
       fill-opacity="0"
       font-family="Arial, Arial_MSFontService, sans-serif"
       font-size="21.8281px"
       x="647.03827"
       y="109.87681"
       id="text251">8</text>
    <path
       d="m 701.1652,102.26181 h 12.312 c 0.188,0 0.331,0.088 0.43,0.266 0.099,0.177 0.148,0.458 0.148,0.843 0,0.386 -0.049,0.667 -0.148,0.844 -0.099,0.177 -0.242,0.266 -0.43,0.266 h -12.312 c -0.198,0 -0.347,-0.089 -0.445,-0.266 -0.099,-0.177 -0.149,-0.458 -0.149,-0.844 0,-0.375 0.05,-0.653 0.149,-0.836 0.098,-0.182 0.247,-0.273 0.445,-0.273 z"
       fill-rule="evenodd"
       id="path253" />
    <text
       fill="#000000"
       fill-opacity="0"
       font-family="Arial, Arial_MSFontService, sans-serif"
       font-size="2.21875px"
       x="700.57123"
       y="104.20281"
       id="text255">âˆ’</text>
    <path
       d="m 724.3682,90.777313 c 1.937,0 3.401,0.4245 4.391,1.2735 0.989,0.8489 1.484,2.0807 1.484,3.695 0,0.552 -0.055,1.06 -0.164,1.524 -0.109,0.463 -0.281,0.922 -0.516,1.375 -0.234,0.453 -0.549,0.94 -0.945,1.460997 -0.396,0.521 -0.833,1.049 -1.313,1.586 -0.479,0.536 -1.307,1.429 -2.484,2.679 -1.979,2.094 -3.432,3.922 -4.359,5.485 h 5.89 c 0.511,0 0.922,-0.032 1.235,-0.094 0.312,-0.063 0.562,-0.167 0.75,-0.313 0.187,-0.145 0.336,-0.336 0.445,-0.57 0.109,-0.234 0.247,-0.596 0.414,-1.086 h 1.328 l -0.265,4.563 h -12.86 v -0.75 c 0.448,-1.094 1.052,-2.214 1.813,-3.36 0.76,-1.146 1.838,-2.494 3.234,-4.047 1.208,-1.333 2.078,-2.343 2.609,-3.031 0.584,-0.75 1.019,-1.397997 1.305,-1.944997 0.287,-0.547 0.492,-1.063 0.617,-1.547 0.125,-0.484 0.188,-0.971 0.188,-1.461 0,-0.781 -0.125,-1.471 -0.375,-2.0703 -0.25,-0.5989 -0.633,-1.0703 -1.149,-1.414 -0.515,-0.3438 -1.164,-0.5157 -1.945,-0.5157 -1.948,0 -3.26,1.0834 -3.937,3.25 h -1.891 v -3 c 1.26,-0.5937 2.44,-1.0234 3.539,-1.289 1.099,-0.2656 2.086,-0.3985 2.961,-0.3985 z"
       fill-rule="evenodd"
       id="path257" />
    <text
       fill="#000000"
       fill-opacity="0"
       font-family="Arial, Arial_MSFontService, sans-serif"
       font-size="21.5781px"
       x="717.39923"
       y="109.65781"
       id="text259">2</text>
    <path
       d="m 522.8302,129.61881 c -0.719,0 -1.321,0.214 -1.805,0.641 -0.484,0.427 -0.875,1.041 -1.172,1.843 -0.297,0.802 -0.508,1.779 -0.633,2.93 -0.125,1.151 -0.187,2.451 -0.187,3.898 0,3.396 0.315,5.889 0.945,7.477 0.63,1.589 1.607,2.383 2.93,2.383 1.26,0 2.195,-0.748 2.804,-2.242 0.61,-1.495 0.915,-3.81 0.915,-6.946 0,-2.395 -0.157,-4.336 -0.469,-5.82 -0.313,-1.484 -0.748,-2.549 -1.305,-3.195 -0.557,-0.646 -1.232,-0.969 -2.023,-0.969 z m 0.078,-1.328 c 2.281,0 3.979,0.88 5.094,2.64 1.114,1.761 1.671,4.422 1.671,7.985 0,3.687 -0.596,6.476 -1.789,8.367 -1.192,1.891 -2.935,2.836 -5.226,2.836 -2.25,0 -3.925,-0.885 -5.024,-2.656 -1.099,-1.771 -1.648,-4.459 -1.648,-8.063 0,-1.916 0.169,-3.573 0.508,-4.969 0.338,-1.395 0.812,-2.549 1.422,-3.46 0.609,-0.912 1.341,-1.586 2.195,-2.024 0.854,-0.437 1.786,-0.656 2.797,-0.656 z"
       fill-rule="evenodd"
       id="path261" />
    <text
       fill="#000000"
       fill-opacity="0"
       font-family="Arial, Arial_MSFontService, sans-serif"
       font-size="21.8281px"
       x="515.98621"
       y="147.38982"
       id="text263">0</text>
    <path
       d="m 565.4182,139.77481 h 12.313 c 0.187,0 0.33,0.089 0.429,0.266 0.099,0.177 0.149,0.458 0.149,0.844 0,0.385 -0.05,0.666 -0.149,0.843 -0.099,0.177 -0.242,0.266 -0.429,0.266 h -12.313 c -0.198,0 -0.346,-0.089 -0.445,-0.266 -0.099,-0.177 -0.149,-0.458 -0.149,-0.843 0,-0.375 0.05,-0.654 0.149,-0.836 0.099,-0.183 0.247,-0.274 0.445,-0.274 z"
       fill-rule="evenodd"
       id="path265" />
    <text
       fill="#000000"
       fill-opacity="0"
       font-family="Arial, Arial_MSFontService, sans-serif"
       font-size="2.21875px"
       x="564.82422"
       y="141.71681"
       id="text267">âˆ’</text>
    <path
       d="m 588.6212,128.29081 c 1.938,0 3.401,0.424 4.391,1.273 0.99,0.849 1.484,2.081 1.484,3.696 0,0.552 -0.054,1.06 -0.164,1.523 -0.109,0.464 -0.281,0.922 -0.515,1.375 -0.235,0.453 -0.55,0.94 -0.946,1.461 -0.395,0.521 -0.833,1.049 -1.312,1.586 -0.479,0.536 -1.307,1.43 -2.485,2.68 -1.979,2.093 -3.432,3.921 -4.359,5.484 h 5.891 c 0.51,0 0.922,-0.031 1.234,-0.094 0.313,-0.062 0.563,-0.166 0.75,-0.312 0.188,-0.146 0.336,-0.336 0.445,-0.571 0.11,-0.234 0.248,-0.596 0.414,-1.086 h 1.329 l -0.266,4.563 h -12.859 v -0.75 c 0.448,-1.094 1.052,-2.214 1.812,-3.359 0.761,-1.146 1.839,-2.495 3.234,-4.047 1.209,-1.334 2.079,-2.344 2.61,-3.032 0.583,-0.75 1.018,-1.398 1.305,-1.945 0.286,-0.547 0.492,-1.062 0.617,-1.547 0.125,-0.484 0.187,-0.971 0.187,-1.461 0,-0.781 -0.125,-1.471 -0.375,-2.07 -0.25,-0.599 -0.633,-1.07 -1.148,-1.414 -0.516,-0.344 -1.164,-0.516 -1.946,-0.516 -1.947,0 -3.26,1.084 -3.937,3.25 h -1.891 v -3 c 1.261,-0.593 2.44,-1.023 3.539,-1.289 1.099,-0.265 2.086,-0.398 2.961,-0.398 z"
       fill-rule="evenodd"
       id="path269" />
    <text
       fill="#000000"
       fill-opacity="0"
       font-family="Arial, Arial_MSFontService, sans-serif"
       font-size="21.5781px"
       x="581.65326"
       y="147.17181"
       id="text271">2</text>
    <path
       d="m 646.1632,129.61881 c -0.719,0 -1.32,0.214 -1.805,0.641 -0.484,0.427 -0.875,1.041 -1.172,1.843 -0.296,0.802 -0.507,1.779 -0.632,2.93 -0.125,1.151 -0.188,2.451 -0.188,3.898 0,3.396 0.315,5.889 0.945,7.477 0.631,1.589 1.607,2.383 2.93,2.383 1.261,0 2.195,-0.748 2.805,-2.242 0.609,-1.495 0.914,-3.81 0.914,-6.946 0,-2.395 -0.156,-4.336 -0.469,-5.82 -0.312,-1.484 -0.747,-2.549 -1.305,-3.195 -0.557,-0.646 -1.231,-0.969 -2.023,-0.969 z m 0.078,-1.328 c 2.281,0 3.979,0.88 5.094,2.64 1.114,1.761 1.672,4.422 1.672,7.985 0,3.687 -0.597,6.476 -1.789,8.367 -1.193,1.891 -2.935,2.836 -5.227,2.836 -2.25,0 -3.924,-0.885 -5.023,-2.656 -1.099,-1.771 -1.649,-4.459 -1.649,-8.063 0,-1.916 0.169,-3.573 0.508,-4.969 0.339,-1.395 0.813,-2.549 1.422,-3.46 0.609,-0.912 1.341,-1.586 2.195,-2.024 0.854,-0.437 1.787,-0.656 2.797,-0.656 z"
       fill-rule="evenodd"
       id="path273" />
    <text
       fill="#000000"
       fill-opacity="0"
       font-family="Arial, Arial_MSFontService, sans-serif"
       font-size="21.8281px"
       x="639.31921"
       y="147.38982"
       id="text275">0</text>
    <path
       d="m 720.7432,127.50981 h 1.219 l -0.235,3.625 h -8.984 v 6.859 c 0.542,-0.229 1.13,-0.401 1.766,-0.516 0.635,-0.114 1.27,-0.172 1.906,-0.172 1.239,0 2.338,0.253 3.297,0.758 0.958,0.506 1.698,1.224 2.218,2.157 0.521,0.932 0.782,2.013 0.782,3.242 0,1.396 -0.292,2.593 -0.875,3.593 -0.584,1 -1.427,1.761 -2.532,2.282 -1.104,0.521 -2.411,0.781 -3.921,0.781 -1.802,0 -3.688,-0.37 -5.657,-1.109 v -3.313 h 1.891 c 0.312,1.063 0.784,1.844 1.414,2.344 0.63,0.5 1.445,0.75 2.445,0.75 1.386,0 2.433,-0.417 3.141,-1.25 0.708,-0.833 1.062,-2.078 1.062,-3.735 0,-1.104 -0.187,-2.018 -0.562,-2.742 -0.375,-0.724 -0.88,-1.247 -1.516,-1.57 -0.635,-0.323 -1.375,-0.484 -2.218,-0.484 -0.709,0 -1.318,0.044 -1.829,0.132 -0.51,0.089 -1.057,0.227 -1.64,0.414 l -1.25,-0.734 v -10.281 h 8.609 c 0.354,0 0.61,-0.029 0.766,-0.086 0.156,-0.057 0.281,-0.146 0.375,-0.266 0.094,-0.119 0.203,-0.346 0.328,-0.679 z"
       fill-rule="evenodd"
       id="path277" />
    <text
       fill="#000000"
       fill-opacity="0"
       font-family="Arial, Arial_MSFontService, sans-serif"
       font-size="22.6094px"
       x="709.72723"
       y="147.29282"
       id="text279">5</text>
    <path
       d="m 522.8302,167.13181 c -0.719,0 -1.321,0.214 -1.805,0.641 -0.484,0.427 -0.875,1.042 -1.172,1.844 -0.297,0.802 -0.508,1.778 -0.633,2.929 -0.125,1.151 -0.187,2.451 -0.187,3.899 0,3.396 0.315,5.888 0.945,7.476 0.63,1.589 1.607,2.383 2.93,2.383 1.26,0 2.195,-0.747 2.804,-2.242 0.61,-1.495 0.915,-3.81 0.915,-6.945 0,-2.396 -0.157,-4.336 -0.469,-5.821 -0.313,-1.484 -0.748,-2.549 -1.305,-3.195 -0.557,-0.646 -1.232,-0.969 -2.023,-0.969 z m 0.078,-1.328 c 2.281,0 3.979,0.88 5.094,2.641 1.114,1.76 1.671,4.422 1.671,7.984 0,3.688 -0.596,6.477 -1.789,8.367 -1.192,1.891 -2.935,2.836 -5.226,2.836 -2.25,0 -3.925,-0.885 -5.024,-2.656 -1.099,-1.771 -1.648,-4.458 -1.648,-8.062 0,-1.917 0.169,-3.573 0.508,-4.969 0.338,-1.396 0.812,-2.55 1.422,-3.461 0.609,-0.912 1.341,-1.586 2.195,-2.024 0.854,-0.437 1.786,-0.656 2.797,-0.656 z"
       fill-rule="evenodd"
       id="path281" />
    <text
       fill="#000000"
       fill-opacity="0"
       font-family="Arial, Arial_MSFontService, sans-serif"
       font-size="21.8281px"
       x="515.98621"
       y="184.90381"
       id="text283">0</text>
    <path
       d="m 576.9102,167.13181 c -0.719,0 -1.321,0.214 -1.805,0.641 -0.484,0.427 -0.875,1.042 -1.172,1.844 -0.297,0.802 -0.508,1.778 -0.633,2.929 -0.125,1.151 -0.187,2.451 -0.187,3.899 0,3.396 0.315,5.888 0.945,7.476 0.63,1.589 1.607,2.383 2.93,2.383 1.26,0 2.195,-0.747 2.804,-2.242 0.61,-1.495 0.915,-3.81 0.915,-6.945 0,-2.396 -0.157,-4.336 -0.469,-5.821 -0.313,-1.484 -0.748,-2.549 -1.305,-3.195 -0.557,-0.646 -1.232,-0.969 -2.023,-0.969 z m 0.078,-1.328 c 2.281,0 3.979,0.88 5.094,2.641 1.114,1.76 1.671,4.422 1.671,7.984 0,3.688 -0.596,6.477 -1.789,8.367 -1.192,1.891 -2.935,2.836 -5.226,2.836 -2.25,0 -3.925,-0.885 -5.024,-2.656 -1.099,-1.771 -1.648,-4.458 -1.648,-8.062 0,-1.917 0.169,-3.573 0.508,-4.969 0.338,-1.396 0.812,-2.55 1.422,-3.461 0.609,-0.912 1.341,-1.586 2.195,-2.024 0.854,-0.437 1.786,-0.656 2.797,-0.656 z"
       fill-rule="evenodd"
       id="path285" />
    <text
       fill="#000000"
       fill-opacity="0"
       font-family="Arial, Arial_MSFontService, sans-serif"
       font-size="21.8281px"
       x="570.06622"
       y="184.90381"
       id="text287">0</text>
    <path
       d="m 639.9292,166.05381 h 13.406 v 0.75 l -9.094,20.688 h -2.266 v -0.766 l 8.422,-17.828 v -0.234 h -6.875 c -0.427,0 -0.768,0.039 -1.023,0.117 -0.255,0.078 -0.469,0.19 -0.641,0.336 -0.172,0.146 -0.315,0.338 -0.429,0.578 -0.115,0.239 -0.271,0.713 -0.469,1.422 h -1.344 z"
       fill-rule="evenodd"
       id="path289" />
    <text
       fill="#000000"
       fill-opacity="0"
       font-family="Arial, Arial_MSFontService, sans-serif"
       font-size="21.4375px"
       x="639.61621"
       y="184.81181"
       id="text291">7</text>
    <path
       d="m 722.8612,169.47581 -6.109,9.703 v 0.219 h 6.109 v -3.891 c 0,-0.979 0.016,-2.075 0.047,-3.289 0.031,-1.213 0.067,-2.127 0.109,-2.742 z m 0.453,-3.531 h 2.234 v 13.453 h 0.329 c 0.604,0 1.036,-0.044 1.296,-0.133 0.261,-0.088 0.477,-0.245 0.649,-0.469 0.172,-0.224 0.331,-0.591 0.476,-1.101 h 1.188 l -0.188,3.219 h -3.75 v 2.562 c 0,0.698 0.024,1.208 0.071,1.531 0.047,0.323 0.125,0.578 0.234,0.766 0.109,0.187 0.271,0.344 0.484,0.469 0.214,0.125 0.56,0.25 1.04,0.375 v 0.765 h -6.344 v -0.765 c 0.646,-0.167 1.078,-0.352 1.297,-0.555 0.218,-0.203 0.362,-0.492 0.429,-0.867 0.068,-0.375 0.102,-0.948 0.102,-1.719 v -2.562 h -8.688 v -1.172 z m -18.25,-0.141 h 0.859 c -0.062,1 -0.093,2.386 -0.093,4.156 v 13.344 c 0,0.604 0.034,1.06 0.101,1.367 0.068,0.308 0.188,0.558 0.36,0.75 0.171,0.193 0.419,0.344 0.742,0.454 0.323,0.109 0.729,0.192 1.219,0.25 0.489,0.057 1.135,0.096 1.937,0.117 v 1.14 h -11.547 v -1.14 c 1.156,-0.052 1.982,-0.123 2.477,-0.211 0.495,-0.089 0.872,-0.222 1.133,-0.399 0.26,-0.177 0.45,-0.427 0.57,-0.75 0.12,-0.323 0.18,-0.849 0.18,-1.578 v -12.672 c 0,-0.416 -0.073,-0.721 -0.219,-0.914 -0.146,-0.192 -0.36,-0.289 -0.641,-0.289 -0.333,0 -0.807,0.172 -1.422,0.516 -0.614,0.344 -1.375,0.818 -2.281,1.422 l -0.687,-1.203 z"
       fill-rule="evenodd"
       id="path293" />
    <text
       fill="#000000"
       fill-opacity="0"
       font-family="Arial, Arial_MSFontService, sans-serif"
       font-size="21.5781px"
       x="697.75226"
       y="184.68481"
       id="text295">14</text>
    <path
       d="m 694.3552,408.38281 c 3.75,0 8.219,1.641 13.406,4.922 5.188,3.281 9.125,4.922 11.813,4.922 2.656,0 4.875,-0.703 6.656,-2.109 1.781,-1.407 3.578,-3.594 5.391,-6.563 l 3.75,2.531 c -1.344,2.782 -3.469,5.586 -6.375,8.414 -2.906,2.828 -6.438,4.243 -10.594,4.243 -4,0 -8.57,-1.641 -13.711,-4.922 -5.141,-3.282 -9.07,-4.922 -11.789,-4.922 -2.281,0 -4.281,0.719 -6,2.156 -1.719,1.438 -3.234,3.531 -4.547,6.281 l -3.656,-2.062 c 1.594,-3.688 3.703,-6.758 6.328,-9.211 2.625,-2.453 5.734,-3.68 9.328,-3.68 z"
       fill-rule="evenodd"
       id="path297" />
    <text
       fill="#000000"
       fill-opacity="0"
       font-family="Arial, Arial_MSFontService, sans-serif"
       font-size="16.3594px"
       x="678.69922"
       y="422.69781"
       id="text299">~</text>
    <path
       d="m 693.7072,568.95781 c 3.75,0 8.219,1.641 13.406,4.922 5.188,3.281 9.125,4.922 11.813,4.922 2.656,0 4.875,-0.703 6.656,-2.11 1.781,-1.406 3.578,-3.593 5.391,-6.562 l 3.75,2.531 c -1.344,2.781 -3.469,5.586 -6.375,8.414 -2.907,2.828 -6.438,4.242 -10.594,4.242 -4,0 -8.57,-1.64 -13.711,-4.922 -5.141,-3.281 -9.07,-4.921 -11.789,-4.921 -2.281,0 -4.281,0.718 -6,2.156 -1.719,1.437 -3.235,3.531 -4.547,6.281 l -3.656,-2.062 c 1.593,-3.688 3.703,-6.758 6.328,-9.211 2.625,-2.453 5.734,-3.68 9.328,-3.68 z"
       fill-rule="evenodd"
       id="path301" />
    <text
       fill="#000000"
       fill-opacity="0"
       font-family="Arial, Arial_MSFontService, sans-serif"
       font-size="16.3594px"
       x="678.05127"
       y="585.27179"
       id="text303">~</text>
    <path
       d="m 781.2622,647.60681 c -4.971,0 -9.002,-3.543 -9.002,-7.914 v -58.672 c 0,-4.371 -4.03,-7.914 -9.002,-7.914 4.972,0 9.002,-3.543 9.002,-7.914 v -58.672 c 0,-4.371 4.031,-7.914 9.002,-7.914"
       stroke="#000000"
       stroke-width="4"
       stroke-miterlimit="8"
       fill="none"
       fill-rule="evenodd"
       id="path305" />
    <text
       font-family="'Cambria Math', 'Cambria Math_MSFontService', sans-serif"
       font-weight="400"
       font-size="32px"
       id="text317"
       x="795.37622"
       y="529.60681">ğ‘¥<tspan
   font-size="23px"
   x="811.32294"
   y="535.60681"
   id="tspan307">1</tspan><tspan
   font-size="32px"
   x="826.14954"
   y="529.60681"
   id="tspan309" /><tspan
   font-family="Calibri, Calibri_MSFontService, sans-serif"
   font-size="32px"
   x="917.14923"
   y="529.60681"
   id="tspan311">=</tspan><tspan
   font-size="23px"
   x="940.31622"
   y="510.60681"
   id="tspan313">43</tspan><tspan
   font-size="23px"
   x="947.06323"
   y="545.60681"
   id="tspan315">2</tspan></text>
    <path
       d="m 940.3762,519.17981 h 27 v 2 h -27 z"
       fill-rule="evenodd"
       id="path319" />
    <text
       font-family="'Cambria Math', 'Cambria Math_MSFontService', sans-serif"
       font-weight="400"
       font-size="32px"
       id="text333"
       x="836.05023"
       y="589.60681">ğ‘¥<tspan
   font-size="23px"
   x="852.73694"
   y="596.60681"
   id="tspan321">2</tspan><tspan
   font-size="32px"
   x="867.5636"
   y="589.60681"
   id="tspan323" /><tspan
   font-family="Calibri, Calibri_MSFontService, sans-serif"
   font-size="32px"
   x="916.5636"
   y="589.60681"
   id="tspan325">=</tspan><tspan
   font-size="23px"
   x="939.73022"
   y="571.60681"
   id="tspan327">âˆ’</tspan><tspan
   font-size="23px"
   x="956.73022"
   y="571.60681"
   id="tspan329">5</tspan><tspan
   font-size="23px"
   x="948.23022"
   y="606.60681"
   id="tspan331">2</tspan></text>
    <path
       d="m 939.3832,580.10681 h 31 v 2 h -31 z"
       fill-rule="evenodd"
       id="path335" />
    <text
       font-family="'Cambria Math', 'Cambria Math_MSFontService', sans-serif"
       font-weight="400"
       font-size="32px"
       id="text345"
       x="877.97522"
       y="640.60681">ğ‘¥<tspan
   font-size="23px"
   x="894.66193"
   y="646.60681"
   id="tspan337">3</tspan><tspan
   font-size="32px"
   x="909.48865"
   y="640.60681"
   id="tspan339" /><tspan
   font-family="Calibri, Calibri_MSFontService, sans-serif"
   font-size="32px"
   x="916.48865"
   y="640.60681"
   id="tspan341">=</tspan><tspan
   font-family="Calibri, Calibri_MSFontService, sans-serif"
   font-size="32px"
   x="939.65521"
   y="640.60681"
   id="tspan343">2</tspan></text>
    <text
       xml:space="preserve"
       transform="translate(-46.381411,-19.415474)"
       id="text963"
       style="fill:#ffffff;stroke-width:2.43400021;font-size:27.33333333px;-inkscape-font-specification:'Calibri, Calibri_MSFontService, sans-serif Italic';font-family:Calibri, Calibri_MSFontService, sans-serif;font-style:italic;white-space:pre;shape-inside:url(#rect965)" />
    <text
       xml:space="preserve"
       style="font-style:italic;font-size:32px;font-family:Calibri, Calibri_MSFontService, sans-serif;-inkscape-font-specification:'Calibri, Calibri_MSFontService, sans-serif Italic';fill:#000000;stroke-width:2.434"
       x="295.70395"
       y="419.90451"
       id="text971"><tspan
         sodipodi:role="line"
         id="tspan969"
         x="295.70395"
         y="419.90451"
         style="font-style:normal;font-variant:normal;font-weight:normal;font-stretch:normal;font-size:32px;font-family:Calibri, Calibri_MSFontService, sans-serif;-inkscape-font-specification:'Calibri, Calibri_MSFontService, sans-serif'">âˆ’2ğ‘¥<tspan
   style="font-size:65%;baseline-shift:sub"
   id="tspan1075">2                 </tspan>= 5</tspan></text>
    <text
       xml:space="preserve"
       style="font-style:normal;font-variant:normal;font-weight:normal;font-stretch:normal;font-size:32px;font-family:Calibri, Calibri_MSFontService, sans-serif;-inkscape-font-specification:'Calibri, Calibri_MSFontService, sans-serif';fill:#000000;stroke-width:2.434"
       x="385.07358"
       y="458.57819"
       id="text1079"><tspan
         sodipodi:role="line"
         id="tspan1077"
         x="385.07358"
         y="458.57819">7ğ‘¥<tspan
   style="font-size:65%;baseline-shift:sub"
   id="tspan1081">3</tspan> = 14</tspan></text>
    <text
       xml:space="preserve"
       transform="translate(-55.010511,-37.752311)"
       id="text1083"
       style="font-style:normal;font-variant:normal;font-weight:normal;font-stretch:normal;font-size:32px;font-family:Calibri, Calibri_MSFontService, sans-serif;-inkscape-font-specification:'Calibri, Calibri_MSFontService, sans-serif';white-space:pre;shape-inside:url(#rect1085);fill:#000000;stroke-width:2.434"><tspan
         x="307.41211"
         y="418.2793"
         id="tspan1273">ğ‘¥<tspan
   style="font-size:65%;baseline-shift:sub"
   id="tspan1267">1</tspan> + 3ğ‘¥<tspan
   style="font-size:65%;baseline-shift:sub"
   id="tspan1269">2</tspan> âˆ’ 8ğ‘¥<tspan
   style="font-size:65%;baseline-shift:sub"
   id="tspan1271">3</tspan> = âˆ’2</tspan></text>
  </g>
</svg>
