<?xml version="1.0" encoding="UTF-8" standalone="no"?>
<svg
   width="1280"
   height="630"
   overflow="hidden"
   version="1.1"
   id="svg437"
   sodipodi:docname="linear_systems-vector_span_examples.svg"
   inkscape:version="1.2 (dc2aedaf03, 2022-05-15)"
   xmlns:inkscape="http://www.inkscape.org/namespaces/inkscape"
   xmlns:sodipodi="http://sodipodi.sourceforge.net/DTD/sodipodi-0.dtd"
   xmlns="http://www.w3.org/2000/svg"
   xmlns:svg="http://www.w3.org/2000/svg">
  <sodipodi:namedview
     id="namedview439"
     pagecolor="#ffffff"
     bordercolor="#000000"
     borderopacity="0.25"
     inkscape:showpageshadow="2"
     inkscape:pageopacity="0.0"
     inkscape:pagecheckerboard="0"
     inkscape:deskcolor="#d1d1d1"
     showgrid="false"
     inkscape:zoom="0.92709556"
     inkscape:cx="683.31683"
     inkscape:cy="307.41168"
     inkscape:window-width="2880"
     inkscape:window-height="1514"
     inkscape:window-x="3829"
     inkscape:window-y="-11"
     inkscape:window-maximized="1"
     inkscape:current-layer="svg437" />
  <defs
     id="defs5">
    <clipPath
       id="clip0">
      <rect
         x="0"
         y="0"
         width="1280"
         height="720"
         id="rect2" />
    </clipPath>
  </defs>
  <g
     clip-path="url(#clip0)"
     id="g435"
     transform="translate(37.752311,-35.595036)">
    <rect
       x="0"
       y="0"
       width="1280"
       height="720"
       fill="#ffffff"
       id="rect7" />
    <path
       d="M 182,187.041 C 182,179.286 188.286,173 196.041,173 h 31.918 c 7.755,0 14.041,6.286 14.041,14.041 v 79.918 C 242,274.714 235.714,281 227.959,281 H 196.041 C 188.286,281 182,274.714 182,266.959 Z"
       fill="#385723"
       fill-rule="evenodd"
       fill-opacity="0.4"
       id="path9" />
    <path
       d="m 475,182.126 c 0,-5.04 4.086,-9.126 9.126,-9.126 h 20.748 c 5.04,0 9.126,4.086 9.126,9.126 v 89.748 c 0,5.04 -4.086,9.126 -9.126,9.126 h -20.748 c -5.04,0 -9.126,-4.086 -9.126,-9.126 z"
       fill="#385723"
       fill-rule="evenodd"
       fill-opacity="0.4"
       id="path11" />
    <path
       d="m 536,182.126 c 0,-5.04 4.086,-9.126 9.126,-9.126 h 20.748 c 5.04,0 9.126,4.086 9.126,9.126 v 89.748 c 0,5.04 -4.086,9.126 -9.126,9.126 h -20.748 c -5.04,0 -9.126,-4.086 -9.126,-9.126 z"
       fill="#385723"
       fill-rule="evenodd"
       fill-opacity="0.4"
       id="path13" />
    <path
       d="m 596,182.126 c 0,-5.04 4.086,-9.126 9.126,-9.126 h 20.748 c 5.04,0 9.126,4.086 9.126,9.126 v 89.748 c 0,5.04 -4.086,9.126 -9.126,9.126 h -20.748 c -5.04,0 -9.126,-4.086 -9.126,-9.126 z"
       fill="#385723"
       fill-rule="evenodd"
       fill-opacity="0.4"
       id="path15" />
    <path
       d="M 182,316.041 C 182,308.286 188.286,302 196.041,302 h 31.918 c 7.755,0 14.041,6.286 14.041,14.041 v 80.918 C 242,404.714 235.714,411 227.959,411 H 196.041 C 188.286,411 182,404.714 182,396.959 Z"
       fill="#385723"
       fill-rule="evenodd"
       fill-opacity="0.4"
       id="path17" />
    <path
       d="m 475,311.126 c 0,-5.04 4.086,-9.126 9.126,-9.126 h 20.748 c 5.04,0 9.126,4.086 9.126,9.126 v 90.748 c 0,5.04 -4.086,9.126 -9.126,9.126 h -20.748 c -5.04,0 -9.126,-4.086 -9.126,-9.126 z"
       fill="#385723"
       fill-rule="evenodd"
       fill-opacity="0.4"
       id="path19" />
    <path
       d="m 536,311.126 c 0,-5.04 4.086,-9.126 9.126,-9.126 h 20.748 c 5.04,0 9.126,4.086 9.126,9.126 v 90.748 c 0,5.04 -4.086,9.126 -9.126,9.126 h -20.748 c -5.04,0 -9.126,-4.086 -9.126,-9.126 z"
       fill="#385723"
       fill-rule="evenodd"
       fill-opacity="0.4"
       id="path21" />
    <path
       d="m 596,311.126 c 0,-5.04 4.086,-9.126 9.126,-9.126 h 20.748 c 5.04,0 9.126,4.086 9.126,9.126 v 90.748 c 0,5.04 -4.086,9.126 -9.126,9.126 h -20.748 c -5.04,0 -9.126,-4.086 -9.126,-9.126 z"
       fill="#385723"
       fill-rule="evenodd"
       fill-opacity="0.4"
       id="path23" />
    <path
       d="M 182,465.041 C 182,457.286 188.286,451 196.041,451 h 31.918 c 7.755,0 14.041,6.286 14.041,14.041 v 80.918 C 242,553.714 235.714,560 227.959,560 H 196.041 C 188.286,560 182,553.714 182,545.959 Z"
       fill="#385723"
       fill-rule="evenodd"
       fill-opacity="0.4"
       id="path25" />
    <path
       d="M 439,465.275 C 439,457.391 445.391,451 453.275,451 h 32.45 c 7.884,0 14.275,6.391 14.275,14.275 v 80.45 C 500,553.609 493.609,560 485.725,560 h -32.45 C 445.391,560 439,553.609 439,545.725 Z"
       fill="#385723"
       fill-rule="evenodd"
       fill-opacity="0.4"
       id="path27" />
    <path
       d="M 874,465.041 C 874,457.286 880.286,451 888.041,451 h 31.918 c 7.755,0 14.041,6.286 14.041,14.041 v 80.918 C 934,553.714 927.714,560 919.959,560 H 888.041 C 880.286,560 874,553.714 874,545.959 Z"
       fill="#385723"
       fill-rule="evenodd"
       fill-opacity="0.4"
       id="path29" />
    <path
       d="M 567,486.041 C 567,478.286 573.286,472 581.041,472 h 31.918 c 7.755,0 14.041,6.286 14.041,14.041 v 39.918 C 627,533.714 620.714,540 612.959,540 H 581.041 C 573.286,540 567,533.714 567,525.959 Z"
       fill="#ffd966"
       fill-rule="evenodd"
       fill-opacity="0.4"
       id="path31" />
    <path
       d="m 229.154,308.533 h 8.5 v 94.906 h -8.5 v -1.531 h 5.281 v -91.844 h -5.281 z m -43.574,0 h 8.5 v 1.531 h -5.281 v 91.844 h 5.281 v 1.531 h -8.5 z"
       fill-rule="evenodd"
       id="path33" />
    <path
       d="m 197.128,319.046 h 12.313 c 0.135,0 0.239,0.049 0.312,0.148 0.073,0.099 0.109,0.242 0.109,0.43 0,0.073 -0.007,0.161 -0.023,0.266 -0.016,0.104 -0.034,0.218 -0.055,0.343 -0.021,0.125 -0.054,0.248 -0.101,0.368 -0.047,0.119 -0.104,0.229 -0.172,0.328 -0.068,0.099 -0.141,0.179 -0.219,0.242 -0.078,0.062 -0.174,0.094 -0.289,0.094 h -12.312 c -0.146,0 -0.253,-0.052 -0.321,-0.157 -0.067,-0.104 -0.101,-0.244 -0.101,-0.422 0,-0.072 0.005,-0.164 0.015,-0.273 0.011,-0.109 0.032,-0.224 0.063,-0.344 0.031,-0.119 0.068,-0.242 0.109,-0.367 0.042,-0.125 0.097,-0.237 0.164,-0.336 0.068,-0.099 0.143,-0.177 0.227,-0.234 0.083,-0.057 0.177,-0.086 0.281,-0.086 z"
       fill-rule="evenodd"
       id="path35" />
    <text
       fill="#000000"
       fill-opacity="0"
       font-family="Arial, Arial_MSFontService, sans-serif"
       font-size="2.21875px"
       x="196.269"
       y="320.987"
       id="text37">−</text>
    <path
       d="m 219.706,307.561 c 1.177,0 2.209,0.183 3.094,0.547 0.885,0.365 1.562,0.888 2.031,1.571 0.469,0.682 0.703,1.497 0.703,2.445 0,0.885 -0.177,1.664 -0.531,2.336 -0.354,0.672 -0.852,1.258 -1.492,1.758 -0.641,0.5 -1.471,0.989 -2.492,1.468 v 0.141 c 0.635,0.115 1.247,0.31 1.836,0.586 0.588,0.276 1.112,0.633 1.57,1.07 0.458,0.438 0.825,0.961 1.101,1.571 0.277,0.609 0.415,1.304 0.415,2.086 0,1.208 -0.263,2.281 -0.79,3.218 -0.526,0.938 -1.33,1.677 -2.414,2.219 -1.083,0.542 -2.401,0.813 -3.953,0.813 -0.896,0 -1.862,-0.102 -2.898,-0.305 -1.037,-0.203 -1.987,-0.471 -2.852,-0.805 v -3.312 h 1.875 c 0.365,1.083 0.847,1.87 1.446,2.359 0.599,0.49 1.414,0.734 2.445,0.734 1.354,0 2.378,-0.369 3.07,-1.109 0.693,-0.739 1.039,-1.833 1.039,-3.281 0,-1.521 -0.458,-2.682 -1.375,-3.485 -0.916,-0.802 -2.26,-1.203 -4.031,-1.203 h -1.406 v -1.375 c 1.406,-0.083 2.591,-0.354 3.554,-0.812 0.964,-0.458 1.68,-1.047 2.149,-1.766 0.469,-0.719 0.703,-1.526 0.703,-2.422 0,-1.156 -0.307,-2.047 -0.922,-2.672 -0.614,-0.625 -1.51,-0.937 -2.687,-0.937 -0.979,0 -1.776,0.266 -2.391,0.797 -0.615,0.531 -1.068,1.344 -1.359,2.437 h -1.875 v -2.968 c 1.208,-0.573 2.338,-1 3.39,-1.282 1.052,-0.281 2.068,-0.422 3.047,-0.422 z"
       fill-rule="evenodd"
       id="path39" />
    <text
       fill="#000000"
       fill-opacity="0"
       font-family="Arial, Arial_MSFontService, sans-serif"
       font-size="21.8281px"
       x="213.034"
       y="326.66101"
       id="text41">3</text>
    <path
       d="m 212.878,345.075 h 0.859 c -0.062,1 -0.093,2.385 -0.093,4.156 v 13.344 c 0,0.604 0.034,1.06 0.101,1.367 0.068,0.307 0.188,0.557 0.36,0.75 0.171,0.193 0.419,0.344 0.742,0.453 0.323,0.11 0.729,0.193 1.219,0.25 0.489,0.057 1.135,0.096 1.937,0.117 v 1.141 h -11.547 v -1.141 c 1.156,-0.052 1.982,-0.122 2.477,-0.211 0.495,-0.088 0.872,-0.221 1.133,-0.398 0.26,-0.177 0.45,-0.427 0.57,-0.75 0.12,-0.323 0.18,-0.849 0.18,-1.578 v -12.672 c 0,-0.417 -0.073,-0.721 -0.219,-0.914 -0.146,-0.193 -0.36,-0.289 -0.641,-0.289 -0.333,0 -0.807,0.172 -1.422,0.515 -0.614,0.344 -1.375,0.818 -2.281,1.422 l -0.687,-1.203 z"
       fill-rule="evenodd"
       id="path43" />
    <text
       fill="#000000"
       fill-opacity="0"
       font-family="Arial, Arial_MSFontService, sans-serif"
       font-size="21.5781px"
       x="205.56599"
       y="363.95599"
       id="text45">1</text>
    <path
       d="m 211.644,383.916 c -0.719,0 -1.321,0.214 -1.805,0.641 -0.484,0.427 -0.875,1.042 -1.172,1.844 -0.297,0.802 -0.508,1.778 -0.633,2.929 -0.125,1.151 -0.187,2.451 -0.187,3.899 0,3.396 0.315,5.888 0.945,7.476 0.63,1.589 1.607,2.383 2.93,2.383 1.26,0 2.195,-0.747 2.804,-2.242 0.61,-1.495 0.915,-3.81 0.915,-6.945 0,-2.396 -0.157,-4.336 -0.469,-5.821 -0.313,-1.484 -0.748,-2.549 -1.305,-3.195 -0.557,-0.646 -1.232,-0.969 -2.023,-0.969 z m 0.078,-1.328 c 2.281,0 3.979,0.88 5.094,2.641 1.114,1.76 1.671,4.422 1.671,7.984 0,3.688 -0.596,6.477 -1.789,8.367 -1.192,1.891 -2.935,2.836 -5.226,2.836 -2.25,0 -3.925,-0.885 -5.024,-2.656 -1.099,-1.771 -1.648,-4.458 -1.648,-8.062 0,-1.917 0.169,-3.573 0.508,-4.969 0.338,-1.396 0.812,-2.55 1.422,-3.461 0.609,-0.912 1.341,-1.586 2.195,-2.024 0.854,-0.437 1.786,-0.656 2.797,-0.656 z"
       fill-rule="evenodd"
       id="path47" />
    <text
       fill="#000000"
       fill-opacity="0"
       font-family="Arial, Arial_MSFontService, sans-serif"
       font-size="21.8281px"
       x="204.8"
       y="401.68799"
       id="text49">0</text>
    <text
       font-family="Calibri, Calibri_MSFontService, sans-serif"
       font-weight="400"
       font-size="32px"
       transform="translate(248.384,365)"
       id="text51">is in the span of</text>
    <path
       d="m 637.442,308.468 c 2.281,0.312 4.302,2.036 6.062,5.172 1.771,3.145 2.657,8.078 2.657,14.797 0,1.229 -0.089,2.674 -0.266,4.335 -0.177,1.662 -0.443,3.56 -0.797,5.696 -0.354,2.135 -0.62,3.924 -0.797,5.367 -0.177,1.443 -0.265,2.555 -0.265,3.336 0,2.531 0.369,4.489 1.109,5.875 0.75,1.375 1.708,2.114 2.875,2.219 v 1.609 c -1.167,0.104 -2.125,0.844 -2.875,2.219 -0.74,1.385 -1.109,3.344 -1.109,5.875 0,0.781 0.088,1.893 0.265,3.336 0.177,1.442 0.443,3.231 0.797,5.367 0.354,2.135 0.62,4.034 0.797,5.695 0.177,1.662 0.266,3.107 0.266,4.336 0,6.615 -0.886,11.495 -2.657,14.641 -1.76,3.135 -3.781,4.859 -6.062,5.172 v -1.344 c 1.427,-0.302 2.719,-1.698 3.875,-4.188 1.156,-2.479 1.734,-6.364 1.734,-11.656 0,-1.104 -0.086,-2.487 -0.258,-4.148 -0.172,-1.662 -0.424,-3.628 -0.757,-5.899 -0.334,-2.26 -0.586,-4.078 -0.758,-5.453 -0.172,-1.375 -0.258,-2.323 -0.258,-2.844 0,-3.031 0.307,-5.51 0.922,-7.437 0.604,-1.917 1.682,-3.339 3.234,-4.266 v -0.422 c -1.541,-0.916 -2.62,-2.333 -3.234,-4.25 -0.615,-1.937 -0.922,-4.421 -0.922,-7.453 0,-0.521 0.086,-1.468 0.258,-2.843 0.172,-1.375 0.424,-3.193 0.758,-5.454 0.333,-2.27 0.585,-4.237 0.757,-5.898 0.172,-1.662 0.258,-3.044 0.258,-4.148 0,-5.386 -0.578,-9.323 -1.734,-11.813 -1.156,-2.49 -2.448,-3.885 -3.875,-4.187 z m -165.808,0 v 1.344 c -1.427,0.302 -2.718,1.697 -3.875,4.187 -1.156,2.49 -1.734,6.427 -1.734,11.813 0,2.187 0.338,5.533 1.016,10.039 0.677,4.505 1.015,7.273 1.015,8.304 0,3.052 -0.307,5.534 -0.922,7.446 -0.614,1.911 -1.692,3.33 -3.234,4.257 v 0.422 c 1.542,0.927 2.62,2.347 3.234,4.258 0.615,1.912 0.922,4.393 0.922,7.445 0,1.032 -0.338,3.8 -1.015,8.305 -0.678,4.505 -1.016,7.852 -1.016,10.039 0,5.281 0.578,9.167 1.734,11.656 1.157,2.49 2.448,3.886 3.875,4.188 v 1.344 c -2.271,-0.313 -4.291,-2.037 -6.062,-5.172 -1.771,-3.136 -2.656,-8.016 -2.656,-14.641 0,-2.437 0.354,-5.781 1.062,-10.031 0.708,-4.25 1.063,-7.151 1.063,-8.703 0,-2.542 -0.373,-4.5 -1.118,-5.875 -0.744,-1.375 -1.7,-2.115 -2.867,-2.219 v -1.609 c 1.167,-0.105 2.123,-0.844 2.867,-2.219 0.745,-1.375 1.118,-3.333 1.118,-5.875 0,-1.552 -0.355,-4.453 -1.063,-8.703 -0.708,-4.25 -1.062,-7.594 -1.062,-10.031 0,-6.73 0.885,-11.662 2.656,-14.797 1.771,-3.136 3.791,-4.86 6.062,-5.172 z"
       fill-rule="evenodd"
       id="path53" />
    <path
       d="m 503.707,308.533 h 8.5 v 94.906 h -8.5 v -1.531 h 5.282 v -91.844 h -5.282 z m -27.574,0 h 8.5 v 1.531 h -5.281 v 91.844 h 5.281 v 1.531 h -8.5 z"
       fill-rule="evenodd"
       id="path55" />
    <path
       d="m 495.431,307.561 h 0.86 c -0.063,1 -0.094,2.386 -0.094,4.157 v 13.343 c 0,0.605 0.034,1.06 0.102,1.368 0.067,0.307 0.187,0.557 0.359,0.75 0.172,0.192 0.419,0.343 0.742,0.453 0.323,0.109 0.729,0.193 1.219,0.25 0.489,0.057 1.135,0.096 1.937,0.117 v 1.141 H 489.01 v -1.141 c 1.156,-0.052 1.981,-0.122 2.476,-0.211 0.495,-0.088 0.872,-0.221 1.133,-0.398 0.26,-0.177 0.45,-0.427 0.57,-0.75 0.12,-0.323 0.18,-0.849 0.18,-1.579 V 312.39 c 0,-0.417 -0.073,-0.722 -0.219,-0.914 -0.146,-0.193 -0.359,-0.29 -0.64,-0.29 -0.334,0 -0.808,0.172 -1.422,0.516 -0.615,0.344 -1.375,0.818 -2.282,1.422 l -0.687,-1.203 z"
       fill-rule="evenodd"
       id="path57" />
    <text
       fill="#000000"
       fill-opacity="0"
       font-family="Arial, Arial_MSFontService, sans-serif"
       font-size="21.5781px"
       x="488.11899"
       y="326.44199"
       id="text59">1</text>
    <path
       d="m 494.197,346.403 c -0.719,0 -1.32,0.213 -1.805,0.641 -0.484,0.427 -0.875,1.041 -1.172,1.843 -0.296,0.802 -0.507,1.779 -0.632,2.93 -0.125,1.151 -0.188,2.451 -0.188,3.898 0,3.396 0.315,5.888 0.945,7.477 0.631,1.589 1.607,2.383 2.93,2.383 1.261,0 2.195,-0.748 2.805,-2.242 0.609,-1.495 0.914,-3.81 0.914,-6.946 0,-2.396 -0.156,-4.336 -0.469,-5.82 -0.312,-1.484 -0.747,-2.549 -1.305,-3.195 -0.557,-0.646 -1.231,-0.969 -2.023,-0.969 z m 0.078,-1.328 c 2.281,0 3.979,0.88 5.094,2.64 1.114,1.761 1.672,4.422 1.672,7.985 0,3.687 -0.597,6.476 -1.789,8.367 -1.193,1.891 -2.935,2.836 -5.227,2.836 -2.25,0 -3.924,-0.885 -5.023,-2.656 -1.099,-1.771 -1.649,-4.459 -1.649,-8.063 0,-1.916 0.17,-3.573 0.508,-4.969 0.339,-1.395 0.813,-2.549 1.422,-3.46 0.609,-0.912 1.341,-1.586 2.195,-2.024 0.854,-0.437 1.787,-0.656 2.797,-0.656 z"
       fill-rule="evenodd"
       id="path61" />
    <text
       fill="#000000"
       fill-opacity="0"
       font-family="Arial, Arial_MSFontService, sans-serif"
       font-size="21.8281px"
       x="487.353"
       y="364.17401"
       id="text63">0</text>
    <path
       d="m 494.197,383.916 c -0.719,0 -1.32,0.214 -1.805,0.641 -0.484,0.427 -0.875,1.042 -1.172,1.844 -0.296,0.802 -0.507,1.778 -0.632,2.929 -0.125,1.151 -0.188,2.451 -0.188,3.899 0,3.396 0.315,5.888 0.945,7.476 0.631,1.589 1.607,2.383 2.93,2.383 1.261,0 2.195,-0.747 2.805,-2.242 0.609,-1.495 0.914,-3.81 0.914,-6.945 0,-2.396 -0.156,-4.336 -0.469,-5.821 -0.312,-1.484 -0.747,-2.549 -1.305,-3.195 -0.557,-0.646 -1.231,-0.969 -2.023,-0.969 z m 0.078,-1.328 c 2.281,0 3.979,0.88 5.094,2.641 1.114,1.76 1.672,4.422 1.672,7.984 0,3.688 -0.597,6.477 -1.789,8.367 -1.193,1.891 -2.935,2.836 -5.227,2.836 -2.25,0 -3.924,-0.885 -5.023,-2.656 -1.099,-1.771 -1.649,-4.458 -1.649,-8.062 0,-1.917 0.17,-3.573 0.508,-4.969 0.339,-1.396 0.813,-2.55 1.422,-3.461 0.609,-0.912 1.341,-1.586 2.195,-2.024 0.854,-0.437 1.787,-0.656 2.797,-0.656 z"
       fill-rule="evenodd"
       id="path65" />
    <text
       fill="#000000"
       fill-opacity="0"
       font-family="Arial, Arial_MSFontService, sans-serif"
       font-size="21.8281px"
       x="487.353"
       y="401.68799"
       id="text67">0</text>
    <path
       d="m 523.198,361.501 h 2.734 c 0.146,0.729 0.219,1.448 0.219,2.157 0,0.729 -0.125,1.395 -0.375,2 -0.25,0.604 -0.648,1.205 -1.195,1.804 -0.547,0.599 -1.3,1.258 -2.258,1.977 l -0.844,-0.953 c 0.532,-0.5 0.917,-0.951 1.157,-1.352 0.239,-0.401 0.411,-0.857 0.515,-1.367 0.104,-0.51 0.156,-1.151 0.156,-1.922 0,-0.792 -0.036,-1.573 -0.109,-2.344 z"
       fill-rule="evenodd"
       id="path69" />
    <text
       fill="#000000"
       fill-opacity="0"
       font-family="Arial, Arial_MSFontService, sans-serif"
       font-size="7.9375px"
       x="521.479"
       y="368.44699"
       id="text71">,</text>
    <path
       d="m 564.074,308.533 h 8.5 v 94.906 h -8.5 v -1.531 h 5.281 v -91.844 h -5.281 z m -27.574,0 h 8.5 v 1.531 h -5.281 v 91.844 H 545 v 1.531 h -8.5 z"
       fill-rule="evenodd"
       id="path73" />
    <path
       d="m 554.564,308.89 c -0.719,0 -1.321,0.213 -1.805,0.64 -0.484,0.427 -0.875,1.042 -1.172,1.844 -0.297,0.802 -0.508,1.779 -0.633,2.93 -0.125,1.151 -0.187,2.45 -0.187,3.898 0,3.396 0.315,5.888 0.945,7.477 0.63,1.588 1.607,2.382 2.93,2.382 1.26,0 2.195,-0.747 2.804,-2.242 0.61,-1.494 0.915,-3.81 0.915,-6.945 0,-2.396 -0.157,-4.336 -0.469,-5.82 -0.313,-1.485 -0.748,-2.55 -1.305,-3.196 -0.557,-0.645 -1.232,-0.968 -2.023,-0.968 z m 0.078,-1.329 c 2.281,0 3.979,0.881 5.094,2.641 1.114,1.761 1.671,4.422 1.671,7.984 0,3.688 -0.596,6.477 -1.789,8.368 -1.192,1.89 -2.935,2.836 -5.226,2.836 -2.25,0 -3.925,-0.886 -5.024,-2.657 -1.099,-1.77 -1.648,-4.458 -1.648,-8.062 0,-1.917 0.169,-3.573 0.508,-4.969 0.338,-1.396 0.812,-2.549 1.422,-3.461 0.609,-0.911 1.341,-1.586 2.195,-2.023 0.854,-0.438 1.786,-0.657 2.797,-0.657 z"
       fill-rule="evenodd"
       id="path75" />
    <text
       fill="#000000"
       fill-opacity="0"
       font-family="Arial, Arial_MSFontService, sans-serif"
       font-size="21.8281px"
       x="547.71997"
       y="326.66101"
       id="text77">0</text>
    <path
       d="m 555.798,345.075 h 0.859 c -0.062,1 -0.093,2.385 -0.093,4.156 v 13.344 c 0,0.604 0.034,1.06 0.101,1.367 0.068,0.307 0.188,0.557 0.36,0.75 0.171,0.193 0.419,0.344 0.742,0.453 0.323,0.11 0.729,0.193 1.219,0.25 0.489,0.057 1.135,0.096 1.937,0.117 v 1.141 h -11.547 v -1.141 c 1.156,-0.052 1.982,-0.122 2.477,-0.211 0.495,-0.088 0.872,-0.221 1.133,-0.398 0.26,-0.177 0.45,-0.427 0.57,-0.75 0.12,-0.323 0.18,-0.849 0.18,-1.578 v -12.672 c 0,-0.417 -0.073,-0.721 -0.219,-0.914 -0.146,-0.193 -0.36,-0.289 -0.641,-0.289 -0.333,0 -0.807,0.172 -1.422,0.515 -0.614,0.344 -1.375,0.818 -2.281,1.422 l -0.687,-1.203 z"
       fill-rule="evenodd"
       id="path79" />
    <text
       fill="#000000"
       fill-opacity="0"
       font-family="Arial, Arial_MSFontService, sans-serif"
       font-size="21.5781px"
       x="548.48602"
       y="363.95599"
       id="text81">1</text>
    <path
       d="m 554.564,383.916 c -0.719,0 -1.321,0.214 -1.805,0.641 -0.484,0.427 -0.875,1.042 -1.172,1.844 -0.297,0.802 -0.508,1.778 -0.633,2.929 -0.125,1.151 -0.187,2.451 -0.187,3.899 0,3.396 0.315,5.888 0.945,7.476 0.63,1.589 1.607,2.383 2.93,2.383 1.26,0 2.195,-0.747 2.804,-2.242 0.61,-1.495 0.915,-3.81 0.915,-6.945 0,-2.396 -0.157,-4.336 -0.469,-5.821 -0.313,-1.484 -0.748,-2.549 -1.305,-3.195 -0.557,-0.646 -1.232,-0.969 -2.023,-0.969 z m 0.078,-1.328 c 2.281,0 3.979,0.88 5.094,2.641 1.114,1.76 1.671,4.422 1.671,7.984 0,3.688 -0.596,6.477 -1.789,8.367 -1.192,1.891 -2.935,2.836 -5.226,2.836 -2.25,0 -3.925,-0.885 -5.024,-2.656 -1.099,-1.771 -1.648,-4.458 -1.648,-8.062 0,-1.917 0.169,-3.573 0.508,-4.969 0.338,-1.396 0.812,-2.55 1.422,-3.461 0.609,-0.912 1.341,-1.586 2.195,-2.024 0.854,-0.437 1.786,-0.656 2.797,-0.656 z"
       fill-rule="evenodd"
       id="path83" />
    <text
       fill="#000000"
       fill-opacity="0"
       font-family="Arial, Arial_MSFontService, sans-serif"
       font-size="21.8281px"
       x="547.71997"
       y="401.68799"
       id="text85">0</text>
    <path
       d="m 583.565,361.501 h 2.734 c 0.146,0.729 0.219,1.448 0.219,2.157 0,0.729 -0.125,1.395 -0.375,2 -0.25,0.604 -0.649,1.205 -1.195,1.804 -0.547,0.599 -1.3,1.258 -2.258,1.977 l -0.844,-0.953 c 0.531,-0.5 0.917,-0.951 1.156,-1.352 0.24,-0.401 0.412,-0.857 0.516,-1.367 0.104,-0.51 0.156,-1.151 0.156,-1.922 0,-0.792 -0.036,-1.573 -0.109,-2.344 z"
       fill-rule="evenodd"
       id="path87" />
    <text
       fill="#000000"
       fill-opacity="0"
       font-family="Arial, Arial_MSFontService, sans-serif"
       font-size="7.9375px"
       x="581.84601"
       y="368.44699"
       id="text89">,</text>
    <path
       d="m 624.441,308.533 h 8.5 v 94.906 h -8.5 v -1.531 h 5.281 v -91.844 h -5.281 z m -27.574,0 h 8.5 v 1.531 h -5.281 v 91.844 h 5.281 v 1.531 h -8.5 z"
       fill-rule="evenodd"
       id="path91" />
    <path
       d="m 614.93,309.016 c -0.718,0 -1.32,0.214 -1.804,0.641 -0.485,0.427 -0.875,1.042 -1.172,1.844 -0.297,0.802 -0.508,1.778 -0.633,2.929 -0.125,1.151 -0.188,2.451 -0.188,3.899 0,3.396 0.316,5.888 0.946,7.476 0.63,1.589 1.607,2.383 2.929,2.383 1.261,0 2.196,-0.747 2.805,-2.242 0.61,-1.495 0.914,-3.81 0.914,-6.945 0,-2.396 -0.156,-4.336 -0.469,-5.821 -0.312,-1.484 -0.747,-2.549 -1.304,-3.195 -0.558,-0.646 -1.232,-0.969 -2.024,-0.969 z m 0.078,-1.328 c 2.282,0 3.98,0.88 5.094,2.641 1.115,1.76 1.672,4.422 1.672,7.984 0,3.688 -0.596,6.477 -1.789,8.367 -1.193,1.891 -2.935,2.836 -5.227,2.836 -2.25,0 -3.924,-0.885 -5.023,-2.656 -1.099,-1.771 -1.648,-4.458 -1.648,-8.062 0,-1.917 0.169,-3.573 0.507,-4.969 0.339,-1.396 0.813,-2.55 1.422,-3.461 0.61,-0.912 1.341,-1.586 2.196,-2.024 0.854,-0.437 1.786,-0.656 2.796,-0.656 z"
       fill-rule="evenodd"
       id="path93" />
    <text
       fill="#000000"
       fill-opacity="0"
       font-family="Arial, Arial_MSFontService, sans-serif"
       font-size="21.8281px"
       x="608.08698"
       y="326.78799"
       id="text95">0</text>
    <path
       d="m 614.93,346.53 c -0.718,0 -1.32,0.213 -1.804,0.64 -0.485,0.427 -0.875,1.042 -1.172,1.844 -0.297,0.802 -0.508,1.779 -0.633,2.93 -0.125,1.151 -0.188,2.45 -0.188,3.898 0,3.396 0.316,5.888 0.946,7.477 0.63,1.588 1.607,2.383 2.929,2.383 1.261,0 2.196,-0.748 2.805,-2.243 0.61,-1.494 0.914,-3.81 0.914,-6.945 0,-2.396 -0.156,-4.336 -0.469,-5.82 -0.312,-1.485 -0.747,-2.55 -1.304,-3.196 -0.558,-0.645 -1.232,-0.968 -2.024,-0.968 z m 0.078,-1.328 c 2.282,0 3.98,0.88 5.094,2.64 1.115,1.761 1.672,4.422 1.672,7.985 0,3.687 -0.596,6.476 -1.789,8.367 -1.193,1.89 -2.935,2.836 -5.227,2.836 -2.25,0 -3.924,-0.886 -5.023,-2.657 -1.099,-1.77 -1.648,-4.458 -1.648,-8.062 0,-1.917 0.169,-3.573 0.507,-4.969 0.339,-1.396 0.813,-2.549 1.422,-3.461 0.61,-0.911 1.341,-1.586 2.196,-2.023 0.854,-0.438 1.786,-0.656 2.796,-0.656 z"
       fill-rule="evenodd"
       id="path97" />
    <text
       fill="#000000"
       fill-opacity="0"
       font-family="Arial, Arial_MSFontService, sans-serif"
       font-size="21.8281px"
       x="608.08698"
       y="364.30099"
       id="text99">0</text>
    <path
       d="m 616.165,382.715 h 0.859 c -0.062,1 -0.094,2.385 -0.094,4.156 v 13.344 c 0,0.604 0.034,1.06 0.102,1.367 0.068,0.307 0.187,0.557 0.359,0.75 0.172,0.193 0.42,0.344 0.742,0.453 0.323,0.11 0.73,0.193 1.219,0.25 0.49,0.057 1.136,0.097 1.938,0.117 v 1.141 h -11.547 v -1.141 c 1.156,-0.052 1.982,-0.122 2.476,-0.211 0.495,-0.088 0.873,-0.221 1.133,-0.398 0.261,-0.177 0.451,-0.427 0.571,-0.75 0.119,-0.323 0.179,-0.849 0.179,-1.578 v -12.672 c 0,-0.417 -0.073,-0.721 -0.219,-0.914 -0.145,-0.193 -0.359,-0.289 -0.64,-0.289 -0.333,0 -0.807,0.172 -1.422,0.515 -0.615,0.344 -1.375,0.818 -2.281,1.422 l -0.688,-1.203 z"
       fill-rule="evenodd"
       id="path101" />
    <text
       fill="#000000"
       fill-opacity="0"
       font-family="Arial, Arial_MSFontService, sans-serif"
       font-size="21.5781px"
       x="608.85199"
       y="401.59601"
       id="text103">1</text>
    <text
       font-family="Calibri, Calibri_MSFontService, sans-serif"
       font-weight="400"
       font-size="32px"
       transform="translate(656.358,365)"
       id="text107">as -<tspan
   font-size="32px"
   x="44.833302"
   y="0"
   id="tspan105">3</tspan></text>
    <path
       d="m 755.661,308.533 h 8.5 v 94.906 h -8.5 v -1.531 h 5.281 v -91.844 h -5.281 z m -27.574,0 h 8.5 v 1.531 h -5.281 v 91.844 h 5.281 v 1.531 h -8.5 z"
       fill-rule="evenodd"
       id="path109" />
    <path
       d="m 747.385,307.561 h 0.859 c -0.062,1 -0.094,2.386 -0.094,4.157 v 13.343 c 0,0.605 0.034,1.06 0.102,1.368 0.068,0.307 0.187,0.557 0.359,0.75 0.172,0.192 0.42,0.343 0.742,0.453 0.323,0.109 0.73,0.193 1.219,0.25 0.49,0.057 1.136,0.096 1.938,0.117 v 1.141 h -11.547 v -1.141 c 1.156,-0.052 1.982,-0.122 2.476,-0.211 0.495,-0.088 0.873,-0.221 1.133,-0.398 0.261,-0.177 0.451,-0.427 0.571,-0.75 0.119,-0.323 0.179,-0.849 0.179,-1.579 V 312.39 c 0,-0.417 -0.073,-0.722 -0.219,-0.914 -0.145,-0.193 -0.359,-0.29 -0.64,-0.29 -0.333,0 -0.807,0.172 -1.422,0.516 -0.615,0.344 -1.375,0.818 -2.281,1.422 l -0.688,-1.203 z"
       fill-rule="evenodd"
       id="path111" />
    <text
       fill="#000000"
       fill-opacity="0"
       font-family="Arial, Arial_MSFontService, sans-serif"
       font-size="21.5781px"
       x="740.07202"
       y="326.44199"
       id="text113">1</text>
    <path
       d="m 746.15,346.403 c -0.718,0 -1.32,0.213 -1.804,0.641 -0.485,0.427 -0.875,1.041 -1.172,1.843 -0.297,0.802 -0.508,1.779 -0.633,2.93 -0.125,1.151 -0.188,2.451 -0.188,3.898 0,3.396 0.316,5.888 0.946,7.477 0.63,1.589 1.607,2.383 2.929,2.383 1.261,0 2.196,-0.748 2.805,-2.242 0.61,-1.495 0.914,-3.81 0.914,-6.946 0,-2.396 -0.156,-4.336 -0.469,-5.82 -0.312,-1.484 -0.747,-2.549 -1.304,-3.195 -0.558,-0.646 -1.232,-0.969 -2.024,-0.969 z m 0.078,-1.328 c 2.282,0 3.98,0.88 5.094,2.64 1.115,1.761 1.672,4.422 1.672,7.985 0,3.687 -0.596,6.476 -1.789,8.367 -1.193,1.891 -2.935,2.836 -5.227,2.836 -2.25,0 -3.924,-0.885 -5.023,-2.656 -1.099,-1.771 -1.648,-4.459 -1.648,-8.063 0,-1.916 0.169,-3.573 0.507,-4.969 0.339,-1.395 0.813,-2.549 1.422,-3.46 0.61,-0.912 1.341,-1.586 2.196,-2.024 0.854,-0.437 1.786,-0.656 2.796,-0.656 z"
       fill-rule="evenodd"
       id="path115" />
    <text
       fill="#000000"
       fill-opacity="0"
       font-family="Arial, Arial_MSFontService, sans-serif"
       font-size="21.8281px"
       x="739.30701"
       y="364.17401"
       id="text117">0</text>
    <path
       d="m 746.15,383.916 c -0.718,0 -1.32,0.214 -1.804,0.641 -0.485,0.427 -0.875,1.042 -1.172,1.844 -0.297,0.802 -0.508,1.778 -0.633,2.929 -0.125,1.151 -0.188,2.451 -0.188,3.899 0,3.396 0.316,5.888 0.946,7.476 0.63,1.589 1.607,2.383 2.929,2.383 1.261,0 2.196,-0.747 2.805,-2.242 0.61,-1.495 0.914,-3.81 0.914,-6.945 0,-2.396 -0.156,-4.336 -0.469,-5.821 -0.312,-1.484 -0.747,-2.549 -1.304,-3.195 -0.558,-0.646 -1.232,-0.969 -2.024,-0.969 z m 0.078,-1.328 c 2.282,0 3.98,0.88 5.094,2.641 1.115,1.76 1.672,4.422 1.672,7.984 0,3.688 -0.596,6.477 -1.789,8.367 -1.193,1.891 -2.935,2.836 -5.227,2.836 -2.25,0 -3.924,-0.885 -5.023,-2.656 -1.099,-1.771 -1.648,-4.458 -1.648,-8.062 0,-1.917 0.169,-3.573 0.507,-4.969 0.339,-1.396 0.813,-2.55 1.422,-3.461 0.61,-0.912 1.341,-1.586 2.196,-2.024 0.854,-0.437 1.786,-0.656 2.796,-0.656 z"
       fill-rule="evenodd"
       id="path119" />
    <text
       fill="#000000"
       fill-opacity="0"
       font-family="Arial, Arial_MSFontService, sans-serif"
       font-size="21.8281px"
       x="739.30701"
       y="401.68799"
       id="text121">0</text>
    <path
       d="m 785.681,345.939 h 2.219 v 9 h 8.516 v 2.078 H 787.9 v 9 h -2.219 v -9 h -8.515 v -2.078 h 8.515 z"
       fill-rule="evenodd"
       id="path123" />
    <text
       fill="#000000"
       fill-opacity="0"
       font-family="Arial, Arial_MSFontService, sans-serif"
       font-size="20.0781px"
       x="777.16602"
       y="363.50699"
       id="text125">+</text>
    <path
       d="m 843.921,308.533 h 8.5 v 94.906 h -8.5 v -1.531 h 5.281 v -91.844 h -5.281 z m -27.574,0 h 8.5 v 1.531 h -5.281 v 91.844 h 5.281 v 1.531 h -8.5 z"
       fill-rule="evenodd"
       id="path127" />
    <path
       d="m 834.41,308.89 c -0.718,0 -1.32,0.213 -1.804,0.64 -0.485,0.427 -0.875,1.042 -1.172,1.844 -0.297,0.802 -0.508,1.779 -0.633,2.93 -0.125,1.151 -0.188,2.45 -0.188,3.898 0,3.396 0.316,5.888 0.946,7.477 0.63,1.588 1.607,2.382 2.929,2.382 1.261,0 2.196,-0.747 2.805,-2.242 0.61,-1.494 0.914,-3.81 0.914,-6.945 0,-2.396 -0.156,-4.336 -0.469,-5.82 -0.312,-1.485 -0.747,-2.55 -1.304,-3.196 -0.558,-0.645 -1.232,-0.968 -2.024,-0.968 z m 0.078,-1.329 c 2.282,0 3.98,0.881 5.094,2.641 1.115,1.761 1.672,4.422 1.672,7.984 0,3.688 -0.596,6.477 -1.789,8.368 -1.193,1.89 -2.935,2.836 -5.227,2.836 -2.25,0 -3.924,-0.886 -5.023,-2.657 -1.099,-1.77 -1.648,-4.458 -1.648,-8.062 0,-1.917 0.169,-3.573 0.507,-4.969 0.339,-1.396 0.813,-2.549 1.422,-3.461 0.61,-0.911 1.341,-1.586 2.196,-2.023 0.854,-0.438 1.786,-0.657 2.796,-0.657 z"
       fill-rule="evenodd"
       id="path129" />
    <text
       fill="#000000"
       fill-opacity="0"
       font-family="Arial, Arial_MSFontService, sans-serif"
       font-size="21.8281px"
       x="827.56702"
       y="326.66101"
       id="text131">0</text>
    <path
       d="m 835.645,345.075 h 0.859 c -0.062,1 -0.094,2.385 -0.094,4.156 v 13.344 c 0,0.604 0.034,1.06 0.102,1.367 0.068,0.307 0.187,0.557 0.359,0.75 0.172,0.193 0.42,0.344 0.742,0.453 0.323,0.11 0.73,0.193 1.219,0.25 0.49,0.057 1.136,0.096 1.938,0.117 v 1.141 h -11.547 v -1.141 c 1.156,-0.052 1.982,-0.122 2.476,-0.211 0.495,-0.088 0.873,-0.221 1.133,-0.398 0.261,-0.177 0.451,-0.427 0.571,-0.75 0.119,-0.323 0.179,-0.849 0.179,-1.578 v -12.672 c 0,-0.417 -0.073,-0.721 -0.219,-0.914 -0.145,-0.193 -0.359,-0.289 -0.64,-0.289 -0.333,0 -0.807,0.172 -1.422,0.515 -0.615,0.344 -1.375,0.818 -2.281,1.422 l -0.688,-1.203 z"
       fill-rule="evenodd"
       id="path133" />
    <text
       fill="#000000"
       fill-opacity="0"
       font-family="Arial, Arial_MSFontService, sans-serif"
       font-size="21.5781px"
       x="828.33197"
       y="363.95599"
       id="text135">1</text>
    <path
       d="m 834.41,383.916 c -0.718,0 -1.32,0.214 -1.804,0.641 -0.485,0.427 -0.875,1.042 -1.172,1.844 -0.297,0.802 -0.508,1.778 -0.633,2.929 -0.125,1.151 -0.188,2.451 -0.188,3.899 0,3.396 0.316,5.888 0.946,7.476 0.63,1.589 1.607,2.383 2.929,2.383 1.261,0 2.196,-0.747 2.805,-2.242 0.61,-1.495 0.914,-3.81 0.914,-6.945 0,-2.396 -0.156,-4.336 -0.469,-5.821 -0.312,-1.484 -0.747,-2.549 -1.304,-3.195 -0.558,-0.646 -1.232,-0.969 -2.024,-0.969 z m 0.078,-1.328 c 2.282,0 3.98,0.88 5.094,2.641 1.115,1.76 1.672,4.422 1.672,7.984 0,3.688 -0.596,6.477 -1.789,8.367 -1.193,1.891 -2.935,2.836 -5.227,2.836 -2.25,0 -3.924,-0.885 -5.023,-2.656 -1.099,-1.771 -1.648,-4.458 -1.648,-8.062 0,-1.917 0.169,-3.573 0.507,-4.969 0.339,-1.396 0.813,-2.55 1.422,-3.461 0.61,-0.912 1.341,-1.586 2.196,-2.024 0.854,-0.437 1.786,-0.656 2.796,-0.656 z"
       fill-rule="evenodd"
       id="path137" />
    <text
       fill="#000000"
       fill-opacity="0"
       font-family="Arial, Arial_MSFontService, sans-serif"
       font-size="21.8281px"
       x="827.56702"
       y="401.68799"
       id="text139">0</text>
    <text
       font-family="Calibri, Calibri_MSFontService, sans-serif"
       font-weight="400"
       font-size="32px"
       transform="translate(863.151,365)"
       id="text141">+</text>
    <path
       d="m 895.177,344.876 c -0.719,0 -1.32,0.214 -1.805,0.641 -0.484,0.427 -0.875,1.042 -1.172,1.844 -0.296,0.802 -0.507,1.778 -0.632,2.929 -0.125,1.151 -0.188,2.451 -0.188,3.899 0,3.396 0.315,5.888 0.945,7.476 0.631,1.589 1.607,2.383 2.93,2.383 1.261,0 2.195,-0.747 2.805,-2.242 0.609,-1.495 0.914,-3.81 0.914,-6.945 0,-2.396 -0.156,-4.336 -0.469,-5.821 -0.312,-1.484 -0.747,-2.549 -1.305,-3.195 -0.557,-0.646 -1.231,-0.969 -2.023,-0.969 z m 0.078,-1.328 c 2.281,0 3.979,0.88 5.094,2.641 1.114,1.76 1.672,4.422 1.672,7.984 0,3.688 -0.597,6.477 -1.789,8.367 -1.193,1.891 -2.935,2.836 -5.227,2.836 -2.25,0 -3.924,-0.885 -5.023,-2.656 -1.099,-1.771 -1.649,-4.458 -1.649,-8.062 0,-1.917 0.17,-3.573 0.508,-4.969 0.339,-1.396 0.813,-2.55 1.422,-3.461 0.609,-0.912 1.341,-1.586 2.195,-2.024 0.854,-0.437 1.787,-0.656 2.797,-0.656 z"
       fill-rule="evenodd"
       id="path143" />
    <text
       fill="#000000"
       fill-opacity="0"
       font-family="Arial, Arial_MSFontService, sans-serif"
       font-size="21.8281px"
       x="888.33301"
       y="362.64801"
       id="text145">0</text>
    <path
       d="m 940.454,308.533 h 8.5 v 94.906 h -8.5 v -1.531 h 5.281 v -91.844 h -5.281 z m -27.574,0 h 8.5 v 1.531 h -5.281 v 91.844 h 5.281 v 1.531 h -8.5 z"
       fill-rule="evenodd"
       id="path147" />
    <path
       d="m 930.944,309.016 c -0.719,0 -1.321,0.214 -1.805,0.641 -0.484,0.427 -0.875,1.042 -1.172,1.844 -0.297,0.802 -0.508,1.778 -0.633,2.929 -0.125,1.151 -0.187,2.451 -0.187,3.899 0,3.396 0.315,5.888 0.945,7.476 0.63,1.589 1.607,2.383 2.93,2.383 1.26,0 2.195,-0.747 2.805,-2.242 0.609,-1.495 0.914,-3.81 0.914,-6.945 0,-2.396 -0.157,-4.336 -0.469,-5.821 -0.313,-1.484 -0.748,-2.549 -1.305,-3.195 -0.557,-0.646 -1.232,-0.969 -2.023,-0.969 z m 0.078,-1.328 c 2.281,0 3.979,0.88 5.094,2.641 1.114,1.76 1.671,4.422 1.671,7.984 0,3.688 -0.596,6.477 -1.789,8.367 -1.192,1.891 -2.934,2.836 -5.226,2.836 -2.25,0 -3.925,-0.885 -5.024,-2.656 -1.099,-1.771 -1.648,-4.458 -1.648,-8.062 0,-1.917 0.169,-3.573 0.508,-4.969 0.338,-1.396 0.812,-2.55 1.422,-3.461 0.609,-0.912 1.341,-1.586 2.195,-2.024 0.854,-0.437 1.786,-0.656 2.797,-0.656 z"
       fill-rule="evenodd"
       id="path149" />
    <text
       fill="#000000"
       fill-opacity="0"
       font-family="Arial, Arial_MSFontService, sans-serif"
       font-size="21.8281px"
       x="924.09998"
       y="326.78799"
       id="text151">0</text>
    <path
       d="m 930.944,346.53 c -0.719,0 -1.321,0.213 -1.805,0.64 -0.484,0.427 -0.875,1.042 -1.172,1.844 -0.297,0.802 -0.508,1.779 -0.633,2.93 -0.125,1.151 -0.187,2.45 -0.187,3.898 0,3.396 0.315,5.888 0.945,7.477 0.63,1.588 1.607,2.383 2.93,2.383 1.26,0 2.195,-0.748 2.805,-2.243 0.609,-1.494 0.914,-3.81 0.914,-6.945 0,-2.396 -0.157,-4.336 -0.469,-5.82 -0.313,-1.485 -0.748,-2.55 -1.305,-3.196 -0.557,-0.645 -1.232,-0.968 -2.023,-0.968 z m 0.078,-1.328 c 2.281,0 3.979,0.88 5.094,2.64 1.114,1.761 1.671,4.422 1.671,7.985 0,3.687 -0.596,6.476 -1.789,8.367 -1.192,1.89 -2.934,2.836 -5.226,2.836 -2.25,0 -3.925,-0.886 -5.024,-2.657 -1.099,-1.77 -1.648,-4.458 -1.648,-8.062 0,-1.917 0.169,-3.573 0.508,-4.969 0.338,-1.396 0.812,-2.549 1.422,-3.461 0.609,-0.911 1.341,-1.586 2.195,-2.023 0.854,-0.438 1.786,-0.656 2.797,-0.656 z"
       fill-rule="evenodd"
       id="path153" />
    <text
       fill="#000000"
       fill-opacity="0"
       font-family="Arial, Arial_MSFontService, sans-serif"
       font-size="21.8281px"
       x="924.09998"
       y="364.30099"
       id="text155">0</text>
    <path
       d="m 932.178,382.715 h 0.859 c -0.062,1 -0.093,2.385 -0.093,4.156 v 13.344 c 0,0.604 0.034,1.06 0.101,1.367 0.068,0.307 0.188,0.557 0.36,0.75 0.172,0.193 0.419,0.344 0.742,0.453 0.323,0.11 0.729,0.193 1.219,0.25 0.489,0.057 1.135,0.097 1.937,0.117 v 1.141 h -11.547 v -1.141 c 1.156,-0.052 1.982,-0.122 2.477,-0.211 0.495,-0.088 0.872,-0.221 1.133,-0.398 0.26,-0.177 0.45,-0.427 0.57,-0.75 0.12,-0.323 0.18,-0.849 0.18,-1.578 v -12.672 c 0,-0.417 -0.073,-0.721 -0.219,-0.914 -0.146,-0.193 -0.36,-0.289 -0.641,-0.289 -0.333,0 -0.807,0.172 -1.422,0.515 -0.614,0.344 -1.375,0.818 -2.281,1.422 l -0.687,-1.203 z"
       fill-rule="evenodd"
       id="path157" />
    <text
       fill="#000000"
       fill-opacity="0"
       font-family="Arial, Arial_MSFontService, sans-serif"
       font-size="21.5781px"
       x="924.86603"
       y="401.59601"
       id="text159">1</text>
    <text
       font-family="Calibri, Calibri_MSFontService, sans-serif"
       font-weight="400"
       font-size="32px"
       transform="translate(959.684,365)"
       id="text161">=</text>
    <path
       d="m 1029.99,308.533 h 8.5 v 94.906 h -8.5 v -1.531 h 5.28 v -91.844 h -5.28 z m -43.576,0 h 8.5 v 1.531 h -5.282 v 91.844 h 5.282 v 1.531 h -8.5 z"
       fill-rule="evenodd"
       id="path163" />
    <path
       d="m 997.961,319.046 h 12.309 c 0.14,0 0.24,0.049 0.32,0.148 0.07,0.099 0.11,0.242 0.11,0.43 0,0.073 -0.01,0.161 -0.03,0.266 -0.01,0.104 -0.03,0.218 -0.05,0.343 -0.02,0.125 -0.06,0.248 -0.1,0.368 -0.05,0.119 -0.11,0.229 -0.18,0.328 -0.06,0.099 -0.14,0.179 -0.21,0.242 -0.08,0.062 -0.18,0.094 -0.29,0.094 h -12.316 c -0.146,0 -0.253,-0.052 -0.32,-0.157 -0.068,-0.104 -0.102,-0.244 -0.102,-0.422 0,-0.072 0.005,-0.164 0.016,-0.273 0.01,-0.109 0.031,-0.224 0.062,-0.344 0.031,-0.119 0.068,-0.242 0.11,-0.367 0.041,-0.125 0.096,-0.237 0.164,-0.336 0.067,-0.099 0.143,-0.177 0.226,-0.234 0.083,-0.057 0.177,-0.086 0.281,-0.086 z"
       fill-rule="evenodd"
       id="path165" />
    <text
       fill="#000000"
       fill-opacity="0"
       font-family="Arial, Arial_MSFontService, sans-serif"
       font-size="2.21875px"
       x="997.10199"
       y="320.987"
       id="text167">−</text>
    <path
       d="m 1020.54,307.561 c 1.18,0 2.21,0.183 3.09,0.547 0.89,0.365 1.57,0.888 2.03,1.571 0.47,0.682 0.71,1.497 0.71,2.445 0,0.885 -0.18,1.664 -0.53,2.336 -0.36,0.672 -0.86,1.258 -1.5,1.758 -0.64,0.5 -1.47,0.989 -2.49,1.468 v 0.141 c 0.64,0.115 1.25,0.31 1.84,0.586 0.59,0.276 1.11,0.633 1.57,1.07 0.46,0.438 0.82,0.961 1.1,1.571 0.28,0.609 0.41,1.304 0.41,2.086 0,1.208 -0.26,2.281 -0.79,3.218 -0.52,0.938 -1.33,1.677 -2.41,2.219 -1.08,0.542 -2.4,0.813 -3.95,0.813 -0.9,0 -1.86,-0.102 -2.9,-0.305 -1.04,-0.203 -1.99,-0.471 -2.85,-0.805 v -3.312 h 1.87 c 0.37,1.083 0.85,1.87 1.45,2.359 0.6,0.49 1.41,0.734 2.44,0.734 1.36,0 2.38,-0.369 3.07,-1.109 0.7,-0.739 1.04,-1.833 1.04,-3.281 0,-1.521 -0.46,-2.682 -1.37,-3.485 -0.92,-0.802 -2.26,-1.203 -4.03,-1.203 h -1.41 v -1.375 c 1.41,-0.083 2.59,-0.354 3.55,-0.812 0.97,-0.458 1.68,-1.047 2.15,-1.766 0.47,-0.719 0.71,-1.526 0.71,-2.422 0,-1.156 -0.31,-2.047 -0.93,-2.672 -0.61,-0.625 -1.51,-0.937 -2.68,-0.937 -0.98,0 -1.78,0.266 -2.39,0.797 -0.62,0.531 -1.07,1.344 -1.36,2.437 h -1.88 v -2.968 c 1.21,-0.573 2.34,-1 3.39,-1.282 1.05,-0.281 2.07,-0.422 3.05,-0.422 z"
       fill-rule="evenodd"
       id="path169" />
    <text
       fill="#000000"
       fill-opacity="0"
       font-family="Arial, Arial_MSFontService, sans-serif"
       font-size="21.8281px"
       x="1013.87"
       y="326.66101"
       id="text171">3</text>
    <path
       d="m 1013.71,345.075 h 0.86 c -0.06,1 -0.09,2.385 -0.09,4.156 v 13.344 c 0,0.604 0.03,1.06 0.1,1.367 0.07,0.307 0.19,0.557 0.36,0.75 0.17,0.193 0.42,0.344 0.74,0.453 0.32,0.11 0.73,0.193 1.22,0.25 0.49,0.057 1.13,0.096 1.94,0.117 v 1.141 h -11.55 v -1.141 c 1.16,-0.052 1.98,-0.122 2.48,-0.211 0.49,-0.088 0.87,-0.221 1.13,-0.398 0.26,-0.177 0.45,-0.427 0.57,-0.75 0.12,-0.323 0.18,-0.849 0.18,-1.578 v -12.672 c 0,-0.417 -0.07,-0.721 -0.22,-0.914 -0.15,-0.193 -0.36,-0.289 -0.64,-0.289 -0.33,0 -0.81,0.172 -1.42,0.515 -0.62,0.344 -1.38,0.818 -2.28,1.422 l -0.69,-1.203 z"
       fill-rule="evenodd"
       id="path173" />
    <text
       fill="#000000"
       fill-opacity="0"
       font-family="Arial, Arial_MSFontService, sans-serif"
       font-size="21.5781px"
       x="1006.4"
       y="363.95599"
       id="text175">1</text>
    <path
       d="m 1012.48,383.916 c -0.72,0 -1.32,0.214 -1.81,0.641 -0.48,0.427 -0.87,1.042 -1.17,1.844 -0.3,0.802 -0.51,1.778 -0.63,2.929 -0.13,1.151 -0.19,2.451 -0.19,3.899 0,3.396 0.32,5.888 0.95,7.476 0.63,1.589 1.6,2.383 2.93,2.383 1.26,0 2.19,-0.747 2.8,-2.242 0.61,-1.495 0.91,-3.81 0.91,-6.945 0,-2.396 -0.15,-4.336 -0.46,-5.821 -0.32,-1.484 -0.75,-2.549 -1.31,-3.195 -0.56,-0.646 -1.23,-0.969 -2.02,-0.969 z m 0.08,-1.328 c 2.28,0 3.97,0.88 5.09,2.641 1.11,1.76 1.67,4.422 1.67,7.984 0,3.688 -0.6,6.477 -1.79,8.367 -1.19,1.891 -2.93,2.836 -5.22,2.836 -2.25,0 -3.93,-0.885 -5.03,-2.656 -1.1,-1.771 -1.65,-4.458 -1.65,-8.062 0,-1.917 0.17,-3.573 0.51,-4.969 0.34,-1.396 0.81,-2.55 1.42,-3.461 0.61,-0.912 1.34,-1.586 2.2,-2.024 0.85,-0.437 1.78,-0.656 2.8,-0.656 z"
       fill-rule="evenodd"
       id="path177" />
    <text
       fill="#000000"
       fill-opacity="0"
       font-family="Arial, Arial_MSFontService, sans-serif"
       font-size="21.8281px"
       x="1005.63"
       y="401.68799"
       id="text179">0</text>
    <path
       d="m 229.422,179.444 h 8.5 v 94.906 h -8.5 v -1.531 h 5.281 v -91.844 h -5.281 z m -43.574,0 h 8.5 v 1.531 h -5.281 v 91.844 h 5.281 v 1.531 h -8.5 z"
       fill-rule="evenodd"
       id="path181" />
    <path
       d="m 197.396,190.084 h 12.313 c 0.135,0 0.239,0.049 0.312,0.148 0.073,0.099 0.109,0.242 0.109,0.43 0,0.073 -0.007,0.161 -0.023,0.265 -0.016,0.105 -0.034,0.219 -0.055,0.344 -0.02,0.125 -0.054,0.248 -0.101,0.367 -0.047,0.12 -0.104,0.23 -0.172,0.329 -0.068,0.098 -0.141,0.179 -0.219,0.242 -0.078,0.062 -0.174,0.093 -0.289,0.093 h -12.312 c -0.146,0 -0.253,-0.052 -0.321,-0.156 -0.067,-0.104 -0.101,-0.245 -0.101,-0.422 0,-0.073 0.005,-0.164 0.015,-0.273 0.011,-0.109 0.032,-0.224 0.063,-0.344 0.031,-0.12 0.068,-0.242 0.109,-0.367 0.042,-0.125 0.097,-0.237 0.164,-0.336 0.068,-0.099 0.144,-0.177 0.227,-0.234 0.083,-0.058 0.177,-0.086 0.281,-0.086 z"
       fill-rule="evenodd"
       id="path183" />
    <text
       fill="#000000"
       fill-opacity="0"
       font-family="Arial, Arial_MSFontService, sans-serif"
       font-size="2.21875px"
       x="196.537"
       y="192.02499"
       id="text185">−</text>
    <path
       d="m 219.974,178.599 c 1.177,0 2.209,0.183 3.094,0.547 0.885,0.365 1.562,0.888 2.031,1.571 0.469,0.682 0.703,1.497 0.703,2.445 0,0.885 -0.177,1.664 -0.531,2.336 -0.354,0.672 -0.851,1.258 -1.492,1.758 -0.641,0.5 -1.471,0.989 -2.492,1.468 v 0.141 c 0.635,0.115 1.247,0.31 1.836,0.586 0.588,0.276 1.112,0.633 1.57,1.07 0.458,0.438 0.825,0.961 1.102,1.571 0.276,0.609 0.414,1.304 0.414,2.085 0,1.209 -0.263,2.282 -0.789,3.219 -0.527,0.938 -1.331,1.677 -2.415,2.219 -1.083,0.542 -2.401,0.812 -3.953,0.812 -0.895,0 -1.862,-0.101 -2.898,-0.304 -1.037,-0.203 -1.987,-0.472 -2.852,-0.805 v -3.312 h 1.875 c 0.365,1.083 0.847,1.869 1.446,2.359 0.599,0.49 1.414,0.734 2.445,0.734 1.354,0 2.378,-0.369 3.07,-1.109 0.693,-0.74 1.039,-1.833 1.039,-3.281 0,-1.521 -0.458,-2.683 -1.375,-3.485 -0.916,-0.802 -2.26,-1.203 -4.031,-1.203 h -1.406 v -1.375 c 1.406,-0.083 2.591,-0.354 3.555,-0.812 0.963,-0.459 1.679,-1.047 2.148,-1.766 0.469,-0.719 0.703,-1.526 0.703,-2.422 0,-1.156 -0.307,-2.047 -0.922,-2.672 -0.614,-0.625 -1.51,-0.937 -2.687,-0.937 -0.979,0 -1.776,0.265 -2.391,0.797 -0.614,0.531 -1.068,1.343 -1.359,2.437 h -1.875 v -2.969 c 1.208,-0.572 2.338,-1 3.39,-1.281 1.052,-0.281 2.068,-0.422 3.047,-0.422 z"
       fill-rule="evenodd"
       id="path187" />
    <text
       fill="#000000"
       fill-opacity="0"
       font-family="Arial, Arial_MSFontService, sans-serif"
       font-size="21.8281px"
       x="213.302"
       y="197.69901"
       id="text189">3</text>
    <path
       d="m 213.146,216.113 h 0.859 c -0.062,1 -0.093,2.385 -0.093,4.156 v 13.344 c 0,0.604 0.034,1.06 0.101,1.367 0.068,0.307 0.188,0.557 0.36,0.75 0.172,0.193 0.419,0.344 0.742,0.453 0.323,0.109 0.729,0.193 1.219,0.25 0.489,0.057 1.135,0.096 1.937,0.117 v 1.141 h -11.547 v -1.141 c 1.156,-0.052 1.982,-0.122 2.477,-0.211 0.495,-0.088 0.872,-0.221 1.133,-0.398 0.26,-0.177 0.45,-0.427 0.57,-0.75 0.12,-0.323 0.18,-0.849 0.18,-1.578 v -12.672 c 0,-0.417 -0.073,-0.722 -0.219,-0.914 -0.146,-0.193 -0.36,-0.289 -0.641,-0.289 -0.333,0 -0.807,0.172 -1.422,0.515 -0.614,0.344 -1.375,0.818 -2.281,1.422 l -0.687,-1.203 z"
       fill-rule="evenodd"
       id="path191" />
    <text
       fill="#000000"
       fill-opacity="0"
       font-family="Arial, Arial_MSFontService, sans-serif"
       font-size="21.5781px"
       x="205.834"
       y="234.994"
       id="text193">1</text>
    <path
       d="m 213.146,253.626 h 0.859 c -0.062,1 -0.093,2.385 -0.093,4.156 v 13.344 c 0,0.604 0.034,1.06 0.101,1.367 0.068,0.308 0.188,0.558 0.36,0.75 0.172,0.193 0.419,0.344 0.742,0.453 0.323,0.11 0.729,0.193 1.219,0.25 0.489,0.058 1.135,0.097 1.937,0.118 v 1.14 h -11.547 v -1.14 c 1.156,-0.053 1.982,-0.123 2.477,-0.211 0.495,-0.089 0.872,-0.222 1.133,-0.399 0.26,-0.177 0.45,-0.427 0.57,-0.75 0.12,-0.323 0.18,-0.849 0.18,-1.578 v -12.672 c 0,-0.416 -0.073,-0.721 -0.219,-0.914 -0.146,-0.193 -0.36,-0.289 -0.641,-0.289 -0.333,0 -0.807,0.172 -1.422,0.516 -0.614,0.343 -1.375,0.817 -2.281,1.422 l -0.687,-1.204 z"
       fill-rule="evenodd"
       id="path195" />
    <text
       fill="#000000"
       fill-opacity="0"
       font-family="Arial, Arial_MSFontService, sans-serif"
       font-size="21.5781px"
       x="205.834"
       y="272.50699"
       id="text197">1</text>
    <text
       font-family="Calibri, Calibri_MSFontService, sans-serif"
       font-weight="400"
       font-size="32px"
       transform="translate(248.652,236)"
       id="text199">is in the span of</text>
    <path
       d="m 637.71,179.379 c 2.281,0.312 4.302,2.036 6.062,5.172 1.771,3.146 2.657,8.078 2.657,14.797 0,1.229 -0.089,2.674 -0.266,4.336 -0.177,1.661 -0.443,3.56 -0.797,5.695 -0.354,2.135 -0.62,3.924 -0.797,5.367 -0.177,1.443 -0.265,2.555 -0.265,3.336 0,2.531 0.369,4.49 1.109,5.875 0.75,1.375 1.708,2.115 2.875,2.219 v 1.609 c -1.167,0.104 -2.125,0.844 -2.875,2.219 -0.74,1.385 -1.109,3.344 -1.109,5.875 0,0.781 0.088,1.893 0.265,3.336 0.177,1.443 0.443,3.232 0.797,5.367 0.354,2.135 0.62,4.034 0.797,5.695 0.177,1.662 0.266,3.107 0.266,4.336 0,6.615 -0.886,11.495 -2.657,14.641 -1.76,3.135 -3.781,4.859 -6.062,5.172 v -1.344 c 1.427,-0.302 2.719,-1.698 3.875,-4.187 1.156,-2.48 1.734,-6.365 1.734,-11.657 0,-1.104 -0.086,-2.487 -0.258,-4.148 -0.171,-1.662 -0.424,-3.628 -0.757,-5.899 -0.334,-2.26 -0.586,-4.078 -0.758,-5.453 -0.172,-1.375 -0.258,-2.323 -0.258,-2.843 0,-3.032 0.307,-5.511 0.922,-7.438 0.604,-1.917 1.682,-3.338 3.234,-4.266 v -0.421 c -1.541,-0.917 -2.62,-2.334 -3.234,-4.25 -0.615,-1.938 -0.922,-4.422 -0.922,-7.454 0,-0.52 0.086,-1.468 0.258,-2.843 0.172,-1.375 0.424,-3.193 0.758,-5.453 0.333,-2.271 0.586,-4.237 0.757,-5.899 0.172,-1.661 0.258,-3.044 0.258,-4.148 0,-5.386 -0.578,-9.323 -1.734,-11.813 -1.156,-2.489 -2.448,-3.885 -3.875,-4.187 z m -165.808,0 v 1.344 c -1.427,0.302 -2.718,1.698 -3.875,4.187 -1.156,2.49 -1.734,6.427 -1.734,11.813 0,2.187 0.339,5.534 1.016,10.039 0.677,4.505 1.015,7.273 1.015,8.304 0,3.053 -0.307,5.534 -0.922,7.446 -0.614,1.911 -1.692,3.33 -3.234,4.258 v 0.421 c 1.542,0.928 2.62,2.347 3.234,4.258 0.615,1.912 0.922,4.393 0.922,7.446 0,1.031 -0.338,3.799 -1.015,8.304 -0.677,4.505 -1.016,7.852 -1.016,10.039 0,5.282 0.578,9.167 1.734,11.657 1.157,2.489 2.448,3.885 3.875,4.187 v 1.344 c -2.27,-0.313 -4.291,-2.037 -6.062,-5.172 -1.771,-3.135 -2.656,-8.016 -2.656,-14.641 0,-2.437 0.354,-5.781 1.062,-10.031 0.708,-4.25 1.063,-7.151 1.063,-8.703 0,-2.542 -0.373,-4.5 -1.118,-5.875 -0.744,-1.375 -1.7,-2.115 -2.867,-2.219 v -1.609 c 1.167,-0.104 2.123,-0.844 2.867,-2.219 0.745,-1.375 1.118,-3.333 1.118,-5.875 0,-1.552 -0.355,-4.453 -1.063,-8.703 -0.708,-4.25 -1.062,-7.594 -1.062,-10.031 0,-6.729 0.885,-11.662 2.656,-14.797 1.771,-3.136 3.792,-4.86 6.062,-5.172 z"
       fill-rule="evenodd"
       id="path201" />
    <path
       d="m 503.975,179.444 h 8.5 v 94.906 h -8.5 v -1.531 h 5.282 v -91.844 h -5.282 z m -27.573,0 h 8.5 v 1.531 h -5.282 v 91.844 h 5.282 v 1.531 h -8.5 z"
       fill-rule="evenodd"
       id="path203" />
    <path
       d="m 495.699,178.473 h 0.86 c -0.063,1 -0.094,2.385 -0.094,4.156 v 13.344 c 0,0.604 0.034,1.06 0.102,1.367 0.067,0.307 0.187,0.557 0.359,0.75 0.172,0.193 0.419,0.344 0.742,0.453 0.323,0.109 0.729,0.193 1.219,0.25 0.49,0.057 1.135,0.096 1.937,0.117 v 1.141 h -11.546 v -1.141 c 1.156,-0.052 1.981,-0.122 2.476,-0.211 0.495,-0.088 0.873,-0.221 1.133,-0.398 0.26,-0.177 0.45,-0.427 0.57,-0.75 0.12,-0.323 0.18,-0.849 0.18,-1.578 v -12.672 c 0,-0.417 -0.073,-0.722 -0.219,-0.914 -0.146,-0.193 -0.359,-0.289 -0.64,-0.289 -0.334,0 -0.808,0.172 -1.422,0.515 -0.615,0.344 -1.375,0.818 -2.282,1.422 l -0.687,-1.203 z"
       fill-rule="evenodd"
       id="path205" />
    <text
       fill="#000000"
       fill-opacity="0"
       font-family="Arial, Arial_MSFontService, sans-serif"
       font-size="21.5781px"
       x="488.38699"
       y="197.354"
       id="text207">1</text>
    <path
       d="m 494.465,217.314 c -0.719,0 -1.32,0.214 -1.805,0.641 -0.484,0.427 -0.875,1.041 -1.172,1.844 -0.296,0.802 -0.507,1.778 -0.632,2.929 -0.125,1.151 -0.188,2.451 -0.188,3.899 0,3.395 0.315,5.888 0.945,7.476 0.631,1.589 1.607,2.383 2.93,2.383 1.261,0 2.195,-0.747 2.805,-2.242 0.609,-1.495 0.914,-3.81 0.914,-6.945 0,-2.396 -0.156,-4.336 -0.469,-5.821 -0.312,-1.484 -0.747,-2.549 -1.305,-3.195 -0.557,-0.646 -1.231,-0.969 -2.023,-0.969 z m 0.078,-1.328 c 2.281,0 3.979,0.88 5.094,2.641 1.115,1.76 1.672,4.422 1.672,7.984 0,3.688 -0.597,6.477 -1.789,8.367 -1.193,1.891 -2.935,2.836 -5.227,2.836 -2.25,0 -3.924,-0.885 -5.023,-2.656 -1.099,-1.771 -1.649,-4.458 -1.649,-8.063 0,-1.916 0.17,-3.573 0.508,-4.968 0.339,-1.396 0.813,-2.55 1.422,-3.461 0.609,-0.912 1.341,-1.586 2.195,-2.024 0.854,-0.437 1.787,-0.656 2.797,-0.656 z"
       fill-rule="evenodd"
       id="path209" />
    <text
       fill="#000000"
       fill-opacity="0"
       font-family="Arial, Arial_MSFontService, sans-serif"
       font-size="21.8281px"
       x="487.621"
       y="235.086"
       id="text211">0</text>
    <path
       d="m 494.465,254.827 c -0.719,0 -1.32,0.214 -1.805,0.641 -0.484,0.427 -0.875,1.042 -1.172,1.844 -0.296,0.802 -0.507,1.779 -0.632,2.93 -0.125,1.151 -0.188,2.45 -0.188,3.898 0,3.396 0.315,5.888 0.945,7.477 0.631,1.588 1.607,2.382 2.93,2.382 1.261,0 2.195,-0.747 2.805,-2.242 0.609,-1.495 0.914,-3.81 0.914,-6.945 0,-2.396 -0.156,-4.336 -0.469,-5.82 -0.312,-1.485 -0.747,-2.55 -1.305,-3.196 -0.557,-0.646 -1.231,-0.969 -2.023,-0.969 z m 0.078,-1.328 c 2.281,0 3.979,0.881 5.094,2.641 1.115,1.76 1.672,4.422 1.672,7.984 0,3.688 -0.597,6.477 -1.789,8.368 -1.193,1.89 -2.935,2.835 -5.227,2.835 -2.25,0 -3.924,-0.885 -5.023,-2.656 -1.099,-1.771 -1.649,-4.458 -1.649,-8.062 0,-1.917 0.17,-3.573 0.508,-4.969 0.339,-1.396 0.813,-2.549 1.422,-3.461 0.609,-0.911 1.341,-1.586 2.195,-2.023 0.854,-0.438 1.787,-0.657 2.797,-0.657 z"
       fill-rule="evenodd"
       id="path213" />
    <text
       fill="#000000"
       fill-opacity="0"
       font-family="Arial, Arial_MSFontService, sans-serif"
       font-size="21.8281px"
       x="487.621"
       y="272.599"
       id="text215">0</text>
    <path
       d="m 523.466,232.412 h 2.734 c 0.146,0.73 0.219,1.448 0.219,2.157 0,0.729 -0.125,1.396 -0.375,2 -0.25,0.604 -0.648,1.205 -1.195,1.804 -0.547,0.599 -1.3,1.258 -2.258,1.977 l -0.844,-0.953 c 0.532,-0.5 0.917,-0.951 1.157,-1.352 0.239,-0.401 0.411,-0.856 0.515,-1.367 0.104,-0.51 0.156,-1.151 0.156,-1.922 0,-0.791 -0.036,-1.573 -0.109,-2.344 z"
       fill-rule="evenodd"
       id="path217" />
    <text
       fill="#000000"
       fill-opacity="0"
       font-family="Arial, Arial_MSFontService, sans-serif"
       font-size="7.9375px"
       x="521.74701"
       y="239.358"
       id="text219">,</text>
    <path
       d="m 564.342,179.444 h 8.5 v 94.906 h -8.5 v -1.531 h 5.281 v -91.844 h -5.281 z m -27.574,0 h 8.5 v 1.531 h -5.281 v 91.844 h 5.281 v 1.531 h -8.5 z"
       fill-rule="evenodd"
       id="path221" />
    <path
       d="m 554.832,179.801 c -0.719,0 -1.321,0.213 -1.805,0.64 -0.484,0.428 -0.875,1.042 -1.172,1.844 -0.297,0.802 -0.508,1.779 -0.633,2.93 -0.125,1.151 -0.187,2.45 -0.187,3.898 0,3.396 0.315,5.888 0.945,7.477 0.63,1.588 1.607,2.383 2.93,2.383 1.26,0 2.195,-0.748 2.805,-2.243 0.609,-1.494 0.914,-3.809 0.914,-6.945 0,-2.396 -0.157,-4.336 -0.469,-5.82 -0.313,-1.485 -0.748,-2.55 -1.305,-3.195 -0.557,-0.646 -1.232,-0.969 -2.023,-0.969 z m 0.078,-1.328 c 2.281,0 3.979,0.88 5.094,2.64 1.114,1.761 1.671,4.422 1.671,7.985 0,3.687 -0.596,6.476 -1.789,8.367 -1.192,1.89 -2.934,2.836 -5.226,2.836 -2.25,0 -3.925,-0.886 -5.024,-2.656 -1.099,-1.771 -1.648,-4.459 -1.648,-8.063 0,-1.917 0.169,-3.573 0.508,-4.969 0.338,-1.396 0.812,-2.549 1.422,-3.461 0.609,-0.911 1.341,-1.586 2.195,-2.023 0.854,-0.438 1.786,-0.656 2.797,-0.656 z"
       fill-rule="evenodd"
       id="path223" />
    <text
       fill="#000000"
       fill-opacity="0"
       font-family="Arial, Arial_MSFontService, sans-serif"
       font-size="21.8281px"
       x="547.98798"
       y="197.57201"
       id="text225">0</text>
    <path
       d="m 556.066,215.986 h 0.859 c -0.062,1 -0.093,2.385 -0.093,4.156 v 13.344 c 0,0.604 0.034,1.06 0.101,1.367 0.068,0.308 0.188,0.558 0.36,0.75 0.172,0.193 0.419,0.344 0.742,0.453 0.323,0.11 0.729,0.193 1.219,0.25 0.489,0.058 1.135,0.097 1.937,0.118 v 1.14 h -11.547 v -1.14 c 1.156,-0.053 1.982,-0.123 2.477,-0.211 0.495,-0.089 0.872,-0.222 1.133,-0.399 0.26,-0.177 0.45,-0.427 0.57,-0.75 0.12,-0.323 0.18,-0.849 0.18,-1.578 v -12.672 c 0,-0.417 -0.073,-0.721 -0.219,-0.914 -0.146,-0.193 -0.36,-0.289 -0.641,-0.289 -0.333,0 -0.807,0.172 -1.422,0.516 -0.614,0.343 -1.375,0.817 -2.281,1.422 l -0.687,-1.204 z"
       fill-rule="evenodd"
       id="path227" />
    <text
       fill="#000000"
       fill-opacity="0"
       font-family="Arial, Arial_MSFontService, sans-serif"
       font-size="21.5781px"
       x="548.75403"
       y="234.867"
       id="text229">1</text>
    <path
       d="m 554.832,254.827 c -0.719,0 -1.321,0.214 -1.805,0.641 -0.484,0.427 -0.875,1.042 -1.172,1.844 -0.297,0.802 -0.508,1.779 -0.633,2.93 -0.125,1.151 -0.187,2.45 -0.187,3.898 0,3.396 0.315,5.888 0.945,7.477 0.63,1.588 1.607,2.382 2.93,2.382 1.26,0 2.195,-0.747 2.805,-2.242 0.609,-1.495 0.914,-3.81 0.914,-6.945 0,-2.396 -0.157,-4.336 -0.469,-5.82 -0.313,-1.485 -0.748,-2.55 -1.305,-3.196 -0.557,-0.646 -1.232,-0.969 -2.023,-0.969 z m 0.078,-1.328 c 2.281,0 3.979,0.881 5.094,2.641 1.114,1.76 1.671,4.422 1.671,7.984 0,3.688 -0.596,6.477 -1.789,8.368 -1.192,1.89 -2.934,2.835 -5.226,2.835 -2.25,0 -3.925,-0.885 -5.024,-2.656 -1.099,-1.771 -1.648,-4.458 -1.648,-8.062 0,-1.917 0.169,-3.573 0.508,-4.969 0.338,-1.396 0.812,-2.549 1.422,-3.461 0.609,-0.911 1.341,-1.586 2.195,-2.023 0.854,-0.438 1.786,-0.657 2.797,-0.657 z"
       fill-rule="evenodd"
       id="path231" />
    <text
       fill="#000000"
       fill-opacity="0"
       font-family="Arial, Arial_MSFontService, sans-serif"
       font-size="21.8281px"
       x="547.98798"
       y="272.599"
       id="text233">0</text>
    <path
       d="m 583.833,232.412 h 2.734 c 0.146,0.73 0.219,1.448 0.219,2.157 0,0.729 -0.125,1.396 -0.375,2 -0.25,0.604 -0.649,1.205 -1.195,1.804 -0.547,0.599 -1.3,1.258 -2.258,1.977 l -0.844,-0.953 c 0.531,-0.5 0.917,-0.951 1.156,-1.352 0.24,-0.401 0.412,-0.856 0.516,-1.367 0.104,-0.51 0.156,-1.151 0.156,-1.922 0,-0.791 -0.036,-1.573 -0.109,-2.344 z"
       fill-rule="evenodd"
       id="path235" />
    <text
       fill="#000000"
       fill-opacity="0"
       font-family="Arial, Arial_MSFontService, sans-serif"
       font-size="7.9375px"
       x="582.11401"
       y="239.358"
       id="text237">,</text>
    <path
       d="m 624.709,179.444 h 8.5 v 94.906 h -8.5 v -1.531 h 5.281 v -91.844 h -5.281 z m -27.574,0 h 8.5 v 1.531 h -5.281 v 91.844 h 5.281 v 1.531 h -8.5 z"
       fill-rule="evenodd"
       id="path239" />
    <path
       d="m 615.198,179.927 c -0.718,0 -1.32,0.214 -1.804,0.641 -0.485,0.427 -0.875,1.042 -1.172,1.844 -0.297,0.802 -0.508,1.778 -0.633,2.93 -0.125,1.151 -0.188,2.45 -0.188,3.898 0,3.396 0.316,5.888 0.946,7.477 0.63,1.588 1.607,2.382 2.929,2.382 1.261,0 2.196,-0.747 2.805,-2.242 0.61,-1.495 0.914,-3.81 0.914,-6.945 0,-2.396 -0.156,-4.336 -0.469,-5.82 -0.312,-1.485 -0.747,-2.55 -1.304,-3.196 -0.558,-0.646 -1.232,-0.969 -2.024,-0.969 z m 0.078,-1.328 c 2.282,0 3.98,0.881 5.094,2.641 1.115,1.76 1.672,4.422 1.672,7.984 0,3.688 -0.596,6.477 -1.789,8.368 -1.193,1.89 -2.935,2.835 -5.227,2.835 -2.25,0 -3.924,-0.885 -5.023,-2.656 -1.099,-1.771 -1.648,-4.458 -1.648,-8.062 0,-1.917 0.169,-3.573 0.507,-4.969 0.339,-1.396 0.813,-2.55 1.422,-3.461 0.61,-0.911 1.341,-1.586 2.196,-2.023 0.854,-0.438 1.786,-0.657 2.796,-0.657 z"
       fill-rule="evenodd"
       id="path241" />
    <text
       fill="#000000"
       fill-opacity="0"
       font-family="Arial, Arial_MSFontService, sans-serif"
       font-size="21.8281px"
       x="608.35498"
       y="197.69901"
       id="text243">0</text>
    <path
       d="m 615.198,217.441 c -0.718,0 -1.32,0.213 -1.804,0.64 -0.485,0.428 -0.875,1.042 -1.172,1.844 -0.297,0.802 -0.508,1.779 -0.633,2.93 -0.125,1.151 -0.188,2.45 -0.188,3.898 0,3.396 0.316,5.888 0.946,7.477 0.63,1.588 1.607,2.383 2.929,2.383 1.261,0 2.196,-0.748 2.805,-2.243 0.61,-1.494 0.914,-3.809 0.914,-6.945 0,-2.396 -0.156,-4.336 -0.469,-5.82 -0.312,-1.485 -0.747,-2.55 -1.304,-3.195 -0.558,-0.646 -1.232,-0.969 -2.024,-0.969 z m 0.078,-1.328 c 2.282,0 3.98,0.88 5.094,2.64 1.115,1.761 1.672,4.422 1.672,7.985 0,3.687 -0.596,6.476 -1.789,8.367 -1.193,1.89 -2.935,2.836 -5.227,2.836 -2.25,0 -3.924,-0.886 -5.023,-2.656 -1.099,-1.771 -1.648,-4.459 -1.648,-8.063 0,-1.917 0.169,-3.573 0.507,-4.969 0.339,-1.396 0.813,-2.549 1.422,-3.461 0.61,-0.911 1.341,-1.586 2.196,-2.023 0.854,-0.438 1.786,-0.656 2.796,-0.656 z"
       fill-rule="evenodd"
       id="path245" />
    <text
       fill="#000000"
       fill-opacity="0"
       font-family="Arial, Arial_MSFontService, sans-serif"
       font-size="21.8281px"
       x="608.35498"
       y="235.21201"
       id="text247">0</text>
    <path
       d="m 616.433,253.626 h 0.859 c -0.062,1 -0.094,2.385 -0.094,4.156 v 13.344 c 0,0.604 0.034,1.06 0.102,1.367 0.068,0.308 0.187,0.558 0.359,0.75 0.172,0.193 0.42,0.344 0.742,0.453 0.323,0.11 0.73,0.193 1.219,0.25 0.49,0.058 1.136,0.097 1.938,0.118 v 1.14 h -11.547 v -1.14 c 1.156,-0.053 1.982,-0.123 2.476,-0.211 0.495,-0.089 0.873,-0.222 1.133,-0.399 0.261,-0.177 0.451,-0.427 0.571,-0.75 0.119,-0.323 0.179,-0.849 0.179,-1.578 v -12.672 c 0,-0.416 -0.073,-0.721 -0.219,-0.914 -0.145,-0.193 -0.359,-0.289 -0.64,-0.289 -0.333,0 -0.807,0.172 -1.422,0.516 -0.615,0.343 -1.375,0.817 -2.281,1.422 l -0.688,-1.204 z"
       fill-rule="evenodd"
       id="path249" />
    <text
       fill="#000000"
       fill-opacity="0"
       font-family="Arial, Arial_MSFontService, sans-serif"
       font-size="21.5781px"
       x="609.12"
       y="272.50699"
       id="text251">1</text>
    <text
       font-family="Calibri, Calibri_MSFontService, sans-serif"
       font-weight="400"
       font-size="32px"
       transform="translate(656.626,236)"
       id="text255">as -<tspan
   font-size="32px"
   x="44.833401"
   y="0"
   id="tspan253">3</tspan></text>
    <path
       d="m 755.929,179.444 h 8.5 v 94.906 h -8.5 v -1.531 h 5.281 v -91.844 h -5.281 z m -27.574,0 h 8.5 v 1.531 h -5.281 v 91.844 h 5.281 v 1.531 h -8.5 z"
       fill-rule="evenodd"
       id="path257" />
    <path
       d="m 747.653,178.473 h 0.859 c -0.062,1 -0.094,2.385 -0.094,4.156 v 13.344 c 0,0.604 0.034,1.06 0.102,1.367 0.068,0.307 0.187,0.557 0.359,0.75 0.172,0.193 0.42,0.344 0.743,0.453 0.322,0.109 0.729,0.193 1.218,0.25 0.49,0.057 1.136,0.096 1.938,0.117 v 1.141 h -11.547 v -1.141 c 1.156,-0.052 1.982,-0.122 2.476,-0.211 0.495,-0.088 0.873,-0.221 1.133,-0.398 0.261,-0.177 0.451,-0.427 0.571,-0.75 0.119,-0.323 0.179,-0.849 0.179,-1.578 v -12.672 c 0,-0.417 -0.073,-0.722 -0.218,-0.914 -0.146,-0.193 -0.36,-0.289 -0.641,-0.289 -0.333,0 -0.807,0.172 -1.422,0.515 -0.615,0.344 -1.375,0.818 -2.281,1.422 l -0.688,-1.203 z"
       fill-rule="evenodd"
       id="path259" />
    <text
       fill="#000000"
       fill-opacity="0"
       font-family="Arial, Arial_MSFontService, sans-serif"
       font-size="21.5781px"
       x="740.34003"
       y="197.354"
       id="text261">1</text>
    <path
       d="m 746.418,217.314 c -0.718,0 -1.32,0.214 -1.804,0.641 -0.485,0.427 -0.875,1.041 -1.172,1.844 -0.297,0.802 -0.508,1.778 -0.633,2.929 -0.125,1.151 -0.187,2.451 -0.187,3.899 0,3.395 0.315,5.888 0.945,7.476 0.63,1.589 1.607,2.383 2.93,2.383 1.26,0 2.195,-0.747 2.804,-2.242 0.61,-1.495 0.914,-3.81 0.914,-6.945 0,-2.396 -0.156,-4.336 -0.468,-5.821 -0.313,-1.484 -0.748,-2.549 -1.305,-3.195 -0.557,-0.646 -1.232,-0.969 -2.024,-0.969 z m 0.079,-1.328 c 2.281,0 3.979,0.88 5.093,2.641 1.115,1.76 1.672,4.422 1.672,7.984 0,3.688 -0.596,6.477 -1.789,8.367 -1.193,1.891 -2.935,2.836 -5.226,2.836 -2.25,0 -3.925,-0.885 -5.024,-2.656 -1.099,-1.771 -1.648,-4.458 -1.648,-8.063 0,-1.916 0.169,-3.573 0.507,-4.968 0.339,-1.396 0.813,-2.55 1.422,-3.461 0.61,-0.912 1.341,-1.586 2.196,-2.024 0.854,-0.437 1.786,-0.656 2.797,-0.656 z"
       fill-rule="evenodd"
       id="path263" />
    <text
       fill="#000000"
       fill-opacity="0"
       font-family="Arial, Arial_MSFontService, sans-serif"
       font-size="21.8281px"
       x="739.57501"
       y="235.086"
       id="text265">0</text>
    <path
       d="m 746.418,254.827 c -0.718,0 -1.32,0.214 -1.804,0.641 -0.485,0.427 -0.875,1.042 -1.172,1.844 -0.297,0.802 -0.508,1.779 -0.633,2.93 -0.125,1.151 -0.187,2.45 -0.187,3.898 0,3.396 0.315,5.888 0.945,7.477 0.63,1.588 1.607,2.382 2.93,2.382 1.26,0 2.195,-0.747 2.804,-2.242 0.61,-1.495 0.914,-3.81 0.914,-6.945 0,-2.396 -0.156,-4.336 -0.468,-5.82 -0.313,-1.485 -0.748,-2.55 -1.305,-3.196 -0.557,-0.646 -1.232,-0.969 -2.024,-0.969 z m 0.079,-1.328 c 2.281,0 3.979,0.881 5.093,2.641 1.115,1.76 1.672,4.422 1.672,7.984 0,3.688 -0.596,6.477 -1.789,8.368 -1.193,1.89 -2.935,2.835 -5.226,2.835 -2.25,0 -3.925,-0.885 -5.024,-2.656 -1.099,-1.771 -1.648,-4.458 -1.648,-8.062 0,-1.917 0.169,-3.573 0.507,-4.969 0.339,-1.396 0.813,-2.549 1.422,-3.461 0.61,-0.911 1.341,-1.586 2.196,-2.023 0.854,-0.438 1.786,-0.657 2.797,-0.657 z"
       fill-rule="evenodd"
       id="path267" />
    <text
       fill="#000000"
       fill-opacity="0"
       font-family="Arial, Arial_MSFontService, sans-serif"
       font-size="21.8281px"
       x="739.57501"
       y="272.599"
       id="text269">0</text>
    <path
       d="m 785.949,216.85 h 2.219 v 9 h 8.516 v 2.078 h -8.516 v 9 h -2.219 v -9 h -8.515 v -2.078 h 8.515 z"
       fill-rule="evenodd"
       id="path271" />
    <text
       fill="#000000"
       fill-opacity="0"
       font-family="Arial, Arial_MSFontService, sans-serif"
       font-size="20.0781px"
       x="777.43402"
       y="234.418"
       id="text273">+</text>
    <path
       d="m 844.189,179.444 h 8.5 v 94.906 h -8.5 v -1.531 h 5.281 v -91.844 h -5.281 z m -27.574,0 h 8.5 v 1.531 h -5.281 v 91.844 h 5.281 v 1.531 h -8.5 z"
       fill-rule="evenodd"
       id="path275" />
    <path
       d="m 834.678,179.801 c -0.718,0 -1.32,0.213 -1.804,0.64 -0.485,0.428 -0.875,1.042 -1.172,1.844 -0.297,0.802 -0.508,1.779 -0.633,2.93 -0.125,1.151 -0.187,2.45 -0.187,3.898 0,3.396 0.315,5.888 0.945,7.477 0.63,1.588 1.607,2.383 2.93,2.383 1.26,0 2.195,-0.748 2.804,-2.243 0.61,-1.494 0.914,-3.809 0.914,-6.945 0,-2.396 -0.156,-4.336 -0.468,-5.82 -0.313,-1.485 -0.748,-2.55 -1.305,-3.195 -0.557,-0.646 -1.232,-0.969 -2.024,-0.969 z m 0.079,-1.328 c 2.281,0 3.979,0.88 5.093,2.64 1.115,1.761 1.672,4.422 1.672,7.985 0,3.687 -0.596,6.476 -1.789,8.367 -1.193,1.89 -2.935,2.836 -5.226,2.836 -2.25,0 -3.925,-0.886 -5.024,-2.656 -1.099,-1.771 -1.648,-4.459 -1.648,-8.063 0,-1.917 0.169,-3.573 0.507,-4.969 0.339,-1.396 0.813,-2.549 1.422,-3.461 0.61,-0.911 1.341,-1.586 2.196,-2.023 0.854,-0.438 1.786,-0.656 2.797,-0.656 z"
       fill-rule="evenodd"
       id="path277" />
    <text
       fill="#000000"
       fill-opacity="0"
       font-family="Arial, Arial_MSFontService, sans-serif"
       font-size="21.8281px"
       x="827.83502"
       y="197.57201"
       id="text279">0</text>
    <path
       d="m 835.913,215.986 h 0.859 c -0.062,1 -0.094,2.385 -0.094,4.156 v 13.344 c 0,0.604 0.034,1.06 0.102,1.367 0.068,0.308 0.187,0.558 0.359,0.75 0.172,0.193 0.42,0.344 0.743,0.453 0.322,0.11 0.729,0.193 1.218,0.25 0.49,0.058 1.136,0.097 1.938,0.118 v 1.14 h -11.547 v -1.14 c 1.156,-0.053 1.982,-0.123 2.476,-0.211 0.495,-0.089 0.873,-0.222 1.133,-0.399 0.261,-0.177 0.451,-0.427 0.571,-0.75 0.119,-0.323 0.179,-0.849 0.179,-1.578 v -12.672 c 0,-0.417 -0.073,-0.721 -0.218,-0.914 -0.146,-0.193 -0.36,-0.289 -0.641,-0.289 -0.333,0 -0.807,0.172 -1.422,0.516 -0.615,0.343 -1.375,0.817 -2.281,1.422 l -0.688,-1.204 z"
       fill-rule="evenodd"
       id="path281" />
    <text
       fill="#000000"
       fill-opacity="0"
       font-family="Arial, Arial_MSFontService, sans-serif"
       font-size="21.5781px"
       x="828.59998"
       y="234.867"
       id="text283">1</text>
    <path
       d="m 834.678,254.827 c -0.718,0 -1.32,0.214 -1.804,0.641 -0.485,0.427 -0.875,1.042 -1.172,1.844 -0.297,0.802 -0.508,1.779 -0.633,2.93 -0.125,1.151 -0.187,2.45 -0.187,3.898 0,3.396 0.315,5.888 0.945,7.477 0.63,1.588 1.607,2.382 2.93,2.382 1.26,0 2.195,-0.747 2.804,-2.242 0.61,-1.495 0.914,-3.81 0.914,-6.945 0,-2.396 -0.156,-4.336 -0.468,-5.82 -0.313,-1.485 -0.748,-2.55 -1.305,-3.196 -0.557,-0.646 -1.232,-0.969 -2.024,-0.969 z m 0.079,-1.328 c 2.281,0 3.979,0.881 5.093,2.641 1.115,1.76 1.672,4.422 1.672,7.984 0,3.688 -0.596,6.477 -1.789,8.368 -1.193,1.89 -2.935,2.835 -5.226,2.835 -2.25,0 -3.925,-0.885 -5.024,-2.656 -1.099,-1.771 -1.648,-4.458 -1.648,-8.062 0,-1.917 0.169,-3.573 0.507,-4.969 0.339,-1.396 0.813,-2.549 1.422,-3.461 0.61,-0.911 1.341,-1.586 2.196,-2.023 0.854,-0.438 1.786,-0.657 2.797,-0.657 z"
       fill-rule="evenodd"
       id="path285" />
    <text
       fill="#000000"
       fill-opacity="0"
       font-family="Arial, Arial_MSFontService, sans-serif"
       font-size="21.8281px"
       x="827.83502"
       y="272.599"
       id="text287">0</text>
    <text
       font-family="Calibri, Calibri_MSFontService, sans-serif"
       font-weight="400"
       font-size="32px"
       transform="translate(863.419,236)"
       id="text289">+</text>
    <path
       d="m 917.722,179.444 h 8.5 v 94.906 h -8.5 v -1.531 h 5.281 v -91.844 h -5.281 z m -27.574,0 h 8.5 v 1.531 h -5.281 v 91.844 h 5.281 v 1.531 h -8.5 z"
       fill-rule="evenodd"
       id="path291" />
    <path
       d="m 908.212,179.927 c -0.719,0 -1.321,0.214 -1.805,0.641 -0.484,0.427 -0.875,1.042 -1.172,1.844 -0.297,0.802 -0.508,1.778 -0.633,2.93 -0.125,1.151 -0.187,2.45 -0.187,3.898 0,3.396 0.315,5.888 0.945,7.477 0.63,1.588 1.607,2.382 2.93,2.382 1.26,0 2.195,-0.747 2.805,-2.242 0.609,-1.495 0.914,-3.81 0.914,-6.945 0,-2.396 -0.157,-4.336 -0.469,-5.82 -0.313,-1.485 -0.748,-2.55 -1.305,-3.196 -0.557,-0.646 -1.232,-0.969 -2.023,-0.969 z m 0.078,-1.328 c 2.281,0 3.979,0.881 5.094,2.641 1.114,1.76 1.671,4.422 1.671,7.984 0,3.688 -0.596,6.477 -1.789,8.368 -1.192,1.89 -2.934,2.835 -5.226,2.835 -2.25,0 -3.925,-0.885 -5.024,-2.656 -1.099,-1.771 -1.648,-4.458 -1.648,-8.062 0,-1.917 0.169,-3.573 0.508,-4.969 0.338,-1.396 0.812,-2.55 1.422,-3.461 0.609,-0.911 1.341,-1.586 2.195,-2.023 0.854,-0.438 1.786,-0.657 2.797,-0.657 z"
       fill-rule="evenodd"
       id="path293" />
    <text
       fill="#000000"
       fill-opacity="0"
       font-family="Arial, Arial_MSFontService, sans-serif"
       font-size="21.8281px"
       x="901.36798"
       y="197.69901"
       id="text295">0</text>
    <path
       d="m 908.212,217.441 c -0.719,0 -1.321,0.213 -1.805,0.64 -0.484,0.428 -0.875,1.042 -1.172,1.844 -0.297,0.802 -0.508,1.779 -0.633,2.93 -0.125,1.151 -0.187,2.45 -0.187,3.898 0,3.396 0.315,5.888 0.945,7.477 0.63,1.588 1.607,2.383 2.93,2.383 1.26,0 2.195,-0.748 2.805,-2.243 0.609,-1.494 0.914,-3.809 0.914,-6.945 0,-2.396 -0.157,-4.336 -0.469,-5.82 -0.313,-1.485 -0.748,-2.55 -1.305,-3.195 -0.557,-0.646 -1.232,-0.969 -2.023,-0.969 z m 0.078,-1.328 c 2.281,0 3.979,0.88 5.094,2.64 1.114,1.761 1.671,4.422 1.671,7.985 0,3.687 -0.596,6.476 -1.789,8.367 -1.192,1.89 -2.934,2.836 -5.226,2.836 -2.25,0 -3.925,-0.886 -5.024,-2.656 -1.099,-1.771 -1.648,-4.459 -1.648,-8.063 0,-1.917 0.169,-3.573 0.508,-4.969 0.338,-1.396 0.812,-2.549 1.422,-3.461 0.609,-0.911 1.341,-1.586 2.195,-2.023 0.854,-0.438 1.786,-0.656 2.797,-0.656 z"
       fill-rule="evenodd"
       id="path297" />
    <text
       fill="#000000"
       fill-opacity="0"
       font-family="Arial, Arial_MSFontService, sans-serif"
       font-size="21.8281px"
       x="901.36798"
       y="235.21201"
       id="text299">0</text>
    <path
       d="m 909.446,253.626 h 0.859 c -0.062,1 -0.093,2.385 -0.093,4.156 v 13.344 c 0,0.604 0.034,1.06 0.101,1.367 0.068,0.308 0.188,0.558 0.36,0.75 0.172,0.193 0.419,0.344 0.742,0.453 0.323,0.11 0.729,0.193 1.219,0.25 0.489,0.058 1.135,0.097 1.937,0.118 v 1.14 h -11.547 v -1.14 c 1.156,-0.053 1.982,-0.123 2.477,-0.211 0.495,-0.089 0.872,-0.222 1.133,-0.399 0.26,-0.177 0.45,-0.427 0.57,-0.75 0.12,-0.323 0.18,-0.849 0.18,-1.578 v -12.672 c 0,-0.416 -0.073,-0.721 -0.219,-0.914 -0.146,-0.193 -0.36,-0.289 -0.641,-0.289 -0.333,0 -0.807,0.172 -1.422,0.516 -0.614,0.343 -1.375,0.817 -2.281,1.422 l -0.687,-1.204 z"
       fill-rule="evenodd"
       id="path301" />
    <text
       fill="#000000"
       fill-opacity="0"
       font-family="Arial, Arial_MSFontService, sans-serif"
       font-size="21.5781px"
       x="902.13397"
       y="272.50699"
       id="text303">1</text>
    <text
       font-family="Calibri, Calibri_MSFontService, sans-serif"
       font-weight="400"
       font-size="32px"
       transform="translate(936.952,236)"
       id="text305">=</text>
    <path
       d="m 1007.26,179.444 h 8.5 v 94.906 h -8.5 v -1.531 h 5.28 v -91.844 h -5.28 z m -43.578,0 h 8.5 v 1.531 H 966.9 v 91.844 h 5.282 v 1.531 h -8.5 z"
       fill-rule="evenodd"
       id="path307" />
    <path
       d="m 975.229,190.084 h 12.313 c 0.135,0 0.239,0.049 0.312,0.148 0.073,0.099 0.11,0.242 0.11,0.43 0,0.073 -0.008,0.161 -0.024,0.265 -0.015,0.105 -0.034,0.219 -0.054,0.344 -0.021,0.125 -0.055,0.248 -0.102,0.367 -0.047,0.12 -0.104,0.23 -0.172,0.329 -0.067,0.098 -0.14,0.179 -0.219,0.242 -0.078,0.062 -0.174,0.093 -0.289,0.093 h -12.312 c -0.146,0 -0.253,-0.052 -0.32,-0.156 -0.068,-0.104 -0.102,-0.245 -0.102,-0.422 0,-0.073 0.005,-0.164 0.016,-0.273 0.01,-0.109 0.031,-0.224 0.062,-0.344 0.031,-0.12 0.068,-0.242 0.11,-0.367 0.041,-0.125 0.096,-0.237 0.164,-0.336 0.067,-0.099 0.143,-0.177 0.226,-0.234 0.083,-0.058 0.177,-0.086 0.281,-0.086 z"
       fill-rule="evenodd"
       id="path309" />
    <text
       fill="#000000"
       fill-opacity="0"
       font-family="Arial, Arial_MSFontService, sans-serif"
       font-size="2.21875px"
       x="974.37"
       y="192.02499"
       id="text311">−</text>
    <path
       d="m 997.808,178.599 c 1.177,0 2.212,0.183 3.092,0.547 0.89,0.365 1.56,0.888 2.03,1.571 0.47,0.682 0.71,1.497 0.71,2.445 0,0.885 -0.18,1.664 -0.54,2.336 -0.35,0.672 -0.85,1.258 -1.49,1.758 -0.64,0.5 -1.47,0.989 -2.49,1.468 v 0.141 c 0.635,0.115 1.25,0.31 1.84,0.586 0.58,0.276 1.11,0.633 1.57,1.07 0.45,0.438 0.82,0.961 1.1,1.571 0.27,0.609 0.41,1.304 0.41,2.085 0,1.209 -0.26,2.282 -0.79,3.219 -0.52,0.938 -1.33,1.677 -2.41,2.219 -1.085,0.542 -2.402,0.812 -3.954,0.812 -0.896,0 -1.862,-0.101 -2.899,-0.304 -1.036,-0.203 -1.987,-0.472 -2.851,-0.805 v -3.312 h 1.875 c 0.364,1.083 0.846,1.869 1.445,2.359 0.599,0.49 1.414,0.734 2.445,0.734 1.354,0 2.378,-0.369 3.071,-1.109 0.688,-0.74 1.038,-1.833 1.038,-3.281 0,-1.521 -0.46,-2.683 -1.374,-3.485 -0.917,-0.802 -2.261,-1.203 -4.032,-1.203 h -1.406 v -1.375 c 1.406,-0.083 2.591,-0.354 3.555,-0.812 0.963,-0.459 1.68,-1.047 2.148,-1.766 0.469,-0.719 0.699,-1.526 0.699,-2.422 0,-1.156 -0.3,-2.047 -0.917,-2.672 -0.615,-0.625 -1.511,-0.937 -2.688,-0.937 -0.979,0 -1.776,0.265 -2.391,0.797 -0.614,0.531 -1.067,1.343 -1.359,2.437 h -1.875 v -2.969 c 1.208,-0.572 2.339,-1 3.391,-1.281 1.052,-0.281 2.067,-0.422 3.047,-0.422 z"
       fill-rule="evenodd"
       id="path313" />
    <text
       fill="#000000"
       fill-opacity="0"
       font-family="Arial, Arial_MSFontService, sans-serif"
       font-size="21.8281px"
       x="991.13599"
       y="197.69901"
       id="text315">3</text>
    <path
       d="m 990.979,216.113 h 0.86 c -0.063,1 -0.094,2.385 -0.094,4.156 v 13.344 c 0,0.604 0.034,1.06 0.102,1.367 0.067,0.307 0.187,0.557 0.359,0.75 0.172,0.193 0.419,0.344 0.742,0.453 0.323,0.109 0.729,0.193 1.219,0.25 0.489,0.057 1.135,0.096 1.937,0.117 v 1.141 h -11.546 v -1.141 c 1.156,-0.052 1.981,-0.122 2.476,-0.211 0.495,-0.088 0.872,-0.221 1.133,-0.398 0.26,-0.177 0.45,-0.427 0.57,-0.75 0.12,-0.323 0.18,-0.849 0.18,-1.578 v -12.672 c 0,-0.417 -0.073,-0.722 -0.219,-0.914 -0.146,-0.193 -0.359,-0.289 -0.64,-0.289 -0.334,0 -0.808,0.172 -1.422,0.515 -0.615,0.344 -1.375,0.818 -2.282,1.422 l -0.687,-1.203 z"
       fill-rule="evenodd"
       id="path317" />
    <text
       fill="#000000"
       fill-opacity="0"
       font-family="Arial, Arial_MSFontService, sans-serif"
       font-size="21.5781px"
       x="983.66699"
       y="234.994"
       id="text319">1</text>
    <path
       d="m 990.979,253.626 h 0.86 c -0.063,1 -0.094,2.385 -0.094,4.156 v 13.344 c 0,0.604 0.034,1.06 0.102,1.367 0.067,0.308 0.187,0.558 0.359,0.75 0.172,0.193 0.419,0.344 0.742,0.453 0.323,0.11 0.729,0.193 1.219,0.25 0.489,0.058 1.135,0.097 1.937,0.118 v 1.14 h -11.546 v -1.14 c 1.156,-0.053 1.981,-0.123 2.476,-0.211 0.495,-0.089 0.872,-0.222 1.133,-0.399 0.26,-0.177 0.45,-0.427 0.57,-0.75 0.12,-0.323 0.18,-0.849 0.18,-1.578 v -12.672 c 0,-0.416 -0.073,-0.721 -0.219,-0.914 -0.146,-0.193 -0.359,-0.289 -0.64,-0.289 -0.334,0 -0.808,0.172 -1.422,0.516 -0.615,0.343 -1.375,0.817 -2.282,1.422 l -0.687,-1.204 z"
       fill-rule="evenodd"
       id="path321" />
    <text
       fill="#000000"
       fill-opacity="0"
       font-family="Arial, Arial_MSFontService, sans-serif"
       font-size="21.5781px"
       x="983.66699"
       y="272.50699"
       id="text323">1</text>
    <text
       font-family="Calibri, Calibri_MSFontService, sans-serif"
       font-weight="400"
       font-size="43px"
       transform="translate(415.243,102)"
       id="text331">Vector <tspan
   font-size="43px"
   x="122.12"
   y="0"
   id="tspan325">span examples</tspan><tspan
   font-family="'Cambria Math', 'Cambria Math_MSFontService', sans-serif"
   font-size="24px"
   x="69.365997"
   y="56"
   id="tspan327">𝑣</tspan><tspan
   font-family="'Cambria Math', 'Cambria Math_MSFontService', sans-serif"
   font-size="16px"
   x="82.365997"
   y="61"
   id="tspan329">1</tspan></text>
    <path
       d="m 503.49,139.365 2.942,2.543 v 0.68 l -2.942,2.543 -0.621,-0.703 1.875,-1.629 h -4.81 -2.338 -1.802 -2.891 -1.256 -2.884 -4.147 v -1.102 h 4.147 2.884 1.256 2.891 1.802 2.338 4.81 l -1.875,-1.629 z"
       fill-rule="evenodd"
       id="path333" />
    <text
       font-family="'Cambria Math', 'Cambria Math_MSFontService', sans-serif"
       font-weight="400"
       font-size="24px"
       transform="translate(506.443,158)"
       id="text339"><tspan
         font-size="24px"
         x="39.562599"
         y="0"
         id="tspan335">𝑣</tspan><tspan
         font-size="16px"
         x="52.562599"
         y="5"
         id="tspan337">2</tspan></text>
    <path
       d="m 564.886,139.022 2.942,2.543 v 0.68 l -2.942,2.543 -0.621,-0.703 1.875,-1.629 h -4.81 -2.338 -1.802 -2.892 -1.255 -2.885 -4.146 v -1.101 h 4.146 2.885 1.255 2.892 1.802 2.338 4.81 l -1.875,-1.629 z"
       fill-rule="evenodd"
       id="path341" />
    <path
       d="M 958,611.607 C 958,604.644 963.644,599 970.607,599 h 9.786 c 6.963,0 12.607,5.644 12.607,12.607 v 11.786 C 993,630.356 987.356,636 980.393,636 h -9.786 C 963.644,636 958,630.356 958,623.393 Z"
       fill="#385723"
       fill-rule="evenodd"
       fill-opacity="0.4"
       id="path343" />
    <text
       font-family="Calibri, Calibri_MSFontService, sans-serif"
       font-weight="400"
       font-size="27px"
       transform="translate(1002.16,626)"
       id="text347">Vector<tspan
   font-family="'Cambria Math', 'Cambria Math_MSFontService', sans-serif"
   font-size="24px"
   x="-795.61798"
   y="-464"
   id="tspan345">𝑏</tspan></text>
    <path
       d="m 216.598,137.709 2.941,2.543 v 0.68 l -2.941,2.543 -0.621,-0.703 1.875,-1.629 h -2.738 -4.411 -2.62 v -1.102 h 2.62 4.411 2.738 l -1.875,-1.629 z"
       fill-rule="evenodd"
       id="path349" />
    <text
       font-family="'Cambria Math', 'Cambria Math_MSFontService', sans-serif"
       font-weight="400"
       font-size="24px"
       transform="translate(605.269,158)"
       id="text353">𝑣<tspan
   font-size="16px"
   x="13"
   y="5"
   id="tspan351">3</tspan></text>
    <path
       d="m 624.151,139.022 2.941,2.543 v 0.68 l -2.941,2.543 -0.622,-0.703 1.875,-1.629 h -4.81 -2.338 -1.802 -2.891 -1.256 -2.884 -4.147 v -1.101 h 4.147 2.884 1.256 2.891 1.802 2.338 4.81 l -1.875,-1.629 z"
       fill-rule="evenodd"
       id="path355" />
    <path
       d="m 229.154,457.657 h 8.5 v 94.907 h -8.5 v -1.532 h 5.281 v -91.843 h -5.281 z m -43.574,0 h 8.5 v 1.532 h -5.281 v 91.843 h 5.281 v 1.532 h -8.5 z"
       fill-rule="evenodd"
       id="path357" />
    <path
       d="m 197.128,468.171 h 12.313 c 0.135,0 0.239,0.049 0.312,0.148 0.073,0.099 0.109,0.242 0.109,0.43 0,0.073 -0.007,0.161 -0.023,0.266 -0.016,0.104 -0.034,0.218 -0.055,0.343 -0.021,0.125 -0.054,0.248 -0.101,0.367 -0.047,0.12 -0.104,0.23 -0.172,0.329 -0.068,0.099 -0.141,0.179 -0.219,0.242 -0.078,0.062 -0.174,0.094 -0.289,0.094 h -12.312 c -0.146,0 -0.253,-0.053 -0.321,-0.157 -0.067,-0.104 -0.101,-0.244 -0.101,-0.422 0,-0.072 0.005,-0.164 0.015,-0.273 0.011,-0.109 0.032,-0.224 0.063,-0.344 0.031,-0.12 0.068,-0.242 0.109,-0.367 0.042,-0.125 0.097,-0.237 0.164,-0.336 0.068,-0.099 0.143,-0.177 0.227,-0.234 0.083,-0.058 0.177,-0.086 0.281,-0.086 z"
       fill-rule="evenodd"
       id="path359" />
    <text
       fill="#000000"
       fill-opacity="0"
       font-family="Arial, Arial_MSFontService, sans-serif"
       font-size="2.21875px"
       x="196.269"
       y="470.112"
       id="text361">−</text>
    <path
       d="m 219.706,456.686 c 1.177,0 2.209,0.183 3.094,0.547 0.885,0.365 1.562,0.888 2.031,1.571 0.469,0.682 0.703,1.497 0.703,2.445 0,0.885 -0.177,1.664 -0.531,2.336 -0.354,0.672 -0.852,1.258 -1.492,1.758 -0.641,0.5 -1.471,0.989 -2.492,1.468 v 0.141 c 0.635,0.115 1.247,0.31 1.836,0.586 0.588,0.276 1.112,0.633 1.57,1.07 0.458,0.438 0.825,0.961 1.101,1.571 0.277,0.609 0.415,1.304 0.415,2.086 0,1.208 -0.263,2.281 -0.79,3.218 -0.526,0.938 -1.33,1.677 -2.414,2.219 -1.083,0.542 -2.401,0.813 -3.953,0.813 -0.896,0 -1.862,-0.102 -2.898,-0.305 -1.037,-0.203 -1.987,-0.471 -2.852,-0.805 v -3.312 h 1.875 c 0.365,1.083 0.847,1.869 1.446,2.359 0.599,0.49 1.414,0.734 2.445,0.734 1.354,0 2.378,-0.369 3.07,-1.109 0.693,-0.74 1.039,-1.833 1.039,-3.281 0,-1.521 -0.458,-2.682 -1.375,-3.485 -0.916,-0.802 -2.26,-1.203 -4.031,-1.203 h -1.406 v -1.375 c 1.406,-0.083 2.591,-0.354 3.554,-0.812 0.964,-0.459 1.68,-1.047 2.149,-1.766 0.469,-0.719 0.703,-1.526 0.703,-2.422 0,-1.156 -0.307,-2.047 -0.922,-2.672 -0.614,-0.625 -1.51,-0.937 -2.687,-0.937 -0.979,0 -1.776,0.266 -2.391,0.797 -0.615,0.531 -1.068,1.344 -1.359,2.437 h -1.875 v -2.968 c 1.208,-0.573 2.338,-1 3.39,-1.282 1.052,-0.281 2.068,-0.422 3.047,-0.422 z"
       fill-rule="evenodd"
       id="path363" />
    <text
       fill="#000000"
       fill-opacity="0"
       font-family="Arial, Arial_MSFontService, sans-serif"
       font-size="21.8281px"
       x="213.034"
       y="475.78601"
       id="text365">3</text>
    <path
       d="m 212.878,494.2 h 0.859 c -0.062,1 -0.093,2.385 -0.093,4.156 V 511.7 c 0,0.604 0.034,1.06 0.101,1.367 0.068,0.307 0.188,0.557 0.36,0.75 0.171,0.193 0.419,0.344 0.742,0.453 0.323,0.109 0.729,0.193 1.219,0.25 0.489,0.057 1.135,0.096 1.937,0.117 v 1.141 h -11.547 v -1.141 c 1.156,-0.052 1.982,-0.122 2.477,-0.211 0.495,-0.088 0.872,-0.221 1.133,-0.398 0.26,-0.177 0.45,-0.427 0.57,-0.75 0.12,-0.323 0.18,-0.849 0.18,-1.578 v -12.672 c 0,-0.417 -0.073,-0.721 -0.219,-0.914 -0.146,-0.193 -0.36,-0.289 -0.641,-0.289 -0.333,0 -0.807,0.172 -1.422,0.515 -0.614,0.344 -1.375,0.818 -2.281,1.422 l -0.687,-1.203 z"
       fill-rule="evenodd"
       id="path367" />
    <text
       fill="#000000"
       fill-opacity="0"
       font-family="Arial, Arial_MSFontService, sans-serif"
       font-size="21.5781px"
       x="205.56599"
       y="513.08099"
       id="text369">1</text>
    <path
       d="m 211.644,533.041 c -0.719,0 -1.321,0.214 -1.805,0.641 -0.484,0.427 -0.875,1.042 -1.172,1.844 -0.297,0.802 -0.508,1.778 -0.633,2.929 -0.125,1.151 -0.187,2.451 -0.187,3.899 0,3.396 0.315,5.888 0.945,7.476 0.63,1.589 1.607,2.383 2.93,2.383 1.26,0 2.195,-0.747 2.804,-2.242 0.61,-1.495 0.915,-3.81 0.915,-6.945 0,-2.396 -0.157,-4.336 -0.469,-5.821 -0.313,-1.484 -0.748,-2.549 -1.305,-3.195 -0.557,-0.646 -1.232,-0.969 -2.023,-0.969 z m 0.078,-1.328 c 2.281,0 3.979,0.88 5.094,2.641 1.114,1.76 1.671,4.422 1.671,7.984 0,3.688 -0.596,6.477 -1.789,8.367 -1.192,1.891 -2.935,2.836 -5.226,2.836 -2.25,0 -3.925,-0.885 -5.024,-2.656 -1.099,-1.771 -1.648,-4.458 -1.648,-8.062 0,-1.917 0.169,-3.573 0.508,-4.969 0.338,-1.396 0.812,-2.55 1.422,-3.461 0.609,-0.912 1.341,-1.586 2.195,-2.024 0.854,-0.437 1.786,-0.656 2.797,-0.656 z"
       fill-rule="evenodd"
       id="path371" />
    <text
       fill="#000000"
       fill-opacity="0"
       font-family="Arial, Arial_MSFontService, sans-serif"
       font-size="21.8281px"
       x="204.8"
       y="550.81299"
       id="text373">0</text>
    <text
       font-family="Calibri, Calibri_MSFontService, sans-serif"
       font-weight="400"
       font-size="32px"
       transform="translate(248.384,514)"
       id="text375">is in the span</text>
    <path
       d="m 498.875,457.593 c 2.281,0.312 4.302,2.036 6.063,5.172 1.77,3.145 2.656,8.078 2.656,14.796 0,1.23 -0.089,2.675 -0.266,4.336 -0.177,1.662 -0.442,3.56 -0.797,5.696 -0.354,2.135 -0.619,3.924 -0.796,5.367 -0.178,1.443 -0.266,2.555 -0.266,3.336 0,2.531 0.37,4.489 1.109,5.875 0.75,1.375 1.709,2.114 2.875,2.219 v 1.609 c -1.166,0.104 -2.125,0.844 -2.875,2.219 -0.739,1.385 -1.109,3.343 -1.109,5.875 0,0.781 0.088,1.893 0.266,3.336 0.177,1.442 0.442,3.231 0.796,5.367 0.355,2.135 0.62,4.034 0.797,5.695 0.177,1.662 0.266,3.107 0.266,4.336 0,6.615 -0.886,11.495 -2.656,14.641 -1.761,3.135 -3.782,4.859 -6.063,5.172 v -1.344 c 1.427,-0.302 2.719,-1.698 3.875,-4.188 1.156,-2.479 1.735,-6.364 1.735,-11.656 0,-1.104 -0.086,-2.487 -0.258,-4.148 -0.172,-1.662 -0.425,-3.628 -0.758,-5.899 -0.333,-2.26 -0.586,-4.078 -0.758,-5.453 -0.172,-1.375 -0.258,-2.323 -0.258,-2.844 0,-3.031 0.308,-5.51 0.922,-7.437 0.604,-1.917 1.682,-3.339 3.235,-4.266 v -0.422 c -1.542,-0.916 -2.62,-2.333 -3.235,-4.25 -0.614,-1.937 -0.922,-4.422 -0.922,-7.453 0,-0.521 0.086,-1.469 0.258,-2.844 0.172,-1.375 0.425,-3.192 0.758,-5.453 0.333,-2.271 0.586,-4.237 0.758,-5.898 0.172,-1.662 0.258,-3.044 0.258,-4.149 0,-5.385 -0.579,-9.322 -1.735,-11.812 -1.156,-2.49 -2.448,-3.885 -3.875,-4.188 z m -61.074,0 v 1.343 c -1.427,0.303 -2.719,1.698 -3.875,4.188 -1.156,2.49 -1.734,6.427 -1.734,11.812 0,2.188 0.338,5.534 1.015,10.039 0.677,4.506 1.016,7.274 1.016,8.305 0,3.052 -0.307,5.534 -0.922,7.445 -0.615,1.912 -1.693,3.331 -3.234,4.258 v 0.422 c 1.541,0.927 2.619,2.347 3.234,4.258 0.615,1.911 0.922,4.393 0.922,7.445 0,1.032 -0.339,3.8 -1.016,8.305 -0.677,4.505 -1.015,7.852 -1.015,10.039 0,5.281 0.578,9.167 1.734,11.656 1.156,2.49 2.448,3.886 3.875,4.188 v 1.344 c -2.271,-0.313 -4.292,-2.037 -6.063,-5.172 -1.77,-3.136 -2.656,-8.016 -2.656,-14.641 0,-2.437 0.354,-5.781 1.063,-10.031 0.708,-4.25 1.062,-7.151 1.062,-8.703 0,-2.542 -0.372,-4.5 -1.117,-5.875 -0.745,-1.375 -1.7,-2.115 -2.867,-2.219 v -1.609 c 1.167,-0.105 2.122,-0.844 2.867,-2.219 0.745,-1.375 1.117,-3.334 1.117,-5.875 0,-1.552 -0.354,-4.453 -1.062,-8.703 -0.709,-4.25 -1.063,-7.594 -1.063,-10.032 0,-6.729 0.886,-11.661 2.656,-14.796 1.771,-3.136 3.792,-4.86 6.063,-5.172 z"
       fill-rule="evenodd"
       id="path377" />
    <path
       d="m 485.874,457.657 h 8.5 v 94.907 h -8.5 v -1.532 h 5.281 v -91.843 h -5.281 z m -43.574,0 h 8.5 v 1.532 h -5.281 v 91.843 h 5.281 v 1.532 h -8.5 z"
       fill-rule="evenodd"
       id="path379" />
    <path
       d="m 453.848,468.171 h 12.313 c 0.135,0 0.239,0.049 0.312,0.148 0.073,0.099 0.109,0.242 0.109,0.43 0,0.073 -0.007,0.161 -0.023,0.266 -0.016,0.104 -0.034,0.218 -0.055,0.343 -0.021,0.125 -0.054,0.248 -0.101,0.367 -0.047,0.12 -0.104,0.23 -0.172,0.329 -0.068,0.099 -0.141,0.179 -0.219,0.242 -0.078,0.062 -0.174,0.094 -0.289,0.094 h -12.312 c -0.146,0 -0.253,-0.053 -0.321,-0.157 -0.067,-0.104 -0.101,-0.244 -0.101,-0.422 0,-0.072 0.005,-0.164 0.015,-0.273 0.011,-0.109 0.032,-0.224 0.063,-0.344 0.031,-0.12 0.068,-0.242 0.109,-0.367 0.042,-0.125 0.097,-0.237 0.164,-0.336 0.068,-0.099 0.143,-0.177 0.227,-0.234 0.083,-0.058 0.177,-0.086 0.281,-0.086 z"
       fill-rule="evenodd"
       id="path381" />
    <text
       fill="#000000"
       fill-opacity="0"
       font-family="Arial, Arial_MSFontService, sans-serif"
       font-size="2.21875px"
       x="452.98901"
       y="470.112"
       id="text383">−</text>
    <path
       d="m 476.426,456.686 c 1.177,0 2.209,0.183 3.094,0.547 0.885,0.365 1.562,0.888 2.031,1.571 0.469,0.682 0.703,1.497 0.703,2.445 0,0.885 -0.177,1.664 -0.531,2.336 -0.354,0.672 -0.852,1.258 -1.492,1.758 -0.641,0.5 -1.471,0.989 -2.492,1.468 v 0.141 c 0.635,0.115 1.247,0.31 1.836,0.586 0.588,0.276 1.112,0.633 1.57,1.07 0.458,0.438 0.825,0.961 1.101,1.571 0.277,0.609 0.415,1.304 0.415,2.086 0,1.208 -0.263,2.281 -0.79,3.218 -0.526,0.938 -1.33,1.677 -2.414,2.219 -1.083,0.542 -2.401,0.813 -3.953,0.813 -0.896,0 -1.862,-0.102 -2.898,-0.305 -1.037,-0.203 -1.987,-0.471 -2.852,-0.805 v -3.312 h 1.875 c 0.365,1.083 0.847,1.869 1.446,2.359 0.599,0.49 1.414,0.734 2.445,0.734 1.354,0 2.378,-0.369 3.07,-1.109 0.693,-0.74 1.039,-1.833 1.039,-3.281 0,-1.521 -0.458,-2.682 -1.375,-3.485 -0.916,-0.802 -2.26,-1.203 -4.031,-1.203 h -1.406 v -1.375 c 1.406,-0.083 2.591,-0.354 3.554,-0.812 0.964,-0.459 1.68,-1.047 2.149,-1.766 0.469,-0.719 0.703,-1.526 0.703,-2.422 0,-1.156 -0.307,-2.047 -0.922,-2.672 -0.614,-0.625 -1.51,-0.937 -2.687,-0.937 -0.979,0 -1.776,0.266 -2.391,0.797 -0.615,0.531 -1.068,1.344 -1.359,2.437 h -1.875 v -2.968 c 1.208,-0.573 2.338,-1 3.39,-1.282 1.052,-0.281 2.068,-0.422 3.047,-0.422 z"
       fill-rule="evenodd"
       id="path385" />
    <text
       fill="#000000"
       fill-opacity="0"
       font-family="Arial, Arial_MSFontService, sans-serif"
       font-size="21.8281px"
       x="469.754"
       y="475.78601"
       id="text387">3</text>
    <path
       d="m 469.598,494.2 h 0.859 c -0.062,1 -0.093,2.385 -0.093,4.156 V 511.7 c 0,0.604 0.034,1.06 0.101,1.367 0.068,0.307 0.188,0.557 0.36,0.75 0.171,0.193 0.419,0.344 0.742,0.453 0.323,0.109 0.729,0.193 1.219,0.25 0.489,0.057 1.135,0.096 1.937,0.117 v 1.141 h -11.547 v -1.141 c 1.156,-0.052 1.982,-0.122 2.477,-0.211 0.495,-0.088 0.872,-0.221 1.133,-0.398 0.26,-0.177 0.45,-0.427 0.57,-0.75 0.12,-0.323 0.18,-0.849 0.18,-1.578 v -12.672 c 0,-0.417 -0.073,-0.721 -0.219,-0.914 -0.146,-0.193 -0.36,-0.289 -0.641,-0.289 -0.333,0 -0.807,0.172 -1.422,0.515 -0.614,0.344 -1.375,0.818 -2.281,1.422 l -0.687,-1.203 z"
       fill-rule="evenodd"
       id="path389" />
    <text
       fill="#000000"
       fill-opacity="0"
       font-family="Arial, Arial_MSFontService, sans-serif"
       font-size="21.5781px"
       x="462.28601"
       y="513.08099"
       id="text391">1</text>
    <path
       d="m 468.364,533.041 c -0.719,0 -1.321,0.214 -1.805,0.641 -0.484,0.427 -0.875,1.042 -1.172,1.844 -0.297,0.802 -0.508,1.778 -0.633,2.929 -0.125,1.151 -0.187,2.451 -0.187,3.899 0,3.396 0.315,5.888 0.945,7.476 0.63,1.589 1.607,2.383 2.93,2.383 1.26,0 2.195,-0.747 2.804,-2.242 0.61,-1.495 0.915,-3.81 0.915,-6.945 0,-2.396 -0.157,-4.336 -0.469,-5.821 -0.313,-1.484 -0.748,-2.549 -1.305,-3.195 -0.557,-0.646 -1.232,-0.969 -2.023,-0.969 z m 0.078,-1.328 c 2.281,0 3.979,0.88 5.094,2.641 1.114,1.76 1.671,4.422 1.671,7.984 0,3.688 -0.596,6.477 -1.789,8.367 -1.192,1.891 -2.935,2.836 -5.226,2.836 -2.25,0 -3.925,-0.885 -5.024,-2.656 -1.099,-1.771 -1.648,-4.458 -1.648,-8.062 0,-1.917 0.169,-3.573 0.508,-4.969 0.338,-1.396 0.812,-2.55 1.422,-3.461 0.609,-0.912 1.341,-1.586 2.195,-2.024 0.854,-0.437 1.786,-0.656 2.797,-0.656 z"
       fill-rule="evenodd"
       id="path393" />
    <text
       fill="#000000"
       fill-opacity="0"
       font-family="Arial, Arial_MSFontService, sans-serif"
       font-size="21.8281px"
       x="461.51999"
       y="550.81299"
       id="text395">0</text>
    <text
       font-family="Calibri, Calibri_MSFontService, sans-serif"
       font-weight="400"
       font-size="32px"
       transform="translate(517.624,514)"
       id="text397">but</text>
    <path
       d="m 615.181,478.865 h 7.437 v 52.5 h -7.437 v -1.359 h 4.547 v -49.782 h -4.547 z m -42.51,0 h 7.438 v 1.359 h -4.547 v 49.782 h 4.547 v 1.359 h -7.438 z"
       fill-rule="evenodd"
       id="path399" />
    <path
       d="m 583.155,487.051 h 12.312 c 0.136,0 0.24,0.049 0.313,0.148 0.073,0.099 0.109,0.242 0.109,0.43 0,0.073 -0.008,0.161 -0.023,0.266 -0.016,0.104 -0.034,0.218 -0.055,0.343 -0.021,0.125 -0.055,0.248 -0.102,0.367 -0.046,0.12 -0.104,0.23 -0.171,0.329 -0.068,0.099 -0.141,0.179 -0.219,0.242 -0.078,0.062 -0.175,0.094 -0.289,0.094 h -12.313 c -0.146,0 -0.252,-0.053 -0.32,-0.157 -0.068,-0.104 -0.102,-0.244 -0.102,-0.422 0,-0.072 0.006,-0.164 0.016,-0.273 0.01,-0.109 0.031,-0.224 0.062,-0.344 0.032,-0.12 0.068,-0.242 0.11,-0.367 0.042,-0.125 0.096,-0.237 0.164,-0.336 0.068,-0.099 0.143,-0.177 0.226,-0.234 0.084,-0.058 0.178,-0.086 0.282,-0.086 z"
       fill-rule="evenodd"
       id="path401" />
    <text
       fill="#000000"
       fill-opacity="0"
       font-family="Arial, Arial_MSFontService, sans-serif"
       font-size="2.21875px"
       x="582.29498"
       y="488.992"
       id="text403">−</text>
    <path
       d="m 605.733,475.566 c 1.177,0 2.208,0.183 3.094,0.547 0.885,0.365 1.562,0.888 2.031,1.571 0.469,0.682 0.703,1.497 0.703,2.445 0,0.885 -0.177,1.664 -0.531,2.336 -0.354,0.672 -0.852,1.258 -1.492,1.758 -0.641,0.5 -1.472,0.989 -2.493,1.468 v 0.141 c 0.636,0.115 1.248,0.31 1.836,0.586 0.589,0.276 1.112,0.633 1.571,1.07 0.458,0.438 0.825,0.961 1.101,1.571 0.276,0.609 0.414,1.304 0.414,2.086 0,1.208 -0.263,2.281 -0.789,3.218 -0.526,0.938 -1.331,1.677 -2.414,2.219 -1.083,0.542 -2.401,0.813 -3.953,0.813 -0.896,0 -1.862,-0.102 -2.898,-0.305 -1.037,-0.203 -1.987,-0.471 -2.852,-0.805 v -3.312 h 1.875 c 0.365,1.083 0.846,1.869 1.445,2.359 0.599,0.49 1.414,0.734 2.446,0.734 1.354,0 2.377,-0.369 3.07,-1.109 0.693,-0.74 1.039,-1.833 1.039,-3.281 0,-1.521 -0.458,-2.682 -1.375,-3.485 -0.917,-0.802 -2.26,-1.203 -4.031,-1.203 h -1.407 v -1.375 c 1.407,-0.083 2.592,-0.354 3.555,-0.812 0.964,-0.459 1.68,-1.047 2.149,-1.766 0.468,-0.719 0.703,-1.526 0.703,-2.422 0,-1.156 -0.308,-2.047 -0.922,-2.672 -0.615,-0.625 -1.511,-0.937 -2.688,-0.937 -0.979,0 -1.776,0.266 -2.39,0.797 -0.615,0.531 -1.068,1.344 -1.36,2.437 h -1.875 v -2.968 c 1.209,-0.573 2.339,-1 3.391,-1.282 1.052,-0.281 2.068,-0.422 3.047,-0.422 z"
       fill-rule="evenodd"
       id="path405" />
    <text
       fill="#000000"
       fill-opacity="0"
       font-family="Arial, Arial_MSFontService, sans-serif"
       font-size="21.8281px"
       x="599.06097"
       y="494.66599"
       id="text407">3</text>
    <path
       d="m 598.905,513.08 h 0.859 c -0.062,1 -0.094,2.385 -0.094,4.156 v 13.344 c 0,0.604 0.034,1.06 0.102,1.367 0.068,0.307 0.187,0.557 0.359,0.75 0.172,0.193 0.42,0.344 0.742,0.453 0.323,0.109 0.73,0.193 1.219,0.25 0.49,0.057 1.136,0.096 1.938,0.117 v 1.141 h -11.547 v -1.141 c 1.156,-0.052 1.982,-0.122 2.476,-0.211 0.495,-0.088 0.873,-0.221 1.133,-0.398 0.261,-0.177 0.451,-0.427 0.571,-0.75 0.119,-0.323 0.179,-0.849 0.179,-1.578 v -12.672 c 0,-0.417 -0.073,-0.721 -0.219,-0.914 -0.145,-0.193 -0.359,-0.289 -0.64,-0.289 -0.333,0 -0.807,0.172 -1.422,0.515 -0.615,0.344 -1.375,0.818 -2.281,1.422 l -0.688,-1.203 z"
       fill-rule="evenodd"
       id="path409" />
    <text
       fill="#000000"
       fill-opacity="0"
       font-family="Arial, Arial_MSFontService, sans-serif"
       font-size="21.5781px"
       x="591.59198"
       y="531.961"
       id="text411">1</text>
    <text
       font-family="Calibri, Calibri_MSFontService, sans-serif"
       font-weight="400"
       font-size="32px"
       transform="translate(633.331,514)"
       id="text413">is not in the span</text>
    <path
       d="m 935.322,457.593 c 2.281,0.312 4.302,2.036 6.062,5.172 1.771,3.145 2.657,8.078 2.657,14.796 0,1.23 -0.089,2.675 -0.266,4.336 -0.177,1.662 -0.443,3.56 -0.797,5.696 -0.354,2.135 -0.62,3.924 -0.797,5.367 -0.177,1.443 -0.265,2.555 -0.265,3.336 0,2.531 0.369,4.489 1.109,5.875 0.75,1.375 1.708,2.114 2.875,2.219 v 1.609 c -1.167,0.104 -2.125,0.844 -2.875,2.219 -0.74,1.385 -1.109,3.343 -1.109,5.875 0,0.781 0.088,1.893 0.265,3.336 0.177,1.442 0.443,3.231 0.797,5.367 0.354,2.135 0.62,4.034 0.797,5.695 0.177,1.662 0.266,3.107 0.266,4.336 0,6.615 -0.886,11.495 -2.657,14.641 -1.76,3.135 -3.781,4.859 -6.062,5.172 v -1.344 c 1.427,-0.302 2.719,-1.698 3.875,-4.188 1.156,-2.479 1.734,-6.364 1.734,-11.656 0,-1.104 -0.086,-2.487 -0.258,-4.148 -0.171,-1.662 -0.424,-3.628 -0.757,-5.899 -0.334,-2.26 -0.586,-4.078 -0.758,-5.453 -0.172,-1.375 -0.258,-2.323 -0.258,-2.844 0,-3.031 0.307,-5.51 0.922,-7.437 0.604,-1.917 1.682,-3.339 3.234,-4.266 v -0.422 c -1.541,-0.916 -2.62,-2.333 -3.234,-4.25 -0.615,-1.937 -0.922,-4.422 -0.922,-7.453 0,-0.521 0.086,-1.469 0.258,-2.844 0.172,-1.375 0.424,-3.192 0.758,-5.453 0.333,-2.271 0.586,-4.237 0.757,-5.898 0.172,-1.662 0.258,-3.044 0.258,-4.149 0,-5.385 -0.578,-9.322 -1.734,-11.812 -1.156,-2.49 -2.448,-3.885 -3.875,-4.188 z m -61.074,0 v 1.343 c -1.427,0.303 -2.719,1.698 -3.875,4.188 -1.157,2.49 -1.735,6.427 -1.735,11.812 0,2.188 0.339,5.534 1.016,10.039 0.677,4.506 1.016,7.274 1.016,8.305 0,3.052 -0.308,5.534 -0.922,7.445 -0.615,1.912 -1.693,3.331 -3.235,4.258 v 0.422 c 1.542,0.927 2.62,2.347 3.235,4.258 0.614,1.911 0.922,4.393 0.922,7.445 0,1.032 -0.339,3.8 -1.016,8.305 -0.677,4.505 -1.016,7.852 -1.016,10.039 0,5.281 0.578,9.167 1.735,11.656 1.156,2.49 2.448,3.886 3.875,4.188 v 1.344 c -2.271,-0.313 -4.292,-2.037 -6.063,-5.172 -1.771,-3.136 -2.656,-8.016 -2.656,-14.641 0,-2.437 0.354,-5.781 1.062,-10.031 0.709,-4.25 1.063,-7.151 1.063,-8.703 0,-2.542 -0.373,-4.5 -1.117,-5.875 -0.745,-1.375 -1.701,-2.115 -2.867,-2.219 v -1.609 c 1.166,-0.105 2.122,-0.844 2.867,-2.219 0.744,-1.375 1.117,-3.334 1.117,-5.875 0,-1.552 -0.354,-4.453 -1.063,-8.703 -0.708,-4.25 -1.062,-7.594 -1.062,-10.032 0,-6.729 0.885,-11.661 2.656,-14.796 1.771,-3.136 3.792,-4.86 6.063,-5.172 z"
       fill-rule="evenodd"
       id="path415" />
    <path
       d="m 922.321,457.657 h 8.5 v 94.907 h -8.5 v -1.532 h 5.281 v -91.843 h -5.281 z m -43.574,0 h 8.5 v 1.532 h -5.281 v 91.843 h 5.281 v 1.532 h -8.5 z"
       fill-rule="evenodd"
       id="path417" />
    <path
       d="m 890.295,468.171 h 12.312 c 0.136,0 0.24,0.049 0.313,0.148 0.073,0.099 0.109,0.242 0.109,0.43 0,0.073 -0.008,0.161 -0.023,0.266 -0.016,0.104 -0.034,0.218 -0.055,0.343 -0.021,0.125 -0.055,0.248 -0.102,0.367 -0.046,0.12 -0.104,0.23 -0.171,0.329 -0.068,0.099 -0.141,0.179 -0.219,0.242 -0.078,0.062 -0.175,0.094 -0.289,0.094 h -12.313 c -0.146,0 -0.252,-0.053 -0.32,-0.157 -0.068,-0.104 -0.102,-0.244 -0.102,-0.422 0,-0.072 0.006,-0.164 0.016,-0.273 0.01,-0.109 0.031,-0.224 0.062,-0.344 0.032,-0.12 0.068,-0.242 0.11,-0.367 0.042,-0.125 0.096,-0.237 0.164,-0.336 0.068,-0.099 0.143,-0.177 0.226,-0.234 0.084,-0.058 0.178,-0.086 0.282,-0.086 z"
       fill-rule="evenodd"
       id="path419" />
    <text
       fill="#000000"
       fill-opacity="0"
       font-family="Arial, Arial_MSFontService, sans-serif"
       font-size="2.21875px"
       x="889.435"
       y="470.112"
       id="text421">−</text>
    <path
       d="m 912.873,456.686 c 1.177,0 2.208,0.183 3.094,0.547 0.885,0.365 1.562,0.888 2.031,1.571 0.469,0.682 0.703,1.497 0.703,2.445 0,0.885 -0.177,1.664 -0.531,2.336 -0.354,0.672 -0.852,1.258 -1.492,1.758 -0.641,0.5 -1.472,0.989 -2.493,1.468 v 0.141 c 0.636,0.115 1.248,0.31 1.836,0.586 0.589,0.276 1.112,0.633 1.571,1.07 0.458,0.438 0.825,0.961 1.101,1.571 0.276,0.609 0.414,1.304 0.414,2.086 0,1.208 -0.263,2.281 -0.789,3.218 -0.526,0.938 -1.331,1.677 -2.414,2.219 -1.083,0.542 -2.401,0.813 -3.953,0.813 -0.896,0 -1.862,-0.102 -2.898,-0.305 -1.037,-0.203 -1.987,-0.471 -2.852,-0.805 v -3.312 h 1.875 c 0.365,1.083 0.846,1.869 1.445,2.359 0.599,0.49 1.414,0.734 2.446,0.734 1.354,0 2.377,-0.369 3.07,-1.109 0.693,-0.74 1.039,-1.833 1.039,-3.281 0,-1.521 -0.458,-2.682 -1.375,-3.485 -0.917,-0.802 -2.26,-1.203 -4.031,-1.203 h -1.407 v -1.375 c 1.407,-0.083 2.592,-0.354 3.555,-0.812 0.964,-0.459 1.68,-1.047 2.149,-1.766 0.468,-0.719 0.703,-1.526 0.703,-2.422 0,-1.156 -0.308,-2.047 -0.922,-2.672 -0.615,-0.625 -1.511,-0.937 -2.688,-0.937 -0.979,0 -1.776,0.266 -2.39,0.797 -0.615,0.531 -1.068,1.344 -1.36,2.437 h -1.875 v -2.968 c 1.209,-0.573 2.339,-1 3.391,-1.282 1.052,-0.281 2.068,-0.422 3.047,-0.422 z"
       fill-rule="evenodd"
       id="path423" />
    <text
       fill="#000000"
       fill-opacity="0"
       font-family="Arial, Arial_MSFontService, sans-serif"
       font-size="21.8281px"
       x="906.20099"
       y="475.78601"
       id="text425">3</text>
    <path
       d="m 906.045,494.2 h 0.859 c -0.062,1 -0.094,2.385 -0.094,4.156 V 511.7 c 0,0.604 0.034,1.06 0.102,1.367 0.068,0.307 0.187,0.557 0.359,0.75 0.172,0.193 0.42,0.344 0.742,0.453 0.323,0.109 0.73,0.193 1.219,0.25 0.49,0.057 1.136,0.096 1.938,0.117 v 1.141 h -11.547 v -1.141 c 1.156,-0.052 1.982,-0.122 2.476,-0.211 0.495,-0.088 0.873,-0.221 1.133,-0.398 0.261,-0.177 0.451,-0.427 0.571,-0.75 0.119,-0.323 0.179,-0.849 0.179,-1.578 v -12.672 c 0,-0.417 -0.073,-0.721 -0.219,-0.914 -0.145,-0.193 -0.359,-0.289 -0.64,-0.289 -0.333,0 -0.807,0.172 -1.422,0.515 -0.615,0.344 -1.375,0.818 -2.281,1.422 l -0.688,-1.203 z"
       fill-rule="evenodd"
       id="path427" />
    <text
       fill="#000000"
       fill-opacity="0"
       font-family="Arial, Arial_MSFontService, sans-serif"
       font-size="21.5781px"
       x="898.73199"
       y="513.08099"
       id="text429">1</text>
    <path
       d="m 904.81,533.041 c -0.718,0 -1.32,0.214 -1.804,0.641 -0.485,0.427 -0.875,1.042 -1.172,1.844 -0.297,0.802 -0.508,1.778 -0.633,2.929 -0.125,1.151 -0.188,2.451 -0.188,3.899 0,3.396 0.316,5.888 0.946,7.476 0.63,1.589 1.607,2.383 2.929,2.383 1.261,0 2.196,-0.747 2.805,-2.242 0.61,-1.495 0.914,-3.81 0.914,-6.945 0,-2.396 -0.156,-4.336 -0.469,-5.821 -0.312,-1.484 -0.747,-2.549 -1.304,-3.195 -0.558,-0.646 -1.232,-0.969 -2.024,-0.969 z m 0.078,-1.328 c 2.282,0 3.98,0.88 5.094,2.641 1.115,1.76 1.672,4.422 1.672,7.984 0,3.688 -0.596,6.477 -1.789,8.367 -1.193,1.891 -2.935,2.836 -5.227,2.836 -2.25,0 -3.924,-0.885 -5.023,-2.656 -1.099,-1.771 -1.648,-4.458 -1.648,-8.062 0,-1.917 0.169,-3.573 0.507,-4.969 0.339,-1.396 0.813,-2.55 1.422,-3.461 0.61,-0.912 1.341,-1.586 2.196,-2.024 0.854,-0.437 1.786,-0.656 2.796,-0.656 z"
       fill-rule="evenodd"
       id="path431" />
    <text
       fill="#000000"
       fill-opacity="0"
       font-family="Arial, Arial_MSFontService, sans-serif"
       font-size="21.8281px"
       x="897.96698"
       y="550.81299"
       id="text433">0</text>
  </g>
</svg>
