<svg width="1280" height="720" xmlns="http://www.w3.org/2000/svg" xmlns:xlink="http://www.w3.org/1999/xlink" overflow="hidden"><defs><clipPath id="clip0"><rect x="0" y="0" width="1280" height="720"/></clipPath></defs><g clip-path="url(#clip0)"><rect x="0" y="0" width="1280" height="720" fill="#FFFFFF"/><path d="M431 256.828C431 253.057 434.057 250 437.828 250L477.172 250C480.943 250 484 253.057 484 256.828L484 307.172C484 310.943 480.943 314 477.172 314L437.828 314C434.057 314 431 310.943 431 307.172Z" fill="#DAE3F3" fill-rule="evenodd"/><path d="M398.598 241.711 405.77 241.711 405.77 321.788 398.598 321.788 398.598 320.496 403.054 320.496 403.054 243.003 398.598 243.003ZM366.37 241.711 373.542 241.711 373.542 243.003 369.086 243.003 369.086 320.496 373.542 320.496 373.542 321.788 366.37 321.788Z" fill-rule="evenodd"/><path d="M379.212 243.981C379.484 243.981 379.724 244.012 379.931 244.073 380.137 244.135 380.319 244.229 380.478 244.357 380.636 244.484 380.776 244.649 380.9 244.851 381.023 245.053 381.141 245.328 381.255 245.675 381.37 246.022 381.477 246.453 381.578 246.967 381.68 247.481 381.77 248.015 381.849 248.569L381.981 248.569C382.824 247.382 383.464 246.514 383.899 245.965 384.334 245.416 384.701 245.007 385 244.739 385.298 244.471 385.586 244.282 385.863 244.172 386.14 244.062 386.507 244.007 386.964 244.007 387.377 244.007 387.715 244.06 387.979 244.166L387.452 246.552 386.529 246.552C386.476 246.183 386.322 245.998 386.068 245.998 385.988 245.998 385.905 246.011 385.817 246.038 385.729 246.064 385.621 246.121 385.494 246.209 385.367 246.297 385.18 246.468 384.934 246.723 384.688 246.978 384.411 247.29 384.103 247.659 383.796 248.028 383.479 248.415 383.154 248.819L382.257 249.94C382.416 250.784 382.565 251.513 382.706 252.128 382.846 252.744 382.972 253.256 383.081 253.664 383.191 254.073 383.288 254.396 383.371 254.633 383.455 254.871 383.545 255.049 383.642 255.167 383.738 255.286 383.837 255.369 383.938 255.418 384.039 255.466 384.156 255.49 384.288 255.49 384.525 255.49 384.756 255.398 384.98 255.213 385.204 255.029 385.527 254.611 385.949 253.961L386.806 254.528C386.191 255.442 385.635 256.086 385.138 256.459 384.641 256.833 384.05 257.02 383.365 257.02 382.987 257.02 382.666 256.951 382.402 256.815 382.139 256.679 381.91 256.461 381.717 256.163 381.524 255.864 381.352 255.398 381.203 254.765 380.93 253.64 380.763 252.779 380.702 252.181L380.57 252.181C379.638 253.491 378.946 254.431 378.494 255.002 378.041 255.574 377.667 255.996 377.373 256.268 377.078 256.541 376.793 256.732 376.516 256.842 376.239 256.951 375.872 257.006 375.415 257.006 375.002 257.006 374.664 256.954 374.4 256.848L374.927 254.462 375.85 254.462C375.903 254.831 376.057 255.016 376.312 255.016 376.435 255.016 376.564 254.983 376.701 254.917 376.837 254.851 377.032 254.693 377.287 254.442 377.542 254.192 377.894 253.798 378.342 253.262 378.79 252.726 379.441 251.922 380.293 250.85 380.161 250.155 380.025 249.487 379.884 248.846 379.744 248.204 379.599 247.606 379.449 247.053 379.3 246.499 379.177 246.137 379.08 245.965 378.984 245.794 378.88 245.675 378.77 245.609 378.661 245.543 378.522 245.51 378.355 245.51 378.171 245.51 378.004 245.552 377.854 245.636 377.705 245.719 377.542 245.864 377.366 246.071 377.191 246.277 376.958 246.6 376.668 247.04L375.811 246.473C376.364 245.638 376.896 245.014 377.406 244.601 377.916 244.188 378.518 243.981 379.212 243.981Z" fill-rule="evenodd"/><text fill="#000000" fill-opacity="0" font-family="Arial,Arial_MSFontService,sans-serif" font-size="13.0386" x="374.4" y="255.39">𝑥</text><path d="M393.849 250.671 394.332 250.671C394.297 251.233 394.28 252.013 394.28 253.009L394.28 260.515C394.28 260.855 394.299 261.111 394.337 261.284 394.375 261.457 394.442 261.597 394.539 261.706 394.636 261.814 394.775 261.899 394.956 261.96 395.138 262.022 395.366 262.069 395.642 262.101 395.917 262.133 396.281 262.155 396.732 262.167L396.732 262.809 390.237 262.809 390.237 262.167C390.887 262.138 391.351 262.098 391.63 262.048 391.908 261.999 392.12 261.924 392.267 261.824 392.413 261.725 392.52 261.584 392.588 261.402 392.655 261.221 392.689 260.925 392.689 260.515L392.689 253.387C392.689 253.152 392.648 252.981 392.566 252.873 392.484 252.764 392.364 252.71 392.205 252.71 392.018 252.71 391.751 252.807 391.406 253 391.06 253.193 390.632 253.46 390.122 253.8L389.736 253.123Z" fill-rule="evenodd"/><text fill="#000000" fill-opacity="0" font-family="Arial,Arial_MSFontService,sans-serif" font-size="12.1377" x="389.736" y="261.291">1</text><path d="M379.212 275.241C379.484 275.241 379.724 275.272 379.931 275.333 380.137 275.395 380.319 275.489 380.478 275.617 380.636 275.744 380.776 275.909 380.9 276.111 381.023 276.313 381.141 276.588 381.255 276.935 381.37 277.282 381.477 277.713 381.578 278.227 381.68 278.741 381.77 279.275 381.849 279.829L381.981 279.829C382.824 278.642 383.464 277.774 383.899 277.225 384.334 276.676 384.701 276.267 385 275.999 385.298 275.731 385.586 275.542 385.863 275.432 386.14 275.322 386.507 275.267 386.964 275.267 387.377 275.267 387.715 275.32 387.979 275.426L387.452 277.812 386.529 277.812C386.476 277.443 386.322 277.258 386.068 277.258 385.988 277.258 385.905 277.271 385.817 277.298 385.729 277.324 385.621 277.381 385.494 277.469 385.367 277.557 385.18 277.728 384.934 277.983 384.688 278.238 384.411 278.55 384.103 278.919 383.796 279.288 383.479 279.675 383.154 280.079L382.257 281.2C382.416 282.044 382.565 282.773 382.706 283.388 382.846 284.004 382.972 284.516 383.081 284.924 383.191 285.333 383.288 285.656 383.371 285.893 383.455 286.131 383.545 286.309 383.642 286.427 383.738 286.546 383.837 286.629 383.938 286.678 384.039 286.726 384.156 286.75 384.288 286.75 384.525 286.75 384.756 286.658 384.98 286.473 385.204 286.289 385.527 285.871 385.949 285.221L386.806 285.788C386.191 286.702 385.635 287.346 385.138 287.719 384.641 288.093 384.05 288.28 383.365 288.28 382.987 288.28 382.666 288.211 382.402 288.075 382.139 287.939 381.91 287.721 381.717 287.423 381.524 287.124 381.352 286.658 381.203 286.025 380.93 284.9 380.763 284.039 380.702 283.441L380.57 283.441C379.638 284.751 378.946 285.691 378.494 286.262 378.041 286.834 377.667 287.256 377.373 287.528 377.078 287.801 376.793 287.992 376.516 288.102 376.239 288.211 375.872 288.266 375.415 288.266 375.002 288.266 374.664 288.214 374.4 288.108L374.927 285.722 375.85 285.722C375.903 286.091 376.057 286.276 376.312 286.276 376.435 286.276 376.564 286.243 376.701 286.177 376.837 286.111 377.032 285.953 377.287 285.702 377.542 285.452 377.894 285.058 378.342 284.522 378.79 283.986 379.441 283.182 380.293 282.11 380.161 281.415 380.025 280.747 379.884 280.106 379.744 279.464 379.599 278.866 379.449 278.313 379.3 277.759 379.177 277.396 379.08 277.225 378.984 277.054 378.88 276.935 378.77 276.869 378.661 276.803 378.522 276.77 378.355 276.77 378.171 276.77 378.004 276.812 377.854 276.896 377.705 276.979 377.542 277.124 377.366 277.331 377.191 277.537 376.958 277.86 376.668 278.3L375.811 277.733C376.364 276.898 376.896 276.274 377.406 275.861 377.916 275.448 378.518 275.241 379.212 275.241Z" fill-rule="evenodd"/><text fill="#000000" fill-opacity="0" font-family="Arial,Arial_MSFontService,sans-serif" font-size="13.0386" x="374.4" y="286.65">𝑥</text><path d="M393.225 281.931C394.315 281.931 395.138 282.17 395.695 282.647 396.251 283.125 396.53 283.818 396.53 284.726 396.53 285.036 396.499 285.322 396.437 285.583 396.376 285.844 396.279 286.101 396.147 286.356 396.015 286.611 395.838 286.885 395.616 287.178 395.393 287.471 395.147 287.768 394.877 288.07 394.608 288.372 394.142 288.874 393.48 289.577 392.366 290.755 391.549 291.783 391.028 292.662L394.341 292.662C394.628 292.662 394.86 292.645 395.035 292.61 395.211 292.574 395.352 292.516 395.457 292.434 395.563 292.352 395.646 292.245 395.708 292.113 395.769 291.981 395.847 291.778 395.941 291.502L396.688 291.502 396.538 294.069 389.305 294.069 389.305 293.647C389.557 293.031 389.897 292.402 390.324 291.757 390.752 291.113 391.359 290.354 392.144 289.481 392.824 288.731 393.313 288.162 393.612 287.776 393.94 287.354 394.184 286.989 394.345 286.681 394.507 286.374 394.622 286.084 394.693 285.811 394.763 285.539 394.798 285.265 394.798 284.99 394.798 284.55 394.728 284.162 394.587 283.825 394.447 283.488 394.231 283.223 393.941 283.03 393.651 282.836 393.286 282.74 392.847 282.74 391.751 282.74 391.013 283.349 390.632 284.568L389.569 284.568 389.569 282.88C390.278 282.546 390.941 282.304 391.559 282.155 392.178 282.006 392.733 281.931 393.225 281.931Z" fill-rule="evenodd"/><text fill="#000000" fill-opacity="0" font-family="Arial,Arial_MSFontService,sans-serif" font-size="12.1377" x="389.305" y="292.551">2</text><path d="M379.212 306.501C379.484 306.501 379.724 306.532 379.931 306.593 380.137 306.655 380.319 306.749 380.478 306.877 380.636 307.004 380.776 307.169 380.9 307.371 381.023 307.573 381.141 307.848 381.255 308.195 381.37 308.542 381.477 308.973 381.578 309.487 381.68 310.001 381.77 310.535 381.849 311.089L381.981 311.089C382.824 309.902 383.464 309.034 383.899 308.485 384.334 307.936 384.701 307.527 385 307.259 385.298 306.991 385.586 306.802 385.863 306.692 386.14 306.582 386.507 306.527 386.964 306.527 387.377 306.527 387.715 306.58 387.979 306.686L387.452 309.072 386.529 309.072C386.476 308.703 386.322 308.518 386.068 308.518 385.988 308.518 385.905 308.531 385.817 308.558 385.729 308.584 385.621 308.641 385.494 308.729 385.367 308.817 385.18 308.988 384.934 309.243 384.688 309.498 384.411 309.81 384.103 310.179 383.796 310.548 383.479 310.935 383.154 311.339L382.257 312.46C382.416 313.304 382.565 314.033 382.706 314.648 382.846 315.264 382.972 315.776 383.081 316.184 383.191 316.593 383.288 316.916 383.371 317.153 383.455 317.391 383.545 317.569 383.642 317.687 383.738 317.806 383.837 317.889 383.938 317.938 384.039 317.986 384.156 318.01 384.288 318.01 384.525 318.01 384.756 317.918 384.98 317.733 385.204 317.549 385.527 317.131 385.949 316.481L386.806 317.048C386.191 317.962 385.635 318.606 385.138 318.979 384.641 319.353 384.05 319.54 383.365 319.54 382.987 319.54 382.666 319.471 382.402 319.335 382.139 319.199 381.91 318.981 381.717 318.683 381.524 318.384 381.352 317.918 381.203 317.285 380.93 316.16 380.763 315.299 380.702 314.701L380.57 314.701C379.638 316.011 378.946 316.951 378.494 317.522 378.041 318.094 377.667 318.516 377.373 318.788 377.078 319.061 376.793 319.252 376.516 319.362 376.239 319.471 375.872 319.526 375.415 319.526 375.002 319.526 374.664 319.474 374.4 319.368L374.927 316.982 375.85 316.982C375.903 317.351 376.057 317.536 376.312 317.536 376.435 317.536 376.564 317.503 376.701 317.437 376.837 317.371 377.032 317.213 377.287 316.962 377.542 316.712 377.894 316.318 378.342 315.782 378.79 315.246 379.441 314.442 380.293 313.37 380.161 312.675 380.025 312.007 379.884 311.366 379.744 310.724 379.599 310.126 379.449 309.573 379.3 309.019 379.177 308.656 379.08 308.485 378.984 308.314 378.88 308.195 378.77 308.129 378.661 308.063 378.522 308.03 378.355 308.03 378.171 308.03 378.004 308.072 377.854 308.156 377.705 308.239 377.542 308.384 377.366 308.591 377.191 308.797 376.958 309.12 376.668 309.56L375.811 308.993C376.364 308.158 376.896 307.534 377.406 307.121 377.916 306.708 378.518 306.501 379.212 306.501Z" fill-rule="evenodd"/><text fill="#000000" fill-opacity="0" font-family="Arial,Arial_MSFontService,sans-serif" font-size="13.0386" x="374.4" y="317.91">𝑥</text><path d="M393.19 313.191C393.852 313.191 394.432 313.293 394.93 313.499 395.428 313.704 395.809 313.998 396.073 314.382 396.336 314.766 396.468 315.224 396.468 315.757 396.468 316.255 396.368 316.693 396.169 317.071 395.97 317.449 395.69 317.779 395.33 318.06 394.97 318.341 394.502 318.617 393.928 318.886L393.928 318.965C394.285 319.03 394.63 319.14 394.961 319.295 395.292 319.45 395.586 319.651 395.844 319.897 396.102 320.143 396.308 320.438 396.464 320.78 396.619 321.123 396.697 321.514 396.697 321.954 396.697 322.633 396.549 323.237 396.253 323.764 395.957 324.292 395.504 324.708 394.895 325.012 394.285 325.317 393.544 325.469 392.671 325.469 392.167 325.469 391.624 325.412 391.041 325.298 390.458 325.184 389.923 325.033 389.437 324.845L389.437 322.982 390.491 322.982C390.697 323.591 390.968 324.034 391.304 324.309 391.641 324.584 392.1 324.722 392.68 324.722 393.442 324.722 394.017 324.514 394.407 324.098 394.797 323.682 394.991 323.067 394.991 322.252 394.991 321.397 394.734 320.744 394.218 320.292 393.702 319.841 392.947 319.616 391.95 319.616L391.159 319.616 391.159 318.842C391.95 318.795 392.617 318.643 393.159 318.385 393.701 318.127 394.104 317.796 394.367 317.392 394.631 316.988 394.763 316.534 394.763 316.03 394.763 315.379 394.59 314.878 394.244 314.527 393.899 314.175 393.395 314 392.733 314 392.182 314 391.734 314.149 391.388 314.448 391.042 314.747 390.787 315.204 390.623 315.819L389.569 315.819 389.569 314.149C390.248 313.827 390.884 313.586 391.476 313.428 392.068 313.27 392.639 313.191 393.19 313.191Z" fill-rule="evenodd"/><text fill="#000000" fill-opacity="0" font-family="Arial,Arial_MSFontService,sans-serif" font-size="12.2783" x="389.437" y="323.934">3</text><text font-family="Calibri,Calibri_MSFontService,sans-serif" font-weight="400" font-size="27" transform="translate(413.862 288)">=</text><path d="M473.029 257.792 479.304 257.792 479.304 302.088 473.029 302.088 473.029 300.941 476.865 300.941 476.865 258.938 473.029 258.938ZM436.188 257.792 442.464 257.792 442.464 258.938 438.627 258.938 438.627 300.941 442.464 300.941 442.464 302.088 436.188 302.088Z" fill-rule="evenodd"/><text font-family="Cambria Math,Cambria Math_MSFontService,sans-serif" font-weight="400" font-size="27" transform="translate(442.936 271)">𝑤<tspan font-size="18" x="19.6667" y="6">1</tspan><tspan font-size="27" x="0" y="31">𝑤</tspan><tspan font-size="18" x="19.6667" y="37">2</tspan></text><path d="M320.951 253.233 327.583 253.233 327.583 306.943 320.951 306.943 320.951 305.73 324.999 305.73 324.999 254.446 320.951 254.446ZM213.211 253.233 219.842 253.233 219.842 254.446 215.795 254.446 215.795 305.73 219.842 305.73 219.842 306.943 213.211 306.943Z" fill-rule="evenodd"/><text font-family="Cambria Math,Cambria Math_MSFontService,sans-serif" font-weight="400" font-size="27" transform="translate(220.738 271)">𝑎<tspan font-size="27" x="42.5867" y="0">𝑏</tspan><tspan font-size="27" x="85.3067" y="0">𝑐</tspan><tspan font-size="27" x="-0.426666" y="31">𝑑</tspan><tspan font-size="27" x="43.1667" y="31">𝑒</tspan><tspan font-size="27" x="84.1734" y="31">𝑓</tspan><tspan font-size="27" x="115.727" y="17">×</tspan><tspan font-family="Calibri,Calibri_MSFontService,sans-serif" font-size="21" x="24.0244" y="86">m</tspan><tspan font-size="21" x="41.0244" y="86"> </tspan><tspan font-size="21" x="45.691" y="86">×</tspan><tspan font-family="Calibri,Calibri_MSFontService,sans-serif" font-size="21" x="65.691" y="86">n </tspan><tspan font-family="Calibri,Calibri_MSFontService,sans-serif" font-size="21" x="142.454" y="86">n</tspan><tspan font-size="21" x="153.621" y="86"> </tspan><tspan font-size="21" x="158.288" y="86">×</tspan><tspan font-family="Calibri,Calibri_MSFontService,sans-serif" font-size="21" x="178.288" y="86">1 </tspan><tspan font-family="Calibri,Calibri_MSFontService,sans-serif" font-size="21" x="212.115" y="86">m</tspan><tspan font-size="21" x="229.115" y="86"> </tspan><tspan font-size="21" x="233.782" y="86">×</tspan><tspan font-family="Calibri,Calibri_MSFontService,sans-serif" font-size="21" x="253.782" y="86">1 </tspan><tspan font-family="Calibri,Calibri_MSFontService,sans-serif" font-size="43" x="32.2079" y="-86">T: </tspan><tspan font-family="Cambria,Cambria_MSFontService,sans-serif" font-size="43" x="71.4145" y="-86">R</tspan><tspan font-family="Cambria,Cambria_MSFontService,sans-serif" font-size="28" x="97.9145" y="-99">n</tspan><tspan font-size="43" x="123.415" y="-86">→</tspan><tspan font-family="Cambria,Cambria_MSFontService,sans-serif" font-size="43" x="168.915" y="-86">R</tspan><tspan font-family="Cambria,Cambria_MSFontService,sans-serif" font-size="28" x="195.415" y="-99">m</tspan></text><path d="M899 242.343C899 238.288 902.288 235 906.343 235L948.657 235C952.712 235 956 238.288 956 242.343L956 322.657C956 326.712 952.712 330 948.657 330L906.343 330C902.288 330 899 326.712 899 322.657Z" fill="#DAE3F3" fill-rule="evenodd"/><path d="M870.851 241.976 878.023 241.976 878.023 322.053 870.851 322.053 870.851 320.761 875.307 320.761 875.307 243.268 870.851 243.268ZM838.623 241.976 845.795 241.976 845.795 243.268 841.339 243.268 841.339 320.761 845.795 320.761 845.795 322.053 838.623 322.053Z" fill-rule="evenodd"/><path d="M851.465 244.246C851.737 244.246 851.977 244.277 852.184 244.338 852.39 244.4 852.572 244.494 852.731 244.622 852.889 244.749 853.029 244.914 853.153 245.116 853.276 245.318 853.394 245.593 853.508 245.94 853.623 246.287 853.73 246.718 853.831 247.232 853.933 247.746 854.023 248.28 854.102 248.834L854.234 248.834C855.077 247.648 855.717 246.78 856.152 246.23 856.587 245.681 856.954 245.272 857.253 245.004 857.551 244.736 857.839 244.547 858.116 244.437 858.393 244.327 858.76 244.273 859.217 244.273 859.63 244.273 859.968 244.325 860.232 244.431L859.705 246.817 858.782 246.817C858.729 246.448 858.575 246.263 858.32 246.263 858.241 246.263 858.158 246.276 858.07 246.303 857.982 246.329 857.874 246.386 857.747 246.474 857.62 246.562 857.433 246.733 857.187 246.988 856.941 247.243 856.664 247.555 856.356 247.924 856.049 248.294 855.732 248.68 855.407 249.085L854.51 250.205C854.669 251.049 854.818 251.778 854.959 252.394 855.099 253.009 855.225 253.521 855.334 253.93 855.444 254.338 855.541 254.661 855.624 254.898 855.708 255.136 855.798 255.314 855.895 255.432 855.991 255.551 856.09 255.635 856.191 255.683 856.292 255.731 856.409 255.755 856.541 255.755 856.778 255.755 857.009 255.663 857.233 255.479 857.457 255.294 857.78 254.877 858.202 254.226L859.059 254.793C858.444 255.707 857.888 256.351 857.391 256.724 856.894 257.098 856.303 257.285 855.618 257.285 855.24 257.285 854.919 257.217 854.655 257.08 854.392 256.944 854.163 256.727 853.97 256.428 853.777 256.129 853.605 255.663 853.456 255.03 853.183 253.905 853.016 253.044 852.955 252.446L852.823 252.446C851.891 253.756 851.199 254.696 850.747 255.268 850.294 255.839 849.92 256.261 849.626 256.533 849.331 256.806 849.046 256.997 848.769 257.107 848.492 257.217 848.125 257.272 847.668 257.272 847.255 257.272 846.917 257.219 846.653 257.113L847.18 254.727 848.103 254.727C848.156 255.096 848.31 255.281 848.565 255.281 848.688 255.281 848.817 255.248 848.954 255.182 849.09 255.116 849.285 254.958 849.54 254.707 849.795 254.457 850.147 254.064 850.595 253.527 851.043 252.991 851.694 252.187 852.546 251.115 852.414 250.42 852.278 249.753 852.137 249.111 851.997 248.469 851.852 247.872 851.702 247.318 851.553 246.764 851.43 246.402 851.333 246.23 851.237 246.059 851.133 245.94 851.023 245.874 850.914 245.808 850.775 245.775 850.608 245.775 850.424 245.775 850.257 245.817 850.107 245.901 849.958 245.984 849.795 246.129 849.619 246.336 849.444 246.542 849.211 246.865 848.921 247.305L848.064 246.738C848.617 245.903 849.149 245.279 849.659 244.866 850.169 244.453 850.771 244.246 851.465 244.246Z" fill-rule="evenodd"/><text fill="#000000" fill-opacity="0" font-family="Arial,Arial_MSFontService,sans-serif" font-size="13.0386" x="846.653" y="255.655">𝑥</text><path d="M866.102 250.936 866.585 250.936C866.55 251.499 866.533 252.278 866.533 253.274L866.533 260.78C866.533 261.12 866.552 261.376 866.59 261.549 866.628 261.722 866.695 261.862 866.792 261.971 866.889 262.079 867.028 262.164 867.209 262.226 867.391 262.287 867.62 262.334 867.895 262.366 868.17 262.398 868.534 262.42 868.985 262.432L868.985 263.074 862.49 263.074 862.49 262.432C863.14 262.403 863.604 262.363 863.883 262.314 864.161 262.264 864.373 262.189 864.52 262.089 864.666 261.99 864.773 261.849 864.841 261.668 864.908 261.486 864.942 261.19 864.942 260.78L864.942 253.652C864.942 253.418 864.901 253.246 864.819 253.138 864.737 253.029 864.617 252.975 864.458 252.975 864.271 252.975 864.004 253.072 863.659 253.265 863.313 253.459 862.885 253.725 862.375 254.065L861.989 253.388Z" fill-rule="evenodd"/><text fill="#000000" fill-opacity="0" font-family="Arial,Arial_MSFontService,sans-serif" font-size="12.1377" x="861.989" y="261.557">1</text><path d="M851.465 275.506C851.737 275.506 851.977 275.537 852.184 275.598 852.39 275.66 852.572 275.754 852.731 275.882 852.889 276.009 853.029 276.174 853.153 276.376 853.276 276.578 853.394 276.853 853.508 277.2 853.623 277.547 853.73 277.978 853.831 278.492 853.933 279.006 854.023 279.54 854.102 280.094L854.234 280.094C855.077 278.908 855.717 278.04 856.152 277.49 856.587 276.941 856.954 276.532 857.253 276.264 857.551 275.996 857.839 275.807 858.116 275.697 858.393 275.587 858.76 275.533 859.217 275.533 859.63 275.533 859.968 275.585 860.232 275.691L859.705 278.077 858.782 278.077C858.729 277.708 858.575 277.523 858.32 277.523 858.241 277.523 858.158 277.536 858.07 277.563 857.982 277.589 857.874 277.646 857.747 277.734 857.62 277.822 857.433 277.993 857.187 278.248 856.941 278.503 856.664 278.815 856.356 279.184 856.049 279.554 855.732 279.94 855.407 280.345L854.51 281.465C854.669 282.309 854.818 283.038 854.959 283.654 855.099 284.269 855.225 284.781 855.334 285.19 855.444 285.598 855.541 285.921 855.624 286.159 855.708 286.396 855.798 286.574 855.895 286.692 855.991 286.811 856.09 286.895 856.191 286.943 856.292 286.991 856.409 287.015 856.541 287.015 856.778 287.015 857.009 286.923 857.233 286.739 857.457 286.554 857.78 286.137 858.202 285.486L859.059 286.053C858.444 286.967 857.888 287.611 857.391 287.984 856.894 288.358 856.303 288.545 855.618 288.545 855.24 288.545 854.919 288.477 854.655 288.34 854.392 288.204 854.163 287.987 853.97 287.688 853.777 287.389 853.605 286.923 853.456 286.29 853.183 285.165 853.016 284.304 852.955 283.706L852.823 283.706C851.891 285.016 851.199 285.956 850.747 286.528 850.294 287.099 849.92 287.521 849.626 287.793 849.331 288.066 849.046 288.257 848.769 288.367 848.492 288.477 848.125 288.532 847.668 288.532 847.255 288.532 846.917 288.479 846.653 288.373L847.18 285.987 848.103 285.987C848.156 286.356 848.31 286.541 848.565 286.541 848.688 286.541 848.817 286.508 848.954 286.442 849.09 286.376 849.285 286.218 849.54 285.967 849.795 285.717 850.147 285.324 850.595 284.787 851.043 284.251 851.694 283.447 852.546 282.375 852.414 281.68 852.278 281.013 852.137 280.371 851.997 279.729 851.852 279.132 851.702 278.578 851.553 278.024 851.43 277.662 851.333 277.49 851.237 277.319 851.133 277.2 851.023 277.134 850.914 277.068 850.775 277.035 850.608 277.035 850.424 277.035 850.257 277.077 850.107 277.161 849.958 277.244 849.795 277.389 849.619 277.596 849.444 277.802 849.211 278.125 848.921 278.565L848.064 277.998C848.617 277.163 849.149 276.539 849.659 276.126 850.169 275.713 850.771 275.506 851.465 275.506Z" fill-rule="evenodd"/><text fill="#000000" fill-opacity="0" font-family="Arial,Arial_MSFontService,sans-serif" font-size="13.0386" x="846.653" y="286.915">𝑥</text><path d="M865.478 282.196C866.568 282.196 867.391 282.435 867.948 282.912 868.504 283.39 868.783 284.083 868.783 284.991 868.783 285.302 868.752 285.587 868.69 285.848 868.629 286.109 868.532 286.367 868.4 286.621 868.268 286.876 868.091 287.15 867.869 287.443 867.646 287.736 867.4 288.034 867.13 288.335 866.861 288.637 866.395 289.139 865.733 289.843 864.62 291.02 863.802 292.049 863.281 292.928L866.594 292.928C866.881 292.928 867.113 292.91 867.288 292.875 867.464 292.84 867.605 292.781 867.71 292.699 867.816 292.617 867.899 292.51 867.961 292.378 868.022 292.246 868.1 292.043 868.194 291.767L868.941 291.767 868.791 294.334 861.558 294.334 861.558 293.912C861.81 293.297 862.15 292.667 862.578 292.022 863.005 291.378 863.612 290.619 864.397 289.746 865.077 288.996 865.566 288.428 865.865 288.041 866.193 287.619 866.437 287.254 866.599 286.947 866.76 286.639 866.875 286.349 866.946 286.076 867.016 285.804 867.051 285.53 867.051 285.255 867.051 284.815 866.981 284.427 866.84 284.09 866.7 283.753 866.484 283.488 866.194 283.295 865.904 283.101 865.539 283.005 865.1 283.005 864.004 283.005 863.266 283.614 862.885 284.833L861.822 284.833 861.822 283.145C862.531 282.811 863.194 282.57 863.812 282.42 864.431 282.271 864.986 282.196 865.478 282.196Z" fill-rule="evenodd"/><text fill="#000000" fill-opacity="0" font-family="Arial,Arial_MSFontService,sans-serif" font-size="12.1377" x="861.558" y="292.817">2</text><path d="M851.465 306.766C851.737 306.766 851.977 306.797 852.184 306.858 852.39 306.92 852.572 307.014 852.731 307.142 852.889 307.269 853.029 307.434 853.153 307.636 853.276 307.838 853.394 308.113 853.508 308.46 853.623 308.807 853.73 309.238 853.831 309.752 853.933 310.266 854.023 310.8 854.102 311.354L854.234 311.354C855.077 310.168 855.717 309.3 856.152 308.75 856.587 308.201 856.954 307.792 857.253 307.524 857.551 307.256 857.839 307.067 858.116 306.957 858.393 306.847 858.76 306.793 859.217 306.793 859.63 306.793 859.968 306.845 860.232 306.951L859.705 309.337 858.782 309.337C858.729 308.968 858.575 308.783 858.32 308.783 858.241 308.783 858.158 308.796 858.07 308.823 857.982 308.849 857.874 308.906 857.747 308.994 857.62 309.082 857.433 309.253 857.187 309.508 856.941 309.763 856.664 310.075 856.356 310.444 856.049 310.814 855.732 311.2 855.407 311.605L854.51 312.725C854.669 313.569 854.818 314.298 854.959 314.914 855.099 315.529 855.225 316.041 855.334 316.45 855.444 316.858 855.541 317.181 855.624 317.419 855.708 317.656 855.798 317.834 855.895 317.952 855.991 318.071 856.09 318.155 856.191 318.203 856.292 318.251 856.409 318.275 856.541 318.275 856.778 318.275 857.009 318.183 857.233 317.999 857.457 317.814 857.78 317.397 858.202 316.746L859.059 317.313C858.444 318.227 857.888 318.871 857.391 319.244 856.894 319.618 856.303 319.805 855.618 319.805 855.24 319.805 854.919 319.737 854.655 319.6 854.392 319.464 854.163 319.247 853.97 318.948 853.777 318.649 853.605 318.183 853.456 317.55 853.183 316.425 853.016 315.564 852.955 314.966L852.823 314.966C851.891 316.276 851.199 317.216 850.747 317.788 850.294 318.359 849.92 318.781 849.626 319.053 849.331 319.326 849.046 319.517 848.769 319.627 848.492 319.737 848.125 319.792 847.668 319.792 847.255 319.792 846.917 319.739 846.653 319.633L847.18 317.247 848.103 317.247C848.156 317.616 848.31 317.801 848.565 317.801 848.688 317.801 848.817 317.768 848.954 317.702 849.09 317.636 849.285 317.478 849.54 317.227 849.795 316.977 850.147 316.584 850.595 316.047 851.043 315.511 851.694 314.707 852.546 313.635 852.414 312.94 852.278 312.273 852.137 311.631 851.997 310.989 851.852 310.392 851.702 309.838 851.553 309.284 851.43 308.922 851.333 308.75 851.237 308.579 851.133 308.46 851.023 308.394 850.914 308.328 850.775 308.295 850.608 308.295 850.424 308.295 850.257 308.337 850.107 308.421 849.958 308.504 849.795 308.649 849.619 308.856 849.444 309.062 849.211 309.385 848.921 309.825L848.064 309.258C848.617 308.423 849.149 307.799 849.659 307.386 850.169 306.973 850.771 306.766 851.465 306.766Z" fill-rule="evenodd"/><text fill="#000000" fill-opacity="0" font-family="Arial,Arial_MSFontService,sans-serif" font-size="13.0386" x="846.653" y="318.175">𝑥</text><path d="M865.443 313.456C866.105 313.456 866.685 313.559 867.183 313.764 867.681 313.969 868.062 314.263 868.326 314.647 868.589 315.031 868.721 315.489 868.721 316.023 868.721 316.521 868.621 316.959 868.422 317.336 868.223 317.714 867.943 318.044 867.583 318.325 867.223 318.607 866.755 318.882 866.181 319.151L866.181 319.231C866.538 319.295 866.883 319.405 867.214 319.56 867.545 319.715 867.839 319.916 868.097 320.162 868.355 320.408 868.561 320.703 868.717 321.045 868.872 321.388 868.95 321.779 868.95 322.219 868.95 322.898 868.802 323.502 868.506 324.029 868.21 324.557 867.757 324.973 867.148 325.277 866.538 325.582 865.797 325.734 864.924 325.734 864.42 325.734 863.877 325.677 863.294 325.563 862.711 325.449 862.176 325.298 861.69 325.11L861.69 323.247 862.745 323.247C862.95 323.857 863.221 324.299 863.557 324.574 863.894 324.85 864.353 324.987 864.933 324.987 865.695 324.987 866.27 324.779 866.66 324.363 867.05 323.947 867.245 323.332 867.245 322.518 867.245 321.662 866.987 321.009 866.471 320.558 865.955 320.107 865.2 319.881 864.203 319.881L863.412 319.881 863.412 319.107C864.203 319.061 864.87 318.908 865.412 318.65 865.954 318.393 866.357 318.062 866.62 317.657 866.884 317.253 867.016 316.799 867.016 316.295 867.016 315.645 866.843 315.144 866.497 314.792 866.152 314.44 865.648 314.265 864.986 314.265 864.435 314.265 863.987 314.414 863.641 314.713 863.295 315.012 863.04 315.469 862.876 316.084L861.822 316.084 861.822 314.414C862.501 314.092 863.137 313.852 863.729 313.693 864.321 313.535 864.892 313.456 865.443 313.456Z" fill-rule="evenodd"/><text fill="#000000" fill-opacity="0" font-family="Arial,Arial_MSFontService,sans-serif" font-size="12.2783" x="861.69" y="324.2">3</text><text font-family="Calibri,Calibri_MSFontService,sans-serif" font-weight="400" font-size="27" transform="translate(883.957 291)">=</text><path d="M944.023 243.024 951.195 243.024 951.195 323.101 944.023 323.101 944.023 321.809 948.479 321.809 948.479 244.316 944.023 244.316ZM906.296 243.024 913.468 243.024 913.468 244.316 909.012 244.316 909.012 321.809 913.468 321.809 913.468 323.101 906.296 323.101Z" fill-rule="evenodd"/><path d="M914.8 245.412 918.254 245.412 919.045 255.814C920.285 253.792 921.179 252.254 921.728 251.199 922.277 250.145 922.684 249.233 922.948 248.464 923.211 247.695 923.413 246.893 923.554 246.058L923.699 245.412 925.598 245.412 926.56 255.827C927.931 253.876 928.975 252.173 929.691 250.718 930.407 249.264 930.766 248.079 930.766 247.165 930.766 246.752 930.678 246.471 930.502 246.321 930.326 246.172 930.027 246.084 929.605 246.058L929.737 245.412 933.139 245.412 933.495 246.071C933.187 246.853 932.941 247.455 932.756 247.877 932.572 248.299 932.33 248.806 932.031 249.4 931.732 249.993 931.416 250.584 931.082 251.173 930.748 251.762 930.355 252.41 929.902 253.118 929.449 253.825 928.942 254.594 928.379 255.425 927.817 256.255 927.153 257.189 926.389 258.226L924.82 258.226 924.279 252.715C924.235 252.285 924.189 251.722 924.141 251.028 924.092 250.334 924.059 249.797 924.042 249.42L923.897 249.406C923.422 250.575 922.776 251.876 921.959 253.309 921.141 254.741 920.131 256.38 918.927 258.226L917.16 258.226 916.158 248.299C916.105 247.789 916.039 247.376 915.96 247.06 915.881 246.743 915.749 246.506 915.565 246.348 915.38 246.19 915.077 246.093 914.655 246.058Z" fill-rule="evenodd"/><text fill="#000000" fill-opacity="0" font-family="Arial,Arial_MSFontService,sans-serif" font-size="12.8145" x="914.655" y="256.624">𝑤</text><path d="M939.274 251.878 939.758 251.878C939.723 252.44 939.705 253.219 939.705 254.215L939.705 261.721C939.705 262.061 939.724 262.317 939.762 262.49 939.8 262.663 939.868 262.804 939.964 262.912 940.061 263.021 940.2 263.106 940.382 263.167 940.564 263.229 940.792 263.275 941.067 263.308 941.343 263.34 941.706 263.362 942.157 263.374L942.157 264.015 935.662 264.015 935.662 263.374C936.313 263.344 936.777 263.305 937.055 263.255 937.334 263.205 937.546 263.13 937.692 263.031 937.839 262.931 937.946 262.791 938.013 262.609 938.081 262.427 938.114 262.131 938.114 261.721L938.114 254.593C938.114 254.359 938.073 254.188 937.991 254.079 937.909 253.971 937.789 253.917 937.631 253.917 937.443 253.917 937.177 254.013 936.831 254.207 936.485 254.4 936.058 254.667 935.548 255.006L935.161 254.33Z" fill-rule="evenodd"/><text fill="#000000" fill-opacity="0" font-family="Arial,Arial_MSFontService,sans-serif" font-size="12.1377" x="935.161" y="262.498">1</text><path d="M914.8 276.672 918.254 276.672 919.045 287.074C920.285 285.052 921.179 283.514 921.728 282.459 922.277 281.405 922.684 280.493 922.948 279.724 923.211 278.955 923.413 278.153 923.554 277.318L923.699 276.672 925.598 276.672 926.56 287.087C927.931 285.136 928.975 283.433 929.691 281.978 930.407 280.524 930.766 279.339 930.766 278.425 930.766 278.012 930.678 277.731 930.502 277.581 930.326 277.432 930.027 277.344 929.605 277.318L929.737 276.672 933.139 276.672 933.495 277.331C933.187 278.113 932.941 278.715 932.756 279.137 932.572 279.559 932.33 280.066 932.031 280.66 931.732 281.253 931.416 281.844 931.082 282.433 930.748 283.022 930.355 283.67 929.902 284.378 929.449 285.085 928.942 285.854 928.379 286.685 927.817 287.515 927.153 288.449 926.389 289.486L924.82 289.486 924.279 283.975C924.235 283.545 924.189 282.982 924.141 282.288 924.092 281.594 924.059 281.057 924.042 280.68L923.897 280.666C923.422 281.835 922.776 283.136 921.959 284.569 921.141 286.001 920.131 287.64 918.927 289.486L917.16 289.486 916.158 279.559C916.105 279.049 916.039 278.636 915.96 278.32 915.881 278.003 915.749 277.766 915.565 277.608 915.38 277.45 915.077 277.353 914.655 277.318Z" fill-rule="evenodd"/><text fill="#000000" fill-opacity="0" font-family="Arial,Arial_MSFontService,sans-serif" font-size="12.8145" x="914.655" y="287.884">𝑤</text><path d="M938.65 283.138C939.74 283.138 940.564 283.376 941.12 283.854 941.677 284.331 941.955 285.024 941.955 285.932 941.955 286.243 941.924 286.529 941.863 286.789 941.801 287.05 941.705 287.308 941.573 287.563 941.441 287.818 941.264 288.092 941.041 288.385 940.818 288.678 940.572 288.975 940.303 289.277 940.033 289.578 939.567 290.081 938.905 290.784 937.792 291.962 936.975 292.99 936.453 293.869L939.767 293.869C940.054 293.869 940.285 293.851 940.461 293.816 940.637 293.781 940.777 293.723 940.883 293.64 940.988 293.558 941.072 293.452 941.133 293.32 941.195 293.188 941.273 292.984 941.366 292.709L942.113 292.709 941.964 295.275 934.731 295.275 934.731 294.853C934.982 294.238 935.322 293.608 935.75 292.964 936.178 292.319 936.784 291.56 937.569 290.687 938.249 289.937 938.738 289.369 939.037 288.982 939.365 288.56 939.61 288.196 939.771 287.888 939.932 287.58 940.048 287.29 940.118 287.018 940.189 286.745 940.224 286.472 940.224 286.196 940.224 285.757 940.153 285.368 940.013 285.032 939.872 284.695 939.657 284.43 939.367 284.236 939.077 284.043 938.712 283.946 938.273 283.946 937.177 283.946 936.439 284.556 936.058 285.774L934.994 285.774 934.994 284.087C935.703 283.753 936.367 283.511 936.985 283.362 937.603 283.212 938.158 283.138 938.65 283.138Z" fill-rule="evenodd"/><text fill="#000000" fill-opacity="0" font-family="Arial,Arial_MSFontService,sans-serif" font-size="12.1377" x="934.731" y="293.758">2</text><path d="M914.8 307.932 918.254 307.932 919.045 318.334C920.285 316.312 921.179 314.774 921.728 313.719 922.277 312.665 922.684 311.753 922.948 310.984 923.211 310.215 923.413 309.413 923.554 308.578L923.699 307.932 925.598 307.932 926.56 318.347C927.931 316.396 928.975 314.693 929.691 313.238 930.407 311.784 930.766 310.599 930.766 309.685 930.766 309.272 930.678 308.991 930.502 308.841 930.326 308.692 930.027 308.604 929.605 308.578L929.737 307.932 933.139 307.932 933.495 308.591C933.187 309.373 932.941 309.975 932.756 310.397 932.572 310.819 932.33 311.326 932.031 311.92 931.732 312.513 931.416 313.104 931.082 313.693 930.748 314.282 930.355 314.93 929.902 315.638 929.449 316.345 928.942 317.114 928.379 317.945 927.817 318.775 927.153 319.709 926.389 320.746L924.82 320.746 924.279 315.235C924.235 314.805 924.189 314.242 924.141 313.548 924.092 312.854 924.059 312.317 924.042 311.94L923.897 311.926C923.422 313.095 922.776 314.396 921.959 315.829 921.141 317.261 920.131 318.9 918.927 320.746L917.16 320.746 916.158 310.819C916.105 310.309 916.039 309.896 915.96 309.58 915.881 309.263 915.749 309.026 915.565 308.868 915.38 308.71 915.077 308.613 914.655 308.578Z" fill-rule="evenodd"/><text fill="#000000" fill-opacity="0" font-family="Arial,Arial_MSFontService,sans-serif" font-size="12.8145" x="914.655" y="319.144">𝑤</text><path d="M938.615 314.398C939.277 314.398 939.857 314.5 940.356 314.705 940.854 314.91 941.234 315.205 941.498 315.588 941.762 315.972 941.894 316.431 941.894 316.964 941.894 317.462 941.794 317.9 941.595 318.278 941.396 318.656 941.116 318.985 940.755 319.267 940.395 319.548 939.928 319.823 939.354 320.093L939.354 320.172C939.711 320.236 940.055 320.346 940.386 320.502 940.717 320.657 941.012 320.857 941.27 321.104 941.527 321.35 941.734 321.644 941.889 321.987 942.044 322.33 942.122 322.721 942.122 323.16 942.122 323.84 941.974 324.443 941.678 324.971 941.382 325.498 940.93 325.914 940.32 326.219 939.711 326.523 938.97 326.676 938.097 326.676 937.593 326.676 937.049 326.619 936.466 326.504 935.883 326.39 935.349 326.239 934.862 326.052L934.862 324.189 935.917 324.189C936.122 324.798 936.393 325.24 936.73 325.516 937.067 325.791 937.525 325.929 938.106 325.929 938.867 325.929 939.443 325.721 939.833 325.305 940.222 324.889 940.417 324.273 940.417 323.459 940.417 322.604 940.159 321.95 939.644 321.499 939.128 321.048 938.372 320.822 937.376 320.822L936.585 320.822 936.585 320.049C937.376 320.002 938.043 319.85 938.585 319.592 939.127 319.334 939.529 319.003 939.793 318.599 940.057 318.194 940.189 317.74 940.189 317.236 940.189 316.586 940.016 316.085 939.67 315.733 939.324 315.382 938.82 315.206 938.158 315.206 937.607 315.206 937.159 315.356 936.814 315.654 936.468 315.953 936.213 316.41 936.049 317.025L934.994 317.025 934.994 315.356C935.674 315.033 936.31 314.793 936.901 314.635 937.493 314.477 938.065 314.398 938.615 314.398Z" fill-rule="evenodd"/><text fill="#000000" fill-opacity="0" font-family="Arial,Arial_MSFontService,sans-serif" font-size="12.2783" x="934.862" y="325.141">3</text><path d="M794.249 233.104 801.684 233.104 801.684 332.126 794.249 332.126 794.249 330.689 798.942 330.689 798.942 234.515 794.249 234.515ZM684.908 233.104 692.344 233.104 692.344 234.515 687.65 234.515 687.65 330.689 692.344 330.689 692.344 332.126 684.908 332.126Z" fill-rule="evenodd"/><path d="M701.899 245.221C700.994 245.221 700.181 245.586 699.46 246.315 698.74 247.045 698.177 248.023 697.773 249.249 697.369 250.475 697.167 251.699 697.167 252.92 697.167 253.835 697.292 254.518 697.542 254.97 697.793 255.423 698.212 255.649 698.801 255.649 699.381 255.649 699.95 255.399 700.509 254.898 701.067 254.397 701.642 253.683 702.236 252.756 702.829 251.828 703.249 250.758 703.495 249.545L703.613 248.979C703.692 248.618 703.745 248.306 703.771 248.043 703.798 247.779 703.811 247.493 703.811 247.186 703.811 246.509 703.666 246.012 703.376 245.696 703.086 245.379 702.594 245.221 701.899 245.221ZM701.636 244.18C702.207 244.18 702.741 244.243 703.238 244.371 703.734 244.498 704.246 244.725 704.773 245.05L705.986 244.18 706.83 244.391 704.892 252.749C704.699 253.584 704.602 254.234 704.602 254.7 704.602 255.052 704.659 255.307 704.773 255.465 704.888 255.623 705.068 255.702 705.314 255.702 705.578 255.702 705.859 255.595 706.158 255.379 706.457 255.164 706.878 254.753 707.423 254.147L708.175 254.885C707.384 255.729 706.709 256.328 706.151 256.684 705.593 257.04 704.989 257.218 704.338 257.218 703.793 257.218 703.358 257.038 703.033 256.678 702.708 256.317 702.545 255.838 702.545 255.241 702.545 254.757 702.646 254.243 702.849 253.698L702.677 253.646C701.833 254.876 701.034 255.777 700.278 256.348 699.522 256.919 698.722 257.205 697.878 257.205 696.912 257.205 696.162 256.84 695.631 256.111 695.099 255.381 694.833 254.357 694.833 253.039 694.833 251.527 695.13 250.075 695.723 248.682 696.316 247.289 697.131 246.19 698.168 245.386 699.206 244.582 700.361 244.18 701.636 244.18Z" fill-rule="evenodd"/><text fill="#000000" fill-opacity="0" font-family="Arial,Arial_MSFontService,sans-serif" font-size="13.0386" x="694.833" y="255.588">𝑎</text><path d="M745.624 245.735C745.202 245.735 744.787 245.869 744.378 246.137 743.97 246.406 743.515 246.849 743.014 247.469 742.513 248.089 742.104 248.724 741.788 249.374 741.471 250.024 741.203 250.855 740.984 251.866L740.865 252.419C740.733 253.035 740.667 253.632 740.667 254.212 740.667 254.907 740.819 255.408 741.122 255.715 741.425 256.023 741.929 256.177 742.632 256.177 742.992 256.177 743.335 256.117 743.66 255.999 743.985 255.88 744.317 255.685 744.655 255.412 744.994 255.14 745.315 254.782 745.618 254.338 745.921 253.894 746.2 253.347 746.455 252.696 746.71 252.046 746.908 251.349 747.048 250.607 747.189 249.864 747.259 249.154 747.259 248.478 747.259 247.564 747.129 246.878 746.87 246.421 746.611 245.964 746.196 245.735 745.624 245.735ZM743.317 238.155 744.082 238.155 741.762 247.383 741.933 247.436C742.785 246.293 743.585 245.467 744.332 244.958 745.079 244.448 745.826 244.193 746.574 244.193 747.532 244.193 748.276 244.558 748.808 245.287 749.34 246.017 749.606 247.045 749.606 248.372 749.606 249.822 749.314 251.248 748.729 252.65 748.145 254.052 747.334 255.164 746.297 255.986 745.26 256.807 744.099 257.218 742.816 257.218 741.647 257.218 740.61 256.933 739.705 256.361L738.492 257.218 737.648 257.007 741.063 241.939C741.265 241.042 741.366 240.392 741.366 239.987 741.366 239.618 741.254 239.359 741.03 239.21 740.806 239.06 740.404 238.977 739.824 238.959L739.982 238.273Z" fill-rule="evenodd"/><text fill="#000000" fill-opacity="0" font-family="Arial,Arial_MSFontService,sans-serif" font-size="19.0635" x="737.648" y="254.835">𝑏</text><path d="M788.07 244.193C789.239 244.193 790.315 244.325 791.3 244.588L790.654 247.568 789.269 247.568C789.252 246.9 789.197 246.417 789.104 246.118 789.012 245.819 788.863 245.595 788.656 245.445 788.45 245.296 788.157 245.221 787.78 245.221 786.892 245.221 786.094 245.575 785.387 246.283 784.679 246.99 784.101 247.992 783.653 249.288 783.205 250.585 782.981 251.831 782.981 253.026 782.981 253.922 783.156 254.588 783.508 255.023 783.86 255.458 784.387 255.676 785.09 255.676 785.89 255.676 786.582 255.524 787.167 255.221 787.751 254.918 788.368 254.441 789.019 253.791L789.823 254.595C788.997 255.509 788.164 256.177 787.325 256.599 786.485 257.021 785.582 257.231 784.615 257.231 783.341 257.231 782.374 256.854 781.715 256.098 781.056 255.342 780.726 254.243 780.726 252.802 780.726 251.861 780.902 250.829 781.254 249.704 781.605 248.579 782.119 247.59 782.796 246.737 783.473 245.885 784.264 245.248 785.169 244.826 786.074 244.404 787.041 244.193 788.07 244.193Z" fill-rule="evenodd"/><text fill="#000000" fill-opacity="0" font-family="Arial,Arial_MSFontService,sans-serif" font-size="13.0386" x="780.726" y="255.602">𝑐</text><path d="M701.446 276.481C700.55 276.481 699.746 276.844 699.034 277.569 698.322 278.294 697.762 279.272 697.353 280.502 696.944 281.733 696.74 282.959 696.74 284.18 696.74 285.095 696.865 285.778 697.116 286.23 697.366 286.683 697.786 286.909 698.375 286.909 698.647 286.909 698.924 286.85 699.205 286.731 699.486 286.613 699.779 286.422 700.082 286.158 700.385 285.894 700.684 285.574 700.978 285.196 701.273 284.818 701.543 284.438 701.789 284.055 702.035 283.673 702.264 283.22 702.475 282.697 702.686 282.174 702.866 281.544 703.015 280.805L703.134 280.239C703.266 279.606 703.332 279.008 703.332 278.446 703.332 277.76 703.187 277.261 702.897 276.949 702.607 276.637 702.123 276.481 701.446 276.481ZM706.97 269.415 707.748 269.415 704.465 284.009C704.272 284.87 704.175 285.521 704.175 285.96 704.175 286.312 704.232 286.567 704.347 286.725 704.461 286.883 704.641 286.962 704.887 286.962 705.151 286.962 705.432 286.855 705.731 286.639 706.03 286.424 706.452 286.013 706.997 285.407L707.748 286.145C706.94 286.997 706.258 287.599 705.705 287.951 705.151 288.303 704.553 288.478 703.912 288.478 703.367 288.478 702.932 288.298 702.607 287.938 702.281 287.577 702.119 287.098 702.119 286.501 702.119 286.017 702.22 285.503 702.422 284.958L702.251 284.906C701.407 286.136 700.607 287.037 699.851 287.608 699.095 288.179 698.295 288.465 697.452 288.465 696.485 288.465 695.736 288.1 695.204 287.371 694.672 286.641 694.406 285.617 694.406 284.299 694.406 282.787 694.703 281.335 695.296 279.942 695.889 278.549 696.705 277.45 697.742 276.646 698.779 275.842 699.935 275.44 701.209 275.44 701.745 275.44 702.24 275.495 702.692 275.605 703.145 275.714 703.608 275.906 704.083 276.178L704.769 273.133C704.839 272.843 704.9 272.522 704.953 272.17 705.006 271.819 705.032 271.511 705.032 271.247 705.032 270.984 704.984 270.784 704.887 270.647 704.791 270.511 704.652 270.412 704.472 270.351 704.292 270.289 703.969 270.245 703.503 270.219L703.661 269.533Z" fill-rule="evenodd"/><text fill="#000000" fill-opacity="0" font-family="Arial,Arial_MSFontService,sans-serif" font-size="19.0635" x="694.406" y="286.095">𝑑</text><path d="M745.499 276.481C744.611 276.481 743.757 276.929 742.935 277.826 742.113 278.722 741.482 279.935 741.043 281.465 742.282 281.456 743.346 281.344 744.233 281.128 745.121 280.913 745.802 280.57 746.277 280.1 746.752 279.63 746.989 278.995 746.989 278.195 746.989 277.659 746.864 277.239 746.613 276.936 746.363 276.633 745.991 276.481 745.499 276.481ZM745.974 275.44C747.037 275.44 747.835 275.655 748.367 276.086 748.898 276.516 749.164 277.189 749.164 278.103 749.164 279.597 748.463 280.718 747.061 281.465 745.659 282.212 743.579 282.585 740.819 282.585 740.713 283.113 740.661 283.684 740.661 284.299 740.661 285.222 740.841 285.892 741.201 286.31 741.562 286.727 742.15 286.936 742.968 286.936 743.776 286.936 744.508 286.76 745.163 286.408 745.818 286.057 746.51 285.516 747.239 284.787L748.057 285.644C747.204 286.584 746.341 287.292 745.466 287.766 744.592 288.241 743.574 288.478 742.414 288.478 741.14 288.478 740.153 288.089 739.454 287.312 738.756 286.534 738.406 285.45 738.406 284.062 738.406 283.121 738.576 282.113 738.914 281.036 739.252 279.96 739.764 278.993 740.45 278.136 741.135 277.279 741.957 276.615 742.915 276.145 743.873 275.675 744.893 275.44 745.974 275.44Z" fill-rule="evenodd"/><text fill="#000000" fill-opacity="0" font-family="Arial,Arial_MSFontService,sans-serif" font-size="13.0386" x="738.406" y="286.848">𝑒</text><path d="M790.628 269.336C791.489 269.336 792.232 269.406 792.856 269.547L792.342 271.788 791.181 271.788C791.058 271.287 790.898 270.927 790.7 270.707 790.502 270.487 790.21 270.377 789.823 270.377 789.323 270.377 788.898 270.516 788.551 270.793 788.204 271.069 787.907 271.48 787.661 272.025 787.415 272.57 787.187 273.304 786.976 274.227L786.646 275.664 790.034 275.664 789.744 276.995 786.343 276.995 783.891 288.491C783.487 290.399 782.867 291.82 782.032 292.756 781.197 293.692 780.147 294.16 778.881 294.16 778.512 294.16 778.222 294.138 778.011 294.095L778.235 292.934C778.323 292.961 778.53 292.974 778.855 292.974 779.25 292.974 779.589 292.873 779.87 292.671 780.151 292.469 780.413 292.117 780.654 291.616 780.896 291.115 781.118 290.421 781.32 289.533L784.155 276.995 781.927 276.995 782.124 276.086C782.713 276.051 783.137 276.002 783.396 275.941 783.656 275.879 783.858 275.787 784.003 275.664 784.148 275.541 784.271 275.38 784.372 275.183 784.473 274.985 784.603 274.622 784.761 274.095 785.227 272.513 785.945 271.324 786.917 270.529 787.888 269.733 789.125 269.336 790.628 269.336Z" fill-rule="evenodd"/><text fill="#000000" fill-opacity="0" font-family="Arial,Arial_MSFontService,sans-serif" font-size="24.8247" x="778.011" y="291.057">𝑓</text><path d="M702.888 309.421C701.991 309.421 701.187 309.784 700.475 310.509 699.763 311.234 699.203 312.212 698.794 313.442 698.385 314.673 698.181 315.899 698.181 317.12 698.181 318.034 698.313 318.718 698.576 319.17 698.84 319.623 699.253 319.849 699.816 319.849 700.264 319.849 700.71 319.696 701.154 319.388 701.598 319.08 702.072 318.593 702.578 317.925 703.083 317.257 703.476 316.619 703.758 316.013 704.039 315.407 704.278 314.651 704.476 313.745 704.674 312.84 704.773 312.054 704.773 311.386 704.773 310.7 704.628 310.201 704.338 309.889 704.048 309.577 703.564 309.421 702.888 309.421ZM702.677 308.38C703.23 308.38 703.753 308.446 704.245 308.577 704.738 308.709 705.234 308.933 705.735 309.25L706.948 308.38 707.792 308.591 706.434 314.734C706.337 315.165 706.117 316.25 705.775 317.991 705.414 319.836 705.122 321.141 704.898 321.906 704.674 322.671 704.395 323.367 704.061 323.996 703.727 324.624 703.296 325.171 702.769 325.637 702.242 326.103 701.602 326.463 700.851 326.718 700.099 326.973 699.209 327.1 698.181 327.1 694.859 327.1 693.198 326.134 693.198 324.2 693.198 323.708 693.347 323.26 693.646 322.855 693.945 322.451 694.424 322.025 695.083 321.576L696.032 322.341C695.865 322.543 695.724 322.743 695.61 322.941 695.496 323.139 695.415 323.33 695.366 323.514 695.318 323.699 695.294 323.919 695.294 324.174 695.294 324.833 695.531 325.314 696.006 325.617 696.48 325.92 697.197 326.072 698.155 326.072 699.236 326.072 700.104 325.828 700.758 325.34 701.413 324.853 701.973 324.068 702.439 322.987 702.905 321.906 703.358 320.271 703.797 318.083L703.613 318.043C702.76 319.212 701.969 320.065 701.24 320.601 700.51 321.137 699.723 321.405 698.88 321.405 697.922 321.405 697.177 321.045 696.645 320.324 696.113 319.603 695.847 318.575 695.847 317.239 695.847 315.736 696.142 314.293 696.731 312.908 697.32 311.524 698.137 310.423 699.183 309.606 700.229 308.788 701.393 308.38 702.677 308.38Z" fill-rule="evenodd"/><text fill="#000000" fill-opacity="0" font-family="Arial,Arial_MSFontService,sans-serif" font-size="18.7207" x="693.198" y="324.76">𝑔</text><path d="M743.124 302.355 743.889 302.355 741.621 311.491 741.779 311.544C742.614 310.436 743.403 309.634 744.146 309.138 744.888 308.641 745.638 308.393 746.394 308.393 747.211 308.393 747.839 308.628 748.279 309.098 748.718 309.568 748.938 310.221 748.938 311.056 748.938 311.61 748.811 312.396 748.556 313.416L747.699 316.87C747.461 317.828 747.343 318.505 747.343 318.9 747.343 319.252 747.4 319.507 747.514 319.665 747.628 319.823 747.809 319.902 748.055 319.902 748.318 319.902 748.6 319.794 748.898 319.579 749.197 319.364 749.619 318.953 750.164 318.346L750.916 319.085C750.072 319.972 749.38 320.583 748.839 320.917 748.299 321.251 747.69 321.418 747.013 321.418 746.442 321.418 745.987 321.216 745.649 320.812 745.31 320.408 745.141 319.885 745.141 319.243 745.141 318.672 745.286 317.832 745.576 316.725L746.143 314.444C746.345 313.627 746.481 313.014 746.552 312.605 746.622 312.196 746.657 311.878 746.657 311.649 746.657 311.025 746.556 310.584 746.354 310.324 746.152 310.065 745.822 309.935 745.365 309.935 745.005 309.935 744.605 310.085 744.166 310.384 743.726 310.682 743.265 311.137 742.781 311.748 742.298 312.359 741.913 312.943 741.628 313.502 741.342 314.06 741.116 314.725 740.949 315.499L739.749 321.207 737.468 321.207 740.856 306.138C741.067 305.198 741.173 304.548 741.173 304.187 741.173 303.818 741.061 303.559 740.837 303.409 740.613 303.26 740.21 303.177 739.63 303.159L739.789 302.473Z" fill-rule="evenodd"/><text fill="#000000" fill-opacity="0" font-family="Arial,Arial_MSFontService,sans-serif" font-size="19.0635" x="737.468" y="319.035">ℎ</text><path d="M786.727 308.485 787.504 308.485 785.606 316.949C785.413 317.81 785.316 318.461 785.316 318.9 785.316 319.252 785.373 319.507 785.487 319.665 785.602 319.823 785.782 319.902 786.028 319.902 786.292 319.902 786.573 319.794 786.872 319.579 787.17 319.364 787.592 318.953 788.137 318.346L788.889 319.085C788.027 319.99 787.329 320.605 786.792 320.93 786.256 321.256 785.654 321.418 784.986 321.418 784.415 321.418 783.958 321.21 783.615 320.792 783.272 320.375 783.101 319.841 783.101 319.19 783.101 318.522 783.224 317.67 783.47 316.633L784.459 312.322C784.661 311.443 784.762 310.784 784.762 310.344 784.762 309.949 784.668 309.68 784.479 309.54 784.29 309.399 783.918 309.32 783.365 309.303L783.51 308.604ZM786.371 303.436 788.704 303.436 788.098 305.993 785.764 305.993Z" fill-rule="evenodd"/><text fill="#000000" fill-opacity="0" font-family="Arial,Arial_MSFontService,sans-serif" font-size="17.9824" x="783.101" y="319.17">𝑖</text><path d="M814.26 275.39 820.232 281.349 826.204 275.39 827.443 276.616 821.537 282.628 827.457 288.613 826.138 289.932 820.232 283.907 814.141 289.879 812.915 288.64 818.94 282.628 812.941 276.709Z" fill-rule="evenodd"/><text fill="#000000" fill-opacity="0" font-family="Arial,Arial_MSFontService,sans-serif" font-size="14.5415" x="812.915" y="288.114">×</text><text font-family="Calibri,Calibri_MSFontService,sans-serif" font-weight="400" font-size="21" transform="translate(716.718 358)">n<tspan font-family="Cambria Math,Cambria Math_MSFontService,sans-serif" font-size="21" x="11.1666" y="0"> </tspan><tspan font-family="Cambria Math,Cambria Math_MSFontService,sans-serif" font-size="21" x="15.8333" y="0">×</tspan><tspan font-size="21" x="35.8333" y="0">n </tspan><tspan font-size="21" x="114.191" y="0">n</tspan><tspan font-family="Cambria Math,Cambria Math_MSFontService,sans-serif" font-size="21" x="125.357" y="0"> </tspan><tspan font-family="Cambria Math,Cambria Math_MSFontService,sans-serif" font-size="21" x="130.024" y="0">×</tspan><tspan font-size="21" x="150.024" y="0">1 </tspan><tspan font-size="21" x="185.062" y="0">m</tspan><tspan font-family="Cambria Math,Cambria Math_MSFontService,sans-serif" font-size="21" x="202.062" y="0"> </tspan><tspan font-family="Cambria Math,Cambria Math_MSFontService,sans-serif" font-size="21" x="206.729" y="0">×</tspan><tspan font-size="21" x="226.729" y="0">1 </tspan><tspan font-size="43" x="8.48126" y="-172">T: </tspan><tspan font-family="Cambria,Cambria_MSFontService,sans-serif" font-size="43" x="47.6879" y="-172">R</tspan><tspan font-family="Cambria,Cambria_MSFontService,sans-serif" font-size="28" x="74.1879" y="-185">n</tspan><tspan font-family="Cambria Math,Cambria Math_MSFontService,sans-serif" font-size="43" x="99.6879" y="-172">→</tspan><tspan font-family="Cambria,Cambria_MSFontService,sans-serif" font-size="43" x="145.188" y="-172">R</tspan><tspan font-family="Cambria,Cambria_MSFontService,sans-serif" font-size="28" x="171.688" y="-185">n</tspan></text><path d="M432 410.828C432 407.057 435.057 404 438.828 404L478.172 404C481.943 404 485 407.057 485 410.828L485 525.172C485 528.943 481.943 532 478.172 532L438.828 532C435.057 532 432 528.943 432 525.172Z" fill="#DAE3F3" fill-rule="evenodd"/><path d="M396.143 428.075 403.315 428.075 403.315 508.152 396.143 508.152 396.143 506.86 400.599 506.86 400.599 429.367 396.143 429.367ZM363.915 428.075 371.087 428.075 371.087 429.367 366.631 429.367 366.631 506.86 371.087 506.86 371.087 508.152 363.915 508.152Z" fill-rule="evenodd"/><path d="M376.757 430.345C377.029 430.345 377.269 430.375 377.475 430.437 377.682 430.498 377.864 430.593 378.023 430.72 378.181 430.848 378.321 431.013 378.444 431.215 378.567 431.417 378.686 431.692 378.8 432.039 378.915 432.386 379.022 432.817 379.123 433.331 379.224 433.845 379.315 434.379 379.394 434.933L379.525 434.933C380.369 433.746 381.009 432.878 381.444 432.329 381.879 431.779 382.246 431.371 382.545 431.103 382.843 430.835 383.131 430.646 383.408 430.536 383.685 430.426 384.052 430.371 384.509 430.371 384.922 430.371 385.26 430.424 385.524 430.529L384.997 432.915 384.074 432.915C384.021 432.546 383.867 432.362 383.612 432.362 383.533 432.362 383.45 432.375 383.362 432.401 383.274 432.428 383.166 432.485 383.039 432.573 382.911 432.661 382.725 432.832 382.479 433.087 382.233 433.342 381.956 433.654 381.648 434.023 381.34 434.392 381.024 434.779 380.699 435.183L379.802 436.304C379.961 437.147 380.11 437.877 380.251 438.492 380.391 439.107 380.516 439.619 380.626 440.028 380.736 440.437 380.833 440.76 380.916 440.997 381 441.234 381.09 441.412 381.187 441.531 381.283 441.65 381.382 441.733 381.483 441.781 381.584 441.83 381.701 441.854 381.833 441.854 382.07 441.854 382.301 441.762 382.525 441.577 382.749 441.392 383.072 440.975 383.494 440.325L384.351 440.892C383.735 441.806 383.18 442.449 382.683 442.823 382.186 443.196 381.595 443.383 380.91 443.383 380.532 443.383 380.211 443.315 379.947 443.179 379.684 443.043 379.455 442.825 379.262 442.526 379.068 442.227 378.897 441.762 378.748 441.129 378.475 440.004 378.308 439.142 378.247 438.545L378.115 438.545C377.183 439.854 376.491 440.795 376.038 441.366 375.586 441.937 375.212 442.359 374.918 442.632 374.623 442.904 374.338 443.095 374.061 443.205 373.784 443.315 373.417 443.37 372.96 443.37 372.547 443.37 372.209 443.317 371.945 443.212L372.472 440.826 373.395 440.826C373.448 441.195 373.602 441.379 373.857 441.379 373.98 441.379 374.109 441.346 374.245 441.28 374.382 441.215 374.577 441.056 374.832 440.806 375.087 440.555 375.439 440.162 375.887 439.626 376.335 439.09 376.985 438.286 377.838 437.213 377.706 436.519 377.57 435.851 377.429 435.209 377.289 434.568 377.144 433.97 376.994 433.416 376.845 432.863 376.722 432.5 376.625 432.329 376.528 432.157 376.425 432.039 376.315 431.973 376.205 431.907 376.067 431.874 375.9 431.874 375.715 431.874 375.548 431.916 375.399 431.999 375.25 432.083 375.087 432.228 374.911 432.434 374.735 432.641 374.503 432.964 374.212 433.403L373.356 432.836C373.909 432.001 374.441 431.377 374.951 430.964 375.461 430.551 376.063 430.345 376.757 430.345Z" fill-rule="evenodd"/><text fill="#000000" fill-opacity="0" font-family="Arial,Arial_MSFontService,sans-serif" font-size="13.0386" x="371.945" y="441.753">𝑥</text><path d="M391.394 437.035 391.877 437.035C391.842 437.597 391.824 438.376 391.824 439.372L391.824 446.878C391.824 447.218 391.844 447.475 391.882 447.647 391.92 447.82 391.987 447.961 392.084 448.069 392.18 448.178 392.32 448.263 392.501 448.324 392.683 448.386 392.911 448.433 393.187 448.465 393.462 448.497 393.825 448.519 394.277 448.531L394.277 449.172 387.781 449.172 387.781 448.531C388.432 448.501 388.896 448.462 389.175 448.412 389.453 448.362 389.665 448.288 389.812 448.188 389.958 448.088 390.065 447.948 390.133 447.766 390.2 447.584 390.234 447.288 390.234 446.878L390.234 439.75C390.234 439.516 390.193 439.345 390.111 439.236 390.029 439.128 389.908 439.074 389.75 439.074 389.563 439.074 389.296 439.17 388.95 439.364 388.605 439.557 388.177 439.824 387.667 440.163L387.281 439.487Z" fill-rule="evenodd"/><text fill="#000000" fill-opacity="0" font-family="Arial,Arial_MSFontService,sans-serif" font-size="12.1377" x="387.281" y="447.655">1</text><path d="M376.757 461.605C377.029 461.605 377.269 461.635 377.475 461.697 377.682 461.758 377.864 461.853 378.023 461.98 378.181 462.108 378.321 462.273 378.444 462.475 378.567 462.677 378.686 462.952 378.8 463.299 378.915 463.646 379.022 464.077 379.123 464.591 379.224 465.105 379.315 465.639 379.394 466.193L379.525 466.193C380.369 465.006 381.009 464.138 381.444 463.589 381.879 463.039 382.246 462.631 382.545 462.363 382.843 462.095 383.131 461.906 383.408 461.796 383.685 461.686 384.052 461.631 384.509 461.631 384.922 461.631 385.26 461.684 385.524 461.789L384.997 464.175 384.074 464.175C384.021 463.806 383.867 463.622 383.612 463.622 383.533 463.622 383.45 463.635 383.362 463.661 383.274 463.688 383.166 463.745 383.039 463.833 382.911 463.921 382.725 464.092 382.479 464.347 382.233 464.602 381.956 464.914 381.648 465.283 381.34 465.652 381.024 466.039 380.699 466.443L379.802 467.564C379.961 468.407 380.11 469.137 380.251 469.752 380.391 470.367 380.516 470.879 380.626 471.288 380.736 471.697 380.833 472.02 380.916 472.257 381 472.494 381.09 472.672 381.187 472.791 381.283 472.91 381.382 472.993 381.483 473.041 381.584 473.09 381.701 473.114 381.833 473.114 382.07 473.114 382.301 473.022 382.525 472.837 382.749 472.652 383.072 472.235 383.494 471.585L384.351 472.152C383.735 473.066 383.18 473.709 382.683 474.083 382.186 474.456 381.595 474.643 380.91 474.643 380.532 474.643 380.211 474.575 379.947 474.439 379.684 474.303 379.455 474.085 379.262 473.786 379.068 473.487 378.897 473.022 378.748 472.389 378.475 471.264 378.308 470.402 378.247 469.805L378.115 469.805C377.183 471.114 376.491 472.055 376.038 472.626 375.586 473.197 375.212 473.619 374.918 473.892 374.623 474.164 374.338 474.355 374.061 474.465 373.784 474.575 373.417 474.63 372.96 474.63 372.547 474.63 372.209 474.577 371.945 474.472L372.472 472.086 373.395 472.086C373.448 472.455 373.602 472.639 373.857 472.639 373.98 472.639 374.109 472.606 374.245 472.54 374.382 472.475 374.577 472.316 374.832 472.066 375.087 471.815 375.439 471.422 375.887 470.886 376.335 470.35 376.985 469.546 377.838 468.473 377.706 467.779 377.57 467.111 377.429 466.469 377.289 465.828 377.144 465.23 376.994 464.676 376.845 464.123 376.722 463.76 376.625 463.589 376.528 463.417 376.425 463.299 376.315 463.233 376.205 463.167 376.067 463.134 375.9 463.134 375.715 463.134 375.548 463.176 375.399 463.259 375.25 463.343 375.087 463.488 374.911 463.694 374.735 463.901 374.503 464.224 374.212 464.663L373.356 464.096C373.909 463.261 374.441 462.637 374.951 462.224 375.461 461.811 376.063 461.605 376.757 461.605Z" fill-rule="evenodd"/><text fill="#000000" fill-opacity="0" font-family="Arial,Arial_MSFontService,sans-serif" font-size="13.0386" x="371.945" y="473.013">𝑥</text><path d="M390.77 468.295C391.86 468.295 392.683 468.533 393.24 469.011 393.796 469.488 394.074 470.181 394.074 471.09 394.074 471.4 394.044 471.686 393.982 471.946 393.921 472.207 393.824 472.465 393.692 472.72 393.56 472.975 393.383 473.249 393.16 473.542 392.938 473.835 392.692 474.132 392.422 474.434 392.153 474.736 391.687 475.238 391.025 475.941 389.911 477.119 389.094 478.147 388.573 479.026L391.886 479.026C392.173 479.026 392.405 479.008 392.58 478.973 392.756 478.938 392.897 478.88 393.002 478.798 393.108 478.715 393.191 478.609 393.253 478.477 393.314 478.345 393.392 478.141 393.486 477.866L394.233 477.866 394.083 480.432 386.85 480.432 386.85 480.01C387.102 479.395 387.442 478.765 387.869 478.121 388.297 477.476 388.904 476.717 389.689 475.844 390.368 475.094 390.858 474.526 391.156 474.139 391.485 473.717 391.729 473.353 391.89 473.045 392.052 472.737 392.167 472.447 392.238 472.175 392.308 471.902 392.343 471.629 392.343 471.353 392.343 470.914 392.273 470.526 392.132 470.189 391.991 469.852 391.776 469.587 391.486 469.393 391.196 469.2 390.831 469.103 390.392 469.103 389.296 469.103 388.558 469.713 388.177 470.931L387.114 470.931 387.114 469.244C387.823 468.91 388.486 468.668 389.104 468.519 389.722 468.369 390.278 468.295 390.77 468.295Z" fill-rule="evenodd"/><text fill="#000000" fill-opacity="0" font-family="Arial,Arial_MSFontService,sans-serif" font-size="12.1377" x="386.85" y="478.915">2</text><path d="M376.757 492.865C377.029 492.865 377.269 492.895 377.475 492.957 377.682 493.018 377.864 493.113 378.023 493.24 378.181 493.368 378.321 493.533 378.444 493.735 378.567 493.937 378.686 494.212 378.8 494.559 378.915 494.906 379.022 495.337 379.123 495.851 379.224 496.365 379.315 496.899 379.394 497.453L379.525 497.453C380.369 496.266 381.009 495.398 381.444 494.849 381.879 494.299 382.246 493.891 382.545 493.623 382.843 493.355 383.131 493.166 383.408 493.056 383.685 492.946 384.052 492.891 384.509 492.891 384.922 492.891 385.26 492.944 385.524 493.049L384.997 495.435 384.074 495.435C384.021 495.066 383.867 494.882 383.612 494.882 383.533 494.882 383.45 494.895 383.362 494.921 383.274 494.948 383.166 495.005 383.039 495.093 382.911 495.181 382.725 495.352 382.479 495.607 382.233 495.862 381.956 496.174 381.648 496.543 381.34 496.912 381.024 497.299 380.699 497.703L379.802 498.824C379.961 499.667 380.11 500.397 380.251 501.012 380.391 501.627 380.516 502.139 380.626 502.548 380.736 502.957 380.833 503.28 380.916 503.517 381 503.754 381.09 503.932 381.187 504.051 381.283 504.17 381.382 504.253 381.483 504.301 381.584 504.35 381.701 504.374 381.833 504.374 382.07 504.374 382.301 504.282 382.525 504.097 382.749 503.913 383.072 503.495 383.494 502.845L384.351 503.412C383.735 504.326 383.18 504.969 382.683 505.343 382.186 505.716 381.595 505.903 380.91 505.903 380.532 505.903 380.211 505.835 379.947 505.699 379.684 505.563 379.455 505.345 379.262 505.046 379.068 504.747 378.897 504.282 378.748 503.649 378.475 502.524 378.308 501.663 378.247 501.065L378.115 501.065C377.183 502.374 376.491 503.315 376.038 503.886 375.586 504.457 375.212 504.879 374.918 505.152 374.623 505.424 374.338 505.615 374.061 505.725 373.784 505.835 373.417 505.89 372.96 505.89 372.547 505.89 372.209 505.837 371.945 505.732L372.472 503.346 373.395 503.346C373.448 503.715 373.602 503.899 373.857 503.899 373.98 503.899 374.109 503.866 374.245 503.8 374.382 503.735 374.577 503.576 374.832 503.326 375.087 503.075 375.439 502.682 375.887 502.146 376.335 501.61 376.985 500.806 377.838 499.733 377.706 499.039 377.57 498.371 377.429 497.729 377.289 497.088 377.144 496.49 376.994 495.936 376.845 495.383 376.722 495.02 376.625 494.849 376.528 494.677 376.425 494.559 376.315 494.493 376.205 494.427 376.067 494.394 375.9 494.394 375.715 494.394 375.548 494.436 375.399 494.519 375.25 494.603 375.087 494.748 374.911 494.954 374.735 495.161 374.503 495.484 374.212 495.923L373.356 495.356C373.909 494.521 374.441 493.897 374.951 493.484 375.461 493.071 376.063 492.865 376.757 492.865Z" fill-rule="evenodd"/><text fill="#000000" fill-opacity="0" font-family="Arial,Arial_MSFontService,sans-serif" font-size="13.0386" x="371.945" y="504.273">𝑥</text><path d="M390.735 499.555C391.397 499.555 391.977 499.657 392.475 499.862 392.973 500.067 393.354 500.362 393.617 500.746 393.881 501.129 394.013 501.588 394.013 502.121 394.013 502.619 393.913 503.057 393.714 503.435 393.515 503.813 393.235 504.142 392.875 504.424 392.514 504.705 392.047 504.98 391.473 505.25L391.473 505.329C391.83 505.393 392.175 505.503 392.506 505.659 392.837 505.814 393.131 506.015 393.389 506.261 393.647 506.507 393.853 506.801 394.009 507.144 394.164 507.487 394.241 507.878 394.241 508.317 394.241 508.997 394.094 509.6 393.798 510.128 393.502 510.655 393.049 511.071 392.44 511.376 391.83 511.681 391.089 511.833 390.216 511.833 389.712 511.833 389.169 511.776 388.586 511.662 388.003 511.547 387.468 511.396 386.982 511.209L386.982 509.346 388.036 509.346C388.241 509.955 388.512 510.397 388.849 510.673 389.186 510.948 389.645 511.086 390.225 511.086 390.987 511.086 391.562 510.878 391.952 510.462 392.342 510.046 392.536 509.431 392.536 508.616 392.536 507.761 392.279 507.107 391.763 506.656 391.247 506.205 390.491 505.979 389.495 505.979L388.704 505.979 388.704 505.206C389.495 505.159 390.162 505.007 390.704 504.749 391.246 504.491 391.649 504.16 391.912 503.756 392.176 503.351 392.308 502.897 392.308 502.393 392.308 501.743 392.135 501.242 391.789 500.891 391.444 500.539 390.94 500.363 390.278 500.363 389.727 500.363 389.279 500.513 388.933 500.811 388.587 501.11 388.332 501.567 388.168 502.183L387.114 502.183 387.114 500.513C387.793 500.19 388.429 499.95 389.021 499.792 389.613 499.634 390.184 499.555 390.735 499.555Z" fill-rule="evenodd"/><text fill="#000000" fill-opacity="0" font-family="Arial,Arial_MSFontService,sans-serif" font-size="12.2783" x="386.982" y="510.298">3</text><text font-family="Calibri,Calibri_MSFontService,sans-serif" font-weight="400" font-size="27" transform="translate(413.572 475)">=</text><path d="M474.239 410.021 482.017 410.021 482.017 525.43 474.239 525.43 474.239 523.927 479.117 523.927 479.117 411.524 474.239 411.524ZM435.912 410.021 443.69 410.021 443.69 411.524 438.812 411.524 438.812 523.927 443.69 523.927 443.69 525.43 435.912 525.43Z" fill-rule="evenodd"/><path d="M445.016 414.454 448.47 414.454 449.261 424.856C450.5 422.835 451.395 421.297 451.944 420.242 452.493 419.187 452.9 418.275 453.163 417.506 453.427 416.737 453.629 415.935 453.77 415.1L453.915 414.454 455.813 414.454 456.776 424.869C458.147 422.918 459.19 421.215 459.907 419.761 460.623 418.306 460.981 417.122 460.981 416.208 460.981 415.795 460.893 415.513 460.718 415.364 460.542 415.215 460.243 415.127 459.821 415.1L459.953 414.454 463.354 414.454 463.71 415.114C463.403 415.896 463.157 416.498 462.972 416.92 462.787 417.342 462.546 417.849 462.247 418.442 461.948 419.036 461.632 419.627 461.298 420.216 460.964 420.804 460.57 421.453 460.118 422.16 459.665 422.868 459.158 423.637 458.595 424.467 458.033 425.298 457.369 426.232 456.604 427.269L455.035 427.269 454.495 421.758C454.451 421.327 454.405 420.765 454.357 420.071 454.308 419.376 454.275 418.84 454.258 418.462L454.113 418.449C453.638 419.618 452.992 420.919 452.175 422.351 451.357 423.784 450.346 425.423 449.142 427.269L447.376 427.269 446.374 417.342C446.321 416.832 446.255 416.419 446.176 416.102 446.097 415.786 445.965 415.549 445.781 415.39 445.596 415.232 445.293 415.135 444.871 415.1Z" fill-rule="evenodd"/><text fill="#000000" fill-opacity="0" font-family="Arial,Arial_MSFontService,sans-serif" font-size="12.8145" x="444.871" y="425.667">𝑤</text><path d="M469.49 420.92 469.974 420.92C469.938 421.483 469.921 422.262 469.921 423.258L469.921 430.764C469.921 431.104 469.94 431.36 469.978 431.533 470.016 431.706 470.083 431.846 470.18 431.955 470.277 432.063 470.416 432.148 470.598 432.21 470.779 432.271 471.008 432.318 471.283 432.35 471.559 432.383 471.922 432.405 472.373 432.416L472.373 433.058 465.878 433.058 465.878 432.416C466.528 432.387 466.993 432.347 467.271 432.298 467.549 432.248 467.762 432.173 467.908 432.073 468.055 431.974 468.162 431.833 468.229 431.652 468.296 431.47 468.33 431.174 468.33 430.764L468.33 423.636C468.33 423.402 468.289 423.23 468.207 423.122 468.125 423.013 468.005 422.959 467.847 422.959 467.659 422.959 467.393 423.056 467.047 423.249 466.701 423.443 466.273 423.709 465.764 424.049L465.377 423.372Z" fill-rule="evenodd"/><text fill="#000000" fill-opacity="0" font-family="Arial,Arial_MSFontService,sans-serif" font-size="12.1377" x="465.377" y="431.541">1</text><path d="M445.016 445.714 448.47 445.714 449.261 456.116C450.5 454.095 451.395 452.557 451.944 451.502 452.493 450.447 452.9 449.535 453.163 448.766 453.427 447.997 453.629 447.195 453.77 446.36L453.915 445.714 455.813 445.714 456.776 456.129C458.147 454.178 459.19 452.475 459.907 451.021 460.623 449.566 460.981 448.382 460.981 447.468 460.981 447.055 460.893 446.773 460.718 446.624 460.542 446.475 460.243 446.387 459.821 446.36L459.953 445.714 463.354 445.714 463.71 446.374C463.403 447.156 463.157 447.758 462.972 448.18 462.787 448.602 462.546 449.109 462.247 449.702 461.948 450.296 461.632 450.887 461.298 451.476 460.964 452.064 460.57 452.713 460.118 453.42 459.665 454.128 459.158 454.897 458.595 455.727 458.033 456.558 457.369 457.492 456.604 458.529L455.035 458.529 454.495 453.018C454.451 452.587 454.405 452.025 454.357 451.331 454.308 450.636 454.275 450.1 454.258 449.722L454.113 449.709C453.638 450.878 452.992 452.179 452.175 453.611 451.357 455.044 450.346 456.683 449.142 458.529L447.376 458.529 446.374 448.602C446.321 448.092 446.255 447.679 446.176 447.362 446.097 447.046 445.965 446.809 445.781 446.65 445.596 446.492 445.293 446.395 444.871 446.36Z" fill-rule="evenodd"/><text fill="#000000" fill-opacity="0" font-family="Arial,Arial_MSFontService,sans-serif" font-size="12.8145" x="444.871" y="456.927">𝑤</text><path d="M468.866 452.18C469.956 452.18 470.779 452.419 471.336 452.896 471.893 453.374 472.171 454.067 472.171 454.975 472.171 455.286 472.14 455.571 472.079 455.832 472.017 456.093 471.92 456.351 471.789 456.605 471.657 456.86 471.479 457.134 471.257 457.427 471.034 457.72 470.788 458.018 470.519 458.319 470.249 458.621 469.783 459.124 469.121 459.827 468.008 461.004 467.19 462.033 466.669 462.912L469.982 462.912C470.27 462.912 470.501 462.894 470.677 462.859 470.853 462.824 470.993 462.765 471.099 462.683 471.204 462.601 471.288 462.494 471.349 462.362 471.411 462.23 471.488 462.027 471.582 461.751L472.329 461.751 472.18 464.318 464.946 464.318 464.946 463.896C465.198 463.281 465.538 462.651 465.966 462.006 466.394 461.362 467 460.603 467.785 459.73 468.465 458.98 468.954 458.412 469.253 458.025 469.581 457.603 469.826 457.238 469.987 456.931 470.148 456.623 470.264 456.333 470.334 456.061 470.404 455.788 470.439 455.514 470.439 455.239 470.439 454.799 470.369 454.411 470.229 454.074 470.088 453.737 469.873 453.472 469.583 453.279 469.292 453.085 468.928 452.989 468.488 452.989 467.393 452.989 466.654 453.598 466.273 454.817L465.21 454.817 465.21 453.129C465.919 452.795 466.583 452.554 467.201 452.404 467.819 452.255 468.374 452.18 468.866 452.18Z" fill-rule="evenodd"/><text fill="#000000" fill-opacity="0" font-family="Arial,Arial_MSFontService,sans-serif" font-size="12.1377" x="464.946" y="462.801">2</text><path d="M445.016 476.974 448.47 476.974 449.261 487.376C450.5 485.355 451.395 483.817 451.944 482.762 452.493 481.707 452.9 480.795 453.163 480.026 453.427 479.257 453.629 478.455 453.77 477.62L453.915 476.974 455.813 476.974 456.776 487.389C458.147 485.438 459.19 483.735 459.907 482.281 460.623 480.826 460.981 479.642 460.981 478.728 460.981 478.315 460.893 478.033 460.718 477.884 460.542 477.735 460.243 477.647 459.821 477.62L459.953 476.974 463.354 476.974 463.71 477.634C463.403 478.416 463.157 479.018 462.972 479.44 462.787 479.862 462.546 480.369 462.247 480.962 461.948 481.556 461.632 482.147 461.298 482.736 460.964 483.324 460.57 483.973 460.118 484.68 459.665 485.388 459.158 486.157 458.595 486.987 458.033 487.818 457.369 488.752 456.604 489.789L455.035 489.789 454.495 484.278C454.451 483.847 454.405 483.285 454.357 482.591 454.308 481.896 454.275 481.36 454.258 480.982L454.113 480.969C453.638 482.138 452.992 483.439 452.175 484.871 451.357 486.304 450.346 487.943 449.142 489.789L447.376 489.789 446.374 479.862C446.321 479.352 446.255 478.939 446.176 478.622 446.097 478.306 445.965 478.069 445.781 477.91 445.596 477.752 445.293 477.655 444.871 477.62Z" fill-rule="evenodd"/><text fill="#000000" fill-opacity="0" font-family="Arial,Arial_MSFontService,sans-serif" font-size="12.8145" x="444.871" y="488.187">𝑤</text><path d="M468.831 483.44C469.493 483.44 470.073 483.543 470.571 483.748 471.069 483.953 471.45 484.247 471.714 484.631 471.978 485.015 472.109 485.473 472.109 486.007 472.109 486.505 472.01 486.943 471.811 487.321 471.611 487.698 471.332 488.028 470.971 488.309 470.611 488.591 470.144 488.866 469.569 489.135L469.569 489.215C469.927 489.279 470.271 489.389 470.602 489.544 470.933 489.699 471.228 489.9 471.485 490.146 471.743 490.392 471.95 490.687 472.105 491.03 472.26 491.372 472.338 491.763 472.338 492.203 472.338 492.883 472.19 493.486 471.894 494.013 471.598 494.541 471.146 494.957 470.536 495.261 469.927 495.566 469.186 495.718 468.312 495.718 467.809 495.718 467.265 495.661 466.682 495.547 466.099 495.433 465.564 495.282 465.078 495.094L465.078 493.231 466.133 493.231C466.338 493.841 466.609 494.283 466.946 494.558 467.283 494.834 467.741 494.971 468.321 494.971 469.083 494.971 469.659 494.763 470.048 494.347 470.438 493.931 470.633 493.316 470.633 492.502 470.633 491.646 470.375 490.993 469.859 490.542 469.344 490.091 468.588 489.865 467.592 489.865L466.801 489.865 466.801 489.092C467.592 489.045 468.258 488.892 468.8 488.634 469.342 488.377 469.745 488.046 470.009 487.641 470.272 487.237 470.404 486.783 470.404 486.279 470.404 485.629 470.231 485.128 469.886 484.776 469.54 484.425 469.036 484.249 468.374 484.249 467.823 484.249 467.375 484.398 467.029 484.697 466.684 484.996 466.429 485.453 466.265 486.068L465.21 486.068 465.21 484.398C465.89 484.076 466.525 483.836 467.117 483.677 467.709 483.519 468.28 483.44 468.831 483.44Z" fill-rule="evenodd"/><text fill="#000000" fill-opacity="0" font-family="Arial,Arial_MSFontService,sans-serif" font-size="12.2783" x="465.078" y="494.184">3</text><path d="M445.016 508.234 448.47 508.234 449.261 518.636C450.5 516.615 451.395 515.077 451.944 514.022 452.493 512.967 452.9 512.055 453.163 511.286 453.427 510.517 453.629 509.715 453.77 508.88L453.915 508.234 455.813 508.234 456.776 518.649C458.147 516.698 459.19 514.995 459.907 513.541 460.623 512.086 460.981 510.902 460.981 509.988 460.981 509.575 460.893 509.293 460.718 509.144 460.542 508.995 460.243 508.907 459.821 508.88L459.953 508.234 463.354 508.234 463.71 508.893C463.403 509.676 463.157 510.278 462.972 510.7 462.787 511.122 462.546 511.629 462.247 512.222 461.948 512.816 461.632 513.407 461.298 513.996 460.964 514.584 460.57 515.233 460.118 515.94 459.665 516.648 459.158 517.417 458.595 518.247 458.033 519.078 457.369 520.012 456.604 521.049L455.035 521.049 454.495 515.538C454.451 515.107 454.405 514.545 454.357 513.851 454.308 513.156 454.275 512.62 454.258 512.242L454.113 512.229C453.638 513.398 452.992 514.699 452.175 516.131 451.357 517.564 450.346 519.203 449.142 521.049L447.376 521.049 446.374 511.122C446.321 510.612 446.255 510.199 446.176 509.882 446.097 509.566 445.965 509.329 445.781 509.17 445.596 509.012 445.293 508.915 444.871 508.88Z" fill-rule="evenodd"/><text fill="#000000" fill-opacity="0" font-family="Arial,Arial_MSFontService,sans-serif" font-size="12.8145" x="444.871" y="519.447">𝑤</text><path d="M469.376 516.766 465.939 522.224 465.939 522.347 469.376 522.347 469.376 520.158C469.376 519.607 469.385 518.991 469.402 518.308 469.42 517.625 469.44 517.111 469.464 516.766ZM469.631 514.779 470.888 514.779 470.888 522.347 471.072 522.347C471.412 522.347 471.655 522.322 471.802 522.272 471.948 522.222 472.07 522.134 472.167 522.008 472.263 521.882 472.353 521.676 472.435 521.389L473.103 521.389 472.997 523.199 470.888 523.199 470.888 524.641C470.888 525.033 470.901 525.32 470.927 525.502 470.954 525.684 470.998 525.827 471.059 525.933 471.121 526.038 471.211 526.126 471.332 526.196 471.452 526.267 471.646 526.337 471.916 526.407L471.916 526.838 468.348 526.838 468.348 526.407C468.711 526.313 468.954 526.209 469.077 526.095 469.2 525.981 469.281 525.818 469.319 525.607 469.357 525.396 469.376 525.074 469.376 524.641L469.376 523.199 464.489 523.199 464.489 522.54Z" fill-rule="evenodd"/><text fill="#000000" fill-opacity="0" font-family="Arial,Arial_MSFontService,sans-serif" font-size="12.0586" x="464.489" y="525.331">4</text><path d="M212.154 409.253 220.091 409.253 220.091 410.44 214.923 410.44 214.923 437.836 214.923 441.909 214.923 464.123 214.923 470.795 214.923 493.02 214.923 497.082 214.923 524.489 220.091 524.489 220.091 525.675 212.154 525.675 212.154 497.082 212.154 470.795 212.154 441.909 212.154 437.836ZM321.961 409.253 329.897 409.253 329.897 437.836 329.897 441.909 329.897 464.123 329.897 470.795 329.897 493.02 329.897 497.082 329.897 525.675 321.961 525.675 321.961 524.489 327.129 524.489 327.129 497.082 327.129 493.02 327.129 470.795 327.129 464.123 327.129 441.909 327.129 437.836 327.129 410.44 321.961 410.44Z" fill-rule="evenodd"/><path d="M229.557 413.709C228.652 413.709 227.839 414.074 227.118 414.804 226.397 415.533 225.835 416.511 225.43 417.737 225.026 418.963 224.824 420.187 224.824 421.409 224.824 422.323 224.949 423.006 225.2 423.459 225.45 423.911 225.87 424.138 226.459 424.138 227.039 424.138 227.608 423.887 228.166 423.386 228.724 422.885 229.3 422.171 229.893 421.244 230.486 420.316 230.906 419.246 231.152 418.034L231.271 417.467C231.35 417.106 231.402 416.794 231.429 416.531 231.455 416.267 231.468 415.981 231.468 415.674 231.468 414.997 231.323 414.5 231.033 414.184 230.743 413.867 230.251 413.709 229.557 413.709ZM229.293 412.668C229.864 412.668 230.398 412.732 230.895 412.859 231.391 412.986 231.903 413.213 232.431 413.538L233.644 412.668 234.487 412.879 232.549 421.237C232.356 422.072 232.259 422.722 232.259 423.188 232.259 423.54 232.317 423.795 232.431 423.953 232.545 424.111 232.725 424.19 232.971 424.19 233.235 424.19 233.516 424.083 233.815 423.867 234.114 423.652 234.536 423.241 235.081 422.635L235.832 423.373C235.041 424.217 234.367 424.816 233.808 425.172 233.25 425.528 232.646 425.706 231.996 425.706 231.451 425.706 231.016 425.526 230.691 425.166 230.365 424.805 230.203 424.326 230.203 423.729 230.203 423.245 230.304 422.731 230.506 422.186L230.335 422.134C229.491 423.364 228.691 424.265 227.935 424.836 227.179 425.408 226.38 425.693 225.536 425.693 224.569 425.693 223.82 425.328 223.288 424.599 222.756 423.869 222.49 422.846 222.49 421.527 222.49 420.015 222.787 418.563 223.38 417.17 223.974 415.777 224.789 414.678 225.826 413.874 226.863 413.07 228.019 412.668 229.293 412.668Z" fill-rule="evenodd"/><text fill="#000000" fill-opacity="0" font-family="Arial,Arial_MSFontService,sans-serif" font-size="13.0386" x="222.49" y="424.077">𝑎</text><path d="M273.362 414.223C272.94 414.223 272.525 414.357 272.116 414.626 271.707 414.894 271.252 415.337 270.751 415.957 270.25 416.577 269.842 417.212 269.525 417.862 269.209 418.513 268.941 419.343 268.721 420.354L268.602 420.908C268.471 421.523 268.405 422.12 268.405 422.701 268.405 423.395 268.556 423.896 268.86 424.203 269.163 424.511 269.666 424.665 270.369 424.665 270.729 424.665 271.072 424.606 271.397 424.487 271.723 424.368 272.054 424.173 272.393 423.9 272.731 423.628 273.052 423.27 273.355 422.826 273.658 422.382 273.937 421.835 274.192 421.184 274.447 420.534 274.645 419.837 274.786 419.095 274.926 418.352 274.996 417.642 274.996 416.966 274.996 416.052 274.867 415.366 274.608 414.909 274.348 414.452 273.933 414.223 273.362 414.223ZM271.055 406.643 271.819 406.643 269.499 415.871 269.67 415.924C270.523 414.782 271.323 413.955 272.07 413.446 272.817 412.936 273.564 412.681 274.311 412.681 275.269 412.681 276.014 413.046 276.546 413.775 277.077 414.505 277.343 415.533 277.343 416.86 277.343 418.31 277.051 419.736 276.466 421.138 275.882 422.54 275.071 423.652 274.034 424.474 272.997 425.295 271.837 425.706 270.554 425.706 269.385 425.706 268.348 425.421 267.442 424.849L266.229 425.706 265.386 425.495 268.8 410.427C269.002 409.53 269.103 408.88 269.103 408.475 269.103 408.106 268.991 407.847 268.767 407.698 268.543 407.548 268.141 407.465 267.561 407.447L267.719 406.762Z" fill-rule="evenodd"/><text fill="#000000" fill-opacity="0" font-family="Arial,Arial_MSFontService,sans-serif" font-size="19.0635" x="265.386" y="423.323">𝑏</text><path d="M315.887 412.681C317.056 412.681 318.133 412.813 319.117 413.076L318.471 416.056 317.087 416.056C317.069 415.388 317.014 414.905 316.922 414.606 316.83 414.307 316.68 414.083 316.474 413.933 316.267 413.784 315.975 413.709 315.597 413.709 314.709 413.709 313.912 414.063 313.204 414.771 312.497 415.478 311.919 416.48 311.47 417.776 311.022 419.073 310.798 420.319 310.798 421.514 310.798 422.41 310.974 423.076 311.325 423.511 311.677 423.946 312.204 424.164 312.907 424.164 313.707 424.164 314.399 424.012 314.984 423.709 315.568 423.406 316.186 422.929 316.836 422.279L317.64 423.083C316.814 423.997 315.981 424.665 315.142 425.087 314.303 425.509 313.4 425.72 312.433 425.72 311.158 425.72 310.192 425.342 309.532 424.586 308.873 423.83 308.544 422.731 308.544 421.29 308.544 420.349 308.719 419.317 309.071 418.192 309.423 417.067 309.937 416.078 310.614 415.225 311.29 414.373 312.081 413.736 312.987 413.314 313.892 412.892 314.859 412.681 315.887 412.681Z" fill-rule="evenodd"/><text fill="#000000" fill-opacity="0" font-family="Arial,Arial_MSFontService,sans-serif" font-size="13.0386" x="308.544" y="424.09">𝑐</text><path d="M229.104 444.969C228.207 444.969 227.403 445.332 226.691 446.057 225.979 446.782 225.419 447.76 225.01 448.99 224.602 450.221 224.397 451.447 224.397 452.669 224.397 453.583 224.522 454.266 224.773 454.719 225.023 455.171 225.443 455.398 226.032 455.398 226.304 455.398 226.581 455.338 226.863 455.22 227.144 455.101 227.436 454.91 227.739 454.646 228.042 454.382 228.341 454.062 228.636 453.684 228.93 453.306 229.2 452.926 229.447 452.543 229.693 452.161 229.921 451.708 230.132 451.185 230.343 450.662 230.523 450.032 230.673 449.294L230.791 448.727C230.923 448.094 230.989 447.496 230.989 446.934 230.989 446.248 230.844 445.749 230.554 445.437 230.264 445.125 229.781 444.969 229.104 444.969ZM234.628 437.903 235.406 437.903 232.123 452.497C231.929 453.358 231.833 454.009 231.833 454.448 231.833 454.8 231.89 455.055 232.004 455.213 232.118 455.371 232.299 455.45 232.545 455.45 232.808 455.45 233.09 455.343 233.388 455.127 233.687 454.912 234.109 454.501 234.654 453.895L235.406 454.633C234.597 455.485 233.916 456.087 233.362 456.439 232.808 456.791 232.211 456.966 231.569 456.966 231.024 456.966 230.589 456.786 230.264 456.426 229.939 456.065 229.776 455.586 229.776 454.989 229.776 454.505 229.877 453.991 230.079 453.446L229.908 453.394C229.064 454.624 228.264 455.525 227.509 456.096 226.753 456.668 225.953 456.953 225.109 456.953 224.142 456.953 223.393 456.588 222.861 455.859 222.33 455.129 222.064 454.106 222.064 452.787 222.064 451.275 222.36 449.823 222.954 448.43 223.547 447.037 224.362 445.938 225.399 445.134 226.436 444.33 227.592 443.928 228.866 443.928 229.403 443.928 229.897 443.983 230.35 444.093 230.802 444.202 231.266 444.394 231.74 444.666L232.426 441.621C232.496 441.331 232.558 441.01 232.611 440.658 232.663 440.307 232.69 439.999 232.69 439.735 232.69 439.472 232.641 439.272 232.545 439.136 232.448 438.999 232.31 438.9 232.129 438.839 231.949 438.777 231.626 438.733 231.16 438.707L231.319 438.022Z" fill-rule="evenodd"/><text fill="#000000" fill-opacity="0" font-family="Arial,Arial_MSFontService,sans-serif" font-size="19.0635" x="222.064" y="454.583">𝑑</text><path d="M273.236 444.969C272.349 444.969 271.494 445.418 270.672 446.314 269.85 447.211 269.22 448.423 268.78 449.953 270.02 449.944 271.083 449.832 271.971 449.617 272.859 449.401 273.54 449.058 274.014 448.588 274.489 448.118 274.726 447.483 274.726 446.683 274.726 446.147 274.601 445.727 274.35 445.424 274.1 445.121 273.729 444.969 273.236 444.969ZM273.711 443.928C274.775 443.928 275.572 444.143 276.104 444.574 276.636 445.004 276.902 445.677 276.902 446.591 276.902 448.085 276.201 449.206 274.799 449.953 273.397 450.7 271.316 451.073 268.556 451.073 268.451 451.601 268.398 452.172 268.398 452.787 268.398 453.71 268.578 454.38 268.939 454.798 269.299 455.215 269.888 455.424 270.705 455.424 271.514 455.424 272.246 455.248 272.9 454.897 273.555 454.545 274.247 454.004 274.977 453.275L275.794 454.132C274.942 455.072 274.078 455.78 273.204 456.254 272.329 456.729 271.312 456.966 270.152 456.966 268.877 456.966 267.891 456.577 267.192 455.8 266.493 455.022 266.144 453.939 266.144 452.55 266.144 451.609 266.313 450.601 266.651 449.524 266.99 448.448 267.502 447.481 268.187 446.624 268.873 445.767 269.694 445.103 270.652 444.633 271.611 444.163 272.63 443.928 273.711 443.928Z" fill-rule="evenodd"/><text fill="#000000" fill-opacity="0" font-family="Arial,Arial_MSFontService,sans-serif" font-size="13.0386" x="266.144" y="455.337">𝑒</text><path d="M318.445 437.824C319.306 437.824 320.049 437.894 320.673 438.035L320.159 440.276 318.999 440.276C318.876 439.775 318.715 439.415 318.518 439.195 318.32 438.975 318.028 438.865 317.641 438.865 317.14 438.865 316.716 439.004 316.369 439.281 316.021 439.557 315.725 439.968 315.479 440.513 315.233 441.058 315.004 441.792 314.793 442.715L314.464 444.152 317.852 444.152 317.562 445.483 314.16 445.483 311.708 456.98C311.304 458.887 310.684 460.308 309.849 461.244 309.014 462.18 307.964 462.648 306.698 462.648 306.329 462.648 306.039 462.627 305.828 462.583L306.052 461.422C306.14 461.449 306.347 461.462 306.672 461.462 307.068 461.462 307.406 461.361 307.687 461.159 307.968 460.957 308.23 460.605 308.472 460.104 308.713 459.603 308.935 458.909 309.137 458.021L311.972 445.483 309.744 445.483 309.942 444.574C310.53 444.539 310.955 444.49 311.214 444.429 311.473 444.367 311.675 444.275 311.82 444.152 311.965 444.029 312.088 443.868 312.189 443.671 312.29 443.473 312.42 443.11 312.578 442.583 313.044 441.001 313.763 439.812 314.734 439.017 315.705 438.221 316.942 437.824 318.445 437.824Z" fill-rule="evenodd"/><text fill="#000000" fill-opacity="0" font-family="Arial,Arial_MSFontService,sans-serif" font-size="24.8247" x="305.828" y="459.545">𝑓</text><path d="M230.545 477.909C229.648 477.909 228.844 478.272 228.132 478.997 227.42 479.722 226.86 480.7 226.451 481.93 226.043 483.161 225.838 484.387 225.838 485.609 225.838 486.523 225.97 487.206 226.234 487.659 226.498 488.111 226.911 488.338 227.473 488.338 227.921 488.338 228.367 488.184 228.811 487.876 229.255 487.568 229.73 487.081 230.235 486.413 230.74 485.745 231.134 485.108 231.415 484.501 231.696 483.895 231.936 483.139 232.133 482.234 232.331 481.328 232.43 480.542 232.43 479.874 232.43 479.188 232.285 478.689 231.995 478.377 231.705 478.065 231.222 477.909 230.545 477.909ZM230.334 476.868C230.888 476.868 231.411 476.934 231.903 477.066 232.395 477.197 232.892 477.422 233.393 477.738L234.605 476.868 235.449 477.079 234.091 483.222C233.995 483.653 233.775 484.738 233.432 486.479 233.072 488.324 232.779 489.63 232.555 490.394 232.331 491.159 232.052 491.855 231.718 492.484 231.384 493.112 230.954 493.659 230.426 494.125 229.899 494.591 229.259 494.951 228.508 495.206 227.757 495.461 226.867 495.589 225.838 495.589 222.516 495.589 220.855 494.622 220.855 492.688 220.855 492.196 221.004 491.748 221.303 491.343 221.602 490.939 222.081 490.513 222.74 490.065L223.689 490.829C223.522 491.031 223.382 491.231 223.268 491.429 223.153 491.627 223.072 491.818 223.024 492.003 222.975 492.187 222.951 492.407 222.951 492.662 222.951 493.321 223.188 493.802 223.663 494.105 224.138 494.409 224.854 494.56 225.812 494.56 226.893 494.56 227.761 494.316 228.416 493.828 229.071 493.341 229.631 492.556 230.097 491.475 230.562 490.394 231.015 488.759 231.455 486.571L231.27 486.531C230.417 487.7 229.626 488.553 228.897 489.089 228.167 489.625 227.381 489.893 226.537 489.893 225.579 489.893 224.834 489.533 224.302 488.812 223.771 488.091 223.505 487.063 223.505 485.727 223.505 484.224 223.799 482.781 224.388 481.396 224.977 480.012 225.794 478.911 226.84 478.094 227.886 477.276 229.051 476.868 230.334 476.868Z" fill-rule="evenodd"/><text fill="#000000" fill-opacity="0" font-family="Arial,Arial_MSFontService,sans-serif" font-size="18.7207" x="220.855" y="493.248">𝑔</text><path d="M270.861 470.843 271.626 470.843 269.358 479.979 269.517 480.032C270.352 478.924 271.14 478.122 271.883 477.626 272.626 477.129 273.375 476.881 274.131 476.881 274.948 476.881 275.577 477.116 276.016 477.586 276.456 478.057 276.675 478.709 276.675 479.544 276.675 480.098 276.548 480.884 276.293 481.904L275.436 485.358C275.199 486.316 275.08 486.993 275.08 487.388 275.08 487.74 275.137 487.995 275.252 488.153 275.366 488.311 275.546 488.39 275.792 488.39 276.056 488.39 276.337 488.283 276.636 488.067 276.935 487.852 277.357 487.441 277.901 486.835L278.653 487.573C277.809 488.461 277.117 489.071 276.577 489.405 276.036 489.739 275.427 489.906 274.751 489.906 274.179 489.906 273.724 489.704 273.386 489.3 273.048 488.896 272.879 488.373 272.879 487.731 272.879 487.16 273.024 486.32 273.314 485.213L273.88 482.932C274.083 482.115 274.219 481.502 274.289 481.093 274.359 480.684 274.395 480.366 274.395 480.137 274.395 479.513 274.294 479.072 274.091 478.812 273.889 478.553 273.56 478.423 273.103 478.423 272.742 478.423 272.342 478.573 271.903 478.872 271.463 479.171 271.002 479.625 270.519 480.236 270.035 480.847 269.651 481.432 269.365 481.99 269.079 482.548 268.853 483.214 268.686 483.987L267.486 489.695 265.206 489.695 268.594 474.627C268.805 473.686 268.91 473.036 268.91 472.675 268.91 472.306 268.798 472.047 268.574 471.898 268.35 471.748 267.948 471.665 267.368 471.647L267.526 470.962Z" fill-rule="evenodd"/><text fill="#000000" fill-opacity="0" font-family="Arial,Arial_MSFontService,sans-serif" font-size="19.0635" x="265.206" y="487.523">ℎ</text><path d="M314.544 476.973 315.322 476.973 313.423 485.437C313.23 486.298 313.133 486.949 313.133 487.388 313.133 487.74 313.19 487.995 313.305 488.153 313.419 488.311 313.599 488.39 313.845 488.39 314.109 488.39 314.39 488.283 314.689 488.067 314.988 487.852 315.41 487.441 315.955 486.835L316.706 487.573C315.845 488.478 315.146 489.093 314.61 489.419 314.074 489.744 313.472 489.906 312.804 489.906 312.232 489.906 311.775 489.698 311.433 489.28 311.09 488.863 310.918 488.329 310.918 487.678 310.918 487.01 311.042 486.158 311.288 485.121L312.276 480.81C312.479 479.931 312.58 479.272 312.58 478.832 312.58 478.437 312.485 478.169 312.296 478.028 312.107 477.887 311.736 477.808 311.182 477.791L311.327 477.092ZM314.188 471.924 316.521 471.924 315.915 474.482 313.582 474.482Z" fill-rule="evenodd"/><text fill="#000000" fill-opacity="0" font-family="Arial,Arial_MSFontService,sans-serif" font-size="17.9824" x="310.918" y="487.659">𝑖</text><path d="M230.595 509.913 231.347 509.913 228.605 522.86C228.324 524.195 227.941 525.27 227.458 526.083 226.974 526.896 226.346 527.507 225.573 527.915 224.799 528.324 223.876 528.529 222.804 528.529 222.365 528.529 221.991 528.485 221.683 528.397L221.987 527.237C222.171 527.307 222.505 527.342 222.989 527.342 223.41 527.342 223.769 527.278 224.063 527.151 224.357 527.023 224.632 526.812 224.887 526.518 225.142 526.224 225.377 525.813 225.592 525.285 225.808 524.758 226.008 524.077 226.192 523.242L228.328 513.75C228.53 512.853 228.631 512.194 228.631 511.772 228.631 511.377 228.537 511.109 228.348 510.968 228.159 510.827 227.787 510.748 227.234 510.731L227.379 510.032ZM230.24 504.864 232.573 504.864 231.967 507.422 229.633 507.422Z" fill-rule="evenodd"/><text fill="#000000" fill-opacity="0" font-family="Arial,Arial_MSFontService,sans-serif" font-size="23.6646" x="221.683" y="525.57">𝑗</text><path d="M270.781 503.783 271.546 503.783 268.962 515.292 269.384 515.292C270.043 515.292 270.784 515.004 271.605 514.429 272.427 513.853 273.084 513.319 273.576 512.827 274.069 512.335 274.315 511.86 274.315 511.403 274.315 510.972 274.016 510.731 273.418 510.678L273.563 510.032 277.835 510.032 278.085 510.678C277.356 511.337 276.582 511.983 275.765 512.616L272.495 515.147 273.787 519.906C273.893 520.311 273.987 520.603 274.071 520.783 274.154 520.963 274.251 521.097 274.361 521.185 274.471 521.273 274.618 521.317 274.802 521.317 275.031 521.317 275.303 521.194 275.62 520.948 275.936 520.702 276.297 520.346 276.701 519.88L277.452 520.618C276.661 521.453 276.007 522.033 275.488 522.359 274.969 522.684 274.468 522.846 273.985 522.846 273.387 522.846 272.913 522.677 272.561 522.339 272.21 522 271.933 521.436 271.731 520.645L270.861 517.217C270.773 516.874 270.685 516.637 270.597 516.505 270.509 516.373 270.408 516.285 270.294 516.241 270.179 516.197 269.977 516.175 269.687 516.175L268.777 516.175 267.406 522.635 265.126 522.635 268.514 507.567C268.628 507.057 268.709 506.659 268.758 506.373 268.806 506.088 268.83 505.835 268.83 505.615 268.83 505.246 268.718 504.987 268.494 504.838 268.27 504.688 267.868 504.605 267.288 504.587L267.446 503.902Z" fill-rule="evenodd"/><text fill="#000000" fill-opacity="0" font-family="Arial,Arial_MSFontService,sans-serif" font-size="19.0635" x="265.126" y="520.463">𝑘</text><path d="M315.862 503.783 316.64 503.783 313.397 518.377C313.204 519.247 313.107 519.898 313.107 520.328 313.107 520.68 313.164 520.935 313.278 521.093 313.393 521.251 313.573 521.33 313.819 521.33 314.083 521.33 314.364 521.223 314.663 521.007 314.961 520.792 315.383 520.381 315.928 519.775L316.68 520.513C315.827 521.409 315.131 522.022 314.59 522.352 314.05 522.682 313.445 522.846 312.777 522.846 312.206 522.846 311.749 522.638 311.406 522.22 311.063 521.803 310.892 521.269 310.892 520.618 310.892 520.029 311.015 519.177 311.261 518.061L313.621 507.501C313.727 507.035 313.801 506.664 313.845 506.387 313.889 506.11 313.911 505.853 313.911 505.615 313.911 505.352 313.863 505.152 313.766 505.016 313.669 504.879 313.531 504.78 313.351 504.719 313.171 504.657 312.848 504.613 312.382 504.587L312.54 503.902Z" fill-rule="evenodd"/><text fill="#000000" fill-opacity="0" font-family="Arial,Arial_MSFontService,sans-serif" font-size="19.0635" x="310.892" y="520.463">𝑙</text><path d="M340.524 460.345 346.496 466.304 352.468 460.345 353.707 461.571 347.801 467.583 353.721 473.568 352.402 474.887 346.496 468.862 340.405 474.834 339.179 473.595 345.204 467.583 339.206 461.663Z" fill-rule="evenodd"/><text fill="#000000" fill-opacity="0" font-family="Arial,Arial_MSFontService,sans-serif" font-size="14.5415" x="339.179" y="473.069">×</text><text font-family="Calibri,Calibri_MSFontService,sans-serif" font-weight="400" font-size="21" transform="translate(244.762 569)">m<tspan font-family="Cambria Math,Cambria Math_MSFontService,sans-serif" font-size="21" x="17" y="0"> </tspan><tspan font-family="Cambria Math,Cambria Math_MSFontService,sans-serif" font-size="21" x="21.6667" y="0">×</tspan><tspan font-size="21" x="41.6667" y="0">n </tspan><tspan font-size="21" x="117.951" y="0">n</tspan><tspan font-family="Cambria Math,Cambria Math_MSFontService,sans-serif" font-size="21" x="129.118" y="0"> </tspan><tspan font-family="Cambria Math,Cambria Math_MSFontService,sans-serif" font-size="21" x="133.785" y="0">×</tspan><tspan font-size="21" x="153.785" y="0">1 </tspan><tspan font-size="21" x="187.444" y="0">m</tspan><tspan font-family="Cambria Math,Cambria Math_MSFontService,sans-serif" font-size="21" x="204.444" y="0"> </tspan><tspan font-family="Cambria Math,Cambria Math_MSFontService,sans-serif" font-size="21" x="209.111" y="0">×</tspan><tspan font-size="21" x="229.111" y="0">1</tspan></text></g></svg>