<?xml version="1.0" encoding="UTF-8" standalone="no"?>
<svg
   width="1280"
   height="560"
   overflow="hidden"
   version="1.1"
   id="svg271"
   sodipodi:docname="linear_systems-vector_subspaces.svg"
   inkscape:version="1.2 (dc2aedaf03, 2022-05-15)"
   xmlns:inkscape="http://www.inkscape.org/namespaces/inkscape"
   xmlns:sodipodi="http://sodipodi.sourceforge.net/DTD/sodipodi-0.dtd"
   xmlns="http://www.w3.org/2000/svg"
   xmlns:svg="http://www.w3.org/2000/svg">
  <sodipodi:namedview
     id="namedview273"
     pagecolor="#ffffff"
     bordercolor="#000000"
     borderopacity="0.25"
     inkscape:showpageshadow="2"
     inkscape:pageopacity="0.0"
     inkscape:pagecheckerboard="0"
     inkscape:deskcolor="#d1d1d1"
     showgrid="false"
     inkscape:zoom="0.92709556"
     inkscape:cx="478.37572"
     inkscape:cy="270.738"
     inkscape:window-width="2560"
     inkscape:window-height="1494"
     inkscape:window-x="-11"
     inkscape:window-y="-11"
     inkscape:window-maximized="1"
     inkscape:current-layer="svg271" />
  <defs
     id="defs5">
    <clipPath
       id="clip0">
      <rect
         x="0"
         y="0"
         width="1280"
         height="720"
         id="rect2" />
    </clipPath>
  </defs>
  <g
     clip-path="url(#clip0)"
     id="g269"
     transform="translate(38.830949,-60.403698)">
    <rect
       x="0"
       y="0"
       width="1280"
       height="720"
       fill="#ffffff"
       id="rect7" />
    <rect
       x="36"
       y="360"
       width="75"
       height="76"
       stroke="#ededed"
       stroke-width="4"
       stroke-miterlimit="8"
       fill="none"
       id="rect9" />
    <rect
       x="111"
       y="360"
       width="75"
       height="76"
       stroke="#ededed"
       stroke-width="4"
       stroke-miterlimit="8"
       fill="none"
       id="rect11" />
    <rect
       x="111"
       y="284"
       width="75"
       height="76"
       stroke="#ededed"
       stroke-width="4"
       stroke-miterlimit="8"
       fill="none"
       id="rect13" />
    <rect
       x="111"
       y="209"
       width="75"
       height="75"
       stroke="#ededed"
       stroke-width="4"
       stroke-miterlimit="8"
       fill="none"
       id="rect15" />
    <rect
       x="35"
       y="209"
       width="76"
       height="75"
       stroke="#ededed"
       stroke-width="4"
       stroke-miterlimit="8"
       fill="none"
       id="rect17" />
    <rect
       x="187"
       y="360"
       width="76"
       height="76"
       stroke="#ededed"
       stroke-width="4"
       stroke-miterlimit="8"
       fill="none"
       id="rect19" />
    <rect
       x="187"
       y="284"
       width="76"
       height="76"
       stroke="#ededed"
       stroke-width="4"
       stroke-miterlimit="8"
       fill="none"
       id="rect21" />
    <rect
       x="187"
       y="209"
       width="76"
       height="75"
       stroke="#ededed"
       stroke-width="4"
       stroke-miterlimit="8"
       fill="none"
       id="rect23" />
    <rect
       x="35"
       y="284"
       width="76"
       height="76"
       stroke="#ededed"
       stroke-width="4"
       stroke-miterlimit="8"
       fill="none"
       id="rect25" />
    <path
       d="M 35,360 H 262.422"
       stroke="#bfbfbf"
       stroke-width="4"
       stroke-miterlimit="8"
       stroke-dasharray="12, 4"
       fill="none"
       fill-rule="evenodd"
       id="path27" />
    <text
       font-family="Calibri, Calibri_MSFontService, sans-serif"
       font-weight="400"
       font-size="43px"
       transform="translate(453.043,133)"
       id="text29">Vector subspace</text>
    <path
       d="M 0,0 0.695118,228.31"
       stroke="#bfbfbf"
       stroke-width="4"
       stroke-miterlimit="8"
       stroke-dasharray="12, 4"
       fill="none"
       fill-rule="evenodd"
       transform="matrix(1,0,0,-1,111,437.31)"
       id="path31" />
    <rect
       x="337"
       y="360"
       width="76"
       height="76"
       stroke="#ededed"
       stroke-width="4"
       stroke-miterlimit="8"
       fill="none"
       id="rect33" />
    <rect
       x="413"
       y="360"
       width="75"
       height="76"
       stroke="#ededed"
       stroke-width="4"
       stroke-miterlimit="8"
       fill="none"
       id="rect35" />
    <rect
       x="412"
       y="284"
       width="76"
       height="76"
       stroke="#ededed"
       stroke-width="4"
       stroke-miterlimit="8"
       fill="none"
       id="rect37" />
    <rect
       x="413"
       y="209"
       width="75"
       height="75"
       stroke="#ededed"
       stroke-width="4"
       stroke-miterlimit="8"
       fill="none"
       id="rect39" />
    <rect
       x="337"
       y="209"
       width="76"
       height="75"
       stroke="#ededed"
       stroke-width="4"
       stroke-miterlimit="8"
       fill="none"
       id="rect41" />
    <rect
       x="489"
       y="360"
       width="76"
       height="76"
       stroke="#ededed"
       stroke-width="4"
       stroke-miterlimit="8"
       fill="none"
       id="rect43" />
    <rect
       x="489"
       y="284"
       width="75"
       height="76"
       stroke="#ededed"
       stroke-width="4"
       stroke-miterlimit="8"
       fill="none"
       id="rect45" />
    <rect
       x="489"
       y="209"
       width="75"
       height="75"
       stroke="#ededed"
       stroke-width="4"
       stroke-miterlimit="8"
       fill="none"
       id="rect47" />
    <rect
       x="337"
       y="284"
       width="75"
       height="76"
       stroke="#ededed"
       stroke-width="4"
       stroke-miterlimit="8"
       fill="none"
       id="rect49" />
    <path
       d="M 337,360 H 564.422"
       stroke="#bfbfbf"
       stroke-width="4"
       stroke-miterlimit="8"
       stroke-dasharray="12, 4"
       fill="none"
       fill-rule="evenodd"
       id="path51" />
    <path
       d="M 0,0 0.695118,228.31"
       stroke="#bfbfbf"
       stroke-width="4"
       stroke-miterlimit="8"
       stroke-dasharray="12, 4"
       fill="none"
       fill-rule="evenodd"
       transform="matrix(1,0,0,-1,412,437.31)"
       id="path53" />
    <rect
       x="640"
       y="360"
       width="76"
       height="76"
       stroke="#ededed"
       stroke-width="4"
       stroke-miterlimit="8"
       fill="none"
       id="rect55" />
    <rect
       x="716"
       y="360"
       width="75"
       height="76"
       stroke="#ededed"
       stroke-width="4"
       stroke-miterlimit="8"
       fill="none"
       id="rect57" />
    <rect
       x="716"
       y="284"
       width="75"
       height="76"
       stroke="#ededed"
       stroke-width="4"
       stroke-miterlimit="8"
       fill="none"
       id="rect59" />
    <rect
       x="716"
       y="209"
       width="75"
       height="75"
       stroke="#ededed"
       stroke-width="4"
       stroke-miterlimit="8"
       fill="none"
       id="rect61" />
    <rect
       x="640"
       y="209"
       width="76"
       height="75"
       stroke="#ededed"
       stroke-width="4"
       stroke-miterlimit="8"
       fill="none"
       id="rect63" />
    <rect
       x="792"
       y="360"
       width="76"
       height="76"
       stroke="#ededed"
       stroke-width="4"
       stroke-miterlimit="8"
       fill="none"
       id="rect65" />
    <rect
       x="792"
       y="284"
       width="75"
       height="76"
       stroke="#ededed"
       stroke-width="4"
       stroke-miterlimit="8"
       fill="none"
       id="rect67" />
    <rect
       x="792"
       y="209"
       width="75"
       height="75"
       stroke="#ededed"
       stroke-width="4"
       stroke-miterlimit="8"
       fill="none"
       id="rect69" />
    <rect
       x="640"
       y="284"
       width="76"
       height="76"
       stroke="#ededed"
       stroke-width="4"
       stroke-miterlimit="8"
       fill="none"
       id="rect71" />
    <path
       d="M 640,360 H 867.422"
       stroke="#bfbfbf"
       stroke-width="4"
       stroke-miterlimit="8"
       stroke-dasharray="12, 4"
       fill="none"
       fill-rule="evenodd"
       id="path73" />
    <path
       d="M 0,0 0.695118,228.31"
       stroke="#bfbfbf"
       stroke-width="4"
       stroke-miterlimit="8"
       stroke-dasharray="12, 4"
       fill="none"
       fill-rule="evenodd"
       transform="matrix(1,0,0,-1,716,437.31)"
       id="path75" />
    <rect
       x="942"
       y="360"
       width="76"
       height="76"
       stroke="#ededed"
       stroke-width="4"
       stroke-miterlimit="8"
       fill="none"
       id="rect77" />
    <rect
       x="1018"
       y="360"
       width="75"
       height="76"
       stroke="#ededed"
       stroke-width="4"
       stroke-miterlimit="8"
       fill="none"
       id="rect79" />
    <rect
       x="1018"
       y="284"
       width="75"
       height="76"
       stroke="#ededed"
       stroke-width="4"
       stroke-miterlimit="8"
       fill="none"
       id="rect81" />
    <rect
       x="1018"
       y="209"
       width="75"
       height="75"
       stroke="#ededed"
       stroke-width="4"
       stroke-miterlimit="8"
       fill="none"
       id="rect83" />
    <rect
       x="942"
       y="209"
       width="76"
       height="75"
       stroke="#ededed"
       stroke-width="4"
       stroke-miterlimit="8"
       fill="none"
       id="rect85" />
    <rect
       x="1094"
       y="360"
       width="76"
       height="76"
       stroke="#ededed"
       stroke-width="4"
       stroke-miterlimit="8"
       fill="none"
       id="rect87" />
    <rect
       x="1094"
       y="284"
       width="75"
       height="76"
       stroke="#ededed"
       stroke-width="4"
       stroke-miterlimit="8"
       fill="none"
       id="rect89" />
    <rect
       x="1094"
       y="209"
       width="75"
       height="75"
       stroke="#ededed"
       stroke-width="4"
       stroke-miterlimit="8"
       fill="none"
       id="rect91" />
    <rect
       x="942"
       y="284"
       width="76"
       height="76"
       stroke="#ededed"
       stroke-width="4"
       stroke-miterlimit="8"
       fill="none"
       id="rect93" />
    <path
       d="m 942,360 h 227.42"
       stroke="#bfbfbf"
       stroke-width="4"
       stroke-miterlimit="8"
       stroke-dasharray="12, 4"
       fill="none"
       fill-rule="evenodd"
       id="path95" />
    <path
       d="M 0,0 0.695118,228.31"
       stroke="#bfbfbf"
       stroke-width="4"
       stroke-miterlimit="8"
       stroke-dasharray="12, 4"
       fill="none"
       fill-rule="evenodd"
       transform="matrix(1,0,0,-1,1018,437.31)"
       id="path97" />
    <path
       d="M 4.21375,1.39265 224.722,222.479 221.89,225.304 1.38163,4.21737 Z M 4.37964,16.7499 -0.00654651,-0.00656373 16.7384,4.42341 c 1.0678,0.2825 1.7045,1.37716 1.422,2.445 -0.2825,1.06783 -1.3772,1.70447 -2.445,1.42196 L 2.28497,4.73728 4.73129,2.29734 8.24926,15.737 C 8.52897,16.8055 7.88948,17.8985 6.82091,18.1783 5.75234,18.458 4.65935,17.8185 4.37964,16.7499 Z M 221.724,209.947 l 4.386,16.756 -16.745,-4.43 c -1.067,-0.282 -1.704,-1.377 -1.422,-2.445 0.283,-1.068 1.378,-1.704 2.445,-1.422 l 13.431,3.553 -2.446,2.44 -3.518,-13.44 c -0.28,-1.068 0.359,-2.161 1.428,-2.441 1.068,-0.279 2.161,0.36 2.441,1.429 z"
       fill="#c00000"
       transform="matrix(1,0,0,-1,34,434.696)"
       id="path99" />
    <text
       font-family="Calibri, Calibri_MSFontService, sans-serif"
       font-weight="400"
       font-size="24px"
       transform="translate(75.048,191)"
       id="text111">A subspace of <tspan
   font-family="Cambria, Cambria_MSFontService, sans-serif"
   font-size="24px"
   x="140.547"
   y="0"
   id="tspan101">R</tspan><tspan
   font-family="Cambria, Cambria_MSFontService, sans-serif"
   font-size="16px"
   x="155.38"
   y="-7"
   id="tspan103">2</tspan><tspan
   font-size="24px"
   x="-16.661699"
   y="294"
   id="tspan105">Line contains (0, 0).</tspan><tspan
   font-family="'Cambria Math', 'Cambria Math_MSFontService', sans-serif"
   font-size="24px"
   x="-53.231499"
   y="332"
   id="tspan107">ğ‘£</tspan><tspan
   font-family="'Cambria Math', 'Cambria Math_MSFontService', sans-serif"
   font-size="16px"
   x="-40.231499"
   y="337"
   id="tspan109">1</tspan></text>
    <path
       d="m 40.6977,503.843 2.9414,2.543 v 0.68 l -2.9414,2.543 -0.6211,-0.703 1.875,-1.629 h -4.8105 -2.3379 -1.8021 -2.8913 -1.2554 -2.8846 -4.1466 v -1.102 h 4.1466 2.8846 1.2554 2.8913 1.8021 2.3379 4.8105 l -1.875,-1.629 z"
       fill-rule="evenodd"
       id="path113" />
    <text
       font-family="Calibri, Calibri_MSFontService, sans-serif"
       font-weight="400"
       font-size="24px"
       transform="translate(49.1498,523)"
       id="text119">+ <tspan
   font-family="'Cambria Math', 'Cambria Math_MSFontService', sans-serif"
   font-size="24px"
   x="17.5"
   y="0"
   id="tspan115">ğ‘£</tspan><tspan
   font-family="'Cambria Math', 'Cambria Math_MSFontService', sans-serif"
   font-size="16px"
   x="30.5"
   y="5"
   id="tspan117">1</tspan></text>
    <path
       d="m 85.531,503.843 2.9414,2.543 v 0.68 l -2.9414,2.543 -0.6211,-0.703 1.875,-1.629 h -4.8105 -2.3379 -1.8021 -2.8913 -1.2554 -2.8846 -4.1466 v -1.102 h 4.1466 2.8846 1.2554 2.8913 1.8021 2.3379 4.8105 l -1.875,-1.629 z"
       fill-rule="evenodd"
       id="path121" />
    <text
       font-family="Calibri, Calibri_MSFontService, sans-serif"
       font-weight="400"
       font-size="24px"
       transform="translate(93.9832,523)"
       id="text127">= 2<tspan
   font-family="'Cambria Math', 'Cambria Math_MSFontService', sans-serif"
   font-size="24px"
   x="29.6667"
   y="0"
   id="tspan123">ğ‘£</tspan><tspan
   font-family="'Cambria Math', 'Cambria Math_MSFontService', sans-serif"
   font-size="16px"
   x="42.666698"
   y="5"
   id="tspan125">1</tspan></text>
    <path
       d="m 142.531,503.843 2.941,2.543 v 0.68 l -2.941,2.543 -0.621,-0.703 1.875,-1.629 h -4.811 -2.338 -1.802 -2.891 -1.255 -2.885 -4.147 v -1.102 h 4.147 2.885 1.255 2.891 1.802 2.338 4.811 l -1.875,-1.629 z"
       fill-rule="evenodd"
       id="path129" />
    <text
       font-family="Calibri, Calibri_MSFontService, sans-serif"
       font-weight="400"
       font-size="24px"
       transform="translate(150.983,523)"
       id="text137">is on the line.<tspan
   font-family="'Cambria Math', 'Cambria Math_MSFontService', sans-serif"
   font-size="24px"
   x="-83.807297"
   y="38"
   id="tspan131">ğ‘</tspan><tspan
   font-family="'Cambria Math', 'Cambria Math_MSFontService', sans-serif"
   font-size="24px"
   x="-72.047302"
   y="38"
   id="tspan133">ğ‘£</tspan><tspan
   font-family="'Cambria Math', 'Cambria Math_MSFontService', sans-serif"
   font-size="16px"
   x="-59.047298"
   y="43"
   id="tspan135">1</tspan></text>
    <path
       d="m 97.817,542.197 2.941,2.543 v 0.679 l -2.941,2.543 -0.621,-0.703 1.875,-1.629 h -4.8106 -2.3379 -1.8021 -2.8912 -1.2554 -2.8846 -4.1467 v -1.101 h 4.1467 2.8846 1.2554 2.8912 1.8021 2.3379 4.8106 L 97.196,542.9 Z"
       fill-rule="evenodd"
       id="path139" />
    <text
       font-family="'Cambria Math', 'Cambria Math_MSFontService', sans-serif"
       font-weight="400"
       font-size="16px"
       transform="translate(100.769,571)"
       id="text145"><tspan
         font-family="Calibri, Calibri_MSFontService, sans-serif"
         font-size="24px"
         x="9"
         y="-10"
         id="tspan141">is</tspan><tspan
         font-family="Calibri, Calibri_MSFontService, sans-serif"
         font-size="24px"
         x="29.3333"
         y="-10"
         id="tspan143">on the line.</tspan></text>
    <path
       d="M 4.08068,1.74039 112.811,130.837 109.752,133.414 1.02124,4.31717 Z M 2.95682,17.0586 -0.00597133,-0.00708989 16.3075,5.81414 c 1.0404,0.37122 1.5828,1.5155 1.2116,2.55582 -0.3713,1.04032 -1.5155,1.58273 -2.5559,1.21151 L 1.87886,4.91252 4.52154,2.68674 6.89787,16.3744 C 7.0868,17.4627 6.35774,18.4981 5.26944,18.6871 4.18115,18.876 3.14576,18.1469 2.95682,17.0586 Z M 110.876,118.096 l 2.962,17.066 -16.3131,-5.822 c -1.0403,-0.371 -1.5827,-1.515 -1.2115,-2.556 0.3712,-1.04 1.5155,-1.582 2.5558,-1.211 l 13.0848,4.669 -2.643,2.226 -2.376,-13.688 c -0.189,-1.088 0.54,-2.124 1.628,-2.313 1.088,-0.189 2.124,0.54 2.313,1.629 z"
       fill="#c00000"
       transform="matrix(1,0,0,-1,337,344.154)"
       id="path147" />
    <path
       d="M 4.09064,1.71765 169.67,196.08 166.625,198.674 1.04576,4.31162 Z M 3.05284,17.0417 -0.00601152,-0.00705647 16.34,5.72221 c 1.0424,0.36535 1.5913,1.50656 1.2259,2.54896 -0.3653,1.04239 -1.5066,1.59124 -2.5489,1.22588 L 1.90649,4.90186 4.5366,2.66124 6.98997,16.3353 C 7.18504,17.4225 6.46181,18.462 5.3746,18.6571 4.28739,18.8522 3.2479,18.1289 3.05284,17.0417 Z M 167.663,183.35 l 3.059,17.049 -16.346,-5.73 c -1.043,-0.365 -1.591,-1.506 -1.226,-2.548 0.365,-1.043 1.507,-1.592 2.549,-1.226 l 13.11,4.595 -2.63,2.24 -2.453,-13.674 c -0.195,-1.087 0.528,-2.126 1.615,-2.321 1.088,-0.195 2.127,0.528 2.322,1.615 z"
       fill="#c00000"
       transform="matrix(1,0,0,-1,337,406.392)"
       id="path149" />
    <path
       d="M 4.02591,1.86583 178.429,222.35 175.292,224.832 0.888709,4.34735 Z M 2.43107,17.1415 -0.00575049,-0.00726973 16.1211,6.31265 c 1.0284,0.40302 1.5354,1.56344 1.1324,2.59185 -0.403,1.02842 -1.5634,1.5354 -2.5919,1.1324 L 1.72697,4.96795 4.43682,2.82446 6.39129,16.5787 C 6.54669,17.6723 5.78614,18.6848 4.69255,18.8402 3.59897,18.9956 2.58647,18.2351 2.43107,17.1415 Z M 176.886,209.555 l 2.437,17.149 -16.127,-6.32 c -1.029,-0.403 -1.536,-1.564 -1.133,-2.592 0.403,-1.028 1.564,-1.535 2.592,-1.132 l 12.935,5.069 -2.71,2.143 -1.954,-13.754 c -0.156,-1.094 0.605,-2.106 1.698,-2.262 1.094,-0.155 2.106,0.605 2.262,1.699 z"
       fill="#c00000"
       transform="matrix(1,0,0,-1,373,436.696)"
       id="path151" />
    <path
       d="M 4.04039,1.83124 138.008,168.335 134.891,170.843 0.923909,4.33873 Z M 2.57335,17.1207 -0.00581078,-0.00722215 16.173,6.17854 c 1.0317,0.39447 1.5483,1.55063 1.1539,2.58237 -0.3945,1.03173 -1.5507,1.54829 -2.5824,1.15386 L 1.76817,4.95343 4.46012,2.78751 6.52876,16.5251 c 0.16447,1.0922 -0.58764,2.111 -1.6799,2.2755 C 3.75661,18.9651 2.73783,18.2129 2.57335,17.1207 Z M 136.359,155.554 l 2.579,17.128 -16.179,-6.186 c -1.031,-0.394 -1.548,-1.551 -1.154,-2.582 0.395,-1.032 1.551,-1.549 2.583,-1.154 l 12.976,4.961 -2.692,2.166 -2.068,-13.737 c -0.165,-1.093 0.587,-2.111 1.679,-2.276 1.093,-0.164 2.111,0.588 2.276,1.68 z"
       fill="#c00000"
       transform="matrix(1,0,0,-1,429,434.675)"
       id="path153" />
    <text
       font-family="Calibri, Calibri_MSFontService, sans-serif"
       font-weight="400"
       font-size="24px"
       transform="translate(350.485,192)"
       id="text173">Not a subspace of <tspan
   font-family="Cambria, Cambria_MSFontService, sans-serif"
   font-size="24px"
   x="179.88"
   y="0"
   id="tspan155">R</tspan><tspan
   font-family="Cambria, Cambria_MSFontService, sans-serif"
   font-size="16px"
   x="194.713"
   y="-7"
   id="tspan157">2</tspan><tspan
   font-size="24px"
   x="-33.5201"
   y="293"
   id="tspan159">Line does not contain (0, 0).</tspan><tspan
   font-size="24px"
   x="299.03101"
   y="-1"
   id="tspan161">Not a subspace of</tspan><tspan
   font-family="Cambria, Cambria_MSFontService, sans-serif"
   font-size="24px"
   x="478.91101"
   y="-1"
   id="tspan163">R</tspan><tspan
   font-family="Cambria, Cambria_MSFontService, sans-serif"
   font-size="16px"
   x="493.74399"
   y="-8"
   id="tspan165">2</tspan><tspan
   font-size="24px"
   x="624.28003"
   y="-1"
   id="tspan167">A subspace of</tspan><tspan
   font-family="Cambria, Cambria_MSFontService, sans-serif"
   font-size="24px"
   x="764.82703"
   y="-1"
   id="tspan169">R</tspan><tspan
   font-family="Cambria, Cambria_MSFontService, sans-serif"
   font-size="16px"
   x="779.65997"
   y="-8"
   id="tspan171">2</tspan></text>
    <path
       d="m 1010.5,360 c 0,-4.142 3.36,-7.5 7.5,-7.5 4.14,0 7.5,3.358 7.5,7.5 0,4.142 -3.36,7.5 -7.5,7.5 -4.14,0 -7.5,-3.358 -7.5,-7.5 z"
       stroke="#000000"
       stroke-width="3"
       stroke-miterlimit="8"
       fill="#c00000"
       fill-rule="evenodd"
       id="path175" />
    <text
       font-family="Calibri, Calibri_MSFontService, sans-serif"
       font-weight="400"
       font-size="24px"
       transform="translate(965.574,485)"
       id="text179">Line contains (0, 0).<tspan
   font-family="'Cambria Math', 'Cambria Math_MSFontService', sans-serif"
   font-size="24px"
   x="43.923599"
   y="44"
   id="tspan177">0</tspan></text>
    <path
       d="m 1019.89,504.9 2.94,2.543 v 0.68 l -2.94,2.543 -0.63,-0.703 1.88,-1.629 h -4.6 -2.55 -4.49 v -1.102 h 4.49 2.55 4.6 l -1.88,-1.629 z"
       fill-rule="evenodd"
       id="path181" />
    <text
       font-family="'Cambria Math', 'Cambria Math_MSFontService', sans-serif"
       font-weight="400"
       font-size="24px"
       transform="translate(1022.83,529)"
       id="text187"><tspan
         font-family="Calibri, Calibri_MSFontService, sans-serif"
         font-size="24px"
         x="5.3333101"
         y="0"
         id="tspan183">+</tspan><tspan
         font-size="24px"
         x="22.6667"
         y="0"
         id="tspan185">0</tspan></text>
    <path
       d="m 1055.89,504.9 2.94,2.543 v 0.68 l -2.94,2.543 -0.63,-0.703 1.88,-1.629 h -4.6 -2.55 -4.49 v -1.102 h 4.49 2.55 4.6 l -1.88,-1.629 z"
       fill-rule="evenodd"
       id="path189" />
    <text
       font-family="'Cambria Math', 'Cambria Math_MSFontService', sans-serif"
       font-weight="400"
       font-size="24px"
       transform="translate(1058.83,529)"
       id="text195"><tspan
         font-family="Calibri, Calibri_MSFontService, sans-serif"
         font-size="24px"
         x="5.33325"
         y="0"
         id="tspan191">=</tspan><tspan
         font-size="24px"
         x="22.666599"
         y="0"
         id="tspan193">0</tspan></text>
    <path
       d="m 1091.89,504.9 2.94,2.543 v 0.68 l -2.94,2.543 -0.63,-0.703 1.88,-1.629 h -4.8 -2.35 -0.21 -2.58 -1.89 -2.57 -2.57 v -1.102 h 2.57 2.57 1.89 2.58 0.21 2.35 4.8 l -1.88,-1.629 z"
       fill-rule="evenodd"
       id="path197" />
    <text
       font-family="'Cambria Math', 'Cambria Math_MSFontService', sans-serif"
       font-weight="400"
       font-size="24px"
       transform="translate(1020.03,568)"
       id="text201">ğ‘<tspan
   font-size="24px"
   x="11.7599"
   y="0"
   id="tspan199">0</tspan></text>
    <path
       d="m 1042.18,543.902 2.94,2.543 v 0.68 l -2.94,2.543 -0.62,-0.704 1.88,-1.628 h -4.61 -2.54 -4.49 v -1.102 h 4.49 2.54 4.61 l -1.88,-1.629 z"
       fill-rule="evenodd"
       id="path203" />
    <text
       font-family="'Cambria Math', 'Cambria Math_MSFontService', sans-serif"
       font-weight="400"
       font-size="24px"
       transform="translate(1045.13,568)"
       id="text209"><tspan
         font-family="Calibri, Calibri_MSFontService, sans-serif"
         font-size="24px"
         x="5.3333702"
         y="0"
         id="tspan205">=</tspan><tspan
         font-size="24px"
         x="22.666599"
         y="0"
         id="tspan207">0</tspan></text>
    <path
       d="m 1078.18,543.902 2.94,2.543 v 0.68 l -2.94,2.543 -0.62,-0.704 1.88,-1.628 h -4.61 -2.54 -4.49 v -1.102 h 4.49 2.54 4.61 l -1.88,-1.629 z"
       fill-rule="evenodd"
       id="path211" />
    <path
       d="M 1.40859,-1.41982 149.411,145.412 146.594,148.252 -1.40859,1.41982 Z M 146.345,132.894 l 4.475,16.733 -16.768,-4.341 c -1.07,-0.277 -1.712,-1.369 -1.435,-2.438 0.277,-1.069 1.368,-1.712 2.437,-1.435 l 13.449,3.482 -2.433,2.453 -3.589,-13.421 c -0.285,-1.067 0.348,-2.163 1.415,-2.448 1.067,-0.286 2.164,0.348 2.449,1.415 z"
       fill="#c00000"
       transform="matrix(1,0,0,-1,717,359.621)"
       id="path213" />
    <path
       d="M 1.19912,-1.60066 146.197,107.023 143.798,110.225 -1.19912,1.60066 Z M 141.433,95.0488 l 6.742,15.9552 -17.207,-1.985 c -1.098,-0.127 -1.884,-1.119 -1.758,-2.216 0.127,-1.098 1.119,-1.885 2.216,-1.758 l 13.801,1.592 -2.071,2.766 -5.407,-12.7974 c -0.43,-1.0174 0.046,-2.1908 1.063,-2.6207 1.018,-0.4299 2.191,0.0464 2.621,1.0639 z"
       fill="#c00000"
       transform="matrix(1,0,0,-1,719,357.999)"
       id="path215" />
    <path
       d="M 0.901953,-1.78507 152.036,74.5791 150.232,78.1493 -0.901953,1.78507 Z M 145.259,63.6172 l 9.418,14.537 -17.29,1.0424 c -1.103,0.0664 -2.05,-0.7735 -2.117,-1.8761 -0.066,-1.1025 0.774,-2.0502 1.876,-2.1167 l 13.867,-0.836 -1.558,3.0838 -7.553,-11.6595 c -0.601,-0.927 -0.336,-2.1654 0.591,-2.766 0.927,-0.6005 2.165,-0.3359 2.766,0.5911 z"
       fill="#c00000"
       transform="matrix(1,0,0,-1,715,358.15)"
       id="path217" />
    <path
       d="M 1.58476,-1.22006 115.035,146.143 111.866,148.583 -1.58476,1.22006 Z M 113.66,133.328 l 2.211,17.179 -16.042,-6.531 c -1.0231,-0.416 -1.5148,-1.583 -1.0983,-2.606 0.4165,-1.023 1.5833,-1.515 2.6063,-1.099 l 12.867,5.239 -2.738,2.107 -1.773,-13.778 c -0.141,-1.096 0.633,-2.098 1.728,-2.239 1.096,-0.141 2.098,0.632 2.239,1.728 z"
       fill="#c00000"
       transform="matrix(1,0,0,-1,715,356.5)"
       id="path219" />
    <path
       d="M 1.83665,-0.79165 66.593,149.445 62.9197,151.028 -1.83665,0.79165 Z M 68.4199,136.687 66.3273,153.881 52.3905,143.596 c -0.8888,-0.655 -1.0776,-1.908 -0.4217,-2.796 0.6559,-0.889 1.908,-1.078 2.7968,-0.422 l 11.1782,8.249 -3.1729,1.368 1.6783,-13.791 c 0.1335,-1.096 1.1306,-1.877 2.227,-1.744 1.0965,0.134 1.8772,1.131 1.7437,2.227 z"
       fill="#c00000"
       transform="matrix(1,0,0,-1,717,360.873)"
       id="path221" />
    <path
       d="M 0.495417,-1.93767 146.123,35.2959 145.132,39.1712 -0.495417,1.93767 Z M 137.139,26.0549 149.472,38.2166 132.815,42.966 c -1.062,0.3029 -2.169,-0.3127 -2.472,-1.3749 -0.303,-1.0622 0.313,-2.1689 1.375,-2.4717 l 13.36,-3.8094 -0.856,3.3474 -9.892,-9.7543 c -0.786,-0.7756 -0.795,-2.0419 -0.02,-2.8284 0.776,-0.7865 2.042,-0.7953 2.829,-0.0198 z"
       fill="#c00000"
       transform="matrix(1,0,0,-1,718,360.214)"
       id="path223" />
    <path
       d="M 0.00564321,-1.99999 153.063,-1.56812 153.052,2.43186 -0.00564321,1.99999 Z M 142.09,-8.32667 157.027,0.443071 142.041,9.12838 c -0.955,0.55386 -2.179,0.22814 -2.733,-0.72753 -0.554,-0.95567 -0.228,-2.1794 0.728,-2.73326 l 12.019,-6.96611 -0.01,3.4551 -11.98,-7.03383 c -0.952,-0.55925 -1.271,-1.78479 -0.712,-2.73732 0.559,-0.95253 1.785,-1.27135 2.737,-0.7121 z"
       fill="#c00000"
       transform="matrix(1,0,0,-1,715,359.443)"
       id="path225" />
    <path
       d="M 1.94156,-0.479936 38.5659,147.682 34.6828,148.642 -1.94156,0.479936 Z M 42.459,135.396 37.5767,152.015 25.5139,139.585 c -0.7693,-0.793 -0.7503,-2.059 0.0424,-2.828 0.7926,-0.769 2.0588,-0.75 2.8281,0.042 l 9.6751,9.97 -3.3542,0.829 3.9159,-13.329 c 0.3113,-1.06 1.4228,-1.666 2.4826,-1.355 1.0598,0.311 1.6665,1.423 1.3552,2.482 z"
       fill="#c00000"
       transform="matrix(1,0,0,-1,716,361.006)"
       id="path227" />
    <path
       d="M 1.99999,-0.00722226 2.53435,147.968 -1.46563,147.982 -1.99999,0.00722226 Z M 9.22217,136.951 0.548694,151.944 -8.23283,137.014 c -0.56001,-0.952 -0.24216,-2.177 0.70993,-2.737 0.95209,-0.56 2.17788,-0.243 2.73788,0.71 l 7.04329,11.974 -3.45509,0.013 6.95662,-12.026 c 0.55311,-0.956 1.77657,-1.282 2.73268,-0.729 0.95611,0.553 1.2828,1.776 0.72969,2.732 z"
       fill="#c00000"
       transform="matrix(1,0,0,-1,716,359.935)"
       id="path229" />
    <text
       font-family="Calibri, Calibri_MSFontService, sans-serif"
       font-weight="400"
       font-size="24px"
       transform="translate(688.756,561)"
       id="text239">âˆ’<tspan
   font-family="'Cambria Math', 'Cambria Math_MSFontService', sans-serif"
   font-size="24px"
   x="12"
   y="0"
   id="tspan231">ğ‘</tspan><tspan
   font-family="'Cambria Math', 'Cambria Math_MSFontService', sans-serif"
   font-size="24px"
   x="29.093399"
   y="0"
   id="tspan233">Ã—</tspan><tspan
   font-family="'Cambria Math', 'Cambria Math_MSFontService', sans-serif"
   font-size="24px"
   x="51.593399"
   y="0"
   id="tspan235">ğ‘£</tspan><tspan
   font-family="'Cambria Math', 'Cambria Math_MSFontService', sans-serif"
   font-size="16px"
   x="64.593399"
   y="5"
   id="tspan237">1</tspan></text>
    <path
       d="m 759.231,542.197 2.941,2.543 v 0.679 l -2.941,2.543 -0.622,-0.703 1.875,-1.629 h -4.81 -2.338 -1.802 -2.891 -1.256 -2.884 -4.147 v -1.101 h 4.147 2.884 1.256 2.891 1.802 2.338 4.81 l -1.875,-1.629 z"
       fill-rule="evenodd"
       id="path241" />
    <text
       font-family="'Cambria Math', 'Cambria Math_MSFontService', sans-serif"
       font-weight="400"
       font-size="16px"
       transform="translate(762.183,571)"
       id="text249"><tspan
         font-family="Calibri, Calibri_MSFontService, sans-serif"
         font-size="24px"
         x="9"
         y="-10"
         id="tspan243">fails</tspan><tspan
         font-size="24px"
         x="-74.783203"
         y="-46"
         id="tspan245">ğ‘£</tspan><tspan
         font-size="16px"
         x="-61.783199"
         y="-41"
         id="tspan247">1</tspan></text>
    <path
       d="m 706.281,505.956 2.941,2.543 v 0.68 l -2.941,2.543 -0.621,-0.703 1.875,-1.629 h -4.811 -2.338 -1.802 -2.891 -1.256 -2.884 -4.147 v -1.102 h 4.147 2.884 1.256 2.891 1.802 2.338 4.811 l -1.875,-1.629 z"
       fill-rule="evenodd"
       id="path251" />
    <text
       font-family="Calibri, Calibri_MSFontService, sans-serif"
       font-weight="400"
       font-size="24px"
       transform="translate(714.733,525)"
       id="text259">+ âˆ’<tspan
   font-family="'Cambria Math', 'Cambria Math_MSFontService', sans-serif"
   font-size="24px"
   x="29.5"
   y="0"
   id="tspan253" /><tspan
   font-family="'Cambria Math', 'Cambria Math_MSFontService', sans-serif"
   font-size="24px"
   x="34.833401"
   y="0"
   id="tspan255">ğ‘£</tspan><tspan
   font-family="'Cambria Math', 'Cambria Math_MSFontService', sans-serif"
   font-size="16px"
   x="47.833401"
   y="5"
   id="tspan257">2</tspan></text>
    <path
       d="m 768.447,505.956 2.942,2.543 v 0.68 l -2.942,2.543 -0.621,-0.703 1.875,-1.629 h -4.81 -2.338 -1.802 -2.892 -1.255 -2.885 -4.146 v -1.102 h 4.146 2.885 1.255 2.892 1.802 2.338 4.81 l -1.875,-1.629 z"
       fill-rule="evenodd"
       id="path261" />
    <text
       font-family="Calibri, Calibri_MSFontService, sans-serif"
       font-weight="400"
       font-size="24px"
       transform="translate(776.899,525)"
       id="text263">fails</text>
    <path
       d="M 4.08958,1.71979 84.0429,95.6772 80.9966,98.2695 1.04326,4.31207 Z M 3.04337,17.0434 -0.00600742,-0.00705955 16.3368,5.73129 c 1.0422,0.36593 1.5905,1.50745 1.2245,2.54964 -0.3659,1.04219 -1.5074,1.59041 -2.5496,1.22447 L 1.90377,4.90292 4.53512,2.66376 6.98089,16.3392 C 7.17535,17.4265 6.45155,18.4656 5.36423,18.6601 4.27691,18.8545 3.23783,18.1307 3.04337,17.0434 Z M 82.0428,82.9459 85.0922,99.9963 68.7494,94.258 c -1.0422,-0.3659 -1.5905,-1.5074 -1.2245,-2.5496 0.3659,-1.0422 1.5074,-1.5904 2.5496,-1.2245 l 13.1079,4.6025 -2.6313,2.2391 -2.4458,-13.6754 c -0.1945,-1.0873 0.5294,-2.1264 1.6167,-2.3209 1.0873,-0.1944 2.1264,0.5294 2.3208,1.6167 z"
       fill="#c00000"
       transform="matrix(1,0,0,-1,483,436.989)"
       id="path265" />
    <path
       d="M 4.10162,1.69025 62.3588,69.166 59.3311,71.7801 1.07394,4.30429 Z M 3.16537,17.0212 -0.00605787,-0.00701649 16.3775,5.61412 c 1.0448,0.35846 1.6011,1.49602 1.2427,2.5408 -0.3585,1.04479 -1.496,1.60116 -2.5408,1.2427 L 1.93884,4.88915 4.55408,2.63121 7.09775,16.2888 c 0.20225,1.0859 -0.5141,2.1301 -1.59999,2.3324 -1.0859,0.2022 -2.13014,-0.5141 -2.33239,-1.6 z m 57.10213,39.428 3.1714,17.0283 -16.3835,-5.6212 c -1.0448,-0.3585 -1.6012,-1.496 -1.2427,-2.5408 0.3585,-1.0448 1.496,-1.6012 2.5408,-1.2427 l 13.1405,4.5085 -2.6152,2.2579 -2.5437,-13.6576 c -0.2022,-1.0859 0.5141,-2.1301 1.6,-2.3323 1.0859,-0.2023 2.1302,0.5141 2.3324,1.5999 z"
       fill="#c00000"
       transform="matrix(1,0,0,-1,333,281.47)"
       id="path267" />
  </g>
</svg>
