<?xml version="1.0" encoding="UTF-8" standalone="no"?>
<svg
   width="1280"
   height="390"
   overflow="hidden"
   version="1.1"
   id="svg189"
   sodipodi:docname="linear_systems-matrix_scalar_multiplication.svg"
   inkscape:version="1.2 (dc2aedaf03, 2022-05-15)"
   xmlns:inkscape="http://www.inkscape.org/namespaces/inkscape"
   xmlns:sodipodi="http://sodipodi.sourceforge.net/DTD/sodipodi-0.dtd"
   xmlns="http://www.w3.org/2000/svg"
   xmlns:svg="http://www.w3.org/2000/svg">
  <sodipodi:namedview
     id="namedview191"
     pagecolor="#ffffff"
     bordercolor="#000000"
     borderopacity="0.25"
     inkscape:showpageshadow="2"
     inkscape:pageopacity="0.0"
     inkscape:pagecheckerboard="0"
     inkscape:deskcolor="#d1d1d1"
     showgrid="false"
     inkscape:zoom="0.92709556"
     inkscape:cx="508.57756"
     inkscape:cy="306.33304"
     inkscape:window-width="2560"
     inkscape:window-height="1494"
     inkscape:window-x="-11"
     inkscape:window-y="-11"
     inkscape:window-maximized="1"
     inkscape:current-layer="svg189" />
  <defs
     id="defs5" />
  <rect
     x="42.03511"
     y="-148.23178"
     width="1280"
     height="720"
     fill="#ffffff"
     id="rect7" />
  <text
     font-family="Calibri, Calibri_MSFontService, sans-serif"
     font-weight="400"
     font-size="43px"
     id="text11"
     x="424.27298"
     y="60.318676">Matrix <tspan
   font-size="43px"
   x="548.04596"
   y="60.318676"
   id="tspan9">scalar multiplication</tspan></text>
  <path
     d="m 428.03511,159.48521 c 0,-8.68 7.037,-15.717 15.717,-15.717 h 103.566 c 8.68,0 15.717,7.037 15.717,15.717 v 90.566 c 0,8.68 -7.037,15.717 -15.717,15.717 h -103.566 c -8.68,0 -15.717,-7.037 -15.717,-15.717 z"
     fill="#e2f0d9"
     fill-rule="evenodd"
     id="path13" />
  <path
     d="m 447.28811,152.52421 h 0.86 c -0.063,1 -0.094,2.385 -0.094,4.156 v 13.344 c 0,0.604 0.034,1.06 0.101,1.367 0.068,0.308 0.188,0.558 0.36,0.75 0.172,0.193 0.419,0.344 0.742,0.453 0.323,0.11 0.729,0.193 1.219,0.25 0.489,0.058 1.135,0.097 1.937,0.118 v 1.14 h -11.547 v -1.14 c 1.157,-0.053 1.982,-0.123 2.477,-0.211 0.495,-0.089 0.872,-0.222 1.133,-0.399 0.26,-0.177 0.45,-0.427 0.57,-0.75 0.12,-0.323 0.18,-0.849 0.18,-1.578 v -12.672 c 0,-0.416 -0.073,-0.721 -0.219,-0.914 -0.146,-0.193 -0.359,-0.289 -0.641,-0.289 -0.333,0 -0.807,0.172 -1.422,0.516 -0.614,0.343 -1.375,0.817 -2.281,1.422 l -0.687,-1.204 z"
     fill-rule="evenodd"
     id="path15" />
  <text
     fill="#000000"
     fill-opacity="0"
     font-family="Arial, Arial_MSFontService, sans-serif"
     font-size="21.5781px"
     x="439.9761"
     y="171.40521"
     id="text17">1</text>
  <path
     d="m 495.72111,153.85221 c -0.719,0 -1.321,0.214 -1.805,0.641 -0.485,0.427 -0.875,1.041 -1.172,1.844 -0.297,0.802 -0.508,1.778 -0.633,2.929 -0.125,1.151 -0.187,2.451 -0.187,3.899 0,3.396 0.315,5.888 0.945,7.476 0.63,1.589 1.607,2.383 2.93,2.383 1.26,0 2.195,-0.747 2.804,-2.242 0.61,-1.495 0.914,-3.81 0.914,-6.945 0,-2.396 -0.156,-4.336 -0.468,-5.821 -0.313,-1.484 -0.748,-2.549 -1.305,-3.195 -0.557,-0.646 -1.232,-0.969 -2.023,-0.969 z m 0.078,-1.328 c 2.281,0 3.979,0.88 5.093,2.641 1.115,1.76 1.672,4.422 1.672,7.984 0,3.688 -0.596,6.477 -1.789,8.367 -1.193,1.891 -2.935,2.836 -5.226,2.836 -2.25,0 -3.925,-0.885 -5.024,-2.656 -1.099,-1.771 -1.648,-4.458 -1.648,-8.063 0,-1.916 0.169,-3.572 0.508,-4.968 0.338,-1.396 0.812,-2.55 1.421,-3.461 0.61,-0.912 1.342,-1.586 2.196,-2.024 0.854,-0.437 1.786,-0.656 2.797,-0.656 z"
     fill-rule="evenodd"
     id="path19" />
  <text
     fill="#000000"
     fill-opacity="0"
     font-family="Arial, Arial_MSFontService, sans-serif"
     font-size="21.8281px"
     x="488.87711"
     y="171.62421"
     id="text21">0</text>
  <path
     d="m 546.41811,156.19621 -6.109,9.703 v 0.219 h 6.109 v -3.891 c 0,-0.979 0.016,-2.075 0.047,-3.289 0.032,-1.213 0.068,-2.127 0.11,-2.742 z m 0.454,-3.531 h 2.234 v 13.453 h 0.328 c 0.604,0 1.037,-0.044 1.297,-0.133 0.26,-0.089 0.476,-0.245 0.648,-0.469 0.172,-0.224 0.331,-0.591 0.477,-1.101 h 1.187 l -0.187,3.218 h -3.75 v 2.563 c 0,0.698 0.023,1.208 0.07,1.531 0.047,0.323 0.125,0.578 0.235,0.766 0.109,0.187 0.27,0.344 0.484,0.469 0.214,0.125 0.56,0.25 1.039,0.375 v 0.765 h -6.344 v -0.765 c 0.646,-0.167 1.078,-0.352 1.297,-0.555 0.219,-0.203 0.362,-0.492 0.43,-0.867 0.068,-0.375 0.101,-0.948 0.101,-1.719 v -2.563 h -8.687 v -1.171 z"
     fill-rule="evenodd"
     id="path23" />
  <text
     fill="#000000"
     fill-opacity="0"
     font-family="Arial, Arial_MSFontService, sans-serif"
     font-size="21.4375px"
     x="537.73114"
     y="171.42221"
     id="text25">4</text>
  <path
     d="m 446.17911,190.03721 c 1.937,0 3.401,0.425 4.39,1.274 0.99,0.849 1.485,2.081 1.485,3.695 0,0.552 -0.055,1.06 -0.164,1.524 -0.11,0.463 -0.281,0.921 -0.516,1.375 -0.234,0.453 -0.549,0.94 -0.945,1.461 -0.396,0.52 -0.833,1.049 -1.313,1.585 -0.479,0.537 -1.307,1.43 -2.484,2.68 -1.979,2.094 -3.432,3.922 -4.359,5.485 h 5.89 c 0.511,0 0.922,-0.032 1.235,-0.094 0.312,-0.063 0.562,-0.167 0.75,-0.313 0.187,-0.146 0.336,-0.336 0.445,-0.57 0.109,-0.234 0.247,-0.596 0.414,-1.086 h 1.328 l -0.266,4.563 h -12.859 v -0.75 c 0.448,-1.094 1.052,-2.214 1.813,-3.36 0.76,-1.146 1.838,-2.495 3.234,-4.047 1.208,-1.333 2.078,-2.343 2.609,-3.031 0.584,-0.75 1.019,-1.398 1.305,-1.945 0.287,-0.547 0.492,-1.063 0.617,-1.547 0.125,-0.485 0.188,-0.972 0.188,-1.461 0,-0.781 -0.125,-1.471 -0.375,-2.07 -0.25,-0.599 -0.633,-1.071 -1.149,-1.414 -0.515,-0.344 -1.164,-0.516 -1.945,-0.516 -1.948,0 -3.26,1.083 -3.938,3.25 h -1.89 v -3 c 1.26,-0.594 2.44,-1.024 3.539,-1.289 1.099,-0.266 2.086,-0.399 2.961,-0.399 z"
     fill-rule="evenodd"
     id="path27" />
  <text
     fill="#000000"
     fill-opacity="0"
     font-family="Arial, Arial_MSFontService, sans-serif"
     font-size="21.5781px"
     x="439.21008"
     y="208.91821"
     id="text29">2</text>
  <path
     d="m 495.72111,191.36621 c -0.719,0 -1.321,0.213 -1.805,0.64 -0.485,0.427 -0.875,1.042 -1.172,1.844 -0.297,0.802 -0.508,1.779 -0.633,2.93 -0.125,1.151 -0.187,2.45 -0.187,3.898 0,3.396 0.315,5.888 0.945,7.477 0.63,1.588 1.607,2.382 2.93,2.382 1.26,0 2.195,-0.747 2.804,-2.242 0.61,-1.495 0.914,-3.81 0.914,-6.945 0,-2.396 -0.156,-4.336 -0.468,-5.82 -0.313,-1.485 -0.748,-2.55 -1.305,-3.196 -0.557,-0.646 -1.232,-0.968 -2.023,-0.968 z m 0.078,-1.329 c 2.281,0 3.979,0.881 5.093,2.641 1.115,1.76 1.672,4.422 1.672,7.984 0,3.688 -0.596,6.477 -1.789,8.368 -1.193,1.89 -2.935,2.836 -5.226,2.836 -2.25,0 -3.925,-0.886 -5.024,-2.657 -1.099,-1.771 -1.648,-4.458 -1.648,-8.062 0,-1.917 0.169,-3.573 0.508,-4.969 0.338,-1.396 0.812,-2.549 1.421,-3.461 0.61,-0.911 1.342,-1.586 2.196,-2.023 0.854,-0.438 1.786,-0.657 2.797,-0.657 z"
     fill-rule="evenodd"
     id="path31" />
  <text
     fill="#000000"
     fill-opacity="0"
     font-family="Arial, Arial_MSFontService, sans-serif"
     font-size="21.8281px"
     x="488.87711"
     y="209.13721"
     id="text33">0</text>
  <path
     d="m 549.88711,189.25621 h 1.219 l -0.234,3.625 h -8.985 v 6.86 c 0.542,-0.23 1.13,-0.402 1.766,-0.516 0.635,-0.115 1.271,-0.172 1.906,-0.172 1.24,0 2.339,0.253 3.297,0.758 0.958,0.505 1.698,1.224 2.219,2.156 0.521,0.932 0.781,2.013 0.781,3.242 0,1.396 -0.292,2.594 -0.875,3.594 -0.583,1 -1.427,1.76 -2.531,2.281 -1.104,0.521 -2.412,0.782 -3.922,0.782 -1.802,0 -3.688,-0.37 -5.656,-1.11 v -3.312 h 1.89 c 0.313,1.062 0.784,1.843 1.414,2.343 0.63,0.5 1.446,0.75 2.446,0.75 1.385,0 2.432,-0.416 3.14,-1.25 0.709,-0.833 1.063,-2.078 1.063,-3.734 0,-1.104 -0.188,-2.018 -0.563,-2.742 -0.375,-0.724 -0.88,-1.248 -1.515,-1.57 -0.636,-0.323 -1.375,-0.485 -2.219,-0.485 -0.709,0 -1.318,0.044 -1.828,0.133 -0.511,0.088 -1.058,0.227 -1.641,0.414 l -1.25,-0.734 v -10.282 h 8.609 c 0.355,0 0.61,-0.028 0.766,-0.086 0.156,-0.057 0.281,-0.145 0.375,-0.265 0.094,-0.12 0.203,-0.347 0.328,-0.68 z"
     fill-rule="evenodd"
     id="path35" />
  <text
     fill="#000000"
     fill-opacity="0"
     font-family="Arial, Arial_MSFontService, sans-serif"
     font-size="22.6094px"
     x="538.87213"
     y="209.03922"
     id="text37">5</text>
  <path
     d="m 446.11611,227.55121 c 1.177,0 2.209,0.182 3.094,0.547 0.886,0.364 1.563,0.888 2.031,1.57 0.469,0.682 0.703,1.497 0.703,2.445 0,0.886 -0.177,1.664 -0.531,2.336 -0.354,0.672 -0.851,1.258 -1.492,1.758 -0.641,0.5 -1.471,0.99 -2.492,1.469 v 0.14 c 0.635,0.115 1.247,0.31 1.836,0.586 0.588,0.276 1.112,0.633 1.57,1.071 0.458,0.437 0.826,0.961 1.102,1.57 0.276,0.609 0.414,1.305 0.414,2.086 0,1.208 -0.263,2.281 -0.789,3.219 -0.526,0.937 -1.331,1.677 -2.414,2.218 -1.084,0.542 -2.401,0.813 -3.954,0.813 -0.895,0 -1.861,-0.102 -2.898,-0.305 -1.036,-0.203 -1.987,-0.471 -2.852,-0.805 v -3.312 h 1.875 c 0.365,1.083 0.847,1.87 1.446,2.359 0.599,0.49 1.414,0.735 2.445,0.735 1.354,0 2.378,-0.37 3.07,-1.11 0.693,-0.739 1.039,-1.833 1.039,-3.281 0,-1.521 -0.458,-2.682 -1.375,-3.484 -0.916,-0.802 -2.26,-1.203 -4.031,-1.203 h -1.406 v -1.375 c 1.406,-0.084 2.591,-0.355 3.555,-0.813 0.963,-0.458 1.679,-1.047 2.148,-1.766 0.469,-0.718 0.703,-1.526 0.703,-2.421 0,-1.157 -0.307,-2.047 -0.922,-2.672 -0.614,-0.625 -1.51,-0.938 -2.687,-0.938 -0.979,0 -1.776,0.266 -2.391,0.797 -0.614,0.531 -1.067,1.344 -1.359,2.438 h -1.875 v -2.969 c 1.208,-0.573 2.338,-1 3.39,-1.281 1.053,-0.282 2.068,-0.422 3.047,-0.422 z"
     fill-rule="evenodd"
     id="path39" />
  <text
     fill="#000000"
     fill-opacity="0"
     font-family="Arial, Arial_MSFontService, sans-serif"
     font-size="21.8281px"
     x="439.44409"
     y="246.65019"
     id="text41">3</text>
  <path
     d="m 495.72111,228.87921 c -0.719,0 -1.321,0.213 -1.805,0.64 -0.485,0.428 -0.875,1.042 -1.172,1.844 -0.297,0.802 -0.508,1.779 -0.633,2.93 -0.125,1.151 -0.187,2.45 -0.187,3.898 0,3.396 0.315,5.888 0.945,7.477 0.63,1.588 1.607,2.383 2.93,2.383 1.26,0 2.195,-0.748 2.804,-2.242 0.61,-1.495 0.914,-3.81 0.914,-6.946 0,-2.396 -0.156,-4.336 -0.468,-5.82 -0.313,-1.484 -0.748,-2.55 -1.305,-3.195 -0.557,-0.646 -1.232,-0.969 -2.023,-0.969 z m 0.078,-1.328 c 2.281,0 3.979,0.88 5.093,2.64 1.115,1.761 1.672,4.422 1.672,7.985 0,3.687 -0.596,6.476 -1.789,8.367 -1.193,1.891 -2.935,2.836 -5.226,2.836 -2.25,0 -3.925,-0.886 -5.024,-2.656 -1.099,-1.771 -1.648,-4.459 -1.648,-8.063 0,-1.917 0.169,-3.573 0.508,-4.969 0.338,-1.396 0.812,-2.549 1.421,-3.461 0.61,-0.911 1.342,-1.586 2.196,-2.023 0.854,-0.438 1.786,-0.656 2.797,-0.656 z"
     fill-rule="evenodd"
     id="path43" />
  <text
     fill="#000000"
     fill-opacity="0"
     font-family="Arial, Arial_MSFontService, sans-serif"
     font-size="21.8281px"
     x="488.87711"
     y="246.65019"
     id="text45">0</text>
  <path
     d="m 546.10611,237.87921 c -0.51,0 -1.003,0.057 -1.477,0.172 -0.474,0.114 -0.919,0.281 -1.336,0.5 -0.416,0.218 -0.822,0.494 -1.218,0.828 -0.125,0.114 -0.219,0.234 -0.282,0.359 -0.104,0.198 -0.171,0.443 -0.203,0.735 -0.031,0.291 -0.047,0.781 -0.047,1.468 0,1.99 0.334,3.506 1,4.547 0.667,1.042 1.678,1.563 3.032,1.563 0.781,0 1.437,-0.136 1.968,-0.407 0.532,-0.27 0.961,-0.643 1.289,-1.117 0.329,-0.474 0.563,-1.031 0.704,-1.672 0.14,-0.64 0.211,-1.336 0.211,-2.086 0,-1.541 -0.318,-2.742 -0.954,-3.601 -0.635,-0.859 -1.531,-1.289 -2.687,-1.289 z m 4.016,-10.328 0.64,0.859 v 0.766 c -1.604,0 -3.026,0.343 -4.265,1.031 -1.24,0.687 -2.269,1.698 -3.086,3.031 -0.818,1.334 -1.394,2.917 -1.727,4.75 l 0.156,0.063 c 0.875,-0.625 1.737,-1.084 2.586,-1.375 0.849,-0.292 1.768,-0.438 2.758,-0.438 1.177,0 2.18,0.258 3.008,0.774 0.828,0.515 1.45,1.239 1.867,2.172 0.417,0.932 0.625,2.023 0.625,3.273 0,1.354 -0.26,2.549 -0.781,3.586 -0.521,1.036 -1.326,1.851 -2.414,2.445 -1.089,0.594 -2.43,0.891 -4.024,0.891 -2.281,0 -4.002,-0.709 -5.164,-2.125 -1.161,-1.417 -1.742,-3.505 -1.742,-6.266 0,-1.854 0.292,-3.588 0.875,-5.203 0.583,-1.615 1.412,-3.023 2.484,-4.226 1.073,-1.204 2.318,-2.152 3.735,-2.844 1.416,-0.693 2.906,-1.081 4.469,-1.164 z"
     fill-rule="evenodd"
     id="path47" />
  <text
     fill="#000000"
     fill-opacity="0"
     font-family="Arial, Arial_MSFontService, sans-serif"
     font-size="21.8281px"
     x="538.55908"
     y="246.65019"
     id="text49">6</text>
  <text
     font-family="Calibri, Calibri_MSFontService, sans-serif"
     font-weight="400"
     font-size="43px"
     id="text53"
     x="484.81311"
     y="127.76822">A<tspan
   font-size="43px"
   x="587.78412"
   y="214.76822"
   id="tspan51">=</tspan></text>
  <path
     d="m 636.03511,158.48521 c 0,-8.68 7.037,-15.717 15.717,-15.717 h 281.566 c 8.68,0 15.717,7.037 15.717,15.717 v 90.566 c 0,8.68 -7.037,15.717 -15.717,15.717 h -281.566 c -8.68,0 -15.717,-7.037 -15.717,-15.717 z"
     fill="#e2f0d9"
     fill-rule="evenodd"
     id="path55" />
  <path
     d="m 660.61911,152.71721 c 1.177,0 2.208,0.182 3.094,0.547 0.885,0.364 1.562,0.888 2.031,1.57 0.469,0.682 0.703,1.498 0.703,2.446 0,0.885 -0.177,1.664 -0.531,2.335 -0.354,0.672 -0.852,1.258 -1.492,1.758 -0.641,0.5 -1.472,0.99 -2.493,1.469 v 0.141 c 0.636,0.114 1.248,0.31 1.836,0.586 0.589,0.276 1.112,0.632 1.571,1.07 0.458,0.437 0.825,0.961 1.101,1.57 0.276,0.61 0.414,1.305 0.414,2.086 0,1.208 -0.263,2.281 -0.789,3.219 -0.526,0.937 -1.331,1.677 -2.414,2.219 -1.083,0.541 -2.401,0.812 -3.953,0.812 -0.896,0 -1.862,-0.101 -2.898,-0.305 -1.037,-0.203 -1.987,-0.471 -2.852,-0.804 v -3.313 h 1.875 c 0.365,1.084 0.846,1.87 1.445,2.36 0.599,0.489 1.414,0.734 2.446,0.734 1.354,0 2.377,-0.37 3.07,-1.109 0.693,-0.74 1.039,-1.834 1.039,-3.282 0,-1.52 -0.458,-2.682 -1.375,-3.484 -0.917,-0.802 -2.26,-1.203 -4.031,-1.203 h -1.407 v -1.375 c 1.407,-0.083 2.592,-0.354 3.555,-0.813 0.964,-0.458 1.68,-1.046 2.149,-1.765 0.468,-0.719 0.703,-1.526 0.703,-2.422 0,-1.156 -0.308,-2.047 -0.922,-2.672 -0.615,-0.625 -1.511,-0.937 -2.688,-0.937 -0.979,0 -1.776,0.265 -2.39,0.796 -0.615,0.532 -1.068,1.344 -1.36,2.438 h -1.875 v -2.969 c 1.209,-0.573 2.339,-1 3.391,-1.281 1.052,-0.281 2.068,-0.422 3.047,-0.422 z"
     fill-rule="evenodd"
     id="path57" />
  <text
     fill="#000000"
     fill-opacity="0"
     font-family="Arial, Arial_MSFontService, sans-serif"
     font-size="21.8281px"
     x="653.94708"
     y="171.81723"
     id="text59">3</text>
  <path
     d="m 680.88311,156.59221 7.078,7.063 7.079,-7.063 1.468,1.453 -7,7.125 7.016,7.094 -1.563,1.562 -7,-7.14 -7.218,7.078 -1.453,-1.469 7.14,-7.125 -7.109,-7.015 z"
     fill-rule="evenodd"
     id="path61" />
  <text
     fill="#000000"
     fill-opacity="0"
     font-family="Arial, Arial_MSFontService, sans-serif"
     font-size="17.2344px"
     x="679.2901"
     y="171.67221"
     id="text63">×</text>
  <path
     d="m 716.51711,152.71721 h 0.86 c -0.063,1 -0.094,2.385 -0.094,4.156 v 13.344 c 0,0.604 0.034,1.06 0.102,1.367 0.067,0.307 0.187,0.557 0.359,0.75 0.172,0.193 0.419,0.344 0.742,0.453 0.323,0.11 0.729,0.193 1.219,0.25 0.489,0.058 1.135,0.097 1.937,0.118 v 1.14 h -11.546 v -1.14 c 1.156,-0.053 1.981,-0.123 2.476,-0.211 0.495,-0.089 0.872,-0.222 1.133,-0.399 0.26,-0.177 0.45,-0.427 0.57,-0.75 0.12,-0.323 0.18,-0.849 0.18,-1.578 v -12.672 c 0,-0.417 -0.073,-0.721 -0.219,-0.914 -0.146,-0.193 -0.359,-0.289 -0.64,-0.289 -0.334,0 -0.808,0.172 -1.422,0.516 -0.615,0.343 -1.375,0.817 -2.282,1.422 l -0.687,-1.204 z"
     fill-rule="evenodd"
     id="path65" />
  <text
     fill="#000000"
     fill-opacity="0"
     font-family="Arial, Arial_MSFontService, sans-serif"
     font-size="21.5781px"
     x="709.20508"
     y="171.59821"
     id="text67">1</text>
  <path
     d="m 765.01211,152.71721 c 1.177,0 2.209,0.182 3.094,0.547 0.885,0.364 1.562,0.888 2.031,1.57 0.469,0.682 0.703,1.498 0.703,2.446 0,0.885 -0.177,1.664 -0.531,2.335 -0.354,0.672 -0.851,1.258 -1.492,1.758 -0.641,0.5 -1.471,0.99 -2.492,1.469 v 0.141 c 0.635,0.114 1.247,0.31 1.836,0.586 0.588,0.276 1.112,0.632 1.57,1.07 0.458,0.437 0.825,0.961 1.102,1.57 0.276,0.61 0.414,1.305 0.414,2.086 0,1.208 -0.263,2.281 -0.789,3.219 -0.527,0.937 -1.331,1.677 -2.415,2.219 -1.083,0.541 -2.401,0.812 -3.953,0.812 -0.895,0 -1.862,-0.101 -2.898,-0.305 -1.037,-0.203 -1.987,-0.471 -2.852,-0.804 v -3.313 h 1.875 c 0.365,1.084 0.847,1.87 1.446,2.36 0.599,0.489 1.414,0.734 2.445,0.734 1.354,0 2.378,-0.37 3.07,-1.109 0.693,-0.74 1.039,-1.834 1.039,-3.282 0,-1.52 -0.458,-2.682 -1.375,-3.484 -0.916,-0.802 -2.26,-1.203 -4.031,-1.203 h -1.406 v -1.375 c 1.406,-0.083 2.591,-0.354 3.555,-0.813 0.963,-0.458 1.679,-1.046 2.148,-1.765 0.469,-0.719 0.703,-1.526 0.703,-2.422 0,-1.156 -0.307,-2.047 -0.922,-2.672 -0.614,-0.625 -1.51,-0.937 -2.687,-0.937 -0.979,0 -1.776,0.265 -2.391,0.796 -0.614,0.532 -1.068,1.344 -1.359,2.438 h -1.875 v -2.969 c 1.208,-0.573 2.338,-1 3.39,-1.281 1.052,-0.281 2.068,-0.422 3.047,-0.422 z"
     fill-rule="evenodd"
     id="path69" />
  <text
     fill="#000000"
     fill-opacity="0"
     font-family="Arial, Arial_MSFontService, sans-serif"
     font-size="21.8281px"
     x="758.34009"
     y="171.81723"
     id="text71">3</text>
  <path
     d="m 785.27711,156.59221 7.078,7.063 7.078,-7.063 1.469,1.453 -7,7.125 7.015,7.094 -1.562,1.562 -7,-7.14 -7.219,7.078 -1.453,-1.469 7.14,-7.125 -7.109,-7.015 z"
     fill-rule="evenodd"
     id="path73" />
  <text
     fill="#000000"
     fill-opacity="0"
     font-family="Arial, Arial_MSFontService, sans-serif"
     font-size="17.2344px"
     x="783.68311"
     y="171.67221"
     id="text75">×</text>
  <path
     d="m 819.67611,154.04521 c -0.718,0 -1.32,0.214 -1.804,0.641 -0.485,0.427 -0.875,1.041 -1.172,1.844 -0.297,0.802 -0.508,1.778 -0.633,2.929 -0.125,1.151 -0.188,2.451 -0.188,3.899 0,3.395 0.316,5.888 0.946,7.476 0.63,1.589 1.607,2.383 2.929,2.383 1.261,0 2.196,-0.747 2.805,-2.242 0.61,-1.495 0.914,-3.81 0.914,-6.945 0,-2.396 -0.156,-4.336 -0.469,-5.821 -0.312,-1.484 -0.747,-2.549 -1.304,-3.195 -0.558,-0.646 -1.232,-0.969 -2.024,-0.969 z m 0.078,-1.328 c 2.282,0 3.98,0.88 5.094,2.641 1.115,1.76 1.672,4.422 1.672,7.984 0,3.688 -0.596,6.477 -1.789,8.367 -1.193,1.891 -2.935,2.836 -5.227,2.836 -2.25,0 -3.924,-0.885 -5.023,-2.656 -1.099,-1.771 -1.648,-4.458 -1.648,-8.063 0,-1.916 0.169,-3.573 0.507,-4.968 0.339,-1.396 0.813,-2.55 1.422,-3.461 0.61,-0.912 1.341,-1.586 2.196,-2.024 0.854,-0.437 1.786,-0.656 2.796,-0.656 z"
     fill-rule="evenodd"
     id="path77" />
  <text
     fill="#000000"
     fill-opacity="0"
     font-family="Arial, Arial_MSFontService, sans-serif"
     font-size="21.8281px"
     x="812.83307"
     y="171.81723"
     id="text79">0</text>
  <path
     d="m 869.40611,152.71721 c 1.177,0 2.208,0.182 3.093,0.547 0.886,0.364 1.563,0.888 2.032,1.57 0.468,0.682 0.703,1.498 0.703,2.446 0,0.885 -0.177,1.664 -0.532,2.335 -0.354,0.672 -0.851,1.258 -1.492,1.758 -0.64,0.5 -1.471,0.99 -2.492,1.469 v 0.141 c 0.635,0.114 1.247,0.31 1.836,0.586 0.589,0.276 1.112,0.632 1.57,1.07 0.459,0.437 0.826,0.961 1.102,1.57 0.276,0.61 0.414,1.305 0.414,2.086 0,1.208 -0.263,2.281 -0.789,3.219 -0.526,0.937 -1.331,1.677 -2.414,2.219 -1.084,0.541 -2.401,0.812 -3.953,0.812 -0.896,0 -1.862,-0.101 -2.899,-0.305 -1.036,-0.203 -1.987,-0.471 -2.851,-0.804 v -3.313 h 1.875 c 0.364,1.084 0.846,1.87 1.445,2.36 0.599,0.489 1.414,0.734 2.445,0.734 1.354,0 2.378,-0.37 3.071,-1.109 0.692,-0.74 1.039,-1.834 1.039,-3.282 0,-1.52 -0.459,-2.682 -1.375,-3.484 -0.917,-0.802 -2.261,-1.203 -4.032,-1.203 h -1.406 v -1.375 c 1.406,-0.083 2.591,-0.354 3.555,-0.813 0.963,-0.458 1.68,-1.046 2.148,-1.765 0.469,-0.719 0.703,-1.526 0.703,-2.422 0,-1.156 -0.307,-2.047 -0.921,-2.672 -0.615,-0.625 -1.511,-0.937 -2.688,-0.937 -0.979,0 -1.776,0.265 -2.391,0.796 -0.614,0.532 -1.067,1.344 -1.359,2.438 h -1.875 v -2.969 c 1.208,-0.573 2.339,-1 3.391,-1.281 1.052,-0.281 2.067,-0.422 3.047,-0.422 z"
     fill-rule="evenodd"
     id="path81" />
  <text
     fill="#000000"
     fill-opacity="0"
     font-family="Arial, Arial_MSFontService, sans-serif"
     font-size="21.8281px"
     x="862.73407"
     y="171.81723"
     id="text83">3</text>
  <path
     d="m 889.67011,156.59221 7.078,7.063 7.078,-7.063 1.469,1.453 -7,7.125 7.016,7.094 -1.563,1.562 -7,-7.14 -7.219,7.078 -1.453,-1.469 7.141,-7.125 -7.11,-7.015 z"
     fill-rule="evenodd"
     id="path85" />
  <text
     fill="#000000"
     fill-opacity="0"
     font-family="Arial, Arial_MSFontService, sans-serif"
     font-size="17.2344px"
     x="888.07611"
     y="171.67221"
     id="text87">×</text>
  <path
     d="m 925.10111,156.38921 -6.109,9.703 v 0.219 h 6.109 v -3.891 c 0,-0.979 0.016,-2.075 0.047,-3.289 0.031,-1.213 0.068,-2.128 0.109,-2.742 z m 0.453,-3.531 h 2.234 v 13.453 h 0.329 c 0.604,0 1.036,-0.045 1.296,-0.133 0.261,-0.089 0.477,-0.245 0.649,-0.469 0.172,-0.224 0.331,-0.591 0.476,-1.101 h 1.188 l -0.188,3.218 h -3.75 v 2.563 c 0,0.698 0.024,1.208 0.071,1.531 0.047,0.323 0.125,0.578 0.234,0.766 0.11,0.187 0.271,0.344 0.485,0.469 0.213,0.125 0.559,0.25 1.039,0.375 v 0.765 h -6.344 v -0.765 c 0.646,-0.167 1.078,-0.352 1.297,-0.555 0.218,-0.203 0.362,-0.492 0.429,-0.867 0.068,-0.375 0.102,-0.948 0.102,-1.719 v -2.563 h -8.688 v -1.171 z"
     fill-rule="evenodd"
     id="path89" />
  <text
     fill="#000000"
     fill-opacity="0"
     font-family="Arial, Arial_MSFontService, sans-serif"
     font-size="21.4375px"
     x="916.41309"
     y="171.6152"
     id="text91">4</text>
  <path
     d="m 660.61911,190.23021 c 1.177,0 2.208,0.183 3.094,0.547 0.885,0.365 1.562,0.888 2.031,1.571 0.469,0.682 0.703,1.497 0.703,2.445 0,0.885 -0.177,1.664 -0.531,2.336 -0.354,0.672 -0.852,1.258 -1.492,1.758 -0.641,0.5 -1.472,0.989 -2.493,1.468 v 0.141 c 0.636,0.115 1.248,0.31 1.836,0.586 0.589,0.276 1.112,0.633 1.571,1.07 0.458,0.438 0.825,0.961 1.101,1.571 0.276,0.609 0.414,1.304 0.414,2.085 0,1.209 -0.263,2.282 -0.789,3.219 -0.526,0.938 -1.331,1.677 -2.414,2.219 -1.083,0.542 -2.401,0.812 -3.953,0.812 -0.896,0 -1.862,-0.101 -2.898,-0.304 -1.037,-0.203 -1.987,-0.472 -2.852,-0.805 v -3.312 h 1.875 c 0.365,1.083 0.846,1.869 1.445,2.359 0.599,0.49 1.414,0.734 2.446,0.734 1.354,0 2.377,-0.369 3.07,-1.109 0.693,-0.74 1.039,-1.833 1.039,-3.281 0,-1.521 -0.458,-2.683 -1.375,-3.485 -0.917,-0.802 -2.26,-1.203 -4.031,-1.203 h -1.407 v -1.375 c 1.407,-0.083 2.592,-0.354 3.555,-0.812 0.964,-0.459 1.68,-1.047 2.149,-1.766 0.468,-0.719 0.703,-1.526 0.703,-2.422 0,-1.156 -0.308,-2.047 -0.922,-2.672 -0.615,-0.625 -1.511,-0.937 -2.688,-0.937 -0.979,0 -1.776,0.265 -2.39,0.797 -0.615,0.531 -1.068,1.343 -1.36,2.437 h -1.875 v -2.969 c 1.209,-0.572 2.339,-1 3.391,-1.281 1.052,-0.281 2.068,-0.422 3.047,-0.422 z"
     fill-rule="evenodd"
     id="path93" />
  <text
     fill="#000000"
     fill-opacity="0"
     font-family="Arial, Arial_MSFontService, sans-serif"
     font-size="21.8281px"
     x="653.94708"
     y="209.33023"
     id="text95">3</text>
  <path
     d="m 680.88311,194.10521 7.078,7.063 7.079,-7.063 1.468,1.453 -7,7.125 7.016,7.094 -1.563,1.563 -7,-7.141 -7.218,7.078 -1.453,-1.469 7.14,-7.125 -7.109,-7.015 z"
     fill-rule="evenodd"
     id="path97" />
  <text
     fill="#000000"
     fill-opacity="0"
     font-family="Arial, Arial_MSFontService, sans-serif"
     font-size="17.2344px"
     x="679.2901"
     y="209.18521"
     id="text99">×</text>
  <path
     d="m 715.40811,190.23021 c 1.938,0 3.401,0.425 4.391,1.274 0.989,0.849 1.484,2.08 1.484,3.695 0,0.552 -0.055,1.06 -0.164,1.524 -0.109,0.463 -0.281,0.921 -0.516,1.375 -0.234,0.453 -0.549,0.94 -0.945,1.46 -0.396,0.521 -0.833,1.05 -1.312,1.586 -0.48,0.537 -1.308,1.43 -2.485,2.68 -1.979,2.094 -3.432,3.922 -4.359,5.484 h 5.89 c 0.511,0 0.922,-0.031 1.235,-0.093 0.312,-0.063 0.562,-0.167 0.75,-0.313 0.187,-0.146 0.336,-0.336 0.445,-0.57 0.109,-0.234 0.247,-0.596 0.414,-1.086 h 1.328 l -0.265,4.562 h -12.86 v -0.75 c 0.448,-1.093 1.052,-2.213 1.813,-3.359 0.76,-1.146 1.838,-2.495 3.234,-4.047 1.208,-1.333 2.078,-2.344 2.61,-3.031 0.583,-0.75 1.018,-1.398 1.304,-1.945 0.287,-0.547 0.492,-1.063 0.617,-1.547 0.125,-0.485 0.188,-0.972 0.188,-1.461 0,-0.781 -0.125,-1.472 -0.375,-2.07 -0.25,-0.599 -0.633,-1.071 -1.149,-1.415 -0.515,-0.343 -1.164,-0.515 -1.945,-0.515 -1.948,0 -3.26,1.083 -3.937,3.25 h -1.891 v -3 c 1.26,-0.594 2.44,-1.024 3.539,-1.289 1.099,-0.266 2.086,-0.399 2.961,-0.399 z"
     fill-rule="evenodd"
     id="path101" />
  <text
     fill="#000000"
     fill-opacity="0"
     font-family="Arial, Arial_MSFontService, sans-serif"
     font-size="21.5781px"
     x="708.43909"
     y="209.11121"
     id="text103">2</text>
  <path
     d="m 765.01211,190.23021 c 1.177,0 2.209,0.183 3.094,0.547 0.885,0.365 1.562,0.888 2.031,1.571 0.469,0.682 0.703,1.497 0.703,2.445 0,0.885 -0.177,1.664 -0.531,2.336 -0.354,0.672 -0.851,1.258 -1.492,1.758 -0.641,0.5 -1.471,0.989 -2.492,1.468 v 0.141 c 0.635,0.115 1.247,0.31 1.836,0.586 0.588,0.276 1.112,0.633 1.57,1.07 0.458,0.438 0.825,0.961 1.102,1.571 0.276,0.609 0.414,1.304 0.414,2.085 0,1.209 -0.263,2.282 -0.789,3.219 -0.527,0.938 -1.331,1.677 -2.415,2.219 -1.083,0.542 -2.401,0.812 -3.953,0.812 -0.895,0 -1.862,-0.101 -2.898,-0.304 -1.037,-0.203 -1.987,-0.472 -2.852,-0.805 v -3.312 h 1.875 c 0.365,1.083 0.847,1.869 1.446,2.359 0.599,0.49 1.414,0.734 2.445,0.734 1.354,0 2.378,-0.369 3.07,-1.109 0.693,-0.74 1.039,-1.833 1.039,-3.281 0,-1.521 -0.458,-2.683 -1.375,-3.485 -0.916,-0.802 -2.26,-1.203 -4.031,-1.203 h -1.406 v -1.375 c 1.406,-0.083 2.591,-0.354 3.555,-0.812 0.963,-0.459 1.679,-1.047 2.148,-1.766 0.469,-0.719 0.703,-1.526 0.703,-2.422 0,-1.156 -0.307,-2.047 -0.922,-2.672 -0.614,-0.625 -1.51,-0.937 -2.687,-0.937 -0.979,0 -1.776,0.265 -2.391,0.797 -0.614,0.531 -1.068,1.343 -1.359,2.437 h -1.875 v -2.969 c 1.208,-0.572 2.338,-1 3.39,-1.281 1.052,-0.281 2.068,-0.422 3.047,-0.422 z"
     fill-rule="evenodd"
     id="path105" />
  <text
     fill="#000000"
     fill-opacity="0"
     font-family="Arial, Arial_MSFontService, sans-serif"
     font-size="21.8281px"
     x="758.34009"
     y="209.33023"
     id="text107">3</text>
  <path
     d="m 785.27711,194.10521 7.078,7.063 7.078,-7.063 1.469,1.453 -7,7.125 7.015,7.094 -1.562,1.563 -7,-7.141 -7.219,7.078 -1.453,-1.469 7.14,-7.125 -7.109,-7.015 z"
     fill-rule="evenodd"
     id="path109" />
  <text
     fill="#000000"
     fill-opacity="0"
     font-family="Arial, Arial_MSFontService, sans-serif"
     font-size="17.2344px"
     x="783.68311"
     y="209.18521"
     id="text111">×</text>
  <path
     d="m 819.67611,191.55821 c -0.718,0 -1.32,0.214 -1.804,0.641 -0.485,0.427 -0.875,1.042 -1.172,1.844 -0.297,0.802 -0.508,1.778 -0.633,2.93 -0.125,1.151 -0.188,2.45 -0.188,3.898 0,3.396 0.316,5.888 0.946,7.477 0.63,1.588 1.607,2.382 2.929,2.382 1.261,0 2.196,-0.747 2.805,-2.242 0.61,-1.495 0.914,-3.81 0.914,-6.945 0,-2.396 -0.156,-4.336 -0.469,-5.82 -0.312,-1.485 -0.747,-2.55 -1.304,-3.196 -0.558,-0.646 -1.232,-0.969 -2.024,-0.969 z m 0.078,-1.328 c 2.282,0 3.98,0.881 5.094,2.641 1.115,1.76 1.672,4.422 1.672,7.984 0,3.688 -0.596,6.477 -1.789,8.368 -1.193,1.89 -2.935,2.835 -5.227,2.835 -2.25,0 -3.924,-0.885 -5.023,-2.656 -1.099,-1.771 -1.648,-4.458 -1.648,-8.062 0,-1.917 0.169,-3.573 0.507,-4.969 0.339,-1.396 0.813,-2.55 1.422,-3.461 0.61,-0.911 1.341,-1.586 2.196,-2.023 0.854,-0.438 1.786,-0.657 2.796,-0.657 z"
     fill-rule="evenodd"
     id="path113" />
  <text
     fill="#000000"
     fill-opacity="0"
     font-family="Arial, Arial_MSFontService, sans-serif"
     font-size="21.8281px"
     x="812.83307"
     y="209.33023"
     id="text115">0</text>
  <path
     d="m 869.40611,190.23021 c 1.177,0 2.208,0.183 3.093,0.547 0.886,0.365 1.563,0.888 2.032,1.571 0.468,0.682 0.703,1.497 0.703,2.445 0,0.885 -0.177,1.664 -0.532,2.336 -0.354,0.672 -0.851,1.258 -1.492,1.758 -0.64,0.5 -1.471,0.989 -2.492,1.468 v 0.141 c 0.635,0.115 1.247,0.31 1.836,0.586 0.589,0.276 1.112,0.633 1.57,1.07 0.459,0.438 0.826,0.961 1.102,1.571 0.276,0.609 0.414,1.304 0.414,2.085 0,1.209 -0.263,2.282 -0.789,3.219 -0.526,0.938 -1.331,1.677 -2.414,2.219 -1.084,0.542 -2.401,0.812 -3.953,0.812 -0.896,0 -1.862,-0.101 -2.899,-0.304 -1.036,-0.203 -1.987,-0.472 -2.851,-0.805 v -3.312 h 1.875 c 0.364,1.083 0.846,1.869 1.445,2.359 0.599,0.49 1.414,0.734 2.445,0.734 1.354,0 2.378,-0.369 3.071,-1.109 0.692,-0.74 1.039,-1.833 1.039,-3.281 0,-1.521 -0.459,-2.683 -1.375,-3.485 -0.917,-0.802 -2.261,-1.203 -4.032,-1.203 h -1.406 v -1.375 c 1.406,-0.083 2.591,-0.354 3.555,-0.812 0.963,-0.459 1.68,-1.047 2.148,-1.766 0.469,-0.719 0.703,-1.526 0.703,-2.422 0,-1.156 -0.307,-2.047 -0.921,-2.672 -0.615,-0.625 -1.511,-0.937 -2.688,-0.937 -0.979,0 -1.776,0.265 -2.391,0.797 -0.614,0.531 -1.067,1.343 -1.359,2.437 h -1.875 v -2.969 c 1.208,-0.572 2.339,-1 3.391,-1.281 1.052,-0.281 2.067,-0.422 3.047,-0.422 z"
     fill-rule="evenodd"
     id="path117" />
  <text
     fill="#000000"
     fill-opacity="0"
     font-family="Arial, Arial_MSFontService, sans-serif"
     font-size="21.8281px"
     x="862.73407"
     y="209.33023"
     id="text119">3</text>
  <path
     d="m 889.67011,194.10521 7.078,7.063 7.078,-7.063 1.469,1.453 -7,7.125 7.016,7.094 -1.563,1.563 -7,-7.141 -7.219,7.078 -1.453,-1.469 7.141,-7.125 -7.11,-7.015 z"
     fill-rule="evenodd"
     id="path121" />
  <text
     fill="#000000"
     fill-opacity="0"
     font-family="Arial, Arial_MSFontService, sans-serif"
     font-size="17.2344px"
     x="888.07611"
     y="209.18521"
     id="text123">×</text>
  <path
     d="m 928.57011,189.44921 h 1.218 l -0.234,3.625 h -8.984 v 6.859 c 0.541,-0.229 1.13,-0.401 1.765,-0.515 0.636,-0.115 1.271,-0.172 1.907,-0.172 1.239,0 2.338,0.253 3.296,0.758 0.959,0.505 1.698,1.224 2.219,2.156 0.521,0.932 0.781,2.013 0.781,3.242 0,1.396 -0.291,2.594 -0.875,3.594 -0.583,1 -1.427,1.76 -2.531,2.281 -1.104,0.521 -2.411,0.781 -3.922,0.781 -1.802,0 -3.687,-0.369 -5.656,-1.109 v -3.312 h 1.891 c 0.312,1.062 0.784,1.843 1.414,2.343 0.63,0.5 1.445,0.75 2.445,0.75 1.386,0 2.432,-0.416 3.141,-1.25 0.708,-0.833 1.062,-2.078 1.062,-3.734 0,-1.104 -0.187,-2.018 -0.562,-2.742 -0.375,-0.724 -0.88,-1.248 -1.516,-1.571 -0.635,-0.322 -1.375,-0.484 -2.219,-0.484 -0.708,0 -1.317,0.044 -1.828,0.133 -0.51,0.088 -1.057,0.226 -1.64,0.414 l -1.25,-0.734 v -10.282 h 8.609 c 0.354,0 0.609,-0.028 0.766,-0.086 0.156,-0.057 0.281,-0.145 0.375,-0.265 0.093,-0.12 0.203,-0.347 0.328,-0.68 z"
     fill-rule="evenodd"
     id="path125" />
  <text
     fill="#000000"
     fill-opacity="0"
     font-family="Arial, Arial_MSFontService, sans-serif"
     font-size="22.6094px"
     x="917.55408"
     y="209.23221"
     id="text127">5</text>
  <path
     d="m 660.61911,227.74421 c 1.177,0 2.208,0.182 3.094,0.547 0.885,0.364 1.562,0.888 2.031,1.57 0.469,0.682 0.703,1.497 0.703,2.445 0,0.886 -0.177,1.664 -0.531,2.336 -0.354,0.672 -0.852,1.258 -1.492,1.758 -0.641,0.5 -1.472,0.99 -2.493,1.469 v 0.14 c 0.636,0.115 1.248,0.31 1.836,0.586 0.589,0.276 1.112,0.633 1.571,1.071 0.458,0.437 0.825,0.96 1.101,1.57 0.276,0.609 0.414,1.305 0.414,2.086 0,1.208 -0.263,2.281 -0.789,3.219 -0.526,0.937 -1.331,1.677 -2.414,2.218 -1.083,0.542 -2.401,0.813 -3.953,0.813 -0.896,0 -1.862,-0.102 -2.898,-0.305 -1.037,-0.203 -1.987,-0.471 -2.852,-0.805 v -3.312 h 1.875 c 0.365,1.083 0.846,1.87 1.445,2.359 0.599,0.49 1.414,0.735 2.446,0.735 1.354,0 2.377,-0.37 3.07,-1.11 0.693,-0.739 1.039,-1.833 1.039,-3.281 0,-1.521 -0.458,-2.682 -1.375,-3.484 -0.917,-0.802 -2.26,-1.203 -4.031,-1.203 h -1.407 v -1.375 c 1.407,-0.084 2.592,-0.355 3.555,-0.813 0.964,-0.458 1.68,-1.047 2.149,-1.766 0.468,-0.718 0.703,-1.526 0.703,-2.421 0,-1.157 -0.308,-2.047 -0.922,-2.672 -0.615,-0.625 -1.511,-0.938 -2.688,-0.938 -0.979,0 -1.776,0.266 -2.39,0.797 -0.615,0.531 -1.068,1.344 -1.36,2.438 h -1.875 v -2.969 c 1.209,-0.573 2.339,-1 3.391,-1.281 1.052,-0.282 2.068,-0.422 3.047,-0.422 z"
     fill-rule="evenodd"
     id="path129" />
  <text
     fill="#000000"
     fill-opacity="0"
     font-family="Arial, Arial_MSFontService, sans-serif"
     font-size="21.8281px"
     x="653.94708"
     y="246.84322"
     id="text131">3</text>
  <path
     d="m 680.88311,231.61921 7.078,7.062 7.079,-7.062 1.468,1.453 -7,7.125 7.016,7.094 -1.563,1.562 -7,-7.141 -7.218,7.079 -1.453,-1.469 7.14,-7.125 -7.109,-7.016 z"
     fill-rule="evenodd"
     id="path133" />
  <text
     fill="#000000"
     fill-opacity="0"
     font-family="Arial, Arial_MSFontService, sans-serif"
     font-size="17.2344px"
     x="679.2901"
     y="246.6992"
     id="text135">×</text>
  <path
     d="m 715.34611,227.74421 c 1.177,0 2.208,0.182 3.093,0.547 0.886,0.364 1.563,0.888 2.032,1.57 0.468,0.682 0.703,1.497 0.703,2.445 0,0.886 -0.177,1.664 -0.532,2.336 -0.354,0.672 -0.851,1.258 -1.492,1.758 -0.64,0.5 -1.471,0.99 -2.492,1.469 v 0.14 c 0.635,0.115 1.247,0.31 1.836,0.586 0.589,0.276 1.112,0.633 1.57,1.071 0.459,0.437 0.826,0.96 1.102,1.57 0.276,0.609 0.414,1.305 0.414,2.086 0,1.208 -0.263,2.281 -0.789,3.219 -0.526,0.937 -1.331,1.677 -2.414,2.218 -1.084,0.542 -2.401,0.813 -3.953,0.813 -0.896,0 -1.862,-0.102 -2.899,-0.305 -1.036,-0.203 -1.987,-0.471 -2.851,-0.805 v -3.312 h 1.875 c 0.364,1.083 0.846,1.87 1.445,2.359 0.599,0.49 1.414,0.735 2.445,0.735 1.354,0 2.378,-0.37 3.071,-1.11 0.692,-0.739 1.039,-1.833 1.039,-3.281 0,-1.521 -0.459,-2.682 -1.375,-3.484 -0.917,-0.802 -2.261,-1.203 -4.032,-1.203 h -1.406 v -1.375 c 1.406,-0.084 2.591,-0.355 3.555,-0.813 0.963,-0.458 1.68,-1.047 2.148,-1.766 0.469,-0.718 0.703,-1.526 0.703,-2.421 0,-1.157 -0.307,-2.047 -0.921,-2.672 -0.615,-0.625 -1.511,-0.938 -2.688,-0.938 -0.979,0 -1.776,0.266 -2.391,0.797 -0.614,0.531 -1.067,1.344 -1.359,2.438 h -1.875 v -2.969 c 1.208,-0.573 2.339,-1 3.391,-1.281 1.052,-0.282 2.067,-0.422 3.047,-0.422 z"
     fill-rule="evenodd"
     id="path137" />
  <text
     fill="#000000"
     fill-opacity="0"
     font-family="Arial, Arial_MSFontService, sans-serif"
     font-size="21.8281px"
     x="708.67407"
     y="246.84322"
     id="text139">3</text>
  <path
     d="m 765.01211,227.74421 c 1.177,0 2.209,0.182 3.094,0.547 0.885,0.364 1.562,0.888 2.031,1.57 0.469,0.682 0.703,1.497 0.703,2.445 0,0.886 -0.177,1.664 -0.531,2.336 -0.354,0.672 -0.851,1.258 -1.492,1.758 -0.641,0.5 -1.471,0.99 -2.492,1.469 v 0.14 c 0.635,0.115 1.247,0.31 1.836,0.586 0.588,0.276 1.112,0.633 1.57,1.071 0.458,0.437 0.825,0.96 1.102,1.57 0.276,0.609 0.414,1.305 0.414,2.086 0,1.208 -0.263,2.281 -0.789,3.219 -0.527,0.937 -1.331,1.677 -2.415,2.218 -1.083,0.542 -2.401,0.813 -3.953,0.813 -0.895,0 -1.862,-0.102 -2.898,-0.305 -1.037,-0.203 -1.987,-0.471 -2.852,-0.805 v -3.312 h 1.875 c 0.365,1.083 0.847,1.87 1.446,2.359 0.599,0.49 1.414,0.735 2.445,0.735 1.354,0 2.378,-0.37 3.07,-1.11 0.693,-0.739 1.039,-1.833 1.039,-3.281 0,-1.521 -0.458,-2.682 -1.375,-3.484 -0.916,-0.802 -2.26,-1.203 -4.031,-1.203 h -1.406 v -1.375 c 1.406,-0.084 2.591,-0.355 3.555,-0.813 0.963,-0.458 1.679,-1.047 2.148,-1.766 0.469,-0.718 0.703,-1.526 0.703,-2.421 0,-1.157 -0.307,-2.047 -0.922,-2.672 -0.614,-0.625 -1.51,-0.938 -2.687,-0.938 -0.979,0 -1.776,0.266 -2.391,0.797 -0.614,0.531 -1.068,1.344 -1.359,2.438 h -1.875 v -2.969 c 1.208,-0.573 2.338,-1 3.39,-1.281 1.052,-0.282 2.068,-0.422 3.047,-0.422 z"
     fill-rule="evenodd"
     id="path141" />
  <text
     fill="#000000"
     fill-opacity="0"
     font-family="Arial, Arial_MSFontService, sans-serif"
     font-size="21.8281px"
     x="758.34009"
     y="246.84322"
     id="text143">3</text>
  <path
     d="m 785.27711,231.61921 7.078,7.062 7.078,-7.062 1.469,1.453 -7,7.125 7.015,7.094 -1.562,1.562 -7,-7.141 -7.219,7.079 -1.453,-1.469 7.14,-7.125 -7.109,-7.016 z"
     fill-rule="evenodd"
     id="path145" />
  <text
     fill="#000000"
     fill-opacity="0"
     font-family="Arial, Arial_MSFontService, sans-serif"
     font-size="17.2344px"
     x="783.68311"
     y="246.6992"
     id="text147">×</text>
  <path
     d="m 819.67611,229.07221 c -0.718,0 -1.32,0.213 -1.804,0.64 -0.485,0.428 -0.875,1.042 -1.172,1.844 -0.297,0.802 -0.508,1.779 -0.633,2.93 -0.125,1.151 -0.188,2.45 -0.188,3.898 0,3.396 0.316,5.888 0.946,7.477 0.63,1.588 1.607,2.383 2.929,2.383 1.261,0 2.196,-0.748 2.805,-2.243 0.61,-1.494 0.914,-3.809 0.914,-6.945 0,-2.396 -0.156,-4.336 -0.469,-5.82 -0.312,-1.485 -0.747,-2.55 -1.304,-3.195 -0.558,-0.646 -1.232,-0.969 -2.024,-0.969 z m 0.078,-1.328 c 2.282,0 3.98,0.88 5.094,2.64 1.115,1.761 1.672,4.422 1.672,7.985 0,3.687 -0.596,6.476 -1.789,8.367 -1.193,1.89 -2.935,2.836 -5.227,2.836 -2.25,0 -3.924,-0.886 -5.023,-2.656 -1.099,-1.771 -1.648,-4.459 -1.648,-8.063 0,-1.917 0.169,-3.573 0.507,-4.969 0.339,-1.396 0.813,-2.549 1.422,-3.461 0.61,-0.911 1.341,-1.586 2.196,-2.023 0.854,-0.438 1.786,-0.656 2.796,-0.656 z"
     fill-rule="evenodd"
     id="path149" />
  <text
     fill="#000000"
     fill-opacity="0"
     font-family="Arial, Arial_MSFontService, sans-serif"
     font-size="21.8281px"
     x="812.83307"
     y="246.84322"
     id="text151">0</text>
  <path
     d="m 869.40611,227.74421 c 1.177,0 2.208,0.182 3.093,0.547 0.886,0.364 1.563,0.888 2.032,1.57 0.468,0.682 0.703,1.497 0.703,2.445 0,0.886 -0.177,1.664 -0.532,2.336 -0.354,0.672 -0.851,1.258 -1.492,1.758 -0.64,0.5 -1.471,0.99 -2.492,1.469 v 0.14 c 0.635,0.115 1.247,0.31 1.836,0.586 0.589,0.276 1.112,0.633 1.57,1.071 0.459,0.437 0.826,0.96 1.102,1.57 0.276,0.609 0.414,1.305 0.414,2.086 0,1.208 -0.263,2.281 -0.789,3.219 -0.526,0.937 -1.331,1.677 -2.414,2.218 -1.084,0.542 -2.401,0.813 -3.953,0.813 -0.896,0 -1.862,-0.102 -2.899,-0.305 -1.036,-0.203 -1.987,-0.471 -2.851,-0.805 v -3.312 h 1.875 c 0.364,1.083 0.846,1.87 1.445,2.359 0.599,0.49 1.414,0.735 2.445,0.735 1.354,0 2.378,-0.37 3.071,-1.11 0.692,-0.739 1.039,-1.833 1.039,-3.281 0,-1.521 -0.459,-2.682 -1.375,-3.484 -0.917,-0.802 -2.261,-1.203 -4.032,-1.203 h -1.406 v -1.375 c 1.406,-0.084 2.591,-0.355 3.555,-0.813 0.963,-0.458 1.68,-1.047 2.148,-1.766 0.469,-0.718 0.703,-1.526 0.703,-2.421 0,-1.157 -0.307,-2.047 -0.921,-2.672 -0.615,-0.625 -1.511,-0.938 -2.688,-0.938 -0.979,0 -1.776,0.266 -2.391,0.797 -0.614,0.531 -1.067,1.344 -1.359,2.438 h -1.875 v -2.969 c 1.208,-0.573 2.339,-1 3.391,-1.281 1.052,-0.282 2.067,-0.422 3.047,-0.422 z"
     fill-rule="evenodd"
     id="path153" />
  <text
     fill="#000000"
     fill-opacity="0"
     font-family="Arial, Arial_MSFontService, sans-serif"
     font-size="21.8281px"
     x="862.73407"
     y="246.84322"
     id="text155">3</text>
  <path
     d="m 889.67011,231.61921 7.078,7.062 7.078,-7.062 1.469,1.453 -7,7.125 7.016,7.094 -1.563,1.562 -7,-7.141 -7.219,7.079 -1.453,-1.469 7.141,-7.125 -7.11,-7.016 z"
     fill-rule="evenodd"
     id="path157" />
  <text
     fill="#000000"
     fill-opacity="0"
     font-family="Arial, Arial_MSFontService, sans-serif"
     font-size="17.2344px"
     x="888.07611"
     y="246.6992"
     id="text159">×</text>
  <path
     d="m 924.78811,238.07221 c -0.51,0 -1.002,0.057 -1.476,0.172 -0.474,0.114 -0.919,0.281 -1.336,0.5 -0.417,0.218 -0.823,0.494 -1.219,0.828 -0.125,0.114 -0.219,0.234 -0.281,0.359 -0.104,0.198 -0.172,0.443 -0.203,0.735 -0.031,0.291 -0.047,0.781 -0.047,1.468 0,1.99 0.333,3.506 1,4.547 0.667,1.042 1.677,1.563 3.031,1.563 0.781,0 1.438,-0.136 1.969,-0.407 0.531,-0.27 0.961,-0.643 1.289,-1.117 0.328,-0.474 0.563,-1.031 0.703,-1.672 0.141,-0.64 0.211,-1.336 0.211,-2.086 0,-1.541 -0.318,-2.742 -0.953,-3.601 -0.635,-0.86 -1.531,-1.289 -2.688,-1.289 z m 4.016,-10.328 0.641,0.859 v 0.766 c -1.604,0 -3.026,0.343 -4.266,1.031 -1.239,0.687 -2.268,1.698 -3.086,3.031 -0.818,1.334 -1.393,2.917 -1.726,4.75 l 0.156,0.063 c 0.875,-0.625 1.737,-1.084 2.586,-1.375 0.849,-0.292 1.768,-0.438 2.758,-0.438 1.177,0 2.179,0.258 3.007,0.774 0.829,0.515 1.451,1.239 1.868,2.171 0.416,0.933 0.625,2.024 0.625,3.274 0,1.354 -0.261,2.549 -0.782,3.586 -0.52,1.036 -1.325,1.851 -2.414,2.445 -1.088,0.594 -2.429,0.891 -4.023,0.891 -2.281,0 -4.003,-0.709 -5.164,-2.125 -1.162,-1.417 -1.742,-3.505 -1.742,-6.266 0,-1.854 0.291,-3.588 0.875,-5.203 0.583,-1.615 1.411,-3.023 2.484,-4.227 1.073,-1.203 2.318,-2.151 3.734,-2.843 1.417,-0.693 2.907,-1.081 4.469,-1.164 z"
     fill-rule="evenodd"
     id="path161" />
  <text
     fill="#000000"
     fill-opacity="0"
     font-family="Arial, Arial_MSFontService, sans-serif"
     font-size="21.8281px"
     x="917.24207"
     y="246.84322"
     id="text163">6</text>
  <text
     font-family="Calibri, Calibri_MSFontService, sans-serif"
     font-weight="400"
     font-size="43px"
     id="text185"
     x="776.7821"
     y="126.76822">kA<tspan
   font-size="43px"
   x="341.9751"
   y="214.76822"
   id="tspan165">3</tspan><tspan
   font-family="'Cambria Math', 'Cambria Math_MSFontService', sans-serif"
   font-size="43px"
   x="373.30811"
   y="214.76822"
   id="tspan167">×</tspan><tspan
   font-size="43px"
   x="489.29309"
   y="348.76819"
   id="tspan169">r[</tspan>a<tspan
   font-size="28px"
   x="537.79309"
   y="358.76819"
   id="tspan171">i</tspan><tspan
   font-size="28px"
   x="544.29309"
   y="358.76819"
   id="tspan173">, j</tspan><tspan
   font-size="43px"
   x="564.79309"
   y="348.76819"
   id="tspan175">] =</tspan><tspan
   font-size="43px"
   x="618.62708"
   y="348.76819"
   id="tspan177">[ra</tspan><tspan
   font-size="28px"
   x="666.25311"
   y="358.76819"
   id="tspan179">i</tspan><tspan
   font-size="28px"
   x="672.75311"
   y="358.76819"
   id="tspan181">, j</tspan><tspan
   font-size="43px"
   x="693.2533"
   y="348.76819"
   id="tspan183">]</tspan></text>
</svg>
