<?xml version="1.0" encoding="UTF-8" standalone="no"?>
<svg
   width="1280"
   height="580"
   overflow="hidden"
   version="1.1"
   id="svg157"
   sodipodi:docname="linear_systems-determinant_row_reduction.svg"
   inkscape:version="1.2 (dc2aedaf03, 2022-05-15)"
   xmlns:inkscape="http://www.inkscape.org/namespaces/inkscape"
   xmlns:sodipodi="http://sodipodi.sourceforge.net/DTD/sodipodi-0.dtd"
   xmlns="http://www.w3.org/2000/svg"
   xmlns:svg="http://www.w3.org/2000/svg">
  <sodipodi:namedview
     id="namedview159"
     pagecolor="#ffffff"
     bordercolor="#000000"
     borderopacity="0.25"
     inkscape:showpageshadow="2"
     inkscape:pageopacity="0.0"
     inkscape:pagecheckerboard="0"
     inkscape:deskcolor="#d1d1d1"
     showgrid="false"
     inkscape:zoom="0.92709556"
     inkscape:cx="388.84881"
     inkscape:cy="360.26491"
     inkscape:window-width="2560"
     inkscape:window-height="1494"
     inkscape:window-x="-11"
     inkscape:window-y="-11"
     inkscape:window-maximized="1"
     inkscape:current-layer="svg157" />
  <defs
     id="defs5">
    <clipPath
       id="clip0">
      <rect
         x="0"
         y="0"
         width="1280"
         height="720"
         id="rect2" />
    </clipPath>
  </defs>
  <g
     clip-path="url(#clip0)"
     id="g155"
     transform="translate(49.617323,-39.909586)">
    <rect
       x="0"
       y="0"
       width="1280"
       height="720"
       fill="#ffffff"
       id="rect7" />
    <path
       d="M 345,325.012 C 345,317.826 350.826,312 358.012,312 h 176.976 c 7.186,0 13.012,5.826 13.012,13.012 v 74.976 C 548,407.174 542.174,413 534.988,413 H 358.012 C 350.826,413 345,407.174 345,399.988 Z"
       fill="#e2f0d9"
       fill-rule="evenodd"
       id="path9" />
    <path
       d="m 350.985,348.097 c -8.323,-7.505 -8.987,-20.336 -1.483,-28.659 v 0 c 7.505,-8.323 20.336,-8.987 28.659,-1.483 l 66.912,60.33 c 8.323,7.505 8.987,20.336 1.483,28.659 v 0 c -7.505,8.323 -20.336,8.987 -28.659,1.482 z"
       fill="#a9d18e"
       fill-rule="evenodd"
       fill-opacity="0.4"
       id="path11" />
    <text
       font-family="Calibri, Calibri_MSFontService, sans-serif"
       font-weight="400"
       font-size="43px"
       transform="translate(316.965,102)"
       id="text19">Finding <tspan
   font-size="43px"
   x="136.66701"
   y="0"
   id="tspan13">det</tspan>(A<tspan
   font-size="43px"
   x="232.10699"
   y="0"
   id="tspan15">)</tspan><tspan
   font-size="43px"
   x="254.77299"
   y="0"
   id="tspan17">using row reduction</tspan></text>
    <path
       d="M 349,182.595 C 349,176.191 354.191,171 360.595,171 h 175.81 c 6.404,0 11.595,5.191 11.595,11.595 v 66.81 C 548,255.809 542.809,261 536.405,261 H 360.595 C 354.191,261 349,255.809 349,249.405 Z"
       fill="#e2f0d9"
       fill-rule="evenodd"
       id="path21" />
    <text
       font-family="'Cambria Math', 'Cambria Math_MSFontService', sans-serif"
       font-weight="400"
       font-size="32px"
       transform="translate(465.165,207)"
       id="text37">1<tspan
   font-size="32px"
   x="49.666698"
   y="0"
   id="tspan23">0</tspan><tspan
   font-size="32px"
   x="0"
   y="38"
   id="tspan25">0</tspan><tspan
   font-size="32px"
   x="49.666698"
   y="38"
   id="tspan27">1</tspan><tspan
   font-size="32px"
   x="-100.548"
   y="-1"
   id="tspan29">3</tspan><tspan
   font-size="32px"
   x="-50.881199"
   y="-1"
   id="tspan31">6</tspan><tspan
   font-size="32px"
   x="-100.548"
   y="36"
   id="tspan33">1</tspan><tspan
   font-size="32px"
   x="-50.881199"
   y="36"
   id="tspan35">4</tspan></text>
    <path
       d="m 450,171 v 90.043"
       stroke="#385723"
       stroke-width="4"
       stroke-miterlimit="8"
       fill="none"
       fill-rule="evenodd"
       id="path39" />
    <text
       font-family="'Cambria Math', 'Cambria Math_MSFontService', sans-serif"
       font-weight="400"
       font-size="43px"
       transform="translate(303.292,370)"
       id="text57">~<tspan
   font-family="Calibri, Calibri_MSFontService, sans-serif"
   font-size="37px"
   x="89.414597"
   y="-208"
   id="tspan41">A</tspan><tspan
   font-family="Calibri, Calibri_MSFontService, sans-serif"
   font-size="37px"
   x="191.95"
   y="-208"
   id="tspan43">I</tspan><tspan
   font-family="Calibri, Calibri_MSFontService, sans-serif"
   font-size="27px"
   x="261.095"
   y="-147"
   id="tspan45">Replacement: R2</tspan><tspan
   font-size="27px"
   x="450.715"
   y="-147"
   id="tspan47">→</tspan><tspan
   font-family="Calibri, Calibri_MSFontService, sans-serif"
   font-size="27px"
   x="479.048"
   y="-147"
   id="tspan49">R2</tspan><tspan
   font-family="Calibri, Calibri_MSFontService, sans-serif"
   font-size="27px"
   x="513.04797"
   y="-147"
   id="tspan51">–</tspan><tspan
   font-size="16px"
   x="532.38202"
   y="-159"
   id="tspan53">1</tspan><tspan
   font-size="16px"
   x="532.38202"
   y="-138"
   id="tspan55">3</tspan></text>
    <path
       d="m 835.387,216.575 h 10 v 1 h -10 z"
       fill-rule="evenodd"
       id="path59" />
    <text
       font-family="Calibri, Calibri_MSFontService, sans-serif"
       font-weight="400"
       font-size="27px"
       transform="translate(845.174,223)"
       id="text85">R1<tspan
   font-size="32px"
   x="-550.88898"
   y="361"
   id="tspan61">detA =</tspan><tspan
   font-size="32px"
   x="-458.729"
   y="361"
   id="tspan63">-</tspan><tspan
   font-size="32px"
   x="-448.896"
   y="361"
   id="tspan65">1</tspan><tspan
   font-size="21px"
   x="-432.729"
   y="351"
   id="tspan67">0</tspan><tspan
   font-family="'Cambria Math', 'Cambria Math_MSFontService', sans-serif"
   font-size="32px"
   x="-417.06201"
   y="361"
   id="tspan69">×</tspan><tspan
   font-size="32px"
   x="-387.116"
   y="361"
   id="tspan71">det</tspan><tspan
   font-size="32px"
   x="-343.616"
   y="361"
   id="tspan73">S</tspan><tspan
   font-size="32px"
   x="-328.94901"
   y="361"
   id="tspan75" /><tspan
   font-size="32px"
   x="-321.78201"
   y="361"
   id="tspan77">=</tspan><tspan
   font-size="32px"
   x="-305.78201"
   y="361"
   id="tspan79" /><tspan
   font-size="32px"
   x="-298.61499"
   y="361"
   id="tspan81">1</tspan><tspan
   font-family="'Cambria Math', 'Cambria Math_MSFontService', sans-serif"
   font-size="32px"
   x="-275.336"
   y="361"
   id="tspan83">×</tspan></text>
    <path
       d="m 686.474,559.839 c 3.042,0.802 5.378,2.534 7.008,5.196 1.63,2.661 2.445,5.872 2.445,9.632 0,3.771 -0.812,6.982 -2.437,9.633 -1.625,2.651 -3.964,4.378 -7.016,5.18 l -0.375,-1.203 c 2.406,-0.802 4.195,-2.386 5.367,-4.75 1.172,-2.365 1.758,-5.37 1.758,-9.016 0,-3.521 -0.583,-6.445 -1.75,-8.773 -1.167,-2.328 -2.974,-3.894 -5.422,-4.696 z m -74.423,0 0.421,1.203 c -2.437,0.802 -4.242,2.368 -5.414,4.696 -1.172,2.328 -1.757,5.252 -1.757,8.773 0,3.646 0.585,6.651 1.757,9.016 1.172,2.364 2.961,3.948 5.368,4.75 l -0.375,1.203 c -3.052,-0.802 -5.391,-2.529 -7.016,-5.18 -1.625,-2.651 -2.438,-5.862 -2.438,-9.633 0,-3.76 0.816,-6.971 2.446,-9.632 1.63,-2.662 3.966,-4.394 7.008,-5.196 z"
       fill-rule="evenodd"
       id="path87" />
    <text
       font-family="'Cambria Math', 'Cambria Math_MSFontService', sans-serif"
       font-weight="400"
       font-size="32px"
       transform="translate(613.065,584)"
       id="text99">3<tspan
   font-size="32px"
   x="24.780001"
   y="0"
   id="tspan89">×</tspan><tspan
   font-size="32px"
   x="54.7267"
   y="0"
   id="tspan91">2</tspan><tspan
   font-size="32px"
   x="94.559998"
   y="0"
   id="tspan93">=</tspan><tspan
   font-size="32px"
   x="127.28"
   y="0"
   id="tspan95">6</tspan><tspan
   font-family="Calibri, Calibri_MSFontService, sans-serif"
   font-size="37px"
   x="-219.752"
   y="-280"
   id="tspan97">R</tspan></text>
    <path
       d="m 475.258,331.808 h 0.86 c -0.063,1 -0.094,2.386 -0.094,4.156 v 13.344 c 0,0.604 0.034,1.06 0.101,1.367 0.068,0.308 0.188,0.558 0.36,0.75 0.172,0.193 0.419,0.344 0.742,0.454 0.323,0.109 0.729,0.192 1.219,0.25 0.489,0.057 1.135,0.096 1.937,0.117 v 1.14 h -11.547 v -1.14 c 1.157,-0.052 1.982,-0.123 2.477,-0.211 0.495,-0.089 0.872,-0.222 1.133,-0.399 0.26,-0.177 0.45,-0.427 0.57,-0.75 0.12,-0.323 0.18,-0.849 0.18,-1.578 v -12.672 c 0,-0.416 -0.073,-0.721 -0.219,-0.914 -0.146,-0.192 -0.359,-0.289 -0.641,-0.289 -0.333,0 -0.807,0.172 -1.421,0.516 -0.615,0.344 -1.375,0.818 -2.282,1.422 l -0.687,-1.203 z"
       fill-rule="evenodd"
       id="path101" />
    <text
       fill="#000000"
       fill-opacity="0"
       font-family="Arial, Arial_MSFontService, sans-serif"
       font-size="21.5781px"
       x="467.94601"
       y="350.689"
       id="text103">1</text>
    <path
       d="m 530.111,333.136 c -0.719,0 -1.321,0.214 -1.805,0.641 -0.485,0.427 -0.875,1.042 -1.172,1.844 -0.297,0.802 -0.508,1.778 -0.633,2.929 -0.125,1.151 -0.187,2.451 -0.187,3.899 0,3.396 0.315,5.888 0.945,7.476 0.63,1.589 1.607,2.383 2.93,2.383 1.26,0 2.195,-0.747 2.804,-2.242 0.61,-1.495 0.914,-3.81 0.914,-6.945 0,-2.396 -0.156,-4.336 -0.468,-5.821 -0.313,-1.484 -0.748,-2.549 -1.305,-3.195 -0.557,-0.646 -1.232,-0.969 -2.023,-0.969 z m 0.078,-1.328 c 2.281,0 3.979,0.88 5.093,2.641 1.115,1.76 1.672,4.422 1.672,7.984 0,3.688 -0.596,6.477 -1.789,8.367 -1.192,1.891 -2.935,2.836 -5.226,2.836 -2.25,0 -3.925,-0.885 -5.024,-2.656 -1.099,-1.771 -1.648,-4.458 -1.648,-8.062 0,-1.917 0.169,-3.573 0.508,-4.969 0.338,-1.396 0.812,-2.55 1.421,-3.461 0.61,-0.912 1.342,-1.586 2.196,-2.024 0.854,-0.437 1.786,-0.656 2.797,-0.656 z"
       fill-rule="evenodd"
       id="path105" />
    <text
       fill="#000000"
       fill-opacity="0"
       font-family="Arial, Arial_MSFontService, sans-serif"
       font-size="21.8281px"
       x="523.26703"
       y="350.90799"
       id="text107">0</text>
    <path
       d="m 460.649,371.092 h 12.938 v 1.718 h -12.938 z"
       fill-rule="evenodd"
       id="path109" />
    <text
       fill="#000000"
       fill-opacity="0"
       font-family="Arial, Arial_MSFontService, sans-serif"
       font-size="1.71826px"
       x="460.64899"
       y="372.595"
       id="text111">−</text>
    <path
       d="m 483.332,364.062 h 0.685 c -0.015,0.411 -0.026,0.78 -0.034,1.106 -0.007,0.325 -0.013,0.642 -0.017,0.949 -0.003,0.307 -0.005,0.61 -0.005,0.909 v 8.536 c 0,0.232 0.007,0.432 0.022,0.6 0.015,0.169 0.039,0.311 0.073,0.427 0.034,0.116 0.079,0.215 0.135,0.298 0.056,0.082 0.122,0.153 0.196,0.213 0.09,0.09 0.21,0.159 0.36,0.208 0.15,0.049 0.34,0.09 0.573,0.123 0.232,0.034 0.511,0.06 0.836,0.079 0.326,0.019 0.717,0.032 1.174,0.039 v 0.977 h -8.906 v -0.977 c 0.442,-0.015 0.816,-0.032 1.123,-0.05 0.307,-0.019 0.569,-0.045 0.786,-0.079 0.217,-0.034 0.391,-0.071 0.522,-0.112 0.131,-0.041 0.246,-0.092 0.343,-0.152 0.105,-0.067 0.195,-0.14 0.269,-0.219 0.075,-0.078 0.135,-0.178 0.18,-0.297 0.045,-0.12 0.081,-0.266 0.107,-0.438 0.026,-0.173 0.039,-0.386 0.039,-0.64 v -8.053 c 0,-0.292 -0.056,-0.498 -0.168,-0.617 -0.113,-0.12 -0.274,-0.18 -0.483,-0.18 -0.232,0 -0.577,0.12 -1.033,0.359 -0.457,0.24 -1.049,0.596 -1.775,1.067 -0.097,-0.172 -0.187,-0.344 -0.269,-0.516 -0.083,-0.173 -0.169,-0.349 -0.259,-0.528 0.929,-0.509 1.848,-1.017 2.757,-1.522 0.91,-0.505 1.833,-1.009 2.769,-1.51 z"
       fill-rule="evenodd"
       id="path113" />
    <text
       fill="#000000"
       fill-opacity="0"
       font-family="Arial, Arial_MSFontService, sans-serif"
       font-size="14.4648px"
       x="477.806"
       y="376.71799"
       id="text115">1</text>
    <path
       d="m 473.933,389.39 c 0.599,0 1.159,0.063 1.679,0.19 0.521,0.128 0.972,0.321 1.354,0.579 0.381,0.258 0.679,0.58 0.892,0.966 0.214,0.385 0.32,0.833 0.32,1.342 0,0.479 -0.067,0.902 -0.202,1.269 -0.134,0.367 -0.342,0.7 -0.623,0.999 -0.281,0.3 -0.625,0.571 -1.033,0.814 -0.408,0.244 -0.878,0.478 -1.41,0.702 v 0.135 c 0.502,0.09 0.97,0.234 1.404,0.433 0.434,0.198 0.814,0.449 1.14,0.752 0.326,0.303 0.582,0.653 0.769,1.05 0.188,0.397 0.281,0.835 0.281,1.314 0,0.599 -0.112,1.155 -0.337,1.668 -0.224,0.513 -0.561,0.956 -1.011,1.331 -0.449,0.374 -1.003,0.666 -1.662,0.875 -0.658,0.21 -1.43,0.315 -2.313,0.315 -0.696,0 -1.404,-0.069 -2.123,-0.208 -0.718,-0.138 -1.4,-0.32 -2.044,-0.545 v -2.425 h 1.449 c 0.12,0.374 0.262,0.694 0.427,0.96 0.165,0.266 0.357,0.483 0.578,0.651 0.221,0.169 0.476,0.29 0.764,0.365 0.288,0.075 0.616,0.113 0.983,0.113 0.965,0 1.697,-0.231 2.195,-0.691 0.498,-0.461 0.747,-1.159 0.747,-2.095 0,-0.995 -0.328,-1.75 -0.983,-2.263 -0.655,-0.512 -1.626,-0.769 -2.914,-0.769 h -0.988 v -1.078 c 0.786,-0.037 1.465,-0.148 2.038,-0.331 0.573,-0.184 1.05,-0.421 1.432,-0.713 0.382,-0.292 0.666,-0.633 0.853,-1.022 0.188,-0.39 0.281,-0.805 0.281,-1.247 0,-0.719 -0.213,-1.286 -0.64,-1.701 -0.427,-0.416 -1.044,-0.624 -1.853,-0.624 -0.681,0 -1.252,0.188 -1.713,0.562 -0.46,0.374 -0.814,0.932 -1.061,1.673 h -1.426 v -2.212 c 0.883,-0.375 1.716,-0.657 2.499,-0.848 0.782,-0.191 1.533,-0.286 2.251,-0.286 z"
       fill-rule="evenodd"
       id="path117" />
    <text
       fill="#000000"
       fill-opacity="0"
       font-family="Arial, Arial_MSFontService, sans-serif"
       font-size="14.7344px"
       x="469.01401"
       y="402.28201"
       id="text119">3</text>
    <path
       d="m 458.418,385.106 h 15.5 15.5 v 2 h -15.5 -15.5 z"
       fill-rule="evenodd"
       id="path121" />
    <path
       d="m 531.345,370.622 h 0.859 c -0.062,1 -0.093,2.385 -0.093,4.156 v 13.344 c 0,0.604 0.033,1.059 0.101,1.367 0.068,0.307 0.188,0.557 0.359,0.75 0.172,0.192 0.42,0.343 0.743,0.453 0.323,0.109 0.729,0.193 1.218,0.25 0.49,0.057 1.136,0.096 1.938,0.117 v 1.141 h -11.547 v -1.141 c 1.156,-0.052 1.982,-0.122 2.477,-0.211 0.494,-0.088 0.872,-0.221 1.132,-0.398 0.261,-0.177 0.451,-0.427 0.571,-0.75 0.12,-0.323 0.179,-0.849 0.179,-1.578 V 375.45 c 0,-0.417 -0.073,-0.722 -0.218,-0.914 -0.146,-0.193 -0.36,-0.289 -0.641,-0.289 -0.333,0 -0.807,0.171 -1.422,0.515 -0.614,0.344 -1.375,0.818 -2.281,1.422 l -0.688,-1.203 z"
       fill-rule="evenodd"
       id="path123" />
    <text
       fill="#000000"
       fill-opacity="0"
       font-family="Arial, Arial_MSFontService, sans-serif"
       font-size="21.5781px"
       x="524.03198"
       y="389.50201"
       id="text125">1</text>
    <text
       font-family="'Cambria Math', 'Cambria Math_MSFontService', sans-serif"
       font-weight="400"
       font-size="32px"
       transform="translate(364.617,353)"
       id="text133">3<tspan
   font-size="32px"
   x="49.666698"
   y="0"
   id="tspan127">6</tspan><tspan
   font-size="32px"
   x="0"
   y="38"
   id="tspan129">0</tspan><tspan
   font-size="32px"
   x="49.666698"
   y="38"
   id="tspan131">2</tspan></text>
    <path
       d="m 450,312 v 99.024"
       stroke="#385723"
       stroke-width="4"
       stroke-miterlimit="8"
       fill="none"
       fill-rule="evenodd"
       id="path135" />
    <text
       font-family="Calibri, Calibri_MSFontService, sans-serif"
       font-weight="400"
       font-size="32px"
       transform="translate(294.285,493)"
       id="text153">detA = <tspan
   font-size="32px"
   x="92.160004"
   y="0"
   id="tspan137">-</tspan><tspan
   font-size="32px"
   x="101.993"
   y="0"
   id="tspan139">1</tspan><tspan
   font-size="21px"
   x="118.16"
   y="-10"
   id="tspan141">r</tspan><tspan
   font-family="'Cambria Math', 'Cambria Math_MSFontService', sans-serif"
   font-size="32px"
   x="130.493"
   y="0"
   id="tspan143">×</tspan><tspan
   font-size="32px"
   x="160.493"
   y="0"
   id="tspan145">the product of the diagonal entries in R</tspan><tspan
   font-size="24px"
   x="90.718697"
   y="31"
   id="tspan147">r</tspan><tspan
   font-size="24px"
   x="104.552"
   y="31"
   id="tspan149">= number of row interchange</tspan><tspan
   font-size="24px"
   x="395.039"
   y="31"
   id="tspan151">operations</tspan></text>
  </g>
</svg>
