<?xml version="1.0" encoding="UTF-8" standalone="no"?>
<svg
   width="980"
   height="620"
   overflow="hidden"
   version="1.1"
   id="svg235"
   sodipodi:docname="linear_systems-equivalence.svg"
   inkscape:version="1.2 (dc2aedaf03, 2022-05-15)"
   xmlns:inkscape="http://www.inkscape.org/namespaces/inkscape"
   xmlns:sodipodi="http://sodipodi.sourceforge.net/DTD/sodipodi-0.dtd"
   xmlns="http://www.w3.org/2000/svg"
   xmlns:svg="http://www.w3.org/2000/svg">
  <sodipodi:namedview
     id="namedview237"
     pagecolor="#ffffff"
     bordercolor="#000000"
     borderopacity="0.25"
     inkscape:showpageshadow="2"
     inkscape:pageopacity="0.0"
     inkscape:pagecheckerboard="0"
     inkscape:deskcolor="#d1d1d1"
     showgrid="false"
     inkscape:zoom="1.3111111"
     inkscape:cx="577.75424"
     inkscape:cy="362.28814"
     inkscape:window-width="2560"
     inkscape:window-height="1494"
     inkscape:window-x="-11"
     inkscape:window-y="-11"
     inkscape:window-maximized="1"
     inkscape:current-layer="svg235" />
  <defs
     id="defs5">
    <clipPath
       id="clip0">
      <rect
         x="0"
         y="0"
         width="1280"
         height="720"
         id="rect2" />
    </clipPath>
  </defs>
  <g
     clip-path="url(#clip0)"
     id="g233"
     transform="translate(-158.64407,-18.305084)">
    <rect
       x="0"
       y="0"
       width="1280"
       height="720"
       fill="#ffffff"
       id="rect7" />
    <text
       font-family="'Cambria Math', 'Cambria Math_MSFontService', sans-serif"
       font-weight="400"
       font-size="32px"
       transform="translate(249.28,295)"
       id="text47">ğ‘¥<tspan
   font-size="23px"
   x="15.9467"
   y="7"
   id="tspan9">1</tspan><tspan
   font-family="Calibri, Calibri_MSFontService, sans-serif"
   font-size="32px"
   x="30.7733"
   y="0"
   id="tspan11" /><tspan
   font-family="Calibri, Calibri_MSFontService, sans-serif"
   font-size="32px"
   x="37.939999"
   y="0"
   id="tspan13">+</tspan><tspan
   font-family="Calibri, Calibri_MSFontService, sans-serif"
   font-size="32px"
   x="53.939999"
   y="0"
   id="tspan15" /><tspan
   font-size="32px"
   x="61.106701"
   y="0"
   id="tspan17">3</tspan><tspan
   font-size="32px"
   x="78.7733"
   y="0"
   id="tspan19">ğ‘¥</tspan><tspan
   font-size="23px"
   x="95.459999"
   y="7"
   id="tspan21">2</tspan><tspan
   font-size="32px"
   x="110.287"
   y="0"
   id="tspan23" /><tspan
   font-family="Calibri, Calibri_MSFontService, sans-serif"
   font-size="32px"
   x="117.287"
   y="0"
   id="tspan25">=</tspan> 2<tspan
   font-size="32px"
   x="-7.842"
   y="-49"
   id="tspan27">2</tspan><tspan
   font-size="32px"
   x="9.8246603"
   y="-49"
   id="tspan29">ğ‘¥</tspan><tspan
   font-size="23px"
   x="25.771299"
   y="-43"
   id="tspan31">1</tspan><tspan
   font-size="32px"
   x="40.598"
   y="-49"
   id="tspan33" />âˆ’<tspan
   font-size="32px"
   x="71.431396"
   y="-49"
   id="tspan35" />ğ‘¥<tspan
   font-size="23px"
   x="95.117996"
   y="-43"
   id="tspan37">2</tspan><tspan
   font-size="32px"
   x="109.945"
   y="-49"
   id="tspan39" /><tspan
   font-family="Calibri, Calibri_MSFontService, sans-serif"
   font-size="32px"
   x="116.945"
   y="-49"
   id="tspan41">=</tspan><tspan
   font-family="Calibri, Calibri_MSFontService, sans-serif"
   font-size="32px"
   x="140.11099"
   y="-49"
   id="tspan43">-</tspan><tspan
   font-family="Calibri, Calibri_MSFontService, sans-serif"
   font-size="32px"
   x="149.94501"
   y="-49"
   id="tspan45">6</tspan></text>
    <path
       d="m 229,311 c -7.732,0 -14,-5.511 -14,-12.308 v -25.884 c 0,-6.797 -6.268,-12.308 -14,-12.308 7.732,0 14,-5.511 14,-12.308 V 222.308 C 215,215.511 221.268,210 229,210"
       stroke="#000000"
       stroke-width="4"
       stroke-miterlimit="8"
       fill="none"
       fill-rule="evenodd"
       id="path49" />
    <path
       d="m 456.469,378.425 c 3.75,0 8.218,1.641 13.406,4.922 5.187,3.281 9.125,4.922 11.812,4.922 2.657,0 4.875,-0.703 6.657,-2.109 1.781,-1.407 3.578,-3.594 5.39,-6.563 l 3.75,2.531 c -1.343,2.782 -3.468,5.586 -6.375,8.414 -2.906,2.829 -6.437,4.243 -10.593,4.243 -4,0 -8.571,-1.641 -13.711,-4.922 -5.141,-3.281 -9.071,-4.922 -11.789,-4.922 -2.282,0 -4.282,0.719 -6,2.156 -1.719,1.438 -3.235,3.531 -4.547,6.281 l -3.657,-2.062 c 1.594,-3.688 3.704,-6.758 6.329,-9.211 2.625,-2.453 5.734,-3.68 9.328,-3.68 z"
       fill-rule="evenodd"
       id="path51" />
    <text
       fill="#000000"
       fill-opacity="0"
       font-family="Arial, Arial_MSFontService, sans-serif"
       font-size="16.3594px"
       x="440.81201"
       y="392.73999"
       id="text53">~</text>
    <text
       fill="#ff0000"
       font-family="Calibri, Calibri_MSFontService, sans-serif"
       font-weight="400"
       font-size="32px"
       transform="translate(788.601,538)"
       id="text71">Interchange R<tspan
   font-size="21px"
   x="179.287"
   y="7"
   id="tspan55">1</tspan><tspan
   font-size="32px"
   x="197.287"
   y="0"
   id="tspan57">with</tspan><tspan
   font-size="32px"
   x="262.12"
   y="0"
   id="tspan59">R</tspan><tspan
   font-size="21px"
   x="279.453"
   y="7"
   id="tspan61">2</tspan><tspan
   fill="#000000"
   font-size="43px"
   x="-305.31799"
   y="-442"
   id="tspan63">Equivalence</tspan><tspan
   fill="#000000"
   font-size="32px"
   x="-421.56299"
   y="-392"
   id="tspan65">Linear system A</tspan><tspan
   fill="#000000"
   font-family="'Cambria Math', 'Cambria Math_MSFontService', sans-serif"
   font-size="32px"
   x="-211.317"
   y="-392"
   id="tspan67">~</tspan><tspan
   fill="#000000"
   font-size="32px"
   x="-181.317"
   y="-392"
   id="tspan69">Linear system B</tspan></text>
    <path
       d="m 456.469,514.503 c 3.75,0 8.218,1.641 13.406,4.922 5.187,3.282 9.125,4.922 11.812,4.922 2.657,0 4.875,-0.703 6.657,-2.109 1.781,-1.406 3.578,-3.594 5.39,-6.563 l 3.75,2.532 c -1.343,2.781 -3.468,5.585 -6.375,8.414 -2.906,2.828 -6.437,4.242 -10.593,4.242 -4,0 -8.571,-1.641 -13.711,-4.922 -5.141,-3.281 -9.071,-4.922 -11.789,-4.922 -2.282,0 -4.282,0.719 -6,2.156 -1.719,1.438 -3.235,3.532 -4.547,6.282 l -3.657,-2.063 c 1.594,-3.687 3.704,-6.758 6.329,-9.211 2.625,-2.453 5.734,-3.68 9.328,-3.68 z"
       fill-rule="evenodd"
       id="path73" />
    <text
       fill="#000000"
       fill-opacity="0"
       font-family="Arial, Arial_MSFontService, sans-serif"
       font-size="16.3594px"
       x="440.81201"
       y="528.81799"
       id="text75">~</text>
    <path
       d="m 563,581 c -7.456,0 -13.5,-5.314 -13.5,-11.869 V 542.869 C 549.5,536.314 543.456,531 536,531 c 7.456,0 13.5,-5.314 13.5,-11.869 V 492.869 C 549.5,486.314 555.544,481 563,481"
       stroke="#000000"
       stroke-width="4"
       stroke-miterlimit="8"
       fill="none"
       fill-rule="evenodd"
       id="path77" />
    <text
       fill="#ff0000"
       font-family="Calibri, Calibri_MSFontService, sans-serif"
       font-weight="400"
       font-size="32px"
       transform="translate(790.11,398)"
       id="text83">Scale R<tspan
   font-size="21px"
   x="91.066704"
   y="7"
   id="tspan79">2</tspan><tspan
   font-size="32px"
   x="109.067"
   y="0"
   id="tspan81">by 2</tspan></text>
    <path
       d="m 456.337,244.326 c 3.75,0 8.219,1.641 13.406,4.922 5.188,3.281 9.125,4.922 11.813,4.922 2.656,0 4.875,-0.703 6.656,-2.11 1.781,-1.406 3.578,-3.593 5.391,-6.562 l 3.75,2.531 c -1.344,2.781 -3.469,5.586 -6.375,8.414 -2.906,2.828 -6.438,4.242 -10.594,4.242 -4,0 -8.57,-1.64 -13.711,-4.922 -5.14,-3.281 -9.07,-4.921 -11.789,-4.921 -2.281,0 -4.281,0.718 -6,2.156 -1.719,1.437 -3.234,3.531 -4.547,6.281 l -3.656,-2.062 c 1.594,-3.688 3.703,-6.758 6.328,-9.211 2.625,-2.453 5.734,-3.68 9.328,-3.68 z"
       fill-rule="evenodd"
       id="path85" />
    <text
       fill="#000000"
       fill-opacity="0"
       font-family="Arial, Arial_MSFontService, sans-serif"
       font-size="16.3594px"
       x="440.681"
       y="258.64001"
       id="text87">~</text>
    <text
       font-family="'Cambria Math', 'Cambria Math_MSFontService', sans-serif"
       font-weight="400"
       font-size="32px"
       transform="translate(585.881,295)"
       id="text105">ğ‘¥<tspan
   font-size="23px"
   x="15.9467"
   y="7"
   id="tspan89">1</tspan><tspan
   font-size="32px"
   x="30.7733"
   y="0"
   id="tspan91" />+<tspan
   font-size="32px"
   x="61.606701"
   y="0"
   id="tspan93" />3<tspan
   font-size="32px"
   x="86.2733"
   y="0"
   id="tspan95">ğ‘¥</tspan><tspan
   font-size="23px"
   x="102.96"
   y="7"
   id="tspan97">2</tspan><tspan
   font-size="32px"
   x="117.787"
   y="0"
   id="tspan99" /><tspan
   font-family="Calibri, Calibri_MSFontService, sans-serif"
   font-size="32px"
   x="124.787"
   y="0"
   id="tspan101">=</tspan><tspan
   font-family="Calibri, Calibri_MSFontService, sans-serif"
   font-size="32px"
   x="147.953"
   y="0"
   id="tspan103">2</tspan></text>
    <path
       d="m 557,311 c -7.456,0 -13.5,-5.314 -13.5,-11.869 V 272.869 C 543.5,266.314 537.456,261 530,261 c 7.456,0 13.5,-5.314 13.5,-11.869 V 222.869 C 543.5,216.314 549.544,211 557,211"
       stroke="#000000"
       stroke-width="4"
       stroke-miterlimit="8"
       fill="none"
       fill-rule="evenodd"
       id="path107" />
    <text
       fill="#ff0000"
       font-family="Calibri, Calibri_MSFontService, sans-serif"
       font-weight="400"
       font-size="32px"
       transform="translate(788.601,272)"
       id="text167">Replace R<tspan
   font-size="21px"
   x="126.273"
   y="7"
   id="tspan109">1</tspan><tspan
   font-size="32px"
   x="144.27299"
   y="0"
   id="tspan111">with R</tspan><tspan
   font-size="21px"
   x="226.44"
   y="7"
   id="tspan113">1</tspan><tspan
   font-size="32px"
   x="244.44"
   y="0"
   id="tspan115">+ 2R</tspan><tspan
   font-size="21px"
   x="301.10699"
   y="7"
   id="tspan117">2</tspan><tspan
   fill="#000000"
   font-family="'Cambria Math', 'Cambria Math_MSFontService', sans-serif"
   font-size="32px"
   x="-219.26801"
   y="-26"
   id="tspan119">4</tspan><tspan
   fill="#000000"
   font-family="'Cambria Math', 'Cambria Math_MSFontService', sans-serif"
   font-size="32px"
   x="-201.60201"
   y="-26"
   id="tspan121">ğ‘¥</tspan><tspan
   fill="#000000"
   font-family="'Cambria Math', 'Cambria Math_MSFontService', sans-serif"
   font-size="23px"
   x="-185.655"
   y="-20"
   id="tspan123">1</tspan><tspan
   fill="#000000"
   font-family="'Cambria Math', 'Cambria Math_MSFontService', sans-serif"
   font-size="32px"
   x="-170.828"
   y="-26"
   id="tspan125" /><tspan
   fill="#000000"
   font-family="'Cambria Math', 'Cambria Math_MSFontService', sans-serif"
   font-size="32px"
   x="-163.828"
   y="-26"
   id="tspan127">âˆ’</tspan><tspan
   fill="#000000"
   font-family="'Cambria Math', 'Cambria Math_MSFontService', sans-serif"
   font-size="32px"
   x="-139.995"
   y="-26"
   id="tspan129" /><tspan
   fill="#000000"
   font-family="'Cambria Math', 'Cambria Math_MSFontService', sans-serif"
   font-size="32px"
   x="-132.995"
   y="-26"
   id="tspan131">5</tspan><tspan
   fill="#000000"
   font-family="'Cambria Math', 'Cambria Math_MSFontService', sans-serif"
   font-size="32px"
   x="-115.328"
   y="-26"
   id="tspan133">ğ‘¥</tspan><tspan
   fill="#000000"
   font-family="'Cambria Math', 'Cambria Math_MSFontService', sans-serif"
   font-size="23px"
   x="-98.641602"
   y="-20"
   id="tspan135">2</tspan><tspan
   fill="#000000"
   font-family="'Cambria Math', 'Cambria Math_MSFontService', sans-serif"
   font-size="32px"
   x="-83.814903"
   y="-26"
   id="tspan137" /><tspan
   fill="#000000"
   font-size="32px"
   x="-76.814903"
   y="-26"
   id="tspan139">=</tspan><tspan
   fill="#000000"
   font-size="32px"
   x="-53.6483"
   y="-26"
   id="tspan141">-</tspan><tspan
   fill="#000000"
   font-size="32px"
   x="-43.814899"
   y="-26"
   id="tspan143">2</tspan><tspan
   fill="#000000"
   font-family="'Cambria Math', 'Cambria Math_MSFontService', sans-serif"
   font-size="32px"
   x="-222.159"
   y="150"
   id="tspan145">2ğ‘¥</tspan><tspan
   fill="#000000"
   font-family="'Cambria Math', 'Cambria Math_MSFontService', sans-serif"
   font-size="23px"
   x="-188.54601"
   y="156"
   id="tspan147">1</tspan><tspan
   fill="#000000"
   font-family="'Cambria Math', 'Cambria Math_MSFontService', sans-serif"
   font-size="32px"
   x="-173.71899"
   y="150"
   id="tspan149" /><tspan
   fill="#000000"
   font-family="'Cambria Math', 'Cambria Math_MSFontService', sans-serif"
   font-size="32px"
   x="-166.71899"
   y="150"
   id="tspan151">+</tspan><tspan
   fill="#000000"
   font-family="'Cambria Math', 'Cambria Math_MSFontService', sans-serif"
   font-size="32px"
   x="-142.886"
   y="150"
   id="tspan153" /><tspan
   fill="#000000"
   font-family="'Cambria Math', 'Cambria Math_MSFontService', sans-serif"
   font-size="32px"
   x="-135.886"
   y="150"
   id="tspan155">6</tspan><tspan
   fill="#000000"
   font-family="'Cambria Math', 'Cambria Math_MSFontService', sans-serif"
   font-size="32px"
   x="-118.219"
   y="150"
   id="tspan157">ğ‘¥</tspan><tspan
   fill="#000000"
   font-family="'Cambria Math', 'Cambria Math_MSFontService', sans-serif"
   font-size="23px"
   x="-101.533"
   y="156"
   id="tspan159">2</tspan><tspan
   fill="#000000"
   font-family="'Cambria Math', 'Cambria Math_MSFontService', sans-serif"
   font-size="32px"
   x="-86.7061"
   y="150"
   id="tspan161" /><tspan
   fill="#000000"
   font-size="32px"
   x="-79.7061"
   y="150"
   id="tspan163">=</tspan><tspan
   fill="#000000"
   font-size="32px"
   x="-56.539398"
   y="150"
   id="tspan165">4</tspan></text>
    <path
       d="m 563,442 c -9.113,0 -16.5,-6.495 -16.5,-14.506 v -21.488 c 0,-8.011 -7.387,-14.506 -16.5,-14.506 9.113,0 16.5,-6.495 16.5,-14.506 V 355.506 C 546.5,347.495 553.887,341 563,341"
       stroke="#000000"
       stroke-width="4"
       stroke-miterlimit="8"
       fill="none"
       fill-rule="evenodd"
       id="path169" />
    <text
       font-family="'Cambria Math', 'Cambria Math_MSFontService', sans-serif"
       font-weight="400"
       font-size="32px"
       transform="translate(567.389,373)"
       id="text231">4<tspan
   font-size="32px"
   x="17.6667"
   y="0"
   id="tspan171">ğ‘¥</tspan><tspan
   font-size="23px"
   x="33.6133"
   y="7"
   id="tspan173">1</tspan><tspan
   font-size="32px"
   x="48.439999"
   y="0"
   id="tspan175" />âˆ’<tspan
   font-size="32px"
   x="79.2733"
   y="0"
   id="tspan177" />5<tspan
   font-size="32px"
   x="103.94"
   y="0"
   id="tspan179">ğ‘¥</tspan><tspan
   font-size="23px"
   x="120.627"
   y="7"
   id="tspan181">2</tspan><tspan
   font-size="32px"
   x="135.453"
   y="0"
   id="tspan183" /><tspan
   font-family="Calibri, Calibri_MSFontService, sans-serif"
   font-size="32px"
   x="142.453"
   y="0"
   id="tspan185">=</tspan><tspan
   font-family="Calibri, Calibri_MSFontService, sans-serif"
   font-size="32px"
   x="165.62"
   y="0"
   id="tspan187">-</tspan><tspan
   font-family="Calibri, Calibri_MSFontService, sans-serif"
   font-size="32px"
   x="175.453"
   y="0"
   id="tspan189">2</tspan><tspan
   font-size="32px"
   x="5.3829999"
   y="143"
   id="tspan191">2ğ‘¥</tspan><tspan
   font-size="23px"
   x="38.9963"
   y="149"
   id="tspan193">1</tspan><tspan
   font-size="32px"
   x="53.823002"
   y="143"
   id="tspan195" />+<tspan
   font-size="32px"
   x="84.656303"
   y="143"
   id="tspan197" />6<tspan
   font-size="32px"
   x="109.323"
   y="143"
   id="tspan199">ğ‘¥</tspan><tspan
   font-size="23px"
   x="126.01"
   y="149"
   id="tspan201">2</tspan><tspan
   font-size="32px"
   x="140.836"
   y="143"
   id="tspan203" /><tspan
   font-family="Calibri, Calibri_MSFontService, sans-serif"
   font-size="32px"
   x="147.836"
   y="143"
   id="tspan205">=</tspan><tspan
   font-family="Calibri, Calibri_MSFontService, sans-serif"
   font-size="32px"
   x="171.00301"
   y="143"
   id="tspan207">4</tspan><tspan
   font-size="32px"
   x="5.3829999"
   y="193"
   id="tspan209">4</tspan><tspan
   font-size="32px"
   x="23.049601"
   y="193"
   id="tspan211">ğ‘¥</tspan><tspan
   font-size="23px"
   x="38.9963"
   y="200"
   id="tspan213">1</tspan><tspan
   font-size="32px"
   x="53.823002"
   y="193"
   id="tspan215" />âˆ’<tspan
   font-size="32px"
   x="84.656303"
   y="193"
   id="tspan217" />5<tspan
   font-size="32px"
   x="109.323"
   y="193"
   id="tspan219">ğ‘¥</tspan><tspan
   font-size="23px"
   x="126.01"
   y="200"
   id="tspan221">2</tspan><tspan
   font-size="32px"
   x="140.836"
   y="193"
   id="tspan223" /><tspan
   font-family="Calibri, Calibri_MSFontService, sans-serif"
   font-size="32px"
   x="147.836"
   y="193"
   id="tspan225">=</tspan><tspan
   font-family="Calibri, Calibri_MSFontService, sans-serif"
   font-size="32px"
   x="171.00301"
   y="193"
   id="tspan227">-</tspan><tspan
   font-family="Calibri, Calibri_MSFontService, sans-serif"
   font-size="32px"
   x="180.836"
   y="193"
   id="tspan229">2</tspan></text>
  </g>
</svg>
