<?xml version="1.0" encoding="UTF-8" standalone="no"?>
<svg
   width="1280"
   height="580"
   overflow="hidden"
   version="1.1"
   id="svg233"
   sodipodi:docname="linear_systems-equivalence.svg"
   inkscape:version="1.2 (dc2aedaf03, 2022-05-15)"
   xmlns:inkscape="http://www.inkscape.org/namespaces/inkscape"
   xmlns:sodipodi="http://sodipodi.sourceforge.net/DTD/sodipodi-0.dtd"
   xmlns="http://www.w3.org/2000/svg"
   xmlns:svg="http://www.w3.org/2000/svg">
  <sodipodi:namedview
     id="namedview235"
     pagecolor="#ffffff"
     bordercolor="#000000"
     borderopacity="0.25"
     inkscape:showpageshadow="2"
     inkscape:pageopacity="0.0"
     inkscape:pagecheckerboard="0"
     inkscape:deskcolor="#d1d1d1"
     showgrid="false"
     inkscape:zoom="0.92709556"
     inkscape:cx="601.34039"
     inkscape:cy="359.18628"
     inkscape:window-width="2880"
     inkscape:window-height="1514"
     inkscape:window-x="3829"
     inkscape:window-y="-11"
     inkscape:window-maximized="1"
     inkscape:current-layer="svg233" />
  <defs
     id="defs5">
    <clipPath
       id="clip0">
      <rect
         x="0"
         y="0"
         width="1280"
         height="720"
         id="rect2" />
    </clipPath>
  </defs>
  <g
     clip-path="url(#clip0)"
     id="g231"
     transform="translate(5.3931873,-31.280487)">
    <rect
       x="0"
       y="0"
       width="1280"
       height="720"
       fill="#ffffff"
       id="rect7" />
    <text
       font-family="'Cambria Math', 'Cambria Math_MSFontService', sans-serif"
       font-weight="400"
       font-size="32px"
       transform="translate(239.66,289)"
       id="text47">ğ‘¥<tspan
   font-size="23px"
   x="15.9467"
   y="6"
   id="tspan9">1</tspan><tspan
   font-family="Calibri, Calibri_MSFontService, sans-serif"
   font-size="32px"
   x="30.7733"
   y="0"
   id="tspan11" /><tspan
   font-family="Calibri, Calibri_MSFontService, sans-serif"
   font-size="32px"
   x="37.939999"
   y="0"
   id="tspan13">+</tspan><tspan
   font-family="Calibri, Calibri_MSFontService, sans-serif"
   font-size="32px"
   x="53.939999"
   y="0"
   id="tspan15" /><tspan
   font-size="32px"
   x="61.106701"
   y="0"
   id="tspan17">3</tspan><tspan
   font-size="32px"
   x="78.7733"
   y="0"
   id="tspan19">ğ‘¥</tspan><tspan
   font-size="23px"
   x="95.459999"
   y="6"
   id="tspan21">2</tspan><tspan
   font-size="32px"
   x="110.287"
   y="0"
   id="tspan23" /><tspan
   font-family="Calibri, Calibri_MSFontService, sans-serif"
   font-size="32px"
   x="117.287"
   y="0"
   id="tspan25">=</tspan> 2<tspan
   font-size="32px"
   x="0.485764"
   y="-41"
   id="tspan27">2</tspan><tspan
   font-size="32px"
   x="18.152399"
   y="-41"
   id="tspan29">ğ‘¥</tspan><tspan
   font-size="23px"
   x="34.099098"
   y="-34"
   id="tspan31">1</tspan><tspan
   font-size="32px"
   x="48.9258"
   y="-41"
   id="tspan33" /><tspan
   font-family="Calibri, Calibri_MSFontService, sans-serif"
   font-size="32px"
   x="55.9258"
   y="-41"
   id="tspan35">âˆ’</tspan> ğ‘¥<tspan
   font-size="23px"
   x="95.612396"
   y="-34"
   id="tspan37">2</tspan><tspan
   font-size="32px"
   x="110.439"
   y="-41"
   id="tspan39" /><tspan
   font-family="Calibri, Calibri_MSFontService, sans-serif"
   font-size="32px"
   x="117.439"
   y="-41"
   id="tspan41">=</tspan><tspan
   font-family="Calibri, Calibri_MSFontService, sans-serif"
   font-size="32px"
   x="140.606"
   y="-41"
   id="tspan43">âˆ’</tspan><tspan
   font-family="Calibri, Calibri_MSFontService, sans-serif"
   font-size="32px"
   x="156.606"
   y="-41"
   id="tspan45">6</tspan></text>
    <path
       d="m 229,311 c -7.732,0 -14,-5.511 -14,-12.308 v -25.884 c 0,-6.797 -6.268,-12.308 -14,-12.308 7.732,0 14,-5.511 14,-12.308 V 222.308 C 215,215.511 221.268,210 229,210"
       stroke="#000000"
       stroke-width="4"
       stroke-miterlimit="8"
       fill="none"
       fill-rule="evenodd"
       id="path49" />
    <path
       d="m 456.469,378.425 c 3.75,0 8.218,1.641 13.406,4.922 5.187,3.281 9.125,4.922 11.812,4.922 2.657,0 4.875,-0.703 6.657,-2.109 1.781,-1.407 3.578,-3.594 5.39,-6.563 l 3.75,2.531 c -1.343,2.782 -3.468,5.586 -6.375,8.414 -2.906,2.829 -6.437,4.243 -10.593,4.243 -4,0 -8.571,-1.641 -13.711,-4.922 -5.141,-3.281 -9.071,-4.922 -11.789,-4.922 -2.282,0 -4.282,0.719 -6,2.156 -1.719,1.438 -3.235,3.531 -4.547,6.281 l -3.657,-2.062 c 1.594,-3.688 3.704,-6.758 6.329,-9.211 2.625,-2.453 5.734,-3.68 9.328,-3.68 z"
       fill-rule="evenodd"
       id="path51" />
    <text
       fill="#000000"
       fill-opacity="0"
       font-family="Arial, Arial_MSFontService, sans-serif"
       font-size="16.3594px"
       x="440.81201"
       y="392.73999"
       id="text53">~</text>
    <text
       fill="#c00000"
       font-family="Calibri, Calibri_MSFontService, sans-serif"
       font-weight="400"
       font-size="32px"
       transform="translate(788.601,538)"
       id="text69">Interchange R<tspan
   font-size="21px"
   x="179.287"
   y="7"
   id="tspan55">1</tspan><tspan
   font-size="32px"
   x="197.287"
   y="0"
   id="tspan57">with R</tspan><tspan
   font-size="21px"
   x="279.453"
   y="7"
   id="tspan59">2</tspan><tspan
   fill="#000000"
   font-size="43px"
   x="-305.31799"
   y="-442"
   id="tspan61">Equivalence</tspan><tspan
   fill="#000000"
   font-size="32px"
   x="-421.56299"
   y="-392"
   id="tspan63">Linear system A</tspan><tspan
   fill="#000000"
   font-family="'Cambria Math', 'Cambria Math_MSFontService', sans-serif"
   font-size="32px"
   x="-211.317"
   y="-392"
   id="tspan65">~</tspan><tspan
   fill="#000000"
   font-size="32px"
   x="-181.317"
   y="-392"
   id="tspan67">Linear system B</tspan></text>
    <path
       d="m 456.469,514.503 c 3.75,0 8.218,1.641 13.406,4.922 5.187,3.282 9.125,4.922 11.812,4.922 2.657,0 4.875,-0.703 6.657,-2.109 1.781,-1.406 3.578,-3.594 5.39,-6.563 l 3.75,2.532 c -1.343,2.781 -3.468,5.585 -6.375,8.414 -2.906,2.828 -6.437,4.242 -10.593,4.242 -4,0 -8.571,-1.641 -13.711,-4.922 -5.141,-3.281 -9.071,-4.922 -11.789,-4.922 -2.282,0 -4.282,0.719 -6,2.156 -1.719,1.438 -3.235,3.532 -4.547,6.282 l -3.657,-2.063 c 1.594,-3.687 3.704,-6.758 6.329,-9.211 2.625,-2.453 5.734,-3.68 9.328,-3.68 z"
       fill-rule="evenodd"
       id="path71" />
    <text
       fill="#000000"
       fill-opacity="0"
       font-family="Arial, Arial_MSFontService, sans-serif"
       font-size="16.3594px"
       x="440.81201"
       y="528.81799"
       id="text73">~</text>
    <path
       d="m 563,581 c -7.456,0 -13.5,-5.314 -13.5,-11.869 V 542.869 C 549.5,536.314 543.456,531 536,531 c 7.456,0 13.5,-5.314 13.5,-11.869 V 492.869 C 549.5,486.314 555.544,481 563,481"
       stroke="#000000"
       stroke-width="4"
       stroke-miterlimit="8"
       fill="none"
       fill-rule="evenodd"
       id="path75" />
    <text
       fill="#c00000"
       font-family="Calibri, Calibri_MSFontService, sans-serif"
       font-weight="400"
       font-size="32px"
       transform="translate(790.11,398)"
       id="text81">Scale R<tspan
   font-size="21px"
   x="91.066704"
   y="7"
   id="tspan77">2</tspan><tspan
   font-size="32px"
   x="109.067"
   y="0"
   id="tspan79">by 2</tspan></text>
    <path
       d="m 456.337,244.326 c 3.75,0 8.219,1.641 13.406,4.922 5.188,3.281 9.125,4.922 11.813,4.922 2.656,0 4.875,-0.703 6.656,-2.11 1.781,-1.406 3.578,-3.593 5.391,-6.562 l 3.75,2.531 c -1.344,2.781 -3.469,5.586 -6.375,8.414 -2.906,2.828 -6.438,4.242 -10.594,4.242 -4,0 -8.57,-1.64 -13.711,-4.922 -5.14,-3.281 -9.07,-4.921 -11.789,-4.921 -2.281,0 -4.281,0.718 -6,2.156 -1.719,1.437 -3.234,3.531 -4.547,6.281 l -3.656,-2.062 c 1.594,-3.688 3.703,-6.758 6.328,-9.211 2.625,-2.453 5.734,-3.68 9.328,-3.68 z"
       fill-rule="evenodd"
       id="path83" />
    <text
       fill="#000000"
       fill-opacity="0"
       font-family="Arial, Arial_MSFontService, sans-serif"
       font-size="16.3594px"
       x="440.681"
       y="258.64001"
       id="text85">~</text>
    <text
       font-family="'Cambria Math', 'Cambria Math_MSFontService', sans-serif"
       font-weight="400"
       font-size="32px"
       transform="translate(576.497,289)"
       id="text103">ğ‘¥<tspan
   font-size="23px"
   x="15.9467"
   y="6"
   id="tspan87">1</tspan><tspan
   font-size="32px"
   x="30.7733"
   y="0"
   id="tspan89" />+<tspan
   font-size="32px"
   x="61.606602"
   y="0"
   id="tspan91" />3<tspan
   font-size="32px"
   x="86.2733"
   y="0"
   id="tspan93">ğ‘¥</tspan><tspan
   font-size="23px"
   x="102.96"
   y="6"
   id="tspan95">2</tspan><tspan
   font-size="32px"
   x="117.787"
   y="0"
   id="tspan97" /><tspan
   font-family="Calibri, Calibri_MSFontService, sans-serif"
   font-size="32px"
   x="124.787"
   y="0"
   id="tspan99">=</tspan><tspan
   font-family="Calibri, Calibri_MSFontService, sans-serif"
   font-size="32px"
   x="147.953"
   y="0"
   id="tspan101">2</tspan></text>
    <path
       d="m 557,311 c -7.456,0 -13.5,-5.314 -13.5,-11.869 V 272.869 C 543.5,266.314 537.456,261 530,261 c 7.456,0 13.5,-5.314 13.5,-11.869 V 222.869 C 543.5,216.314 549.544,211 557,211"
       stroke="#000000"
       stroke-width="4"
       stroke-miterlimit="8"
       fill="none"
       fill-rule="evenodd"
       id="path105" />
    <text
       fill="#c00000"
       font-family="Calibri, Calibri_MSFontService, sans-serif"
       font-weight="400"
       font-size="32px"
       transform="translate(788.601,272)"
       id="text165">Replace R<tspan
   font-size="21px"
   x="126.273"
   y="7"
   id="tspan107">1</tspan><tspan
   font-size="32px"
   x="144.27299"
   y="0"
   id="tspan109">with R</tspan><tspan
   font-size="21px"
   x="226.44"
   y="7"
   id="tspan111">1</tspan><tspan
   font-size="32px"
   x="244.44"
   y="0"
   id="tspan113">+ 2R</tspan><tspan
   font-size="21px"
   x="301.10699"
   y="7"
   id="tspan115">2</tspan><tspan
   fill="#000000"
   font-family="'Cambria Math', 'Cambria Math_MSFontService', sans-serif"
   font-size="32px"
   x="-221.095"
   y="-24"
   id="tspan117">4</tspan><tspan
   fill="#000000"
   font-family="'Cambria Math', 'Cambria Math_MSFontService', sans-serif"
   font-size="32px"
   x="-203.42799"
   y="-24"
   id="tspan119">ğ‘¥</tspan><tspan
   fill="#000000"
   font-family="'Cambria Math', 'Cambria Math_MSFontService', sans-serif"
   font-size="23px"
   x="-187.481"
   y="-17"
   id="tspan121">1</tspan><tspan
   fill="#000000"
   font-family="'Cambria Math', 'Cambria Math_MSFontService', sans-serif"
   font-size="32px"
   x="-172.655"
   y="-24"
   id="tspan123" /><tspan
   fill="#000000"
   font-size="32px"
   x="-165.655"
   y="-24"
   id="tspan125">âˆ’</tspan><tspan
   fill="#000000"
   font-family="'Cambria Math', 'Cambria Math_MSFontService', sans-serif"
   font-size="32px"
   x="-149.655"
   y="-24"
   id="tspan127" /><tspan
   fill="#000000"
   font-family="'Cambria Math', 'Cambria Math_MSFontService', sans-serif"
   font-size="32px"
   x="-142.655"
   y="-24"
   id="tspan129">5</tspan><tspan
   fill="#000000"
   font-family="'Cambria Math', 'Cambria Math_MSFontService', sans-serif"
   font-size="32px"
   x="-124.988"
   y="-24"
   id="tspan131">ğ‘¥</tspan><tspan
   fill="#000000"
   font-family="'Cambria Math', 'Cambria Math_MSFontService', sans-serif"
   font-size="23px"
   x="-108.301"
   y="-17"
   id="tspan133">2</tspan><tspan
   fill="#000000"
   font-family="'Cambria Math', 'Cambria Math_MSFontService', sans-serif"
   font-size="32px"
   x="-93.474701"
   y="-24"
   id="tspan135" /><tspan
   fill="#000000"
   font-size="32px"
   x="-86.474701"
   y="-24"
   id="tspan137">=</tspan><tspan
   fill="#000000"
   font-size="32px"
   x="-63.307999"
   y="-24"
   id="tspan139">âˆ’</tspan><tspan
   fill="#000000"
   font-size="32px"
   x="-47.307999"
   y="-24"
   id="tspan141">2</tspan><tspan
   fill="#000000"
   font-family="'Cambria Math', 'Cambria Math_MSFontService', sans-serif"
   font-size="32px"
   x="-226.31"
   y="150"
   id="tspan143">2ğ‘¥</tspan><tspan
   fill="#000000"
   font-family="'Cambria Math', 'Cambria Math_MSFontService', sans-serif"
   font-size="23px"
   x="-192.69701"
   y="156"
   id="tspan145">1</tspan><tspan
   fill="#000000"
   font-family="'Cambria Math', 'Cambria Math_MSFontService', sans-serif"
   font-size="32px"
   x="-177.87"
   y="150"
   id="tspan147" /><tspan
   fill="#000000"
   font-family="'Cambria Math', 'Cambria Math_MSFontService', sans-serif"
   font-size="32px"
   x="-170.87"
   y="150"
   id="tspan149">+</tspan><tspan
   fill="#000000"
   font-family="'Cambria Math', 'Cambria Math_MSFontService', sans-serif"
   font-size="32px"
   x="-147.037"
   y="150"
   id="tspan151" /><tspan
   fill="#000000"
   font-family="'Cambria Math', 'Cambria Math_MSFontService', sans-serif"
   font-size="32px"
   x="-140.037"
   y="150"
   id="tspan153">6</tspan><tspan
   fill="#000000"
   font-family="'Cambria Math', 'Cambria Math_MSFontService', sans-serif"
   font-size="32px"
   x="-122.37"
   y="150"
   id="tspan155">ğ‘¥</tspan><tspan
   fill="#000000"
   font-family="'Cambria Math', 'Cambria Math_MSFontService', sans-serif"
   font-size="23px"
   x="-105.684"
   y="156"
   id="tspan157">2</tspan><tspan
   fill="#000000"
   font-family="'Cambria Math', 'Cambria Math_MSFontService', sans-serif"
   font-size="32px"
   x="-90.857101"
   y="150"
   id="tspan159" /><tspan
   fill="#000000"
   font-size="32px"
   x="-83.857101"
   y="150"
   id="tspan161">=</tspan><tspan
   fill="#000000"
   font-size="32px"
   x="-60.690399"
   y="150"
   id="tspan163">4</tspan></text>
    <path
       d="m 563,442 c -9.113,0 -16.5,-6.495 -16.5,-14.506 v -21.488 c 0,-8.011 -7.387,-14.506 -16.5,-14.506 9.113,0 16.5,-6.495 16.5,-14.506 V 355.506 C 546.5,347.495 553.887,341 563,341"
       stroke="#000000"
       stroke-width="4"
       stroke-miterlimit="8"
       fill="none"
       fill-rule="evenodd"
       id="path167" />
    <text
       font-family="'Cambria Math', 'Cambria Math_MSFontService', sans-serif"
       font-weight="400"
       font-size="32px"
       transform="translate(570.517,384)"
       id="text229">4<tspan
   font-size="32px"
   x="17.666599"
   y="0"
   id="tspan169">ğ‘¥</tspan><tspan
   font-size="23px"
   x="33.6133"
   y="7"
   id="tspan171">1</tspan><tspan
   font-size="32px"
   x="48.439999"
   y="0"
   id="tspan173" /><tspan
   font-family="Calibri, Calibri_MSFontService, sans-serif"
   font-size="32px"
   x="55.439999"
   y="0"
   id="tspan175">âˆ’</tspan> 5<tspan
   font-size="32px"
   x="96.106598"
   y="0"
   id="tspan177">ğ‘¥</tspan><tspan
   font-size="23px"
   x="112.793"
   y="7"
   id="tspan179">2</tspan><tspan
   font-size="32px"
   x="127.62"
   y="0"
   id="tspan181" /><tspan
   font-family="Calibri, Calibri_MSFontService, sans-serif"
   font-size="32px"
   x="134.62"
   y="0"
   id="tspan183">=</tspan><tspan
   font-family="Calibri, Calibri_MSFontService, sans-serif"
   font-size="32px"
   x="157.787"
   y="0"
   id="tspan185">-</tspan><tspan
   font-family="Calibri, Calibri_MSFontService, sans-serif"
   font-size="32px"
   x="167.62"
   y="0"
   id="tspan187">2</tspan><tspan
   font-size="32px"
   x="2.25543"
   y="139"
   id="tspan189">2ğ‘¥</tspan><tspan
   font-size="23px"
   x="35.868801"
   y="146"
   id="tspan191">1</tspan><tspan
   font-size="32px"
   x="50.6954"
   y="139"
   id="tspan193" />+<tspan
   font-size="32px"
   x="81.528702"
   y="139"
   id="tspan195" />6<tspan
   font-size="32px"
   x="106.195"
   y="139"
   id="tspan197">ğ‘¥</tspan><tspan
   font-size="23px"
   x="122.882"
   y="146"
   id="tspan199">2</tspan><tspan
   font-size="32px"
   x="137.709"
   y="139"
   id="tspan201" /><tspan
   font-family="Calibri, Calibri_MSFontService, sans-serif"
   font-size="32px"
   x="144.709"
   y="139"
   id="tspan203">=</tspan><tspan
   font-family="Calibri, Calibri_MSFontService, sans-serif"
   font-size="32px"
   x="167.875"
   y="139"
   id="tspan205">4</tspan><tspan
   font-size="32px"
   x="10.2616"
   y="177"
   id="tspan207">4</tspan><tspan
   font-size="32px"
   x="27.928301"
   y="177"
   id="tspan209">ğ‘¥</tspan><tspan
   font-size="23px"
   x="43.874901"
   y="184"
   id="tspan211">1</tspan><tspan
   font-size="32px"
   x="58.701599"
   y="177"
   id="tspan213" /><tspan
   font-family="Calibri, Calibri_MSFontService, sans-serif"
   font-size="32px"
   x="65.701599"
   y="177"
   id="tspan215">âˆ’</tspan> 5<tspan
   font-size="32px"
   x="106.368"
   y="177"
   id="tspan217">ğ‘¥</tspan><tspan
   font-size="23px"
   x="123.055"
   y="184"
   id="tspan219">2</tspan><tspan
   font-size="32px"
   x="137.882"
   y="177"
   id="tspan221" /><tspan
   font-family="Calibri, Calibri_MSFontService, sans-serif"
   font-size="32px"
   x="144.882"
   y="177"
   id="tspan223">=</tspan><tspan
   font-family="Calibri, Calibri_MSFontService, sans-serif"
   font-size="32px"
   x="168.048"
   y="177"
   id="tspan225">âˆ’</tspan><tspan
   font-family="Calibri, Calibri_MSFontService, sans-serif"
   font-size="32px"
   x="184.048"
   y="177"
   id="tspan227">2</tspan></text>
  </g>
</svg>
