<?xml version="1.0" encoding="UTF-8" standalone="no"?>
<svg
   width="1280"
   height="520"
   overflow="hidden"
   version="1.1"
   id="svg153"
   sodipodi:docname="linear_systems-linear_transformation_notation.svg"
   inkscape:version="1.2 (dc2aedaf03, 2022-05-15)"
   xmlns:inkscape="http://www.inkscape.org/namespaces/inkscape"
   xmlns:sodipodi="http://sodipodi.sourceforge.net/DTD/sodipodi-0.dtd"
   xmlns="http://www.w3.org/2000/svg"
   xmlns:svg="http://www.w3.org/2000/svg">
  <sodipodi:namedview
     id="namedview155"
     pagecolor="#ffffff"
     bordercolor="#000000"
     borderopacity="0.25"
     inkscape:showpageshadow="2"
     inkscape:pageopacity="0.0"
     inkscape:pagecheckerboard="0"
     inkscape:deskcolor="#d1d1d1"
     showgrid="false"
     inkscape:zoom="0.92709556"
     inkscape:cx="525.83576"
     inkscape:cy="335.45625"
     inkscape:window-width="2560"
     inkscape:window-height="1494"
     inkscape:window-x="-11"
     inkscape:window-y="-11"
     inkscape:window-maximized="1"
     inkscape:current-layer="svg153" />
  <defs
     id="defs5">
    <clipPath
       clipPathUnits="userSpaceOnUse"
       id="clipPath511">
      <rect
         x="-433.35901"
         y="-370"
         width="1280"
         height="720"
         id="rect513"
         transform="scale(-1,1)" />
    </clipPath>
    <clipPath
       clipPathUnits="userSpaceOnUse"
       id="clipPath515">
      <rect
         x="-459.311"
         y="-345"
         width="1280"
         height="720"
         id="rect517" />
    </clipPath>
    <clipPath
       clipPathUnits="userSpaceOnUse"
       id="clipPath519">
      <rect
         x="-344.52402"
         y="-345"
         width="1280"
         height="720"
         id="rect521" />
    </clipPath>
  </defs>
  <rect
     x="-7.5504618"
     y="-95.998734"
     width="1280"
     height="720"
     fill="#ffffff"
     id="rect7" />
  <path
     d="m 379.22414,155.23129 c 0,-16.845 13.431,-30.5 30,-30.5 16.569,0 30,13.655 30,30.5 0,16.845 -13.431,30.5 -30,30.5 -16.569,0 -30,-13.655 -30,-30.5 z"
     fill="#fff2cc"
     fill-rule="evenodd"
     id="path9" />
  <path
     d="m 491.22414,155.23129 c 0,-16.845 15.222,-30.5 34,-30.5 18.778,0 34,13.655 34,30.5 0,16.845 -15.222,30.5 -34,30.5 -18.778,0 -34,-13.655 -34,-30.5 z"
     fill="#fbe5d6"
     fill-rule="evenodd"
     id="path11" />
  <text
     font-family="Calibri, Calibri_MSFontService, sans-serif"
     font-weight="400"
     font-size="48px"
     id="text23"
     x="343.32214"
     y="170.73129">T: <tspan
   fill="#c00000"
   font-family="Cambria, Cambria_MSFontService, sans-serif"
   font-size="48px"
   x="387.18213"
   y="170.73129"
   id="tspan13">R</tspan><tspan
   fill="#c00000"
   font-family="Cambria, Cambria_MSFontService, sans-serif"
   font-size="32px"
   x="417.01553"
   y="156.73129"
   id="tspan15">n</tspan><tspan
   font-family="'Cambria Math', 'Cambria Math_MSFontService', sans-serif"
   font-size="48px"
   x="445.68213"
   y="170.73129"
   id="tspan17">â†’</tspan><tspan
   fill="#c00000"
   font-family="Cambria, Cambria_MSFontService, sans-serif"
   font-size="48px"
   x="496.68213"
   y="170.73129"
   id="tspan19">R</tspan><tspan
   fill="#c00000"
   font-family="Cambria, Cambria_MSFontService, sans-serif"
   font-size="32px"
   x="526.51514"
   y="156.73129"
   id="tspan21">m</tspan></text>
  <path
     d="m 552.22414,383.55929 c 0,-3.771 3.057,-6.828 6.828,-6.828 h 39.344 c 3.771,0 6.828,3.057 6.828,6.828 v 50.344 c 0,3.771 -3.057,6.828 -6.828,6.828 h -39.344 c -3.771,0 -6.828,-3.057 -6.828,-6.828 z"
     fill="#dae3f3"
     fill-rule="evenodd"
     id="path25" />
  <path
     d="m 560.22414,256.73129 c 0,-17.121 11.864,-31 26.5,-31 14.636,0 26.5,13.879 26.5,31 0,17.121 -11.864,31 -26.5,31 -14.636,0 -26.5,-13.879 -26.5,-31 z"
     fill="#dae3f3"
     fill-rule="evenodd"
     id="path27" />
  <text
     font-family="Calibri, Calibri_MSFontService, sans-serif"
     font-weight="400"
     font-size="43px"
     id="text29"
     x="353.11267"
     y="77.045845">Linear transformation notation</text>
  <path
     d="m 519.34214,368.60029 h 7.172 v 80.077 h -7.172 v -1.292 h 4.456 v -77.493 h -4.456 z m -32.227,0 h 7.172 v 1.292 h -4.456 v 77.493 h 4.456 v 1.292 h -7.172 z"
     fill-rule="evenodd"
     id="path31" />
  <path
     d="m 499.95614,370.87029 c 0.273,0 0.512,0.031 0.719,0.092 0.206,0.062 0.389,0.156 0.547,0.284 0.158,0.127 0.299,0.292 0.422,0.494 0.123,0.202 0.242,0.477 0.356,0.824 0.114,0.347 0.222,0.778 0.323,1.292 0.101,0.514 0.191,1.048 0.27,1.602 h 0.132 c 0.844,-1.187 1.483,-2.054 1.918,-2.604 0.435,-0.549 0.802,-0.958 1.101,-1.226 0.299,-0.268 0.587,-0.457 0.863,-0.567 0.277,-0.11 0.644,-0.165 1.101,-0.165 0.413,0 0.752,0.053 1.015,0.159 l -0.527,2.386 h -0.923 c -0.052,-0.369 -0.206,-0.554 -0.461,-0.554 -0.079,0 -0.163,0.013 -0.251,0.04 -0.088,0.026 -0.195,0.083 -0.323,0.171 -0.127,0.088 -0.314,0.259 -0.56,0.514 -0.246,0.255 -0.523,0.567 -0.831,0.936 -0.307,0.369 -0.624,0.756 -0.949,1.16 l -0.896,1.121 c 0.158,0.844 0.307,1.573 0.448,2.189 0.141,0.615 0.266,1.127 0.376,1.535 0.11,0.409 0.206,0.732 0.29,0.969 0.083,0.238 0.173,0.416 0.27,0.534 0.097,0.119 0.196,0.202 0.297,0.251 0.101,0.048 0.217,0.072 0.349,0.072 0.237,0 0.468,-0.092 0.692,-0.277 0.224,-0.184 0.547,-0.602 0.969,-1.252 l 0.857,0.567 c -0.615,0.914 -1.171,1.558 -1.668,1.931 -0.496,0.374 -1.087,0.561 -1.773,0.561 -0.378,0 -0.699,-0.068 -0.962,-0.205 -0.264,-0.136 -0.492,-0.353 -0.686,-0.652 -0.193,-0.299 -0.365,-0.765 -0.514,-1.398 -0.272,-1.125 -0.439,-1.986 -0.501,-2.584 h -0.132 c -0.931,1.31 -1.624,2.25 -2.076,2.822 -0.453,0.571 -0.826,0.993 -1.121,1.265 -0.294,0.273 -0.58,0.464 -0.857,0.574 -0.277,0.11 -0.643,0.164 -1.101,0.164 -0.413,0 -0.751,-0.052 -1.015,-0.158 l 0.528,-2.386 h 0.923 c 0.052,0.369 0.206,0.554 0.461,0.554 0.123,0 0.253,-0.033 0.389,-0.099 0.136,-0.066 0.332,-0.224 0.587,-0.475 0.254,-0.25 0.606,-0.644 1.054,-1.18 0.448,-0.536 1.099,-1.34 1.951,-2.412 -0.131,-0.695 -0.268,-1.363 -0.408,-2.004 -0.141,-0.642 -0.286,-1.239 -0.435,-1.793 -0.15,-0.554 -0.273,-0.916 -0.369,-1.088 -0.097,-0.171 -0.2,-0.29 -0.31,-0.356 -0.11,-0.066 -0.249,-0.099 -0.416,-0.099 -0.184,0 -0.351,0.042 -0.501,0.126 -0.149,0.083 -0.312,0.228 -0.487,0.435 -0.176,0.206 -0.409,0.529 -0.699,0.969 l -0.857,-0.567 c 0.554,-0.835 1.085,-1.459 1.595,-1.872 0.51,-0.413 1.112,-0.62 1.806,-0.62 z"
     fill-rule="evenodd"
     id="path33" />
  <text
     fill="#000000"
     fill-opacity="0"
     font-family="Arial, Arial_MSFontService, sans-serif"
     font-size="13.0386px"
     x="495.14413"
     y="382.2793"
     id="text35">ğ‘¥</text>
  <path
     d="m 514.59314,377.56029 h 0.484 c -0.036,0.563 -0.053,1.342 -0.053,2.338 v 7.506 c 0,0.34 0.019,0.596 0.057,0.769 0.038,0.173 0.105,0.313 0.202,0.422 0.097,0.108 0.236,0.193 0.418,0.255 0.181,0.061 0.41,0.108 0.685,0.14 0.276,0.032 0.639,0.054 1.09,0.066 v 0.642 h -6.495 v -0.642 c 0.65,-0.029 1.115,-0.069 1.393,-0.119 0.278,-0.049 0.491,-0.124 0.637,-0.224 0.147,-0.099 0.254,-0.24 0.321,-0.422 0.067,-0.181 0.101,-0.477 0.101,-0.887 v -7.128 c 0,-0.235 -0.041,-0.406 -0.123,-0.514 -0.082,-0.109 -0.202,-0.163 -0.36,-0.163 -0.188,0 -0.454,0.097 -0.8,0.29 -0.346,0.193 -0.774,0.46 -1.283,0.8 l -0.387,-0.677 z"
     fill-rule="evenodd"
     id="path37" />
  <text
     fill="#000000"
     fill-opacity="0"
     font-family="Arial, Arial_MSFontService, sans-serif"
     font-size="12.1377px"
     x="510.48013"
     y="388.1803"
     id="text39">1</text>
  <path
     d="m 499.95614,402.13029 c 0.273,0 0.512,0.031 0.719,0.092 0.206,0.062 0.389,0.156 0.547,0.284 0.158,0.127 0.299,0.292 0.422,0.494 0.123,0.202 0.242,0.477 0.356,0.824 0.114,0.347 0.222,0.778 0.323,1.292 0.101,0.514 0.191,1.048 0.27,1.602 h 0.132 c 0.844,-1.187 1.483,-2.054 1.918,-2.604 0.435,-0.549 0.802,-0.958 1.101,-1.226 0.299,-0.268 0.587,-0.457 0.863,-0.567 0.277,-0.11 0.644,-0.165 1.101,-0.165 0.413,0 0.752,0.053 1.015,0.159 l -0.527,2.386 h -0.923 c -0.052,-0.369 -0.206,-0.554 -0.461,-0.554 -0.079,0 -0.163,0.013 -0.251,0.04 -0.088,0.026 -0.195,0.083 -0.323,0.171 -0.127,0.088 -0.314,0.259 -0.56,0.514 -0.246,0.255 -0.523,0.567 -0.831,0.936 -0.307,0.369 -0.624,0.756 -0.949,1.16 l -0.896,1.121 c 0.158,0.844 0.307,1.573 0.448,2.189 0.141,0.615 0.266,1.127 0.376,1.535 0.11,0.409 0.206,0.732 0.29,0.969 0.083,0.238 0.173,0.416 0.27,0.534 0.097,0.119 0.196,0.203 0.297,0.251 0.101,0.048 0.217,0.072 0.349,0.072 0.237,0 0.468,-0.092 0.692,-0.276 0.224,-0.185 0.547,-0.603 0.969,-1.253 l 0.857,0.567 c -0.615,0.914 -1.171,1.558 -1.668,1.931 -0.496,0.374 -1.087,0.561 -1.773,0.561 -0.378,0 -0.699,-0.068 -0.962,-0.205 -0.264,-0.136 -0.492,-0.353 -0.686,-0.652 -0.193,-0.299 -0.365,-0.765 -0.514,-1.398 -0.272,-1.125 -0.439,-1.986 -0.501,-2.584 h -0.132 c -0.931,1.31 -1.624,2.25 -2.076,2.822 -0.453,0.571 -0.826,0.993 -1.121,1.265 -0.294,0.273 -0.58,0.464 -0.857,0.574 -0.277,0.11 -0.643,0.164 -1.101,0.164 -0.413,0 -0.751,-0.052 -1.015,-0.158 l 0.528,-2.386 h 0.923 c 0.052,0.369 0.206,0.554 0.461,0.554 0.123,0 0.253,-0.033 0.389,-0.099 0.136,-0.066 0.332,-0.224 0.587,-0.475 0.254,-0.25 0.606,-0.644 1.054,-1.18 0.448,-0.536 1.099,-1.34 1.951,-2.412 -0.131,-0.695 -0.268,-1.363 -0.408,-2.004 -0.141,-0.642 -0.286,-1.239 -0.435,-1.793 -0.15,-0.554 -0.273,-0.916 -0.369,-1.088 -0.097,-0.171 -0.2,-0.29 -0.31,-0.356 -0.11,-0.066 -0.249,-0.099 -0.416,-0.099 -0.184,0 -0.351,0.042 -0.501,0.126 -0.149,0.083 -0.312,0.228 -0.487,0.435 -0.176,0.206 -0.409,0.529 -0.699,0.969 l -0.857,-0.567 c 0.554,-0.835 1.085,-1.459 1.595,-1.872 0.51,-0.413 1.112,-0.62 1.806,-0.62 z"
     fill-rule="evenodd"
     id="path41" />
  <text
     fill="#000000"
     fill-opacity="0"
     font-family="Arial, Arial_MSFontService, sans-serif"
     font-size="13.0386px"
     x="495.14413"
     y="413.53931"
     id="text43">ğ‘¥</text>
  <path
     d="m 513.96914,408.82029 c 1.09,0 1.913,0.239 2.47,0.716 0.557,0.478 0.835,1.171 0.835,2.079 0,0.31 -0.031,0.596 -0.092,0.857 -0.062,0.261 -0.159,0.518 -0.29,0.773 -0.132,0.255 -0.31,0.529 -0.532,0.822 -0.223,0.293 -0.469,0.59 -0.738,0.892 -0.27,0.302 -0.736,0.804 -1.398,1.508 -1.113,1.177 -1.931,2.206 -2.452,3.084 h 3.313 c 0.288,0 0.519,-0.017 0.695,-0.052 0.176,-0.035 0.316,-0.094 0.422,-0.176 0.105,-0.082 0.189,-0.189 0.25,-0.321 0.062,-0.132 0.139,-0.335 0.233,-0.611 h 0.747 l -0.149,2.567 h -7.234 v -0.422 c 0.252,-0.615 0.592,-1.245 1.02,-1.89 0.428,-0.644 1.034,-1.403 1.819,-2.276 0.68,-0.75 1.169,-1.319 1.468,-1.705 0.328,-0.422 0.573,-0.787 0.734,-1.094 0.161,-0.308 0.277,-0.598 0.347,-0.871 0.07,-0.272 0.105,-0.546 0.105,-0.821 0,-0.44 -0.07,-0.828 -0.21,-1.165 -0.141,-0.337 -0.356,-0.602 -0.646,-0.795 -0.291,-0.194 -0.655,-0.29 -1.095,-0.29 -1.095,0 -1.834,0.609 -2.215,1.828 h -1.063 v -1.688 c 0.709,-0.334 1.373,-0.575 1.991,-0.725 0.618,-0.149 1.173,-0.224 1.665,-0.224 z"
     fill-rule="evenodd"
     id="path45" />
  <text
     fill="#000000"
     fill-opacity="0"
     font-family="Arial, Arial_MSFontService, sans-serif"
     font-size="12.1377px"
     x="510.04913"
     y="419.44128"
     id="text47">2</text>
  <path
     d="m 499.95614,433.39029 c 0.273,0 0.512,0.031 0.719,0.092 0.206,0.062 0.389,0.156 0.547,0.284 0.158,0.127 0.299,0.292 0.422,0.494 0.123,0.202 0.242,0.477 0.356,0.824 0.114,0.347 0.222,0.778 0.323,1.292 0.101,0.514 0.191,1.048 0.27,1.602 h 0.132 c 0.844,-1.187 1.483,-2.054 1.918,-2.604 0.435,-0.549 0.802,-0.958 1.101,-1.226 0.299,-0.268 0.587,-0.457 0.863,-0.567 0.277,-0.11 0.644,-0.165 1.101,-0.165 0.413,0 0.752,0.053 1.015,0.159 l -0.527,2.386 h -0.923 c -0.052,-0.369 -0.206,-0.554 -0.461,-0.554 -0.079,0 -0.163,0.013 -0.251,0.04 -0.088,0.026 -0.195,0.083 -0.323,0.171 -0.127,0.088 -0.314,0.259 -0.56,0.514 -0.246,0.255 -0.523,0.567 -0.831,0.936 -0.307,0.369 -0.624,0.756 -0.949,1.16 l -0.896,1.121 c 0.158,0.844 0.307,1.573 0.448,2.189 0.141,0.615 0.266,1.127 0.376,1.535 0.11,0.409 0.206,0.732 0.29,0.969 0.083,0.238 0.173,0.416 0.27,0.534 0.097,0.119 0.196,0.202 0.297,0.251 0.101,0.048 0.217,0.072 0.349,0.072 0.237,0 0.468,-0.092 0.692,-0.277 0.224,-0.184 0.547,-0.602 0.969,-1.252 l 0.857,0.567 c -0.615,0.914 -1.171,1.558 -1.668,1.931 -0.496,0.374 -1.087,0.561 -1.773,0.561 -0.378,0 -0.699,-0.068 -0.962,-0.205 -0.264,-0.136 -0.492,-0.353 -0.686,-0.652 -0.193,-0.299 -0.365,-0.765 -0.514,-1.398 -0.272,-1.125 -0.439,-1.986 -0.501,-2.584 h -0.132 c -0.931,1.31 -1.624,2.25 -2.076,2.822 -0.453,0.571 -0.826,0.993 -1.121,1.265 -0.294,0.273 -0.58,0.464 -0.857,0.574 -0.277,0.11 -0.643,0.164 -1.101,0.164 -0.413,0 -0.751,-0.052 -1.015,-0.158 l 0.528,-2.386 h 0.923 c 0.052,0.369 0.206,0.554 0.461,0.554 0.123,0 0.253,-0.033 0.389,-0.099 0.136,-0.066 0.332,-0.224 0.587,-0.475 0.254,-0.25 0.606,-0.644 1.054,-1.18 0.448,-0.536 1.099,-1.34 1.951,-2.412 -0.131,-0.695 -0.268,-1.363 -0.408,-2.004 -0.141,-0.642 -0.286,-1.239 -0.435,-1.793 -0.15,-0.554 -0.273,-0.916 -0.369,-1.088 -0.097,-0.171 -0.2,-0.29 -0.31,-0.356 -0.11,-0.066 -0.249,-0.099 -0.416,-0.099 -0.184,0 -0.351,0.042 -0.501,0.126 -0.149,0.083 -0.312,0.228 -0.487,0.435 -0.176,0.206 -0.409,0.529 -0.699,0.969 l -0.857,-0.567 c 0.554,-0.835 1.085,-1.459 1.595,-1.872 0.51,-0.413 1.112,-0.62 1.806,-0.62 z"
     fill-rule="evenodd"
     id="path49" />
  <text
     fill="#000000"
     fill-opacity="0"
     font-family="Arial, Arial_MSFontService, sans-serif"
     font-size="13.0386px"
     x="495.14413"
     y="444.79929"
     id="text51">ğ‘¥</text>
  <path
     d="m 513.93414,440.08029 c 0.662,0 1.242,0.103 1.74,0.308 0.498,0.205 0.879,0.499 1.143,0.883 0.264,0.384 0.395,0.842 0.395,1.375 0,0.498 -0.099,0.936 -0.298,1.314 -0.2,0.378 -0.479,0.708 -0.84,0.989 -0.36,0.281 -0.827,0.557 -1.402,0.826 v 0.079 c 0.358,0.065 0.702,0.175 1.033,0.33 0.331,0.155 0.626,0.356 0.883,0.602 0.258,0.246 0.465,0.541 0.62,0.883 0.155,0.343 0.233,0.734 0.233,1.174 0,0.679 -0.148,1.283 -0.444,1.81 -0.296,0.528 -0.748,0.944 -1.358,1.248 -0.609,0.305 -1.35,0.457 -2.224,0.457 -0.503,0 -1.047,-0.057 -1.63,-0.171 -0.583,-0.114 -1.118,-0.265 -1.604,-0.453 v -1.863 h 1.055 c 0.205,0.609 0.476,1.052 0.813,1.327 0.337,0.276 0.795,0.413 1.375,0.413 0.762,0 1.338,-0.208 1.727,-0.624 0.39,-0.416 0.585,-1.031 0.585,-1.845 0,-0.856 -0.258,-1.509 -0.774,-1.96 -0.515,-0.452 -1.271,-0.677 -2.267,-0.677 h -0.791 v -0.774 c 0.791,-0.047 1.457,-0.199 1.999,-0.457 0.542,-0.257 0.945,-0.589 1.209,-0.993 0.263,-0.404 0.395,-0.858 0.395,-1.362 0,-0.651 -0.173,-1.152 -0.518,-1.503 -0.346,-0.352 -0.85,-0.527 -1.512,-0.527 -0.551,0 -0.999,0.149 -1.345,0.448 -0.345,0.299 -0.6,0.756 -0.764,1.371 h -1.055 v -1.67 c 0.68,-0.322 1.315,-0.562 1.907,-0.721 0.592,-0.158 1.163,-0.237 1.714,-0.237 z"
     fill-rule="evenodd"
     id="path53" />
  <text
     fill="#000000"
     fill-opacity="0"
     font-family="Arial, Arial_MSFontService, sans-serif"
     font-size="12.2783px"
     x="510.18112"
     y="450.82431"
     id="text55">3</text>
  <text
     font-family="Calibri, Calibri_MSFontService, sans-serif"
     font-weight="400"
     font-size="48px"
     id="text61"
     x="343.32214"
     y="272.73129">T<tspan
   font-size="48px"
   x="366.65543"
   y="272.73129"
   id="tspan57">(</tspan><tspan
   font-family="'Cambria Math', 'Cambria Math_MSFontService', sans-serif"
   font-size="48px"
   x="381.15546"
   y="272.73129"
   id="tspan59">ğ‘¥</tspan></text>
  <path
     d="m 17.6719,-31.3359 -5.8828,5.0859 -1.2422,-1.4062 3.75,-3.2579 H 0 v -2.2031 h 14.2969 l -3.75,-3.2578 1.2422,-1.4062 5.8828,5.0859 z"
     transform="translate(388.74814,272.73129)"
     id="path63"
     clip-path="url(#clipPath519)" />
  <text
     font-family="Calibri, Calibri_MSFontService, sans-serif"
     font-weight="400"
     font-size="48px"
     id="text67"
     x="408.10815"
     y="272.73129">) = A<tspan
   font-family="'Cambria Math', 'Cambria Math_MSFontService', sans-serif"
   font-size="48px"
   x="495.94144"
   y="272.73129"
   id="tspan65">ğ‘¥</tspan></text>
  <path
     d="m 17.6719,-31.3359 -5.8828,5.0859 -1.2422,-1.4062 3.75,-3.2579 H 0 v -2.2031 h 14.2969 l -3.75,-3.2578 1.2422,-1.4062 5.8828,5.0859 z"
     transform="translate(503.53514,272.73129)"
     id="path69"
     clip-path="url(#clipPath515)" />
  <text
     font-family="Calibri, Calibri_MSFontService, sans-serif"
     font-weight="400"
     font-size="48px"
     id="text73"
     x="533.72815"
     y="272.73129">= <tspan
   font-family="'Cambria Math', 'Cambria Math_MSFontService', sans-serif"
   font-size="48px"
   x="568.39484"
   y="272.73129"
   id="tspan71">ğ‘¤</tspan></text>
  <path
     d="m 598.00414,234.71029 5.883,5.086 v 1.359 l -5.883,5.086 -1.242,-1.406 3.75,-3.258 h -9.635 -4.662 -1.551 -7.849 -6.213 v -2.203 h 6.213 7.849 1.551 4.662 9.635 l -3.75,-3.258 z"
     fill-rule="evenodd"
     id="path75" />
  <g
     id="g634"
     transform="translate(-33.437761,53.931874)">
    <path
       d="m 746.22414,163.73129 c 0,-10.493 8.507,-19 19,-19 10.493,0 19,8.507 19,19 0,10.493 -8.507,19 -19,19 -10.493,0 -19,-8.507 -19,-19 z"
       fill="#fff2cc"
       fill-rule="evenodd"
       id="path77" />
    <path
       d="m 746.22414,213.73129 c 0,-10.493 8.507,-19 19,-19 10.493,0 19,8.507 19,19 0,10.493 -8.507,19 -19,19 -10.493,0 -19,-8.507 -19,-19 z"
       fill="#fbe5d6"
       fill-rule="evenodd"
       id="path79" />
    <text
       font-family="Calibri, Calibri_MSFontService, sans-serif"
       font-weight="400"
       font-size="27px"
       id="text87"
       x="794.54614"
       y="174.73129">Domain<tspan
   font-size="27px"
   x="794.54614"
   y="223.73129"
   id="tspan81">Co</tspan><tspan
   font-size="27px"
   x="822.71283"
   y="223.73129"
   id="tspan83">-</tspan><tspan
   font-size="27px"
   x="830.87946"
   y="223.73129"
   id="tspan85">domain</tspan></text>
    <path
       d="m 746.22414,260.73129 c 0,-10.493 8.507,-19 19,-19 10.493,0 19,8.507 19,19 0,10.493 -8.507,19 -19,19 -10.493,0 -19,-8.507 -19,-19 z"
       fill="#dae3f3"
       fill-rule="evenodd"
       id="path89" />
    <text
       font-family="Calibri, Calibri_MSFontService, sans-serif"
       font-weight="400"
       font-size="27px"
       id="text93"
       x="794.88214"
       y="269.73129">Range<tspan
   font-size="27px"
   x="502.60712"
   y="260.73129"
   id="tspan91" /></text>
  </g>
  <path
     d="m 593.77314,384.68129 h 6.276 v 44.296 h -6.276 v -1.146 h 3.837 v -42.003 h -3.837 z m -36.84,0 h 6.275 v 1.147 h -3.836 v 42.003 h 3.836 v 1.146 h -6.275 z"
     fill-rule="evenodd"
     id="path95" />
  <text
     font-family="'Cambria Math', 'Cambria Math_MSFontService', sans-serif"
     font-weight="400"
     font-size="27px"
     id="text103"
     x="563.68011"
     y="397.73129">ğ‘¤<tspan
   font-size="18px"
   x="583.34686"
   y="403.73129"
   id="tspan97">1</tspan><tspan
   font-size="27px"
   x="563.68011"
   y="428.73129"
   id="tspan99">ğ‘¤</tspan><tspan
   font-size="18px"
   x="583.34686"
   y="434.73129"
   id="tspan101">2</tspan></text>
  <path
     d="m 441.69614,380.12229 h 6.631 v 53.71 h -6.631 v -1.212 h 4.047 v -51.285 h -4.047 z m -107.741,0 h 6.631 v 1.213 h -4.047 v 51.285 h 4.047 v 1.212 h -6.631 z"
     fill-rule="evenodd"
     id="path105" />
  <text
     font-family="'Cambria Math', 'Cambria Math_MSFontService', sans-serif"
     font-weight="400"
     font-size="27px"
     id="text119"
     x="341.48215"
     y="397.73129">ğ‘<tspan
   font-size="27px"
   x="384.06885"
   y="397.73129"
   id="tspan107">ğ‘</tspan><tspan
   font-size="27px"
   x="426.78885"
   y="397.73129"
   id="tspan109">ğ‘</tspan><tspan
   font-size="27px"
   x="341.05548"
   y="428.73129"
   id="tspan111">ğ‘‘</tspan><tspan
   font-size="27px"
   x="384.64883"
   y="428.73129"
   id="tspan113">ğ‘’</tspan><tspan
   font-size="27px"
   x="425.65546"
   y="428.73129"
   id="tspan115">ğ‘“</tspan><tspan
   font-size="27px"
   x="457.20914"
   y="414.73129"
   id="tspan117">Ã—</tspan></text>
  <path
     d="M 0.786493,-0.617599 42.0285,51.9028 40.4556,53.138 -0.786493,0.617599 Z M 43.5645,49.0013 l 1.7949,8.7624 -8.0868,-3.8216 z"
     transform="matrix(-1,0,0,1,477.58314,297.73129)"
     id="path121"
     clip-path="url(#clipPath511)" />
  <path
     d="m 506.22414,297.73129 v 51.097 h -2 v -51.097 z m 3,49.764 -4,8 -4,-8 z"
     id="path123" />
  <path
     d="m 584.22414,297.73129 v 51.097 h -2 v -51.097 z m 3,49.764 -4,8 -4,-8 z"
     id="path125" />
  <text
     font-family="Calibri, Calibri_MSFontService, sans-serif"
     font-weight="400"
     font-size="24px"
     id="text149"
     x="358.44113"
     y="486.73129">m<tspan
   font-family="'Cambria Math', 'Cambria Math_MSFontService', sans-serif"
   font-size="24px"
   x="377.60785"
   y="486.73129"
   id="tspan127" /><tspan
   font-family="'Cambria Math', 'Cambria Math_MSFontService', sans-serif"
   font-size="24px"
   x="382.94113"
   y="486.73129"
   id="tspan129">Ã—</tspan><tspan
   font-size="24px"
   x="405.60785"
   y="486.73129"
   id="tspan131">n</tspan><tspan
   font-size="24px"
   x="479.39914"
   y="486.73129"
   id="tspan133">n</tspan><tspan
   font-family="'Cambria Math', 'Cambria Math_MSFontService', sans-serif"
   font-size="24px"
   x="492.06613"
   y="486.73129"
   id="tspan135" /><tspan
   font-family="'Cambria Math', 'Cambria Math_MSFontService', sans-serif"
   font-size="24px"
   x="497.39914"
   y="486.73129"
   id="tspan137">Ã—</tspan><tspan
   font-size="24px"
   x="520.06616"
   y="486.73129"
   id="tspan139">1</tspan><tspan
   font-size="24px"
   x="550.27112"
   y="486.73129"
   id="tspan141">m</tspan><tspan
   font-family="'Cambria Math', 'Cambria Math_MSFontService', sans-serif"
   font-size="24px"
   x="569.43713"
   y="486.73129"
   id="tspan143" /><tspan
   font-family="'Cambria Math', 'Cambria Math_MSFontService', sans-serif"
   font-size="24px"
   x="574.77112"
   y="486.73129"
   id="tspan145">Ã—</tspan><tspan
   font-size="24px"
   x="597.43713"
   y="486.73129"
   id="tspan147">1</tspan></text>
</svg>
