<?xml version="1.0" encoding="UTF-8" standalone="no"?>
<svg
   width="1280"
   height="700"
   overflow="hidden"
   version="1.1"
   id="svg373"
   sodipodi:docname="linear_systems-locating_basis_vectors.svg"
   inkscape:version="1.2 (dc2aedaf03, 2022-05-15)"
   xmlns:inkscape="http://www.inkscape.org/namespaces/inkscape"
   xmlns:sodipodi="http://sodipodi.sourceforge.net/DTD/sodipodi-0.dtd"
   xmlns="http://www.w3.org/2000/svg"
   xmlns:svg="http://www.w3.org/2000/svg">
  <sodipodi:namedview
     id="namedview375"
     pagecolor="#ffffff"
     bordercolor="#000000"
     borderopacity="0.25"
     inkscape:showpageshadow="2"
     inkscape:pageopacity="0.0"
     inkscape:pagecheckerboard="0"
     inkscape:deskcolor="#d1d1d1"
     showgrid="false"
     inkscape:zoom="0.92709556"
     inkscape:cx="518.2853"
     inkscape:cy="547.94783"
     inkscape:window-width="2560"
     inkscape:window-height="1494"
     inkscape:window-x="-11"
     inkscape:window-y="-11"
     inkscape:window-maximized="1"
     inkscape:current-layer="svg373" />
  <defs
     id="defs5">
    <clipPath
       id="clip0">
      <rect
         x="0"
         y="0"
         width="1280"
         height="720"
         id="rect2" />
    </clipPath>
  </defs>
  <g
     clip-path="url(#clip0)"
     id="g371"
     transform="translate(-1.0786375,-7.5504623)">
    <rect
       x="0"
       y="0"
       width="1280"
       height="720"
       fill="#ffffff"
       id="rect7" />
    <path
       d="M 639,198.416 C 639,186.036 649.036,176 661.416,176 H 878.584 C 890.964,176 901,186.036 901,198.416 V 327.584 C 901,339.964 890.964,350 878.584,350 H 661.416 C 649.036,350 639,339.964 639,327.584 Z"
       fill="#e2f0d9"
       fill-rule="evenodd"
       id="path9" />
    <path
       d="M 299,198.416 C 299,186.036 309.036,176 321.416,176 H 533.584 C 545.964,176 556,186.036 556,198.416 V 327.584 C 556,339.964 545.964,350 533.584,350 H 321.416 C 309.036,350 299,339.964 299,327.584 Z"
       fill="#e2f0d9"
       fill-rule="evenodd"
       id="path11" />
    <path
       d="M 833,176 V 349.878"
       stroke="#385723"
       stroke-width="4"
       stroke-miterlimit="8"
       fill="none"
       fill-rule="evenodd"
       id="path13" />
    <path
       d="M 488,176 V 350.234"
       stroke="#385723"
       stroke-width="4"
       stroke-miterlimit="8"
       fill="none"
       fill-rule="evenodd"
       id="path15" />
    <text
       font-family="Calibri, Calibri_MSFontService, sans-serif"
       font-weight="400"
       font-size="43px"
       transform="translate(414.065,146)"
       id="text19">A<tspan
   font-size="43px"
   x="341.13901"
   y="1"
   id="tspan17">B</tspan></text>
    <path
       d="m 661,211.5 c 0,-11.322 9.626,-20.5 21.5,-20.5 11.874,0 21.5,9.178 21.5,20.5 0,11.322 -9.626,20.5 -21.5,20.5 -11.874,0 -21.5,-9.178 -21.5,-20.5 z"
       fill="#bdd7ee"
       fill-rule="evenodd"
       fill-opacity="0.501961"
       id="path21" />
    <path
       d="m 716,247.5 c 0,-11.322 9.626,-20.5 21.5,-20.5 11.874,0 21.5,9.178 21.5,20.5 0,11.322 -9.626,20.5 -21.5,20.5 -11.874,0 -21.5,-9.178 -21.5,-20.5 z"
       fill="#bdd7ee"
       fill-rule="evenodd"
       fill-opacity="0.501961"
       id="path23" />
    <path
       d="m 775,286.5 c 0,-11.322 9.626,-20.5 21.5,-20.5 11.874,0 21.5,9.178 21.5,20.5 0,11.322 -9.626,20.5 -21.5,20.5 -11.874,0 -21.5,-9.178 -21.5,-20.5 z"
       fill="#bdd7ee"
       fill-rule="evenodd"
       fill-opacity="0.501961"
       id="path25" />
    <path
       d="m 997,661.5 c 0,-11.322 9.63,-20.5 21.5,-20.5 11.87,0 21.5,9.178 21.5,20.5 0,11.322 -9.63,20.5 -21.5,20.5 -11.87,0 -21.5,-9.178 -21.5,-20.5 z"
       fill="#bdd7ee"
       fill-rule="evenodd"
       fill-opacity="0.501961"
       id="path27" />
    <text
       font-family="Calibri, Calibri_MSFontService, sans-serif"
       font-weight="400"
       font-size="27px"
       transform="translate(1050.01,671)"
       id="text31">Pivot <tspan
   font-size="27px"
   x="60.7533"
   y="0"
   id="tspan29">columns</tspan></text>
    <path
       d="m 338.856,200.73 c -0.718,0 -1.32,0.214 -1.804,0.641 -0.485,0.427 -0.875,1.042 -1.172,1.844 -0.297,0.802 -0.508,1.778 -0.633,2.929 -0.125,1.151 -0.187,2.451 -0.187,3.899 0,3.396 0.315,5.888 0.945,7.476 0.63,1.589 1.607,2.383 2.93,2.383 1.26,0 2.195,-0.747 2.804,-2.242 0.61,-1.495 0.914,-3.81 0.914,-6.945 0,-2.396 -0.156,-4.336 -0.468,-5.821 -0.313,-1.484 -0.748,-2.549 -1.305,-3.195 -0.557,-0.646 -1.232,-0.969 -2.024,-0.969 z m 0.079,-1.328 c 2.281,0 3.979,0.88 5.093,2.641 1.115,1.76 1.672,4.422 1.672,7.984 0,3.688 -0.596,6.477 -1.789,8.367 -1.193,1.891 -2.935,2.836 -5.226,2.836 -2.25,0 -3.925,-0.885 -5.024,-2.656 -1.099,-1.771 -1.648,-4.458 -1.648,-8.062 0,-1.917 0.169,-3.573 0.507,-4.969 0.339,-1.396 0.813,-2.55 1.422,-3.461 0.61,-0.912 1.341,-1.586 2.196,-2.024 0.854,-0.437 1.786,-0.656 2.797,-0.656 z"
       fill-rule="evenodd"
       id="path33" />
    <text
       fill="#000000"
       fill-opacity="0"
       font-family="Arial, Arial_MSFontService, sans-serif"
       font-size="21.8281px"
       x="332.013"
       y="218.502"
       id="text35">0</text>
    <path
       d="m 381.617,212.027 h 6.547 c 0.146,0 0.247,0.047 0.304,0.141 0.058,0.094 0.086,0.219 0.086,0.375 0,0.062 -0.002,0.146 -0.008,0.25 -0.005,0.104 -0.023,0.216 -0.054,0.336 -0.031,0.12 -0.068,0.239 -0.11,0.359 -0.041,0.12 -0.091,0.232 -0.148,0.336 -0.057,0.104 -0.13,0.188 -0.219,0.25 -0.088,0.063 -0.185,0.094 -0.289,0.094 h -6.547 c -0.135,0 -0.234,-0.047 -0.297,-0.141 -0.062,-0.094 -0.093,-0.234 -0.093,-0.422 0,-0.052 0.005,-0.127 0.015,-0.226 0.011,-0.099 0.029,-0.209 0.055,-0.328 0.026,-0.12 0.06,-0.243 0.102,-0.368 0.041,-0.125 0.093,-0.237 0.156,-0.335 0.062,-0.099 0.133,-0.178 0.211,-0.235 0.078,-0.057 0.174,-0.086 0.289,-0.086 z"
       fill-rule="evenodd"
       id="path37" />
    <text
       fill="#000000"
       fill-opacity="0"
       font-family="Arial, Arial_MSFontService, sans-serif"
       font-size="2.14062px"
       x="380.789"
       y="213.89999"
       id="text39">-</text>
    <path
       d="m 398.481,199.402 c 1.938,0 3.401,0.425 4.391,1.274 0.99,0.849 1.484,2.08 1.484,3.695 0,0.552 -0.054,1.06 -0.164,1.523 -0.109,0.464 -0.281,0.922 -0.515,1.375 -0.235,0.454 -0.55,0.94 -0.946,1.461 -0.395,0.521 -0.833,1.05 -1.312,1.586 -0.479,0.537 -1.307,1.43 -2.484,2.68 -1.98,2.094 -3.433,3.922 -4.36,5.484 h 5.891 c 0.51,0 0.922,-0.031 1.234,-0.093 0.313,-0.063 0.563,-0.167 0.75,-0.313 0.188,-0.146 0.336,-0.336 0.445,-0.57 0.11,-0.235 0.248,-0.597 0.415,-1.086 h 1.328 l -0.266,4.562 h -12.859 v -0.75 c 0.448,-1.093 1.052,-2.213 1.812,-3.359 0.761,-1.146 1.839,-2.495 3.235,-4.047 1.208,-1.333 2.078,-2.344 2.609,-3.031 0.583,-0.75 1.018,-1.399 1.305,-1.945 0.286,-0.547 0.492,-1.063 0.617,-1.547 0.125,-0.485 0.187,-0.972 0.187,-1.461 0,-0.782 -0.125,-1.472 -0.375,-2.071 -0.25,-0.599 -0.633,-1.07 -1.148,-1.414 -0.516,-0.343 -1.164,-0.515 -1.945,-0.515 -1.948,0 -3.261,1.083 -3.938,3.25 h -1.891 v -3 c 1.261,-0.594 2.44,-1.024 3.539,-1.289 1.099,-0.266 2.086,-0.399 2.961,-0.399 z"
       fill-rule="evenodd"
       id="path41" />
    <text
       fill="#000000"
       fill-opacity="0"
       font-family="Arial, Arial_MSFontService, sans-serif"
       font-size="21.5781px"
       x="391.513"
       y="218.283"
       id="text43">2</text>
    <path
       d="m 452.936,200.73 c -0.718,0 -1.32,0.214 -1.804,0.641 -0.485,0.427 -0.875,1.042 -1.172,1.844 -0.297,0.802 -0.508,1.778 -0.633,2.929 -0.125,1.151 -0.187,2.451 -0.187,3.899 0,3.396 0.315,5.888 0.945,7.476 0.63,1.589 1.607,2.383 2.93,2.383 1.26,0 2.195,-0.747 2.804,-2.242 0.61,-1.495 0.914,-3.81 0.914,-6.945 0,-2.396 -0.156,-4.336 -0.468,-5.821 -0.313,-1.484 -0.748,-2.549 -1.305,-3.195 -0.557,-0.646 -1.232,-0.969 -2.024,-0.969 z m 0.079,-1.328 c 2.281,0 3.979,0.88 5.093,2.641 1.115,1.76 1.672,4.422 1.672,7.984 0,3.688 -0.596,6.477 -1.789,8.367 -1.193,1.891 -2.935,2.836 -5.226,2.836 -2.25,0 -3.925,-0.885 -5.024,-2.656 -1.099,-1.771 -1.648,-4.458 -1.648,-8.062 0,-1.917 0.169,-3.573 0.507,-4.969 0.339,-1.396 0.813,-2.55 1.422,-3.461 0.61,-0.912 1.341,-1.586 2.196,-2.024 0.854,-0.437 1.786,-0.656 2.797,-0.656 z"
       fill-rule="evenodd"
       id="path45" />
    <text
       fill="#000000"
       fill-opacity="0"
       font-family="Arial, Arial_MSFontService, sans-serif"
       font-size="21.8281px"
       x="446.09299"
       y="218.502"
       id="text47">0</text>
    <path
       d="m 524.436,198.621 h 1.219 l -0.234,3.625 h -8.985 v 6.859 c 0.542,-0.229 1.131,-0.401 1.766,-0.515 0.635,-0.115 1.271,-0.172 1.906,-0.172 1.24,0 2.339,0.252 3.297,0.758 0.958,0.505 1.698,1.224 2.219,2.156 0.521,0.932 0.781,2.013 0.781,3.242 0,1.396 -0.292,2.594 -0.875,3.594 -0.583,1 -1.427,1.76 -2.531,2.281 -1.104,0.521 -2.412,0.781 -3.922,0.781 -1.802,0 -3.687,-0.369 -5.656,-1.109 v -3.313 h 1.89 c 0.313,1.063 0.784,1.844 1.414,2.344 0.631,0.5 1.446,0.75 2.446,0.75 1.385,0 2.432,-0.416 3.14,-1.25 0.709,-0.833 1.063,-2.078 1.063,-3.734 0,-1.104 -0.188,-2.018 -0.563,-2.742 -0.375,-0.724 -0.88,-1.248 -1.515,-1.571 -0.636,-0.323 -1.375,-0.484 -2.219,-0.484 -0.708,0 -1.318,0.044 -1.828,0.133 -0.511,0.088 -1.057,0.226 -1.641,0.414 l -1.25,-0.735 v -10.281 h 8.61 c 0.354,0 0.609,-0.028 0.765,-0.086 0.157,-0.057 0.282,-0.146 0.375,-0.265 0.094,-0.12 0.203,-0.347 0.328,-0.68 z"
       fill-rule="evenodd"
       id="path49" />
    <text
       fill="#000000"
       fill-opacity="0"
       font-family="Arial, Arial_MSFontService, sans-serif"
       font-size="22.6094px"
       x="513.42102"
       y="218.40401"
       id="text51">5</text>
    <path
       d="m 340.091,236.916 h 0.859 c -0.062,1 -0.094,2.385 -0.094,4.156 v 13.344 c 0,0.604 0.034,1.059 0.102,1.367 0.068,0.307 0.187,0.557 0.359,0.75 0.172,0.192 0.42,0.343 0.743,0.453 0.322,0.109 0.729,0.193 1.218,0.25 0.49,0.057 1.136,0.096 1.938,0.117 v 1.141 h -11.547 v -1.141 c 1.156,-0.052 1.982,-0.122 2.476,-0.211 0.495,-0.088 0.873,-0.221 1.133,-0.398 0.261,-0.177 0.451,-0.427 0.571,-0.75 0.119,-0.323 0.179,-0.849 0.179,-1.578 v -12.672 c 0,-0.417 -0.073,-0.722 -0.218,-0.914 -0.146,-0.193 -0.36,-0.289 -0.641,-0.289 -0.333,0 -0.807,0.171 -1.422,0.515 -0.615,0.344 -1.375,0.818 -2.281,1.422 l -0.688,-1.203 z"
       fill-rule="evenodd"
       id="path53" />
    <text
       fill="#000000"
       fill-opacity="0"
       font-family="Arial, Arial_MSFontService, sans-serif"
       font-size="21.5781px"
       x="332.77802"
       y="255.79601"
       id="text55">1</text>
    <path
       d="m 393.499,236.916 c 1.177,0 2.208,0.182 3.094,0.546 0.885,0.365 1.562,0.888 2.031,1.571 0.469,0.682 0.703,1.497 0.703,2.445 0,0.885 -0.177,1.664 -0.531,2.336 -0.354,0.672 -0.852,1.258 -1.492,1.758 -0.641,0.5 -1.472,0.989 -2.493,1.469 v 0.14 c 0.636,0.115 1.248,0.31 1.836,0.586 0.589,0.276 1.112,0.633 1.571,1.07 0.458,0.438 0.825,0.961 1.101,1.571 0.276,0.609 0.414,1.304 0.414,2.086 0,1.208 -0.263,2.281 -0.789,3.218 -0.526,0.938 -1.331,1.677 -2.414,2.219 -1.083,0.542 -2.401,0.813 -3.953,0.813 -0.896,0 -1.862,-0.102 -2.898,-0.305 -1.037,-0.203 -1.987,-0.471 -2.852,-0.805 v -3.312 h 1.875 c 0.365,1.083 0.846,1.87 1.445,2.359 0.599,0.49 1.414,0.735 2.446,0.735 1.354,0 2.377,-0.37 3.07,-1.11 0.693,-0.739 1.039,-1.833 1.039,-3.281 0,-1.521 -0.458,-2.682 -1.375,-3.484 -0.917,-0.803 -2.26,-1.204 -4.031,-1.204 h -1.407 v -1.375 c 1.407,-0.083 2.592,-0.354 3.555,-0.812 0.964,-0.458 1.68,-1.047 2.149,-1.766 0.468,-0.718 0.703,-1.526 0.703,-2.422 0,-1.156 -0.308,-2.046 -0.922,-2.671 -0.615,-0.625 -1.511,-0.938 -2.688,-0.938 -0.979,0 -1.776,0.266 -2.39,0.797 -0.615,0.531 -1.068,1.344 -1.36,2.437 h -1.875 v -2.968 c 1.209,-0.573 2.339,-1 3.391,-1.282 1.052,-0.281 2.068,-0.421 3.047,-0.421 z"
       fill-rule="evenodd"
       id="path57" />
    <text
       fill="#000000"
       fill-opacity="0"
       font-family="Arial, Arial_MSFontService, sans-serif"
       font-size="21.8281px"
       x="386.827"
       y="256.01501"
       id="text59">3</text>
    <path
       d="m 441.117,249.541 h 6.547 c 0.146,0 0.247,0.046 0.304,0.14 0.058,0.094 0.086,0.219 0.086,0.375 0,0.063 -0.002,0.146 -0.008,0.25 -0.005,0.104 -0.023,0.216 -0.054,0.336 -0.031,0.12 -0.068,0.24 -0.11,0.359 -0.041,0.12 -0.091,0.232 -0.148,0.336 -0.057,0.105 -0.13,0.188 -0.219,0.25 -0.088,0.063 -0.185,0.094 -0.289,0.094 h -6.547 c -0.135,0 -0.234,-0.047 -0.297,-0.14 -0.062,-0.094 -0.093,-0.235 -0.093,-0.422 0,-0.052 0.005,-0.128 0.015,-0.227 0.011,-0.099 0.029,-0.208 0.055,-0.328 0.026,-0.12 0.06,-0.242 0.102,-0.367 0.041,-0.125 0.093,-0.237 0.156,-0.336 0.062,-0.099 0.133,-0.177 0.211,-0.235 0.078,-0.057 0.174,-0.085 0.289,-0.085 z"
       fill-rule="evenodd"
       id="path61" />
    <text
       fill="#000000"
       fill-opacity="0"
       font-family="Arial, Arial_MSFontService, sans-serif"
       font-size="2.14062px"
       x="440.289"
       y="251.414"
       id="text63">-</text>
    <path
       d="m 457.856,248.087 c -0.77,0 -1.419,0.12 -1.945,0.36 -0.526,0.239 -0.953,0.562 -1.281,0.969 -0.328,0.406 -0.563,0.882 -0.703,1.429 -0.141,0.547 -0.211,1.133 -0.211,1.758 0,0.677 0.078,1.31 0.234,1.898 0.156,0.589 0.404,1.097 0.742,1.524 0.339,0.427 0.774,0.766 1.305,1.016 0.531,0.25 1.177,0.375 1.938,0.375 0.854,0 1.585,-0.175 2.195,-0.524 0.609,-0.349 1.073,-0.867 1.39,-1.555 0.318,-0.687 0.477,-1.5 0.477,-2.437 0,-1 -0.172,-1.862 -0.516,-2.586 -0.343,-0.724 -0.828,-1.276 -1.453,-1.656 -0.625,-0.38 -1.349,-0.571 -2.172,-0.571 z m 0.079,-9.843 c -1.313,0 -2.316,0.356 -3.008,1.07 -0.693,0.714 -1.039,1.727 -1.039,3.039 0,0.615 0.073,1.193 0.218,1.734 0.146,0.542 0.381,1.011 0.704,1.407 0.322,0.395 0.742,0.711 1.257,0.945 0.516,0.234 1.149,0.352 1.899,0.352 0.864,0 1.591,-0.17 2.179,-0.508 0.589,-0.339 1.026,-0.834 1.313,-1.485 0.286,-0.651 0.43,-1.403 0.43,-2.257 0,-0.938 -0.17,-1.732 -0.508,-2.383 -0.339,-0.651 -0.805,-1.133 -1.399,-1.446 -0.593,-0.312 -1.276,-0.468 -2.046,-0.468 z m 0.031,-1.328 c 1.5,0 2.76,0.21 3.781,0.632 1.021,0.422 1.789,1.032 2.305,1.828 0.515,0.797 0.773,1.753 0.773,2.868 0,1.145 -0.281,2.132 -0.844,2.961 -0.562,0.828 -1.432,1.502 -2.609,2.023 l 0.031,0.203 c 1.177,0.458 2.068,1.128 2.672,2.008 0.604,0.88 0.906,1.94 0.906,3.18 0,1.218 -0.291,2.291 -0.875,3.218 -0.583,0.927 -1.429,1.644 -2.539,2.149 -1.109,0.505 -2.403,0.758 -3.882,0.758 -1.386,0 -2.602,-0.232 -3.649,-0.696 -1.047,-0.463 -1.859,-1.14 -2.437,-2.031 -0.579,-0.891 -0.868,-1.94 -0.868,-3.148 0,-0.907 0.157,-1.693 0.469,-2.36 0.313,-0.666 0.721,-1.216 1.227,-1.648 0.505,-0.432 1.143,-0.826 1.914,-1.18 l -0.031,-0.203 c -2.24,-0.969 -3.36,-2.63 -3.36,-4.984 0,-1.073 0.294,-2.032 0.883,-2.875 0.588,-0.844 1.427,-1.506 2.516,-1.985 1.088,-0.479 2.294,-0.718 3.617,-0.718 z"
       fill-rule="evenodd"
       id="path65" />
    <text
       fill="#000000"
       fill-opacity="0"
       font-family="Arial, Arial_MSFontService, sans-serif"
       font-size="21.8281px"
       x="450.73099"
       y="256.01501"
       id="text67">8</text>
    <path
       d="m 508.117,249.541 h 6.547 c 0.146,0 0.247,0.046 0.304,0.14 0.058,0.094 0.086,0.219 0.086,0.375 0,0.063 -0.002,0.146 -0.007,0.25 -0.006,0.104 -0.024,0.216 -0.055,0.336 -0.031,0.12 -0.068,0.24 -0.11,0.359 -0.041,0.12 -0.091,0.232 -0.148,0.336 -0.057,0.105 -0.13,0.188 -0.219,0.25 -0.088,0.063 -0.185,0.094 -0.289,0.094 h -6.547 c -0.135,0 -0.234,-0.047 -0.297,-0.14 -0.062,-0.094 -0.093,-0.235 -0.093,-0.422 0,-0.052 0.005,-0.128 0.015,-0.227 0.011,-0.099 0.029,-0.208 0.055,-0.328 0.026,-0.12 0.06,-0.242 0.102,-0.367 0.041,-0.125 0.093,-0.237 0.156,-0.336 0.062,-0.099 0.133,-0.177 0.211,-0.235 0.078,-0.057 0.174,-0.085 0.289,-0.085 z"
       fill-rule="evenodd"
       id="path69" />
    <text
       fill="#000000"
       fill-opacity="0"
       font-family="Arial, Arial_MSFontService, sans-serif"
       font-size="2.14062px"
       x="507.289"
       y="251.414"
       id="text71">-</text>
    <path
       d="m 524.981,236.916 c 1.938,0 3.401,0.424 4.391,1.273 0.99,0.849 1.484,2.081 1.484,3.695 0,0.552 -0.054,1.06 -0.164,1.524 -0.109,0.463 -0.281,0.922 -0.515,1.375 -0.235,0.453 -0.55,0.94 -0.946,1.461 -0.395,0.52 -0.833,1.049 -1.312,1.586 -0.479,0.536 -1.307,1.429 -2.484,2.679 -1.98,2.094 -3.433,3.922 -4.36,5.485 h 5.891 c 0.51,0 0.922,-0.032 1.234,-0.094 0.313,-0.063 0.563,-0.167 0.75,-0.313 0.188,-0.145 0.336,-0.336 0.445,-0.57 0.11,-0.234 0.248,-0.596 0.415,-1.086 h 1.328 l -0.266,4.563 h -12.859 v -0.75 c 0.448,-1.094 1.052,-2.214 1.812,-3.36 0.761,-1.146 1.839,-2.495 3.235,-4.047 1.208,-1.333 2.078,-2.343 2.609,-3.031 0.583,-0.75 1.018,-1.398 1.305,-1.945 0.286,-0.547 0.492,-1.063 0.617,-1.547 0.125,-0.484 0.187,-0.971 0.187,-1.461 0,-0.781 -0.125,-1.471 -0.375,-2.07 -0.25,-0.599 -0.633,-1.071 -1.148,-1.414 -0.516,-0.344 -1.164,-0.516 -1.945,-0.516 -1.948,0 -3.261,1.083 -3.938,3.25 h -1.891 v -3 c 1.261,-0.594 2.441,-1.023 3.539,-1.289 1.099,-0.266 2.086,-0.398 2.961,-0.398 z"
       fill-rule="evenodd"
       id="path73" />
    <text
       fill="#000000"
       fill-opacity="0"
       font-family="Arial, Arial_MSFontService, sans-serif"
       font-size="21.5781px"
       x="518.013"
       y="255.79601"
       id="text75">2</text>
    <path
       d="m 338.856,275.757 c -0.718,0 -1.32,0.214 -1.804,0.641 -0.485,0.427 -0.875,1.041 -1.172,1.843 -0.297,0.802 -0.508,1.779 -0.633,2.93 -0.125,1.151 -0.187,2.451 -0.187,3.898 0,3.396 0.315,5.889 0.945,7.477 0.63,1.589 1.607,2.383 2.93,2.383 1.26,0 2.195,-0.748 2.804,-2.242 0.61,-1.495 0.914,-3.81 0.914,-6.946 0,-2.395 -0.156,-4.336 -0.468,-5.82 -0.313,-1.484 -0.748,-2.549 -1.305,-3.195 -0.557,-0.646 -1.232,-0.969 -2.024,-0.969 z m 0.079,-1.328 c 2.281,0 3.979,0.88 5.093,2.64 1.115,1.761 1.672,4.422 1.672,7.985 0,3.687 -0.596,6.476 -1.789,8.367 -1.193,1.891 -2.935,2.836 -5.226,2.836 -2.25,0 -3.925,-0.885 -5.024,-2.656 -1.099,-1.771 -1.648,-4.459 -1.648,-8.063 0,-1.916 0.169,-3.573 0.507,-4.969 0.339,-1.395 0.813,-2.549 1.422,-3.46 0.61,-0.912 1.341,-1.586 2.196,-2.024 0.854,-0.437 1.786,-0.656 2.797,-0.656 z"
       fill-rule="evenodd"
       id="path77" />
    <text
       fill="#000000"
       fill-opacity="0"
       font-family="Arial, Arial_MSFontService, sans-serif"
       font-size="21.8281px"
       x="332.013"
       y="293.52802"
       id="text79">0</text>
    <path
       d="m 393.436,275.757 c -0.718,0 -1.32,0.214 -1.804,0.641 -0.485,0.427 -0.875,1.041 -1.172,1.843 -0.297,0.802 -0.508,1.779 -0.633,2.93 -0.125,1.151 -0.188,2.451 -0.188,3.898 0,3.396 0.316,5.889 0.946,7.477 0.63,1.589 1.607,2.383 2.929,2.383 1.261,0 2.196,-0.748 2.805,-2.242 0.61,-1.495 0.914,-3.81 0.914,-6.946 0,-2.395 -0.156,-4.336 -0.469,-5.82 -0.312,-1.484 -0.747,-2.549 -1.304,-3.195 -0.557,-0.646 -1.232,-0.969 -2.024,-0.969 z m 0.078,-1.328 c 2.282,0 3.98,0.88 5.094,2.64 1.115,1.761 1.672,4.422 1.672,7.985 0,3.687 -0.596,6.476 -1.789,8.367 -1.193,1.891 -2.935,2.836 -5.227,2.836 -2.25,0 -3.924,-0.885 -5.023,-2.656 -1.099,-1.771 -1.648,-4.459 -1.648,-8.063 0,-1.916 0.169,-3.573 0.507,-4.969 0.339,-1.395 0.813,-2.549 1.422,-3.46 0.61,-0.912 1.341,-1.586 2.196,-2.024 0.854,-0.437 1.786,-0.656 2.796,-0.656 z"
       fill-rule="evenodd"
       id="path81" />
    <text
       fill="#000000"
       fill-opacity="0"
       font-family="Arial, Arial_MSFontService, sans-serif"
       font-size="21.8281px"
       x="386.59299"
       y="293.52802"
       id="text83">0</text>
    <path
       d="m 446.702,274.679 h 13.406 v 0.75 l -9.093,20.687 h -2.266 v -0.765 l 8.422,-17.828 v -0.235 h -6.875 c -0.427,0 -0.768,0.039 -1.024,0.117 -0.255,0.079 -0.468,0.191 -0.64,0.336 -0.172,0.146 -0.315,0.339 -0.43,0.578 -0.115,0.24 -0.271,0.714 -0.469,1.422 h -1.343 z"
       fill-rule="evenodd"
       id="path85" />
    <text
       fill="#000000"
       fill-opacity="0"
       font-family="Arial, Arial_MSFontService, sans-serif"
       font-size="21.4375px"
       x="446.39001"
       y="293.43701"
       id="text87">7</text>
    <path
       d="m 526.554,278.101 -6.109,9.703 v 0.219 h 6.109 v -3.891 c 0,-0.979 0.016,-2.076 0.047,-3.289 0.031,-1.214 0.068,-2.128 0.11,-2.742 z m 0.453,-3.532 h 2.235 v 13.454 h 0.328 c 0.604,0 1.036,-0.045 1.297,-0.133 0.26,-0.089 0.476,-0.245 0.648,-0.469 0.172,-0.224 0.331,-0.591 0.477,-1.102 h 1.187 l -0.187,3.219 h -3.75 v 2.563 c 0,0.698 0.023,1.208 0.07,1.531 0.047,0.323 0.125,0.578 0.235,0.766 0.109,0.187 0.27,0.343 0.484,0.468 0.213,0.125 0.56,0.25 1.039,0.375 v 0.766 h -6.344 v -0.766 c 0.646,-0.166 1.078,-0.351 1.297,-0.554 0.219,-0.203 0.362,-0.493 0.43,-0.868 0.067,-0.375 0.101,-0.947 0.101,-1.718 v -2.563 h -8.687 v -1.172 z m -18.25,-0.14 h 0.86 c -0.063,1 -0.094,2.385 -0.094,4.156 v 13.344 c 0,0.604 0.034,1.06 0.102,1.367 0.067,0.307 0.187,0.557 0.359,0.75 0.172,0.193 0.419,0.344 0.742,0.453 0.323,0.11 0.729,0.193 1.219,0.25 0.49,0.057 1.135,0.097 1.937,0.117 v 1.141 h -11.546 v -1.141 c 1.156,-0.052 1.981,-0.122 2.476,-0.211 0.495,-0.088 0.873,-0.221 1.133,-0.398 0.26,-0.177 0.45,-0.427 0.57,-0.75 0.12,-0.323 0.18,-0.849 0.18,-1.578 v -12.672 c 0,-0.417 -0.073,-0.721 -0.219,-0.914 -0.146,-0.193 -0.359,-0.289 -0.64,-0.289 -0.334,0 -0.808,0.172 -1.422,0.515 -0.615,0.344 -1.375,0.818 -2.282,1.422 l -0.687,-1.203 z"
       fill-rule="evenodd"
       id="path89" />
    <text
       fill="#000000"
       fill-opacity="0"
       font-family="Arial, Arial_MSFontService, sans-serif"
       font-size="21.5781px"
       x="501.44501"
       y="293.31"
       id="text91">14</text>
    <path
       d="m 338.856,313.27 c -0.718,0 -1.32,0.214 -1.804,0.641 -0.485,0.427 -0.875,1.042 -1.172,1.844 -0.297,0.802 -0.508,1.778 -0.633,2.929 -0.125,1.151 -0.187,2.451 -0.187,3.899 0,3.396 0.315,5.888 0.945,7.476 0.63,1.589 1.607,2.383 2.93,2.383 1.26,0 2.195,-0.747 2.804,-2.242 0.61,-1.495 0.914,-3.81 0.914,-6.945 0,-2.396 -0.156,-4.336 -0.468,-5.821 -0.313,-1.484 -0.748,-2.549 -1.305,-3.195 -0.557,-0.646 -1.232,-0.969 -2.024,-0.969 z m 0.079,-1.328 c 2.281,0 3.979,0.88 5.093,2.641 1.115,1.76 1.672,4.422 1.672,7.984 0,3.688 -0.596,6.477 -1.789,8.367 -1.193,1.891 -2.935,2.836 -5.226,2.836 -2.25,0 -3.925,-0.885 -5.024,-2.656 -1.099,-1.771 -1.648,-4.458 -1.648,-8.062 0,-1.917 0.169,-3.573 0.507,-4.969 0.339,-1.396 0.813,-2.55 1.422,-3.461 0.61,-0.912 1.341,-1.586 2.196,-2.024 0.854,-0.437 1.786,-0.656 2.797,-0.656 z"
       fill-rule="evenodd"
       id="path93" />
    <text
       fill="#000000"
       fill-opacity="0"
       font-family="Arial, Arial_MSFontService, sans-serif"
       font-size="21.8281px"
       x="332.013"
       y="331.04199"
       id="text95">0</text>
    <path
       d="m 393.436,313.27 c -0.718,0 -1.32,0.214 -1.804,0.641 -0.485,0.427 -0.875,1.042 -1.172,1.844 -0.297,0.802 -0.508,1.778 -0.633,2.929 -0.125,1.151 -0.188,2.451 -0.188,3.899 0,3.396 0.316,5.888 0.946,7.476 0.63,1.589 1.607,2.383 2.929,2.383 1.261,0 2.196,-0.747 2.805,-2.242 0.61,-1.495 0.914,-3.81 0.914,-6.945 0,-2.396 -0.156,-4.336 -0.469,-5.821 -0.312,-1.484 -0.747,-2.549 -1.304,-3.195 -0.557,-0.646 -1.232,-0.969 -2.024,-0.969 z m 0.078,-1.328 c 2.282,0 3.98,0.88 5.094,2.641 1.115,1.76 1.672,4.422 1.672,7.984 0,3.688 -0.596,6.477 -1.789,8.367 -1.193,1.891 -2.935,2.836 -5.227,2.836 -2.25,0 -3.924,-0.885 -5.023,-2.656 -1.099,-1.771 -1.648,-4.458 -1.648,-8.062 0,-1.917 0.169,-3.573 0.507,-4.969 0.339,-1.396 0.813,-2.55 1.422,-3.461 0.61,-0.912 1.341,-1.586 2.196,-2.024 0.854,-0.437 1.786,-0.656 2.796,-0.656 z"
       fill-rule="evenodd"
       id="path97" />
    <text
       fill="#000000"
       fill-opacity="0"
       font-family="Arial, Arial_MSFontService, sans-serif"
       font-size="21.8281px"
       x="386.59299"
       y="331.04199"
       id="text99">0</text>
    <path
       d="m 454.171,311.942 h 0.859 c -0.062,1 -0.094,2.386 -0.094,4.156 v 13.344 c 0,0.604 0.034,1.06 0.102,1.367 0.068,0.308 0.187,0.558 0.359,0.75 0.172,0.193 0.42,0.344 0.743,0.454 0.322,0.109 0.729,0.192 1.218,0.25 0.49,0.057 1.136,0.096 1.938,0.117 v 1.14 h -11.547 v -1.14 c 1.156,-0.052 1.982,-0.123 2.476,-0.211 0.495,-0.089 0.873,-0.222 1.133,-0.399 0.261,-0.177 0.451,-0.427 0.571,-0.75 0.119,-0.323 0.179,-0.849 0.179,-1.578 V 316.77 c 0,-0.416 -0.073,-0.721 -0.218,-0.914 -0.146,-0.192 -0.36,-0.289 -0.641,-0.289 -0.333,0 -0.807,0.172 -1.422,0.516 -0.615,0.344 -1.375,0.818 -2.281,1.422 l -0.688,-1.203 z"
       fill-rule="evenodd"
       id="path101" />
    <text
       fill="#000000"
       fill-opacity="0"
       font-family="Arial, Arial_MSFontService, sans-serif"
       font-size="21.5781px"
       x="446.858"
       y="330.823"
       id="text103">1</text>
    <path
       d="m 520.061,311.942 c 1.938,0 3.401,0.425 4.391,1.274 0.99,0.849 1.484,2.08 1.484,3.695 0,0.552 -0.054,1.06 -0.164,1.523 -0.109,0.464 -0.281,0.922 -0.515,1.375 -0.235,0.454 -0.55,0.94 -0.946,1.461 -0.395,0.521 -0.833,1.05 -1.312,1.586 -0.479,0.537 -1.307,1.43 -2.484,2.68 -1.98,2.094 -3.433,3.922 -4.36,5.484 h 5.891 c 0.51,0 0.922,-0.031 1.234,-0.093 0.313,-0.063 0.563,-0.167 0.75,-0.313 0.188,-0.146 0.336,-0.336 0.445,-0.57 0.11,-0.235 0.248,-0.597 0.415,-1.086 h 1.328 l -0.266,4.562 h -12.859 v -0.75 c 0.448,-1.093 1.052,-2.213 1.812,-3.359 0.761,-1.146 1.839,-2.495 3.235,-4.047 1.208,-1.333 2.078,-2.344 2.609,-3.031 0.583,-0.75 1.018,-1.399 1.305,-1.945 0.286,-0.547 0.492,-1.063 0.617,-1.547 0.125,-0.485 0.187,-0.972 0.187,-1.461 0,-0.782 -0.125,-1.472 -0.375,-2.071 -0.25,-0.599 -0.633,-1.07 -1.148,-1.414 -0.516,-0.343 -1.164,-0.515 -1.945,-0.515 -1.948,0 -3.261,1.083 -3.938,3.25 h -1.891 v -3 c 1.261,-0.594 2.441,-1.024 3.539,-1.289 1.099,-0.266 2.086,-0.399 2.961,-0.399 z"
       fill-rule="evenodd"
       id="path105" />
    <text
       fill="#000000"
       fill-opacity="0"
       font-family="Arial, Arial_MSFontService, sans-serif"
       font-size="21.5781px"
       x="513.09302"
       y="330.823"
       id="text107">2</text>
    <path
       d="m 684.254,199.803 h 0.86 c -0.063,1 -0.094,2.386 -0.094,4.156 v 13.344 c 0,0.604 0.034,1.06 0.101,1.367 0.068,0.308 0.188,0.558 0.36,0.75 0.172,0.193 0.419,0.344 0.742,0.453 0.323,0.11 0.729,0.193 1.219,0.25 0.489,0.058 1.135,0.097 1.937,0.118 v 1.14 h -11.547 v -1.14 c 1.157,-0.052 1.982,-0.123 2.477,-0.211 0.495,-0.089 0.872,-0.222 1.133,-0.399 0.26,-0.177 0.45,-0.427 0.57,-0.75 0.12,-0.323 0.18,-0.849 0.18,-1.578 v -12.672 c 0,-0.416 -0.073,-0.721 -0.219,-0.914 -0.146,-0.193 -0.359,-0.289 -0.641,-0.289 -0.333,0 -0.807,0.172 -1.422,0.516 -0.614,0.344 -1.375,0.817 -2.281,1.422 l -0.687,-1.203 z"
       fill-rule="evenodd"
       id="path109" />
    <text
       fill="#000000"
       fill-opacity="0"
       font-family="Arial, Arial_MSFontService, sans-serif"
       font-size="21.5781px"
       x="676.94202"
       y="218.68401"
       id="text111">1</text>
    <path
       d="m 737.662,199.803 c 1.177,0 2.209,0.182 3.094,0.547 0.886,0.365 1.563,0.888 2.031,1.57 0.469,0.683 0.703,1.498 0.703,2.446 0,0.885 -0.177,1.664 -0.531,2.336 -0.354,0.671 -0.851,1.257 -1.492,1.757 -0.641,0.5 -1.471,0.99 -2.492,1.469 v 0.141 c 0.635,0.114 1.247,0.31 1.836,0.586 0.588,0.276 1.112,0.633 1.57,1.07 0.458,0.438 0.826,0.961 1.102,1.57 0.276,0.61 0.414,1.305 0.414,2.086 0,1.209 -0.263,2.282 -0.789,3.219 -0.526,0.938 -1.331,1.677 -2.414,2.219 -1.084,0.541 -2.401,0.812 -3.954,0.812 -0.895,0 -1.862,-0.101 -2.898,-0.304 -1.036,-0.204 -1.987,-0.472 -2.852,-0.805 v -3.313 h 1.875 c 0.365,1.084 0.847,1.87 1.446,2.36 0.599,0.489 1.414,0.734 2.445,0.734 1.354,0 2.378,-0.37 3.07,-1.109 0.693,-0.74 1.039,-1.834 1.039,-3.281 0,-1.521 -0.458,-2.683 -1.375,-3.485 -0.916,-0.802 -2.26,-1.203 -4.031,-1.203 h -1.406 v -1.375 c 1.406,-0.083 2.591,-0.354 3.555,-0.812 0.963,-0.459 1.679,-1.047 2.148,-1.766 0.469,-0.719 0.703,-1.526 0.703,-2.422 0,-1.156 -0.307,-2.047 -0.922,-2.672 -0.614,-0.625 -1.51,-0.937 -2.687,-0.937 -0.979,0 -1.776,0.265 -2.391,0.797 -0.614,0.531 -1.067,1.343 -1.359,2.437 h -1.875 v -2.969 c 1.208,-0.573 2.338,-1 3.39,-1.281 1.053,-0.281 2.068,-0.422 3.047,-0.422 z"
       fill-rule="evenodd"
       id="path113" />
    <text
       fill="#000000"
       fill-opacity="0"
       font-family="Arial, Arial_MSFontService, sans-serif"
       font-size="21.8281px"
       x="730.98999"
       y="218.903"
       id="text115">3</text>
    <path
       d="m 785.28,212.428 h 6.547 c 0.146,0 0.248,0.047 0.305,0.141 0.057,0.094 0.086,0.219 0.086,0.375 0,0.062 -0.003,0.146 -0.008,0.25 -0.005,0.104 -0.023,0.216 -0.055,0.336 -0.031,0.119 -0.067,0.239 -0.109,0.359 -0.042,0.12 -0.091,0.232 -0.149,0.336 -0.057,0.104 -0.13,0.188 -0.218,0.25 -0.089,0.063 -0.185,0.094 -0.289,0.094 h -6.547 c -0.136,0 -0.235,-0.047 -0.297,-0.141 -0.063,-0.094 -0.094,-0.234 -0.094,-0.422 0,-0.052 0.005,-0.127 0.016,-0.226 0.01,-0.099 0.028,-0.209 0.054,-0.328 0.027,-0.12 0.06,-0.243 0.102,-0.368 0.042,-0.125 0.094,-0.237 0.156,-0.336 0.063,-0.099 0.133,-0.177 0.211,-0.234 0.078,-0.057 0.175,-0.086 0.289,-0.086 z"
       fill-rule="evenodd"
       id="path117" />
    <text
       fill="#000000"
       fill-opacity="0"
       font-family="Arial, Arial_MSFontService, sans-serif"
       font-size="2.14062px"
       x="784.45203"
       y="214.30099"
       id="text119">-</text>
    <path
       d="m 802.02,210.975 c -0.771,0 -1.419,0.12 -1.945,0.359 -0.527,0.24 -0.954,0.563 -1.282,0.969 -0.328,0.406 -0.562,0.883 -0.703,1.43 -0.14,0.547 -0.211,1.133 -0.211,1.758 0,0.677 0.078,1.31 0.235,1.898 0.156,0.589 0.403,1.096 0.742,1.524 0.338,0.427 0.773,0.765 1.304,1.015 0.532,0.25 1.178,0.375 1.938,0.375 0.854,0 1.586,-0.174 2.195,-0.523 0.61,-0.349 1.073,-0.867 1.391,-1.555 0.318,-0.687 0.476,-1.5 0.476,-2.437 0,-1 -0.171,-1.862 -0.515,-2.586 -0.344,-0.724 -0.828,-1.276 -1.453,-1.657 -0.625,-0.38 -1.349,-0.57 -2.172,-0.57 z m 0.078,-9.844 c -1.313,0 -2.315,0.357 -3.008,1.071 -0.693,0.713 -1.039,1.726 -1.039,3.039 0,0.614 0.073,1.192 0.219,1.734 0.146,0.542 0.38,1.01 0.703,1.406 0.323,0.396 0.742,0.711 1.258,0.946 0.515,0.234 1.148,0.351 1.898,0.351 0.865,0 1.591,-0.169 2.18,-0.508 0.588,-0.338 1.026,-0.833 1.312,-1.484 0.287,-0.651 0.43,-1.404 0.43,-2.258 0,-0.937 -0.169,-1.732 -0.508,-2.383 -0.338,-0.651 -0.804,-1.132 -1.398,-1.445 -0.594,-0.312 -1.276,-0.469 -2.047,-0.469 z m 0.031,-1.328 c 1.5,0 2.761,0.211 3.781,0.633 1.021,0.422 1.79,1.031 2.305,1.828 0.516,0.797 0.774,1.753 0.774,2.867 0,1.146 -0.282,2.133 -0.844,2.961 -0.563,0.828 -1.432,1.503 -2.61,2.024 l 0.032,0.203 c 1.177,0.458 2.067,1.127 2.672,2.008 0.604,0.88 0.906,1.94 0.906,3.179 0,1.219 -0.292,2.292 -0.875,3.219 -0.583,0.927 -1.43,1.643 -2.539,2.148 -1.11,0.506 -2.404,0.758 -3.883,0.758 -1.385,0 -2.602,-0.232 -3.648,-0.695 -1.047,-0.464 -1.86,-1.141 -2.438,-2.031 -0.578,-0.891 -0.867,-1.94 -0.867,-3.149 0,-0.906 0.156,-1.692 0.469,-2.359 0.312,-0.667 0.721,-1.216 1.226,-1.649 0.505,-0.432 1.143,-0.825 1.914,-1.179 l -0.031,-0.203 c -2.24,-0.969 -3.359,-2.631 -3.359,-4.985 0,-1.073 0.294,-2.031 0.882,-2.875 0.589,-0.843 1.427,-1.505 2.516,-1.984 1.089,-0.479 2.294,-0.719 3.617,-0.719 z"
       fill-rule="evenodd"
       id="path121" />
    <text
       fill="#000000"
       fill-opacity="0"
       font-family="Arial, Arial_MSFontService, sans-serif"
       font-size="21.8281px"
       x="794.89502"
       y="218.903"
       id="text123">8</text>
    <path
       d="m 844.78,212.428 h 6.547 c 0.146,0 0.248,0.047 0.305,0.141 0.057,0.094 0.086,0.219 0.086,0.375 0,0.062 -0.003,0.146 -0.008,0.25 -0.005,0.104 -0.023,0.216 -0.055,0.336 -0.031,0.119 -0.067,0.239 -0.109,0.359 -0.042,0.12 -0.091,0.232 -0.149,0.336 -0.057,0.104 -0.13,0.188 -0.218,0.25 -0.089,0.063 -0.185,0.094 -0.289,0.094 h -6.547 c -0.136,0 -0.235,-0.047 -0.297,-0.141 -0.063,-0.094 -0.094,-0.234 -0.094,-0.422 0,-0.052 0.005,-0.127 0.016,-0.226 0.01,-0.099 0.028,-0.209 0.054,-0.328 0.027,-0.12 0.06,-0.243 0.102,-0.368 0.042,-0.125 0.094,-0.237 0.156,-0.336 0.063,-0.099 0.133,-0.177 0.211,-0.234 0.078,-0.057 0.175,-0.086 0.289,-0.086 z"
       fill-rule="evenodd"
       id="path125" />
    <text
       fill="#000000"
       fill-opacity="0"
       font-family="Arial, Arial_MSFontService, sans-serif"
       font-size="2.14062px"
       x="843.95203"
       y="214.30099"
       id="text127">-</text>
    <path
       d="m 861.645,199.803 c 1.937,0 3.401,0.425 4.39,1.274 0.99,0.849 1.485,2.08 1.485,3.695 0,0.552 -0.055,1.06 -0.164,1.523 -0.11,0.464 -0.281,0.922 -0.516,1.375 -0.234,0.453 -0.549,0.94 -0.945,1.461 -0.396,0.521 -0.833,1.05 -1.313,1.586 -0.479,0.537 -1.307,1.43 -2.484,2.68 -1.979,2.094 -3.432,3.922 -4.359,5.484 h 5.89 c 0.511,0 0.922,-0.031 1.235,-0.093 0.312,-0.063 0.562,-0.167 0.75,-0.313 0.187,-0.146 0.336,-0.336 0.445,-0.57 0.109,-0.235 0.247,-0.597 0.414,-1.086 h 1.328 l -0.266,4.562 h -12.859 v -0.75 c 0.448,-1.093 1.052,-2.213 1.813,-3.359 0.76,-1.146 1.838,-2.495 3.234,-4.047 1.208,-1.333 2.078,-2.344 2.609,-3.031 0.584,-0.75 1.019,-1.399 1.305,-1.946 0.286,-0.546 0.492,-1.062 0.617,-1.546 0.125,-0.485 0.188,-0.972 0.188,-1.461 0,-0.782 -0.125,-1.472 -0.375,-2.071 -0.25,-0.599 -0.633,-1.07 -1.149,-1.414 -0.515,-0.343 -1.164,-0.515 -1.945,-0.515 -1.948,0 -3.26,1.083 -3.938,3.25 h -1.89 v -3 c 1.26,-0.594 2.44,-1.024 3.539,-1.289 1.099,-0.266 2.086,-0.399 2.961,-0.399 z"
       fill-rule="evenodd"
       id="path129" />
    <text
       fill="#000000"
       fill-opacity="0"
       font-family="Arial, Arial_MSFontService, sans-serif"
       font-size="21.5781px"
       x="854.67603"
       y="218.68401"
       id="text131">2</text>
    <path
       d="m 683.02,238.645 c -0.719,0 -1.32,0.213 -1.805,0.64 -0.484,0.427 -0.875,1.042 -1.172,1.844 -0.297,0.802 -0.508,1.779 -0.633,2.93 -0.125,1.151 -0.187,2.45 -0.187,3.898 0,3.396 0.315,5.888 0.945,7.477 0.63,1.588 1.607,2.382 2.93,2.382 1.26,0 2.195,-0.747 2.805,-2.242 0.609,-1.495 0.914,-3.81 0.914,-6.945 0,-2.396 -0.157,-4.336 -0.469,-5.82 -0.313,-1.485 -0.747,-2.55 -1.305,-3.196 -0.557,-0.645 -1.231,-0.968 -2.023,-0.968 z m 0.078,-1.329 c 2.281,0 3.979,0.881 5.094,2.641 1.114,1.761 1.672,4.422 1.672,7.984 0,3.688 -0.597,6.477 -1.789,8.368 -1.193,1.89 -2.935,2.836 -5.227,2.836 -2.25,0 -3.925,-0.886 -5.023,-2.657 -1.099,-1.77 -1.649,-4.458 -1.649,-8.062 0,-1.917 0.169,-3.573 0.508,-4.969 0.338,-1.396 0.812,-2.549 1.422,-3.461 0.609,-0.911 1.341,-1.586 2.195,-2.023 0.854,-0.438 1.787,-0.657 2.797,-0.657 z"
       fill-rule="evenodd"
       id="path133" />
    <text
       fill="#000000"
       fill-opacity="0"
       font-family="Arial, Arial_MSFontService, sans-serif"
       font-size="21.8281px"
       x="676.17603"
       y="256.41599"
       id="text135">0</text>
    <path
       d="m 725.78,249.941 h 6.547 c 0.146,0 0.248,0.047 0.305,0.141 0.057,0.094 0.086,0.219 0.086,0.375 0,0.063 -0.003,0.146 -0.008,0.25 -0.005,0.104 -0.023,0.216 -0.055,0.336 -0.031,0.12 -0.067,0.24 -0.109,0.359 -0.042,0.12 -0.091,0.232 -0.149,0.336 -0.057,0.105 -0.13,0.188 -0.218,0.25 -0.089,0.063 -0.185,0.094 -0.289,0.094 h -6.547 c -0.136,0 -0.235,-0.047 -0.297,-0.141 -0.063,-0.093 -0.094,-0.234 -0.094,-0.421 0,-0.052 0.005,-0.128 0.016,-0.227 0.01,-0.099 0.028,-0.208 0.054,-0.328 0.027,-0.12 0.06,-0.242 0.102,-0.367 0.042,-0.125 0.094,-0.237 0.156,-0.336 0.063,-0.099 0.133,-0.177 0.211,-0.235 0.078,-0.057 0.175,-0.086 0.289,-0.086 z"
       fill-rule="evenodd"
       id="path137" />
    <text
       fill="#000000"
       fill-opacity="0"
       font-family="Arial, Arial_MSFontService, sans-serif"
       font-size="2.14062px"
       x="724.95203"
       y="251.815"
       id="text139">-</text>
    <path
       d="m 742.645,237.316 c 1.937,0 3.401,0.425 4.39,1.274 0.99,0.849 1.485,2.081 1.485,3.695 0,0.552 -0.055,1.06 -0.164,1.524 -0.11,0.463 -0.281,0.922 -0.516,1.375 -0.234,0.453 -0.549,0.94 -0.945,1.461 -0.396,0.52 -0.833,1.049 -1.313,1.586 -0.479,0.536 -1.307,1.429 -2.484,2.679 -1.979,2.094 -3.432,3.922 -4.359,5.485 h 5.89 c 0.511,0 0.922,-0.032 1.235,-0.094 0.312,-0.063 0.562,-0.167 0.75,-0.313 0.187,-0.145 0.336,-0.336 0.445,-0.57 0.109,-0.234 0.247,-0.596 0.414,-1.086 h 1.328 l -0.266,4.563 h -12.859 v -0.75 c 0.448,-1.094 1.052,-2.214 1.813,-3.36 0.76,-1.146 1.838,-2.495 3.234,-4.047 1.208,-1.333 2.078,-2.343 2.609,-3.031 0.584,-0.75 1.019,-1.398 1.305,-1.945 0.286,-0.547 0.492,-1.063 0.617,-1.547 0.125,-0.484 0.188,-0.971 0.188,-1.461 0,-0.781 -0.125,-1.471 -0.375,-2.07 -0.25,-0.599 -0.633,-1.071 -1.149,-1.414 -0.515,-0.344 -1.164,-0.516 -1.945,-0.516 -1.948,0 -3.26,1.083 -3.938,3.25 h -1.89 v -3 c 1.26,-0.594 2.44,-1.023 3.539,-1.289 1.099,-0.266 2.086,-0.399 2.961,-0.399 z"
       fill-rule="evenodd"
       id="path141" />
    <text
       fill="#000000"
       fill-opacity="0"
       font-family="Arial, Arial_MSFontService, sans-serif"
       font-size="21.5781px"
       x="735.67603"
       y="256.19699"
       id="text143">2</text>
    <path
       d="m 797.1,238.645 c -0.719,0 -1.32,0.213 -1.805,0.64 -0.484,0.427 -0.875,1.042 -1.172,1.844 -0.297,0.802 -0.508,1.779 -0.633,2.93 -0.125,1.151 -0.187,2.45 -0.187,3.898 0,3.396 0.315,5.888 0.945,7.477 0.63,1.588 1.607,2.382 2.93,2.382 1.26,0 2.195,-0.747 2.805,-2.242 0.609,-1.495 0.914,-3.81 0.914,-6.945 0,-2.396 -0.157,-4.336 -0.469,-5.82 -0.313,-1.485 -0.747,-2.55 -1.305,-3.196 -0.557,-0.645 -1.231,-0.968 -2.023,-0.968 z m 0.078,-1.329 c 2.281,0 3.979,0.881 5.094,2.641 1.114,1.761 1.672,4.422 1.672,7.984 0,3.688 -0.597,6.477 -1.789,8.368 -1.193,1.89 -2.935,2.836 -5.227,2.836 -2.25,0 -3.925,-0.886 -5.023,-2.657 -1.099,-1.77 -1.649,-4.458 -1.649,-8.062 0,-1.917 0.169,-3.573 0.508,-4.969 0.338,-1.396 0.812,-2.549 1.422,-3.461 0.609,-0.911 1.341,-1.586 2.195,-2.023 0.854,-0.438 1.787,-0.657 2.797,-0.657 z"
       fill-rule="evenodd"
       id="path145" />
    <text
       fill="#000000"
       fill-opacity="0"
       font-family="Arial, Arial_MSFontService, sans-serif"
       font-size="21.8281px"
       x="790.25598"
       y="256.41599"
       id="text147">0</text>
    <path
       d="m 861.1,236.535 h 1.219 l -0.235,3.625 H 853.1 v 6.86 c 0.542,-0.23 1.13,-0.401 1.765,-0.516 0.636,-0.115 1.271,-0.172 1.907,-0.172 1.239,0 2.338,0.253 3.297,0.758 0.958,0.505 1.698,1.224 2.218,2.156 0.521,0.932 0.782,2.013 0.782,3.242 0,1.396 -0.292,2.594 -0.875,3.594 -0.584,1 -1.427,1.76 -2.532,2.281 -1.104,0.521 -2.411,0.782 -3.922,0.782 -1.802,0 -3.687,-0.37 -5.656,-1.11 v -3.312 h 1.891 c 0.312,1.062 0.784,1.843 1.414,2.343 0.63,0.5 1.445,0.75 2.445,0.75 1.386,0 2.433,-0.416 3.141,-1.25 0.708,-0.833 1.062,-2.078 1.062,-3.734 0,-1.104 -0.187,-2.018 -0.562,-2.742 -0.375,-0.724 -0.88,-1.247 -1.516,-1.57 -0.635,-0.323 -1.375,-0.485 -2.219,-0.485 -0.708,0 -1.317,0.044 -1.828,0.133 -0.51,0.089 -1.057,0.227 -1.64,0.414 l -1.25,-0.734 v -10.282 h 8.609 c 0.354,0 0.609,-0.028 0.766,-0.085 0.156,-0.058 0.281,-0.146 0.375,-0.266 0.093,-0.12 0.203,-0.346 0.328,-0.68 z"
       fill-rule="evenodd"
       id="path149" />
    <text
       fill="#000000"
       fill-opacity="0"
       font-family="Arial, Arial_MSFontService, sans-serif"
       font-size="22.6094px"
       x="850.08398"
       y="256.31799"
       id="text151">5</text>
    <path
       d="m 683.02,276.158 c -0.719,0 -1.32,0.213 -1.805,0.641 -0.484,0.427 -0.875,1.041 -1.172,1.843 -0.297,0.802 -0.508,1.779 -0.633,2.93 -0.125,1.151 -0.187,2.451 -0.187,3.898 0,3.396 0.315,5.888 0.945,7.477 0.63,1.589 1.607,2.383 2.93,2.383 1.26,0 2.195,-0.748 2.805,-2.242 0.609,-1.495 0.914,-3.81 0.914,-6.946 0,-2.396 -0.157,-4.336 -0.469,-5.82 -0.313,-1.484 -0.747,-2.549 -1.305,-3.195 -0.557,-0.646 -1.231,-0.969 -2.023,-0.969 z m 0.078,-1.328 c 2.281,0 3.979,0.88 5.094,2.64 1.114,1.761 1.672,4.422 1.672,7.985 0,3.687 -0.597,6.476 -1.789,8.367 -1.193,1.891 -2.935,2.836 -5.227,2.836 -2.25,0 -3.925,-0.885 -5.023,-2.656 -1.099,-1.771 -1.649,-4.459 -1.649,-8.063 0,-1.916 0.169,-3.573 0.508,-4.969 0.338,-1.395 0.812,-2.549 1.422,-3.461 0.609,-0.911 1.341,-1.585 2.195,-2.023 0.854,-0.437 1.787,-0.656 2.797,-0.656 z"
       fill-rule="evenodd"
       id="path153" />
    <text
       fill="#000000"
       fill-opacity="0"
       font-family="Arial, Arial_MSFontService, sans-serif"
       font-size="21.8281px"
       x="676.17603"
       y="293.92899"
       id="text155">0</text>
    <path
       d="m 737.6,276.158 c -0.719,0 -1.32,0.213 -1.805,0.641 -0.484,0.427 -0.875,1.041 -1.172,1.843 -0.297,0.802 -0.508,1.779 -0.633,2.93 -0.125,1.151 -0.187,2.451 -0.187,3.898 0,3.396 0.315,5.888 0.945,7.477 0.63,1.589 1.607,2.383 2.93,2.383 1.26,0 2.195,-0.748 2.805,-2.242 0.609,-1.495 0.914,-3.81 0.914,-6.946 0,-2.396 -0.157,-4.336 -0.469,-5.82 -0.313,-1.484 -0.747,-2.549 -1.305,-3.195 -0.557,-0.646 -1.231,-0.969 -2.023,-0.969 z m 0.078,-1.328 c 2.281,0 3.979,0.88 5.094,2.64 1.114,1.761 1.672,4.422 1.672,7.985 0,3.687 -0.597,6.476 -1.789,8.367 -1.193,1.891 -2.935,2.836 -5.227,2.836 -2.25,0 -3.925,-0.885 -5.023,-2.656 -1.099,-1.771 -1.649,-4.459 -1.649,-8.063 0,-1.916 0.169,-3.573 0.508,-4.969 0.338,-1.395 0.812,-2.549 1.422,-3.461 0.609,-0.911 1.341,-1.585 2.195,-2.023 0.854,-0.437 1.787,-0.656 2.797,-0.656 z"
       fill-rule="evenodd"
       id="path157" />
    <text
       fill="#000000"
       fill-opacity="0"
       font-family="Arial, Arial_MSFontService, sans-serif"
       font-size="21.8281px"
       x="730.75598"
       y="293.92899"
       id="text159">0</text>
    <path
       d="m 798.334,274.83 h 0.86 c -0.063,1 -0.094,2.385 -0.094,4.156 v 13.344 c 0,0.604 0.034,1.06 0.101,1.367 0.068,0.307 0.188,0.557 0.36,0.75 0.172,0.193 0.419,0.344 0.742,0.453 0.323,0.109 0.729,0.193 1.219,0.25 0.489,0.057 1.135,0.096 1.937,0.117 v 1.141 h -11.547 v -1.141 c 1.157,-0.052 1.982,-0.122 2.477,-0.211 0.495,-0.088 0.872,-0.221 1.133,-0.398 0.26,-0.177 0.45,-0.427 0.57,-0.75 0.12,-0.323 0.18,-0.849 0.18,-1.578 v -12.672 c 0,-0.417 -0.073,-0.721 -0.219,-0.914 -0.146,-0.193 -0.359,-0.289 -0.641,-0.289 -0.333,0 -0.807,0.172 -1.422,0.515 -0.614,0.344 -1.375,0.818 -2.281,1.422 l -0.687,-1.203 z"
       fill-rule="evenodd"
       id="path161" />
    <text
       fill="#000000"
       fill-opacity="0"
       font-family="Arial, Arial_MSFontService, sans-serif"
       font-size="21.5781px"
       x="791.02197"
       y="293.711"
       id="text163">1</text>
    <path
       d="m 856.725,274.83 c 1.937,0 3.401,0.424 4.39,1.273 0.99,0.849 1.485,2.081 1.485,3.696 0,0.552 -0.055,1.059 -0.164,1.523 -0.11,0.464 -0.281,0.922 -0.516,1.375 -0.234,0.453 -0.549,0.94 -0.945,1.461 -0.396,0.521 -0.833,1.049 -1.313,1.586 -0.479,0.536 -1.307,1.43 -2.484,2.68 -1.979,2.093 -3.432,3.921 -4.359,5.484 h 5.89 c 0.511,0 0.922,-0.031 1.235,-0.094 0.312,-0.062 0.562,-0.166 0.75,-0.312 0.187,-0.146 0.336,-0.336 0.445,-0.571 0.109,-0.234 0.247,-0.596 0.414,-1.086 h 1.328 l -0.266,4.563 h -12.859 v -0.75 c 0.448,-1.094 1.052,-2.214 1.813,-3.359 0.76,-1.146 1.838,-2.495 3.234,-4.047 1.208,-1.334 2.078,-2.344 2.609,-3.032 0.584,-0.75 1.019,-1.398 1.305,-1.945 0.286,-0.547 0.492,-1.062 0.617,-1.547 0.125,-0.484 0.188,-0.971 0.188,-1.461 0,-0.781 -0.125,-1.471 -0.375,-2.07 -0.25,-0.599 -0.633,-1.07 -1.149,-1.414 -0.515,-0.344 -1.164,-0.516 -1.945,-0.516 -1.948,0 -3.26,1.084 -3.938,3.25 h -1.89 v -3 c 1.26,-0.593 2.44,-1.023 3.539,-1.289 1.099,-0.265 2.086,-0.398 2.961,-0.398 z"
       fill-rule="evenodd"
       id="path165" />
    <text
       fill="#000000"
       fill-opacity="0"
       font-family="Arial, Arial_MSFontService, sans-serif"
       font-size="21.5781px"
       x="849.75598"
       y="293.711"
       id="text167">2</text>
    <path
       d="m 683.02,313.671 c -0.719,0 -1.32,0.214 -1.805,0.641 -0.484,0.427 -0.875,1.042 -1.172,1.844 -0.297,0.802 -0.508,1.778 -0.633,2.929 -0.125,1.151 -0.187,2.451 -0.187,3.899 0,3.396 0.315,5.888 0.945,7.476 0.63,1.589 1.607,2.383 2.93,2.383 1.26,0 2.195,-0.747 2.805,-2.242 0.609,-1.495 0.914,-3.81 0.914,-6.945 0,-2.396 -0.157,-4.336 -0.469,-5.821 -0.313,-1.484 -0.747,-2.549 -1.305,-3.195 -0.557,-0.646 -1.231,-0.969 -2.023,-0.969 z m 0.078,-1.328 c 2.281,0 3.979,0.88 5.094,2.641 1.114,1.76 1.672,4.422 1.672,7.984 0,3.688 -0.597,6.477 -1.789,8.367 -1.193,1.891 -2.935,2.836 -5.227,2.836 -2.25,0 -3.925,-0.885 -5.023,-2.656 -1.099,-1.771 -1.649,-4.458 -1.649,-8.062 0,-1.917 0.169,-3.573 0.508,-4.969 0.338,-1.396 0.812,-2.55 1.422,-3.461 0.609,-0.912 1.341,-1.586 2.195,-2.024 0.854,-0.437 1.787,-0.656 2.797,-0.656 z"
       fill-rule="evenodd"
       id="path169" />
    <text
       fill="#000000"
       fill-opacity="0"
       font-family="Arial, Arial_MSFontService, sans-serif"
       font-size="21.8281px"
       x="676.17603"
       y="331.44299"
       id="text171">0</text>
    <path
       d="m 737.6,313.671 c -0.719,0 -1.32,0.214 -1.805,0.641 -0.484,0.427 -0.875,1.042 -1.172,1.844 -0.297,0.802 -0.508,1.778 -0.633,2.929 -0.125,1.151 -0.187,2.451 -0.187,3.899 0,3.396 0.315,5.888 0.945,7.476 0.63,1.589 1.607,2.383 2.93,2.383 1.26,0 2.195,-0.747 2.805,-2.242 0.609,-1.495 0.914,-3.81 0.914,-6.945 0,-2.396 -0.157,-4.336 -0.469,-5.821 -0.313,-1.484 -0.747,-2.549 -1.305,-3.195 -0.557,-0.646 -1.231,-0.969 -2.023,-0.969 z m 0.078,-1.328 c 2.281,0 3.979,0.88 5.094,2.641 1.114,1.76 1.672,4.422 1.672,7.984 0,3.688 -0.597,6.477 -1.789,8.367 -1.193,1.891 -2.935,2.836 -5.227,2.836 -2.25,0 -3.925,-0.885 -5.023,-2.656 -1.099,-1.771 -1.649,-4.458 -1.649,-8.062 0,-1.917 0.169,-3.573 0.508,-4.969 0.338,-1.396 0.812,-2.55 1.422,-3.461 0.609,-0.912 1.341,-1.586 2.195,-2.024 0.854,-0.437 1.787,-0.656 2.797,-0.656 z"
       fill-rule="evenodd"
       id="path173" />
    <text
       fill="#000000"
       fill-opacity="0"
       font-family="Arial, Arial_MSFontService, sans-serif"
       font-size="21.8281px"
       x="730.75598"
       y="331.44299"
       id="text175">0</text>
    <path
       d="m 797.1,313.671 c -0.719,0 -1.32,0.214 -1.805,0.641 -0.484,0.427 -0.875,1.042 -1.172,1.844 -0.297,0.802 -0.508,1.778 -0.633,2.929 -0.125,1.151 -0.187,2.451 -0.187,3.899 0,3.396 0.315,5.888 0.945,7.476 0.63,1.589 1.607,2.383 2.93,2.383 1.26,0 2.195,-0.747 2.805,-2.242 0.609,-1.495 0.914,-3.81 0.914,-6.945 0,-2.396 -0.157,-4.336 -0.469,-5.821 -0.313,-1.484 -0.747,-2.549 -1.305,-3.195 -0.557,-0.646 -1.231,-0.969 -2.023,-0.969 z m 0.078,-1.328 c 2.281,0 3.979,0.88 5.094,2.641 1.114,1.76 1.672,4.422 1.672,7.984 0,3.688 -0.597,6.477 -1.789,8.367 -1.193,1.891 -2.935,2.836 -5.227,2.836 -2.25,0 -3.925,-0.885 -5.023,-2.656 -1.099,-1.771 -1.649,-4.458 -1.649,-8.062 0,-1.917 0.169,-3.573 0.508,-4.969 0.338,-1.396 0.812,-2.55 1.422,-3.461 0.609,-0.912 1.341,-1.586 2.195,-2.024 0.854,-0.437 1.787,-0.656 2.797,-0.656 z"
       fill-rule="evenodd"
       id="path177" />
    <text
       fill="#000000"
       fill-opacity="0"
       font-family="Arial, Arial_MSFontService, sans-serif"
       font-size="21.8281px"
       x="790.25598"
       y="331.44299"
       id="text179">0</text>
    <path
       d="m 856.6,313.671 c -0.719,0 -1.32,0.214 -1.805,0.641 -0.484,0.427 -0.875,1.042 -1.172,1.844 -0.297,0.802 -0.508,1.778 -0.633,2.929 -0.125,1.151 -0.187,2.451 -0.187,3.899 0,3.396 0.315,5.888 0.945,7.476 0.63,1.589 1.607,2.383 2.93,2.383 1.26,0 2.195,-0.747 2.805,-2.242 0.609,-1.495 0.914,-3.81 0.914,-6.945 0,-2.396 -0.157,-4.336 -0.469,-5.821 -0.313,-1.484 -0.747,-2.549 -1.305,-3.195 -0.557,-0.646 -1.231,-0.969 -2.023,-0.969 z m 0.078,-1.328 c 2.281,0 3.979,0.88 5.094,2.641 1.114,1.76 1.672,4.422 1.672,7.984 0,3.688 -0.597,6.477 -1.789,8.367 -1.193,1.891 -2.935,2.836 -5.227,2.836 -2.25,0 -3.925,-0.885 -5.023,-2.656 -1.099,-1.771 -1.649,-4.458 -1.649,-8.062 0,-1.917 0.169,-3.573 0.508,-4.969 0.338,-1.396 0.812,-2.55 1.422,-3.461 0.609,-0.912 1.341,-1.586 2.195,-2.024 0.854,-0.437 1.787,-0.656 2.797,-0.656 z"
       fill-rule="evenodd"
       id="path181" />
    <text
       fill="#000000"
       fill-opacity="0"
       font-family="Arial, Arial_MSFontService, sans-serif"
       font-size="21.8281px"
       x="849.75598"
       y="331.44299"
       id="text183">0</text>
    <path
       d="m 584.777,246.753 c 3.75,0 8.219,1.641 13.407,4.922 5.187,3.282 9.125,4.922 11.812,4.922 2.656,0 4.875,-0.703 6.656,-2.109 1.782,-1.406 3.578,-3.594 5.391,-6.563 l 3.75,2.532 c -1.344,2.781 -3.469,5.585 -6.375,8.414 -2.906,2.828 -6.438,4.242 -10.594,4.242 -4,0 -8.57,-1.641 -13.711,-4.922 -5.14,-3.281 -9.07,-4.922 -11.789,-4.922 -2.281,0 -4.281,0.719 -6,2.156 -1.719,1.438 -3.234,3.532 -4.547,6.282 l -3.656,-2.063 c 1.594,-3.687 3.703,-6.758 6.328,-9.211 2.625,-2.453 5.735,-3.68 9.328,-3.68 z"
       fill-rule="evenodd"
       id="path185" />
    <text
       fill="#000000"
       fill-opacity="0"
       font-family="Arial, Arial_MSFontService, sans-serif"
       font-size="16.3594px"
       x="569.12097"
       y="261.06799"
       id="text187">~</text>
    <text
       font-family="Calibri, Calibri_MSFontService, sans-serif"
       font-weight="400"
       font-size="43px"
       transform="translate(408.691,68)"
       id="text195">Locating <tspan
   font-size="43px"
   x="154.75301"
   y="0"
   id="tspan189">b</tspan>asis vectors<tspan
   font-size="27px"
   x="-330.08401"
   y="337"
   id="tspan191">The position of the basis vectors of matrix A can be located by the position of pivot columns in matrix B.</tspan><tspan
   font-size="27px"
   x="-333.64999"
   y="425"
   id="tspan193">Therefore</tspan></text>
    <path
       d="m 203.88,427.113 v 1.384 c -2.488,0.721 -4.481,2.892 -5.979,6.513 -1.499,3.621 -2.248,8.402 -2.248,14.343 0,3.015 0.303,6.891 0.91,11.628 0.606,4.738 0.909,7.924 0.909,9.558 0,3.542 -0.516,6.623 -1.549,9.242 -1.032,2.619 -2.436,4.338 -4.212,5.155 v 0.369 c 1.776,0.817 3.18,2.536 4.212,5.155 1.033,2.619 1.549,5.7 1.549,9.242 0,1.634 -0.303,4.82 -0.909,9.558 -0.607,4.737 -0.91,8.613 -0.91,11.628 0,5.941 0.749,10.722 2.248,14.343 1.498,3.621 3.491,5.792 5.979,6.513 v 1.384 c -2.962,-0.492 -5.566,-2.786 -7.812,-6.882 -2.245,-4.095 -3.368,-9.681 -3.368,-16.756 0,-2.575 0.332,-6.335 0.995,-11.278 0.664,-4.944 0.996,-8.497 0.996,-10.659 0,-3.876 -0.517,-6.775 -1.549,-8.695 -1.033,-1.92 -2.472,-2.916 -4.318,-2.986 v -1.503 c 1.846,-0.07 3.285,-1.066 4.318,-2.986 1.032,-1.92 1.549,-4.819 1.549,-8.695 0,-2.162 -0.332,-5.715 -0.996,-10.659 -0.663,-4.943 -0.995,-8.703 -0.995,-11.278 0,-7.075 1.123,-12.661 3.368,-16.756 2.246,-4.096 4.85,-6.39 7.812,-6.882 z"
       fill-rule="evenodd"
       id="path197" />
    <text
       fill="#000000"
       fill-opacity="0"
       font-family="Arial, Arial_MSFontService, sans-serif"
       font-size="116.016px"
       x="188.82401"
       y="528.62598"
       id="text199"></text>
    <path
       d="m 231.254,427.416 h 7.778 v 115.409 h -7.778 v -1.503 h 4.878 V 428.919 h -4.878 z m -23.661,0 h 7.778 v 1.503 h -4.878 v 112.403 h 4.878 v 1.503 h -7.778 z"
       fill-rule="evenodd"
       id="path201" />
    <path
       d="m 223.302,430.127 c -0.606,0 -1.114,0.18 -1.523,0.541 -0.408,0.36 -0.738,0.878 -0.988,1.555 -0.251,0.677 -0.429,1.501 -0.534,2.472 -0.106,0.971 -0.158,2.068 -0.158,3.289 0,2.866 0.265,4.968 0.797,6.309 0.532,1.34 1.356,2.01 2.472,2.01 1.064,0 1.852,-0.63 2.367,-1.892 0.514,-1.261 0.771,-3.214 0.771,-5.86 0,-2.021 -0.132,-3.658 -0.396,-4.911 -0.263,-1.252 -0.63,-2.151 -1.101,-2.696 -0.47,-0.545 -1.039,-0.817 -1.707,-0.817 z m 0.066,-1.121 c 1.925,0 3.358,0.743 4.298,2.228 0.94,1.486 1.411,3.731 1.411,6.737 0,3.112 -0.504,5.465 -1.51,7.06 -1.006,1.595 -2.476,2.393 -4.41,2.393 -1.898,0 -3.311,-0.747 -4.238,-2.241 -0.928,-1.494 -1.391,-3.762 -1.391,-6.803 0,-1.617 0.143,-3.015 0.428,-4.192 0.286,-1.178 0.686,-2.152 1.2,-2.921 0.514,-0.769 1.132,-1.338 1.852,-1.707 0.721,-0.369 1.508,-0.554 2.36,-0.554 z"
       fill-rule="evenodd"
       id="path203" />
    <text
       fill="#000000"
       fill-opacity="0"
       font-family="Arial, Arial_MSFontService, sans-serif"
       font-size="18.4175px"
       x="217.528"
       y="445.12201"
       id="text205">0</text>
    <path
       d="m 224.344,460.266 h 0.725 c -0.053,0.844 -0.079,2.013 -0.079,3.507 v 11.259 c 0,0.51 0.028,0.894 0.085,1.154 0.058,0.259 0.159,0.47 0.304,0.632 0.145,0.163 0.353,0.29 0.626,0.383 0.272,0.092 0.615,0.162 1.028,0.211 0.413,0.048 0.958,0.081 1.635,0.098 v 0.963 h -9.743 v -0.963 c 0.976,-0.043 1.672,-0.103 2.09,-0.177 0.417,-0.075 0.736,-0.187 0.956,-0.337 0.219,-0.149 0.38,-0.36 0.481,-0.632 0.101,-0.273 0.151,-0.717 0.151,-1.332 V 464.34 c 0,-0.351 -0.061,-0.609 -0.184,-0.771 -0.123,-0.163 -0.303,-0.244 -0.541,-0.244 -0.281,0 -0.681,0.145 -1.199,0.435 -0.519,0.29 -1.161,0.69 -1.925,1.2 l -0.58,-1.015 z"
       fill-rule="evenodd"
       id="path207" />
    <text
       fill="#000000"
       fill-opacity="0"
       font-family="Arial, Arial_MSFontService, sans-serif"
       font-size="18.2065px"
       x="218.174"
       y="476.19699"
       id="text209">1</text>
    <path
       d="m 223.302,492.647 c -0.606,0 -1.114,0.18 -1.523,0.541 -0.408,0.36 -0.738,0.878 -0.988,1.555 -0.251,0.677 -0.429,1.501 -0.534,2.472 -0.106,0.971 -0.158,2.068 -0.158,3.289 0,2.866 0.265,4.968 0.797,6.309 0.532,1.34 1.356,2.01 2.472,2.01 1.064,0 1.852,-0.63 2.367,-1.892 0.514,-1.261 0.771,-3.214 0.771,-5.86 0,-2.021 -0.132,-3.658 -0.396,-4.911 -0.263,-1.252 -0.63,-2.151 -1.101,-2.696 -0.47,-0.545 -1.039,-0.817 -1.707,-0.817 z m 0.066,-1.121 c 1.925,0 3.358,0.743 4.298,2.228 0.94,1.486 1.411,3.731 1.411,6.737 0,3.112 -0.504,5.465 -1.51,7.06 -1.006,1.595 -2.476,2.393 -4.41,2.393 -1.898,0 -3.311,-0.747 -4.238,-2.241 -0.928,-1.495 -1.391,-3.762 -1.391,-6.803 0,-1.617 0.143,-3.015 0.428,-4.192 0.286,-1.178 0.686,-2.152 1.2,-2.921 0.514,-0.769 1.132,-1.338 1.852,-1.707 0.721,-0.369 1.508,-0.554 2.36,-0.554 z"
       fill-rule="evenodd"
       id="path211" />
    <text
       fill="#000000"
       fill-opacity="0"
       font-family="Arial, Arial_MSFontService, sans-serif"
       font-size="18.4175px"
       x="217.528"
       y="507.642"
       id="text213">0</text>
    <path
       d="m 223.302,523.907 c -0.606,0 -1.114,0.18 -1.523,0.541 -0.408,0.36 -0.738,0.878 -0.988,1.555 -0.251,0.677 -0.429,1.501 -0.534,2.472 -0.106,0.971 -0.158,2.068 -0.158,3.289 0,2.866 0.265,4.968 0.797,6.309 0.532,1.34 1.356,2.01 2.472,2.01 1.064,0 1.852,-0.63 2.367,-1.892 0.514,-1.261 0.771,-3.214 0.771,-5.86 0,-2.021 -0.132,-3.658 -0.396,-4.911 -0.263,-1.252 -0.63,-2.151 -1.101,-2.696 -0.47,-0.545 -1.039,-0.817 -1.707,-0.817 z m 0.066,-1.121 c 1.925,0 3.358,0.743 4.298,2.228 0.94,1.486 1.411,3.731 1.411,6.737 0,3.112 -0.504,5.465 -1.51,7.06 -1.006,1.595 -2.476,2.393 -4.41,2.393 -1.898,0 -3.311,-0.747 -4.238,-2.241 -0.928,-1.494 -1.391,-3.762 -1.391,-6.803 0,-1.617 0.143,-3.015 0.428,-4.192 0.286,-1.178 0.686,-2.152 1.2,-2.921 0.514,-0.769 1.132,-1.338 1.852,-1.707 0.721,-0.369 1.508,-0.554 2.36,-0.554 z"
       fill-rule="evenodd"
       id="path215" />
    <text
       fill="#000000"
       fill-opacity="0"
       font-family="Arial, Arial_MSFontService, sans-serif"
       font-size="18.4175px"
       x="217.528"
       y="538.90198"
       id="text217">0</text>
    <path
       d="m 248.114,489.781 h 2.307 c 0.123,0.615 0.184,1.222 0.184,1.819 0,0.616 -0.105,1.178 -0.316,1.688 -0.211,0.51 -0.547,1.017 -1.009,1.523 -0.461,0.505 -1.096,1.061 -1.905,1.667 l -0.712,-0.804 c 0.449,-0.422 0.774,-0.802 0.976,-1.14 0.202,-0.339 0.347,-0.723 0.435,-1.154 0.088,-0.431 0.132,-0.971 0.132,-1.621 0,-0.668 -0.031,-1.328 -0.092,-1.978 z"
       fill-rule="evenodd"
       id="path219" />
    <text
       fill="#000000"
       fill-opacity="0"
       font-family="Arial, Arial_MSFontService, sans-serif"
       font-size="6.69727px"
       x="246.66299"
       y="495.64099"
       id="text221">,</text>
    <path
       d="m 302.96,427.416 h 7.779 v 115.409 h -7.779 v -1.503 h 4.878 V 428.919 h -4.878 z m -43.66,0 h 7.778 v 1.503 H 262.2 v 112.403 h 4.878 v 1.503 H 259.3 Z"
       fill-rule="evenodd"
       id="path223" />
    <path
       d="m 269.498,438.617 h 16.242 v 1.754 h -16.242 z m 25.616,-9.611 c 1.635,0 2.87,0.359 3.705,1.075 0.835,0.716 1.252,1.755 1.252,3.118 0,0.466 -0.046,0.894 -0.138,1.285 -0.092,0.391 -0.237,0.778 -0.435,1.16 -0.198,0.383 -0.464,0.794 -0.798,1.233 -0.334,0.439 -0.703,0.885 -1.107,1.338 -0.404,0.453 -1.103,1.206 -2.096,2.261 -1.67,1.767 -2.896,3.309 -3.679,4.628 h 4.971 c 0.43,0 0.777,-0.027 1.041,-0.08 0.264,-0.052 0.475,-0.14 0.633,-0.263 0.158,-0.123 0.283,-0.284 0.376,-0.481 0.092,-0.198 0.208,-0.504 0.349,-0.917 h 1.121 l -0.224,3.85 h -10.851 v -0.633 c 0.378,-0.923 0.888,-1.868 1.53,-2.834 0.641,-0.967 1.551,-2.105 2.729,-3.415 1.019,-1.125 1.753,-1.977 2.201,-2.558 0.493,-0.632 0.86,-1.179 1.101,-1.641 0.242,-0.461 0.416,-0.896 0.521,-1.305 0.105,-0.409 0.158,-0.82 0.158,-1.233 0,-0.659 -0.105,-1.241 -0.316,-1.747 -0.211,-0.505 -0.534,-0.903 -0.969,-1.193 -0.435,-0.29 -0.982,-0.435 -1.642,-0.435 -1.643,0 -2.751,0.914 -3.322,2.742 h -1.595 v -2.531 c 1.063,-0.501 2.059,-0.863 2.986,-1.087 0.927,-0.225 1.76,-0.337 2.498,-0.337 z"
       fill-rule="evenodd"
       id="path225" />
    <text
       fill="#000000"
       fill-opacity="0"
       font-family="Arial, Arial_MSFontService, sans-serif"
       font-size="18.2065px"
       x="269.49799"
       y="444.93701"
       id="text227">2</text>
    <path
       d="m 285.062,460.266 c 0.993,0 1.863,0.154 2.61,0.462 0.747,0.307 1.318,0.749 1.714,1.325 0.395,0.575 0.593,1.263 0.593,2.063 0,0.747 -0.149,1.404 -0.448,1.971 -0.299,0.567 -0.719,1.061 -1.259,1.483 -0.541,0.422 -1.242,0.835 -2.103,1.239 v 0.119 c 0.536,0.097 1.052,0.261 1.549,0.494 0.497,0.233 0.938,0.534 1.325,0.903 0.387,0.37 0.697,0.811 0.929,1.325 0.233,0.515 0.35,1.101 0.35,1.76 0,1.02 -0.222,1.925 -0.666,2.716 -0.444,0.791 -1.123,1.415 -2.037,1.872 -0.914,0.457 -2.026,0.686 -3.335,0.686 -0.756,0 -1.571,-0.086 -2.446,-0.257 -0.874,-0.172 -1.676,-0.398 -2.406,-0.679 v -2.795 h 1.582 c 0.308,0.914 0.714,1.578 1.22,1.991 0.505,0.413 1.193,0.619 2.063,0.619 1.143,0 2.006,-0.312 2.591,-0.936 0.584,-0.624 0.876,-1.547 0.876,-2.768 0,-1.284 -0.386,-2.264 -1.16,-2.94 -0.773,-0.677 -1.907,-1.015 -3.401,-1.015 h -1.187 v -1.161 c 1.187,-0.07 2.186,-0.298 2.999,-0.685 0.813,-0.387 1.418,-0.883 1.813,-1.49 0.396,-0.606 0.593,-1.287 0.593,-2.043 0,-0.976 -0.259,-1.727 -0.777,-2.255 -0.519,-0.527 -1.275,-0.791 -2.268,-0.791 -0.826,0 -1.498,0.224 -2.017,0.673 -0.519,0.448 -0.901,1.133 -1.147,2.056 h -1.582 v -2.505 c 1.019,-0.483 1.973,-0.843 2.861,-1.081 0.887,-0.237 1.744,-0.356 2.571,-0.356 z"
       fill-rule="evenodd"
       id="path229" />
    <text
       fill="#000000"
       fill-opacity="0"
       font-family="Arial, Arial_MSFontService, sans-serif"
       font-size="18.4175px"
       x="279.43201"
       y="476.38199"
       id="text231">3</text>
    <path
       d="m 285.009,492.647 c -0.607,0 -1.114,0.18 -1.523,0.541 -0.409,0.36 -0.738,0.878 -0.989,1.555 -0.25,0.677 -0.428,1.501 -0.534,2.472 -0.105,0.971 -0.158,2.068 -0.158,3.289 0,2.866 0.266,4.968 0.798,6.309 0.532,1.34 1.356,2.01 2.472,2.01 1.063,0 1.852,-0.63 2.366,-1.892 0.514,-1.261 0.771,-3.214 0.771,-5.86 0,-2.021 -0.131,-3.658 -0.395,-4.911 -0.264,-1.252 -0.631,-2.151 -1.101,-2.696 -0.47,-0.545 -1.039,-0.817 -1.707,-0.817 z m 0.066,-1.121 c 1.925,0 3.357,0.743 4.298,2.228 0.94,1.486 1.41,3.731 1.41,6.737 0,3.112 -0.503,5.465 -1.509,7.06 -1.007,1.595 -2.477,2.393 -4.41,2.393 -1.899,0 -3.311,-0.747 -4.239,-2.241 -0.927,-1.495 -1.391,-3.762 -1.391,-6.803 0,-1.617 0.143,-3.015 0.429,-4.192 0.286,-1.178 0.685,-2.152 1.2,-2.921 0.514,-0.769 1.131,-1.338 1.852,-1.707 0.721,-0.369 1.507,-0.554 2.36,-0.554 z"
       fill-rule="evenodd"
       id="path233" />
    <text
       fill="#000000"
       fill-opacity="0"
       font-family="Arial, Arial_MSFontService, sans-serif"
       font-size="18.4175px"
       x="279.23401"
       y="507.642"
       id="text235">0</text>
    <path
       d="m 285.009,523.907 c -0.607,0 -1.114,0.18 -1.523,0.541 -0.409,0.36 -0.738,0.878 -0.989,1.555 -0.25,0.677 -0.428,1.501 -0.534,2.472 -0.105,0.971 -0.158,2.068 -0.158,3.289 0,2.866 0.266,4.968 0.798,6.309 0.532,1.34 1.356,2.01 2.472,2.01 1.063,0 1.852,-0.63 2.366,-1.892 0.514,-1.261 0.771,-3.214 0.771,-5.86 0,-2.021 -0.131,-3.658 -0.395,-4.911 -0.264,-1.252 -0.631,-2.151 -1.101,-2.696 -0.47,-0.545 -1.039,-0.817 -1.707,-0.817 z m 0.066,-1.121 c 1.925,0 3.357,0.743 4.298,2.228 0.94,1.486 1.41,3.731 1.41,6.737 0,3.112 -0.503,5.465 -1.509,7.06 -1.007,1.595 -2.477,2.393 -4.41,2.393 -1.899,0 -3.311,-0.747 -4.239,-2.241 -0.927,-1.494 -1.391,-3.762 -1.391,-6.803 0,-1.617 0.143,-3.015 0.429,-4.192 0.286,-1.178 0.685,-2.152 1.2,-2.921 0.514,-0.769 1.131,-1.338 1.852,-1.707 0.721,-0.369 1.507,-0.554 2.36,-0.554 z"
       fill-rule="evenodd"
       id="path237" />
    <text
       fill="#000000"
       fill-opacity="0"
       font-family="Arial, Arial_MSFontService, sans-serif"
       font-size="18.4175px"
       x="279.23401"
       y="538.90198"
       id="text239">0</text>
    <path
       d="m 319.82,489.781 h 2.308 c 0.123,0.615 0.184,1.222 0.184,1.819 0,0.616 -0.105,1.178 -0.316,1.688 -0.211,0.51 -0.547,1.017 -1.009,1.523 -0.461,0.505 -1.096,1.061 -1.905,1.667 l -0.712,-0.804 c 0.448,-0.422 0.774,-0.802 0.976,-1.14 0.202,-0.339 0.347,-0.723 0.435,-1.154 0.088,-0.431 0.132,-0.971 0.132,-1.621 0,-0.668 -0.031,-1.328 -0.093,-1.978 z"
       fill-rule="evenodd"
       id="path241" />
    <text
       fill="#000000"
       fill-opacity="0"
       font-family="Arial, Arial_MSFontService, sans-serif"
       font-size="6.69727px"
       x="318.37"
       y="495.64099"
       id="text243">,</text>
    <path
       d="m 368,427.416 h 7.779 V 542.825 H 368 v -1.503 h 4.878 V 428.919 H 368 Z m -36.994,0 h 7.779 v 1.503 h -4.878 v 112.403 h 4.878 v 1.503 h -7.779 z"
       fill-rule="evenodd"
       id="path245" />
    <path
       d="m 353.382,430.234 c -0.606,0 -1.114,0.18 -1.523,0.54 -0.408,0.361 -0.738,0.879 -0.988,1.556 -0.251,0.677 -0.429,1.501 -0.534,2.472 -0.106,0.971 -0.158,2.067 -0.158,3.289 0,2.865 0.265,4.968 0.797,6.308 0.532,1.341 1.356,2.011 2.472,2.011 1.064,0 1.852,-0.631 2.367,-1.892 0.514,-1.261 0.771,-3.215 0.771,-5.86 0,-2.022 -0.132,-3.658 -0.396,-4.911 -0.263,-1.252 -0.63,-2.151 -1.101,-2.696 -0.47,-0.545 -1.039,-0.817 -1.707,-0.817 z m 0.066,-1.121 c 1.925,0 3.358,0.743 4.298,2.228 0.94,1.485 1.411,3.731 1.411,6.737 0,3.111 -0.504,5.464 -1.51,7.06 -1.006,1.595 -2.476,2.393 -4.41,2.393 -1.898,0 -3.311,-0.748 -4.238,-2.242 -0.928,-1.494 -1.391,-3.761 -1.391,-6.802 0,-1.618 0.143,-3.015 0.428,-4.193 0.286,-1.178 0.686,-2.151 1.2,-2.92 0.514,-0.769 1.132,-1.338 1.852,-1.707 0.721,-0.369 1.508,-0.554 2.36,-0.554 z"
       fill-rule="evenodd"
       id="path247" />
    <text
       fill="#000000"
       fill-opacity="0"
       font-family="Arial, Arial_MSFontService, sans-serif"
       font-size="18.4175px"
       x="347.608"
       y="445.228"
       id="text249">0</text>
    <path
       d="m 340.743,470.063 h 10.389 c 0.158,0 0.279,0.075 0.363,0.224 0.083,0.15 0.125,0.387 0.125,0.712 0,0.325 -0.042,0.563 -0.125,0.712 -0.084,0.149 -0.205,0.224 -0.363,0.224 h -10.389 c -0.167,0 -0.292,-0.075 -0.375,-0.224 -0.084,-0.149 -0.126,-0.387 -0.126,-0.712 0,-0.316 0.042,-0.551 0.126,-0.705 0.083,-0.154 0.208,-0.231 0.375,-0.231 z"
       fill-rule="evenodd"
       id="path251" />
    <text
       fill="#000000"
       fill-opacity="0"
       font-family="Arial, Arial_MSFontService, sans-serif"
       font-size="1.87207px"
       x="340.242"
       y="471.70099"
       id="text253"></text>
    <path
       d="m 360.049,469.799 c -0.651,0 -1.198,0.101 -1.641,0.304 -0.444,0.202 -0.805,0.474 -1.082,0.817 -0.276,0.343 -0.474,0.745 -0.593,1.206 -0.118,0.462 -0.178,0.956 -0.178,1.483 0,0.572 0.066,1.106 0.198,1.602 0.132,0.497 0.341,0.925 0.626,1.286 0.286,0.36 0.653,0.646 1.101,0.857 0.448,0.21 0.993,0.316 1.635,0.316 0.72,0 1.338,-0.147 1.852,-0.442 0.514,-0.294 0.905,-0.731 1.173,-1.311 0.268,-0.581 0.403,-1.266 0.403,-2.057 0,-0.844 -0.146,-1.571 -0.436,-2.182 -0.29,-0.611 -0.698,-1.077 -1.226,-1.397 -0.527,-0.321 -1.138,-0.482 -1.832,-0.482 z m 0.066,-8.305 c -1.108,0 -1.954,0.301 -2.538,0.903 -0.585,0.602 -0.877,1.457 -0.877,2.564 0,0.518 0.062,1.006 0.185,1.463 0.123,0.457 0.321,0.853 0.593,1.187 0.273,0.334 0.626,0.6 1.061,0.797 0.435,0.198 0.969,0.297 1.602,0.297 0.73,0 1.343,-0.143 1.839,-0.428 0.497,-0.286 0.866,-0.704 1.108,-1.253 0.241,-0.549 0.362,-1.184 0.362,-1.905 0,-0.791 -0.143,-1.461 -0.428,-2.01 -0.286,-0.55 -0.679,-0.956 -1.18,-1.22 -0.501,-0.264 -1.077,-0.395 -1.727,-0.395 z m 0.026,-1.121 c 1.266,0 2.329,0.178 3.191,0.534 0.861,0.356 1.509,0.87 1.944,1.542 0.435,0.673 0.653,1.479 0.653,2.42 0,0.966 -0.238,1.799 -0.712,2.498 -0.475,0.699 -1.209,1.268 -2.202,1.707 l 0.027,0.172 c 0.993,0.386 1.744,0.951 2.254,1.694 0.51,0.742 0.765,1.637 0.765,2.683 0,1.028 -0.247,1.933 -0.739,2.715 -0.492,0.783 -1.206,1.387 -2.142,1.813 -0.936,0.426 -2.028,0.64 -3.276,0.64 -1.169,0 -2.195,-0.196 -3.079,-0.587 -0.883,-0.391 -1.568,-0.963 -2.056,-1.714 -0.488,-0.751 -0.732,-1.637 -0.732,-2.657 0,-0.764 0.132,-1.428 0.396,-1.99 0.263,-0.563 0.608,-1.026 1.035,-1.391 0.426,-0.365 0.964,-0.697 1.615,-0.995 l -0.027,-0.172 c -1.889,-0.817 -2.834,-2.219 -2.834,-4.205 0,-0.906 0.248,-1.714 0.745,-2.426 0.496,-0.712 1.204,-1.27 2.122,-1.675 0.919,-0.404 1.936,-0.606 3.052,-0.606 z"
       fill-rule="evenodd"
       id="path255" />
    <text
       fill="#000000"
       fill-opacity="0"
       font-family="Arial, Arial_MSFontService, sans-serif"
       font-size="18.4175px"
       x="354.03699"
       y="476.48801"
       id="text257">8</text>
    <path
       d="m 348.122,491.844 h 11.311 v 0.633 l -7.672,17.455 h -1.912 v -0.646 l 7.106,-15.043 v -0.197 h -5.801 c -0.36,0 -0.648,0.033 -0.863,0.099 -0.216,0.065 -0.396,0.16 -0.541,0.283 -0.145,0.123 -0.266,0.286 -0.362,0.488 -0.097,0.202 -0.229,0.602 -0.396,1.199 h -1.134 z"
       fill-rule="evenodd"
       id="path259" />
    <text
       fill="#000000"
       fill-opacity="0"
       font-family="Arial, Arial_MSFontService, sans-serif"
       font-size="18.0879px"
       x="347.858"
       y="507.67099"
       id="text261">7</text>
    <path
       d="m 354.424,522.893 h 0.725 c -0.053,0.844 -0.079,2.013 -0.079,3.507 v 11.259 c 0,0.509 0.028,0.894 0.085,1.153 0.058,0.26 0.159,0.47 0.304,0.633 0.145,0.163 0.353,0.29 0.626,0.382 0.272,0.093 0.615,0.163 1.028,0.211 0.413,0.049 0.958,0.082 1.635,0.099 v 0.963 h -9.743 v -0.963 c 0.976,-0.044 1.672,-0.103 2.09,-0.178 0.417,-0.074 0.736,-0.187 0.956,-0.336 0.219,-0.149 0.38,-0.36 0.481,-0.633 0.101,-0.272 0.151,-0.716 0.151,-1.331 v -10.692 c 0,-0.352 -0.061,-0.609 -0.184,-0.771 -0.123,-0.163 -0.303,-0.244 -0.541,-0.244 -0.281,0 -0.681,0.145 -1.199,0.435 -0.519,0.29 -1.16,0.69 -1.925,1.199 l -0.58,-1.015 z"
       fill-rule="evenodd"
       id="path263" />
    <text
       fill="#000000"
       fill-opacity="0"
       font-family="Arial, Arial_MSFontService, sans-serif"
       font-size="18.2065px"
       x="348.254"
       y="538.82397"
       id="text265">1</text>
    <path
       d="m 379.57,427.113 c 2.962,0.483 5.563,2.777 7.805,6.882 2.25,4.095 3.375,9.681 3.375,16.756 0,1.292 -0.084,2.874 -0.251,4.746 -0.167,1.872 -0.417,4.052 -0.751,6.539 -0.659,4.948 -0.989,8.499 -0.989,10.652 0,3.876 0.514,6.777 1.542,8.702 1.046,1.924 2.488,2.918 4.325,2.979 v 1.503 c -1.837,0.062 -3.279,1.059 -4.325,2.993 -1.028,1.916 -1.542,4.812 -1.542,8.688 0,2.162 0.33,5.713 0.989,10.652 0.334,2.487 0.584,4.667 0.751,6.539 0.167,1.872 0.251,3.454 0.251,4.746 0,7.075 -1.125,12.661 -3.375,16.756 -2.242,4.105 -4.843,6.399 -7.805,6.882 v -1.384 c 2.496,-0.729 4.487,-2.9 5.972,-6.513 1.503,-3.621 2.255,-8.402 2.255,-14.343 0,-3.015 -0.304,-6.891 -0.91,-11.628 -0.607,-4.729 -0.91,-7.915 -0.91,-9.558 0,-3.534 0.514,-6.614 1.543,-9.242 1.037,-2.619 2.443,-4.338 4.218,-5.155 v -0.369 c -1.775,-0.817 -3.181,-2.536 -4.218,-5.155 -1.029,-2.619 -1.543,-5.7 -1.543,-9.242 0,-1.634 0.303,-4.82 0.91,-9.558 0.606,-4.728 0.91,-8.604 0.91,-11.628 0,-5.932 -0.752,-10.713 -2.255,-14.343 -1.485,-3.613 -3.476,-5.784 -5.972,-6.513 z"
       fill-rule="evenodd"
       id="path267" />
    <text
       fill="#000000"
       fill-opacity="0"
       font-family="Arial, Arial_MSFontService, sans-serif"
       font-size="116.016px"
       x="379.57001"
       y="528.62598"
       id="text269"></text>
    <text
       font-family="Calibri, Calibri_MSFontService, sans-serif"
       font-weight="400"
       font-size="27px"
       transform="translate(401.86,493)"
       id="text273">is a basis for Col A. <tspan
   font-size="27px"
   x="-323.254"
   y="135"
   id="tspan271">Note that</tspan></text>
    <path
       d="m 215.073,562.082 h 7.779 v 115.409 h -7.779 v -1.502 h 4.878 V 563.585 h -4.878 z m -23.661,0 h 7.779 v 1.503 h -4.878 v 112.404 h 4.878 v 1.502 h -7.779 z"
       fill-rule="evenodd"
       id="path275" />
    <path
       d="m 208.163,563.673 h 0.725 c -0.052,0.843 -0.079,2.012 -0.079,3.507 v 11.258 c 0,0.51 0.029,0.895 0.086,1.154 0.057,0.259 0.158,0.47 0.303,0.633 0.145,0.162 0.354,0.29 0.626,0.382 0.273,0.092 0.616,0.163 1.029,0.211 0.413,0.048 0.958,0.081 1.634,0.099 v 0.962 h -9.742 v -0.962 c 0.975,-0.044 1.672,-0.103 2.089,-0.178 0.418,-0.075 0.736,-0.187 0.956,-0.336 0.22,-0.15 0.38,-0.361 0.481,-0.633 0.101,-0.273 0.152,-0.716 0.152,-1.332 v -10.692 c 0,-0.351 -0.062,-0.608 -0.185,-0.771 -0.123,-0.162 -0.303,-0.244 -0.54,-0.244 -0.281,0 -0.681,0.145 -1.2,0.435 -0.518,0.29 -1.16,0.69 -1.925,1.2 l -0.58,-1.015 z"
       fill-rule="evenodd"
       id="path277" />
    <text
       fill="#000000"
       fill-opacity="0"
       font-family="Arial, Arial_MSFontService, sans-serif"
       font-size="18.2065px"
       x="201.993"
       y="579.60303"
       id="text279">1</text>
    <path
       d="m 207.122,596.053 c -0.607,0 -1.114,0.181 -1.523,0.541 -0.409,0.36 -0.738,0.879 -0.989,1.556 -0.25,0.676 -0.428,1.5 -0.534,2.471 -0.105,0.972 -0.158,2.068 -0.158,3.29 0,2.865 0.266,4.968 0.798,6.308 0.531,1.34 1.355,2.011 2.472,2.011 1.063,0 1.852,-0.631 2.366,-1.892 0.514,-1.261 0.771,-3.215 0.771,-5.86 0,-2.022 -0.132,-3.659 -0.395,-4.911 -0.264,-1.253 -0.631,-2.151 -1.101,-2.696 -0.47,-0.545 -1.039,-0.818 -1.707,-0.818 z m 0.066,-1.12 c 1.924,0 3.357,0.742 4.297,2.228 0.941,1.485 1.411,3.731 1.411,6.737 0,3.111 -0.503,5.464 -1.509,7.059 -1.007,1.596 -2.477,2.393 -4.41,2.393 -1.899,0 -3.312,-0.747 -4.239,-2.241 -0.927,-1.494 -1.391,-3.762 -1.391,-6.803 0,-1.617 0.143,-3.014 0.429,-4.192 0.285,-1.178 0.685,-2.151 1.199,-2.92 0.515,-0.769 1.132,-1.338 1.853,-1.708 0.72,-0.369 1.507,-0.553 2.36,-0.553 z"
       fill-rule="evenodd"
       id="path281" />
    <text
       fill="#000000"
       fill-opacity="0"
       font-family="Arial, Arial_MSFontService, sans-serif"
       font-size="18.4175px"
       x="201.347"
       y="611.04797"
       id="text283">0</text>
    <path
       d="m 207.122,627.313 c -0.607,0 -1.114,0.181 -1.523,0.541 -0.409,0.36 -0.738,0.879 -0.989,1.556 -0.25,0.676 -0.428,1.5 -0.534,2.471 -0.105,0.972 -0.158,2.068 -0.158,3.29 0,2.865 0.266,4.968 0.798,6.308 0.531,1.34 1.355,2.011 2.472,2.011 1.063,0 1.852,-0.631 2.366,-1.892 0.514,-1.261 0.771,-3.215 0.771,-5.86 0,-2.022 -0.132,-3.659 -0.395,-4.911 -0.264,-1.253 -0.631,-2.151 -1.101,-2.696 -0.47,-0.545 -1.039,-0.818 -1.707,-0.818 z m 0.066,-1.12 c 1.924,0 3.357,0.742 4.297,2.228 0.941,1.485 1.411,3.731 1.411,6.737 0,3.111 -0.503,5.464 -1.509,7.059 -1.007,1.596 -2.477,2.393 -4.41,2.393 -1.899,0 -3.312,-0.747 -4.239,-2.241 -0.927,-1.494 -1.391,-3.762 -1.391,-6.803 0,-1.617 0.143,-3.014 0.429,-4.192 0.285,-1.178 0.685,-2.151 1.199,-2.92 0.515,-0.769 1.132,-1.338 1.853,-1.708 0.72,-0.369 1.507,-0.553 2.36,-0.553 z"
       fill-rule="evenodd"
       id="path285" />
    <text
       fill="#000000"
       fill-opacity="0"
       font-family="Arial, Arial_MSFontService, sans-serif"
       font-size="18.4175px"
       x="201.347"
       y="642.30798"
       id="text287">0</text>
    <path
       d="m 207.122,658.573 c -0.607,0 -1.114,0.18 -1.523,0.541 -0.409,0.36 -0.738,0.879 -0.989,1.555 -0.25,0.677 -0.428,1.501 -0.534,2.472 -0.105,0.972 -0.158,2.068 -0.158,3.29 0,2.865 0.266,4.968 0.798,6.308 0.531,1.34 1.355,2.011 2.472,2.011 1.063,0 1.852,-0.631 2.366,-1.892 0.514,-1.262 0.771,-3.215 0.771,-5.86 0,-2.022 -0.132,-3.659 -0.395,-4.911 -0.264,-1.253 -0.631,-2.151 -1.101,-2.696 -0.47,-0.545 -1.039,-0.818 -1.707,-0.818 z m 0.066,-1.12 c 1.924,0 3.357,0.742 4.297,2.228 0.941,1.485 1.411,3.731 1.411,6.737 0,3.111 -0.503,5.464 -1.509,7.059 -1.007,1.596 -2.477,2.393 -4.41,2.393 -1.899,0 -3.312,-0.747 -4.239,-2.241 -0.927,-1.494 -1.391,-3.762 -1.391,-6.803 0,-1.617 0.143,-3.014 0.429,-4.192 0.285,-1.178 0.685,-2.151 1.199,-2.92 0.515,-0.769 1.132,-1.338 1.853,-1.708 0.72,-0.369 1.507,-0.553 2.36,-0.553 z"
       fill-rule="evenodd"
       id="path289" />
    <text
       fill="#000000"
       fill-opacity="0"
       font-family="Arial, Arial_MSFontService, sans-serif"
       font-size="18.4175px"
       x="201.347"
       y="673.56799"
       id="text291">0</text>
    <text
       font-family="Calibri, Calibri_MSFontService, sans-serif"
       font-weight="400"
       font-size="27px"
       transform="translate(231.72,628)"
       id="text293">from matrix B is not in Span</text>
    <path
       d="m 554.052,561.779 v 1.384 c -2.487,0.721 -4.48,2.892 -5.978,6.513 -1.499,3.621 -2.248,8.402 -2.248,14.344 0,3.014 0.303,6.89 0.91,11.628 0.606,4.737 0.909,7.923 0.909,9.558 0,3.542 -0.516,6.622 -1.549,9.242 -1.033,2.619 -2.437,4.337 -4.212,5.154 v 0.369 c 1.775,0.818 3.179,2.536 4.212,5.155 1.033,2.619 1.549,5.7 1.549,9.242 0,1.635 -0.303,4.821 -0.909,9.558 -0.607,4.737 -0.91,8.613 -0.91,11.628 0,5.941 0.749,10.723 2.248,14.344 1.498,3.621 3.491,5.792 5.978,6.512 v 1.385 c -2.961,-0.493 -5.565,-2.786 -7.811,-6.882 -2.245,-4.096 -3.368,-9.681 -3.368,-16.757 0,-2.575 0.332,-6.334 0.995,-11.278 0.664,-4.944 0.996,-8.497 0.996,-10.659 0,-3.876 -0.517,-6.774 -1.55,-8.695 -1.032,-1.92 -2.471,-2.915 -4.317,-2.986 v -1.503 c 1.846,-0.07 3.285,-1.065 4.317,-2.986 1.033,-1.92 1.55,-4.818 1.55,-8.694 0,-2.162 -0.332,-5.715 -0.996,-10.659 -0.663,-4.944 -0.995,-8.704 -0.995,-11.279 0,-7.075 1.123,-12.66 3.368,-16.756 2.246,-4.096 4.85,-6.39 7.811,-6.882 z"
       fill-rule="evenodd"
       id="path295" />
    <text
       fill="#000000"
       fill-opacity="0"
       font-family="Arial, Arial_MSFontService, sans-serif"
       font-size="116.016px"
       x="538.99701"
       y="663.29303"
       id="text297"></text>
    <path
       d="m 581.427,562.082 h 7.778 v 115.409 h -7.778 v -1.502 h 4.878 V 563.585 h -4.878 z m -23.661,0 h 7.778 v 1.503 h -4.878 v 112.404 h 4.878 v 1.502 h -7.778 z"
       fill-rule="evenodd"
       id="path299" />
    <path
       d="m 573.475,564.793 c -0.606,0 -1.114,0.181 -1.523,0.541 -0.408,0.36 -0.738,0.879 -0.988,1.556 -0.251,0.676 -0.429,1.5 -0.534,2.471 -0.106,0.972 -0.159,2.068 -0.159,3.29 0,2.865 0.266,4.968 0.798,6.308 0.532,1.34 1.356,2.011 2.472,2.011 1.063,0 1.852,-0.631 2.366,-1.892 0.515,-1.261 0.772,-3.215 0.772,-5.86 0,-2.022 -0.132,-3.659 -0.396,-4.911 -0.264,-1.253 -0.63,-2.151 -1.101,-2.696 -0.47,-0.545 -1.039,-0.818 -1.707,-0.818 z m 0.066,-1.12 c 1.925,0 3.357,0.742 4.298,2.228 0.94,1.485 1.41,3.731 1.41,6.737 0,3.111 -0.503,5.464 -1.509,7.059 -1.006,1.596 -2.476,2.393 -4.41,2.393 -1.898,0 -3.311,-0.747 -4.239,-2.241 -0.927,-1.494 -1.39,-3.762 -1.39,-6.803 0,-1.617 0.142,-3.014 0.428,-4.192 0.286,-1.178 0.686,-2.151 1.2,-2.92 0.514,-0.769 1.131,-1.338 1.852,-1.708 0.721,-0.369 1.507,-0.553 2.36,-0.553 z"
       fill-rule="evenodd"
       id="path301" />
    <text
       fill="#000000"
       fill-opacity="0"
       font-family="Arial, Arial_MSFontService, sans-serif"
       font-size="18.4175px"
       x="567.70099"
       y="579.78802"
       id="text303">0</text>
    <path
       d="m 574.517,594.933 h 0.725 c -0.053,0.843 -0.079,2.012 -0.079,3.507 v 11.258 c 0,0.51 0.028,0.895 0.085,1.154 0.057,0.259 0.158,0.47 0.303,0.633 0.145,0.162 0.354,0.29 0.627,0.382 0.272,0.092 0.615,0.163 1.028,0.211 0.413,0.048 0.958,0.081 1.635,0.099 v 0.962 h -9.743 v -0.962 c 0.976,-0.044 1.672,-0.103 2.09,-0.178 0.417,-0.075 0.736,-0.187 0.955,-0.336 0.22,-0.15 0.381,-0.361 0.482,-0.633 0.101,-0.273 0.151,-0.716 0.151,-1.332 v -10.692 c 0,-0.351 -0.061,-0.608 -0.184,-0.771 -0.123,-0.162 -0.303,-0.244 -0.541,-0.244 -0.281,0 -0.681,0.145 -1.199,0.435 -0.519,0.29 -1.161,0.69 -1.925,1.2 l -0.58,-1.015 z"
       fill-rule="evenodd"
       id="path305" />
    <text
       fill="#000000"
       fill-opacity="0"
       font-family="Arial, Arial_MSFontService, sans-serif"
       font-size="18.2065px"
       x="568.34698"
       y="610.86298"
       id="text307">1</text>
    <path
       d="m 573.475,627.313 c -0.606,0 -1.114,0.181 -1.523,0.541 -0.408,0.36 -0.738,0.879 -0.988,1.556 -0.251,0.676 -0.429,1.5 -0.534,2.471 -0.106,0.972 -0.159,2.068 -0.159,3.29 0,2.865 0.266,4.968 0.798,6.308 0.532,1.34 1.356,2.011 2.472,2.011 1.063,0 1.852,-0.631 2.366,-1.892 0.515,-1.261 0.772,-3.215 0.772,-5.86 0,-2.022 -0.132,-3.659 -0.396,-4.911 -0.264,-1.253 -0.63,-2.151 -1.101,-2.696 -0.47,-0.545 -1.039,-0.818 -1.707,-0.818 z m 0.066,-1.12 c 1.925,0 3.357,0.742 4.298,2.228 0.94,1.485 1.41,3.731 1.41,6.737 0,3.111 -0.503,5.464 -1.509,7.059 -1.006,1.596 -2.476,2.393 -4.41,2.393 -1.898,0 -3.311,-0.747 -4.239,-2.241 -0.927,-1.494 -1.39,-3.762 -1.39,-6.803 0,-1.617 0.142,-3.014 0.428,-4.192 0.286,-1.178 0.686,-2.151 1.2,-2.92 0.514,-0.769 1.131,-1.338 1.852,-1.708 0.721,-0.369 1.507,-0.553 2.36,-0.553 z"
       fill-rule="evenodd"
       id="path309" />
    <text
       fill="#000000"
       fill-opacity="0"
       font-family="Arial, Arial_MSFontService, sans-serif"
       font-size="18.4175px"
       x="567.70099"
       y="642.30798"
       id="text311">0</text>
    <path
       d="m 573.475,658.573 c -0.606,0 -1.114,0.18 -1.523,0.541 -0.408,0.36 -0.738,0.879 -0.988,1.555 -0.251,0.677 -0.429,1.501 -0.534,2.472 -0.106,0.972 -0.159,2.068 -0.159,3.29 0,2.865 0.266,4.968 0.798,6.308 0.532,1.34 1.356,2.011 2.472,2.011 1.063,0 1.852,-0.631 2.366,-1.892 0.515,-1.262 0.772,-3.215 0.772,-5.86 0,-2.022 -0.132,-3.659 -0.396,-4.911 -0.264,-1.253 -0.63,-2.151 -1.101,-2.696 -0.47,-0.545 -1.039,-0.818 -1.707,-0.818 z m 0.066,-1.12 c 1.925,0 3.357,0.742 4.298,2.228 0.94,1.485 1.41,3.731 1.41,6.737 0,3.111 -0.503,5.464 -1.509,7.059 -1.006,1.596 -2.476,2.393 -4.41,2.393 -1.898,0 -3.311,-0.747 -4.239,-2.241 -0.927,-1.494 -1.39,-3.762 -1.39,-6.803 0,-1.617 0.142,-3.014 0.428,-4.192 0.286,-1.178 0.686,-2.151 1.2,-2.92 0.514,-0.769 1.131,-1.338 1.852,-1.708 0.721,-0.369 1.507,-0.553 2.36,-0.553 z"
       fill-rule="evenodd"
       id="path313" />
    <text
       fill="#000000"
       fill-opacity="0"
       font-family="Arial, Arial_MSFontService, sans-serif"
       font-size="18.4175px"
       x="567.70099"
       y="673.56799"
       id="text315">0</text>
    <path
       d="m 598.287,624.447 h 2.307 c 0.123,0.616 0.184,1.222 0.184,1.82 0,0.615 -0.105,1.177 -0.316,1.687 -0.211,0.51 -0.547,1.017 -1.009,1.523 -0.461,0.505 -1.096,1.061 -1.905,1.668 l -0.712,-0.805 c 0.449,-0.421 0.774,-0.802 0.976,-1.14 0.202,-0.338 0.347,-0.723 0.435,-1.154 0.088,-0.43 0.132,-0.971 0.132,-1.621 0,-0.668 -0.031,-1.327 -0.092,-1.978 z"
       fill-rule="evenodd"
       id="path317" />
    <text
       fill="#000000"
       fill-opacity="0"
       font-family="Arial, Arial_MSFontService, sans-serif"
       font-size="6.69727px"
       x="596.836"
       y="630.30701"
       id="text319">,</text>
    <path
       d="m 653.133,562.082 h 7.779 v 115.409 h -7.779 v -1.502 h 4.878 V 563.585 h -4.878 z m -43.661,0 h 7.779 v 1.503 h -4.878 v 112.404 h 4.878 v 1.502 h -7.779 z"
       fill-rule="evenodd"
       id="path321" />
    <path
       d="m 619.671,573.284 h 16.242 v 1.753 h -16.242 z m 25.616,-9.611 c 1.635,0 2.87,0.358 3.705,1.074 0.835,0.717 1.252,1.756 1.252,3.118 0,0.466 -0.046,0.894 -0.138,1.286 -0.093,0.391 -0.238,0.777 -0.435,1.16 -0.198,0.382 -0.464,0.793 -0.798,1.232 -0.334,0.44 -0.703,0.886 -1.107,1.338 -0.405,0.453 -1.103,1.207 -2.097,2.261 -1.669,1.767 -2.896,3.31 -3.678,4.628 h 4.97 c 0.431,0 0.778,-0.026 1.042,-0.079 0.264,-0.053 0.475,-0.141 0.633,-0.264 0.158,-0.123 0.283,-0.283 0.376,-0.481 0.092,-0.198 0.208,-0.503 0.349,-0.916 h 1.121 l -0.225,3.849 h -10.85 v -0.633 c 0.378,-0.922 0.888,-1.867 1.53,-2.834 0.641,-0.967 1.551,-2.105 2.729,-3.415 1.019,-1.125 1.753,-1.977 2.201,-2.557 0.492,-0.633 0.859,-1.18 1.101,-1.642 0.242,-0.461 0.415,-0.896 0.521,-1.305 0.105,-0.408 0.158,-0.819 0.158,-1.232 0,-0.66 -0.105,-1.242 -0.316,-1.747 -0.211,-0.506 -0.534,-0.903 -0.969,-1.193 -0.435,-0.29 -0.983,-0.435 -1.642,-0.435 -1.643,0 -2.751,0.914 -3.322,2.742 h -1.595 v -2.531 c 1.063,-0.501 2.059,-0.864 2.986,-1.088 0.927,-0.224 1.76,-0.336 2.498,-0.336 z"
       fill-rule="evenodd"
       id="path323" />
    <text
       fill="#000000"
       fill-opacity="0"
       font-family="Arial, Arial_MSFontService, sans-serif"
       font-size="18.2065px"
       x="619.67102"
       y="579.60303"
       id="text325">2</text>
    <path
       d="m 635.234,594.933 c 0.994,0 1.864,0.154 2.611,0.461 0.747,0.308 1.318,0.749 1.714,1.325 0.395,0.576 0.593,1.264 0.593,2.063 0,0.747 -0.149,1.404 -0.448,1.971 -0.299,0.567 -0.719,1.062 -1.259,1.483 -0.541,0.422 -1.242,0.835 -2.103,1.24 v 0.118 c 0.536,0.097 1.052,0.262 1.549,0.495 0.497,0.233 0.938,0.534 1.325,0.903 0.387,0.369 0.696,0.811 0.929,1.325 0.233,0.514 0.35,1.101 0.35,1.76 0,1.019 -0.222,1.925 -0.666,2.716 -0.444,0.791 -1.123,1.415 -2.037,1.872 -0.914,0.457 -2.026,0.685 -3.335,0.685 -0.756,0 -1.571,-0.085 -2.446,-0.257 -0.874,-0.171 -1.676,-0.398 -2.406,-0.679 v -2.795 h 1.582 c 0.308,0.914 0.714,1.578 1.22,1.991 0.505,0.413 1.193,0.62 2.063,0.62 1.142,0 2.006,-0.312 2.59,-0.936 0.585,-0.624 0.877,-1.547 0.877,-2.769 0,-1.283 -0.387,-2.263 -1.16,-2.94 -0.774,-0.677 -1.907,-1.015 -3.401,-1.015 h -1.187 v -1.16 c 1.187,-0.071 2.186,-0.299 2.999,-0.686 0.813,-0.386 1.418,-0.883 1.813,-1.49 0.396,-0.606 0.593,-1.287 0.593,-2.043 0,-0.976 -0.259,-1.727 -0.778,-2.254 -0.518,-0.528 -1.274,-0.791 -2.267,-0.791 -0.826,0 -1.499,0.224 -2.017,0.672 -0.519,0.448 -0.901,1.134 -1.147,2.057 h -1.582 v -2.505 c 1.019,-0.484 1.973,-0.844 2.861,-1.081 0.887,-0.238 1.744,-0.356 2.57,-0.356 z"
       fill-rule="evenodd"
       id="path327" />
    <text
       fill="#000000"
       fill-opacity="0"
       font-family="Arial, Arial_MSFontService, sans-serif"
       font-size="18.4175px"
       x="629.60498"
       y="611.04797"
       id="text329">3</text>
    <path
       d="m 635.182,627.313 c -0.607,0 -1.114,0.181 -1.523,0.541 -0.409,0.36 -0.738,0.879 -0.989,1.556 -0.25,0.676 -0.428,1.5 -0.534,2.471 -0.105,0.972 -0.158,2.068 -0.158,3.29 0,2.865 0.266,4.968 0.798,6.308 0.531,1.34 1.355,2.011 2.472,2.011 1.063,0 1.852,-0.631 2.366,-1.892 0.514,-1.261 0.771,-3.215 0.771,-5.86 0,-2.022 -0.132,-3.659 -0.395,-4.911 -0.264,-1.253 -0.631,-2.151 -1.101,-2.696 -0.47,-0.545 -1.039,-0.818 -1.707,-0.818 z m 0.066,-1.12 c 1.924,0 3.357,0.742 4.297,2.228 0.941,1.485 1.411,3.731 1.411,6.737 0,3.111 -0.503,5.464 -1.509,7.059 -1.007,1.596 -2.477,2.393 -4.41,2.393 -1.899,0 -3.312,-0.747 -4.239,-2.241 -0.927,-1.494 -1.391,-3.762 -1.391,-6.803 0,-1.617 0.143,-3.014 0.429,-4.192 0.285,-1.178 0.685,-2.151 1.199,-2.92 0.515,-0.769 1.132,-1.338 1.853,-1.708 0.72,-0.369 1.507,-0.553 2.36,-0.553 z"
       fill-rule="evenodd"
       id="path331" />
    <text
       fill="#000000"
       fill-opacity="0"
       font-family="Arial, Arial_MSFontService, sans-serif"
       font-size="18.4175px"
       x="629.40698"
       y="642.30798"
       id="text333">0</text>
    <path
       d="m 635.182,658.573 c -0.607,0 -1.114,0.18 -1.523,0.541 -0.409,0.36 -0.738,0.879 -0.989,1.555 -0.25,0.677 -0.428,1.501 -0.534,2.472 -0.105,0.972 -0.158,2.068 -0.158,3.29 0,2.865 0.266,4.968 0.798,6.308 0.531,1.34 1.355,2.011 2.472,2.011 1.063,0 1.852,-0.631 2.366,-1.892 0.514,-1.262 0.771,-3.215 0.771,-5.86 0,-2.022 -0.132,-3.659 -0.395,-4.911 -0.264,-1.253 -0.631,-2.151 -1.101,-2.696 -0.47,-0.545 -1.039,-0.818 -1.707,-0.818 z m 0.066,-1.12 c 1.924,0 3.357,0.742 4.297,2.228 0.941,1.485 1.411,3.731 1.411,6.737 0,3.111 -0.503,5.464 -1.509,7.059 -1.007,1.596 -2.477,2.393 -4.41,2.393 -1.899,0 -3.312,-0.747 -4.239,-2.241 -0.927,-1.494 -1.391,-3.762 -1.391,-6.803 0,-1.617 0.143,-3.014 0.429,-4.192 0.285,-1.178 0.685,-2.151 1.199,-2.92 0.515,-0.769 1.132,-1.338 1.853,-1.708 0.72,-0.369 1.507,-0.553 2.36,-0.553 z"
       fill-rule="evenodd"
       id="path335" />
    <text
       fill="#000000"
       fill-opacity="0"
       font-family="Arial, Arial_MSFontService, sans-serif"
       font-size="18.4175px"
       x="629.40698"
       y="673.56799"
       id="text337">0</text>
    <path
       d="m 669.993,624.447 h 2.307 c 0.123,0.616 0.185,1.222 0.185,1.82 0,0.615 -0.106,1.177 -0.316,1.687 -0.211,0.51 -0.548,1.017 -1.009,1.523 -0.461,0.505 -1.096,1.061 -1.905,1.668 l -0.712,-0.805 c 0.448,-0.421 0.773,-0.802 0.976,-1.14 0.202,-0.338 0.347,-0.723 0.435,-1.154 0.088,-0.43 0.132,-0.971 0.132,-1.621 0,-0.668 -0.031,-1.327 -0.093,-1.978 z"
       fill-rule="evenodd"
       id="path339" />
    <text
       fill="#000000"
       fill-opacity="0"
       font-family="Arial, Arial_MSFontService, sans-serif"
       font-size="6.69727px"
       x="668.54303"
       y="630.30701"
       id="text341">,</text>
    <path
       d="m 718.173,562.082 h 7.779 v 115.409 h -7.779 v -1.502 h 4.878 V 563.585 h -4.878 z m -36.994,0 h 7.779 v 1.503 h -4.878 v 112.404 h 4.878 v 1.502 h -7.779 z"
       fill-rule="evenodd"
       id="path343" />
    <path
       d="m 703.555,564.9 c -0.606,0 -1.114,0.18 -1.523,0.541 -0.408,0.36 -0.738,0.878 -0.988,1.555 -0.251,0.677 -0.429,1.501 -0.534,2.472 -0.106,0.971 -0.159,2.068 -0.159,3.289 0,2.866 0.266,4.968 0.798,6.309 0.532,1.34 1.356,2.01 2.472,2.01 1.063,0 1.852,-0.63 2.366,-1.892 0.515,-1.261 0.772,-3.214 0.772,-5.86 0,-2.021 -0.132,-3.658 -0.396,-4.911 -0.264,-1.252 -0.63,-2.151 -1.101,-2.696 -0.47,-0.545 -1.039,-0.817 -1.707,-0.817 z m 0.066,-1.121 c 1.925,0 3.357,0.743 4.298,2.228 0.94,1.486 1.41,3.731 1.41,6.737 0,3.112 -0.503,5.465 -1.509,7.06 -1.006,1.595 -2.476,2.393 -4.41,2.393 -1.898,0 -3.311,-0.747 -4.238,-2.241 -0.928,-1.494 -1.391,-3.762 -1.391,-6.803 0,-1.617 0.142,-3.015 0.428,-4.192 0.286,-1.178 0.686,-2.152 1.2,-2.921 0.514,-0.769 1.131,-1.338 1.852,-1.707 0.721,-0.369 1.507,-0.554 2.36,-0.554 z"
       fill-rule="evenodd"
       id="path345" />
    <text
       fill="#000000"
       fill-opacity="0"
       font-family="Arial, Arial_MSFontService, sans-serif"
       font-size="18.4175px"
       x="697.78101"
       y="579.89502"
       id="text347">0</text>
    <path
       d="m 690.916,604.729 h 10.389 c 0.158,0 0.279,0.075 0.362,0.224 0.084,0.15 0.126,0.387 0.126,0.712 0,0.326 -0.042,0.563 -0.126,0.712 -0.083,0.15 -0.204,0.224 -0.362,0.224 h -10.389 c -0.167,0 -0.292,-0.074 -0.376,-0.224 -0.083,-0.149 -0.125,-0.386 -0.125,-0.712 0,-0.316 0.042,-0.551 0.125,-0.705 0.084,-0.154 0.209,-0.231 0.376,-0.231 z"
       fill-rule="evenodd"
       id="path349" />
    <text
       fill="#000000"
       fill-opacity="0"
       font-family="Arial, Arial_MSFontService, sans-serif"
       font-size="1.87207px"
       x="690.41498"
       y="606.367"
       id="text351"></text>
    <path
       d="m 710.222,604.466 c -0.651,0 -1.198,0.101 -1.642,0.303 -0.443,0.202 -0.804,0.474 -1.081,0.817 -0.277,0.343 -0.474,0.745 -0.593,1.207 -0.119,0.461 -0.178,0.955 -0.178,1.483 0,0.571 0.066,1.105 0.198,1.602 0.132,0.496 0.34,0.925 0.626,1.285 0.286,0.36 0.653,0.646 1.101,0.857 0.448,0.211 0.993,0.316 1.635,0.316 0.72,0 1.338,-0.147 1.852,-0.441 0.514,-0.295 0.905,-0.732 1.173,-1.312 0.268,-0.58 0.402,-1.266 0.402,-2.057 0,-0.844 -0.145,-1.571 -0.435,-2.182 -0.29,-0.611 -0.698,-1.076 -1.226,-1.397 -0.527,-0.321 -1.138,-0.481 -1.832,-0.481 z m 0.066,-8.306 c -1.108,0 -1.954,0.301 -2.538,0.903 -0.585,0.602 -0.877,1.457 -0.877,2.564 0,0.519 0.062,1.007 0.185,1.464 0.123,0.457 0.32,0.852 0.593,1.186 0.272,0.334 0.626,0.6 1.061,0.798 0.435,0.198 0.969,0.296 1.602,0.296 0.73,0 1.343,-0.142 1.839,-0.428 0.497,-0.286 0.866,-0.703 1.108,-1.253 0.241,-0.549 0.362,-1.184 0.362,-1.905 0,-0.791 -0.143,-1.461 -0.428,-2.01 -0.286,-0.549 -0.679,-0.956 -1.18,-1.22 -0.501,-0.263 -1.077,-0.395 -1.727,-0.395 z m 0.026,-1.121 c 1.266,0 2.329,0.178 3.19,0.534 0.862,0.356 1.51,0.87 1.945,1.543 0.435,0.672 0.653,1.479 0.653,2.419 0,0.967 -0.238,1.8 -0.712,2.498 -0.475,0.699 -1.209,1.268 -2.202,1.708 l 0.026,0.171 c 0.994,0.387 1.745,0.951 2.255,1.694 0.51,0.743 0.764,1.637 0.764,2.683 0,1.028 -0.246,1.933 -0.738,2.716 -0.492,0.782 -1.206,1.386 -2.142,1.812 -0.936,0.427 -2.028,0.64 -3.276,0.64 -1.169,0 -2.195,-0.196 -3.079,-0.587 -0.883,-0.391 -1.568,-0.962 -2.056,-1.714 -0.488,-0.751 -0.732,-1.637 -0.732,-2.656 0,-0.765 0.132,-1.428 0.396,-1.991 0.263,-0.562 0.608,-1.026 1.034,-1.391 0.427,-0.365 0.965,-0.696 1.615,-0.995 l -0.026,-0.172 c -1.89,-0.817 -2.834,-2.219 -2.834,-4.205 0,-0.905 0.248,-1.714 0.744,-2.426 0.497,-0.712 1.205,-1.27 2.123,-1.674 0.918,-0.404 1.936,-0.607 3.052,-0.607 z"
       fill-rule="evenodd"
       id="path353" />
    <text
       fill="#000000"
       fill-opacity="0"
       font-family="Arial, Arial_MSFontService, sans-serif"
       font-size="18.4175px"
       x="704.21002"
       y="611.15503"
       id="text355">8</text>
    <path
       d="m 698.295,626.51 h 11.311 v 0.633 l -7.673,17.455 h -1.911 v -0.646 l 7.106,-15.042 v -0.198 h -5.801 c -0.36,0 -0.648,0.033 -0.863,0.099 -0.216,0.066 -0.396,0.16 -0.541,0.283 -0.145,0.123 -0.266,0.286 -0.363,0.488 -0.096,0.202 -0.228,0.602 -0.395,1.2 h -1.134 z"
       fill-rule="evenodd"
       id="path357" />
    <text
       fill="#000000"
       fill-opacity="0"
       font-family="Arial, Arial_MSFontService, sans-serif"
       font-size="18.0879px"
       x="698.03101"
       y="642.33698"
       id="text359">7</text>
    <path
       d="m 704.597,657.559 h 0.725 c -0.053,0.844 -0.079,2.013 -0.079,3.507 v 11.259 c 0,0.51 0.028,0.894 0.085,1.154 0.057,0.259 0.158,0.47 0.303,0.632 0.145,0.163 0.354,0.29 0.627,0.383 0.272,0.092 0.615,0.162 1.028,0.211 0.413,0.048 0.958,0.081 1.635,0.099 v 0.962 h -9.743 v -0.962 c 0.976,-0.044 1.672,-0.104 2.09,-0.178 0.417,-0.075 0.736,-0.187 0.956,-0.337 0.219,-0.149 0.38,-0.36 0.481,-0.632 0.101,-0.273 0.151,-0.717 0.151,-1.332 v -10.692 c 0,-0.351 -0.061,-0.609 -0.184,-0.771 -0.123,-0.163 -0.303,-0.244 -0.541,-0.244 -0.281,0 -0.681,0.145 -1.199,0.435 -0.519,0.29 -1.161,0.69 -1.925,1.2 l -0.58,-1.015 z"
       fill-rule="evenodd"
       id="path361" />
    <text
       fill="#000000"
       fill-opacity="0"
       font-family="Arial, Arial_MSFontService, sans-serif"
       font-size="18.2065px"
       x="698.427"
       y="673.48999"
       id="text363">1</text>
    <path
       d="m 729.743,561.779 c 2.962,0.483 5.563,2.777 7.804,6.882 2.25,4.096 3.375,9.681 3.375,16.756 0,1.292 -0.083,2.874 -0.25,4.746 -0.167,1.872 -0.417,4.052 -0.751,6.539 -0.66,4.949 -0.989,8.499 -0.989,10.653 0,3.876 0.514,6.776 1.542,8.701 1.046,1.925 2.488,2.918 4.324,2.979 v 1.503 c -1.836,0.062 -3.278,1.059 -4.324,2.993 -1.028,1.916 -1.542,4.812 -1.542,8.688 0,2.162 0.329,5.713 0.989,10.652 0.334,2.488 0.584,4.667 0.751,6.539 0.167,1.872 0.25,3.455 0.25,4.746 0,7.076 -1.125,12.661 -3.375,16.757 -2.241,4.104 -4.842,6.398 -7.804,6.882 v -1.385 c 2.496,-0.729 4.487,-2.9 5.972,-6.512 1.503,-3.621 2.254,-8.403 2.254,-14.344 0,-3.015 -0.303,-6.891 -0.909,-11.628 -0.607,-4.728 -0.91,-7.915 -0.91,-9.558 0,-3.533 0.514,-6.614 1.543,-9.242 1.037,-2.619 2.443,-4.337 4.218,-5.155 v -0.369 c -1.775,-0.817 -3.181,-2.535 -4.218,-5.154 -1.029,-2.62 -1.543,-5.7 -1.543,-9.242 0,-1.635 0.303,-4.821 0.91,-9.558 0.606,-4.729 0.909,-8.605 0.909,-11.628 0,-5.933 -0.751,-10.714 -2.254,-14.344 -1.485,-3.612 -3.476,-5.783 -5.972,-6.513 z"
       fill-rule="evenodd"
       id="path365" />
    <text
       fill="#000000"
       fill-opacity="0"
       font-family="Arial, Arial_MSFontService, sans-serif"
       font-size="116.016px"
       x="729.74298"
       y="663.29303"
       id="text367"></text>
    <text
       font-family="Calibri, Calibri_MSFontService, sans-serif"
       font-weight="400"
       font-size="27px"
       transform="translate(746.033,628)"
       id="text369">.</text>
  </g>
</svg>
