<?xml version="1.0" encoding="UTF-8" standalone="no"?>
<svg
   width="1280"
   height="600"
   overflow="hidden"
   version="1.1"
   id="svg281"
   sodipodi:docname="linear_systems-determinant_geometric_representation.svg"
   inkscape:version="1.2 (dc2aedaf03, 2022-05-15)"
   xmlns:inkscape="http://www.inkscape.org/namespaces/inkscape"
   xmlns:sodipodi="http://sodipodi.sourceforge.net/DTD/sodipodi-0.dtd"
   xmlns="http://www.w3.org/2000/svg"
   xmlns:svg="http://www.w3.org/2000/svg">
  <sodipodi:namedview
     id="namedview283"
     pagecolor="#ffffff"
     bordercolor="#000000"
     borderopacity="0.25"
     inkscape:showpageshadow="2"
     inkscape:pageopacity="0.0"
     inkscape:pagecheckerboard="0"
     inkscape:deskcolor="#d1d1d1"
     showgrid="false"
     inkscape:zoom="0.92709556"
     inkscape:cx="388.84881"
     inkscape:cy="360.26491"
     inkscape:window-width="2560"
     inkscape:window-height="1494"
     inkscape:window-x="-11"
     inkscape:window-y="-11"
     inkscape:window-maximized="1"
     inkscape:current-layer="svg281" />
  <defs
     id="defs5">
    <clipPath
       id="clip0">
      <rect
         x="0"
         y="0"
         width="1280"
         height="720"
         id="rect2" />
    </clipPath>
  </defs>
  <g
     clip-path="url(#clip0)"
     id="g279"
     transform="translate(10.786375,-59.32506)">
    <rect
       x="0"
       y="0"
       width="1280"
       height="720"
       fill="#ffffff"
       id="rect7" />
    <path
       d="M 675.677,585.98 448,359"
       stroke="#fbe5d6"
       stroke-width="4"
       stroke-miterlimit="8"
       stroke-dasharray="4, 4"
       fill="none"
       fill-rule="evenodd"
       id="path9" />
    <path
       d="M 676.303,586.788 448,360"
       stroke="#bfbfbf"
       stroke-width="4"
       stroke-miterlimit="8"
       stroke-dasharray="12, 4"
       fill="none"
       fill-rule="evenodd"
       id="path11" />
    <path
       d="M 0,0 303.876,148.772"
       stroke="#fbe5d6"
       stroke-width="4"
       stroke-miterlimit="8"
       stroke-dasharray="4, 4"
       fill="none"
       fill-rule="evenodd"
       transform="matrix(-1,0,0,1,752.876,437)"
       id="path13" />
    <path
       d="M 0,0 301.74,149.934"
       stroke="#bfbfbf"
       stroke-width="4"
       stroke-miterlimit="8"
       stroke-dasharray="12, 4"
       fill="none"
       fill-rule="evenodd"
       transform="matrix(1,0,0,-1,452,584.934)"
       id="path15" />
    <rect
       x="226"
       y="360"
       width="77"
       height="75"
       fill="#4472c4"
       fill-opacity="0.2"
       id="rect17" />
    <text
       font-family="Calibri, Calibri_MSFontService, sans-serif"
       font-weight="400"
       font-size="24px"
       transform="translate(240.932,405)"
       id="text19">detA</text>
    <rect
       x="151"
       y="436"
       width="76"
       height="75"
       stroke="#ededed"
       stroke-width="4"
       stroke-miterlimit="8"
       fill="none"
       id="rect21" />
    <rect
       x="227"
       y="436"
       width="75"
       height="75"
       stroke="#ededed"
       stroke-width="4"
       stroke-miterlimit="8"
       fill="none"
       id="rect23" />
    <rect
       x="226"
       y="360"
       width="76"
       height="76"
       stroke="#ededed"
       stroke-width="4"
       stroke-miterlimit="8"
       fill="none"
       id="rect25" />
    <rect
       x="227"
       y="284"
       width="75"
       height="76"
       stroke="#ededed"
       stroke-width="4"
       stroke-miterlimit="8"
       fill="none"
       id="rect27" />
    <rect
       x="151"
       y="284"
       width="76"
       height="76"
       stroke="#ededed"
       stroke-width="4"
       stroke-miterlimit="8"
       fill="none"
       id="rect29" />
    <rect
       x="303"
       y="436"
       width="76"
       height="75"
       stroke="#ededed"
       stroke-width="4"
       stroke-miterlimit="8"
       fill="none"
       id="rect31" />
    <rect
       x="303"
       y="360"
       width="75"
       height="76"
       stroke="#ededed"
       stroke-width="4"
       stroke-miterlimit="8"
       fill="none"
       id="rect33" />
    <rect
       x="303"
       y="284"
       width="75"
       height="76"
       stroke="#ededed"
       stroke-width="4"
       stroke-miterlimit="8"
       fill="none"
       id="rect35" />
    <rect
       x="151"
       y="360"
       width="75"
       height="76"
       stroke="#ededed"
       stroke-width="4"
       stroke-miterlimit="8"
       fill="none"
       id="rect37" />
    <rect
       x="76"
       y="436"
       width="76"
       height="75"
       stroke="#ededed"
       stroke-width="4"
       stroke-miterlimit="8"
       fill="none"
       id="rect39" />
    <rect
       x="76"
       y="284"
       width="75"
       height="76"
       stroke="#ededed"
       stroke-width="4"
       stroke-miterlimit="8"
       fill="none"
       id="rect41" />
    <rect
       x="75"
       y="360"
       width="76"
       height="76"
       stroke="#ededed"
       stroke-width="4"
       stroke-miterlimit="8"
       fill="none"
       id="rect43" />
    <rect
       x="151"
       y="511"
       width="76"
       height="75"
       stroke="#ededed"
       stroke-width="4"
       stroke-miterlimit="8"
       fill="none"
       id="rect45" />
    <rect
       x="227"
       y="511"
       width="75"
       height="75"
       stroke="#ededed"
       stroke-width="4"
       stroke-miterlimit="8"
       fill="none"
       id="rect47" />
    <rect
       x="303"
       y="511"
       width="76"
       height="75"
       stroke="#ededed"
       stroke-width="4"
       stroke-miterlimit="8"
       fill="none"
       id="rect49" />
    <rect
       x="76"
       y="511"
       width="76"
       height="75"
       stroke="#ededed"
       stroke-width="4"
       stroke-miterlimit="8"
       fill="none"
       id="rect51" />
    <path
       d="M 74,436 H 377.919"
       stroke="#bfbfbf"
       stroke-width="4"
       stroke-miterlimit="8"
       stroke-dasharray="12, 4"
       fill="none"
       fill-rule="evenodd"
       id="path53" />
    <path
       d="M 0,0 1.39265,301.928"
       stroke="#bfbfbf"
       stroke-width="4"
       stroke-miterlimit="8"
       stroke-dasharray="12, 4"
       fill="none"
       fill-rule="evenodd"
       transform="matrix(1,0,0,-1,226,585.928)"
       id="path55" />
    <text
       font-family="Calibri, Calibri_MSFontService, sans-serif"
       font-weight="400"
       font-size="32px"
       transform="translate(232.382,482)"
       id="text57">(1, 0)</text>
    <path
       d="M 1.9997,-0.0349248 3.29065,73.8815 -0.708741,73.9513 -1.9997,0.0349248 Z M 9.82523,62.7734 1.36027,77.8851 -7.62722,63.0782 c -0.57314,-0.9442 -0.2723,-2.1743 0.67194,-2.7474 0.94424,-0.5732 2.17431,-0.2723 2.74745,0.6719 L 3.00065,72.8786 -0.453938,72.939 6.33545,60.8186 c 0.53981,-0.9637 1.75863,-1.3073 2.72231,-0.7675 0.96364,0.5398 1.30724,1.7586 0.76747,2.7223 z"
       fill="#a6a6a6"
       transform="matrix(1,0,0,-1,227,435.876)"
       id="path59" />
    <path
       d="m 226,433 h 73.34 v 4 H 226 Z m 62.348,-6.727 14.961,8.727 -14.961,8.728 c -0.954,0.556 -2.179,0.234 -2.736,-0.72 -0.556,-0.954 -0.234,-2.179 0.72,-2.735 l 12,-7 v 3.455 l -12,-7 c -0.954,-0.557 -1.276,-1.782 -0.72,-2.736 0.557,-0.954 1.782,-1.276 2.736,-0.719 z"
       fill="#a6a6a6"
       id="path61" />
    <text
       font-family="Calibri, Calibri_MSFontService, sans-serif"
       font-weight="400"
       font-size="32px"
       transform="translate(152.614,407)"
       id="text65">(0, 1)<tspan
   font-size="37px"
   x="-6.0264602"
   y="-172"
   id="tspan63">A =</tspan></text>
    <path
       d="m 297.547,187.798 h 9.088 V 261.4 h -9.088 v -1.662 h 5.547 V 189.46 h -5.547 z m -89.507,0 h 9.088 v 1.662 h -5.547 v 70.278 h 5.547 v 1.662 h -9.088 z"
       fill-rule="evenodd"
       id="path67" />
    <path
       d="m 229.325,191.521 c 0.289,0 0.53,0.012 0.723,0.036 0.193,0.024 0.343,0.057 0.452,0.099 0.108,0.042 0.18,0.097 0.216,0.163 0.037,0.066 0.055,0.135 0.055,0.208 v 20.541 h 4.227 c 0.096,0 0.187,0.027 0.271,0.081 0.084,0.055 0.154,0.133 0.208,0.235 0.054,0.103 0.096,0.232 0.126,0.389 0.03,0.156 0.045,0.343 0.045,0.56 0,0.229 -0.018,0.421 -0.054,0.578 -0.036,0.156 -0.084,0.283 -0.144,0.379 -0.06,0.097 -0.13,0.166 -0.208,0.208 -0.078,0.042 -0.16,0.063 -0.244,0.063 h -12.213 c -0.084,0 -0.162,-0.021 -0.235,-0.063 -0.072,-0.042 -0.141,-0.111 -0.207,-0.208 -0.067,-0.096 -0.118,-0.223 -0.154,-0.379 -0.036,-0.157 -0.054,-0.349 -0.054,-0.578 0,-0.217 0.018,-0.404 0.054,-0.56 0.036,-0.157 0.081,-0.286 0.136,-0.389 0.054,-0.102 0.12,-0.18 0.198,-0.235 0.079,-0.054 0.166,-0.081 0.262,-0.081 h 4.878 v -17.777 l -4.516,2.692 c -0.229,0.12 -0.413,0.192 -0.551,0.216 -0.139,0.025 -0.25,-0.003 -0.335,-0.081 -0.084,-0.078 -0.141,-0.208 -0.171,-0.388 -0.03,-0.181 -0.046,-0.41 -0.046,-0.687 0,-0.205 0.01,-0.379 0.028,-0.524 0.018,-0.144 0.045,-0.265 0.081,-0.361 0.036,-0.096 0.087,-0.181 0.153,-0.253 0.067,-0.072 0.154,-0.144 0.262,-0.217 l 5.384,-3.45 c 0.048,-0.037 0.109,-0.067 0.181,-0.091 0.072,-0.024 0.162,-0.048 0.271,-0.072 0.108,-0.024 0.235,-0.039 0.379,-0.045 0.145,-0.006 0.325,-0.009 0.542,-0.009 z"
       fill-rule="evenodd"
       id="path69" />
    <text
       fill="#000000"
       fill-opacity="0"
       font-family="Arial, Arial_MSFontService, sans-serif"
       font-size="23.5405px"
       x="222.04401"
       y="212.119"
       id="text71">1</text>
    <path
       d="m 286.311,191.647 c -0.831,0 -1.526,0.247 -2.086,0.741 -0.56,0.494 -1.012,1.204 -1.355,2.132 -0.344,0.927 -0.588,2.056 -0.732,3.387 -0.145,1.331 -0.217,2.834 -0.217,4.508 0,3.926 0.364,6.808 1.093,8.645 0.729,1.836 1.858,2.755 3.388,2.755 1.457,0 2.538,-0.864 3.243,-2.593 0.704,-1.728 1.056,-4.405 1.056,-8.03 0,-2.771 -0.18,-5.014 -0.542,-6.73 -0.361,-1.716 -0.864,-2.948 -1.508,-3.695 -0.644,-0.746 -1.424,-1.12 -2.34,-1.12 z m 0.091,-1.535 c 2.637,0 4.601,1.017 5.889,3.053 1.289,2.035 1.933,5.113 1.933,9.232 0,4.263 -0.689,7.488 -2.068,9.674 -1.379,2.186 -3.394,3.279 -6.043,3.279 -2.602,0 -4.538,-1.023 -5.809,-3.071 -1.27,-2.047 -1.906,-5.155 -1.906,-9.322 0,-2.216 0.196,-4.131 0.587,-5.745 0.392,-1.614 0.94,-2.948 1.644,-4.002 0.705,-1.054 1.551,-1.834 2.539,-2.34 0.987,-0.505 2.065,-0.758 3.234,-0.758 z"
       fill-rule="evenodd"
       id="path73" />
    <text
       fill="#000000"
       fill-opacity="0"
       font-family="Arial, Arial_MSFontService, sans-serif"
       font-size="25.2388px"
       x="278.39801"
       y="212.196"
       id="text75">0</text>
    <path
       d="m 228.311,235.414 c -0.831,0 -1.526,0.247 -2.086,0.741 -0.56,0.493 -1.012,1.204 -1.355,2.131 -0.344,0.928 -0.588,2.057 -0.732,3.388 -0.145,1.331 -0.217,2.833 -0.217,4.507 0,3.927 0.364,6.809 1.093,8.645 0.729,1.837 1.858,2.755 3.388,2.755 1.457,0 2.538,-0.864 3.243,-2.592 0.704,-1.728 1.056,-4.405 1.056,-8.031 0,-2.77 -0.18,-5.013 -0.542,-6.729 -0.361,-1.717 -0.864,-2.948 -1.508,-3.695 -0.644,-0.747 -1.424,-1.12 -2.34,-1.12 z m 0.091,-1.536 c 2.637,0 4.601,1.018 5.889,3.053 1.289,2.036 1.933,5.113 1.933,9.232 0,4.264 -0.689,7.489 -2.068,9.675 -1.379,2.186 -3.394,3.279 -6.043,3.279 -2.602,0 -4.538,-1.024 -5.809,-3.071 -1.27,-2.048 -1.906,-5.155 -1.906,-9.323 0,-2.216 0.196,-4.131 0.587,-5.745 0.392,-1.614 0.94,-2.947 1.644,-4.001 0.705,-1.054 1.551,-1.834 2.539,-2.34 0.987,-0.506 2.065,-0.759 3.234,-0.759 z"
       fill-rule="evenodd"
       id="path77" />
    <text
       fill="#000000"
       fill-opacity="0"
       font-family="Arial, Arial_MSFontService, sans-serif"
       font-size="25.2388px"
       x="220.39799"
       y="255.96201"
       id="text79">0</text>
    <path
       d="m 287.739,233.878 h 0.993 c -0.072,1.157 -0.108,2.758 -0.108,4.806 v 15.429 c 0,0.698 0.039,1.225 0.117,1.58 0.078,0.356 0.217,0.645 0.416,0.868 0.198,0.222 0.485,0.397 0.858,0.524 0.373,0.126 0.843,0.222 1.409,0.289 0.566,0.066 1.313,0.111 2.24,0.135 v 1.319 h -13.351 v -1.319 c 1.337,-0.06 2.292,-0.141 2.864,-0.244 0.572,-0.102 1.008,-0.256 1.31,-0.46 0.301,-0.205 0.52,-0.494 0.659,-0.868 0.139,-0.373 0.208,-0.981 0.208,-1.824 v -14.652 c 0,-0.482 -0.085,-0.834 -0.253,-1.057 -0.169,-0.223 -0.416,-0.334 -0.741,-0.334 -0.385,0 -0.933,0.198 -1.644,0.596 -0.711,0.397 -1.59,0.945 -2.638,1.644 l -0.795,-1.391 z"
       fill-rule="evenodd"
       id="path81" />
    <text
       fill="#000000"
       fill-opacity="0"
       font-family="Arial, Arial_MSFontService, sans-serif"
       font-size="24.9497px"
       x="279.28299"
       y="255.709"
       id="text83">1</text>
    <text
       font-family="Calibri, Calibri_MSFontService, sans-serif"
       font-weight="400"
       font-size="43px"
       transform="translate(411.313,124)"
       id="text85">Finding the determinant</text>
    <rect
       x="603"
       y="436"
       width="75"
       height="75"
       stroke="#ededed"
       stroke-width="4"
       stroke-miterlimit="8"
       fill="none"
       id="rect87" />
    <rect
       x="678"
       y="436"
       width="75"
       height="75"
       stroke="#ededed"
       stroke-width="4"
       stroke-miterlimit="8"
       fill="none"
       id="rect89" />
    <rect
       x="451"
       y="511"
       width="75"
       height="76"
       stroke="#ededed"
       stroke-width="4"
       stroke-miterlimit="8"
       fill="none"
       id="rect91" />
    <rect
       x="451"
       y="436"
       width="75"
       height="75"
       stroke="#ededed"
       stroke-width="4"
       stroke-miterlimit="8"
       fill="none"
       id="rect93" />
    <rect
       x="526"
       y="511"
       width="76"
       height="76"
       stroke="#ededed"
       stroke-width="4"
       stroke-miterlimit="8"
       fill="none"
       id="rect95" />
    <rect
       x="526"
       y="436"
       width="76"
       height="75"
       stroke="#ededed"
       stroke-width="4"
       stroke-miterlimit="8"
       fill="none"
       id="rect97" />
    <rect
       x="526"
       y="360"
       width="75"
       height="76"
       stroke="#ededed"
       stroke-width="4"
       stroke-miterlimit="8"
       fill="none"
       id="rect99" />
    <rect
       x="526"
       y="284"
       width="76"
       height="76"
       stroke="#ededed"
       stroke-width="4"
       stroke-miterlimit="8"
       fill="none"
       id="rect101" />
    <rect
       x="450"
       y="284"
       width="76"
       height="76"
       stroke="#ededed"
       stroke-width="4"
       stroke-miterlimit="8"
       fill="none"
       id="rect103" />
    <rect
       x="603"
       y="511"
       width="75"
       height="76"
       stroke="#ededed"
       stroke-width="4"
       stroke-miterlimit="8"
       fill="none"
       id="rect105" />
    <rect
       x="678"
       y="511"
       width="75"
       height="76"
       stroke="#ededed"
       stroke-width="4"
       stroke-miterlimit="8"
       fill="none"
       id="rect107" />
    <rect
       x="678"
       y="360"
       width="75"
       height="76"
       stroke="#ededed"
       stroke-width="4"
       stroke-miterlimit="8"
       fill="none"
       id="rect109" />
    <rect
       x="678"
       y="284"
       width="75"
       height="76"
       stroke="#ededed"
       stroke-width="4"
       stroke-miterlimit="8"
       fill="none"
       id="rect111" />
    <rect
       x="602"
       y="360"
       width="76"
       height="76"
       stroke="#ededed"
       stroke-width="4"
       stroke-miterlimit="8"
       fill="none"
       id="rect113" />
    <rect
       x="602"
       y="284"
       width="76"
       height="76"
       stroke="#ededed"
       stroke-width="4"
       stroke-miterlimit="8"
       fill="none"
       id="rect115" />
    <rect
       x="450"
       y="360"
       width="76"
       height="76"
       stroke="#ededed"
       stroke-width="4"
       stroke-miterlimit="8"
       fill="none"
       id="rect117" />
    <text
       font-family="Calibri, Calibri_MSFontService, sans-serif"
       font-weight="400"
       font-size="37px"
       transform="translate(499.755,236)"
       id="text119">A =</text>
    <path
       d="m 668.868,194.932 h 8.599 v 60.703 h -8.599 v -1.571 h 5.257 v -57.56 h -5.257 z m -107.679,0 h 8.6 v 1.572 h -5.258 v 57.56 h 5.258 v 1.571 h -8.6 z"
       fill-rule="evenodd"
       id="path121" />
    <path
       d="m 572.781,204.226 h 14.236 c 0.217,0 0.382,0.103 0.497,0.308 0.114,0.204 0.172,0.53 0.172,0.975 0,0.446 -0.058,0.771 -0.172,0.976 -0.115,0.204 -0.28,0.307 -0.497,0.307 h -14.236 c -0.229,0 -0.401,-0.103 -0.515,-0.307 -0.115,-0.205 -0.172,-0.53 -0.172,-0.976 0,-0.433 0.057,-0.756 0.172,-0.966 0.114,-0.211 0.286,-0.317 0.515,-0.317 z"
       fill-rule="evenodd"
       id="path123" />
    <text
       fill="#000000"
       fill-opacity="0"
       font-family="Arial, Arial_MSFontService, sans-serif"
       font-size="2.56543px"
       x="572.09399"
       y="206.47099"
       id="text125">−</text>
    <path
       d="m 601.059,190.948 h 0.993 c -0.072,1.156 -0.108,2.758 -0.108,4.805 v 15.429 c 0,0.699 0.039,1.226 0.117,1.581 0.079,0.355 0.217,0.644 0.416,0.867 0.199,0.223 0.485,0.397 0.858,0.524 0.373,0.126 0.843,0.223 1.409,0.289 0.566,0.066 1.313,0.111 2.241,0.135 v 1.319 h -13.352 v -1.319 c 1.337,-0.06 2.292,-0.141 2.864,-0.243 0.572,-0.103 1.009,-0.256 1.31,-0.461 0.301,-0.205 0.521,-0.494 0.659,-0.867 0.139,-0.374 0.208,-0.982 0.208,-1.825 V 196.53 c 0,-0.482 -0.084,-0.834 -0.253,-1.057 -0.169,-0.223 -0.415,-0.334 -0.741,-0.334 -0.385,0 -0.933,0.199 -1.644,0.596 -0.71,0.398 -1.59,0.946 -2.637,1.644 l -0.795,-1.391 z"
       fill-rule="evenodd"
       id="path127" />
    <text
       fill="#000000"
       fill-opacity="0"
       font-family="Arial, Arial_MSFontService, sans-serif"
       font-size="24.9497px"
       x="592.604"
       y="212.77901"
       id="text129">1</text>
    <path
       d="m 657.776,190.948 c 2.24,0 3.932,0.49 5.077,1.472 1.144,0.982 1.716,2.406 1.716,4.273 0,0.638 -0.063,1.225 -0.19,1.761 -0.126,0.536 -0.325,1.066 -0.596,1.59 -0.271,0.524 -0.635,1.087 -1.093,1.689 -0.458,0.602 -0.963,1.214 -1.517,1.834 -0.554,0.62 -1.512,1.653 -2.873,3.098 -2.288,2.421 -3.969,4.535 -5.041,6.342 h 6.811 c 0.591,0 1.066,-0.036 1.428,-0.109 0.361,-0.072 0.65,-0.192 0.867,-0.361 0.217,-0.169 0.388,-0.388 0.515,-0.659 0.126,-0.271 0.286,-0.69 0.479,-1.256 h 1.535 l -0.307,5.275 h -14.869 v -0.867 c 0.518,-1.265 1.217,-2.559 2.096,-3.884 0.879,-1.325 2.126,-2.885 3.74,-4.679 1.397,-1.542 2.403,-2.71 3.017,-3.505 0.674,-0.867 1.177,-1.617 1.509,-2.249 0.331,-0.633 0.569,-1.229 0.713,-1.789 0.145,-0.56 0.217,-1.123 0.217,-1.689 0,-0.904 -0.145,-1.702 -0.434,-2.394 -0.289,-0.693 -0.731,-1.238 -1.328,-1.635 -0.596,-0.398 -1.345,-0.596 -2.249,-0.596 -2.252,0 -3.77,1.252 -4.553,3.758 h -2.186 v -3.469 c 1.458,-0.687 2.822,-1.184 4.092,-1.491 1.271,-0.307 2.412,-0.46 3.424,-0.46 z"
       fill-rule="evenodd"
       id="path131" />
    <text
       fill="#000000"
       fill-opacity="0"
       font-family="Arial, Arial_MSFontService, sans-serif"
       font-size="24.9497px"
       x="649.71802"
       y="212.77901"
       id="text133">2</text>
    <path
       d="m 591.725,234.714 h 0.994 c -0.072,1.157 -0.108,2.758 -0.108,4.806 v 15.429 c 0,0.698 0.039,1.225 0.117,1.58 0.078,0.356 0.217,0.645 0.416,0.868 0.198,0.222 0.484,0.397 0.858,0.524 0.373,0.126 0.843,0.222 1.409,0.289 0.566,0.066 1.313,0.111 2.24,0.135 v 1.319 H 584.3 v -1.319 c 1.337,-0.06 2.292,-0.141 2.864,-0.244 0.572,-0.102 1.008,-0.256 1.31,-0.46 0.301,-0.205 0.52,-0.494 0.659,-0.868 0.138,-0.373 0.208,-0.981 0.208,-1.824 v -14.652 c 0,-0.482 -0.085,-0.834 -0.253,-1.057 -0.169,-0.223 -0.416,-0.334 -0.741,-0.334 -0.385,0 -0.933,0.198 -1.644,0.596 -0.711,0.397 -1.59,0.945 -2.638,1.644 l -0.795,-1.391 z"
       fill-rule="evenodd"
       id="path135" />
    <text
       fill="#000000"
       fill-opacity="0"
       font-family="Arial, Arial_MSFontService, sans-serif"
       font-size="24.9497px"
       x="583.27002"
       y="256.54501"
       id="text137">1</text>
    <path
       d="m 659.059,234.714 h 0.993 c -0.072,1.157 -0.108,2.758 -0.108,4.806 v 15.429 c 0,0.698 0.039,1.225 0.117,1.58 0.079,0.356 0.217,0.645 0.416,0.868 0.199,0.222 0.485,0.397 0.858,0.524 0.373,0.126 0.843,0.222 1.409,0.289 0.566,0.066 1.313,0.111 2.241,0.135 v 1.319 h -13.352 v -1.319 c 1.337,-0.06 2.292,-0.141 2.864,-0.244 0.572,-0.102 1.009,-0.256 1.31,-0.46 0.301,-0.205 0.521,-0.494 0.659,-0.868 0.139,-0.373 0.208,-0.981 0.208,-1.824 v -14.652 c 0,-0.482 -0.084,-0.834 -0.253,-1.057 -0.169,-0.223 -0.415,-0.334 -0.741,-0.334 -0.385,0 -0.933,0.198 -1.644,0.596 -0.71,0.397 -1.59,0.945 -2.637,1.644 l -0.795,-1.391 z"
       fill-rule="evenodd"
       id="path139" />
    <text
       fill="#000000"
       fill-opacity="0"
       font-family="Arial, Arial_MSFontService, sans-serif"
       font-size="24.9497px"
       x="650.604"
       y="256.54501"
       id="text141">1</text>
    <path
       d="m 529.218,437.374 72.73,72.332 -2.821,2.836 -72.73,-72.332 z m 0.23,15.358 -4.455,-16.739 16.763,4.363 c 1.069,0.278 1.71,1.37 1.432,2.439 -0.278,1.069 -1.37,1.71 -2.439,1.432 l -13.445,-3.499 2.437,-2.45 3.572,13.425 c 0.284,1.068 -0.351,2.163 -1.418,2.447 -1.068,0.285 -2.163,-0.351 -2.447,-1.418 z"
       fill="#a6a6a6"
       id="path143" />
    <path
       d="M 4.43602,-0.0500714 152.412,72.6026 150.649,76.1932 2.67314,3.5405 Z M 9.57537,14.424 -0.00832062,-0.00408526 17.2682,-1.24444 c 1.1018,-0.0791 2.059,0.749908 2.1381,1.851642 C 19.4854,1.70894 18.6564,2.66619 17.5547,2.74529 L 3.69789,3.74013 5.22063,0.638663 12.9073,12.2108 c 0.6112,0.9201 0.3607,2.1614 -0.5594,2.7726 -0.9201,0.6112 -2.1614,0.3607 -2.77253,-0.5594 z"
       fill="#a6a6a6"
       transform="matrix(-1,0,0,1,754.531,436)"
       id="path145" />
    <rect
       x="910"
       y="496"
       width="34"
       height="62"
       fill="#ffffff"
       id="rect147" />
    <path
       d="M 525,434.877 601.584,512 754,434.877 677.416,360 Z"
       fill="#4472c4"
       fill-rule="evenodd"
       fill-opacity="0.2"
       id="path149" />
    <text
       font-family="Calibri, Calibri_MSFontService, sans-serif"
       font-weight="400"
       font-size="24px"
       transform="translate(616.219,444)"
       id="text151">detA</text>
    <path
       d="M 0,0 152.77,74.1699"
       stroke="#fbe5d6"
       stroke-width="4"
       stroke-miterlimit="8"
       stroke-dasharray="4, 4"
       fill="none"
       fill-rule="evenodd"
       transform="matrix(-1,0,0,1,601.771,285)"
       id="path153" />
    <path
       d="M 0,0 77.7137,37.3348"
       stroke="#fbe5d6"
       stroke-width="4"
       stroke-miterlimit="8"
       stroke-dasharray="4, 4"
       fill="none"
       fill-rule="evenodd"
       transform="matrix(-1,0,0,1,753.714,549)"
       id="path155" />
    <path
       d="M 0,0 302.688,151.231"
       stroke="#fbe5d6"
       stroke-width="4"
       stroke-miterlimit="8"
       stroke-dasharray="4, 4"
       fill="none"
       fill-rule="evenodd"
       transform="matrix(-1,0,0,1,753.688,322)"
       id="path157" />
    <path
       d="M 753.987,434.772 603,286"
       stroke="#fbe5d6"
       stroke-width="4"
       stroke-miterlimit="8"
       stroke-dasharray="4, 4"
       fill="none"
       fill-rule="evenodd"
       id="path159" />
    <text
       font-family="Calibri, Calibri_MSFontService, sans-serif"
       font-weight="400"
       font-size="37px"
       transform="translate(764.351,235)"
       id="text163">T(S) <tspan
   font-size="37px"
   x="66.5"
   y="0"
   id="tspan161">=</tspan></text>
    <path
       d="m 943.144,187.798 h 9.087 V 261.4 h -9.087 v -1.662 h 5.546 V 189.46 h -5.546 z m -89.507,0 h 9.087 v 1.662 h -5.546 v 70.278 h 5.546 v 1.662 h -9.087 z"
       fill-rule="evenodd"
       id="path165" />
    <path
       d="m 874.052,190.112 c 2.241,0 3.933,0.49 5.077,1.472 1.144,0.982 1.716,2.406 1.716,4.273 0,0.638 -0.063,1.225 -0.189,1.761 -0.127,0.536 -0.326,1.066 -0.597,1.59 -0.271,0.524 -0.635,1.087 -1.093,1.689 -0.457,0.602 -0.963,1.214 -1.517,1.834 -0.554,0.62 -1.512,1.653 -2.873,3.098 -2.288,2.421 -3.968,4.535 -5.04,6.342 h 6.811 c 0.59,0 1.066,-0.036 1.427,-0.109 0.361,-0.072 0.65,-0.192 0.867,-0.361 0.217,-0.169 0.389,-0.388 0.515,-0.659 0.127,-0.271 0.286,-0.69 0.479,-1.256 h 1.535 l -0.307,5.275 h -14.868 v -0.867 c 0.518,-1.265 1.216,-2.559 2.095,-3.884 0.88,-1.325 2.126,-2.885 3.74,-4.679 1.397,-1.542 2.403,-2.71 3.017,-3.505 0.675,-0.867 1.178,-1.617 1.509,-2.25 0.331,-0.632 0.569,-1.228 0.713,-1.788 0.145,-0.56 0.217,-1.123 0.217,-1.689 0,-0.904 -0.144,-1.702 -0.433,-2.394 -0.289,-0.693 -0.732,-1.238 -1.328,-1.635 -0.596,-0.398 -1.346,-0.596 -2.25,-0.596 -2.252,0 -3.769,1.252 -4.552,3.758 h -2.186 v -3.469 c 1.457,-0.687 2.821,-1.184 4.092,-1.491 1.27,-0.307 2.412,-0.46 3.423,-0.46 z"
       fill-rule="evenodd"
       id="path167" />
    <text
       fill="#000000"
       fill-opacity="0"
       font-family="Arial, Arial_MSFontService, sans-serif"
       font-size="24.9497px"
       x="865.995"
       y="211.94299"
       id="text169">2</text>
    <path
       d="m 931.908,191.647 c -0.831,0 -1.527,0.247 -2.087,0.741 -0.56,0.494 -1.012,1.204 -1.355,2.132 -0.343,0.927 -0.587,2.056 -0.732,3.387 -0.144,1.331 -0.216,2.834 -0.216,4.508 0,3.926 0.364,6.808 1.093,8.645 0.728,1.836 1.858,2.755 3.387,2.755 1.457,0 2.538,-0.864 3.243,-2.593 0.705,-1.728 1.057,-4.405 1.057,-8.03 0,-2.771 -0.181,-5.014 -0.542,-6.73 -0.361,-1.716 -0.864,-2.948 -1.509,-3.695 -0.644,-0.746 -1.424,-1.12 -2.339,-1.12 z m 0.09,-1.535 c 2.638,0 4.601,1.017 5.89,3.053 1.289,2.035 1.933,5.113 1.933,9.232 0,4.263 -0.69,7.488 -2.069,9.674 -1.379,2.186 -3.393,3.279 -6.043,3.279 -2.602,0 -4.538,-1.023 -5.808,-3.071 -1.271,-2.047 -1.906,-5.155 -1.906,-9.322 0,-2.216 0.195,-4.131 0.587,-5.745 0.391,-1.614 0.939,-2.948 1.644,-4.002 0.704,-1.054 1.551,-1.834 2.538,-2.34 0.988,-0.505 2.066,-0.758 3.234,-0.758 z"
       fill-rule="evenodd"
       id="path171" />
    <text
       fill="#000000"
       fill-opacity="0"
       font-family="Arial, Arial_MSFontService, sans-serif"
       font-size="25.2388px"
       x="923.995"
       y="212.196"
       id="text173">0</text>
    <path
       d="m 873.908,235.414 c -0.831,0 -1.527,0.247 -2.087,0.741 -0.56,0.493 -1.012,1.204 -1.355,2.131 -0.343,0.928 -0.587,2.057 -0.732,3.388 -0.144,1.331 -0.216,2.833 -0.216,4.507 0,3.927 0.364,6.809 1.093,8.645 0.728,1.837 1.858,2.755 3.387,2.755 1.457,0 2.538,-0.864 3.243,-2.592 0.705,-1.728 1.057,-4.405 1.057,-8.031 0,-2.77 -0.181,-5.013 -0.542,-6.729 -0.361,-1.717 -0.864,-2.948 -1.509,-3.695 -0.644,-0.747 -1.424,-1.12 -2.339,-1.12 z m 0.09,-1.536 c 2.638,0 4.601,1.018 5.89,3.053 1.289,2.036 1.933,5.113 1.933,9.232 0,4.264 -0.69,7.489 -2.069,9.675 -1.379,2.186 -3.393,3.279 -6.043,3.279 -2.602,0 -4.538,-1.024 -5.808,-3.071 -1.271,-2.048 -1.906,-5.155 -1.906,-9.323 0,-2.216 0.195,-4.131 0.587,-5.745 0.391,-1.614 0.939,-2.947 1.644,-4.001 0.704,-1.054 1.551,-1.834 2.538,-2.34 0.988,-0.506 2.066,-0.759 3.234,-0.759 z"
       fill-rule="evenodd"
       id="path175" />
    <text
       fill="#000000"
       fill-opacity="0"
       font-family="Arial, Arial_MSFontService, sans-serif"
       font-size="25.2388px"
       x="865.995"
       y="255.96201"
       id="text177">0</text>
    <path
       d="m 932.052,233.878 c 2.241,0 3.933,0.491 5.077,1.473 1.144,0.981 1.716,2.406 1.716,4.272 0,0.639 -0.063,1.226 -0.189,1.762 -0.127,0.536 -0.326,1.066 -0.597,1.59 -0.271,0.524 -0.635,1.087 -1.093,1.689 -0.457,0.602 -0.963,1.213 -1.517,1.834 -0.554,0.62 -1.512,1.653 -2.873,3.098 -2.288,2.421 -3.968,4.535 -5.04,6.341 h 6.811 c 0.59,0 1.066,-0.036 1.427,-0.108 0.361,-0.072 0.65,-0.193 0.867,-0.361 0.217,-0.169 0.389,-0.389 0.515,-0.66 0.127,-0.271 0.286,-0.689 0.479,-1.255 h 1.535 l -0.307,5.275 h -14.868 v -0.867 c 0.518,-1.265 1.216,-2.56 2.095,-3.884 0.88,-1.325 2.126,-2.885 3.74,-4.68 1.397,-1.541 2.403,-2.71 3.017,-3.505 0.675,-0.867 1.178,-1.617 1.509,-2.249 0.331,-0.632 0.569,-1.228 0.713,-1.788 0.145,-0.56 0.217,-1.124 0.217,-1.69 0,-0.903 -0.144,-1.701 -0.433,-2.393 -0.289,-0.693 -0.732,-1.238 -1.328,-1.635 -0.596,-0.398 -1.346,-0.597 -2.25,-0.597 -2.252,0 -3.769,1.253 -4.552,3.758 h -2.186 v -3.469 c 1.457,-0.686 2.821,-1.183 4.092,-1.49 1.27,-0.307 2.412,-0.461 3.423,-0.461 z"
       fill-rule="evenodd"
       id="path179" />
    <text
       fill="#000000"
       fill-opacity="0"
       font-family="Arial, Arial_MSFontService, sans-serif"
       font-size="24.9497px"
       x="923.995"
       y="255.709"
       id="text181">2</text>
    <path
       d="m 1056.32,187.798 h 9.09 V 261.4 h -9.09 v -1.662 h 5.55 V 189.46 h -5.55 z m -89.503,0 h 9.087 v 1.662 h -5.546 v 70.278 h 5.546 v 1.662 h -9.087 z"
       fill-rule="evenodd"
       id="path183" />
    <path
       d="m 988.102,191.521 c 0.289,0 0.53,0.012 0.722,0.036 0.193,0.024 0.344,0.057 0.452,0.099 0.108,0.042 0.181,0.097 0.217,0.163 0.036,0.066 0.054,0.135 0.054,0.208 v 20.541 h 4.228 c 0.096,0 0.186,0.027 0.271,0.081 0.084,0.055 0.153,0.133 0.207,0.235 0.055,0.103 0.097,0.232 0.127,0.389 0.03,0.156 0.045,0.343 0.045,0.56 0,0.229 -0.018,0.421 -0.054,0.578 -0.036,0.156 -0.085,0.283 -0.145,0.379 -0.06,0.097 -0.129,0.166 -0.208,0.208 -0.078,0.042 -0.159,0.063 -0.243,0.063 h -12.213 c -0.085,0 -0.163,-0.021 -0.235,-0.063 -0.072,-0.042 -0.142,-0.111 -0.208,-0.208 -0.066,-0.096 -0.117,-0.223 -0.153,-0.379 -0.037,-0.157 -0.055,-0.349 -0.055,-0.578 0,-0.217 0.018,-0.404 0.055,-0.56 0.036,-0.157 0.081,-0.286 0.135,-0.389 0.054,-0.102 0.12,-0.18 0.199,-0.235 0.078,-0.054 0.165,-0.081 0.262,-0.081 h 4.878 v -17.777 l -4.517,2.692 c -0.229,0.12 -0.413,0.192 -0.551,0.216 -0.138,0.025 -0.25,-0.003 -0.334,-0.081 -0.085,-0.078 -0.142,-0.208 -0.172,-0.388 -0.03,-0.181 -0.045,-0.41 -0.045,-0.687 0,-0.205 0.009,-0.379 0.027,-0.524 0.018,-0.144 0.045,-0.265 0.081,-0.361 0.037,-0.096 0.088,-0.181 0.154,-0.253 0.066,-0.072 0.154,-0.144 0.262,-0.217 l 5.384,-3.45 c 0.048,-0.037 0.108,-0.067 0.18,-0.091 0.073,-0.024 0.163,-0.048 0.271,-0.072 0.109,-0.024 0.235,-0.039 0.38,-0.045 0.144,-0.006 0.325,-0.009 0.542,-0.009 z"
       fill-rule="evenodd"
       id="path185" />
    <text
       fill="#000000"
       fill-opacity="0"
       font-family="Arial, Arial_MSFontService, sans-serif"
       font-size="23.5405px"
       x="980.82098"
       y="212.119"
       id="text187">1</text>
    <path
       d="m 1045.09,191.647 c -0.83,0 -1.53,0.247 -2.09,0.741 -0.56,0.494 -1.01,1.204 -1.35,2.132 -0.35,0.927 -0.59,2.056 -0.74,3.387 -0.14,1.331 -0.21,2.834 -0.21,4.508 0,3.926 0.36,6.808 1.09,8.645 0.73,1.836 1.86,2.755 3.39,2.755 1.46,0 2.54,-0.864 3.24,-2.593 0.71,-1.728 1.06,-4.405 1.06,-8.03 0,-2.771 -0.18,-5.014 -0.54,-6.73 -0.37,-1.716 -0.87,-2.948 -1.51,-3.695 -0.65,-0.746 -1.43,-1.12 -2.34,-1.12 z m 0.09,-1.535 c 2.64,0 4.6,1.017 5.89,3.053 1.29,2.035 1.93,5.113 1.93,9.232 0,4.263 -0.69,7.488 -2.07,9.674 -1.38,2.186 -3.39,3.279 -6.04,3.279 -2.6,0 -4.54,-1.023 -5.81,-3.071 -1.27,-2.047 -1.91,-5.155 -1.91,-9.322 0,-2.216 0.2,-4.131 0.59,-5.745 0.39,-1.614 0.94,-2.948 1.65,-4.002 0.7,-1.054 1.55,-1.834 2.53,-2.34 0.99,-0.505 2.07,-0.758 3.24,-0.758 z"
       fill-rule="evenodd"
       id="path189" />
    <text
       fill="#000000"
       fill-opacity="0"
       font-family="Arial, Arial_MSFontService, sans-serif"
       font-size="25.2388px"
       x="1037.17"
       y="212.196"
       id="text191">0</text>
    <path
       d="m 987.088,235.414 c -0.831,0 -1.527,0.247 -2.087,0.741 -0.56,0.493 -1.012,1.204 -1.355,2.131 -0.343,0.928 -0.587,2.057 -0.732,3.388 -0.144,1.331 -0.216,2.833 -0.216,4.507 0,3.927 0.364,6.809 1.093,8.645 0.728,1.837 1.857,2.755 3.387,2.755 1.457,0 2.538,-0.864 3.243,-2.592 0.705,-1.728 1.057,-4.405 1.057,-8.031 0,-2.77 -0.181,-5.013 -0.542,-6.729 -0.361,-1.717 -0.864,-2.948 -1.509,-3.695 -0.644,-0.747 -1.424,-1.12 -2.339,-1.12 z m 0.09,-1.536 c 2.638,0 4.601,1.018 5.89,3.053 1.289,2.036 1.933,5.113 1.933,9.232 0,4.264 -0.69,7.489 -2.069,9.675 -1.379,2.186 -3.393,3.279 -6.043,3.279 -2.602,0 -4.538,-1.024 -5.808,-3.071 -1.271,-2.048 -1.906,-5.155 -1.906,-9.323 0,-2.216 0.195,-4.131 0.587,-5.745 0.391,-1.614 0.939,-2.947 1.644,-4.001 0.704,-1.054 1.551,-1.834 2.538,-2.34 0.988,-0.506 2.066,-0.759 3.234,-0.759 z"
       fill-rule="evenodd"
       id="path193" />
    <text
       fill="#000000"
       fill-opacity="0"
       font-family="Arial, Arial_MSFontService, sans-serif"
       font-size="25.2388px"
       x="979.17499"
       y="255.96201"
       id="text195">0</text>
    <path
       d="m 1046.52,233.878 h 0.99 c -0.07,1.157 -0.11,2.758 -0.11,4.806 v 15.429 c 0,0.698 0.04,1.225 0.12,1.58 0.08,0.356 0.21,0.645 0.41,0.868 0.2,0.222 0.49,0.397 0.86,0.524 0.37,0.126 0.84,0.222 1.41,0.289 0.57,0.066 1.31,0.111 2.24,0.135 v 1.319 h -13.35 v -1.319 c 1.34,-0.06 2.29,-0.141 2.86,-0.244 0.58,-0.102 1.01,-0.256 1.31,-0.46 0.3,-0.205 0.52,-0.494 0.66,-0.868 0.14,-0.373 0.21,-0.981 0.21,-1.824 v -14.652 c 0,-0.482 -0.08,-0.834 -0.25,-1.057 -0.17,-0.223 -0.42,-0.334 -0.74,-0.334 -0.39,0 -0.94,0.198 -1.65,0.596 -0.71,0.397 -1.59,0.945 -2.64,1.644 l -0.79,-1.391 z"
       fill-rule="evenodd"
       id="path197" />
    <text
       fill="#000000"
       fill-opacity="0"
       font-family="Arial, Arial_MSFontService, sans-serif"
       font-size="24.9497px"
       x="1038.0601"
       y="255.709"
       id="text199">1</text>
    <text
       font-family="Calibri, Calibri_MSFontService, sans-serif"
       font-weight="400"
       font-size="37px"
       transform="translate(1078.16,235)"
       id="text201">=</text>
    <path
       d="m 1190.45,187.798 h 9.09 V 261.4 h -9.09 v -1.662 H 1196 V 189.46 h -5.55 z m -89.51,0 h 9.09 v 1.662 h -5.55 v 70.278 h 5.55 v 1.662 h -9.09 z"
       fill-rule="evenodd"
       id="path203" />
    <path
       d="m 1121.36,190.112 c 2.24,0 3.93,0.49 5.08,1.472 1.14,0.982 1.71,2.406 1.71,4.273 0,0.638 -0.06,1.225 -0.19,1.761 -0.12,0.536 -0.32,1.066 -0.59,1.59 -0.27,0.524 -0.64,1.087 -1.1,1.689 -0.45,0.602 -0.96,1.214 -1.51,1.834 -0.56,0.62 -1.52,1.653 -2.88,3.098 -2.29,2.421 -3.97,4.535 -5.04,6.342 h 6.81 c 0.59,0 1.07,-0.036 1.43,-0.109 0.36,-0.072 0.65,-0.192 0.87,-0.361 0.21,-0.169 0.39,-0.388 0.51,-0.659 0.13,-0.271 0.29,-0.69 0.48,-1.256 h 1.54 l -0.31,5.275 h -14.87 v -0.867 c 0.52,-1.265 1.22,-2.559 2.1,-3.884 0.88,-1.325 2.12,-2.885 3.74,-4.679 1.39,-1.542 2.4,-2.71 3.01,-3.505 0.68,-0.867 1.18,-1.617 1.51,-2.25 0.33,-0.632 0.57,-1.228 0.72,-1.788 0.14,-0.56 0.21,-1.123 0.21,-1.689 0,-0.904 -0.14,-1.702 -0.43,-2.394 -0.29,-0.693 -0.73,-1.238 -1.33,-1.635 -0.59,-0.398 -1.34,-0.596 -2.25,-0.596 -2.25,0 -3.77,1.252 -4.55,3.758 h -2.19 v -3.469 c 1.46,-0.687 2.82,-1.184 4.1,-1.491 1.27,-0.307 2.41,-0.46 3.42,-0.46 z"
       fill-rule="evenodd"
       id="path205" />
    <text
       fill="#000000"
       fill-opacity="0"
       font-family="Arial, Arial_MSFontService, sans-serif"
       font-size="24.9497px"
       x="1113.3"
       y="211.94299"
       id="text207">2</text>
    <path
       d="m 1179.21,191.647 c -0.83,0 -1.52,0.247 -2.08,0.741 -0.56,0.494 -1.01,1.204 -1.36,2.132 -0.34,0.927 -0.58,2.056 -0.73,3.387 -0.14,1.331 -0.22,2.834 -0.22,4.508 0,3.926 0.37,6.808 1.1,8.645 0.73,1.836 1.86,2.755 3.38,2.755 1.46,0 2.54,-0.864 3.25,-2.593 0.7,-1.728 1.05,-4.405 1.05,-8.03 0,-2.771 -0.18,-5.014 -0.54,-6.73 -0.36,-1.716 -0.86,-2.948 -1.51,-3.695 -0.64,-0.746 -1.42,-1.12 -2.34,-1.12 z m 0.09,-1.535 c 2.64,0 4.61,1.017 5.89,3.053 1.29,2.035 1.94,5.113 1.94,9.232 0,4.263 -0.69,7.488 -2.07,9.674 -1.38,2.186 -3.39,3.279 -6.04,3.279 -2.61,0 -4.54,-1.023 -5.81,-3.071 -1.27,-2.047 -1.91,-5.155 -1.91,-9.322 0,-2.216 0.2,-4.131 0.59,-5.745 0.39,-1.614 0.94,-2.948 1.64,-4.002 0.71,-1.054 1.55,-1.834 2.54,-2.34 0.99,-0.505 2.07,-0.758 3.23,-0.758 z"
       fill-rule="evenodd"
       id="path209" />
    <text
       fill="#000000"
       fill-opacity="0"
       font-family="Arial, Arial_MSFontService, sans-serif"
       font-size="25.2388px"
       x="1171.3"
       y="212.196"
       id="text211">0</text>
    <path
       d="m 1121.21,235.414 c -0.83,0 -1.52,0.247 -2.08,0.741 -0.56,0.493 -1.01,1.204 -1.36,2.131 -0.34,0.928 -0.58,2.057 -0.73,3.388 -0.14,1.331 -0.22,2.833 -0.22,4.507 0,3.927 0.37,6.809 1.1,8.645 0.73,1.837 1.86,2.755 3.38,2.755 1.46,0 2.54,-0.864 3.25,-2.592 0.7,-1.728 1.05,-4.405 1.05,-8.031 0,-2.77 -0.18,-5.013 -0.54,-6.729 -0.36,-1.717 -0.86,-2.948 -1.51,-3.695 -0.64,-0.747 -1.42,-1.12 -2.34,-1.12 z m 0.09,-1.536 c 2.64,0 4.61,1.018 5.89,3.053 1.29,2.036 1.94,5.113 1.94,9.232 0,4.264 -0.69,7.489 -2.07,9.675 -1.38,2.186 -3.39,3.279 -6.04,3.279 -2.61,0 -4.54,-1.024 -5.81,-3.071 -1.27,-2.048 -1.91,-5.155 -1.91,-9.323 0,-2.216 0.2,-4.131 0.59,-5.745 0.39,-1.614 0.94,-2.947 1.64,-4.001 0.71,-1.054 1.55,-1.834 2.54,-2.34 0.99,-0.506 2.07,-0.759 3.23,-0.759 z"
       fill-rule="evenodd"
       id="path213" />
    <text
       fill="#000000"
       fill-opacity="0"
       font-family="Arial, Arial_MSFontService, sans-serif"
       font-size="25.2388px"
       x="1113.3"
       y="255.96201"
       id="text215">0</text>
    <path
       d="m 1179.36,233.878 c 2.24,0 3.93,0.491 5.08,1.473 1.14,0.981 1.71,2.406 1.71,4.272 0,0.639 -0.06,1.226 -0.19,1.762 -0.12,0.536 -0.32,1.066 -0.59,1.59 -0.27,0.524 -0.64,1.087 -1.1,1.689 -0.45,0.602 -0.96,1.213 -1.51,1.834 -0.56,0.62 -1.52,1.653 -2.88,3.098 -2.29,2.421 -3.97,4.535 -5.04,6.341 h 6.81 c 0.59,0 1.07,-0.036 1.43,-0.108 0.36,-0.072 0.65,-0.193 0.87,-0.361 0.21,-0.169 0.39,-0.389 0.51,-0.66 0.13,-0.271 0.29,-0.689 0.48,-1.255 h 1.54 l -0.31,5.275 h -14.87 v -0.867 c 0.52,-1.265 1.22,-2.56 2.1,-3.884 0.88,-1.325 2.12,-2.885 3.74,-4.68 1.39,-1.541 2.4,-2.71 3.01,-3.505 0.68,-0.867 1.18,-1.617 1.51,-2.249 0.33,-0.632 0.57,-1.228 0.72,-1.788 0.14,-0.56 0.21,-1.124 0.21,-1.69 0,-0.903 -0.14,-1.701 -0.43,-2.393 -0.29,-0.693 -0.73,-1.238 -1.33,-1.635 -0.59,-0.398 -1.34,-0.597 -2.25,-0.597 -2.25,0 -3.77,1.253 -4.55,3.758 h -2.19 v -3.469 c 1.46,-0.686 2.82,-1.183 4.1,-1.49 1.27,-0.307 2.41,-0.461 3.42,-0.461 z"
       fill-rule="evenodd"
       id="path217" />
    <text
       fill="#000000"
       fill-opacity="0"
       font-family="Arial, Arial_MSFontService, sans-serif"
       font-size="24.9497px"
       x="1171.3"
       y="255.709"
       id="text219">2</text>
    <rect
       x="906"
       y="436"
       width="76"
       height="75"
       stroke="#ededed"
       stroke-width="4"
       stroke-miterlimit="8"
       fill="none"
       id="rect221" />
    <rect
       x="981"
       y="436"
       width="76"
       height="75"
       stroke="#ededed"
       stroke-width="4"
       stroke-miterlimit="8"
       fill="none"
       id="rect223" />
    <rect
       x="981"
       y="360"
       width="76"
       height="76"
       stroke="#ededed"
       stroke-width="4"
       stroke-miterlimit="8"
       fill="none"
       id="rect225" />
    <rect
       x="981"
       y="284"
       width="76"
       height="76"
       stroke="#ededed"
       stroke-width="4"
       stroke-miterlimit="8"
       fill="none"
       id="rect227" />
    <rect
       x="906"
       y="284"
       width="75"
       height="76"
       stroke="#ededed"
       stroke-width="4"
       stroke-miterlimit="8"
       fill="none"
       id="rect229" />
    <rect
       x="1058"
       y="436"
       width="76"
       height="75"
       stroke="#ededed"
       stroke-width="4"
       stroke-miterlimit="8"
       fill="none"
       id="rect231" />
    <rect
       x="1057"
       y="360"
       width="76"
       height="76"
       stroke="#ededed"
       stroke-width="4"
       stroke-miterlimit="8"
       fill="none"
       id="rect233" />
    <rect
       x="1058"
       y="284"
       width="75"
       height="76"
       stroke="#ededed"
       stroke-width="4"
       stroke-miterlimit="8"
       fill="none"
       id="rect235" />
    <rect
       x="906"
       y="360"
       width="75"
       height="76"
       stroke="#ededed"
       stroke-width="4"
       stroke-miterlimit="8"
       fill="none"
       id="rect237" />
    <rect
       x="831"
       y="436"
       width="75"
       height="75"
       stroke="#ededed"
       stroke-width="4"
       stroke-miterlimit="8"
       fill="none"
       id="rect239" />
    <rect
       x="830"
       y="284"
       width="76"
       height="76"
       stroke="#ededed"
       stroke-width="4"
       stroke-miterlimit="8"
       fill="none"
       id="rect241" />
    <rect
       x="830"
       y="360"
       width="76"
       height="76"
       stroke="#ededed"
       stroke-width="4"
       stroke-miterlimit="8"
       fill="none"
       id="rect243" />
    <rect
       x="906"
       y="511"
       width="76"
       height="75"
       stroke="#ededed"
       stroke-width="4"
       stroke-miterlimit="8"
       fill="none"
       id="rect245" />
    <rect
       x="981"
       y="511"
       width="76"
       height="75"
       stroke="#ededed"
       stroke-width="4"
       stroke-miterlimit="8"
       fill="none"
       id="rect247" />
    <rect
       x="1058"
       y="511"
       width="76"
       height="75"
       stroke="#ededed"
       stroke-width="4"
       stroke-miterlimit="8"
       fill="none"
       id="rect249" />
    <rect
       x="831"
       y="511"
       width="75"
       height="75"
       stroke="#ededed"
       stroke-width="4"
       stroke-miterlimit="8"
       fill="none"
       id="rect251" />
    <path
       d="m 829,436 h 303.92"
       stroke="#bfbfbf"
       stroke-width="4"
       stroke-miterlimit="8"
       stroke-dasharray="12, 4"
       fill="none"
       fill-rule="evenodd"
       id="path253" />
    <path
       d="M 0,0 1.39265,301.928"
       stroke="#bfbfbf"
       stroke-width="4"
       stroke-miterlimit="8"
       stroke-dasharray="12, 4"
       fill="none"
       fill-rule="evenodd"
       transform="matrix(1,0,0,-1,981,585.928)"
       id="path255" />
    <text
       font-family="Calibri, Calibri_MSFontService, sans-serif"
       font-weight="400"
       font-size="32px"
       transform="translate(1061.66,482)"
       id="text259">(2, <tspan
   font-size="32px"
   x="41"
   y="0"
   id="tspan257">0)</tspan></text>
    <path
       d="M 1.9997,-0.0349248 3.29065,73.8815 -0.708741,73.9513 -1.9997,0.0349248 Z M 9.82523,62.7734 1.36027,77.8851 -7.62722,63.0782 c -0.57314,-0.9442 -0.2723,-2.1743 0.67194,-2.7474 0.94424,-0.5732 2.17431,-0.2723 2.74745,0.6719 L 3.00065,72.8786 -0.453938,72.939 6.33545,60.8186 c 0.53981,-0.9637 1.75863,-1.3073 2.72231,-0.7675 0.96364,0.5398 1.30724,1.7586 0.76747,2.7223 z"
       fill="#a6a6a6"
       transform="matrix(1,0,0,-1,981,435.876)"
       id="path261" />
    <path
       d="m 980,433 h 73.34 v 4 H 980 Z m 62.35,-6.727 14.96,8.727 -14.96,8.728 c -0.96,0.556 -2.18,0.234 -2.74,-0.72 -0.55,-0.954 -0.23,-2.179 0.72,-2.735 l 12,-7 v 3.455 l -12,-7 c -0.95,-0.557 -1.27,-1.782 -0.72,-2.736 0.56,-0.954 1.78,-1.276 2.74,-0.719 z"
       fill="#a6a6a6"
       id="path263" />
    <text
       font-family="Calibri, Calibri_MSFontService, sans-serif"
       font-weight="400"
       font-size="32px"
       transform="translate(911.232,332)"
       id="text267">(0, <tspan
   font-size="32px"
   x="41"
   y="0"
   id="tspan265">2)</tspan></text>
    <rect
       x="980"
       y="284"
       width="152"
       height="151"
       fill="#4472c4"
       fill-opacity="0.2"
       id="rect269" />
    <text
       font-family="Calibri, Calibri_MSFontService, sans-serif"
       font-weight="400"
       font-size="24px"
       transform="translate(1021.12,367)"
       id="text277">d<tspan
   font-size="24px"
   x="12.6666"
   y="0"
   id="tspan271">et(TS)</tspan><tspan
   font-size="24px"
   x="-142.828"
   y="260"
   id="tspan273">det(TS</tspan><tspan
   font-size="24px"
   x="-80.407898"
   y="260"
   id="tspan275">) = area of T(S)</tspan></text>
  </g>
</svg>
