<?xml version="1.0" encoding="UTF-8" standalone="no"?>
<svg
   width="1280"
   height="370"
   overflow="hidden"
   version="1.1"
   id="svg147"
   sodipodi:docname="linear_systems-steady_state_vectors.svg"
   inkscape:version="1.2 (dc2aedaf03, 2022-05-15)"
   xmlns:inkscape="http://www.inkscape.org/namespaces/inkscape"
   xmlns:sodipodi="http://sodipodi.sourceforge.net/DTD/sodipodi-0.dtd"
   xmlns="http://www.w3.org/2000/svg"
   xmlns:svg="http://www.w3.org/2000/svg">
  <sodipodi:namedview
     id="namedview149"
     pagecolor="#ffffff"
     bordercolor="#000000"
     borderopacity="0.25"
     inkscape:showpageshadow="2"
     inkscape:pageopacity="0.0"
     inkscape:pagecheckerboard="0"
     inkscape:deskcolor="#d1d1d1"
     showgrid="false"
     inkscape:zoom="1.3111111"
     inkscape:cx="689.11017"
     inkscape:cy="317.28814"
     inkscape:window-width="2560"
     inkscape:window-height="1494"
     inkscape:window-x="-11"
     inkscape:window-y="-11"
     inkscape:window-maximized="1"
     inkscape:current-layer="svg147" />
  <defs
     id="defs5">
    <clipPath
       id="clip0">
      <rect
         x="0"
         y="0"
         width="1280"
         height="720"
         id="rect2" />
    </clipPath>
  </defs>
  <g
     clip-path="url(#clip0)"
     id="g145"
     transform="translate(29.745763,-17.542373)">
    <rect
       x="0"
       y="0"
       width="1280"
       height="720"
       fill="#ffffff"
       id="rect7" />
    <text
       font-family="Calibri, Calibri_MSFontService, sans-serif"
       font-weight="400"
       font-size="43px"
       transform="translate(339.644,89)"
       id="text17">Finding the steady-state vector<tspan
   font-size="24px"
   x="-158.758"
   y="64"
   id="tspan9">The steady</tspan><tspan
   font-size="24px"
   x="-53.117802"
   y="64"
   id="tspan11">-</tspan><tspan
   font-size="24px"
   x="-45.7845"
   y="64"
   id="tspan13">state vector is the eigenvector</tspan><tspan
   font-family="'Cambria Math', 'Cambria Math_MSFontService', sans-serif"
   font-size="24px"
   x="252.976"
   y="64"
   id="tspan15">ğ‘</tspan></text>
    <path
       d="m 8.83594,-15.668 -2.94141,2.543 -0.62109,-0.7031 1.875,-1.6289 H 0 v -1.1016 h 7.14844 l -1.875,-1.6289 0.62109,-0.7031 2.94141,2.5429 z"
       transform="translate(596.18,153)"
       id="path19" />
    <text
       font-family="'Cambria Math', 'Cambria Math_MSFontService', sans-serif"
       font-weight="400"
       font-size="24px"
       transform="translate(606.346,153)"
       id="text29"><tspan
   font-family="Calibri, Calibri_MSFontService, sans-serif"
   font-size="24px"
   x="5.3333702"
   y="0"
   id="tspan21">corresponding to</tspan><tspan
   font-size="24px"
   x="177.25301"
   y="0"
   id="tspan23">Î»</tspan><tspan
   font-family="Calibri, Calibri_MSFontService, sans-serif"
   font-size="24px"
   x="194.42"
   y="0"
   id="tspan25">=1 i.e. when</tspan><tspan
   font-family="Calibri, Calibri_MSFontService, sans-serif"
   font-size="24px"
   x="319.08701"
   y="0"
   id="tspan27">T(</tspan>ğ‘¥</text>
    <path
       d="m 8.83594,-15.668 -2.94141,2.543 -0.62109,-0.7031 1.875,-1.6289 H 0 v -1.1016 h 7.14844 l -1.875,-1.6289 0.62109,-0.7031 2.94141,2.5429 z"
       transform="translate(948.227,153)"
       id="path31" />
    <text
       font-family="Calibri, Calibri_MSFontService, sans-serif"
       font-weight="400"
       font-size="24px"
       transform="translate(957.993,153)"
       id="text35">) = <tspan
   font-family="'Cambria Math', 'Cambria Math_MSFontService', sans-serif"
   font-size="24px"
   x="30.3333"
   y="0"
   id="tspan33">ğ‘¥</tspan></text>
    <path
       d="m 8.83594,-15.668 -2.94141,2.543 -0.62109,-0.7031 1.875,-1.6289 H 0 v -1.1016 h 7.14844 l -1.875,-1.6289 0.62109,-0.7031 2.94141,2.5429 z"
       transform="translate(992.12,153)"
       id="path37" />
    <text
       font-family="Calibri, Calibri_MSFontService, sans-serif"
       font-weight="400"
       font-size="24px"
       transform="translate(1001.89,153)"
       id="text45">. <tspan
   font-size="24px"
   x="-821"
   y="28"
   id="tspan39">The system converges to the steady</tspan>-<tspan
   font-size="24px"
   x="-467.46701"
   y="28"
   id="tspan41">state vector</tspan><tspan
   font-family="'Cambria Math', 'Cambria Math_MSFontService', sans-serif"
   font-size="24px"
   x="-347.14001"
   y="28"
   id="tspan43">ğ‘£</tspan></text>
    <path
       d="m 8.83594,-15.668 -2.94141,2.543 -0.62109,-0.7031 1.875,-1.6289 H 0 v -1.1016 h 7.14844 l -1.875,-1.6289 0.62109,-0.7031 2.94141,2.5429 z"
       transform="translate(658.82,181)"
       id="path47" />
    <text
       font-family="'Cambria Math', 'Cambria Math_MSFontService', sans-serif"
       font-weight="400"
       font-size="24px"
       transform="translate(668.447,181)"
       id="text59"><tspan
         font-family="Calibri, Calibri_MSFontService, sans-serif"
         font-size="24px"
         x="5.3333101"
         y="0"
         id="tspan49">as</tspan><tspan
         font-size="24px"
         x="31.666599"
         y="0"
         id="tspan51">ğ‘˜</tspan><tspan
         font-size="24px"
         x="52.200001"
         y="0"
         id="tspan53">â†’</tspan><tspan
         font-size="24px"
         x="79.033302"
         y="0"
         id="tspan55">âˆ</tspan><tspan
         font-family="Calibri, Calibri_MSFontService, sans-serif"
         font-size="24px"
         x="99.3666"
         y="0"
         id="tspan57">.</tspan></text>
    <path
       d="m 266,286.018 c 0,-4.98 4.038,-9.018 9.018,-9.018 h 121.964 c 4.98,0 9.018,4.038 9.018,9.018 v 51.964 c 0,4.98 -4.038,9.018 -9.018,9.018 H 275.018 c -4.98,0 -9.018,-4.038 -9.018,-9.018 z"
       fill="#e2f0d9"
       fill-rule="evenodd"
       id="path61" />
    <text
       font-family="'Cambria Math', 'Cambria Math_MSFontService', sans-serif"
       font-weight="400"
       font-size="24px"
       transform="translate(280.887,306)"
       id="text95">0<tspan
   font-size="24px"
   x="13.3333"
   y="0"
   id="tspan63">.</tspan>95<tspan
   font-size="24px"
   x="75.666702"
   y="0"
   id="tspan65">0</tspan><tspan
   font-size="24px"
   x="89"
   y="0"
   id="tspan67">.</tspan>1<tspan
   font-size="24px"
   x="0"
   y="28"
   id="tspan69">0</tspan><tspan
   font-size="24px"
   x="13.3333"
   y="28"
   id="tspan71">.</tspan>05<tspan
   font-size="24px"
   x="69"
   y="28"
   id="tspan73">0</tspan><tspan
   font-size="24px"
   x="82.333298"
   y="28"
   id="tspan75">.</tspan>90<tspan
   font-family="Calibri, Calibri_MSFontService, sans-serif"
   font-size="24px"
   x="28.500999"
   y="-69"
   id="tspan77">FROM</tspan><tspan
   font-family="Calibri, Calibri_MSFontService, sans-serif"
   font-size="24px"
   x="-92.440598"
   y="10"
   id="tspan79">TO</tspan><tspan
   font-family="Calibri, Calibri_MSFontService, sans-serif"
   font-size="24px"
   x="13.3812"
   y="-38"
   id="tspan81">S1</tspan><tspan
   font-family="Calibri, Calibri_MSFontService, sans-serif"
   font-size="24px"
   x="81.420303"
   y="-38"
   id="tspan83">S2</tspan><tspan
   font-family="Calibri, Calibri_MSFontService, sans-serif"
   font-size="24px"
   x="-50.652802"
   y="-2"
   id="tspan85">S1</tspan><tspan
   font-family="Calibri, Calibri_MSFontService, sans-serif"
   font-size="24px"
   x="-50.652802"
   y="28"
   id="tspan87">S2</tspan><tspan
   font-family="Calibri, Calibri_MSFontService, sans-serif"
   font-size="24px"
   x="157.019"
   y="-1"
   id="tspan89">If T</tspan><tspan
   font-family="Calibri, Calibri_MSFontService, sans-serif"
   font-size="24px"
   x="187.519"
   y="-1"
   id="tspan91">(</tspan><tspan
   font-size="24px"
   x="194.853"
   y="-1"
   id="tspan93">ğ‘¥</tspan></text>
    <path
       d="m 8.83594,-15.668 -2.94141,2.543 -0.62109,-0.7031 1.875,-1.6289 H 0 v -1.1016 h 7.14844 l -1.875,-1.6289 0.62109,-0.7031 2.94141,2.5429 z"
       transform="translate(479.533,305)"
       id="path97" />
    <text
       font-family="Calibri, Calibri_MSFontService, sans-serif"
       font-weight="400"
       font-size="24px"
       transform="translate(489.3,305)"
       id="text101">) = <tspan
   font-family="'Cambria Math', 'Cambria Math_MSFontService', sans-serif"
   font-size="24px"
   x="30.3333"
   y="0"
   id="tspan99">ğ‘¥</tspan></text>
    <path
       d="m 8.83594,-15.668 -2.94141,2.543 -0.62109,-0.7031 1.875,-1.6289 H 0 v -1.1016 h 7.14844 l -1.875,-1.6289 0.62109,-0.7031 2.94141,2.5429 z"
       transform="translate(523.426,305)"
       id="path103" />
    <text
       font-family="Calibri, Calibri_MSFontService, sans-serif"
       font-weight="400"
       font-size="24px"
       transform="translate(533.193,305)"
       id="text113">, we solve for (T<tspan
   font-size="24px"
   x="153.88"
   y="0"
   id="tspan105">-</tspan><tspan
   font-family="'Cambria Math', 'Cambria Math_MSFontService', sans-serif"
   font-size="24px"
   x="161.213"
   y="0"
   id="tspan107">1</tspan><tspan
   font-size="24px"
   x="174.547"
   y="0"
   id="tspan109">I)</tspan><tspan
   font-family="'Cambria Math', 'Cambria Math_MSFontService', sans-serif"
   font-size="24px"
   x="193.38"
   y="0"
   id="tspan111">ğ‘¥</tspan></text>
    <path
       d="m 8.83594,-15.668 -2.94141,2.543 -0.62109,-0.7031 1.875,-1.6289 H 0 v -1.1016 h 7.14844 l -1.875,-1.6289 0.62109,-0.7031 2.94141,2.5429 z"
       transform="translate(730.366,305)"
       id="path115" />
    <text
       font-family="Calibri, Calibri_MSFontService, sans-serif"
       font-weight="400"
       font-size="24px"
       transform="translate(745.633,305)"
       id="text119">= <tspan
   font-family="'Cambria Math', 'Cambria Math_MSFontService', sans-serif"
   font-size="24px"
   x="17.5"
   y="0"
   id="tspan117">0</tspan></text>
    <path
       d="m 773.521,281.824 2.941,2.543 v 0.68 l -2.941,2.543 -0.621,-0.703 1.875,-1.629 h -4.604 -2.545 -4.486 v -1.102 h 4.486 2.545 4.604 l -1.875,-1.629 z"
       fill-rule="evenodd"
       id="path121" />
    <text
       font-family="Calibri, Calibri_MSFontService, sans-serif"
       font-weight="400"
       font-size="24px"
       transform="translate(781.966,305)"
       id="text127">and find a probability vector <tspan
   font-size="24px"
   x="-344.06"
   y="29"
   id="tspan123">for</tspan><tspan
   font-family="'Cambria Math', 'Cambria Math_MSFontService', sans-serif"
   font-size="24px"
   x="-310.733"
   y="29"
   id="tspan125">ğ‘¥</tspan></text>
    <path
       d="m 8.83594,-15.668 -2.94141,2.543 -0.62109,-0.7031 1.875,-1.6289 H 0 v -1.1016 h 7.14844 l -1.875,-1.6289 0.62109,-0.7031 2.94141,2.5429 z"
       transform="translate(475.026,334)"
       id="path129" />
    <text
       font-family="Calibri, Calibri_MSFontService, sans-serif"
       font-weight="400"
       font-size="24px"
       transform="translate(490.293,334)"
       id="text133">(<tspan
   font-family="'Cambria Math', 'Cambria Math_MSFontService', sans-serif"
   font-size="24px"
   x="7.3333402"
   y="0"
   id="tspan131">ğ‘¥</tspan></text>
    <path
       d="m 8.83594,-15.668 -2.94141,2.543 -0.62109,-0.7031 1.875,-1.6289 H 0 v -1.1016 h 7.14844 l -1.875,-1.6289 0.62109,-0.7031 2.94141,2.5429 z"
       transform="translate(501.42,334)"
       id="path135" />
    <text
       font-family="'Cambria Math', 'Cambria Math_MSFontService', sans-serif"
       font-weight="400"
       font-size="24px"
       transform="translate(511.186,334)"
       id="text143"><tspan
         font-family="Calibri, Calibri_MSFontService, sans-serif"
         font-size="24px"
         x="5.3333402"
         y="0"
         id="tspan137">contains non</tspan><tspan
         font-family="Calibri, Calibri_MSFontService, sans-serif"
         font-size="24px"
         x="130.62"
         y="0"
         id="tspan139">-</tspan><tspan
         font-family="Calibri, Calibri_MSFontService, sans-serif"
         font-size="24px"
         x="137.953"
         y="0"
         id="tspan141">negative entries and sums to 1).</tspan></text>
  </g>
</svg>
