<?xml version="1.0" encoding="UTF-8" standalone="no"?>
<svg
   width="1000"
   height="580"
   overflow="hidden"
   version="1.1"
   id="svg235"
   sodipodi:docname="linear_systems-equivalence.svg"
   inkscape:version="1.2 (dc2aedaf03, 2022-05-15)"
   xmlns:inkscape="http://www.inkscape.org/namespaces/inkscape"
   xmlns:sodipodi="http://sodipodi.sourceforge.net/DTD/sodipodi-0.dtd"
   xmlns="http://www.w3.org/2000/svg"
   xmlns:svg="http://www.w3.org/2000/svg">
  <sodipodi:namedview
     id="namedview237"
     pagecolor="#ffffff"
     bordercolor="#000000"
     borderopacity="0.25"
     inkscape:showpageshadow="2"
     inkscape:pageopacity="0.0"
     inkscape:pagecheckerboard="0"
     inkscape:deskcolor="#d1d1d1"
     showgrid="false"
     inkscape:zoom="1.3111111"
     inkscape:cx="562.5"
     inkscape:cy="353.13559"
     inkscape:window-width="2560"
     inkscape:window-height="1494"
     inkscape:window-x="-11"
     inkscape:window-y="-11"
     inkscape:window-maximized="1"
     inkscape:current-layer="svg235" />
  <defs
     id="defs5" />
  <text
     font-family="'Cambria Math', 'Cambria Math_MSFontService', sans-serif"
     font-weight="400"
     font-size="32px"
     id="text47"
     x="113.24977"
     y="216.13559">洧논<tspan
   font-size="23px"
   x="129.19647"
   y="222.13559"
   id="tspan9">1</tspan><tspan
   font-family="Calibri, Calibri_MSFontService, sans-serif"
   font-size="32px"
   x="144.02307"
   y="216.13559"
   id="tspan11" /><tspan
   font-family="Calibri, Calibri_MSFontService, sans-serif"
   font-size="32px"
   x="151.18977"
   y="216.13559"
   id="tspan13">+</tspan><tspan
   font-family="Calibri, Calibri_MSFontService, sans-serif"
   font-size="32px"
   x="167.18977"
   y="216.13559"
   id="tspan15" /><tspan
   font-size="32px"
   x="174.35648"
   y="216.13559"
   id="tspan17">3</tspan><tspan
   font-size="32px"
   x="192.02307"
   y="216.13559"
   id="tspan19">洧논</tspan><tspan
   font-size="23px"
   x="208.70978"
   y="222.13559"
   id="tspan21">2</tspan><tspan
   font-size="32px"
   x="223.53677"
   y="216.13559"
   id="tspan23" /><tspan
   font-family="Calibri, Calibri_MSFontService, sans-serif"
   font-size="32px"
   x="230.53677"
   y="216.13559"
   id="tspan25">=</tspan> 2<tspan
   font-size="32px"
   x="119.01228"
   y="166.13559"
   id="tspan27">2</tspan><tspan
   font-size="32px"
   x="136.67897"
   y="166.13559"
   id="tspan29">洧논</tspan><tspan
   font-size="23px"
   x="152.62558"
   y="172.13559"
   id="tspan31">1</tspan><tspan
   font-size="32px"
   x="167.45227"
   y="166.13559"
   id="tspan33" />-<tspan
   font-size="32px"
   x="185.11897"
   y="166.13559"
   id="tspan35" />洧논<tspan
   font-size="23px"
   x="208.80568"
   y="172.13559"
   id="tspan37">2</tspan><tspan
   font-size="32px"
   x="223.63278"
   y="166.13559"
   id="tspan39" /><tspan
   font-family="Calibri, Calibri_MSFontService, sans-serif"
   font-size="32px"
   x="230.63278"
   y="166.13559"
   id="tspan41">=</tspan><tspan
   font-family="Calibri, Calibri_MSFontService, sans-serif"
   font-size="32px"
   x="253.79878"
   y="166.13559"
   id="tspan43">-</tspan><tspan
   font-family="Calibri, Calibri_MSFontService, sans-serif"
   font-size="32px"
   x="263.63281"
   y="166.13559"
   id="tspan45">6</tspan></text>
  <path
     d="m 103.40678,231.1356 c -7.455999,0 -13.500003,-5.314 -13.500003,-11.869 v -26.262 c 0,-6.555 -6.044,-11.869 -13.5,-11.869 7.456,0 13.5,-5.314 13.5,-11.869 v -26.262 c 0,-6.555 6.044004,-11.869 13.500003,-11.869"
     stroke="#000000"
     stroke-width="4"
     stroke-miterlimit="8"
     fill="none"
     fill-rule="evenodd"
     id="path49" />
  <path
     d="m 331.35578,299.2716 c 3.75,0 8.219,1.641 13.406,4.922 5.188,3.281 9.125,4.922 11.813,4.922 2.656,0 4.875,-0.703 6.656,-2.11 1.781,-1.406 3.578,-3.593 5.39,-6.562 l 3.75,2.531 c -1.343,2.781 -3.468,5.586 -6.375,8.414 -2.906,2.828 -6.437,4.242 -10.593,4.242 -4,0 -8.571,-1.64 -13.711,-4.922 -5.141,-3.281 -9.071,-4.921 -11.789,-4.921 -2.282,0 -4.282,0.718 -6,2.156 -1.719,1.437 -3.235,3.531 -4.547,6.281 l -3.656,-2.062 c 1.593,-3.688 3.703,-6.758 6.328,-9.211 2.625,-2.453 5.734,-3.68 9.328,-3.68 z"
     fill-rule="evenodd"
     id="path51" />
  <text
     fill="#000000"
     fill-opacity="0"
     font-family="Arial, Arial_MSFontService, sans-serif"
     font-size="16.3594px"
     x="315.6998"
     y="313.58563"
     id="text53">~</text>
  <text
     fill="#ff0000"
     font-family="Calibri, Calibri_MSFontService, sans-serif"
     font-weight="400"
     font-size="27px"
     id="text65"
     x="657.97076"
     y="458.13562">Interchange R<tspan
   font-size="18px"
   x="807.65778"
   y="464.13562"
   id="tspan55">1</tspan><tspan
   font-size="27px"
   x="822.65778"
   y="458.13562"
   id="tspan57">with R</tspan><tspan
   font-size="18px"
   x="891.32379"
   y="464.13562"
   id="tspan59">2</tspan><tspan
   fill="#000000"
   font-size="43px"
   x="372.68878"
   y="52.135597"
   id="tspan61">Equivalence</tspan><tspan
   fill="#000000"
   font-weight="700"
   font-size="43px"
   x="181.09578"
   y="111.1356"
   id="tspan63">A</tspan></text>
  <path
     d="m 331.35578,435.3496 c 3.75,0 8.219,1.641 13.406,4.922 5.188,3.281 9.125,4.922 11.813,4.922 2.656,0 4.875,-0.703 6.656,-2.11 1.781,-1.406 3.578,-3.593 5.39,-6.562 l 3.75,2.531 c -1.343,2.781 -3.468,5.586 -6.375,8.414 -2.906,2.828 -6.437,4.242 -10.593,4.242 -4,0 -8.571,-1.64 -13.711,-4.921 -5.141,-3.282 -9.071,-4.922 -11.789,-4.922 -2.282,0 -4.282,0.718 -6,2.156 -1.719,1.437 -3.235,3.531 -4.547,6.281 l -3.656,-2.062 c 1.593,-3.688 3.703,-6.758 6.328,-9.211 2.625,-2.453 5.734,-3.68 9.328,-3.68 z"
     fill-rule="evenodd"
     id="path67" />
  <text
     fill="#000000"
     fill-opacity="0"
     font-family="Arial, Arial_MSFontService, sans-serif"
     font-size="16.3594px"
     x="315.6998"
     y="449.66461"
     id="text69">~</text>
  <path
     d="m 436.40678,500.1356 c -7.456,0 -13.5,-5.314 -13.5,-11.869 v -26.262 c 0,-6.555 -6.044,-11.869 -13.5,-11.869 7.456,0 13.5,-5.314 13.5,-11.869 v -26.262 c 0,-6.555 6.044,-11.869 13.5,-11.869"
     stroke="#000000"
     stroke-width="4"
     stroke-miterlimit="8"
     fill="none"
     fill-rule="evenodd"
     id="path71" />
  <text
     fill="#ff0000"
     font-family="Calibri, Calibri_MSFontService, sans-serif"
     font-weight="400"
     font-size="27px"
     id="text77"
     x="657.97076"
     y="321.13562">Scale R<tspan
   font-size="18px"
   x="734.25079"
   y="327.13562"
   id="tspan73">2</tspan><tspan
   font-size="27px"
   x="749.25079"
   y="321.13562"
   id="tspan75">by 2</tspan></text>
  <path
     d="m 331.22378,165.1726 c 3.75,0 8.219,1.64 13.407,4.922 5.187,3.281 9.125,4.921 11.812,4.921 2.656,0 4.875,-0.703 6.656,-2.109 1.782,-1.406 3.578,-3.594 5.391,-6.562 l 3.75,2.531 c -1.344,2.781 -3.469,5.586 -6.375,8.414 -2.906,2.828 -6.438,4.242 -10.594,4.242 -4,0 -8.57,-1.641 -13.711,-4.922 -5.14,-3.281 -9.07,-4.922 -11.789,-4.922 -2.281,0 -4.281,0.719 -6,2.157 -1.719,1.437 -3.234,3.531 -4.547,6.281 l -3.656,-2.063 c 1.594,-3.687 3.703,-6.758 6.328,-9.211 2.625,-2.453 5.735,-3.679 9.328,-3.679 z"
     fill-rule="evenodd"
     id="path79" />
  <text
     fill="#000000"
     fill-opacity="0"
     font-family="Arial, Arial_MSFontService, sans-serif"
     font-size="16.3594px"
     x="315.56781"
     y="179.48657"
     id="text81">~</text>
  <text
     font-family="'Cambria Math', 'Cambria Math_MSFontService', sans-serif"
     font-weight="400"
     font-size="32px"
     id="text99"
     x="452.1048"
     y="212.13559">洧논<tspan
   font-size="23px"
   x="468.05151"
   y="218.13559"
   id="tspan83">1</tspan><tspan
   font-size="32px"
   x="482.8782"
   y="212.13559"
   id="tspan85" />+<tspan
   font-size="32px"
   x="513.71149"
   y="212.13559"
   id="tspan87" />3<tspan
   font-size="32px"
   x="538.37817"
   y="212.13559"
   id="tspan89">洧논</tspan><tspan
   font-size="23px"
   x="555.06476"
   y="218.13559"
   id="tspan91">2</tspan><tspan
   font-size="32px"
   x="569.89178"
   y="212.13559"
   id="tspan93" /><tspan
   font-family="Calibri, Calibri_MSFontService, sans-serif"
   font-size="32px"
   x="576.89178"
   y="212.13559"
   id="tspan95">=</tspan><tspan
   font-family="Calibri, Calibri_MSFontService, sans-serif"
   font-size="32px"
   x="600.0578"
   y="212.13559"
   id="tspan97">2</tspan></text>
  <path
     d="m 436.40678,230.1356 c -7.456,0 -13.5,-5.314 -13.5,-11.869 v -26.262 c 0,-6.555 -6.044,-11.869 -13.5,-11.869 7.456,0 13.5,-5.314 13.5,-11.869 v -26.262 c 0,-6.555 6.044,-11.869 13.5,-11.869"
     stroke="#000000"
     stroke-width="4"
     stroke-miterlimit="8"
     fill="none"
     fill-rule="evenodd"
     id="path101" />
  <text
     fill="#ff0000"
     font-family="Calibri, Calibri_MSFontService, sans-serif"
     font-weight="400"
     font-size="27px"
     id="text163"
     x="657.97076"
     y="191.13559">Replace R<tspan
   font-size="18px"
   x="763.50378"
   y="197.13559"
   id="tspan103">1</tspan><tspan
   font-size="27px"
   x="778.50378"
   y="191.13559"
   id="tspan105">with R</tspan><tspan
   font-size="18px"
   x="847.17078"
   y="197.13559"
   id="tspan107">1</tspan><tspan
   font-size="27px"
   x="862.17078"
   y="191.13559"
   id="tspan109">+ 2R</tspan><tspan
   font-size="18px"
   x="909.50378"
   y="197.13559"
   id="tspan111">2</tspan><tspan
   fill="#000000"
   font-family="'Cambria Math', 'Cambria Math_MSFontService', sans-serif"
   font-size="32px"
   x="448.28781"
   y="166.13559"
   id="tspan113">4</tspan><tspan
   fill="#000000"
   font-family="'Cambria Math', 'Cambria Math_MSFontService', sans-serif"
   font-size="32px"
   x="465.9548"
   y="166.13559"
   id="tspan115">洧논</tspan><tspan
   fill="#000000"
   font-family="'Cambria Math', 'Cambria Math_MSFontService', sans-serif"
   font-size="23px"
   x="481.90079"
   y="173.13559"
   id="tspan117">1</tspan><tspan
   fill="#000000"
   font-family="'Cambria Math', 'Cambria Math_MSFontService', sans-serif"
   font-size="32px"
   x="496.72781"
   y="166.13559"
   id="tspan119" /><tspan
   fill="#000000"
   font-family="'Cambria Math', 'Cambria Math_MSFontService', sans-serif"
   font-size="32px"
   x="503.72781"
   y="166.13559"
   id="tspan121">-</tspan><tspan
   fill="#000000"
   font-family="'Cambria Math', 'Cambria Math_MSFontService', sans-serif"
   font-size="32px"
   x="514.39478"
   y="166.13559"
   id="tspan123" /><tspan
   fill="#000000"
   font-family="'Cambria Math', 'Cambria Math_MSFontService', sans-serif"
   font-size="32px"
   x="521.39478"
   y="166.13559"
   id="tspan125">5</tspan><tspan
   fill="#000000"
   font-family="'Cambria Math', 'Cambria Math_MSFontService', sans-serif"
   font-size="32px"
   x="539.06177"
   y="166.13559"
   id="tspan127">洧논</tspan><tspan
   fill="#000000"
   font-family="'Cambria Math', 'Cambria Math_MSFontService', sans-serif"
   font-size="23px"
   x="555.7478"
   y="173.13559"
   id="tspan129">2</tspan><tspan
   fill="#000000"
   font-family="'Cambria Math', 'Cambria Math_MSFontService', sans-serif"
   font-size="32px"
   x="570.57458"
   y="166.13559"
   id="tspan131" /><tspan
   fill="#000000"
   font-size="32px"
   x="577.57458"
   y="166.13559"
   id="tspan133">=</tspan><tspan
   fill="#000000"
   font-size="32px"
   x="600.74127"
   y="166.13559"
   id="tspan135">-</tspan><tspan
   fill="#000000"
   font-size="32px"
   x="610.57458"
   y="166.13559"
   id="tspan137">2</tspan><tspan
   fill="#000000"
   font-family="'Cambria Math', 'Cambria Math_MSFontService', sans-serif"
   font-size="32px"
   x="440.6568"
   y="343.13562"
   id="tspan139">2</tspan><tspan
   fill="#000000"
   font-family="'Cambria Math', 'Cambria Math_MSFontService', sans-serif"
   font-size="32px"
   x="458.32281"
   y="343.13562"
   id="tspan141">洧논</tspan><tspan
   fill="#000000"
   font-family="'Cambria Math', 'Cambria Math_MSFontService', sans-serif"
   font-size="23px"
   x="474.26981"
   y="349.13562"
   id="tspan143">1</tspan><tspan
   fill="#000000"
   font-family="'Cambria Math', 'Cambria Math_MSFontService', sans-serif"
   font-size="32px"
   x="489.0968"
   y="343.13562"
   id="tspan145" /><tspan
   fill="#000000"
   font-family="'Cambria Math', 'Cambria Math_MSFontService', sans-serif"
   font-size="32px"
   x="496.0968"
   y="343.13562"
   id="tspan147">+</tspan><tspan
   fill="#000000"
   font-family="'Cambria Math', 'Cambria Math_MSFontService', sans-serif"
   font-size="32px"
   x="519.92975"
   y="343.13562"
   id="tspan149" /><tspan
   fill="#000000"
   font-family="'Cambria Math', 'Cambria Math_MSFontService', sans-serif"
   font-size="32px"
   x="526.92975"
   y="343.13562"
   id="tspan151">6</tspan><tspan
   fill="#000000"
   font-family="'Cambria Math', 'Cambria Math_MSFontService', sans-serif"
   font-size="32px"
   x="544.5968"
   y="343.13562"
   id="tspan153">洧논</tspan><tspan
   fill="#000000"
   font-family="'Cambria Math', 'Cambria Math_MSFontService', sans-serif"
   font-size="23px"
   x="561.28308"
   y="349.13562"
   id="tspan155">2</tspan><tspan
   fill="#000000"
   font-family="'Cambria Math', 'Cambria Math_MSFontService', sans-serif"
   font-size="32px"
   x="576.10968"
   y="343.13562"
   id="tspan157" /><tspan
   fill="#000000"
   font-size="32px"
   x="583.10968"
   y="343.13562"
   id="tspan159">=</tspan><tspan
   fill="#000000"
   font-size="32px"
   x="606.27637"
   y="343.13562"
   id="tspan161">4</tspan></text>
  <path
     d="m 438.40678,362.1356 c -9.389,0 -17,-6.691 -17,-14.946 v -20.108 c 0,-8.255 -7.611,-14.946 -17,-14.946 9.389,0 17,-6.691 17,-14.946 v -20.108 c 0,-8.255 7.611,-14.946 17,-14.946"
     stroke="#000000"
     stroke-width="4"
     stroke-miterlimit="8"
     fill="none"
     fill-rule="evenodd"
     id="path165" />
  <text
     font-family="'Cambria Math', 'Cambria Math_MSFontService', sans-serif"
     font-weight="400"
     font-size="32px"
     id="text231"
     x="452.1048"
     y="294.13562">4<tspan
   font-size="32px"
   x="469.77151"
   y="294.13562"
   id="tspan167">洧논</tspan><tspan
   font-size="23px"
   x="485.71811"
   y="301.13562"
   id="tspan169">1</tspan><tspan
   font-size="32px"
   x="500.5448"
   y="294.13562"
   id="tspan171" />-<tspan
   font-size="32px"
   x="518.21149"
   y="294.13562"
   id="tspan173" />5<tspan
   font-size="32px"
   x="542.87817"
   y="294.13562"
   id="tspan175">洧논</tspan><tspan
   font-size="23px"
   x="559.56476"
   y="301.13562"
   id="tspan177">2</tspan><tspan
   font-size="32px"
   x="574.39178"
   y="294.13562"
   id="tspan179" /><tspan
   font-family="Calibri, Calibri_MSFontService, sans-serif"
   font-size="32px"
   x="581.39178"
   y="294.13562"
   id="tspan181">=</tspan><tspan
   font-family="Calibri, Calibri_MSFontService, sans-serif"
   font-size="32px"
   x="604.5578"
   y="294.13562"
   id="tspan183">-</tspan><tspan
   font-family="Calibri, Calibri_MSFontService, sans-serif"
   font-size="32px"
   x="614.39178"
   y="294.13562"
   id="tspan185">2</tspan><tspan
   font-size="32px"
   x="440.65689"
   y="439.13562"
   id="tspan187">2</tspan><tspan
   font-size="32px"
   x="458.32349"
   y="439.13562"
   id="tspan189">洧논</tspan><tspan
   font-size="23px"
   x="474.2702"
   y="445.13562"
   id="tspan191">1</tspan><tspan
   font-size="32px"
   x="489.09689"
   y="439.13562"
   id="tspan193" />+<tspan
   font-size="32px"
   x="519.93018"
   y="439.13562"
   id="tspan195" />6<tspan
   font-size="32px"
   x="544.59686"
   y="439.13562"
   id="tspan197">洧논</tspan><tspan
   font-size="23px"
   x="561.28375"
   y="445.13562"
   id="tspan199">2</tspan><tspan
   font-size="32px"
   x="576.10974"
   y="439.13562"
   id="tspan201" /><tspan
   font-family="Calibri, Calibri_MSFontService, sans-serif"
   font-size="32px"
   x="583.1098"
   y="439.13562"
   id="tspan203">=</tspan><tspan
   font-family="Calibri, Calibri_MSFontService, sans-serif"
   font-size="32px"
   x="606.27679"
   y="439.13562"
   id="tspan205">4</tspan><tspan
   font-size="32px"
   x="453.35028"
   y="489.13562"
   id="tspan207">4</tspan><tspan
   font-size="32px"
   x="471.017"
   y="489.13562"
   id="tspan209">洧논</tspan><tspan
   font-size="23px"
   x="486.96359"
   y="495.13562"
   id="tspan211">1</tspan><tspan
   font-size="32px"
   x="501.79031"
   y="489.13562"
   id="tspan213" />-<tspan
   font-size="32px"
   x="519.45697"
   y="489.13562"
   id="tspan215" />5<tspan
   font-size="32px"
   x="544.1236"
   y="489.13562"
   id="tspan217">洧논</tspan><tspan
   font-size="23px"
   x="560.81079"
   y="495.13562"
   id="tspan219">2</tspan><tspan
   font-size="32px"
   x="575.63678"
   y="489.13562"
   id="tspan221" /><tspan
   font-family="Calibri, Calibri_MSFontService, sans-serif"
   font-size="32px"
   x="582.63678"
   y="489.13562"
   id="tspan223">=</tspan><tspan
   font-family="Calibri, Calibri_MSFontService, sans-serif"
   font-size="32px"
   x="605.80377"
   y="489.13562"
   id="tspan225">-</tspan><tspan
   font-family="Calibri, Calibri_MSFontService, sans-serif"
   font-size="32px"
   x="615.63678"
   y="489.13562"
   id="tspan227">2</tspan><tspan
   font-family="Calibri, Calibri_MSFontService, sans-serif"
   font-weight="700"
   font-size="43px"
   x="522.28729"
   y="558.13556"
   id="tspan229">B</tspan></text>
</svg>
