<?xml version="1.0" encoding="UTF-8" standalone="no"?>
<svg
   width="1200"
   height="560"
   overflow="hidden"
   version="1.1"
   id="svg239"
   sodipodi:docname="linear_systems-vector_scalar_multiplication.svg"
   inkscape:version="1.2 (dc2aedaf03, 2022-05-15)"
   xmlns:inkscape="http://www.inkscape.org/namespaces/inkscape"
   xmlns:sodipodi="http://sodipodi.sourceforge.net/DTD/sodipodi-0.dtd"
   xmlns="http://www.w3.org/2000/svg"
   xmlns:svg="http://www.w3.org/2000/svg">
  <sodipodi:namedview
     id="namedview241"
     pagecolor="#ffffff"
     bordercolor="#000000"
     borderopacity="0.25"
     inkscape:showpageshadow="2"
     inkscape:pageopacity="0.0"
     inkscape:pagecheckerboard="0"
     inkscape:deskcolor="#d1d1d1"
     showgrid="false"
     inkscape:zoom="1.3111111"
     inkscape:cx="629.61864"
     inkscape:cy="377.54237"
     inkscape:window-width="2560"
     inkscape:window-height="1494"
     inkscape:window-x="-11"
     inkscape:window-y="-11"
     inkscape:window-maximized="1"
     inkscape:current-layer="svg239" />
  <defs
     id="defs5">
    <clipPath
       id="clip0">
      <rect
         x="0"
         y="0"
         width="1280"
         height="720"
         id="rect2" />
    </clipPath>
  </defs>
  <g
     clip-path="url(#clip0)"
     id="g237"
     transform="translate(-30.508475,-42.711864)">
    <rect
       x="0"
       y="0"
       width="1280"
       height="720"
       fill="#ffffff"
       id="rect7" />
    <rect
       x="262"
       y="436"
       width="76"
       height="75"
       stroke="#ededed"
       stroke-width="4"
       stroke-miterlimit="8"
       fill="none"
       id="rect9" />
    <rect
       x="262"
       y="360"
       width="76"
       height="76"
       stroke="#ededed"
       stroke-width="4"
       stroke-miterlimit="8"
       fill="none"
       id="rect11" />
    <rect
       x="490"
       y="436"
       width="76"
       height="75"
       stroke="#ededed"
       stroke-width="4"
       stroke-miterlimit="8"
       fill="none"
       id="rect13" />
    <rect
       x="490"
       y="360"
       width="76"
       height="76"
       stroke="#ededed"
       stroke-width="4"
       stroke-miterlimit="8"
       fill="none"
       id="rect15" />
    <rect
       x="490"
       y="284"
       width="76"
       height="76"
       stroke="#ededed"
       stroke-width="4"
       stroke-miterlimit="8"
       fill="none"
       id="rect17" />
    <text
       fill="#ffffff"
       font-family="Calibri, Calibri_MSFontService, sans-serif"
       font-weight="400"
       font-size="24px"
       transform="translate(511.342,315)"
       id="text25">(<tspan
   font-size="24px"
   x="7.3333101"
   y="0"
   id="tspan19">-</tspan><tspan
   font-size="24px"
   x="14.6667"
   y="0"
   id="tspan21">2,</tspan><tspan
   font-size="24px"
   x="6.6666899"
   y="29"
   id="tspan23">1)</tspan></text>
    <rect
       x="490"
       y="209"
       width="76"
       height="75"
       stroke="#ededed"
       stroke-width="4"
       stroke-miterlimit="8"
       fill="none"
       id="rect27" />
    <rect
       x="112"
       y="436"
       width="75"
       height="75"
       stroke="#ededed"
       stroke-width="4"
       stroke-miterlimit="8"
       fill="none"
       id="rect29" />
    <rect
       x="112"
       y="360"
       width="75"
       height="76"
       stroke="#ededed"
       stroke-width="4"
       stroke-miterlimit="8"
       fill="none"
       id="rect31" />
    <rect
       x="112"
       y="209"
       width="75"
       height="75"
       stroke="#ededed"
       stroke-width="4"
       stroke-miterlimit="8"
       fill="none"
       id="rect33" />
    <rect
       x="187"
       y="436"
       width="75"
       height="75"
       stroke="#ededed"
       stroke-width="4"
       stroke-miterlimit="8"
       fill="none"
       id="rect35" />
    <rect
       x="187"
       y="360"
       width="75"
       height="76"
       stroke="#ededed"
       stroke-width="4"
       stroke-miterlimit="8"
       fill="none"
       id="rect37" />
    <rect
       x="262"
       y="284"
       width="75"
       height="76"
       stroke="#ededed"
       stroke-width="4"
       stroke-miterlimit="8"
       fill="none"
       id="rect39" />
    <rect
       x="262"
       y="209"
       width="76"
       height="75"
       stroke="#ededed"
       stroke-width="4"
       stroke-miterlimit="8"
       fill="none"
       id="rect41" />
    <rect
       x="186"
       y="209"
       width="76"
       height="75"
       stroke="#ededed"
       stroke-width="4"
       stroke-miterlimit="8"
       fill="none"
       id="rect43" />
    <rect
       x="339"
       y="436"
       width="75"
       height="75"
       stroke="#ededed"
       stroke-width="4"
       stroke-miterlimit="8"
       fill="none"
       id="rect45" />
    <rect
       x="339"
       y="360"
       width="75"
       height="76"
       stroke="#ededed"
       stroke-width="4"
       stroke-miterlimit="8"
       fill="none"
       id="rect47" />
    <rect
       x="414"
       y="436"
       width="75"
       height="75"
       stroke="#ededed"
       stroke-width="4"
       stroke-miterlimit="8"
       fill="none"
       id="rect49" />
    <rect
       x="414"
       y="360"
       width="75"
       height="76"
       stroke="#ededed"
       stroke-width="4"
       stroke-miterlimit="8"
       fill="none"
       id="rect51" />
    <rect
       x="414"
       y="284"
       width="75"
       height="76"
       stroke="#ededed"
       stroke-width="4"
       stroke-miterlimit="8"
       fill="none"
       id="rect53" />
    <rect
       x="414"
       y="209"
       width="75"
       height="75"
       stroke="#ededed"
       stroke-width="4"
       stroke-miterlimit="8"
       fill="none"
       id="rect55" />
    <rect
       x="338"
       y="284"
       width="76"
       height="76"
       stroke="#ededed"
       stroke-width="4"
       stroke-miterlimit="8"
       fill="none"
       id="rect57" />
    <rect
       x="338"
       y="209"
       width="76"
       height="75"
       stroke="#ededed"
       stroke-width="4"
       stroke-miterlimit="8"
       fill="none"
       id="rect59" />
    <path
       d="M 337.79,511.362 336,209"
       stroke="#000000"
       stroke-width="4"
       stroke-miterlimit="8"
       stroke-dasharray="12, 4"
       fill="none"
       fill-rule="evenodd"
       id="path61" />
    <rect
       x="112"
       y="284"
       width="75"
       height="76"
       stroke="#ededed"
       stroke-width="4"
       stroke-miterlimit="8"
       fill="none"
       id="rect63" />
    <rect
       x="186"
       y="284"
       width="76"
       height="76"
       stroke="#ededed"
       stroke-width="4"
       stroke-miterlimit="8"
       fill="none"
       id="rect65" />
    <path
       d="m 112,433 454.032,2.771"
       stroke="#000000"
       stroke-width="4"
       stroke-miterlimit="8"
       stroke-dasharray="12, 4"
       fill="none"
       fill-rule="evenodd"
       id="path67" />
    <text
       font-family="Calibri, Calibri_MSFontService, sans-serif"
       font-weight="400"
       font-size="43px"
       transform="translate(402.07,129)"
       id="text69">Scalar multiplication</text>
    <path
       d="m 335.924,433.215 -221.515,-219.009 2.812,-2.845 221.515,219.01 z m -218.427,-206.496 -4.504,-16.726 16.776,4.313 c 1.07,0.275 1.714,1.365 1.439,2.435 -0.275,1.07 -1.365,1.714 -2.435,1.439 l -13.455,-3.459 2.429,-2.457 3.612,13.415 c 0.287,1.066 -0.345,2.164 -1.411,2.451 -1.067,0.287 -2.164,-0.345 -2.451,-1.411 z"
       fill="#c00000"
       id="path71" />
    <path
       d="m 340.432,432.604 8.376,8.593 -2.864,2.792 -8.376,-8.593 z m 11.168,11.458 8.376,8.593 -2.865,2.792 -8.375,-8.593 z m 11.168,11.458 8.376,8.593 -2.865,2.792 -8.376,-8.593 z m 11.168,11.457 8.375,8.594 -2.864,2.792 -8.376,-8.594 z m 11.167,11.458 8.376,8.593 -2.864,2.792 -8.376,-8.593 z m 11.168,11.458 8.376,8.593 -2.864,2.792 -8.376,-8.593 z m 11.168,11.458 6.208,6.37 -2.864,2.791 -6.209,-6.369 z m 3.354,-6.198 4.193,16.806 -16.693,-4.622 c -1.064,-0.295 -1.688,-1.397 -1.394,-2.462 0.295,-1.064 1.397,-1.688 2.462,-1.393 l 13.388,3.707 -2.474,2.412 -3.363,-13.479 c -0.268,-1.072 0.384,-2.158 1.456,-2.425 1.072,-0.267 2.157,0.385 2.425,1.456 z"
       fill="#c00000"
       id="path73" />
    <path
       d="m 659.944,278.43 c 1.385,0 2.661,0.156 3.828,0.469 l -0.766,3.531 h -1.64 c -0.021,-0.792 -0.086,-1.365 -0.196,-1.719 -0.109,-0.354 -0.286,-0.62 -0.531,-0.797 -0.245,-0.177 -0.591,-0.265 -1.039,-0.265 -1.052,0 -1.997,0.419 -2.836,1.257 -0.839,0.839 -1.523,2.027 -2.055,3.563 -0.531,1.536 -0.797,3.013 -0.797,4.43 0,1.062 0.209,1.851 0.625,2.367 0.417,0.515 1.042,0.773 1.875,0.773 0.948,0 1.769,-0.179 2.461,-0.539 0.693,-0.359 1.425,-0.924 2.196,-1.695 l 0.953,0.953 c -0.979,1.083 -1.966,1.875 -2.961,2.375 -0.995,0.5 -2.065,0.75 -3.211,0.75 -1.51,0 -2.656,-0.448 -3.438,-1.344 -0.781,-0.896 -1.171,-2.198 -1.171,-3.906 0,-1.115 0.208,-2.338 0.625,-3.672 0.416,-1.333 1.026,-2.505 1.828,-3.515 0.802,-1.011 1.739,-1.766 2.812,-2.266 1.073,-0.5 2.219,-0.75 3.438,-0.75 z"
       fill-rule="evenodd"
       id="path75" />
    <text
       fill="#000000"
       fill-opacity="0"
       font-family="Arial, Arial_MSFontService, sans-serif"
       font-size="15.4531px"
       x="651.24103"
       y="291.95099"
       id="text77">ğ‘</text>
    <path
       d="m 670.327,278.414 c 0.667,0 1.193,0.224 1.578,0.672 0.385,0.448 0.578,1.052 0.578,1.813 0,0.823 -0.161,1.849 -0.484,3.078 l -0.688,2.703 c -0.177,0.687 -0.304,1.224 -0.383,1.609 -0.078,0.386 -0.135,0.719 -0.171,1 -0.037,0.282 -0.055,0.516 -0.055,0.703 0,0.719 0.12,1.237 0.359,1.555 0.24,0.318 0.63,0.477 1.172,0.477 0.438,0 0.909,-0.175 1.414,-0.524 0.505,-0.349 1.042,-0.875 1.61,-1.578 0.567,-0.703 1.023,-1.385 1.367,-2.047 0.344,-0.661 0.625,-1.476 0.844,-2.445 l 1.484,-6.766 h 2.703 l -2.281,9.907 c -0.229,1 -0.344,1.77 -0.344,2.312 0,0.417 0.068,0.719 0.203,0.906 0.136,0.188 0.349,0.282 0.641,0.282 0.312,0 0.646,-0.128 1,-0.383 0.354,-0.255 0.854,-0.742 1.5,-1.461 l 0.89,0.875 c -0.948,1.01 -1.755,1.724 -2.421,2.14 -0.667,0.417 -1.375,0.625 -2.125,0.625 -0.646,0 -1.162,-0.213 -1.547,-0.64 -0.386,-0.427 -0.578,-0.995 -0.578,-1.703 0,-0.563 0.125,-1.177 0.375,-1.844 l -0.188,-0.063 c -1.031,1.448 -2.008,2.516 -2.93,3.204 -0.922,0.687 -1.867,1.031 -2.836,1.031 -0.968,0 -1.713,-0.279 -2.234,-0.836 -0.521,-0.557 -0.781,-1.331 -0.781,-2.32 0,-0.657 0.151,-1.589 0.453,-2.797 l 1.016,-4.094 c 0.281,-1.135 0.421,-1.938 0.421,-2.406 0,-0.417 -0.067,-0.719 -0.203,-0.907 -0.135,-0.187 -0.349,-0.281 -0.64,-0.281 -0.323,0 -0.664,0.133 -1.024,0.399 -0.359,0.265 -0.851,0.747 -1.476,1.445 l -0.891,-0.875 c 0.885,-0.896 1.552,-1.51 2,-1.844 0.448,-0.333 0.878,-0.57 1.289,-0.711 0.412,-0.14 0.872,-0.211 1.383,-0.211 z"
       fill-rule="evenodd"
       id="path79" />
    <text
       fill="#000000"
       fill-opacity="0"
       font-family="Arial, Arial_MSFontService, sans-serif"
       font-size="15.4531px"
       x="665.65503"
       y="291.936"
       id="text81">ğ‘¢</text>
    <path
       d="m 687.499,268.43 3.922,3.391 v 0.906 l -3.922,3.39 -0.828,-0.937 2.5,-2.172 h -6.423 -3.108 -0.932 -4.04 -1.295 -4.04 -4.04 v -1.469 h 4.04 4.04 1.295 4.04 0.932 3.108 6.423 l -2.5,-2.172 z"
       fill-rule="evenodd"
       id="path83" />
    <path
       d="m 693.474,286.539 h 11.812 c 0.188,0 0.333,0.089 0.438,0.266 0.104,0.177 0.156,0.458 0.156,0.844 0,0.416 -0.06,0.703 -0.18,0.859 -0.12,0.156 -0.258,0.234 -0.414,0.234 h -11.812 c -0.157,0 -0.292,-0.078 -0.407,-0.234 -0.114,-0.156 -0.172,-0.443 -0.172,-0.859 0,-0.386 0.053,-0.667 0.157,-0.844 0.104,-0.177 0.245,-0.266 0.422,-0.266 z m 0,-6.062 h 11.812 c 0.188,0 0.333,0.088 0.438,0.265 0.104,0.178 0.156,0.454 0.156,0.829 0,0.416 -0.06,0.705 -0.18,0.867 -0.12,0.161 -0.258,0.242 -0.414,0.242 h -11.812 c -0.157,0 -0.292,-0.081 -0.407,-0.242 -0.114,-0.162 -0.172,-0.451 -0.172,-0.867 0,-0.375 0.053,-0.651 0.157,-0.829 0.104,-0.177 0.245,-0.265 0.422,-0.265 z"
       fill-rule="evenodd"
       id="path85" />
    <text
       fill="#000000"
       fill-opacity="0"
       font-family="Arial, Arial_MSFontService, sans-serif"
       font-size="8.26562px"
       x="692.89502"
       y="287.70901"
       id="text87">=</text>
    <path
       d="m 724.77,278.43 c 1.386,0 2.662,0.156 3.829,0.469 l -0.766,3.531 h -1.641 c -0.02,-0.792 -0.086,-1.365 -0.195,-1.719 -0.109,-0.354 -0.286,-0.62 -0.531,-0.797 -0.245,-0.177 -0.591,-0.265 -1.039,-0.265 -1.052,0 -1.998,0.419 -2.836,1.257 -0.839,0.839 -1.524,2.027 -2.055,3.563 -0.531,1.536 -0.797,3.013 -0.797,4.43 0,1.062 0.209,1.851 0.625,2.367 0.417,0.515 1.042,0.773 1.875,0.773 0.948,0 1.768,-0.179 2.461,-0.539 0.693,-0.359 1.425,-0.924 2.195,-1.695 l 0.954,0.953 c -0.98,1.083 -1.967,1.875 -2.961,2.375 -0.995,0.5 -2.065,0.75 -3.211,0.75 -1.511,0 -2.657,-0.448 -3.438,-1.344 -0.781,-0.896 -1.172,-2.198 -1.172,-3.906 0,-1.115 0.209,-2.338 0.625,-3.672 0.417,-1.333 1.026,-2.505 1.828,-3.515 0.803,-1.011 1.74,-1.766 2.813,-2.266 1.073,-0.5 2.219,-0.75 3.437,-0.75 z"
       fill-rule="evenodd"
       id="path89" />
    <text
       fill="#000000"
       fill-opacity="0"
       font-family="Arial, Arial_MSFontService, sans-serif"
       font-size="15.4531px"
       x="716.06702"
       y="291.95099"
       id="text91">ğ‘</text>
    <path
       d="m 786.343,216.093 h 9.219 v 136.781 h -9.219 v -1.781 h 5.781 V 217.874 h -5.781 z m -47.34,0 h 9.218 v 1.781 h -5.781 v 133.219 h 5.781 v 1.781 h -9.218 z"
       fill-rule="evenodd"
       id="path93" />
    <path
       d="m 757.247,220.481 c 0.667,0 1.193,0.224 1.578,0.672 0.385,0.448 0.578,1.052 0.578,1.812 0,0.823 -0.161,1.849 -0.484,3.078 l -0.688,2.704 c -0.177,0.687 -0.304,1.224 -0.383,1.609 -0.078,0.385 -0.135,0.719 -0.171,1 -0.037,0.281 -0.055,0.516 -0.055,0.703 0,0.719 0.12,1.237 0.359,1.555 0.24,0.317 0.63,0.476 1.172,0.476 0.438,0 0.909,-0.174 1.414,-0.523 0.505,-0.349 1.042,-0.875 1.61,-1.578 0.567,-0.703 1.023,-1.386 1.367,-2.047 0.344,-0.662 0.625,-1.477 0.844,-2.445 l 1.484,-6.766 h 2.703 l -2.281,9.906 c -0.229,1 -0.344,1.771 -0.344,2.313 0,0.416 0.068,0.718 0.203,0.906 0.136,0.187 0.349,0.281 0.641,0.281 0.312,0 0.646,-0.127 1,-0.383 0.354,-0.255 0.854,-0.742 1.5,-1.461 l 0.89,0.875 c -0.948,1.011 -1.755,1.724 -2.421,2.141 -0.667,0.417 -1.375,0.625 -2.125,0.625 -0.646,0 -1.162,-0.213 -1.547,-0.641 -0.386,-0.427 -0.578,-0.994 -0.578,-1.703 0,-0.562 0.125,-1.177 0.375,-1.843 l -0.188,-0.063 c -1.031,1.448 -2.008,2.516 -2.93,3.203 -0.922,0.688 -1.867,1.031 -2.836,1.031 -0.968,0 -1.713,-0.278 -2.234,-0.835 -0.521,-0.558 -0.781,-1.331 -0.781,-2.321 0,-0.656 0.151,-1.588 0.453,-2.797 l 1.016,-4.093 c 0.281,-1.136 0.421,-1.938 0.421,-2.407 0,-0.416 -0.067,-0.718 -0.203,-0.906 -0.135,-0.187 -0.349,-0.281 -0.64,-0.281 -0.323,0 -0.664,0.133 -1.024,0.398 -0.359,0.266 -0.851,0.748 -1.476,1.446 l -0.891,-0.875 c 0.885,-0.896 1.552,-1.511 2,-1.844 0.448,-0.333 0.878,-0.57 1.289,-0.711 0.412,-0.141 0.872,-0.211 1.383,-0.211 z"
       fill-rule="evenodd"
       id="path95" />
    <text
       fill="#000000"
       fill-opacity="0"
       font-family="Arial, Arial_MSFontService, sans-serif"
       font-size="15.4531px"
       x="752.57501"
       y="234.002"
       id="text97">ğ‘¢</text>
    <path
       d="m 777.157,228.523 h 0.564 c -0.041,0.657 -0.061,1.566 -0.061,2.728 v 8.757 c 0,0.396 0.022,0.695 0.066,0.897 0.045,0.202 0.123,0.366 0.236,0.492 0.113,0.127 0.275,0.226 0.487,0.298 0.212,0.071 0.479,0.126 0.8,0.164 0.321,0.037 0.745,0.063 1.272,0.077 v 0.748 h -7.578 v -0.748 c 0.759,-0.035 1.301,-0.081 1.625,-0.139 0.325,-0.058 0.573,-0.145 0.744,-0.261 0.171,-0.117 0.295,-0.281 0.374,-0.493 0.079,-0.211 0.118,-0.557 0.118,-1.035 v -8.316 c 0,-0.274 -0.048,-0.473 -0.144,-0.6 -0.095,-0.126 -0.236,-0.19 -0.42,-0.19 -0.219,0 -0.53,0.113 -0.933,0.339 -0.404,0.225 -0.903,0.536 -1.497,0.933 l -0.451,-0.79 z"
       fill-rule="evenodd"
       id="path99" />
    <text
       fill="#000000"
       fill-opacity="0"
       font-family="Arial, Arial_MSFontService, sans-serif"
       font-size="14.1606px"
       x="772.35901"
       y="240.914"
       id="text101">1</text>
    <path
       d="m 757.247,257.994 c 0.667,0 1.193,0.224 1.578,0.672 0.385,0.448 0.578,1.052 0.578,1.813 0,0.823 -0.161,1.849 -0.484,3.078 l -0.688,2.703 c -0.177,0.687 -0.304,1.224 -0.383,1.609 -0.078,0.386 -0.135,0.719 -0.171,1 -0.037,0.282 -0.055,0.516 -0.055,0.703 0,0.719 0.12,1.237 0.359,1.555 0.24,0.318 0.63,0.477 1.172,0.477 0.438,0 0.909,-0.175 1.414,-0.524 0.505,-0.349 1.042,-0.875 1.61,-1.578 0.567,-0.703 1.023,-1.385 1.367,-2.047 0.344,-0.661 0.625,-1.476 0.844,-2.445 l 1.484,-6.766 h 2.703 l -2.281,9.907 c -0.229,1 -0.344,1.77 -0.344,2.312 0,0.417 0.068,0.719 0.203,0.906 0.136,0.188 0.349,0.282 0.641,0.282 0.312,0 0.646,-0.128 1,-0.383 0.354,-0.255 0.854,-0.742 1.5,-1.461 l 0.89,0.875 c -0.948,1.01 -1.755,1.724 -2.421,2.14 -0.667,0.417 -1.375,0.625 -2.125,0.625 -0.646,0 -1.162,-0.213 -1.547,-0.64 -0.386,-0.427 -0.578,-0.995 -0.578,-1.703 0,-0.563 0.125,-1.177 0.375,-1.844 l -0.188,-0.063 c -1.031,1.448 -2.008,2.516 -2.93,3.204 -0.922,0.687 -1.867,1.031 -2.836,1.031 -0.968,0 -1.713,-0.279 -2.234,-0.836 -0.521,-0.557 -0.781,-1.331 -0.781,-2.32 0,-0.657 0.151,-1.589 0.453,-2.797 l 1.016,-4.094 c 0.281,-1.135 0.421,-1.938 0.421,-2.406 0,-0.417 -0.067,-0.719 -0.203,-0.907 -0.135,-0.187 -0.349,-0.281 -0.64,-0.281 -0.323,0 -0.664,0.133 -1.024,0.399 -0.359,0.265 -0.851,0.747 -1.476,1.445 l -0.891,-0.875 c 0.885,-0.896 1.552,-1.51 2,-1.844 0.448,-0.333 0.878,-0.57 1.289,-0.711 0.412,-0.14 0.872,-0.211 1.383,-0.211 z"
       fill-rule="evenodd"
       id="path103" />
    <text
       fill="#000000"
       fill-opacity="0"
       font-family="Arial, Arial_MSFontService, sans-serif"
       font-size="15.4531px"
       x="752.57501"
       y="271.51599"
       id="text105">ğ‘¢</text>
    <path
       d="m 776.429,266.037 c 1.272,0 2.232,0.278 2.882,0.835 0.649,0.558 0.974,1.366 0.974,2.426 0,0.362 -0.036,0.695 -0.108,0.999 -0.072,0.304 -0.184,0.605 -0.338,0.903 -0.154,0.297 -0.361,0.617 -0.621,0.958 -0.259,0.342 -0.546,0.689 -0.861,1.041 -0.314,0.352 -0.858,0.938 -1.63,1.759 -1.299,1.374 -2.253,2.573 -2.861,3.599 h 3.866 c 0.335,0 0.605,-0.021 0.81,-0.062 0.205,-0.041 0.369,-0.109 0.492,-0.205 0.123,-0.096 0.22,-0.22 0.292,-0.374 0.072,-0.154 0.162,-0.391 0.272,-0.713 h 0.871 l -0.174,2.994 h -8.439 v -0.492 c 0.294,-0.718 0.691,-1.452 1.19,-2.204 0.499,-0.752 1.206,-1.638 2.122,-2.656 0.793,-0.875 1.364,-1.538 1.712,-1.989 0.383,-0.493 0.669,-0.918 0.857,-1.277 0.188,-0.359 0.323,-0.697 0.405,-1.015 0.082,-0.318 0.123,-0.638 0.123,-0.959 0,-0.513 -0.082,-0.965 -0.246,-1.359 -0.164,-0.393 -0.416,-0.702 -0.754,-0.927 -0.338,-0.226 -0.764,-0.339 -1.277,-0.339 -1.278,0 -2.139,0.711 -2.584,2.133 h -1.24 v -1.969 c 0.827,-0.389 1.601,-0.671 2.322,-0.846 0.721,-0.174 1.369,-0.261 1.943,-0.261 z"
       fill-rule="evenodd"
       id="path107" />
    <text
       fill="#000000"
       fill-opacity="0"
       font-family="Arial, Arial_MSFontService, sans-serif"
       font-size="14.1606px"
       x="771.85602"
       y="278.427"
       id="text109">2</text>
    <path
       d="m 767.249,306.93 c 0.541,0 0.995,0.19 1.359,0.57 0.365,0.38 0.547,0.862 0.547,1.445 0,0.583 -0.182,1.065 -0.547,1.445 -0.364,0.381 -0.818,0.571 -1.359,0.571 -0.542,0 -0.995,-0.19 -1.36,-0.571 -0.364,-0.38 -0.546,-0.862 -0.546,-1.445 0,-0.583 0.182,-1.065 0.546,-1.445 0.365,-0.38 0.818,-0.57 1.36,-0.57 z m 0,-8.313 c 0.541,0 0.995,0.19 1.359,0.57 0.365,0.381 0.547,0.862 0.547,1.446 0,0.583 -0.182,1.065 -0.547,1.445 -0.364,0.38 -0.818,0.57 -1.359,0.57 -0.542,0 -0.995,-0.19 -1.36,-0.57 -0.364,-0.38 -0.546,-0.862 -0.546,-1.445 0,-0.584 0.182,-1.065 0.546,-1.446 0.365,-0.38 0.818,-0.57 1.36,-0.57 z m 0,-8.312 c 0.541,0 0.995,0.19 1.359,0.57 0.365,0.38 0.547,0.862 0.547,1.445 0,0.583 -0.182,1.065 -0.547,1.445 -0.364,0.381 -0.818,0.571 -1.359,0.571 -0.542,0 -0.995,-0.19 -1.36,-0.571 -0.364,-0.38 -0.546,-0.862 -0.546,-1.445 0,-0.583 0.182,-1.065 0.546,-1.445 0.365,-0.38 0.818,-0.57 1.36,-0.57 z"
       fill-rule="evenodd"
       id="path111" />
    <text
       fill="#000000"
       fill-opacity="0"
       font-family="Arial, Arial_MSFontService, sans-serif"
       font-size="20.6562px"
       x="765.34302"
       y="308.379"
       id="text113">â‹®</text>
    <path
       d="m 753.974,333.021 c 0.666,0 1.192,0.224 1.578,0.672 0.385,0.448 0.578,1.052 0.578,1.812 0,0.823 -0.162,1.849 -0.485,3.078 l -0.687,2.704 c -0.177,0.687 -0.305,1.224 -0.383,1.609 -0.078,0.385 -0.135,0.719 -0.172,1 -0.036,0.281 -0.054,0.516 -0.054,0.703 0,0.719 0.119,1.237 0.359,1.555 0.24,0.317 0.63,0.476 1.172,0.476 0.437,0 0.909,-0.174 1.414,-0.523 0.505,-0.349 1.042,-0.875 1.609,-1.578 0.568,-0.703 1.024,-1.386 1.367,-2.047 0.344,-0.662 0.625,-1.477 0.844,-2.445 l 1.485,-6.766 h 2.703 l -2.282,9.906 c -0.229,1 -0.343,1.771 -0.343,2.313 0,0.416 0.067,0.718 0.203,0.906 0.135,0.187 0.349,0.281 0.64,0.281 0.313,0 0.646,-0.127 1,-0.383 0.355,-0.255 0.855,-0.742 1.5,-1.461 l 0.891,0.875 c -0.948,1.011 -1.755,1.724 -2.422,2.141 -0.666,0.417 -1.375,0.625 -2.125,0.625 -0.646,0 -1.161,-0.213 -1.547,-0.641 -0.385,-0.427 -0.578,-0.994 -0.578,-1.703 0,-0.562 0.125,-1.177 0.375,-1.843 l -0.187,-0.063 c -1.032,1.448 -2.008,2.516 -2.93,3.203 -0.922,0.688 -1.867,1.031 -2.836,1.031 -0.969,0 -1.713,-0.278 -2.234,-0.835 -0.521,-0.558 -0.782,-1.331 -0.782,-2.321 0,-0.656 0.152,-1.588 0.454,-2.797 l 1.015,-4.093 c 0.281,-1.136 0.422,-1.938 0.422,-2.407 0,-0.416 -0.068,-0.718 -0.203,-0.906 -0.135,-0.187 -0.349,-0.281 -0.641,-0.281 -0.323,0 -0.664,0.133 -1.023,0.398 -0.359,0.266 -0.852,0.748 -1.477,1.446 l -0.89,-0.875 c 0.885,-0.896 1.552,-1.511 2,-1.844 0.448,-0.334 0.877,-0.57 1.289,-0.711 0.411,-0.141 0.872,-0.211 1.383,-0.211 z"
       fill-rule="evenodd"
       id="path115" />
    <text
       fill="#000000"
       fill-opacity="0"
       font-family="Arial, Arial_MSFontService, sans-serif"
       font-size="15.4531px"
       x="749.302"
       y="346.54199"
       id="text117">ğ‘¢</text>
    <path
       d="m 770.49,345.247 c 0.431,0 0.771,0.142 1.02,0.426 0.25,0.283 0.375,0.654 0.375,1.112 0,0.376 -0.079,0.776 -0.236,1.2 l 0.123,0.041 c 0.629,-0.937 1.254,-1.632 1.876,-2.087 0.622,-0.454 1.251,-0.682 1.887,-0.682 0.656,0 1.155,0.187 1.497,0.559 0.342,0.373 0.513,0.911 0.513,1.615 v 0.144 c 0,0.048 -0.004,0.099 -0.011,0.153 0.588,-0.833 1.174,-1.454 1.759,-1.861 0.584,-0.406 1.191,-0.61 1.82,-0.61 0.629,0 1.114,0.181 1.456,0.544 0.342,0.362 0.513,0.871 0.513,1.528 0,0.43 -0.099,1.042 -0.298,1.835 l -0.666,2.687 c -0.185,0.745 -0.277,1.271 -0.277,1.579 0,0.273 0.044,0.471 0.133,0.594 0.089,0.123 0.229,0.185 0.421,0.185 0.205,0 0.424,-0.084 0.656,-0.251 0.232,-0.168 0.561,-0.487 0.984,-0.959 l 0.585,0.574 c -0.588,0.622 -1.101,1.08 -1.538,1.374 -0.438,0.294 -0.937,0.441 -1.497,0.441 -0.445,0 -0.8,-0.159 -1.067,-0.477 -0.266,-0.318 -0.4,-0.723 -0.4,-1.215 0,-0.444 0.113,-1.097 0.339,-1.958 l 0.451,-1.774 c 0.164,-0.643 0.272,-1.118 0.323,-1.425 0.051,-0.308 0.077,-0.558 0.077,-0.749 0,-0.472 -0.079,-0.812 -0.236,-1.02 -0.157,-0.209 -0.414,-0.313 -0.769,-0.313 -0.287,0 -0.595,0.108 -0.923,0.323 -0.328,0.215 -0.673,0.55 -1.036,1.005 -0.362,0.454 -0.657,0.902 -0.886,1.343 -0.229,0.441 -0.412,0.979 -0.549,1.615 l -0.933,4.481 h -1.774 l 1.179,-5.209 c 0.144,-0.636 0.241,-1.106 0.292,-1.41 0.052,-0.304 0.077,-0.565 0.077,-0.784 0,-0.492 -0.087,-0.843 -0.261,-1.051 -0.175,-0.209 -0.446,-0.313 -0.815,-0.313 -0.26,0 -0.556,0.108 -0.887,0.323 -0.332,0.215 -0.686,0.561 -1.062,1.036 -0.376,0.475 -0.67,0.931 -0.881,1.369 -0.212,0.437 -0.39,0.97 -0.534,1.599 l -0.974,4.44 h -1.774 l 1.497,-6.501 c 0.151,-0.656 0.226,-1.162 0.226,-1.517 0,-0.274 -0.045,-0.472 -0.133,-0.595 -0.089,-0.123 -0.229,-0.185 -0.421,-0.185 -0.212,0 -0.436,0.087 -0.671,0.262 -0.236,0.174 -0.559,0.49 -0.969,0.948 l -0.585,-0.574 c 0.602,-0.629 1.119,-1.089 1.554,-1.379 0.434,-0.291 0.91,-0.436 1.43,-0.436 z"
       fill-rule="evenodd"
       id="path119" />
    <text
       fill="#000000"
       fill-opacity="0"
       font-family="Arial, Arial_MSFontService, sans-serif"
       font-size="10.1411px"
       x="767.50598"
       y="354.121"
       id="text121">ğ‘š</text>
    <text
       font-family="Calibri, Calibri_MSFontService, sans-serif"
       font-weight="400"
       font-size="32px"
       transform="translate(806.293,294)"
       id="text123">=</text>
    <path
       d="m 895.03,216.093 h 9.219 v 136.781 h -9.219 v -1.781 h 5.781 V 217.874 h -5.781 z m -62.008,0 h 9.219 v 1.781 h -5.781 v 133.219 h 5.781 v 1.781 h -9.219 z"
       fill-rule="evenodd"
       id="path125" />
    <path
       d="m 856.564,220.49 c 1.385,0 2.661,0.156 3.828,0.469 l -0.766,3.531 h -1.64 c -0.021,-0.792 -0.086,-1.365 -0.196,-1.719 -0.109,-0.354 -0.286,-0.62 -0.531,-0.797 -0.245,-0.177 -0.591,-0.265 -1.039,-0.265 -1.052,0 -1.997,0.419 -2.836,1.257 -0.838,0.839 -1.523,2.027 -2.055,3.563 -0.531,1.536 -0.796,3.013 -0.796,4.43 0,1.062 0.208,1.851 0.625,2.367 0.416,0.515 1.041,0.773 1.875,0.773 0.947,0 1.768,-0.179 2.46,-0.539 0.693,-0.359 1.425,-0.924 2.196,-1.695 l 0.953,0.953 c -0.979,1.083 -1.966,1.875 -2.961,2.375 -0.995,0.5 -2.065,0.75 -3.211,0.75 -1.51,0 -2.656,-0.448 -3.437,-1.344 -0.782,-0.896 -1.172,-2.198 -1.172,-3.906 0,-1.115 0.208,-2.338 0.625,-3.672 0.416,-1.333 1.026,-2.505 1.828,-3.515 0.802,-1.011 1.739,-1.766 2.812,-2.266 1.073,-0.5 2.219,-0.75 3.438,-0.75 z"
       fill-rule="evenodd"
       id="path127" />
    <text
       fill="#000000"
       fill-opacity="0"
       font-family="Arial, Arial_MSFontService, sans-serif"
       font-size="15.4531px"
       x="847.86102"
       y="234.011"
       id="text129">ğ‘</text>
    <path
       d="m 865.934,220.474 c 0.666,0 1.192,0.224 1.578,0.672 0.385,0.448 0.578,1.052 0.578,1.813 0,0.823 -0.162,1.849 -0.485,3.078 l -0.687,2.703 c -0.177,0.687 -0.305,1.224 -0.383,1.609 -0.078,0.386 -0.135,0.719 -0.172,1 -0.036,0.282 -0.054,0.516 -0.054,0.703 0,0.719 0.119,1.237 0.359,1.555 0.239,0.318 0.63,0.477 1.172,0.477 0.437,0 0.909,-0.175 1.414,-0.524 0.505,-0.349 1.042,-0.875 1.609,-1.578 0.568,-0.703 1.024,-1.385 1.367,-2.047 0.344,-0.661 0.625,-1.476 0.844,-2.445 l 1.485,-6.766 h 2.703 l -2.282,9.907 c -0.229,1 -0.343,1.77 -0.343,2.312 0,0.417 0.067,0.719 0.203,0.906 0.135,0.188 0.349,0.282 0.64,0.282 0.313,0 0.646,-0.128 1,-0.383 0.355,-0.255 0.855,-0.742 1.5,-1.461 l 0.891,0.875 c -0.948,1.01 -1.755,1.724 -2.422,2.14 -0.667,0.417 -1.375,0.625 -2.125,0.625 -0.646,0 -1.161,-0.213 -1.547,-0.64 -0.385,-0.427 -0.578,-0.995 -0.578,-1.703 0,-0.563 0.125,-1.177 0.375,-1.844 l -0.187,-0.063 c -1.032,1.448 -2.008,2.516 -2.93,3.204 -0.922,0.687 -1.867,1.031 -2.836,1.031 -0.969,0 -1.714,-0.279 -2.234,-0.836 -0.521,-0.557 -0.782,-1.331 -0.782,-2.32 0,-0.657 0.151,-1.589 0.454,-2.797 l 1.015,-4.094 c 0.281,-1.135 0.422,-1.938 0.422,-2.406 0,-0.417 -0.068,-0.719 -0.203,-0.907 -0.136,-0.187 -0.349,-0.281 -0.641,-0.281 -0.323,0 -0.664,0.133 -1.023,0.399 -0.36,0.265 -0.852,0.747 -1.477,1.445 l -0.89,-0.875 c 0.885,-0.896 1.552,-1.51 2,-1.844 0.448,-0.333 0.877,-0.57 1.289,-0.711 0.411,-0.14 0.872,-0.211 1.383,-0.211 z"
       fill-rule="evenodd"
       id="path131" />
    <text
       fill="#000000"
       fill-opacity="0"
       font-family="Arial, Arial_MSFontService, sans-serif"
       font-size="15.4531px"
       x="861.26202"
       y="233.996"
       id="text133">ğ‘¢</text>
    <path
       d="m 885.844,228.517 h 0.564 c -0.041,0.656 -0.062,1.565 -0.062,2.727 v 8.757 c 0,0.397 0.023,0.696 0.067,0.897 0.045,0.202 0.123,0.366 0.236,0.493 0.113,0.126 0.275,0.225 0.487,0.297 0.212,0.072 0.479,0.126 0.8,0.164 0.321,0.038 0.745,0.063 1.271,0.077 v 0.748 h -7.577 v -0.748 c 0.758,-0.034 1.3,-0.08 1.625,-0.139 0.325,-0.058 0.572,-0.145 0.743,-0.261 0.171,-0.116 0.296,-0.28 0.375,-0.492 0.078,-0.212 0.118,-0.557 0.118,-1.036 v -8.316 c 0,-0.273 -0.048,-0.473 -0.144,-0.6 -0.096,-0.126 -0.236,-0.189 -0.42,-0.189 -0.219,0 -0.53,0.112 -0.934,0.338 -0.403,0.226 -0.902,0.537 -1.497,0.933 l -0.451,-0.789 z"
       fill-rule="evenodd"
       id="path135" />
    <text
       fill="#000000"
       fill-opacity="0"
       font-family="Arial, Arial_MSFontService, sans-serif"
       font-size="14.1606px"
       x="881.04498"
       y="240.907"
       id="text137">1</text>
    <path
       d="m 856.564,258.003 c 1.385,0 2.661,0.157 3.828,0.469 l -0.766,3.531 h -1.64 c -0.021,-0.791 -0.086,-1.364 -0.196,-1.718 -0.109,-0.355 -0.286,-0.62 -0.531,-0.797 -0.245,-0.177 -0.591,-0.266 -1.039,-0.266 -1.052,0 -1.997,0.419 -2.836,1.258 -0.838,0.838 -1.523,2.026 -2.055,3.562 -0.531,1.537 -0.796,3.013 -0.796,4.43 0,1.063 0.208,1.852 0.625,2.367 0.416,0.516 1.041,0.774 1.875,0.774 0.947,0 1.768,-0.18 2.46,-0.539 0.693,-0.36 1.425,-0.925 2.196,-1.696 l 0.953,0.953 c -0.979,1.084 -1.966,1.875 -2.961,2.375 -0.995,0.5 -2.065,0.75 -3.211,0.75 -1.51,0 -2.656,-0.448 -3.437,-1.343 -0.782,-0.896 -1.172,-2.198 -1.172,-3.907 0,-1.114 0.208,-2.338 0.625,-3.671 0.416,-1.334 1.026,-2.506 1.828,-3.516 0.802,-1.011 1.739,-1.766 2.812,-2.266 1.073,-0.5 2.219,-0.75 3.438,-0.75 z"
       fill-rule="evenodd"
       id="path139" />
    <text
       fill="#000000"
       fill-opacity="0"
       font-family="Arial, Arial_MSFontService, sans-serif"
       font-size="15.4531px"
       x="847.86102"
       y="271.52499"
       id="text141">ğ‘</text>
    <path
       d="m 865.934,257.988 c 0.666,0 1.192,0.224 1.578,0.672 0.385,0.447 0.578,1.052 0.578,1.812 0,0.823 -0.162,1.849 -0.485,3.078 l -0.687,2.703 c -0.177,0.688 -0.305,1.224 -0.383,1.61 -0.078,0.385 -0.135,0.718 -0.172,1 -0.036,0.281 -0.054,0.515 -0.054,0.703 0,0.719 0.119,1.237 0.359,1.554 0.239,0.318 0.63,0.477 1.172,0.477 0.437,0 0.909,-0.174 1.414,-0.523 0.505,-0.349 1.042,-0.875 1.609,-1.579 0.568,-0.703 1.024,-1.385 1.367,-2.046 0.344,-0.662 0.625,-1.477 0.844,-2.446 l 1.485,-6.765 h 2.703 l -2.282,9.906 c -0.229,1 -0.343,1.771 -0.343,2.312 0,0.417 0.067,0.719 0.203,0.907 0.135,0.187 0.349,0.281 0.64,0.281 0.313,0 0.646,-0.128 1,-0.383 0.355,-0.255 0.855,-0.742 1.5,-1.461 l 0.891,0.875 c -0.948,1.011 -1.755,1.724 -2.422,2.141 -0.667,0.416 -1.375,0.625 -2.125,0.625 -0.646,0 -1.161,-0.214 -1.547,-0.641 -0.385,-0.427 -0.578,-0.995 -0.578,-1.703 0,-0.562 0.125,-1.177 0.375,-1.844 l -0.187,-0.062 c -1.032,1.448 -2.008,2.515 -2.93,3.203 -0.922,0.687 -1.867,1.031 -2.836,1.031 -0.969,0 -1.714,-0.279 -2.234,-0.836 -0.521,-0.557 -0.782,-1.331 -0.782,-2.32 0,-0.656 0.151,-1.589 0.454,-2.797 l 1.015,-4.094 c 0.281,-1.135 0.422,-1.937 0.422,-2.406 0,-0.417 -0.068,-0.719 -0.203,-0.906 -0.136,-0.188 -0.349,-0.281 -0.641,-0.281 -0.323,0 -0.664,0.132 -1.023,0.398 -0.36,0.266 -0.852,0.747 -1.477,1.445 l -0.89,-0.875 c 0.885,-0.896 1.552,-1.51 2,-1.843 0.448,-0.334 0.877,-0.571 1.289,-0.711 0.411,-0.141 0.872,-0.211 1.383,-0.211 z"
       fill-rule="evenodd"
       id="path143" />
    <text
       fill="#000000"
       fill-opacity="0"
       font-family="Arial, Arial_MSFontService, sans-serif"
       font-size="15.4531px"
       x="861.26202"
       y="271.509"
       id="text145">ğ‘¢</text>
    <path
       d="m 885.116,266.03 c 1.272,0 2.232,0.279 2.881,0.836 0.65,0.557 0.974,1.365 0.974,2.425 0,0.362 -0.035,0.695 -0.107,1 -0.072,0.304 -0.185,0.605 -0.339,0.902 -0.153,0.297 -0.36,0.617 -0.62,0.959 -0.26,0.341 -0.547,0.688 -0.861,1.04 -0.315,0.353 -0.858,0.939 -1.631,1.759 -1.298,1.374 -2.252,2.574 -2.86,3.599 h 3.865 c 0.335,0 0.605,-0.02 0.81,-0.061 0.205,-0.041 0.369,-0.11 0.493,-0.205 0.123,-0.096 0.22,-0.221 0.292,-0.375 0.072,-0.154 0.162,-0.391 0.271,-0.712 h 0.872 l -0.174,2.994 h -8.439 v -0.492 c 0.294,-0.718 0.69,-1.453 1.189,-2.205 0.499,-0.752 1.207,-1.637 2.123,-2.656 0.793,-0.875 1.364,-1.538 1.712,-1.989 0.383,-0.492 0.668,-0.918 0.856,-1.277 0.188,-0.359 0.323,-0.697 0.405,-1.015 0.082,-0.318 0.123,-0.637 0.123,-0.959 0,-0.512 -0.082,-0.965 -0.246,-1.358 -0.164,-0.393 -0.415,-0.703 -0.753,-0.928 -0.339,-0.226 -0.764,-0.339 -1.277,-0.339 -1.278,0 -2.14,0.711 -2.584,2.133 h -1.241 v -1.968 c 0.828,-0.39 1.602,-0.672 2.323,-0.846 0.721,-0.175 1.369,-0.262 1.943,-0.262 z"
       fill-rule="evenodd"
       id="path147" />
    <text
       fill="#000000"
       fill-opacity="0"
       font-family="Arial, Arial_MSFontService, sans-serif"
       font-size="14.1606px"
       x="880.54303"
       y="278.42099"
       id="text149">2</text>
    <path
       d="m 868.602,306.923 c 0.542,0 0.995,0.19 1.359,0.57 0.365,0.38 0.547,0.862 0.547,1.445 0,0.584 -0.182,1.066 -0.547,1.446 -0.364,0.38 -0.817,0.57 -1.359,0.57 -0.542,0 -0.995,-0.19 -1.359,-0.57 -0.365,-0.38 -0.547,-0.862 -0.547,-1.446 0,-0.583 0.182,-1.065 0.547,-1.445 0.364,-0.38 0.817,-0.57 1.359,-0.57 z m 0,-8.313 c 0.542,0 0.995,0.19 1.359,0.571 0.365,0.38 0.547,0.862 0.547,1.445 0,0.583 -0.182,1.065 -0.547,1.445 -0.364,0.381 -0.817,0.571 -1.359,0.571 -0.542,0 -0.995,-0.19 -1.359,-0.571 -0.365,-0.38 -0.547,-0.862 -0.547,-1.445 0,-0.583 0.182,-1.065 0.547,-1.445 0.364,-0.381 0.817,-0.571 1.359,-0.571 z m 0,-8.312 c 0.542,0 0.995,0.19 1.359,0.57 0.365,0.38 0.547,0.862 0.547,1.445 0,0.584 -0.182,1.066 -0.547,1.446 -0.364,0.38 -0.817,0.57 -1.359,0.57 -0.542,0 -0.995,-0.19 -1.359,-0.57 -0.365,-0.38 -0.547,-0.862 -0.547,-1.446 0,-0.583 0.182,-1.065 0.547,-1.445 0.364,-0.38 0.817,-0.57 1.359,-0.57 z"
       fill-rule="evenodd"
       id="path151" />
    <text
       fill="#000000"
       fill-opacity="0"
       font-family="Arial, Arial_MSFontService, sans-serif"
       font-size="20.6562px"
       x="866.69598"
       y="308.37201"
       id="text153">â‹®</text>
    <path
       d="m 853.29,333.03 c 1.386,0 2.662,0.156 3.829,0.469 l -0.766,3.531 h -1.641 c -0.021,-0.792 -0.086,-1.365 -0.195,-1.719 -0.109,-0.354 -0.286,-0.62 -0.531,-0.797 -0.245,-0.177 -0.591,-0.265 -1.039,-0.265 -1.052,0 -1.998,0.419 -2.836,1.258 -0.839,0.838 -1.524,2.026 -2.055,3.562 -0.531,1.536 -0.797,3.013 -0.797,4.43 0,1.062 0.208,1.851 0.625,2.367 0.417,0.516 1.042,0.773 1.875,0.773 0.948,0 1.768,-0.179 2.461,-0.539 0.693,-0.359 1.425,-0.924 2.195,-1.695 l 0.954,0.953 c -0.98,1.083 -1.967,1.875 -2.961,2.375 -0.995,0.5 -2.066,0.75 -3.211,0.75 -1.511,0 -2.657,-0.448 -3.438,-1.344 -0.781,-0.896 -1.172,-2.198 -1.172,-3.906 0,-1.115 0.209,-2.338 0.625,-3.672 0.417,-1.333 1.026,-2.505 1.828,-3.515 0.802,-1.011 1.74,-1.766 2.813,-2.266 1.073,-0.5 2.219,-0.75 3.437,-0.75 z"
       fill-rule="evenodd"
       id="path155" />
    <text
       fill="#000000"
       fill-opacity="0"
       font-family="Arial, Arial_MSFontService, sans-serif"
       font-size="15.4531px"
       x="844.58698"
       y="346.55099"
       id="text157">ğ‘</text>
    <path
       d="m 862.66,333.014 c 0.667,0 1.193,0.224 1.578,0.672 0.386,0.448 0.578,1.052 0.578,1.813 0,0.823 -0.161,1.849 -0.484,3.078 l -0.687,2.703 c -0.177,0.687 -0.305,1.224 -0.383,1.609 -0.078,0.386 -0.136,0.719 -0.172,1 -0.037,0.282 -0.055,0.516 -0.055,0.703 0,0.719 0.12,1.237 0.36,1.555 0.239,0.318 0.63,0.477 1.171,0.477 0.438,0 0.909,-0.175 1.415,-0.524 0.505,-0.349 1.041,-0.875 1.609,-1.578 0.568,-0.703 1.023,-1.385 1.367,-2.047 0.344,-0.661 0.625,-1.476 0.844,-2.445 l 1.484,-6.766 h 2.703 l -2.281,9.907 c -0.229,1 -0.344,1.77 -0.344,2.312 0,0.417 0.068,0.719 0.203,0.906 0.136,0.188 0.349,0.282 0.641,0.282 0.313,0 0.646,-0.128 1,-0.383 0.354,-0.255 0.854,-0.742 1.5,-1.461 l 0.891,0.875 c -0.948,1.01 -1.755,1.724 -2.422,2.14 -0.667,0.417 -1.375,0.625 -2.125,0.625 -0.646,0 -1.162,-0.213 -1.547,-0.64 -0.385,-0.427 -0.578,-0.995 -0.578,-1.703 0,-0.563 0.125,-1.177 0.375,-1.844 l -0.188,-0.063 c -1.031,1.448 -2.007,2.516 -2.929,3.204 -0.922,0.687 -1.868,1.031 -2.836,1.031 -0.969,0 -1.714,-0.279 -2.235,-0.836 -0.52,-0.557 -0.781,-1.331 -0.781,-2.32 0,-0.657 0.151,-1.589 0.453,-2.797 l 1.016,-4.094 c 0.281,-1.135 0.422,-1.938 0.422,-2.406 0,-0.417 -0.068,-0.719 -0.203,-0.907 -0.136,-0.187 -0.349,-0.281 -0.641,-0.281 -0.323,0 -0.664,0.133 -1.023,0.399 -0.36,0.265 -0.852,0.747 -1.477,1.445 l -0.891,-0.875 c 0.886,-0.896 1.552,-1.51 2,-1.844 0.448,-0.333 0.878,-0.57 1.289,-0.711 0.412,-0.14 0.873,-0.211 1.383,-0.211 z"
       fill-rule="evenodd"
       id="path159" />
    <text
       fill="#000000"
       fill-opacity="0"
       font-family="Arial, Arial_MSFontService, sans-serif"
       font-size="15.4531px"
       x="857.98798"
       y="346.53601"
       id="text161">ğ‘¢</text>
    <path
       d="m 879.177,345.24 c 0.43,0 0.77,0.142 1.02,0.426 0.249,0.284 0.374,0.654 0.374,1.112 0,0.376 -0.078,0.776 -0.236,1.2 l 0.123,0.041 c 0.629,-0.936 1.255,-1.632 1.877,-2.086 0.622,-0.455 1.251,-0.682 1.887,-0.682 0.656,0 1.155,0.186 1.497,0.558 0.341,0.373 0.512,0.911 0.512,1.615 v 0.144 c 0,0.048 -0.003,0.099 -0.01,0.154 0.588,-0.834 1.174,-1.455 1.759,-1.861 0.584,-0.407 1.191,-0.61 1.82,-0.61 0.629,0 1.114,0.181 1.456,0.543 0.342,0.362 0.512,0.872 0.512,1.528 0,0.431 -0.099,1.042 -0.297,1.835 l -0.666,2.687 c -0.185,0.745 -0.277,1.271 -0.277,1.579 0,0.273 0.044,0.472 0.133,0.595 0.089,0.123 0.229,0.184 0.42,0.184 0.205,0 0.424,-0.083 0.657,-0.251 0.232,-0.167 0.56,-0.487 0.984,-0.959 l 0.585,0.575 c -0.588,0.622 -1.101,1.08 -1.539,1.374 -0.437,0.294 -0.936,0.441 -1.497,0.441 -0.444,0 -0.799,-0.159 -1.066,-0.477 -0.267,-0.318 -0.4,-0.723 -0.4,-1.215 0,-0.445 0.113,-1.098 0.338,-1.959 l 0.452,-1.774 c 0.164,-0.642 0.271,-1.117 0.323,-1.425 0.051,-0.308 0.077,-0.557 0.077,-0.749 0,-0.471 -0.079,-0.811 -0.236,-1.02 -0.158,-0.208 -0.414,-0.313 -0.769,-0.313 -0.287,0 -0.595,0.108 -0.923,0.323 -0.328,0.216 -0.674,0.551 -1.036,1.005 -0.362,0.455 -0.658,0.903 -0.887,1.343 -0.229,0.441 -0.412,0.98 -0.548,1.615 l -0.934,4.481 h -1.773 l 1.179,-5.209 c 0.143,-0.635 0.241,-1.105 0.292,-1.409 0.051,-0.305 0.077,-0.566 0.077,-0.785 0,-0.492 -0.087,-0.842 -0.262,-1.051 -0.174,-0.208 -0.446,-0.313 -0.815,-0.313 -0.26,0 -0.555,0.108 -0.887,0.323 -0.331,0.216 -0.685,0.561 -1.061,1.036 -0.376,0.475 -0.67,0.931 -0.882,1.369 -0.212,0.437 -0.389,0.971 -0.533,1.599 l -0.974,4.44 h -1.774 l 1.497,-6.501 c 0.15,-0.656 0.226,-1.162 0.226,-1.517 0,-0.274 -0.045,-0.472 -0.134,-0.595 -0.089,-0.123 -0.229,-0.184 -0.42,-0.184 -0.212,0 -0.436,0.087 -0.672,0.261 -0.236,0.174 -0.559,0.491 -0.969,0.949 l -0.584,-0.575 c 0.601,-0.629 1.119,-1.088 1.553,-1.379 0.434,-0.29 0.911,-0.436 1.431,-0.436 z"
       fill-rule="evenodd"
       id="path163" />
    <text
       fill="#000000"
       fill-opacity="0"
       font-family="Arial, Arial_MSFontService, sans-serif"
       font-size="10.1411px"
       x="876.19299"
       y="354.11401"
       id="text165">ğ‘š</text>
    <text
       font-family="Calibri, Calibri_MSFontService, sans-serif"
       font-weight="400"
       font-size="32px"
       transform="translate(185.268,405)"
       id="text171">(<tspan
   font-size="32px"
   x="9.6666698"
   y="0"
   id="tspan167">-</tspan><tspan
   font-size="32px"
   x="19.5"
   y="0"
   id="tspan169">1, 1)</tspan></text>
    <path
       d="m 334.877,432.849 -76.414,-73.661 2.776,-2.88 76.414,73.661 z m -73.169,-61.188 -4.715,-16.667 16.829,4.1 c 1.073,0.261 1.731,1.343 1.47,2.416 -0.262,1.073 -1.344,1.731 -2.417,1.47 l -13.497,-3.289 2.398,-2.487 3.781,13.368 c 0.301,1.063 -0.317,2.168 -1.38,2.469 -1.063,0.3 -2.168,-0.318 -2.469,-1.38 z"
       fill="#44546a"
       id="path173" />
    <text
       font-family="'Cambria Math', 'Cambria Math_MSFontService', sans-serif"
       font-weight="400"
       font-size="27px"
       transform="translate(619.36,443)"
       id="text175">3</text>
    <path
       d="m 677.14,413.551 h 6.276 v 44.297 h -6.276 v -1.147 h 3.837 v -42.003 h -3.837 z m -35.507,0 h 6.276 v 1.147 h -3.837 v 42.003 h 3.837 v 1.147 h -6.276 z"
       fill-rule="evenodd"
       id="path177" />
    <text
       font-family="Calibri, Calibri_MSFontService, sans-serif"
       font-weight="400"
       font-size="27px"
       transform="translate(648.38,429)"
       id="text185">âˆ’<tspan
   font-family="'Cambria Math', 'Cambria Math_MSFontService', sans-serif"
   font-size="27px"
   x="13.3333"
   y="0"
   id="tspan179">1</tspan><tspan
   font-family="'Cambria Math', 'Cambria Math_MSFontService', sans-serif"
   font-size="27px"
   x="6.6666298"
   y="31"
   id="tspan181">1</tspan><tspan
   font-family="'Cambria Math', 'Cambria Math_MSFontService', sans-serif"
   font-size="27px"
   x="45.313301"
   y="14"
   id="tspan183">=</tspan></text>
    <path
       d="m 759.967,408.844 h 6.631 v 53.71 h -6.631 v -1.213 h 4.047 v -51.284 h -4.047 z m -35.861,0 h 6.632 v 1.213 h -4.048 v 51.284 h 4.048 v 1.213 h -6.632 z"
       fill-rule="evenodd"
       id="path187" />
    <text
       font-family="Calibri, Calibri_MSFontService, sans-serif"
       font-weight="400"
       font-size="27px"
       transform="translate(731.207,429)"
       id="text199">âˆ’<tspan
   font-family="'Cambria Math', 'Cambria Math_MSFontService', sans-serif"
   font-size="27px"
   x="13.3333"
   y="0"
   id="tspan189">3</tspan><tspan
   font-family="'Cambria Math', 'Cambria Math_MSFontService', sans-serif"
   font-size="27px"
   x="6.6666899"
   y="31"
   id="tspan191">3</tspan><tspan
   font-size="27px"
   x="44.2733"
   y="14"
   id="tspan193">i.e. the scaled vector is 3 times as long</tspan><tspan
   font-family="'Cambria Math', 'Cambria Math_MSFontService', sans-serif"
   font-size="27px"
   x="-119.407"
   y="80"
   id="tspan195">âˆ’</tspan><tspan
   font-family="'Cambria Math', 'Cambria Math_MSFontService', sans-serif"
   font-size="27px"
   x="-99.406601"
   y="80"
   id="tspan197">1</tspan></text>
    <path
       d="m 689.58,478.754 h 6.276 v 44.297 h -6.276 v -1.147 h 3.837 v -42.003 h -3.837 z m -35.507,0 h 6.276 v 1.147 h -3.837 v 42.003 h 3.837 v 1.147 h -6.276 z"
       fill-rule="evenodd"
       id="path201" />
    <text
       font-family="Calibri, Calibri_MSFontService, sans-serif"
       font-weight="400"
       font-size="27px"
       transform="translate(660.82,494)"
       id="text209">âˆ’<tspan
   font-family="'Cambria Math', 'Cambria Math_MSFontService', sans-serif"
   font-size="27px"
   x="13.3334"
   y="0"
   id="tspan203">1</tspan><tspan
   font-family="'Cambria Math', 'Cambria Math_MSFontService', sans-serif"
   font-size="27px"
   x="6.6666899"
   y="32"
   id="tspan205">1</tspan><tspan
   font-family="'Cambria Math', 'Cambria Math_MSFontService', sans-serif"
   font-size="27px"
   x="45.3134"
   y="15"
   id="tspan207">=</tspan></text>
    <path
       d="m 772.04,478.754 h 6.276 v 44.297 h -6.276 v -1.147 h 3.837 v -42.003 h -3.837 z m -35.507,0 h 6.276 v 1.147 h -3.837 v 42.003 h 3.837 v 1.147 h -6.276 z"
       fill-rule="evenodd"
       id="path211" />
    <text
       font-family="'Cambria Math', 'Cambria Math_MSFontService', sans-serif"
       font-weight="400"
       font-size="27px"
       transform="translate(749.947,494)"
       id="text235">1<tspan
   font-family="Calibri, Calibri_MSFontService, sans-serif"
   font-size="27px"
   x="-6.6666899"
   y="32"
   id="tspan213">âˆ’</tspan><tspan
   font-size="27px"
   x="6.6666899"
   y="32"
   id="tspan215">1</tspan><tspan
   font-family="Calibri, Calibri_MSFontService, sans-serif"
   font-size="27px"
   x="37.240002"
   y="15"
   id="tspan217">i.e. the vector direction is reversed</tspan><tspan
   font-family="Calibri, Calibri_MSFontService, sans-serif"
   font-size="32px"
   x="-697.84497"
   y="-304"
   id="tspan219">(</tspan><tspan
   font-family="Calibri, Calibri_MSFontService, sans-serif"
   font-size="32px"
   x="-688.17798"
   y="-304"
   id="tspan221">-</tspan><tspan
   font-family="Calibri, Calibri_MSFontService, sans-serif"
   font-size="32px"
   x="-678.34497"
   y="-304"
   id="tspan223">3, 1)</tspan><tspan
   font-family="Calibri, Calibri_MSFontService, sans-serif"
   font-size="32px"
   x="-348.065"
   y="53"
   id="tspan225">(1</tspan><tspan
   font-family="Calibri, Calibri_MSFontService, sans-serif"
   font-size="32px"
   x="-322.23099"
   y="53"
   id="tspan227">,</tspan><tspan
   font-family="Calibri, Calibri_MSFontService, sans-serif"
   font-size="32px"
   x="-307.065"
   y="53"
   id="tspan229">-</tspan><tspan
   font-family="Calibri, Calibri_MSFontService, sans-serif"
   font-size="32px"
   x="-297.23099"
   y="53"
   id="tspan231">1</tspan><tspan
   font-family="Calibri, Calibri_MSFontService, sans-serif"
   font-size="32px"
   x="-281.065"
   y="53"
   id="tspan233">)</tspan></text>
  </g>
</svg>
