<svg width="1280" height="720" xmlns="http://www.w3.org/2000/svg" xmlns:xlink="http://www.w3.org/1999/xlink" overflow="hidden"><defs><clipPath id="clip0"><rect x="0" y="0" width="1280" height="720"/></clipPath></defs><g clip-path="url(#clip0)"><rect x="0" y="0" width="1280" height="720" fill="#FFFFFF"/><rect x="150" y="445" width="76" height="76" stroke="#EDEDED" stroke-width="4" stroke-miterlimit="8" fill="none"/><rect x="75" y="445" width="75" height="76" stroke="#EDEDED" stroke-width="4" stroke-miterlimit="8" fill="none"/><rect x="226" y="445" width="75" height="76" stroke="#EDEDED" stroke-width="4" stroke-miterlimit="8" fill="none"/><rect x="226" y="369" width="75" height="76" stroke="#EDEDED" stroke-width="4" stroke-miterlimit="8" fill="none"/><rect x="301" y="445" width="76" height="76" stroke="#EDEDED" stroke-width="4" stroke-miterlimit="8" fill="none"/><rect x="301" y="369" width="76" height="76" stroke="#EDEDED" stroke-width="4" stroke-miterlimit="8" fill="none"/><rect x="301" y="294" width="75" height="75" stroke="#EDEDED" stroke-width="4" stroke-miterlimit="8" fill="none"/><rect x="301" y="218" width="76" height="76" stroke="#EDEDED" stroke-width="4" stroke-miterlimit="8" fill="none"/><rect x="225" y="294" width="76" height="75" stroke="#EDEDED" stroke-width="4" stroke-miterlimit="8" fill="none"/><rect x="225" y="218" width="76" height="76" stroke="#EDEDED" stroke-width="4" stroke-miterlimit="8" fill="none"/><rect x="150" y="369" width="76" height="76" stroke="#EDEDED" stroke-width="4" stroke-miterlimit="8" fill="none"/><rect x="150" y="294" width="76" height="75" stroke="#EDEDED" stroke-width="4" stroke-miterlimit="8" fill="none"/><rect x="75" y="369" width="75" height="76" stroke="#EDEDED" stroke-width="4" stroke-miterlimit="8" fill="none"/><rect x="75" y="294" width="75" height="75" stroke="#EDEDED" stroke-width="4" stroke-miterlimit="8" fill="none"/><rect x="150" y="218" width="76" height="76" stroke="#EDEDED" stroke-width="4" stroke-miterlimit="8" fill="none"/><rect x="75" y="218" width="75" height="76" stroke="#EDEDED" stroke-width="4" stroke-miterlimit="8" fill="none"/><rect x="376" y="445" width="76" height="76" stroke="#EDEDED" stroke-width="4" stroke-miterlimit="8" fill="none"/><rect x="376" y="369" width="76" height="76" stroke="#EDEDED" stroke-width="4" stroke-miterlimit="8" fill="none"/><rect x="451" y="445" width="76" height="76" stroke="#EDEDED" stroke-width="4" stroke-miterlimit="8" fill="none"/><rect x="451" y="369" width="76" height="76" stroke="#EDEDED" stroke-width="4" stroke-miterlimit="8" fill="none"/><rect x="451" y="294" width="76" height="75" stroke="#EDEDED" stroke-width="4" stroke-miterlimit="8" fill="none"/><rect x="451" y="218" width="76" height="76" stroke="#EDEDED" stroke-width="4" stroke-miterlimit="8" fill="none"/><rect x="376" y="294" width="75" height="75" stroke="#EDEDED" stroke-width="4" stroke-miterlimit="8" fill="none"/><rect x="376" y="218" width="75" height="76" stroke="#EDEDED" stroke-width="4" stroke-miterlimit="8" fill="none"/><path d="M75 445 527.205 445" stroke="#000000" stroke-width="4" stroke-miterlimit="8" stroke-dasharray="12 4" fill="none" fill-rule="evenodd"/><path d="M0 0 0.794646 302.362" stroke="#000000" stroke-width="4" stroke-miterlimit="8" stroke-dasharray="12 4" fill="none" fill-rule="evenodd" transform="matrix(1 0 0 -1 300 520.362)"/><text font-family="Calibri,Calibri_MSFontService,sans-serif" font-weight="400" font-size="48" transform="translate(264.411 192)">2+3i<tspan font-size="32" x="272.456" y="261">(0, 1)</tspan><tspan font-size="32" x="8.2699" y="363">(i, 0)</tspan></text><path d="M300 443 312 443 312 447 300 447ZM316 443 328 443 328 447 316 447ZM332 443 344 443 344 447 332 447ZM348 443 360 443 360 447 348 447ZM364 443 376 443 376 447 364 447ZM380 443 392 443 392 447 380 447ZM396 443 408 443 408 447 396 447ZM412 443 424 443 424 447 412 447ZM428 443 440 443 440 447 428 447ZM444 443 454.891 443 454.891 447 444 447ZM443.898 436.273 458.86 445 443.898 453.728C442.944 454.284 441.72 453.962 441.163 453.008 440.607 452.054 440.929 450.829 441.883 450.273L453.883 443.273 453.883 446.728 441.883 439.728C440.929 439.171 440.607 437.946 441.163 436.992 441.72 436.038 442.944 435.716 443.898 436.273Z" fill="#2F5597"/><path d="M2-9.22363e-07 2.00001 12-1.99999 12-2 9.22363e-07ZM2.00001 16 2.00001 28-1.99999 28-1.99999 16ZM2.00001 32 2.00002 44-1.99998 44-1.99999 32ZM2.00002 48 2.00003 60-1.99997 60-1.99998 48ZM2.00003 64 2.00004 76-1.99996 76-1.99997 64ZM2.00004 80 2.00004 92-1.99996 92-1.99996 80ZM2.00004 96 2.00005 108-1.99995 108-1.99996 96ZM2.00005 112 2.00006 124-1.99994 124-1.99995 112ZM2.00006 128 2.00006 140-1.99994 140-1.99994 128ZM2.00007 144 2.00007 156-1.99993 156-1.99993 144ZM2.00007 160 2.00008 172-1.99992 172-1.99993 160ZM2.00008 176 2.00009 188-1.99991 188-1.99992 176ZM2.00009 192 2.00009 204-1.99991 204-1.99991 192ZM2.0001 208 2.0001 220-1.9999 220-1.9999 208ZM8.72766 212.695 0.000104667 227.657-8.72746 212.695C-9.28402 211.741-8.96175 210.517-8.00764 209.96-7.05354 209.404-5.82891 209.726-5.27234 210.68L1.72766 222.68-1.72746 222.68 5.27254 210.68C5.8291 209.726 7.05373 209.404 8.00784 209.96 8.96194 210.517 9.28422 211.741 8.72766 212.695Z" fill="#2F5597" transform="matrix(1 0 0 -1 451 445.648)"/><path d="M0 0 150.378 226.772" stroke="#FF0000" stroke-width="4" stroke-miterlimit="8" fill="none" fill-rule="evenodd" transform="matrix(-1 0 0 1 451.378 218)"/><rect x="738" y="445" width="76" height="76" stroke="#EDEDED" stroke-width="4" stroke-miterlimit="8" fill="none"/><rect x="663" y="445" width="75" height="76" stroke="#EDEDED" stroke-width="4" stroke-miterlimit="8" fill="none"/><rect x="814" y="445" width="76" height="76" stroke="#EDEDED" stroke-width="4" stroke-miterlimit="8" fill="none"/><rect x="814" y="369" width="76" height="76" stroke="#EDEDED" stroke-width="4" stroke-miterlimit="8" fill="none"/><rect x="889" y="445" width="76" height="76" stroke="#EDEDED" stroke-width="4" stroke-miterlimit="8" fill="none"/><rect x="889" y="369" width="76" height="76" stroke="#EDEDED" stroke-width="4" stroke-miterlimit="8" fill="none"/><rect x="889" y="294" width="76" height="75" stroke="#EDEDED" stroke-width="4" stroke-miterlimit="8" fill="none"/><rect x="889" y="218" width="76" height="76" stroke="#EDEDED" stroke-width="4" stroke-miterlimit="8" fill="none"/><rect x="814" y="294" width="75" height="75" stroke="#EDEDED" stroke-width="4" stroke-miterlimit="8" fill="none"/><rect x="814" y="218" width="75" height="76" stroke="#EDEDED" stroke-width="4" stroke-miterlimit="8" fill="none"/><rect x="739" y="369" width="75" height="76" stroke="#EDEDED" stroke-width="4" stroke-miterlimit="8" fill="none"/><rect x="739" y="294" width="75" height="75" stroke="#EDEDED" stroke-width="4" stroke-miterlimit="8" fill="none"/><rect x="663" y="369" width="76" height="76" stroke="#EDEDED" stroke-width="4" stroke-miterlimit="8" fill="none"/><rect x="663" y="294" width="76" height="75" stroke="#EDEDED" stroke-width="4" stroke-miterlimit="8" fill="none"/><rect x="739" y="218" width="75" height="76" stroke="#EDEDED" stroke-width="4" stroke-miterlimit="8" fill="none"/><rect x="663" y="218" width="76" height="76" stroke="#EDEDED" stroke-width="4" stroke-miterlimit="8" fill="none"/><rect x="964" y="445" width="76" height="76" stroke="#EDEDED" stroke-width="4" stroke-miterlimit="8" fill="none"/><rect x="964" y="369" width="76" height="76" stroke="#EDEDED" stroke-width="4" stroke-miterlimit="8" fill="none"/><rect x="1040" y="445" width="75" height="76" stroke="#EDEDED" stroke-width="4" stroke-miterlimit="8" fill="none"/><rect x="1040" y="369" width="75" height="76" stroke="#EDEDED" stroke-width="4" stroke-miterlimit="8" fill="none"/><rect x="1040" y="294" width="75" height="75" stroke="#EDEDED" stroke-width="4" stroke-miterlimit="8" fill="none"/><rect x="1040" y="218" width="75" height="76" stroke="#EDEDED" stroke-width="4" stroke-miterlimit="8" fill="none"/><rect x="964" y="294" width="76" height="75" stroke="#EDEDED" stroke-width="4" stroke-miterlimit="8" fill="none"/><rect x="964" y="218" width="76" height="76" stroke="#EDEDED" stroke-width="4" stroke-miterlimit="8" fill="none"/><path d="M663 445 1115.21 445" stroke="#000000" stroke-width="4" stroke-miterlimit="8" stroke-dasharray="12 4" fill="none" fill-rule="evenodd"/><path d="M0 0 0.794646 302.362" stroke="#000000" stroke-width="4" stroke-miterlimit="8" stroke-dasharray="12 4" fill="none" fill-rule="evenodd" transform="matrix(1 0 0 -1 888 520.362)"/><path d="M752.207 129.745 753.25 129.745C753.227 130.372 753.21 130.933 753.198 131.428 753.187 131.924 753.178 132.405 753.173 132.872 753.167 133.34 753.164 133.801 753.164 134.257L753.164 147.245C753.164 147.598 753.176 147.903 753.198 148.159 753.221 148.416 753.258 148.632 753.309 148.809 753.361 148.985 753.429 149.136 753.515 149.262 753.6 149.387 753.7 149.495 753.814 149.586 753.95 149.723 754.133 149.828 754.36 149.902 754.588 149.977 754.879 150.039 755.232 150.09 755.585 150.142 756.01 150.182 756.505 150.21 757.001 150.239 757.596 150.258 758.291 150.27L758.291 151.757 744.739 151.757 744.739 150.27C745.411 150.247 745.981 150.221 746.448 150.193 746.915 150.164 747.314 150.125 747.644 150.073 747.975 150.022 748.239 149.965 748.439 149.902 748.638 149.84 748.812 149.763 748.96 149.672 749.12 149.569 749.256 149.458 749.37 149.338 749.484 149.219 749.575 149.068 749.644 148.886 749.712 148.703 749.766 148.481 749.806 148.219 749.846 147.957 749.866 147.632 749.866 147.245L749.866 134.992C749.866 134.547 749.78 134.234 749.609 134.052 749.439 133.869 749.194 133.778 748.875 133.778 748.521 133.778 747.997 133.96 747.302 134.325 746.607 134.69 745.707 135.231 744.602 135.949 744.454 135.687 744.317 135.424 744.192 135.162 744.067 134.9 743.936 134.633 743.799 134.359 745.212 133.585 746.61 132.813 747.995 132.044 749.379 131.275 750.783 130.508 752.207 129.745Z" fill-rule="evenodd"/><text fill="#000000" fill-opacity="0" font-family="Arial,Arial_MSFontService,sans-serif" font-size="22.0117" x="743.799" y="149.005">1</text><path d="M750.874 181.892C752.059 181.892 753.07 182.026 753.908 182.294 754.745 182.561 755.426 182.923 755.95 183.379 756.474 183.835 756.853 184.381 757.086 185.019 757.32 185.657 757.437 186.347 757.437 187.087 757.437 187.532 757.405 187.945 757.343 188.326 757.28 188.708 757.172 189.084 757.018 189.454 756.864 189.825 756.662 190.198 756.411 190.574 756.161 190.95 755.847 191.348 755.471 191.77 755.186 192.135 754.816 192.556 754.36 193.035 753.905 193.513 753.406 194.026 752.865 194.573 752.324 195.12 751.757 195.689 751.165 196.282 750.572 196.874 749.997 197.461 749.439 198.042 748.88 198.623 748.368 199.187 747.901 199.734 747.433 200.281 747.052 200.782 746.755 201.238L753.079 201.238C753.614 201.238 754.041 201.218 754.36 201.178 754.68 201.138 754.944 201.05 755.155 200.913 755.366 200.776 755.545 200.568 755.693 200.289 755.842 200.01 756.013 199.626 756.206 199.136L757.796 199.136C757.739 199.945 757.684 200.759 757.633 201.58 757.582 202.4 757.528 203.214 757.471 204.023L742.996 204.023 742.996 203.135C743.269 202.519 743.588 201.913 743.953 201.315 744.317 200.716 744.727 200.11 745.183 199.495 745.639 198.879 746.157 198.244 746.738 197.589 747.319 196.934 747.963 196.253 748.67 195.547 749.741 194.476 750.612 193.562 751.284 192.804 751.956 192.046 752.486 191.371 752.874 190.779 753.261 190.186 753.526 189.639 753.668 189.138 753.811 188.637 753.882 188.101 753.882 187.532 753.882 186.951 753.799 186.415 753.634 185.925 753.469 185.435 753.233 185.019 752.925 184.678 752.617 184.336 752.227 184.068 751.754 183.874 751.281 183.681 750.737 183.584 750.122 183.584 749.063 183.584 748.174 183.872 747.456 184.447 746.738 185.022 746.18 185.857 745.781 186.951L743.543 186.951 743.543 183.618C745.001 183.014 746.342 182.576 747.567 182.302 748.792 182.029 749.894 181.892 750.874 181.892Z" fill-rule="evenodd"/><text fill="#000000" fill-opacity="0" font-family="Arial,Arial_MSFontService,sans-serif" font-size="22.1313" x="742.996" y="201.257">2</text><path d="M740.672 164.883 760.672 164.883 760.672 167.883 740.672 167.883Z" fill-rule="evenodd"/><text font-family="Calibri,Calibri_MSFontService,sans-serif" font-weight="400" font-size="48" transform="translate(761.005 180)">(2+3i) = 1 +</text><path d="M999.007 129.625C999.918 129.625 1000.77 129.722 1001.56 129.916 1002.35 130.11 1003.04 130.403 1003.62 130.796 1004.2 131.189 1004.65 131.679 1004.98 132.266 1005.3 132.852 1005.47 133.533 1005.47 134.308 1005.47 135.037 1005.36 135.681 1005.16 136.239 1004.95 136.797 1004.64 137.304 1004.21 137.76 1003.78 138.216 1003.26 138.629 1002.64 138.999 1002.02 139.369 1001.3 139.725 1000.49 140.067L1000.49 140.272C1001.26 140.409 1001.97 140.628 1002.63 140.93 1003.29 141.232 1003.87 141.614 1004.36 142.075 1004.86 142.537 1005.25 143.069 1005.53 143.673 1005.82 144.277 1005.96 144.944 1005.96 145.673 1005.96 146.584 1005.79 147.43 1005.45 148.211 1005.11 148.991 1004.6 149.666 1003.91 150.236 1003.23 150.805 1002.38 151.25 1001.38 151.569 1000.38 151.888 999.206 152.047 997.862 152.047 996.802 152.047 995.725 151.942 994.632 151.731 993.538 151.52 992.501 151.244 991.521 150.902L991.521 147.211 993.726 147.211C993.908 147.78 994.125 148.268 994.375 148.672 994.626 149.076 994.919 149.407 995.255 149.663 995.592 149.92 995.979 150.105 996.418 150.219 996.856 150.333 997.355 150.39 997.913 150.39 999.383 150.39 1000.5 150.039 1001.25 149.338 1002.01 148.638 1002.39 147.575 1002.39 146.151 1002.39 144.636 1001.89 143.488 1000.9 142.708 999.898 141.927 998.42 141.537 996.46 141.537L994.956 141.537 994.956 139.896C996.153 139.839 997.187 139.671 998.058 139.392 998.93 139.113 999.656 138.751 1000.24 138.307 1000.82 137.863 1001.25 137.344 1001.54 136.752 1001.82 136.159 1001.96 135.527 1001.96 134.855 1001.96 133.761 1001.64 132.898 1000.99 132.266 1000.34 131.633 999.4 131.317 998.169 131.317 997.132 131.317 996.264 131.602 995.563 132.172 994.862 132.741 994.324 133.59 993.948 134.718L991.778 134.718 991.778 131.351C993.122 130.782 994.39 130.352 995.58 130.061 996.771 129.771 997.913 129.625 999.007 129.625Z" fill-rule="evenodd"/><text fill="#000000" fill-opacity="0" font-family="Arial,Arial_MSFontService,sans-serif" font-size="22.4219" x="991.521" y="149.244">3</text><path d="M999.041 181.892C1000.23 181.892 1001.24 182.026 1002.07 182.294 1002.91 182.561 1003.59 182.923 1004.12 183.379 1004.64 183.835 1005.02 184.381 1005.25 185.019 1005.49 185.657 1005.6 186.347 1005.6 187.087 1005.6 187.532 1005.57 187.945 1005.51 188.326 1005.45 188.708 1005.34 189.084 1005.18 189.454 1005.03 189.825 1004.83 190.198 1004.58 190.574 1004.33 190.95 1004.01 191.348 1003.64 191.77 1003.35 192.135 1002.98 192.556 1002.53 193.035 1002.07 193.513 1001.57 194.026 1001.03 194.573 1000.49 195.12 999.924 195.689 999.331 196.282 998.739 196.874 998.164 197.461 997.605 198.042 997.047 198.623 996.534 199.187 996.067 199.734 995.6 200.281 995.218 200.782 994.922 201.238L1001.25 201.238C1001.78 201.238 1002.21 201.218 1002.53 201.178 1002.85 201.138 1003.11 201.05 1003.32 200.913 1003.53 200.776 1003.71 200.568 1003.86 200.289 1004.01 200.01 1004.18 199.626 1004.37 199.136L1005.96 199.136C1005.91 199.945 1005.85 200.759 1005.8 201.58 1005.75 202.4 1005.69 203.214 1005.64 204.023L991.162 204.023 991.162 203.135C991.436 202.519 991.755 201.913 992.119 201.315 992.484 200.716 992.894 200.11 993.35 199.495 993.806 198.879 994.324 198.244 994.905 197.589 995.486 196.934 996.13 196.253 996.836 195.547 997.907 194.476 998.779 193.562 999.451 192.804 1000.12 192.046 1000.65 191.371 1001.04 190.779 1001.43 190.186 1001.69 189.639 1001.84 189.138 1001.98 188.637 1002.05 188.101 1002.05 187.532 1002.05 186.951 1001.97 186.415 1001.8 185.925 1001.64 185.435 1001.4 185.019 1001.09 184.678 1000.78 184.336 1000.39 184.068 999.921 183.874 999.448 183.681 998.904 183.584 998.289 183.584 997.229 183.584 996.341 183.872 995.623 184.447 994.905 185.022 994.347 185.857 993.948 186.951L991.709 186.951 991.709 183.618C993.168 183.014 994.509 182.576 995.734 182.302 996.959 182.029 998.061 181.892 999.041 181.892Z" fill-rule="evenodd"/><text fill="#000000" fill-opacity="0" font-family="Arial,Arial_MSFontService,sans-serif" font-size="22.1313" x="991.162" y="201.257">2</text><path d="M988.672 164.883 1008.67 164.883 1008.67 167.883 988.672 167.883Z" fill-rule="evenodd"/><text font-family="Calibri,Calibri_MSFontService,sans-serif" font-weight="400" font-size="48" transform="translate(1019.67 180)">i<tspan font-size="32" x="105.447" y="273">(0, 1)</tspan><tspan font-size="32" x="-158.739" y="375">(i, 0)</tspan></text><path d="M888.021 443 900.02 443.124 899.979 447.124 887.979 447ZM904.02 443.166 916.019 443.29 915.978 447.29 903.978 447.165ZM920.019 443.331 932.018 443.455 931.977 447.455 919.978 447.331ZM936.018 443.497 948.017 443.621 947.976 447.621 935.977 447.497ZM952.017 443.662 964.017 443.786 963.975 447.786 951.976 447.662ZM968.016 443.828 968.72 443.835 968.679 447.835 967.975 447.828ZM957.798 436.994 972.669 445.876 957.618 454.448C956.658 454.995 955.437 454.66 954.89 453.7 954.343 452.741 954.678 451.519 955.638 450.973L967.71 444.097 967.674 447.552 955.747 440.428C954.799 439.862 954.489 438.634 955.056 437.686 955.622 436.737 956.85 436.428 957.798 436.994Z" fill="#2F5597"/><path d="M965.233 441.976 964.905 429.981 968.903 429.871 969.232 441.866ZM964.795 425.982 964.466 413.987 968.465 413.877 968.794 425.872ZM964.357 409.988 964.028 397.993 968.026 397.883 968.355 409.878ZM963.918 393.994 963.589 381.999 967.588 381.889 967.917 393.884ZM963.48 378 963.151 366.005 967.149 365.895 967.478 377.891ZM963.041 362.006 962.712 350.011 966.711 349.901 967.04 361.896ZM962.603 346.012 962.274 334.017 966.272 333.907 966.601 345.903ZM962.164 330.018 962.109 328.013 966.108 327.904 966.163 329.909ZM955.685 339.186 964 323.991 973.134 338.707C973.716 339.646 973.428 340.879 972.489 341.461 971.551 342.044 970.318 341.755 969.735 340.817L962.409 329.013 965.863 328.919 959.195 341.106C958.664 342.075 957.449 342.431 956.48 341.9 955.511 341.37 955.155 340.155 955.685 339.186Z" fill="#2F5597"/><path d="M891.798 444.948 963.1 330.843" stroke="#C00000" stroke-width="4" stroke-miterlimit="8" fill="none" fill-rule="evenodd"/><path d="M0 0 151.177 222.998" stroke="#FF0000" stroke-width="4" stroke-miterlimit="8" fill="none" fill-rule="evenodd" transform="matrix(-0.559193 -0.829038 -0.829038 0.559193 1115.4 617.363)"/><path d="M846 606 980.551 606" stroke="#C00000" stroke-width="4" stroke-miterlimit="8" fill="none" fill-rule="evenodd"/><path d="M981 629 1115.55 629" stroke="#C00000" stroke-width="4" stroke-miterlimit="8" fill="none" fill-rule="evenodd"/></g></svg>