<svg width="1280" height="720" xmlns="http://www.w3.org/2000/svg" xmlns:xlink="http://www.w3.org/1999/xlink" overflow="hidden"><defs><clipPath id="clip0"><rect x="0" y="0" width="1280" height="720"/></clipPath><clipPath id="clip1"><rect x="247" y="110" width="83" height="75"/></clipPath><clipPath id="clip2"><rect x="247" y="110" width="83" height="75"/></clipPath><clipPath id="clip3"><rect x="247" y="110" width="83" height="75"/></clipPath><clipPath id="clip4"><rect x="573" y="114" width="81" height="81"/></clipPath><clipPath id="clip5"><rect x="573" y="114" width="81" height="81"/></clipPath><clipPath id="clip6"><rect x="573" y="114" width="81" height="81"/></clipPath><clipPath id="clip7"><rect x="458" y="101" width="89" height="89"/></clipPath><clipPath id="clip8"><rect x="458" y="101" width="89" height="89"/></clipPath><clipPath id="clip9"><rect x="458" y="101" width="89" height="89"/></clipPath><clipPath id="clip10"><rect x="345" y="105" width="96" height="96"/></clipPath><clipPath id="clip11"><rect x="345" y="105" width="96" height="96"/></clipPath><clipPath id="clip12"><rect x="345" y="105" width="96" height="96"/></clipPath><clipPath id="clip13"><rect x="686" y="103" width="89" height="89"/></clipPath><clipPath id="clip14"><rect x="686" y="103" width="89" height="89"/></clipPath><clipPath id="clip15"><rect x="686" y="103" width="89" height="89"/></clipPath><clipPath id="clip16"><rect x="241" y="205" width="83" height="76"/></clipPath><clipPath id="clip17"><rect x="241" y="205" width="83" height="76"/></clipPath><clipPath id="clip18"><rect x="241" y="205" width="83" height="76"/></clipPath><clipPath id="clip19"><rect x="343" y="197" width="96" height="96"/></clipPath><clipPath id="clip20"><rect x="343" y="197" width="96" height="96"/></clipPath><clipPath id="clip21"><rect x="343" y="197" width="96" height="96"/></clipPath><clipPath id="clip22"><rect x="384" y="430" width="83" height="73"/></clipPath><clipPath id="clip23"><rect x="384" y="430" width="83" height="73"/></clipPath><clipPath id="clip24"><rect x="384" y="430" width="83" height="73"/></clipPath><clipPath id="clip25"><rect x="512" y="422" width="96" height="96"/></clipPath><clipPath id="clip26"><rect x="512" y="422" width="96" height="96"/></clipPath><clipPath id="clip27"><rect x="512" y="422" width="96" height="96"/></clipPath><clipPath id="clip28"><rect x="654" y="430" width="83" height="73"/></clipPath><clipPath id="clip29"><rect x="654" y="430" width="83" height="73"/></clipPath><clipPath id="clip30"><rect x="654" y="430" width="83" height="73"/></clipPath><clipPath id="clip31"><rect x="731" y="422" width="96" height="96"/></clipPath><clipPath id="clip32"><rect x="731" y="422" width="96" height="96"/></clipPath><clipPath id="clip33"><rect x="731" y="422" width="96" height="96"/></clipPath></defs><g clip-path="url(#clip0)"><rect x="0" y="0" width="1280" height="720" fill="#FFFFFF"/><text font-family="Calibri,Calibri_MSFontService,sans-serif" font-weight="400" font-size="96" transform="translate(219.219 261)">{                 <tspan font-weight="700" font-size="37" x="-104.973" y="61">M</tspan><tspan font-size="37" x="-63.8068" y="61">is a true subset of set </tspan><tspan font-weight="700" font-size="37" x="267.613" y="61">O</tspan><tspan font-weight="700" font-size="37" x="-104.973" y="106">M</tspan><tspan font-family="Cambria Math,Cambria Math_MSFontService,sans-serif" font-size="37" x="-63.8068" y="106">⊂</tspan><tspan font-weight="700" font-size="37" x="-27.4734" y="106">O</tspan><tspan font-style="italic" font-weight="700" font-size="37" x="-104.973" y="296">P</tspan><tspan font-weight="700" font-size="37" x="-85.1401" y="296">(M) </tspan><tspan font-size="37" x="-20.6401" y="296">is the power set</tspan><tspan font-style="italic" font-weight="700" font-size="37" x="-104.973" y="341">P</tspan><tspan font-weight="700" font-size="37" x="-85.1401" y="341">(M) </tspan><tspan font-size="37" x="-20.6401" y="341">is the set of all possible subsets</tspan><tspan font-style="italic" font-weight="700" font-size="59" x="-104.973" y="220">P</tspan><tspan font-weight="700" font-size="59" x="-73.8068" y="220">(M) </tspan><tspan font-size="59" x="27.5266" y="220">=</tspan><tspan font-size="96" x="67.5058" y="227">{</tspan><tspan font-weight="700" font-size="59" x="-103.859" y="-106">O </tspan><tspan font-size="59" x="-50.8588" y="-106">= </tspan><tspan font-size="96" x="-0.533112" y="-97">{                         </tspan></text><g clip-path="url(#clip1)"><g clip-path="url(#clip2)"><g clip-path="url(#clip3)"><path d="M39.15 63.3984C39.1159 63.3937 39.0814 63.3914 39.0469 63.3914L35.9531 63.3914C39.1362 61.0766 41.0245 57.3826 41.0367 53.4469 41.0367 48.1125 39.8773 45.768 36.2656 43.7977 35.8919 43.5821 35.4141 43.7103 35.1985 44.0841 34.983 44.4578 35.1112 44.9355 35.4849 45.1512 35.4955 45.1573 35.5063 45.1631 35.5172 45.1688 38.6234 46.8641 39.4742 48.6437 39.4742 53.45 39.4742 58.7781 35.9375 61.8523 32.9703 63.4922 32.5928 63.7011 32.4561 64.1765 32.6649 64.554 32.8025 64.8027 33.0643 64.957 33.3484 64.957L38.9898 64.957C39.8043 65.1009 40.3586 65.8638 40.2438 66.6828 40.0974 67.4569 39.4117 68.0109 38.6242 67.9914L27.9867 67.9914C27.6492 67.9914 26.1047 67.3906 24.7094 64.4531 24.7094 64.4453 24.6984 64.4414 24.6945 64.4336 24.6675 64.3889 24.6361 64.347 24.6008 64.3086 24.5713 64.2663 24.5374 64.227 24.5 64.1914 24.4937 64.1859 24.4906 64.1773 24.4836 64.1719 24.2969 64.0266 24.082 63.8633 23.8445 63.6828 20.9227 61.4609 14.8438 56.8453 14.8438 50 14.8438 45.9805 16.5055 42.9352 18.1133 39.9898 18.2953 39.6555 18.4766 39.3242 18.6531 38.9937 22.0633 32.6313 21.632 26.3445 17.4992 22.1758 17.2006 21.8643 16.7061 21.8539 16.3946 22.1525 16.0831 22.4511 16.0727 22.9456 16.3713 23.2571 16.3773 23.2634 16.3836 23.2697 16.3898 23.2758 20.0672 26.9852 20.3906 32.4453 17.2766 38.2555 17.1005 38.582 16.9221 38.9107 16.7414 39.2414 15.1195 42.2133 13.2812 45.582 13.2812 50 13.2812 57.6203 20.0211 62.7383 22.8992 64.9219 23.0828 65.0609 23.2406 65.182 23.3945 65.3008 24.8367 68.225 26.7273 69.5484 27.9867 69.5484L38.6242 69.5484C40.1979 69.5754 41.5502 68.4372 41.7922 66.882 42.0206 65.1915 40.8395 63.6343 39.15 63.3984Z" transform="matrix(1.10667 0 0 1 247 110)"/><path d="M51.25 46.0047C51.25 46.0242 50.968 47.9813 48.6437 51.843 48.5148 52.057 48.2531 52.5086 48.2531 52.5086 48.1714 52.6292 48.1259 52.7707 48.1219 52.9164L48.1219 64.0625C48.1219 64.494 48.4716 64.8438 48.9031 64.8438L49.5961 64.8438C50.3816 64.8259 51.0673 65.3725 51.225 66.1422 51.3709 66.9927 50.7996 67.8005 49.9491 67.9463 49.8627 67.9611 49.7752 67.9686 49.6875 67.9688L46.5055 67.9688C45.6425 67.9688 44.943 67.2692 44.943 66.4062L44.943 56.557C44.943 56.1255 44.5932 55.7758 44.1617 55.7758 43.7302 55.7758 43.3805 56.1255 43.3805 56.557L43.3805 66.4062C43.3805 68.1321 44.7796 69.5312 46.5055 69.5312L49.5453 69.5312C51.187 69.5591 52.5868 68.3475 52.7945 66.7188 52.965 64.9991 51.7091 63.467 49.9895 63.2965 49.8891 63.2866 49.7884 63.2815 49.6875 63.2812L49.6875 53.1367C52.3695 48.8117 52.7633 46.5031 52.8031 46.2156 53.1781 44.4481 53.3387 42.6419 53.2812 40.8359L53.2812 40.4227C53.342 38.1116 53.0137 35.8069 52.3102 33.6047 51.9444 32.5786 51.7547 31.498 51.7492 30.4086 51.7988 29.138 52.8618 28.1441 54.1328 28.1797 57.9013 28.1067 60.9225 25.0387 60.9375 21.2695 60.9538 20.6116 60.7427 19.9681 60.3398 19.4477L54.0438 10.3016 54.0438 7.86641C54.0598 7.2963 53.7715 6.76068 53.2867 6.46016 52.6891 6.10558 51.9284 6.19348 51.4273 6.675L40.8594 16.5625C39.4798 17.8654 38.6979 19.679 38.6977 21.5766L38.6977 22.0359C38.6977 24.0039 36.5344 25.7586 33.7953 27.9797 28.4297 32.332 21.0805 38.2922 21.0805 51.9148 21.0379 54.3506 21.2223 56.7851 21.6313 59.1867 21.7016 59.5545 22.0231 59.8206 22.3977 59.8211 22.4475 59.8212 22.4973 59.8162 22.5461 59.8063 22.9695 59.7247 23.2467 59.3156 23.1656 58.8922 22.7758 56.5876 22.6008 54.2518 22.643 51.9148 22.643 39.0367 29.6578 33.3477 34.7797 29.1938 37.8414 26.7102 40.2602 24.7484 40.2602 22.0359L40.2602 21.5766C40.2591 20.111 40.8623 18.7098 41.9273 17.7031L52.4742 7.79844C52.4773 7.79541 52.4823 7.79547 52.4852 7.79855 52.4866 7.79998 52.4875 7.8019 52.4875 7.80391L52.4875 10.5469C52.4877 10.7052 52.5359 10.8596 52.6258 10.9898L59.093 20.3813C59.5891 21.0016 59.432 21.9438 58.7172 23.4781 57.843 25.3301 56.0119 26.5425 53.9656 26.6242 51.8984 26.6702 50.2341 28.3359 50.1898 30.4031 50.1942 31.6478 50.4054 32.8831 50.8148 34.0586 51.4755 36.1132 51.7812 38.2654 51.7187 40.4227L51.7187 40.843C51.7747 42.5455 51.6241 44.2485 51.2703 45.9148Z" transform="matrix(1.10667 0 0 1 247 110)"/><path d="M54.6867 16.7969C54.6867 17.4441 54.1621 17.9688 53.5148 17.9688 52.8676 17.9688 52.343 17.4441 52.343 16.7969 52.343 16.1497 52.8676 15.625 53.5148 15.625 54.1621 15.625 54.6867 16.1497 54.6867 16.7969Z" transform="matrix(1.10667 0 0 1 247 110)"/></g></g></g><g clip-path="url(#clip4)"><g clip-path="url(#clip5)"><g clip-path="url(#clip6)"><path d="M648.723 153.661 646.57 146.128C645.925 143.871 644.399 141.969 642.335 140.852L628.961 133.607C628.353 133.259 627.62 133.208 626.97 133.468 626.153 133.811 625.622 134.611 625.625 135.497L625.625 140.385C625.624 140.39 625.62 140.393 625.616 140.393 625.614 140.393 625.613 140.392 625.612 140.392 621.459 137.714 615.74 136.202 609.621 136.202 595.125 136.202 578.909 149.009 578.909 166.147 578.909 173.736 583.772 179.244 590.474 179.244 595.05 179.379 598.881 175.803 599.059 171.228 599.176 168.46 597.435 165.954 594.802 165.095 591.307 163.965 588.115 165.993 587.634 169.024 587.381 170.209 588.136 171.375 589.321 171.628 589.371 171.638 589.42 171.647 589.47 171.654 590.501 171.73 591.428 171.027 591.633 170.013 591.668 169.433 592.167 168.992 592.747 169.027 592.766 169.028 592.785 169.03 592.804 169.032 594.016 169.032 594.147 170.226 594.147 170.739 594.147 172.206 592.756 173.724 590.429 173.724 587.982 173.724 586.278 171.868 586.278 169.207 586.278 167.813 586.739 160.86 595.834 160.86L597.578 160.86 605.908 169.19C606.224 169.508 606.655 169.687 607.104 169.688L613.838 169.688C615.255 169.708 616.494 168.736 616.812 167.355 617.151 165.756 616.131 164.186 614.533 163.846 614.334 163.803 614.13 163.782 613.926 163.781L609.635 163.781 601.465 155.611C601.149 155.287 600.638 155.262 600.292 155.553 599.942 155.86 599.906 156.393 600.214 156.744 600.226 156.758 600.238 156.771 600.251 156.784L608.689 165.222C608.847 165.38 609.062 165.469 609.285 165.469L613.889 165.469C614.572 165.463 615.141 165.99 615.188 166.671 615.222 167.369 614.685 167.963 613.987 167.998 613.966 167.999 613.946 168 613.926 168L607.104 168 598.673 159.57C598.61 159.472 598.526 159.388 598.428 159.325L595.559 156.457C595.244 156.133 594.732 156.108 594.387 156.398 594.036 156.706 594.001 157.239 594.308 157.589 594.32 157.603 594.333 157.616 594.346 157.629L595.894 159.178 595.837 159.178C587.539 159.178 584.594 164.583 584.594 169.212 584.594 172.807 587.049 175.417 590.432 175.417 593.463 175.417 595.838 173.364 595.838 170.744 595.838 168.714 594.62 167.349 592.807 167.349 591.404 167.276 590.177 168.288 589.983 169.68 589.953 169.861 589.79 169.989 589.607 169.977 589.412 169.963 589.263 169.799 589.269 169.604 589.415 167.762 591.003 166.372 592.848 166.471 595.332 166.502 597.341 168.506 597.378 170.99 597.327 174.671 594.301 177.613 590.62 177.562 590.572 177.561 590.525 177.56 590.477 177.558 584.754 177.558 580.6 172.76 580.6 166.149 580.6 157.151 585.345 149.422 591.913 144.333 592.233 144.839 592.588 145.398 592.624 145.463L594.072 148.154 594.285 148.445 596.768 151.006C596.991 151.24 597.3 151.373 597.623 151.373 597.824 151.372 598.022 151.321 598.199 151.225 598.673 150.971 598.916 150.429 598.789 149.906L596.984 142.079C596.952 141.947 596.925 141.861 596.531 141.345 597.95 140.589 599.427 139.945 600.947 139.418L603.515 143.792 603.93 147.014 604.02 147.342 605.559 150.933C605.749 151.385 606.191 151.677 606.681 151.676 606.737 151.676 606.794 151.672 606.85 151.665 607.397 151.596 607.829 151.166 607.902 150.619L609.107 141.961C609.136 141.754 609.112 141.543 609.037 141.348L607.738 137.973C608.368 137.924 608.997 137.889 609.621 137.889 610.594 137.889 611.55 137.941 612.495 138.02L614.666 142.753 615.391 147.369 615.025 150.444C614.951 151.024 615.3 151.574 615.857 151.754 615.983 151.796 616.116 151.818 616.25 151.818 616.688 151.817 617.092 151.581 617.307 151.2L619.091 148.093 620.595 144.105C620.693 143.847 620.701 143.564 620.616 143.302L619.362 139.359C621.735 140.08 623.965 141.209 625.95 142.696 626.318 142.982 626.848 142.916 627.134 142.548 627.25 142.4 627.312 142.218 627.312 142.03L627.312 135.497C627.312 135.213 627.543 134.983 627.827 134.983 627.913 134.983 627.997 135.004 628.072 135.045L641.533 142.336C643.196 143.237 644.427 144.771 644.947 146.59L646.956 153.616 646.884 153.68C646.803 153.65 646.717 153.632 646.631 153.628L636.641 153.628C636.189 153.622 635.809 153.966 635.77 154.416 635.739 154.881 636.091 155.283 636.556 155.314 636.575 155.315 636.595 155.316 636.614 155.316L645.021 155.316C645.033 155.316 645.036 155.323 645.027 155.331L643.279 156.884C641.617 158.361 639.471 159.176 637.247 159.176L627.706 159.176C627.254 159.17 626.874 159.514 626.835 159.964 626.805 160.429 627.157 160.831 627.622 160.862 627.641 160.863 627.66 160.864 627.679 160.864L637.247 160.864C639.883 160.864 642.428 159.897 644.398 158.145L648.472 154.524C648.715 154.309 648.812 153.973 648.723 153.661ZM595.377 142.619 596.741 148.531C596.741 148.547 596.741 148.551 596.727 148.539L595.532 147.307 594.11 144.664C594.105 144.653 593.688 143.953 593.28 143.322 593.857 142.922 594.447 142.547 595.045 142.187 595.177 142.357 595.303 142.519 595.377 142.619ZM607.42 141.844 606.463 148.716C606.463 148.732 606.454 148.733 606.447 148.716L605.597 146.738 605.176 143.487C605.154 143.322 605.1 143.163 605.015 143.019L602.601 138.899C603.719 138.584 604.856 138.339 606.004 138.167ZM618.961 143.663 617.634 147.244 616.991 148.366C616.979 148.386 616.972 148.384 616.975 148.361L617.077 147.506 617.07 147.169 616.328 142.444C616.311 142.329 616.277 142.217 616.23 142.111L614.45 138.23C615.378 138.362 616.275 138.543 617.15 138.751L617.42 138.816 617.454 138.929Z"/><path d="M633.299 163.781 629.041 163.781 625.12 159.861 628.314 156.669C628.643 156.34 628.643 155.805 628.313 155.476 627.984 155.146 627.449 155.147 627.12 155.476L623.331 159.265C623.083 159.514 623.016 159.891 623.162 160.211 623.207 160.305 623.268 160.391 623.343 160.464L628.097 165.222C628.255 165.38 628.47 165.469 628.693 165.469L633.297 165.469C633.979 165.464 634.547 165.99 634.594 166.671 634.629 167.369 634.091 167.963 633.393 167.998 633.373 167.999 633.353 168 633.332 168L626.51 168 618.53 160.02 622.374 156.177C622.697 155.862 622.723 155.35 622.432 155.005 622.125 154.654 621.592 154.618 621.241 154.925 621.227 154.938 621.214 154.95 621.201 154.963L616.988 159.176 608.276 159.176C607.825 159.171 607.445 159.514 607.406 159.964 607.375 160.429 607.727 160.831 608.192 160.862 608.211 160.863 608.23 160.864 608.249 160.864L616.988 160.864 625.317 169.193C625.633 169.51 626.062 169.687 626.51 169.688L633.332 169.688C634.963 169.678 636.278 168.348 636.269 166.717 636.259 165.087 634.93 163.772 633.299 163.781Z"/><path d="M642.136 147.679C642.671 145.363 641.227 143.053 638.911 142.518 638.274 142.371 637.611 142.371 636.974 142.519 635.381 142.879 634.136 144.123 633.776 145.716 633.24 148.031 634.681 150.343 636.997 150.879 637.636 151.027 638.3 151.027 638.939 150.879 640.533 150.519 641.777 149.273 642.136 147.679ZM635.402 147.208C635.119 145.798 636.034 144.425 637.444 144.143 638.855 143.86 640.227 144.774 640.51 146.185 640.792 147.595 639.878 148.968 638.468 149.25 638.131 149.318 637.784 149.318 637.447 149.251 636.416 149.045 635.61 148.239 635.402 147.208Z"/><path d="M639.478 146.846C639.561 146.216 639.119 145.639 638.489 145.556 637.86 145.473 637.283 145.915 637.2 146.544 637.116 147.174 637.559 147.751 638.188 147.834 638.288 147.847 638.389 147.847 638.489 147.834 639.004 147.767 639.41 147.361 639.478 146.846Z"/></g></g></g><g clip-path="url(#clip7)"><g clip-path="url(#clip8)"><g clip-path="url(#clip9)"><path d="M514.274 137.784C514.634 138.148 515.221 138.151 515.585 137.791 515.587 137.789 515.59 137.786 515.592 137.784L517.066 136.301 518.566 137.805C518.927 138.168 519.514 138.17 519.877 137.81 519.879 137.808 519.88 137.807 519.882 137.805L520.601 137.08C520.774 138.196 521.004 139.302 521.289 140.395 524.028 150.57 518.399 161.124 508.424 164.519L504.834 165.506C503.747 165.726 502.644 165.862 501.536 165.913L497.967 165.82C489.519 165.076 482.407 159.193 480.091 151.034L479.861 150.222 479.098 149.863C478.115 149.42 477.48 148.445 477.473 147.367 477.484 147.111 477.528 146.857 477.603 146.612L477.989 145.07 476.524 144.452C475.429 144.027 474.704 142.977 474.692 141.803 474.691 141.414 474.783 141.031 474.96 140.685L475.652 139.301 474.414 138.374C473.385 137.624 472.794 136.415 472.833 135.143 473.018 133.092 474.766 131.54 476.824 131.599L476.942 131.599C481.063 131.748 483.133 134.062 485.53 136.742 488.429 139.982 491.713 143.655 498.796 143.655L502.505 143.655C506.142 143.685 509.59 142.037 511.852 139.188 512.165 138.782 512.089 138.199 511.682 137.886 511.276 137.574 510.693 137.65 510.38 138.056 508.464 140.443 505.561 141.823 502.5 141.803L498.792 141.803C486.832 141.803 487.296 130.122 477.005 129.751 476.944 129.751 476.882 129.751 476.82 129.751 473.74 129.604 471.124 131.982 470.978 135.062 470.888 136.951 471.76 138.758 473.297 139.861 472.992 140.465 472.833 141.132 472.833 141.808 472.849 143.727 474.021 145.447 475.8 146.166 475.686 146.558 475.624 146.963 475.615 147.371 475.625 149.165 476.673 150.792 478.303 151.543 480.815 160.478 488.615 166.912 497.865 167.679L498.8 167.702C498.8 167.719 498.79 167.734 498.79 167.753L498.79 175.169 496.938 175.169C496.425 175.169 496.01 175.585 496.01 176.097 496.01 176.609 496.425 177.024 496.938 177.024L499.339 177.024 502.778 180.458C503.134 180.826 503.721 180.836 504.089 180.48 504.457 180.125 504.468 179.538 504.112 179.169 504.104 179.162 504.097 179.154 504.089 179.147L501.96 177.021 507.135 177.021C507.647 177.021 508.062 176.606 508.062 176.094 508.062 175.582 507.647 175.167 507.135 175.167L500.646 175.167 500.646 167.75 501.573 167.773C502.819 167.716 504.059 167.561 505.281 167.31L506.245 167.044C506.225 167.105 506.212 167.167 506.206 167.23L506.206 170.531 504.354 170.531C503.842 170.531 503.427 170.946 503.427 171.458 503.427 171.97 503.842 172.385 504.354 172.385L506.755 172.385 510.195 175.822C510.551 176.19 511.137 176.201 511.506 175.845 511.874 175.489 511.884 174.902 511.529 174.534 511.521 174.526 511.513 174.519 511.506 174.511L509.377 172.385 514.552 172.385C515.064 172.385 515.479 171.97 515.479 171.458 515.479 170.946 515.064 170.531 514.552 170.531L508.062 170.531 508.062 167.228C508.061 166.998 507.973 166.777 507.816 166.609L508.992 166.285C519.894 162.589 526.058 151.069 523.084 139.949 522.726 138.608 522.466 137.242 522.304 135.864L522.119 133.197C522.084 132.685 521.64 132.298 521.128 132.333 520.616 132.368 520.23 132.812 520.265 133.324L520.357 134.688 519.224 135.84 517.727 134.332C517.367 133.969 516.78 133.966 516.416 134.327 516.414 134.329 516.413 134.331 516.411 134.332L514.937 135.816 514.016 134.889 514.4 133.479 514.417 133.417 514.43 133.355C514.532 132.776 514.576 132.188 514.559 131.6L514.559 122.595C514.505 118.922 517.433 115.898 521.106 115.833 524.694 115.871 527.572 118.81 527.534 122.398 527.534 122.444 527.533 122.49 527.531 122.536 527.342 125.828 524.779 128.49 521.496 128.803L520.94 128.865C520.437 128.925 520.077 129.381 520.137 129.884 520.196 130.387 520.653 130.747 521.156 130.687L522.803 130.481C525.643 129.867 527.96 127.821 528.922 125.079 530.307 124.841 531.723 124.853 533.104 125.113 532.089 123.74 530.817 122.578 529.359 121.692 529.238 120.076 528.646 118.53 527.656 117.247 528.649 116.223 529.04 114.759 528.691 113.377 528.437 112.332 527.778 111.432 526.859 110.873 525.925 110.296 524.8 110.113 523.73 110.364 522.18 109 519.859 109 518.31 110.364 518.001 110.291 517.686 110.254 517.37 110.253 515.554 110.256 513.952 111.439 513.415 113.174 511.681 113.71 510.497 115.312 510.495 117.128 510.488 118.692 511.463 120.093 512.933 120.629 512.782 121.276 512.704 121.938 512.701 122.603L512.701 131.596C512.716 132.061 512.685 132.527 512.608 132.986L512.277 134.198C512.265 134.232 512.234 134.332 512.195 134.46 512.024 135.027 512.175 135.642 512.589 136.065ZM520.485 113.997C517.448 114.228 514.78 116.101 513.532 118.88 512.811 118.602 512.341 117.904 512.353 117.131 512.342 115.882 513.346 114.86 514.595 114.85 514.785 114.848 514.974 114.87 515.157 114.916 514.863 113.697 515.612 112.47 516.831 112.175 517.561 111.999 518.331 112.195 518.888 112.699 519.314 111.519 520.615 110.908 521.795 111.334 522.43 111.564 522.93 112.064 523.159 112.699 524.079 111.85 525.513 111.908 526.362 112.829 527.163 113.697 527.163 115.036 526.36 115.904 524.721 114.539 522.62 113.856 520.492 113.997Z"/><path d="M524.754 120.932C524.754 121.7 524.131 122.323 523.363 122.323 522.595 122.323 521.972 121.7 521.972 120.932 521.972 120.164 522.595 119.542 523.363 119.542 524.131 119.542 524.754 120.164 524.754 120.932Z"/></g></g></g><g clip-path="url(#clip10)"><g clip-path="url(#clip11)"><g clip-path="url(#clip12)"><path d="M437.417 134.011 431.653 131.407C430.514 127.576 427.002 124.941 423.005 124.92L418.979 124.92 418.083 124.944C416.469 124.991 414.942 125.683 413.842 126.866L407.552 133.664C406.26 135.09 404.429 135.909 402.504 135.923L372.572 135.923C369.125 135.927 365.948 137.786 364.257 140.788 358.901 141.194 351.841 137.291 349.868 130.712 349.709 130.183 349.151 129.883 348.622 130.042 348.093 130.201 347.793 130.758 347.952 131.287 350.114 138.494 357.332 142.795 363.401 142.828 363.152 143.683 363.024 144.568 363.022 145.458L363.002 154.877 361.036 162.772C361.016 162.851 361.005 162.932 361.006 163.014L361.006 171C361.006 171.082 361.016 171.163 361.036 171.243L362.468 176.97C362.911 178.752 364.512 180.002 366.348 180L371.001 180C371.553 180 372.001 179.552 372.001 179L372.003 176.402C372.004 174.679 370.717 173.228 369.006 173.023L369.006 165.414 376.423 157.996 383.25 157.932C385.657 159.814 389.636 160.929 394.003 160.929L401.005 160.929 401.005 171C401.006 171.082 401.016 171.163 401.035 171.243L402.467 176.97C402.91 178.752 404.511 180.002 406.348 180L411.001 180C411.553 180 412.001 179.552 412.001 179L412.003 176.402C412.004 174.679 410.716 173.228 409.006 173.023L409.006 160.873C410.414 160.629 411.768 160.14 413.006 159.427L413.006 174C413.006 174.552 413.453 175 414.006 175L414.603 175C415.376 175 416.003 175.627 416.003 176.4 416.003 176.4 416.003 176.4 416.003 176.401L416.003 178 414.006 178C413.453 178 413.006 178.448 413.006 179 413.006 179.552 413.453 180 414.006 180L417.002 180C417.554 180 418.001 179.553 418.002 179.001L418.004 176.402C418.005 174.679 416.717 173.228 415.006 173.023L415.006 157.769C416.536 155.754 417.852 153.585 418.934 151.298L422.682 141.924 431.005 141.924C434.87 141.919 438.001 138.787 438.005 134.922 438.005 134.529 437.775 134.173 437.417 134.011ZM431.005 139.924 422.005 139.924C421.596 139.924 421.228 140.173 421.076 140.553L417.096 150.511C416.049 152.712 414.774 154.796 413.29 156.73 411.792 158.033 409.919 158.828 407.94 158.999 407.415 159.035 407.007 159.471 407.006 159.997L407.006 174C407.006 174.552 407.454 175 408.006 175L408.604 175C409.377 175 410.004 175.627 410.004 176.4 410.004 176.4 410.004 176.4 410.004 176.401L410.003 178 406.348 178C405.43 178.001 404.629 177.376 404.408 176.485L403.006 170.877 403.006 159.929C403.006 159.377 402.558 158.929 402.006 158.929L394.004 158.929C389.914 158.929 386.269 157.898 384.254 156.169 384.07 156.012 383.836 155.927 383.594 155.929L375.996 156C375.734 156.002 375.484 156.108 375.299 156.293L367.299 164.293C367.111 164.48 367.006 164.735 367.006 165L367.006 174C367.006 174.552 367.453 175 368.006 175L368.603 175C369.377 175 370.003 175.627 370.003 176.4 370.003 176.4 370.003 176.4 370.003 176.401L370.003 178 366.348 178C365.43 178.001 364.629 177.376 364.408 176.485L363.006 170.877 363.006 163.137 364.973 155.242C364.993 155.163 365.003 155.082 365.003 155L365.003 146.939 365.023 145.472C365.027 141.305 368.405 137.928 372.572 137.923L402.504 137.923C404.998 137.919 407.373 136.857 409.039 135.001L415.31 128.224C415.582 127.928 415.905 127.685 416.265 127.506L415.941 132.291C415.779 134.714 417.608 136.812 420.031 136.98L420.231 136.994C420.333 137.001 420.435 137.004 420.537 137.004 422.848 137 424.763 135.21 424.921 132.904L425.098 130.31C425.144 129.759 424.736 129.276 424.185 129.229 423.635 129.183 423.151 129.591 423.105 130.142 423.104 130.152 423.103 130.163 423.103 130.173L422.926 132.767C422.835 134.09 421.69 135.089 420.368 134.998 420.368 134.998 420.367 134.998 420.367 134.998L420.167 134.985C418.846 134.893 417.848 133.749 417.936 132.427L418.311 126.942 423.005 126.919C426.26 126.934 429.082 129.176 429.831 132.344 429.901 132.649 430.109 132.904 430.394 133.033L435.967 135.55C435.647 138.048 433.523 139.92 431.005 139.924Z"/><path d="M375.006 173.023 375.006 163C375.006 162.448 374.559 162 374.006 162 373.454 162 373.006 162.448 373.006 163L373.006 174C373.006 174.552 373.454 175 374.006 175L374.604 175C375.377 175 376.004 175.627 376.004 176.4 376.004 176.4 376.004 176.4 376.004 176.401L376.003 178 374.006 178C373.453 178 373.006 178.448 373.006 179 373.006 179.552 373.453 180 374.006 180L377.002 180C377.554 180 378.001 179.553 378.002 179.001L378.004 176.402C378.005 174.679 376.717 173.228 375.006 173.023Z"/><path d="M429.004 133.5C429.004 134.328 428.332 135 427.504 135 426.675 135 426.004 134.328 426.004 133.5 426.004 132.672 426.675 132 427.504 132 428.332 132 429.004 132.672 429.004 133.5Z"/></g></g></g><g clip-path="url(#clip13)"><g clip-path="url(#clip14)"><g clip-path="url(#clip15)"><path d="M764.511 132.368 760.086 129.364C757.317 123.051 750.416 115.529 736.979 115.529 735.294 115.533 733.61 115.642 731.939 115.858 728.808 116.251 725.744 117.063 722.829 118.273 721.706 118.728 720.432 118.612 719.409 117.962 716.551 116.096 713.22 115.086 709.807 115.052 707.334 115.086 704.906 115.719 702.731 116.897 701.825 117.384 701.484 118.513 701.971 119.419 702.114 119.685 702.319 119.913 702.57 120.082L707.909 123.658C709.606 124.809 710.049 127.119 708.899 128.816 708.849 128.892 708.795 128.965 708.74 129.035 704.701 134.227 702.588 140.765 701.671 145.352 700.684 150.302 700.31 155.364 702.506 164.531 703.483 168.611 701.016 170.031 697.953 173.211 696.099 175.134 695.087 176.693 695.313 178.941 695.821 179.822 696.908 180.185 697.843 179.784L704.871 176.632C705.741 176.195 706.46 175.507 706.935 174.658 707.3 174.074 708.07 173.897 708.654 174.262 708.654 174.262 708.655 174.263 708.656 174.263 708.771 174.334 708.873 174.424 708.958 174.528 709.561 175.261 710.398 175.763 711.329 175.95L720.342 178.04C720.392 178.051 720.444 178.057 720.496 178.057 720.846 178.056 721.149 177.811 721.221 177.468 721.237 177.391 721.241 177.312 721.233 177.234 720.955 174.437 719.497 172.654 716.597 170.897 711.591 167.864 709.716 165.198 709.382 161.281 708.947 157.513 709.803 153.709 711.81 150.49 714.414 146.266 719.486 142.595 728.386 140.263L725.013 145.099C724.427 145.943 724.637 147.102 725.481 147.687 725.885 147.967 726.383 148.076 726.867 147.99 732.862 146.975 738.27 143.779 742.049 139.015L762.47 139.015C764.48 139.013 766.106 137.382 766.104 135.373 766.102 134.169 765.506 133.044 764.51 132.368ZM762.471 137.161 741.152 137.161 740.596 137.863C737.104 142.27 732.101 145.225 726.555 146.157 726.55 146.157 726.545 146.153 726.544 146.147 726.544 146.145 726.545 146.143 726.546 146.141L733.518 136.266C733.813 135.847 733.712 135.269 733.294 134.974 732.875 134.679 732.297 134.779 732.002 135.198L730.1 137.898 727.918 138.469C719.313 140.724 713.363 144.441 710.238 149.509 708.02 153.079 707.069 157.292 707.539 161.468 707.942 166.109 710.215 169.2 715.638 172.486 717.444 173.58 718.479 174.575 718.999 175.811 718.999 175.821 718.999 175.827 718.987 175.825L711.749 174.147 711.723 174.141 711.696 174.135C711.185 174.032 710.724 173.756 710.393 173.354 709.803 172.637 708.924 172.221 707.996 172.221 706.926 172.217 705.931 172.768 705.366 173.676L705.342 173.715 705.319 173.755C705.031 174.271 704.598 174.69 704.073 174.96L697.163 178.059C697.155 178.059 697.148 178.059 697.149 178.049 697.242 176.968 697.843 176.001 699.29 174.499 699.772 173.999 700.24 173.542 700.693 173.1 703.104 170.753 705.373 168.536 704.309 164.101 702.269 155.592 702.485 150.758 703.491 145.717 704.048 142.921 705.823 135.809 710.197 130.186 710.28 130.079 710.361 129.97 710.436 129.858 712.16 127.311 711.493 123.848 708.946 122.124 708.944 122.122 708.941 122.121 708.939 122.119L703.626 118.538C703.621 118.535 703.62 118.528 703.623 118.524 703.624 118.523 703.625 118.522 703.626 118.521 705.528 117.496 707.649 116.942 709.81 116.906 712.87 116.941 715.855 117.851 718.415 119.527 719.948 120.501 721.859 120.672 723.54 119.985 726.302 118.839 729.205 118.069 732.172 117.697 733.766 117.492 735.372 117.387 736.979 117.383 751.264 117.383 756.71 126.283 758.388 130.109L758.603 130.598 759.045 130.899 763.469 133.902C764.284 134.455 764.497 135.563 763.945 136.378 763.613 136.867 763.061 137.161 762.47 137.161Z"/><path d="M749.045 127.568C749.045 128.336 748.423 128.958 747.655 128.958 746.887 128.958 746.264 128.336 746.264 127.568 746.264 126.8 746.887 126.177 747.655 126.177 748.423 126.177 749.045 126.8 749.045 127.568Z"/></g></g></g><text font-family="Calibri,Calibri_MSFontService,sans-serif" font-weight="400" font-size="96" transform="translate(767.97 164)">}<tspan font-weight="700" font-size="59" x="-653.22" y="89">M </tspan><tspan font-size="59" x="-588.554" y="89">=</tspan><tspan fill="#333333" font-family="Segoe UI Emoji,Segoe UI Emoji_MSFontService,sans-serif" font-size="53" x="-441.446" y="104">,</tspan></text><g clip-path="url(#clip16)"><g clip-path="url(#clip17)"><g clip-path="url(#clip18)"><path d="M39.672 64.2438C39.6374 64.239 39.6025 64.2366 39.5675 64.2366L36.4325 64.2366C39.658 61.8909 41.5714 58.1477 41.5839 54.1595 41.5839 48.754 40.409 46.3782 36.7492 44.3816 36.3704 44.1632 35.8863 44.2931 35.6678 44.6719 35.4494 45.0506 35.5793 45.5347 35.9581 45.7532 35.9688 45.7594 35.9797 45.7653 35.9908 45.771 39.1384 47.4889 40.0005 49.2923 40.0005 54.1627 40.0005 59.5618 36.4167 62.677 33.4099 64.3388 33.0274 64.5504 32.8888 65.0322 33.1005 65.4147 33.2399 65.6667 33.5052 65.8231 33.7931 65.8231L39.5097 65.8231C40.335 65.9689 40.8967 66.7419 40.7803 67.5719 40.6321 68.3563 39.9372 68.9177 39.1392 68.898L28.3599 68.898C28.0179 68.898 26.4528 68.2892 25.0388 65.3125 25.0388 65.3046 25.0278 65.3006 25.0238 65.2927 24.9964 65.2474 24.9646 65.205 24.9288 65.166 24.8989 65.1231 24.8646 65.0833 24.8267 65.0473 24.8203 65.0417 24.8172 65.033 24.81 65.0275 24.6208 64.8803 24.4031 64.7148 24.1625 64.5319 21.2016 62.2804 15.0417 57.6033 15.0417 50.6667 15.0417 46.5935 16.7255 43.5076 18.3548 40.523 18.5392 40.1842 18.7229 39.8485 18.9018 39.5137 22.3575 33.0663 21.9205 26.6958 17.7325 22.4715 17.43 22.1558 16.9288 22.1453 16.6132 22.4479 16.2976 22.7504 16.287 23.2516 16.5896 23.5672 16.5957 23.5736 16.602 23.58 16.6084 23.5861 20.3348 27.345 20.6625 32.8779 17.5069 38.7655 17.3286 39.0965 17.1477 39.4295 16.9646 39.7646 15.3211 42.7761 13.4583 46.1898 13.4583 50.6667 13.4583 58.3886 20.288 63.5748 23.2045 65.7875 23.3906 65.9284 23.5505 66.0511 23.7065 66.1715 25.1679 69.1347 27.0837 70.4758 28.3599 70.4758L39.1392 70.4758C40.7339 70.5031 42.1042 69.3497 42.3494 67.7738 42.5809 66.0607 41.3841 64.4827 39.672 64.2438Z" transform="matrix(1.09211 0 0 1 241 205)"/><path d="M51.9333 46.6181C51.9333 46.6379 51.6475 48.621 49.2923 52.5342 49.1617 52.7511 48.8965 53.2087 48.8965 53.2087 48.8137 53.3309 48.7675 53.4743 48.7635 53.622L48.7635 64.9167C48.7635 65.3539 49.1179 65.7083 49.5552 65.7083L50.2574 65.7083C51.0533 65.6902 51.7482 66.2441 51.908 67.0241 52.0558 67.886 51.4769 68.7045 50.6151 68.8522 50.5275 68.8672 50.4388 68.8748 50.35 68.875L47.1255 68.875C46.2511 68.875 45.5422 68.1661 45.5422 67.2917L45.5422 57.3111C45.5422 56.8739 45.1878 56.5195 44.7505 56.5195 44.3133 56.5195 43.9589 56.8739 43.9589 57.3111L43.9589 67.2917C43.9589 69.0405 45.3767 70.4583 47.1255 70.4583L50.2059 70.4583C51.8695 70.4866 53.288 69.2588 53.4985 67.6083 53.6712 65.8658 52.3985 64.3132 50.656 64.1404 50.5543 64.1304 50.4522 64.1252 50.35 64.125L50.35 53.8452C53.0678 49.4625 53.4668 47.1232 53.5072 46.8318 53.8872 45.0408 54.0499 43.2104 53.9917 41.3804L53.9917 40.9616C54.0532 38.6198 53.7205 36.2843 53.0076 34.0527 52.637 33.013 52.4448 31.9179 52.4392 30.814 52.4895 29.5266 53.5666 28.5193 54.8546 28.5554 58.6733 28.4815 61.7348 25.3726 61.75 21.5531 61.7665 20.8864 61.5526 20.2344 61.1444 19.707L54.7643 10.4389 54.7643 7.97129C54.7806 7.39358 54.4884 6.85082 53.9972 6.54629 53.3917 6.18699 52.6207 6.27606 52.113 6.764L41.4042 16.7833C40.0062 18.1036 39.2139 19.9414 39.2136 21.8643L39.2136 22.3298C39.2136 24.324 37.0215 26.102 34.2459 28.3528 28.8088 32.7631 21.3615 38.8027 21.3615 52.607 21.3184 55.0753 21.5053 57.5422 21.9197 59.9759 21.991 60.3486 22.3168 60.6182 22.6963 60.6187 22.7468 60.6188 22.7972 60.6137 22.8467 60.6037 23.2757 60.521 23.5567 60.1065 23.4745 59.6774 23.0795 57.3421 22.9021 54.9752 22.9449 52.607 22.9449 39.5572 30.0533 33.7923 35.2434 29.583 38.346 27.0663 40.797 25.0784 40.797 22.3298L40.797 21.8643C40.7959 20.3792 41.4071 18.9593 42.4864 17.9392L53.1739 7.90242C53.177 7.89935 53.182 7.89941 53.185 7.90253 53.1865 7.90398 53.1873 7.90592 53.1873 7.90796L53.1873 10.6875C53.1875 10.8479 53.2363 11.0044 53.3275 11.1364L59.8809 20.653C60.3836 21.2816 60.2245 22.2363 59.5001 23.7912 58.6143 25.6678 56.7587 26.8964 54.6852 26.9792 52.5904 27.0258 50.9039 28.7138 50.859 30.8085 50.8635 32.0698 51.0775 33.3216 51.4924 34.5127 52.1619 36.5947 52.4717 38.7756 52.4083 40.9616L52.4083 41.3875C52.465 43.1127 52.3124 44.8385 51.9539 46.527Z" transform="matrix(1.09211 0 0 1 241 205)"/><path d="M55.4159 17.0208C55.4159 17.6767 54.8842 18.2083 54.2284 18.2083 53.5725 18.2083 53.0409 17.6767 53.0409 17.0208 53.0409 16.365 53.5725 15.8333 54.2284 15.8333 54.8842 15.8333 55.4159 16.365 55.4159 17.0208Z" transform="matrix(1.09211 0 0 1 241 205)"/></g></g></g><g clip-path="url(#clip19)"><g clip-path="url(#clip20)"><g clip-path="url(#clip21)"><path d="M435.417 226.011 429.653 223.407C428.514 219.576 425.002 216.941 421.005 216.92L416.979 216.92 416.083 216.944C414.469 216.991 412.942 217.683 411.842 218.866L405.552 225.664C404.26 227.09 402.429 227.909 400.504 227.923L370.572 227.923C367.125 227.927 363.948 229.786 362.257 232.788 356.901 233.194 349.841 229.291 347.868 222.712 347.709 222.183 347.151 221.883 346.622 222.042 346.093 222.201 345.793 222.758 345.952 223.287 348.114 230.494 355.332 234.795 361.401 234.828 361.152 235.683 361.024 236.568 361.022 237.458L361.002 246.877 359.036 254.772C359.016 254.851 359.005 254.932 359.006 255.014L359.006 263C359.006 263.082 359.016 263.163 359.036 263.243L360.468 268.97C360.911 270.752 362.512 272.002 364.348 272L369.001 272C369.553 272 370.001 271.552 370.001 271L370.003 268.402C370.004 266.679 368.717 265.228 367.006 265.023L367.006 257.414 374.423 249.996 381.25 249.932C383.657 251.814 387.636 252.929 392.003 252.929L399.005 252.929 399.005 263C399.006 263.082 399.016 263.163 399.035 263.243L400.467 268.97C400.91 270.752 402.511 272.002 404.348 272L409.001 272C409.553 272 410.001 271.552 410.001 271L410.003 268.402C410.004 266.679 408.716 265.228 407.006 265.023L407.006 252.873C408.414 252.629 409.768 252.14 411.006 251.427L411.006 266C411.006 266.552 411.453 267 412.006 267L412.603 267C413.376 267 414.003 267.627 414.003 268.4 414.003 268.4 414.003 268.4 414.003 268.401L414.003 270 412.006 270C411.453 270 411.006 270.448 411.006 271 411.006 271.552 411.453 272 412.006 272L415.002 272C415.554 272 416.001 271.553 416.002 271.001L416.004 268.402C416.005 266.679 414.717 265.228 413.006 265.023L413.006 249.769C414.536 247.754 415.852 245.585 416.934 243.298L420.682 233.924 429.005 233.924C432.87 233.919 436.001 230.787 436.005 226.922 436.005 226.529 435.775 226.173 435.417 226.011ZM429.005 231.924 420.005 231.924C419.596 231.924 419.228 232.173 419.076 232.553L415.096 242.511C414.049 244.712 412.774 246.796 411.29 248.73 409.792 250.033 407.919 250.828 405.94 250.999 405.415 251.035 405.007 251.471 405.006 251.997L405.006 266C405.006 266.552 405.454 267 406.006 267L406.604 267C407.377 267 408.004 267.627 408.004 268.4 408.004 268.4 408.004 268.4 408.004 268.401L408.003 270 404.348 270C403.43 270.001 402.629 269.376 402.408 268.485L401.006 262.877 401.006 251.929C401.006 251.377 400.558 250.929 400.006 250.929L392.004 250.929C387.914 250.929 384.269 249.898 382.254 248.169 382.07 248.012 381.836 247.927 381.594 247.929L373.996 248C373.734 248.002 373.484 248.108 373.299 248.293L365.299 256.293C365.111 256.48 365.006 256.735 365.006 257L365.006 266C365.006 266.552 365.453 267 366.006 267L366.603 267C367.377 267 368.003 267.627 368.003 268.4 368.003 268.4 368.003 268.4 368.003 268.401L368.003 270 364.348 270C363.43 270.001 362.629 269.376 362.408 268.485L361.006 262.877 361.006 255.137 362.973 247.242C362.993 247.163 363.003 247.082 363.003 247L363.003 238.939 363.023 237.472C363.027 233.305 366.405 229.928 370.572 229.923L400.504 229.923C402.998 229.919 405.373 228.857 407.039 227.001L413.31 220.224C413.582 219.928 413.905 219.685 414.265 219.506L413.941 224.291C413.779 226.714 415.608 228.812 418.031 228.98L418.231 228.994C418.333 229.001 418.435 229.004 418.537 229.004 420.848 229 422.763 227.21 422.921 224.904L423.098 222.31C423.144 221.759 422.736 221.276 422.185 221.229 421.635 221.183 421.151 221.591 421.105 222.142 421.104 222.152 421.103 222.163 421.103 222.173L420.926 224.767C420.835 226.09 419.69 227.089 418.368 226.998 418.368 226.998 418.367 226.998 418.367 226.998L418.167 226.985C416.846 226.893 415.848 225.749 415.936 224.427L416.311 218.942 421.005 218.919C424.26 218.934 427.082 221.176 427.831 224.344 427.901 224.649 428.109 224.904 428.394 225.033L433.967 227.55C433.647 230.048 431.523 231.92 429.005 231.924Z"/><path d="M373.006 265.023 373.006 255C373.006 254.448 372.559 254 372.006 254 371.454 254 371.006 254.448 371.006 255L371.006 266C371.006 266.552 371.454 267 372.006 267L372.604 267C373.377 267 374.004 267.627 374.004 268.4 374.004 268.4 374.004 268.4 374.004 268.401L374.003 270 372.006 270C371.453 270 371.006 270.448 371.006 271 371.006 271.552 371.453 272 372.006 272L375.002 272C375.554 272 376.001 271.553 376.002 271.001L376.004 268.402C376.005 266.679 374.717 265.228 373.006 265.023Z"/><path d="M427.004 225.5C427.004 226.328 426.332 227 425.504 227 424.675 227 424.004 226.328 424.004 225.5 424.004 224.672 424.675 224 425.504 224 426.332 224 427.004 224.672 427.004 225.5Z"/></g></g></g><text font-family="Calibri,Calibri_MSFontService,sans-serif" font-weight="400" font-size="96" transform="translate(442.222 261)">}<tspan fill="#333333" font-family="Segoe UI Emoji,Segoe UI Emoji_MSFontService,sans-serif" font-size="53" x="-116.267" y="-89">,</tspan><tspan fill="#333333" font-family="Segoe UI Emoji,Segoe UI Emoji_MSFontService,sans-serif" font-size="53" x="103.331" y="-89">,</tspan><tspan fill="#333333" font-family="Segoe UI Emoji,Segoe UI Emoji_MSFontService,sans-serif" font-size="53" x="220.751" y="-90">,</tspan><tspan fill="#333333" font-family="Segoe UI Emoji,Segoe UI Emoji_MSFontService,sans-serif" font-size="53" x="6.65448" y="-89">,</tspan></text><g clip-path="url(#clip22)"><g clip-path="url(#clip23)"><g clip-path="url(#clip24)"><path d="M38.106 61.7078C38.0728 61.7033 38.0392 61.701 38.0056 61.701L34.9944 61.701C38.0925 59.4479 39.9305 55.8524 39.9424 52.0216 39.9424 46.8295 38.8139 44.5475 35.2985 42.6297 34.9348 42.4199 34.4698 42.5447 34.2599 42.9085 34.0501 43.2723 34.1749 43.7373 34.5387 43.9471 34.549 43.9531 34.5595 43.9588 34.5701 43.9643 37.5935 45.6144 38.4216 47.3466 38.4216 52.0247 38.4216 57.2107 34.9792 60.2029 32.0911 61.7991 31.7237 62.0024 31.5906 62.4651 31.7939 62.8325 31.9278 63.0746 32.1826 63.2248 32.4591 63.2248L37.9501 63.2248C38.7429 63.3648 39.2824 64.1074 39.1706 64.9046 39.0282 65.658 38.3607 66.1972 37.5942 66.1783L27.2404 66.1783C26.9119 66.1783 25.4086 65.5935 24.0505 62.7344 24.0505 62.7268 24.0398 62.723 24.036 62.7154 24.0097 62.6719 23.9791 62.6311 23.9448 62.5937 23.916 62.5525 23.8831 62.5142 23.8467 62.4796 23.8406 62.4743 23.8375 62.466 23.8307 62.4606 23.649 62.3192 23.4398 62.1603 23.2087 61.9846 20.3647 59.822 14.4479 55.3294 14.4479 48.6667 14.4479 44.7543 16.0653 41.7902 17.6303 38.9235 17.8074 38.598 17.9839 38.2756 18.1557 37.9539 21.4749 31.7611 21.0552 25.642 17.0326 21.5844 16.7419 21.2812 16.2606 21.2711 15.9574 21.5618 15.6542 21.8524 15.6441 22.3337 15.9348 22.6369 15.9406 22.6431 15.9467 22.6492 15.9528 22.6551 19.5321 26.2656 19.8469 31.5801 16.8159 37.2353 16.6445 37.5532 16.4709 37.8731 16.295 38.195 14.7163 41.0876 12.9271 44.3665 12.9271 48.6667 12.9271 56.0838 19.4872 61.0653 22.2886 63.1906 22.4673 63.326 22.6209 63.4438 22.7707 63.5594 24.1744 66.4057 26.0146 67.6938 27.2404 67.6938L37.5942 67.6938C39.1259 67.7201 40.4422 66.6122 40.6777 65.0985 40.9001 63.453 39.7505 61.9374 38.106 61.7078Z" transform="matrix(1.13699 0 0 1 384 430)"/><path d="M49.8833 44.7779C49.8833 44.7969 49.6088 46.7018 47.3466 50.4605 47.2211 50.6688 46.9664 51.1084 46.9664 51.1084 46.8868 51.2258 46.8425 51.3635 46.8386 51.5053L46.8386 62.3542C46.8386 62.7741 47.1791 63.1146 47.599 63.1146L48.2735 63.1146C49.0381 63.0972 49.7056 63.6292 49.859 64.3784 50.001 65.2063 49.445 65.9925 48.6171 66.1344 48.533 66.1488 48.4478 66.1561 48.3625 66.1562L45.2653 66.1562C44.4254 66.1562 43.7445 65.4754 43.7445 64.6354L43.7445 55.0488C43.7445 54.6289 43.4041 54.2884 42.9841 54.2884 42.5641 54.2884 42.2237 54.6289 42.2237 55.0488L42.2237 64.6354C42.2237 66.3153 43.5855 67.6771 45.2653 67.6771L48.2241 67.6771C49.822 67.7042 51.1845 66.5249 51.3867 64.9396 51.5526 63.2658 50.3302 61.7745 48.6564 61.6086 48.5588 61.5989 48.4607 61.594 48.3625 61.5938L48.3625 51.7197C50.973 47.5101 51.3563 45.263 51.395 44.9832 51.76 43.2628 51.9163 41.5048 51.8604 39.747L51.8604 39.3447C51.9195 37.0953 51.6 34.852 50.9152 32.7086 50.5592 31.7098 50.3746 30.658 50.3692 29.5977 50.4175 28.361 51.4522 27.3936 52.6893 27.4282 56.3573 27.3572 59.2979 24.371 59.3125 20.7023 59.3284 20.0619 59.1229 19.4356 58.7308 18.9291L52.6026 10.0269 52.6026 7.65664C52.6182 7.10173 52.3376 6.5804 51.8657 6.28789 51.2841 5.94276 50.5436 6.02832 50.056 6.497L39.7698 16.1208C38.427 17.389 37.6659 19.1542 37.6657 21.0012L37.6657 21.4483C37.6657 23.3638 35.5601 25.0717 32.8941 27.2336 27.6716 31.4698 20.5183 37.2711 20.5183 50.5304 20.4769 52.9013 20.6564 55.2708 21.0544 57.6084 21.1229 57.9664 21.4358 58.2254 21.8004 58.2259 21.8489 58.2259 21.8973 58.2211 21.9449 58.2114 22.3569 58.132 22.6268 57.7339 22.5479 57.3217 22.1684 55.0786 21.9981 52.8051 22.0392 50.5304 22.0392 37.9957 28.8669 32.4584 33.8522 28.4153 36.8323 25.9979 39.1866 24.0885 39.1866 21.4483L39.1866 21.0012C39.1856 19.5747 39.7726 18.2109 40.8093 17.231L51.0749 7.59048C51.0779 7.58754 51.0827 7.58759 51.0856 7.59059 51.087 7.59198 51.0878 7.59385 51.0878 7.5958L51.0878 10.2656C51.088 10.4197 51.1349 10.57 51.2224 10.6968L57.5172 19.8377C58 20.4415 57.8472 21.3586 57.1514 22.852 56.3006 24.6546 54.5182 25.8347 52.5265 25.9142 50.5145 25.959 48.8945 27.5803 48.8514 29.5924 48.8557 30.8039 49.0612 32.0062 49.4598 33.1504 50.1029 35.1502 50.4004 37.245 50.3396 39.3447L50.3396 39.7538C50.394 41.4109 50.2474 43.0686 49.9031 44.6904Z" transform="matrix(1.13699 0 0 1 384 430)"/><path d="M53.2284 16.349C53.2284 16.9789 52.7177 17.4896 52.0878 17.4896 51.4578 17.4896 50.9472 16.9789 50.9472 16.349 50.9472 15.719 51.4578 15.2083 52.0878 15.2083 52.7177 15.2083 53.2284 15.719 53.2284 16.349Z" transform="matrix(1.13699 0 0 1 384 430)"/></g></g></g><g clip-path="url(#clip25)"><g clip-path="url(#clip26)"><g clip-path="url(#clip27)"><path d="M604.417 451.011 598.653 448.407C597.515 444.576 594.002 441.941 590.005 441.92L585.979 441.92 585.083 441.944C583.469 441.991 581.942 442.683 580.842 443.866L574.552 450.664C573.26 452.09 571.429 452.909 569.504 452.923L539.572 452.923C536.125 452.927 532.948 454.786 531.257 457.788 525.901 458.194 518.841 454.291 516.868 447.712 516.709 447.183 516.151 446.883 515.622 447.042 515.093 447.201 514.793 447.758 514.952 448.287 517.114 455.494 524.332 459.795 530.401 459.828 530.152 460.683 530.024 461.568 530.022 462.458L530.002 471.877 528.036 479.772C528.016 479.851 528.005 479.932 528.006 480.014L528.006 488C528.006 488.082 528.016 488.163 528.036 488.243L529.468 493.97C529.911 495.752 531.511 497.002 533.348 497L538.002 497C538.554 497 539.001 496.552 539.002 496L539.003 493.402C539.004 491.679 537.717 490.228 536.006 490.023L536.006 482.414 543.423 474.996 550.25 474.932C552.657 476.815 556.636 477.929 561.003 477.929L568.005 477.929 568.005 488C568.006 488.082 568.016 488.163 568.035 488.243L569.468 493.97C569.91 495.752 571.511 497.002 573.347 497L578.001 497C578.553 497 579.001 496.552 579.001 496L579.003 493.402C579.004 491.679 577.716 490.228 576.006 490.023L576.006 477.873C577.414 477.629 578.768 477.14 580.006 476.427L580.006 491C580.006 491.552 580.453 492 581.006 492L581.603 492C582.377 492 583.003 492.627 583.003 493.4 583.003 493.4 583.003 493.4 583.003 493.401L583.003 495 581.006 495C580.453 495 580.006 495.448 580.006 496 580.006 496.552 580.453 497 581.006 497L584.002 497C584.554 497 585.002 496.553 585.002 496.001L585.004 493.402C585.005 491.679 583.717 490.228 582.006 490.023L582.006 474.769C583.536 472.754 584.852 470.585 585.933 468.298L589.682 458.924 598.005 458.924C601.87 458.919 605.001 455.787 605.005 451.922 605.005 451.53 604.775 451.173 604.417 451.011ZM598.005 456.924 589.005 456.924C588.596 456.924 588.228 457.173 588.076 457.552L584.096 467.511C583.049 469.712 581.774 471.796 580.29 473.73 578.792 475.033 576.919 475.828 574.94 475.999 574.415 476.035 574.007 476.471 574.006 476.997L574.006 491C574.006 491.552 574.454 492 575.006 492L575.604 492C576.377 492 577.004 492.627 577.004 493.4 577.004 493.4 577.004 493.4 577.004 493.401L577.003 495 573.348 495C572.43 495.001 571.629 494.376 571.408 493.485L570.006 487.877 570.006 476.929C570.006 476.377 569.558 475.929 569.006 475.929L561.004 475.929C556.914 475.929 553.269 474.898 551.254 473.169 551.07 473.012 550.836 472.927 550.594 472.929L542.997 473C542.734 473.002 542.484 473.108 542.299 473.293L534.299 481.293C534.111 481.48 534.006 481.735 534.006 482L534.006 491C534.006 491.552 534.453 492 535.006 492L535.603 492C536.377 492 537.003 492.627 537.003 493.4 537.003 493.4 537.003 493.4 537.003 493.401L537.003 495 533.348 495C532.43 495.001 531.629 494.376 531.408 493.485L530.006 487.877 530.006 480.137 531.973 472.242C531.993 472.163 532.003 472.082 532.003 472L532.003 463.939 532.023 462.472C532.027 458.305 535.404 454.928 539.572 454.923L569.504 454.923C571.998 454.919 574.373 453.857 576.039 452.001L582.31 445.224C582.582 444.928 582.905 444.685 583.265 444.506L582.941 449.291C582.779 451.714 584.608 453.812 587.031 453.98L587.231 453.994C587.333 454.001 587.435 454.004 587.537 454.004 589.848 454 591.763 452.21 591.921 449.904L592.098 447.31C592.144 446.759 591.736 446.276 591.185 446.229 590.635 446.183 590.151 446.591 590.105 447.142 590.104 447.152 590.103 447.163 590.103 447.173L589.925 449.767C589.835 451.09 588.69 452.089 587.368 451.998 587.368 451.998 587.367 451.998 587.367 451.998L587.167 451.985C585.846 451.893 584.848 450.749 584.936 449.427L585.311 443.942 590.005 443.919C593.26 443.934 596.082 446.177 596.831 449.344 596.901 449.649 597.109 449.904 597.394 450.033L602.967 452.55C602.648 455.048 600.523 456.92 598.005 456.924Z"/><path d="M542.006 490.023 542.006 480C542.006 479.448 541.559 479 541.006 479 540.454 479 540.006 479.448 540.006 480L540.006 491C540.006 491.552 540.454 492 541.006 492L541.604 492C542.377 492 543.004 492.627 543.004 493.4 543.004 493.4 543.004 493.4 543.004 493.401L543.003 495 541.006 495C540.453 495 540.006 495.448 540.006 496 540.006 496.552 540.453 497 541.006 497L544.002 497C544.554 497 545.002 496.553 545.002 496.001L545.004 493.402C545.005 491.679 543.717 490.228 542.006 490.023Z"/><path d="M596.004 450.5C596.004 451.328 595.332 452 594.504 452 593.675 452 593.004 451.328 593.004 450.5 593.004 449.672 593.675 449 594.504 449 595.332 449 596.004 449.672 596.004 450.5Z"/></g></g></g><g clip-path="url(#clip28)"><g clip-path="url(#clip29)"><g clip-path="url(#clip30)"><path d="M38.106 61.7078C38.0728 61.7033 38.0392 61.701 38.0056 61.701L34.9944 61.701C38.0925 59.4479 39.9305 55.8524 39.9424 52.0216 39.9424 46.8295 38.8139 44.5475 35.2985 42.6297 34.9348 42.4199 34.4698 42.5447 34.2599 42.9085 34.0501 43.2723 34.1749 43.7373 34.5387 43.9471 34.549 43.9531 34.5595 43.9588 34.5701 43.9643 37.5935 45.6144 38.4216 47.3466 38.4216 52.0247 38.4216 57.2107 34.9792 60.2029 32.0911 61.7991 31.7237 62.0024 31.5906 62.4651 31.7939 62.8325 31.9278 63.0746 32.1826 63.2248 32.4591 63.2248L37.9501 63.2248C38.7429 63.3648 39.2824 64.1074 39.1706 64.9046 39.0282 65.658 38.3607 66.1972 37.5942 66.1783L27.2404 66.1783C26.9119 66.1783 25.4086 65.5935 24.0505 62.7344 24.0505 62.7268 24.0398 62.723 24.036 62.7154 24.0097 62.6719 23.9791 62.6311 23.9448 62.5937 23.916 62.5525 23.8831 62.5142 23.8467 62.4796 23.8406 62.4743 23.8375 62.466 23.8307 62.4606 23.649 62.3192 23.4398 62.1603 23.2087 61.9846 20.3647 59.822 14.4479 55.3294 14.4479 48.6667 14.4479 44.7543 16.0653 41.7902 17.6303 38.9235 17.8074 38.598 17.9839 38.2756 18.1557 37.9539 21.4749 31.7611 21.0552 25.642 17.0326 21.5844 16.7419 21.2812 16.2606 21.2711 15.9574 21.5618 15.6542 21.8524 15.6441 22.3337 15.9348 22.6369 15.9406 22.6431 15.9467 22.6492 15.9528 22.6551 19.5321 26.2656 19.8469 31.5801 16.8159 37.2353 16.6445 37.5532 16.4709 37.8731 16.295 38.195 14.7163 41.0876 12.9271 44.3665 12.9271 48.6667 12.9271 56.0838 19.4872 61.0653 22.2886 63.1906 22.4673 63.326 22.6209 63.4438 22.7707 63.5594 24.1744 66.4057 26.0146 67.6938 27.2404 67.6938L37.5942 67.6938C39.1259 67.7201 40.4422 66.6122 40.6777 65.0985 40.9001 63.453 39.7505 61.9374 38.106 61.7078Z" transform="matrix(1.13699 0 0 1 654 430)"/><path d="M49.8833 44.7779C49.8833 44.7969 49.6088 46.7018 47.3466 50.4605 47.2211 50.6688 46.9664 51.1084 46.9664 51.1084 46.8868 51.2258 46.8425 51.3635 46.8386 51.5053L46.8386 62.3542C46.8386 62.7741 47.1791 63.1146 47.599 63.1146L48.2735 63.1146C49.0381 63.0972 49.7056 63.6292 49.859 64.3784 50.001 65.2063 49.445 65.9925 48.6171 66.1344 48.533 66.1488 48.4478 66.1561 48.3625 66.1562L45.2653 66.1562C44.4254 66.1562 43.7445 65.4754 43.7445 64.6354L43.7445 55.0488C43.7445 54.6289 43.4041 54.2884 42.9841 54.2884 42.5641 54.2884 42.2237 54.6289 42.2237 55.0488L42.2237 64.6354C42.2237 66.3153 43.5855 67.6771 45.2653 67.6771L48.2241 67.6771C49.822 67.7042 51.1845 66.5249 51.3867 64.9396 51.5526 63.2658 50.3302 61.7745 48.6564 61.6086 48.5588 61.5989 48.4607 61.594 48.3625 61.5938L48.3625 51.7197C50.973 47.5101 51.3563 45.263 51.395 44.9832 51.76 43.2628 51.9163 41.5048 51.8604 39.747L51.8604 39.3447C51.9195 37.0953 51.6 34.852 50.9152 32.7086 50.5592 31.7098 50.3746 30.658 50.3692 29.5977 50.4175 28.361 51.4522 27.3936 52.6893 27.4282 56.3573 27.3572 59.2979 24.371 59.3125 20.7023 59.3284 20.0619 59.1229 19.4356 58.7308 18.9291L52.6026 10.0269 52.6026 7.65664C52.6182 7.10173 52.3376 6.5804 51.8657 6.28789 51.2841 5.94276 50.5436 6.02832 50.056 6.497L39.7698 16.1208C38.427 17.389 37.6659 19.1542 37.6657 21.0012L37.6657 21.4483C37.6657 23.3638 35.5601 25.0717 32.8941 27.2336 27.6716 31.4698 20.5183 37.2711 20.5183 50.5304 20.4769 52.9013 20.6564 55.2708 21.0544 57.6084 21.1229 57.9664 21.4358 58.2254 21.8004 58.2259 21.8489 58.2259 21.8973 58.2211 21.9449 58.2114 22.3569 58.132 22.6268 57.7339 22.5479 57.3217 22.1684 55.0786 21.9981 52.8051 22.0392 50.5304 22.0392 37.9957 28.8669 32.4584 33.8522 28.4153 36.8323 25.9979 39.1866 24.0885 39.1866 21.4483L39.1866 21.0012C39.1856 19.5747 39.7726 18.2109 40.8093 17.231L51.0749 7.59048C51.0779 7.58754 51.0827 7.58759 51.0856 7.59059 51.087 7.59198 51.0878 7.59385 51.0878 7.5958L51.0878 10.2656C51.088 10.4197 51.1349 10.57 51.2224 10.6968L57.5172 19.8377C58 20.4415 57.8472 21.3586 57.1514 22.852 56.3006 24.6546 54.5182 25.8347 52.5265 25.9142 50.5145 25.959 48.8945 27.5803 48.8514 29.5924 48.8557 30.8039 49.0612 32.0062 49.4598 33.1504 50.1029 35.1502 50.4004 37.245 50.3396 39.3447L50.3396 39.7538C50.394 41.4109 50.2474 43.0686 49.9031 44.6904Z" transform="matrix(1.13699 0 0 1 654 430)"/><path d="M53.2284 16.349C53.2284 16.9789 52.7177 17.4896 52.0878 17.4896 51.4578 17.4896 50.9472 16.9789 50.9472 16.349 50.9472 15.719 51.4578 15.2083 52.0878 15.2083 52.7177 15.2083 53.2284 15.719 53.2284 16.349Z" transform="matrix(1.13699 0 0 1 654 430)"/></g></g></g><g clip-path="url(#clip31)"><g clip-path="url(#clip32)"><g clip-path="url(#clip33)"><path d="M823.417 451.011 817.653 448.407C816.515 444.576 813.002 441.941 809.005 441.92L804.979 441.92 804.083 441.944C802.469 441.991 800.942 442.683 799.842 443.866L793.552 450.664C792.26 452.09 790.429 452.909 788.504 452.923L758.572 452.923C755.125 452.927 751.948 454.786 750.257 457.788 744.901 458.194 737.841 454.291 735.868 447.712 735.709 447.183 735.151 446.883 734.622 447.042 734.093 447.201 733.793 447.758 733.952 448.287 736.114 455.494 743.332 459.795 749.401 459.828 749.152 460.683 749.024 461.568 749.022 462.458L749.002 471.877 747.036 479.772C747.016 479.851 747.005 479.932 747.006 480.014L747.006 488C747.006 488.082 747.016 488.163 747.036 488.243L748.468 493.97C748.911 495.752 750.511 497.002 752.348 497L757.002 497C757.554 497 758.001 496.552 758.002 496L758.003 493.402C758.004 491.679 756.717 490.228 755.006 490.023L755.006 482.414 762.423 474.996 769.25 474.932C771.657 476.815 775.636 477.929 780.003 477.929L787.005 477.929 787.005 488C787.006 488.082 787.016 488.163 787.035 488.243L788.468 493.97C788.91 495.752 790.511 497.002 792.347 497L797.001 497C797.553 497 798.001 496.552 798.001 496L798.003 493.402C798.004 491.679 796.716 490.228 795.006 490.023L795.006 477.873C796.414 477.629 797.768 477.14 799.006 476.427L799.006 491C799.006 491.552 799.453 492 800.006 492L800.603 492C801.377 492 802.003 492.627 802.003 493.4 802.003 493.4 802.003 493.4 802.003 493.401L802.003 495 800.006 495C799.453 495 799.006 495.448 799.006 496 799.006 496.552 799.453 497 800.006 497L803.002 497C803.554 497 804.002 496.553 804.002 496.001L804.004 493.402C804.005 491.679 802.717 490.228 801.006 490.023L801.006 474.769C802.536 472.754 803.852 470.585 804.933 468.298L808.682 458.924 817.005 458.924C820.87 458.919 824.001 455.787 824.005 451.922 824.005 451.53 823.775 451.173 823.417 451.011ZM817.005 456.924 808.005 456.924C807.596 456.924 807.228 457.173 807.076 457.552L803.096 467.511C802.049 469.712 800.774 471.796 799.29 473.73 797.792 475.033 795.919 475.828 793.94 475.999 793.415 476.035 793.007 476.471 793.006 476.997L793.006 491C793.006 491.552 793.454 492 794.006 492L794.604 492C795.377 492 796.004 492.627 796.004 493.4 796.004 493.4 796.004 493.4 796.004 493.401L796.003 495 792.348 495C791.43 495.001 790.629 494.376 790.408 493.485L789.006 487.877 789.006 476.929C789.006 476.377 788.558 475.929 788.006 475.929L780.004 475.929C775.914 475.929 772.269 474.898 770.254 473.169 770.07 473.012 769.836 472.927 769.594 472.929L761.997 473C761.734 473.002 761.484 473.108 761.299 473.293L753.299 481.293C753.111 481.48 753.006 481.735 753.006 482L753.006 491C753.006 491.552 753.453 492 754.006 492L754.603 492C755.377 492 756.003 492.627 756.003 493.4 756.003 493.4 756.003 493.4 756.003 493.401L756.003 495 752.348 495C751.43 495.001 750.629 494.376 750.408 493.485L749.006 487.877 749.006 480.137 750.973 472.242C750.993 472.163 751.003 472.082 751.003 472L751.003 463.939 751.023 462.472C751.027 458.305 754.404 454.928 758.572 454.923L788.504 454.923C790.998 454.919 793.373 453.857 795.039 452.001L801.31 445.224C801.582 444.928 801.905 444.685 802.265 444.506L801.941 449.291C801.779 451.714 803.608 453.812 806.031 453.98L806.231 453.994C806.333 454.001 806.435 454.004 806.537 454.004 808.848 454 810.763 452.21 810.921 449.904L811.098 447.31C811.144 446.759 810.736 446.276 810.185 446.229 809.635 446.183 809.151 446.591 809.105 447.142 809.104 447.152 809.103 447.163 809.103 447.173L808.925 449.767C808.835 451.09 807.69 452.089 806.368 451.998 806.368 451.998 806.367 451.998 806.367 451.998L806.167 451.985C804.846 451.893 803.848 450.749 803.936 449.427L804.311 443.942 809.005 443.919C812.26 443.934 815.082 446.177 815.831 449.344 815.901 449.649 816.109 449.904 816.394 450.033L821.967 452.55C821.648 455.048 819.523 456.92 817.005 456.924Z"/><path d="M761.006 490.023 761.006 480C761.006 479.448 760.559 479 760.006 479 759.454 479 759.006 479.448 759.006 480L759.006 491C759.006 491.552 759.454 492 760.006 492L760.604 492C761.377 492 762.004 492.627 762.004 493.4 762.004 493.4 762.004 493.4 762.004 493.401L762.003 495 760.006 495C759.453 495 759.006 495.448 759.006 496 759.006 496.552 759.453 497 760.006 497L763.002 497C763.554 497 764.002 496.553 764.002 496.001L764.004 493.402C764.005 491.679 762.717 490.228 761.006 490.023Z"/><path d="M815.004 450.5C815.004 451.328 814.332 452 813.504 452 812.675 452 812.004 451.328 812.004 450.5 812.004 449.672 812.675 449 813.504 449 814.332 449 815.004 449.672 815.004 450.5Z"/></g></g></g><text fill="#333333" font-family="Segoe UI Emoji,Segoe UI Emoji_MSFontService,sans-serif" font-weight="400" font-size="59" transform="translate(342.137 478)">}<tspan font-size="59" x="-25.1725" y="0">{</tspan><tspan font-size="53" x="17.9388" y="16">,</tspan><tspan font-size="59" x="28.7311" y="-1">{</tspan><tspan font-size="59" x="116.54" y="0">}</tspan><tspan font-size="53" x="133.448" y="16">,</tspan><tspan font-size="59" x="149.091" y="-1">{</tspan><tspan font-size="59" x="264.907" y="0">}</tspan><tspan font-size="53" x="281.07" y="16">,</tspan><tspan font-size="59" x="299.822" y="0">{</tspan><tspan font-size="59" x="487.015" y="-1">}</tspan><tspan fill="#000000" font-family="Calibri,Calibri_MSFontService,sans-serif" font-size="96" x="505.143" y="10">}</tspan><tspan font-size="53" x="380.796" y="16">,</tspan></text></g></svg>