<svg width="1280" height="720" xmlns="http://www.w3.org/2000/svg" xmlns:xlink="http://www.w3.org/1999/xlink" overflow="hidden"><defs><clipPath id="clip0"><rect x="0" y="0" width="1280" height="720"/></clipPath></defs><g clip-path="url(#clip0)"><rect x="0" y="0" width="1280" height="720" fill="#FFFFFF"/><rect x="481.5" y="69.5001" width="264" height="189" stroke="#000000" stroke-width="3" stroke-miterlimit="8" fill="#D6DCE5"/><rect x="195.5" y="69.5001" width="265" height="189" stroke="#000000" stroke-width="3" stroke-miterlimit="8" fill="none"/><rect x="195.5" y="277.5" width="265" height="189" stroke="#000000" stroke-width="3" stroke-miterlimit="8" fill="#FFFFFF"/><rect x="195.5" y="485.5" width="265" height="189" stroke="#000000" stroke-width="3" stroke-miterlimit="8" fill="#FFFFFF"/><rect x="481.5" y="277.5" width="264" height="189" stroke="#000000" stroke-width="3" stroke-miterlimit="8" fill="#FFFFFF"/><rect x="481.5" y="485.5" width="264" height="189" stroke="#000000" stroke-width="3" stroke-miterlimit="8" fill="#FFFFFF"/><rect x="195.5" y="147.5" width="111" height="111" stroke="#000000" stroke-width="3" stroke-miterlimit="8" fill="#D6DCE5"/><rect x="481.5" y="147.5" width="110" height="111" stroke="#000000" stroke-width="3" stroke-miterlimit="8" fill="#FFFFFF"/><text font-family="Calibri,Calibri_MSFontService,sans-serif" font-weight="400" font-size="43" transform="translate(315.705 61)">X<tspan font-size="43" x="285.833" y="0">X</tspan><tspan font-weight="700" font-size="43" x="-77.5389" y="156">A</tspan><tspan font-weight="700" font-size="43" x="332.463" y="117">A</tspan><tspan font-weight="700" font-size="28" x="357.796" y="104">C</tspan><tspan font-weight="700" font-size="37" x="449.636" y="112">A</tspan><tspan font-weight="700" font-size="25" x="471.863" y="101">C </tspan><tspan font-size="37" x="490.696" y="112">= {</tspan><tspan font-size="37" x="538.029" y="112">x</tspan><tspan font-family="Cambria Math,Cambria Math_MSFontService,sans-serif" font-size="37" x="554.196" y="112"> </tspan><tspan font-family="Cambria Math,Cambria Math_MSFontService,sans-serif" font-size="37" x="562.363" y="112">∈</tspan><tspan font-weight="700" font-size="37" x="594.196" y="112">X</tspan><tspan font-size="37" x="623.196" y="112">| x </tspan><tspan font-family="Cambria Math,Cambria Math_MSFontService,sans-serif" font-size="37" x="673.529" y="112">∉</tspan><tspan font-weight="700" font-size="37" x="705.863" y="112">A</tspan><tspan font-size="37" x="737.029" y="112">}</tspan><tspan font-size="32" x="-300.353" y="107">Complement</tspan><tspan font-size="32" x="-213.053" y="317">Union</tspan><tspan font-size="32" x="-249.301" y="530">Intersect</tspan></text><rect x="195.5" y="355.5" width="111" height="111" stroke="#000000" stroke-width="3" stroke-miterlimit="8" fill="#D6DCE5"/><rect x="195.5" y="563.5" width="111" height="111" stroke="#000000" stroke-width="3" stroke-miterlimit="8" fill="#D6DCE5"/><rect x="251.5" y="299.5" width="110" height="112" stroke="#000000" stroke-width="3" stroke-miterlimit="8" fill="#D6DCE5" fill-opacity="0.6"/><rect x="251.5" y="507.5" width="110" height="111" stroke="#000000" stroke-width="3" stroke-miterlimit="8" fill="#D6DCE5" fill-opacity="0.6"/><text font-family="Calibri,Calibri_MSFontService,sans-serif" font-weight="700" font-size="43" transform="translate(210.792 449)">A<tspan font-size="43" x="0" y="208">A</tspan><tspan font-size="43" x="111.33" y="-111">B</tspan><tspan font-size="43" x="111.33" y="97">B</tspan></text><rect x="481.5" y="355.5" width="110" height="111" stroke="#000000" stroke-width="3" stroke-miterlimit="8" fill="#D6DCE5"/><rect x="536.5" y="299.5" width="111" height="112" stroke="#000000" stroke-width="3" stroke-miterlimit="8" fill="#D6DCE5"/><rect x="518" y="357" width="72" height="63" fill="#D6DCE5"/><text font-family="Calibri,Calibri_MSFontService,sans-serif" font-weight="700" font-size="43" transform="translate(518.67 395)">A<tspan font-family="Cambria Math,Cambria Math_MSFontService,sans-serif" font-weight="400" font-size="43" x="35.5" y="0">∪</tspan><tspan font-size="43" x="74.1666" y="0">B</tspan></text><rect x="532.5" y="556.5" width="56" height="56" stroke="#000000" stroke-width="3" stroke-miterlimit="8" fill="#D6DCE5"/><text font-family="Calibri,Calibri_MSFontService,sans-serif" font-weight="700" font-size="43" transform="translate(606.86 596)">A<tspan font-family="Cambria Math,Cambria Math_MSFontService,sans-serif" font-weight="400" font-size="43" x="35.5" y="0">∩</tspan><tspan font-family="Cambria Math,Cambria Math_MSFontService,sans-serif" font-weight="400" font-size="43" x="64.5" y="0"> </tspan><tspan font-size="43" x="73.8333" y="0">B</tspan><tspan font-size="37" x="157.848" y="-216">A</tspan><tspan font-family="Cambria Math,Cambria Math_MSFontService,sans-serif" font-weight="400" font-size="37" x="189.015" y="-216">∪</tspan><tspan font-size="37" x="223.015" y="-216">B</tspan><tspan font-weight="400" font-size="37" x="252.515" y="-216">= {</tspan><tspan font-weight="400" font-size="37" x="299.848" y="-216">x</tspan><tspan font-family="Cambria Math,Cambria Math_MSFontService,sans-serif" font-weight="400" font-size="37" x="316.015" y="-216"> </tspan><tspan font-family="Cambria Math,Cambria Math_MSFontService,sans-serif" font-weight="400" font-size="37" x="324.182" y="-216">∈</tspan><tspan font-size="37" x="356.015" y="-216">X</tspan><tspan font-weight="400" font-size="37" x="385.015" y="-216">| </tspan><tspan font-weight="400" font-size="37" x="410.682" y="-216">x</tspan><tspan font-family="Cambria Math,Cambria Math_MSFontService,sans-serif" font-weight="400" font-size="37" x="426.848" y="-216"> </tspan><tspan font-family="Cambria Math,Cambria Math_MSFontService,sans-serif" font-weight="400" font-size="37" x="435.015" y="-216">∈</tspan><tspan font-family="Cambria Math,Cambria Math_MSFontService,sans-serif" font-weight="400" font-size="37" x="458.348" y="-216"> </tspan><tspan font-size="37" x="466.515" y="-216">A</tspan><tspan font-weight="400" font-size="37" x="497.682" y="-216">or </tspan><tspan font-weight="400" font-size="37" x="538.848" y="-216">x</tspan><tspan font-family="Cambria Math,Cambria Math_MSFontService,sans-serif" font-weight="400" font-size="37" x="555.015" y="-216"> </tspan><tspan font-family="Cambria Math,Cambria Math_MSFontService,sans-serif" font-weight="400" font-size="37" x="563.182" y="-216">∈</tspan><tspan font-size="37" x="595.015" y="-216">B</tspan><tspan font-weight="400" font-size="37" x="624.515" y="-216">}</tspan><tspan font-size="37" x="157.849" y="-9">A</tspan><tspan font-family="Cambria Math,Cambria Math_MSFontService,sans-serif" font-weight="400" font-size="37" x="180.515" y="-9"> </tspan><tspan font-family="Cambria Math,Cambria Math_MSFontService,sans-serif" font-weight="400" font-size="37" x="188.682" y="-9">∩</tspan><tspan font-size="37" x="222.682" y="-9">B</tspan><tspan font-weight="400" font-size="37" x="252.182" y="-9">= {</tspan><tspan font-weight="400" font-size="37" x="299.515" y="-9">x</tspan><tspan font-family="Cambria Math,Cambria Math_MSFontService,sans-serif" font-weight="400" font-size="37" x="315.682" y="-9"> </tspan><tspan font-family="Cambria Math,Cambria Math_MSFontService,sans-serif" font-weight="400" font-size="37" x="323.849" y="-9">∈</tspan><tspan font-size="37" x="355.682" y="-9">X</tspan><tspan font-weight="400" font-size="37" x="384.682" y="-9">| </tspan><tspan font-weight="400" font-size="37" x="410.349" y="-9">x</tspan><tspan font-family="Cambria Math,Cambria Math_MSFontService,sans-serif" font-weight="400" font-size="37" x="426.515" y="-9"> </tspan><tspan font-family="Cambria Math,Cambria Math_MSFontService,sans-serif" font-weight="400" font-size="37" x="434.682" y="-9">∈</tspan><tspan font-family="Cambria Math,Cambria Math_MSFontService,sans-serif" font-weight="400" font-size="37" x="458.015" y="-9"> </tspan><tspan font-size="37" x="466.182" y="-9">A</tspan><tspan font-weight="400" font-size="37" x="497.349" y="-9">and </tspan><tspan font-weight="400" font-size="37" x="563.015" y="-9">x</tspan><tspan font-family="Cambria Math,Cambria Math_MSFontService,sans-serif" font-weight="400" font-size="37" x="579.182" y="-9"> </tspan><tspan font-family="Cambria Math,Cambria Math_MSFontService,sans-serif" font-weight="400" font-size="37" x="587.349" y="-9">∈</tspan><tspan font-size="37" x="619.182" y="-9">B</tspan><tspan font-weight="400" font-size="37" x="648.682" y="-9">}</tspan></text></g></svg>