<svg width="1280" height="720" xmlns="http://www.w3.org/2000/svg" xmlns:xlink="http://www.w3.org/1999/xlink" overflow="hidden"><defs><clipPath id="clip0"><rect x="0" y="0" width="1280" height="720"/></clipPath></defs><g clip-path="url(#clip0)"><rect x="0" y="0" width="1280" height="720" fill="#FFFFFF"/><text font-family="Calibri,Calibri_MSFontService,sans-serif" font-weight="400" font-size="43" transform="translate(776.563 182)">Overlapping</text><rect x="171.5" y="202.5" width="288" height="203" stroke="#000000" stroke-width="3" stroke-miterlimit="8" fill="none"/><text font-family="Calibri,Calibri_MSFontService,sans-serif" font-weight="400" font-size="43" transform="translate(158.207 182)">Mutually exclusive</text><rect x="187.5" y="268.5" width="111" height="111" stroke="#000000" stroke-width="3" stroke-miterlimit="8" fill="#D6DCE5"/><text font-family="Calibri,Calibri_MSFontService,sans-serif" font-weight="400" font-size="43" transform="translate(224.691 337)">A<tspan font-size="28" x="24.6667" y="10">1</tspan></text><rect x="353.5" y="216.5" width="83" height="86" stroke="#000000" stroke-width="3" stroke-miterlimit="8" fill="#D6DCE5"/><text font-family="Calibri,Calibri_MSFontService,sans-serif" font-weight="400" font-size="43" transform="translate(378.733 273)">A<tspan font-size="28" x="24.6667" y="10">2</tspan><tspan font-size="37" x="-154.042" y="172">P</tspan><tspan font-family="Cambria Math,Cambria Math_MSFontService,sans-serif" font-size="25" x="-134.709" y="180">ğœ‹</tspan><tspan font-size="37" x="-119.075" y="172">(A</tspan><tspan font-family="Cambria Math,Cambria Math_MSFontService,sans-serif" font-size="37" x="-86.0754" y="172"> </tspan><tspan font-family="Cambria Math,Cambria Math_MSFontService,sans-serif" font-size="37" x="-77.9088" y="172">âˆ©</tspan><tspan font-size="37" x="-43.9088" y="172">B) </tspan><tspan font-size="37" x="-3.7421" y="172">= 0 </tspan><tspan font-size="37" x="-235.646" y="221">P</tspan><tspan font-family="Cambria Math,Cambria Math_MSFontService,sans-serif" font-size="25" x="-216.313" y="229">ğœ‹</tspan><tspan font-size="37" x="-200.679" y="221">(</tspan><tspan font-size="37" x="-189.346" y="221">A</tspan><tspan font-family="Cambria Math,Cambria Math_MSFontService,sans-serif" font-size="37" x="-167.679" y="221"> </tspan><tspan font-family="Cambria Math,Cambria Math_MSFontService,sans-serif" font-size="37" x="-159.513" y="221">âˆª</tspan><tspan font-size="37" x="-125.513" y="221">B) = P</tspan><tspan font-family="Cambria Math,Cambria Math_MSFontService,sans-serif" font-size="25" x="-38.8461" y="229">ğœ‹</tspan><tspan font-size="37" x="-23.2127" y="221">(</tspan><tspan font-size="37" x="-11.8794" y="221">A) + </tspan><tspan font-size="37" x="56.7873" y="221">P</tspan><tspan font-family="Cambria Math,Cambria Math_MSFontService,sans-serif" font-size="25" x="76.1206" y="229">ğœ‹</tspan><tspan font-size="37" x="91.7539" y="221">(B</tspan><tspan font-size="37" x="123.421" y="221">)</tspan></text><rect x="744.5" y="202.5" width="288" height="203" stroke="#000000" stroke-width="3" stroke-miterlimit="8" fill="none"/><rect x="759.5" y="268.5" width="111" height="111" stroke="#000000" stroke-width="3" stroke-miterlimit="8" fill="#D6DCE5"/><text font-family="Calibri,Calibri_MSFontService,sans-serif" font-weight="400" font-size="43" transform="translate(802.247 337)">A<tspan font-size="28" x="24.6667" y="10">1</tspan></text><rect x="845.5" y="247.5" width="83" height="86" stroke="#000000" stroke-width="3" stroke-miterlimit="8" fill="#D6DCE5" fill-opacity="0.6"/><text font-family="Calibri,Calibri_MSFontService,sans-serif" font-weight="400" font-size="43" transform="translate(874.701 304)">A<tspan font-size="28" x="24.6667" y="10">2</tspan><tspan font-size="37" x="-249.336" y="190">P</tspan><tspan font-family="Cambria Math,Cambria Math_MSFontService,sans-serif" font-size="25" x="-230.003" y="198">ğœ‹</tspan><tspan font-size="37" x="-214.369" y="190">(</tspan><tspan font-size="37" x="-203.036" y="190">A</tspan><tspan font-family="Cambria Math,Cambria Math_MSFontService,sans-serif" font-size="37" x="-181.369" y="190"> </tspan><tspan font-family="Cambria Math,Cambria Math_MSFontService,sans-serif" font-size="37" x="-173.203" y="190">âˆª</tspan><tspan font-size="37" x="-139.203" y="190">B) = P</tspan><tspan font-family="Cambria Math,Cambria Math_MSFontService,sans-serif" font-size="25" x="-52.5358" y="198">ğœ‹</tspan><tspan font-size="37" x="-36.9025" y="190">(</tspan><tspan font-size="37" x="-25.5692" y="190">A) + </tspan><tspan font-size="37" x="43.0975" y="190">P</tspan><tspan font-family="Cambria Math,Cambria Math_MSFontService,sans-serif" font-size="25" x="62.4308" y="198">ğœ‹</tspan><tspan font-size="37" x="78.0641" y="190">(B) </tspan><tspan font-size="37" x="129.564" y="190">-</tspan><tspan font-size="37" x="149.564" y="190">P</tspan><tspan font-family="Cambria Math,Cambria Math_MSFontService,sans-serif" font-size="25" x="168.897" y="198">ğœ‹</tspan><tspan font-size="37" x="184.531" y="190">(A</tspan><tspan font-family="Cambria Math,Cambria Math_MSFontService,sans-serif" font-size="37" x="217.531" y="190"> </tspan><tspan font-family="Cambria Math,Cambria Math_MSFontService,sans-serif" font-size="37" x="225.698" y="190">âˆ©</tspan><tspan font-size="37" x="259.698" y="190">B</tspan><tspan font-size="37" x="280.031" y="190">)</tspan><tspan font-size="37" x="-75.7811" y="141">P</tspan><tspan font-family="Cambria Math,Cambria Math_MSFontService,sans-serif" font-size="25" x="-56.4478" y="149">ğœ‹</tspan><tspan font-size="37" x="-40.8144" y="141">(A</tspan><tspan font-family="Cambria Math,Cambria Math_MSFontService,sans-serif" font-size="37" x="-7.81439" y="141"> </tspan><tspan font-family="Cambria Math,Cambria Math_MSFontService,sans-serif" font-size="37" x="0.352234" y="141">âˆ©</tspan><tspan font-size="37" x="34.3522" y="141">B) </tspan><tspan font-size="37" x="74.5189" y="141">â‰  0 </tspan></text></g></svg>