<svg width="1280" height="720" xmlns="http://www.w3.org/2000/svg" xmlns:xlink="http://www.w3.org/1999/xlink" overflow="hidden"><defs><clipPath id="clip0"><rect x="0" y="0" width="1280" height="720"/></clipPath></defs><g clip-path="url(#clip0)"><rect x="0" y="0" width="1280" height="720" fill="#FFFFFF"/><rect x="450.5" y="132.5" width="223" height="163" stroke="#000000" stroke-width="3" stroke-miterlimit="8" fill="none"/><rect x="141.5" y="132.5" width="224" height="163" stroke="#000000" stroke-width="3" stroke-miterlimit="8" fill="none"/><rect x="450.5" y="318.5" width="223" height="163" stroke="#000000" stroke-width="3" stroke-miterlimit="8" fill="none"/><rect x="141.5" y="318.5" width="224" height="163" stroke="#000000" stroke-width="3" stroke-miterlimit="8" fill="none"/><rect x="450.5" y="505.5" width="223" height="162" stroke="#000000" stroke-width="3" stroke-miterlimit="8" fill="none"/><rect x="141.5" y="505.5" width="224" height="162" stroke="#000000" stroke-width="3" stroke-miterlimit="8" fill="none"/><text font-family="Calibri,Calibri_MSFontService,sans-serif" font-weight="400" font-size="43" transform="translate(244.846 121)">X<tspan font-size="43" x="309.21" y="-1">Y</tspan></text><path d="M235.5 213C235.5 204.992 241.768 198.5 249.5 198.5 257.232 198.5 263.5 204.992 263.5 213 263.5 221.008 257.232 227.5 249.5 227.5 241.768 227.5 235.5 221.008 235.5 213Z" stroke="#000000" stroke-width="3" stroke-miterlimit="8" fill="#D6DCE5" fill-rule="evenodd"/><path d="M515.5 216.5C515.5 194.961 533.856 177.5 556.5 177.5 579.144 177.5 597.5 194.961 597.5 216.5 597.5 238.039 579.144 255.5 556.5 255.5 533.856 255.5 515.5 238.039 515.5 216.5Z" stroke="#000000" stroke-width="3" stroke-miterlimit="8" fill="#FBE5D6" fill-rule="evenodd"/><path d="M263.517 212 502.391 214.694 502.357 217.694 263.483 215ZM500.958 208.677 515.873 216.346 500.789 223.676Z"/><path d="M235.5 400C235.5 391.992 241.768 385.5 249.5 385.5 257.232 385.5 263.5 391.992 263.5 400 263.5 408.008 257.232 414.5 249.5 414.5 241.768 414.5 235.5 408.008 235.5 400Z" stroke="#000000" stroke-width="3" stroke-miterlimit="8" fill="#D6DCE5" fill-rule="evenodd"/><path d="M515.5 399.5C515.5 376.856 533.856 358.5 556.5 358.5 579.144 358.5 597.5 376.856 597.5 399.5 597.5 422.144 579.144 440.5 556.5 440.5 533.856 440.5 515.5 422.144 515.5 399.5Z" stroke="#000000" stroke-width="3" stroke-miterlimit="8" fill="#FBE5D6" fill-rule="evenodd"/><path d="M277 398 286 398 286 401 277 401ZM289 398 298 398 298 401 289 401ZM301 398 310 398 310 401 301 401ZM313 398 322 398 322 401 313 401ZM325 398 334 398 334 401 325 401ZM337 398 346 398 346 401 337 401ZM349 398 358 398 358 401 349 401ZM361 398 370 398 370 401 361 401ZM373 398 382 398 382 401 373 401ZM385 398 394 398 394 401 385 401ZM397 398 406 398 406 401 397 401ZM409 398 418 398 418 401 409 401ZM421 398 430 398 430 401 421 401ZM433 398 442 398 442 401 433 401ZM445 398 454 398 454 401 445 401ZM457 398 466 398 466 401 457 401ZM469 398 478 398 478 401 469 401ZM481 398 490 398 490 401 481 401ZM493 398 502 398 502 401 493 401ZM505 398 514 398 514 401 505 401ZM278.5 407 263.5 399.5 278.5 392Z"/><text font-family="Cambria Math,Cambria Math_MSFontService,sans-serif" font-weight="400" font-size="43" transform="translate(328.006 77)">𝑓<tspan font-family="Calibri,Calibri_MSFontService,sans-serif" font-size="43" x="34.42" y="0">: X</tspan><tspan font-size="43" x="77.7534" y="0"> </tspan><tspan font-size="43" x="87.0867" y="0">→</tspan><tspan font-family="Calibri,Calibri_MSFontService,sans-serif" font-size="43" x="132.587" y="0">Y </tspan><tspan font-size="43" x="-117.645" y="523">𝑃</tspan><tspan font-size="43" x="-90.1049" y="523">(</tspan><tspan font-size="43" x="-72.4383" y="523">𝑋</tspan><tspan font-size="43" x="-43.8983" y="523">)</tspan><tspan font-size="43" x="216.453" y="523">1</tspan></text><path d="M310.5 579 507.896 579 507.896 582 310.5 582ZM506.396 573 521.396 580.5 506.396 588Z"/><path d="M324 597 333 597 333 600 324 600ZM336 597 345 597 345 600 336 600ZM348 597 357 597 357 600 348 600ZM360 597 369 597 369 600 360 600ZM372 597 381 597 381 600 372 600ZM384 597 393 597 393 600 384 600ZM396 597 405 597 405 600 396 600ZM408 597 417 597 417 600 408 600ZM420 597 429 597 429 600 420 600ZM432 597 441 597 441 600 432 600ZM444 597 453 597 453 600 444 600ZM456 597 465 597 465 600 456 600ZM468 597 477 597 477 600 468 600ZM480 597 489 597 489 600 480 600ZM492 597 501 597 501 600 492 600ZM504 597 513 597 513 600 504 600ZM516 597 521.396 597 521.396 600 516 600ZM325.5 606 310.5 598.5 325.5 591Z"/><text font-family="Calibri,Calibri_MSFontService,sans-serif" font-weight="400" font-size="43" transform="translate(702.519 321)">B<tspan font-size="43" x="23.1666" y="0"> </tspan><tspan font-size="43" x="32.8333" y="0">=</tspan><tspan font-family="Cambria Math,Cambria Math_MSFontService,sans-serif" font-size="43" x="54.1666" y="0"> </tspan><tspan font-family="Cambria Math,Cambria Math_MSFontService,sans-serif" font-size="43" x="63.5" y="0">𝑓</tspan><tspan font-size="43" x="88.2533" y="0">(A) = { y </tspan><tspan font-family="Cambria Math,Cambria Math_MSFontService,sans-serif" font-size="43" x="231.753" y="0">∈</tspan><tspan font-size="43" x="268.087" y="0">Y | </tspan><tspan font-family="Cambria Math,Cambria Math_MSFontService,sans-serif" font-size="43" x="327.92" y="0">𝑓</tspan><tspan font-size="28" x="352.673" y="-13">-</tspan><tspan font-size="28" x="361.34" y="-13">1 </tspan><tspan font-size="43" x="382.34" y="0">(y) </tspan><tspan font-family="Cambria Math,Cambria Math_MSFontService,sans-serif" font-size="43" x="437.34" y="0">∈</tspan><tspan font-size="43" x="473.673" y="0">A }</tspan><tspan font-weight="700" font-size="43" x="-505.011" y="-94">A</tspan><tspan font-weight="700" font-size="43" x="-504.946" y="92">A</tspan><tspan font-weight="700" font-size="43" x="-159.3" y="-93">B</tspan><tspan font-weight="700" font-size="43" x="-159.3" y="91">B</tspan></text></g></svg>