<svg width="1280" height="720" xmlns="http://www.w3.org/2000/svg" xmlns:xlink="http://www.w3.org/1999/xlink" overflow="hidden"><defs><clipPath id="clip0"><rect x="0" y="0" width="1280" height="720"/></clipPath></defs><g clip-path="url(#clip0)"><rect x="0" y="0" width="1280" height="720" fill="#FFFFFF"/><text font-family="Calibri,Calibri_MSFontService,sans-serif" font-weight="400" font-size="96" transform="translate(219.219 261)">{                 <tspan font-weight="700" font-size="37" x="-102.242" y="61">M</tspan><tspan font-size="37" x="-61.075" y="61">is a true subset of set </tspan><tspan font-weight="700" font-size="37" x="270.345" y="61">O</tspan><tspan font-weight="700" font-size="37" x="-102.242" y="106">M</tspan><tspan font-family="Cambria Math,Cambria Math_MSFontService,sans-serif" font-size="37" x="-61.075" y="106">⊂</tspan><tspan font-weight="700" font-size="37" x="-24.7417" y="106">O</tspan><tspan font-style="italic" font-weight="700" font-size="37" x="-100.511" y="296">P</tspan><tspan font-weight="700" font-size="37" x="-80.6774" y="296">(M) </tspan><tspan font-size="37" x="-16.1774" y="296">is the power set</tspan><tspan font-style="italic" font-weight="700" font-size="37" x="-100.511" y="341">P</tspan><tspan font-weight="700" font-size="37" x="-80.6774" y="341">(M) </tspan><tspan font-size="37" x="-16.1774" y="341">is the set of all possible subsets</tspan><tspan font-style="italic" font-weight="700" font-size="59" x="-103.694" y="220">P</tspan><tspan font-weight="700" font-size="59" x="-72.5269" y="220">(M) </tspan><tspan font-size="59" x="28.8065" y="220">=</tspan><tspan font-size="96" x="67.5058" y="227">{</tspan><tspan font-weight="700" font-size="59" x="-103.859" y="-106">O </tspan><tspan font-size="59" x="-50.8588" y="-106">= </tspan><tspan font-size="96" x="-0.533112" y="-97">{                       </tspan><tspan font-size="96" x="456.422" y="-97">}</tspan><tspan font-weight="700" font-size="59" x="-104.469" y="-8">M </tspan><tspan font-size="59" x="-39.8027" y="-8">=</tspan><tspan fill="#333333" font-family="Segoe UI Emoji,Segoe UI Emoji_MSFontService,sans-serif" font-size="53" x="102.514" y="7">,</tspan><tspan font-size="96" x="188.464" y="0">}</tspan><tspan fill="#333333" font-family="Segoe UI Emoji,Segoe UI Emoji_MSFontService,sans-serif" font-size="53" x="101.943" y="-89">,</tspan><tspan fill="#333333" font-family="Segoe UI Emoji,Segoe UI Emoji_MSFontService,sans-serif" font-size="53" x="279.183" y="-89">,</tspan><tspan fill="#333333" font-family="Segoe UI Emoji,Segoe UI Emoji_MSFontService,sans-serif" font-size="53" x="362.342" y="-90">,</tspan><tspan fill="#333333" font-family="Segoe UI Emoji,Segoe UI Emoji_MSFontService,sans-serif" font-size="53" x="188.464" y="-89">,</tspan><tspan fill="#333333" font-family="Segoe UI Emoji,Segoe UI Emoji_MSFontService,sans-serif" font-size="59" x="120.136" y="217">}</tspan><tspan fill="#333333" font-family="Segoe UI Emoji,Segoe UI Emoji_MSFontService,sans-serif" font-size="59" x="99.3664" y="217">{</tspan><tspan fill="#333333" font-family="Segoe UI Emoji,Segoe UI Emoji_MSFontService,sans-serif" font-size="53" x="142.815" y="233">,</tspan><tspan fill="#333333" font-family="Segoe UI Emoji,Segoe UI Emoji_MSFontService,sans-serif" font-size="59" x="158.92" y="216">{</tspan><tspan fill="#333333" font-family="Segoe UI Emoji,Segoe UI Emoji_MSFontService,sans-serif" font-size="59" x="246.729" y="217">}</tspan><tspan fill="#333333" font-family="Segoe UI Emoji,Segoe UI Emoji_MSFontService,sans-serif" font-size="53" x="264.648" y="233">,</tspan><tspan fill="#333333" font-family="Segoe UI Emoji,Segoe UI Emoji_MSFontService,sans-serif" font-size="59" x="279.279" y="216">{</tspan><tspan fill="#333333" font-family="Segoe UI Emoji,Segoe UI Emoji_MSFontService,sans-serif" font-size="59" x="367.084" y="217">}</tspan><tspan fill="#333333" font-family="Segoe UI Emoji,Segoe UI Emoji_MSFontService,sans-serif" font-size="53" x="385.895" y="233">,</tspan><tspan fill="#333333" font-family="Segoe UI Emoji,Segoe UI Emoji_MSFontService,sans-serif" font-size="59" x="403.271" y="217">{</tspan><tspan fill="#333333" font-family="Segoe UI Emoji,Segoe UI Emoji_MSFontService,sans-serif" font-size="59" x="566.459" y="216">}</tspan><tspan font-size="96" x="581.579" y="227">}</tspan><tspan fill="#333333" font-family="Segoe UI Emoji,Segoe UI Emoji_MSFontService,sans-serif" font-size="53" x="483.3" y="233">,</tspan></text><path d="M35.0312-31.7759C35.9531-32.1408 36.8846-32.4241 37.8257-32.6257 38.7668-32.8274 39.7271-32.9282 40.7065-32.9282 42.5119-32.9282 44.25-32.6113 45.9209-31.9775 45.8825-32.2656 45.8537-32.5537 45.8345-32.8418 45.8153-33.1299 45.8057-33.418 45.8057-33.7061 45.8057-35.3385 46.1178-36.875 46.7419-38.3154 47.3661-39.7559 48.2112-41.009 49.2771-42.075 50.343-43.1409 51.5962-43.9859 53.0366-44.6101 54.4771-45.2343 56.0135-45.5464 57.646-45.5464 59.2785-45.5464 60.8149-45.2343 62.2554-44.6101 63.6958-43.9859 64.949-43.1409 66.0149-42.075 67.0808-41.009 67.9259-39.7559 68.55-38.3154 69.1742-36.875 69.4863-35.3385 69.4863-33.7061 69.4863-32.1888 69.2126-30.7484 68.6653-29.3848 68.1179-28.0212 67.3641-26.8112 66.4038-25.7549 65.4435-24.6986 64.3152-23.8295 63.0188-23.1477 61.7224-22.4659 60.3156-22.0578 58.7983-21.9233 59.5089-21.0015 60.2484-19.9403 61.0166-18.74 61.7848-17.5396 62.481-16.2913 63.1052-14.9949 63.7294-13.6985 64.2432-12.3829 64.6465-11.0481 65.0498-9.7133 65.2515-8.44092 65.2515-7.23096 65.2515-5.52165 65.0066-3.93237 64.5168-2.46313 64.0271-0.993896 63.3261 0.340902 62.4138 1.54126 61.5015 2.74162 60.4116 3.79793 59.144 4.71021 57.8765 5.62248 56.4648 6.3763 54.9092 6.97168 53.9873 7.33659 53.027 7.62467 52.0283 7.83594 51.0296 8.0472 50.0309 8.15283 49.0322 8.15283 47.8607 8.15283 46.8044 8.0568 45.8633 7.86475 44.9222 7.67269 43.9235 7.33659 42.8672 6.85645 42.4831 6.68359 42.1374 6.52995 41.8301 6.39551 41.5228 6.26107 41.1483 6.19385 40.7065 6.19385 40.3224 6.19385 39.9575 6.25146 39.6118 6.3667 39.2661 6.48193 38.9204 6.60677 38.5747 6.74121 37.1727 7.25977 35.8235 7.62467 34.5271 7.83594 33.2307 8.0472 31.8335 8.15283 30.3354 8.15283 29.3944 8.15283 28.4725 8.0328 27.5698 7.79272 26.6672 7.55265 25.7837 7.23096 24.9194 6.82764 23.5558 6.17464 22.3123 5.3632 21.1887 4.39331 20.0652 3.42342 19.1001 2.3335 18.2935 1.12354 17.4868-0.0864258 16.8578-1.39722 16.4065-2.80884 15.9552-4.22046 15.7295-5.6945 15.7295-7.23096 15.7295-8.44092 15.9408-9.7181 16.3633-11.0625 16.7858-12.4069 17.3284-13.7273 17.991-15.0237 18.6536-16.3201 19.3882-17.5588 20.1948-18.74 21.0015-19.9211 21.7793-20.9727 22.5283-21.8945 20.9727-22.0098 19.5274-22.3939 18.1926-23.0469 16.8578-23.6999 15.6959-24.5593 14.7068-25.6252 13.7177-26.6912 12.9399-27.9155 12.3733-29.2983 11.8067-30.6812 11.5234-32.1504 11.5234-33.7061 11.5234-35.3385 11.8355-36.875 12.4597-38.3154 13.0839-39.7559 13.929-41.009 14.9949-42.075 16.0608-43.1409 17.314-43.9859 18.7544-44.6101 20.1948-45.2343 21.7313-45.5464 23.3638-45.5464 24.9963-45.5464 26.5327-45.2343 27.9731-44.6101 29.4136-43.9859 30.6667-43.1409 31.7327-42.075 32.7986-41.009 33.6436-39.7559 34.2678-38.3154 34.892-36.875 35.2041-35.3385 35.2041-33.7061 35.2041-33.0531 35.1465-32.4097 35.0312-31.7759Z" fill="#F3AD61" transform="translate(332.084 151)"/><path d="M21.5776-25.1211C20.3677-25.1211 19.2249-25.3516 18.1494-25.8125 17.0739-26.2734 16.1328-26.9024 15.3262-27.6995 14.5195-28.4965 13.8857-29.4328 13.4248-30.5083 12.9639-31.5838 12.7334-32.7266 12.7334-33.9365 12.7334-35.1465 12.9639-36.2892 13.4248-37.3647 13.8857-38.4403 14.5195-39.3813 15.3262-40.188 16.1328-40.9946 17.0739-41.6284 18.1494-42.0894 19.2249-42.5503 20.3677-42.7808 21.5776-42.7808 22.7876-42.7808 23.9303-42.5503 25.0059-42.0894 26.0814-41.6284 27.0225-40.9946 27.8291-40.188 28.6357-39.3813 29.2695-38.4403 29.7305-37.3647 30.1914-36.2892 30.4219-35.1465 30.4219-33.9365 30.4219-32.7266 30.1914-31.5838 29.7305-30.5083 29.2695-29.4328 28.6357-28.4965 27.8291-27.6995 27.0225-26.9024 26.0814-26.2734 25.0059-25.8125 23.9303-25.3516 22.7876-25.1211 21.5776-25.1211ZM59.3745-25.1211C58.1645-25.1211 57.0218-25.3516 55.9463-25.8125 54.8708-26.2734 53.9297-26.9024 53.123-27.6995 52.3164-28.4965 51.6826-29.4328 51.2217-30.5083 50.7607-31.5838 50.5303-32.7266 50.5303-33.9365 50.5303-35.1657 50.7607-36.318 51.2217-37.3936 51.6826-38.4691 52.3116-39.4054 53.1086-40.2024 53.9057-40.9994 54.842-41.6284 55.9175-42.0894 56.993-42.5503 58.1453-42.7808 59.3745-42.7808 60.5845-42.7808 61.7272-42.5503 62.8027-42.0894 63.8783-41.6284 64.8145-40.9946 65.6116-40.188 66.4086-39.3813 67.0376-38.4403 67.4985-37.3647 67.9595-36.2892 68.1899-35.1465 68.1899-33.9365 68.1899-32.7266 67.9595-31.5838 67.4985-30.5083 67.0376-29.4328 66.4086-28.4965 65.6116-27.6995 64.8145-26.9024 63.8783-26.2734 62.8027-25.8125 61.7272-25.3516 60.5845-25.1211 59.3745-25.1211Z" fill="#FF8687" transform="translate(332.084 151)"/><path d="M32.208-16.6226C32.765-16.6226 33.2499-16.4209 33.6628-16.0176 34.0758-15.6143 34.2822-15.1341 34.2822-14.5771L34.2822-12.5029C34.2822-11.9268 34.0806-11.437 33.6772-11.0337 33.2739-10.6304 32.7842-10.4287 32.208-10.4287 31.651-10.4287 31.1709-10.6352 30.7676-11.0481 30.3643-11.461 30.1626-11.946 30.1626-12.5029L30.1626-14.5771C30.1626-15.1341 30.3643-15.6143 30.7676-16.0176 31.1709-16.4209 31.651-16.6226 32.208-16.6226ZM48.7729-16.6226C49.3299-16.6226 49.8149-16.4209 50.2278-16.0176 50.6407-15.6143 50.8472-15.1341 50.8472-14.5771L50.8472-12.5029C50.8472-11.9268 50.6455-11.437 50.2422-11.0337 49.8389-10.6304 49.3491-10.4287 48.7729-10.4287 48.216-10.4287 47.7358-10.6352 47.3325-11.0481 46.9292-11.461 46.7275-11.946 46.7275-12.5029L46.7275-14.5771C46.7275-15.1341 46.9292-15.6143 47.3325-16.0176 47.7358-16.4209 48.216-16.6226 48.7729-16.6226Z" fill="#1C1C1C" transform="translate(332.084 151)"/><path d="M43.7891-6.97168C43.7891-6.68359 43.6738-6.33789 43.4434-5.93457 43.2129-5.53125 42.9344-5.14233 42.6079-4.76782 42.2814-4.39331 41.9309-4.07642 41.5564-3.81714 41.1819-3.55786 40.841-3.42822 40.5337-3.42822 40.188-3.42822 39.8231-3.54826 39.439-3.78833 39.0548-4.0284 38.6995-4.33089 38.373-4.6958 38.0465-5.06071 37.7729-5.44963 37.552-5.86255 37.3311-6.27547 37.2207-6.64518 37.2207-6.97168 37.2207-7.33659 37.3455-7.61027 37.5952-7.79272 37.8449-7.97518 38.1474-8.10482 38.5027-8.18164 38.858-8.25846 39.2229-8.29688 39.5974-8.29688 39.9719-8.29688 40.284-8.29688 40.5337-8.29688 40.7834-8.29688 41.0907-8.29688 41.4556-8.29688 41.8205-8.29688 42.1758-8.25846 42.5215-8.18164 42.8672-8.10482 43.1649-7.97518 43.4146-7.79272 43.6642-7.61027 43.7891-7.33659 43.7891-6.97168Z" fill="#F70A8D" transform="translate(332.084 151)"/><path d="M40.5049 0.806641C40.1592 1.28678 39.7367 1.6805 39.2373 1.98779 38.738 2.29508 38.181 2.44873 37.5664 2.44873 37.1055 2.44873 36.6781 2.3623 36.2844 2.18945 35.8907 2.0166 35.545 1.77653 35.2473 1.46924 34.9496 1.16195 34.7192 0.806641 34.5559 0.40332 34.3927 1.49012e-08 34.311-0.432129 34.311-0.893066 34.311-1.25798 34.3975-1.55086 34.5703-1.77173 34.7432-1.99259 35.0216-2.10303 35.4058-2.10303 35.7707-2.10303 36.0203-1.97819 36.1548-1.72852 36.2892-1.47884 36.3564-1.20036 36.3564-0.893066 36.3564-0.547363 36.4621-0.249674 36.6733 0 36.8846 0.249674 37.1727 0.374512 37.5376 0.374512 38.0369 0.374512 38.3971 0.220866 38.6179-0.0864258 38.8388-0.393717 39.0212-0.734619 39.1653-1.10913 39.3093-1.48364 39.4678-1.82935 39.6406-2.14624 39.8135-2.46313 40.1016-2.62158 40.5049-2.62158 40.7738-2.62158 40.9898-2.54956 41.1531-2.40552 41.3163-2.26147 41.4508-2.07422 41.5564-1.84375 41.662-1.61328 41.7581-1.37321 41.8445-1.12354 41.9309-0.873861 42.0413-0.633789 42.1758-0.40332 42.3102-0.172852 42.4735 0.0144043 42.6655 0.158447 42.8576 0.30249 43.1265 0.374512 43.4722 0.374512 43.9139 0.374512 44.2212 0.211263 44.394-0.115234 44.5669-0.441732 44.6533-0.797038 44.6533-1.18115 44.6533-1.48844 44.7638-1.72371 44.9846-1.88696 45.2055-2.05021 45.46-2.13184 45.748-2.13184 46.0938-2.13184 46.3386-2.007 46.4827-1.75732 46.6267-1.50765 46.6987-1.22917 46.6987-0.921875 46.6987-0.460938 46.6171-0.0288086 46.4539 0.374512 46.2906 0.777832 46.0649 1.13314 45.7769 1.44043 45.4888 1.74772 45.1431 1.98779 44.7397 2.16064 44.3364 2.3335 43.9043 2.41992 43.4434 2.41992 42.8288 2.41992 42.2718 2.27588 41.7725 1.98779 41.2731 1.69971 40.8506 1.30599 40.5049 0.806641Z" fill="#1C1C1C" transform="translate(332.084 151)"/><path d="M35.0312-31.7759C35.9531-32.1408 36.8846-32.4241 37.8257-32.6257 38.7668-32.8274 39.7271-32.9282 40.7065-32.9282 42.5119-32.9282 44.25-32.6113 45.9209-31.9775 45.8825-32.2656 45.8537-32.5537 45.8345-32.8418 45.8153-33.1299 45.8057-33.418 45.8057-33.7061 45.8057-35.3385 46.1178-36.875 46.7419-38.3154 47.3661-39.7559 48.2112-41.009 49.2771-42.075 50.343-43.1409 51.5962-43.9859 53.0366-44.6101 54.4771-45.2343 56.0135-45.5464 57.646-45.5464 59.2785-45.5464 60.8149-45.2343 62.2554-44.6101 63.6958-43.9859 64.949-43.1409 66.0149-42.075 67.0808-41.009 67.9259-39.7559 68.55-38.3154 69.1742-36.875 69.4863-35.3385 69.4863-33.7061 69.4863-32.1888 69.2126-30.7484 68.6653-29.3848 68.1179-28.0212 67.3641-26.8112 66.4038-25.7549 65.4435-24.6986 64.3152-23.8295 63.0188-23.1477 61.7224-22.4659 60.3156-22.0578 58.7983-21.9233 59.5089-21.0015 60.2484-19.9403 61.0166-18.74 61.7848-17.5396 62.481-16.2913 63.1052-14.9949 63.7294-13.6985 64.2432-12.3829 64.6465-11.0481 65.0498-9.7133 65.2515-8.44092 65.2515-7.23096 65.2515-5.52165 65.0066-3.93237 64.5168-2.46313 64.0271-0.993896 63.3261 0.340902 62.4138 1.54126 61.5015 2.74162 60.4116 3.79793 59.144 4.71021 57.8765 5.62248 56.4648 6.3763 54.9092 6.97168 53.9873 7.33659 53.027 7.62467 52.0283 7.83594 51.0296 8.0472 50.0309 8.15283 49.0322 8.15283 47.8607 8.15283 46.8044 8.0568 45.8633 7.86475 44.9222 7.67269 43.9235 7.33659 42.8672 6.85645 42.4831 6.68359 42.1374 6.52995 41.8301 6.39551 41.5228 6.26107 41.1483 6.19385 40.7065 6.19385 40.3224 6.19385 39.9575 6.25146 39.6118 6.3667 39.2661 6.48193 38.9204 6.60677 38.5747 6.74121 37.1727 7.25977 35.8235 7.62467 34.5271 7.83594 33.2307 8.0472 31.8335 8.15283 30.3354 8.15283 29.3944 8.15283 28.4725 8.0328 27.5698 7.79272 26.6672 7.55265 25.7837 7.23096 24.9194 6.82764 23.5558 6.17464 22.3123 5.3632 21.1887 4.39331 20.0652 3.42342 19.1001 2.3335 18.2935 1.12354 17.4868-0.0864258 16.8578-1.39722 16.4065-2.80884 15.9552-4.22046 15.7295-5.6945 15.7295-7.23096 15.7295-8.44092 15.9408-9.7181 16.3633-11.0625 16.7858-12.4069 17.3284-13.7273 17.991-15.0237 18.6536-16.3201 19.3882-17.5588 20.1948-18.74 21.0015-19.9211 21.7793-20.9727 22.5283-21.8945 20.9727-22.0098 19.5274-22.3939 18.1926-23.0469 16.8578-23.6999 15.6959-24.5593 14.7068-25.6252 13.7177-26.6912 12.9399-27.9155 12.3733-29.2983 11.8067-30.6812 11.5234-32.1504 11.5234-33.7061 11.5234-35.3385 11.8355-36.875 12.4597-38.3154 13.0839-39.7559 13.929-41.009 14.9949-42.075 16.0608-43.1409 17.314-43.9859 18.7544-44.6101 20.1948-45.2343 21.7313-45.5464 23.3638-45.5464 24.9963-45.5464 26.5327-45.2343 27.9731-44.6101 29.4136-43.9859 30.6667-43.1409 31.7327-42.075 32.7986-41.009 33.6436-39.7559 34.2678-38.3154 34.892-36.875 35.2041-35.3385 35.2041-33.7061 35.2041-33.0531 35.1465-32.4097 35.0312-31.7759Z" fill="#F3AD61" transform="translate(333.89 249)"/><path d="M21.5776-25.1211C20.3677-25.1211 19.2249-25.3516 18.1494-25.8125 17.0739-26.2734 16.1328-26.9024 15.3262-27.6995 14.5195-28.4965 13.8857-29.4328 13.4248-30.5083 12.9639-31.5838 12.7334-32.7266 12.7334-33.9365 12.7334-35.1465 12.9639-36.2892 13.4248-37.3647 13.8857-38.4403 14.5195-39.3813 15.3262-40.188 16.1328-40.9946 17.0739-41.6284 18.1494-42.0894 19.2249-42.5503 20.3677-42.7808 21.5776-42.7808 22.7876-42.7808 23.9303-42.5503 25.0059-42.0894 26.0814-41.6284 27.0225-40.9946 27.8291-40.188 28.6357-39.3813 29.2695-38.4403 29.7305-37.3647 30.1914-36.2892 30.4219-35.1465 30.4219-33.9365 30.4219-32.7266 30.1914-31.5838 29.7305-30.5083 29.2695-29.4328 28.6357-28.4965 27.8291-27.6995 27.0225-26.9024 26.0814-26.2734 25.0059-25.8125 23.9303-25.3516 22.7876-25.1211 21.5776-25.1211ZM59.3745-25.1211C58.1645-25.1211 57.0218-25.3516 55.9463-25.8125 54.8708-26.2734 53.9297-26.9024 53.123-27.6995 52.3164-28.4965 51.6826-29.4328 51.2217-30.5083 50.7607-31.5838 50.5303-32.7266 50.5303-33.9365 50.5303-35.1657 50.7607-36.318 51.2217-37.3936 51.6826-38.4691 52.3116-39.4054 53.1086-40.2024 53.9057-40.9994 54.842-41.6284 55.9175-42.0894 56.993-42.5503 58.1453-42.7808 59.3745-42.7808 60.5845-42.7808 61.7272-42.5503 62.8027-42.0894 63.8783-41.6284 64.8145-40.9946 65.6116-40.188 66.4086-39.3813 67.0376-38.4403 67.4985-37.3647 67.9595-36.2892 68.1899-35.1465 68.1899-33.9365 68.1899-32.7266 67.9595-31.5838 67.4985-30.5083 67.0376-29.4328 66.4086-28.4965 65.6116-27.6995 64.8145-26.9024 63.8783-26.2734 62.8027-25.8125 61.7272-25.3516 60.5845-25.1211 59.3745-25.1211Z" fill="#FF8687" transform="translate(333.89 249)"/><path d="M32.208-16.6226C32.765-16.6226 33.2499-16.4209 33.6628-16.0176 34.0758-15.6143 34.2822-15.1341 34.2822-14.5771L34.2822-12.5029C34.2822-11.9268 34.0806-11.437 33.6772-11.0337 33.2739-10.6304 32.7842-10.4287 32.208-10.4287 31.651-10.4287 31.1709-10.6352 30.7676-11.0481 30.3643-11.461 30.1626-11.946 30.1626-12.5029L30.1626-14.5771C30.1626-15.1341 30.3643-15.6143 30.7676-16.0176 31.1709-16.4209 31.651-16.6226 32.208-16.6226ZM48.7729-16.6226C49.3299-16.6226 49.8149-16.4209 50.2278-16.0176 50.6407-15.6143 50.8472-15.1341 50.8472-14.5771L50.8472-12.5029C50.8472-11.9268 50.6455-11.437 50.2422-11.0337 49.8389-10.6304 49.3491-10.4287 48.7729-10.4287 48.216-10.4287 47.7358-10.6352 47.3325-11.0481 46.9292-11.461 46.7275-11.946 46.7275-12.5029L46.7275-14.5771C46.7275-15.1341 46.9292-15.6143 47.3325-16.0176 47.7358-16.4209 48.216-16.6226 48.7729-16.6226Z" fill="#1C1C1C" transform="translate(333.89 249)"/><path d="M43.7891-6.97168C43.7891-6.68359 43.6738-6.33789 43.4434-5.93457 43.2129-5.53125 42.9344-5.14233 42.6079-4.76782 42.2814-4.39331 41.9309-4.07642 41.5564-3.81714 41.1819-3.55786 40.841-3.42822 40.5337-3.42822 40.188-3.42822 39.8231-3.54826 39.439-3.78833 39.0548-4.0284 38.6995-4.33089 38.373-4.6958 38.0465-5.06071 37.7729-5.44963 37.552-5.86255 37.3311-6.27547 37.2207-6.64518 37.2207-6.97168 37.2207-7.33659 37.3455-7.61027 37.5952-7.79272 37.8449-7.97518 38.1474-8.10482 38.5027-8.18164 38.858-8.25846 39.2229-8.29688 39.5974-8.29688 39.9719-8.29688 40.284-8.29688 40.5337-8.29688 40.7834-8.29688 41.0907-8.29688 41.4556-8.29688 41.8205-8.29688 42.1758-8.25846 42.5215-8.18164 42.8672-8.10482 43.1649-7.97518 43.4146-7.79272 43.6642-7.61027 43.7891-7.33659 43.7891-6.97168Z" fill="#F70A8D" transform="translate(333.89 249)"/><path d="M40.5049 0.806641C40.1592 1.28678 39.7367 1.6805 39.2373 1.98779 38.738 2.29508 38.181 2.44873 37.5664 2.44873 37.1055 2.44873 36.6781 2.3623 36.2844 2.18945 35.8907 2.0166 35.545 1.77653 35.2473 1.46924 34.9496 1.16195 34.7192 0.806641 34.5559 0.40332 34.3927 1.49012e-08 34.311-0.432129 34.311-0.893066 34.311-1.25798 34.3975-1.55086 34.5703-1.77173 34.7432-1.99259 35.0216-2.10303 35.4058-2.10303 35.7707-2.10303 36.0203-1.97819 36.1548-1.72852 36.2892-1.47884 36.3564-1.20036 36.3564-0.893066 36.3564-0.547363 36.4621-0.249674 36.6733 0 36.8846 0.249674 37.1727 0.374512 37.5376 0.374512 38.0369 0.374512 38.3971 0.220866 38.6179-0.0864258 38.8388-0.393717 39.0212-0.734619 39.1653-1.10913 39.3093-1.48364 39.4678-1.82935 39.6406-2.14624 39.8135-2.46313 40.1016-2.62158 40.5049-2.62158 40.7738-2.62158 40.9898-2.54956 41.1531-2.40552 41.3163-2.26147 41.4508-2.07422 41.5564-1.84375 41.662-1.61328 41.7581-1.37321 41.8445-1.12354 41.9309-0.873861 42.0413-0.633789 42.1758-0.40332 42.3102-0.172852 42.4735 0.0144043 42.6655 0.158447 42.8576 0.30249 43.1265 0.374512 43.4722 0.374512 43.9139 0.374512 44.2212 0.211263 44.394-0.115234 44.5669-0.441732 44.6533-0.797038 44.6533-1.18115 44.6533-1.48844 44.7638-1.72371 44.9846-1.88696 45.2055-2.05021 45.46-2.13184 45.748-2.13184 46.0938-2.13184 46.3386-2.007 46.4827-1.75732 46.6267-1.50765 46.6987-1.22917 46.6987-0.921875 46.6987-0.460938 46.6171-0.0288086 46.4539 0.374512 46.2906 0.777832 46.0649 1.13314 45.7769 1.44043 45.4888 1.74772 45.1431 1.98779 44.7397 2.16064 44.3364 2.3335 43.9043 2.41992 43.4434 2.41992 42.8288 2.41992 42.2718 2.27588 41.7725 1.98779 41.2731 1.69971 40.8506 1.30599 40.5049 0.806641Z" fill="#1C1C1C" transform="translate(333.89 249)"/><path d="M59.144-49.6948C59.7202-49.6948 60.21-49.4932 60.6133-49.0898 61.0166-48.6865 61.2183-48.1968 61.2183-47.6206L61.2183-40.0439C62.5435-38.9108 63.715-37.6528 64.7329-36.27 65.7508-34.8872 66.6151-33.4228 67.3257-31.8767 68.0363-30.3306 68.5741-28.7174 68.939-27.0369 69.3039-25.3564 69.4863-23.6519 69.4863-21.9233 69.4863-19.7339 69.203-17.6165 68.6365-15.571 68.0699-13.5256 67.2681-11.6147 66.231-9.83813 65.1938-8.0616 63.9455-6.44352 62.4858-4.98389 61.0262-3.52425 59.4129-2.27108 57.646-1.22437 55.8791-0.177653 53.9729 0.633789 51.9275 1.20996 49.8821 1.78613 47.7646 2.07422 45.5752 2.07422 44.999 2.07422 44.5477 2.31429 44.2212 2.79443 43.741 3.50505 43.2801 4.19165 42.8384 4.85425 42.3966 5.51685 41.9069 6.09782 41.3691 6.59717 40.8314 7.09652 40.2216 7.49984 39.5398 7.80713 38.858 8.11442 38.0369 8.26807 37.0767 8.26807L33.7061 8.26807C33.4948 8.26807 33.3123 8.19124 33.1587 8.0376 33.005 7.88395 32.9282 7.7015 32.9282 7.49023 32.9282 7.22135 33.0915 6.85644 33.418 6.39551 33.7445 5.93457 34.0998 5.44482 34.4839 4.92627 34.868 4.40771 35.2233 3.89876 35.5498 3.39941 35.8763 2.90006 36.0396 2.46794 36.0396 2.10303 36.0396 1.73812 35.9435 1.43083 35.7515 1.18115L24.9194-13.252C24.8042-13.3864 24.7466-13.54 24.7466-13.7129 24.7466-13.9242 24.8234-14.1066 24.9771-14.2603 25.1307-14.4139 25.3132-14.4907 25.5244-14.4907L28.1172-14.4907C30.0954-14.4907 31.9727-14.0634 33.7493-13.2087 35.5258-12.3541 37.0286-11.1585 38.2578-9.62207L41.8877-5.07031C42.2142-4.64779 42.6559-4.43652 43.2129-4.43652 43.4626-4.43652 43.717-4.47493 43.9763-4.55176 44.2356-4.62858 44.4901-4.6958 44.7397-4.75342L45.5752-3.16895 61.2759-10.688 61.2759-22.874 61.2183-22.874 61.2183-21.7793C60.3732-21.7793 59.5426-21.8225 58.7263-21.9089 57.9101-21.9954 57.089-22.1154 56.2632-22.269 55.9943-22.3267 55.7254-22.3891 55.4565-22.4563 55.1877-22.5235 54.9188-22.5859 54.6499-22.6436 54.5155-22.682 54.3858-22.73 54.261-22.7876 54.1361-22.8452 53.9969-22.874 53.8433-22.874L48.7729-22.874 48.7729-13.8857C48.7729-13.4824 48.6337-13.1367 48.3552-12.8486 48.0767-12.5605 47.7358-12.4165 47.3325-12.4165 47.1597-12.4165 47.0108-12.4405 46.886-12.4885 46.7611-12.5365 46.6315-12.599 46.4971-12.6758 45.4023-13.3096 44.5813-13.9866 44.0339-14.7068 43.4866-15.427 43.1025-16.2 42.8816-17.0259 42.6607-17.8517 42.5551-18.7448 42.5647-19.7051 42.5743-20.6654 42.5791-21.7217 42.5791-22.874L15.7583-22.874C15.3742-23.2005 14.9373-23.6086 14.4475-24.0984 13.9578-24.5881 13.4968-25.1115 13.0647-25.6685 12.6326-26.2254 12.2677-26.7968 11.97-27.3826 11.6723-27.9683 11.5234-28.5301 11.5234-29.0679 11.5234-29.9129 11.7731-30.6619 12.2725-31.3149 14.001-33.6196 15.9936-35.6746 18.2502-37.48 20.5069-39.2853 22.9316-40.8122 25.5244-42.0605 28.1172-43.3089 30.8252-44.2596 33.6484-44.9126 36.4717-45.5656 39.3141-45.8921 42.1758-45.8921 43.04-45.8921 43.8995-45.8921 44.7542-45.8921 45.6088-45.8921 46.4683-45.8729 47.3325-45.8345 48.0815-46.2954 48.9506-46.7563 49.9397-47.2173 50.9288-47.6782 51.9611-48.0911 53.0366-48.4561 54.1121-48.821 55.1829-49.1186 56.2488-49.3491 57.3147-49.5796 58.2798-49.6948 59.144-49.6948Z" fill="#9B9B9B" transform="translate(415.243 155)"/><path d="M55.6582-30.6523C55.6774-30.6523 55.6966-30.6475 55.7158-30.6379 55.735-30.6283 55.7638-30.6235 55.8022-30.6235 57.2235-30.2586 58.5247-29.668 59.7058-28.8518 60.887-28.0356 61.9001-27.0609 62.7451-25.9277 63.5902-24.7946 64.248-23.5462 64.7185-22.1826 65.189-20.819 65.4243-19.417 65.4243-17.9766 65.4243-16.8626 65.2803-15.7775 64.9922-14.7212 64.7041-13.6649 64.296-12.6614 63.7678-11.7107 63.2397-10.76 62.5963-9.88135 61.8376-9.07471 61.079-8.26807 60.2388-7.56706 59.3169-6.97168L57.3579-5.7041C55.4373-4.45573 53.4159-3.42822 51.2937-2.62158 49.1715-1.81494 46.9772-1.23877 44.7109-0.893066L44.7109-4.72461C45.4023-4.93587 46.1898-5.19995 47.0732-5.51685 47.9567-5.83374 48.8594-6.20825 49.7812-6.64038 50.7031-7.07251 51.601-7.56226 52.4749-8.10962 53.3487-8.65698 54.1265-9.25716 54.8083-9.91016 55.4902-10.5632 56.0375-11.269 56.4504-12.0276 56.8634-12.7862 57.0698-13.6073 57.0698-14.4907 57.0698-15.1245 56.9354-15.7007 56.6665-16.2192 56.3976-16.7378 56.0423-17.1747 55.6006-17.53 55.1589-17.8853 54.6547-18.159 54.0881-18.3511 53.5216-18.5431 52.9406-18.6392 52.3452-18.6392L26.3311-18.6392C25.4284-18.6392 24.4969-18.7544 23.5366-18.9849 22.5763-19.2153 21.6305-19.5226 20.699-19.9067 19.7675-20.2909 18.8792-20.7374 18.0342-21.2463 17.1891-21.7553 16.4209-22.2979 15.7295-22.874L18.6392-25.3804C20.7902-27.2433 23.1717-28.6549 25.7837-29.6152 28.3957-30.5755 31.1229-31.0557 33.9653-31.0557L48.2256-31.0557C48.5905-31.0557 48.7729-30.8732 48.7729-30.5083 48.7729-29.2215 49.0754-28.026 49.6804-26.9216 50.2854-25.8173 51.116-24.9002 52.1724-24.1704 52.3836-24.0168 52.5949-23.8775 52.8062-23.7527 53.0174-23.6278 53.2575-23.5654 53.5264-23.5654 54.0449-23.5654 54.4146-23.7383 54.6355-24.084 54.8564-24.4297 54.9908-24.8666 55.0388-25.3948 55.0868-25.9229 55.082-26.4943 55.0244-27.1089 54.9668-27.7235 54.9284-28.2948 54.9092-28.823 54.89-29.3512 54.9236-29.7881 55.01-30.1338 55.0964-30.4795 55.3125-30.6523 55.6582-30.6523Z" fill="#D3D3D3" transform="translate(415.243 155)"/><path d="M38.4307-33.1587C38.4307-33.4468 38.5315-33.6917 38.7332-33.8933 38.9348-34.095 39.1797-34.1958 39.4678-34.1958 39.7367-34.1958 39.9767-34.0902 40.188-33.8789 40.3993-33.6676 40.5049-33.4276 40.5049-33.1587L40.5049-28.9814C40.5049-28.7126 40.3993-28.4773 40.188-28.2756 39.9767-28.074 39.7367-27.9731 39.4678-27.9731 39.1797-27.9731 38.9348-28.0692 38.7332-28.2612 38.5315-28.4533 38.4307-28.6934 38.4307-28.9814ZM42.5791-33.1587C42.5791-33.4468 42.6799-33.6917 42.8816-33.8933 43.0833-34.095 43.3281-34.1958 43.6162-34.1958 43.9043-34.1958 44.1492-34.095 44.3508-33.8933 44.5525-33.6917 44.6533-33.4468 44.6533-33.1587L44.6533-28.9814C44.6533-28.7126 44.5477-28.4773 44.3364-28.2756 44.1252-28.074 43.8851-27.9731 43.6162-27.9731 43.3281-27.9731 43.0833-28.0692 42.8816-28.2612 42.6799-28.4533 42.5791-28.6934 42.5791-28.9814Z" fill="#636363" transform="translate(415.243 155)"/><path d="M29.1255-28.9814C28.5685-28.9814 28.0836-29.1879 27.6707-29.6008 27.2577-30.0138 27.0513-30.4987 27.0513-31.0557 27.0513-31.6126 27.2577-32.0976 27.6707-32.5105 28.0836-32.9234 28.5685-33.1299 29.1255-33.1299 29.7017-33.1299 30.1914-32.9282 30.5947-32.5249 30.998-32.1216 31.1997-31.6318 31.1997-31.0557 31.1997-30.4987 30.9932-30.0138 30.5803-29.6008 30.1674-29.1879 29.6825-28.9814 29.1255-28.9814Z" fill="#1C1C1C" transform="translate(415.243 155)"/><path d="M42.5791 6.19385C42.9824 6.19385 43.4242 6.18905 43.9043 6.17944 44.3844 6.16984 44.831 6.22266 45.2439 6.33789 45.6568 6.45312 46.0073 6.65479 46.2954 6.94287 46.5835 7.23096 46.7275 7.67269 46.7275 8.26807L32.208 8.26807C32.208 7.7111 32.4145 7.22616 32.8274 6.81323 33.2403 6.40031 33.7253 6.19385 34.2822 6.19385L38.4307 6.19385 38.4307 2.07422 42.5791 2.07422 42.5791 6.19385Z" fill="#FF822D" transform="translate(501.764 154)"/><path d="M69.4863-21.8369C69.4863-20.8574 69.2991-19.9355 68.9246-19.0713 68.55-18.207 68.0363-17.4532 67.3833-16.8098 66.7303-16.1664 65.9717-15.6575 65.1074-15.283 64.2432-14.9084 63.3213-14.7212 62.3418-14.7212 61.3623-14.7212 60.4404-14.9084 59.5762-15.283 58.7119-15.6575 57.9533-16.1664 57.3003-16.8098 56.6473-17.4532 56.1335-18.207 55.759-19.0713 55.3845-19.9355 55.1973-20.8574 55.1973-21.8369 55.1973-22.8164 55.3845-23.7431 55.759-24.6169 56.1335-25.4908 56.6425-26.2494 57.2859-26.8928 57.9293-27.5362 58.6879-28.0452 59.5618-28.4197 60.4356-28.7942 61.3623-28.9814 62.3418-28.9814 63.3213-28.9814 64.248-28.7942 65.1218-28.4197 65.9957-28.0452 66.7543-27.5362 67.3977-26.8928 68.0411-26.2494 68.55-25.4908 68.9246-24.6169 69.2991-23.7431 69.4863-22.8164 69.4863-21.8369ZM38.3154 2.07422 42.6943 2.07422C43.2321 2.07422 43.693 1.88216 44.0771 1.49805 44.4613 1.11393 44.6533 0.652995 44.6533 0.115234L44.6533-6.22266 36.3564-6.22266 36.3564 0.115234C36.3564 0.652995 36.5485 1.11393 36.9326 1.49805 37.3167 1.88216 37.7777 2.07422 38.3154 2.07422Z" fill="#636363" transform="translate(501.764 154)"/><path d="M22.0962-40.6201C22.0962-41.8685 22.3315-43.0448 22.802-44.1492 23.2725-45.2535 23.9159-46.2138 24.7322-47.03 25.5484-47.8463 26.5039-48.4945 27.5986-48.9746 28.6934-49.4548 29.8649-49.6948 31.1133-49.6948 32.3617-49.6948 33.538-49.4595 34.6423-48.989 35.7467-48.5185 36.7166-47.8751 37.552-47.0588 38.3875-46.2426 39.0452-45.2823 39.5254-44.178 40.0055-43.0736 40.2456-41.8973 40.2456-40.6489 40.2456-38.9972 39.8039-37.4224 38.9204-35.9243 38.8436-35.7899 38.6755-35.5114 38.4163-35.0889 38.157-34.6663 37.8545-34.1718 37.5088-33.6052 37.1631-33.0387 36.803-32.4433 36.4285-31.8191 36.054-31.1949 35.7083-30.6139 35.3914-30.0762 35.0745-29.5384 34.8152-29.0823 34.6135-28.7078 34.4119-28.3333 34.311-28.1076 34.311-28.0308 34.311-27.8579 34.3783-27.7043 34.5127-27.5698 34.6471-27.4354 34.8008-27.3682 34.9736-27.3682 35.0312-27.3682 35.1177-27.3874 35.2329-27.4258 36.7694-28.002 38.3106-28.4437 39.8567-28.751 41.4027-29.0583 43.0016-29.2119 44.6533-29.2119 47.3997-29.2119 50.0453-28.7558 52.5901-27.8435 55.1348-26.9312 57.4923-25.6493 59.6626-23.9976 60.1043-24.9002 60.7429-25.6156 61.5784-26.1438 62.4138-26.672 63.3309-26.936 64.3296-26.936 65.0402-26.936 65.7076-26.8016 66.3318-26.5327 66.956-26.2638 67.5033-25.8941 67.9739-25.4236 68.4444-24.953 68.8141-24.4009 69.083-23.7671 69.3519-23.1333 69.4863-22.4611 69.4863-21.7505 69.4863-20.6942 69.3663-19.6907 69.1262-18.74 68.8861-17.7893 68.5452-16.8338 68.1035-15.8735 67.8923-15.451 67.7242-15.0717 67.5994-14.7356 67.4745-14.3995 67.4121-13.9818 67.4121-13.4824L67.4121-11.0049C67.4121-10.832 67.3497-10.6784 67.2249-10.5439 67.1-10.4095 66.9416-10.3423 66.7495-10.3423 66.6151-10.3423 66.399-10.4239 66.1013-10.5872 65.8036-10.7504 65.5876-10.8704 65.4531-10.9473 64.7809-11.3122 64.2528-11.7971 63.8687-12.4021 63.4845-13.0071 63.2925-13.6937 63.2925-14.4619L63.2925-11.7827C63.2925-10.4383 63.038-9.17554 62.5291-7.99438 62.0201-6.81323 61.3239-5.78573 60.4404-4.91187 59.557-4.038 58.5247-3.3466 57.3435-2.83765 56.1623-2.32869 54.8996-2.07422 53.5552-2.07422L52.9214-2.07422 52.9214 0.115234C52.9214 0.652995 52.7341 1.11393 52.3596 1.49805 51.9851 1.88216 51.529 2.07422 50.9912 2.07422L46.5835 2.07422C46.0073 2.07422 45.5848 1.93018 45.3159 1.64209 45.047 1.354 44.8598 0.993896 44.7542 0.561768 44.6485 0.129639 44.6053-0.321696 44.6245-0.792236 44.6437-1.26278 44.6533-1.6901 44.6533-2.07422L36.7021-2.07422C34.6471-2.07422 32.7218-2.46313 30.926-3.24097 29.1303-4.0188 27.5602-5.07992 26.2158-6.42432 24.8714-7.76872 23.8103-9.33879 23.0325-11.1345 22.2546-12.9303 21.8657-14.8556 21.8657-16.9106 21.8657-18.2358 22.0386-19.5418 22.3843-20.8286 22.73-22.1154 23.2293-23.335 23.8823-24.4873L29.4136-34.167 30.7388-34.4263 30.7388-34.5703 24.4009-34.5703C23.6711-35.3962 23.1045-36.3324 22.7012-37.3792 22.2979-38.4259 22.0962-39.5062 22.0962-40.6201Z" fill="#9B9B9B" transform="translate(501.764 154)"/><path d="M20.2236-43.501C20.8574-43.501 21.3952-43.597 21.8369-43.7891 22.2786-43.9811 22.6868-44.226 23.0613-44.5237 23.4358-44.8214 23.8007-45.1431 24.156-45.4888 24.5113-45.8345 24.9146-46.1562 25.366-46.4539 25.8173-46.7515 26.3311-46.9964 26.9072-47.1885 27.4834-47.3805 28.194-47.4766 29.0391-47.4766 30.0378-47.4766 30.9692-47.2845 31.8335-46.9004 32.6978-46.5163 33.4516-45.9977 34.095-45.3447 34.7384-44.6917 35.2473-43.9235 35.6218-43.04 35.9963-42.1566 36.1836-41.2251 36.1836-40.2456 36.1836-39.2661 35.9915-38.3442 35.6074-37.48 35.2233-36.6157 34.7096-35.8619 34.0662-35.2185 33.4228-34.5751 32.6689-34.0662 31.8047-33.6917 30.9404-33.3171 30.0186-33.1299 29.0391-33.1299L19.7915-33.1299 18.3511-43.501ZM48.8018-11.7539C48.8018-11.4658 48.9122-11.2786 49.1331-11.1921 49.3539-11.1057 49.6372-11.0625 49.9829-11.0625 50.3286-11.0625 50.6935-11.0817 51.0776-11.1201 51.4618-11.1585 51.8267-11.1681 52.1724-11.1489 52.5181-11.1297 52.8013-11.0529 53.0222-10.9185 53.2431-10.784 53.3535-10.5439 53.3535-10.1982L53.3535-10.0542C53.2383-9.30518 52.9934-8.61857 52.6189-7.99438 52.2444-7.3702 51.7834-6.83244 51.2361-6.3811 50.6887-5.92977 50.0741-5.57446 49.3923-5.31519 48.7105-5.05591 47.9951-4.92627 47.2461-4.92627 46.0361-4.92627 44.8934-5.15674 43.8179-5.61768 42.7423-6.07861 41.8061-6.7028 41.009-7.49023 40.212-8.27767 39.583-9.20915 39.1221-10.2847 38.6611-11.3602 38.4307-12.5029 38.4307-13.7129L38.4307-16.7378C38.4307-17.5636 38.6035-18.3415 38.9492-19.0713 39.2949-19.8011 39.7559-20.4397 40.332-20.9871 40.9082-21.5344 41.5708-21.9666 42.3198-22.2834 43.0688-22.6003 43.8467-22.7588 44.6533-22.7588 45.5368-22.7588 46.353-22.5955 47.1021-22.269 47.8511-21.9425 48.5041-21.5008 49.061-20.9438 49.618-20.3869 50.0549-19.7291 50.3718-18.9705 50.6887-18.2118 50.8472-17.3908 50.8472-16.5073 50.8472-15.7967 50.7415-15.1629 50.5303-14.606 50.319-14.049 50.0837-13.5688 49.8245-13.1655 49.5652-12.7622 49.3299-12.4453 49.1187-12.2148 48.9074-11.9844 48.8018-11.8307 48.8018-11.7539Z" fill="#D3D3D3" transform="translate(501.764 154)"/><path d="M27.4834-38.9204C27.0417-38.9204 26.672-39.0693 26.3743-39.3669 26.0766-39.6646 25.9277-40.0343 25.9277-40.4761 25.9277-40.8986 26.0814-41.2635 26.3887-41.5708 26.696-41.8781 27.0609-42.0317 27.4834-42.0317 27.9059-42.0317 28.2708-41.8781 28.5781-41.5708 28.8854-41.2635 29.0391-40.8986 29.0391-40.4761 29.0391-40.0343 28.8902-39.6646 28.5925-39.3669 28.2948-39.0693 27.9251-38.9204 27.4834-38.9204Z" fill="#1C1C1C" transform="translate(501.764 154)"/><path d="M50.8472 6.19385C51.2505 6.19385 51.6922 6.18905 52.1724 6.17944 52.6525 6.16984 53.1038 6.22266 53.5264 6.33789 53.9489 6.45312 54.2994 6.65479 54.5779 6.94287 54.8564 7.23096 54.9956 7.67269 54.9956 8.26807L40.5049 8.26807C40.5049 7.7111 40.7113 7.22616 41.1243 6.81323 41.5372 6.40031 42.0221 6.19385 42.5791 6.19385L46.7275 6.19385 46.7275 2.07422 50.8472 2.07422 50.8472 6.19385Z" fill="#FFB02E" transform="translate(501.764 154)"/><path d="M11.5234-36.6445C11.5234-37.5856 11.7011-38.4739 12.0564-39.3093 12.4117-40.1448 12.9014-40.8698 13.5256-41.4844 14.1498-42.099 14.8748-42.5887 15.7007-42.9536 16.5265-43.3185 17.41-43.501 18.3511-43.501 18.7544-43.501 19.0953-43.3569 19.3738-43.0688 19.6523-42.7808 19.7915-42.4351 19.7915-42.0317L19.7915-33.1299 15.6431-33.1299C15.6431-32.9954 15.6479-32.8322 15.6575-32.6401 15.6671-32.4481 15.6575-32.2656 15.6287-32.0928 15.5999-31.9199 15.5374-31.7759 15.4414-31.6606 15.3454-31.5454 15.1917-31.4878 14.9805-31.4878 14.846-31.4878 14.7404-31.5166 14.6636-31.5742 13.6841-32.0352 12.9159-32.7266 12.3589-33.6484 11.8019-34.5703 11.5234-35.569 11.5234-36.6445Z" fill="#FFB02E" transform="translate(501.764 154)"/><path d="M38.5171-40.332C38.5171-39.6982 38.4547-39.0645 38.3298-38.4307 38.205-37.7969 38.0081-37.1919 37.7393-36.6157L33.4756-26.936 26.0142-24.8618 20.3101-26.936C20.3869-27.1089 20.5501-27.469 20.7998-28.0164 21.0495-28.5637 21.3088-29.1447 21.5776-29.7593 21.8465-30.3739 22.0914-30.9356 22.3123-31.4446 22.5331-31.9535 22.6436-32.256 22.6436-32.3521 22.6436-32.5633 22.5667-32.7458 22.4131-32.8994 22.2594-33.0531 22.077-33.1299 21.8657-33.1299L19.7915-37.2783 20.3101-37.2495C20.1564-37.7489 20.0316-38.2578 19.9355-38.7764 19.8395-39.2949 19.7915-39.8135 19.7915-40.332 19.7915-41.6188 20.0364-42.8288 20.5261-43.9619 21.0159-45.0951 21.6881-46.0889 22.5427-46.9436 23.3974-47.7983 24.3913-48.4705 25.5244-48.9602 26.6576-49.4499 27.8675-49.6948 29.1543-49.6948 30.4411-49.6948 31.651-49.4499 32.7842-48.9602 33.9173-48.4705 34.9112-47.7983 35.7659-46.9436 36.6205-46.0889 37.2927-45.0951 37.7825-43.9619 38.2722-42.8288 38.5171-41.6188 38.5171-40.332Z" fill="#44911B" transform="translate(595.666 155)"/><path d="M21.8657-33.1299 16.6802-33.1299C15.9696-33.1299 15.3022-33.2643 14.678-33.5332 14.0538-33.8021 13.5064-34.1718 13.0359-34.6423 12.5653-35.1129 12.1956-35.6602 11.9268-36.2844 11.6579-36.9086 11.5234-37.576 11.5234-38.2866 11.5234-38.5747 11.6243-38.8244 11.8259-39.0356 12.0276-39.2469 12.2725-39.3525 12.5605-39.3525 13.4824-39.3525 14.3371-39.463 15.1245-39.6838 15.9119-39.9047 16.6322-40.38 17.2852-41.1099L21.8657-46.209Z" fill="#F9C23C" transform="translate(595.666 155)"/><path d="M29.1543-38.2578C28.5973-38.2578 28.1124-38.4643 27.6995-38.8772 27.2865-39.2901 27.0801-39.7751 27.0801-40.332 27.0801-40.9082 27.2817-41.3979 27.6851-41.8013 28.0884-42.2046 28.5781-42.4062 29.1543-42.4062 29.7305-42.4062 30.2202-42.2046 30.6235-41.8013 31.0269-41.3979 31.2285-40.9082 31.2285-40.332 31.2285-39.7751 31.0221-39.2901 30.6091-38.8772 30.1962-38.4643 29.7113-38.2578 29.1543-38.2578Z" fill="#212121" transform="translate(595.666 155)"/><path d="M57.041-22.7876 63.2925-14.4907C63.2925-12.8198 63.158-11.0961 62.8892-9.31958 62.6203-7.54305 62.2074-5.80973 61.6504-4.11963 61.0934-2.42952 60.3732-0.835449 59.4897 0.662598 58.6063 2.16064 57.55 3.47144 56.3208 4.59497 55.0916 5.71851 53.68 6.61157 52.0859 7.27417 50.4919 7.93677 48.7057 8.26807 46.7275 8.26807L30.1626 8.26807C29.4328 8.26807 28.7078 8.22005 27.9875 8.12402 27.2673 8.02799 26.5519 7.89355 25.8413 7.7207L20.8286-8.29688 31.0845-22.6436 23.9399-20.7134 18.4663-22.7876 20.2812-26.936 33.4468-26.936 31.6318-22.7876Z" fill="#D3D3D3" transform="translate(595.666 155)"/><path d="M57.041-22.7876C58.1934-22.7876 59.3169-22.9845 60.4116-23.3782 61.5063-23.7719 62.505-24.3337 63.4077-25.0635 63.5614-25.1979 63.6862-25.3132 63.7822-25.4092 63.8783-25.5052 64.0031-25.6204 64.1567-25.7549 64.5024-26.043 64.8337-26.2638 65.1506-26.4175 65.4675-26.5711 65.866-26.6479 66.3462-26.6479 66.7687-26.6479 67.172-26.5663 67.5562-26.4031 67.9403-26.2398 68.2764-26.019 68.5645-25.7405 68.8525-25.462 69.0782-25.1355 69.2415-24.761 69.4047-24.3865 69.4863-23.9784 69.4863-23.5366L69.4863-14.0586C69.4863-12.0036 69.2078-10.0254 68.6509-8.12402 68.0939-6.22266 67.3113-4.44613 66.303-2.79443 65.2947-1.14274 64.0895 0.364909 62.6875 1.72852 61.2855 3.09212 59.7394 4.25887 58.0493 5.22876 56.3592 6.19865 54.5587 6.94767 52.6477 7.47583 50.7367 8.00399 48.7633 8.26807 46.7275 8.26807L40.5049 8.26807C43.4242 8.26807 46.2282 7.73511 48.917 6.66919 51.6058 5.60327 54.0161 4.07161 56.1479 2.07422L41.7437 2.07422C39.5926 2.07422 37.5952 1.72852 35.7515 1.03711 33.9077 0.345703 32.3088-0.638591 30.9548-1.91577 29.6008-3.19295 28.5349-4.72941 27.7571-6.52515 26.9792-8.32088 26.5903-10.3135 26.5903-12.5029 26.84-12.0612 27.1329-11.6291 27.469-11.2065 27.8051-10.784 28.146-10.3903 28.4917-10.0254 30.2586-8.16243 32.2656-6.76042 34.5127-5.81934 36.7598-4.87825 39.1701-4.40771 41.7437-4.40771 44.1828-4.40771 46.3674-4.72461 48.2976-5.3584 50.2278-5.99219 51.8603-6.93327 53.1951-8.18164 54.5299-9.43001 55.5526-10.9809 56.2632-12.8342 56.9738-14.6876 57.3291-16.8434 57.3291-19.3018 57.3291-19.8203 57.3051-20.4013 57.2571-21.0447 57.2091-21.6881 57.137-22.269 57.041-22.7876Z" fill="#9B9B9B" transform="translate(595.666 155)"/><path d="M31.6318-22.7876C31.0365-21.6353 30.4411-20.4829 29.8457-19.3306 29.2503-18.1782 28.6549-17.0259 28.0596-15.8735 26.696-13.2423 26.0142-10.4383 26.0142-7.46143L26.0142 7.74951C24.1896 7.26937 22.5139 6.52034 20.9871 5.50244 19.4602 4.48454 18.1494 3.26497 17.0547 1.84375 15.96 0.422526 15.1101-1.15234 14.5051-2.88086 13.9001-4.60938 13.5977-6.41471 13.5977-8.29688 13.5977-9.60286 13.7561-10.8752 14.073-12.114 14.3899-13.3528 14.7884-14.5723 15.2686-15.7727 15.7487-16.9731 16.2721-18.1542 16.8386-19.3162 17.4052-20.4781 17.9478-21.6353 18.4663-22.7876Z" fill="#A56953" transform="translate(595.666 155)"/><path d="M50.9336-43.4434 58.3374-41.4268C58.9904-39.9863 59.4849-38.4931 59.821-36.947 60.1571-35.401 60.3252-33.8405 60.3252-32.2656L60.3252-16.1904C60.3252-15.5758 60.5076-15.1437 60.8726-14.894 61.2375-14.6444 61.6984-14.4955 62.2554-14.4475 62.8123-14.3995 63.4077-14.4091 64.0415-14.4763 64.6753-14.5435 65.2707-14.5675 65.8276-14.5483 66.3846-14.5291 66.8455-14.4283 67.2104-14.2458 67.5754-14.0634 67.7578-13.7129 67.7578-13.1943 67.7578-13.0791 67.7194-12.8918 67.6426-12.6326 67.5658-12.3733 67.4793-12.0948 67.3833-11.7971 67.2873-11.4994 67.1912-11.2161 67.0952-10.9473 66.9992-10.6784 66.9224-10.4767 66.8647-10.3423L39.6406-0.316895 12.4165-10.3423C12.3589-10.4767 12.2821-10.6784 12.186-10.9473 12.09-11.2161 11.9892-11.4946 11.8835-11.7827 11.7779-12.0708 11.6915-12.3445 11.6243-12.6038 11.557-12.863 11.5234-13.0599 11.5234-13.1943 11.5234-13.7129 11.7059-14.0634 12.0708-14.2458 12.4357-14.4283 12.8918-14.5291 13.4392-14.5483 13.9866-14.5675 14.5819-14.5435 15.2253-14.4763 15.8687-14.4091 16.4641-14.3995 17.0115-14.4475 17.5588-14.4955 18.015-14.6444 18.3799-14.894 18.7448-15.1437 18.9272-15.5758 18.9272-16.1904L18.9272-32.2656C18.9272-33.8789 19.1001-35.4634 19.4458-37.019 19.7915-38.5747 20.3005-40.0824 20.9727-41.542L28.146-43.4434 35.4634-41.542C36.0972-40.14 36.5869-38.7188 36.9326-37.2783L42.291-37.2783C42.4639-38.0081 42.6703-38.7188 42.9104-39.4102 43.1505-40.1016 43.4242-40.7834 43.7314-41.4556Z" fill="#FF822D" transform="translate(243.737 155)"/><path d="M20.9438-41.5132C21.0975-41.8781 21.328-42.3294 21.6353-42.8672 21.9425-43.4049 22.2979-43.9811 22.7012-44.5957 23.1045-45.2103 23.5414-45.8201 24.012-46.425 24.4825-47.03 24.9626-47.5726 25.4524-48.0527 25.9421-48.5329 26.4271-48.9266 26.9072-49.2339 27.3874-49.5412 27.8387-49.6948 28.2612-49.6948 28.6838-49.6948 29.1351-49.5412 29.6152-49.2339 30.0954-48.9266 30.5803-48.5329 31.0701-48.0527 31.5598-47.5726 32.0304-47.03 32.4817-46.425 32.933-45.8201 33.3555-45.2103 33.7493-44.5957 34.143-43.9811 34.4887-43.4049 34.7864-42.8672 35.0841-42.3294 35.3193-41.8781 35.4922-41.5132ZM50.9912-49.6948C51.4137-49.6948 51.8699-49.5412 52.3596-49.2339 52.8494-48.9266 53.3391-48.5281 53.8289-48.0383 54.3186-47.5486 54.8035-46.9964 55.2837-46.3818 55.7638-45.7673 56.2008-45.1527 56.5945-44.5381 56.9882-43.9235 57.3387-43.3425 57.646-42.7952 57.9533-42.2478 58.1934-41.7917 58.3662-41.4268L43.7026-41.4268C43.8563-41.7917 44.0868-42.2478 44.394-42.7952 44.7013-43.3425 45.0518-43.9235 45.4456-44.5381 45.8393-45.1527 46.2666-45.7673 46.7275-46.3818 47.1885-46.9964 47.6638-47.5486 48.1536-48.0383 48.6433-48.5281 49.1283-48.9266 49.6084-49.2339 50.0885-49.5412 50.5495-49.6948 50.9912-49.6948Z" fill="#7D4533" transform="translate(243.737 155)"/><path d="M33.9365-36.5005C31.4398-35.7899 29.1735-34.6567 27.1377-33.1011 25.1019-31.5454 23.3926-29.6632 22.0098-27.4546L22.0098-32.2944C22.0098-33.5428 22.1442-34.7816 22.4131-36.0107 22.682-37.2399 23.0661-38.4259 23.5654-39.5686 24.0648-40.7113 24.6842-41.7965 25.4236-42.824 26.163-43.8515 27.0033-44.7782 27.9443-45.604 28.002-45.6616 28.0884-45.6904 28.2036-45.6904 28.3188-45.6904 28.4053-45.6616 28.4629-45.604 29.8265-44.4325 30.974-43.0592 31.9055-41.4844 32.837-39.9095 33.514-38.2482 33.9365-36.5005ZM57.2139-32.2656 57.2139-27.4834C55.8503-29.6921 54.1409-31.5694 52.0859-33.1155 50.0309-34.6615 47.755-35.7899 45.2583-36.5005 45.7-38.229 46.3818-39.8807 47.3037-41.4556 48.2256-43.0304 49.3587-44.4036 50.7031-45.5752 50.7607-45.6328 50.8472-45.6616 50.9624-45.6616 51.0776-45.6616 51.1641-45.6328 51.2217-45.5752 52.182-44.7493 53.0318-43.8275 53.7712-42.8096 54.5107-41.7917 55.1348-40.7113 55.6438-39.5686 56.1527-38.4259 56.5417-37.2351 56.8105-35.9963 57.0794-34.7576 57.2139-33.514 57.2139-32.2656Z" fill="#FF6723" transform="translate(243.737 155)"/><path d="M66.8647-10.3711C65.77-7.54785 64.3056-4.98869 62.4714-2.6936 60.6373-0.398519 58.5295 1.56047 56.1479 3.18335 53.7664 4.80623 51.1689 6.05941 48.3552 6.94287 45.5416 7.82633 42.6271 8.26807 39.6118 8.26807 36.5773 8.26807 33.658 7.82633 30.854 6.94287 28.05 6.05941 25.4572 4.80623 23.0757 3.18335 20.6942 1.56047 18.5863-0.398519 16.7522-2.6936 14.918-4.98869 13.4632-7.54785 12.3877-10.3711L25.7837-10.3711C27.2817-10.3711 28.6309-10.2174 29.8313-9.91016 31.0317-9.60286 32.1648-9.18514 33.2307-8.65698 34.2966-8.12882 35.3433-7.50464 36.3708-6.78442 37.3984-6.06421 38.4883-5.29118 39.6406-4.46533 40.793-5.29118 41.8829-6.06421 42.9104-6.78442 43.9379-7.50464 44.9846-8.12882 46.0505-8.65698 47.1165-9.18514 48.2496-9.60286 49.45-9.91016 50.6503-10.2174 51.9995-10.3711 53.4976-10.3711L66.8647-10.3711Z" fill="#FFDEA7" transform="translate(243.737 155)"/><path d="M30.1626-16.5649C30.1626-17.1219 30.3643-17.6069 30.7676-18.0198 31.1709-18.4327 31.651-18.6392 32.208-18.6392 32.7842-18.6392 33.2739-18.4375 33.6772-18.0342 34.0806-17.6309 34.2822-17.1411 34.2822-16.5649L34.2822-14.4907C34.2822-13.9338 34.0758-13.4488 33.6628-13.0359 33.2499-12.623 32.765-12.4165 32.208-12.4165 31.651-12.4165 31.1709-12.623 30.7676-13.0359 30.3643-13.4488 30.1626-13.9338 30.1626-14.4907ZM44.6533-16.5649C44.6533-17.1411 44.855-17.6309 45.2583-18.0342 45.6616-18.4375 46.1514-18.6392 46.7275-18.6392 47.2845-18.6392 47.7646-18.4327 48.168-18.0198 48.5713-17.6069 48.7729-17.1219 48.7729-16.5649L48.7729-14.4907C48.7729-13.9338 48.5713-13.4488 48.168-13.0359 47.7646-12.623 47.2845-12.4165 46.7275-12.4165 46.1706-12.4165 45.6856-12.623 45.2727-13.0359 44.8598-13.4488 44.6533-13.9338 44.6533-14.4907ZM39.6406-0.777832C40.2168 0.105632 40.9706 0.801839 41.9021 1.31079 42.8336 1.81974 43.8275 2.07422 44.8838 2.07422 45.1719 2.07422 45.4167 1.97339 45.6184 1.77173 45.8201 1.57007 45.9209 1.3252 45.9209 1.03711 45.9209 0.749023 45.8201 0.50415 45.6184 0.30249 45.4167 0.10083 45.1719 0 44.8838 0 44.3076 0 43.7603-0.110433 43.2417-0.331299 42.7231-0.552165 42.2718-0.854655 41.8877-1.23877 41.5036-1.62288 41.2011-2.07422 40.9802-2.59277 40.7594-3.11133 40.6489-3.65869 40.6489-4.23486 40.6489-4.40771 40.6105-4.56136 40.5337-4.6958 40.6681-4.77262 40.793-4.86865 40.9082-4.98389L43.2417-7.31738C43.5874-7.66309 43.7603-8.07601 43.7603-8.55615 43.7603-9.0555 43.5874-9.48283 43.2417-9.83813 42.896-10.1934 42.4735-10.3711 41.9741-10.3711L37.3071-10.3711C36.8078-10.3711 36.3756-10.1982 36.0107-9.85254 35.6458-9.50684 35.4634-9.08431 35.4634-8.58496 35.4634-8.10482 35.6458-7.68229 36.0107-7.31738 36.4525-6.87565 36.8846-6.41951 37.3071-5.94897 37.7297-5.47843 38.1906-5.06071 38.6899-4.6958 38.6515-4.61898 38.6227-4.54696 38.6035-4.47974 38.5843-4.41252 38.5747-4.33089 38.5747-4.23486 38.5747-3.65869 38.4643-3.11133 38.2434-2.59277 38.0225-2.07422 37.7201-1.62288 37.3359-1.23877 36.9518-0.854655 36.5005-0.552165 35.9819-0.331299 35.4634-0.110433 34.916 0 34.3398 0 34.0518 0 33.8117 0.10083 33.6196 0.30249 33.4276 0.50415 33.3315 0.749023 33.3315 1.03711 33.3315 1.3252 33.4276 1.57007 33.6196 1.77173 33.8117 1.97339 34.0518 2.07422 34.3398 2.07422 35.4154 2.07422 36.4189 1.81974 37.3503 1.31079 38.2818 0.801839 39.0452 0.105632 39.6406-0.777832Z" fill="#212121" transform="translate(243.737 155)"/><path d="M50.9336-43.4434 58.3374-41.4268C58.9904-39.9863 59.4849-38.4931 59.821-36.947 60.1571-35.401 60.3252-33.8405 60.3252-32.2656L60.3252-16.1904C60.3252-15.5758 60.5076-15.1437 60.8726-14.894 61.2375-14.6444 61.6984-14.4955 62.2554-14.4475 62.8123-14.3995 63.4077-14.4091 64.0415-14.4763 64.6753-14.5435 65.2707-14.5675 65.8276-14.5483 66.3846-14.5291 66.8455-14.4283 67.2104-14.2458 67.5754-14.0634 67.7578-13.7129 67.7578-13.1943 67.7578-13.0791 67.7194-12.8918 67.6426-12.6326 67.5658-12.3733 67.4793-12.0948 67.3833-11.7971 67.2873-11.4994 67.1912-11.2161 67.0952-10.9473 66.9992-10.6784 66.9224-10.4767 66.8647-10.3423L39.6406-0.316895 12.4165-10.3423C12.3589-10.4767 12.2821-10.6784 12.186-10.9473 12.09-11.2161 11.9892-11.4946 11.8835-11.7827 11.7779-12.0708 11.6915-12.3445 11.6243-12.6038 11.557-12.863 11.5234-13.0599 11.5234-13.1943 11.5234-13.7129 11.7059-14.0634 12.0708-14.2458 12.4357-14.4283 12.8918-14.5291 13.4392-14.5483 13.9866-14.5675 14.5819-14.5435 15.2253-14.4763 15.8687-14.4091 16.4641-14.3995 17.0115-14.4475 17.5588-14.4955 18.015-14.6444 18.3799-14.894 18.7448-15.1437 18.9272-15.5758 18.9272-16.1904L18.9272-32.2656C18.9272-33.8789 19.1001-35.4634 19.4458-37.019 19.7915-38.5747 20.3005-40.0824 20.9727-41.542L28.146-43.4434 35.4634-41.542C36.0972-40.14 36.5869-38.7188 36.9326-37.2783L42.291-37.2783C42.4639-38.0081 42.6703-38.7188 42.9104-39.4102 43.1505-40.1016 43.4242-40.7834 43.7314-41.4556Z" fill="#FF822D" transform="translate(243.04 248)"/><path d="M20.9438-41.5132C21.0975-41.8781 21.328-42.3294 21.6353-42.8672 21.9425-43.4049 22.2979-43.9811 22.7012-44.5957 23.1045-45.2103 23.5414-45.8201 24.012-46.425 24.4825-47.03 24.9626-47.5726 25.4524-48.0527 25.9421-48.5329 26.4271-48.9266 26.9072-49.2339 27.3874-49.5412 27.8387-49.6948 28.2612-49.6948 28.6838-49.6948 29.1351-49.5412 29.6152-49.2339 30.0954-48.9266 30.5803-48.5329 31.0701-48.0527 31.5598-47.5726 32.0304-47.03 32.4817-46.425 32.933-45.8201 33.3555-45.2103 33.7493-44.5957 34.143-43.9811 34.4887-43.4049 34.7864-42.8672 35.0841-42.3294 35.3193-41.8781 35.4922-41.5132ZM50.9912-49.6948C51.4137-49.6948 51.8699-49.5412 52.3596-49.2339 52.8494-48.9266 53.3391-48.5281 53.8289-48.0383 54.3186-47.5486 54.8035-46.9964 55.2837-46.3818 55.7638-45.7673 56.2008-45.1527 56.5945-44.5381 56.9882-43.9235 57.3387-43.3425 57.646-42.7952 57.9533-42.2478 58.1934-41.7917 58.3662-41.4268L43.7026-41.4268C43.8563-41.7917 44.0868-42.2478 44.394-42.7952 44.7013-43.3425 45.0518-43.9235 45.4456-44.5381 45.8393-45.1527 46.2666-45.7673 46.7275-46.3818 47.1885-46.9964 47.6638-47.5486 48.1536-48.0383 48.6433-48.5281 49.1283-48.9266 49.6084-49.2339 50.0885-49.5412 50.5495-49.6948 50.9912-49.6948Z" fill="#7D4533" transform="translate(243.04 248)"/><path d="M33.9365-36.5005C31.4398-35.7899 29.1735-34.6567 27.1377-33.1011 25.1019-31.5454 23.3926-29.6632 22.0098-27.4546L22.0098-32.2944C22.0098-33.5428 22.1442-34.7816 22.4131-36.0107 22.682-37.2399 23.0661-38.4259 23.5654-39.5686 24.0648-40.7113 24.6842-41.7965 25.4236-42.824 26.163-43.8515 27.0033-44.7782 27.9443-45.604 28.002-45.6616 28.0884-45.6904 28.2036-45.6904 28.3188-45.6904 28.4053-45.6616 28.4629-45.604 29.8265-44.4325 30.974-43.0592 31.9055-41.4844 32.837-39.9095 33.514-38.2482 33.9365-36.5005ZM57.2139-32.2656 57.2139-27.4834C55.8503-29.6921 54.1409-31.5694 52.0859-33.1155 50.0309-34.6615 47.755-35.7899 45.2583-36.5005 45.7-38.229 46.3818-39.8807 47.3037-41.4556 48.2256-43.0304 49.3587-44.4036 50.7031-45.5752 50.7607-45.6328 50.8472-45.6616 50.9624-45.6616 51.0776-45.6616 51.1641-45.6328 51.2217-45.5752 52.182-44.7493 53.0318-43.8275 53.7712-42.8096 54.5107-41.7917 55.1348-40.7113 55.6438-39.5686 56.1527-38.4259 56.5417-37.2351 56.8105-35.9963 57.0794-34.7576 57.2139-33.514 57.2139-32.2656Z" fill="#FF6723" transform="translate(243.04 248)"/><path d="M66.8647-10.3711C65.77-7.54785 64.3056-4.98869 62.4714-2.6936 60.6373-0.398519 58.5295 1.56047 56.1479 3.18335 53.7664 4.80623 51.1689 6.05941 48.3552 6.94287 45.5416 7.82633 42.6271 8.26807 39.6118 8.26807 36.5773 8.26807 33.658 7.82633 30.854 6.94287 28.05 6.05941 25.4572 4.80623 23.0757 3.18335 20.6942 1.56047 18.5863-0.398519 16.7522-2.6936 14.918-4.98869 13.4632-7.54785 12.3877-10.3711L25.7837-10.3711C27.2817-10.3711 28.6309-10.2174 29.8313-9.91016 31.0317-9.60286 32.1648-9.18514 33.2307-8.65698 34.2966-8.12882 35.3433-7.50464 36.3708-6.78442 37.3984-6.06421 38.4883-5.29118 39.6406-4.46533 40.793-5.29118 41.8829-6.06421 42.9104-6.78442 43.9379-7.50464 44.9846-8.12882 46.0505-8.65698 47.1165-9.18514 48.2496-9.60286 49.45-9.91016 50.6503-10.2174 51.9995-10.3711 53.4976-10.3711L66.8647-10.3711Z" fill="#FFDEA7" transform="translate(243.04 248)"/><path d="M30.1626-16.5649C30.1626-17.1219 30.3643-17.6069 30.7676-18.0198 31.1709-18.4327 31.651-18.6392 32.208-18.6392 32.7842-18.6392 33.2739-18.4375 33.6772-18.0342 34.0806-17.6309 34.2822-17.1411 34.2822-16.5649L34.2822-14.4907C34.2822-13.9338 34.0758-13.4488 33.6628-13.0359 33.2499-12.623 32.765-12.4165 32.208-12.4165 31.651-12.4165 31.1709-12.623 30.7676-13.0359 30.3643-13.4488 30.1626-13.9338 30.1626-14.4907ZM44.6533-16.5649C44.6533-17.1411 44.855-17.6309 45.2583-18.0342 45.6616-18.4375 46.1514-18.6392 46.7275-18.6392 47.2845-18.6392 47.7646-18.4327 48.168-18.0198 48.5713-17.6069 48.7729-17.1219 48.7729-16.5649L48.7729-14.4907C48.7729-13.9338 48.5713-13.4488 48.168-13.0359 47.7646-12.623 47.2845-12.4165 46.7275-12.4165 46.1706-12.4165 45.6856-12.623 45.2727-13.0359 44.8598-13.4488 44.6533-13.9338 44.6533-14.4907ZM39.6406-0.777832C40.2168 0.105632 40.9706 0.801839 41.9021 1.31079 42.8336 1.81974 43.8275 2.07422 44.8838 2.07422 45.1719 2.07422 45.4167 1.97339 45.6184 1.77173 45.8201 1.57007 45.9209 1.3252 45.9209 1.03711 45.9209 0.749023 45.8201 0.50415 45.6184 0.30249 45.4167 0.10083 45.1719 0 44.8838 0 44.3076 0 43.7603-0.110433 43.2417-0.331299 42.7231-0.552165 42.2718-0.854655 41.8877-1.23877 41.5036-1.62288 41.2011-2.07422 40.9802-2.59277 40.7594-3.11133 40.6489-3.65869 40.6489-4.23486 40.6489-4.40771 40.6105-4.56136 40.5337-4.6958 40.6681-4.77262 40.793-4.86865 40.9082-4.98389L43.2417-7.31738C43.5874-7.66309 43.7603-8.07601 43.7603-8.55615 43.7603-9.0555 43.5874-9.48283 43.2417-9.83813 42.896-10.1934 42.4735-10.3711 41.9741-10.3711L37.3071-10.3711C36.8078-10.3711 36.3756-10.1982 36.0107-9.85254 35.6458-9.50684 35.4634-9.08431 35.4634-8.58496 35.4634-8.10482 35.6458-7.68229 36.0107-7.31738 36.4525-6.87565 36.8846-6.41951 37.3071-5.94897 37.7297-5.47843 38.1906-5.06071 38.6899-4.6958 38.6515-4.61898 38.6227-4.54696 38.6035-4.47974 38.5843-4.41252 38.5747-4.33089 38.5747-4.23486 38.5747-3.65869 38.4643-3.11133 38.2434-2.59277 38.0225-2.07422 37.7201-1.62288 37.3359-1.23877 36.9518-0.854655 36.5005-0.552165 35.9819-0.331299 35.4634-0.110433 34.916 0 34.3398 0 34.0518 0 33.8117 0.10083 33.6196 0.30249 33.4276 0.50415 33.3315 0.749023 33.3315 1.03711 33.3315 1.3252 33.4276 1.57007 33.6196 1.77173 33.8117 1.97339 34.0518 2.07422 34.3398 2.07422 35.4154 2.07422 36.4189 1.81974 37.3503 1.31079 38.2818 0.801839 39.0452 0.105632 39.6406-0.777832Z" fill="#212121" transform="translate(243.04 248)"/><path d="M50.9336-43.4434 58.3374-41.4268C58.9904-39.9863 59.4849-38.4931 59.821-36.947 60.1571-35.401 60.3252-33.8405 60.3252-32.2656L60.3252-16.1904C60.3252-15.5758 60.5076-15.1437 60.8726-14.894 61.2375-14.6444 61.6984-14.4955 62.2554-14.4475 62.8123-14.3995 63.4077-14.4091 64.0415-14.4763 64.6753-14.5435 65.2707-14.5675 65.8276-14.5483 66.3846-14.5291 66.8455-14.4283 67.2104-14.2458 67.5754-14.0634 67.7578-13.7129 67.7578-13.1943 67.7578-13.0791 67.7194-12.8918 67.6426-12.6326 67.5658-12.3733 67.4793-12.0948 67.3833-11.7971 67.2873-11.4994 67.1912-11.2161 67.0952-10.9473 66.9992-10.6784 66.9224-10.4767 66.8647-10.3423L39.6406-0.316895 12.4165-10.3423C12.3589-10.4767 12.2821-10.6784 12.186-10.9473 12.09-11.2161 11.9892-11.4946 11.8835-11.7827 11.7779-12.0708 11.6915-12.3445 11.6243-12.6038 11.557-12.863 11.5234-13.0599 11.5234-13.1943 11.5234-13.7129 11.7059-14.0634 12.0708-14.2458 12.4357-14.4283 12.8918-14.5291 13.4392-14.5483 13.9866-14.5675 14.5819-14.5435 15.2253-14.4763 15.8687-14.4091 16.4641-14.3995 17.0115-14.4475 17.5588-14.4955 18.015-14.6444 18.3799-14.894 18.7448-15.1437 18.9272-15.5758 18.9272-16.1904L18.9272-32.2656C18.9272-33.8789 19.1001-35.4634 19.4458-37.019 19.7915-38.5747 20.3005-40.0824 20.9727-41.542L28.146-43.4434 35.4634-41.542C36.0972-40.14 36.5869-38.7188 36.9326-37.2783L42.291-37.2783C42.4639-38.0081 42.6703-38.7188 42.9104-39.4102 43.1505-40.1016 43.4242-40.7834 43.7314-41.4556Z" fill="#FF822D" transform="translate(392.274 480)"/><path d="M20.9438-41.5132C21.0975-41.8781 21.328-42.3294 21.6353-42.8672 21.9425-43.4049 22.2979-43.9811 22.7012-44.5957 23.1045-45.2103 23.5414-45.8201 24.012-46.425 24.4825-47.03 24.9626-47.5726 25.4524-48.0527 25.9421-48.5329 26.4271-48.9266 26.9072-49.2339 27.3874-49.5412 27.8387-49.6948 28.2612-49.6948 28.6838-49.6948 29.1351-49.5412 29.6152-49.2339 30.0954-48.9266 30.5803-48.5329 31.0701-48.0527 31.5598-47.5726 32.0304-47.03 32.4817-46.425 32.933-45.8201 33.3555-45.2103 33.7493-44.5957 34.143-43.9811 34.4887-43.4049 34.7864-42.8672 35.0841-42.3294 35.3193-41.8781 35.4922-41.5132ZM50.9912-49.6948C51.4137-49.6948 51.8699-49.5412 52.3596-49.2339 52.8494-48.9266 53.3391-48.5281 53.8289-48.0383 54.3186-47.5486 54.8035-46.9964 55.2837-46.3818 55.7638-45.7673 56.2008-45.1527 56.5945-44.5381 56.9882-43.9235 57.3387-43.3425 57.646-42.7952 57.9533-42.2478 58.1934-41.7917 58.3662-41.4268L43.7026-41.4268C43.8563-41.7917 44.0868-42.2478 44.394-42.7952 44.7013-43.3425 45.0518-43.9235 45.4456-44.5381 45.8393-45.1527 46.2666-45.7673 46.7275-46.3818 47.1885-46.9964 47.6638-47.5486 48.1536-48.0383 48.6433-48.5281 49.1283-48.9266 49.6084-49.2339 50.0885-49.5412 50.5495-49.6948 50.9912-49.6948Z" fill="#7D4533" transform="translate(392.274 480)"/><path d="M33.9365-36.5005C31.4398-35.7899 29.1735-34.6567 27.1377-33.1011 25.1019-31.5454 23.3926-29.6632 22.0098-27.4546L22.0098-32.2944C22.0098-33.5428 22.1442-34.7816 22.4131-36.0107 22.682-37.2399 23.0661-38.4259 23.5654-39.5686 24.0648-40.7113 24.6842-41.7965 25.4236-42.824 26.163-43.8515 27.0033-44.7782 27.9443-45.604 28.002-45.6616 28.0884-45.6904 28.2036-45.6904 28.3188-45.6904 28.4053-45.6616 28.4629-45.604 29.8265-44.4325 30.974-43.0592 31.9055-41.4844 32.837-39.9095 33.514-38.2482 33.9365-36.5005ZM57.2139-32.2656 57.2139-27.4834C55.8503-29.6921 54.1409-31.5694 52.0859-33.1155 50.0309-34.6615 47.755-35.7899 45.2583-36.5005 45.7-38.229 46.3818-39.8807 47.3037-41.4556 48.2256-43.0304 49.3587-44.4036 50.7031-45.5752 50.7607-45.6328 50.8472-45.6616 50.9624-45.6616 51.0776-45.6616 51.1641-45.6328 51.2217-45.5752 52.182-44.7493 53.0318-43.8275 53.7712-42.8096 54.5107-41.7917 55.1348-40.7113 55.6438-39.5686 56.1527-38.4259 56.5417-37.2351 56.8105-35.9963 57.0794-34.7576 57.2139-33.514 57.2139-32.2656Z" fill="#FF6723" transform="translate(392.274 480)"/><path d="M66.8647-10.3711C65.77-7.54785 64.3056-4.98869 62.4714-2.6936 60.6373-0.398519 58.5295 1.56047 56.1479 3.18335 53.7664 4.80623 51.1689 6.05941 48.3552 6.94287 45.5416 7.82633 42.6271 8.26807 39.6118 8.26807 36.5773 8.26807 33.658 7.82633 30.854 6.94287 28.05 6.05941 25.4572 4.80623 23.0757 3.18335 20.6942 1.56047 18.5863-0.398519 16.7522-2.6936 14.918-4.98869 13.4632-7.54785 12.3877-10.3711L25.7837-10.3711C27.2817-10.3711 28.6309-10.2174 29.8313-9.91016 31.0317-9.60286 32.1648-9.18514 33.2307-8.65698 34.2966-8.12882 35.3433-7.50464 36.3708-6.78442 37.3984-6.06421 38.4883-5.29118 39.6406-4.46533 40.793-5.29118 41.8829-6.06421 42.9104-6.78442 43.9379-7.50464 44.9846-8.12882 46.0505-8.65698 47.1165-9.18514 48.2496-9.60286 49.45-9.91016 50.6503-10.2174 51.9995-10.3711 53.4976-10.3711L66.8647-10.3711Z" fill="#FFDEA7" transform="translate(392.274 480)"/><path d="M30.1626-16.5649C30.1626-17.1219 30.3643-17.6069 30.7676-18.0198 31.1709-18.4327 31.651-18.6392 32.208-18.6392 32.7842-18.6392 33.2739-18.4375 33.6772-18.0342 34.0806-17.6309 34.2822-17.1411 34.2822-16.5649L34.2822-14.4907C34.2822-13.9338 34.0758-13.4488 33.6628-13.0359 33.2499-12.623 32.765-12.4165 32.208-12.4165 31.651-12.4165 31.1709-12.623 30.7676-13.0359 30.3643-13.4488 30.1626-13.9338 30.1626-14.4907ZM44.6533-16.5649C44.6533-17.1411 44.855-17.6309 45.2583-18.0342 45.6616-18.4375 46.1514-18.6392 46.7275-18.6392 47.2845-18.6392 47.7646-18.4327 48.168-18.0198 48.5713-17.6069 48.7729-17.1219 48.7729-16.5649L48.7729-14.4907C48.7729-13.9338 48.5713-13.4488 48.168-13.0359 47.7646-12.623 47.2845-12.4165 46.7275-12.4165 46.1706-12.4165 45.6856-12.623 45.2727-13.0359 44.8598-13.4488 44.6533-13.9338 44.6533-14.4907ZM39.6406-0.777832C40.2168 0.105632 40.9706 0.801839 41.9021 1.31079 42.8336 1.81974 43.8275 2.07422 44.8838 2.07422 45.1719 2.07422 45.4167 1.97339 45.6184 1.77173 45.8201 1.57007 45.9209 1.3252 45.9209 1.03711 45.9209 0.749023 45.8201 0.50415 45.6184 0.30249 45.4167 0.10083 45.1719 0 44.8838 0 44.3076 0 43.7603-0.110433 43.2417-0.331299 42.7231-0.552165 42.2718-0.854655 41.8877-1.23877 41.5036-1.62288 41.2011-2.07422 40.9802-2.59277 40.7594-3.11133 40.6489-3.65869 40.6489-4.23486 40.6489-4.40771 40.6105-4.56136 40.5337-4.6958 40.6681-4.77262 40.793-4.86865 40.9082-4.98389L43.2417-7.31738C43.5874-7.66309 43.7603-8.07601 43.7603-8.55615 43.7603-9.0555 43.5874-9.48283 43.2417-9.83813 42.896-10.1934 42.4735-10.3711 41.9741-10.3711L37.3071-10.3711C36.8078-10.3711 36.3756-10.1982 36.0107-9.85254 35.6458-9.50684 35.4634-9.08431 35.4634-8.58496 35.4634-8.10482 35.6458-7.68229 36.0107-7.31738 36.4525-6.87565 36.8846-6.41951 37.3071-5.94897 37.7297-5.47843 38.1906-5.06071 38.6899-4.6958 38.6515-4.61898 38.6227-4.54696 38.6035-4.47974 38.5843-4.41252 38.5747-4.33089 38.5747-4.23486 38.5747-3.65869 38.4643-3.11133 38.2434-2.59277 38.0225-2.07422 37.7201-1.62288 37.3359-1.23877 36.9518-0.854655 36.5005-0.552165 35.9819-0.331299 35.4634-0.110433 34.916 0 34.3398 0 34.0518 0 33.8117 0.10083 33.6196 0.30249 33.4276 0.50415 33.3315 0.749023 33.3315 1.03711 33.3315 1.3252 33.4276 1.57007 33.6196 1.77173 33.8117 1.97339 34.0518 2.07422 34.3398 2.07422 35.4154 2.07422 36.4189 1.81974 37.3503 1.31079 38.2818 0.801839 39.0452 0.105632 39.6406-0.777832Z" fill="#212121" transform="translate(392.274 480)"/><path d="M35.0312-31.7759C35.9531-32.1408 36.8846-32.4241 37.8257-32.6257 38.7668-32.8274 39.7271-32.9282 40.7065-32.9282 42.5119-32.9282 44.25-32.6113 45.9209-31.9775 45.8825-32.2656 45.8537-32.5537 45.8345-32.8418 45.8153-33.1299 45.8057-33.418 45.8057-33.7061 45.8057-35.3385 46.1178-36.875 46.7419-38.3154 47.3661-39.7559 48.2112-41.009 49.2771-42.075 50.343-43.1409 51.5962-43.9859 53.0366-44.6101 54.4771-45.2343 56.0135-45.5464 57.646-45.5464 59.2785-45.5464 60.8149-45.2343 62.2554-44.6101 63.6958-43.9859 64.949-43.1409 66.0149-42.075 67.0808-41.009 67.9259-39.7559 68.55-38.3154 69.1742-36.875 69.4863-35.3385 69.4863-33.7061 69.4863-32.1888 69.2126-30.7484 68.6653-29.3848 68.1179-28.0212 67.3641-26.8112 66.4038-25.7549 65.4435-24.6986 64.3152-23.8295 63.0188-23.1477 61.7224-22.4659 60.3156-22.0578 58.7983-21.9233 59.5089-21.0015 60.2484-19.9403 61.0166-18.74 61.7848-17.5396 62.481-16.2913 63.1052-14.9949 63.7294-13.6985 64.2432-12.3829 64.6465-11.0481 65.0498-9.7133 65.2515-8.44092 65.2515-7.23096 65.2515-5.52165 65.0066-3.93237 64.5168-2.46313 64.0271-0.993896 63.3261 0.340902 62.4138 1.54126 61.5015 2.74162 60.4116 3.79793 59.144 4.71021 57.8765 5.62248 56.4648 6.3763 54.9092 6.97168 53.9873 7.33659 53.027 7.62467 52.0283 7.83594 51.0296 8.0472 50.0309 8.15283 49.0322 8.15283 47.8607 8.15283 46.8044 8.0568 45.8633 7.86475 44.9222 7.67269 43.9235 7.33659 42.8672 6.85645 42.4831 6.68359 42.1374 6.52995 41.8301 6.39551 41.5228 6.26107 41.1483 6.19385 40.7065 6.19385 40.3224 6.19385 39.9575 6.25146 39.6118 6.3667 39.2661 6.48193 38.9204 6.60677 38.5747 6.74121 37.1727 7.25977 35.8235 7.62467 34.5271 7.83594 33.2307 8.0472 31.8335 8.15283 30.3354 8.15283 29.3944 8.15283 28.4725 8.0328 27.5698 7.79272 26.6672 7.55265 25.7837 7.23096 24.9194 6.82764 23.5558 6.17464 22.3123 5.3632 21.1887 4.39331 20.0652 3.42342 19.1001 2.3335 18.2935 1.12354 17.4868-0.0864258 16.8578-1.39722 16.4065-2.80884 15.9552-4.22046 15.7295-5.6945 15.7295-7.23096 15.7295-8.44092 15.9408-9.7181 16.3633-11.0625 16.7858-12.4069 17.3284-13.7273 17.991-15.0237 18.6536-16.3201 19.3882-17.5588 20.1948-18.74 21.0015-19.9211 21.7793-20.9727 22.5283-21.8945 20.9727-22.0098 19.5274-22.3939 18.1926-23.0469 16.8578-23.6999 15.6959-24.5593 14.7068-25.6252 13.7177-26.6912 12.9399-27.9155 12.3733-29.2983 11.8067-30.6812 11.5234-32.1504 11.5234-33.7061 11.5234-35.3385 11.8355-36.875 12.4597-38.3154 13.0839-39.7559 13.929-41.009 14.9949-42.075 16.0608-43.1409 17.314-43.9859 18.7544-44.6101 20.1948-45.2343 21.7313-45.5464 23.3638-45.5464 24.9963-45.5464 26.5327-45.2343 27.9731-44.6101 29.4136-43.9859 30.6667-43.1409 31.7327-42.075 32.7986-41.009 33.6436-39.7559 34.2678-38.3154 34.892-36.875 35.2041-35.3385 35.2041-33.7061 35.2041-33.0531 35.1465-32.4097 35.0312-31.7759Z" fill="#F3AD61" transform="translate(511.602 479)"/><path d="M21.5776-25.1211C20.3677-25.1211 19.2249-25.3516 18.1494-25.8125 17.0739-26.2734 16.1328-26.9024 15.3262-27.6995 14.5195-28.4965 13.8857-29.4328 13.4248-30.5083 12.9639-31.5838 12.7334-32.7266 12.7334-33.9365 12.7334-35.1465 12.9639-36.2892 13.4248-37.3647 13.8857-38.4403 14.5195-39.3813 15.3262-40.188 16.1328-40.9946 17.0739-41.6284 18.1494-42.0894 19.2249-42.5503 20.3677-42.7808 21.5776-42.7808 22.7876-42.7808 23.9303-42.5503 25.0059-42.0894 26.0814-41.6284 27.0225-40.9946 27.8291-40.188 28.6357-39.3813 29.2695-38.4403 29.7305-37.3647 30.1914-36.2892 30.4219-35.1465 30.4219-33.9365 30.4219-32.7266 30.1914-31.5838 29.7305-30.5083 29.2695-29.4328 28.6357-28.4965 27.8291-27.6995 27.0225-26.9024 26.0814-26.2734 25.0059-25.8125 23.9303-25.3516 22.7876-25.1211 21.5776-25.1211ZM59.3745-25.1211C58.1645-25.1211 57.0218-25.3516 55.9463-25.8125 54.8708-26.2734 53.9297-26.9024 53.123-27.6995 52.3164-28.4965 51.6826-29.4328 51.2217-30.5083 50.7607-31.5838 50.5303-32.7266 50.5303-33.9365 50.5303-35.1657 50.7607-36.318 51.2217-37.3936 51.6826-38.4691 52.3116-39.4054 53.1086-40.2024 53.9057-40.9994 54.842-41.6284 55.9175-42.0894 56.993-42.5503 58.1453-42.7808 59.3745-42.7808 60.5845-42.7808 61.7272-42.5503 62.8027-42.0894 63.8783-41.6284 64.8145-40.9946 65.6116-40.188 66.4086-39.3813 67.0376-38.4403 67.4985-37.3647 67.9595-36.2892 68.1899-35.1465 68.1899-33.9365 68.1899-32.7266 67.9595-31.5838 67.4985-30.5083 67.0376-29.4328 66.4086-28.4965 65.6116-27.6995 64.8145-26.9024 63.8783-26.2734 62.8027-25.8125 61.7272-25.3516 60.5845-25.1211 59.3745-25.1211Z" fill="#FF8687" transform="translate(511.602 479)"/><path d="M32.208-16.6226C32.765-16.6226 33.2499-16.4209 33.6628-16.0176 34.0758-15.6143 34.2822-15.1341 34.2822-14.5771L34.2822-12.5029C34.2822-11.9268 34.0806-11.437 33.6772-11.0337 33.2739-10.6304 32.7842-10.4287 32.208-10.4287 31.651-10.4287 31.1709-10.6352 30.7676-11.0481 30.3643-11.461 30.1626-11.946 30.1626-12.5029L30.1626-14.5771C30.1626-15.1341 30.3643-15.6143 30.7676-16.0176 31.1709-16.4209 31.651-16.6226 32.208-16.6226ZM48.7729-16.6226C49.3299-16.6226 49.8149-16.4209 50.2278-16.0176 50.6407-15.6143 50.8472-15.1341 50.8472-14.5771L50.8472-12.5029C50.8472-11.9268 50.6455-11.437 50.2422-11.0337 49.8389-10.6304 49.3491-10.4287 48.7729-10.4287 48.216-10.4287 47.7358-10.6352 47.3325-11.0481 46.9292-11.461 46.7275-11.946 46.7275-12.5029L46.7275-14.5771C46.7275-15.1341 46.9292-15.6143 47.3325-16.0176 47.7358-16.4209 48.216-16.6226 48.7729-16.6226Z" fill="#1C1C1C" transform="translate(511.602 479)"/><path d="M43.7891-6.97168C43.7891-6.68359 43.6738-6.33789 43.4434-5.93457 43.2129-5.53125 42.9344-5.14233 42.6079-4.76782 42.2814-4.39331 41.9309-4.07642 41.5564-3.81714 41.1819-3.55786 40.841-3.42822 40.5337-3.42822 40.188-3.42822 39.8231-3.54826 39.439-3.78833 39.0548-4.0284 38.6995-4.33089 38.373-4.6958 38.0465-5.06071 37.7729-5.44963 37.552-5.86255 37.3311-6.27547 37.2207-6.64518 37.2207-6.97168 37.2207-7.33659 37.3455-7.61027 37.5952-7.79272 37.8449-7.97518 38.1474-8.10482 38.5027-8.18164 38.858-8.25846 39.2229-8.29688 39.5974-8.29688 39.9719-8.29688 40.284-8.29688 40.5337-8.29688 40.7834-8.29688 41.0907-8.29688 41.4556-8.29688 41.8205-8.29688 42.1758-8.25846 42.5215-8.18164 42.8672-8.10482 43.1649-7.97518 43.4146-7.79272 43.6642-7.61027 43.7891-7.33659 43.7891-6.97168Z" fill="#F70A8D" transform="translate(511.602 479)"/><path d="M40.5049 0.806641C40.1592 1.28678 39.7367 1.6805 39.2373 1.98779 38.738 2.29508 38.181 2.44873 37.5664 2.44873 37.1055 2.44873 36.6781 2.3623 36.2844 2.18945 35.8907 2.0166 35.545 1.77653 35.2473 1.46924 34.9496 1.16195 34.7192 0.806641 34.5559 0.40332 34.3927 1.49012e-08 34.311-0.432129 34.311-0.893066 34.311-1.25798 34.3975-1.55086 34.5703-1.77173 34.7432-1.99259 35.0216-2.10303 35.4058-2.10303 35.7707-2.10303 36.0203-1.97819 36.1548-1.72852 36.2892-1.47884 36.3564-1.20036 36.3564-0.893066 36.3564-0.547363 36.4621-0.249674 36.6733 0 36.8846 0.249674 37.1727 0.374512 37.5376 0.374512 38.0369 0.374512 38.3971 0.220866 38.6179-0.0864258 38.8388-0.393717 39.0212-0.734619 39.1653-1.10913 39.3093-1.48364 39.4678-1.82935 39.6406-2.14624 39.8135-2.46313 40.1016-2.62158 40.5049-2.62158 40.7738-2.62158 40.9898-2.54956 41.1531-2.40552 41.3163-2.26147 41.4508-2.07422 41.5564-1.84375 41.662-1.61328 41.7581-1.37321 41.8445-1.12354 41.9309-0.873861 42.0413-0.633789 42.1758-0.40332 42.3102-0.172852 42.4735 0.0144043 42.6655 0.158447 42.8576 0.30249 43.1265 0.374512 43.4722 0.374512 43.9139 0.374512 44.2212 0.211263 44.394-0.115234 44.5669-0.441732 44.6533-0.797038 44.6533-1.18115 44.6533-1.48844 44.7638-1.72371 44.9846-1.88696 45.2055-2.05021 45.46-2.13184 45.748-2.13184 46.0938-2.13184 46.3386-2.007 46.4827-1.75732 46.6267-1.50765 46.6987-1.22917 46.6987-0.921875 46.6987-0.460938 46.6171-0.0288086 46.4539 0.374512 46.2906 0.777832 46.0649 1.13314 45.7769 1.44043 45.4888 1.74772 45.1431 1.98779 44.7397 2.16064 44.3364 2.3335 43.9043 2.41992 43.4434 2.41992 42.8288 2.41992 42.2718 2.27588 41.7725 1.98779 41.2731 1.69971 40.8506 1.30599 40.5049 0.806641Z" fill="#1C1C1C" transform="translate(511.602 479)"/><path d="M50.9336-43.4434 58.3374-41.4268C58.9904-39.9863 59.4849-38.4931 59.821-36.947 60.1571-35.401 60.3252-33.8405 60.3252-32.2656L60.3252-16.1904C60.3252-15.5758 60.5076-15.1437 60.8726-14.894 61.2375-14.6444 61.6984-14.4955 62.2554-14.4475 62.8123-14.3995 63.4077-14.4091 64.0415-14.4763 64.6753-14.5435 65.2707-14.5675 65.8276-14.5483 66.3846-14.5291 66.8455-14.4283 67.2104-14.2458 67.5754-14.0634 67.7578-13.7129 67.7578-13.1943 67.7578-13.0791 67.7194-12.8918 67.6426-12.6326 67.5658-12.3733 67.4793-12.0948 67.3833-11.7971 67.2873-11.4994 67.1912-11.2161 67.0952-10.9473 66.9992-10.6784 66.9224-10.4767 66.8647-10.3423L39.6406-0.316895 12.4165-10.3423C12.3589-10.4767 12.2821-10.6784 12.186-10.9473 12.09-11.2161 11.9892-11.4946 11.8835-11.7827 11.7779-12.0708 11.6915-12.3445 11.6243-12.6038 11.557-12.863 11.5234-13.0599 11.5234-13.1943 11.5234-13.7129 11.7059-14.0634 12.0708-14.2458 12.4357-14.4283 12.8918-14.5291 13.4392-14.5483 13.9866-14.5675 14.5819-14.5435 15.2253-14.4763 15.8687-14.4091 16.4641-14.3995 17.0115-14.4475 17.5588-14.4955 18.015-14.6444 18.3799-14.894 18.7448-15.1437 18.9272-15.5758 18.9272-16.1904L18.9272-32.2656C18.9272-33.8789 19.1001-35.4634 19.4458-37.019 19.7915-38.5747 20.3005-40.0824 20.9727-41.542L28.146-43.4434 35.4634-41.542C36.0972-40.14 36.5869-38.7188 36.9326-37.2783L42.291-37.2783C42.4639-38.0081 42.6703-38.7188 42.9104-39.4102 43.1505-40.1016 43.4242-40.7834 43.7314-41.4556Z" fill="#FF822D" transform="translate(634.697 481)"/><path d="M20.9438-41.5132C21.0975-41.8781 21.328-42.3294 21.6353-42.8672 21.9425-43.4049 22.2979-43.9811 22.7012-44.5957 23.1045-45.2103 23.5414-45.8201 24.012-46.425 24.4825-47.03 24.9626-47.5726 25.4524-48.0527 25.9421-48.5329 26.4271-48.9266 26.9072-49.2339 27.3874-49.5412 27.8387-49.6948 28.2612-49.6948 28.6838-49.6948 29.1351-49.5412 29.6152-49.2339 30.0954-48.9266 30.5803-48.5329 31.0701-48.0527 31.5598-47.5726 32.0304-47.03 32.4817-46.425 32.933-45.8201 33.3555-45.2103 33.7493-44.5957 34.143-43.9811 34.4887-43.4049 34.7864-42.8672 35.0841-42.3294 35.3193-41.8781 35.4922-41.5132ZM50.9912-49.6948C51.4137-49.6948 51.8699-49.5412 52.3596-49.2339 52.8494-48.9266 53.3391-48.5281 53.8289-48.0383 54.3186-47.5486 54.8035-46.9964 55.2837-46.3818 55.7638-45.7673 56.2008-45.1527 56.5945-44.5381 56.9882-43.9235 57.3387-43.3425 57.646-42.7952 57.9533-42.2478 58.1934-41.7917 58.3662-41.4268L43.7026-41.4268C43.8563-41.7917 44.0868-42.2478 44.394-42.7952 44.7013-43.3425 45.0518-43.9235 45.4456-44.5381 45.8393-45.1527 46.2666-45.7673 46.7275-46.3818 47.1885-46.9964 47.6638-47.5486 48.1536-48.0383 48.6433-48.5281 49.1283-48.9266 49.6084-49.2339 50.0885-49.5412 50.5495-49.6948 50.9912-49.6948Z" fill="#7D4533" transform="translate(634.697 481)"/><path d="M33.9365-36.5005C31.4398-35.7899 29.1735-34.6567 27.1377-33.1011 25.1019-31.5454 23.3926-29.6632 22.0098-27.4546L22.0098-32.2944C22.0098-33.5428 22.1442-34.7816 22.4131-36.0107 22.682-37.2399 23.0661-38.4259 23.5654-39.5686 24.0648-40.7113 24.6842-41.7965 25.4236-42.824 26.163-43.8515 27.0033-44.7782 27.9443-45.604 28.002-45.6616 28.0884-45.6904 28.2036-45.6904 28.3188-45.6904 28.4053-45.6616 28.4629-45.604 29.8265-44.4325 30.974-43.0592 31.9055-41.4844 32.837-39.9095 33.514-38.2482 33.9365-36.5005ZM57.2139-32.2656 57.2139-27.4834C55.8503-29.6921 54.1409-31.5694 52.0859-33.1155 50.0309-34.6615 47.755-35.7899 45.2583-36.5005 45.7-38.229 46.3818-39.8807 47.3037-41.4556 48.2256-43.0304 49.3587-44.4036 50.7031-45.5752 50.7607-45.6328 50.8472-45.6616 50.9624-45.6616 51.0776-45.6616 51.1641-45.6328 51.2217-45.5752 52.182-44.7493 53.0318-43.8275 53.7712-42.8096 54.5107-41.7917 55.1348-40.7113 55.6438-39.5686 56.1527-38.4259 56.5417-37.2351 56.8105-35.9963 57.0794-34.7576 57.2139-33.514 57.2139-32.2656Z" fill="#FF6723" transform="translate(634.697 481)"/><path d="M66.8647-10.3711C65.77-7.54785 64.3056-4.98869 62.4714-2.6936 60.6373-0.398519 58.5295 1.56047 56.1479 3.18335 53.7664 4.80623 51.1689 6.05941 48.3552 6.94287 45.5416 7.82633 42.6271 8.26807 39.6118 8.26807 36.5773 8.26807 33.658 7.82633 30.854 6.94287 28.05 6.05941 25.4572 4.80623 23.0757 3.18335 20.6942 1.56047 18.5863-0.398519 16.7522-2.6936 14.918-4.98869 13.4632-7.54785 12.3877-10.3711L25.7837-10.3711C27.2817-10.3711 28.6309-10.2174 29.8313-9.91016 31.0317-9.60286 32.1648-9.18514 33.2307-8.65698 34.2966-8.12882 35.3433-7.50464 36.3708-6.78442 37.3984-6.06421 38.4883-5.29118 39.6406-4.46533 40.793-5.29118 41.8829-6.06421 42.9104-6.78442 43.9379-7.50464 44.9846-8.12882 46.0505-8.65698 47.1165-9.18514 48.2496-9.60286 49.45-9.91016 50.6503-10.2174 51.9995-10.3711 53.4976-10.3711L66.8647-10.3711Z" fill="#FFDEA7" transform="translate(634.697 481)"/><path d="M30.1626-16.5649C30.1626-17.1219 30.3643-17.6069 30.7676-18.0198 31.1709-18.4327 31.651-18.6392 32.208-18.6392 32.7842-18.6392 33.2739-18.4375 33.6772-18.0342 34.0806-17.6309 34.2822-17.1411 34.2822-16.5649L34.2822-14.4907C34.2822-13.9338 34.0758-13.4488 33.6628-13.0359 33.2499-12.623 32.765-12.4165 32.208-12.4165 31.651-12.4165 31.1709-12.623 30.7676-13.0359 30.3643-13.4488 30.1626-13.9338 30.1626-14.4907ZM44.6533-16.5649C44.6533-17.1411 44.855-17.6309 45.2583-18.0342 45.6616-18.4375 46.1514-18.6392 46.7275-18.6392 47.2845-18.6392 47.7646-18.4327 48.168-18.0198 48.5713-17.6069 48.7729-17.1219 48.7729-16.5649L48.7729-14.4907C48.7729-13.9338 48.5713-13.4488 48.168-13.0359 47.7646-12.623 47.2845-12.4165 46.7275-12.4165 46.1706-12.4165 45.6856-12.623 45.2727-13.0359 44.8598-13.4488 44.6533-13.9338 44.6533-14.4907ZM39.6406-0.777832C40.2168 0.105632 40.9706 0.801839 41.9021 1.31079 42.8336 1.81974 43.8275 2.07422 44.8838 2.07422 45.1719 2.07422 45.4167 1.97339 45.6184 1.77173 45.8201 1.57007 45.9209 1.3252 45.9209 1.03711 45.9209 0.749023 45.8201 0.50415 45.6184 0.30249 45.4167 0.10083 45.1719 0 44.8838 0 44.3076 0 43.7603-0.110433 43.2417-0.331299 42.7231-0.552165 42.2718-0.854655 41.8877-1.23877 41.5036-1.62288 41.2011-2.07422 40.9802-2.59277 40.7594-3.11133 40.6489-3.65869 40.6489-4.23486 40.6489-4.40771 40.6105-4.56136 40.5337-4.6958 40.6681-4.77262 40.793-4.86865 40.9082-4.98389L43.2417-7.31738C43.5874-7.66309 43.7603-8.07601 43.7603-8.55615 43.7603-9.0555 43.5874-9.48283 43.2417-9.83813 42.896-10.1934 42.4735-10.3711 41.9741-10.3711L37.3071-10.3711C36.8078-10.3711 36.3756-10.1982 36.0107-9.85254 35.6458-9.50684 35.4634-9.08431 35.4634-8.58496 35.4634-8.10482 35.6458-7.68229 36.0107-7.31738 36.4525-6.87565 36.8846-6.41951 37.3071-5.94897 37.7297-5.47843 38.1906-5.06071 38.6899-4.6958 38.6515-4.61898 38.6227-4.54696 38.6035-4.47974 38.5843-4.41252 38.5747-4.33089 38.5747-4.23486 38.5747-3.65869 38.4643-3.11133 38.2434-2.59277 38.0225-2.07422 37.7201-1.62288 37.3359-1.23877 36.9518-0.854655 36.5005-0.552165 35.9819-0.331299 35.4634-0.110433 34.916 0 34.3398 0 34.0518 0 33.8117 0.10083 33.6196 0.30249 33.4276 0.50415 33.3315 0.749023 33.3315 1.03711 33.3315 1.3252 33.4276 1.57007 33.6196 1.77173 33.8117 1.97339 34.0518 2.07422 34.3398 2.07422 35.4154 2.07422 36.4189 1.81974 37.3503 1.31079 38.2818 0.801839 39.0452 0.105632 39.6406-0.777832Z" fill="#212121" transform="translate(634.697 481)"/><path d="M35.0312-31.7759C35.9531-32.1408 36.8846-32.4241 37.8257-32.6257 38.7668-32.8274 39.7271-32.9282 40.7065-32.9282 42.5119-32.9282 44.25-32.6113 45.9209-31.9775 45.8825-32.2656 45.8537-32.5537 45.8345-32.8418 45.8153-33.1299 45.8057-33.418 45.8057-33.7061 45.8057-35.3385 46.1178-36.875 46.7419-38.3154 47.3661-39.7559 48.2112-41.009 49.2771-42.075 50.343-43.1409 51.5962-43.9859 53.0366-44.6101 54.4771-45.2343 56.0135-45.5464 57.646-45.5464 59.2785-45.5464 60.8149-45.2343 62.2554-44.6101 63.6958-43.9859 64.949-43.1409 66.0149-42.075 67.0808-41.009 67.9259-39.7559 68.55-38.3154 69.1742-36.875 69.4863-35.3385 69.4863-33.7061 69.4863-32.1888 69.2126-30.7484 68.6653-29.3848 68.1179-28.0212 67.3641-26.8112 66.4038-25.7549 65.4435-24.6986 64.3152-23.8295 63.0188-23.1477 61.7224-22.4659 60.3156-22.0578 58.7983-21.9233 59.5089-21.0015 60.2484-19.9403 61.0166-18.74 61.7848-17.5396 62.481-16.2913 63.1052-14.9949 63.7294-13.6985 64.2432-12.3829 64.6465-11.0481 65.0498-9.7133 65.2515-8.44092 65.2515-7.23096 65.2515-5.52165 65.0066-3.93237 64.5168-2.46313 64.0271-0.993896 63.3261 0.340902 62.4138 1.54126 61.5015 2.74162 60.4116 3.79793 59.144 4.71021 57.8765 5.62248 56.4648 6.3763 54.9092 6.97168 53.9873 7.33659 53.027 7.62467 52.0283 7.83594 51.0296 8.0472 50.0309 8.15283 49.0322 8.15283 47.8607 8.15283 46.8044 8.0568 45.8633 7.86475 44.9222 7.67269 43.9235 7.33659 42.8672 6.85645 42.4831 6.68359 42.1374 6.52995 41.8301 6.39551 41.5228 6.26107 41.1483 6.19385 40.7065 6.19385 40.3224 6.19385 39.9575 6.25146 39.6118 6.3667 39.2661 6.48193 38.9204 6.60677 38.5747 6.74121 37.1727 7.25977 35.8235 7.62467 34.5271 7.83594 33.2307 8.0472 31.8335 8.15283 30.3354 8.15283 29.3944 8.15283 28.4725 8.0328 27.5698 7.79272 26.6672 7.55265 25.7837 7.23096 24.9194 6.82764 23.5558 6.17464 22.3123 5.3632 21.1887 4.39331 20.0652 3.42342 19.1001 2.3335 18.2935 1.12354 17.4868-0.0864258 16.8578-1.39722 16.4065-2.80884 15.9552-4.22046 15.7295-5.6945 15.7295-7.23096 15.7295-8.44092 15.9408-9.7181 16.3633-11.0625 16.7858-12.4069 17.3284-13.7273 17.991-15.0237 18.6536-16.3201 19.3882-17.5588 20.1948-18.74 21.0015-19.9211 21.7793-20.9727 22.5283-21.8945 20.9727-22.0098 19.5274-22.3939 18.1926-23.0469 16.8578-23.6999 15.6959-24.5593 14.7068-25.6252 13.7177-26.6912 12.9399-27.9155 12.3733-29.2983 11.8067-30.6812 11.5234-32.1504 11.5234-33.7061 11.5234-35.3385 11.8355-36.875 12.4597-38.3154 13.0839-39.7559 13.929-41.009 14.9949-42.075 16.0608-43.1409 17.314-43.9859 18.7544-44.6101 20.1948-45.2343 21.7313-45.5464 23.3638-45.5464 24.9963-45.5464 26.5327-45.2343 27.9731-44.6101 29.4136-43.9859 30.6667-43.1409 31.7327-42.075 32.7986-41.009 33.6436-39.7559 34.2678-38.3154 34.892-36.875 35.2041-35.3385 35.2041-33.7061 35.2041-33.0531 35.1465-32.4097 35.0312-31.7759Z" fill="#F3AD61" transform="translate(707.519 480)"/><path d="M21.5776-25.1211C20.3677-25.1211 19.2249-25.3516 18.1494-25.8125 17.0739-26.2734 16.1328-26.9024 15.3262-27.6995 14.5195-28.4965 13.8857-29.4328 13.4248-30.5083 12.9639-31.5838 12.7334-32.7266 12.7334-33.9365 12.7334-35.1465 12.9639-36.2892 13.4248-37.3647 13.8857-38.4403 14.5195-39.3813 15.3262-40.188 16.1328-40.9946 17.0739-41.6284 18.1494-42.0894 19.2249-42.5503 20.3677-42.7808 21.5776-42.7808 22.7876-42.7808 23.9303-42.5503 25.0059-42.0894 26.0814-41.6284 27.0225-40.9946 27.8291-40.188 28.6357-39.3813 29.2695-38.4403 29.7305-37.3647 30.1914-36.2892 30.4219-35.1465 30.4219-33.9365 30.4219-32.7266 30.1914-31.5838 29.7305-30.5083 29.2695-29.4328 28.6357-28.4965 27.8291-27.6995 27.0225-26.9024 26.0814-26.2734 25.0059-25.8125 23.9303-25.3516 22.7876-25.1211 21.5776-25.1211ZM59.3745-25.1211C58.1645-25.1211 57.0218-25.3516 55.9463-25.8125 54.8708-26.2734 53.9297-26.9024 53.123-27.6995 52.3164-28.4965 51.6826-29.4328 51.2217-30.5083 50.7607-31.5838 50.5303-32.7266 50.5303-33.9365 50.5303-35.1657 50.7607-36.318 51.2217-37.3936 51.6826-38.4691 52.3116-39.4054 53.1086-40.2024 53.9057-40.9994 54.842-41.6284 55.9175-42.0894 56.993-42.5503 58.1453-42.7808 59.3745-42.7808 60.5845-42.7808 61.7272-42.5503 62.8027-42.0894 63.8783-41.6284 64.8145-40.9946 65.6116-40.188 66.4086-39.3813 67.0376-38.4403 67.4985-37.3647 67.9595-36.2892 68.1899-35.1465 68.1899-33.9365 68.1899-32.7266 67.9595-31.5838 67.4985-30.5083 67.0376-29.4328 66.4086-28.4965 65.6116-27.6995 64.8145-26.9024 63.8783-26.2734 62.8027-25.8125 61.7272-25.3516 60.5845-25.1211 59.3745-25.1211Z" fill="#FF8687" transform="translate(707.519 480)"/><path d="M32.208-16.6226C32.765-16.6226 33.2499-16.4209 33.6628-16.0176 34.0758-15.6143 34.2822-15.1341 34.2822-14.5771L34.2822-12.5029C34.2822-11.9268 34.0806-11.437 33.6772-11.0337 33.2739-10.6304 32.7842-10.4287 32.208-10.4287 31.651-10.4287 31.1709-10.6352 30.7676-11.0481 30.3643-11.461 30.1626-11.946 30.1626-12.5029L30.1626-14.5771C30.1626-15.1341 30.3643-15.6143 30.7676-16.0176 31.1709-16.4209 31.651-16.6226 32.208-16.6226ZM48.7729-16.6226C49.3299-16.6226 49.8149-16.4209 50.2278-16.0176 50.6407-15.6143 50.8472-15.1341 50.8472-14.5771L50.8472-12.5029C50.8472-11.9268 50.6455-11.437 50.2422-11.0337 49.8389-10.6304 49.3491-10.4287 48.7729-10.4287 48.216-10.4287 47.7358-10.6352 47.3325-11.0481 46.9292-11.461 46.7275-11.946 46.7275-12.5029L46.7275-14.5771C46.7275-15.1341 46.9292-15.6143 47.3325-16.0176 47.7358-16.4209 48.216-16.6226 48.7729-16.6226Z" fill="#1C1C1C" transform="translate(707.519 480)"/><path d="M43.7891-6.97168C43.7891-6.68359 43.6738-6.33789 43.4434-5.93457 43.2129-5.53125 42.9344-5.14233 42.6079-4.76782 42.2814-4.39331 41.9309-4.07642 41.5564-3.81714 41.1819-3.55786 40.841-3.42822 40.5337-3.42822 40.188-3.42822 39.8231-3.54826 39.439-3.78833 39.0548-4.0284 38.6995-4.33089 38.373-4.6958 38.0465-5.06071 37.7729-5.44963 37.552-5.86255 37.3311-6.27547 37.2207-6.64518 37.2207-6.97168 37.2207-7.33659 37.3455-7.61027 37.5952-7.79272 37.8449-7.97518 38.1474-8.10482 38.5027-8.18164 38.858-8.25846 39.2229-8.29688 39.5974-8.29688 39.9719-8.29688 40.284-8.29688 40.5337-8.29688 40.7834-8.29688 41.0907-8.29688 41.4556-8.29688 41.8205-8.29688 42.1758-8.25846 42.5215-8.18164 42.8672-8.10482 43.1649-7.97518 43.4146-7.79272 43.6642-7.61027 43.7891-7.33659 43.7891-6.97168Z" fill="#F70A8D" transform="translate(707.519 480)"/><path d="M40.5049 0.806641C40.1592 1.28678 39.7367 1.6805 39.2373 1.98779 38.738 2.29508 38.181 2.44873 37.5664 2.44873 37.1055 2.44873 36.6781 2.3623 36.2844 2.18945 35.8907 2.0166 35.545 1.77653 35.2473 1.46924 34.9496 1.16195 34.7192 0.806641 34.5559 0.40332 34.3927 1.49012e-08 34.311-0.432129 34.311-0.893066 34.311-1.25798 34.3975-1.55086 34.5703-1.77173 34.7432-1.99259 35.0216-2.10303 35.4058-2.10303 35.7707-2.10303 36.0203-1.97819 36.1548-1.72852 36.2892-1.47884 36.3564-1.20036 36.3564-0.893066 36.3564-0.547363 36.4621-0.249674 36.6733 0 36.8846 0.249674 37.1727 0.374512 37.5376 0.374512 38.0369 0.374512 38.3971 0.220866 38.6179-0.0864258 38.8388-0.393717 39.0212-0.734619 39.1653-1.10913 39.3093-1.48364 39.4678-1.82935 39.6406-2.14624 39.8135-2.46313 40.1016-2.62158 40.5049-2.62158 40.7738-2.62158 40.9898-2.54956 41.1531-2.40552 41.3163-2.26147 41.4508-2.07422 41.5564-1.84375 41.662-1.61328 41.7581-1.37321 41.8445-1.12354 41.9309-0.873861 42.0413-0.633789 42.1758-0.40332 42.3102-0.172852 42.4735 0.0144043 42.6655 0.158447 42.8576 0.30249 43.1265 0.374512 43.4722 0.374512 43.9139 0.374512 44.2212 0.211263 44.394-0.115234 44.5669-0.441732 44.6533-0.797038 44.6533-1.18115 44.6533-1.48844 44.7638-1.72371 44.9846-1.88696 45.2055-2.05021 45.46-2.13184 45.748-2.13184 46.0938-2.13184 46.3386-2.007 46.4827-1.75732 46.6267-1.50765 46.6987-1.22917 46.6987-0.921875 46.6987-0.460938 46.6171-0.0288086 46.4539 0.374512 46.2906 0.777832 46.0649 1.13314 45.7769 1.44043 45.4888 1.74772 45.1431 1.98779 44.7397 2.16064 44.3364 2.3335 43.9043 2.41992 43.4434 2.41992 42.8288 2.41992 42.2718 2.27588 41.7725 1.98779 41.2731 1.69971 40.8506 1.30599 40.5049 0.806641Z" fill="#1C1C1C" transform="translate(707.519 480)"/></g></svg>