<?xml version="1.0" encoding="UTF-8" standalone="no"?>
<svg
   xmlns:dc="http://purl.org/dc/elements/1.1/"
   xmlns:cc="http://creativecommons.org/ns#"
   xmlns:rdf="http://www.w3.org/1999/02/22-rdf-syntax-ns#"
   xmlns:svg="http://www.w3.org/2000/svg"
   xmlns="http://www.w3.org/2000/svg"
   xmlns:sodipodi="http://sodipodi.sourceforge.net/DTD/sodipodi-0.dtd"
   xmlns:inkscape="http://www.inkscape.org/namespaces/inkscape"
   width="1280"
   height="420"
   overflow="hidden"
   version="1.1"
   id="svg187"
   sodipodi:docname="probability-introduction_to_probability-set_notations.svg"
   inkscape:version="1.0.1 (3bc2e813f5, 2020-09-07)">
  <metadata
     id="metadata191">
    <rdf:RDF>
      <cc:Work
         rdf:about="">
        <dc:format>image/svg+xml</dc:format>
        <dc:type
           rdf:resource="http://purl.org/dc/dcmitype/StillImage" />
        <dc:title></dc:title>
      </cc:Work>
    </rdf:RDF>
  </metadata>
  <sodipodi:namedview
     pagecolor="#ffffff"
     bordercolor="#666666"
     borderopacity="1"
     objecttolerance="10"
     gridtolerance="10"
     guidetolerance="10"
     inkscape:pageopacity="0"
     inkscape:pageshadow="2"
     inkscape:window-width="1280"
     inkscape:window-height="650"
     id="namedview189"
     showgrid="false"
     borderlayer="true"
     inkscape:pagecheckerboard="true"
     inkscape:lockguides="false"
     showguides="true"
     inkscape:guide-bbox="true"
     inkscape:zoom="0.66944444"
     inkscape:cx="640"
     inkscape:cy="120.99585"
     inkscape:window-x="-6"
     inkscape:window-y="-6"
     inkscape:window-maximized="1"
     inkscape:current-layer="g185">
    <sodipodi:guide
       position="578.09129,387.13693"
       orientation="1,0"
       id="guide204" />
    <sodipodi:guide
       position="29.875519,358.75519"
       orientation="0,-1"
       id="guide206" />
  </sodipodi:namedview>
  <defs
     id="defs5">
    <clipPath
       id="clip0">
      <rect
         x="0"
         y="0"
         width="1280"
         height="720"
         id="rect2" />
    </clipPath>
  </defs>
  <g
     clip-path="url(#clip0)"
     id="g185"
     transform="translate(2.9875519,-82.157676)">
    <text
       font-family="Calibri, Calibri_MSFontService, sans-serif"
       font-weight="400"
       font-size="88px"
       transform="translate(127.955,323)"
       id="text15">{ <tspan
   font-size="88px"
   x="172.5"
   y="0"
   id="tspan9">}</tspan><tspan
   font-weight="700"
   font-size="64px"
   x="-107.269"
   y="-5"
   id="tspan11">M</tspan><tspan
   font-size="64px"
   x="-44.102001"
   y="-5"
   id="tspan13">=</tspan></text>
    <path
       d="m 14.0522,-31.624 c 0,-1.0352 0.1941,-2.0056 0.5823,-2.9114 0.3882,-0.9058 0.9187,-1.6951 1.5916,-2.3679 0.6728,-0.6729 1.4621,-1.2034 2.3679,-1.5916 0.9058,-0.3882 1.8762,-0.5822 2.9114,-0.5822 h 29.7607 c 1.0352,0 2.0013,0.194 2.8985,0.5822 0.8971,0.3882 1.6821,0.9187 2.3549,1.5916 0.6729,0.6728 1.2034,1.4621 1.5916,2.3679 0.3882,0.9058 0.5823,1.8762 0.5823,2.9114 v 26.03416 c 0,1.03515 -0.1941,2.00561 -0.5823,2.91137 -0.3882,0.90576 -0.9187,1.695072 -1.5916,2.367923 -0.6728,0.672852 -1.4578,1.203369 -2.3549,1.591557 -0.8972,0.38818 -1.8633,0.58227 -2.8985,0.58227 H 21.5054 c -1.0352,0 -2.0056,-0.19409 -2.9114,-0.58227 C 17.6882,0.892822 16.8989,0.362305 16.2261,-0.310547 15.5532,-0.983398 15.0227,-1.77271 14.6345,-2.67847 14.2463,-3.58423 14.0522,-4.55469 14.0522,-5.58984 Z"
       fill="#f3c07b"
       transform="translate(150.238,318)"
       id="path17" />
    <path
       d="m 51.3696,-7.73779 c 0,0.93164 -0.1768,1.86759 -0.5305,2.80786 -0.3537,0.94027 -0.7634,1.79858 -1.2292,2.57495 -0.6729,1.13867 -1.4795,2.212646 -2.4197,3.221923 -0.9403,1.009277 -1.9754,1.889157 -3.1055,2.639647 -1.13,0.75049 -2.3377,1.34139 -3.623,1.77271 -1.2854,0.43131 -2.6095,0.64697 -3.9724,0.64697 -1.156,0 -2.3335,-0.16821 -3.5325,-0.50464 C 31.7577,5.08521 30.6061,4.61507 29.502,4.01123 28.3978,3.40739 27.3583,2.68278 26.3835,1.8374 25.4088,0.992025 24.5591,0.0646972 23.8345,-0.94458 c -0.7246,-1.00928 -1.294,-2.08757 -1.708,-3.23486 -0.4141,-1.1473 -0.6211,-2.33342 -0.6211,-3.55835 0,-1.39746 0.207,-2.63961 0.6211,-3.72661 0.414,-1.0869 0.979,-2.0314 1.695,-2.8337 0.716,-0.8022 1.5614,-1.4837 2.5362,-2.0444 0.9747,-0.5607 2.0142,-1.0093 3.1184,-1.3457 1.1041,-0.3365 2.2557,-0.5823 3.4548,-0.7376 1.1991,-0.1553 2.3852,-0.2329 3.5584,-0.2329 1.1559,0 2.3291,0.0776 3.5195,0.2329 1.1904,0.1553 2.3377,0.4098 3.4419,0.7634 1.1041,0.3537 2.135,0.8109 3.0925,1.3716 0.9575,0.5607 1.7943,1.2465 2.5103,2.0574 0.7159,0.8109 1.281,1.7511 1.695,2.8208 0.4141,1.0697 0.6211,2.2946 0.6211,3.67481 z"
       fill="#ffdea7"
       transform="translate(150.238,318)"
       id="path19" />
    <path
       d="m 30.7959,-2.51025 5.5898,-4.16651 5.5899,4.16651 v 4.37353 c 0,0.77637 -0.1467,1.50098 -0.44,2.17383 -0.2933,0.67285 -0.6944,1.25944 -1.2033,1.75977 -0.509,0.50032 -1.0999,0.89713 -1.7727,1.19042 -0.6729,0.2933 -1.3975,0.43995 -2.1739,0.43995 -0.7763,0 -1.5009,-0.14665 -2.1738,-0.43995 C 33.5391,6.69401 32.9482,6.2972 32.4392,5.79688 31.9303,5.29655 31.5291,4.70996 31.2358,4.03711 30.9425,3.36426 30.7959,2.63965 30.7959,1.86328 Z"
       fill="#ca0b4a"
       transform="translate(150.238,318)"
       id="path21" />
    <path
       d="m 12.9653,-16.9507 c -0.3278,0 -0.634,-0.0604 -0.9187,-0.1811 -0.2846,-0.1208 -0.5305,-0.2847 -0.7375,-0.4917 -0.207,-0.2071 -0.3709,-0.4529 -0.4917,-0.7376 -0.1208,-0.2847 -0.1812,-0.5909 -0.1812,-0.9187 v -13.0947 c 0,-1.1559 0.22,-2.2428 0.6599,-3.2608 0.44,-1.0179 1.0395,-1.9064 1.7986,-2.6655 0.7591,-0.7591 1.6433,-1.3586 2.6526,-1.7986 1.0093,-0.4399 2.0919,-0.6599 3.2478,-0.6599 h 7.5308 c 0.6556,0 1.212,0.2286 1.6692,0.6858 0.4572,0.4572 0.6858,1.0136 0.6858,1.6692 0,0.4831 -0.1467,0.923 -0.44,1.3198 l -13.5864,19.1504 c -0.4658,0.6556 -1.0955,0.9834 -1.8892,0.9834 z m 46.7632,0 c 0.6556,0 1.212,-0.2243 1.6692,-0.6728 0.4572,-0.4486 0.6858,-1.0007 0.6858,-1.6563 v -13.0947 c 0,-1.1559 -0.22,-2.2428 -0.6599,-3.2608 -0.44,-1.0179 -1.0395,-1.9064 -1.7986,-2.6655 -0.7591,-0.7591 -1.6476,-1.3586 -2.6655,-1.7986 -1.0179,-0.4399 -2.1048,-0.6599 -3.2608,-0.6599 H 46.168 c -0.6556,0 -1.2077,0.2286 -1.6563,0.6858 -0.4486,0.4572 -0.6728,1.005 -0.6728,1.6433 0,0.5004 0.1466,0.9489 0.4399,1.3457 l 13.5864,19.1504 c 0.4659,0.6556 1.0869,0.9834 1.8633,0.9834 z"
       fill="#6d4534"
       transform="translate(150.238,318)"
       id="path23" />
    <path
       d="m 28.9326,-24.1968 c 0,-0.5003 0.1855,-0.9316 0.5564,-1.2939 0.3709,-0.3623 0.8066,-0.5435 1.3069,-0.5435 0.5003,0 0.936,0.1812 1.3069,0.5435 0.3709,0.3623 0.5564,0.7936 0.5564,1.2939 v 1.8633 c 0,0.5176 -0.1812,0.9575 -0.5435,1.3198 -0.3623,0.3623 -0.8022,0.5435 -1.3198,0.5435 -0.5003,0 -0.936,-0.1855 -1.3069,-0.5564 -0.3709,-0.3709 -0.5564,-0.8066 -0.5564,-1.3069 z m 11.1797,0 c 0,-0.5003 0.1855,-0.9316 0.5564,-1.2939 0.3709,-0.3623 0.8066,-0.5435 1.3069,-0.5435 0.5003,0 0.9316,0.1812 1.2939,0.5435 0.3623,0.3623 0.5435,0.7936 0.5435,1.2939 v 1.8633 c 0,0.5003 -0.1812,0.936 -0.5435,1.3069 -0.3623,0.3709 -0.7936,0.5564 -1.2939,0.5564 -0.5176,0 -0.9575,-0.1812 -1.3198,-0.5435 -0.3623,-0.3623 -0.5435,-0.8022 -0.5435,-1.3198 z m -1.6045,7.4531 h -4.2959 c -0.2243,0 -0.4313,0.0518 -0.6211,0.1553 -0.1898,0.1035 -0.3537,0.2372 -0.4917,0.4011 -0.138,0.1639 -0.2458,0.3451 -0.3235,0.5435 -0.0776,0.1984 -0.1164,0.4011 -0.1164,0.6082 0,0.3278 0.138,0.6944 0.414,1.0998 0.2761,0.4054 0.6125,0.7893 1.0093,1.1516 0.3968,0.3623 0.8109,0.6642 1.2422,0.9058 0.4313,0.2415 0.8023,0.3623 1.1128,0.3623 0.3278,0 0.703,-0.1251 1.1257,-0.3753 0.4227,-0.2501 0.8238,-0.5564 1.2034,-0.9187 0.3796,-0.3623 0.6987,-0.7504 0.9575,-1.1645 0.2588,-0.4141 0.3882,-0.785 0.3882,-1.1128 0,-0.4141 -0.1639,-0.7936 -0.4917,-1.1387 -0.3278,-0.345 -0.6987,-0.5176 -1.1128,-0.5176 z m -2.1479,5.6158 c -0.4486,0 -0.7117,0.1466 -0.7893,0.4399 -0.0777,0.2933 -0.1165,0.6039 -0.1165,0.93165 0,0.72461 -0.1423,1.44491 -0.427,2.16089 -0.2847,0.71598 -0.6772,1.35864 -1.1775,1.92798 -0.5003,0.56934 -1.0869,1.03084 -1.7598,1.38452 -0.6728,0.35368 -1.3888,0.53052 -2.1479,0.53052 -0.2588,0 -0.4788,0.09057 -0.6599,0.27173 -0.1812,0.18115 -0.2717,0.40112 -0.2717,0.65991 0,0.25879 0.0905,0.47876 0.2717,0.65991 0.1811,0.18115 0.4011,0.27173 0.6599,0.27173 0.6728,0 1.3284,-0.10783 1.9668,-0.32349 0.6383,-0.21565 1.2379,-0.50895 1.7986,-0.87988 0.5607,-0.37093 1.0696,-0.81087 1.5268,-1.31982 0.4572,-0.50896 0.8411,-1.05673 1.1516,-1.64331 0.2933,0.58658 0.6686,1.13435 1.1258,1.64331 0.4572,0.50895 0.9661,0.94889 1.5268,1.31982 0.5607,0.37093 1.1603,0.66423 1.7986,0.87988 0.6384,0.21566 1.294,0.32349 1.9668,0.32349 0.2588,0 0.4788,-0.09058 0.6599,-0.27173 0.1812,-0.18115 0.2718,-0.40112 0.2718,-0.65991 0,-0.25879 -0.0906,-0.47876 -0.2718,-0.65991 -0.1811,-0.18116 -0.4011,-0.27173 -0.6599,-0.27173 -0.7936,0 -1.5182,-0.17253 -2.1738,-0.51758 -0.6556,-0.34505 -1.225,-0.80225 -1.708,-1.37158 -0.4831,-0.56934 -0.867,-1.212 -1.1516,-1.92798 -0.2847,-0.71598 -0.4357,-1.44491 -0.4529,-2.18677 -0.0173,-0.34505 -0.069,-0.65995 -0.1553,-0.94455 -0.0863,-0.2847 -0.3537,-0.427 -0.8022,-0.427 z"
       fill="#212121"
       transform="translate(150.238,318)"
       id="path25" />
    <text
       fill="#333333"
       font-family="'Segoe UI Emoji', 'Segoe UI Emoji_MSFontService', sans-serif"
       font-weight="400"
       font-size="53px"
       transform="translate(223.405,318)"
       id="text27">,</text>
    <path
       d="m 14.0522,-36.4116 c 0,-0.7764 0.2675,-1.4104 0.8023,-1.9021 0.5348,-0.4917 1.1818,-0.7376 1.9409,-0.7376 0.7246,0 1.363,0.2588 1.915,0.7764 l 8.6695,8.5142 h 18.2446 l 8.4624,-8.5142 c 0.5176,-0.5176 1.1473,-0.7764 1.8892,-0.7764 0.7591,0 1.4017,0.2502 1.928,0.7505 0.5262,0.5003 0.7893,1.1301 0.7893,1.8892 v 36.101053 c 0,1.000651 -0.1855,1.966797 -0.5564,2.898437 -0.371,0.93164 -0.8799,1.75545 -1.5269,2.47144 -0.647,0.71598 -1.4147,1.28963 -2.3032,1.72094 -0.8885,0.43132 -1.8504,0.64698 -2.8855,0.64698 H 21.3501 c -1.0352,0 -1.997,-0.20272 -2.8855,-0.60816 C 17.5761,6.41366 16.804,5.86588 16.1484,5.17578 15.4928,4.48568 14.9796,3.68774 14.6086,2.78198 14.2377,1.87622 14.0522,0.914388 14.0522,-0.103516 Z"
       fill="#ffb02e"
       transform="translate(234.905,318)"
       id="path29" />
    <path
       d="m 17.1577,-22.7993 c -0.414,0 -0.785,-0.1467 -1.1128,-0.44 -0.3278,-0.2933 -0.4917,-0.6556 -0.4917,-1.0869 v -9.6787 c 0,-0.3968 0.1725,-0.7203 0.5176,-0.9704 0.3451,-0.2502 0.6987,-0.3753 1.061,-0.3753 0.3796,0 0.7246,0.138 1.0352,0.4141 l 5.2017,4.8393 c 0.138,0.1208 0.2415,0.2761 0.3105,0.4659 0.069,0.1897 0.1035,0.3795 0.1035,0.5693 0,0.1898 -0.0345,0.3709 -0.1035,0.5434 -0.069,0.1726 -0.1725,0.3278 -0.3105,0.4659 l -5.2017,4.8393 c -0.3106,0.2761 -0.647,0.4141 -1.0093,0.4141 z m 38.5596,0 c 0.414,0 0.785,-0.1467 1.1128,-0.44 0.3278,-0.2933 0.4917,-0.6556 0.4917,-1.0869 v -9.6787 c 0,-0.3968 -0.1725,-0.7203 -0.5176,-0.9704 -0.3451,-0.2502 -0.6987,-0.3753 -1.061,-0.3753 -0.3796,0 -0.7246,0.138 -1.0352,0.4141 l -5.2017,4.8393 c -0.2932,0.2588 -0.4399,0.6039 -0.4399,1.0352 0,0.1898 0.0388,0.3709 0.1165,0.5434 0.0776,0.1726 0.1854,0.3278 0.3234,0.4659 l 5.2017,4.8393 c 0.3106,0.2761 0.647,0.4141 1.0093,0.4141 z"
       fill="#ff822d"
       transform="translate(234.905,318)"
       id="path31" />
    <path
       d="m 38.3267,-11.1538 c 0.2587,0 0.4787,0.0906 0.6599,0.2717 0.1811,0.1812 0.2717,0.4011 0.2717,0.6599 0,0.24157 -0.0949,0.45723 -0.2847,0.647 l -1.9409,1.94092 c -0.1898,0.18978 -0.4054,0.28467 -0.647,0.28467 -0.2415,0 -0.4572,-0.09489 -0.6469,-0.28467 L 33.7979,-9.5752 c -0.1898,-0.18977 -0.2847,-0.40543 -0.2847,-0.647 0,-0.2588 0.0906,-0.4787 0.2717,-0.6599 0.1812,-0.1811 0.4011,-0.2717 0.6599,-0.2717 z"
       fill="#f70a8d"
       transform="translate(234.905,318)"
       id="path33" />
    <path
       d="m 11.2832,-11.1797 c 0.0863,0 0.1596,0.0086 0.22,0.0259 0.0604,0.0172 0.1251,0.0431 0.1941,0.0776 l 7.4272,3.72659 c 0.3451,0.17253 0.5176,0.44857 0.5176,0.82813 0,0.24153 -0.0906,0.45719 -0.2717,0.64697 -0.1812,0.18978 -0.4012,0.28467 -0.66,0.28467 -0.1552,0 -0.2932,-0.03451 -0.414,-0.10352 l -7.4273,-3.70068 c -0.345,-0.17253 -0.5175,-0.44857 -0.5175,-0.82816 0,-0.276 0.0905,-0.5046 0.2717,-0.6858 0.1811,-0.1811 0.4011,-0.2717 0.6599,-0.2717 z M 11.2573,1.86328 c -0.2588,0 -0.4744,-0.09489 -0.6469,-0.28467 -0.1726,-0.18978 -0.2588,-0.41406 -0.2588,-0.672848 0,-0.362305 0.1725,-0.62972 0.5175,-0.802246 l 7.4273,-3.726566 c 0.1208,-0.06901 0.2588,-0.10351 0.414,-0.10351 0.2588,0 0.4788,0.09489 0.66,0.28467 0.1811,0.18977 0.2717,0.40543 0.2717,0.64697 0,0.37956 -0.1725,0.6556 -0.5176,0.82812 l -7.4272,3.72657 c -0.1208,0.06901 -0.2675,0.10351 -0.44,0.10351 z m 50.231,-13.04298 c 0.2588,0 0.4787,0.0906 0.6599,0.2717 0.1811,0.1812 0.2717,0.4098 0.2717,0.6858 0,0.37959 -0.1725,0.65563 -0.5176,0.82816 l -7.4272,3.70068 c -0.1208,0.06901 -0.2674,0.10352 -0.4399,0.10352 -0.2416,0 -0.4529,-0.09058 -0.6341,-0.27173 -0.1811,-0.18115 -0.2717,-0.40112 -0.2717,-0.65991 0,-0.37956 0.1725,-0.6556 0.5176,-0.82813 l 7.4272,-3.72659 c 0.069,-0.0345 0.1337,-0.0604 0.1941,-0.0776 0.0604,-0.0173 0.1337,-0.0259 0.22,-0.0259 z m 0.0259,13.04298 c -0.1726,0 -0.3192,-0.0345 -0.44,-0.10351 L 53.647,-1.9668 c -0.3451,-0.17252 -0.5176,-0.44856 -0.5176,-0.82812 0,-0.24154 0.0906,-0.4572 0.2717,-0.64697 0.1812,-0.18978 0.3925,-0.28467 0.6341,-0.28467 0.1725,0 0.3191,0.0345 0.4399,0.10351 l 7.4272,3.726566 c 0.3451,0.172526 0.5176,0.439941 0.5176,0.802246 0,0.258788 -0.0862,0.483068 -0.2588,0.672848 -0.1725,0.18978 -0.3882,0.28467 -0.6469,0.28467 z"
       fill="#ff6723"
       transform="translate(234.905,318)"
       id="path35" />
    <path
       d="m 28.9326,-16.7437 c 0.5176,0 0.9575,0.1812 1.3198,0.5435 0.3623,0.3623 0.5435,0.8023 0.5435,1.3198 v 1.8633 c 0,0.5003 -0.1855,0.936 -0.5564,1.3069 -0.3709,0.3709 -0.8066,0.5564 -1.3069,0.5564 -0.5003,0 -0.9316,-0.1855 -1.2939,-0.5564 -0.3623,-0.3709 -0.5435,-0.8066 -0.5435,-1.3069 v -1.8633 c 0,-0.5003 0.1812,-0.9359 0.5435,-1.3069 0.3623,-0.3709 0.7936,-0.5564 1.2939,-0.5564 z m 14.8804,0 c 0.5176,0 0.9575,0.1812 1.3198,0.5435 0.3623,0.3623 0.5435,0.8023 0.5435,1.3198 v 1.8633 c 0,0.5003 -0.1855,0.936 -0.5564,1.3069 -0.371,0.3709 -0.8066,0.5564 -1.3069,0.5564 -0.5003,0 -0.9317,-0.1855 -1.294,-0.5564 -0.3623,-0.3709 -0.5434,-0.8066 -0.5434,-1.3069 v -1.8633 c 0,-0.5003 0.1811,-0.9359 0.5434,-1.3069 0.3623,-0.3709 0.7937,-0.5564 1.294,-0.5564 z"
       fill="#402a32"
       transform="translate(234.905,318)"
       id="path37" />
    <path
       d="m 36.3857,-5.38281 c 0.6039,0.60384 1.3242,1.03084 2.1609,1.281 0.8368,0.25017 1.6692,0.37525 2.4973,0.37525 0.8282,0 1.652,-0.12508 2.4715,-0.37525 0.8195,-0.25016 1.5311,-0.66853 2.135,-1.25512 -0.207,1.20768 -0.5693,2.31185 -1.0869,3.3125 -0.5176,1.00065 -1.1732,1.858965 -1.9668,2.574948 C 41.8031,1.2465 40.8844,1.8029 39.8406,2.19971 c -1.0438,0.39681 -2.1954,0.59521 -3.4549,0.59521 -1.2594,0 -2.411,-0.1984 -3.4548,-0.59521 C 31.8871,1.8029 30.9684,1.2465 30.1748,0.530518 29.3812,-0.185465 28.7256,-1.04378 28.208,-2.04443 c -0.5176,-1.00065 -0.8799,-2.10482 -1.0869,-3.3125 0.6038,0.58659 1.3155,1.00496 2.135,1.25512 0.8195,0.25017 1.6433,0.37525 2.4714,0.37525 0.8282,0 1.6606,-0.12508 2.4974,-0.37525 0.8367,-0.25016 1.557,-0.67716 2.1608,-1.281 z"
       fill="#bb1d80"
       transform="translate(234.905,318)"
       id="path39" />
    <text
       font-family="Calibri, Calibri_MSFontService, sans-serif"
       font-weight="400"
       font-size="96px"
       id="text45"
       transform="translate(127.955,210)">{ <tspan
   font-weight="700"
   font-size="64px"
   x="-103.616"
   y="-6"
   id="tspan41">O <tspan
   style="font-style:normal;font-variant:normal;font-weight:normal;font-stretch:normal;font-family:Calibri, Calibri_MSFontService, sans-serif;-inkscape-font-specification:'Calibri, Calibri_MSFontService, sans-serif'"
   id="tspan202">=</tspan></tspan></text>
    <path
       d="m 14.0522,-31.624 c 0,-1.0352 0.1941,-2.0056 0.5823,-2.9114 0.3882,-0.9058 0.9187,-1.6951 1.5916,-2.3679 0.6728,-0.6729 1.4621,-1.2034 2.3679,-1.5916 0.9058,-0.3882 1.8762,-0.5822 2.9114,-0.5822 h 29.7607 c 1.0352,0 2.0013,0.194 2.8985,0.5822 0.8971,0.3882 1.6821,0.9187 2.3549,1.5916 0.6729,0.6728 1.2034,1.4621 1.5916,2.3679 0.3882,0.9058 0.5823,1.8762 0.5823,2.9114 v 26.03416 c 0,1.03515 -0.1941,2.00561 -0.5823,2.91137 -0.3882,0.90576 -0.9187,1.695072 -1.5916,2.367923 -0.6728,0.672852 -1.4578,1.203369 -2.3549,1.591557 -0.8972,0.38818 -1.8633,0.58227 -2.8985,0.58227 H 21.5054 c -1.0352,0 -2.0056,-0.19409 -2.9114,-0.58227 C 17.6882,0.892822 16.8989,0.362305 16.2261,-0.310547 15.5532,-0.983398 15.0227,-1.77271 14.6345,-2.67847 14.2463,-3.58423 14.0522,-4.55469 14.0522,-5.58984 Z"
       fill="#f3c07b"
       transform="translate(149.947,204)"
       id="path47" />
    <path
       d="m 51.3696,-7.73779 c 0,0.93164 -0.1768,1.86759 -0.5305,2.80786 -0.3537,0.94027 -0.7634,1.79858 -1.2292,2.57495 -0.6729,1.13867 -1.4795,2.212646 -2.4197,3.221923 -0.9403,1.009277 -1.9754,1.889157 -3.1055,2.639647 -1.13,0.75049 -2.3377,1.34139 -3.623,1.77271 -1.2854,0.43131 -2.6095,0.64697 -3.9724,0.64697 -1.156,0 -2.3335,-0.16821 -3.5325,-0.50464 C 31.7577,5.08521 30.6061,4.61507 29.502,4.01123 28.3978,3.40739 27.3583,2.68278 26.3835,1.8374 25.4088,0.992025 24.5591,0.0646972 23.8345,-0.94458 c -0.7246,-1.00928 -1.294,-2.08757 -1.708,-3.23486 -0.4141,-1.1473 -0.6211,-2.33342 -0.6211,-3.55835 0,-1.39746 0.207,-2.63961 0.6211,-3.72661 0.414,-1.0869 0.979,-2.0314 1.695,-2.8337 0.716,-0.8022 1.5614,-1.4837 2.5362,-2.0444 0.9747,-0.5607 2.0142,-1.0093 3.1184,-1.3457 1.1041,-0.3365 2.2557,-0.5823 3.4548,-0.7376 1.1991,-0.1553 2.3852,-0.2329 3.5584,-0.2329 1.1559,0 2.3291,0.0776 3.5195,0.2329 1.1904,0.1553 2.3377,0.4098 3.4419,0.7634 1.1041,0.3537 2.135,0.8109 3.0925,1.3716 0.9575,0.5607 1.7943,1.2465 2.5103,2.0574 0.7159,0.8109 1.281,1.7511 1.695,2.8208 0.4141,1.0697 0.6211,2.2946 0.6211,3.67481 z"
       fill="#ffdea7"
       transform="translate(149.947,204)"
       id="path49" />
    <path
       d="m 30.7959,-2.51025 5.5898,-4.16651 5.5899,4.16651 v 4.37353 c 0,0.77637 -0.1467,1.50098 -0.44,2.17383 -0.2933,0.67285 -0.6944,1.25944 -1.2033,1.75977 -0.509,0.50032 -1.0999,0.89713 -1.7727,1.19042 -0.6729,0.2933 -1.3975,0.43995 -2.1739,0.43995 -0.7763,0 -1.5009,-0.14665 -2.1738,-0.43995 C 33.5391,6.69401 32.9482,6.2972 32.4392,5.79688 31.9303,5.29655 31.5291,4.70996 31.2358,4.03711 30.9425,3.36426 30.7959,2.63965 30.7959,1.86328 Z"
       fill="#ca0b4a"
       transform="translate(149.947,204)"
       id="path51" />
    <path
       d="m 12.9653,-16.9507 c -0.3278,0 -0.634,-0.0604 -0.9187,-0.1811 -0.2846,-0.1208 -0.5305,-0.2847 -0.7375,-0.4917 -0.207,-0.2071 -0.3709,-0.4529 -0.4917,-0.7376 -0.1208,-0.2847 -0.1812,-0.5909 -0.1812,-0.9187 v -13.0947 c 0,-1.1559 0.22,-2.2428 0.6599,-3.2608 0.44,-1.0179 1.0395,-1.9064 1.7986,-2.6655 0.7591,-0.7591 1.6433,-1.3586 2.6526,-1.7986 1.0093,-0.4399 2.0919,-0.6599 3.2478,-0.6599 h 7.5308 c 0.6556,0 1.212,0.2286 1.6692,0.6858 0.4572,0.4572 0.6858,1.0136 0.6858,1.6692 0,0.4831 -0.1467,0.923 -0.44,1.3198 l -13.5864,19.1504 c -0.4658,0.6556 -1.0955,0.9834 -1.8892,0.9834 z m 46.7632,0 c 0.6556,0 1.212,-0.2243 1.6692,-0.6728 0.4572,-0.4486 0.6858,-1.0007 0.6858,-1.6563 v -13.0947 c 0,-1.1559 -0.22,-2.2428 -0.6599,-3.2608 -0.44,-1.0179 -1.0395,-1.9064 -1.7986,-2.6655 -0.7591,-0.7591 -1.6476,-1.3586 -2.6655,-1.7986 -1.0179,-0.4399 -2.1048,-0.6599 -3.2608,-0.6599 H 46.168 c -0.6556,0 -1.2077,0.2286 -1.6563,0.6858 -0.4486,0.4572 -0.6728,1.005 -0.6728,1.6433 0,0.5004 0.1466,0.9489 0.4399,1.3457 l 13.5864,19.1504 c 0.4659,0.6556 1.0869,0.9834 1.8633,0.9834 z"
       fill="#6d4534"
       transform="translate(149.947,204)"
       id="path53" />
    <path
       d="m 28.9326,-24.1968 c 0,-0.5003 0.1855,-0.9316 0.5564,-1.2939 0.3709,-0.3623 0.8066,-0.5435 1.3069,-0.5435 0.5003,0 0.936,0.1812 1.3069,0.5435 0.3709,0.3623 0.5564,0.7936 0.5564,1.2939 v 1.8633 c 0,0.5176 -0.1812,0.9575 -0.5435,1.3198 -0.3623,0.3623 -0.8022,0.5435 -1.3198,0.5435 -0.5003,0 -0.936,-0.1855 -1.3069,-0.5564 -0.3709,-0.3709 -0.5564,-0.8066 -0.5564,-1.3069 z m 11.1797,0 c 0,-0.5003 0.1855,-0.9316 0.5564,-1.2939 0.3709,-0.3623 0.8066,-0.5435 1.3069,-0.5435 0.5003,0 0.9316,0.1812 1.2939,0.5435 0.3623,0.3623 0.5435,0.7936 0.5435,1.2939 v 1.8633 c 0,0.5003 -0.1812,0.936 -0.5435,1.3069 -0.3623,0.3709 -0.7936,0.5564 -1.2939,0.5564 -0.5176,0 -0.9575,-0.1812 -1.3198,-0.5435 -0.3623,-0.3623 -0.5435,-0.8022 -0.5435,-1.3198 z m -1.6045,7.4531 h -4.2959 c -0.2243,0 -0.4313,0.0518 -0.6211,0.1553 -0.1898,0.1035 -0.3537,0.2372 -0.4917,0.4011 -0.138,0.1639 -0.2458,0.3451 -0.3235,0.5435 -0.0776,0.1984 -0.1164,0.4011 -0.1164,0.6082 0,0.3278 0.138,0.6944 0.414,1.0998 0.2761,0.4054 0.6125,0.7893 1.0093,1.1516 0.3968,0.3623 0.8109,0.6642 1.2422,0.9058 0.4313,0.2415 0.8023,0.3623 1.1128,0.3623 0.3278,0 0.703,-0.1251 1.1257,-0.3753 0.4227,-0.2501 0.8238,-0.5564 1.2034,-0.9187 0.3796,-0.3623 0.6987,-0.7504 0.9575,-1.1645 0.2588,-0.4141 0.3882,-0.785 0.3882,-1.1128 0,-0.4141 -0.1639,-0.7936 -0.4917,-1.1387 -0.3278,-0.345 -0.6987,-0.5176 -1.1128,-0.5176 z m -2.1479,5.6158 c -0.4486,0 -0.7117,0.1466 -0.7893,0.4399 -0.0777,0.2933 -0.1165,0.6039 -0.1165,0.93165 0,0.72461 -0.1423,1.44491 -0.427,2.16089 -0.2847,0.71598 -0.6772,1.35864 -1.1775,1.92798 -0.5003,0.56934 -1.0869,1.03084 -1.7598,1.38452 -0.6728,0.35368 -1.3888,0.53052 -2.1479,0.53052 -0.2588,0 -0.4788,0.09057 -0.6599,0.27173 -0.1812,0.18115 -0.2717,0.40112 -0.2717,0.65991 0,0.25879 0.0905,0.47876 0.2717,0.65991 0.1811,0.18115 0.4011,0.27173 0.6599,0.27173 0.6728,0 1.3284,-0.10783 1.9668,-0.32349 0.6383,-0.21565 1.2379,-0.50895 1.7986,-0.87988 0.5607,-0.37093 1.0696,-0.81087 1.5268,-1.31982 0.4572,-0.50896 0.8411,-1.05673 1.1516,-1.64331 0.2933,0.58658 0.6686,1.13435 1.1258,1.64331 0.4572,0.50895 0.9661,0.94889 1.5268,1.31982 0.5607,0.37093 1.1603,0.66423 1.7986,0.87988 0.6384,0.21566 1.294,0.32349 1.9668,0.32349 0.2588,0 0.4788,-0.09058 0.6599,-0.27173 0.1812,-0.18115 0.2718,-0.40112 0.2718,-0.65991 0,-0.25879 -0.0906,-0.47876 -0.2718,-0.65991 -0.1811,-0.18116 -0.4011,-0.27173 -0.6599,-0.27173 -0.7936,0 -1.5182,-0.17253 -2.1738,-0.51758 -0.6556,-0.34505 -1.225,-0.80225 -1.708,-1.37158 -0.4831,-0.56934 -0.867,-1.212 -1.1516,-1.92798 -0.2847,-0.71598 -0.4357,-1.44491 -0.4529,-2.18677 -0.0173,-0.34505 -0.069,-0.65995 -0.1553,-0.94455 -0.0863,-0.2847 -0.3537,-0.427 -0.8022,-0.427 z"
       fill="#212121"
       transform="translate(149.947,204)"
       id="path55" />
    <text
       fill="#333333"
       font-family="'Segoe UI Emoji', 'Segoe UI Emoji_MSFontService', sans-serif"
       font-weight="400"
       font-size="53px"
       transform="translate(223.114,204)"
       id="text57">,</text>
    <path
       d="m 14.0522,-36.4116 c 0,-0.7764 0.2675,-1.4104 0.8023,-1.9021 0.5348,-0.4917 1.1818,-0.7376 1.9409,-0.7376 0.7246,0 1.363,0.2588 1.915,0.7764 l 8.6695,8.5142 h 18.2446 l 8.4624,-8.5142 c 0.5176,-0.5176 1.1473,-0.7764 1.8892,-0.7764 0.7591,0 1.4017,0.2502 1.928,0.7505 0.5262,0.5003 0.7893,1.1301 0.7893,1.8892 v 36.101053 c 0,1.000651 -0.1855,1.966797 -0.5564,2.898437 -0.371,0.93164 -0.8799,1.75545 -1.5269,2.47144 -0.647,0.71598 -1.4147,1.28963 -2.3032,1.72094 -0.8885,0.43132 -1.8504,0.64698 -2.8855,0.64698 H 21.3501 c -1.0352,0 -1.997,-0.20272 -2.8855,-0.60816 C 17.5761,6.41366 16.804,5.86588 16.1484,5.17578 15.4928,4.48568 14.9796,3.68774 14.6086,2.78198 14.2377,1.87622 14.0522,0.914388 14.0522,-0.103516 Z"
       fill="#ffb02e"
       transform="translate(234.614,204)"
       id="path59" />
    <path
       d="m 17.1577,-22.7993 c -0.414,0 -0.785,-0.1467 -1.1128,-0.44 -0.3278,-0.2933 -0.4917,-0.6556 -0.4917,-1.0869 v -9.6787 c 0,-0.3968 0.1725,-0.7203 0.5176,-0.9704 0.3451,-0.2502 0.6987,-0.3753 1.061,-0.3753 0.3796,0 0.7246,0.138 1.0352,0.4141 l 5.2017,4.8393 c 0.138,0.1208 0.2415,0.2761 0.3105,0.4659 0.069,0.1897 0.1035,0.3795 0.1035,0.5693 0,0.1898 -0.0345,0.3709 -0.1035,0.5434 -0.069,0.1726 -0.1725,0.3278 -0.3105,0.4659 l -5.2017,4.8393 c -0.3106,0.2761 -0.647,0.4141 -1.0093,0.4141 z m 38.5596,0 c 0.414,0 0.785,-0.1467 1.1128,-0.44 0.3278,-0.2933 0.4917,-0.6556 0.4917,-1.0869 v -9.6787 c 0,-0.3968 -0.1725,-0.7203 -0.5176,-0.9704 -0.3451,-0.2502 -0.6987,-0.3753 -1.061,-0.3753 -0.3796,0 -0.7246,0.138 -1.0352,0.4141 l -5.2017,4.8393 c -0.2932,0.2588 -0.4399,0.6039 -0.4399,1.0352 0,0.1898 0.0388,0.3709 0.1165,0.5434 0.0776,0.1726 0.1854,0.3278 0.3234,0.4659 l 5.2017,4.8393 c 0.3106,0.2761 0.647,0.4141 1.0093,0.4141 z"
       fill="#ff822d"
       transform="translate(234.614,204)"
       id="path61" />
    <path
       d="m 38.3267,-11.1538 c 0.2587,0 0.4787,0.0906 0.6599,0.2717 0.1811,0.1812 0.2717,0.4011 0.2717,0.6599 0,0.24157 -0.0949,0.45723 -0.2847,0.647 l -1.9409,1.94092 c -0.1898,0.18978 -0.4054,0.28467 -0.647,0.28467 -0.2415,0 -0.4572,-0.09489 -0.6469,-0.28467 L 33.7979,-9.5752 c -0.1898,-0.18977 -0.2847,-0.40543 -0.2847,-0.647 0,-0.2588 0.0906,-0.4787 0.2717,-0.6599 0.1812,-0.1811 0.4011,-0.2717 0.6599,-0.2717 z"
       fill="#f70a8d"
       transform="translate(234.614,204)"
       id="path63" />
    <path
       d="m 11.2832,-11.1797 c 0.0863,0 0.1596,0.0086 0.22,0.0259 0.0604,0.0172 0.1251,0.0431 0.1941,0.0776 l 7.4272,3.72659 c 0.3451,0.17253 0.5176,0.44857 0.5176,0.82813 0,0.24153 -0.0906,0.45719 -0.2717,0.64697 -0.1812,0.18978 -0.4012,0.28467 -0.66,0.28467 -0.1552,0 -0.2932,-0.03451 -0.414,-0.10352 l -7.4273,-3.70068 c -0.345,-0.17253 -0.5175,-0.44857 -0.5175,-0.82816 0,-0.276 0.0905,-0.5046 0.2717,-0.6858 0.1811,-0.1811 0.4011,-0.2717 0.6599,-0.2717 z M 11.2573,1.86328 c -0.2588,0 -0.4744,-0.09489 -0.6469,-0.28467 -0.1726,-0.18978 -0.2588,-0.41406 -0.2588,-0.672848 0,-0.362305 0.1725,-0.62972 0.5175,-0.802246 l 7.4273,-3.726566 c 0.1208,-0.06901 0.2588,-0.10351 0.414,-0.10351 0.2588,0 0.4788,0.09489 0.66,0.28467 0.1811,0.18977 0.2717,0.40543 0.2717,0.64697 0,0.37956 -0.1725,0.6556 -0.5176,0.82812 l -7.4272,3.72657 c -0.1208,0.06901 -0.2675,0.10351 -0.44,0.10351 z m 50.231,-13.04298 c 0.2588,0 0.4787,0.0906 0.6599,0.2717 0.1811,0.1812 0.2717,0.4098 0.2717,0.6858 0,0.37959 -0.1725,0.65563 -0.5176,0.82816 l -7.4272,3.70068 c -0.1208,0.06901 -0.2674,0.10352 -0.4399,0.10352 -0.2416,0 -0.4529,-0.09058 -0.6341,-0.27173 -0.1811,-0.18115 -0.2717,-0.40112 -0.2717,-0.65991 0,-0.37956 0.1725,-0.6556 0.5176,-0.82813 l 7.4272,-3.72659 c 0.069,-0.0345 0.1337,-0.0604 0.1941,-0.0776 0.0604,-0.0173 0.1337,-0.0259 0.22,-0.0259 z m 0.0259,13.04298 c -0.1726,0 -0.3192,-0.0345 -0.44,-0.10351 L 53.647,-1.9668 c -0.3451,-0.17252 -0.5176,-0.44856 -0.5176,-0.82812 0,-0.24154 0.0906,-0.4572 0.2717,-0.64697 0.1812,-0.18978 0.3925,-0.28467 0.6341,-0.28467 0.1725,0 0.3191,0.0345 0.4399,0.10351 l 7.4272,3.726566 c 0.3451,0.172526 0.5176,0.439941 0.5176,0.802246 0,0.258788 -0.0862,0.483068 -0.2588,0.672848 -0.1725,0.18978 -0.3882,0.28467 -0.6469,0.28467 z"
       fill="#ff6723"
       transform="translate(234.614,204)"
       id="path65" />
    <path
       d="m 28.9326,-16.7437 c 0.5176,0 0.9575,0.1812 1.3198,0.5435 0.3623,0.3623 0.5435,0.8023 0.5435,1.3198 v 1.8633 c 0,0.5003 -0.1855,0.936 -0.5564,1.3069 -0.3709,0.3709 -0.8066,0.5564 -1.3069,0.5564 -0.5003,0 -0.9316,-0.1855 -1.2939,-0.5564 -0.3623,-0.3709 -0.5435,-0.8066 -0.5435,-1.3069 v -1.8633 c 0,-0.5003 0.1812,-0.9359 0.5435,-1.3069 0.3623,-0.3709 0.7936,-0.5564 1.2939,-0.5564 z m 14.8804,0 c 0.5176,0 0.9575,0.1812 1.3198,0.5435 0.3623,0.3623 0.5435,0.8023 0.5435,1.3198 v 1.8633 c 0,0.5003 -0.1855,0.936 -0.5564,1.3069 -0.371,0.3709 -0.8066,0.5564 -1.3069,0.5564 -0.5003,0 -0.9317,-0.1855 -1.294,-0.5564 -0.3623,-0.3709 -0.5434,-0.8066 -0.5434,-1.3069 v -1.8633 c 0,-0.5003 0.1811,-0.9359 0.5434,-1.3069 0.3623,-0.3709 0.7937,-0.5564 1.294,-0.5564 z"
       fill="#402a32"
       transform="translate(234.614,204)"
       id="path67" />
    <path
       d="m 36.3857,-5.38281 c 0.6039,0.60384 1.3242,1.03084 2.1609,1.281 0.8368,0.25017 1.6692,0.37525 2.4973,0.37525 0.8282,0 1.652,-0.12508 2.4715,-0.37525 0.8195,-0.25016 1.5311,-0.66853 2.135,-1.25512 -0.207,1.20768 -0.5693,2.31185 -1.0869,3.3125 -0.5176,1.00065 -1.1732,1.858965 -1.9668,2.574948 C 41.8031,1.2465 40.8844,1.8029 39.8406,2.19971 c -1.0438,0.39681 -2.1954,0.59521 -3.4549,0.59521 -1.2594,0 -2.411,-0.1984 -3.4548,-0.59521 C 31.8871,1.8029 30.9684,1.2465 30.1748,0.530518 29.3812,-0.185465 28.7256,-1.04378 28.208,-2.04443 c -0.5176,-1.00065 -0.8799,-2.10482 -1.0869,-3.3125 0.6038,0.58659 1.3155,1.00496 2.135,1.25512 0.8195,0.25017 1.6433,0.37525 2.4714,0.37525 0.8282,0 1.6606,-0.12508 2.4974,-0.37525 0.8367,-0.25016 1.557,-0.67716 2.1608,-1.281 z"
       fill="#bb1d80"
       transform="translate(234.614,204)"
       id="path69" />
    <text
       fill="#333333"
       font-family="'Segoe UI Emoji', 'Segoe UI Emoji_MSFontService', sans-serif"
       font-weight="400"
       font-size="53px"
       transform="translate(307.781,204)"
       id="text71">,</text>
    <path
       d="m 56.3125,-44.6411 c 0,1.0697 -0.1812,2.1005 -0.5435,3.0925 -0.3623,0.992 -0.8885,1.8935 -1.5786,2.7044 0.8627,1.0351 1.5226,2.1781 1.9798,3.4289 0.4572,1.2508 0.6858,2.5491 0.6858,3.8948 0,1.1904 -0.1165,2.3679 -0.3494,3.5325 -0.2329,1.1645 -0.6513,2.2644 -1.2551,3.2995 1.0696,2.5362 1.6045,5.1844 1.6045,7.9448 0,1.9151 -0.2588,3.7697 -0.7764,5.564 -0.5176,1.79428 -1.2551,3.48073 -2.2127,5.05934 -0.9575,1.57861 -2.1177,3.01058 -3.4807,4.2959 -1.3629,1.285316 -2.8898,2.367917 -4.5805,3.2478 l 0.2329,2.30322 -6.4956,0.64698 c -0.3106,0.0345 -0.5952,0.06901 -0.854,0.10351 -0.2588,0.03451 -0.5133,0.06901 -0.7635,0.10352 -0.2501,0.0345 -0.5046,0.06469 -0.7634,0.09057 -0.2588,0.02588 -0.5434,0.03882 -0.854,0.03882 -0.6211,0 -1.1516,-0.03882 -1.5915,-0.11645 C 34.2766,4.51587 33.7461,4.44255 33.125,4.37354 L 26.7329,3.72656 26.9658,1.42334 c -1.6907,-0.879883 -3.2176,-1.962484 -4.5805,-3.2478 -1.363,-1.28532 -2.5232,-2.71297 -3.4808,-4.28296 -0.9575,-1.56999 -1.695,-3.25643 -2.2126,-5.05928 -0.5176,-1.8029 -0.7764,-3.6619 -0.7764,-5.577 0,-1.3974 0.1424,-2.7776 0.427,-4.1406 0.2847,-1.3629 0.7031,-2.6828 1.2552,-3.9595 -0.5866,-1.0179 -0.9878,-2.0961 -1.2034,-3.2348 -0.2157,-1.1387 -0.3235,-2.286 -0.3235,-3.4419 0,-1.3457 0.2286,-2.644 0.6858,-3.8948 0.4572,-1.2508 1.1171,-2.3938 1.9797,-3.4289 -0.6901,-0.8109 -1.2163,-1.7124 -1.5786,-2.7044 -0.3623,-0.992 -0.5434,-2.0228 -0.5434,-3.0925 h 10.5068 c 1.9323,0 3.6489,0.6211 5.1499,1.8633 h 8.3589 c 1.4665,-1.2422 3.1486,-1.8633 5.0464,-1.8633 z"
       fill="#6d4534"
       transform="translate(319.281,204)"
       id="path73" />
    <path
       d="m 21.1948,-21.2207 c 1.1042,0.6556 2.3248,1.1559 3.6619,1.501 1.3371,0.345 2.7043,0.6038 4.1018,0.7763 1.3975,0.1726 2.7949,0.2718 4.1924,0.2976 1.3974,0.0259 2.7259,0.0389 3.9853,0.0389 1.1387,0 2.3421,-0.0259 3.6101,-0.0777 1.2681,-0.0517 2.5362,-0.1639 3.8042,-0.3364 1.2681,-0.1725 2.506,-0.427 3.7137,-0.7634 1.2076,-0.3364 2.3204,-0.7893 3.3383,-1.3587 0.5521,1.6563 0.8282,3.3557 0.8282,5.0982 0,1.3802 -0.1855,2.8251 -0.5564,4.3347 -0.371,1.5096 -0.8929,2.99764 -1.5657,4.46411 -0.6729,1.46647 -1.4924,2.86393 -2.4585,4.19238 -0.9662,1.32845 -2.0401,2.493 -3.2219,3.493651 -1.1818,1.000649 -2.4672,1.798589 -3.856,2.393799 -1.3888,0.59521 -2.851,0.89282 -4.3865,0.89282 -1.5354,0 -2.9976,-0.29761 -4.3864,-0.89282 C 30.6104,2.23853 29.3251,1.44059 28.1433,0.439941 26.9615,-0.56071 25.8875,-1.72526 24.9214,-3.05371 23.9552,-4.38216 23.1357,-5.77962 22.4629,-7.24609 21.79,-8.71256 21.2681,-10.2006 20.8972,-11.7102 c -0.3709,-1.5096 -0.5564,-2.9545 -0.5564,-4.3347 0,-1.7943 0.2847,-3.5196 0.854,-5.1758 z"
       fill="#ffdea7"
       transform="translate(319.281,204)"
       id="path75" />
    <path
       d="m 33.6685,-24.1968 c 0,-0.3795 0.0733,-0.7375 0.2199,-1.074 0.1467,-0.3364 0.3494,-0.6297 0.6082,-0.8798 0.2588,-0.2502 0.5564,-0.4486 0.8928,-0.5952 0.3364,-0.1467 0.6944,-0.22 1.074,-0.22 0.3795,0 0.7375,0.0733 1.074,0.22 0.3364,0.1466 0.6297,0.345 0.8798,0.5952 0.2502,0.2501 0.4486,0.5434 0.5953,0.8798 0.1466,0.3365 0.2199,0.6945 0.2199,1.074 z m 2.7172,27.92336 c 1.6563,0 3.278,-0.19409 4.8653,-0.58227 1.5872,-0.38819 3.1141,-0.96184 4.5805,-1.72095 0.1898,0.31055 0.3839,0.66422 0.5823,1.06104 0.1984,0.3968 0.3753,0.81518 0.5305,1.25512 0.1553,0.43994 0.2847,0.87126 0.3882,1.29395 0.1035,0.42269 0.1553,0.81518 0.1553,1.17749 0,0.3623 -0.1337,0.6556 -0.4011,0.87988 C 46.8193,7.3151 46.513,7.42725 46.168,7.42725 H 26.6035 c -0.345,0 -0.6513,-0.11215 -0.9187,-0.33643 -0.2674,-0.22428 -0.4011,-0.51758 -0.4011,-0.87988 0,-0.36231 0.0517,-0.7548 0.1553,-1.17749 0.1035,-0.42269 0.2329,-0.85401 0.3881,-1.29395 0.1553,-0.43994 0.3322,-0.85832 0.5306,-1.25512 0.1984,-0.39682 0.3925,-0.75049 0.5822,-1.06104 1.4665,0.75911 2.9934,1.33276 4.5806,1.72095 1.5872,0.38818 3.209,0.58227 4.8652,0.58227 z"
       fill="#ff822d"
       transform="translate(319.281,204)"
       id="path77" />
    <path
       d="m 32.6592,-31.624 c 0,1.0179 -0.1941,1.9797 -0.5823,2.8855 -0.3882,0.9057 -0.9187,1.695 -1.5915,2.3679 -0.6729,0.6728 -1.4622,1.2034 -2.368,1.5915 -0.9057,0.3882 -1.8676,0.5823 -2.8855,0.5823 -1.0351,0 -2.0056,-0.1941 -2.9113,-0.5823 -0.9058,-0.3881 -1.6951,-0.9187 -2.368,-1.5915 -0.6728,-0.6729 -1.2033,-1.4578 -1.5915,-2.355 -0.3882,-0.8971 -0.5823,-1.8633 -0.5823,-2.8984 0,-1.0352 0.1941,-2.0056 0.5823,-2.9114 0.3882,-0.9058 0.9187,-1.6951 1.5915,-2.3679 0.6729,-0.6729 1.4622,-1.2034 2.368,-1.5916 0.9057,-0.3882 1.8762,-0.5822 2.9113,-0.5822 1.0179,0 1.9798,0.1984 2.8855,0.5952 0.9058,0.3968 1.6951,0.9316 2.368,1.6045 0.6728,0.6728 1.2033,1.4621 1.5915,2.3679 0.3882,0.9057 0.5823,1.8676 0.5823,2.8855 z m 22.3335,0 c 0,1.0351 -0.1941,2.0013 -0.5823,2.8984 -0.3882,0.8972 -0.9187,1.6821 -1.5916,2.355 -0.6728,0.6728 -1.4621,1.2034 -2.3679,1.5915 -0.9057,0.3882 -1.8762,0.5823 -2.9113,0.5823 -1.0352,0 -2.0014,-0.1941 -2.8985,-0.5823 -0.8971,-0.3881 -1.6821,-0.9187 -2.355,-1.5915 -0.6728,-0.6729 -1.2033,-1.4578 -1.5915,-2.355 -0.3882,-0.8971 -0.5823,-1.8633 -0.5823,-2.8984 0,-1.0352 0.1941,-2.0056 0.5823,-2.9114 0.3882,-0.9058 0.9187,-1.6951 1.5915,-2.3679 0.6729,-0.6729 1.4579,-1.2034 2.355,-1.5916 0.8971,-0.3882 1.8633,-0.5822 2.8985,-0.5822 1.0351,0 2.0056,0.194 2.9113,0.5822 0.9058,0.3882 1.6951,0.9187 2.3679,1.5916 0.6729,0.6728 1.2034,1.4621 1.5916,2.3679 0.3882,0.9058 0.5823,1.8762 0.5823,2.9114 z"
       fill="#1c1c1c"
       transform="translate(319.281,204)"
       id="path79" />
    <path
       d="m 32.1934,-30.6665 c 0,0.8454 -0.1596,1.639 -0.4788,2.3809 -0.3192,0.7418 -0.7591,1.3931 -1.3198,1.9538 -0.5607,0.5607 -1.212,1.0007 -1.9539,1.3198 -0.7418,0.3192 -1.5355,0.4788 -2.3808,0.4788 -0.8454,0 -1.6434,-0.1596 -2.3938,-0.4788 -0.7505,-0.3191 -1.4018,-0.7591 -1.9539,-1.3198 -0.5521,-0.5607 -0.992,-1.212 -1.3198,-1.9538 -0.3278,-0.7419 -0.4917,-1.5355 -0.4917,-2.3809 0,-0.8454 0.1639,-1.6433 0.4917,-2.3938 0.3278,-0.7505 0.7677,-1.4018 1.3198,-1.9539 0.5521,-0.552 1.2034,-0.992 1.9539,-1.3198 0.7504,-0.3278 1.5484,-0.4917 2.3938,-0.4917 0.8453,0 1.639,0.1639 2.3808,0.4917 0.7419,0.3278 1.3932,0.7678 1.9539,1.3198 0.5607,0.5521 1.0006,1.2034 1.3198,1.9539 0.3192,0.7505 0.4788,1.5484 0.4788,2.3938 z m 20.6254,0 c 0,0.8454 -0.1595,1.639 -0.4787,2.3809 -0.3192,0.7418 -0.7591,1.3931 -1.3198,1.9538 -0.5607,0.5607 -1.212,1.0007 -1.9539,1.3198 -0.7419,0.3192 -1.5355,0.4788 -2.3809,0.4788 -0.8453,0 -1.6433,-0.1596 -2.3938,-0.4788 -0.7504,-0.3191 -1.4017,-0.7591 -1.9538,-1.3198 -0.5521,-0.5607 -0.992,-1.212 -1.3198,-1.9538 -0.3278,-0.7419 -0.4917,-1.5355 -0.4917,-2.3809 0,-0.8454 0.1639,-1.6433 0.4917,-2.3938 0.3278,-0.7505 0.7677,-1.4018 1.3198,-1.9539 0.5521,-0.552 1.2034,-0.992 1.9538,-1.3198 0.7505,-0.3278 1.5485,-0.4917 2.3938,-0.4917 0.8454,0 1.639,0.1639 2.3809,0.4917 0.7419,0.3278 1.3932,0.7678 1.9539,1.3198 0.5607,0.5521 1.0006,1.2034 1.3198,1.9539 0.3192,0.7505 0.4787,1.5484 0.4787,2.3938 z"
       fill="#fcd53f"
       transform="translate(319.281,204)"
       id="path81" />
    <path
       d="m 29.8384,-30.6665 c 0,0.5176 -0.0992,1.005 -0.2976,1.4622 -0.1984,0.4571 -0.4702,0.8583 -0.8152,1.2033 -0.3451,0.3451 -0.7462,0.6168 -1.2034,0.8152 -0.4572,0.1984 -0.9446,0.2976 -1.4621,0.2976 -0.5176,0 -1.0093,-0.0992 -1.4751,-0.2976 -0.4659,-0.1984 -0.8713,-0.4658 -1.2163,-0.8022 -0.3451,-0.3365 -0.6168,-0.7376 -0.8152,-1.2034 -0.1984,-0.4658 -0.2976,-0.9575 -0.2976,-1.4751 0,-0.5176 0.0992,-1.0093 0.2976,-1.4751 0.1984,-0.4658 0.4701,-0.8669 0.8152,-1.2034 0.345,-0.3364 0.7504,-0.6038 1.2163,-0.8022 0.4658,-0.1984 0.9575,-0.2976 1.4751,-0.2976 0.5175,0 1.0049,0.0992 1.4621,0.2976 0.4572,0.1984 0.8583,0.4701 1.2034,0.8152 0.345,0.345 0.6168,0.7461 0.8152,1.2033 0.1984,0.4572 0.2976,0.9446 0.2976,1.4622 z m 20.6255,0 c 0,0.5176 -0.0992,1.0093 -0.2976,1.4751 -0.1984,0.4658 -0.4659,0.8669 -0.8023,1.2034 -0.3364,0.3364 -0.7375,0.6038 -1.2034,0.8022 -0.4658,0.1984 -0.9575,0.2976 -1.4751,0.2976 -0.5175,0 -1.0092,-0.0992 -1.4751,-0.2976 -0.4658,-0.1984 -0.8669,-0.4658 -1.2033,-0.8022 -0.3364,-0.3365 -0.6039,-0.7376 -0.8023,-1.2034 -0.1984,-0.4658 -0.2976,-0.9575 -0.2976,-1.4751 0,-0.5176 0.0992,-1.0093 0.2976,-1.4751 0.1984,-0.4658 0.4659,-0.8669 0.8023,-1.2034 0.3364,-0.3364 0.7375,-0.6038 1.2033,-0.8022 0.4659,-0.1984 0.9576,-0.2976 1.4751,-0.2976 0.5176,0 1.0093,0.0992 1.4751,0.2976 0.4659,0.1984 0.867,0.4658 1.2034,0.8022 0.3364,0.3365 0.6039,0.7376 0.8023,1.2034 0.1984,0.4658 0.2976,0.9575 0.2976,1.4751 z"
       fill="#533566"
       transform="translate(319.281,204)"
       id="path83" />
    <text
       fill="#333333"
       font-family="'Segoe UI Emoji', 'Segoe UI Emoji_MSFontService', sans-serif"
       font-weight="400"
       font-size="53px"
       transform="translate(392.447,204)"
       id="text85">,</text>
    <path
       d="m 38.9478,-37.1621 c 0.8281,0.2933 1.5484,0.6901 2.1608,1.1904 0.6125,0.5003 1.1215,1.074 1.5269,1.721 0.4054,0.6469 0.7074,1.3586 0.9058,2.135 0.1984,0.7763 0.2976,1.5872 0.2976,2.4326 H 28.9844 v -0.5176 c 0,-0.7763 0.1164,-1.5225 0.3493,-2.2385 0.233,-0.716 0.5607,-1.3802 0.9834,-1.9927 0.4227,-0.6124 0.9317,-1.1516 1.5269,-1.6174 0.5952,-0.4658 1.2551,-0.8368 1.9797,-1.1128 -0.1035,-0.1725 -0.2976,-0.4874 -0.5822,-0.9446 -0.2847,-0.4572 -0.5737,-0.9403 -0.867,-1.4492 -0.2933,-0.509 -0.5564,-0.9834 -0.7893,-1.4233 -0.2329,-0.44 -0.3494,-0.729 -0.3494,-0.867 0,-0.2588 0.0949,-0.4788 0.2847,-0.6599 0.1898,-0.1812 0.4054,-0.2717 0.647,-0.2717 0.3623,0 0.6297,0.1552 0.8022,0.4658 l 2.7173,4.7358 h 0.0518 c 0.2243,0 0.4399,-0.0129 0.6469,-0.0388 0.2071,-0.0259 0.4227,-0.0216 0.647,0.0129 l 2.8208,-4.7358 c 0.1725,-0.2933 0.44,-0.4399 0.8023,-0.4399 0.2415,0 0.4572,0.0905 0.6469,0.2717 0.1898,0.1811 0.2847,0.4011 0.2847,0.6599 0,0.138 -0.1165,0.427 -0.3494,0.867 -0.2329,0.4399 -0.5046,0.9143 -0.8151,1.4233 -0.3106,0.5089 -0.6082,0.992 -0.8929,1.4492 -0.2846,0.4572 -0.4787,0.7721 -0.5822,0.9446 z m -12.9395,15.7085 c 0.3968,0 0.7289,-0.1337 0.9963,-0.4011 0.2675,-0.2675 0.4012,-0.5996 0.4012,-0.9964 0,-0.4313 -0.1639,-0.785 -0.4917,-1.061 l -4.8653,-3.9854 c -0.4485,-0.3623 -0.7979,-0.8108 -1.0481,-1.3457 -0.2501,-0.5348 -0.3752,-1.0955 -0.3752,-1.6821 v -4.0889 c 0,-0.4313 -0.0647,-0.8108 -0.1941,-1.1386 -0.1294,-0.3278 -0.2976,-0.6341 -0.5046,-0.9187 -0.2071,-0.2847 -0.4486,-0.5521 -0.7247,-0.8023 -0.276,-0.2501 -0.552,-0.5219 -0.8281,-0.8152 -0.276,-0.276 -0.6124,-0.414 -1.0093,-0.414 -0.3968,0 -0.7246,0.1337 -0.9834,0.4011 -0.2587,0.2674 -0.3881,0.5995 -0.3881,0.9963 0,0.3278 0.0949,0.6125 0.2846,0.854 0.1898,0.2416 0.4012,0.4659 0.6341,0.6729 0.2329,0.207 0.4442,0.4011 0.634,0.5823 0.1898,0.1811 0.2847,0.3838 0.2847,0.6081 0,0.9144 -0.0173,1.79 -0.0518,2.6267 -0.0345,0.8368 0.0086,1.639 0.1294,2.4068 0.1208,0.7677 0.358,1.5053 0.7117,2.2126 0.3537,0.7074 0.91,1.3716 1.6692,1.9927 l 4.8393,3.9853 c 0.1208,0.1036 0.2588,0.1812 0.4141,0.233 0.1553,0.0517 0.3105,0.0776 0.4658,0.0776 z m 20.8325,0 c -0.3968,0 -0.7289,-0.1294 -0.9963,-0.3882 -0.2674,-0.2588 -0.4011,-0.5866 -0.4011,-0.9834 0,-0.207 0.0474,-0.4054 0.1423,-0.5952 0.0949,-0.1898 0.22,-0.3537 0.3752,-0.4917 l 4.8394,-3.9854 c 0.4486,-0.3795 0.7979,-0.8238 1.0481,-1.3327 0.2501,-0.509 0.3752,-1.0567 0.3752,-1.6433 v -4.1148 c 0,-0.9489 0.3365,-1.7597 1.0093,-2.4326 0.1553,-0.1553 0.3106,-0.3278 0.4658,-0.5176 0.1553,-0.1898 0.3235,-0.3709 0.5047,-0.5434 0.1811,-0.1726 0.3752,-0.3149 0.5822,-0.427 0.2071,-0.1122 0.4314,-0.1682 0.6729,-0.1682 0.3968,0 0.7289,0.1337 0.9963,0.4011 0.2674,0.2674 0.4012,0.5995 0.4012,0.9963 0,0.3278 -0.0949,0.6125 -0.2847,0.854 -0.1898,0.2416 -0.4011,0.4658 -0.634,0.6729 -0.233,0.207 -0.4443,0.4011 -0.6341,0.5822 -0.1898,0.1812 -0.2846,0.3753 -0.2846,0.5823 0,0.9144 0.0129,1.79 0.0388,2.6267 0.0259,0.8368 -0.0173,1.6433 -0.1294,2.4197 -0.1122,0.7764 -0.3451,1.5182 -0.6988,2.2256 -0.3536,0.7073 -0.91,1.3716 -1.6691,1.9927 l -4.8394,3.9853 c -0.1035,0.0863 -0.2415,0.1553 -0.4141,0.2071 -0.1725,0.0517 -0.3278,0.0776 -0.4658,0.0776 z M 15.5273,7.37549 c -0.3968,0 -0.7289,-0.13371 -0.9963,-0.40112 C 14.2636,6.70695 14.1299,6.37484 14.1299,5.97803 V 0.310547 c 0,-0.741862 0.138,-1.457847 0.414,-2.147947 0.2761,-0.69011 0.6815,-1.30257 1.2164,-1.8374 l 4.3217,-4.32178 c 0.2761,-0.27604 0.6039,-0.41406 0.9834,-0.41406 0.3968,0 0.729,0.1337 0.9964,0.40112 0.2674,0.26741 0.4011,0.59953 0.4011,0.99634 0,0.39681 -0.1294,0.72461 -0.3882,0.98339 l -4.3476,4.32178 c -0.5521,0.55209 -0.8282,1.224937 -0.8282,2.018557 V 5.97803 c 0,0.39681 -0.1294,0.72892 -0.3882,0.99634 -0.2587,0.26741 -0.5865,0.40112 -0.9834,0.40112 z M 58.7192,5.97803 c 0,0.37955 -0.138,0.70735 -0.414,0.9834 -0.2761,0.27604 -0.6039,0.41406 -0.9834,0.41406 -0.3968,0 -0.7289,-0.13371 -0.9964,-0.40112 C 56.058,6.70695 55.9243,6.37484 55.9243,5.97803 V 0.310547 c 0,-0.79362 -0.276,-1.466467 -0.8281,-2.018557 l -4.3218,-4.32178 c -0.276,-0.27604 -0.414,-0.60384 -0.414,-0.98339 0,-0.39681 0.1337,-0.72893 0.4011,-0.99634 0.2674,-0.26742 0.5995,-0.40112 0.9963,-0.40112 0.3796,0 0.7074,0.13802 0.9834,0.41406 l 4.3218,4.32178 c 0.5348,0.53483 0.9446,1.14729 1.2292,1.8374 0.2847,0.6901 0.427,1.406085 0.427,2.147947 z m 2.3033,-21.97123 c -0.2933,0 -0.5564,-0.0905 -0.7893,-0.2717 -0.233,-0.1811 -0.4486,-0.4054 -0.647,-0.6728 -0.1984,-0.2675 -0.4011,-0.5564 -0.6082,-0.867 -0.207,-0.3105 -0.4313,-0.5995 -0.6728,-0.8669 -0.2416,-0.2674 -0.5176,-0.4917 -0.8281,-0.6729 -0.3106,-0.1811 -0.6729,-0.2717 -1.087,-0.2717 h -6.7802 c -0.3796,0 -0.7074,-0.138 -0.9834,-0.4141 -0.2761,-0.276 -0.4141,-0.6038 -0.4141,-0.9834 0,-0.3795 0.138,-0.7073 0.4141,-0.9834 0.276,-0.276 0.6038,-0.414 0.9834,-0.414 h 6.7802 c 0.7419,0 1.3802,0.1164 1.9151,0.3493 0.5348,0.2329 1.0136,0.5435 1.4363,0.9317 0.4226,0.3882 0.8238,0.8324 1.2033,1.3327 0.3796,0.5004 0.7764,1.0179 1.1905,1.5528 0.1897,0.2415 0.2846,0.5262 0.2846,0.854 0,0.3968 -0.1337,0.7289 -0.4011,0.9963 -0.2674,0.2674 -0.5995,0.4011 -0.9963,0.4011 z m -49.2735,0 c 0.4486,0 0.8281,-0.1897 1.1387,-0.5693 0.3105,-0.3796 0.6211,-0.7936 0.9316,-1.2422 0.3106,-0.4486 0.6643,-0.8626 1.0611,-1.2422 0.3968,-0.3795 0.8971,-0.5693 1.5009,-0.5693 h 6.7803 c 0.3968,0 0.7289,-0.1337 0.9964,-0.4011 0.2674,-0.2674 0.4011,-0.5996 0.4011,-0.9964 0,-0.3795 -0.138,-0.7073 -0.4141,-0.9834 -0.276,-0.276 -0.6038,-0.414 -0.9834,-0.414 h -6.7803 c -0.7418,0 -1.3802,0.1164 -1.915,0.3493 -0.5348,0.2329 -1.0179,0.5435 -1.4492,0.9317 -0.4313,0.3882 -0.8324,0.8324 -1.2034,1.3327 -0.3709,0.5004 -0.7634,1.0179 -1.1775,1.5528 -0.1897,0.2415 -0.2846,0.5262 -0.2846,0.854 0,0.3968 0.1337,0.7289 0.4011,0.9963 0.2674,0.2674 0.5995,0.4011 0.9963,0.4011 z"
       fill="#14a085"
       transform="translate(403.947,204)"
       id="path87" />
    <path
       d="m 47.5654,-25.1284 h -3.6489 v 4.8393 H 40.1123 V 5.48633 H 32.6592 V -20.2891 h -1.8115 v -4.8393 h -5.5899 v -2.8467 l 7.4273,-1.1904 c 0.3623,-0.0518 0.6901,-0.1122 0.9834,-0.1812 0.2933,-0.069 0.5779,-0.1337 0.854,-0.1941 0.276,-0.0604 0.565,-0.1121 0.8669,-0.1552 0.3019,-0.0432 0.634,-0.0647 0.9963,-0.0647 0.3623,0 0.6945,0.0215 0.9964,0.0647 0.3019,0.0431 0.5952,0.0948 0.8799,0.1552 0.2846,0.0604 0.5736,0.1251 0.8669,0.1941 0.2933,0.069 0.6211,0.1294 0.9834,0.1812 l 7.4531,1.1904 z"
       fill="#533566"
       transform="translate(403.947,204)"
       id="path89" />
    <path
       d="m 25.2578,-29.7607 c 0,-0.5694 0.1078,-1.1042 0.3235,-1.6045 0.2157,-0.5004 0.509,-0.936 0.8799,-1.3069 0.3709,-0.3709 0.8065,-0.6642 1.3069,-0.8799 0.5003,-0.2157 1.0351,-0.3235 1.6045,-0.3235 h 14.0522 c 0.5693,0 1.1042,0.1078 1.6045,0.3235 0.5003,0.2157 0.9359,0.509 1.3069,0.8799 0.3709,0.3709 0.6642,0.8065 0.8799,1.3069 0.2156,0.5003 0.3235,1.0351 0.3235,1.6045 v 1.8632 H 25.2578 Z m 6.9873,3.7006 c 0.6556,0 1.2034,0.22 1.6433,0.66 0.44,0.4399 0.6599,0.9877 0.6599,1.6433 V 5.6416 c 0,0.48307 -0.1682,0.89282 -0.5046,1.22925 -0.3364,0.33642 -0.7462,0.50464 -1.2292,0.50464 L 32.6074,7.34961 C 30.2266,7.05631 28.0225,6.37915 25.9954,5.31812 23.9682,4.25708 22.2084,2.90275 20.7161,1.25513 19.2237,-0.392497 18.0592,-2.27734 17.2224,-4.39941 16.3857,-6.52148 15.9673,-8.79883 15.9673,-11.2314 v -4.3736 c 0,-1.4492 0.276,-2.8078 0.8281,-4.0759 0.5521,-1.2681 1.3026,-2.3722 2.2515,-3.3125 0.9489,-0.9403 2.0573,-1.6864 3.3254,-2.2385 1.2681,-0.5521 2.6267,-0.8282 4.0759,-0.8282 z m 14.1299,0 c 1.4492,0 2.8079,0.2718 4.0759,0.8152 1.2681,0.5435 2.3766,1.2897 3.3255,2.2386 0.9489,0.9488 1.6993,2.0573 2.2514,3.3254 0.5521,1.2681 0.8282,2.6267 0.8282,4.0759 v 4.3736 c 0,2.43257 -0.4184,4.70992 -1.2552,6.83199 -0.8367,2.12207 -2.0013,4.006913 -3.4936,5.65454 -1.4924,1.64762 -3.2521,3.00195 -5.2793,4.06299 -2.0272,1.06103 -4.2312,1.73819 -6.6121,2.03149 l -0.207,0.02588 c -0.4831,0 -0.8928,-0.16822 -1.2293,-0.50464 C 38.4431,6.53442 38.2749,6.12467 38.2749,5.6416 v -29.3984 c 0,-0.6384 0.2286,-1.1818 0.6858,-1.6304 0.4572,-0.4486 1.005,-0.6729 1.6433,-0.6729 z"
       fill="#00d26a"
       transform="translate(403.947,204)"
       id="path91" />
    <path
       d="m 45.6763,-14.0005 c 0,0.5003 -0.1855,0.9317 -0.5564,1.294 -0.371,0.3623 -0.8066,0.5434 -1.3069,0.5434 -0.5003,0 -0.9317,-0.1811 -1.294,-0.5434 -0.3623,-0.3623 -0.5434,-0.7937 -0.5434,-1.294 v -5.6416 c 0,-0.5003 0.1811,-0.9316 0.5434,-1.2939 0.3623,-0.3623 0.7937,-0.5435 1.294,-0.5435 0.5003,0 0.9359,0.1812 1.3069,0.5435 0.3709,0.3623 0.5564,0.7936 0.5564,1.2939 z m 7.4531,2.7949 c 0,0.5004 -0.1855,0.936 -0.5564,1.30692 -0.3709,0.37093 -0.8066,0.55639 -1.3069,0.55639 -0.5176,0 -0.9575,-0.18115 -1.3198,-0.54345 C 49.584,-10.248 49.4028,-10.688 49.4028,-11.2056 v -5.6157 c 0,-0.5003 0.1855,-0.9359 0.5564,-1.3069 0.371,-0.3709 0.8066,-0.5564 1.3069,-0.5564 0.5003,0 0.936,0.1855 1.3069,0.5564 0.3709,0.371 0.5564,0.8066 0.5564,1.3069 z m -31.6499,-7.479 c 0.5003,0 0.9359,0.1855 1.3069,0.5564 0.3709,0.371 0.5564,0.8066 0.5564,1.3069 v 5.6157 c 0,0.5004 -0.1855,0.936 -0.5564,1.30692 -0.371,0.37093 -0.8066,0.55639 -1.3069,0.55639 -0.5176,0 -0.9575,-0.18115 -1.3198,-0.54345 -0.3623,-0.36226 -0.5435,-0.80226 -0.5435,-1.31986 v -5.6157 c 0,-0.5176 0.1812,-0.9575 0.5435,-1.3198 0.3623,-0.3623 0.8022,-0.5435 1.3198,-0.5435 z m 9.4458,4.6841 c 0,0.5003 -0.1855,0.9317 -0.5564,1.294 -0.3709,0.3623 -0.8066,0.5434 -1.3069,0.5434 -0.5003,0 -0.9359,-0.1811 -1.3069,-0.5434 -0.3709,-0.3623 -0.5564,-0.7937 -0.5564,-1.294 v -5.6416 c 0,-0.5003 0.1855,-0.9316 0.5564,-1.2939 0.371,-0.3623 0.8066,-0.5435 1.3069,-0.5435 0.5003,0 0.936,0.1812 1.3069,0.5435 0.3709,0.3623 0.5564,0.7936 0.5564,1.2939 z"
       fill="#f9c23c"
       transform="translate(403.947,204)"
       id="path93" />
    <text
       fill="#333333"
       font-family="'Segoe UI Emoji', 'Segoe UI Emoji_MSFontService', sans-serif"
       font-weight="400"
       font-size="53px"
       transform="translate(477.114,204)"
       id="text95">,</text>
    <path
       d="m 26.1895,-44.6411 c 1.4147,0 2.7388,0.2674 3.9724,0.8022 1.2335,0.5349 2.3118,1.2638 3.2348,2.1868 0.923,0.923 1.6563,2.0056 2.1997,3.2478 0.5435,1.2422 0.8152,2.5706 0.8152,3.9854 0,-1.4148 0.2717,-2.7432 0.8152,-3.9854 0.5435,-1.2422 1.2767,-2.3248 2.1997,-3.2478 0.923,-0.923 2.0056,-1.6519 3.2478,-2.1868 1.2422,-0.5348 2.5707,-0.8022 3.9854,-0.8022 1.4147,0 2.7431,0.2674 3.9853,0.8022 1.2422,0.5349 2.3291,1.2681 3.2608,2.1997 0.9316,0.9317 1.6648,2.0186 2.1997,3.2608 0.5348,1.2422 0.8022,2.5706 0.8022,3.9853 0,1.57 -0.0043,3.1184 -0.0129,4.6453 -0.0087,1.5269 -0.013,3.0753 -0.013,4.6453 0,0.2415 -0.0905,0.4528 -0.2717,0.634 -0.1811,0.1811 -0.3925,0.2717 -0.634,0.2717 -0.2588,0 -0.4745,-0.0862 -0.647,-0.2588 -0.1725,-0.1725 -0.2588,-0.3882 -0.2588,-0.6469 v -9.1871 c 0,-1.1731 -0.22,-2.2773 -0.6599,-3.3125 -0.4399,-1.0351 -1.0438,-1.9366 -1.8115,-2.7043 -0.7678,-0.7677 -1.6649,-1.3716 -2.6914,-1.8115 -1.0266,-0.44 -2.1264,-0.6599 -3.2996,-0.6599 -1.1387,0 -2.2126,0.2243 -3.2219,0.6728 -1.0093,0.4486 -1.8935,1.0524 -2.6526,1.8115 -0.7591,0.7592 -1.3586,1.6434 -1.7986,2.6526 -0.4399,1.0093 -0.6599,2.0833 -0.6599,3.222 0,0.2415 -0.0863,0.4615 -0.2588,0.6599 -0.1725,0.1984 -0.3882,0.2976 -0.647,0.2976 -0.2415,0 -0.4572,-0.0906 -0.6469,-0.2718 -0.1898,-0.1811 -0.2933,-0.3924 -0.3106,-0.634 0,0.2416 -0.0949,0.4529 -0.2846,0.634 -0.1898,0.1812 -0.4055,0.2718 -0.647,0.2718 -0.2761,0 -0.496,-0.0949 -0.6599,-0.2847 -0.1639,-0.1898 -0.2459,-0.4141 -0.2459,-0.6728 0,-1.1387 -0.22,-2.2127 -0.6599,-3.222 -0.4399,-1.0092 -1.0395,-1.8934 -1.7986,-2.6526 -0.7591,-0.7591 -1.6433,-1.3629 -2.6526,-1.8115 -1.0092,-0.4485 -2.0832,-0.6728 -3.2219,-0.6728 -1.1732,0 -2.2773,0.2199 -3.3125,0.6599 -1.0351,0.4399 -1.9323,1.0438 -2.6914,1.8115 -0.7591,0.7677 -1.3586,1.6692 -1.7986,2.7043 -0.4399,1.0352 -0.6599,2.1394 -0.6599,3.3125 v 9.1871 c 0,0.2415 -0.0906,0.4528 -0.2717,0.634 -0.1812,0.1811 -0.3925,0.2717 -0.6341,0.2717 -0.2415,0 -0.4528,-0.0906 -0.634,-0.2717 -0.1811,-0.1812 -0.2717,-0.3925 -0.2717,-0.634 0,-1.57 -0.0043,-3.1184 -0.013,-4.6453 -0.0086,-1.5269 -0.0129,-3.0753 -0.0129,-4.6453 0,-1.4147 0.2674,-2.7431 0.8023,-3.9853 0.5348,-1.2422 1.268,-2.3291 2.1997,-3.2608 0.9316,-0.9316 2.0185,-1.6648 3.2607,-2.1997 1.2422,-0.5348 2.5706,-0.8022 3.9854,-0.8022 z m 10.248,52.09422 c -0.5176,0 -0.9877,-0.08195 -1.4104,-0.24584 C 34.6044,7.04338 34.186,6.80615 33.772,6.49561 33.0301,5.94352 32.34,5.40869 31.7017,4.89111 31.0633,4.37354 30.4767,3.82145 29.9419,3.23486 29.4071,2.64827 28.9369,2.0013 28.5315,1.29395 28.1261,0.586589 27.7939,-0.224284 27.5352,-1.13867 l 6.9873,-24.89553 1.8632,-1.8633 1.8633,1.8633 7.065,24.89553 C 45.0552,-0.224284 44.7231,0.586589 44.3176,1.29395 43.9122,2.0013 43.4421,2.64396 42.9072,3.22192 42.3724,3.79989 41.7858,4.35197 41.1475,4.87817 40.5091,5.40438 39.8276,5.94352 39.103,6.49561 38.7062,6.80615 38.2922,7.04338 37.8608,7.20728 37.4295,7.37117 36.9551,7.45312 36.4375,7.45312 Z"
       fill="#a56953"
       transform="translate(488.614,204)"
       id="path97" />
    <path
       d="m 34.5225,-26.0342 v 14.3369 c 0,1.156 -0.1639,2.27307 -0.4917,3.35135 -0.3278,1.07829 -0.7937,2.08325 -1.3975,3.0149 -0.6038,0.93164 -1.3371,1.76407 -2.1997,2.49731 -0.8626,0.73324 -1.8202,1.33276 -2.8726,1.79858 -0.1725,-0.58658 -0.2933,-1.18611 -0.3623,-1.79858 -0.069,-0.61247 -0.1078,-1.22925 -0.1164,-1.85034 -0.0087,-0.6211 -0.0043,-1.23788 0.0129,-1.85034 0.0173,-0.61247 0.0259,-1.22925 0.0259,-1.85035 h -4.5288 c -0.0173,0 -0.0302,0.00432 -0.0388,0.01294 -0.0087,0.00863 -0.0216,0.01294 -0.0389,0.01294 v 0.05176 l 2.6656,9.290528 c 0.069,0.224282 0.1035,0.483072 0.1035,0.776372 0,0.82812 -0.2761,1.51822 -0.8281,2.07031 -0.5521,0.55208 -1.2422,0.82812 -2.0703,0.82812 h -1.3199 c -0.3968,0 -0.7246,-0.13802 -0.9834,-0.41406 -0.2588,-0.27604 -0.3882,-0.60384 -0.3882,-0.9834 0,-0.37956 0.0734,-0.66422 0.22,-0.854 0.1467,-0.18978 0.3364,-0.32349 0.5694,-0.40112 0.2329,-0.07764 0.4917,-0.11646 0.7763,-0.11646 0.2847,0 0.565,0 0.8411,0 0.0517,0 0.1121,0 0.1811,0 0.069,0 0.1294,-0.01725 0.1812,-0.05176 l 0.0259,-0.07763 -2.6656,-9.29053 c -0.069,-0.22429 -0.1035,-0.48307 -0.1035,-0.77637 0,-0.82812 0.2761,-1.5096 0.8282,-2.04447 0.552,-0.5348 1.2335,-0.8022 2.0444,-0.8022 h 4.5288 v -4.5288 c -0.5176,-0.5176 -1.0308,-1.0395 -1.5398,-1.5657 -0.509,-0.5262 -1.0395,-1.0395 -1.5916,-1.5398 -0.1207,-0.1208 -0.2674,-0.1811 -0.4399,-0.1811 -0.0863,0 -0.2329,0.0992 -0.4399,0.2976 -0.2071,0.1984 -0.4486,0.4528 -0.7246,0.7634 -0.2761,0.3105 -0.5694,0.6513 -0.8799,1.0222 -0.3106,0.3709 -0.6039,0.7246 -0.8799,1.061 -0.2761,0.3365 -0.5262,0.6427 -0.7505,0.9188 -0.2243,0.276 -0.3796,0.4658 -0.4658,0.5693 -0.2933,0.3278 -0.5866,0.5779 -0.8799,0.7505 -0.2933,0.1725 -0.6038,0.3019 -0.9316,0.3882 -0.3278,0.0862 -0.6686,0.138 -1.0223,0.1552 -0.3536,0.0173 -0.7289,0.0259 -1.1257,0.0259 -0.3796,0 -0.7074,-0.138 -0.9834,-0.4141 -0.276,-0.276 -0.4141,-0.6038 -0.4141,-0.9834 0,-0.3795 0.1381,-0.7073 0.4141,-0.9833 0.276,-0.2761 0.6038,-0.4141 0.9834,-0.4141 0.1208,0 0.2415,0.0043 0.3623,0.0129 0.1208,0.0087 0.2415,0.013 0.3623,0.013 0.1898,0 0.3839,-0.0216 0.5823,-0.0647 0.1984,-0.0432 0.3666,-0.1424 0.5046,-0.2976 l 3.7007,-4.3995 c 0.3451,-0.3968 0.7419,-0.6944 1.1904,-0.8928 0.4486,-0.1984 0.9317,-0.2976 1.4493,-0.2976 0.414,0 0.7806,0.0604 1.0998,0.1812 0.3192,0.1207 0.6125,0.2846 0.8799,0.4917 0.2674,0.207 0.5262,0.4356 0.7764,0.6858 0.2501,0.2501 0.5046,0.5046 0.7634,0.7634 v -2.9243 c 0,-0.4831 0.0906,-0.936 0.2717,-1.3587 0.1812,-0.4227 0.4313,-0.7936 0.7505,-1.1128 0.3192,-0.3191 0.6901,-0.5693 1.1128,-0.7505 0.4227,-0.1811 0.8756,-0.2717 1.3586,-0.2717 h -0.7763 c -0.2933,0 -0.5823,-0.0172 -0.867,-0.0517 -0.2846,-0.0345 -0.5434,-0.1036 -0.7763,-0.2071 -0.2329,-0.1035 -0.4227,-0.2631 -0.5694,-0.4787 -0.1466,-0.2157 -0.2372,-0.5047 -0.2717,-0.867 -1.0006,-0.3278 -1.7339,-0.7634 -2.1997,-1.3069 -0.4658,-0.5434 -0.7764,-1.1559 -0.9316,-1.8374 -0.1553,-0.6814 -0.2157,-1.419 -0.1812,-2.2126 0.0345,-0.7936 0.0518,-1.6131 0.0518,-2.4585 0,-0.4486 -0.1337,-0.7764 -0.4012,-0.9834 -0.2674,-0.207 -0.5607,-0.3925 -0.8798,-0.5564 -0.3192,-0.1639 -0.6125,-0.3494 -0.8799,-0.5564 -0.2674,-0.207 -0.4012,-0.5348 -0.4012,-0.9834 0,-0.3968 0.1381,-0.7289 0.4141,-0.9963 0.2761,-0.2674 0.6125,-0.4012 1.0093,-0.4012 0.276,0 0.5693,0.0906 0.8799,0.2718 0.3105,0.1811 0.5866,0.3407 0.8281,0.4787 0.6901,0.3968 1.2292,0.9144 1.6174,1.5528 0.3882,0.6383 0.5823,1.3543 0.5823,2.1479 v 3.6748 c 0,0.4313 0.1251,0.7591 0.3752,0.9834 0.2502,0.2243 0.5651,0.3968 0.9446,0.5176 0.3796,-0.6901 0.8282,-1.3328 1.3457,-1.928 0.5176,-0.5952 1.1042,-1.1085 1.7598,-1.5398 0.4486,-1.0351 1.1344,-1.8676 2.0574,-2.4973 0.923,-0.6297 1.9538,-0.9446 3.0925,-0.9446 1.1387,0 2.1738,0.3106 3.1055,0.9317 0.9316,0.6211 1.6131,1.4578 2.0444,2.5102 0.6556,0.4313 1.2422,0.9403 1.7598,1.5269 0.5175,0.5866 0.9575,1.2249 1.3198,1.915 0.2933,-0.069 0.5262,-0.1811 0.6987,-0.3364 0.1725,-0.1553 0.3063,-0.3364 0.4011,-0.5435 0.0949,-0.207 0.1553,-0.4356 0.1812,-0.6858 0.0259,-0.2501 0.0388,-0.5046 0.0388,-0.7634 0,-0.345 -0.0129,-0.6987 -0.0388,-1.061 -0.0259,-0.3623 -0.0388,-0.716 -0.0388,-1.061 0,-0.9834 0.1466,-1.8375 0.4399,-2.5621 0.2933,-0.7246 0.8885,-1.337 1.7857,-1.8374 0.2415,-0.138 0.5219,-0.2976 0.841,-0.4787 0.3192,-0.1812 0.6168,-0.2718 0.8929,-0.2718 0.3968,0 0.7289,0.1381 0.9963,0.4141 0.2674,0.2761 0.4011,0.6125 0.4011,1.0093 0,0.4313 -0.1337,0.7505 -0.4011,0.9575 -0.2674,0.207 -0.5564,0.3925 -0.867,0.5564 -0.3105,0.1639 -0.5995,0.3537 -0.8669,0.5693 -0.2674,0.2157 -0.4011,0.5392 -0.4011,0.9705 0,0.3968 0.0086,0.7893 0.0259,1.1775 0.0172,0.3882 0.0258,0.7807 0.0258,1.1775 0,0.6383 -0.0388,1.2465 -0.1164,1.8244 -0.0777,0.578 -0.2329,1.1085 -0.4658,1.5916 -0.2329,0.4831 -0.5651,0.9014 -0.9964,1.2551 -0.4313,0.3537 -1.0006,0.6168 -1.708,0.7893 -0.0345,0.4486 -0.1639,0.785 -0.3882,1.0093 -0.2243,0.2243 -0.4917,0.3796 -0.8022,0.4658 -0.3106,0.0863 -0.6513,0.1294 -1.0222,0.1294 -0.371,0 -0.7203,0 -1.0481,0 0.483,0 0.9359,0.0906 1.3586,0.2717 0.4227,0.1812 0.7936,0.4314 1.1128,0.7505 0.3192,0.3192 0.5693,0.6901 0.7505,1.1128 0.1812,0.4227 0.2717,0.8756 0.2717,1.3587 v 3.0796 c 0.2761,-0.2761 0.5392,-0.5478 0.7893,-0.8152 0.2502,-0.2674 0.5176,-0.509 0.8023,-0.7246 0.2846,-0.2157 0.5952,-0.3925 0.9316,-0.5305 0.3364,-0.1381 0.7203,-0.2071 1.1516,-0.2071 1.0524,0 1.9237,0.3968 2.6138,1.1904 l 3.7007,4.3995 c 0.207,0.2415 0.4874,0.358 0.841,0.3493 0.3537,-0.0086 0.6772,-0.0129 0.9705,-0.0129 0.3968,0 0.7289,0.1337 0.9963,0.4011 0.2675,0.2674 0.4012,0.5995 0.4012,0.9963 0,0.3278 -0.0647,0.5866 -0.1941,0.7764 -0.1294,0.1898 -0.2976,0.3278 -0.5047,0.4141 -0.207,0.0862 -0.4356,0.1423 -0.6858,0.1682 -0.2501,0.0259 -0.5046,0.0388 -0.7634,0.0388 -0.6556,0 -1.2422,-0.0949 -1.7597,-0.2847 -0.5176,-0.1897 -1.0007,-0.5348 -1.4493,-1.0351 -0.0862,-0.1035 -0.2372,-0.289 -0.4528,-0.5564 -0.2157,-0.2674 -0.4659,-0.5737 -0.7505,-0.9187 -0.2847,-0.3451 -0.5823,-0.7031 -0.8929,-1.074 -0.3105,-0.3709 -0.5995,-0.7117 -0.8669,-1.0222 -0.2674,-0.3106 -0.509,-0.565 -0.7246,-0.7634 -0.2157,-0.1984 -0.358,-0.2976 -0.427,-0.2976 -0.207,0 -0.4701,0.1509 -0.7893,0.4528 -0.3192,0.302 -0.6556,0.647 -1.0093,1.0352 -0.3537,0.3882 -0.703,0.7677 -1.0481,1.1387 -0.345,0.3709 -0.6383,0.6168 -0.8799,0.7375 v 4.4512 h 4.5288 c 0.3968,0 0.7721,0.0733 1.1258,0.22 0.3536,0.1466 0.6599,0.3493 0.9187,0.6081 0.2588,0.2588 0.4615,0.56504 0.6081,0.91872 0.1467,0.35368 0.22,0.72892 0.22,1.12573 0,0.27604 -0.0345,0.5262 -0.1035,0.75049 -0.2933,1.13867 -0.6125,2.26872 -0.9575,3.39014 -0.3451,1.12141 -0.6815,2.25146 -1.0093,3.390132 -0.1035,0.379557 -0.2372,0.8108721 -0.4011,1.293945 -0.1639,0.483073 -0.2631,0.914383 -0.2976,1.293943 0.0862,0.05176 0.2544,0.07333 0.5046,0.0647 0.2502,-0.00863 0.427,-0.01294 0.5305,-0.01294 0.4831,0 0.8971,0.08626 1.2422,0.25879 0.345,0.17253 0.5176,0.54346 0.5176,1.11279 0,0.31055 -0.0604,0.56071 -0.1812,0.75049 -0.1208,0.18978 -0.2803,0.33211 -0.4787,0.427 C 52.297,4.53312 52.077,4.59351 51.8354,4.61938 51.5939,4.64526 51.3437,4.6582 51.085,4.6582 h -0.647 c -0.3968,0 -0.7678,-0.07763 -1.1128,-0.23291 C 48.9801,4.27002 48.6782,4.06299 48.4194,3.8042 48.1606,3.54541 47.9536,3.24349 47.7983,2.89844 47.6431,2.55339 47.5654,2.18245 47.5654,1.78564 c 0,-0.31054 0.0345,-0.57796 0.1035,-0.802242 L 50.3345,-8.30713 50.3086,-8.35889 50.2568,-8.38477 H 45.728 c 0,0.50033 0.0087,1.00497 0.0259,1.51392 0.0173,0.50895 0.0259,1.01359 0.0259,1.51392 0,0.72461 -0.0345,1.44922 -0.1035,2.17382 -0.069,0.72461 -0.1984,1.4406 -0.3882,2.14795 C 44.2357,-1.50098 43.2782,-2.1005 42.4155,-2.83374 41.5529,-3.56698 40.811,-4.39941 40.1899,-5.33105 39.5688,-6.2627 39.0901,-7.26766 38.7537,-8.34595 38.4172,-9.42423 38.249,-10.5413 38.249,-11.6973 v -14.3369 z"
       fill="#6d4534"
       transform="translate(488.614,204)"
       id="path99" />
    <text
       font-family="Calibri, Calibri_MSFontService, sans-serif"
       font-weight="400"
       font-size="32px"
       transform="translate(341.032,291)"
       id="text123">M is a true subset of set <tspan
   font-size="32px"
   x="318"
   y="0"
   id="tspan101">O</tspan><tspan
   font-size="32px"
   x="0"
   y="38"
   id="tspan103">M</tspan><tspan
   font-family="'Cambria Math', 'Cambria Math_MSFontService', sans-serif"
   font-size="32px"
   x="34.5"
   y="38"
   id="tspan105"></tspan><tspan
   font-size="32px"
   x="65.5"
   y="38"
   id="tspan107">O</tspan><tspan
   font-style="italic"
   font-weight="700"
   font-size="64px"
   x="-319.51199"
   y="139"
   id="tspan109">P</tspan><tspan
   font-weight="700"
   font-size="64px"
   x="-285.51199"
   y="139"
   id="tspan111">(M)</tspan><tspan
   font-size="64px"
   x="-175.01199"
   y="139"
   id="tspan113">=</tspan><tspan
   font-size="88px"
   x="-133.409"
   y="145"
   id="tspan115">{</tspan><tspan
   font-size="88px"
   x="400.42401"
   y="145"
   id="tspan117">}</tspan><tspan
   fill="#333333"
   font-family="'Segoe UI Emoji', 'Segoe UI Emoji_MSFontService', sans-serif"
   font-size="53px"
   x="-107.035"
   y="135"
   id="tspan119">{}</tspan><tspan
   fill="#333333"
   font-family="'Segoe UI Emoji', 'Segoe UI Emoji_MSFontService', sans-serif"
   font-size="53px"
   x="-74.701302"
   y="135"
   id="tspan121">, {</tspan></text>
    <path
       d="m 14.0522,-31.624 c 0,-1.0352 0.1941,-2.0056 0.5823,-2.9114 0.3882,-0.9058 0.9187,-1.6951 1.5916,-2.3679 0.6728,-0.6729 1.4621,-1.2034 2.3679,-1.5916 0.9058,-0.3882 1.8762,-0.5822 2.9114,-0.5822 h 29.7607 c 1.0352,0 2.0013,0.194 2.8985,0.5822 0.8971,0.3882 1.6821,0.9187 2.3549,1.5916 0.6729,0.6728 1.2034,1.4621 1.5916,2.3679 0.3882,0.9058 0.5823,1.8762 0.5823,2.9114 v 26.03416 c 0,1.03515 -0.1941,2.00561 -0.5823,2.91137 -0.3882,0.90576 -0.9187,1.695072 -1.5916,2.367923 -0.6728,0.672852 -1.4578,1.203369 -2.3549,1.591557 -0.8972,0.38818 -1.8633,0.58227 -2.8985,0.58227 H 21.5054 c -1.0352,0 -2.0056,-0.19409 -2.9114,-0.58227 C 17.6882,0.892822 16.8989,0.362305 16.2261,-0.310547 15.5532,-0.983398 15.0227,-1.77271 14.6345,-2.67847 14.2463,-3.58423 14.0522,-4.55469 14.0522,-5.58984 Z"
       fill="#f3c07b"
       transform="translate(308.664,426)"
       id="path125" />
    <path
       d="m 51.3696,-7.73779 c 0,0.93164 -0.1768,1.86759 -0.5305,2.80786 -0.3537,0.94027 -0.7634,1.79858 -1.2292,2.57495 -0.6729,1.13867 -1.4795,2.212646 -2.4197,3.221923 -0.9403,1.009277 -1.9754,1.889157 -3.1055,2.639647 -1.13,0.75049 -2.3377,1.34139 -3.623,1.77271 -1.2854,0.43131 -2.6095,0.64697 -3.9724,0.64697 -1.156,0 -2.3335,-0.16821 -3.5325,-0.50464 C 31.7577,5.08521 30.6061,4.61507 29.502,4.01123 28.3978,3.40739 27.3583,2.68278 26.3835,1.8374 25.4088,0.992025 24.5591,0.0646972 23.8345,-0.94458 c -0.7246,-1.00928 -1.294,-2.08757 -1.708,-3.23486 -0.4141,-1.1473 -0.6211,-2.33342 -0.6211,-3.55835 0,-1.39746 0.207,-2.63961 0.6211,-3.72661 0.414,-1.0869 0.979,-2.0314 1.695,-2.8337 0.716,-0.8022 1.5614,-1.4837 2.5362,-2.0444 0.9747,-0.5607 2.0142,-1.0093 3.1184,-1.3457 1.1041,-0.3365 2.2557,-0.5823 3.4548,-0.7376 1.1991,-0.1553 2.3852,-0.2329 3.5584,-0.2329 1.1559,0 2.3291,0.0776 3.5195,0.2329 1.1904,0.1553 2.3377,0.4098 3.4419,0.7634 1.1041,0.3537 2.135,0.8109 3.0925,1.3716 0.9575,0.5607 1.7943,1.2465 2.5103,2.0574 0.7159,0.8109 1.281,1.7511 1.695,2.8208 0.4141,1.0697 0.6211,2.2946 0.6211,3.67481 z"
       fill="#ffdea7"
       transform="translate(308.664,426)"
       id="path127" />
    <path
       d="m 30.7959,-2.51025 5.5898,-4.16651 5.5899,4.16651 v 4.37353 c 0,0.77637 -0.1467,1.50098 -0.44,2.17383 -0.2933,0.67285 -0.6944,1.25944 -1.2033,1.75977 -0.509,0.50032 -1.0999,0.89713 -1.7727,1.19042 -0.6729,0.2933 -1.3975,0.43995 -2.1739,0.43995 -0.7763,0 -1.5009,-0.14665 -2.1738,-0.43995 C 33.5391,6.69401 32.9482,6.2972 32.4392,5.79688 31.9303,5.29655 31.5291,4.70996 31.2358,4.03711 30.9425,3.36426 30.7959,2.63965 30.7959,1.86328 Z"
       fill="#ca0b4a"
       transform="translate(308.664,426)"
       id="path129" />
    <path
       d="m 12.9653,-16.9507 c -0.3278,0 -0.634,-0.0604 -0.9187,-0.1811 -0.2846,-0.1208 -0.5305,-0.2847 -0.7375,-0.4917 -0.207,-0.2071 -0.3709,-0.4529 -0.4917,-0.7376 -0.1208,-0.2847 -0.1812,-0.5909 -0.1812,-0.9187 v -13.0947 c 0,-1.1559 0.22,-2.2428 0.6599,-3.2608 0.44,-1.0179 1.0395,-1.9064 1.7986,-2.6655 0.7591,-0.7591 1.6433,-1.3586 2.6526,-1.7986 1.0093,-0.4399 2.0919,-0.6599 3.2478,-0.6599 h 7.5308 c 0.6556,0 1.212,0.2286 1.6692,0.6858 0.4572,0.4572 0.6858,1.0136 0.6858,1.6692 0,0.4831 -0.1467,0.923 -0.44,1.3198 l -13.5864,19.1504 c -0.4658,0.6556 -1.0955,0.9834 -1.8892,0.9834 z m 46.7632,0 c 0.6556,0 1.212,-0.2243 1.6692,-0.6728 0.4572,-0.4486 0.6858,-1.0007 0.6858,-1.6563 v -13.0947 c 0,-1.1559 -0.22,-2.2428 -0.6599,-3.2608 -0.44,-1.0179 -1.0395,-1.9064 -1.7986,-2.6655 -0.7591,-0.7591 -1.6476,-1.3586 -2.6655,-1.7986 -1.0179,-0.4399 -2.1048,-0.6599 -3.2608,-0.6599 H 46.168 c -0.6556,0 -1.2077,0.2286 -1.6563,0.6858 -0.4486,0.4572 -0.6728,1.005 -0.6728,1.6433 0,0.5004 0.1466,0.9489 0.4399,1.3457 l 13.5864,19.1504 c 0.4659,0.6556 1.0869,0.9834 1.8633,0.9834 z"
       fill="#6d4534"
       transform="translate(308.664,426)"
       id="path131" />
    <path
       d="m 28.9326,-24.1968 c 0,-0.5003 0.1855,-0.9316 0.5564,-1.2939 0.3709,-0.3623 0.8066,-0.5435 1.3069,-0.5435 0.5003,0 0.936,0.1812 1.3069,0.5435 0.3709,0.3623 0.5564,0.7936 0.5564,1.2939 v 1.8633 c 0,0.5176 -0.1812,0.9575 -0.5435,1.3198 -0.3623,0.3623 -0.8022,0.5435 -1.3198,0.5435 -0.5003,0 -0.936,-0.1855 -1.3069,-0.5564 -0.3709,-0.3709 -0.5564,-0.8066 -0.5564,-1.3069 z m 11.1797,0 c 0,-0.5003 0.1855,-0.9316 0.5564,-1.2939 0.3709,-0.3623 0.8066,-0.5435 1.3069,-0.5435 0.5003,0 0.9316,0.1812 1.2939,0.5435 0.3623,0.3623 0.5435,0.7936 0.5435,1.2939 v 1.8633 c 0,0.5003 -0.1812,0.936 -0.5435,1.3069 -0.3623,0.3709 -0.7936,0.5564 -1.2939,0.5564 -0.5176,0 -0.9575,-0.1812 -1.3198,-0.5435 -0.3623,-0.3623 -0.5435,-0.8022 -0.5435,-1.3198 z m -1.6045,7.4531 h -4.2959 c -0.2243,0 -0.4313,0.0518 -0.6211,0.1553 -0.1898,0.1035 -0.3537,0.2372 -0.4917,0.4011 -0.138,0.1639 -0.2458,0.3451 -0.3235,0.5435 -0.0776,0.1984 -0.1164,0.4011 -0.1164,0.6082 0,0.3278 0.138,0.6944 0.414,1.0998 0.2761,0.4054 0.6125,0.7893 1.0093,1.1516 0.3968,0.3623 0.8109,0.6642 1.2422,0.9058 0.4313,0.2415 0.8023,0.3623 1.1128,0.3623 0.3278,0 0.703,-0.1251 1.1257,-0.3753 0.4227,-0.2501 0.8238,-0.5564 1.2034,-0.9187 0.3796,-0.3623 0.6987,-0.7504 0.9575,-1.1645 0.2588,-0.4141 0.3882,-0.785 0.3882,-1.1128 0,-0.4141 -0.1639,-0.7936 -0.4917,-1.1387 -0.3278,-0.345 -0.6987,-0.5176 -1.1128,-0.5176 z m -2.1479,5.6158 c -0.4486,0 -0.7117,0.1466 -0.7893,0.4399 -0.0777,0.2933 -0.1165,0.6039 -0.1165,0.93165 0,0.72461 -0.1423,1.44491 -0.427,2.16089 -0.2847,0.71598 -0.6772,1.35864 -1.1775,1.92798 -0.5003,0.56934 -1.0869,1.03084 -1.7598,1.38452 -0.6728,0.35368 -1.3888,0.53052 -2.1479,0.53052 -0.2588,0 -0.4788,0.09057 -0.6599,0.27173 -0.1812,0.18115 -0.2717,0.40112 -0.2717,0.65991 0,0.25879 0.0905,0.47876 0.2717,0.65991 0.1811,0.18115 0.4011,0.27173 0.6599,0.27173 0.6728,0 1.3284,-0.10783 1.9668,-0.32349 0.6383,-0.21565 1.2379,-0.50895 1.7986,-0.87988 0.5607,-0.37093 1.0696,-0.81087 1.5268,-1.31982 0.4572,-0.50896 0.8411,-1.05673 1.1516,-1.64331 0.2933,0.58658 0.6686,1.13435 1.1258,1.64331 0.4572,0.50895 0.9661,0.94889 1.5268,1.31982 0.5607,0.37093 1.1603,0.66423 1.7986,0.87988 0.6384,0.21566 1.294,0.32349 1.9668,0.32349 0.2588,0 0.4788,-0.09058 0.6599,-0.27173 0.1812,-0.18115 0.2718,-0.40112 0.2718,-0.65991 0,-0.25879 -0.0906,-0.47876 -0.2718,-0.65991 -0.1811,-0.18116 -0.4011,-0.27173 -0.6599,-0.27173 -0.7936,0 -1.5182,-0.17253 -2.1738,-0.51758 -0.6556,-0.34505 -1.225,-0.80225 -1.708,-1.37158 -0.4831,-0.56934 -0.867,-1.212 -1.1516,-1.92798 -0.2847,-0.71598 -0.4357,-1.44491 -0.4529,-2.18677 -0.0173,-0.34505 -0.069,-0.65995 -0.1553,-0.94455 -0.0863,-0.2847 -0.3537,-0.427 -0.8022,-0.427 z"
       fill="#212121"
       transform="translate(308.664,426)"
       id="path133" />
    <text
       fill="#333333"
       font-family="'Segoe UI Emoji', 'Segoe UI Emoji_MSFontService', sans-serif"
       font-weight="400"
       font-size="53px"
       transform="translate(381.831,426)"
       id="text135">}, {</text>
    <path
       d="m 14.0522,-36.4116 c 0,-0.7764 0.2675,-1.4104 0.8023,-1.9021 0.5348,-0.4917 1.1818,-0.7376 1.9409,-0.7376 0.7246,0 1.363,0.2588 1.915,0.7764 l 8.6695,8.5142 h 18.2446 l 8.4624,-8.5142 c 0.5176,-0.5176 1.1473,-0.7764 1.8892,-0.7764 0.7591,0 1.4017,0.2502 1.928,0.7505 0.5262,0.5003 0.7893,1.1301 0.7893,1.8892 v 36.101053 c 0,1.000651 -0.1855,1.966797 -0.5564,2.898437 -0.371,0.93164 -0.8799,1.75545 -1.5269,2.47144 -0.647,0.71598 -1.4147,1.28963 -2.3032,1.72094 -0.8885,0.43132 -1.8504,0.64698 -2.8855,0.64698 H 21.3501 c -1.0352,0 -1.997,-0.20272 -2.8855,-0.60816 C 17.5761,6.41366 16.804,5.86588 16.1484,5.17578 15.4928,4.48568 14.9796,3.68774 14.6086,2.78198 14.2377,1.87622 14.0522,0.914388 14.0522,-0.103516 Z"
       fill="#ffb02e"
       transform="translate(440.331,426)"
       id="path137" />
    <path
       d="m 17.1577,-22.7993 c -0.414,0 -0.785,-0.1467 -1.1128,-0.44 -0.3278,-0.2933 -0.4917,-0.6556 -0.4917,-1.0869 v -9.6787 c 0,-0.3968 0.1725,-0.7203 0.5176,-0.9704 0.3451,-0.2502 0.6987,-0.3753 1.061,-0.3753 0.3796,0 0.7246,0.138 1.0352,0.4141 l 5.2017,4.8393 c 0.138,0.1208 0.2415,0.2761 0.3105,0.4659 0.069,0.1897 0.1035,0.3795 0.1035,0.5693 0,0.1898 -0.0345,0.3709 -0.1035,0.5434 -0.069,0.1726 -0.1725,0.3278 -0.3105,0.4659 l -5.2017,4.8393 c -0.3106,0.2761 -0.647,0.4141 -1.0093,0.4141 z m 38.5596,0 c 0.414,0 0.785,-0.1467 1.1128,-0.44 0.3278,-0.2933 0.4917,-0.6556 0.4917,-1.0869 v -9.6787 c 0,-0.3968 -0.1725,-0.7203 -0.5176,-0.9704 -0.3451,-0.2502 -0.6987,-0.3753 -1.061,-0.3753 -0.3796,0 -0.7246,0.138 -1.0352,0.4141 l -5.2017,4.8393 c -0.2932,0.2588 -0.4399,0.6039 -0.4399,1.0352 0,0.1898 0.0388,0.3709 0.1165,0.5434 0.0776,0.1726 0.1854,0.3278 0.3234,0.4659 l 5.2017,4.8393 c 0.3106,0.2761 0.647,0.4141 1.0093,0.4141 z"
       fill="#ff822d"
       transform="translate(440.331,426)"
       id="path139" />
    <path
       d="m 38.3267,-11.1538 c 0.2587,0 0.4787,0.0906 0.6599,0.2717 0.1811,0.1812 0.2717,0.4011 0.2717,0.6599 0,0.24157 -0.0949,0.45723 -0.2847,0.647 l -1.9409,1.94092 c -0.1898,0.18978 -0.4054,0.28467 -0.647,0.28467 -0.2415,0 -0.4572,-0.09489 -0.6469,-0.28467 L 33.7979,-9.5752 c -0.1898,-0.18977 -0.2847,-0.40543 -0.2847,-0.647 0,-0.2588 0.0906,-0.4787 0.2717,-0.6599 0.1812,-0.1811 0.4011,-0.2717 0.6599,-0.2717 z"
       fill="#f70a8d"
       transform="translate(440.331,426)"
       id="path141" />
    <path
       d="m 11.2832,-11.1797 c 0.0863,0 0.1596,0.0086 0.22,0.0259 0.0604,0.0172 0.1251,0.0431 0.1941,0.0776 l 7.4272,3.72659 c 0.3451,0.17253 0.5176,0.44857 0.5176,0.82813 0,0.24153 -0.0906,0.45719 -0.2717,0.64697 -0.1812,0.18978 -0.4012,0.28467 -0.66,0.28467 -0.1552,0 -0.2932,-0.03451 -0.414,-0.10352 l -7.4273,-3.70068 c -0.345,-0.17253 -0.5175,-0.44857 -0.5175,-0.82816 0,-0.276 0.0905,-0.5046 0.2717,-0.6858 0.1811,-0.1811 0.4011,-0.2717 0.6599,-0.2717 z M 11.2573,1.86328 c -0.2588,0 -0.4744,-0.09489 -0.6469,-0.28467 -0.1726,-0.18978 -0.2588,-0.41406 -0.2588,-0.672848 0,-0.362305 0.1725,-0.62972 0.5175,-0.802246 l 7.4273,-3.726566 c 0.1208,-0.06901 0.2588,-0.10351 0.414,-0.10351 0.2588,0 0.4788,0.09489 0.66,0.28467 0.1811,0.18977 0.2717,0.40543 0.2717,0.64697 0,0.37956 -0.1725,0.6556 -0.5176,0.82812 l -7.4272,3.72657 c -0.1208,0.06901 -0.2675,0.10351 -0.44,0.10351 z m 50.231,-13.04298 c 0.2588,0 0.4787,0.0906 0.6599,0.2717 0.1811,0.1812 0.2717,0.4098 0.2717,0.6858 0,0.37959 -0.1725,0.65563 -0.5176,0.82816 l -7.4272,3.70068 c -0.1208,0.06901 -0.2674,0.10352 -0.4399,0.10352 -0.2416,0 -0.4529,-0.09058 -0.6341,-0.27173 -0.1811,-0.18115 -0.2717,-0.40112 -0.2717,-0.65991 0,-0.37956 0.1725,-0.6556 0.5176,-0.82813 l 7.4272,-3.72659 c 0.069,-0.0345 0.1337,-0.0604 0.1941,-0.0776 0.0604,-0.0173 0.1337,-0.0259 0.22,-0.0259 z m 0.0259,13.04298 c -0.1726,0 -0.3192,-0.0345 -0.44,-0.10351 L 53.647,-1.9668 c -0.3451,-0.17252 -0.5176,-0.44856 -0.5176,-0.82812 0,-0.24154 0.0906,-0.4572 0.2717,-0.64697 0.1812,-0.18978 0.3925,-0.28467 0.6341,-0.28467 0.1725,0 0.3191,0.0345 0.4399,0.10351 l 7.4272,3.726566 c 0.3451,0.172526 0.5176,0.439941 0.5176,0.802246 0,0.258788 -0.0862,0.483068 -0.2588,0.672848 -0.1725,0.18978 -0.3882,0.28467 -0.6469,0.28467 z"
       fill="#ff6723"
       transform="translate(440.331,426)"
       id="path143" />
    <path
       d="m 28.9326,-16.7437 c 0.5176,0 0.9575,0.1812 1.3198,0.5435 0.3623,0.3623 0.5435,0.8023 0.5435,1.3198 v 1.8633 c 0,0.5003 -0.1855,0.936 -0.5564,1.3069 -0.3709,0.3709 -0.8066,0.5564 -1.3069,0.5564 -0.5003,0 -0.9316,-0.1855 -1.2939,-0.5564 -0.3623,-0.3709 -0.5435,-0.8066 -0.5435,-1.3069 v -1.8633 c 0,-0.5003 0.1812,-0.9359 0.5435,-1.3069 0.3623,-0.3709 0.7936,-0.5564 1.2939,-0.5564 z m 14.8804,0 c 0.5176,0 0.9575,0.1812 1.3198,0.5435 0.3623,0.3623 0.5435,0.8023 0.5435,1.3198 v 1.8633 c 0,0.5003 -0.1855,0.936 -0.5564,1.3069 -0.371,0.3709 -0.8066,0.5564 -1.3069,0.5564 -0.5003,0 -0.9317,-0.1855 -1.294,-0.5564 -0.3623,-0.3709 -0.5434,-0.8066 -0.5434,-1.3069 v -1.8633 c 0,-0.5003 0.1811,-0.9359 0.5434,-1.3069 0.3623,-0.3709 0.7937,-0.5564 1.294,-0.5564 z"
       fill="#402a32"
       transform="translate(440.331,426)"
       id="path145" />
    <path
       d="m 36.3857,-5.38281 c 0.6039,0.60384 1.3242,1.03084 2.1609,1.281 0.8368,0.25017 1.6692,0.37525 2.4973,0.37525 0.8282,0 1.652,-0.12508 2.4715,-0.37525 0.8195,-0.25016 1.5311,-0.66853 2.135,-1.25512 -0.207,1.20768 -0.5693,2.31185 -1.0869,3.3125 -0.5176,1.00065 -1.1732,1.858965 -1.9668,2.574948 C 41.8031,1.2465 40.8844,1.8029 39.8406,2.19971 c -1.0438,0.39681 -2.1954,0.59521 -3.4549,0.59521 -1.2594,0 -2.411,-0.1984 -3.4548,-0.59521 C 31.8871,1.8029 30.9684,1.2465 30.1748,0.530518 29.3812,-0.185465 28.7256,-1.04378 28.208,-2.04443 c -0.5176,-1.00065 -0.8799,-2.10482 -1.0869,-3.3125 0.6038,0.58659 1.3155,1.00496 2.135,1.25512 0.8195,0.25017 1.6433,0.37525 2.4714,0.37525 0.8282,0 1.6606,-0.12508 2.4974,-0.37525 0.8367,-0.25016 1.557,-0.67716 2.1608,-1.281 z"
       fill="#bb1d80"
       transform="translate(440.331,426)"
       id="path147" />
    <text
       fill="#333333"
       font-family="'Segoe UI Emoji', 'Segoe UI Emoji_MSFontService', sans-serif"
       font-weight="400"
       font-size="53px"
       transform="translate(513.497,426)"
       id="text149">}, {</text>
    <path
       d="m 14.0522,-31.624 c 0,-1.0352 0.1941,-2.0056 0.5823,-2.9114 0.3882,-0.9058 0.9187,-1.6951 1.5916,-2.3679 0.6728,-0.6729 1.4621,-1.2034 2.3679,-1.5916 0.9058,-0.3882 1.8762,-0.5822 2.9114,-0.5822 h 29.7607 c 1.0352,0 2.0013,0.194 2.8985,0.5822 0.8971,0.3882 1.6821,0.9187 2.3549,1.5916 0.6729,0.6728 1.2034,1.4621 1.5916,2.3679 0.3882,0.9058 0.5823,1.8762 0.5823,2.9114 v 26.03416 c 0,1.03515 -0.1941,2.00561 -0.5823,2.91137 -0.3882,0.90576 -0.9187,1.695072 -1.5916,2.367923 -0.6728,0.672852 -1.4578,1.203369 -2.3549,1.591557 -0.8972,0.38818 -1.8633,0.58227 -2.8985,0.58227 H 21.5054 c -1.0352,0 -2.0056,-0.19409 -2.9114,-0.58227 C 17.6882,0.892822 16.8989,0.362305 16.2261,-0.310547 15.5532,-0.983398 15.0227,-1.77271 14.6345,-2.67847 14.2463,-3.58423 14.0522,-4.55469 14.0522,-5.58984 Z"
       fill="#f3c07b"
       transform="translate(571.997,426)"
       id="path151" />
    <path
       d="m 51.3696,-7.73779 c 0,0.93164 -0.1768,1.86759 -0.5305,2.80786 -0.3537,0.94027 -0.7634,1.79858 -1.2292,2.57495 -0.6729,1.13867 -1.4795,2.212646 -2.4197,3.221923 -0.9403,1.009277 -1.9754,1.889157 -3.1055,2.639647 -1.13,0.75049 -2.3377,1.34139 -3.623,1.77271 -1.2854,0.43131 -2.6095,0.64697 -3.9724,0.64697 -1.156,0 -2.3335,-0.16821 -3.5325,-0.50464 C 31.7577,5.08521 30.6061,4.61507 29.502,4.01123 28.3978,3.40739 27.3583,2.68278 26.3835,1.8374 25.4088,0.992025 24.5591,0.0646972 23.8345,-0.94458 c -0.7246,-1.00928 -1.294,-2.08757 -1.708,-3.23486 -0.4141,-1.1473 -0.6211,-2.33342 -0.6211,-3.55835 0,-1.39746 0.207,-2.63961 0.6211,-3.72661 0.414,-1.0869 0.979,-2.0314 1.695,-2.8337 0.716,-0.8022 1.5614,-1.4837 2.5362,-2.0444 0.9747,-0.5607 2.0142,-1.0093 3.1184,-1.3457 1.1041,-0.3365 2.2557,-0.5823 3.4548,-0.7376 1.1991,-0.1553 2.3852,-0.2329 3.5584,-0.2329 1.1559,0 2.3291,0.0776 3.5195,0.2329 1.1904,0.1553 2.3377,0.4098 3.4419,0.7634 1.1041,0.3537 2.135,0.8109 3.0925,1.3716 0.9575,0.5607 1.7943,1.2465 2.5103,2.0574 0.7159,0.8109 1.281,1.7511 1.695,2.8208 0.4141,1.0697 0.6211,2.2946 0.6211,3.67481 z"
       fill="#ffdea7"
       transform="translate(571.997,426)"
       id="path153" />
    <path
       d="m 30.7959,-2.51025 5.5898,-4.16651 5.5899,4.16651 v 4.37353 c 0,0.77637 -0.1467,1.50098 -0.44,2.17383 -0.2933,0.67285 -0.6944,1.25944 -1.2033,1.75977 -0.509,0.50032 -1.0999,0.89713 -1.7727,1.19042 -0.6729,0.2933 -1.3975,0.43995 -2.1739,0.43995 -0.7763,0 -1.5009,-0.14665 -2.1738,-0.43995 C 33.5391,6.69401 32.9482,6.2972 32.4392,5.79688 31.9303,5.29655 31.5291,4.70996 31.2358,4.03711 30.9425,3.36426 30.7959,2.63965 30.7959,1.86328 Z"
       fill="#ca0b4a"
       transform="translate(571.997,426)"
       id="path155" />
    <path
       d="m 12.9653,-16.9507 c -0.3278,0 -0.634,-0.0604 -0.9187,-0.1811 -0.2846,-0.1208 -0.5305,-0.2847 -0.7375,-0.4917 -0.207,-0.2071 -0.3709,-0.4529 -0.4917,-0.7376 -0.1208,-0.2847 -0.1812,-0.5909 -0.1812,-0.9187 v -13.0947 c 0,-1.1559 0.22,-2.2428 0.6599,-3.2608 0.44,-1.0179 1.0395,-1.9064 1.7986,-2.6655 0.7591,-0.7591 1.6433,-1.3586 2.6526,-1.7986 1.0093,-0.4399 2.0919,-0.6599 3.2478,-0.6599 h 7.5308 c 0.6556,0 1.212,0.2286 1.6692,0.6858 0.4572,0.4572 0.6858,1.0136 0.6858,1.6692 0,0.4831 -0.1467,0.923 -0.44,1.3198 l -13.5864,19.1504 c -0.4658,0.6556 -1.0955,0.9834 -1.8892,0.9834 z m 46.7632,0 c 0.6556,0 1.212,-0.2243 1.6692,-0.6728 0.4572,-0.4486 0.6858,-1.0007 0.6858,-1.6563 v -13.0947 c 0,-1.1559 -0.22,-2.2428 -0.6599,-3.2608 -0.44,-1.0179 -1.0395,-1.9064 -1.7986,-2.6655 -0.7591,-0.7591 -1.6476,-1.3586 -2.6655,-1.7986 -1.0179,-0.4399 -2.1048,-0.6599 -3.2608,-0.6599 H 46.168 c -0.6556,0 -1.2077,0.2286 -1.6563,0.6858 -0.4486,0.4572 -0.6728,1.005 -0.6728,1.6433 0,0.5004 0.1466,0.9489 0.4399,1.3457 l 13.5864,19.1504 c 0.4659,0.6556 1.0869,0.9834 1.8633,0.9834 z"
       fill="#6d4534"
       transform="translate(571.997,426)"
       id="path157" />
    <path
       d="m 28.9326,-24.1968 c 0,-0.5003 0.1855,-0.9316 0.5564,-1.2939 0.3709,-0.3623 0.8066,-0.5435 1.3069,-0.5435 0.5003,0 0.936,0.1812 1.3069,0.5435 0.3709,0.3623 0.5564,0.7936 0.5564,1.2939 v 1.8633 c 0,0.5176 -0.1812,0.9575 -0.5435,1.3198 -0.3623,0.3623 -0.8022,0.5435 -1.3198,0.5435 -0.5003,0 -0.936,-0.1855 -1.3069,-0.5564 -0.3709,-0.3709 -0.5564,-0.8066 -0.5564,-1.3069 z m 11.1797,0 c 0,-0.5003 0.1855,-0.9316 0.5564,-1.2939 0.3709,-0.3623 0.8066,-0.5435 1.3069,-0.5435 0.5003,0 0.9316,0.1812 1.2939,0.5435 0.3623,0.3623 0.5435,0.7936 0.5435,1.2939 v 1.8633 c 0,0.5003 -0.1812,0.936 -0.5435,1.3069 -0.3623,0.3709 -0.7936,0.5564 -1.2939,0.5564 -0.5176,0 -0.9575,-0.1812 -1.3198,-0.5435 -0.3623,-0.3623 -0.5435,-0.8022 -0.5435,-1.3198 z m -1.6045,7.4531 h -4.2959 c -0.2243,0 -0.4313,0.0518 -0.6211,0.1553 -0.1898,0.1035 -0.3537,0.2372 -0.4917,0.4011 -0.138,0.1639 -0.2458,0.3451 -0.3235,0.5435 -0.0776,0.1984 -0.1164,0.4011 -0.1164,0.6082 0,0.3278 0.138,0.6944 0.414,1.0998 0.2761,0.4054 0.6125,0.7893 1.0093,1.1516 0.3968,0.3623 0.8109,0.6642 1.2422,0.9058 0.4313,0.2415 0.8023,0.3623 1.1128,0.3623 0.3278,0 0.703,-0.1251 1.1257,-0.3753 0.4227,-0.2501 0.8238,-0.5564 1.2034,-0.9187 0.3796,-0.3623 0.6987,-0.7504 0.9575,-1.1645 0.2588,-0.4141 0.3882,-0.785 0.3882,-1.1128 0,-0.4141 -0.1639,-0.7936 -0.4917,-1.1387 -0.3278,-0.345 -0.6987,-0.5176 -1.1128,-0.5176 z m -2.1479,5.6158 c -0.4486,0 -0.7117,0.1466 -0.7893,0.4399 -0.0777,0.2933 -0.1165,0.6039 -0.1165,0.93165 0,0.72461 -0.1423,1.44491 -0.427,2.16089 -0.2847,0.71598 -0.6772,1.35864 -1.1775,1.92798 -0.5003,0.56934 -1.0869,1.03084 -1.7598,1.38452 -0.6728,0.35368 -1.3888,0.53052 -2.1479,0.53052 -0.2588,0 -0.4788,0.09057 -0.6599,0.27173 -0.1812,0.18115 -0.2717,0.40112 -0.2717,0.65991 0,0.25879 0.0905,0.47876 0.2717,0.65991 0.1811,0.18115 0.4011,0.27173 0.6599,0.27173 0.6728,0 1.3284,-0.10783 1.9668,-0.32349 0.6383,-0.21565 1.2379,-0.50895 1.7986,-0.87988 0.5607,-0.37093 1.0696,-0.81087 1.5268,-1.31982 0.4572,-0.50896 0.8411,-1.05673 1.1516,-1.64331 0.2933,0.58658 0.6686,1.13435 1.1258,1.64331 0.4572,0.50895 0.9661,0.94889 1.5268,1.31982 0.5607,0.37093 1.1603,0.66423 1.7986,0.87988 0.6384,0.21566 1.294,0.32349 1.9668,0.32349 0.2588,0 0.4788,-0.09058 0.6599,-0.27173 0.1812,-0.18115 0.2718,-0.40112 0.2718,-0.65991 0,-0.25879 -0.0906,-0.47876 -0.2718,-0.65991 -0.1811,-0.18116 -0.4011,-0.27173 -0.6599,-0.27173 -0.7936,0 -1.5182,-0.17253 -2.1738,-0.51758 -0.6556,-0.34505 -1.225,-0.80225 -1.708,-1.37158 -0.4831,-0.56934 -0.867,-1.212 -1.1516,-1.92798 -0.2847,-0.71598 -0.4357,-1.44491 -0.4529,-2.18677 -0.0173,-0.34505 -0.069,-0.65995 -0.1553,-0.94455 -0.0863,-0.2847 -0.3537,-0.427 -0.8022,-0.427 z"
       fill="#212121"
       transform="translate(571.997,426)"
       id="path159" />
    <text
       fill="#333333"
       font-family="'Segoe UI Emoji', 'Segoe UI Emoji_MSFontService', sans-serif"
       font-weight="400"
       font-size="53px"
       transform="translate(645.164,426)"
       id="text161">,</text>
    <path
       d="m 14.0522,-36.4116 c 0,-0.7764 0.2675,-1.4104 0.8023,-1.9021 0.5348,-0.4917 1.1818,-0.7376 1.9409,-0.7376 0.7246,0 1.363,0.2588 1.915,0.7764 l 8.6695,8.5142 h 18.2446 l 8.4624,-8.5142 c 0.5176,-0.5176 1.1473,-0.7764 1.8892,-0.7764 0.7591,0 1.4017,0.2502 1.928,0.7505 0.5262,0.5003 0.7893,1.1301 0.7893,1.8892 v 36.101053 c 0,1.000651 -0.1855,1.966797 -0.5564,2.898437 -0.371,0.93164 -0.8799,1.75545 -1.5269,2.47144 -0.647,0.71598 -1.4147,1.28963 -2.3032,1.72094 -0.8885,0.43132 -1.8504,0.64698 -2.8855,0.64698 H 21.3501 c -1.0352,0 -1.997,-0.20272 -2.8855,-0.60816 C 17.5761,6.41366 16.804,5.86588 16.1484,5.17578 15.4928,4.48568 14.9796,3.68774 14.6086,2.78198 14.2377,1.87622 14.0522,0.914388 14.0522,-0.103516 Z"
       fill="#ffb02e"
       transform="translate(656.664,426)"
       id="path163" />
    <path
       d="m 17.1577,-22.7993 c -0.414,0 -0.785,-0.1467 -1.1128,-0.44 -0.3278,-0.2933 -0.4917,-0.6556 -0.4917,-1.0869 v -9.6787 c 0,-0.3968 0.1725,-0.7203 0.5176,-0.9704 0.3451,-0.2502 0.6987,-0.3753 1.061,-0.3753 0.3796,0 0.7246,0.138 1.0352,0.4141 l 5.2017,4.8393 c 0.138,0.1208 0.2415,0.2761 0.3105,0.4659 0.069,0.1897 0.1035,0.3795 0.1035,0.5693 0,0.1898 -0.0345,0.3709 -0.1035,0.5434 -0.069,0.1726 -0.1725,0.3278 -0.3105,0.4659 l -5.2017,4.8393 c -0.3106,0.2761 -0.647,0.4141 -1.0093,0.4141 z m 38.5596,0 c 0.414,0 0.785,-0.1467 1.1128,-0.44 0.3278,-0.2933 0.4917,-0.6556 0.4917,-1.0869 v -9.6787 c 0,-0.3968 -0.1725,-0.7203 -0.5176,-0.9704 -0.3451,-0.2502 -0.6987,-0.3753 -1.061,-0.3753 -0.3796,0 -0.7246,0.138 -1.0352,0.4141 l -5.2017,4.8393 c -0.2932,0.2588 -0.4399,0.6039 -0.4399,1.0352 0,0.1898 0.0388,0.3709 0.1165,0.5434 0.0776,0.1726 0.1854,0.3278 0.3234,0.4659 l 5.2017,4.8393 c 0.3106,0.2761 0.647,0.4141 1.0093,0.4141 z"
       fill="#ff822d"
       transform="translate(656.664,426)"
       id="path165" />
    <path
       d="m 38.3267,-11.1538 c 0.2587,0 0.4787,0.0906 0.6599,0.2717 0.1811,0.1812 0.2717,0.4011 0.2717,0.6599 0,0.24157 -0.0949,0.45723 -0.2847,0.647 l -1.9409,1.94092 c -0.1898,0.18978 -0.4054,0.28467 -0.647,0.28467 -0.2415,0 -0.4572,-0.09489 -0.6469,-0.28467 L 33.7979,-9.5752 c -0.1898,-0.18977 -0.2847,-0.40543 -0.2847,-0.647 0,-0.2588 0.0906,-0.4787 0.2717,-0.6599 0.1812,-0.1811 0.4011,-0.2717 0.6599,-0.2717 z"
       fill="#f70a8d"
       transform="translate(656.664,426)"
       id="path167" />
    <path
       d="m 11.2832,-11.1797 c 0.0863,0 0.1596,0.0086 0.22,0.0259 0.0604,0.0172 0.1251,0.0431 0.1941,0.0776 l 7.4272,3.72659 c 0.3451,0.17253 0.5176,0.44857 0.5176,0.82813 0,0.24153 -0.0906,0.45719 -0.2717,0.64697 -0.1812,0.18978 -0.4012,0.28467 -0.66,0.28467 -0.1552,0 -0.2932,-0.03451 -0.414,-0.10352 l -7.4273,-3.70068 c -0.345,-0.17253 -0.5175,-0.44857 -0.5175,-0.82816 0,-0.276 0.0905,-0.5046 0.2717,-0.6858 0.1811,-0.1811 0.4011,-0.2717 0.6599,-0.2717 z M 11.2573,1.86328 c -0.2588,0 -0.4744,-0.09489 -0.6469,-0.28467 -0.1726,-0.18978 -0.2588,-0.41406 -0.2588,-0.672848 0,-0.362305 0.1725,-0.62972 0.5175,-0.802246 l 7.4273,-3.726566 c 0.1208,-0.06901 0.2588,-0.10351 0.414,-0.10351 0.2588,0 0.4788,0.09489 0.66,0.28467 0.1811,0.18977 0.2717,0.40543 0.2717,0.64697 0,0.37956 -0.1725,0.6556 -0.5176,0.82812 l -7.4272,3.72657 c -0.1208,0.06901 -0.2675,0.10351 -0.44,0.10351 z m 50.231,-13.04298 c 0.2588,0 0.4787,0.0906 0.6599,0.2717 0.1811,0.1812 0.2717,0.4098 0.2717,0.6858 0,0.37959 -0.1725,0.65563 -0.5176,0.82816 l -7.4272,3.70068 c -0.1208,0.06901 -0.2674,0.10352 -0.4399,0.10352 -0.2416,0 -0.4529,-0.09058 -0.6341,-0.27173 -0.1811,-0.18115 -0.2717,-0.40112 -0.2717,-0.65991 0,-0.37956 0.1725,-0.6556 0.5176,-0.82813 l 7.4272,-3.72659 c 0.069,-0.0345 0.1337,-0.0604 0.1941,-0.0776 0.0604,-0.0173 0.1337,-0.0259 0.22,-0.0259 z m 0.0259,13.04298 c -0.1726,0 -0.3192,-0.0345 -0.44,-0.10351 L 53.647,-1.9668 c -0.3451,-0.17252 -0.5176,-0.44856 -0.5176,-0.82812 0,-0.24154 0.0906,-0.4572 0.2717,-0.64697 0.1812,-0.18978 0.3925,-0.28467 0.6341,-0.28467 0.1725,0 0.3191,0.0345 0.4399,0.10351 l 7.4272,3.726566 c 0.3451,0.172526 0.5176,0.439941 0.5176,0.802246 0,0.258788 -0.0862,0.483068 -0.2588,0.672848 -0.1725,0.18978 -0.3882,0.28467 -0.6469,0.28467 z"
       fill="#ff6723"
       transform="translate(656.664,426)"
       id="path169" />
    <path
       d="m 28.9326,-16.7437 c 0.5176,0 0.9575,0.1812 1.3198,0.5435 0.3623,0.3623 0.5435,0.8023 0.5435,1.3198 v 1.8633 c 0,0.5003 -0.1855,0.936 -0.5564,1.3069 -0.3709,0.3709 -0.8066,0.5564 -1.3069,0.5564 -0.5003,0 -0.9316,-0.1855 -1.2939,-0.5564 -0.3623,-0.3709 -0.5435,-0.8066 -0.5435,-1.3069 v -1.8633 c 0,-0.5003 0.1812,-0.9359 0.5435,-1.3069 0.3623,-0.3709 0.7936,-0.5564 1.2939,-0.5564 z m 14.8804,0 c 0.5176,0 0.9575,0.1812 1.3198,0.5435 0.3623,0.3623 0.5435,0.8023 0.5435,1.3198 v 1.8633 c 0,0.5003 -0.1855,0.936 -0.5564,1.3069 -0.371,0.3709 -0.8066,0.5564 -1.3069,0.5564 -0.5003,0 -0.9317,-0.1855 -1.294,-0.5564 -0.3623,-0.3709 -0.5434,-0.8066 -0.5434,-1.3069 v -1.8633 c 0,-0.5003 0.1811,-0.9359 0.5434,-1.3069 0.3623,-0.3709 0.7937,-0.5564 1.294,-0.5564 z"
       fill="#402a32"
       transform="translate(656.664,426)"
       id="path171" />
    <path
       d="m 36.3857,-5.38281 c 0.6039,0.60384 1.3242,1.03084 2.1609,1.281 0.8368,0.25017 1.6692,0.37525 2.4973,0.37525 0.8282,0 1.652,-0.12508 2.4715,-0.37525 0.8195,-0.25016 1.5311,-0.66853 2.135,-1.25512 -0.207,1.20768 -0.5693,2.31185 -1.0869,3.3125 -0.5176,1.00065 -1.1732,1.858965 -1.9668,2.574948 C 41.8031,1.2465 40.8844,1.8029 39.8406,2.19971 c -1.0438,0.39681 -2.1954,0.59521 -3.4549,0.59521 -1.2594,0 -2.411,-0.1984 -3.4548,-0.59521 C 31.8871,1.8029 30.9684,1.2465 30.1748,0.530518 29.3812,-0.185465 28.7256,-1.04378 28.208,-2.04443 c -0.5176,-1.00065 -0.8799,-2.10482 -1.0869,-3.3125 0.6038,0.58659 1.3155,1.00496 2.135,1.25512 0.8195,0.25017 1.6433,0.37525 2.4714,0.37525 0.8282,0 1.6606,-0.12508 2.4974,-0.37525 0.8367,-0.25016 1.557,-0.67716 2.1608,-1.281 z"
       fill="#bb1d80"
       transform="translate(656.664,426)"
       id="path173" />
    <text
       fill="#333333"
       font-family="'Segoe UI Emoji', 'Segoe UI Emoji_MSFontService', sans-serif"
       font-weight="400"
       font-size="53px"
       transform="translate(729.831,426)"
       id="text183">}<tspan
   fill="#000000"
   font-family="Calibri, Calibri_MSFontService, sans-serif"
   font-style="italic"
   font-size="32px"
   x="52.407501"
   y="-27"
   id="tspan175">P</tspan><tspan
   fill="#000000"
   font-family="Calibri, Calibri_MSFontService, sans-serif"
   font-size="32px"
   x="68.907501"
   y="-27"
   id="tspan177">(M) is the power set</tspan><tspan
   fill="#000000"
   font-family="Calibri, Calibri_MSFontService, sans-serif"
   font-style="italic"
   font-size="32px"
   x="52.407501"
   y="11"
   id="tspan179">P</tspan><tspan
   fill="#000000"
   font-family="Calibri, Calibri_MSFontService, sans-serif"
   font-size="32px"
   x="68.907501"
   y="11"
   id="tspan181">(M) is the set of all possible subsets</tspan></text>
    <text
       xml:space="preserve"
       style="font-size:96px;line-height:1.25;font-family:sans-serif"
       x="548.21582"
       y="209.99968"
       id="text200"><tspan
         sodipodi:role="line"
         id="tspan198"
         x="548.21582"
         y="209.99968"
         style="font-style:normal;font-variant:normal;font-weight:normal;font-stretch:normal;font-size:96px;font-family:Calibri;-inkscape-font-specification:Calibri">}</tspan></text>
  </g>
</svg>
