<svg width="1280" height="720" xmlns="http://www.w3.org/2000/svg" xmlns:xlink="http://www.w3.org/1999/xlink" overflow="hidden"><defs><clipPath id="clip0"><rect x="0" y="0" width="1280" height="720"/></clipPath></defs><g clip-path="url(#clip0)"><rect x="0" y="0" width="1280" height="720" fill="#FFFFFF"/><rect x="391.5" y="65.5001" width="264" height="189" stroke="#000000" stroke-width="3" stroke-miterlimit="8" fill="#D6DCE5"/><rect x="105.5" y="65.5001" width="265" height="189" stroke="#000000" stroke-width="3" stroke-miterlimit="8" fill="none"/><rect x="105.5" y="273.5" width="265" height="189" stroke="#000000" stroke-width="3" stroke-miterlimit="8" fill="#FFFFFF"/><rect x="105.5" y="480.5" width="265" height="189" stroke="#000000" stroke-width="3" stroke-miterlimit="8" fill="#FFFFFF"/><rect x="391.5" y="273.5" width="264" height="189" stroke="#000000" stroke-width="3" stroke-miterlimit="8" fill="#FFFFFF"/><rect x="391.5" y="480.5" width="264" height="189" stroke="#000000" stroke-width="3" stroke-miterlimit="8" fill="#FFFFFF"/><rect x="105.5" y="143.5" width="111" height="111" stroke="#000000" stroke-width="3" stroke-miterlimit="8" fill="#D6DCE5"/><rect x="391.5" y="143.5" width="110" height="111" stroke="#000000" stroke-width="3" stroke-miterlimit="8" fill="#FFFFFF"/><text font-family="Calibri,Calibri_MSFontService,sans-serif" font-weight="400" font-size="43" transform="translate(225.689 57)">X<tspan font-size="43" x="285.833" y="0">X</tspan><tspan font-size="43" x="-77.5389" y="156">A</tspan><tspan font-size="43" x="332.463" y="117">A</tspan><tspan font-size="28" x="356.816" y="104">C</tspan><tspan font-size="37" x="449.636" y="135">A</tspan><tspan font-size="25" x="471.029" y="124">C</tspan><tspan font-size="37" x="490.029" y="135">= { </tspan><tspan font-size="37" x="537.363" y="135">x</tspan><tspan font-family="Cambria Math,Cambria Math_MSFontService,sans-serif" font-size="37" x="553.529" y="135"> </tspan><tspan font-family="Cambria Math,Cambria Math_MSFontService,sans-serif" font-size="37" x="561.696" y="135">∈</tspan><tspan font-size="37" x="593.529" y="135">X | x </tspan><tspan font-family="Cambria Math,Cambria Math_MSFontService,sans-serif" font-size="37" x="671.696" y="135">∉</tspan><tspan font-size="37" x="704.029" y="135">A }</tspan><tspan font-size="43" x="447.442" y="98">Complement</tspan><tspan font-size="43" x="449.003" y="297">Union</tspan><tspan font-size="43" x="447.442" y="502">Intersect</tspan></text><rect x="105.5" y="351.5" width="111" height="111" stroke="#000000" stroke-width="3" stroke-miterlimit="8" fill="#D6DCE5"/><rect x="105.5" y="558.5" width="111" height="111" stroke="#000000" stroke-width="3" stroke-miterlimit="8" fill="#D6DCE5"/><rect x="161.5" y="295.5" width="110" height="111" stroke="#000000" stroke-width="3" stroke-miterlimit="8" fill="#D6DCE5" fill-opacity="0.6"/><rect x="161.5" y="503.5" width="110" height="111" stroke="#000000" stroke-width="3" stroke-miterlimit="8" fill="#D6DCE5" fill-opacity="0.6"/><text font-family="Calibri,Calibri_MSFontService,sans-serif" font-weight="400" font-size="43" transform="translate(120.775 445)">A<tspan font-size="43" x="0" y="208">A</tspan><tspan font-size="43" x="111.33" y="-111">B</tspan><tspan font-size="43" x="111.33" y="97">B</tspan></text><rect x="391.5" y="351.5" width="110" height="111" stroke="#000000" stroke-width="3" stroke-miterlimit="8" fill="#D6DCE5"/><rect x="446.5" y="295.5" width="111" height="111" stroke="#000000" stroke-width="3" stroke-miterlimit="8" fill="#D6DCE5"/><rect x="428" y="352" width="72" height="64" fill="#D6DCE5"/><text font-family="Calibri,Calibri_MSFontService,sans-serif" font-weight="400" font-size="43" transform="translate(428.654 391)">A <tspan font-family="Cambria Math,Cambria Math_MSFontService,sans-serif" font-size="43" x="34.3333" y="0">∪</tspan><tspan font-size="43" x="73" y="0">B</tspan></text><rect x="442.5" y="560.5" width="56" height="53" stroke="#000000" stroke-width="3" stroke-miterlimit="8" fill="#D6DCE5"/><text font-family="Calibri,Calibri_MSFontService,sans-serif" font-weight="400" font-size="43" transform="translate(510.906 600)">A <tspan font-family="Cambria Math,Cambria Math_MSFontService,sans-serif" font-size="43" x="34.3333" y="0">∩</tspan><tspan font-family="Cambria Math,Cambria Math_MSFontService,sans-serif" font-size="43" x="63.3333" y="0"> </tspan><tspan font-size="43" x="72.6666" y="0">B</tspan><tspan font-size="37" x="165.347" y="-210">A </tspan><tspan font-family="Cambria Math,Cambria Math_MSFontService,sans-serif" font-size="37" x="195.514" y="-210">∪</tspan><tspan font-size="37" x="229.514" y="-210">B = </tspan><tspan font-size="37" x="285.514" y="-210">{ </tspan><tspan font-size="37" x="305.68" y="-210">x</tspan><tspan font-family="Cambria Math,Cambria Math_MSFontService,sans-serif" font-size="37" x="321.847" y="-210"> </tspan><tspan font-family="Cambria Math,Cambria Math_MSFontService,sans-serif" font-size="37" x="330.014" y="-210">∈</tspan><tspan font-size="37" x="361.847" y="-210">X | </tspan><tspan font-size="37" x="415.347" y="-210">x</tspan><tspan font-family="Cambria Math,Cambria Math_MSFontService,sans-serif" font-size="37" x="431.514" y="-210"> </tspan><tspan font-family="Cambria Math,Cambria Math_MSFontService,sans-serif" font-size="37" x="439.68" y="-210">∈</tspan><tspan font-family="Cambria Math,Cambria Math_MSFontService,sans-serif" font-size="37" x="463.014" y="-210"> </tspan><tspan font-size="37" x="471.18" y="-210">A or </tspan><tspan font-size="37" x="542.514" y="-210">x</tspan><tspan font-family="Cambria Math,Cambria Math_MSFontService,sans-serif" font-size="37" x="558.68" y="-210"> </tspan><tspan font-family="Cambria Math,Cambria Math_MSFontService,sans-serif" font-size="37" x="566.847" y="-210">∈</tspan><tspan font-size="37" x="598.68" y="-210">B </tspan><tspan font-size="37" x="627.514" y="-210">}</tspan><tspan font-size="37" x="163.786" y="-3">A</tspan><tspan font-family="Cambria Math,Cambria Math_MSFontService,sans-serif" font-size="37" x="185.453" y="-3"> </tspan><tspan font-family="Cambria Math,Cambria Math_MSFontService,sans-serif" font-size="37" x="193.619" y="-3">∩</tspan><tspan font-size="37" x="227.619" y="-3">B = { x</tspan><tspan font-family="Cambria Math,Cambria Math_MSFontService,sans-serif" font-size="37" x="319.953" y="-3"> </tspan><tspan font-family="Cambria Math,Cambria Math_MSFontService,sans-serif" font-size="37" x="328.119" y="-3">∈</tspan><tspan font-size="37" x="359.953" y="-3">X | </tspan><tspan font-size="37" x="413.453" y="-3">x</tspan><tspan font-family="Cambria Math,Cambria Math_MSFontService,sans-serif" font-size="37" x="429.619" y="-3"> </tspan><tspan font-family="Cambria Math,Cambria Math_MSFontService,sans-serif" font-size="37" x="437.786" y="-3">∈</tspan><tspan font-family="Cambria Math,Cambria Math_MSFontService,sans-serif" font-size="37" x="461.119" y="-3"> </tspan><tspan font-size="37" x="469.286" y="-3">A and </tspan><tspan font-size="37" x="565.119" y="-3">x</tspan><tspan font-family="Cambria Math,Cambria Math_MSFontService,sans-serif" font-size="37" x="581.286" y="-3"> </tspan><tspan font-family="Cambria Math,Cambria Math_MSFontService,sans-serif" font-size="37" x="589.453" y="-3">∈</tspan><tspan font-size="37" x="621.286" y="-3">B </tspan><tspan font-size="37" x="650.119" y="-3">}</tspan></text></g></svg>