<svg width="1280" height="720" xmlns="http://www.w3.org/2000/svg" xmlns:xlink="http://www.w3.org/1999/xlink" overflow="hidden"><defs><clipPath id="clip0"><rect x="0" y="0" width="1280" height="720"/></clipPath></defs><g clip-path="url(#clip0)"><rect x="0" y="0" width="1280" height="720" fill="#FFFFFF"/><path d="M165.1 152C164.753 224.209 165.448 304.791 165.1 377L244.853 376.477C244.68 355.895 245.027 323.802 244.854 303.221L319.394 303.221C319.568 278.802 319.741 250.721 319.915 226.302L394.456 226.302C394.282 203.453 395.151 175.372 394.977 152.523L165.1 152Z" fill="#D6DCE5" fill-rule="evenodd" fill-opacity="0.501961"/><rect x="166" y="154" width="453" height="454" stroke="#000000" stroke-width="4" stroke-miterlimit="8" fill="#D6DCE5" fill-opacity="0.501961"/><text font-family="Calibri,Calibri_MSFontService,sans-serif" font-weight="400" font-size="59" transform="translate(190.122 143)">1<tspan font-size="59" x="75.3477" y="0">2</tspan><tspan font-size="59" x="152.782" y="0">3</tspan><tspan font-size="59" x="225.743" y="0">4</tspan><tspan font-size="59" x="299.656" y="0">5</tspan><tspan font-size="59" x="369.739" y="0">6</tspan><tspan font-size="59" x="-64.3474" y="64">1</tspan><tspan font-size="59" x="-64.3474" y="139">2</tspan><tspan font-size="59" x="-64.5173" y="216">3</tspan><tspan font-size="59" x="-64.5173" y="292">4</tspan><tspan font-size="59" x="-64.5173" y="369">5</tspan><tspan font-size="59" x="-64.5173" y="444">6</tspan><tspan fill="#F4B183" font-weight="700" font-size="32" x="-15.9767" y="56">[1,1]</tspan><tspan font-size="32" x="59.6139" y="56">[1,2]</tspan><tspan fill="#F4B183" font-weight="700" font-size="32" x="135.204" y="56">[1,3]</tspan><tspan font-size="32" x="210.795" y="56">[1,4]</tspan><tspan font-size="32" x="282.606" y="56">[1,5]</tspan><tspan font-size="32" x="356.307" y="56">[1,6]</tspan><tspan font-size="32" x="-15.9767" y="130">[2,1]</tspan><tspan fill="#F4B183" font-weight="700" font-size="32" x="59.6139" y="130">[2,2]</tspan><tspan font-size="32" x="135.204" y="130">[2,3]</tspan><tspan font-size="32" x="210.795" y="130">[2,4]</tspan><tspan font-size="32" x="282.606" y="130">[2,5]</tspan><tspan font-size="32" x="356.307" y="130">[2,6]</tspan><tspan fill="#F4B183" font-weight="700" font-size="32" x="-15.9767" y="206">[3,1]</tspan><tspan font-size="32" x="59.6139" y="206">[3,2]</tspan><tspan font-size="32" x="135.204" y="206">[3,3]</tspan><tspan font-size="32" x="210.795" y="206">[3,4]</tspan><tspan font-size="32" x="282.606" y="206">[3,5]</tspan><tspan font-size="32" x="356.307" y="206">[3,6]</tspan><tspan font-size="32" x="-15.9767" y="283">[4,1]</tspan><tspan font-size="32" x="59.6139" y="283">[4,2]</tspan><tspan font-size="32" x="135.204" y="283">[4,3]</tspan><tspan font-size="32" x="210.795" y="283">[4,4]</tspan><tspan font-size="32" x="282.606" y="283">[4,5]</tspan><tspan font-size="32" x="356.307" y="283">[4,6]</tspan><tspan font-size="32" x="-15.9767" y="434">[6,1]</tspan><tspan font-size="32" x="59.6139" y="434">[6,2]</tspan><tspan font-size="32" x="135.204" y="434">[6,3]</tspan><tspan font-size="32" x="210.795" y="434">[6,4]</tspan><tspan font-size="32" x="282.606" y="434">[6,5]</tspan><tspan font-size="32" x="356.307" y="434">[6,6]</tspan><tspan font-size="32" x="-15.9767" y="361">[5,1]</tspan><tspan font-size="32" x="59.6139" y="361">[5,2]</tspan><tspan font-size="32" x="135.204" y="361">[5,3]</tspan><tspan font-size="32" x="210.795" y="361">[5,4]</tspan><tspan font-size="32" x="282.606" y="361">[5,5]</tspan><tspan font-size="32" x="356.307" y="361">[5,6]</tspan><tspan font-size="43" x="459.478" y="211">E = </tspan><tspan fill="#8497B0" font-size="43" x="520.978" y="211">E</tspan><tspan fill="#8497B0" font-size="28" x="541.812" y="221">1</tspan><tspan font-family="Cambria Math,Cambria Math_MSFontService,sans-serif" font-size="43" x="565.978" y="211">∩</tspan><tspan fill="#F4B183" font-size="43" x="604.645" y="211">E</tspan><tspan fill="#F4B183" font-size="28" x="625.478" y="221">2</tspan><tspan font-size="43" x="649.645" y="211">where</tspan><tspan fill="#8497B0" font-size="43" x="779.207" y="189">E</tspan><tspan fill="#8497B0" font-size="28" x="800.04" y="199">1</tspan><tspan font-family="Cambria Math,Cambria Math_MSFontService,sans-serif" font-size="43" x="824.207" y="189">⊂</tspan><tspan font-size="43" x="865.707" y="189">{ 2, 3, 4 }</tspan><tspan fill="#F4B183" font-size="43" x="779.207" y="239">E</tspan><tspan fill="#F4B183" font-size="28" x="800.04" y="249">2</tspan><tspan font-family="Cambria Math,Cambria Math_MSFontService,sans-serif" font-size="43" x="824.207" y="239">⊂</tspan><tspan font-size="43" x="865.707" y="239">{ 2, 4 }</tspan></text></g></svg>