<svg width="1280" height="720" xmlns="http://www.w3.org/2000/svg" xmlns:xlink="http://www.w3.org/1999/xlink" overflow="hidden"><defs><clipPath id="clip0"><rect x="0" y="0" width="1280" height="720"/></clipPath></defs><g clip-path="url(#clip0)"><rect x="0" y="0" width="1280" height="720" fill="#FFFFFF"/><rect x="510.5" y="75.5001" width="265" height="189" stroke="#000000" stroke-width="3" stroke-miterlimit="8" fill="#DAE3F3"/><rect x="225.5" y="75.5001" width="265" height="189" stroke="#000000" stroke-width="3" stroke-miterlimit="8" fill="none"/><rect x="225.5" y="282.5" width="265" height="189" stroke="#000000" stroke-width="3" stroke-miterlimit="8" fill="#FFFFFF"/><rect x="225.5" y="490.5" width="265" height="189" stroke="#000000" stroke-width="3" stroke-miterlimit="8" fill="#FFFFFF"/><rect x="510.5" y="282.5" width="265" height="189" stroke="#000000" stroke-width="3" stroke-miterlimit="8" fill="#FFFFFF"/><rect x="510.5" y="490.5" width="265" height="189" stroke="#000000" stroke-width="3" stroke-miterlimit="8" fill="#FFFFFF"/><rect x="225.5" y="153.5" width="111" height="111" stroke="#000000" stroke-width="3" stroke-miterlimit="8" fill="#DAE3F3"/><rect x="510.5" y="153.5" width="111" height="111" stroke="#000000" stroke-width="3" stroke-miterlimit="8" fill="#FFFFFF"/><text font-family="Calibri,Calibri_MSFontService,sans-serif" font-weight="400" font-size="43" transform="translate(345.536 66)">X<tspan font-size="43" x="285.833" y="0">X</tspan><tspan font-size="43" x="-77.5389" y="156">A</tspan><tspan font-size="43" x="332.463" y="117">A</tspan><tspan font-size="28" x="356.816" y="104">C</tspan><tspan font-size="37" x="447.492" y="116">A</tspan><tspan font-size="25" x="468.885" y="105">C </tspan><tspan font-size="37" x="487.885" y="116">= {</tspan><tspan font-size="37" x="526.718" y="116">x</tspan><tspan font-family="Cambria Math,Cambria Math_MSFontService,sans-serif" font-size="37" x="542.885" y="116"> </tspan><tspan font-family="Cambria Math,Cambria Math_MSFontService,sans-serif" font-size="37" x="551.052" y="116">∈</tspan><tspan font-size="37" x="582.885" y="116">X | x </tspan><tspan font-family="Cambria Math,Cambria Math_MSFontService,sans-serif" font-size="37" x="661.052" y="116">∉</tspan><tspan font-size="37" x="693.385" y="116">A}</tspan><tspan font-size="37" x="-333.18" y="114">Complement</tspan><tspan font-size="37" x="-228.083" y="318">Union</tspan><tspan font-size="37" x="-270.744" y="524">Intersect</tspan></text><rect x="225.5" y="360.5" width="111" height="111" stroke="#000000" stroke-width="3" stroke-miterlimit="8" fill="#DAE3F3"/><rect x="225.5" y="568.5" width="111" height="111" stroke="#000000" stroke-width="3" stroke-miterlimit="8" fill="#DAE3F3"/><rect x="281.5" y="305.5" width="110" height="111" stroke="#000000" stroke-width="3" stroke-miterlimit="8" fill="#DAE3F3" fill-opacity="0.6"/><rect x="281.5" y="512.5" width="110" height="111" stroke="#000000" stroke-width="3" stroke-miterlimit="8" fill="#DAE3F3" fill-opacity="0.6"/><text font-family="Calibri,Calibri_MSFontService,sans-serif" font-weight="400" font-size="43" transform="translate(240.623 455)">A<tspan font-size="43" x="0" y="207">A</tspan><tspan font-size="43" x="111.33" y="-111">B</tspan><tspan font-size="43" x="111.33" y="96">B</tspan></text><rect x="510.5" y="360.5" width="111" height="111" stroke="#000000" stroke-width="3" stroke-miterlimit="8" fill="#DAE3F3"/><rect x="566.5" y="305.5" width="111" height="111" stroke="#000000" stroke-width="3" stroke-miterlimit="8" fill="#DAE3F3"/><rect x="547" y="362" width="73" height="79" fill="#DAE3F3"/><text font-family="Calibri,Calibri_MSFontService,sans-serif" font-weight="400" font-size="43" transform="translate(548.501 401)">A <tspan font-family="Cambria Math,Cambria Math_MSFontService,sans-serif" font-size="43" x="34.3334" y="0">∪</tspan><tspan font-size="43" x="73" y="0">B</tspan></text><rect x="562.5" y="561.5" width="55" height="57" stroke="#000000" stroke-width="3" stroke-miterlimit="8" fill="#DAE3F3"/><text font-family="Calibri,Calibri_MSFontService,sans-serif" font-weight="400" font-size="43" transform="translate(629.381 603)">A <tspan font-family="Cambria Math,Cambria Math_MSFontService,sans-serif" font-size="43" x="34.3333" y="0">∩</tspan><tspan font-family="Cambria Math,Cambria Math_MSFontService,sans-serif" font-size="43" x="63.3333" y="0"> </tspan><tspan font-size="43" x="72.6666" y="0">B</tspan><tspan font-size="37" x="163.647" y="-223">A</tspan><tspan font-family="Cambria Math,Cambria Math_MSFontService,sans-serif" font-size="37" x="193.814" y="-223">∪</tspan><tspan font-size="37" x="227.814" y="-223">B = {</tspan><tspan font-size="37" x="295.48" y="-223">x</tspan><tspan font-family="Cambria Math,Cambria Math_MSFontService,sans-serif" font-size="37" x="311.647" y="-223"> </tspan><tspan font-family="Cambria Math,Cambria Math_MSFontService,sans-serif" font-size="37" x="319.814" y="-223">∈</tspan><tspan font-size="37" x="351.647" y="-223">X </tspan><tspan font-size="37" x="379.48" y="-223">| </tspan><tspan font-size="37" x="405.147" y="-223">x</tspan><tspan font-family="Cambria Math,Cambria Math_MSFontService,sans-serif" font-size="37" x="421.314" y="-223"> </tspan><tspan font-family="Cambria Math,Cambria Math_MSFontService,sans-serif" font-size="37" x="429.48" y="-223">∈</tspan><tspan font-family="Cambria Math,Cambria Math_MSFontService,sans-serif" font-size="37" x="452.814" y="-223"> </tspan><tspan font-size="37" x="460.98" y="-223">A or </tspan><tspan font-size="37" x="532.314" y="-223">x</tspan><tspan font-family="Cambria Math,Cambria Math_MSFontService,sans-serif" font-size="37" x="548.48" y="-223"> </tspan><tspan font-family="Cambria Math,Cambria Math_MSFontService,sans-serif" font-size="37" x="556.647" y="-223">∈</tspan><tspan font-size="37" x="588.48" y="-223">B</tspan><tspan font-size="37" x="608.814" y="-223">}</tspan><tspan font-size="37" x="163.647" y="-7">A</tspan><tspan font-family="Cambria Math,Cambria Math_MSFontService,sans-serif" font-size="37" x="185.313" y="-7"> </tspan><tspan font-family="Cambria Math,Cambria Math_MSFontService,sans-serif" font-size="37" x="193.48" y="-7">∩</tspan><tspan font-size="37" x="227.48" y="-7">B = {</tspan><tspan font-size="37" x="295.147" y="-7">x</tspan><tspan font-family="Cambria Math,Cambria Math_MSFontService,sans-serif" font-size="37" x="311.313" y="-7"> </tspan><tspan font-family="Cambria Math,Cambria Math_MSFontService,sans-serif" font-size="37" x="319.48" y="-7">∈</tspan><tspan font-size="37" x="351.313" y="-7">X </tspan><tspan font-size="37" x="379.147" y="-7">| </tspan><tspan font-size="37" x="404.813" y="-7">x</tspan><tspan font-family="Cambria Math,Cambria Math_MSFontService,sans-serif" font-size="37" x="420.98" y="-7"> </tspan><tspan font-family="Cambria Math,Cambria Math_MSFontService,sans-serif" font-size="37" x="429.147" y="-7">∈</tspan><tspan font-family="Cambria Math,Cambria Math_MSFontService,sans-serif" font-size="37" x="452.48" y="-7"> </tspan><tspan font-size="37" x="460.647" y="-7">A and </tspan><tspan font-size="37" x="556.48" y="-7">x</tspan><tspan font-family="Cambria Math,Cambria Math_MSFontService,sans-serif" font-size="37" x="572.647" y="-7"> </tspan><tspan font-family="Cambria Math,Cambria Math_MSFontService,sans-serif" font-size="37" x="580.813" y="-7">∈</tspan><tspan font-size="37" x="612.647" y="-7">B</tspan><tspan font-size="37" x="632.98" y="-7">}</tspan></text></g></svg>